<svg width="78" height="78" viewBox="0 0 78 78" fill="none" xmlns="http://www.w3.org/2000/svg">
<g clip-path="url(#clip0_2912_4890)">
<path d="M16.3958 5H61.6042C68.4583 5 74 10.5214 74 17.3504V60.6496C74 67.4786 68.4583 73 61.6042 73H16.3958C9.54167 73 4 67.4786 4 60.6496V17.3504C4 10.5214 9.54167 5 16.3958 5Z" fill="#330000"/>
<path d="M37.8329 45.6837H26.9829L24.7663 52.5128C24.7079 52.7743 24.4746 52.9487 24.2121 52.9196H18.7288C18.4079 52.9196 18.3204 52.7453 18.4079 52.3966L27.7996 25.4581C27.8871 25.1675 27.9746 24.8478 28.0913 24.4991C28.2079 23.8889 28.2663 23.2496 28.2663 22.6102C28.2371 22.4649 28.3538 22.3196 28.4996 22.2906H36.0538C36.2871 22.2906 36.4038 22.3778 36.4329 22.5231L47.0788 52.4547C47.1663 52.7743 47.0788 52.9196 46.7871 52.9196H40.6913C40.4871 52.9487 40.2829 52.8034 40.2246 52.6L37.8329 45.6837ZM28.6746 39.7846H36.0829C35.9079 39.1743 35.6746 38.4478 35.4121 37.6923C35.1496 36.9077 34.8871 36.0649 34.6246 35.1931C34.3329 34.2923 34.0704 33.4205 33.7788 32.5196C33.4871 31.6188 33.2246 30.776 32.9913 29.9333C32.7579 29.1196 32.5538 28.3641 32.3496 27.6666H32.2913C32.0288 28.9162 31.7079 30.1658 31.2996 31.4154C30.8621 32.8102 30.4246 34.2632 29.9579 35.7162C29.5496 37.1983 29.1121 38.5641 28.6746 39.7846ZM53.5829 27.376C52.6204 27.4051 51.6871 27.0273 50.9871 26.359C50.3163 25.6325 49.9663 24.6735 49.9954 23.6855C49.9663 22.6974 50.3454 21.7675 51.0454 21.0991C51.7454 20.4307 52.6788 20.082 53.6413 20.082C54.7788 20.082 55.6538 20.4307 56.2954 21.0991C56.9371 21.7966 57.2871 22.7265 57.2579 23.6855C57.2871 24.6735 56.9371 25.6325 56.2371 26.359C55.5663 27.0564 54.5746 27.4342 53.5829 27.376ZM50.3163 52.6V30.2239C50.3163 29.9333 50.4329 29.8171 50.6954 29.8171H56.4704C56.7329 29.8171 56.8496 29.9624 56.8496 30.2239V52.6C56.8496 52.9196 56.7329 53.0649 56.4704 53.0649H50.7538C50.4621 53.0649 50.3163 52.8906 50.3163 52.6Z" fill="#FF9A00"/>
</g>
<defs>
<clipPath id="clip0_2912_4890">
<rect width="70" height="68" fill="white" transform="translate(4 5)"/>
</clipPath>
</defs>
</svg>
