<svg width="365" height="400" viewBox="0 0 365 400" fill="none" xmlns="http://www.w3.org/2000/svg">


    <path d="M148.314 354.536L215.75 314.057C217.559 312.975 218.458 311.541 218.492 310.024C218.492 309.977 218.492 304.804 218.492 304.757C218.458 302.923 217.15 306.109 214.613 304.604L155.424 281.079C150.737 278.281 143.639 277.975 139.577 280.397L94.256 307.837C92.9023 308.649 91.9126 305.216 91.56 306.309C91.4462 306.673 91.5145 311.494 91.5145 311.87C91.4804 313.751 92.7885 315.75 95.3936 317.302L132.468 353.866C137.154 356.664 144.253 356.97 148.314 354.548V354.536Z" fill="url(#paint2_linear_3124_38442)"/>
    <path d="M148.315 349.375L215.751 308.896C219.812 306.474 219.3 302.241 214.614 299.443L155.425 275.918C150.738 273.119 143.639 272.814 139.578 275.236L94.2568 302.676C90.1956 305.098 90.7075 309.331 95.3944 312.129L132.468 348.693C137.155 351.491 144.254 351.797 148.315 349.375Z" fill="url(#paint3_linear_3124_38442)"/>
    <path style="mix-blend-mode:multiply" opacity="0.82" d="M94.2638 302.676L139.585 275.236C143.646 272.814 150.745 273.119 155.432 275.918L185.248 287.768C184.964 288.004 184.668 288.227 184.327 288.427L116.89 328.906C115.958 329.459 114.854 329.87 113.66 330.14L95.4014 312.129C90.7146 309.331 90.2027 305.098 94.2638 302.676Z" fill="url(#paint4_linear_3124_38442)"/>
    <path d="M60.2103 349.598L225.843 250.687C234.307 245.631 241.178 232.075 241.178 220.413V89.4992C241.178 77.8364 234.318 72.4635 225.843 77.5189L60.2103 176.43C51.7467 181.485 44.8757 195.041 44.8757 206.704V337.617C44.8757 349.28 51.7353 354.653 60.2103 349.598Z" fill="url(#paint7_linear_3124_38442)"/>
    <path d="M58.2429 340.473L221.544 242.973C228.358 238.494 232.578 229.559 232.578 220.4V88.6286C232.578 86.4653 230.292 85.1133 228.483 86.2067C228.267 86.336 228.107 86.43 228.005 86.5006L64.5337 184.13C56.4227 188.962 53.4992 197.545 53.4992 206.703V338.063C53.4992 340.391 55.9336 341.849 57.8903 340.697C58.0495 340.603 58.1633 340.532 58.2543 340.485L58.2429 340.473Z" fill="url(#paint8_linear_3124_38442)"/>
    <path d="M55.8638 174.029L221.496 75.1182C224.841 73.1195 227.947 72.755 230.472 73.7544C230.791 73.8837 235.068 76.2351 235.364 76.3997H235.375C232.759 75.0829 229.448 75.3298 225.842 77.493L60.2094 176.404C51.7457 181.46 44.8747 195.015 44.8747 206.678V337.591C44.8747 344.869 47.548 349.701 51.6206 351.065C51.2907 351.088 50.8812 350.947 50.2782 350.595C50.0849 350.477 45.4435 347.773 45.2614 347.644C42.3492 345.539 40.5405 341.201 40.5405 335.205V204.291C40.5405 192.617 47.4001 179.073 55.8752 174.017L55.8638 174.029Z" fill="url(#paint9_linear_3124_38442)"/>
    <path style="mix-blend-mode:screen" opacity="0.6" d="M59.4797 176.04L225.112 77.1288C228.582 75.0596 231.779 74.7657 234.35 75.9061C232.154 75.5416 229.64 76.0942 226.955 77.6931L61.3226 176.604C52.8589 181.66 45.9879 195.215 45.9879 206.878V337.792C45.9879 344.669 48.3882 349.337 52.0854 350.995C47.353 350.219 44.1451 345.198 44.1451 337.227V206.314C44.1451 194.639 51.0047 181.095 59.4797 176.04Z" fill="url(#paint10_radial_3124_38442)"/>
    <path d="M232.57 218.529V220.399C232.57 229.546 228.35 238.493 221.536 242.972L58.2351 340.472C58.1555 340.519 58.0303 340.59 57.8711 340.684C55.9144 341.836 53.48 340.378 53.48 338.05V325.447L232.548 218.529H232.57Z" fill="url(#paint12_linear_3124_38442)"/>
    <path d="M232.57 218.53L53.5028 325.447V322.978L230.602 217.742L232.57 218.53Z" fill="url(#paint13_linear_3124_38442)"/>
    <path opacity="0.1" d="M140.3 178.95L172.926 141.586C172.858 141.433 173.017 141.104 173.199 141.092C173.256 141.092 173.324 141.069 173.381 141.057L175.395 138.753C175.452 138.717 175.509 138.706 175.577 138.706C175.588 138.694 175.588 138.67 175.611 138.659L176.294 138.623C176.521 138.153 176.669 137.636 176.669 137.095C176.669 136.249 176.35 135.884 175.964 135.672C175.725 135.59 175.509 135.531 175.338 135.437C174.974 135.32 174.69 135.202 174.69 134.802V132.863C174.621 132.816 174.542 132.78 174.473 132.721C174.314 132.686 174.166 132.616 174.03 132.522L173.586 132.239C172.983 132.028 172.596 131.381 172.596 130.394C172.596 129.559 172.881 128.642 173.324 127.819L172.46 104.152L173.211 103.717L174.052 126.749C174.405 126.326 174.803 125.961 175.224 125.714C175.975 125.268 176.646 125.244 177.124 125.55L177.818 125.961L177.898 126.008C177.898 126.008 177.977 126.091 178.023 126.126C178.171 126.161 178.318 126.208 178.444 126.29L178.921 126.573L179.854 99.8609L180.639 99.4023L179.672 127.031C179.672 127.113 179.661 127.196 179.649 127.278C179.809 127.584 179.911 127.972 179.911 128.442C179.911 130.158 178.739 132.263 177.283 133.121C177.033 133.274 176.794 133.356 176.567 133.415V134.038C176.84 134.038 177.09 134.121 177.306 134.25C178.136 134.461 178.648 135.367 178.523 136.778C178.466 137.342 178.307 137.942 178.068 138.518L210.762 136.919L214.334 134.791L215.961 135.814V162.173L137.195 209.059L135.534 208.142V181.783L140.334 178.914L140.3 178.95ZM209.363 137.765L177.716 139.27C177.249 140.14 176.612 140.928 175.907 141.445C175.019 142.092 174.212 142.209 173.609 141.939L142.28 177.762L209.352 137.765H209.363Z" fill="#0F001F"/>
    <path d="M140.477 185.113V211.331L138.793 210.402V184.043L140.477 185.113Z" fill="url(#paint14_linear_3124_38442)"/>
    <path d="M140.449 185.11V211.328L219.227 164.429V138.07L140.449 185.11Z" fill="url(#paint15_linear_3124_38442)"/>
    <path d="M219.227 138.072L140.449 185.111L138.788 184.041L217.6 137.049L219.227 138.072Z" fill="url(#paint16_linear_3124_38442)"/>
    <path d="M145.539 200.651L148.758 194.914C149.099 194.314 149.611 193.95 149.998 193.985L150.942 192.304C149.532 190.928 149.668 187.683 151.374 184.65C153.24 181.335 156.255 179.524 158.12 180.629C159.986 181.734 159.986 185.308 158.12 188.624C156.414 191.657 153.741 193.421 151.875 192.856L150.931 194.538C151.158 194.867 151.113 195.513 150.771 196.113L147.552 201.85C147.154 202.568 146.494 202.956 146.096 202.72L145.539 202.391C145.14 202.156 145.14 201.38 145.539 200.663V200.651ZM152.523 190.576C153.752 191.293 155.743 190.117 156.96 187.93C158.189 185.743 158.189 183.38 156.96 182.663C155.731 181.946 153.741 183.122 152.523 185.308C151.295 187.495 151.295 189.858 152.523 190.576Z" fill="white"/>
    <path d="M163.252 190.917L212.191 161.701V149.121L163.252 178.349V190.917Z" fill="white"/>
    <path d="M256.262 243.868V245.832L254.601 244.844V242.881L256.262 243.868Z" fill="#25054D"/>
    <path d="M256.252 243.868V245.831L266.184 239.906V237.942L256.252 243.868Z" fill="#45108A"/>
    <path d="M266.184 237.943L256.252 243.868L254.603 242.881L264.545 236.955L266.184 237.943Z" fill="#7C1DC9"/>
    <path d="M276.072 243.869V245.833L277.733 244.845V242.882L276.072 243.869Z" fill="#25054D"/>
    <path d="M276.082 243.868V245.831L266.151 239.906V237.942L276.082 243.868Z" fill="#25054D"/>
    <path d="M266.152 237.943L276.083 243.868L277.732 242.881L267.79 236.955L266.152 237.943Z" fill="#7C1DC9"/>
    <path d="M256.262 259.652V261.615L254.601 260.627V258.664L256.262 259.652Z" fill="#25054D"/>
    <path d="M256.252 259.649V261.613L266.184 255.687V253.724L256.252 259.649Z" fill="#45108A"/>
    <path d="M266.184 253.725L256.252 259.65L254.603 258.663L264.545 252.737L266.184 253.725Z" fill="#7C1DC9"/>
    <path d="M276.072 259.652V261.615L277.733 260.627V258.664L276.072 259.652Z" fill="#25054D"/>
    <path d="M276.082 259.648V261.612L266.151 255.686V253.723L276.082 259.648Z" fill="#25054D"/>
    <path d="M266.152 253.725L276.083 259.65L277.732 258.663L267.79 252.737L266.152 253.725Z" fill="#7C1DC9"/>
    <path d="M256.262 212.365V214.328L254.601 213.34V211.377L256.262 212.365Z" fill="#25054D"/>
    <path d="M256.252 212.362V214.325L266.184 208.4V206.437L256.252 212.362Z" fill="#45108A"/>
    <path d="M266.184 206.437L256.252 212.362L254.603 211.375L264.545 205.449L266.184 206.437Z" fill="#7C1DC9"/>
    <path d="M276.072 212.365V214.328L277.733 213.34V211.377L276.072 212.365Z" fill="#25054D"/>
    <path d="M276.082 212.362V214.325L266.151 208.4V206.437L276.082 212.362Z" fill="#25054D"/>
    <path d="M266.152 206.437L276.083 212.362L277.732 211.375L267.79 205.449L266.152 206.437Z" fill="#7C1DC9"/>
    <path d="M256.262 228.143V230.106L254.601 229.119V227.155L256.262 228.143Z" fill="#25054D"/>
    <path d="M256.252 228.139V230.103L266.184 224.177V222.214L256.252 228.139Z" fill="#45108A"/>
    <path d="M266.184 222.216L256.252 228.142L254.603 227.154L264.545 221.229L266.184 222.216Z" fill="#7C1DC9"/>
    <path d="M276.072 228.143V230.106L277.733 229.119V227.155L276.072 228.143Z" fill="#25054D"/>
    <path d="M276.082 228.138V230.102L266.151 224.176V222.213L276.082 228.138Z" fill="#25054D"/>
    <path d="M266.152 222.216L276.083 228.142L277.732 227.154L267.79 221.229L266.152 222.216Z" fill="#7C1DC9"/>
    <path d="M256.262 180.853V182.816L254.601 181.829V179.865L256.262 180.853Z" fill="#25054D"/>
    <path d="M256.252 180.85V182.814L266.184 176.876V174.913L256.252 180.85Z" fill="#45108A"/>
    <path d="M266.184 174.915L256.252 180.853L254.603 179.865L264.545 173.928L266.184 174.915Z" fill="#7C1DC9"/>
    <path d="M276.072 180.853V182.816L277.733 181.829V179.865L276.072 180.853Z" fill="#25054D"/>
    <path d="M276.082 180.849V182.813L266.151 176.876V174.912L276.082 180.849Z" fill="#25054D"/>
    <path d="M266.152 174.915L276.083 180.853L277.732 179.865L267.79 173.928L266.152 174.915Z" fill="#7C1DC9"/>
    <path d="M256.262 196.617V198.593L254.601 197.605V195.642L256.262 196.617Z" fill="#25054D"/>
    <path d="M256.252 196.617V198.592L266.184 192.655V190.691L256.252 196.617Z" fill="#45108A"/>
    <path d="M266.184 190.692L256.252 196.617L254.603 195.641L264.545 189.704L266.184 190.692Z" fill="#7C1DC9"/>
    <path d="M276.072 196.617V198.593L277.733 197.605V195.642L276.072 196.617Z" fill="#25054D"/>
    <path d="M276.082 196.617V198.592L266.151 192.655V190.691L276.082 196.617Z" fill="#25054D"/>
    <path d="M266.152 190.692L276.083 196.617L277.732 195.641L267.79 189.704L266.152 190.692Z" fill="#7C1DC9"/>
    <path d="M256.262 149.347V151.322L254.601 150.334V148.371L256.262 149.347Z" fill="#25054D"/>
    <path d="M256.252 149.346V151.322L266.184 145.384V143.421L256.252 149.346Z" fill="#45108A"/>
    <path d="M266.184 143.421L256.252 149.347L254.603 148.371L264.545 142.434L266.184 143.421Z" fill="#7C1DC9"/>
    <path d="M276.072 149.347V151.322L277.733 150.334V148.371L276.072 149.347Z" fill="#25054D"/>
    <path d="M276.082 149.346V151.322L266.151 145.384V143.421L276.082 149.346Z" fill="#25054D"/>
    <path d="M266.152 143.421L276.083 149.347L277.732 148.371L267.79 142.434L266.152 143.421Z" fill="#7C1DC9"/>
    <path d="M256.262 165.123V167.087L254.601 166.111V164.136L256.262 165.123Z" fill="#25054D"/>
    <path d="M256.252 165.121V167.084L266.184 161.159V159.195L256.252 165.121Z" fill="#45108A"/>
    <path d="M266.184 159.197L256.252 165.122L254.603 164.134L264.545 158.209L266.184 159.197Z" fill="#7C1DC9"/>
    <path d="M276.072 165.123V167.087L277.733 166.111V164.136L276.072 165.123Z" fill="#25054D"/>
    <path d="M276.082 165.121V167.084L266.151 161.159V159.195L276.082 165.121Z" fill="#25054D"/>
    <path d="M266.152 159.197L276.083 165.122L277.732 164.134L267.79 158.209L266.152 159.197Z" fill="#7C1DC9"/>
    <path d="M215.257 139.619C215.201 139.83 214.984 139.96 214.78 139.901L179.298 141.582C179.116 141.7 178.877 141.641 178.764 141.453C178.65 141.265 178.707 141.018 178.889 140.9L214.973 139.125C215.178 139.184 215.303 139.407 215.246 139.619H215.257Z" fill="#0F001F"/>
    <path d="M175.869 132.639C175.869 130.922 177.041 128.818 178.497 127.96C179.248 127.513 179.919 127.489 180.397 127.795L181.182 128.254L180.67 129.159C180.67 129.159 180.67 129.253 180.67 129.312C180.67 131.028 179.498 133.133 178.042 133.991C177.974 134.026 177.905 134.062 177.837 134.097L177.416 134.838L176.859 134.485C176.256 134.273 175.869 133.627 175.869 132.639Z" fill="#25054D"/>
    <path d="M176.615 133.074C176.615 134.79 177.787 135.484 179.243 134.626C180.699 133.756 181.871 131.663 181.871 129.946C181.871 128.23 180.699 127.536 179.243 128.394C177.787 129.264 176.615 131.357 176.615 133.074Z" fill="#45108A"/>
    <path d="M174.294 92.5226C174.294 90.0536 175.977 87.0439 178.059 85.8094C179.129 85.1745 180.096 85.1275 180.778 85.5743L181.904 86.2327L181.165 87.5259C181.165 87.5964 181.165 87.667 181.165 87.7375C181.165 90.2065 179.481 93.2163 177.399 94.4507C177.308 94.5095 177.206 94.5565 177.115 94.6036L176.512 95.6617L175.716 95.1562C174.851 94.8505 174.294 93.9334 174.294 92.5108V92.5226Z" fill="#25054D"/>
    <path d="M175.344 93.1548C175.344 95.6238 177.028 96.6114 179.11 95.3769C181.191 94.1306 182.875 91.1326 182.875 88.6637C182.875 86.1947 181.191 85.2071 179.11 86.4416C177.028 87.6878 175.344 90.6859 175.344 93.1548Z" fill="#45108A"/>
    <path d="M178.597 134.916C179.052 134.916 179.53 134.763 180.019 134.469C181.623 133.517 182.943 131.177 182.954 129.261L184.331 89.8281C184.331 89.6871 184.354 89.5107 184.354 89.3344C184.354 87.2534 183.307 85.9131 181.68 85.9131C181.032 85.9131 180.338 86.1247 179.633 86.548C177.244 87.9705 175.298 91.4388 175.298 94.2723C175.298 94.4486 175.298 94.6132 175.321 94.7778L176.698 132.565C176.698 133.975 177.448 134.904 178.597 134.904V134.916ZM181.68 86.7243C182.852 86.7243 183.58 87.7354 183.58 89.3461C183.58 89.4989 183.58 89.6518 183.569 89.7811L182.192 129.237C182.181 130.883 181.009 132.953 179.644 133.776C179.28 133.999 178.916 134.105 178.609 134.105C177.903 134.105 177.483 133.517 177.483 132.541L176.106 94.719C176.095 94.5662 176.083 94.4251 176.083 94.2723C176.083 91.6975 177.858 88.5349 180.031 87.2416C180.611 86.8889 181.191 86.7126 181.692 86.7126L181.68 86.7243Z" fill="#0F001F"/>
    <path d="M177.545 142.968C178.876 142.168 179.957 140.863 179.957 139.323C179.957 137.219 177.977 138.065 177.977 137.031V134.82L179.467 133.938V136.29C180.719 136.066 181.595 137.042 181.424 138.853C181.265 140.546 180.173 142.498 178.819 143.485C177.795 144.238 176.851 144.308 176.237 143.85C176.089 143.732 176.282 143.309 176.487 143.297C176.805 143.297 177.158 143.168 177.534 142.944L177.545 142.968Z" fill="#25054D"/>
    <path d="M177.926 143.138C179.257 142.338 180.337 141.033 180.337 139.493C180.337 137.389 178.358 138.235 178.358 137.2V134.99L179.848 134.108V136.46C181.1 136.236 181.976 137.212 181.805 139.023C181.646 140.716 180.554 142.667 179.2 143.655C178.176 144.407 177.232 144.478 176.618 144.019C176.47 143.902 176.663 143.479 176.868 143.467C177.186 143.467 177.539 143.338 177.914 143.114L177.926 143.138Z" fill="#45108A"/>
    <path d="M176.186 93.591C176.186 91.122 177.87 88.1123 179.952 86.8778C181.021 86.2429 181.988 86.1959 182.671 86.6426L183.797 87.301L183.057 88.5943C183.057 88.6648 183.057 88.7354 183.057 88.8059C183.057 91.2749 181.374 94.2846 179.292 95.5191C179.201 95.5779 179.099 95.6249 179.008 95.6719L178.405 96.7301L177.608 96.2245C176.744 95.9188 176.186 95.0018 176.186 93.5792V93.591Z" fill="#25054D"/>
    <path d="M178.316 96.7246C176.852 95.8398 176.865 93.0004 178.346 90.3826C179.826 87.7648 182.214 86.3599 183.678 87.2447C185.143 88.1294 185.13 90.9688 183.649 93.5867C182.168 96.2045 179.781 97.6094 178.316 96.7246Z" fill="#45108A"/>
    <path d="M178.907 93.2273C178.907 94.6029 179.84 95.1555 181.001 94.4618C182.161 93.7682 183.094 92.0987 183.094 90.7349C183.094 89.3711 182.161 88.8067 181.001 89.5004C179.84 90.1941 178.907 91.8635 178.907 93.2273Z" fill="#200041"/>
    <path d="M177.191 133.379C177.191 131.663 178.363 129.558 179.819 128.7C180.57 128.253 181.241 128.23 181.719 128.535L182.504 128.994L181.992 129.899C181.992 129.899 181.992 129.993 181.992 130.052C181.992 131.769 180.82 133.873 179.364 134.731C179.296 134.767 179.228 134.802 179.159 134.837L178.738 135.578L178.181 135.225C177.578 135.013 177.191 134.367 177.191 133.379Z" fill="#25054D"/>
    <path d="M177.942 133.827C177.942 135.543 179.113 136.237 180.569 135.379C182.026 134.508 183.197 132.416 183.197 130.699C183.197 128.983 182.026 128.289 180.569 129.147C179.113 130.017 177.942 132.11 177.942 133.827Z" fill="#45108A"/>
    <path d="M179.101 133.121C179.101 134.073 179.75 134.461 180.558 133.979C181.365 133.497 182.014 132.333 182.014 131.381C182.014 130.429 181.365 130.041 180.558 130.523C179.75 131.005 179.101 132.169 179.101 133.121Z" fill="#200041"/>
    <path d="M294.527 43.8798L278.271 34.2156V30.959L294.527 40.6232V43.8798Z" fill="#0F001F"/>
    <path d="M304.086 38.0721L294.519 43.88V40.6233L304.086 34.8271V38.0721Z" fill="#200041"/>
    <path d="M304.086 34.8273L294.519 40.6235L278.274 30.9593L287.841 25.1514L304.086 34.8273Z" fill="#25054D"/>
    <path d="M294.527 39.7675L278.271 30.1033V26.8467L294.527 36.5109V39.7675Z" fill="#0F001F"/>
    <path d="M304.086 33.9471L294.519 39.7667V36.5101L304.086 30.7021V33.9471Z" fill="#200041"/>
    <path d="M304.086 30.7042L294.519 36.5121L278.274 26.848L287.841 21.04L304.086 30.7042Z" fill="#25054D"/>
    <path d="M294.527 35.7539L278.271 26.0897V22.833L294.527 32.4972V35.7539Z" fill="#0F001F"/>
    <path d="M304.086 29.9471L294.519 35.755V32.4983L304.086 26.7021V29.9471Z" fill="#200041"/>
    <path d="M304.086 26.7023L294.519 32.4985L278.274 22.8343L287.841 17.0264L304.086 26.7023Z" fill="#25054D"/>
    <path d="M294.527 31.5498L278.271 21.8856V18.6289L294.527 28.2931V31.5498Z" fill="#0F001F"/>
    <path d="M304.086 25.7293L294.519 31.549V28.2923L304.086 22.4844V25.7293Z" fill="#200041"/>
    <path d="M304.086 22.4865L294.519 28.2944L278.274 18.6302L287.841 12.8223L304.086 22.4865Z" fill="#25054D"/>
    <path opacity="0.2" d="M293.446 276.661L266.234 293.038L238.659 276.649L265.893 260.248L293.446 276.661Z" fill="#92B4D1"/>
    <path d="M266.242 291.532L239.373 275.566V273.015L266.242 288.981V291.532Z" fill="#0F001F"/>
    <path d="M292.723 275.565L266.228 291.531V288.979L292.723 273.037V275.565Z" fill="#200041"/>
    <path d="M292.723 273.038L266.228 288.981L239.381 273.015L265.899 257.061L292.723 273.038Z" fill="#311B61"/>
    <path style="mix-blend-mode:screen" opacity="0.6" d="M292.723 273.038L266.228 288.981L239.381 273.015L266.149 288.44L292.723 273.038Z" fill="url(#paint17_radial_3124_38442)"/>
    <path d="M266.164 283.279L249.908 273.615V270.358L266.164 280.023V283.279Z" fill="#25054D"/>
    <path d="M282.192 273.617L266.152 283.281V280.024L282.192 270.372V273.617Z" fill="#45108A"/>
    <path d="M282.192 270.372L266.152 280.025L249.907 270.36L265.958 260.696L282.192 270.372Z" fill="#7C1DC9"/>
    <path style="mix-blend-mode:screen" opacity="0.6" d="M282.192 270.37L266.152 280.023L249.907 270.358L266.106 279.388L282.192 270.37Z" fill="url(#paint18_radial_3124_38442)"/>
    <path d="M256.262 54.7337V56.6971L254.601 55.7095V53.7461L256.262 54.7337Z" fill="#25054D"/>
    <path d="M256.252 54.7302V56.6936L266.184 50.7563V48.8047L256.252 54.7302Z" fill="#45108A"/>
    <path d="M266.184 48.8079L256.252 54.7334L254.603 53.7458L264.545 47.8086L266.184 48.8079Z" fill="#7C1DC9"/>
    <path d="M256.262 70.5608V72.5242L254.601 71.5366V69.5732L256.262 70.5608Z" fill="#25054D"/>
    <path d="M256.252 70.5603V72.5237L266.184 66.5982V64.6348L256.252 70.5603Z" fill="#45108A"/>
    <path d="M266.184 64.6341L256.252 70.5596L254.603 69.572L264.545 63.6465L266.184 64.6341Z" fill="#7C1DC9"/>
    <path d="M256.262 86.3284V88.2918L254.601 87.3042V85.3408L256.262 86.3284Z" fill="#25054D"/>
    <path d="M256.252 86.3239V88.2873L266.184 82.3618V80.3984L256.252 86.3239Z" fill="#45108A"/>
    <path d="M266.184 80.4016L256.252 86.3271L254.603 85.3395L264.545 79.4141L266.184 80.4016Z" fill="#7C1DC9"/>
    <path d="M256.262 102.033V103.997L254.601 103.021V101.046L256.262 102.033Z" fill="#25054D"/>
    <path d="M256.252 102.029V103.992L266.184 98.0669V96.1035L256.252 102.029Z" fill="#45108A"/>
    <path d="M266.184 96.1067L256.252 102.032L254.603 101.045L264.545 95.1191L266.184 96.1067Z" fill="#7C1DC9"/>
    <path d="M256.262 117.871V119.835L254.601 118.847V116.884L256.262 117.871Z" fill="#25054D"/>
    <path d="M256.252 117.87V119.833L266.184 113.896V111.933L256.252 117.87Z" fill="#45108A"/>
    <path d="M266.184 111.933L256.252 117.87L254.603 116.883L264.545 110.945L266.184 111.933Z" fill="#7C1DC9"/>
    <path d="M256.262 133.623V135.598L254.601 134.611V132.647L256.262 133.623Z" fill="#25054D"/>
    <path d="M256.252 133.619V135.594L266.184 129.657V127.693L256.252 133.619Z" fill="#45108A"/>
    <path d="M266.184 127.697L256.252 133.622L254.603 132.646L264.545 126.709L266.184 127.697Z" fill="#7C1DC9"/>
    <path d="M276.072 39.0296V40.993L277.733 40.0054V38.042L276.072 39.0296Z" fill="#25054D"/>
    <path d="M276.082 39.0251V40.9885L266.151 35.0513V33.0879L276.082 39.0251Z" fill="#25054D"/>
    <path d="M266.152 33.0911L276.083 39.0283L277.732 38.0408L267.79 32.1035L266.152 33.0911Z" fill="#7C1DC9"/>
    <path d="M256.262 39.0296V40.993L254.601 40.0054V38.042L256.262 39.0296Z" fill="#25054D"/>
    <path d="M256.252 39.0251V40.9885L266.184 35.0513V33.0879L256.252 39.0251Z" fill="#45108A"/>
    <path d="M266.184 33.0911L256.252 39.0283L254.603 38.0408L264.545 32.1035L266.184 33.0911Z" fill="#7C1DC9"/>
    <path d="M254.615 18.5559V271.518L252.954 270.53V17.5801L254.615 18.5559Z" fill="#25054D"/>
    <path d="M254.602 18.5549V271.517L256.252 270.529V17.5791L254.602 18.5549Z" fill="#45108A"/>
    <path d="M256.252 17.5823L254.602 18.5581L252.953 17.5823L254.602 16.5947L256.252 17.5823Z" fill="#7C1DC9"/>
    <path d="M264.534 46.0247V47.9881L266.184 47.0123V45.0371L264.534 46.0247Z" fill="#25054D"/>
    <path d="M264.535 46.0202V47.9836L254.604 42.0581V40.0947L264.535 46.0202Z" fill="#25054D"/>
    <path d="M254.603 40.0979L264.534 46.0234L266.184 45.0358L256.252 39.1104L254.603 40.0979Z" fill="#7C1DC9"/>
    <path d="M198.032 78.177V80.1404L199.682 79.1529V77.1895L198.032 78.177Z" fill="#25054D"/>
    <path d="M198.031 78.1759V80.1393L192.617 76.7768V74.8252L198.031 78.1759Z" fill="#25054D"/>
    <path d="M192.617 74.8265L198.032 78.1772L199.682 77.1896L194.267 73.8271L192.617 74.8265Z" fill="#7C1DC9"/>
    <path d="M192.639 68.3362V74.8848L190.978 73.8972V67.3486L192.639 68.3362Z" fill="#25054D"/>
    <path d="M192.626 68.3362V74.8848L194.275 73.8972V67.3486L192.626 68.3362Z" fill="#45108A"/>
    <path d="M194.275 67.346L192.626 68.3336L190.976 67.346L192.626 66.3584L194.275 67.346Z" fill="#7C1DC9"/>
    <path d="M188.46 83.9046V85.868L190.121 84.8804V82.917L188.46 83.9046Z" fill="#25054D"/>
    <path d="M188.471 83.9035V85.8669L183.056 82.5044V80.541L188.471 83.9035Z" fill="#25054D"/>
    <path d="M183.057 80.5442L188.472 83.9067L190.121 82.9191L184.695 79.5566L183.057 80.5442Z" fill="#7C1DC9"/>
    <path d="M183.055 74.0579V80.6065L181.394 79.6189V73.0703L183.055 74.0579Z" fill="#25054D"/>
    <path d="M183.053 74.0589V80.6075L184.691 79.6199V73.0713L183.053 74.0589Z" fill="#45108A"/>
    <path d="M184.691 73.0735L183.053 74.0611L181.392 73.0735L183.053 72.0859L184.691 73.0735Z" fill="#7C1DC9"/>
    <path d="M302.972 15.5257V17.5008L304.633 16.5132V14.5381L302.972 15.5257Z" fill="#25054D"/>
    <path d="M302.973 15.5255V17.5007L297.558 14.1382V12.1748L302.973 15.5255Z" fill="#25054D"/>
    <path d="M297.557 12.1771L302.972 15.5278L304.633 14.5402L299.207 11.1777L297.557 12.1771Z" fill="#7C1DC9"/>
    <path d="M297.568 5.60672V12.1553L295.907 11.1677V4.61914L297.568 5.60672Z" fill="#25054D"/>
    <path d="M297.556 5.60672V12.1553L299.205 11.1677V4.61914L297.556 5.60672Z" fill="#45108A"/>
    <path d="M299.205 4.62234L297.556 5.60992L295.906 4.62234L297.556 3.63477L299.205 4.62234Z" fill="#7C1DC9"/>
    <path d="M169.08 89.0764V91.0398L167.419 90.0523V88.0889L169.08 89.0764Z" fill="#25054D"/>
    <path d="M169.066 89.0776V91.041L299.354 13.0103V11.0469L169.066 89.0776Z" fill="#45108A"/>
    <path d="M299.354 11.0471L169.066 89.0778L167.416 88.0902L297.704 10.0596L299.354 11.0471Z" fill="#7C1DC9"/>
    <path d="M283.87 26.8831V28.8465L285.531 27.8589V25.8955L283.87 26.8831Z" fill="#25054D"/>
    <path d="M283.871 26.882V28.8454L278.468 25.4829V23.5312L283.871 26.882Z" fill="#25054D"/>
    <path d="M278.467 23.5335L283.87 26.8842L285.531 25.8967L280.105 22.5342L278.467 23.5335Z" fill="#7C1DC9"/>
    <path d="M278.48 17.0423V23.5909L276.82 22.6033V16.0547L278.48 17.0423Z" fill="#25054D"/>
    <path d="M278.479 17.0413V23.5899L280.117 22.6023V16.0537L278.479 17.0413Z" fill="#45108A"/>
    <path d="M280.117 16.0569L278.479 17.0445L276.818 16.0569L278.479 15.0693L280.117 16.0569Z" fill="#7C1DC9"/>
    <path d="M293.386 21.2454V23.2088L295.047 22.2212V20.2578L293.386 21.2454Z" fill="#25054D"/>
    <path d="M293.397 21.2453V23.2087L287.982 19.8462V17.8945L293.397 21.2453Z" fill="#25054D"/>
    <path d="M287.982 17.8968L293.397 21.2475L295.047 20.2599L289.632 16.8975L287.982 17.8968Z" fill="#7C1DC9"/>
    <path d="M287.982 11.3391V17.8877L286.322 16.9002V10.3516L287.982 11.3391Z" fill="#25054D"/>
    <path d="M287.981 11.3391V17.8877L289.619 16.9002V10.3516L287.981 11.3391Z" fill="#45108A"/>
    <path d="M289.619 10.3518L287.981 11.3394L286.32 10.3518L287.981 9.36426L289.619 10.3518Z" fill="#7C1DC9"/>
    <path d="M217.173 66.9143V68.8777L218.823 67.8902V65.9268L217.173 66.9143Z" fill="#25054D"/>
    <path d="M217.172 66.9133V68.8767L211.757 65.5142V63.5508L217.172 66.9133Z" fill="#25054D"/>
    <path d="M211.758 63.553L217.173 66.9155L218.823 65.9279L213.408 62.5654L211.758 63.553Z" fill="#7C1DC9"/>
    <path d="M211.768 57.0716V63.6202L210.107 62.6326V56.084L211.768 57.0716Z" fill="#25054D"/>
    <path d="M211.755 57.0716V63.6202L213.404 62.6326V56.084L211.755 57.0716Z" fill="#45108A"/>
    <path d="M213.404 56.0862L211.755 57.0738L210.105 56.0862L211.755 55.0986L213.404 56.0862Z" fill="#7C1DC9"/>
    <path d="M226.683 61.2854V63.2488L228.344 62.2613V60.2979L226.683 61.2854Z" fill="#25054D"/>
    <path d="M226.684 61.2834V63.2468L221.269 59.8843V57.9209L226.684 61.2834Z" fill="#25054D"/>
    <path d="M221.268 57.9212L226.683 61.2837L228.344 60.2961L222.917 56.9336L221.268 57.9212Z" fill="#7C1DC9"/>
    <path d="M221.285 51.4427V57.9913L219.625 57.0037V50.4551L221.285 51.4427Z" fill="#25054D"/>
    <path d="M221.273 51.4427V57.9913L222.922 57.0037V50.4551L221.273 51.4427Z" fill="#45108A"/>
    <path d="M222.922 50.4583L221.273 51.4459L219.623 50.4583L221.273 49.4707L222.922 50.4583Z" fill="#7C1DC9"/>
    <path d="M236.249 55.555V57.5184L237.91 56.5308V54.5674L236.249 55.555Z" fill="#25054D"/>
    <path d="M236.26 55.5538V57.5172L230.845 54.1548V52.2031L236.26 55.5538Z" fill="#25054D"/>
    <path d="M230.846 52.2054L236.261 55.5561L237.91 54.5685L232.495 51.2061L230.846 52.2054Z" fill="#7C1DC9"/>
    <path d="M230.844 45.7151V52.2637L229.195 51.2761V44.7275L230.844 45.7151Z" fill="#25054D"/>
    <path d="M230.845 45.7151V52.2637L232.494 51.2761V44.7275L230.845 45.7151Z" fill="#45108A"/>
    <path d="M232.494 44.7278L230.845 45.7154L229.195 44.7278L230.845 43.7402L232.494 44.7278Z" fill="#7C1DC9"/>
    <path d="M245.766 49.7708V51.7342L247.416 50.7466V48.7832L245.766 49.7708Z" fill="#25054D"/>
    <path d="M245.766 49.7697V51.7331L240.351 48.3706V46.4189L245.766 49.7697Z" fill="#25054D"/>
    <path d="M240.352 46.4212L245.767 49.7719L247.416 48.7844L242.001 45.4219L240.352 46.4212Z" fill="#7C1DC9"/>
    <path d="M240.371 39.928V46.4766L238.71 45.489V38.9404L240.371 39.928Z" fill="#25054D"/>
    <path d="M240.358 39.928V46.4766L242.008 45.489V38.9404L240.358 39.928Z" fill="#45108A"/>
    <path d="M242.008 38.9446L240.358 39.9322L238.709 38.9446L240.358 37.957L242.008 38.9446Z" fill="#7C1DC9"/>
    <path d="M255.347 44.0481V46.0233L257.008 45.0357V43.0605L255.347 44.0481Z" fill="#25054D"/>
    <path d="M255.358 44.048V46.0231L249.943 42.6607V40.6973L255.358 44.048Z" fill="#25054D"/>
    <path d="M249.943 40.7005L255.358 44.0512L257.008 43.0636L251.582 39.7129L249.943 40.7005Z" fill="#7C1DC9"/>
    <path d="M249.928 34.2005V40.7491L248.267 39.7615V33.2129L249.928 34.2005Z" fill="#25054D"/>
    <path d="M249.926 34.2004V40.749L251.564 39.7615V33.2246L249.926 34.2004Z" fill="#45108A"/>
    <path d="M251.564 33.2279L249.926 34.2037L248.265 33.2161L249.926 32.2285L251.564 33.2279Z" fill="#7C1DC9"/>
    <path d="M264.841 38.4123V40.3875L266.502 39.3999V37.4365L264.841 38.4123Z" fill="#25054D"/>
    <path d="M264.852 38.4103V40.3855L259.437 37.023V35.0596L264.852 38.4103Z" fill="#25054D"/>
    <path d="M259.438 35.0628L264.852 38.4135L266.502 37.4377L261.087 34.0752L259.438 35.0628Z" fill="#7C1DC9"/>
    <path d="M259.445 28.5725V35.1212L257.796 34.1336V27.585L259.445 28.5725Z" fill="#25054D"/>
    <path d="M259.444 28.5725V35.1211L261.094 34.1335V27.5967L259.444 28.5725Z" fill="#45108A"/>
    <path d="M261.094 27.5999L259.444 28.5757L257.795 27.5882L259.444 26.6006L261.094 27.5999Z" fill="#7C1DC9"/>
    <path d="M274.423 32.7014V34.6649L276.084 33.6773V31.7139L274.423 32.7014Z" fill="#25054D"/>
    <path d="M274.422 32.7023V34.6657L269.018 31.3033V29.3398L274.422 32.7023Z" fill="#25054D"/>
    <path d="M269.02 29.3421L274.423 32.7045L276.084 31.717L270.658 28.3545L269.02 29.3421Z" fill="#7C1DC9"/>
    <path d="M269.02 22.847V29.4073L267.359 28.4197V21.8594L269.02 22.847Z" fill="#25054D"/>
    <path d="M269.007 22.843V29.4034L270.656 28.4158V21.8672L269.007 22.843Z" fill="#45108A"/>
    <path d="M270.656 21.8704L269.007 22.8462L267.357 21.8586L269.007 20.8828L270.656 21.8704Z" fill="#7C1DC9"/>
    <path d="M207.589 72.6438V74.6072L209.25 73.6197V71.6562L207.589 72.6438Z" fill="#25054D"/>
    <path d="M207.6 72.6437V74.6071L202.185 71.2447V69.2812L207.6 72.6437Z" fill="#25054D"/>
    <path d="M202.186 69.2786L207.6 72.6411L209.25 71.6535L203.824 68.291L202.186 69.2786Z" fill="#7C1DC9"/>
    <path d="M176.051 93.3655V95.3289L174.39 94.3413V92.3779L176.051 93.3655Z" fill="#25054D"/>
    <path d="M176.054 93.3633V95.3267L306.217 17.4136V15.4502L176.054 93.3633Z" fill="#45108A"/>
    <path d="M306.217 15.4534L176.054 93.3665L174.393 92.3789L304.579 14.4658L306.217 15.4534Z" fill="#7C1DC9"/>
    <path d="M202.186 62.7884V69.337L200.525 68.3612V61.8008L202.186 62.7884Z" fill="#25054D"/>
    <path d="M202.184 62.7883V69.3369L203.822 68.3611V61.8125L202.184 62.7883Z" fill="#45108A"/>
    <path d="M203.822 61.8148L202.184 62.7906L200.523 61.803L202.184 60.8154L203.822 61.8148Z" fill="#7C1DC9"/>
    <path d="M176.602 76.1096V78.0731L174.941 77.0855V75.1221L176.602 76.1096Z" fill="#25054D"/>
    <path d="M176.582 76.1049V78.0683L299.248 4.54055V2.57715L176.582 76.1049Z" fill="#45108A"/>
    <path d="M299.248 2.58036L176.582 76.1081L174.933 75.1206L297.599 1.59277L299.248 2.58036Z" fill="#7C1DC9"/>
    <path d="M174.486 92.386V94.3494L176.147 93.3618V91.3984L174.486 92.386Z" fill="#25054D"/>
    <path d="M174.496 92.384V94.3474L169.081 90.9849V89.0215L174.496 92.384Z" fill="#25054D"/>
    <path d="M169.082 89.0247L174.497 92.3872L176.146 91.3996L170.72 88.0371L169.082 89.0247Z" fill="#7C1DC9"/>
    <path d="M176.609 76.1282L169.067 89.0608L167.418 88.0732L174.948 75.1406L176.609 76.1282Z" fill="#25054D"/>
    <path d="M176.597 76.1282L169.066 89.0608L170.715 88.0732L178.246 75.1406L176.597 76.1282Z" fill="#45108A"/>
    <path d="M294.913 17.2089L295.301 17.9004L181.542 86.1076L181.154 85.4161L294.913 17.2089Z" fill="#0F001F"/>
    <path d="M209.199 67.0549V73.6153L207.538 72.6277V66.0791L209.199 67.0549Z" fill="#25054D"/>
    <path d="M209.186 67.0549V73.6153L210.836 72.6277V66.0791L209.186 67.0549Z" fill="#45108A"/>
    <path d="M210.836 66.0833L209.186 67.0591L207.537 66.0833L209.186 65.0957L210.836 66.0833Z" fill="#7C1DC9"/>
    <path d="M207.589 64.1868V66.1502L209.25 65.1626V63.1992L207.589 64.1868Z" fill="#25054D"/>
    <path d="M207.6 64.1857V66.1491L202.185 62.7866V60.835L207.6 64.1857Z" fill="#25054D"/>
    <path d="M202.186 60.8372L207.6 64.188L209.25 63.2004L203.824 59.8379L202.186 60.8372Z" fill="#7C1DC9"/>
    <path d="M218.762 61.3401V67.8887L217.101 66.9011V60.3525L218.762 61.3401Z" fill="#25054D"/>
    <path d="M218.761 61.3401V67.8887L220.399 66.9011V60.3525L218.761 61.3401Z" fill="#45108A"/>
    <path d="M220.398 60.3528L218.76 61.3404L217.099 60.3528L218.76 59.3652L220.398 60.3528Z" fill="#7C1DC9"/>
    <path d="M217.163 58.4573V60.4325L218.813 59.4449V57.4697L217.163 58.4573Z" fill="#25054D"/>
    <path d="M217.162 58.4562V60.4314L211.747 57.0689V55.1055L217.162 58.4562Z" fill="#25054D"/>
    <path d="M211.748 55.1077L217.163 58.4585L218.812 57.4709L213.398 54.1084L211.748 55.1077Z" fill="#7C1DC9"/>
    <path d="M228.273 55.7102V62.2588L226.624 61.2713V54.7227L228.273 55.7102Z" fill="#25054D"/>
    <path d="M228.272 55.7102V62.2588L229.922 61.2713V54.7227L228.272 55.7102Z" fill="#45108A"/>
    <path d="M229.922 54.7259L228.272 55.7134L226.623 54.7259L228.272 53.7383L229.922 54.7259Z" fill="#7C1DC9"/>
    <path d="M190.059 78.3245V84.8731L188.398 83.8855V77.3369L190.059 78.3245Z" fill="#25054D"/>
    <path d="M190.046 78.3245V84.8731L191.695 83.8855V77.3369L190.046 78.3245Z" fill="#45108A"/>
    <path d="M191.695 77.3401L190.046 78.3277L188.396 77.3401L190.046 76.3525L191.695 77.3401Z" fill="#7C1DC9"/>
    <path d="M188.46 75.4466V77.4217L190.121 76.4342V74.459L188.46 75.4466Z" fill="#25054D"/>
    <path d="M188.471 75.4464V77.4216L183.056 74.0591V72.0957L188.471 75.4464Z" fill="#25054D"/>
    <path d="M183.057 72.098L188.472 75.4487L190.121 74.4611L184.695 71.0986L183.057 72.098Z" fill="#7C1DC9"/>
    <path d="M199.629 72.6048V79.1534L197.968 78.1658V71.6172L199.629 72.6048Z" fill="#25054D"/>
    <path d="M199.627 72.6048V79.1534L201.266 78.1658V71.6172L199.627 72.6048Z" fill="#45108A"/>
    <path d="M201.266 71.6165L199.627 72.6041L197.967 71.6165L199.627 70.6289L201.266 71.6165Z" fill="#7C1DC9"/>
    <path d="M198.032 69.7298V71.6932L199.682 70.7056V68.7422L198.032 69.7298Z" fill="#25054D"/>
    <path d="M198.031 69.7277V71.6911L192.617 68.3286V66.3652L198.031 69.7277Z" fill="#25054D"/>
    <path d="M192.617 66.3684L198.032 69.7309L199.682 68.7433L194.267 65.3809L192.617 66.3684Z" fill="#7C1DC9"/>
    <path d="M226.683 52.8294V54.8045L228.344 53.817V51.8418L226.683 52.8294Z" fill="#25054D"/>
    <path d="M226.684 52.8273V54.8024L221.269 51.44V49.4766L226.684 52.8273Z" fill="#25054D"/>
    <path d="M221.268 49.4798L226.683 52.8305L228.344 51.8429L222.917 48.4805L221.268 49.4798Z" fill="#7C1DC9"/>
    <path d="M237.848 49.9856V56.5342L236.187 55.5467V48.998L237.848 49.9856Z" fill="#25054D"/>
    <path d="M237.835 49.9856V56.5342L239.484 55.5467V48.998L237.835 49.9856Z" fill="#45108A"/>
    <path d="M239.484 48.9954L237.835 49.983L236.185 48.9954L237.835 48.0078L239.484 48.9954Z" fill="#7C1DC9"/>
    <path d="M236.249 47.1145V49.0779L237.91 48.0904V46.127L236.249 47.1145Z" fill="#25054D"/>
    <path d="M236.26 47.1125V49.0759L230.845 45.7134V43.75L236.26 47.1125Z" fill="#25054D"/>
    <path d="M230.846 43.7532L236.261 47.1157L237.91 46.1281L232.495 42.7656L230.846 43.7532Z" fill="#7C1DC9"/>
    <path d="M247.373 44.1975V50.7462L245.712 49.7586V43.21L247.373 44.1975Z" fill="#25054D"/>
    <path d="M247.371 44.1975V50.7461L249.01 49.7585V43.2217L247.371 44.1975Z" fill="#45108A"/>
    <path d="M249.01 43.2249L247.371 44.2007L245.71 43.2132L247.371 42.2256L249.01 43.2249Z" fill="#7C1DC9"/>
    <path d="M245.766 41.3323V43.2957L247.416 42.3081V40.3447L245.766 41.3323Z" fill="#25054D"/>
    <path d="M245.766 41.3303V43.2937L240.351 39.9312V37.9678L245.766 41.3303Z" fill="#25054D"/>
    <path d="M240.352 37.971L245.767 41.3335L247.416 40.3459L242.001 36.9834L240.352 37.971Z" fill="#7C1DC9"/>
    <path d="M256.945 38.4671V45.0157L255.285 44.0281V37.4795L256.945 38.4671Z" fill="#25054D"/>
    <path d="M256.932 38.468V45.0166L258.582 44.029V37.4922L256.932 38.468Z" fill="#45108A"/>
    <path d="M258.582 37.4954L256.933 38.4713L255.283 37.4837L256.933 36.4961L258.582 37.4954Z" fill="#7C1DC9"/>
    <path d="M255.347 35.6057V37.5691L257.008 36.5816V34.6182L255.347 35.6057Z" fill="#25054D"/>
    <path d="M255.358 35.6056V37.569L249.943 34.2066V32.2432L255.358 35.6056Z" fill="#25054D"/>
    <path d="M249.943 32.2444L255.358 35.6069L257.008 34.6193L251.582 31.2568L249.943 32.2444Z" fill="#7C1DC9"/>
    <path d="M266.449 32.8401V39.3887L264.788 38.4011V31.8525L266.449 32.8401Z" fill="#25054D"/>
    <path d="M266.448 32.8391V39.3877L268.086 38.4001V31.8633L266.448 32.8391Z" fill="#45108A"/>
    <path d="M268.086 31.8665L266.448 32.8424L264.787 31.8548L266.448 30.8672L268.086 31.8665Z" fill="#7C1DC9"/>
    <path d="M264.841 29.9759V31.9393L266.502 30.9517V28.9883L264.841 29.9759Z" fill="#25054D"/>
    <path d="M264.852 29.9738V31.9372L259.437 28.5747V26.6113L264.852 29.9738Z" fill="#25054D"/>
    <path d="M259.438 26.6145L264.852 29.977L266.502 28.9894L261.087 25.627L259.438 26.6145Z" fill="#7C1DC9"/>
    <path d="M276.018 27.1214V33.67L274.368 32.6824V26.1338L276.018 27.1214Z" fill="#25054D"/>
    <path d="M276.018 27.1214V33.67L277.668 32.6824V26.1338L276.018 27.1214Z" fill="#45108A"/>
    <path d="M277.668 26.137L276.018 27.1246L274.369 26.137L276.018 25.1494L277.668 26.137Z" fill="#7C1DC9"/>
    <path d="M274.423 24.2454V26.2088L276.084 25.2212V23.2578L274.423 24.2454Z" fill="#25054D"/>
    <path d="M274.422 24.2472V26.2106L269.018 22.8481V20.8965L274.422 24.2472Z" fill="#25054D"/>
    <path d="M269.02 20.8958L274.423 24.2466L276.084 23.259L270.658 19.8965L269.02 20.8958Z" fill="#7C1DC9"/>
    <path d="M285.492 21.3059V27.8545L283.831 26.867V20.3184L285.492 21.3059Z" fill="#25054D"/>
    <path d="M285.479 21.3049V27.8535L287.129 26.8659V20.3291L285.479 21.3049Z" fill="#45108A"/>
    <path d="M287.129 20.3323L285.479 21.3082L283.83 20.3206L285.479 19.333L287.129 20.3323Z" fill="#7C1DC9"/>
    <path d="M283.87 18.4387V20.4022L285.531 19.4146V17.4512L283.87 18.4387Z" fill="#25054D"/>
    <path d="M283.871 18.4367V20.4001L278.468 17.0376V15.0742L283.871 18.4367Z" fill="#25054D"/>
    <path d="M278.467 15.0774L283.87 18.4399L285.531 17.4523L280.105 14.0898L278.467 15.0774Z" fill="#7C1DC9"/>
    <path d="M295 15.6087V22.1573L293.339 21.1697V14.6211L295 15.6087Z" fill="#25054D"/>
    <path d="M294.987 15.6087V22.1573L296.637 21.1697V14.6211L294.987 15.6087Z" fill="#45108A"/>
    <path d="M296.637 14.6184L294.987 15.606L293.338 14.6184L294.987 13.6309L296.637 14.6184Z" fill="#7C1DC9"/>
    <path d="M293.386 12.8108V14.7742L295.047 13.7866V11.8232L293.386 12.8108Z" fill="#25054D"/>
    <path d="M293.397 12.8088V14.7722L287.982 11.4097V9.44629L293.397 12.8088Z" fill="#25054D"/>
    <path d="M287.982 9.44949L293.397 12.812L295.047 11.8244L289.632 8.46191L287.982 9.44949Z" fill="#7C1DC9"/>
    <path d="M304.553 9.88016V16.4288L302.903 15.4412V8.89258L304.553 9.88016Z" fill="#25054D"/>
    <path d="M304.553 9.88012V16.4287L306.203 15.4411V8.9043L304.553 9.88012Z" fill="#45108A"/>
    <path d="M306.203 8.90754L304.554 9.88337L302.904 8.89578L304.554 7.9082L306.203 8.90754Z" fill="#7C1DC9"/>
    <path d="M302.972 6.93188V8.90704L304.633 7.91947V5.95605L302.972 6.93188Z" fill="#25054D"/>
    <path d="M302.973 6.9308V8.90596L297.558 5.54348V3.58008L302.973 6.9308Z" fill="#25054D"/>
    <path d="M297.557 3.58231L302.972 6.93303L304.633 5.95721L299.207 2.59473L297.557 3.58231Z" fill="#7C1DC9"/>
    <path d="M183.568 80.3997V82.3631L181.919 81.3755V79.4121L183.568 80.3997Z" fill="#25054D"/>
    <path d="M183.562 80.395V82.3584L306.217 8.83059V6.86719L183.562 80.395Z" fill="#45108A"/>
    <path d="M306.217 6.8704L183.562 80.3982L181.913 79.4106L304.579 5.88281L306.217 6.8704Z" fill="#7C1DC9"/>
    <path d="M183.58 80.4095L176.015 93.4244L174.354 92.4368L181.919 79.4219L183.58 80.4095Z" fill="#25054D"/>
    <path d="M183.579 80.4094L176.014 93.4243L177.652 92.4367L185.217 79.4336L183.579 80.4094Z" fill="#45108A"/>
    <path d="M266.143 5.10673V139.759L264.493 138.771V4.11914L266.143 5.10673Z" fill="#25054D"/>
    <path d="M266.143 5.10669V139.759L267.793 138.771V4.13086L266.143 5.10669Z" fill="#45108A"/>
    <path d="M267.793 4.1341L266.143 5.10993L264.494 4.12234L266.143 3.13477L267.793 4.1341Z" fill="#7C1DC9"/>
    <path d="M276.072 54.7337V56.6971L277.733 55.7095V53.7461L276.072 54.7337Z" fill="#25054D"/>
    <path d="M276.082 54.7312V56.6946L266.151 50.7573V48.8057L276.082 54.7312Z" fill="#25054D"/>
    <path d="M266.152 48.8079L276.083 54.7334L277.732 53.7458L267.79 47.8086L266.152 48.8079Z" fill="#7C1DC9"/>
    <path d="M276.072 70.5608V72.5242L277.733 71.5366V69.5732L276.072 70.5608Z" fill="#25054D"/>
    <path d="M276.082 70.5603V72.5237L266.151 66.5982V64.6348L276.082 70.5603Z" fill="#25054D"/>
    <path d="M266.152 64.6341L276.083 70.5596L277.732 69.572L267.79 63.6465L266.152 64.6341Z" fill="#7C1DC9"/>
    <path d="M276.072 86.3284V88.2918L277.733 87.3042V85.3408L276.072 86.3284Z" fill="#25054D"/>
    <path d="M276.082 86.3239V88.2873L266.151 82.3618V80.3984L276.082 86.3239Z" fill="#25054D"/>
    <path d="M266.152 80.4016L276.083 86.3271L277.732 85.3395L267.79 79.4141L266.152 80.4016Z" fill="#7C1DC9"/>
    <path d="M276.072 102.034V103.998L277.733 103.022V101.047L276.072 102.034Z" fill="#25054D"/>
    <path d="M276.082 102.031V103.994L266.151 98.0689V96.1055L276.082 102.031Z" fill="#25054D"/>
    <path d="M266.152 96.1077L276.083 102.033L277.732 101.046L267.79 95.1201L266.152 96.1077Z" fill="#7C1DC9"/>
    <path d="M276.072 117.87V119.834L277.733 118.846V116.883L276.072 117.87Z" fill="#25054D"/>
    <path d="M276.082 117.87V119.833L266.151 113.896V111.933L276.082 117.87Z" fill="#25054D"/>
    <path d="M266.152 111.933L276.083 117.87L277.732 116.883L267.79 110.945L266.152 111.933Z" fill="#7C1DC9"/>
    <path d="M276.072 133.623V135.598L277.733 134.611V132.647L276.072 133.623Z" fill="#25054D"/>
    <path d="M276.082 133.619V135.594L266.151 129.657V127.693L276.082 133.619Z" fill="#25054D"/>
    <path d="M266.152 127.697L276.083 133.622L277.732 132.646L267.79 126.709L266.152 127.697Z" fill="#7C1DC9"/>
    <path d="M277.735 11.8567V271.532L276.074 270.544V10.8809L277.735 11.8567Z" fill="#25054D"/>
    <path d="M277.722 11.8567V271.532L279.372 270.544V10.8809L277.722 11.8567Z" fill="#45108A"/>
    <path d="M279.371 10.8831L277.722 11.8589L276.072 10.8831L277.722 9.89551L279.371 10.8831Z" fill="#7C1DC9"/>
    <path d="M267.801 266.656V268.619L266.151 267.631V265.668L267.801 266.656Z" fill="#25054D"/>
    <path d="M267.802 266.652V268.615L277.733 262.678V260.727L267.802 266.652Z" fill="#45108A"/>
    <path d="M277.732 260.729L267.801 266.654L266.152 265.667L276.083 259.729L277.732 260.729Z" fill="#7C1DC9"/>
    <path d="M267.805 264.658V266.621L266.155 265.633V263.67L267.805 264.658Z" fill="#25054D"/>
    <path d="M267.803 264.657V266.62L277.735 249.008V247.057L267.803 264.657Z" fill="#45108A"/>
    <path d="M276.094 246.073L277.745 247.067L267.81 264.68L266.159 263.685L276.094 246.073Z" fill="#7C1DC9"/>
    <path d="M267.801 250.879V252.843L266.151 251.855V249.892L267.801 250.879Z" fill="#25054D"/>
    <path d="M267.802 250.877V252.84L277.733 246.903V244.951L267.802 250.877Z" fill="#45108A"/>
    <path d="M277.732 244.952L267.801 250.878L266.152 249.89L276.083 243.953L277.732 244.952Z" fill="#7C1DC9"/>
    <path d="M267.791 248.878V250.842L266.141 249.854V247.891L267.791 248.878Z" fill="#25054D"/>
    <path d="M267.792 248.876V250.84L277.723 233.228V231.276L267.792 248.876Z" fill="#45108A"/>
    <path d="M276.072 230.299L277.723 231.294L267.788 248.906L266.137 247.912L276.072 230.299Z" fill="#7C1DC9"/>
    <path d="M267.801 235.148V237.111L266.151 236.124V234.16L267.801 235.148Z" fill="#25054D"/>
    <path d="M267.802 235.144V237.108L277.733 231.17V229.219L267.802 235.144Z" fill="#45108A"/>
    <path d="M277.732 229.221L267.801 235.147L266.152 234.159L276.083 228.222L277.732 229.221Z" fill="#7C1DC9"/>
    <path d="M267.793 233.147V235.11L266.143 234.123V232.159L267.793 233.147Z" fill="#25054D"/>
    <path d="M267.792 233.147V235.11L277.723 217.499V215.547L267.792 233.147Z" fill="#45108A"/>
    <path d="M276.082 214.56L277.733 215.555L267.798 233.167L266.147 232.172L276.082 214.56Z" fill="#7C1DC9"/>
    <path d="M267.801 219.368V221.332L266.151 220.344V218.381L267.801 219.368Z" fill="#25054D"/>
    <path d="M267.802 219.365V221.328L277.733 215.391V213.439L267.802 219.365Z" fill="#45108A"/>
    <path d="M277.732 213.442L267.801 219.367L266.152 218.38L276.083 212.442L277.732 213.442Z" fill="#7C1DC9"/>
    <path d="M267.793 217.372V219.336L266.143 218.348V216.385L267.793 217.372Z" fill="#25054D"/>
    <path d="M267.792 217.371V219.334L277.723 201.722V199.771L267.792 217.371Z" fill="#45108A"/>
    <path d="M276.082 198.778L277.733 199.772L267.798 217.385L266.147 216.39L276.082 198.778Z" fill="#7C1DC9"/>
    <path d="M267.801 203.626V205.59L266.151 204.602V202.639L267.801 203.626Z" fill="#25054D"/>
    <path d="M267.802 203.625V205.588L277.733 199.663V197.699L267.802 203.625Z" fill="#45108A"/>
    <path d="M277.732 197.7L267.801 203.626L266.152 202.638L276.083 196.713L277.732 197.7Z" fill="#7C1DC9"/>
    <path d="M267.791 201.639V203.602L266.141 202.615V200.651L267.791 201.639Z" fill="#25054D"/>
    <path d="M267.792 201.64V203.604L277.723 185.992V184.028L267.792 201.64Z" fill="#45108A"/>
    <path d="M276.072 183.048L277.723 184.043L267.788 201.655L266.137 200.661L276.072 183.048Z" fill="#7C1DC9"/>
    <path d="M267.801 187.848V189.811L266.151 188.836V186.86L267.801 187.848Z" fill="#25054D"/>
    <path d="M267.802 187.844V189.808L277.733 183.882V181.919L267.802 187.844Z" fill="#45108A"/>
    <path d="M277.732 181.921L267.801 187.847L266.152 186.859L276.083 180.934L277.732 181.921Z" fill="#7C1DC9"/>
    <path d="M267.791 185.863V187.826L266.141 186.838V184.875L267.791 185.863Z" fill="#25054D"/>
    <path d="M267.792 185.864V187.827L277.723 170.215V168.252L267.792 185.864Z" fill="#45108A"/>
    <path d="M276.072 167.279L277.723 168.273L267.788 185.886L266.137 184.891L276.072 167.279Z" fill="#7C1DC9"/>
    <path d="M267.801 172.128V174.092L266.151 173.104V171.141L267.801 172.128Z" fill="#25054D"/>
    <path d="M267.802 172.127V174.09L277.733 168.165V166.201L267.802 172.127Z" fill="#45108A"/>
    <path d="M277.732 166.201L267.801 172.127L266.152 171.139L276.083 165.214L277.732 166.201Z" fill="#7C1DC9"/>
    <path d="M264.534 266.655V268.618L266.184 267.63V265.667L264.534 266.655Z" fill="#25054D"/>
    <path d="M264.535 266.652V268.615L254.604 262.678V260.727L264.535 266.652Z" fill="#25054D"/>
    <path d="M254.603 260.729L264.534 266.654L266.184 265.667L256.252 259.729L254.603 260.729Z" fill="#7C1DC9"/>
    <path d="M264.534 266.657V268.62L266.184 267.632V265.669L264.534 266.657Z" fill="#25054D"/>
    <path d="M264.535 266.651V268.614L254.604 248.945V246.981L264.535 266.651Z" fill="#25054D"/>
    <path d="M254.603 246.985L264.534 266.654L266.184 265.666L256.252 245.997L254.603 246.985Z" fill="#7C1DC9"/>
    <path d="M264.534 250.878V252.842L266.184 251.854V249.891L264.534 250.878Z" fill="#25054D"/>
    <path d="M264.535 250.877V252.84L254.604 246.903V244.951L264.535 250.877Z" fill="#25054D"/>
    <path d="M254.603 244.952L264.534 250.878L266.184 249.89L256.252 243.953L254.603 244.952Z" fill="#7C1DC9"/>
    <path d="M264.534 250.878V252.842L266.184 251.854V249.891L264.534 250.878Z" fill="#25054D"/>
    <path d="M264.535 250.873V252.837L254.604 233.168V231.204L264.535 250.873Z" fill="#25054D"/>
    <path d="M254.603 231.207L264.534 250.877L266.184 249.889L256.252 230.22L254.603 231.207Z" fill="#7C1DC9"/>
    <path d="M264.534 235.147V237.11L266.184 236.123V234.159L264.534 235.147Z" fill="#25054D"/>
    <path d="M264.535 235.144V237.108L254.604 231.17V229.219L264.535 235.144Z" fill="#25054D"/>
    <path d="M254.603 229.221L264.534 235.147L266.184 234.159L256.252 228.222L254.603 229.221Z" fill="#7C1DC9"/>
    <path d="M264.534 235.148V237.111L266.184 236.124V234.16L264.534 235.148Z" fill="#25054D"/>
    <path d="M264.535 235.144V237.107L254.604 217.438V215.475L264.535 235.144Z" fill="#25054D"/>
    <path d="M254.603 215.476L264.534 235.145L266.184 234.158L256.252 214.488L254.603 215.476Z" fill="#7C1DC9"/>
    <path d="M264.534 219.367V221.331L266.184 220.343V218.38L264.534 219.367Z" fill="#25054D"/>
    <path d="M264.535 219.365V221.328L254.604 215.391V213.439L264.535 219.365Z" fill="#25054D"/>
    <path d="M254.603 213.442L264.534 219.367L266.184 218.38L256.252 212.442L254.603 213.442Z" fill="#7C1DC9"/>
    <path d="M264.534 219.37V221.334L266.184 220.346V218.383L264.534 219.37Z" fill="#25054D"/>
    <path d="M264.535 219.368V221.331L254.604 201.662V199.698L264.535 219.368Z" fill="#25054D"/>
    <path d="M254.603 199.699L264.534 219.368L266.184 218.38L256.252 198.711L254.603 199.699Z" fill="#7C1DC9"/>
    <path d="M267.801 170.132V172.107L266.151 171.12V169.145L267.801 170.132Z" fill="#25054D"/>
    <path d="M267.802 170.129V172.105L277.733 154.493V152.529L267.802 170.129Z" fill="#45108A"/>
    <path d="M276.072 151.557L277.723 152.552L267.788 170.164L266.137 169.169L276.072 151.557Z" fill="#7C1DC9"/>
    <path d="M264.534 203.627V205.591L266.184 204.603V202.64L264.534 203.627Z" fill="#25054D"/>
    <path d="M264.535 203.625V205.588L254.604 199.663V197.699L264.535 203.625Z" fill="#25054D"/>
    <path d="M254.603 197.7L264.534 203.626L266.184 202.638L256.252 196.713L254.603 197.7Z" fill="#7C1DC9"/>
    <path d="M264.534 203.629V205.593L266.184 204.605V202.642L264.534 203.629Z" fill="#25054D"/>
    <path d="M264.535 203.624V205.588L254.604 185.918V183.955L264.535 203.624Z" fill="#25054D"/>
    <path d="M254.603 183.958L264.534 203.628L266.184 202.64L256.252 182.971L254.603 183.958Z" fill="#7C1DC9"/>
    <path d="M264.534 187.849V189.812L266.184 188.836V186.861L264.534 187.849Z" fill="#25054D"/>
    <path d="M264.535 187.843V189.807L254.604 183.881V181.918L264.535 187.843Z" fill="#25054D"/>
    <path d="M254.603 181.921L264.534 187.847L266.184 186.859L256.252 180.934L254.603 181.921Z" fill="#7C1DC9"/>
    <path d="M267.801 156.35V158.313L266.151 157.326V155.362L267.801 156.35Z" fill="#25054D"/>
    <path d="M267.802 156.345V158.309L277.733 152.383V150.42L267.802 156.345Z" fill="#45108A"/>
    <path d="M277.732 150.424L267.801 156.35L266.152 155.362L276.083 149.437L277.732 150.424Z" fill="#7C1DC9"/>
    <path d="M267.791 154.365V156.328L266.141 155.34V153.377L267.791 154.365Z" fill="#25054D"/>
    <path d="M267.792 154.365V156.328L277.723 138.716V136.753L267.792 154.365Z" fill="#45108A"/>
    <path d="M276.072 135.776L277.723 136.771L267.788 154.383L266.137 153.388L276.072 135.776Z" fill="#7C1DC9"/>
    <path d="M264.534 187.848V189.811L266.184 188.836V186.86L264.534 187.848Z" fill="#25054D"/>
    <path d="M264.535 187.847V189.81L254.604 170.141V168.189L264.535 187.847Z" fill="#25054D"/>
    <path d="M254.603 168.19L264.534 187.847L266.184 186.86L256.252 167.19L254.603 168.19Z" fill="#7C1DC9"/>
    <path d="M267.801 140.63V142.594L266.151 141.606V139.643L267.801 140.63Z" fill="#25054D"/>
    <path d="M267.802 140.627V142.59L277.733 136.665V134.701L267.802 140.627Z" fill="#45108A"/>
    <path d="M277.732 134.704L267.801 140.63L266.152 139.642L276.083 133.717L277.732 134.704Z" fill="#7C1DC9"/>
    <path d="M267.801 138.643V140.606L266.151 139.619V137.655L267.801 138.643Z" fill="#25054D"/>
    <path d="M267.802 138.643V140.607L277.733 122.995V121.031L267.802 138.643Z" fill="#45108A"/>
    <path d="M276.082 120.053L277.733 121.048L267.798 138.66L266.147 137.665L276.082 120.053Z" fill="#7C1DC9"/>
    <path d="M264.534 172.129V174.093L266.184 173.105V171.142L264.534 172.129Z" fill="#25054D"/>
    <path d="M264.535 172.128V174.091L254.604 168.166V166.202L264.535 172.128Z" fill="#25054D"/>
    <path d="M254.603 166.202L264.534 172.128L266.184 171.14L256.252 165.215L254.603 166.202Z" fill="#7C1DC9"/>
    <path d="M264.534 172.133V174.096L266.184 173.109V171.146L264.534 172.133Z" fill="#25054D"/>
    <path d="M264.535 172.13V174.094L254.604 154.424V152.461L264.535 172.13Z" fill="#25054D"/>
    <path d="M254.603 152.46L264.534 172.13L266.184 171.142L256.252 151.473L254.603 152.46Z" fill="#7C1DC9"/>
    <path d="M264.534 156.351V158.314L266.184 157.327V155.363L264.534 156.351Z" fill="#25054D"/>
    <path d="M264.535 156.347V158.311L254.604 152.385V150.422L264.535 156.347Z" fill="#25054D"/>
    <path d="M254.603 150.424L264.534 156.35L266.184 155.362L256.252 149.437L254.603 150.424Z" fill="#7C1DC9"/>
    <path d="M264.534 156.354V158.317L266.184 157.33V155.366L264.534 156.354Z" fill="#25054D"/>
    <path d="M264.535 156.349V158.312L254.604 138.643V136.68L264.535 156.349Z" fill="#25054D"/>
    <path d="M254.603 136.682L264.534 156.351L266.184 155.364L256.252 135.694L254.603 136.682Z" fill="#7C1DC9"/>
    <path d="M267.801 124.867V126.83L266.151 125.842V123.879L267.801 124.867Z" fill="#25054D"/>
    <path d="M267.802 124.865V126.828L277.733 120.903V118.939L267.802 124.865Z" fill="#45108A"/>
    <path d="M277.732 118.94L267.801 124.865L266.152 123.878L276.083 117.952L277.732 118.94Z" fill="#7C1DC9"/>
    <path d="M264.534 140.631V142.595L266.184 141.607V139.644L264.534 140.631Z" fill="#25054D"/>
    <path d="M264.535 140.627V142.59L254.604 136.665V134.701L264.535 140.627Z" fill="#25054D"/>
    <path d="M254.603 134.704L264.534 140.63L266.184 139.642L256.252 133.717L254.603 134.704Z" fill="#7C1DC9"/>
    <path d="M264.534 140.634V142.597L266.184 141.61V139.646L264.534 140.634Z" fill="#25054D"/>
    <path d="M264.535 140.628V142.592L254.604 122.922V120.959L264.535 140.628Z" fill="#25054D"/>
    <path d="M254.603 120.962L264.534 140.632L266.184 139.644L256.252 119.975L254.603 120.962Z" fill="#7C1DC9"/>
    <path d="M264.534 124.867V126.83L266.184 125.842V123.879L264.534 124.867Z" fill="#25054D"/>
    <path d="M264.535 124.865V126.828L254.604 120.903V118.939L264.535 124.865Z" fill="#25054D"/>
    <path d="M254.603 118.94L264.534 124.865L266.184 123.878L256.252 117.952L254.603 118.94Z" fill="#7C1DC9"/>
    <path d="M264.534 122.977V124.952L266.184 123.964V121.989L264.534 122.977Z" fill="#25054D"/>
    <path d="M264.535 122.973V124.948L254.604 105.267V103.315L264.535 122.973Z" fill="#25054D"/>
    <path d="M254.603 103.316L264.534 122.973L266.184 121.986L256.252 102.316L254.603 103.316Z" fill="#7C1DC9"/>
    <path d="M264.534 109.044V111.008L266.184 110.02V108.057L264.534 109.044Z" fill="#25054D"/>
    <path d="M264.535 109.04V111.003L254.604 105.078V103.114L264.535 109.04Z" fill="#25054D"/>
    <path d="M254.603 103.117L264.534 109.043L266.184 108.055L256.252 102.13L254.603 103.117Z" fill="#7C1DC9"/>
    <path d="M267.801 61.7444V63.7078L266.151 62.7202V60.7568L267.801 61.7444Z" fill="#25054D"/>
    <path d="M267.802 61.7399V63.7033L277.733 57.7661V55.8145L267.802 61.7399Z" fill="#45108A"/>
    <path d="M277.732 55.8177L267.801 61.7432L266.152 60.7556L276.083 54.8184L277.732 55.8177Z" fill="#7C1DC9"/>
    <path d="M264.534 61.7444V63.7078L266.184 62.7202V60.7568L264.534 61.7444Z" fill="#25054D"/>
    <path d="M264.535 61.7409V63.7043L254.604 57.7671V55.8154L264.535 61.7409Z" fill="#25054D"/>
    <path d="M254.603 55.8177L264.534 61.7432L266.184 60.7556L256.252 54.8184L254.603 55.8177Z" fill="#7C1DC9"/>
    <path d="M267.801 46.0237V47.9871L266.151 47.0113V45.0361L267.801 46.0237Z" fill="#25054D"/>
    <path d="M267.802 46.0202V47.9836L277.733 42.0581V40.0947L267.802 46.0202Z" fill="#45108A"/>
    <path d="M277.732 40.0979L267.801 46.0234L266.152 45.0358L276.083 39.1104L277.732 40.0979Z" fill="#7C1DC9"/>
    <path d="M262.09 5.59598V7.55938L260.44 6.5718V4.6084L262.09 5.59598Z" fill="#25054D"/>
    <path d="M262.09 5.59164V7.55505L267.857 3.9927V2.0293L262.09 5.59164Z" fill="#45108A"/>
    <path d="M267.857 2.03251L262.09 5.59485L260.44 4.60728L266.208 1.04492L267.857 2.03251Z" fill="#7C1DC9"/>
    <path d="M262.121 5.61453L254.59 18.5471L252.929 17.5596L260.472 4.62695L262.121 5.61453Z" fill="#25054D"/>
    <path d="M262.12 5.61449L254.589 18.5471L256.227 17.5595L263.758 4.63867L262.12 5.61449Z" fill="#45108A"/>
    <path d="M276.072 9.01391V10.9891L277.733 10.0015V8.03809L276.072 9.01391Z" fill="#25054D"/>
    <path d="M276.082 9.01143V10.9866L266.151 5.04934V3.08594L276.082 9.01143Z" fill="#25054D"/>
    <path d="M266.152 3.08817L276.083 9.01366L277.732 8.03783L267.79 2.10059L266.152 3.08817Z" fill="#7C1DC9"/>
    <path d="M264.593 24.4837V26.4471L266.242 25.4595V23.4961L264.593 24.4837Z" fill="#25054D"/>
    <path d="M264.592 24.4841V26.4475L254.661 20.5102V18.5586L264.592 24.4841Z" fill="#25054D"/>
    <path d="M254.661 18.5579L264.593 24.4834L266.242 23.4958L256.311 17.5586L254.661 18.5579Z" fill="#7C1DC9"/>
    <path d="M264.534 107.116V109.079L266.184 108.091V106.128L264.534 107.116Z" fill="#25054D"/>
    <path d="M264.535 107.111V109.074L254.604 89.4048V87.4414L264.535 107.111Z" fill="#25054D"/>
    <path d="M254.603 87.4436L264.534 107.113L266.184 106.125L256.252 86.4561L254.603 87.4436Z" fill="#7C1DC9"/>
    <path d="M264.534 93.3352V95.2986L266.184 94.3111V92.3477L264.534 93.3352Z" fill="#25054D"/>
    <path d="M264.535 93.3317V95.2951L254.604 89.3579V87.4062L264.535 93.3317Z" fill="#25054D"/>
    <path d="M254.603 87.4085L264.534 93.334L266.184 92.3464L256.252 86.4092L254.603 87.4085Z" fill="#7C1DC9"/>
    <path d="M264.534 91.3801V93.3553L266.184 92.3677V90.4043L264.534 91.3801Z" fill="#25054D"/>
    <path d="M264.535 91.3773V93.3524L254.604 73.6714V71.7197L264.535 91.3773Z" fill="#25054D"/>
    <path d="M254.603 71.722L264.534 91.3796L266.184 90.4037L256.252 70.7227L254.603 71.722Z" fill="#7C1DC9"/>
    <path d="M264.534 77.5706V79.534L266.184 78.5464V76.583L264.534 77.5706Z" fill="#25054D"/>
    <path d="M264.535 77.572V79.5354L254.604 73.5981V71.6465L264.535 77.572Z" fill="#25054D"/>
    <path d="M254.603 71.6439L264.534 77.5694L266.184 76.5818L256.252 70.6445L254.603 71.6439Z" fill="#7C1DC9"/>
    <path d="M264.534 75.7591V77.7225L266.184 76.7349V74.7715L264.534 75.7591Z" fill="#25054D"/>
    <path d="M264.535 75.7543V77.7177L254.604 58.0484V56.085L264.535 75.7543Z" fill="#25054D"/>
    <path d="M254.603 56.0862L264.534 75.7555L266.184 74.768L256.252 55.0986L254.603 56.0862Z" fill="#7C1DC9"/>
    <path d="M267.801 122.878V124.842L266.151 123.854V121.891L267.801 122.878Z" fill="#25054D"/>
    <path d="M267.802 122.878V124.842L277.733 107.23V105.267L267.802 122.878Z" fill="#45108A"/>
    <path d="M276.082 104.293L277.733 105.288L267.798 122.9L266.147 121.906L276.082 104.293Z" fill="#7C1DC9"/>
    <path d="M267.801 109.043V111.007L266.151 110.019V108.056L267.801 109.043Z" fill="#25054D"/>
    <path d="M267.802 109.04V111.003L277.733 105.078V103.114L267.802 109.04Z" fill="#45108A"/>
    <path d="M277.732 103.117L267.801 109.043L266.152 108.055L276.083 102.13L277.732 103.117Z" fill="#7C1DC9"/>
    <path d="M267.801 107.115V109.078L266.151 108.09V106.127L267.801 107.115Z" fill="#25054D"/>
    <path d="M267.802 107.115V109.078L277.733 91.4663V89.5146L267.802 107.115Z" fill="#45108A"/>
    <path d="M276.082 88.5345L277.733 89.5293L267.798 107.142L266.147 106.147L276.082 88.5345Z" fill="#7C1DC9"/>
    <path d="M267.801 93.3352V95.2986L266.151 94.3111V92.3477L267.801 93.3352Z" fill="#25054D"/>
    <path d="M267.802 93.3308V95.2942L277.733 89.3569V87.4053L267.802 93.3308Z" fill="#45108A"/>
    <path d="M277.732 87.4085L267.801 93.334L266.152 92.3464L276.083 86.4092L277.732 87.4085Z" fill="#7C1DC9"/>
    <path d="M267.791 91.3587V93.3221L266.141 92.3345V90.3711L267.791 91.3587Z" fill="#25054D"/>
    <path d="M267.792 91.358V93.3214L277.723 75.7095V73.7461L267.792 91.358Z" fill="#45108A"/>
    <path d="M276.072 72.7719L277.723 73.7666L267.788 91.379L266.137 90.3842L276.072 72.7719Z" fill="#7C1DC9"/>
    <path d="M267.801 77.5706V79.534L266.151 78.5464V76.583L267.801 77.5706Z" fill="#25054D"/>
    <path d="M267.802 77.572V79.5354L277.733 73.5981V71.6465L267.802 77.572Z" fill="#45108A"/>
    <path d="M277.732 71.6439L267.801 77.5694L266.152 76.5818L276.083 70.6445L277.732 71.6439Z" fill="#7C1DC9"/>
    <path d="M267.799 75.6614V77.6248L266.149 76.6372V74.6738L267.799 75.6614Z" fill="#25054D"/>
    <path d="M267.799 75.6617V77.6251L277.73 60.0132V58.0498L267.799 75.6617Z" fill="#45108A"/>
    <path d="M276.079 57.0707L277.73 58.0654L267.796 75.6778L266.145 74.683L276.079 57.0707Z" fill="#7C1DC9"/>
    <path d="M266.143 25.4944V278.444L264.493 277.457V24.5068L266.143 25.4944Z" fill="#25054D"/>
    <path d="M266.143 25.4924V278.443L267.793 277.455V24.5166L266.143 25.4924Z" fill="#45108A"/>
    <path d="M267.793 24.5198L266.143 25.4956L264.494 24.5081L266.143 23.5322L267.793 24.5198Z" fill="#7C1DC9"/>
    <path d="M264.426 66.8548L285.312 54.3925V32.7715L271.479 41.0248L264.426 60.2004V66.8548Z" fill="#45108A"/>
    <path d="M264.424 60.2037V66.8582L251.33 59.1456V52.4912L264.424 60.2037Z" fill="#25054D"/>
    <path d="M258.385 33.3018L271.479 41.0261L264.426 60.2016L251.332 52.489L258.385 33.3018Z" fill="#25054D"/>
    <path d="M270.607 43.4004L264.43 60.201L251.337 52.4884L257.548 35.5938L270.607 43.4004Z" fill="url(#paint19_linear_3124_38442)"/>
    <path d="M251.331 52.4883L262.138 38.3447L266.598 41.0135L251.331 52.4883Z" fill="url(#paint20_linear_3124_38442)"/>
    <path d="M272.23 25.0488L285.312 32.7731L271.479 41.0265L258.386 33.3022L272.23 25.0488Z" fill="#7C1DC9"/>
    <path style="mix-blend-mode:screen" opacity="0.6" d="M271.491 40.484L285.312 32.7715L271.479 41.0248L258.386 33.3005L271.491 40.484Z" fill="url(#paint21_radial_3124_38442)"/>
    <path d="M280.144 37.6982V50.866L264.423 60.248V60.201L270.611 43.3886L280.144 37.6982Z" fill="url(#paint22_linear_3124_38442)"/>
    <path d="M279.655 50.7132V37.9922L280.144 37.6982V50.866L264.423 60.248V60.201L264.605 59.6954L279.655 50.7132Z" fill="#0F001F"/>
    <path d="M272.007 11.5198V13.4832L273.668 12.4956V10.5322L272.007 11.5198Z" fill="#25054D"/>
    <path d="M272.008 11.5212V13.4846L262.077 7.5474V5.58398L272.008 11.5212Z" fill="#25054D"/>
    <path d="M262.076 5.58133L272.007 11.5186L273.668 10.531L263.725 4.59375L262.076 5.58133Z" fill="#7C1DC9"/>
    <path d="M273.586 12.4847V14.4481L271.925 13.4605V11.4971L273.586 12.4847Z" fill="#25054D"/>
    <path d="M273.588 12.4803V14.4437L279.344 10.8814V8.91797L273.588 12.4803Z" fill="#45108A"/>
    <path d="M279.344 8.92118L273.588 12.4835L271.927 11.4959L277.706 7.93359L279.344 8.92118Z" fill="#7C1DC9"/>
    <path d="M273.605 12.4895L266.041 25.5044L264.38 24.5169L271.945 11.502L273.605 12.4895Z" fill="#25054D"/>
    <path d="M273.593 12.4895L266.028 25.5044L267.677 24.5168L275.242 11.5137L273.593 12.4895Z" fill="#45108A"/>
    <path d="M142.759 182.923C142.554 182.864 142.429 182.641 142.486 182.417L178.672 140.974C178.866 140.868 179.105 140.951 179.207 141.15C179.309 141.35 179.23 141.597 179.036 141.703L143.237 182.641C143.18 182.852 142.964 182.982 142.747 182.923H142.759Z" fill="#0F001F"/>
    <path d="M216.063 167.179C216.302 167.179 216.484 166.979 216.484 166.732V139.727L214.346 138.457C214.141 138.339 213.879 138.41 213.766 138.622C213.652 138.833 213.72 139.104 213.925 139.221L215.643 140.232V166.721C215.643 166.968 215.836 167.167 216.063 167.167V167.179Z" fill="#0F001F"/>
    <path d="M143.554 210.248C143.793 210.248 143.975 210.048 143.975 209.801V182.795L141.836 181.525C141.631 181.408 141.37 181.478 141.256 181.69C141.142 181.902 141.21 182.172 141.415 182.29L143.133 183.301V209.789C143.133 210.036 143.326 210.236 143.554 210.236V210.248Z" fill="#0F001F"/>
    <g style="mix-blend-mode:multiply">
        <path d="M41.9832 245.668L42.0856 247.161L164.74 112.191L133.24 128.004L40.6181 229.702L41.9832 245.668Z" fill="#BCBEC0"/>
    </g>
    <path d="M44.5195 226.974L44.2578 246.796L40.208 249.688V230.9L44.5195 226.974Z" fill="url(#paint23_linear_3124_38442)"/>
    <path d="M44.5211 226.973L128.247 135.022L166.914 111.72V111.837L44.2594 246.795L44.157 245.314L44.5211 226.973Z" fill="url(#paint24_linear_3124_38442)"/>
    <path d="M166.904 111.72V111.837L157.485 122.195L158.6 116.728L166.904 111.72Z" fill="url(#paint25_linear_3124_38442)"/>
    <path d="M148.059 123.078L145.567 135.317L135.249 146.674L138.947 128.58L148.059 123.078Z" fill="url(#paint26_linear_3124_38442)"/>
    <path d="M51.3419 219.72L61.6484 208.362L56.5748 233.228L46.2569 244.585L51.3419 219.72Z" fill="url(#paint27_linear_3124_38442)"/>
    <path d="M83.9023 183.883L78.8173 208.749L68.4994 220.106L73.5844 195.24L83.9023 183.883Z" fill="url(#paint28_linear_3124_38442)"/>
    <path d="M106.146 159.418L101.073 184.272L90.7549 195.629L95.8286 170.763L106.146 159.418Z" fill="url(#paint29_linear_3124_38442)"/>
    <path d="M128.391 134.939L123.306 159.794L112.988 171.151L118.073 146.285L128.391 134.939Z" fill="url(#paint30_linear_3124_38442)"/>
    <path d="M166.912 111.838L128.404 134.941L134.582 127.005L173.123 103.573L166.912 111.838Z" fill="#BCBEC0"/>
    <path d="M147.914 123.255L158.459 116.906L163.715 109.17L153.624 115.236L147.914 123.255Z" fill="url(#paint31_linear_3124_38442)"/>
    <path d="M138.942 128.579L144.801 120.737L134.528 127.004L128.397 134.94L138.942 128.579Z" fill="url(#paint32_linear_3124_38442)"/>
    <path d="M228.328 171.999V220.696L118.21 286.076V237.379L228.328 171.999Z" fill="url(#paint33_linear_3124_38442)"/>
    <path d="M118.221 237.382V286.079L116.412 284.927V236.241L118.221 237.382Z" fill="url(#paint34_linear_3124_38442)"/>
    <path d="M116.412 236.24L118.221 237.38L228.328 172L226.508 170.859L116.412 236.24Z" fill="url(#paint35_linear_3124_38442)"/>
    <path d="M194.655 232.079L222.56 215.266V183.429L194.655 200.241V232.079Z" fill="url(#paint36_linear_3124_38442)"/>
    <path d="M189.422 205.882V208.515L157.035 227.468V224.834L189.422 205.882Z" fill="#7C1DC9"/>
    <path opacity="0.6" d="M173.905 239.153L189.422 230.029V232.663L173.905 241.786V239.153Z" fill="#7C1DC9"/>
    <path opacity="0.6" d="M171.406 240.647V243.281L151.191 255.238V252.604L171.406 240.647Z" fill="#7C1DC9"/>
    <path opacity="0.6" d="M152.891 248.326V245.692L170.455 235.24V237.874L152.891 248.326Z" fill="#7C1DC9"/>
    <path opacity="0.6" d="M163.895 233.075L189.422 217.979V220.613L163.895 235.709V233.075Z" fill="#7C1DC9"/>
    <path opacity="0.6" d="M173.905 221.225L189.422 212.102V214.723L173.905 223.858V221.225Z" fill="#7C1DC9"/>
    <path opacity="0.6" d="M171.406 222.72V225.353L151.191 237.31V234.677L171.406 222.72Z" fill="#7C1DC9"/>
    <path opacity="0.6" d="M161.387 234.58V237.214L149.055 244.785V242.152L161.387 234.58Z" fill="#7C1DC9"/>
    <path opacity="0.6" d="M148.68 238.801L125.644 252.921V250.287L148.68 236.167V238.801Z" fill="#7C1DC9"/>
    <path opacity="0.6" d="M146.551 246.276L125.653 258.797V256.164L146.551 243.643V246.276Z" fill="#7C1DC9"/>
    <path opacity="0.6" d="M172.973 233.745L189.422 224.046V226.679L172.973 236.367V233.745Z" fill="#7C1DC9"/>
    <path opacity="0.6" d="M150.385 249.815L125.688 265.111V262.477L150.385 247.182V249.815Z" fill="#7C1DC9"/>
    <g opacity="0.9">
        <path d="M53.408 295.434V324.826L117.875 286.451V256.906L53.408 295.434Z" fill="url(#paint37_linear_3124_38442)"/>
        <path d="M117.875 256.908L53.408 295.435L53.4421 293.201L116.18 255.814L117.875 256.908Z" fill="url(#paint38_linear_3124_38442)"/>
    </g>
    <path d="M108.359 269.559V272.004L61.1154 300.127V297.681L108.359 269.559Z" fill="url(#paint39_linear_3124_38442)"/>
    <path d="M83.4121 294.601L108.359 279.705V282.139L83.4121 297.035V294.601Z" fill="url(#paint40_linear_3124_38442)"/>
    <path d="M108.359 277.072L61.1154 305.195V302.75L108.359 274.627V277.072Z" fill="url(#paint41_linear_3124_38442)"/>
    <path d="M83.4121 264.243L108.359 249.347V251.78L83.4121 266.676V264.243Z" fill="url(#paint44_linear_3124_38442)"/>
    <path d="M95.6094 246.787V249.233L61.1178 269.772V267.326L95.6094 246.787Z" fill="url(#paint45_linear_3124_38442)"/>
    <path d="M95.6094 254.299L61.1178 274.838V272.405L95.6094 251.854V254.299Z" fill="url(#paint46_linear_3124_38442)"/>
    <path opacity="0.8" d="M99.3357 242.41L107.208 237.707C107.686 237.413 108.084 237.648 108.084 238.224V243.738C108.084 244.314 107.697 245.008 107.208 245.302L102.282 248.241L99.8248 252.626V249.711L99.3357 250.005C98.8579 250.299 98.4597 250.063 98.4597 249.487V243.973C98.4597 243.397 98.8465 242.704 99.3357 242.41ZM104.887 243.444C105.149 243.597 105.558 243.35 105.82 242.892C106.082 242.433 106.082 241.939 105.82 241.787C105.558 241.634 105.149 241.881 104.887 242.339C104.625 242.798 104.625 243.291 104.887 243.444ZM102.748 244.714C103.01 244.867 103.42 244.62 103.681 244.161C103.943 243.703 103.943 243.209 103.681 243.056C103.42 242.903 103.01 243.15 102.748 243.609C102.487 244.067 102.487 244.561 102.748 244.714ZM100.621 245.984C100.883 246.137 101.292 245.89 101.554 245.431C101.816 244.973 101.816 244.479 101.554 244.326C101.292 244.173 100.883 244.42 100.621 244.879C100.36 245.337 100.36 245.831 100.621 245.984Z" fill="url(#paint47_linear_3124_38442)"/>
    <defs>
        <radialGradient id="paint0_radial_3124_38442" cx="0" cy="0" r="1" gradientUnits="userSpaceOnUse" gradientTransform="translate(196.42 185.284) rotate(180) scale(150.333 185.315)">
            <stop stop-color="#FA45C1"/>
            <stop offset="0.21" stop-color="#CB389D"/>
            <stop offset="0.67" stop-color="#571843"/>
            <stop offset="1"/>
        </radialGradient>
        <linearGradient id="paint1_linear_3124_38442" x1="213.407" y1="338.568" x2="79.4788" y2="338.568" gradientUnits="userSpaceOnUse">
            <stop offset="0.06" stop-color="#200041"/>
            <stop offset="0.26" stop-color="#210143"/>
            <stop offset="0.36" stop-color="#25084A"/>
            <stop offset="0.43" stop-color="#2C1357"/>
            <stop offset="0.47" stop-color="#311B61"/>
            <stop offset="0.48" stop-color="#351F65"/>
            <stop offset="0.5" stop-color="#422C72"/>
            <stop offset="0.51" stop-color="#574188"/>
            <stop offset="0.52" stop-color="#755FA6"/>
            <stop offset="0.53" stop-color="#8770B8"/>
            <stop offset="0.54" stop-color="#7D66AE"/>
            <stop offset="0.56" stop-color="#5C458C"/>
            <stop offset="0.59" stop-color="#442E74"/>
            <stop offset="0.61" stop-color="#351F66"/>
            <stop offset="0.63" stop-color="#311B61"/>
            <stop offset="0.67" stop-color="#2A1054"/>
            <stop offset="0.75" stop-color="#220446"/>
            <stop offset="0.81" stop-color="#200041"/>
            <stop offset="1" stop-color="#200041"/>
        </linearGradient>
        <linearGradient id="paint2_linear_3124_38442" x1="213.407" y1="317.466" x2="79.4788" y2="317.466" gradientUnits="userSpaceOnUse">
            <stop offset="0.06" stop-color="#200041"/>
            <stop offset="0.26" stop-color="#210143"/>
            <stop offset="0.36" stop-color="#25084A"/>
            <stop offset="0.43" stop-color="#2C1357"/>
            <stop offset="0.47" stop-color="#311B61"/>
            <stop offset="0.48" stop-color="#351F65"/>
            <stop offset="0.5" stop-color="#422C72"/>
            <stop offset="0.51" stop-color="#574188"/>
            <stop offset="0.52" stop-color="#755FA6"/>
            <stop offset="0.53" stop-color="#8770B8"/>
            <stop offset="0.54" stop-color="#7D66AE"/>
            <stop offset="0.56" stop-color="#5C458C"/>
            <stop offset="0.59" stop-color="#442E74"/>
            <stop offset="0.61" stop-color="#351F66"/>
            <stop offset="0.63" stop-color="#311B61"/>
            <stop offset="0.67" stop-color="#2A1054"/>
            <stop offset="0.75" stop-color="#220446"/>
            <stop offset="0.81" stop-color="#200041"/>
            <stop offset="1" stop-color="#200041"/>
        </linearGradient>
        <linearGradient id="paint3_linear_3124_38442" x1="177.562" y1="326.366" x2="115.94" y2="293.38" gradientUnits="userSpaceOnUse">
            <stop stop-color="#311B61"/>
            <stop offset="0.2" stop-color="#290E52"/>
            <stop offset="0.49" stop-color="#200041"/>
            <stop offset="1" stop-color="#0F001F"/>
        </linearGradient>
        <linearGradient id="paint4_linear_3124_38442" x1="145.376" y1="309.954" x2="132.865" y2="289.671" gradientUnits="userSpaceOnUse">
            <stop stop-color="white"/>
            <stop offset="1"/>
        </linearGradient>
        <radialGradient id="paint5_radial_3124_38442" cx="0" cy="0" r="1" gradientUnits="userSpaceOnUse" gradientTransform="translate(144.972 338.02) rotate(180) scale(47.6535 49.2497)">
            <stop stop-color="#AF8AFC"/>
            <stop offset="1" stop-color="#10054D"/>
        </radialGradient>
        <radialGradient id="paint6_radial_3124_38442" cx="0" cy="0" r="1" gradientUnits="userSpaceOnUse" gradientTransform="translate(139.767 364.022) rotate(-156.989) scale(19.1768 22.7249)">
            <stop stop-color="#972A74"/>
            <stop offset="0.04" stop-color="#8A266A"/>
            <stop offset="0.19" stop-color="#601A49"/>
            <stop offset="0.35" stop-color="#3D112F"/>
            <stop offset="0.51" stop-color="#22091A"/>
            <stop offset="0.67" stop-color="#0F040B"/>
            <stop offset="0.83" stop-color="#030102"/>
            <stop offset="1"/>
        </radialGradient>
        <linearGradient id="paint7_linear_3124_38442" x1="47.1054" y1="350.738" x2="261.014" y2="64.3308" gradientUnits="userSpaceOnUse">
            <stop stop-color="#311B61"/>
            <stop offset="1" stop-color="#25084A"/>
        </linearGradient>
        <linearGradient id="paint8_linear_3124_38442" x1="202.796" y1="71.7574" x2="114.958" y2="266.232" gradientUnits="userSpaceOnUse">
            <stop offset="0.01" stop-color="#9F19AB"/>
            <stop offset="0.43" stop-color="#5F27BD"/>
            <stop offset="0.9" stop-color="#3D065F"/>
        </linearGradient>
        <linearGradient id="paint9_linear_3124_38442" x1="3.54616" y1="357.108" x2="172.615" y2="95.7188" gradientUnits="userSpaceOnUse">
            <stop offset="0.06" stop-color="#200041"/>
            <stop offset="0.26" stop-color="#210143"/>
            <stop offset="0.36" stop-color="#25084A"/>
            <stop offset="0.43" stop-color="#2C1357"/>
            <stop offset="0.47" stop-color="#311B61"/>
            <stop offset="0.48" stop-color="#351F65"/>
            <stop offset="0.5" stop-color="#422C72"/>
            <stop offset="0.51" stop-color="#574188"/>
            <stop offset="0.52" stop-color="#755FA6"/>
            <stop offset="0.53" stop-color="#8770B8"/>
            <stop offset="0.54" stop-color="#7D66AE"/>
            <stop offset="0.56" stop-color="#5C458C"/>
            <stop offset="0.59" stop-color="#442E74"/>
            <stop offset="0.61" stop-color="#351F66"/>
            <stop offset="0.63" stop-color="#311B61"/>
        </linearGradient>
        <radialGradient id="paint10_radial_3124_38442" cx="0" cy="0" r="1" gradientUnits="userSpaceOnUse" gradientTransform="translate(49.3211 205.397) rotate(180) scale(27.4614 28.3812)">
            <stop stop-color="#AF8AFC"/>
            <stop offset="1" stop-color="#10054D"/>
        </radialGradient>
        <radialGradient id="paint11_radial_3124_38442" cx="0" cy="0" r="1" gradientUnits="userSpaceOnUse" gradientTransform="translate(49.1259 200.054) rotate(-156.989) scale(17.4946 22.7249)">
            <stop stop-color="#972A74"/>
            <stop offset="0.04" stop-color="#8A266A"/>
            <stop offset="0.19" stop-color="#601A49"/>
            <stop offset="0.35" stop-color="#3D112F"/>
            <stop offset="0.51" stop-color="#22091A"/>
            <stop offset="0.67" stop-color="#0F040B"/>
            <stop offset="0.83" stop-color="#030102"/>
            <stop offset="1"/>
        </radialGradient>
        <linearGradient id="paint12_linear_3124_38442" x1="125.592" y1="246.534" x2="174.79" y2="331.447" gradientUnits="userSpaceOnUse">
            <stop offset="0.03" stop-color="#7C1DC9"/>
            <stop offset="0.21" stop-color="#6E41D1"/>
            <stop offset="0.62" stop-color="#4C9BE8"/>
            <stop offset="1" stop-color="#2AF6FF"/>
        </linearGradient>
        <linearGradient id="paint13_linear_3124_38442" x1="131.985" y1="251.496" x2="143.153" y2="270.888" gradientUnits="userSpaceOnUse">
            <stop offset="0.03" stop-color="#7C1DC9"/>
            <stop offset="0.21" stop-color="#6E41D1"/>
            <stop offset="0.62" stop-color="#4C9BE8"/>
            <stop offset="1" stop-color="#2AF6FF"/>
        </linearGradient>
        <linearGradient id="paint14_linear_3124_38442" x1="142.126" y1="198.457" x2="125.155" y2="193.544" gradientUnits="userSpaceOnUse">
            <stop offset="0.04" stop-color="#9F19AB"/>
            <stop offset="0.24" stop-color="#AE24B0"/>
            <stop offset="0.65" stop-color="#D643BF"/>
            <stop offset="1" stop-color="#FF63CE"/>
        </linearGradient>
        <linearGradient id="paint15_linear_3124_38442" x1="293.181" y1="200.958" x2="60.7909" y2="150.545" gradientUnits="userSpaceOnUse">
            <stop offset="0.04" stop-color="#9F19AB"/>
            <stop offset="0.24" stop-color="#AE24B0"/>
            <stop offset="0.65" stop-color="#D643BF"/>
            <stop offset="1" stop-color="#FF63CE"/>
        </linearGradient>
        <linearGradient id="paint16_linear_3124_38442" x1="173.951" y1="151.087" x2="180.046" y2="162.337" gradientUnits="userSpaceOnUse">
            <stop offset="0.04" stop-color="#9F19AB"/>
            <stop offset="0.24" stop-color="#AE24B0"/>
            <stop offset="0.65" stop-color="#D643BF"/>
            <stop offset="1" stop-color="#FF63CE"/>
        </linearGradient>
        <radialGradient id="paint17_radial_3124_38442" cx="0" cy="0" r="1" gradientUnits="userSpaceOnUse" gradientTransform="translate(266.058 280.998) rotate(180) scale(19.6347 20.2924)">
            <stop stop-color="#AF8AFC"/>
            <stop offset="1" stop-color="#10054D"/>
        </radialGradient>
        <radialGradient id="paint18_radial_3124_38442" cx="0" cy="0" r="1" gradientUnits="userSpaceOnUse" gradientTransform="translate(266.049 275.19) rotate(180) scale(11.8878 12.286)">
            <stop stop-color="#AF8AFC"/>
            <stop offset="1" stop-color="#10054D"/>
        </radialGradient>
        <linearGradient id="paint19_linear_3124_38442" x1="255.785" y1="34.0066" x2="267.227" y2="62.7816" gradientUnits="userSpaceOnUse">
            <stop offset="0.03" stop-color="#7C1DC9"/>
            <stop offset="0.21" stop-color="#6E41D1"/>
            <stop offset="0.62" stop-color="#4C9BE8"/>
            <stop offset="1" stop-color="#2AF6FF"/>
        </linearGradient>
        <linearGradient id="paint20_linear_3124_38442" x1="261.706" y1="26.141" x2="255.942" y2="66.6629" gradientUnits="userSpaceOnUse">
            <stop offset="0.03" stop-color="#7C1DC9"/>
            <stop offset="0.21" stop-color="#6E41D1"/>
            <stop offset="0.62" stop-color="#4C9BE8"/>
            <stop offset="1" stop-color="#2AF6FF"/>
        </linearGradient>
        <radialGradient id="paint21_radial_3124_38442" cx="0" cy="0" r="1" gradientUnits="userSpaceOnUse" gradientTransform="translate(271.855 36.8982) rotate(180) scale(9.93113 10.2638)">
            <stop stop-color="#AF8AFC"/>
            <stop offset="1" stop-color="#10054D"/>
        </radialGradient>
        <linearGradient id="paint22_linear_3124_38442" x1="265.64" y1="61.1533" x2="289.511" y2="28.9556" gradientUnits="userSpaceOnUse">
            <stop offset="0.03" stop-color="#7C1DC9"/>
            <stop offset="0.21" stop-color="#6E41D1"/>
            <stop offset="0.62" stop-color="#4C9BE8"/>
            <stop offset="1" stop-color="#2AF6FF"/>
        </linearGradient>
        <linearGradient id="paint23_linear_3124_38442" x1="37.1706" y1="237.026" x2="51.3734" y2="240.384" gradientUnits="userSpaceOnUse">
            <stop offset="0.04" stop-color="#9F19AB"/>
            <stop offset="0.24" stop-color="#AE24B0"/>
            <stop offset="0.65" stop-color="#D643BF"/>
            <stop offset="1" stop-color="#FF63CE"/>
        </linearGradient>
        <linearGradient id="paint24_linear_3124_38442" x1="126.268" y1="185.659" x2="-31.3526" y2="139.993" gradientUnits="userSpaceOnUse">
            <stop offset="0.04" stop-color="#9F19AB"/>
            <stop offset="0.24" stop-color="#AE24B0"/>
            <stop offset="0.65" stop-color="#D643BF"/>
            <stop offset="1" stop-color="#FF63CE"/>
        </linearGradient>
        <linearGradient id="paint25_linear_3124_38442" x1="163.787" y1="117.445" x2="151.608" y2="113.916" gradientUnits="userSpaceOnUse">
            <stop offset="0.02" stop-color="#B5B4C3"/>
            <stop offset="0.22" stop-color="#CACAD4"/>
            <stop offset="0.53" stop-color="#E7E7EB"/>
            <stop offset="0.8" stop-color="#F8F8F9"/>
            <stop offset="1" stop-color="white"/>
        </linearGradient>
        <linearGradient id="paint26_linear_3124_38442" x1="143.656" y1="135.493" x2="128.481" y2="131.101" gradientUnits="userSpaceOnUse">
            <stop offset="0.02" stop-color="#B5B4C3"/>
            <stop offset="0.22" stop-color="#CACAD4"/>
            <stop offset="0.53" stop-color="#E7E7EB"/>
            <stop offset="0.8" stop-color="#F8F8F9"/>
            <stop offset="1" stop-color="white"/>
        </linearGradient>
        <linearGradient id="paint27_linear_3124_38442" x1="56.3359" y1="227.209" x2="40.1313" y2="222.517" gradientUnits="userSpaceOnUse">
            <stop offset="0.02" stop-color="#B5B4C3"/>
            <stop offset="0.22" stop-color="#CACAD4"/>
            <stop offset="0.53" stop-color="#E7E7EB"/>
            <stop offset="0.8" stop-color="#F8F8F9"/>
            <stop offset="1" stop-color="white"/>
        </linearGradient>
        <linearGradient id="paint28_linear_3124_38442" x1="78.5898" y1="202.729" x2="62.3852" y2="198.037" gradientUnits="userSpaceOnUse">
            <stop offset="0.02" stop-color="#B5B4C3"/>
            <stop offset="0.22" stop-color="#CACAD4"/>
            <stop offset="0.53" stop-color="#E7E7EB"/>
            <stop offset="0.8" stop-color="#F8F8F9"/>
            <stop offset="1" stop-color="white"/>
        </linearGradient>
        <linearGradient id="paint29_linear_3124_38442" x1="100.834" y1="178.253" x2="84.6294" y2="173.561" gradientUnits="userSpaceOnUse">
            <stop offset="0.02" stop-color="#B5B4C3"/>
            <stop offset="0.22" stop-color="#CACAD4"/>
            <stop offset="0.53" stop-color="#E7E7EB"/>
            <stop offset="0.8" stop-color="#F8F8F9"/>
            <stop offset="1" stop-color="white"/>
        </linearGradient>
        <linearGradient id="paint30_linear_3124_38442" x1="123.067" y1="153.774" x2="106.874" y2="149.082" gradientUnits="userSpaceOnUse">
            <stop offset="0.02" stop-color="#B5B4C3"/>
            <stop offset="0.22" stop-color="#CACAD4"/>
            <stop offset="0.53" stop-color="#E7E7EB"/>
            <stop offset="0.8" stop-color="#F8F8F9"/>
            <stop offset="1" stop-color="white"/>
        </linearGradient>
        <linearGradient id="paint31_linear_3124_38442" x1="149.074" y1="109.946" x2="163.255" y2="122.285" gradientUnits="userSpaceOnUse">
            <stop offset="0.04" stop-color="#9F19AB"/>
            <stop offset="0.24" stop-color="#AE24B0"/>
            <stop offset="0.65" stop-color="#D643BF"/>
            <stop offset="1" stop-color="#FF63CE"/>
        </linearGradient>
        <linearGradient id="paint32_linear_3124_38442" x1="131.787" y1="120.361" x2="148.64" y2="144.891" gradientUnits="userSpaceOnUse">
            <stop offset="0.04" stop-color="#9F19AB"/>
            <stop offset="0.24" stop-color="#AE24B0"/>
            <stop offset="0.65" stop-color="#D643BF"/>
            <stop offset="1" stop-color="#FF63CE"/>
        </linearGradient>
        <linearGradient id="paint33_linear_3124_38442" x1="114.888" y1="169.177" x2="216.703" y2="266.897" gradientUnits="userSpaceOnUse">
            <stop offset="0.04" stop-color="#9D9EB3"/>
            <stop offset="0.58" stop-color="#D4D1D8"/>
            <stop offset="1" stop-color="#EEEBF2"/>
        </linearGradient>
        <linearGradient id="paint34_linear_3124_38442" x1="109.677" y1="263.893" x2="91.1215" y2="270.122" gradientUnits="userSpaceOnUse">
            <stop offset="0.04" stop-color="#9D9EB3"/>
            <stop offset="0.58" stop-color="#D4D1D8"/>
            <stop offset="1" stop-color="#EEEBF2"/>
        </linearGradient>
        <linearGradient id="paint35_linear_3124_38442" x1="162.496" y1="187.636" x2="172.919" y2="203.918" gradientUnits="userSpaceOnUse">
            <stop offset="0.04" stop-color="#9D9EB3"/>
            <stop offset="0.58" stop-color="#D4D1D8"/>
            <stop offset="1" stop-color="#EEEBF2"/>
        </linearGradient>
        <linearGradient id="paint36_linear_3124_38442" x1="197.044" y1="180.184" x2="226.1" y2="245.065" gradientUnits="userSpaceOnUse">
            <stop offset="0.04" stop-color="#6B24D6"/>
            <stop offset="0.29" stop-color="#7733DC"/>
            <stop offset="0.79" stop-color="#965BEC"/>
            <stop offset="1" stop-color="#A56EF4"/>
        </linearGradient>
        <linearGradient id="paint37_linear_3124_38442" x1="181.022" y1="312.963" x2="-14.5453" y2="270.544" gradientUnits="userSpaceOnUse">
            <stop offset="0.04" stop-color="#6B24D6"/>
            <stop offset="0.29" stop-color="#7733DC"/>
            <stop offset="0.79" stop-color="#965BEC"/>
            <stop offset="1" stop-color="#A56EF4"/>
        </linearGradient>
        <linearGradient id="paint38_linear_3124_38442" x1="80.6873" y1="266.407" x2="86.1599" y2="276.511" gradientUnits="userSpaceOnUse">
            <stop offset="0.04" stop-color="#6B24D6"/>
            <stop offset="0.29" stop-color="#7733DC"/>
            <stop offset="0.79" stop-color="#965BEC"/>
            <stop offset="1" stop-color="#A56EF4"/>
        </linearGradient>
        <linearGradient id="paint39_linear_3124_38442" x1="108.359" y1="284.843" x2="61.1154" y2="284.843" gradientUnits="userSpaceOnUse">
            <stop stop-color="#25054D"/>
            <stop offset="1" stop-color="#45108A"/>
        </linearGradient>
        <linearGradient id="paint40_linear_3124_38442" x1="108.359" y1="288.37" x2="83.4121" y2="288.37" gradientUnits="userSpaceOnUse">
            <stop stop-color="#25054D"/>
            <stop offset="1" stop-color="#45108A"/>
        </linearGradient>
        <linearGradient id="paint41_linear_3124_38442" x1="108.359" y1="289.911" x2="61.1154" y2="289.911" gradientUnits="userSpaceOnUse">
            <stop stop-color="#25054D"/>
            <stop offset="1" stop-color="#45108A"/>
        </linearGradient>
        <linearGradient id="paint42_linear_3124_38442" x1="181.022" y1="282.605" x2="-14.5453" y2="240.186" gradientUnits="userSpaceOnUse">
            <stop offset="0.04" stop-color="#6B24D6"/>
            <stop offset="0.29" stop-color="#7733DC"/>
            <stop offset="0.79" stop-color="#965BEC"/>
            <stop offset="1" stop-color="#A56EF4"/>
        </linearGradient>
        <linearGradient id="paint43_linear_3124_38442" x1="80.6873" y1="236.061" x2="86.1597" y2="246.153" gradientUnits="userSpaceOnUse">
            <stop offset="0.04" stop-color="#6B24D6"/>
            <stop offset="0.29" stop-color="#7733DC"/>
            <stop offset="0.79" stop-color="#965BEC"/>
            <stop offset="1" stop-color="#A56EF4"/>
        </linearGradient>
        <linearGradient id="paint44_linear_3124_38442" x1="108.359" y1="258.012" x2="83.4121" y2="258.012" gradientUnits="userSpaceOnUse">
            <stop stop-color="#25054D"/>
            <stop offset="1" stop-color="#45108A"/>
        </linearGradient>
        <linearGradient id="paint45_linear_3124_38442" x1="95.6094" y1="258.285" x2="61.1178" y2="258.285" gradientUnits="userSpaceOnUse">
            <stop stop-color="#25054D"/>
            <stop offset="1" stop-color="#45108A"/>
        </linearGradient>
        <linearGradient id="paint46_linear_3124_38442" x1="95.6094" y1="263.352" x2="61.1178" y2="263.352" gradientUnits="userSpaceOnUse">
            <stop stop-color="#25054D"/>
            <stop offset="1" stop-color="#45108A"/>
        </linearGradient>
        <linearGradient id="paint47_linear_3124_38442" x1="90.1553" y1="266.676" x2="119.596" y2="218.737" gradientUnits="userSpaceOnUse">
            <stop stop-color="#25054D"/>
            <stop offset="1" stop-color="#45108A"/>
        </linearGradient>
    </defs>
</svg>
