<svg width="58" height="56" viewBox="0 0 58 56" fill="none" xmlns="http://www.w3.org/2000/svg">
<path d="M19.4288 0.924481H36.4246L18.7813 53.2325C18.5999 53.77 18.2547 54.2371 17.7942 54.568C17.3337 54.8989 16.781 55.0769 16.2141 55.077H2.98714C2.55758 55.0771 2.13418 54.9748 1.75197 54.7786C1.36977 54.5824 1.03973 54.298 0.789178 53.9489C0.538623 53.5997 0.374746 53.1959 0.311107 52.7708C0.247468 52.3457 0.285894 51.9116 0.423208 51.5043L16.8609 2.76895C17.0422 2.23122 17.3875 1.76394 17.8482 1.43293C18.3088 1.10192 18.8617 0.924513 19.4288 0.924481Z" fill="url(#paint0_linear_3260_5503)"/>
<path d="M44.1258 36.0098H17.1745C16.924 36.0095 16.6791 36.0847 16.4719 36.2257C16.2647 36.3666 16.1047 36.5668 16.0128 36.8C15.9208 37.0332 15.9012 37.2888 15.9565 37.5333C16.0118 37.7779 16.1394 38.0001 16.3227 38.171L33.641 54.3454C34.1452 54.816 34.8091 55.0777 35.4987 55.0775H50.7595L44.1258 36.0098Z" fill="#0078D4"/>
<path d="M19.4292 0.923848C18.8559 0.921646 18.2969 1.10294 17.8339 1.44124C17.3708 1.77954 17.028 2.25713 16.8555 2.80424L0.443892 51.4593C0.297341 51.868 0.251331 52.3061 0.309756 52.7364C0.368181 53.1667 0.529321 53.5766 0.779545 53.9314C1.02977 54.2862 1.36172 54.5755 1.7473 54.7748C2.13289 54.9741 2.56078 55.0775 2.99477 55.0764H16.5631C17.0684 54.986 17.5408 54.7631 17.9318 54.4303C18.3229 54.0975 18.6186 53.6668 18.7889 53.1823L22.0617 43.5308L33.7521 54.4415C34.242 54.847 34.8566 55.0712 35.4923 55.0764H50.6964L44.0281 36.0086L24.5891 36.0132L36.4864 0.923848H19.4292Z" fill="url(#paint1_linear_3260_5503)"/>
<path d="M41.1364 2.76568C40.9554 2.22883 40.6106 1.76232 40.1507 1.43189C39.6907 1.10146 39.1387 0.923762 38.5725 0.923828H19.6309C20.1971 0.92386 20.749 1.1016 21.209 1.43201C21.6689 1.76243 22.0137 2.22888 22.1948 2.76568L38.6332 51.503C38.7706 51.9104 38.8091 52.3446 38.7455 52.7698C38.6819 53.195 38.5181 53.5989 38.2675 53.9482C38.017 54.2975 37.6869 54.582 37.3047 54.7783C36.9224 54.9746 36.4989 55.077 36.0693 55.077H55.0115C55.4411 55.0769 55.8645 54.9744 56.2467 54.7781C56.6289 54.5817 56.9589 54.2972 57.2094 53.9479C57.4598 53.5987 57.6236 53.1948 57.6872 52.7696C57.7507 52.3445 57.7122 51.9103 57.5748 51.503L41.1364 2.76568Z" fill="url(#paint2_linear_3260_5503)"/>
<defs>
<linearGradient id="paint0_linear_3260_5503" x1="25.6232" y1="4.93738" x2="7.95285" y2="57.1074" gradientUnits="userSpaceOnUse">
<stop stop-color="#114A8B"/>
<stop offset="1" stop-color="#0669BC"/>
</linearGradient>
<linearGradient id="paint1_linear_3260_5503" x1="31.1373" y1="29.2525" x2="27.0539" y2="30.6323" gradientUnits="userSpaceOnUse">
<stop stop-opacity="0.3"/>
<stop offset="0.071" stop-opacity="0.2"/>
<stop offset="0.321" stop-opacity="0.1"/>
<stop offset="0.623" stop-opacity="0.05"/>
<stop offset="1" stop-opacity="0"/>
</linearGradient>
<linearGradient id="paint2_linear_3260_5503" x1="28.8912" y1="3.41491" x2="48.2875" y2="55.0579" gradientUnits="userSpaceOnUse">
<stop stop-color="#3CCBF4"/>
<stop offset="1" stop-color="#2892DF"/>
</linearGradient>
</defs>
</svg>
