<svg width="70" height="70" viewBox="0 0 70 70" fill="none" xmlns="http://www.w3.org/2000/svg">
<path fill-rule="evenodd" clip-rule="evenodd" d="M37.3905 63.6359C35.6441 63.7834 34.3425 65.3269 34.4853 67.0804C34.6281 68.8325 36.1692 70.1361 37.9245 69.9886C46.7158 69.2556 54.921 65.2137 60.8755 58.6747C66.8152 52.1357 70.0789 43.581 69.9986 34.7373C69.9153 25.4481 66.1429 16.5596 59.5293 10.0385C52.8994 3.53236 43.9579 -0.0820187 34.6832 0.00141298C25.4084 0.0848446 16.5338 3.86311 10.0229 10.487C3.5269 17.1258 -0.0833286 26.0827 0.00146046 35.372C0.0163357 37.13 1.45626 38.5453 3.21154 38.5289C4.96831 38.514 6.37998 37.0734 6.3651 35.3138C6.29519 27.7141 9.25239 20.3885 14.5658 14.955C19.8942 9.53646 27.1518 6.44353 34.7412 6.37499C42.3291 6.30646 49.6432 9.26679 55.0682 14.5885C60.4784 19.9252 63.5665 27.1957 63.6349 34.7954C63.7004 42.0286 61.0436 49.0324 56.175 54.3824C51.3078 59.7325 44.5916 63.028 37.3905 63.6359ZM9.76262 48.6212C8.93109 47.0717 7.00176 46.4892 5.45474 47.3205C3.90771 48.1534 3.32608 50.0857 4.15761 51.6352C7.7009 58.2322 13.2702 63.5361 20.028 66.7408C21.6152 67.5006 23.5163 66.8257 24.2705 65.236C25.0246 63.6463 24.3478 61.7393 22.7606 60.9795C17.2166 58.3529 12.6752 54.0279 9.76262 48.6212ZM33.3831 29.8267H28.3879C28.0835 28.5037 27.6452 27.5751 27.073 27.0407C26.5018 26.5063 25.695 26.2392 24.6528 26.2392C23.077 26.2392 21.9841 26.7989 21.3743 27.9182C20.7138 29.2164 20.3836 30.807 20.3836 32.6902C20.3836 34.5992 20.7584 36.1074 21.5081 37.2149C22.2578 38.3224 23.2932 38.8761 24.6141 38.8761C25.6564 38.8761 26.4636 38.6024 27.0358 38.0552C27.607 37.5079 28.0577 36.5981 28.3879 35.3258H33.3831C33.1282 37.8704 32.1112 39.843 30.3321 41.2435C28.7821 42.49 26.8637 43.1132 24.5769 43.1132C21.3748 43.1132 18.9476 42.0827 17.2955 40.0218C15.8466 38.2399 15.1222 35.8343 15.1222 32.8049C15.1222 29.1399 16.0752 26.3658 17.9812 24.4826C19.6334 22.8279 21.8701 22.0005 24.6914 22.0005C27.3849 22.0005 29.5195 22.7768 31.0952 24.3292C32.442 25.7038 33.2046 27.5363 33.3831 29.8267ZM45.2758 37.1583L49.4305 22.4207H54.8064L46.4956 46.3209C45.9115 48.0262 45.1365 49.2037 44.1706 49.8533C43.2047 50.5019 41.7688 50.8262 39.8627 50.8262C38.1094 50.8262 36.8897 50.5972 36.2034 50.1394L37.0037 46.5875C37.919 46.817 38.6816 46.9317 39.2915 46.9317C40.1811 46.9317 40.9432 46.6327 41.5779 46.0348C42.2135 45.4369 42.5314 44.7307 42.5314 43.9162V43.4961L35.0208 22.4207H40.7776L45.2758 37.1583Z" fill="#38EF7D"/>
</svg>
