<svg width="78" height="78" viewBox="0 0 78 78" fill="none" xmlns="http://www.w3.org/2000/svg">
<path fill-rule="evenodd" clip-rule="evenodd" d="M41.3905 67.6359C39.6441 67.7834 38.3425 69.3269 38.4853 71.0804C38.6281 72.8325 40.1692 74.1361 41.9245 73.9886C50.7158 73.2556 58.921 69.2137 64.8755 62.6747C70.8152 56.1357 74.0789 47.581 73.9986 38.7373C73.9153 29.4481 70.1429 20.5596 63.5293 14.0385C56.8994 7.53236 47.9579 3.91798 38.6832 4.00141C29.4084 4.08484 20.5338 7.86311 14.0229 14.487C7.5269 21.1258 3.91667 30.0827 4.00146 39.372C4.01634 41.13 5.45626 42.5453 7.21154 42.5289C8.96831 42.514 10.38 41.0734 10.3651 39.3138C10.2952 31.7141 13.2524 24.3885 18.5658 18.955C23.8942 13.5365 31.1518 10.4435 38.7412 10.375C46.3291 10.3065 53.6432 13.2668 59.0682 18.5885C64.4784 23.9252 67.5665 31.1957 67.6349 38.7954C67.7004 46.0286 65.0436 53.0324 60.175 58.3824C55.3078 63.7325 48.5916 67.028 41.3905 67.6359ZM13.7626 52.6212C12.9311 51.0717 11.0018 50.4892 9.45474 51.3205C7.90771 52.1534 7.32608 54.0857 8.15761 55.6352C11.7009 62.2322 17.2702 67.5361 24.028 70.7408C25.6152 71.5006 27.5163 70.8257 28.2705 69.236C29.0246 67.6463 28.3478 65.7393 26.7606 64.9795C21.2166 62.3529 16.6752 58.0279 13.7626 52.6212ZM37.3831 33.8267H32.3879C32.0835 32.5037 31.6452 31.5751 31.073 31.0407C30.5018 30.5063 29.695 30.2392 28.6528 30.2392C27.077 30.2392 25.9841 30.7989 25.3743 31.9182C24.7138 33.2164 24.3836 34.807 24.3836 36.6902C24.3836 38.5992 24.7584 40.1074 25.5081 41.2149C26.2578 42.3224 27.2932 42.8761 28.6141 42.8761C29.6564 42.8761 30.4636 42.6024 31.0358 42.0552C31.607 41.5079 32.0577 40.5981 32.3879 39.3258H37.3831C37.1282 41.8704 36.1112 43.843 34.3321 45.2435C32.7821 46.49 30.8637 47.1132 28.5769 47.1132C25.3748 47.1132 22.9476 46.0827 21.2955 44.0218C19.8466 42.2399 19.1222 39.8343 19.1222 36.8049C19.1222 33.1399 20.0752 30.3658 21.9812 28.4826C23.6334 26.8279 25.8701 26.0005 28.6914 26.0005C31.3849 26.0005 33.5195 26.7768 35.0952 28.3292C36.442 29.7038 37.2046 31.5363 37.3831 33.8267ZM49.2758 41.1583L53.4305 26.4207H58.8064L50.4956 50.3209C49.9115 52.0262 49.1365 53.2037 48.1706 53.8533C47.2047 54.5019 45.7688 54.8262 43.8627 54.8262C42.1094 54.8262 40.8897 54.5972 40.2034 54.1394L41.0037 50.5875C41.919 50.817 42.6816 50.9317 43.2915 50.9317C44.1811 50.9317 44.9432 50.6327 45.5779 50.0348C46.2135 49.4369 46.5314 48.7307 46.5314 47.9162V47.4961L39.0208 26.4207H44.7776L49.2758 41.1583Z" fill="url(#paint0_linear_955_37)"/>
<defs>
<linearGradient id="paint0_linear_955_37" x1="73.5883" y1="37.6111" x2="4.01264" y2="35.6494" gradientUnits="userSpaceOnUse">
<stop stop-color="#11998E"/>
<stop offset="0.991304" stop-color="#38EF7D"/>
</linearGradient>
</defs>
</svg>
