<svg width="78" height="78" viewBox="0 0 78 78" fill="none" xmlns="http://www.w3.org/2000/svg">
<path d="M38.984 60.4756V74C61.9072 74 79.7205 51.8673 72.2239 27.8323C70.5856 22.6455 67.7222 17.9295 63.8759 14.0833C60.0297 10.237 55.3137 7.37364 50.1269 5.73529C26.1327 -1.76128 4 16.0877 4 38.9752H17.5244C17.5244 24.6195 31.7628 13.5124 46.8784 18.9843C49.6545 19.9971 52.1756 21.6045 54.2651 23.6941C56.3547 25.7836 57.9621 28.3047 58.9749 31.0809C64.4825 46.1811 53.3652 60.4042 39.0248 60.4348V46.9868H25.5361V60.4756H38.984Z" fill="#0080FF"/>
<path d="M25.536 70.8632H15.1428V60.4751H25.536V70.8632ZM6.45801 60.4751H15.1428V51.7852H6.45801V60.4751Z" fill="#0080FF"/>
</svg>
