<svg width="18" height="10" viewBox="0 0 18 10" fill="none" xmlns="http://www.w3.org/2000/svg">
    <path d="M17.0769 9.36998C16.4893 9.52083 16.1259 9.3766 15.7997 8.88225L13.4807 5.64299L13.1455 5.1945L10.4372 8.89296C10.1277 9.33787 9.80314 9.53153 9.22564 9.37405L12.6937 4.67416L9.46492 0.428863C10.0202 0.319801 10.4039 0.375351 10.7446 0.877346L13.15 4.15688L15.5731 0.895184C15.8835 0.450269 16.2172 0.281068 16.7745 0.445172L15.5226 2.12087L13.8265 4.35054C13.6245 4.60536 13.6523 4.77966 13.8381 5.02581L17.0769 9.36998ZM0.927104 4.59568L1.21081 3.18703C1.98316 0.399305 5.14831 -0.759106 7.33109 0.963475C8.60674 1.97664 8.92376 3.40974 8.86066 5.01511H1.67018C1.56215 7.90477 3.62227 9.64875 6.24879 8.75892C7.17006 8.44651 7.71273 7.71824 7.98432 6.807C8.12213 6.35037 8.3503 6.27902 8.77535 6.40948C8.55828 7.54904 8.06862 8.50104 7.03376 9.09681C5.48754 9.98868 3.28052 9.70022 2.11946 8.46078C1.42787 7.74168 1.14215 6.83045 1.01393 5.85601C0.993738 5.69497 0.953354 5.54157 0.923065 5.38715C0.925757 5.12349 0.927104 4.85984 0.927104 4.59619V4.59568ZM1.68331 4.40201H8.18119C8.13879 2.31249 6.85001 0.828421 5.08874 0.81568C3.15532 0.800391 1.7671 2.2493 1.68331 4.40201Z" fill="white"/>
</svg>
