<svg width="78" height="78" viewBox="0 0 78 78" fill="none" xmlns="http://www.w3.org/2000/svg">
<path d="M47.0199 29.2747L40.0157 35.7913L33.5166 22.6816L36.8798 15.1417C37.7546 13.6109 39.1191 13.6284 39.9719 15.1417L47.0199 29.2747Z" fill="#FFA000"/>
<path d="M33.5164 22.6816L40.0154 35.7912L13.8398 60.1409L33.5164 22.6816Z" fill="#F57F17"/>
<path d="M54.6799 19.314C55.9307 18.1112 57.2253 18.5224 57.5555 20.2259L64.3695 59.8173L41.7845 73.3752C40.9973 73.8126 38.898 74.0006 38.898 74.0006C38.898 74.0006 36.9868 73.7732 36.2586 73.3446L13.8398 60.1409L54.6799 19.314Z" fill="#FFCA28"/>
<path d="M33.5152 22.6816L13.8408 60.1409L22.6032 5.39522C22.9268 3.68954 23.8978 3.52554 24.7637 5.03003L33.5152 22.6816Z" fill="#FFA000"/>
</svg>
