<svg width="64" height="64" viewBox="0 0 64 64" fill="none" xmlns="http://www.w3.org/2000/svg">
<path d="M22.1616 3.28125H3.28125V22.0247H22.1616V3.28125Z" fill="url(#paint0_linear_3260_5466)"/>
<path d="M44.5307 25.9082H25.6504V44.6516H44.5307V25.9082Z" fill="url(#paint1_linear_3260_5466)"/>
<path d="M44.5307 3.28125H25.6504V22.0247H60.7165V19.3463C60.716 15.0854 59.0108 10.9993 55.9756 7.98657C52.9406 4.97382 48.8228 3.28125 44.5307 3.28125Z" fill="url(#paint2_linear_3260_5466)"/>
<path d="M3.28125 25.9082V44.6516C3.28168 48.9124 4.98698 52.9987 8.02205 56.0115C11.0571 59.0243 15.1733 60.7167 19.4653 60.7167H22.1616V25.9082H3.28125Z" fill="url(#paint3_linear_3260_5466)"/>
<path opacity="0.18" d="M3.28125 3.28125L22.1616 22.0247H3.28125V3.28125Z" fill="url(#paint4_linear_3260_5466)"/>
<path opacity="0.18" d="M25.6504 25.9082L44.5307 44.6516H25.6504V25.9082Z" fill="url(#paint5_linear_3260_5466)"/>
<path opacity="0.18" d="M3.28125 44.6516C3.28168 48.9124 4.98698 52.9987 8.02205 56.0115C11.0571 59.0243 15.1733 60.7167 19.4653 60.7167H22.1616V25.9082L3.28125 44.6516Z" fill="url(#paint6_linear_3260_5466)"/>
<path opacity="0.18" d="M44.5324 3.28125C48.8244 3.28125 52.9406 4.97382 55.9756 7.98657C59.0108 10.9993 60.716 15.0854 60.7165 19.3463V22.0247H25.6504L44.5324 3.28125Z" fill="url(#paint7_linear_3260_5466)"/>
<defs>
<linearGradient id="paint0_linear_3260_5466" x1="49.4626" y1="50.702" x2="-29.9082" y2="-32.6835" gradientUnits="userSpaceOnUse">
<stop stop-color="#E82A73"/>
<stop offset="0.113" stop-color="#DE2D7A"/>
<stop offset="0.3" stop-color="#C5388F"/>
<stop offset="0.54" stop-color="#9B4AB0"/>
<stop offset="0.818" stop-color="#6262DE"/>
<stop offset="0.994" stop-color="#3B73FF"/>
</linearGradient>
<linearGradient id="paint1_linear_3260_5466" x1="49.7417" y1="50.4433" x2="-29.6291" y2="-32.9423" gradientUnits="userSpaceOnUse">
<stop stop-color="#FF3C82"/>
<stop offset="0.103" stop-color="#F53E88"/>
<stop offset="0.274" stop-color="#DC4598"/>
<stop offset="0.492" stop-color="#B251B2"/>
<stop offset="0.745" stop-color="#7961D7"/>
<stop offset="0.994" stop-color="#3B73FF"/>
</linearGradient>
<linearGradient id="paint2_linear_3260_5466" x1="62.9257" y1="37.9002" x2="36.0298" y2="-59.5592" gradientUnits="userSpaceOnUse">
<stop stop-color="#E82A73"/>
<stop offset="0.113" stop-color="#DE2D7A"/>
<stop offset="0.3" stop-color="#C5388F"/>
<stop offset="0.54" stop-color="#9B4AB0"/>
<stop offset="0.818" stop-color="#6262DE"/>
<stop offset="0.994" stop-color="#3B73FF"/>
</linearGradient>
<linearGradient id="paint3_linear_3260_5466" x1="36.454" y1="63.0836" x2="-59.8155" y2="33.7576" gradientUnits="userSpaceOnUse">
<stop stop-color="#E82A73"/>
<stop offset="0.113" stop-color="#DE2D7A"/>
<stop offset="0.3" stop-color="#C5388F"/>
<stop offset="0.54" stop-color="#9B4AB0"/>
<stop offset="0.818" stop-color="#6262DE"/>
<stop offset="0.994" stop-color="#3B73FF"/>
</linearGradient>
<linearGradient id="paint4_linear_3260_5466" x1="-5.95124" y1="-20.1293" x2="21.0183" y2="41.6625" gradientUnits="userSpaceOnUse">
<stop stop-color="#E82A73"/>
<stop offset="0.114" stop-color="#DE286E"/>
<stop offset="0.303" stop-color="#C52361"/>
<stop offset="0.544" stop-color="#9B1A4D"/>
<stop offset="0.825" stop-color="#620F30"/>
<stop offset="0.994" stop-color="#3D081E"/>
</linearGradient>
<linearGradient id="paint5_linear_3260_5466" x1="16.4179" y1="2.49765" x2="43.3873" y2="64.2894" gradientUnits="userSpaceOnUse">
<stop stop-color="#E82A73"/>
<stop offset="0.114" stop-color="#DE286E"/>
<stop offset="0.303" stop-color="#C52361"/>
<stop offset="0.544" stop-color="#9B1A4D"/>
<stop offset="0.825" stop-color="#620F30"/>
<stop offset="0.994" stop-color="#3D081E"/>
</linearGradient>
<linearGradient id="paint6_linear_3260_5466" x1="-2.98702" y1="1.5074" x2="58.0868" y2="42.0768" gradientUnits="userSpaceOnUse">
<stop stop-color="#E82A73"/>
<stop offset="0.114" stop-color="#DE286E"/>
<stop offset="0.303" stop-color="#C52361"/>
<stop offset="0.544" stop-color="#9B1A4D"/>
<stop offset="0.825" stop-color="#620F30"/>
<stop offset="0.994" stop-color="#3D081E"/>
</linearGradient>
<linearGradient id="paint7_linear_3260_5466" x1="-1333.58" y1="1321.94" x2="-1323.11" y2="1404.56" gradientUnits="userSpaceOnUse">
<stop stop-color="#E82A73"/>
<stop offset="0.114" stop-color="#DE286E"/>
<stop offset="0.303" stop-color="#C52361"/>
<stop offset="0.544" stop-color="#9B1A4D"/>
<stop offset="0.825" stop-color="#620F30"/>
<stop offset="0.994" stop-color="#3D081E"/>
</linearGradient>
</defs>
</svg>
