<svg width="78" height="78" viewBox="0 0 78 78" fill="none" xmlns="http://www.w3.org/2000/svg">
<path d="M48.1485 26.8699H50.2225L56.1333 21.0373L56.4237 18.561C53.0376 15.6119 48.9455 13.5632 44.5339 12.6085C40.1224 11.6539 35.537 11.8247 31.211 13.105C26.8849 14.3852 22.961 16.7325 19.81 19.9252C16.6589 23.1179 14.3847 27.0506 13.2021 31.3518C13.8606 31.0854 14.5901 31.0422 15.2761 31.229L27.0977 29.3052C27.0977 29.3052 27.6992 28.3229 28.0103 28.3843C30.5433 25.6392 34.0438 23.9534 37.7953 23.6718C41.5468 23.3903 45.2654 24.5344 48.19 26.8699H48.1485Z" fill="#EA4335"/>
<path d="M64.5545 31.3518C63.1959 26.4148 60.4064 21.9765 56.5283 18.5815L48.2324 26.7676C49.9613 28.1616 51.3469 29.9248 52.2846 31.9243C53.2223 33.9237 53.6876 36.1072 53.6454 38.31V39.763C54.615 39.763 55.5751 39.9514 56.4709 40.3176C57.3667 40.6837 58.1806 41.2204 58.8662 41.8969C59.5518 42.5734 60.0957 43.3766 60.4667 44.2605C60.8378 45.1445 61.0288 46.0919 61.0288 47.0486C61.0288 48.0054 60.8378 48.9528 60.4667 49.8367C60.0957 50.7206 59.5518 51.5238 58.8662 52.2003C58.1806 52.8769 57.3667 53.4135 56.4709 53.7797C55.5751 54.1458 54.615 54.3342 53.6454 54.3342H38.8788L37.4062 55.8077V64.5464L38.8788 65.9994H53.6454C57.769 66.0311 61.7933 64.7523 65.1232 62.3521C68.4531 59.9519 70.9116 56.5578 72.1351 52.6719C73.3586 48.7861 73.2821 44.6148 71.9169 40.7752C70.5517 36.9355 67.9702 33.6315 64.5545 31.3518Z" fill="#4285F4"/>
<path d="M24.0925 65.9176H38.8592V54.2524H24.0925C23.0405 54.2521 22.0007 54.0288 21.0438 53.5975L18.9698 54.2319L13.0175 60.0645L12.499 62.111C15.8369 64.5982 19.9099 65.9355 24.0925 65.9176Z" fill="#34A853"/>
<path d="M24.0902 28.0773C20.0892 28.1009 16.1955 29.357 12.953 31.6702C9.71053 33.9834 7.28117 37.2382 6.00426 40.9799C4.72735 44.7216 4.66665 48.7634 5.83063 52.5409C6.99461 56.3183 9.32516 59.6426 12.4967 62.0496L21.0622 53.5975C19.9738 53.1122 19.0208 52.3736 18.2852 51.445C17.5496 50.5164 17.0533 49.4256 16.8388 48.2661C16.6243 47.1067 16.6982 45.9132 17.0539 44.788C17.4097 43.6629 18.0368 42.6397 18.8814 41.8063C19.7259 40.9729 20.7628 40.3541 21.9031 40.0031C23.0433 39.652 24.2528 39.5792 25.4278 39.7908C26.6028 40.0024 27.7083 40.4922 28.6493 41.2181C29.5903 41.9439 30.3389 42.8843 30.8306 43.9584L39.3961 35.5062C37.5983 33.187 35.2812 31.3096 32.6259 30.0209C29.9707 28.7321 27.0493 28.0669 24.0902 28.0773Z" fill="#FBBC05"/>
</svg>
