<svg width="78" height="78" viewBox="0 0 78 78" fill="none" xmlns="http://www.w3.org/2000/svg">
<path d="M7.48572 57.7949L10.373 59.4481L42.539 4.19882L39.6517 2.5456L7.48572 57.7949Z" fill="#E535AB"/>
<path d="M71.1572 53.381H6.8252V56.6874H71.1572V53.381Z" fill="#E535AB"/>
<path d="M8.0954 55.2385L40.2734 73.6629L41.9405 70.7995L9.76245 52.3751L8.0954 55.2385Z" fill="#E535AB"/>
<path d="M36.0505 7.21975L68.2285 25.6442L69.8956 22.7808L37.7175 4.35638L36.0505 7.21975Z" fill="#E535AB"/>
<path d="M8.10444 22.7682L9.77148 25.6315L41.9495 7.20712L40.2825 4.34374L8.10444 22.7682Z" fill="#E535AB"/>
<path d="M35.4688 4.19937L67.6348 59.4487L70.5221 57.7955L38.3561 2.54615L35.4688 4.19937Z" fill="#E535AB"/>
<path d="M12.7081 20.5756H9.37402V57.4244H12.7081V20.5756Z" fill="#E535AB"/>
<path d="M68.6251 20.5756H65.291V57.4244H68.6251V20.5756Z" fill="#E535AB"/>
<path d="M38.2499 69.7622L39.7061 72.2634L67.6922 56.2391L66.2361 53.738L38.2499 69.7622Z" fill="#E535AB"/>
<path d="M73.0434 58.5C71.1152 61.8263 66.8171 62.9617 63.4629 61.0495C60.1087 59.1374 58.9639 54.8748 60.892 51.5485C62.8202 48.2221 67.1184 47.0868 70.4725 48.9989C73.8468 50.931 74.9916 55.1736 73.0434 58.5Z" fill="#E535AB"/>
<path d="M17.0873 26.4515C15.1592 29.7779 10.861 30.9132 7.50684 29.001C4.15266 27.0889 3.00782 22.8264 4.93597 19.5C6.86412 16.1737 11.1623 15.0383 14.5165 16.9505C17.8707 18.8826 19.0155 23.1252 17.0873 26.4515Z" fill="#E535AB"/>
<path d="M4.95648 58.5C3.02833 55.1736 4.17317 50.931 7.52735 48.9989C10.8815 47.0868 15.1596 48.2221 17.1079 51.5485C19.036 54.8748 17.8912 59.1174 14.537 61.0495C11.1627 62.9617 6.88463 61.8263 4.95648 58.5Z" fill="#E535AB"/>
<path d="M60.9125 26.4515C58.9844 23.1252 60.1292 18.8826 63.4834 16.9505C66.8376 15.0383 71.1157 16.1737 73.0639 19.5C74.9921 22.8264 73.8472 27.069 70.493 29.001C67.1389 30.9132 62.8407 29.7779 60.9125 26.4515Z" fill="#E535AB"/>
<path d="M38.9999 78C35.1235 78 31.9902 74.8928 31.9902 71.0485C31.9902 67.2043 35.1235 64.097 38.9999 64.097C42.8763 64.097 46.0095 67.2043 46.0095 71.0485C46.0095 74.8728 42.8763 78 38.9999 78Z" fill="#E535AB"/>
<path d="M38.9999 13.903C35.1235 13.903 31.9902 10.7957 31.9902 6.95148C31.9902 3.10725 35.1235 0 38.9999 0C42.8763 0 46.0095 3.10725 46.0095 6.95148C46.0095 10.7957 42.8763 13.903 38.9999 13.903Z" fill="#E535AB"/>
</svg>
