<svg width="78" height="78" viewBox="0 0 78 78" fill="none" xmlns="http://www.w3.org/2000/svg">
<path d="M70 4L64.3517 66.9928L38.9621 74L13.6425 67.0025L8 4H70Z" fill="#E44D26"/>
<path d="M39 68.6438L59.5161 62.9816L64.3427 9.15125H39V68.6438Z" fill="#F16529"/>
<path d="M28.0197 24.6055H38.9999V16.8785H19.5371L19.7228 18.9515L21.6306 40.2451H38.9999V32.5181H28.7291L28.0197 24.6055ZM29.769 44.1087H21.9774L23.0647 56.2413L38.9642 60.635L38.9999 60.6253V52.586L38.9659 52.5949L30.3217 50.2713L29.769 44.1087Z" fill="#EBEBEB"/>
<path d="M38.9739 40.2451H48.5316L47.6304 50.2665L38.9736 52.5925V60.6314L54.8857 56.2413L55.0024 54.9358L56.8266 34.593L57.0159 32.5181H38.9739V40.2451ZM38.9739 24.5867V24.6055H57.7221L57.8777 22.8689L58.2315 18.9515L58.417 16.8785H38.9739V24.5867Z" fill="white"/>
</svg>
