<svg width="70" height="24" viewBox="0 0 70 24" fill="none" xmlns="http://www.w3.org/2000/svg">
<g clip-path="url(#clip0_3288_6483)">
<path d="M10.097 0.115485C9.72488 0.339542 9.10461 0.966903 8.36914 1.87658L9.04701 3.17163C9.52107 2.48153 10.0084 1.86313 10.4958 1.33436C10.5312 1.29403 10.5534 1.27162 10.5534 1.27162C10.5357 1.29403 10.5135 1.31195 10.4958 1.33436C10.3363 1.50912 9.85779 2.07375 9.13562 3.19851C9.83121 3.16267 10.899 3.01927 11.7718 2.86691C12.0332 1.39709 11.5192 0.724921 11.5192 0.724921C11.5192 0.724921 10.8635 -0.346073 10.097 0.115485Z" fill="url(#paint0_linear_3288_6483)"/>
<path d="M7.81466 10.9863C7.72605 11.0041 7.63744 11.0173 7.54883 11.0306C7.59313 11.0262 7.64187 11.0173 7.68617 11.0085C7.73048 11.0041 7.77478 10.9952 7.81466 10.9863Z" fill="#BE202E"/>
<path opacity="0.35" d="M7.81466 10.9863C7.72605 11.0041 7.63744 11.0173 7.54883 11.0306C7.59313 11.0262 7.64187 11.0173 7.68617 11.0085C7.73048 11.0041 7.77478 10.9952 7.81466 10.9863Z" fill="#BE202E"/>
<path d="M8.04629 9.85185C8.04186 9.85185 8.04186 9.85185 8.04629 9.85185C8.05958 9.85185 8.07287 9.84742 8.08617 9.84742C8.14376 9.83856 8.20136 9.8297 8.25453 9.81641C8.18807 9.8297 8.11718 9.83856 8.04629 9.85185Z" fill="#BE202E"/>
<path opacity="0.35" d="M8.04629 9.85185C8.04186 9.85185 8.04186 9.85185 8.04629 9.85185C8.05958 9.85185 8.07287 9.84742 8.08617 9.84742C8.14376 9.83856 8.20136 9.8297 8.25453 9.81641C8.18807 9.8297 8.11718 9.83856 8.04629 9.85185Z" fill="#BE202E"/>
<path d="M7.04358 6.51494C7.25181 6.12508 7.46004 5.74418 7.66828 5.37225C7.88537 4.98687 8.1069 4.61493 8.33285 4.25196C8.34615 4.22956 8.35944 4.20715 8.37273 4.18922C8.59425 3.83521 8.81578 3.49465 9.04174 3.16752L8.36387 1.87695C8.31513 1.93969 8.26197 2.00243 8.2088 2.06964C8.01386 2.31611 7.81005 2.58049 7.60182 2.86281C7.367 3.18097 7.12776 3.51705 6.87965 3.87106C6.65369 4.19819 6.4233 4.54324 6.19292 4.89725C5.99797 5.20196 5.80303 5.51116 5.60809 5.82933C5.59923 5.84277 5.5948 5.85173 5.58594 5.86517L6.46761 7.62626C6.66255 7.25433 6.85306 6.88239 7.04358 6.51494Z" fill="url(#paint1_linear_3288_6483)"/>
<path d="M3.02529 16.4496C2.91009 16.7722 2.79047 17.1038 2.67528 17.4444C2.67528 17.4489 2.67085 17.4533 2.67085 17.4578C2.65313 17.5071 2.6354 17.5519 2.62211 17.6012C2.54236 17.8298 2.4759 18.0359 2.31641 18.5019C2.57781 18.6229 2.78604 18.9366 2.98098 19.2951C2.95883 18.9232 2.80819 18.5736 2.52021 18.3048C3.80063 18.363 4.90826 18.0359 5.47536 17.0859C5.5241 17.0007 5.57283 16.9111 5.61714 16.817C5.35574 17.1486 5.03674 17.292 4.42976 17.2562C5.32029 16.8529 5.76777 16.463 6.16209 15.8222C6.25513 15.6698 6.34817 15.504 6.44121 15.3203C5.66144 16.1314 4.75762 16.3599 3.80506 16.1852L3.09175 16.2658C3.06959 16.3286 3.04744 16.3868 3.02529 16.4496Z" fill="url(#paint2_linear_3288_6483)"/>
<path d="M3.35912 14.8314C3.51419 14.4281 3.67368 14.0203 3.83318 13.6081C3.98825 13.2137 4.14775 12.8194 4.31168 12.4206C4.47561 12.0218 4.64397 11.6229 4.81233 11.2241C4.98512 10.8163 5.16234 10.413 5.34399 10.0097C5.52121 9.6109 5.70729 9.21208 5.88894 8.81774C5.9554 8.67434 6.02186 8.53542 6.09274 8.39203C6.20794 8.15004 6.32756 7.90806 6.44718 7.66608C6.45161 7.65264 6.46048 7.63919 6.46491 7.62575L5.5921 5.86914C5.5788 5.89155 5.56551 5.91843 5.54779 5.94084C5.34399 6.28141 5.13575 6.62645 4.93638 6.98047C4.73258 7.33896 4.5332 7.70193 4.33826 8.07387C4.17433 8.38755 4.01483 8.70123 3.85534 9.01939C3.82432 9.08212 3.79331 9.14934 3.76229 9.21208C3.57178 9.6109 3.39456 10.0008 3.23949 10.3727C3.06227 10.7939 2.90721 11.1972 2.76986 11.5781C2.68125 11.8291 2.59707 12.071 2.52175 12.3041C2.45972 12.5012 2.40213 12.7029 2.34453 12.9001C2.21162 13.3661 2.10085 13.8321 2.00781 14.2982L2.89391 16.0682C3.00911 15.7501 3.13316 15.4319 3.25279 15.1048C3.28823 15.0152 3.32367 14.9255 3.35912 14.8314Z" fill="url(#paint3_linear_3288_6483)"/>
<path d="M1.99373 14.3616C1.88297 14.9262 1.80322 15.4908 1.76334 16.0554C1.76334 16.0734 1.75891 16.0958 1.75891 16.1137C1.48422 15.6656 0.739895 15.2264 0.744326 15.2309C1.27599 16.0106 1.67916 16.7814 1.73676 17.5387C1.45321 17.597 1.06332 17.5118 0.615841 17.346C1.08548 17.7807 1.43549 17.9017 1.57283 17.933C1.14307 17.9599 0.69559 18.2602 0.243678 18.6052C0.903824 18.3319 1.43992 18.2243 1.82094 18.3139C1.21396 20.0481 0.60698 21.9661 0 24.0005C0.186081 23.9467 0.296844 23.8168 0.358871 23.6465C0.465204 23.279 1.18738 20.8592 2.31273 17.6821C2.34374 17.5925 2.37918 17.5028 2.4102 17.4087C2.41906 17.3819 2.42792 17.3595 2.43678 17.3326C2.5564 17.001 2.68046 16.6604 2.80894 16.3109C2.83996 16.2302 2.86654 16.154 2.89755 16.0734V16.0689L2.01145 14.2988C2.00259 14.3212 1.99816 14.3392 1.99373 14.3616Z" fill="url(#paint4_linear_3288_6483)"/>
<path d="M6.60962 7.77856C6.58304 7.83234 6.56089 7.88163 6.5343 7.9354C6.45899 8.09672 6.37924 8.25804 6.30392 8.42385C6.21974 8.60309 6.13556 8.78682 6.04695 8.97503C6.00264 9.06913 5.95834 9.16324 5.91403 9.26182C5.78112 9.5531 5.6482 9.85333 5.51086 10.1625C5.3425 10.5434 5.17414 10.9378 5.00135 11.35C4.83742 11.7399 4.66906 12.1477 4.5007 12.5644C4.3412 12.9632 4.17727 13.371 4.01334 13.7967C3.86714 14.1732 3.72093 14.563 3.57029 14.9618C3.56143 14.9798 3.557 15.0022 3.54814 15.0201C3.40193 15.4144 3.2513 15.8222 3.10066 16.239C3.09623 16.2479 3.0918 16.2569 3.0918 16.2659L3.80511 16.1852C3.79182 16.1807 3.77853 16.1807 3.7608 16.1762C4.61589 16.0687 5.7501 15.4234 6.48114 14.6258C6.81786 14.2583 7.12356 13.8281 7.40711 13.3217C7.61978 12.9453 7.81472 12.5286 8.00523 12.0625C8.16916 11.6592 8.32866 11.2201 8.4793 10.7451C8.28436 10.8481 8.0584 10.9243 7.81029 10.9781C7.76599 10.9871 7.72168 10.996 7.67738 11.005C7.63307 11.014 7.58877 11.0184 7.54003 11.0274C8.33752 10.7182 8.83817 10.1222 9.20147 9.38729C8.99324 9.53069 8.65209 9.7189 8.24448 9.813C8.19132 9.82645 8.13372 9.83541 8.07612 9.84437C8.06283 9.84437 8.04954 9.84885 8.03182 9.84885C8.30651 9.73234 8.54133 9.60239 8.74513 9.44555C8.78943 9.41418 8.82931 9.37833 8.86918 9.34248C8.93121 9.28871 8.98881 9.23045 9.0464 9.1722C9.08185 9.13187 9.11729 9.09602 9.15274 9.05569C9.23248 8.96159 9.3078 8.85852 9.37426 8.74649C9.39641 8.71064 9.41857 8.67927 9.43629 8.64342C9.46287 8.58965 9.48945 8.54036 9.51161 8.49106C9.62237 8.26701 9.71098 8.06536 9.78187 7.88611C9.81731 7.79649 9.84833 7.71583 9.87491 7.63965C9.88377 7.60828 9.89706 7.58139 9.90592 7.55002C9.93251 7.46488 9.95909 7.3887 9.97681 7.32148C10.0034 7.2229 10.0211 7.14224 10.03 7.08398C10.0034 7.10639 9.97238 7.1288 9.93694 7.14672C9.69769 7.29012 9.28565 7.42455 8.95336 7.48729C8.94893 7.48729 8.9445 7.48729 8.94007 7.49177C8.90906 7.49625 8.87361 7.50073 8.83817 7.50969C8.8426 7.50521 8.85146 7.50521 8.85589 7.50073L6.61405 7.74719C6.61848 7.76512 6.61405 7.77408 6.60962 7.77856Z" fill="url(#paint5_linear_3288_6483)"/>
<path d="M9.13515 3.19822C8.93577 3.50742 8.71868 3.86143 8.48386 4.25577C8.47057 4.27817 8.45728 4.2961 8.44842 4.3185C8.24461 4.66355 8.03195 5.03997 7.80599 5.45672C7.61105 5.81521 7.40725 6.19611 7.19458 6.61285C7.0085 6.97134 6.82242 7.35224 6.62305 7.75554L8.86489 7.50908C9.51617 7.20436 9.80858 6.93101 10.0921 6.53219C10.1675 6.42464 10.2428 6.30813 10.3181 6.18714C10.5485 5.82417 10.7744 5.42535 10.9738 5.02653C11.1688 4.64115 11.3415 4.26025 11.47 3.91968C11.5542 3.70011 11.6207 3.49845 11.6694 3.31921C11.7093 3.16237 11.7403 3.01449 11.7669 2.87109C10.8985 3.01897 9.83074 3.16237 9.13515 3.19822Z" fill="url(#paint6_linear_3288_6483)"/>
<path d="M7.68617 11.0137C7.64187 11.0225 7.59756 11.027 7.54883 11.0358C7.59313 11.027 7.63744 11.0181 7.68617 11.0137Z" fill="#BE202E"/>
<path opacity="0.35" d="M7.68617 11.0137C7.64187 11.0225 7.59756 11.027 7.54883 11.0358C7.59313 11.027 7.63744 11.0181 7.68617 11.0137Z" fill="#BE202E"/>
<path d="M7.68617 11.0137C7.64187 11.0225 7.59756 11.027 7.54883 11.0358C7.59313 11.027 7.63744 11.0181 7.68617 11.0137Z" fill="url(#paint7_linear_3288_6483)"/>
<path d="M8.04102 9.85209C8.05431 9.85209 8.0676 9.84766 8.08532 9.84766C8.07203 9.84766 8.05874 9.85209 8.04102 9.85209Z" fill="#BE202E"/>
<path opacity="0.35" d="M8.04102 9.85209C8.05431 9.85209 8.0676 9.84766 8.08532 9.84766C8.07203 9.84766 8.05874 9.85209 8.04102 9.85209Z" fill="#BE202E"/>
<path d="M8.04102 9.85209C8.05431 9.85209 8.0676 9.84766 8.08532 9.84766C8.07203 9.84766 8.05874 9.85209 8.04102 9.85209Z" fill="url(#paint8_linear_3288_6483)"/>
<path d="M9.07297 7.4691V7.79666H8.98188V7.4691H8.86719V7.39062H9.18429V7.4691H9.07297Z" fill="#B0AFB0"/>
<path d="M9.60955 7.54076L9.50159 7.76254H9.44762L9.33966 7.54076V7.79666H9.25195V7.39062H9.3734L9.47798 7.61241L9.58256 7.39062H9.70401V7.79666H9.61629V7.54076H9.60955Z" fill="#B0AFB0"/>
<path d="M12.7525 23.3602C12.3782 23.3602 12.0499 23.3398 11.7678 23.299C11.4856 23.2641 11.2466 23.2204 11.0508 23.168V20.9139C11.2639 20.9605 11.4884 21.0012 11.7246 21.0362C11.9549 21.0711 12.2083 21.0886 12.4847 21.0886C12.7496 21.0886 12.9944 21.0595 13.2189 21.0012C13.4493 20.943 13.648 20.8411 13.815 20.6955C13.9877 20.5557 14.1202 20.3664 14.2123 20.1276C14.3102 19.8888 14.3592 19.5888 14.3592 19.2277V6.83008H17.037V19.1403C17.037 19.8742 16.9305 20.5062 16.7174 21.0362C16.5101 21.5662 16.2164 22.0031 15.8363 22.3467C15.462 22.6962 15.0128 22.9525 14.4888 23.1156C13.9647 23.2786 13.386 23.3602 12.7525 23.3602Z" fill="#D22128" stroke="#D22128" stroke-width="1.22877" stroke-linejoin="round"/>
<path d="M18.4727 6.83203V19.6036H20.8667V13.6614C20.8667 13.4983 20.8621 13.3156 20.8564 13.1117C20.8564 12.9078 20.8507 12.6964 20.8392 12.475C20.8334 12.2537 20.8266 12.0307 20.8151 11.8036C20.8093 11.5764 20.7991 11.3546 20.7876 11.1391C20.7646 10.6382 20.7361 10.1198 20.7016 9.58395H20.7807L23.5531 19.6036H26.0125L29.0016 9.60134H29.0704C29.0532 10.1314 29.035 10.6394 29.012 11.1286C29.0062 11.3383 28.996 11.5544 28.9844 11.7757C28.9787 11.9971 28.973 12.2143 28.9672 12.4298C28.9615 12.6453 28.9558 12.8499 28.95 13.0421C28.95 13.2343 28.95 13.4056 28.95 13.557V19.6036H31.4473V6.83203H27.8012L24.8981 16.5977H24.8465L22.1188 6.83203H18.4727ZM43.5448 7.75746L42.7846 9.81704L41.3365 10.7112V11.8384H42.5954V16.5455C42.5954 17.1745 42.6693 17.6987 42.819 18.118C42.9745 18.5316 43.187 18.8626 43.4519 19.113C43.7168 19.3576 44.0316 19.5324 44.3944 19.6314C44.7572 19.7304 45.1469 19.7775 45.5673 19.7775C45.9992 19.7775 46.3981 19.7362 46.7609 19.6488C47.1295 19.5672 47.4351 19.4603 47.6828 19.3322V17.3491C47.4409 17.4365 47.2034 17.5101 46.9673 17.5683C46.7369 17.6266 46.4903 17.6553 46.2312 17.6553C45.9317 17.6553 45.6897 17.5645 45.5054 17.3839C45.3211 17.2034 45.2302 16.9241 45.2302 16.5455V11.8384H47.5796V9.83791H45.2302V7.75746H43.5448ZM36.7823 9.65353C36.1258 9.65354 35.5281 9.76158 34.9867 9.97708C34.4512 10.1926 33.9898 10.5132 33.604 10.9443C33.2239 11.3695 32.9262 11.9039 32.7131 12.5446C32.5 13.1853 32.3932 13.9324 32.3932 14.7886C32.3932 15.6331 32.5103 16.3722 32.7406 17.0012C32.9767 17.6245 33.304 18.1428 33.7244 18.5564C34.1448 18.9641 34.6459 19.2675 35.2275 19.4714C35.8092 19.6752 36.4455 19.7775 37.1366 19.7775C37.4936 19.7775 37.8209 19.7649 38.1203 19.7358C38.4198 19.7125 38.7005 19.6723 38.9596 19.614C39.2188 19.5558 39.4619 19.4833 39.6923 19.4018C39.9284 19.3144 40.1636 19.211 40.394 19.0887V17.0256C40.1406 17.1537 39.8929 17.2675 39.651 17.3665C39.4091 17.4597 39.1625 17.5391 38.9149 17.6031C38.6673 17.6672 38.4128 17.7178 38.1479 17.7527C37.8887 17.7818 37.6126 17.7945 37.3189 17.7945C36.9676 17.7945 36.6528 17.7416 36.3764 17.631C36.1057 17.5203 35.8705 17.3617 35.6747 17.1578C35.4847 16.9481 35.3369 16.6929 35.2275 16.3959C35.1239 16.093 35.0671 15.7563 35.0555 15.3835H40.9444V14.0893C40.9443 13.3787 40.8478 12.7512 40.652 12.2037C40.4619 11.6503 40.1858 11.1837 39.823 10.8051C39.466 10.4265 39.0273 10.1415 38.509 9.94924C37.9965 9.75122 37.4215 9.65354 36.7823 9.65353ZM52.6428 9.65353C51.9863 9.65354 51.3886 9.76158 50.8473 9.97708C50.3117 10.1926 49.8504 10.5132 49.4645 10.9443C49.0845 11.3695 48.7867 11.9039 48.5737 12.5446C48.3606 13.1853 48.2538 13.9324 48.2538 14.7886C48.2538 15.6331 48.3708 16.3722 48.6012 17.0012C48.8373 17.6245 49.1645 18.1428 49.5849 18.5564C50.0053 18.9641 50.5065 19.2675 51.0881 19.4714C51.6697 19.6752 52.3061 19.7775 52.9971 19.7775C53.3542 19.7775 53.6814 19.7649 53.9809 19.7358C54.2803 19.7125 54.561 19.6723 54.8202 19.614C55.0793 19.5558 55.3225 19.4833 55.5528 19.4018C55.7889 19.3144 56.0242 19.211 56.2545 19.0887V17.0256C56.0012 17.1537 55.7534 17.2675 55.5116 17.3665C55.2697 17.4597 55.0231 17.5391 54.7755 17.6031C54.5278 17.6672 54.2733 17.7178 54.0084 17.7527C53.7493 17.7818 53.4731 17.7945 53.1794 17.7945C52.8281 17.7945 52.5134 17.7416 52.2369 17.631C51.9663 17.5203 51.7345 17.3617 51.5387 17.1578C51.3487 16.9481 51.1975 16.6929 51.0881 16.3959C50.9844 16.093 50.9276 15.7563 50.9161 15.3835H56.8049V14.0893C56.8049 13.3787 56.7083 12.7512 56.5125 12.2037C56.3225 11.6503 56.0463 11.1837 55.6836 10.8051C55.3265 10.4265 54.8879 10.1415 54.3696 9.94924C53.857 9.75122 53.2821 9.65354 52.6428 9.65353ZM62.5458 9.65353C62.2233 9.65354 61.9358 9.69376 61.6824 9.7753C61.4348 9.85102 61.2098 9.9602 61.0082 10.1058C60.8124 10.2456 60.6363 10.4203 60.4751 10.6242C60.3138 10.828 60.1627 11.0521 60.0245 11.3026H59.8938L59.5051 9.83791H57.51V19.6036H60.1449V14.632C60.1449 14.1719 60.2006 13.7846 60.31 13.47C60.4251 13.1497 60.5831 12.8934 60.7847 12.7012C60.992 12.5031 61.2386 12.3606 61.5208 12.2732C61.8087 12.1859 62.12 12.141 62.4598 12.141C62.5174 12.141 62.5901 12.1457 62.6765 12.1515C62.7629 12.1515 62.8481 12.1572 62.9345 12.1689C63.0266 12.1747 63.1153 12.1851 63.1959 12.1967C63.2765 12.2084 63.339 12.2199 63.3851 12.2315V9.73006C63.3505 9.71843 63.2994 9.71155 63.2303 9.70571C63.1669 9.69408 63.0942 9.68372 63.0136 9.67788C62.9387 9.66624 62.8592 9.66048 62.7728 9.66048C62.6922 9.65467 62.6149 9.65353 62.5458 9.65353ZM36.7995 11.5496C37.0759 11.5496 37.318 11.6013 37.5253 11.7062C37.7326 11.811 37.9065 11.9547 38.0447 12.141C38.1829 12.3216 38.2851 12.5377 38.3542 12.7881C38.4233 13.0386 38.462 13.3121 38.4678 13.6092H35.1071C35.1532 12.8986 35.3282 12.3791 35.6334 12.0471C35.9444 11.7151 36.333 11.5496 36.7995 11.5496ZM52.66 11.5496C52.9365 11.5496 53.1785 11.6013 53.3858 11.7062C53.5931 11.811 53.767 11.9547 53.9052 12.141C54.0434 12.3216 54.1457 12.5377 54.2148 12.7881C54.2839 13.0386 54.3225 13.3121 54.3283 13.6092H50.9677C51.0138 12.8986 51.1888 12.3791 51.494 12.0471C51.8049 11.7151 52.1936 11.5496 52.66 11.5496Z" fill="url(#paint9_linear_3288_6483)" stroke="url(#paint10_linear_3288_6483)" stroke-width="1.22877" stroke-linejoin="round"/>
<path d="M66.0332 9.6288H65.4475V7.32075H64.752V6.82617H66.7269V7.32075H66.0332V9.6288Z" fill="url(#paint11_linear_3288_6483)"/>
<path d="M68.2668 9.6288L67.6584 7.43002H67.6413C67.6489 7.5476 67.6552 7.66134 67.6603 7.77124C67.6628 7.81853 67.6647 7.8671 67.666 7.91694C67.6685 7.96678 67.6704 8.01598 67.6717 8.06454C67.6742 8.11311 67.6755 8.15975 67.6755 8.20448C67.6767 8.24921 67.6774 8.28947 67.6774 8.32525V9.6288H67.1523V6.82617H67.9522L68.5511 8.96936H68.5625L69.1993 6.82617H69.9991V9.6288H69.4514V8.30225C69.4514 8.26902 69.4514 8.23132 69.4514 8.18915C69.4526 8.14697 69.4539 8.10224 69.4552 8.05496C69.4564 8.00767 69.4577 7.95975 69.4589 7.91118C69.4615 7.86262 69.4634 7.81534 69.4646 7.76933C69.4697 7.66198 69.4741 7.55015 69.4779 7.43386H69.4627L68.807 9.6288H68.2668Z" fill="url(#paint12_linear_3288_6483)"/>
<path d="M14.3242 4.86615L16.2157 0.294922H16.5802L18.4716 4.86615H17.9959L17.4089 3.43813H15.3755L14.7961 4.86615H14.3242ZM16.3998 0.822671L15.4714 3.08112H17.3053L16.3998 0.822671Z" fill="#D22128"/>
<path d="M18.9551 4.86615V0.294922H20.8274C21.6024 0.294922 22.1625 1.02058 22.1625 1.73071C22.1625 2.47576 21.6407 3.17814 20.8657 3.17814H19.3963V4.86615H18.9551ZM19.3963 2.77844H20.8427C21.376 2.77844 21.7213 2.28174 21.7213 1.73071C21.7213 1.15639 21.3031 0.694614 20.8043 0.694614H19.3963V2.77844Z" fill="#D22128"/>
<path d="M21.916 4.86615L23.8075 0.294922H24.172L26.0634 4.86615H25.58L24.993 3.43813H22.9634L22.3841 4.86615H21.916ZM23.9916 0.822671L23.0632 3.08112H24.8971L23.9916 0.822671Z" fill="#D22128"/>
<path d="M28.1974 0.267578C28.9993 0.267578 29.5863 0.678911 29.8664 1.26487L29.5096 1.48218C29.2218 0.876817 28.6617 0.67115 28.1744 0.67115C27.0925 0.67115 26.5016 1.64904 26.5016 2.56872C26.5016 3.57765 27.2344 4.49345 28.1936 4.49345C28.7039 4.49345 29.3024 4.23733 29.5863 3.64362L29.9546 3.83764C29.663 4.52061 28.8612 4.9009 28.1667 4.9009C26.9275 4.9009 26.0527 3.70182 26.0527 2.54543C26.0527 1.44725 26.8354 0.267578 28.1974 0.267578Z" fill="#D22128"/>
<path d="M34.1405 0.294922V4.86615H33.6954V2.728H31.0175V4.86615H30.5801V0.294922H31.0175V2.32831H33.6954V0.294922H34.1405Z" fill="#D22128"/>
<path d="M38.1949 4.46646V4.86615H35.1602V0.294922H38.1374V0.694614H35.5975V2.34383H37.8113V2.72412H35.5975V4.46646H38.1949Z" fill="#D22128"/>
</g>
<defs>
<linearGradient id="paint0_linear_3288_6483" x1="8.94747" y1="2.03292" x2="13.9235" y2="0.665057" gradientUnits="userSpaceOnUse">
<stop stop-color="#F69923"/>
<stop offset="0.3123" stop-color="#F79A23"/>
<stop offset="0.8383" stop-color="#E97826"/>
</linearGradient>
<linearGradient id="paint1_linear_3288_6483" x1="-1.92751" y1="24.5851" x2="8.36713" y2="2.75684" gradientUnits="userSpaceOnUse">
<stop offset="0.3233" stop-color="#9E2064"/>
<stop offset="0.6302" stop-color="#C92037"/>
<stop offset="0.7514" stop-color="#CD2335"/>
<stop offset="1" stop-color="#E97826"/>
</linearGradient>
<linearGradient id="paint2_linear_3288_6483" x1="1.46593" y1="22.9643" x2="7.60054" y2="9.95676" gradientUnits="userSpaceOnUse">
<stop stop-color="#282662"/>
<stop offset="0.0954839" stop-color="#662E8D"/>
<stop offset="0.7882" stop-color="#9F2064"/>
<stop offset="0.9487" stop-color="#CD2032"/>
</linearGradient>
<linearGradient id="paint3_linear_3288_6483" x1="-1.5602" y1="23.2583" x2="8.73446" y2="1.43006" gradientUnits="userSpaceOnUse">
<stop offset="0.3233" stop-color="#9E2064"/>
<stop offset="0.6302" stop-color="#C92037"/>
<stop offset="0.7514" stop-color="#CD2335"/>
<stop offset="1" stop-color="#E97826"/>
</linearGradient>
<linearGradient id="paint4_linear_3288_6483" x1="-0.530845" y1="21.7987" x2="4.87929" y2="10.3273" gradientUnits="userSpaceOnUse">
<stop stop-color="#282662"/>
<stop offset="0.0954839" stop-color="#662E8D"/>
<stop offset="0.7882" stop-color="#9F2064"/>
<stop offset="0.9487" stop-color="#CD2032"/>
</linearGradient>
<linearGradient id="paint5_linear_3288_6483" x1="0.6811" y1="24.3165" x2="10.9758" y2="2.48826" gradientUnits="userSpaceOnUse">
<stop offset="0.3233" stop-color="#9E2064"/>
<stop offset="0.6302" stop-color="#C92037"/>
<stop offset="0.7514" stop-color="#CD2335"/>
<stop offset="1" stop-color="#E97826"/>
</linearGradient>
<linearGradient id="paint6_linear_3288_6483" x1="-0.0569471" y1="25.623" x2="10.2377" y2="3.79476" gradientUnits="userSpaceOnUse">
<stop offset="0.3233" stop-color="#9E2064"/>
<stop offset="0.6302" stop-color="#C92037"/>
<stop offset="0.7514" stop-color="#CD2335"/>
<stop offset="1" stop-color="#E97826"/>
</linearGradient>
<linearGradient id="paint7_linear_3288_6483" x1="1.3481" y1="24.477" x2="11.4528" y2="2.80677" gradientUnits="userSpaceOnUse">
<stop offset="0.3233" stop-color="#9E2064"/>
<stop offset="0.6302" stop-color="#C92037"/>
<stop offset="0.7514" stop-color="#CD2335"/>
<stop offset="1" stop-color="#E97826"/>
</linearGradient>
<linearGradient id="paint8_linear_3288_6483" x1="1.27216" y1="24.4259" x2="11.3753" y2="2.75702" gradientUnits="userSpaceOnUse">
<stop offset="0.3233" stop-color="#9E2064"/>
<stop offset="0.6302" stop-color="#C92037"/>
<stop offset="0.7514" stop-color="#CD2335"/>
<stop offset="1" stop-color="#E97826"/>
</linearGradient>
<linearGradient id="paint9_linear_3288_6483" x1="18.4727" y1="6.83203" x2="63.3851" y2="6.83203" gradientUnits="userSpaceOnUse">
<stop/>
<stop offset="1"/>
</linearGradient>
<linearGradient id="paint10_linear_3288_6483" x1="18.4727" y1="6.83203" x2="63.3851" y2="6.83203" gradientUnits="userSpaceOnUse">
<stop/>
<stop offset="1"/>
</linearGradient>
<linearGradient id="paint11_linear_3288_6483" x1="64.752" y1="6.82617" x2="66.7269" y2="6.82617" gradientUnits="userSpaceOnUse">
<stop stop-color="#4D4D4D"/>
<stop offset="1" stop-color="#4D4D4D"/>
</linearGradient>
<linearGradient id="paint12_linear_3288_6483" x1="67.1523" y1="6.82617" x2="69.9991" y2="6.82617" gradientUnits="userSpaceOnUse">
<stop stop-color="#4D4D4D"/>
<stop offset="1" stop-color="#4D4D4D"/>
</linearGradient>
<clipPath id="clip0_3288_6483">
<rect width="70" height="24" fill="white"/>
</clipPath>
</defs>
</svg>
