<svg width="78" height="78" viewBox="0 0 78 78" fill="none" xmlns="http://www.w3.org/2000/svg">
<path d="M73.6729 16.228C73.4827 16.0711 73.2413 15.9902 72.9951 16.0009C72.3197 16.0009 71.4463 16.4599 70.9761 16.7061L70.79 16.8017C70.0013 17.1841 69.1428 17.4005 68.2674 17.4375C67.37 17.4662 66.5968 17.5188 65.5897 17.6239C59.6233 18.2382 56.9623 22.818 54.3991 27.2472C53.003 29.6566 51.5615 32.1592 49.5855 34.0715C49.1766 34.4685 48.7421 34.8382 48.2848 35.1782C46.2395 36.7008 43.6716 37.7883 41.6741 38.558C39.7505 39.2942 37.6503 39.9563 35.6218 40.5969C33.7627 41.1825 32.0085 41.7371 30.3952 42.337C29.6673 42.6071 29.0492 42.8151 28.5027 42.9968C27.0326 43.4748 25.973 43.8405 24.4241 44.909C23.8203 45.3225 23.2141 45.7695 22.8036 46.1041C21.5741 47.0867 20.4859 48.2345 19.5698 49.515C18.7821 50.6963 17.8717 51.7908 16.854 52.7802C16.527 53.1005 15.9471 53.2582 15.0784 53.2582C14.0617 53.2582 12.8278 53.0479 11.5224 52.8256C10.1764 52.5866 8.78503 52.3595 7.59176 52.3595C6.62282 52.3595 5.8806 52.5172 5.32692 52.8375C5.32692 52.8375 4.39378 53.3825 4 54.0876L4.38662 54.2621C4.98616 54.5877 5.54125 54.9894 6.03811 55.4573C6.55652 55.9368 7.13396 56.3481 7.75643 56.6811C7.95513 56.7541 8.13583 56.869 8.28624 57.0181C8.12396 57.2572 7.8853 57.5655 7.63471 57.8954C6.25768 59.7 5.45341 60.8402 5.91401 61.4617C6.13477 61.5765 6.38135 61.6325 6.62998 61.6242C9.63226 61.6242 11.2456 60.8426 13.2861 59.853C13.8779 59.5662 14.4793 59.2722 15.1953 58.9686C16.3886 58.4499 17.6725 57.6229 19.0353 56.748C20.818 55.584 22.6819 54.3888 24.4909 53.8128C25.9776 53.3587 27.5262 53.1409 29.0802 53.1674C30.9895 53.1674 32.999 53.4232 34.9368 53.6717C36.3807 53.8582 37.8771 54.0494 39.3448 54.1378C39.9152 54.1713 40.4426 54.188 40.9557 54.188C41.6421 54.1901 42.3281 54.1541 43.0105 54.0805L43.1752 54.0231C44.2038 53.3897 44.6859 52.0296 45.1537 50.715C45.4544 49.8688 45.7073 49.1087 46.1083 48.6259C46.1319 48.6023 46.1575 48.5807 46.1846 48.5613C46.2034 48.5509 46.2252 48.547 46.2464 48.5505C46.2677 48.554 46.2871 48.5645 46.3016 48.5804C46.3016 48.5804 46.3016 48.5924 46.3016 48.6187C46.0629 53.7602 43.9962 57.0253 41.9056 59.9271L40.5094 61.4258C40.5094 61.4258 42.464 61.4258 43.5761 60.9956C47.6333 59.7813 50.6952 57.1042 52.9243 52.8351C53.474 51.7393 53.9655 50.6151 54.3968 49.4672C54.4349 49.3716 54.7858 49.1947 54.7524 49.6895C54.7404 49.8353 54.7309 49.9979 54.7189 50.1676C54.7189 50.268 54.7189 50.3708 54.6999 50.4735C54.6426 51.1906 54.4731 52.7061 54.4731 52.7061L55.7261 52.0344C58.7474 50.1222 61.0767 46.2643 62.8428 40.2623C63.5778 37.762 64.1172 35.2785 64.5921 33.0914C65.1601 30.4621 65.6493 28.2081 66.2102 27.3333C67.0908 25.9612 68.4344 25.0338 69.7351 24.1327C69.9117 24.0108 70.0907 23.8936 70.2649 23.7646C71.8997 22.6148 73.525 21.2882 73.8829 18.8143V18.7593C74.1431 16.914 73.9235 16.4431 73.6729 16.228Z" fill="#003545"/>
</svg>
