<svg width="78" height="78" viewBox="0 0 78 78" fill="none" xmlns="http://www.w3.org/2000/svg">
<path d="M46.8825 36.3441L33.7307 40.5947L22.2889 45.5929L19.0878 46.4293C18.2726 47.1968 17.4178 47.9741 16.4933 48.7612C15.4793 49.627 14.535 50.4143 13.8092 50.9848C13.004 51.6146 11.8111 52.7952 11.2047 53.5429C10.3001 54.6645 9.58436 55.855 9.27617 56.7701C8.72938 58.4232 8.99792 60.0957 10.0516 61.6406C11.4036 63.6083 14.0976 65.6154 17.2388 66.9831C18.8394 67.6818 21.5333 68.577 23.5612 69.0788C26.931 69.925 33.4523 70.84 37.0409 70.9779C37.7665 71.0074 38.7408 71.0074 38.7804 70.9779C38.8601 70.9285 39.4168 69.8759 40.063 68.5673C42.2699 64.1101 43.8604 59.9285 44.7252 56.357C45.2421 54.1925 45.6496 51.3096 45.9179 47.8956C45.9877 46.9411 46.0174 43.7434 45.9577 42.661C45.8682 40.8901 45.7091 39.4536 45.4608 38.0466C45.421 37.8399 45.4109 37.653 45.4309 37.6432C45.4706 37.6137 45.5898 37.5743 47.2102 37.1118L46.8823 36.3445V36.3442H46.8825V36.3441ZM43.8804 38.0858C43.9997 38.0858 44.3177 41.1063 44.3972 43.0152C44.4171 43.4186 44.4071 43.6842 44.3873 43.6842C44.3078 43.6842 42.7072 42.7496 41.5642 42.0412C40.5701 41.4213 38.6814 40.1815 38.3832 39.9454C38.2836 39.8766 38.2935 39.8668 39.1088 39.5912C40.4904 39.1287 43.7711 38.0858 43.8804 38.0858ZM37.1802 40.2701C37.2698 40.2701 37.4982 40.3979 38.045 40.7325C40.0928 42.0017 42.8763 43.5367 44.0692 44.0484C44.4369 44.2058 44.4766 44.1466 43.6318 44.7174C41.8225 45.9374 39.5658 47.1377 36.8023 48.348C36.3152 48.5644 35.9077 48.7316 35.8978 48.7316C35.878 48.7316 35.9375 48.4858 36.0169 48.1906C36.683 45.7405 37.0608 43.2611 37.0808 41.2736C37.0907 40.2896 37.0907 40.2896 37.1802 40.2602C37.1602 40.2701 37.1701 40.2701 37.1802 40.2701ZM35.7985 40.7915C35.8579 40.8504 35.8183 43.0545 35.7387 43.6546C35.5598 45.0912 35.2814 46.4292 34.8243 47.9348C34.7149 48.2985 34.6154 48.6038 34.5957 48.6234C34.5557 48.6725 33.1938 47.3541 32.7465 46.8425C31.9711 45.9569 31.3648 45.0714 30.9175 44.2056C30.6888 43.7628 30.331 42.8971 30.3608 42.8675C30.5198 42.7593 35.7587 40.7522 35.7985 40.7915ZM29.297 43.3201C29.3069 43.3201 29.3168 43.3201 29.3269 43.3299C29.3467 43.3496 29.4165 43.5071 29.4761 43.6841C29.7941 44.5401 30.5097 45.7995 31.1262 46.6064C31.8022 47.4919 32.687 48.4364 33.4225 49.0563C33.6611 49.253 33.8797 49.4399 33.9095 49.4695C33.9692 49.5286 33.9891 49.5186 32.3687 50.1287C30.4901 50.8371 28.4421 51.5455 26.096 52.2932C25.5356 52.4721 24.9757 52.6525 24.4163 52.8344C24.3266 52.864 24.3565 52.8147 24.615 52.4114C25.778 50.6108 27.5474 47.0786 28.5416 44.5795C28.7106 44.1465 28.8796 43.7137 28.9095 43.6153C28.9492 43.4775 28.9988 43.4283 29.128 43.3594C29.1976 43.3399 29.2673 43.3201 29.297 43.3201ZM27.3091 44.1367C27.3388 44.1565 26.8318 45.2092 26.3348 46.1734C25.3704 48.033 24.3167 49.8632 22.9052 52.0868C22.6666 52.4704 22.438 52.8247 22.4081 52.8641C22.3585 52.933 22.3385 52.9132 22.1795 52.6083C21.8415 51.949 21.5631 51.1028 21.414 50.3255C21.2648 49.558 21.2947 48.22 21.4638 47.3935C21.5929 46.7835 21.5831 46.7934 21.8813 46.6458C23.1537 46.0062 27.2693 44.0974 27.3091 44.1367ZM44.4569 44.8256V45.2388C44.4569 47.4329 44.2184 50.4436 43.8703 52.6378C43.8107 53.0215 43.7608 53.3362 43.751 53.3462C43.751 53.3462 43.4628 53.2676 43.1248 53.169C41.6337 52.7066 40.0133 52.0277 38.552 51.2309C37.5876 50.7094 36.186 49.8533 36.2259 49.8139C36.2356 49.8041 36.6532 49.5876 37.1403 49.3318C39.0889 48.3283 40.9576 47.246 42.578 46.1735C43.1844 45.7701 44.0988 45.1208 44.2979 44.9436L44.4569 44.8256ZM19.8036 47.7378C19.8433 47.7378 19.8334 47.8165 19.7737 48.1707C19.7339 48.4266 19.6843 48.8989 19.6645 49.2234C19.5848 50.66 19.8235 51.7226 20.5393 53.1788C20.7381 53.5822 20.8972 53.9167 20.8871 53.9265C20.8175 53.9856 14.2368 55.8945 12.169 56.4552C11.5527 56.6224 11.016 56.7701 10.976 56.7798C10.9066 56.7995 10.8966 56.7897 10.9264 56.6223C11.155 55.1761 12.2684 53.287 13.8191 51.693C14.853 50.6304 15.6781 50.0106 17.0897 49.2135C18.1037 48.643 19.6644 47.7871 19.7837 47.7476C19.7838 47.7378 19.7937 47.7378 19.8036 47.7378ZM35.3113 50.4829C35.3212 50.4731 35.5598 50.6011 35.848 50.7683C37.9754 51.9883 40.9378 53.1199 43.4626 53.7003L43.6914 53.7496L43.3732 53.9265C42.0512 54.6546 37.707 56.4453 33.2635 58.0885C32.6173 58.3245 31.9811 58.5608 31.8617 58.6099C31.7424 58.659 31.633 58.6886 31.633 58.6788C31.633 58.6689 31.8121 58.3245 32.0405 57.9015C33.2831 55.5992 34.5358 52.7951 35.172 50.8469C35.2517 50.66 35.3013 50.4928 35.3113 50.4829ZM33.7307 50.9946C33.7408 51.0046 33.6612 51.211 33.5617 51.4471C32.6969 53.5232 31.5635 55.7863 30.1122 58.3247C29.7445 58.9742 29.4363 59.4957 29.4262 59.4957C29.4164 59.4957 29.1181 59.3184 28.7602 59.102C26.6527 57.8229 24.7839 56.2487 23.5612 54.7236L23.3822 54.5071L24.2868 54.2611C27.5275 53.3856 30.281 52.441 33.0149 51.28C33.4027 51.1226 33.7208 50.9946 33.7307 50.9946ZM43.5523 54.389C43.5622 54.6154 43.0552 56.6422 42.6376 58.1081C42.2898 59.338 41.9914 60.3023 41.4448 62.0043C41.2062 62.7523 40.9976 63.372 40.9875 63.372C40.9776 63.372 40.918 63.3622 40.8583 63.3426C37.9059 62.8111 35.2616 62.0733 32.7764 61.0894C32.0805 60.8138 31.0864 60.3711 31.0268 60.3219C31.007 60.302 31.6035 60.0267 32.3589 59.702C36.882 57.744 41.5741 55.5204 43.1844 54.5661C43.3732 54.448 43.5224 54.389 43.5523 54.389ZM20.8772 55.1565C20.8971 55.1761 19.6346 56.9768 17.8651 59.4266C17.2488 60.2827 16.5331 61.2862 16.2647 61.6601C15.9963 62.034 15.5888 62.6243 15.3601 62.9786L14.9424 63.6181L14.495 63.2443C13.9681 62.8112 13.0537 61.8864 12.6461 61.3748C11.7911 60.3221 11.2147 59.2103 10.986 58.1969C10.8767 57.7246 10.8767 57.4883 10.976 57.459C11.125 57.4196 13.7793 56.7997 16.2646 56.229C17.6464 55.9142 19.2468 55.5403 19.8234 55.4026C20.4 55.2646 20.8673 55.1565 20.8772 55.1565ZM22.1496 55.6387L22.4676 55.9928C23.8993 57.5769 25.3605 58.748 27.13 59.771C27.4482 59.9482 27.6867 60.1055 27.6667 60.1156C27.5973 60.1647 21.5233 62.2996 18.7101 63.2639C17.1296 63.8148 15.8272 64.2575 15.8174 64.2575C15.8075 64.2575 15.718 64.1986 15.6184 64.1297L15.4396 64.0017L15.7278 63.5886C16.6622 62.2504 17.8354 60.7845 20.3902 57.7344L22.1496 55.6387ZM30.0825 61.2567C30.0923 61.2469 30.5297 61.4042 31.0665 61.6012C32.3589 62.0832 33.3827 62.3882 34.7546 62.7326C36.4446 63.1557 38.89 63.569 40.3315 63.687C40.5502 63.7066 40.6695 63.7264 40.6297 63.7559C40.56 63.7953 39.0989 64.2774 38.0252 64.6119C36.3153 65.1431 31.0964 66.6682 26.8418 67.8785C26.0564 68.1047 25.3804 68.2917 25.3406 68.3015C25.2414 68.3212 24.9132 68.2325 24.9132 68.1932C24.9132 68.1736 25.1517 67.8687 25.4401 67.5341C26.8715 65.8417 28.2931 63.9527 29.4761 62.162C29.804 61.6699 30.0825 61.2665 30.0825 61.2567ZM28.3328 61.306C28.3427 61.3158 27.637 62.4374 26.4044 64.3658C25.8774 65.1824 25.2909 66.1073 25.0821 66.432C24.8833 66.7468 24.5851 67.2389 24.4162 67.5143L24.1278 68.0162L23.9788 67.9768C23.6208 67.8784 21.1058 67.0026 20.4397 66.737C19.6146 66.4123 18.7597 66.0188 18.1234 65.6843C17.3283 65.2612 16.3343 64.6314 16.4137 64.6118C16.4336 64.602 17.7955 64.2378 19.4356 63.7952C23.7898 62.6242 26.2053 61.9454 27.7861 61.4535C28.0744 61.3649 28.3229 61.296 28.3328 61.306ZM40.7092 64.1788H40.7191C40.7588 64.2773 39.1485 68.7049 38.5618 70.1019C38.4327 70.4168 38.3832 70.4956 38.3135 70.4856C38.1444 70.4759 35.8084 70.1512 34.3867 69.9445C31.9116 69.5707 27.7562 68.8523 26.7125 68.6163L26.474 68.5672L27.955 68.2324C31.1361 67.524 32.667 67.1404 34.2177 66.6681C36.1761 66.0778 38.1147 65.3398 40.0729 64.4347C40.3811 64.2969 40.6396 64.1887 40.7092 64.1788Z" fill="url(#paint0_linear_1350_124)"/>
<path d="M33.3224 6.0005C33.1037 5.97115 29.5746 7.23053 27.2982 8.14544C24.2264 9.38531 21.8407 10.5661 20.3694 11.5891C19.8228 11.973 19.1367 12.6518 19.0275 12.9174C18.9878 13.0158 18.9678 13.1339 18.9678 13.2519L20.2999 14.5015L23.471 15.5051L31.0161 16.8432L39.6447 18.3093L39.7342 17.5713C39.7045 17.5713 39.6845 17.5615 39.6549 17.5615L38.5213 17.3844L38.2929 16.981C37.1198 14.9344 35.8275 12.3959 35.072 10.6839C34.4856 9.35564 33.9289 7.8209 33.6206 6.71887C33.4516 6.04982 33.4318 6.01049 33.3226 6.00069V6.00046H33.3224V6.0005ZM33.1631 6.50245H33.1733C33.1831 6.51216 33.2229 6.78784 33.2627 7.11233C33.4316 8.49 33.74 9.81807 34.227 11.2546C34.5947 12.337 34.5947 12.278 34.1674 12.15C33.1534 11.8746 28.6105 11.0973 25.3201 10.6447C24.7932 10.5758 24.3458 10.5069 24.3458 10.4971C24.306 10.4578 26.7216 9.20814 27.7853 8.71631C29.1472 8.09631 32.8849 6.55159 33.1631 6.50245ZM23.5802 10.9103L23.9681 11.0381C26.0754 11.7466 31.3737 12.7502 34.2965 12.9863C34.6244 13.0159 34.9029 13.0454 34.9127 13.0454C34.9226 13.0552 34.6444 13.2028 34.2865 13.37C32.875 14.0686 31.3242 14.9246 30.2505 15.5839C29.9325 15.7806 29.6441 15.9381 29.6044 15.9381C29.5647 15.9381 29.356 15.8987 29.1373 15.8692L28.7397 15.8101L27.7457 14.8458C25.9961 13.1634 24.6242 11.8647 24.0973 11.3726L23.5802 10.9103ZM23.1827 11.2152L24.5843 12.947C25.3497 13.9014 26.1251 14.836 26.2943 15.0426C26.4631 15.2493 26.6024 15.4166 26.5925 15.4264C26.5527 15.4559 24.5646 15.0721 23.5108 14.8361C22.4272 14.5901 21.9799 14.472 21.3139 14.2655L20.7671 14.0883V13.9505C20.777 13.2912 21.6221 12.3074 23.0535 11.3039L23.1827 11.2152ZM35.0918 13.5766C35.1316 13.5766 35.1812 13.6652 35.3005 13.9308C35.6384 14.6687 36.6924 16.6563 36.9506 17.0399C37.0304 17.168 37.1693 17.1778 35.7678 16.9515C32.3979 16.4102 31.3143 16.2333 31.3143 16.2136C31.3143 16.2038 31.4137 16.1349 31.5429 16.066C32.5868 15.4954 33.6404 14.7672 34.5749 13.9899C34.8036 13.803 35.0123 13.6259 35.052 13.5963C35.0619 13.5766 35.0819 13.5668 35.0918 13.5766Z" fill="url(#paint1_linear_1350_124)"/>
<path d="M19.0972 12.7796C19.0972 12.7796 18.8787 13.1241 19.0874 13.6358C19.2168 13.9505 19.5944 14.3342 20.0218 14.7278C20.0218 14.7278 24.4455 18.9979 24.9823 19.6081C27.4277 22.4023 28.4914 25.1572 28.5908 28.9551C28.6505 31.3952 28.1831 33.5401 27.0201 36.0294C24.9524 40.4964 20.5883 45.4258 13.8584 50.8963L14.8427 50.5716C15.4789 50.0992 16.3438 49.5976 18.3716 48.4956C23.0537 45.957 28.3224 43.6251 34.784 41.2244C44.0884 37.761 59.3875 33.7072 68.0955 32.389L69.0003 32.2511L68.861 32.0346C68.0659 30.8146 67.519 30.057 66.8628 29.2502C64.9543 26.9085 62.6383 25.0097 59.805 23.4354C55.9082 21.2807 50.868 19.5983 44.4861 18.3487C43.2833 18.1124 40.639 17.6599 38.4918 17.3352C33.9389 16.6368 30.9964 16.1546 27.7557 15.6036C26.5928 15.4067 24.8529 15.1116 23.6998 14.8657C23.1034 14.7377 21.9603 14.4721 21.0656 14.1671C20.3499 13.8915 19.316 13.616 19.0972 12.7796ZM21.6621 15.2395C21.6719 15.2298 21.831 15.2886 22.0399 15.3576C22.4176 15.4853 22.9047 15.633 23.4814 15.7905C23.9177 15.9093 24.3551 16.0241 24.7935 16.1348C25.39 16.2823 25.8869 16.4201 25.8968 16.4201C25.9666 16.489 26.9706 19.6668 27.3086 20.8869C27.4376 21.3495 27.5373 21.7429 27.5273 21.7429C27.5171 21.7529 27.4079 21.5855 27.2787 21.3593C26.1156 19.3324 24.2765 17.2761 22.1492 15.623C21.8709 15.4264 21.6621 15.2493 21.6621 15.2395ZM26.553 16.5776C26.6027 16.5776 26.8215 16.6071 27.0897 16.6661C28.7797 17.04 31.8117 17.6107 33.7501 17.9354C34.0782 17.9845 34.3367 18.0437 34.3367 18.0632C34.3367 18.083 34.2173 18.1518 34.0681 18.2306C33.7402 18.3978 32.418 19.175 31.9807 19.4702C30.8772 20.1983 29.8832 20.9854 29.1674 21.6938C28.8792 21.9792 28.6305 22.2153 28.6305 22.2153C28.6305 22.2153 28.5711 22.0481 28.5211 21.8413C28.1635 20.4737 27.4178 18.4468 26.7418 17.0202C26.6324 16.794 26.5429 16.5874 26.5429 16.5678C26.5429 16.5874 26.5429 16.5776 26.553 16.5776ZM35.1617 18.201C35.2214 18.2206 35.3208 18.5552 35.5196 19.2931C35.8874 20.7198 36.0564 22.3137 35.9968 23.7994C35.9768 24.2127 35.957 24.5963 35.937 24.6457L35.9073 24.7439L35.3904 24.5767C34.3267 24.2422 32.5971 23.7403 31.1159 23.3272C30.2708 23.1009 29.5851 22.8942 29.5851 22.8746C29.5851 22.8155 30.8178 21.5955 31.3446 21.1331C32.3484 20.2573 35.0722 18.1715 35.1617 18.201ZM35.8476 18.2993C35.8775 18.27 39.9632 18.9684 41.8221 19.3226C43.204 19.5882 45.212 20.0015 45.3312 20.0508C45.3909 20.0704 45.1821 20.1885 44.516 20.4836C41.8917 21.6545 39.9432 22.7072 38.0049 23.9864C37.4979 24.3209 37.0704 24.5963 37.0605 24.5963C37.0506 24.5963 37.0406 24.3111 37.0406 23.9667C37.0406 22.0973 36.6629 20.2082 35.9669 18.6143C35.8973 18.4568 35.8377 18.3093 35.8476 18.2993ZM46.4147 20.3656C46.4446 20.3951 46.3153 21.1922 46.196 21.6643C45.8382 23.1304 44.874 25.305 43.6911 27.3513C43.4822 27.7154 43.2934 28.0106 43.2733 28.0204C43.2537 28.0302 42.9852 27.8826 42.677 27.7055C41.5239 27.0364 40.2117 26.4068 38.7802 25.8163C38.3827 25.6491 38.0347 25.5113 38.0247 25.4918C37.955 25.4327 41.156 23.337 42.846 22.3334C44.188 21.5266 46.3749 20.3262 46.4147 20.3656ZM47.1702 20.4836C47.2597 20.4836 49.069 20.9756 50.0132 21.2511C52.3494 21.9399 55.0333 22.9139 56.7829 23.701L57.5085 24.0258L57.0017 24.1438C52.7272 25.1178 49.069 26.2396 45.5399 27.6564C45.2516 27.7744 44.9931 27.8729 44.9734 27.8729C44.9534 27.8729 45.0529 27.6466 45.1821 27.371C46.2458 25.1376 46.9317 22.8057 47.1005 20.8181C47.1107 20.6311 47.1403 20.4836 47.1702 20.4836ZM29.1575 24.5767C29.1873 24.5472 30.5691 24.8719 31.3146 25.0784C32.4479 25.3933 34.8535 26.1902 34.8535 26.2493C34.8535 26.2591 34.5852 26.4854 34.2672 26.761C32.9649 27.8335 31.7123 28.9648 30.2111 30.4014C29.7638 30.8246 29.3861 31.1689 29.3663 31.1689C29.3463 31.1689 29.3366 31.1097 29.3463 31.0311C29.5749 29.3781 29.5254 27.2529 29.2072 25.0982C29.1773 24.8226 29.1476 24.5865 29.1575 24.5767ZM58.1947 24.6063C58.2144 24.6259 57.5584 25.6491 57.1409 26.2296C56.5446 27.0757 55.6695 28.1976 53.6913 30.6573C52.6477 31.9559 51.4745 33.4221 51.087 33.914C50.6892 34.4059 50.3613 34.8191 50.3512 34.8191C50.3413 34.8191 50.2122 34.6421 50.073 34.4256C48.9595 32.7726 47.6274 31.3263 46.0468 30.0275C45.7486 29.7815 45.4207 29.5158 45.3113 29.4371C45.202 29.3585 45.1124 29.2797 45.1124 29.2699C45.1124 29.2405 46.8022 28.5221 48.0848 28.0106C50.3315 27.1053 53.3929 26.0231 55.6894 25.3244C56.8923 24.9506 58.1747 24.5865 58.1947 24.6063ZM58.9601 24.803C58.9997 24.7932 59.2384 24.9113 59.5267 25.0784C61.9424 26.446 64.3082 28.2073 66.1772 30.0177C66.704 30.5294 68.0062 31.8675 67.9862 31.8773C67.9862 31.8773 67.529 31.9166 66.9923 31.9559C62.8072 32.2709 57.4492 33.1464 52.2997 34.3763C51.9519 34.4549 51.6438 34.5238 51.6238 34.5238C51.6041 34.5238 51.9916 34.1402 52.4788 33.6778C55.5008 30.795 56.8826 28.9747 58.5128 25.7278C58.7414 25.2458 58.9403 24.8325 58.9601 24.803C58.9502 24.803 58.9502 24.803 58.9601 24.803ZM36.8218 27.0464C36.9611 27.0758 38.2534 27.6762 39.2275 28.1581C40.1222 28.6007 41.4643 29.3093 41.5338 29.3683C41.5437 29.3781 41.0665 29.6241 40.4802 29.9094C38.6112 30.8343 37.0108 31.7099 35.3406 32.7135C34.8635 32.9989 34.4659 33.2351 34.456 33.2351C34.4162 33.2351 34.4261 33.1956 34.6945 32.7135C35.5893 31.1 36.3049 29.1716 36.7126 27.2922C36.7522 27.1447 36.7921 27.0464 36.8218 27.0464ZM35.5295 27.2824C35.5593 27.312 35.2214 28.5221 35.0127 29.1814C34.605 30.4309 33.9191 31.9953 33.2532 33.176C33.0939 33.4514 32.8554 33.8548 32.7262 34.0811L32.4777 34.4746L31.921 33.9435C31.275 33.3236 30.748 32.9399 30.0721 32.5954C29.8035 32.4578 29.5949 32.3396 29.5949 32.32C29.5949 32.2413 31.2948 30.7163 32.597 29.6143C33.5314 28.8173 35.4997 27.2529 35.5295 27.2824ZM43.4326 30.4999L43.9198 30.8146C45.0329 31.533 46.345 32.4873 47.3493 33.3236C47.9157 33.7859 49.0092 34.7601 49.2281 34.9962L49.3472 35.1243L48.5422 35.3505C43.9892 36.5999 40.4701 37.7118 36.3645 39.2074C35.9073 39.3746 35.5196 39.5123 35.4897 39.5123C35.4302 39.5123 35.3803 39.5615 36.4044 38.6267C39.0288 36.2361 41.3548 33.599 43.0846 31.031L43.4326 30.4999ZM41.3549 31.0115C41.3747 31.0311 40.0129 32.93 39.1976 34.0025C38.2235 35.2816 36.4937 37.4264 35.3008 38.8235C34.8039 39.4041 34.3766 39.8861 34.3566 39.896C34.3267 39.9058 34.3168 39.7583 34.3168 39.532C34.3168 38.3413 34.0087 37.0721 33.4718 35.9899C33.2431 35.5373 33.2033 35.4291 33.2532 35.3799C33.442 35.2126 36.3348 33.5793 38.1638 32.6053C39.3965 31.956 41.3249 30.9918 41.3549 31.0115ZM28.7896 34.0616C28.8195 34.0616 29.0481 34.1795 29.3066 34.3174C29.9428 34.6617 30.5095 35.0454 31.0164 35.4587C31.0362 35.4783 30.7778 35.6851 30.4399 35.9309C29.4954 36.5999 28.064 37.6725 27.2291 38.3317C26.3541 39.0205 26.3245 39.0401 26.4238 38.8926C27.0799 37.8988 27.4078 37.3379 27.7559 36.6198C28.064 35.9803 28.3721 35.2226 28.5908 34.5634C28.6703 34.278 28.7698 34.0616 28.7896 34.0616ZM32.1398 36.659C32.1893 36.6493 32.2492 36.7377 32.5174 37.1314C33.0841 37.9675 33.5215 39.0893 33.631 39.9945L33.6507 40.1914L32.289 40.7129C29.8533 41.6475 27.6068 42.5724 26.0857 43.261C25.6583 43.4579 24.9127 43.812 24.4257 44.0483C23.9386 44.2941 23.5409 44.4811 23.5409 44.4713C23.5409 44.4615 23.849 44.2352 24.2268 43.9596C27.1993 41.8246 29.7738 39.4828 31.7023 37.1412C31.9111 36.8952 32.1001 36.6689 32.1198 36.6591L32.1398 36.659ZM30.599 37.033C30.6388 37.0723 29.5055 38.3415 28.7301 39.1187C26.8115 41.0571 24.9128 42.5724 22.5568 44.0483C22.2586 44.2352 21.9902 44.4024 21.9603 44.4222C21.8907 44.4615 21.9801 44.3631 23.014 43.2512C23.6702 42.5526 24.1672 41.9623 24.7338 41.2343C25.1115 40.7523 25.1812 40.6834 25.728 40.2995C27.1893 39.2565 30.5592 36.9935 30.599 37.033Z" fill="url(#paint2_radial_1350_124)"/>
<defs>
<linearGradient id="paint0_linear_1350_124" x1="18.8946" y1="64.5702" x2="23.6248" y2="61.7463" gradientUnits="userSpaceOnUse">
<stop stop-color="#909CA9"/>
<stop offset="1" stop-color="#EDEDEE"/>
</linearGradient>
<linearGradient id="paint1_linear_1350_124" x1="19.0027" y1="12.1356" x2="22.8292" y2="12.1356" gradientUnits="userSpaceOnUse">
<stop stop-color="#939FAB"/>
<stop offset="1" stop-color="#DCDEE1"/>
</linearGradient>
<radialGradient id="paint2_radial_1350_124" cx="0" cy="0" r="1" gradientUnits="userSpaceOnUse" gradientTransform="translate(38.3117 29.5056) rotate(-171.544) scale(4.93235 9.7705)">
<stop stop-color="#EE352C"/>
<stop offset="1" stop-color="#A91D22"/>
</radialGradient>
</defs>
</svg>
