<svg width="78" height="78" viewBox="0 0 78 78" fill="none" xmlns="http://www.w3.org/2000/svg">
<g clip-path="url(#clip0_2901_2496)">
<path d="M70.99 69.9934H31.1971C29.5251 69.9934 28.1875 68.636 28.1875 66.9393V49.2935L43.4582 41.6017L62.5187 49.2935H70.99C72.662 49.2935 73.9996 50.6508 73.9996 52.3475V66.9393C73.9996 68.636 72.662 69.9934 70.99 69.9934Z" fill="#185C37"/>
<path d="M51.038 28.7065L33.2036 35.154L12.917 28.7065V11.0607C12.917 9.36396 14.2546 8.00659 15.9265 8.00659H48.1399C49.8119 8.00659 51.1495 9.36396 51.1495 11.0607L51.038 28.7065Z" fill="#33C481"/>
<path d="M12.917 28.7065H59.5093C61.1813 28.7065 62.5189 30.0639 62.5189 31.7606V49.4064H15.9265C14.2546 49.4064 12.917 48.0491 12.917 46.3524V28.7065Z" fill="#21A366"/>
<path opacity="0.1" d="M28.1877 60.9442H37.8851C39.3342 60.9442 40.5603 59.9261 40.7832 58.4557V23.9558C40.7832 22.2591 39.4457 20.9017 37.8851 20.9017H12.917V46.2393C12.917 47.936 14.2546 49.2934 15.9265 49.2934H28.1877V60.9442Z" fill="black"/>
<path opacity="0.2" d="M37.8851 59.6999C40.2259 59.6999 42.1208 57.777 42.1208 55.4016V23.9558C42.1208 21.5804 40.2259 19.6575 37.8851 19.6575H12.917V46.3524C12.917 48.0491 14.2546 49.4065 15.9265 49.4065H28.1877V59.6999H37.8851Z" fill="black"/>
<path opacity="0.2" d="M37.8851 58.3425C39.5571 58.3425 40.8947 56.9852 40.8947 55.4016V23.9558C40.8947 22.2591 39.5571 20.9017 37.9966 20.9017H12.917V46.2393C12.917 47.936 14.2546 49.2934 15.9265 49.2934H28.1877V58.3425H37.8851Z" fill="black"/>
<path opacity="0.1" d="M36.659 58.3425C38.331 58.3425 39.6686 56.9852 39.6686 55.4016V23.9558C39.6686 22.2591 38.331 20.9017 36.7705 20.9017H12.917V46.2393C12.917 47.936 14.2546 49.2934 15.9265 49.2934H28.1877V58.3425H36.659Z" fill="black"/>
<path d="M7.00955 20.9017H36.6592C38.3312 20.9017 39.6688 22.2591 39.6688 23.9558V54.0442C39.6688 55.7409 38.3312 57.0983 36.6592 57.0983H7.00955C5.33758 57.0983 4 55.7409 4 54.0442V23.9558C4 22.2591 5.33758 20.9017 7.00955 20.9017Z" fill="url(#paint0_linear_2901_2496)"/>
<path d="M22.3914 28.9328C24.2863 28.8197 26.1812 29.3852 27.6303 30.5164C28.8564 31.7606 29.5252 33.4574 29.4137 35.1541C29.4137 36.3983 29.0793 37.5295 28.522 38.6606C27.8532 39.6786 26.9615 40.4704 25.9583 41.036C24.7322 41.6016 23.3946 41.9409 22.057 41.8278H18.3787V48.954H14.5889V28.9328H22.3914ZM18.4901 38.7737H21.7226C22.7258 38.8868 23.729 38.5475 24.6207 37.8688C25.2895 37.1901 25.6239 36.2852 25.6239 35.2672C25.6239 33.0049 24.3978 31.9869 21.9456 31.9869H18.6016L18.4901 38.7737Z" fill="white"/>
</g>
<defs>
<linearGradient id="paint0_linear_2901_2496" x1="10.2019" y1="18.5535" x2="33.9456" y2="59.0812" gradientUnits="userSpaceOnUse">
<stop stop-color="#18884F"/>
<stop offset="0.5" stop-color="#117E43"/>
<stop offset="1" stop-color="#0B6631"/>
</linearGradient>
<clipPath id="clip0_2901_2496">
<rect width="70" height="62" fill="white" transform="translate(4 8)"/>
</clipPath>
</defs>
</svg>
