<svg width="78" height="78" viewBox="0 0 78 78" fill="none" xmlns="http://www.w3.org/2000/svg">
<path fill-rule="evenodd" clip-rule="evenodd" d="M68.4899 57.7292C64.6821 57.6231 61.728 58.0134 59.2521 59.0549C58.5392 59.3413 57.3952 59.3413 57.3012 60.2386C57.6822 60.6151 57.7281 61.2313 58.0622 61.7531C58.6331 62.7002 59.6342 63.9761 60.5381 64.6379L63.585 66.8153C65.4419 67.9501 67.5369 68.613 69.3458 69.7489C70.3938 70.4118 71.4407 71.2634 72.4887 71.974C73.0223 72.3527 73.3457 72.9689 74.0127 73.2043V73.0611C73.6797 72.6369 73.5837 72.0218 73.2518 71.5466L71.8217 70.1753C70.4418 68.3298 68.7268 66.7198 66.8699 65.3962C65.3459 64.3547 62.014 62.9356 61.3951 61.1857L61.3012 61.0796C62.347 60.9735 63.585 60.6055 64.586 60.3213C66.2061 59.897 67.6809 59.9904 69.3458 59.5651L71.6328 58.9022V58.478C70.7758 57.6263 70.1569 56.4904 69.2529 55.6865C66.825 53.6045 64.157 51.5693 61.3951 49.8659C59.9191 48.9199 58.0141 48.3037 56.4432 47.5008C55.8701 47.2166 54.9192 47.0745 54.5863 46.6014C53.7272 45.5621 53.2523 44.1886 52.6333 42.9572L48.7294 34.7238C47.8725 32.8784 47.3474 31.033 46.3015 29.3297C41.3966 21.2851 36.0627 16.4116 27.8729 11.6315C26.112 10.6377 24.0171 10.2103 21.7898 9.69064L18.219 9.49973C17.4559 9.16882 16.695 8.26944 16.028 7.84308C13.3141 6.13976 6.31424 2.4489 4.31322 7.31278C3.02723 10.3885 6.21818 13.4165 7.3014 14.9788C8.11248 16.0669 9.15835 17.2972 9.73144 18.5275C10.0516 19.3314 10.1583 20.1842 10.4924 21.0358C11.2533 23.1178 11.9683 25.4373 12.9683 27.3782C13.5019 28.3719 14.0622 29.4145 14.7292 30.3128C15.1102 30.8431 15.7772 31.0701 15.9191 31.9218C15.2521 32.8689 15.2062 34.2869 14.8252 35.4716C13.1102 40.8191 13.7772 47.4436 16.2051 51.3805C16.9682 52.563 18.7664 55.1668 21.2061 54.172C23.349 53.3203 22.8709 50.6232 23.4899 48.257C23.634 47.6896 23.5379 47.311 23.8229 46.9313V47.0373L25.7759 50.9647C27.2518 53.2832 29.8238 55.6971 31.9657 57.3071C33.1076 58.1587 34.0126 59.6266 35.4405 60.1463V60.0031H35.3466C35.0606 59.5789 34.6316 59.388 34.2506 59.0571C33.3936 58.2054 32.4417 57.1639 31.7747 56.2178C29.7758 53.5685 28.0149 50.6338 26.4429 47.6058C25.6798 46.139 25.0128 44.5301 24.396 43.0633C24.1078 42.4948 24.1078 41.6421 23.6329 41.36C22.9179 42.3994 21.872 43.3009 21.3459 44.5778C20.4409 46.612 20.347 49.1203 20.014 51.723C19.8219 51.7708 19.9073 51.723 19.8219 51.8291C18.3001 51.4515 17.775 49.8882 17.204 48.5646C15.7761 45.2046 15.5371 39.8105 16.775 35.9297C17.108 34.936 18.5381 31.8125 17.9671 30.8665C17.679 29.9671 16.7291 29.4474 16.2041 28.7368C15.5851 27.8374 14.9202 26.7026 14.4912 25.7088C13.3493 23.0573 12.7783 20.1248 11.5393 17.4743C10.9662 16.244 9.9673 14.966 9.15728 13.8312C8.25229 12.5532 7.25445 11.6538 6.53942 10.1403C6.30143 9.61003 5.96846 8.76792 6.34945 8.19944C6.44336 7.82081 6.63546 7.66914 7.01432 7.58429C7.6333 7.054 9.39633 7.72642 10.0153 8.00853C11.7762 8.71913 13.2522 9.38094 14.7281 10.3737C15.3951 10.8467 16.1102 11.7461 16.9671 11.9836H17.9682C19.4921 12.3145 21.205 12.0897 22.6319 12.5139C25.1558 13.32 27.4407 14.5015 29.4898 15.7806C35.7265 19.7079 40.8705 25.292 44.3453 31.9652C44.9163 33.0534 45.1543 34.0472 45.6793 35.1831C46.6804 37.5026 47.9183 39.8677 48.9162 42.1406C49.9172 44.3646 50.8692 46.6375 52.2971 48.4829C53.0121 49.4767 55.868 49.9964 57.1529 50.5172C58.1059 50.9414 59.5808 51.3232 60.4399 51.8429C62.0578 52.8367 63.6768 53.9726 65.1997 55.0607C65.9606 55.6271 68.3426 56.8107 68.4845 57.7547L68.4899 57.7292ZM19.9318 16.6078C19.274 16.602 18.6181 16.6816 17.981 16.8443V16.9504H18.0749C18.4559 17.7077 19.1229 18.2284 19.5989 18.8913L20.6949 21.1631L20.7888 21.057C21.4558 20.584 21.7898 19.8267 21.7898 18.6919C21.5038 18.361 21.4569 18.029 21.2189 17.6981C20.9329 17.2251 20.3139 16.9875 19.9318 16.61V16.6078Z" fill="#00678C"/>
</svg>
