<svg width="78" height="78" viewBox="0 0 78 78" fill="none" xmlns="http://www.w3.org/2000/svg">
<path fill-rule="evenodd" clip-rule="evenodd" d="M45.2168 5C44.7106 5 44.2406 5.10734 43.8068 5.25045C44.7287 5.8587 45.2349 6.66373 45.488 7.57609C45.5061 7.70132 45.5422 7.79077 45.5603 7.91599C45.5784 8.02333 45.5964 8.13067 45.5964 8.238C45.6688 9.81228 45.1806 10.0091 44.8372 10.9393C44.3129 12.1379 44.4575 13.426 45.0903 14.4636C45.1445 14.5888 45.2168 14.7319 45.3072 14.8571C44.6202 10.3311 48.4346 9.65127 49.1396 8.238C49.1939 7.00363 48.1635 6.18071 47.35 5.60824C46.5726 5.14312 45.8676 5 45.2168 5ZM50.9655 6.0197C50.8931 6.43116 50.9474 6.32382 50.9294 6.5385C50.9113 6.68161 50.9113 6.86051 50.8932 7.00363C50.8571 7.14674 50.8209 7.28986 50.7667 7.43298C50.7306 7.57609 50.6763 7.71921 50.6221 7.86232C50.5497 8.00544 50.4955 8.13066 50.4232 8.27378C50.369 8.34537 50.3328 8.41689 50.2786 8.48846C50.2425 8.54213 50.2063 8.59579 50.1701 8.64946C50.0797 8.77469 49.9893 8.89991 49.899 9.00725C49.7905 9.11459 49.7001 9.23981 49.5736 9.32927V9.34718C49.4651 9.43663 49.3566 9.54396 49.2301 9.63341C48.8505 9.91964 48.4166 10.1343 48.0189 10.4027C47.8923 10.4921 47.7658 10.5637 47.6573 10.671C47.5308 10.7604 47.4223 10.8499 47.3139 10.9572C47.1873 11.0646 47.0969 11.1719 46.9885 11.2971C46.8981 11.4045 46.7896 11.5297 46.7173 11.6549C46.6269 11.7801 46.5365 11.9054 46.4642 12.0306C46.3919 12.1737 46.3377 12.2989 46.2654 12.4421C46.2111 12.5852 46.1569 12.7104 46.1207 12.8535C46.0665 13.0145 46.0304 13.1576 45.9942 13.3008C45.9761 13.3723 45.9761 13.4618 45.9581 13.5333C45.9399 13.6049 45.9399 13.6764 45.9219 13.748C45.9219 13.8911 45.9038 14.0521 45.9038 14.1952C45.9038 14.3026 45.9038 14.4099 45.9219 14.5172C45.9219 14.6604 45.94 14.8035 45.9762 14.9645C45.9943 15.1076 46.0304 15.2507 46.0666 15.3938C46.1208 15.5369 46.157 15.6801 46.2112 15.8232C46.2473 15.9126 46.3016 16.0021 46.3377 16.0736L42.1799 14.4815C41.4748 14.2847 40.7879 14.1058 40.0829 13.9448C39.7033 13.8553 39.3236 13.7659 38.944 13.6764C37.8593 13.4618 36.7566 13.3008 35.6539 13.1934C35.6177 13.1934 35.5996 13.1755 35.5635 13.1755C34.4788 13.0682 33.4122 13.0145 32.3276 13.0145C31.5322 13.0145 30.7368 13.0503 29.9594 13.104C28.8567 13.1755 27.7539 13.3186 26.6512 13.4975C26.38 13.5333 26.1089 13.587 25.8377 13.6406C25.2773 13.748 24.735 13.8732 24.2107 13.9984C23.9396 14.07 23.6684 14.1415 23.3972 14.2131C23.1261 14.3204 22.873 14.4457 22.6199 14.553C22.421 14.6424 22.2222 14.7319 22.0233 14.8213C21.9872 14.8393 21.951 14.8393 21.933 14.8571C21.7522 14.9465 21.5895 15.0181 21.4268 15.1076C21.3726 15.1255 21.3364 15.1433 21.3002 15.1612C21.1014 15.2507 20.9025 15.358 20.7398 15.4475C20.6133 15.5011 20.4868 15.5727 20.3783 15.6264C20.3241 15.6621 20.2517 15.6979 20.2156 15.7158C20.0529 15.8052 19.8902 15.8947 19.7456 15.9841C19.5829 16.0736 19.4382 16.163 19.3117 16.2525C19.1852 16.3419 19.0586 16.4135 18.9502 16.5029C18.932 16.5208 18.914 16.5208 18.8959 16.5387C18.7874 16.6103 18.6609 16.6997 18.5524 16.7891C18.5524 16.7891 18.5343 16.8071 18.5163 16.8249C18.4259 16.8965 18.3355 16.968 18.2452 17.0396C18.209 17.0575 18.1728 17.0932 18.1367 17.1111C18.0463 17.1827 17.9559 17.2722 17.8655 17.3437C17.8474 17.3795 17.8113 17.3974 17.7932 17.4153C17.6847 17.5226 17.5763 17.6121 17.4678 17.7194C17.4497 17.7194 17.4497 17.7373 17.4317 17.7552C17.3232 17.8446 17.2147 17.952 17.1063 18.0593C17.0882 18.0772 17.0882 18.095 17.0701 18.095C16.9798 18.1845 16.8894 18.2739 16.799 18.3813C16.7628 18.417 16.7086 18.4529 16.6724 18.4886C16.582 18.5959 16.4736 18.7033 16.3651 18.8106C16.347 18.8464 16.3109 18.8643 16.2928 18.9001C16.1482 19.0432 16.0216 19.1863 15.877 19.3294C15.8589 19.3473 15.8409 19.3652 15.8228 19.3831C15.5335 19.6872 15.2262 19.9913 14.9008 20.2597C14.5754 20.5459 14.2319 20.8142 13.8884 21.0468C13.5269 21.2973 13.1834 21.5119 12.8038 21.7266C12.4422 21.9234 12.0626 22.1023 11.6649 22.2633C11.2853 22.4243 10.8876 22.5674 10.4899 22.6926C9.7306 22.8536 8.95326 23.1578 8.28439 23.2114C8.13977 23.2114 7.97707 23.2472 7.83245 23.2651C7.66975 23.3009 7.52513 23.3367 7.38051 23.3725C7.2359 23.4261 7.09127 23.4798 6.94665 23.5335C6.80203 23.5871 6.65741 23.6587 6.51279 23.7302C6.38624 23.8197 6.24163 23.8912 6.11508 23.9807C5.98854 24.0701 5.86199 24.1775 5.75353 24.2848C5.62699 24.3743 5.50044 24.4995 5.39197 24.6068C5.28351 24.7321 5.17504 24.8394 5.08465 24.9646C4.99427 25.1077 4.8858 25.233 4.81349 25.3761C4.7231 25.5013 4.63272 25.6444 4.5604 25.7875C4.48806 25.9485 4.41578 26.0917 4.36155 26.2527C4.30732 26.3958 4.25308 26.5568 4.19885 26.7178C4.16272 26.8609 4.12651 27.004 4.10847 27.1471C4.10847 27.1651 4.09036 27.1829 4.09036 27.2008C4.05423 27.3618 4.05423 27.5765 4.03613 27.6838C4.01802 27.8091 4 27.9164 4 28.0416C4 28.1132 4 28.2026 4.01811 28.2742C4.03621 28.3994 4.05423 28.5067 4.09044 28.6141C4.12657 28.7214 4.16278 28.8288 4.21698 28.9361V28.954C4.27122 29.0614 4.34353 29.1687 4.41584 29.276C4.48817 29.3834 4.56046 29.4907 4.65085 29.598C4.74123 29.6875 4.8497 29.7948 4.95817 29.8843C5.06663 29.9916 5.1751 30.081 5.30164 30.1705C5.7355 30.5462 5.84397 30.6714 6.40438 30.9576C6.49476 31.0113 6.58516 31.0471 6.69362 31.1008C6.71173 31.1008 6.72975 31.1187 6.74786 31.1187C6.74786 31.1544 6.74786 31.1723 6.76596 31.2081C6.78407 31.3512 6.8202 31.4943 6.85635 31.6375C6.89248 31.7985 6.94674 31.9416 7.00098 32.0668C7.05521 32.1742 7.09136 32.2815 7.1456 32.3888C7.1637 32.4246 7.18172 32.4604 7.19983 32.4783C7.27217 32.6214 7.34445 32.7466 7.41675 32.8718C7.50715 32.9971 7.59753 33.1223 7.68792 33.2475C7.77831 33.3549 7.88677 33.4801 7.99524 33.5874C8.10371 33.6948 8.21217 33.7842 8.33872 33.8915C8.33872 33.8915 8.35683 33.9095 8.37485 33.9095C8.48331 33.9989 8.59178 34.0884 8.70025 34.1599C8.82678 34.2494 8.95333 34.3209 9.09795 34.3925C9.2245 34.4641 9.36912 34.5356 9.51374 34.5893C9.6222 34.643 9.74874 34.6787 9.87529 34.7145C9.89339 34.7324 9.91141 34.7324 9.94763 34.7503C10.02 34.7682 10.1103 34.786 10.1826 34.8039C10.1284 35.77 10.1103 36.6823 10.255 37.0043C10.4177 37.3621 11.2131 36.2709 12.0085 35.0186C11.9 36.253 11.8277 37.702 12.0085 38.1314C12.2073 38.5786 13.292 37.1832 14.232 35.6447C27.0491 32.7109 38.7453 41.4767 39.9746 53.8563C39.7395 51.9242 37.3352 50.8508 36.2325 51.1192C35.6902 52.443 34.7682 54.1425 33.2858 55.198C33.4124 54.0173 33.3582 52.8008 33.1051 51.6201C32.7074 53.2659 31.93 54.8044 30.8634 56.1282C29.1461 56.2534 27.4287 55.4305 26.5248 54.1962C26.4525 54.1425 26.4344 54.0352 26.3802 53.9636C26.326 53.8384 26.2717 53.7131 26.2356 53.5879C26.1813 53.4627 26.1452 53.3375 26.1271 53.2122C26.109 53.087 26.109 52.9618 26.109 52.8187C26.109 52.7292 26.109 52.6398 26.109 52.5503C26.1271 52.4251 26.1632 52.2999 26.1994 52.1746C26.2355 52.0494 26.2717 51.9242 26.3259 51.799C26.3983 51.6737 26.4525 51.5485 26.5429 51.4233C26.8502 50.5646 26.8502 49.8669 26.2898 49.4554C26.1813 49.3839 26.0728 49.3302 25.9463 49.2765C25.874 49.2586 25.7836 49.2229 25.7113 49.205C25.6571 49.187 25.6209 49.1692 25.5667 49.1513C25.4401 49.1155 25.3136 49.0797 25.187 49.0618C25.0605 49.0261 24.934 49.0082 24.8074 49.0082C24.6809 48.9902 24.5362 48.9724 24.4097 48.9724C24.3193 48.9724 24.2289 48.9903 24.1385 48.9903C23.9939 48.9903 23.8674 49.0083 23.7408 49.044C23.6143 49.0619 23.4877 49.0797 23.3612 49.1156C23.2347 49.1513 23.1081 49.1872 22.9816 49.2408C22.855 49.2945 22.7466 49.3482 22.62 49.4018C22.5116 49.4555 22.4031 49.527 22.2765 49.5807C18.0645 52.2999 20.5772 58.6686 23.4516 60.5112C22.3669 60.708 21.2642 60.9406 20.9569 61.1731C20.9388 61.191 20.9208 61.2089 20.9208 61.2089C21.6981 61.674 22.5116 62.0676 23.3612 62.4075C24.5182 62.7831 25.7475 63.123 26.2898 63.2662V63.2841C27.7902 63.5882 29.3088 63.6955 30.8454 63.6061C38.8537 63.0515 45.4159 57.0227 46.609 49.0798C46.6452 49.2408 46.6814 49.3839 46.7175 49.5449C46.7717 49.8669 46.844 50.2068 46.8802 50.5467V50.5647C46.9163 50.7257 46.9344 50.8867 46.9525 51.0298V51.1014C46.9707 51.2624 46.9887 51.4234 46.9887 51.5665C47.0068 51.7633 47.0248 51.9601 47.0248 52.1569V52.4431C47.0248 52.5326 47.0429 52.6399 47.0429 52.7293C47.0429 52.8367 47.0248 52.944 47.0248 53.0513V53.3018C47.0248 53.427 47.0067 53.5344 47.0067 53.6596C47.0067 53.7312 47.0067 53.8027 46.9886 53.8922C46.9886 54.0174 46.9705 54.1426 46.9705 54.2857C46.9523 54.3394 46.9523 54.3931 46.9523 54.4467C46.9342 54.5899 46.9162 54.7151 46.8981 54.8582C46.8981 54.9119 46.8981 54.9655 46.88 55.0192C46.8619 55.1981 46.8258 55.3591 46.8077 55.538V55.5559V55.5738C46.7715 55.7348 46.7353 55.9137 46.6992 56.0747V56.1284C46.6631 56.2894 46.6269 56.4504 46.5907 56.6114C46.5907 56.6294 46.5726 56.6651 46.5726 56.683C46.5365 56.844 46.5003 57.005 46.4461 57.166V57.2197C46.3919 57.3986 46.3376 57.5596 46.3015 57.7206C46.2834 57.7385 46.2834 57.7564 46.2834 57.7564C46.2291 57.9353 46.1749 58.1141 46.1207 58.293C46.0483 58.4719 45.9941 58.6329 45.9218 58.8118C45.8495 58.9907 45.7953 59.1696 45.723 59.3306C45.6506 59.5095 45.5783 59.6705 45.506 59.8494H45.4879C45.4156 60.0104 45.3433 60.1893 45.2529 60.3503C45.2348 60.404 45.2168 60.4398 45.1987 60.4756C45.1806 60.4935 45.1806 60.5113 45.1625 60.5292C43.9875 62.8728 42.252 64.93 40.0827 66.5401C39.9381 66.6296 39.7935 66.7369 39.6489 66.8442C39.6127 66.88 39.5585 66.8979 39.5223 66.9337C39.3958 67.0231 39.2692 67.1126 39.1246 67.202L39.1788 67.3094H39.1969C39.45 67.2736 39.7031 67.2378 39.9562 67.202H39.9743C40.4443 67.1304 40.9143 67.041 41.3844 66.9516C41.5109 66.9336 41.6555 66.8979 41.7821 66.8621C41.8725 66.8442 41.9448 66.8264 42.0352 66.8084C42.1617 66.7905 42.2882 66.7548 42.4148 66.7369C42.5233 66.7011 42.6317 66.6832 42.7402 66.6474C44.5479 66.2181 46.3015 65.6277 47.9827 64.93C45.1084 68.812 41.2578 71.9427 36.7565 74C38.8354 73.8569 40.9143 73.517 42.921 72.9445C50.2062 70.8157 56.3345 65.9676 60.0043 59.4379C59.2631 63.5704 57.6 67.5061 55.1414 70.9409C56.895 69.796 58.5039 68.4721 59.9681 66.9694C64.0175 62.7833 66.6749 57.4701 67.5788 51.7633C68.1935 54.5899 68.3742 57.5059 68.1031 60.3861C81.1551 42.3713 69.1877 23.6947 64.1802 18.7751C64.1621 18.7393 64.1441 18.7214 64.1441 18.6856C64.126 18.7035 64.126 18.7035 64.126 18.7214C64.126 18.7035 64.126 18.7035 64.1079 18.6856C64.1079 18.9003 64.0898 19.115 64.0717 19.3297C64.0175 19.7411 63.9633 20.1347 63.891 20.5283C63.8006 20.9218 63.6921 21.3154 63.5836 21.709C63.4571 22.0846 63.3125 22.4782 63.1498 22.8539C62.9871 23.2117 62.8063 23.5874 62.6075 23.9452C62.4086 24.2851 62.1917 24.6428 61.9567 24.9648C61.7217 25.3048 61.4686 25.6268 61.2155 25.9309C60.9443 26.2529 60.6551 26.5391 60.3658 26.8254C60.1851 26.9864 60.0224 27.1295 59.8416 27.2726C59.697 27.3978 59.5704 27.5052 59.4258 27.6304C59.1004 27.8808 58.775 28.1134 58.4135 28.3281C58.07 28.5427 57.7084 28.7574 57.3469 28.9363C56.9672 29.1152 56.5876 29.2762 56.208 29.4372C55.8284 29.5803 55.4306 29.7056 55.0329 29.8129C54.6352 29.9202 54.2194 30.0097 53.8217 30.0812C53.406 30.1528 52.9902 30.1886 52.5925 30.2244C52.3032 30.2423 52.014 30.2601 51.7247 30.2601C51.309 30.2601 50.8932 30.2244 50.4955 30.1885C50.0797 30.1528 49.6639 30.0991 49.2662 30.0096C48.8504 29.938 48.4527 29.8307 48.055 29.7055H48.0369C48.4346 29.6698 48.8323 29.6339 49.23 29.5624C49.6458 29.4908 50.0435 29.4014 50.4412 29.2941C50.8389 29.1867 51.2366 29.0615 51.6162 28.9184C52.014 28.7753 52.3936 28.5964 52.7551 28.4175C53.1348 28.2386 53.4782 28.0418 53.8398 27.8271C54.1833 27.5945 54.5267 27.362 54.8521 27.1115C55.1775 26.8611 55.4849 26.5927 55.7741 26.3065C56.0814 26.0382 56.3526 25.734 56.6237 25.4299C56.8949 25.1079 57.148 24.7859 57.383 24.4639C57.4191 24.4102 57.4553 24.3387 57.4915 24.285C57.6722 23.9988 57.853 23.7125 58.0157 23.4263C58.2146 23.0685 58.3954 22.7107 58.558 22.335C58.7207 21.9594 58.8654 21.5837 58.9919 21.1901C59.1185 20.8144 59.2088 20.4209 59.2992 20.0273C59.3716 19.6158 59.4438 19.2223 59.48 18.8287C59.5161 18.4172 59.5523 18.0058 59.5523 17.6122C59.5523 17.326 59.5342 17.0397 59.5162 16.7535C59.4801 16.3421 59.4258 15.9485 59.3716 15.5549C59.2993 15.1435 59.2089 14.7499 59.1004 14.3563C58.9739 13.9806 58.8473 13.5871 58.7027 13.2114C58.5581 12.8357 58.3773 12.46 58.1965 12.1022C57.9977 11.7444 57.7988 11.3867 57.5819 11.0468C57.3469 10.7069 57.1119 10.3848 56.8588 10.0628C56.5877 9.75871 56.3165 9.45459 56.0272 9.15047C55.8826 9.00735 55.7199 8.84635 55.5572 8.70323C54.7437 8.0771 53.8941 7.48674 53.0444 6.95006C52.9179 6.87847 52.8094 6.82483 52.6829 6.77116C52.0863 6.39548 51.5259 6.19859 50.9655 6.0197Z" fill="#E0234E"/>
</svg>
