<svg width="78" height="78" viewBox="0 0 78 78" fill="none" xmlns="http://www.w3.org/2000/svg">
<path d="M16.0708 15.7934C18.3404 17.6372 19.1919 17.4965 23.4537 17.2122L63.6332 14.7996C64.4851 14.7996 63.7765 13.9495 63.4927 13.8082L56.8194 8.98422C55.541 7.9916 53.8373 6.85476 50.5727 7.13913L11.6669 9.97679C10.2481 10.1175 9.96465 10.8269 10.5298 11.3956L16.0708 15.7934ZM18.4831 25.1571V67.4329C18.4831 69.7047 19.6185 70.555 22.174 70.4144L66.331 67.8594C68.8877 67.7188 69.1726 66.1556 69.1726 64.3103V22.3182C69.1726 20.4755 68.4639 19.4818 66.8986 19.6236L20.7539 22.3182C19.0511 22.4613 18.4831 23.3131 18.4831 25.1571ZM62.0749 27.4249C62.3581 28.703 62.0749 29.9799 60.7944 30.1236L58.6669 30.5474V61.7579C56.8194 62.7509 55.1162 63.3184 53.6967 63.3184C51.4241 63.3184 50.8549 62.6087 49.1527 60.4817L35.2359 38.6341V59.7726L39.6396 60.766C39.6396 60.766 39.6396 63.3184 36.0867 63.3184L26.292 63.8865C26.0075 63.3184 26.292 61.9012 27.2855 61.6168L29.8415 60.9087V32.9601L26.2926 32.6757C26.008 31.3976 26.7169 29.5549 28.7061 29.4118L39.2136 28.7035L53.6967 50.8355V31.2568L50.0041 30.833C49.7206 29.2706 50.8549 28.136 52.2749 27.9953L62.0749 27.4249ZM8.40032 6.14651L48.8686 3.16641C53.8384 2.74018 55.1167 3.02569 58.2404 5.29464L71.1579 14.374C73.2897 15.9353 74 16.3604 74 18.0624V67.8594C74 70.9798 72.8633 72.8257 68.8882 73.1079L21.8928 75.9462C18.9091 76.0883 17.489 75.6629 15.9264 73.6754L6.41345 61.3331C4.70885 59.0612 4 57.3613 4 55.3727V11.1101C4 8.55796 5.13716 6.42915 8.40032 6.14651Z" fill="black"/>
</svg>
