<svg width="70" height="80" viewBox="0 0 70 52" fill="none" xmlns="http://www.w3.org/2000/svg">
    <path d="M23.0727 29.3452C20.4596 30.0797 18.7453 31.3676 17.616 32.6545C18.6977 31.7169 20.1465 30.8564 22.101 30.3077C24.1 29.7465 25.8055 29.7505 27.2146 30.0199V28.9285C26.0125 28.8196 24.6344 28.9064 23.0727 29.3452ZM17.4966 20.1702L7.79201 22.7026C7.79201 22.7026 7.96887 22.9501 8.29637 23.2803L16.5246 21.1327C16.5246 21.1327 16.408 22.6209 15.3954 23.9521C17.3108 22.5168 17.4966 20.1702 17.4966 20.1702ZM25.6199 42.7604C11.963 46.4037 4.73761 30.7275 2.55005 22.5909C1.53937 18.8352 1.09817 15.9907 0.980577 14.1551C0.967944 13.9645 0.973784 13.8038 0.987391 13.6566C0.278943 13.699 -0.0602341 14.0637 0.00877344 15.1178C0.126368 16.9524 0.567566 19.7967 1.57824 23.5536C3.76483 31.689 10.9912 47.3652 24.6482 43.7219C27.6208 42.9287 29.854 41.484 31.5305 39.6397C29.9852 41.022 28.0513 42.1106 25.6199 42.7604ZM28.1863 10.5763V11.539H33.5431C33.4332 11.1981 33.3225 10.891 33.2126 10.5763H28.1863Z" fill="#2D4552"/>
    <path d="M34.7404 18.5048C37.1494 19.1824 38.4235 20.8554 39.097 22.3358L41.7831 23.0915C41.7831 23.0915 41.4166 17.91 36.6849 16.5788C32.2583 15.3331 29.5343 19.0149 29.2029 19.4914C30.4906 18.5827 32.371 17.8387 34.7404 18.5048ZM56.1222 22.3597C51.6915 21.1084 48.9685 24.7979 48.6421 25.2677C49.9308 24.36 51.8102 23.6159 54.1785 24.2849C56.5837 24.9636 57.8568 26.6345 58.5323 28.116L61.2222 28.8744C61.2222 28.8744 60.8499 23.692 56.1222 22.3597ZM53.4535 36.0214L31.1087 29.8341C31.1087 29.8341 31.3506 31.0489 32.2788 32.6217L51.0921 37.8311C52.641 36.9435 53.4535 36.0214 53.4535 36.0214ZM37.9618 49.3393C20.2691 44.641 22.408 22.3127 25.2709 11.7322C26.4497 7.37188 27.6616 4.13097 28.6666 1.95848C28.0669 1.83622 27.5703 2.14907 27.0796 3.13761C26.0125 5.2812 24.648 8.77142 23.3275 13.6574C20.4654 24.2377 18.3264 46.5652 36.0183 51.2635C44.3574 53.4763 50.8538 50.1132 55.6965 44.8316C51.0998 48.9553 45.231 51.2673 37.9618 49.3393Z" fill="#2D4552"/>
    <path d="M28.1861 37.528V33.0223L15.5468 36.5721C15.5468 36.5721 16.4808 31.1973 23.0725 29.3452C25.0716 28.7841 26.7772 28.7879 28.1861 29.0574V10.5763H34.5146C33.8256 8.46735 33.159 6.84366 32.5991 5.71546C31.673 3.84813 30.7236 5.08599 28.5682 6.87157C27.0501 8.12771 23.2134 10.8075 17.44 12.3484C11.6664 13.8904 6.99879 13.4815 5.05129 13.1474C2.29036 12.6756 0.84625 12.0751 0.981345 14.1551C1.09892 15.9897 1.54014 18.8342 2.55081 22.5909C4.73738 30.7265 11.9638 46.4027 25.6207 42.7594C29.1881 41.8074 31.706 39.9256 33.4514 37.527H28.1861V37.528ZM7.79083 22.7026L17.4963 20.1703C17.4963 20.1703 17.2134 23.8684 13.575 24.8184C9.9356 25.7674 7.79083 22.7026 7.79083 22.7026Z" fill="#E2574C"/>
    <path d="M64.7127 10.79C62.1898 11.2281 56.1373 11.7738 48.6574 9.78795C41.1755 7.80332 36.2113 4.33226 34.2445 2.70073C31.4564 0.387703 30.23 -1.21977 29.023 1.21166C27.956 3.35623 26.5914 6.84646 25.2707 11.7324C22.4088 22.3128 20.2698 44.6402 37.9615 49.3386C55.6496 54.0329 65.0663 33.6363 67.9284 23.0549C69.2492 18.17 69.8283 14.4708 69.9877 12.0857C70.1694 9.38384 68.2957 10.1682 64.7127 10.79ZM29.1668 19.5436C29.1668 19.5436 31.9549 15.2485 36.6836 16.5798C41.4154 17.9111 41.7818 23.0925 41.7818 23.0925L29.1668 19.5436ZM40.7099 38.8169C32.3923 36.4036 31.1095 29.8341 31.1095 29.8341L53.4533 36.0216C53.4533 36.0206 48.9431 41.2 40.7099 38.8169ZM48.6098 25.3159C48.6098 25.3159 51.394 21.0239 56.1219 22.359C60.8496 23.6922 61.2219 28.8736 61.2219 28.8736L48.6098 25.3159Z" fill="#2EAD33"/>
    <path d="M23.7693 34.2629L15.5468 36.5711C15.5468 36.5711 16.44 31.5313 22.4972 29.534L17.8413 12.2273L17.4389 12.3484C11.6654 13.8906 6.99781 13.4814 5.05031 13.1474C2.2894 12.6758 0.845291 12.075 0.980365 14.1553C1.09796 15.9899 1.53916 18.8342 2.54984 22.5911C4.73642 30.7265 11.9628 46.4027 25.6197 42.7594L26.022 42.6343L23.7693 34.2629ZM7.79082 22.7028L17.4963 20.1702C17.4963 20.1702 17.2134 23.8683 13.575 24.8184C9.93561 25.7674 7.79082 22.7028 7.79082 22.7028Z" fill="#D65348"/>
    <path d="M41.085 38.9072L40.7089 38.8167C32.3913 36.4036 31.1084 29.8341 31.1084 29.8341L42.6302 33.0241L48.7302 9.80723L48.6564 9.78795C41.1745 7.80332 36.2105 4.33226 34.2435 2.70073C31.4554 0.387703 30.229 -1.21976 29.022 1.21166C27.956 3.35623 26.5914 6.84646 25.2707 11.7324C22.4088 22.3128 20.2698 44.6402 37.9615 49.3383L38.3241 49.4193L41.085 38.9072ZM29.1668 19.5436C29.1668 19.5436 31.9549 15.2485 36.6836 16.5798C41.4154 17.9111 41.7818 23.0925 41.7818 23.0925L29.1668 19.5436Z" fill="#1D8D22"/>
    <path d="M24.1887 34.1446L21.9836 34.7644C22.5046 37.6732 23.4228 40.4647 24.864 42.9307C25.1148 42.8759 25.3637 42.8287 25.6192 42.7594C26.2888 42.5804 26.9097 42.3589 27.5075 42.1173C25.8972 39.7504 24.832 37.0244 24.1887 34.1446ZM23.3277 13.6576C22.1945 17.8466 21.1808 23.876 21.4599 29.9237C21.9593 29.709 22.487 29.5089 23.073 29.3442L23.4812 29.2538C22.9836 22.794 24.0593 16.2112 25.2712 11.7324C25.5784 10.5994 25.8864 9.54552 26.1934 8.56274C25.6989 8.87447 25.1663 9.19403 24.5598 9.52322C24.1508 10.7737 23.7377 12.1405 23.3277 13.6576Z" fill="#C04B41"/>
</svg>
