<svg width="70" height="52" viewBox="0 0 70 52" fill="none" xmlns="http://www.w3.org/2000/svg">
<path d="M23.0727 29.3451C20.4596 30.0796 18.7453 31.3675 17.616 32.6544C18.6977 31.7168 20.1465 30.8563 22.101 30.3076C24.1 29.7464 25.8055 29.7504 27.2146 30.0198V28.9283C26.0125 28.8195 24.6344 28.9062 23.0727 29.3451ZM17.4966 20.1701L7.79201 22.7025C7.79201 22.7025 7.96887 22.9499 8.29637 23.2801L16.5246 21.1326C16.5246 21.1326 16.408 22.6207 15.3954 23.952C17.3108 22.5167 17.4966 20.1701 17.4966 20.1701ZM25.6199 42.7603C11.963 46.4036 4.73761 30.7274 2.55005 22.5908C1.53937 18.8351 1.09817 15.9906 0.980577 14.155C0.967944 13.9644 0.973784 13.8037 0.987391 13.6565C0.278943 13.6988 -0.0602341 14.0636 0.00877344 15.1177C0.126368 16.9523 0.567566 19.7965 1.57824 23.5535C3.76483 31.6889 10.9912 47.365 24.6482 43.7218C27.6208 42.9286 29.854 41.4839 31.5305 39.6396C29.9852 41.0219 28.0513 42.1105 25.6199 42.7603ZM28.1863 10.5762V11.5389H33.5431C33.4332 11.198 33.3225 10.8909 33.2126 10.5762H28.1863Z" fill="#2D4552"/>
<path d="M34.7394 18.505C37.1485 19.1827 38.4226 20.8556 39.096 22.3361L41.7821 23.0917C41.7821 23.0917 41.4157 17.9103 36.6839 16.579C32.2573 15.3333 29.5333 19.0152 29.202 19.4916C30.4896 18.5829 32.3701 17.839 34.7394 18.505ZM56.1212 22.36C51.6906 21.1087 48.9676 24.7981 48.6411 25.2679C49.9298 24.3603 51.8092 23.6161 54.1775 24.2852C56.5827 24.9638 57.8558 26.6347 58.5313 28.1162L61.2212 28.8747C61.2212 28.8747 60.8489 23.6922 56.1212 22.36ZM53.4525 36.0216L31.1077 29.8343C31.1077 29.8343 31.3496 31.0491 32.2778 32.622L51.0911 37.8313C52.64 36.9437 53.4525 36.0216 53.4525 36.0216ZM37.9608 49.3396C20.2681 44.6412 22.4071 22.313 25.27 11.7324C26.4488 7.37212 27.6606 4.13122 28.6656 1.95873C28.066 1.83647 27.5693 2.14932 27.0786 3.13786C26.0115 5.28144 24.647 8.77167 23.3265 13.6576C20.4644 24.238 18.3254 46.5654 36.0173 51.2638C44.3564 53.4766 50.8528 50.1135 55.6955 44.8318C51.0988 48.9556 45.23 51.2676 37.9608 49.3396Z" fill="#2D4552"/>
<path d="M28.1861 37.5288V33.0231L15.5468 36.573C15.5468 36.573 16.4808 31.1982 23.0725 29.3461C25.0716 28.7849 26.7772 28.7887 28.1861 29.0583V10.5772H34.5146C33.8256 8.46821 33.159 6.84451 32.5991 5.71632C31.673 3.84899 30.7236 5.08684 28.5682 6.87243C27.0501 8.12856 23.2134 10.8083 17.44 12.3493C11.6664 13.8912 6.99879 13.4823 5.05129 13.1483C2.29036 12.6765 0.84625 12.0759 0.981345 14.156C1.09892 15.9906 1.54014 18.835 2.55081 22.5918C4.73738 30.7274 11.9638 46.4035 25.6207 42.7603C29.1881 41.8082 31.706 39.9264 33.4514 37.5278H28.1861V37.5288ZM7.79083 22.7035L17.4963 20.1711C17.4963 20.1711 17.2134 23.8692 13.575 24.8193C9.9356 25.7683 7.79083 22.7035 7.79083 22.7035Z" fill="#E2574C"/>
<path d="M64.7136 10.79C62.1908 11.2281 56.1383 11.7738 48.6584 9.78795C41.1764 7.80332 36.2123 4.33226 34.2455 2.70073C31.4574 0.387703 30.231 -1.21977 29.024 1.21166C27.9569 3.35623 26.5924 6.84646 25.2717 11.7324C22.4098 22.3128 20.2708 44.6402 37.9625 49.3386C55.6506 54.0329 65.0673 33.6363 67.9294 23.0549C69.2501 18.17 69.8293 14.4708 69.9887 12.0857C70.1704 9.38384 68.2966 10.1682 64.7136 10.79ZM29.1678 19.5436C29.1678 19.5436 31.9558 15.2485 36.6846 16.5798C41.4163 17.9111 41.7828 23.0925 41.7828 23.0925L29.1678 19.5436ZM40.7109 38.8169C32.3932 36.4036 31.1104 29.8341 31.1104 29.8341L53.4542 36.0216C53.4542 36.0206 48.9441 41.2 40.7109 38.8169ZM48.6107 25.3159C48.6107 25.3159 51.395 21.0239 56.1229 22.359C60.8506 23.6922 61.2229 28.8736 61.2229 28.8736L48.6107 25.3159Z" fill="#2EAD33"/>
<path d="M23.7702 34.2622L15.5478 36.5704C15.5478 36.5704 16.441 31.5306 22.4982 29.5333L17.8422 12.2266L17.4399 12.3477C11.6664 13.8898 6.99879 13.4807 5.05129 13.1467C2.29038 12.6751 0.846267 12.0743 0.981342 14.1546C1.09894 15.9891 1.54013 18.8334 2.55081 22.5904C4.7374 30.7257 11.9638 46.4019 25.6206 42.7587L26.023 42.6335L23.7702 34.2622ZM7.7918 22.7021L17.4973 20.1695C17.4973 20.1695 17.2144 23.8676 13.576 24.8176C9.93659 25.7667 7.7918 22.7021 7.7918 22.7021Z" fill="#D65348"/>
<path d="M41.086 38.9072L40.7098 38.8167C32.3922 36.4036 31.1094 29.8341 31.1094 29.8341L42.6312 33.0241L48.7312 9.80723L48.6574 9.78795C41.1754 7.80332 36.2115 4.33226 34.2445 2.70073C31.4564 0.387703 30.2299 -1.21976 29.023 1.21166C27.9569 3.35623 26.5924 6.84646 25.2717 11.7324C22.4098 22.3128 20.2708 44.6402 37.9625 49.3383L38.3251 49.4193L41.086 38.9072ZM29.1678 19.5436C29.1678 19.5436 31.9558 15.2485 36.6846 16.5798C41.4163 17.9111 41.7828 23.0925 41.7828 23.0925L29.1678 19.5436Z" fill="#1D8D22"/>
<path d="M24.1877 34.1444L21.9827 34.7642C22.5036 37.673 23.4218 40.4644 24.863 42.9305C25.1139 42.8757 25.3627 42.8285 25.6182 42.7592C26.2878 42.5802 26.9087 42.3587 27.5065 42.117C25.8962 39.7502 24.831 37.0242 24.1877 34.1444ZM23.3267 13.6573C22.1936 17.8463 21.1798 23.8757 21.4589 29.9234C21.9583 29.7087 22.486 29.5087 23.072 29.344L23.4802 29.2536C22.9826 22.7938 24.0584 16.211 25.2702 11.7322C25.5774 10.5992 25.8855 9.54527 26.1925 8.5625C25.6979 8.87422 25.1654 9.19378 24.5588 9.52298C24.1498 10.7735 23.7368 12.1403 23.3267 13.6573Z" fill="#C04B41"/>
</svg>
