<svg width="78" height="13" viewBox="0 0 78 13" fill="none" xmlns="http://www.w3.org/2000/svg">
<g opacity="0.2">
<path fill-rule="evenodd" clip-rule="evenodd" d="M26.1964 1.97484C24.7947 3.32338 22.1011 4.23857 18.9939 4.23857C16.6839 4.23857 14.5958 3.72435 13.0982 2.90622C11.3776 1.95867 9.00293 0.642488 5.89564 0.642488C3.58453 0.642488 1.4976 1.15671 0 1.97484V1.33235C1.4976 0.513066 3.58569 0 5.89564 0C9.00293 0 11.3776 1.31618 13.0982 2.26373C14.5958 3.08302 16.6839 3.59609 18.9939 3.59609C22.1011 3.59609 24.7936 2.68089 26.1964 1.33235V1.97484Z" fill="#010202"/>
<path fill-rule="evenodd" clip-rule="evenodd" d="M26.1964 4.70305C24.7947 6.05159 22.1011 6.96679 18.9939 6.96679C16.6839 6.96679 14.5958 6.45257 13.0982 5.63443C11.3776 4.68688 9.00293 3.3707 5.89564 3.3707C3.58453 3.3707 1.4976 3.88492 0 4.70305V4.06057C1.4976 3.24128 3.58569 2.72821 5.89564 2.72821C9.00293 2.72821 11.3776 4.04439 13.0982 4.99194C14.5958 5.81123 16.6839 6.3243 18.9939 6.3243C22.1011 6.3243 24.7936 5.4091 26.1964 4.06057V4.70305Z" fill="#010202"/>
<path fill-rule="evenodd" clip-rule="evenodd" d="M26.1964 7.43255C24.7947 8.78108 22.1011 9.69628 18.9939 9.69628C16.6839 9.69628 14.5958 9.18206 13.0982 8.36393C11.3776 7.41637 9.00293 6.10019 5.89564 6.10019C3.58453 6.10019 1.4976 6.61442 0 7.43255V6.79006C1.4976 5.97077 3.58569 5.4577 5.89564 5.4577C9.00293 5.4577 11.3776 6.77388 13.0982 7.72144C14.5958 8.54073 16.6839 9.05379 18.9939 9.05379C22.1011 9.05379 24.7936 8.13859 26.1964 6.79006V7.43255Z" fill="#010202"/>
<path fill-rule="evenodd" clip-rule="evenodd" d="M26.1964 10.162C24.7947 11.5105 22.1011 12.4257 18.9939 12.4257C16.6839 12.4257 14.5958 11.9115 13.0982 11.0934C11.3776 10.1458 9.00293 8.82962 5.89564 8.82962C3.58453 8.82962 1.4976 9.34384 0 10.162V9.51949C1.4976 8.7002 3.58569 8.18713 5.89564 8.18713C9.00293 8.18713 11.3776 9.50331 13.0982 10.4509C14.5958 11.2702 16.6839 11.7832 18.9939 11.7832C22.1011 11.7832 24.7936 10.868 26.1964 9.51949V10.162Z" fill="#010202"/>
</g>
<path fill-rule="evenodd" clip-rule="evenodd" d="M10.8828 1.55648H12.2371V9.72857H10.8828V11.0933H15.2809V9.72857H13.863V6.91942H15.074C16.6201 6.91942 17.6393 6.74262 18.3881 5.98804C18.8504 5.52235 19.2964 4.67186 19.2964 3.56368C19.2964 2.18279 18.6747 0.191772 15.6795 0.191772H10.8828V1.55648ZM17.6393 3.5475C17.6393 4.67186 17.2095 5.60208 15.2173 5.60208H13.863V1.55648H15.7269C16.9217 1.55648 17.6393 2.26368 17.6393 3.5475Z" fill="#010202"/>
<path fill-rule="evenodd" clip-rule="evenodd" d="M27.7415 7.30426C27.7415 5.00817 26.052 3.29102 23.7895 3.29102C21.5107 3.29102 19.8213 5.00933 19.8213 7.30426C19.8213 9.60035 21.5107 11.3175 23.7733 11.3175C26.0359 11.3175 27.7415 9.60035 27.7415 7.30426ZM26.148 7.30426C26.148 8.78106 25.1276 9.87306 23.7733 9.87306C22.4352 9.87306 21.4148 8.78106 21.4148 7.30426C21.4148 5.84364 22.4352 4.73546 23.7733 4.73546C25.1288 4.73546 26.148 5.84364 26.148 7.30426Z" fill="#010202"/>
<path fill-rule="evenodd" clip-rule="evenodd" d="M29.001 8.49214H30.3241V8.74868C30.4512 9.50325 31.1364 9.96894 32.1244 9.96894C33.0651 9.96894 33.6706 9.59917 33.6706 9.02139C33.6706 7.60815 31.0255 8.50717 29.5915 7.06272C29.2413 6.70912 29.0021 6.17988 29.0021 5.61828C29.0021 4.31828 30.1172 3.3869 31.6472 3.3869C32.3324 3.3869 32.9853 3.54752 33.4799 3.82023V3.51517H34.7868V6.01926H33.4799V5.55357C33.05 4.91108 32.4919 4.62219 31.7269 4.62219C30.9308 4.62219 30.4038 4.99197 30.4038 5.55357C30.4038 6.82237 33.3043 6.08281 34.5465 7.33543C34.9925 7.78494 35.1843 8.3789 35.1843 8.9093C35.1843 10.2902 34.0207 11.2216 32.3001 11.2216C31.4877 11.2216 30.866 11.0448 30.3241 10.6761V11.0933H29.001V8.49214Z" fill="#010202"/>
<path fill-rule="evenodd" clip-rule="evenodd" d="M36.124 3.5152H37.0958V2.34347L38.5934 0.97876V3.5152H39.9801V4.83138H38.5934V9.2144C38.5934 9.9528 39.2463 9.92045 39.9801 9.66391V11.0124C39.63 11.1245 39.2313 11.2216 38.8812 11.2216C37.8296 11.2216 37.097 10.7397 37.097 9.42355V4.83254H36.1252V3.5152H36.124Z" fill="#010202"/>
<path fill-rule="evenodd" clip-rule="evenodd" d="M42.2748 4.8325H41.0164V3.51517H43.7724V4.46272C44.6483 3.75668 45.493 3.3869 46.3215 3.3869C47.1663 3.3869 47.8191 3.80406 48.1381 4.57481C49.222 3.72432 49.9858 3.3869 50.8467 3.3869C52.0901 3.3869 52.855 4.15766 52.855 5.47383V9.77597H54.1458V11.0921H51.3575V5.8101C51.3575 5.0717 51.0235 4.70192 50.4492 4.70192C49.8437 4.70192 49.0637 5.0717 48.3137 5.69686V9.77481H49.6045V11.091H46.8161V5.8413C46.8161 5.03819 46.3701 4.76548 45.8917 4.76548C45.3497 4.76548 44.6807 5.05437 43.7724 5.69686V9.77481H45.0631V11.091H40.9043V9.77481H42.2748V4.8325Z" fill="#010202"/>
<path fill-rule="evenodd" clip-rule="evenodd" d="M59.9138 11.0933H62.5265V9.77714H61.2357V5.6183C61.2357 4.39803 60.4869 3.28986 58.2879 3.28986C56.7579 3.28986 55.674 3.88381 55.0373 5.05554L56.4552 5.44034C56.7903 4.84639 57.3473 4.54132 58.0649 4.54132C58.957 4.54132 59.7381 4.92612 59.7381 6.00194V6.99687C59.1326 6.5959 58.3526 6.35439 57.6824 6.35439C56.1363 6.35439 54.9414 7.43021 54.9414 8.8111C54.9414 10.1596 56.0565 11.2193 57.4906 11.2193C58.3191 11.2193 58.972 10.9304 59.9126 10.1596V11.0933H59.9138ZM57.7933 7.51341C58.4312 7.51341 59.1002 7.76994 59.737 8.26799V9.16701C59.1314 9.72861 58.3827 10.066 57.7136 10.066C56.9174 10.066 56.3593 9.55181 56.3593 8.81341C56.3604 8.05883 56.9659 7.51341 57.7933 7.51341Z" fill="#010202"/>
<path fill-rule="evenodd" clip-rule="evenodd" d="M64.5665 4.8325H63.0527V3.51517H65.7452V5.2173H65.7775C66.2559 3.9485 67.2116 3.3869 68.1522 3.3869H69.124V4.89606H68.3267C66.5899 4.89606 66.0641 5.87481 66.0641 7.6093V9.77712H67.69V11.0933H63.0851V9.77712H64.5665V4.8325Z" fill="#010202"/>
<path fill-rule="evenodd" clip-rule="evenodd" d="M70.765 1.50911H69.4107V0.192932H72.2626V7.00031L75.0833 4.76893V4.73657H73.8249V3.51515H78V4.73542H76.8363L74.0156 7.09506L76.6768 9.77595H77.9676V11.0921H76.0552L72.2626 7.27071V9.77479H73.3777V11.091H69.3945V9.77479H70.765V1.50911Z" fill="#010202"/>
</svg>
