<svg width="70" height="63" viewBox="0 0 70 63" fill="none" xmlns="http://www.w3.org/2000/svg">
<path d="M33.1704 23.1528C33.7428 22.3091 34.3695 22.2018 34.8779 22.2018C35.3862 22.2018 36.2331 22.3091 36.8058 23.1528C41.3181 29.3507 48.7663 41.697 54.2607 50.8043C57.8436 56.7436 60.5956 61.3052 61.1602 61.8857C63.2797 64.065 66.1865 62.7068 67.8756 60.2349C69.5385 57.8013 70 56.0925 70 54.2694C70 53.0278 45.9088 8.22265 43.4826 4.49318C41.1494 0.906061 40.3894 0 36.396 0H33.4077C29.4261 0 28.8508 0.906061 26.5173 4.49318C24.0913 8.22265 0 53.0278 0 54.2694C0 56.0925 0.46164 57.8013 2.12456 60.2349C3.81364 62.7068 6.72041 64.065 8.83983 61.8857C9.4045 61.3052 12.1565 56.7436 15.7395 50.8043C21.2337 41.697 28.6581 29.3507 33.1704 23.1528Z" fill="#000020"/>
</svg>
