<svg width="78" height="78" viewBox="0 0 78 78" fill="none" xmlns="http://www.w3.org/2000/svg">
<path d="M39 44.7581C42.4518 44.7581 45.25 41.9279 45.25 38.4367C45.25 34.9454 42.4518 32.1152 39 32.1152C35.5482 32.1152 32.75 34.9454 32.75 38.4367C32.75 41.9279 35.5482 44.7581 39 44.7581Z" fill="#00D8FF"/>
<path d="M39 52.9303C31.4878 53.1141 23.9945 52.0899 16.8 49.896C13.4766 48.8305 10.3768 47.1519 7.6575 44.9451C6.61982 44.1912 5.75568 43.2192 5.12436 42.0957C4.49303 40.9723 4.10947 39.724 4 38.4365C4 34.2568 8.54 30.1605 16.145 27.4802C23.5318 25.1052 31.2498 23.9542 39 24.0716C46.6468 23.9636 54.2614 25.0938 61.555 27.4195C64.7557 28.4515 67.7503 30.049 70.4 32.1378C71.4199 32.8565 72.2711 33.7933 72.8932 34.8818C73.5154 35.9703 73.8932 37.1839 74 38.4365C74 42.7806 68.925 47.1829 60.75 49.9188C53.6948 52.0412 46.3596 53.0569 39 52.9303ZM39 27.0958C31.5853 26.9956 24.2021 28.0898 17.1275 30.3375C10.1275 32.8079 6.99 36.1861 6.99 38.4289C6.99 40.7755 10.3625 44.4647 17.7675 47.0261C24.6502 49.1143 31.8165 50.0864 39 49.9062C46.041 50.0335 53.0598 49.0699 59.8125 47.0489C67.5 44.4722 71 40.778 71 38.4365C70.8739 37.633 70.5844 36.8647 70.1497 36.1801C69.7151 35.4955 69.1449 34.9094 68.475 34.4591C66.1044 32.606 63.4292 31.1902 60.5725 30.2768C53.5951 28.0611 46.3124 26.9873 39 27.0958Z" fill="#00D8FF"/>
<path d="M24.8 69.9654C23.6338 69.9925 22.4813 69.7063 21.46 69.136C17.88 67.0474 16.64 61.0243 18.1425 53.0214C19.7991 45.3625 22.6695 38.0251 26.6425 31.2933C30.3693 24.5397 35.1405 18.4327 40.775 13.2038C43.2579 10.9147 46.1222 9.08864 49.235 7.81033C50.3609 7.27665 51.5891 7 52.8325 7C54.0759 7 55.3041 7.27665 56.43 7.81033C60.1525 9.97986 61.385 16.625 59.6475 25.1539C57.9397 32.3972 55.1439 39.3327 51.3575 45.7188C47.7618 52.3927 43.1409 58.4465 37.6675 63.6541C35.0945 66.0329 32.1083 67.9095 28.86 69.1891C27.5596 69.6773 26.1869 69.9398 24.8 69.9654ZM29.2325 32.7952C25.4427 39.2414 22.6917 46.2567 21.0825 53.5777C19.7 60.9485 21.0275 65.3811 22.9575 66.5088C24.9575 67.6796 29.8125 66.5695 35.7075 61.3606C40.9326 56.3716 45.3431 50.5768 48.775 44.1916C52.4023 38.0863 55.0842 31.4555 56.7275 24.5293C58.3625 16.5011 56.95 11.5855 54.945 10.4173C54.1935 10.1261 53.3905 9.99571 52.5867 10.0344C51.7828 10.0732 50.9957 10.2802 50.275 10.6423C47.5042 11.7988 44.9568 13.4405 42.75 15.4922C37.3667 20.5007 32.8092 26.3472 29.25 32.8104L29.2325 32.7952Z" fill="#00D8FF"/>
<path d="M53.1921 69.9983C49.8046 69.9983 45.5021 67.9248 41.0221 64.0283C35.2889 58.7518 30.4371 52.5723 26.6546 45.7289C22.7315 39.0898 19.8838 31.8585 18.2196 24.3093C17.4979 20.988 17.3642 17.5636 17.8246 14.195C17.9311 12.9454 18.3073 11.7346 18.9267 10.6481C19.5461 9.56151 20.3937 8.62563 21.4096 7.90642C25.1271 5.72931 31.4346 7.9671 37.8721 13.7474C43.2236 18.8607 47.7681 24.7738 51.3471 31.2806C55.2679 37.7648 58.1454 44.8377 59.8721 52.235C60.6249 55.6782 60.741 59.2326 60.2146 62.7185C60.0894 64.004 59.6907 65.247 59.0461 66.3621C58.4014 67.4772 57.5259 68.4382 56.4796 69.179C55.475 69.7422 54.3404 70.0249 53.1921 69.9983ZM29.2421 44.2067C32.8707 50.7467 37.5053 56.6609 42.9721 61.7273C48.5946 66.6201 53.0546 67.672 54.9721 66.5316C56.9721 65.3558 58.4471 60.5565 56.9271 52.7913C55.2618 45.7288 52.5018 38.9774 48.7496 32.7877C45.3342 26.5601 40.9965 20.8979 35.8871 15.9979C29.8271 10.5564 24.9121 9.34013 22.9096 10.5134C22.2855 11.0264 21.7733 11.6647 21.4054 12.388C21.0375 13.1114 20.8219 13.904 20.7721 14.7159C20.3746 17.7201 20.5041 20.7716 21.1546 23.7303C22.7554 30.9497 25.4865 37.8641 29.2446 44.2118L29.2421 44.2067Z" fill="#00D8FF"/>
</svg>
