<svg width="58" height="42" viewBox="0 0 58 42" fill="none" xmlns="http://www.w3.org/2000/svg">
<path d="M24.1826 4.96081C26.035 2.9912 28.6139 1.7696 31.466 1.7696C35.2575 1.7696 38.5653 3.92707 40.3269 7.1299C41.8577 6.43194 43.5522 6.04365 45.3349 6.04365C52.1732 6.04365 57.7171 11.7505 57.7171 18.7899C57.7171 25.8301 52.1732 31.537 45.3349 31.537C44.5159 31.5375 43.6988 31.4544 42.8959 31.289C41.3447 34.1127 38.3886 36.0206 34.9956 36.0206C33.5753 36.0206 32.2318 35.6858 31.0357 35.0905C29.4631 38.8652 25.7993 41.512 21.5293 41.512C17.0825 41.512 13.2927 38.6406 11.838 34.6137C11.2023 34.7515 10.5436 34.8233 9.86781 34.8233C4.57342 34.8233 0.28125 30.3981 0.28125 24.9385C0.28125 21.2797 2.20969 18.0852 5.07493 16.3761C4.48505 14.991 4.15694 13.4622 4.15694 11.8548C4.15694 5.5761 9.15191 0.486328 15.3128 0.486328C18.9299 0.486328 22.1446 2.24137 24.1826 4.96081Z" fill="#00A1E0"/>
<path d="M8.60086 21.7608C8.56487 21.8569 8.61397 21.8769 8.62541 21.8936C8.73339 21.9737 8.84308 22.0314 8.95353 22.0957C9.53933 22.4129 10.0925 22.5055 10.6709 22.5055C11.8491 22.5055 12.5805 21.866 12.5805 20.8365V20.8165C12.5805 19.8646 11.755 19.519 10.9802 19.2693L10.8796 19.2359C10.2954 19.0422 9.79138 18.8753 9.79138 18.4828V18.462C9.79138 18.1264 10.0859 17.8792 10.5425 17.8792C11.0497 17.8792 11.6519 18.0512 12.0397 18.2699C12.0397 18.2699 12.1534 18.3451 12.1952 18.2324C12.2181 18.1722 12.4145 17.6329 12.4349 17.5744C12.457 17.5109 12.4177 17.4642 12.3777 17.4391C11.935 17.1644 11.323 16.9766 10.6898 16.9766L10.572 16.9774C9.49362 16.9774 8.74092 17.642 8.74092 18.5947V18.6147C8.74092 19.6191 9.57135 19.9448 10.3495 20.1719L10.4746 20.2111C11.0416 20.389 11.5301 20.5417 11.5301 20.9492V20.9693C11.5301 21.3417 11.2127 21.6188 10.7005 21.6188C10.5017 21.6188 9.86756 21.6147 9.18276 21.1729C9.10008 21.1237 9.05184 21.0878 8.98802 21.0486C8.95451 21.0268 8.87022 20.9892 8.83343 21.1028L8.60086 21.7608ZM25.8488 21.7608C25.8128 21.8569 25.8619 21.8769 25.8733 21.8936C25.9813 21.9737 26.091 22.0314 26.2014 22.0957C26.7872 22.4129 27.3404 22.5055 27.9188 22.5055C29.0969 22.5055 29.8284 21.866 29.8284 20.8365V20.8165C29.8284 19.8646 29.0029 19.519 28.228 19.2693L28.1274 19.2359C27.5432 19.0422 27.0392 18.8753 27.0392 18.4828V18.462C27.0392 18.1264 27.3337 17.8792 27.7903 17.8792C28.2975 17.8792 28.8997 18.0512 29.2876 18.2699C29.2876 18.2699 29.4013 18.3451 29.443 18.2324C29.4659 18.1722 29.6622 17.6329 29.6827 17.5744C29.7048 17.5109 29.6655 17.4642 29.6255 17.4391C29.1828 17.1644 28.5708 16.9766 27.9376 16.9766L27.8197 16.9774C26.7414 16.9774 25.9886 17.642 25.9886 18.5947V18.6147C25.9886 19.6191 26.8191 19.9448 27.5972 20.1719L27.7224 20.2111C28.2894 20.389 28.7787 20.5417 28.7787 20.9492V20.9693C28.7787 21.3417 28.4604 21.6188 27.9482 21.6188C27.7494 21.6188 27.1153 21.6147 26.4305 21.1729C26.3479 21.1237 26.2988 21.0894 26.2367 21.0486C26.2153 21.0344 26.1155 20.9951 26.0812 21.1028L25.8488 21.7608ZM37.6235 19.7443C37.6235 20.3262 37.5171 20.7846 37.3077 21.1086C37.1006 21.4292 36.7873 21.5853 36.3505 21.5853C35.9128 21.5853 35.601 21.43 35.3973 21.1086C35.191 20.7855 35.0864 20.3262 35.0864 19.7443C35.0864 19.1632 35.191 18.7056 35.3973 18.385C35.601 18.0677 35.9128 17.9133 36.3505 17.9133C36.7873 17.9133 37.1007 18.0677 37.3085 18.385C37.5172 18.7056 37.6235 19.1631 37.6235 19.7443ZM38.607 18.6655C38.5104 18.3323 38.3598 18.0385 38.1594 17.7939C37.9589 17.5484 37.7053 17.3514 37.4042 17.2077C37.1039 17.065 36.7489 16.9923 36.3505 16.9923C35.9512 16.9923 35.5961 17.065 35.2958 17.2077C34.9947 17.3514 34.7411 17.5484 34.5398 17.7939C34.3402 18.0393 34.1896 18.3332 34.0923 18.6655C33.9966 18.997 33.9483 19.3593 33.9483 19.7443C33.9483 20.1292 33.9966 20.4924 34.0923 20.823C34.1896 21.1553 34.3394 21.4493 34.5407 21.6947C34.7411 21.9402 34.9956 22.1364 35.2959 22.2758C35.5969 22.4153 35.9512 22.4862 36.3505 22.4862C36.7489 22.4862 37.1032 22.4153 37.4042 22.2758C37.7045 22.1364 37.9589 21.9401 38.1595 21.6947C38.3599 21.45 38.5104 21.1562 38.607 20.823C38.7036 20.4916 38.7518 20.1283 38.7518 19.7443C38.7518 19.3602 38.7035 18.997 38.607 18.6655ZM46.6829 21.4299C46.6502 21.3322 46.5577 21.369 46.5577 21.369C46.4146 21.4249 46.2623 21.4767 46.1004 21.5026C45.9359 21.5284 45.7551 21.5418 45.5611 21.5418C45.085 21.5418 44.707 21.3974 44.4362 21.1118C44.1646 20.8262 44.0124 20.3646 44.014 19.74C44.0156 19.1714 44.1498 18.7439 44.3912 18.4183C44.6309 18.0944 44.9958 17.9282 45.4826 17.9282C45.8885 17.9282 46.1977 17.9757 46.5217 18.0801C46.5217 18.0801 46.5994 18.1143 46.6362 18.0108C46.7221 17.767 46.7859 17.5925 46.8775 17.3245C46.9038 17.2485 46.84 17.2159 46.817 17.2067C46.6894 17.1558 46.3883 17.0732 46.1608 17.0381C45.9481 17.0047 45.6994 16.9872 45.4229 16.9872C45.0096 16.9872 44.6415 17.059 44.3265 17.2026C44.0123 17.3454 43.7456 17.5424 43.5345 17.7879C43.3234 18.0334 43.1631 18.3272 43.0559 18.6596C42.9495 18.991 42.8956 19.3551 42.8956 19.74C42.8956 20.5724 43.1156 21.2453 43.5501 21.738C43.9853 22.2323 44.6391 22.4836 45.4917 22.4836C45.9957 22.4836 46.5128 22.3793 46.8842 22.2298C46.8842 22.2298 46.9554 22.1947 46.9243 22.1105L46.6829 21.4299ZM48.4036 19.1868C48.4502 18.8637 48.5378 18.5948 48.6728 18.3853C48.8765 18.0672 49.1874 17.8927 49.6244 17.8927C50.0613 17.8927 50.3501 18.068 50.5571 18.3853C50.6945 18.5948 50.7543 18.8754 50.778 19.1868H48.4036ZM51.7148 18.4762C51.6313 18.1547 51.4243 17.8299 51.2885 17.6813C51.0741 17.4459 50.8647 17.2814 50.6569 17.1895C50.3852 17.071 50.0596 16.9925 49.7029 16.9925C49.2873 16.9925 48.9101 17.0635 48.6041 17.2104C48.2973 17.3574 48.0396 17.5578 47.8375 17.8075C47.6353 18.0562 47.4832 18.3526 47.3866 18.6891C47.2893 19.024 47.2402 19.3888 47.2402 19.7737C47.2402 20.1653 47.2909 20.5302 47.3915 20.8583C47.493 21.189 47.655 21.4803 47.8743 21.7216C48.0927 21.9646 48.3742 22.155 48.7112 22.2876C49.0459 22.4196 49.4526 22.4881 49.9197 22.4872C50.8811 22.4838 51.3875 22.2651 51.5961 22.1474C51.633 22.1265 51.6682 22.0898 51.6239 21.9846L51.4063 21.3625C51.3736 21.2699 51.2811 21.3041 51.2811 21.3041C51.043 21.3942 50.7044 21.5562 49.9148 21.5546C49.3985 21.5538 49.0156 21.3985 48.7758 21.1555C48.5296 20.9067 48.4093 20.5409 48.388 20.025L51.7172 20.0283C51.7172 20.0283 51.8047 20.0267 51.8138 19.9398C51.817 19.9032 51.9283 19.2419 51.7148 18.4762ZM21.7419 19.1868C21.7893 18.8637 21.8761 18.5948 22.0111 18.3853C22.2148 18.0672 22.5257 17.8927 22.9626 17.8927C23.3995 17.8927 23.6883 18.068 23.8961 18.3853C24.0327 18.5948 24.0925 18.8754 24.1162 19.1868H21.7419ZM25.0522 18.4762C24.9688 18.1547 24.7626 17.8299 24.6268 17.6813C24.4124 17.4459 24.203 17.2814 23.9952 17.1895C23.7235 17.071 23.3979 16.9925 23.0412 16.9925C22.6264 16.9925 22.2484 17.0635 21.9424 17.2104C21.6356 17.3574 21.3779 17.5578 21.1758 17.8075C20.9737 18.0562 20.8215 18.3526 20.725 18.6891C20.6284 19.024 20.5785 19.3888 20.5785 19.7737C20.5785 20.1653 20.6292 20.5302 20.7299 20.8583C20.8314 21.189 20.9934 21.4803 21.2126 21.7216C21.4311 21.9646 21.7125 22.155 22.0496 22.2876C22.3843 22.4196 22.7909 22.4881 23.2581 22.4872C24.2194 22.4838 24.7259 22.2651 24.9345 22.1474C24.9714 22.1265 25.0065 22.0898 24.9623 21.9846L24.7455 21.3625C24.712 21.2699 24.6196 21.3041 24.6196 21.3041C24.3815 21.3942 24.0435 21.5562 23.2524 21.5546C22.7369 21.5538 22.354 21.3985 22.1143 21.1555C21.868 20.9067 21.7478 20.5409 21.7264 20.025L25.0556 20.0283C25.0556 20.0283 25.1431 20.0267 25.1521 19.9398C25.1553 19.9032 25.2665 19.2419 25.0522 18.4762ZM14.546 21.4113C14.4159 21.3052 14.3979 21.2785 14.3537 21.2101C14.2882 21.1057 14.2547 20.9571 14.2547 20.7684C14.2547 20.4695 14.3512 20.2549 14.5517 20.1105C14.5493 20.1113 14.8381 19.8558 15.5171 19.865C15.9941 19.8717 16.4204 19.9435 16.4204 19.9435V21.4881H16.4212C16.4212 21.4881 15.9982 21.5808 15.522 21.61C14.8446 21.6518 14.5435 21.4105 14.546 21.4113ZM15.8706 19.0242C15.7356 19.0142 15.5604 19.0083 15.351 19.0083C15.0655 19.0083 14.7897 19.045 14.5312 19.116C14.271 19.187 14.037 19.2981 13.8358 19.4449C13.6348 19.5913 13.4696 19.7831 13.353 20.0052C13.2352 20.229 13.1755 20.4928 13.1755 20.7884C13.1755 21.089 13.2262 21.3503 13.3277 21.5641C13.4292 21.7787 13.5756 21.9573 13.7621 22.0951C13.947 22.2329 14.1753 22.3339 14.4404 22.3948C14.7014 22.4558 14.9975 22.4867 15.3216 22.4867C15.6627 22.4867 16.0031 22.4583 16.3328 22.4006C16.6593 22.3438 17.0602 22.2612 17.1714 22.2354C17.2494 22.2162 17.3272 22.1959 17.4046 22.1744C17.4873 22.1536 17.4807 22.0633 17.4807 22.0633L17.4791 18.9566C17.4791 18.2752 17.3007 17.77 16.9497 17.457C16.6003 17.1447 16.0857 16.9868 15.4206 16.9868C15.171 16.9868 14.7693 17.022 14.5287 17.0712C14.5287 17.0712 13.8014 17.2148 13.5019 17.4536C13.5019 17.4536 13.4365 17.4954 13.4725 17.5889L13.7081 18.2352C13.7376 18.3187 13.817 18.2903 13.817 18.2903C13.817 18.2903 13.8423 18.2802 13.8718 18.2627C14.5125 17.907 15.3224 17.9179 15.3224 17.9179C15.6824 17.9179 15.959 17.9913 16.1455 18.1374C16.3271 18.2794 16.4196 18.4939 16.4196 18.9465V19.0901C16.1332 19.0484 15.8706 19.0242 15.8706 19.0242ZM42.7216 17.2737C42.7469 17.1968 42.6938 17.1601 42.6717 17.1518C42.6153 17.1292 42.3322 17.0683 42.1137 17.0541C41.6957 17.0282 41.4633 17.1 41.2554 17.1952C41.0493 17.2903 40.8202 17.4439 40.6925 17.6185V17.2052C40.6925 17.1476 40.6525 17.1017 40.5968 17.1017H39.7434C39.6878 17.1017 39.6478 17.1475 39.6478 17.2052V22.2724C39.6478 22.3292 39.6936 22.376 39.7492 22.376H40.6238C40.6506 22.3758 40.6762 22.3649 40.6951 22.3454C40.714 22.326 40.7245 22.2998 40.7244 22.2724V19.7409C40.7244 19.4011 40.7613 19.0622 40.8349 18.8492C40.9069 18.6388 41.0051 18.4702 41.1262 18.3491C41.2481 18.2289 41.3864 18.1445 41.5377 18.097C41.6923 18.0485 41.8633 18.0327 41.9845 18.0327C42.1587 18.0327 42.3502 18.0785 42.3502 18.0785C42.4139 18.086 42.45 18.046 42.4712 17.9867C42.5285 17.8314 42.6905 17.3663 42.7216 17.2737Z" fill="white"/>
<path d="M34.5123 14.9258C34.4059 14.8924 34.3094 14.8698 34.1833 14.8456C34.0556 14.8223 33.9035 14.8105 33.7309 14.8105C33.1287 14.8105 32.6541 14.9842 32.3212 15.3265C31.9898 15.6672 31.7648 16.1857 31.6518 16.8679L31.6109 17.0975H30.855C30.855 17.0975 30.7633 17.0941 30.7437 17.196L30.6202 17.9032C30.6112 17.97 30.6398 18.0126 30.7282 18.0126H31.4637L30.7175 22.2641C30.6594 22.6064 30.5923 22.8878 30.5178 23.1015C30.445 23.312 30.3739 23.4697 30.2855 23.585C30.2004 23.6952 30.1202 23.777 29.9811 23.8246C29.8666 23.8638 29.734 23.8822 29.5892 23.8822C29.509 23.8822 29.4019 23.8687 29.3225 23.8521C29.244 23.8362 29.2022 23.8187 29.1425 23.7928C29.1425 23.7928 29.0566 23.7594 29.0222 23.8471C28.9952 23.9197 28.7988 24.4699 28.7751 24.5376C28.7522 24.6052 28.7849 24.6578 28.8266 24.6737C28.9248 24.7088 28.9976 24.7321 29.131 24.7647C29.3159 24.809 29.4722 24.8114 29.6186 24.8114C29.9246 24.8114 30.2044 24.7672 30.436 24.6821C30.6684 24.596 30.8712 24.4465 31.0512 24.2445C31.2451 24.0258 31.367 23.797 31.4833 23.4839C31.5986 23.175 31.6977 22.7909 31.7761 22.3434L32.5264 18.0126H33.6228C33.6228 18.0126 33.7152 18.0159 33.7341 17.9132L33.8584 17.2069C33.8666 17.1393 33.8388 17.0975 33.7495 17.0975H32.6851C32.6909 17.0733 32.7391 16.6909 32.861 16.3311C32.9134 16.1783 33.0116 16.0539 33.0942 15.9687C33.1761 15.8852 33.2702 15.8259 33.3733 15.7917C33.4788 15.7566 33.5991 15.7399 33.7309 15.7399C33.8307 15.7399 33.9296 15.7516 34.0041 15.7674C34.1072 15.79 34.1472 15.8017 34.1743 15.8101C34.2831 15.8435 34.2978 15.8109 34.3191 15.7575L34.5736 15.0445C34.5998 14.9675 34.5351 14.9349 34.5123 14.9258ZM19.6399 22.2733C19.6399 22.3301 19.5998 22.376 19.5441 22.376H18.6613C18.6057 22.376 18.5664 22.3301 18.5664 22.2733V15.0226C18.5664 14.9659 18.6057 14.92 18.6613 14.92H19.5441C19.5998 14.92 19.6399 14.9659 19.6399 15.0226V22.2733Z" fill="white"/>
</svg>
