<svg width="78" height="78" viewBox="0 0 78 78" fill="none" xmlns="http://www.w3.org/2000/svg">
<mask id="mask0_2918_3926" style="mask-type:luminance" maskUnits="userSpaceOnUse" x="4" y="4" width="70" height="70">
<path d="M74 4H4V74H74V4Z" fill="white"/>
</mask>
<g mask="url(#mask0_2918_3926)">
<mask id="mask1_2918_3926" style="mask-type:luminance" maskUnits="userSpaceOnUse" x="4" y="2" width="70" height="74">
<path d="M73.1775 2.84656H4.81934V75.1506H73.1775V2.84656Z" fill="white"/>
</mask>
<g mask="url(#mask1_2918_3926)">
<path d="M34.979 71.0368C31.5788 71.0595 28.1787 71.1623 24.8421 70.2643C17.8316 68.3775 12.5946 64.1383 8.71065 58.1242C6.06492 54.0271 4.8887 49.4779 4.85393 44.6309C4.81765 39.468 4.80253 34.3035 4.85091 29.1405C4.92045 21.669 7.94717 15.4976 13.2674 10.3649C17.056 6.70928 21.4706 4.24044 26.6835 3.28344C28.1621 3.00979 29.6633 2.86768 31.1676 2.86163C36.4016 2.84651 41.6341 2.84651 46.8681 2.86012C53.8257 2.88129 59.8322 5.28663 64.8909 10.0731C69.5277 14.456 72.3035 19.7641 73.0125 26.1199C73.1183 27.0859 73.1697 28.0581 73.1697 29.0302C73.1833 35.4434 73.1849 41.8582 73.1758 48.2715C73.1743 52.6362 69.954 55.8655 65.5818 55.8745C60.4642 55.8851 55.3466 55.8715 50.229 55.8836C49.4867 55.8851 48.764 55.6493 48.0171 55.74C47.1509 55.1745 46.2891 54.6031 45.4183 54.0467C45.1703 53.888 44.8665 53.8094 44.738 53.504C43.9352 52.0012 43.2261 50.4606 42.9646 48.7401C42.6652 49.7228 42.4747 50.7191 41.9607 51.6051C40.4352 50.5226 38.9854 49.3388 37.6172 48.0628C37.7396 48.0084 37.8591 47.9464 37.9845 47.8995C40.5774 46.932 42.1784 45.0799 42.7635 42.3964C43.1112 40.8014 42.892 39.1686 42.892 37.5525C43.8626 35.3119 44.8982 33.1016 46.0805 30.9623C46.3103 30.5345 46.6005 30.1414 46.9437 29.7982C47.872 28.8926 49.0392 28.9894 49.786 30.0492C50.0974 30.5057 50.3454 31.0031 50.5208 31.5262C50.3575 31.6366 50.3862 31.8074 50.3862 31.9662C50.3892 36.1782 50.3635 40.3902 50.4074 44.6022C50.4331 47.1648 51.6743 48.3319 54.2641 48.3486C56.7405 48.3652 59.2169 48.3607 61.6933 48.3531C64.2483 48.3455 65.5319 47.0726 65.5485 44.5054C65.5636 42.1681 65.5485 39.8308 65.547 37.4935C66.8789 36.7996 68.3228 36.343 69.8104 36.1464C70.137 36.1056 70.3895 36.0406 70.4938 35.6868C70.6782 35.0625 70.6828 34.4592 70.335 33.8832C69.8573 33.097 69.1301 32.958 68.3696 33.478C67.5215 34.0571 66.6053 34.4804 65.5697 34.6013L65.5319 30.5859C65.6755 30.2971 65.9779 30.1958 66.2152 30.0204C66.882 29.5291 67.0014 28.8624 66.5403 28.1639C66.2682 27.7512 65.8584 27.5652 65.4094 27.4337C65.2613 25.0132 64.5114 22.7711 63.3956 20.6379C62.3661 18.671 60.9389 17.0065 59.4074 15.4236C60.0514 13.1225 59.291 11.9403 56.9038 11.5411C56.6332 11.4852 56.3595 11.4444 56.0844 11.4187C54.1628 11.3129 52.459 10.7535 51.2419 9.14487C51.1376 9.0209 51.0227 8.906 50.8987 8.80319C50.2456 8.19392 49.4927 8.00493 48.6007 8.13495C47.1645 8.3451 46.342 9.27035 45.6965 10.4451L32.9093 10.4224C32.87 9.82822 33.006 9.2386 32.9153 8.6384C32.8125 7.95202 32.4058 7.67535 31.5879 7.81747C30.8199 7.95051 30.5357 8.35719 30.7307 9.06172C30.8516 9.50166 30.9892 9.93707 31.1192 10.3755L30.2136 10.4496C29.3171 8.59153 28.4826 6.71987 28.5597 4.58211C28.5839 3.91841 27.9398 3.4573 27.1522 3.51324C26.3237 3.5722 25.5541 4.25253 25.6494 4.85727C25.6781 4.99182 25.7401 5.11731 25.8278 5.22163C26.9798 6.69719 27.5407 8.43128 28.0033 10.2062C28.0502 10.3846 28.2271 10.634 28.0033 10.7777C27.8899 10.8563 27.7554 10.9031 27.6163 10.9092C27.4772 10.9152 27.3396 10.8835 27.2187 10.8155C26.8165 10.5811 26.4748 10.2576 26.2178 9.86904C25.7718 9.22046 25.3425 8.56129 24.9086 7.90515C24.5941 7.39112 24.2146 6.92094 23.7807 6.50216C23.5902 6.31167 23.3453 6.1877 23.0792 6.14688C22.8132 6.10606 22.541 6.15292 22.3037 6.27841C21.7564 6.52786 21.5251 6.98141 21.5205 7.55743C21.516 8.37383 22.027 9.03299 22.8615 9.29908C23.0535 9.35955 23.3196 9.31571 23.3892 9.55911C23.6296 10.3906 24.3114 10.9243 24.7529 11.6182C24.6047 11.8556 24.3341 11.8889 24.1103 11.9962C19.7018 14.1113 16.158 17.1199 14.1215 21.6781C13.0481 24.0804 12.6248 26.6203 12.5719 29.2328C11.5756 28.6462 10.7108 27.8751 9.77197 27.2084C9.27608 26.8561 8.78171 26.838 8.30094 27.1978C7.77935 27.5879 7.64026 28.1291 7.81413 28.7399C7.98194 29.3341 8.27675 29.7967 9.00697 29.7649C10.605 29.6954 11.6663 30.6206 12.6173 31.7409C12.6037 32.3366 12.59 32.9307 12.5749 33.5264C11.9672 33.4811 11.4274 33.2014 10.8605 33.0154C10.2044 32.8007 9.56485 32.5286 8.85881 32.5105C8.04544 32.4908 7.6705 32.834 7.6191 33.6413C7.54351 34.8024 7.71737 35.0504 8.64413 35.1516C9.97153 35.2968 11.3035 35.4253 12.6067 35.7382C12.6052 38.7937 12.6052 41.8506 12.6037 44.9076C12.6158 46.7838 12.9196 48.6479 13.5032 50.4304C14.4874 53.504 16.3425 56.0076 18.6087 58.2512C21.5916 61.2053 25.1248 62.9847 29.3232 63.4035C31.541 63.6258 33.7635 63.47 35.9844 63.5124C37.6958 63.5456 39.4072 63.5471 41.1201 63.5638C41.0944 63.7513 40.9221 63.8087 40.8056 63.9145C38.5348 66.0205 36.1461 68.0283 34.979 71.0368Z" fill="#72B52D"/>
<path d="M31.1225 10.3709C30.9925 9.934 30.8549 9.49708 30.734 9.05713C30.5389 8.35261 30.8232 7.94592 31.5912 7.81288C32.4091 7.67077 32.8158 7.94895 32.9186 8.63381C33.0093 9.23402 32.8732 9.82364 32.9125 10.4178C32.7251 11.7422 32.3955 13.0499 32.4756 14.4045C32.5497 15.6836 33.0395 16.6753 34.3231 17.1395C34.8507 17.3209 35.3118 17.658 35.6429 18.107C35.6339 18.4502 35.9937 18.8131 35.59 19.1351C35.1758 19.4662 34.7646 19.315 34.3533 19.1275C34.2278 19.0701 34.1099 18.99 33.9799 18.9446C33.8045 18.8826 33.608 18.8373 33.4447 18.9522C33.2315 19.1003 33.3918 19.2893 33.4372 19.4541C33.7123 20.4474 34.4365 21.0945 35.1924 21.7158C35.4419 21.9214 35.4993 21.7098 35.5885 21.5495C36.228 20.399 36.869 19.2485 37.5086 18.098C37.9031 17.6474 38.2841 17.1818 38.6954 16.7479C39.8277 15.5505 41.2988 14.8415 42.6897 14.0205C44.1168 13.1799 45.16 12.0234 45.6967 10.4405C46.3408 9.26426 47.1647 8.34052 48.601 8.13037C49.493 8.00035 50.2459 8.18933 50.899 8.79861C51.023 8.90292 51.1379 9.01782 51.2422 9.14028C52.4577 10.7489 54.1631 11.3068 56.0846 11.4141C56.3598 11.4398 56.6334 11.4806 56.904 11.5366C59.2897 11.9357 60.0517 13.118 59.4077 15.419C58.9874 16.0237 58.5988 16.6526 58.1407 17.2287C56.2041 19.6612 54.086 21.9154 51.5581 23.7538C51.3223 23.9246 51.0804 24.0592 51.0895 24.4447C51.1363 26.6701 51.5098 28.817 52.6361 30.7657C53.7594 32.71 55.3619 33.9315 57.7235 33.9315C58.2027 33.9315 58.4113 33.7925 58.4975 33.2966C58.6774 32.2685 58.4733 31.2692 58.3796 30.2593C58.3524 29.9675 58.2178 29.6576 58.4189 29.3884C58.7031 29.0059 59.7826 28.8563 60.3087 29.1103C60.9225 29.4081 61.0284 29.8843 60.8137 30.4951C60.6746 30.8852 60.5597 31.2843 60.469 31.6895C60.351 32.14 60.3662 32.6132 60.5113 33.0562C60.664 33.484 60.8122 33.5868 61.2249 33.2618C62.7942 32.0206 63.5803 30.3394 64.0384 28.4556C64.2954 27.3989 64.3 27.3973 65.4097 27.4306C65.8587 27.5621 66.2684 27.7496 66.5405 28.1608C67.0001 28.8578 66.8807 29.526 66.2155 30.0174C65.9781 30.1927 65.6773 30.294 65.5321 30.5828C65.1421 30.805 65.0227 31.2148 64.8503 31.5821C64.3741 32.6011 64.1926 33.7169 63.7739 34.8084C64.4149 34.8205 65.0015 34.8069 65.5684 34.5983C66.604 34.4788 67.5202 34.0555 68.3684 33.4765C69.1303 32.9564 69.8575 33.0955 70.3338 33.8817C70.683 34.4562 70.677 35.0594 70.4925 35.6853C70.3882 36.0391 70.1357 36.1026 69.8092 36.1449C68.32 36.3429 66.8777 36.7995 65.5457 37.4919C65.0151 37.7112 64.4799 37.9213 63.9553 38.1526C62.3936 38.839 60.8167 39.4392 59.1083 39.7098C56.5488 40.115 52.3231 37.9107 51.6368 35.2181C51.3193 33.9724 50.8944 32.7553 50.518 31.5247C50.3426 31.0016 50.0947 30.5042 49.7832 30.0476C49.0364 28.9863 47.8692 28.891 46.9395 29.7966C46.5963 30.1398 46.3045 30.5329 46.0762 30.9608C44.8939 33.0985 43.8583 35.3088 42.8877 37.5509C41.7916 40.0001 40.124 42.0411 38.3098 43.9793C37.7973 44.513 37.3755 45.1268 37.061 45.7965C36.2885 47.4973 36.3021 46.9878 37.6144 48.0628C38.9826 49.3388 40.4325 50.5225 41.9579 51.605C42.8272 52.3201 43.6633 53.0851 44.7352 53.5054C44.8637 53.8108 45.1676 53.8894 45.4155 54.0482C46.2863 54.606 47.1496 55.176 48.0144 55.7414C48.4815 56.1814 48.9804 56.5926 49.4098 57.0673C50.7297 58.5293 50.8037 60.3571 49.626 61.937C49.2269 62.4752 48.7748 62.9711 48.2744 63.4156C48.1263 63.5562 47.972 63.6922 47.8314 63.8404C46.8276 64.8972 45.6922 65.8255 44.7654 66.9563C44.5764 67.1861 44.3134 67.4371 44.4192 67.7531C44.7019 68.6647 45.2734 69.4614 46.0475 70.0193C46.1215 70.0783 46.2153 70.1085 46.309 70.1055C46.4043 70.1025 46.495 70.0662 46.5645 70.0027C46.7112 69.8696 46.6235 69.7033 46.5796 69.5506C46.4345 69.0457 45.9945 68.7947 45.6468 68.4606C45.3989 68.2232 45.0617 67.9405 45.2371 67.5883C45.3414 67.3524 45.5047 67.1498 45.7118 66.9971C45.919 66.846 46.1624 66.7507 46.4179 66.722C46.9138 66.6721 47.0423 67.047 47.1813 67.3857C47.4263 67.9829 47.6243 68.6012 47.8844 69.1923C48.1459 69.785 48.601 69.9029 49.2027 69.6731C49.8921 69.41 50.1446 68.9006 50.14 68.2127C50.1355 67.496 50.0901 66.7764 50.1234 66.0613C50.1552 65.4006 50.7538 64.7898 51.2543 64.8896C51.927 65.0242 51.989 65.573 51.9739 66.1324C51.9633 66.5481 51.9074 66.9654 51.9225 67.3796C51.9437 67.998 52.2188 68.2021 52.8266 68.0947C53.5432 67.9677 53.9363 67.484 54.1857 66.8444C54.5985 65.7846 54.7345 64.6523 55.0339 63.5637C55.3362 63.1162 55.5661 62.6022 56.1511 62.4314C57.031 62.1759 57.5632 62.4797 58.0425 63.5244C58.0455 64.1534 57.8505 64.7657 57.4846 65.2767C57.0492 65.9283 56.5805 66.5602 56.1179 67.1922C55.5313 67.9919 54.8872 68.7645 54.5607 69.7154C54.417 70.1357 54.0693 70.5847 54.4896 71.0519C54.6332 71.191 54.8177 71.2832 55.0157 71.3135C56.0332 71.5433 57.0053 71.3422 57.9744 71.0595L58.174 71.0247C58.6986 70.9461 59.2247 70.8826 59.7448 70.7858C60.2361 70.6951 60.5521 70.8599 60.6882 71.3422C60.794 71.6461 60.8726 71.9575 60.9255 72.275C61.0178 73.1503 60.7577 73.4769 59.8899 73.6493C58.7001 73.8851 57.4952 73.8791 56.2978 73.7974C54.3354 73.6598 52.367 73.9244 50.5104 74.5745C48.5314 75.2564 46.3967 75.344 44.3693 74.83C42.0683 74.2782 39.7098 74.192 37.3695 73.9486C37.0021 73.9108 36.6392 73.8428 36.284 73.7475C34.9414 73.3877 34.6209 72.8283 34.9293 71.451C34.952 71.315 34.9671 71.1789 34.9732 71.0413C36.1418 68.0343 38.529 66.025 40.8029 63.922C40.9178 63.8147 41.0916 63.7588 41.1173 63.5713C42.546 62.4419 43.8568 61.1705 45.03 59.7766C45.2764 59.4863 45.1086 59.4213 44.8501 59.3124C41.9836 58.112 39.1217 56.904 36.2613 55.6885C34.6164 54.8464 33.0713 53.8335 31.4748 52.9082C30.3938 52.2808 29.2826 51.7124 28.064 51.3934C26.8909 51.0849 25.7116 50.9292 24.5203 51.3163C24.3116 51.2845 24.0985 51.3314 23.9231 51.4493C23.4469 51.7063 23.2654 51.5748 23.1823 51.0532C23.0251 50.0645 22.632 49.1528 22.1437 48.2805C21.3091 46.7898 20.4791 45.2961 19.6536 43.8009C18.2718 41.2852 16.8461 38.8057 14.7976 36.7436C14.1732 36.1146 13.4823 35.7579 12.6039 35.7473C11.3007 35.4343 9.97027 35.3058 8.64136 35.1607C7.7146 35.0594 7.54073 34.8114 7.61633 33.6503C7.66924 32.843 8.04418 32.4998 8.85604 32.5195C9.56056 32.5361 10.2016 32.8082 10.8577 33.0244C11.4247 33.2104 11.9644 33.4886 12.5722 33.5354C13.0907 33.7683 13.6138 33.7819 14.2427 33.5687C13.6577 32.9443 13.2359 32.264 12.613 31.7499C11.662 30.6297 10.6007 29.7044 9.00269 29.774C8.27247 29.8057 7.97766 29.3431 7.80984 28.7489C7.63749 28.1381 7.77507 27.5969 8.29666 27.2068C8.77894 26.847 9.2718 26.8637 9.76768 27.2174C10.7065 27.8857 11.5713 28.6552 12.5676 29.2418C13.9797 30.4105 15.4719 31.4823 17.0306 32.4484C17.0896 31.9737 16.8749 31.6728 16.6783 31.3659C16.441 30.9986 16.0842 30.7249 15.8891 30.3197C15.5822 29.6833 15.9844 29.3325 16.4002 28.9923C16.8129 28.6552 17.1107 28.9077 17.4086 29.204C17.9997 29.7951 18.2779 30.5541 18.5576 31.3085C19.0126 32.5361 19.3649 33.8045 19.9923 34.9641C20.2251 35.3043 20.3975 35.708 20.8934 35.8667C20.9569 35.1456 21.0143 34.4834 21.0748 33.8212C21.1549 32.9428 21.294 32.081 21.8579 31.3569C22.4551 30.5904 23.3184 30.2744 24.2149 30.2245C24.8272 30.1912 25.1039 30.8716 25.4591 31.3024C25.7343 31.6426 25.9822 32.0055 26.1984 32.3864C26.6807 33.221 27.1388 34.0691 27.606 34.9127C28.1926 36.3641 28.9591 37.7369 29.8904 38.9962C30.4694 34.9384 31.573 31.2117 32.84 27.5289C33.1605 26.5961 33.1559 26.5946 32.1989 26.2483C30.8292 25.2974 30.0824 23.9156 29.5668 22.3856C29.2524 21.4497 28.9802 20.4988 28.69 19.5554C28.3075 17.7336 27.8146 15.9436 27.0239 14.2533C26.5174 13.1709 25.7041 12.3303 24.7471 11.6242C24.3071 10.9288 23.6253 10.3966 23.3849 9.56511C23.3138 9.32019 23.0493 9.36555 22.8573 9.30508C22.0212 9.03899 21.5117 8.37982 21.5162 7.56343C21.5193 6.9859 21.7521 6.53386 22.2994 6.28441C22.5367 6.15892 22.8089 6.11206 23.075 6.15287C23.341 6.19369 23.5875 6.31767 23.7765 6.50816C24.2104 6.92694 24.5898 7.39712 24.9043 7.91115C25.3382 8.56729 25.7676 9.22797 26.2135 9.87504C26.4706 10.2636 26.8122 10.5871 27.2144 10.8215C27.3353 10.8895 27.4729 10.9212 27.612 10.9152C27.7511 10.9091 27.8841 10.8623 27.999 10.7837C28.2228 10.64 28.0459 10.3906 27.999 10.2122C27.5364 8.43728 26.9755 6.70319 25.8235 5.22762C25.7358 5.1218 25.6738 4.99631 25.6451 4.86327C25.5498 4.25853 26.3194 3.5782 27.1479 3.51924C27.9355 3.4633 28.5796 3.92441 28.5554 4.58811C28.4768 6.72586 29.3128 8.59753 30.2094 10.4556C30.418 10.9908 30.6281 11.526 30.8761 12.164C31.3175 11.5124 31.4067 10.9651 31.1225 10.3709ZM43.181 71.0262C43.3503 71.0096 43.5166 70.9824 43.6814 70.9415C44.392 70.739 44.451 70.5031 43.9384 69.9528C43.8084 69.8061 43.6497 69.6882 43.4728 69.6036C43.2959 69.5189 43.1039 69.4705 42.9074 69.4599C42.7123 69.4493 42.5158 69.4796 42.3313 69.5461C42.1469 69.6126 41.9776 69.7154 41.8324 69.847C41.3517 70.2794 41.3925 70.5122 42.0018 70.7692C42.3752 70.9325 42.7758 71.0186 43.181 71.0262Z" fill="#010201"/>
<path d="M55.0379 63.5577C54.7386 64.6477 54.601 65.7786 54.1898 66.8384C53.9403 67.4779 53.5473 67.9632 52.8306 68.0887C52.2214 68.196 51.9477 67.992 51.925 67.3736C51.9099 66.9594 51.9674 66.5421 51.9764 66.1263C51.99 65.5685 51.9296 65.0182 51.2568 64.8836C50.7549 64.7838 50.1562 65.3946 50.1259 66.0553C50.0927 66.7704 50.1365 67.49 50.1426 68.2066C50.1471 68.8945 49.8946 69.404 49.2052 69.6671C48.6035 69.8954 48.1469 69.779 47.8869 69.1863C47.6269 68.5952 47.4288 67.9783 47.1839 67.3797C47.0448 67.041 46.9163 66.6661 46.4204 66.716C46.1649 66.7447 45.9215 66.8399 45.7144 66.9911C45.5073 67.1438 45.344 67.3464 45.2397 67.5822C45.0643 67.9345 45.4014 68.2172 45.6494 68.4546C45.9971 68.7887 46.437 69.0397 46.5822 69.5446C46.626 69.6973 46.7137 69.8636 46.5671 69.9967C46.496 70.0602 46.4053 70.0964 46.3116 70.0995C46.2163 70.1025 46.1241 70.0723 46.05 70.0133C45.2759 69.4539 44.7045 68.6587 44.4217 67.747C44.3159 67.4311 44.579 67.1816 44.768 66.9503C45.6947 65.8194 46.8301 64.8912 47.834 63.8344C47.9746 63.6862 48.1288 63.5501 48.277 63.4095C48.5249 63.5985 48.8121 63.5078 49.0797 63.5108C51.0648 63.535 53.0514 63.5441 55.0379 63.5577Z" fill="#72B52D"/>
<path d="M54.4937 71.0458C54.0734 70.5801 54.4211 70.1296 54.5648 69.7093C54.8913 68.7584 55.5354 67.9873 56.122 67.1861C56.5861 66.5541 57.0533 65.9221 57.4887 65.2705C57.8545 64.7595 58.0496 64.1457 58.0466 63.5183C58.2915 63.6876 58.1796 63.9431 58.1811 64.1548C58.1887 66.4422 58.1826 68.7296 58.1796 71.0171C58.1131 71.0292 58.0466 71.0397 57.98 71.0518C56.8189 71.0518 55.6563 71.0488 54.4937 71.0458Z" fill="#72B52D"/>
<path d="M20 34.9565C20.2767 34.4818 20.1179 33.9648 20.1194 33.4734C20.1285 30.6977 20.6425 28.0474 22.0909 25.6466C23.6995 22.9812 25.8161 20.8465 28.6977 19.5493C28.9879 20.4927 29.2601 21.4437 29.5745 22.3795C30.0901 23.9095 30.8354 25.2913 32.2066 26.2423C29.9978 27.4381 28.5948 29.2584 27.9387 31.6804C27.6515 32.7432 27.718 33.8302 27.6137 34.9051C27.1465 34.0615 26.6884 33.2134 26.2061 32.3788C25.9899 31.9979 25.7435 31.635 25.4668 31.2949C25.1116 30.864 24.8334 30.1836 24.2226 30.2169C23.3261 30.2668 22.4628 30.5828 21.8656 31.3493C21.3017 32.0735 21.1626 32.9352 21.0825 33.8136C21.022 34.4758 20.9646 35.138 20.9011 35.8591C20.4052 35.7004 20.2328 35.2967 20 34.9565Z" fill="#72B52D"/>
<path d="M36.2639 55.6825C31.5016 56.5049 27.7265 54.6771 24.5244 51.3087C25.7142 50.9216 26.8935 51.0774 28.0667 51.3858C29.2852 51.7063 30.3964 52.2747 31.4774 52.9007C33.0739 53.8274 34.6205 54.8404 36.2639 55.6825Z" fill="#72B52D"/>
<path d="M35.641 18.1071C36.2609 18.0345 36.8868 18.0315 37.5081 18.098C36.8686 19.2485 36.2276 20.399 35.5881 21.5496C35.4989 21.7098 35.4414 21.9215 35.192 21.7159C34.4361 21.093 33.7104 20.4474 33.4367 19.4541C33.3914 19.2893 33.2326 19.1019 33.4443 18.9522C33.6091 18.8373 33.8041 18.8827 33.9795 18.9446C34.1095 18.99 34.2259 19.0701 34.3529 19.1276C34.7626 19.3166 35.1754 19.4662 35.5896 19.1351C35.9918 18.8131 35.6319 18.4503 35.641 18.1071Z" fill="#72B52D"/>
<path d="M43.1804 71.0262C42.7752 71.0187 42.3746 70.9325 42.0011 70.7707C41.3919 70.5137 41.351 70.2809 41.8318 69.8485C41.9769 69.7155 42.1463 69.6142 42.3307 69.5476C42.5152 69.4811 42.7117 69.4524 42.9067 69.4615C43.1018 69.4721 43.2953 69.5204 43.4722 69.6051C43.649 69.6898 43.8078 69.8092 43.9378 69.9543C44.4503 70.5031 44.3914 70.7405 43.6808 70.9431C43.5175 70.9824 43.3497 71.0096 43.1804 71.0262Z" fill="#72B52D"/>
</g>
</g>
</svg>
