<svg width="70" height="70" viewBox="0 0 70 70" fill="none" xmlns="http://www.w3.org/2000/svg">
<g clip-path="url(#clip0_3288_6429)">
<path d="M62.6234 0.000894796C62.7939 -0.00987742 62.9556 0.0772937 63.0404 0.225612C63.1251 0.37393 63.1181 0.557549 63.0223 0.69896L45.7701 24.134C45.6437 24.2767 45.4621 24.3584 45.2715 24.3584C45.0808 24.3584 44.8993 24.2767 44.7729 24.134L38.6897 17.3528C38.5411 17.1986 38.3306 17.1201 38.1173 17.1395C37.904 17.1589 37.7111 17.274 37.5928 17.4525L33.903 22.1395C33.7863 22.4035 33.8246 22.7102 34.0027 22.9373L44.9723 34.3058C45.0987 34.4485 45.2803 34.5302 45.4709 34.5302C45.6616 34.5302 45.8431 34.4485 45.9696 34.3058L67.5098 10.073C67.637 9.93629 67.8341 9.88987 68.0089 9.95543C68.1837 10.021 68.3017 10.1855 68.3076 10.3721V69.3088C68.3159 69.4434 68.266 69.5751 68.1706 69.6704C68.0753 69.7658 67.9436 69.8156 67.809 69.8074H2.19091C2.0563 69.8156 1.92463 69.7658 1.82927 69.6704C1.73391 69.5751 1.68404 69.4434 1.69229 69.3088V0.499513C1.68404 0.36491 1.73391 0.233233 1.82927 0.137876C1.92463 0.042519 2.0563 -0.00735784 2.19091 0.000894796H62.6234ZM45.6704 39.7906C42.7015 39.7384 39.8402 40.9017 37.75 43.0107C35.6598 45.1197 34.5222 47.9913 34.6011 50.9596C34.6011 57.8406 39.5872 62.2284 46.0693 62.2284C49.0699 62.3031 52.0123 61.3923 54.4461 59.6356C54.6717 59.4307 54.714 59.0919 54.5458 58.8378L52.7508 56.1453C52.5489 55.9139 52.2055 55.8709 51.953 56.0455C50.3928 57.111 48.5565 57.7 46.6676 57.7408C43.1773 57.7408 40.9834 55.5469 40.5845 52.9541C40.5917 52.8471 40.6769 52.7619 40.7839 52.7547H55.8422C56.1632 52.7329 56.4188 52.4773 56.4405 52.1563V51.558C56.4405 44.5773 52.0527 39.7906 45.6704 39.7906ZM30.8116 36.0011C27.7826 33.5253 23.9501 32.2477 20.0414 32.4111C13.2602 32.4111 9.07183 36.4 9.07183 41.1867C9.07183 52.0566 25.6259 48.5663 25.6259 53.6522C25.6259 55.2477 24.0304 56.8433 20.6398 56.8433C17.4195 56.8699 14.3127 55.6557 11.9638 53.4527C11.8236 53.3216 11.6336 53.2574 11.4426 53.2765C11.2516 53.2956 11.0781 53.3962 10.9666 53.5524L8.37377 57.1425C8.20553 57.3966 8.24788 57.7354 8.47349 57.9403C11.166 60.4334 14.9555 62.1287 20.2409 62.1287C28.0193 62.1287 31.8088 58.1397 32.0083 52.9541C32.0083 42.184 15.4541 45.2754 15.4541 40.6881C15.4541 38.9928 16.95 37.7961 19.5428 37.7961C22.401 37.757 25.1846 38.7083 27.421 40.4887C27.5524 40.5964 27.7218 40.6465 27.8907 40.6277C28.0596 40.609 28.2139 40.5229 28.3185 40.3889L30.9113 36.8986C31.019 36.7671 31.0691 36.5978 31.0504 36.4289C31.0316 36.2599 30.9455 36.1057 30.8116 36.0011ZM45.7701 44.1784C48.4825 44.0267 50.824 46.059 51.0555 48.7657C51.0482 48.8727 50.963 48.9579 50.856 48.9652H40.6842C40.5772 48.9579 40.492 48.8727 40.4848 48.7657C40.8182 46.1121 43.096 44.1352 45.7701 44.1784Z" fill="#2CB134"/>
</g>
<defs>
<clipPath id="clip0_3288_6429">
<rect width="70" height="70" fill="white"/>
</clipPath>
</defs>
</svg>
