<svg width="78" height="78" viewBox="0 0 78 78" fill="none" xmlns="http://www.w3.org/2000/svg">
<path d="M39.0003 72.3841C20.5968 72.3841 5.61719 57.452 5.61719 39.0009C5.61719 20.5498 20.5493 5.71289 39.0003 5.71289C57.4514 5.71289 72.3835 20.6449 72.3835 39.096C72.3835 57.5471 57.4039 72.3841 39.0003 72.3841Z" fill="#FCDC00"/>
<path d="M39 7.37636C56.4524 7.37636 70.6236 21.5476 70.6236 39C70.6236 56.4524 56.4524 70.6236 39 70.6236C21.5476 70.6236 7.37636 56.4524 7.37636 39C7.37636 21.5476 21.5476 7.37636 39 7.37636ZM39 4C19.6929 4 4 19.6929 4 39C4 58.3071 19.7405 74 39 74C58.2595 74 74 58.2595 74 39C74 19.7405 58.2595 4 39 4Z" fill="#173647"/>
<path d="M59.1155 37.669L61.8261 33.8171L58.9253 26.779L54.3125 25.9231L52.2677 23.8782L51.5068 19.2655L44.3736 16.2695L40.5217 18.9801H37.6209L33.769 16.2695L26.6359 19.1703L25.7799 23.7831L23.6399 25.8279L19.0272 26.6839L16.0312 33.722L18.7418 37.5739V40.4747L16.0312 44.3266L18.9321 51.4597L23.5448 52.3157L25.5897 54.3606L26.4456 58.9733L33.4837 61.9692L37.3356 59.2587H40.2364L44.0883 61.9692L51.2215 59.0684L52.0774 54.4557L54.2174 52.4108L58.8302 51.65L61.8261 44.6119L59.1155 40.76V37.669ZM58.0693 44.8972L56.5476 48.654L52.6956 49.3198L49.1291 52.8864L48.4633 56.7383L44.7065 58.26L41.5204 56.025H36.5272L33.2459 58.26L29.4891 56.7383L28.8234 52.8864L25.3519 49.3198L21.5 48.654L19.9783 44.8972L22.2133 41.7111V36.7179L19.9783 33.4366L21.5 29.6799L25.3519 29.0141L28.9185 25.4475L29.5842 21.5956L33.341 20.0739L36.5272 22.3089H41.5204L44.8016 20.0739L48.5584 21.5956L49.2242 25.4475L52.7908 29.0141L56.6427 29.6799L58.1644 33.4366L55.9293 36.7179V41.7111L58.0693 44.8972ZM51.4117 39.9516C51.4117 46.7994 45.8003 52.4108 38.9524 52.4108C32.1046 52.4108 26.4932 46.7994 26.4932 39.9516C26.4932 36.6703 27.7296 33.4842 30.1549 31.154L32.4851 33.4842C30.7731 35.1962 29.7745 37.5263 29.7745 39.9516C29.7745 43.6133 31.9144 46.7043 34.9579 48.1309L39.4755 40.9978L32.5326 39.5712L40.1413 25.9706L43.0421 27.5875L37.6209 37.241L44.9443 38.8578L38.4769 49.082C38.6671 49.082 38.7622 49.082 38.9524 49.082C43.9456 49.082 48.0353 45.0399 48.0353 39.9992C48.0353 37.2886 46.894 34.8157 44.7541 33.0562L46.894 30.4407C49.7948 32.8184 51.4117 36.2899 51.4117 39.9516Z" fill="#173647"/>
</svg>
