<svg width="78" height="78" viewBox="0 0 78 78" fill="none" xmlns="http://www.w3.org/2000/svg">
<path d="M57.3776 6.1799H12.4604C9.44626 6.1799 7 8.6582 7 11.6629V61.4042C7 64.4307 9.4681 66.8871 12.4604 66.8871H42.0557C41.7281 52.1051 46.7516 23.4183 57.3885 6.13604L57.3776 6.1799Z" fill="#0F80CC"/>
<path d="M55.7429 7.79187H12.4638C10.3233 7.79187 8.58691 9.54641 8.58691 11.6848V57.7964C18.3938 54.0131 33.1041 50.7562 43.2822 50.9098C46.42 36.2594 50.5767 21.8507 55.7429 7.79187Z" fill="url(#paint0_linear_1373_1091)"/>
<path d="M67.8591 4.55693C64.7794 1.81546 61.0554 2.91204 57.3751 6.17988L55.737 7.7809C49.4466 14.4701 43.7241 26.8835 41.8021 36.369C42.4869 37.8713 43.0281 39.4354 43.4184 41.0405L43.6586 42.1371L43.8989 43.2556C43.8989 43.2556 43.8443 43.0363 43.6149 42.3783L43.462 41.9397C43.4313 41.8584 43.3986 41.778 43.3638 41.6984C42.9488 40.7444 41.8348 38.7157 41.3216 37.8384C40.9242 39.0044 40.5492 40.178 40.1967 41.3585C41.6383 44.0122 42.5119 48.5521 42.5119 48.5521C42.5119 48.5521 42.4355 48.256 42.0751 47.2362C41.7475 46.326 40.153 43.5078 39.7817 42.8498C39.1265 45.2623 38.8753 46.8853 39.1046 47.2801C39.5415 48.0477 39.9783 49.4732 40.3605 50.833C40.9503 53.2444 41.4313 55.6813 41.8021 58.1363L41.8567 58.8162C41.7435 61.5584 41.7982 64.3051 42.0205 67.0406C42.3044 70.4729 42.8396 73.4228 43.5166 75.0018L43.9753 74.7496C42.9924 71.6353 42.5775 67.567 42.7522 62.8626C43.0252 55.6799 44.6633 47.0169 47.7102 37.9919C52.8757 24.2517 59.9961 13.3077 66.5267 8.08795C60.5749 13.4832 52.5263 30.9409 50.1237 37.3998C47.4263 44.6373 45.5151 51.4361 44.3575 57.9389C46.3451 51.8419 52.7665 49.2101 52.7665 49.2101C52.7665 49.2101 55.9336 45.3062 59.603 39.7246L52.559 41.6107L50.2875 42.6195C50.2875 42.6195 56.0755 39.0776 61.0663 37.4656C67.9137 26.6422 75.3726 11.2571 67.8591 4.54596" fill="#003B57"/>
<defs>
<linearGradient id="paint0_linear_1373_1091" x1="35.7906" y1="8.8117" x2="35.7906" y2="55.022" gradientUnits="userSpaceOnUse">
<stop stop-color="#97D9F6"/>
<stop offset="0.92024" stop-color="#0F80CC"/>
<stop offset="1" stop-color="#0F80CC"/>
</linearGradient>
</defs>
</svg>
