<svg width="78" height="78" viewBox="0 0 78 78" fill="none" xmlns="http://www.w3.org/2000/svg">
<path d="M73.9951 23.3886C73.9909 22.6846 73.9831 21.981 73.9637 21.2761C73.9227 19.743 73.8321 18.1959 73.5595 16.6791C73.283 15.1388 72.831 13.7065 72.1187 12.3072C71.4194 10.9331 70.5052 9.67558 69.4148 8.58511C68.3245 7.49464 67.0671 6.58061 65.6923 5.88098C64.2942 5.16944 62.8617 4.71755 61.3228 4.44104C59.8052 4.16772 58.2581 4.07767 56.7238 4.03618C56.0193 4.01709 55.3155 4.00908 54.6113 4.00471C53.7754 4 52.9389 4 52.1033 4H33.5733H25.8968C25.0603 4 24.2248 4 23.3891 4.00483C22.6846 4.00919 21.9801 4.01721 21.2767 4.0363C20.8931 4.04667 20.5088 4.06011 20.1242 4.07861C18.9705 4.13425 17.8151 4.2362 16.6775 4.44116C15.5233 4.6486 14.4288 4.95457 13.364 5.39479C13.0091 5.54141 12.6574 5.70312 12.3079 5.88098C11.2768 6.4057 10.3115 7.051 9.43353 7.80085C9.14088 8.05084 8.85789 8.31238 8.58539 8.58499C7.49469 9.67546 6.58054 10.9329 5.88126 12.3071C5.16889 13.7064 4.71748 15.1387 4.44074 16.679C4.16847 18.1958 4.07795 19.7429 4.0367 21.276C4.01737 21.9808 4.00924 22.6845 4.00464 23.3885C3.99934 24.2246 4.00004 25.0608 4.00004 25.8967V37.3081V52.1029C4.00004 52.9396 3.99922 53.775 4.00464 54.6117C4.00924 55.3157 4.01737 56.0194 4.0367 56.723C4.07795 58.257 4.16835 59.8044 4.44074 61.3205C4.71748 62.8604 5.16889 64.2939 5.88126 65.6929C6.58054 67.0674 7.49469 68.3245 8.58539 69.4145C9.67527 70.5054 10.9331 71.4193 12.308 72.1195C13.7062 72.8311 15.1386 73.2824 16.6779 73.5589C18.1945 73.8319 19.7428 73.9226 21.2768 73.9637C21.9802 73.9824 22.6848 73.9908 23.3892 73.9948C24.2249 74.0008 25.0604 74 25.8969 74H52.1033C52.9389 74 53.7754 74.0008 54.6112 73.9948C55.3154 73.9908 56.0192 73.9824 56.7236 73.9637C58.258 73.9226 59.805 73.8318 61.3226 73.5589C62.8616 73.2824 64.2941 72.831 65.6922 72.1195C67.0669 71.4195 68.3244 70.5054 69.4147 69.4145C70.5051 68.3244 71.4194 67.0674 72.1186 65.6929C72.8309 64.2939 73.2829 62.8605 73.5594 61.3205C73.8319 59.8044 73.9226 58.257 73.9636 56.723C73.9829 56.0194 73.9907 55.3158 73.9949 54.6117C74.0004 53.775 73.9999 52.9396 73.9999 52.1029V25.8967C74 25.0608 74.0004 24.2246 73.9951 23.3886Z" fill="#F05138"/>
<path d="M59.467 47.2095C59.4654 47.2074 59.4639 47.2058 59.4621 47.2038C59.5395 46.9403 59.6194 46.6784 59.6872 46.4082C62.5925 34.833 55.5018 21.1479 43.5027 13.9424C48.7609 21.0706 51.0859 29.7046 49.0203 37.2551C48.836 37.9286 48.6146 38.5749 48.3698 39.2032C48.1041 39.0286 47.7694 38.8305 47.3198 38.5826C47.3198 38.5826 35.384 31.213 22.4474 18.1779C22.108 17.8358 29.3457 28.5228 37.5597 37.2009C33.6898 35.029 22.9048 27.1821 16.0773 20.9331C16.9161 22.332 17.9138 23.6791 19.0105 24.9759C24.7122 32.2067 32.1478 41.1283 41.056 47.9791C34.797 51.8094 25.9529 52.1073 17.1472 47.9831C14.9692 46.9624 12.9217 45.7309 11.0264 44.3316C14.7538 50.2937 20.4945 55.4377 27.4816 58.4408C35.8139 62.0216 44.0998 61.7788 50.2711 58.4995L50.2663 58.5065C50.2945 58.4887 50.3303 58.4693 50.3595 58.4513C50.6129 58.315 50.8645 58.1763 51.1104 58.0298C54.0755 56.4907 59.9321 54.9293 63.0757 61.0457C63.8455 62.5425 65.4815 54.6099 59.467 47.2095Z" fill="white"/>
</svg>
