<svg width="78" height="78" viewBox="0 0 78 78" fill="none" xmlns="http://www.w3.org/2000/svg">
    <path d="M73.7684 14.5085L40.8859 74.0733C40.2069 75.3031 38.4627 75.3103 37.7736 74.0865L4.2391 14.5142C3.48837 13.1806 4.61413 11.5652 6.10599 11.8353L39.0237 17.7957C39.2337 17.8337 39.4487 17.8334 39.6586 17.7946L71.888 11.8438C73.3748 11.5693 74.5059 13.1722 73.7684 14.5085Z" fill="#0000FF"/>
    <path d="M54.7041 4.01748L30.3701 8.84768C29.9701 8.92707 29.674 9.27042 29.6499 9.68248L28.153 35.2926C28.1178 35.8958 28.6646 36.364 29.2458 36.2282L36.0207 34.6443C36.6546 34.4962 37.2274 35.0618 37.0971 35.7075L35.0843 45.6922C34.9488 46.3643 35.5716 46.9389 36.2195 46.7395L40.404 45.4516C41.0527 45.2521 41.6761 45.8284 41.5388 46.5009L38.3401 62.1847C38.1399 63.1657 39.4281 63.7007 39.9653 62.8596L40.3241 62.2978L60.1528 22.2112C60.4849 21.54 59.9123 20.7747 59.1846 20.917L52.2109 22.2804C51.5556 22.4084 50.998 21.7901 51.183 21.1406L55.7346 5.15665C55.9197 4.50605 55.3602 3.88727 54.7041 4.01748Z" fill="#FFFF00"/>
</svg>
