<svg width="70" height="70" viewBox="0 0 70 70" fill="none" xmlns="http://www.w3.org/2000/svg">
<path d="M32.0138 1.24612L1.24081 32.0129C-0.413602 33.667 -0.413602 36.3386 1.24081 37.9927L32.0138 68.7594C33.6683 70.4135 36.3404 70.4135 37.9948 68.7594L50.8975 55.8594C52.3792 54.378 52.3792 51.9763 50.8975 50.495C49.4159 49.0136 47.0136 49.0136 45.532 50.495L35.7506 60.2744C35.3388 60.6861 34.7138 60.6861 34.3021 60.2744L9.72758 35.7049C9.3158 35.2932 9.3158 34.6684 9.72758 34.2567L34.3021 9.68721C34.7138 9.27552 35.3388 9.27552 35.7506 9.68721L45.532 19.4667C47.0136 20.948 49.4159 20.948 50.8975 19.4667C52.3792 17.9853 52.3792 15.5836 50.8975 14.1022L37.9962 1.20357C36.335 -0.414712 33.6619 -0.401611 32.0138 1.24612Z" fill="url(#paint0_linear_140_22)"/>
<path d="M32.0138 1.24612L1.24081 32.0129C-0.413602 33.667 -0.413602 36.3386 1.24081 37.9927L32.0138 68.7594C33.6683 70.4135 36.3404 70.4135 37.9948 68.7594L50.8975 55.8594C52.3792 54.378 52.3792 51.9763 50.8975 50.495C49.4159 49.0136 47.0136 49.0136 45.532 50.495L35.7506 60.2744C35.3388 60.6861 34.7138 60.6861 34.3021 60.2744L9.72758 35.7049C9.3158 35.2932 9.3158 34.6684 9.72758 34.2567L34.3021 9.68721C35.3274 8.80275 37.0003 7.01128 39.457 6.59228C41.2827 6.2809 43.2788 6.96626 45.4452 8.64836C43.9968 7.20031 41.5138 4.71871 37.9962 1.20357C36.335 -0.414712 33.6619 -0.401611 32.0138 1.24612Z" fill="url(#paint1_linear_140_22)"/>
<path d="M53.876 47.6336C55.3576 49.1149 57.7598 49.1149 59.2415 47.6336L68.7591 38.1178C70.4136 36.4638 70.4136 33.7922 68.7593 32.1383L59.1587 22.5736C57.6736 21.094 55.2706 21.0962 53.7881 22.5784C52.3064 24.0597 52.3064 26.4615 53.7881 27.9428L60.2724 34.4258C60.6841 34.8375 60.6841 35.4623 60.2724 35.874L53.876 42.2691C52.3943 43.7505 52.3943 46.1522 53.876 47.6336Z" fill="url(#paint2_linear_140_22)"/>
<path d="M35.1582 43.4637C39.747 43.4637 43.4669 39.7445 43.4669 35.1566C43.4669 30.5688 39.747 26.8496 35.1582 26.8496C30.5694 26.8496 26.8495 30.5688 26.8495 35.1566C26.8495 39.7445 30.5694 43.4637 35.1582 43.4637Z" fill="url(#paint3_linear_140_22)"/>
<defs>
<linearGradient id="paint0_linear_140_22" x1="8268.45" y1="0.000479191" x2="15757.3" y2="4570.47" gradientUnits="userSpaceOnUse">
<stop stop-color="#4285EB"/>
<stop offset="1" stop-color="#2EC7FF"/>
</linearGradient>
<linearGradient id="paint1_linear_140_22" x1="9272.58" y1="1.9676e-05" x2="5570.63" y2="19120.9" gradientUnits="userSpaceOnUse">
<stop stop-color="#29CDFF"/>
<stop offset="0.378601" stop-color="#148EFF"/>
<stop offset="1" stop-color="#0A60FF"/>
</linearGradient>
<linearGradient id="paint2_linear_140_22" x1="3143.28" y1="-884.597" x2="-1672.03" y2="6641.48" gradientUnits="userSpaceOnUse">
<stop stop-color="#FA816E"/>
<stop offset="0.414726" stop-color="#F74A5C"/>
<stop offset="1" stop-color="#F51D2C"/>
</linearGradient>
<linearGradient id="paint3_linear_140_22" x1="2925.06" y1="-1491.14" x2="1322.4" y2="4915.75" gradientUnits="userSpaceOnUse">
<stop stop-color="#FA8E7D"/>
<stop offset="0.512635" stop-color="#F74A5C"/>
<stop offset="1" stop-color="#F51D2C"/>
</linearGradient>
</defs>
</svg>
