<svg width="58" height="58" viewBox="0 0 58 58" fill="none" xmlns="http://www.w3.org/2000/svg">
<path d="M36.5409 21.4566C35.0941 21.461 33.9225 22.632 33.9247 24.0699V30.7933L29.3772 22.7807L29.0799 22.2838L29.0006 22.2904V22.2926C28.8289 22.0956 28.6241 21.9293 28.3972 21.8002C27.7938 21.4565 27.0759 21.3668 26.4065 21.5507C25.7348 21.7367 25.1667 22.1788 24.8275 22.7806L19.2251 32.6427C18.516 33.8968 18.9521 35.4836 20.2051 36.2036C21.467 36.8712 23.0371 36.44 23.7749 35.221L24.2307 34.4199H26.4748H26.4726C27.6045 34.4155 28.6042 33.6933 28.9566 32.6275L30.4299 35.221C30.7712 35.8228 31.3394 36.2649 32.0089 36.4488C32.6805 36.6348 33.3962 36.5451 34.0019 36.2014C34.2485 36.057 34.4709 35.8688 34.6581 35.6499C35.147 36.1642 35.8275 36.4575 36.541 36.4575C37.9878 36.4531 39.1572 35.2844 39.155 33.8443V24.0701C39.1572 22.6322 37.9877 21.4633 36.5409 21.4566ZM33.1231 34.6805H33.1253C32.7135 34.8993 32.2026 34.7571 31.9648 34.3587L27.1045 25.8015L24.18 30.9469H26.4769H26.4747C26.9548 30.9469 27.3424 31.3321 27.3424 31.8093C27.3424 32.2842 26.9548 32.6716 26.4747 32.6716H23.2L22.2399 34.3634C22.1276 34.5647 21.9404 34.7136 21.718 34.7748C21.4955 34.8361 21.2555 34.8055 21.0573 34.6895C20.8569 34.5735 20.7137 34.3831 20.6565 34.1598C20.6014 33.9366 20.6389 33.7024 20.76 33.5054L26.3624 23.6394V23.6416C26.4725 23.4446 26.6575 23.3002 26.8777 23.2389C27.0957 23.1776 27.3291 23.2082 27.5229 23.3221C27.6462 23.4008 27.7453 23.5125 27.8114 23.6438L33.4446 33.5059V33.5037C33.6824 33.9173 33.5393 34.4448 33.1253 34.6834L33.1231 34.6805ZM37.3931 33.8422H37.3953C37.3998 34.072 37.3139 34.2931 37.1531 34.4572C36.9923 34.6192 36.7721 34.7133 36.5409 34.7133C36.3119 34.7133 36.0917 34.6192 35.9309 34.4572C35.7702 34.2931 35.6821 34.072 35.6887 33.8422V24.0703C35.6821 23.8427 35.7702 23.6216 35.9309 23.4575C36.0917 23.2933 36.3119 23.2014 36.5409 23.2014C36.7721 23.2014 36.9924 23.2933 37.1531 23.4575C37.3139 23.6216 37.3997 23.8427 37.3953 24.0703L37.3931 33.8422ZM54.3172 26.3221C53.1765 26.3265 52.1635 27.0509 51.7957 28.1255H43.9228V25.2957L44.9645 25.2913C45.7749 25.2913 46.55 24.9674 47.1182 24.3939L49.5582 21.9514C49.9172 22.1287 50.3158 22.2228 50.7166 22.225C51.4301 22.2272 52.1128 21.9427 52.6149 21.4393C53.6565 20.3932 53.6565 18.7057 52.6149 17.6574C52.115 17.1518 51.4301 16.8673 50.7166 16.8695C50.0031 16.8673 49.3181 17.1519 48.8183 17.6574C48.0232 18.465 47.8251 19.6841 48.3272 20.6974L45.8673 23.1617L45.8651 23.1639C45.6273 23.4047 45.2992 23.5426 44.9578 23.5426L43.9228 23.5469V15.8257C43.9228 14.8671 43.141 14.0857 42.1742 14.0813H34.4755L34.4799 13.0221C34.4821 12.685 34.6165 12.3633 34.8543 12.1269L37.3009 9.67785V9.67566C37.6621 9.85294 38.0585 9.94705 38.4593 9.95142C39.1728 9.95361 39.8577 9.66909 40.3576 9.16355C41.397 8.11521 41.397 6.42999 40.3576 5.38164C39.8577 4.87826 39.1728 4.59377 38.4593 4.59595C37.7458 4.59595 37.063 4.88047 36.5632 5.38607C35.7682 6.19366 35.5722 7.41054 36.0721 8.42387L33.6034 10.8948C33.0397 11.4573 32.7204 12.2211 32.7182 13.0156L32.7137 14.0793H29.9015V6.18262C31.137 5.75584 31.8835 4.50396 31.6655 3.22141C31.4475 1.93887 30.3288 1 29.0207 1C27.7126 1 26.5938 1.93892 26.3758 3.22141C26.1578 4.50396 26.9044 5.7558 28.1398 6.18262V14.0837H25.3276L25.3232 13.0201C25.321 12.2234 25.0017 11.4596 24.4379 10.8949L21.9693 8.42398C22.4691 7.41065 22.2732 6.19377 21.4782 5.38399C20.9783 4.87843 20.2956 4.59612 19.5821 4.59612C18.8686 4.59393 18.1837 4.87846 17.6838 5.38399C16.6443 6.43452 16.6443 8.11756 17.6838 9.16809C18.1837 9.67147 18.8686 9.95378 19.5799 9.95159C19.9829 9.9494 20.3793 9.85529 20.7382 9.67802L23.1848 12.1271C23.4249 12.3656 23.5592 12.6874 23.5592 13.0222L23.5636 14.0815L15.8672 14.0837C14.9004 14.0859 14.1186 14.8672 14.1186 15.828V23.5448L13.0814 23.5404C12.74 23.5404 12.4141 23.4025 12.1741 23.1596L9.71421 20.6953C10.2141 19.6797 10.0181 18.4607 9.22313 17.6531C8.72103 17.1497 8.03833 16.8652 7.32483 16.8696C6.61134 16.8674 5.92642 17.1519 5.42654 17.6575C4.38488 18.7058 4.38488 20.391 5.42654 21.4394C5.92863 21.9428 6.61134 22.2251 7.32483 22.2229C7.72563 22.2207 8.12424 22.1266 8.48319 21.9493L10.9232 24.394C11.4914 24.9674 12.2665 25.2891 13.0769 25.2891L14.1208 25.2935V28.1234L6.24562 28.1256C5.814 26.889 4.54775 26.1405 3.25065 26.3572C1.95135 26.5739 1 27.6923 1 28.9988C1 30.3076 1.95135 31.426 3.25065 31.6427C4.54775 31.8594 5.81401 31.1109 6.24562 29.8743H14.1185V32.7042L13.0769 32.7086V32.7108C12.2665 32.7108 11.4913 33.0325 10.9231 33.606L8.48313 36.0485V36.0506C8.12418 35.8734 7.72555 35.7793 7.32477 35.7771C6.61128 35.7749 5.92857 36.0572 5.42648 36.5606C4.38482 37.6089 4.38482 39.2941 5.42648 40.3425C5.92638 40.848 6.61128 41.1326 7.32477 41.1304C8.03827 41.1325 8.72318 40.8502 9.22307 40.3425C10.0181 39.5349 10.2162 38.318 9.71636 37.3025L12.1762 34.8381C12.4141 34.5952 12.7422 34.4595 13.0835 34.4595L14.1185 34.4551V42.1764C14.1185 43.135 14.9003 43.9164 15.8671 43.9207H23.5658L23.5614 44.98C23.5592 45.3171 23.4249 45.6388 23.187 45.8752L20.7404 48.3242V48.3264C20.3793 48.1491 19.9829 48.055 19.5821 48.0507C18.8686 48.0485 18.1837 48.333 17.6838 48.8385C16.6443 49.8869 16.6443 51.5721 17.6838 52.6204C18.1837 53.1238 18.8686 53.4083 19.5821 53.4061C20.2956 53.4061 20.9783 53.1216 21.4782 52.616C22.2732 51.8084 22.4692 50.5915 21.9693 49.5782L24.4379 47.1051C25.0017 46.5404 25.321 45.7788 25.3232 44.9821L25.3276 43.9184H28.1398V51.8196V51.8174C26.9044 52.2463 26.16 53.496 26.378 54.7786C26.5961 56.0611 27.7126 57 29.0207 57C30.3288 57 31.4475 56.0611 31.6655 54.7786C31.8835 53.496 31.137 52.2464 29.9015 51.8174V43.9163H32.7138L32.7182 44.9799V44.9821C32.7204 45.7788 33.0397 46.5426 33.6034 47.1051L36.0721 49.576V49.5782C35.5722 50.5915 35.7682 51.8084 36.5632 52.616C37.0631 53.1216 37.7458 53.4061 38.4593 53.4061C39.1728 53.4061 39.8577 53.1238 40.3576 52.616C41.397 51.5677 41.397 49.8846 40.3576 48.8341C39.8577 48.3307 39.1728 48.0484 38.4615 48.0506C38.0585 48.0528 37.6621 48.1469 37.3031 48.3242L34.8565 45.8751C34.6165 45.6366 34.4821 45.3148 34.4821 44.98L34.4777 43.9207L42.1742 43.9185C43.1409 43.9163 43.9227 43.135 43.9227 42.1742V34.4574L44.9599 34.4618C45.3013 34.4618 45.6272 34.5996 45.8673 34.8426L48.3271 37.3069C47.8272 38.3224 48.0232 39.5415 48.8182 40.3491C49.3203 40.8525 50.003 41.137 50.7165 41.1326C51.43 41.1348 52.1149 40.8503 52.6148 40.3447C53.6565 39.2964 53.6565 37.6112 52.6148 36.5628C52.1127 36.0594 51.43 35.7771 50.7165 35.7793C50.3157 35.7815 49.9171 35.8756 49.5581 36.0529L47.1181 33.6082C46.55 33.0348 45.7748 32.713 44.9644 32.713L43.9205 32.7087V29.8766H51.7957C52.1326 30.8133 52.9651 31.4874 53.956 31.6231C54.9492 31.7566 55.9336 31.332 56.5106 30.5178C57.0875 29.7059 57.1602 28.64 56.6977 27.758C56.2375 26.876 55.3192 26.3201 54.3193 26.3223L54.3172 26.3221ZM50.0692 18.8894C50.241 18.7165 50.4744 18.618 50.7166 18.618C50.9611 18.618 51.1945 18.7143 51.364 18.8872C51.7274 19.2527 51.7274 19.8392 51.364 20.2047C50.9985 20.5593 50.4127 20.5527 50.0537 20.1894C49.697 19.8261 49.7014 19.2439 50.0692 18.8872L50.0692 18.8894ZM37.8164 6.61132C37.986 6.44061 38.2194 6.34212 38.4638 6.34212C38.7083 6.34212 38.9417 6.44061 39.1113 6.61132C39.4746 6.97682 39.4746 7.56336 39.1113 7.92888C38.9417 8.10178 38.7083 8.19808 38.4638 8.19808C38.2216 8.19808 37.9882 8.10178 37.8186 7.93108C37.4553 7.56558 37.4553 6.97904 37.8164 6.61132ZM20.2254 7.93107C19.8642 8.27906 19.2917 8.27906 18.9305 7.93107C18.5671 7.56557 18.5671 6.97904 18.9305 6.61351C19.1001 6.44061 19.3335 6.34431 19.5779 6.34431C19.8202 6.34431 20.0536 6.44061 20.2231 6.61132C20.5865 6.97681 20.5866 7.56336 20.2254 7.93107ZM7.97262 20.2046C7.80085 20.3775 7.56742 20.4738 7.3252 20.4738C7.08076 20.4738 6.84732 20.3775 6.67777 20.2068C6.31441 19.8413 6.31441 19.2548 6.67777 18.8893C6.84734 18.7164 7.08077 18.6201 7.3252 18.6201C7.56962 18.6201 7.80307 18.7164 7.97262 18.8893C8.33378 19.2548 8.33378 19.8391 7.97262 20.2046ZM3.72457 29.9284C3.34359 29.9349 3.00002 29.7117 2.85029 29.3659C2.70054 29.0201 2.77761 28.6174 3.04408 28.3482C3.30834 28.0812 3.71135 27.998 4.0637 28.1425C4.41385 28.2847 4.64285 28.624 4.64285 29.0004C4.64505 29.5081 4.23547 29.924 3.72457 29.9284ZM7.97262 39.112C7.80085 39.2849 7.56742 39.3833 7.3252 39.3833C7.08076 39.3833 6.84732 39.287 6.67777 39.1141C6.31441 38.7487 6.31441 38.1621 6.67777 37.7966C6.84734 37.6259 7.08077 37.5274 7.3252 37.5274C7.56962 37.5274 7.80307 37.6259 7.97262 37.7966C8.33598 38.1621 8.33378 38.7486 7.97262 39.112ZM20.2254 51.39C19.8598 51.7446 19.274 51.738 18.9151 51.3747C18.5583 51.0114 18.5627 50.4292 18.9305 50.0725C19.1001 49.8996 19.3335 49.8033 19.5779 49.8033C19.8202 49.8033 20.0536 49.8996 20.2232 50.0703C20.5865 50.4358 20.5866 51.0223 20.2254 51.39ZM37.8164 50.0703C37.986 49.8995 38.2194 49.8033 38.4638 49.8033C38.7083 49.8033 38.9417 49.8996 39.1113 50.0703C39.4746 50.4358 39.4746 51.0223 39.1113 51.3878C38.9417 51.5607 38.7083 51.657 38.4638 51.657C38.2216 51.6592 37.986 51.5607 37.8164 51.39C37.4531 51.0245 37.4531 50.438 37.8164 50.0703ZM28.1006 3.66535C28.1072 3.29767 28.334 2.96718 28.6775 2.83148C29.0211 2.6936 29.4153 2.77458 29.6751 3.03721C29.935 3.29985 30.012 3.69162 29.8689 4.03082C29.7257 4.37005 29.391 4.59329 29.021 4.59329C28.5101 4.58672 28.0984 4.17308 28.1006 3.66535ZM29.9416 54.3363C29.935 54.7039 29.7082 55.0344 29.3646 55.1701C29.0211 55.308 28.6269 55.227 28.3671 54.9644C28.1072 54.7018 28.0301 54.31 28.1733 53.9708C28.3164 53.6316 28.6511 53.4083 29.0211 53.4083C29.532 53.4149 29.9438 53.8285 29.9416 54.3363ZM33.5884 42.1719C33.584 42.1698 33.5796 42.1698 33.5774 42.1719H29.0365C29.0255 42.1654 29.0145 42.1654 29.0034 42.1719H24.4758C24.467 42.1719 24.4604 42.1676 24.4537 42.1676H24.4493C24.4405 42.1676 24.4339 42.1719 24.4273 42.1719H15.883L15.8764 33.5946C15.8764 33.5858 15.8808 33.5792 15.8808 33.5727C15.8808 33.5639 15.8764 33.5596 15.8764 33.5508V29.0313C15.8764 29.0204 15.883 29.0094 15.883 28.9985C15.883 28.9876 15.8764 28.9766 15.8764 28.9635V24.4681C15.8764 24.4528 15.8852 24.4396 15.8852 24.4243C15.8852 24.409 15.8764 24.3937 15.8764 24.3762L15.8676 15.8341H42.1619L42.1663 24.407C42.1663 24.4158 42.1619 24.4223 42.1619 24.4289C42.1619 24.4376 42.1663 24.442 42.1663 24.4508V28.9702C42.1663 28.9812 42.1597 28.9921 42.1597 29.0031C42.1597 29.014 42.1663 29.025 42.1663 29.0381V33.5335C42.1663 33.5488 42.1575 33.5619 42.1575 33.5772C42.1575 33.5926 42.1663 33.6079 42.1663 33.6254L42.1751 42.1675L33.5884 42.1719ZM50.0696 37.7969C50.2414 37.624 50.4748 37.5277 50.717 37.5277C50.9615 37.5277 51.1949 37.624 51.3644 37.7947C51.7278 38.1602 51.7278 38.7468 51.3644 39.1123C51.0033 39.4603 50.4307 39.4603 50.0695 39.1123C49.7084 38.7468 49.7084 38.1624 50.0696 37.7969ZM54.3176 29.9289C53.9389 29.9354 53.5931 29.7144 53.4434 29.3664C53.2936 29.0206 53.3685 28.6179 53.6349 28.3509C53.9014 28.0817 54.3044 27.9985 54.6546 28.1408C55.0069 28.283 55.2359 28.6245 55.2359 29.0009C55.2381 29.5087 54.8285 29.9223 54.3176 29.9289Z" fill="#703391"/>
<path d="M29.9394 54.3363H29.9416M29.9416 54.3363C29.935 54.7039 29.7082 55.0344 29.3646 55.1701C29.0211 55.308 28.6269 55.227 28.3671 54.9644C28.1072 54.7018 28.0301 54.31 28.1733 53.9708C28.3164 53.6316 28.6511 53.4083 29.0211 53.4083C29.532 53.4149 29.9438 53.8285 29.9416 54.3363ZM36.5409 21.4566C35.0941 21.461 33.9225 22.632 33.9247 24.0699V30.7933L29.3772 22.7807L29.0799 22.2838L29.0006 22.2904V22.2926C28.8289 22.0956 28.6241 21.9293 28.3972 21.8002C27.7938 21.4565 27.0759 21.3668 26.4065 21.5507C25.7348 21.7367 25.1667 22.1788 24.8275 22.7806L19.2251 32.6427C18.516 33.8968 18.9521 35.4836 20.2051 36.2036C21.467 36.8712 23.0371 36.44 23.7749 35.221L24.2307 34.4199H26.4748H26.4726C27.6045 34.4155 28.6042 33.6933 28.9566 32.6275L30.4299 35.221C30.7712 35.8228 31.3394 36.2649 32.0089 36.4488C32.6805 36.6348 33.3962 36.5451 34.0019 36.2014C34.2485 36.057 34.4709 35.8688 34.6581 35.6499C35.147 36.1642 35.8275 36.4575 36.541 36.4575C37.9878 36.4531 39.1572 35.2844 39.155 33.8443V24.0701C39.1572 22.6322 37.9877 21.4633 36.5409 21.4566ZM33.1231 34.6805H33.1253C32.7135 34.8993 32.2026 34.7571 31.9648 34.3587L27.1045 25.8015L24.18 30.9469H26.4769H26.4747C26.9548 30.9469 27.3424 31.3321 27.3424 31.8093C27.3424 32.2842 26.9548 32.6716 26.4747 32.6716H23.2L22.2399 34.3634C22.1276 34.5647 21.9404 34.7136 21.718 34.7748C21.4955 34.8361 21.2555 34.8055 21.0573 34.6895C20.8569 34.5735 20.7137 34.3831 20.6565 34.1598C20.6014 33.9366 20.6389 33.7024 20.76 33.5054L26.3624 23.6394V23.6416C26.4725 23.4446 26.6575 23.3002 26.8777 23.2389C27.0957 23.1776 27.3291 23.2082 27.5229 23.3221C27.6462 23.4008 27.7453 23.5125 27.8114 23.6438L33.4446 33.5059V33.5037C33.6824 33.9173 33.5393 34.4448 33.1253 34.6834L33.1231 34.6805ZM37.3931 33.8422H37.3953C37.3998 34.072 37.3139 34.2931 37.1531 34.4572C36.9923 34.6192 36.7721 34.7133 36.5409 34.7133C36.3119 34.7133 36.0917 34.6192 35.9309 34.4572C35.7702 34.2931 35.6821 34.072 35.6887 33.8422V24.0703C35.6821 23.8427 35.7702 23.6216 35.9309 23.4575C36.0917 23.2933 36.3119 23.2014 36.5409 23.2014C36.7721 23.2014 36.9924 23.2933 37.1531 23.4575C37.3139 23.6216 37.3998 23.8427 37.3953 24.0703L37.3931 33.8422ZM54.3172 26.3221C53.1765 26.3265 52.1635 27.0509 51.7957 28.1255H43.9228V25.2957L44.9645 25.2913C45.7749 25.2913 46.55 24.9674 47.1182 24.3939L49.5582 21.9514C49.9172 22.1287 50.3158 22.2228 50.7166 22.225C51.4301 22.2272 52.1128 21.9427 52.6149 21.4393C53.6565 20.3932 53.6565 18.7057 52.6149 17.6574C52.115 17.1518 51.4301 16.8673 50.7166 16.8695C50.0031 16.8673 49.3182 17.1519 48.8183 17.6574C48.0232 18.465 47.8251 19.6841 48.3272 20.6974L45.8673 23.1617L45.8651 23.1639C45.6273 23.4047 45.2992 23.5426 44.9578 23.5426L43.9228 23.5469V15.8257C43.9228 14.8671 43.141 14.0857 42.1742 14.0813H34.4755L34.4799 13.0221C34.4821 12.685 34.6165 12.3633 34.8543 12.1269L37.3009 9.67785V9.67566C37.6621 9.85294 38.0585 9.94705 38.4593 9.95142C39.1728 9.95361 39.8577 9.66909 40.3576 9.16355C41.397 8.11521 41.397 6.42999 40.3576 5.38164C39.8577 4.87826 39.1728 4.59377 38.4593 4.59595C37.7458 4.59595 37.0631 4.88047 36.5632 5.38607C35.7681 6.19366 35.5722 7.41054 36.0721 8.42387L33.6034 10.8948C33.0397 11.4573 32.7204 12.2211 32.7182 13.0156L32.7137 14.0793H29.9015V6.18262C31.137 5.75584 31.8835 4.50396 31.6655 3.22141C31.4475 1.93887 30.3288 1 29.0207 1C27.7126 1 26.5938 1.93892 26.3758 3.22141C26.1578 4.50396 26.9044 5.7558 28.1398 6.18262V14.0837H25.3276L25.3232 13.0201C25.321 12.2234 25.0017 11.4596 24.4379 10.8949L21.9693 8.42398C22.4691 7.41065 22.2732 6.19377 21.4782 5.38399C20.9783 4.87843 20.2956 4.59612 19.5821 4.59612C18.8686 4.59393 18.1837 4.87846 17.6838 5.38399C16.6443 6.43452 16.6443 8.11756 17.6838 9.16809C18.1837 9.67147 18.8686 9.95378 19.5799 9.95159C19.9829 9.9494 20.3793 9.85529 20.7382 9.67802L23.1848 12.1271C23.4249 12.3656 23.5592 12.6874 23.5592 13.0222L23.5636 14.0815L15.8672 14.0837C14.9004 14.0859 14.1186 14.8672 14.1186 15.828V23.5448L13.0814 23.5404C12.74 23.5404 12.4141 23.4025 12.1741 23.1596L9.71421 20.6953C10.2141 19.6797 10.0181 18.4607 9.22313 17.6531C8.72103 17.1497 8.03833 16.8652 7.32483 16.8696C6.61134 16.8674 5.92642 17.1519 5.42654 17.6575C4.38488 18.7058 4.38488 20.391 5.42654 21.4394C5.92863 21.9428 6.61134 22.2251 7.32483 22.2229C7.72563 22.2207 8.12424 22.1266 8.48319 21.9493L10.9232 24.394C11.4914 24.9674 12.2665 25.2891 13.0769 25.2891L14.1208 25.2935V28.1234L6.24562 28.1256C5.814 26.889 4.54775 26.1405 3.25065 26.3572C1.95135 26.5739 1 27.6923 1 28.9988C1 30.3076 1.95135 31.426 3.25065 31.6427C4.54775 31.8594 5.81401 31.1109 6.24562 29.8743H14.1185V32.7042L13.0769 32.7086V32.7108C12.2665 32.7108 11.4913 33.0325 10.9231 33.606L8.48313 36.0485V36.0506C8.12418 35.8734 7.72555 35.7793 7.32477 35.7771C6.61128 35.7749 5.92857 36.0572 5.42648 36.5606C4.38482 37.6089 4.38482 39.2941 5.42648 40.3425C5.92638 40.848 6.61128 41.1326 7.32477 41.1304C8.03827 41.1325 8.72318 40.8502 9.22307 40.3425C10.0181 39.5349 10.2162 38.318 9.71636 37.3025L12.1762 34.8381C12.4141 34.5952 12.7422 34.4595 13.0835 34.4595L14.1185 34.4551V42.1764C14.1185 43.135 14.9003 43.9164 15.8671 43.9207H23.5658L23.5614 44.98C23.5592 45.3171 23.4249 45.6388 23.187 45.8752L20.7404 48.3242V48.3264C20.3793 48.1491 19.9829 48.055 19.5821 48.0507C18.8686 48.0485 18.1837 48.333 17.6838 48.8385C16.6443 49.8869 16.6443 51.5721 17.6838 52.6204C18.1837 53.1238 18.8686 53.4083 19.5821 53.4061C20.2956 53.4061 20.9783 53.1216 21.4782 52.616C22.2732 51.8084 22.4691 50.5915 21.9693 49.5782L24.4379 47.1051C25.0017 46.5404 25.321 45.7788 25.3232 44.9821L25.3276 43.9184H28.1398V51.8196V51.8174C26.9044 52.2463 26.16 53.496 26.378 54.7786C26.5961 56.0611 27.7126 57 29.0207 57C30.3288 57 31.4475 56.0611 31.6655 54.7786C31.8835 53.496 31.137 52.2464 29.9015 51.8174V43.9163H32.7138L32.7182 44.9799V44.9821C32.7204 45.7788 33.0397 46.5426 33.6034 47.1051L36.0721 49.576V49.5782C35.5722 50.5915 35.7682 51.8084 36.5632 52.616C37.0631 53.1216 37.7458 53.4061 38.4593 53.4061C39.1728 53.4061 39.8577 53.1238 40.3576 52.616C41.397 51.5677 41.397 49.8846 40.3576 48.8341C39.8577 48.3307 39.1728 48.0484 38.4615 48.0506C38.0585 48.0528 37.6621 48.1469 37.3031 48.3242L34.8565 45.8751C34.6165 45.6366 34.4821 45.3148 34.4821 44.98L34.4777 43.9207L42.1742 43.9185C43.1409 43.9163 43.9227 43.135 43.9227 42.1742V34.4574L44.9599 34.4618C45.3013 34.4618 45.6272 34.5996 45.8673 34.8426L48.3271 37.3069C47.8272 38.3224 48.0232 39.5415 48.8182 40.3491C49.3203 40.8525 50.003 41.137 50.7165 41.1326C51.43 41.1348 52.1149 40.8503 52.6148 40.3447C53.6565 39.2964 53.6565 37.6112 52.6148 36.5628C52.1127 36.0594 51.43 35.7771 50.7165 35.7793C50.3157 35.7815 49.9171 35.8756 49.5581 36.0529L47.1181 33.6082C46.55 33.0348 45.7748 32.713 44.9644 32.713L43.9205 32.7087V29.8766H51.7957C52.1326 30.8133 52.9651 31.4874 53.956 31.6231C54.9492 31.7566 55.9336 31.332 56.5106 30.5178C57.0875 29.7059 57.1602 28.64 56.6977 27.758C56.2375 26.876 55.3192 26.3201 54.3193 26.3223L54.3172 26.3221ZM50.0692 18.8894C50.241 18.7165 50.4744 18.618 50.7166 18.618C50.9611 18.618 51.1945 18.7143 51.364 18.8872C51.7274 19.2527 51.7274 19.8392 51.364 20.2047C50.9985 20.5593 50.4127 20.5527 50.0537 20.1894C49.697 19.8261 49.7014 19.2439 50.0692 18.8872L50.0692 18.8894ZM37.8164 6.61132C37.986 6.44061 38.2194 6.34212 38.4638 6.34212C38.7083 6.34212 38.9417 6.44061 39.1113 6.61132C39.4746 6.97682 39.4746 7.56336 39.1113 7.92888C38.9417 8.10178 38.7083 8.19808 38.4638 8.19808C38.2216 8.19808 37.9882 8.10178 37.8186 7.93108C37.4553 7.56558 37.4553 6.97904 37.8164 6.61132ZM20.2254 7.93107C19.8642 8.27906 19.2917 8.27906 18.9305 7.93107C18.5671 7.56557 18.5671 6.97904 18.9305 6.61351C19.1001 6.44061 19.3335 6.34431 19.5779 6.34431C19.8202 6.34431 20.0536 6.44061 20.2231 6.61132C20.5865 6.97681 20.5866 7.56336 20.2254 7.93107ZM7.97262 20.2046C7.80085 20.3775 7.56742 20.4738 7.3252 20.4738C7.08076 20.4738 6.84732 20.3775 6.67777 20.2068C6.31441 19.8413 6.31441 19.2548 6.67777 18.8893C6.84734 18.7164 7.08077 18.6201 7.3252 18.6201C7.56962 18.6201 7.80307 18.7164 7.97262 18.8893C8.33378 19.2548 8.33378 19.8391 7.97262 20.2046ZM3.72457 29.9284C3.34359 29.9349 3.00002 29.7117 2.85029 29.3659C2.70054 29.0201 2.77761 28.6174 3.04408 28.3482C3.30834 28.0812 3.71135 27.998 4.0637 28.1425C4.41385 28.2847 4.64285 28.624 4.64285 29.0004C4.64505 29.5081 4.23547 29.924 3.72457 29.9284ZM7.97262 39.112C7.80085 39.2849 7.56742 39.3833 7.3252 39.3833C7.08076 39.3833 6.84732 39.287 6.67777 39.1141C6.31441 38.7487 6.31441 38.1621 6.67777 37.7966C6.84734 37.6259 7.08077 37.5274 7.3252 37.5274C7.56962 37.5274 7.80307 37.6259 7.97262 37.7966C8.33598 38.1621 8.33378 38.7486 7.97262 39.112ZM20.2254 51.39C19.8598 51.7446 19.274 51.738 18.9151 51.3747C18.5583 51.0114 18.5627 50.4292 18.9305 50.0725C19.1001 49.8996 19.3335 49.8033 19.5779 49.8033C19.8202 49.8033 20.0536 49.8996 20.2232 50.0703C20.5865 50.4358 20.5866 51.0223 20.2254 51.39ZM37.8164 50.0703C37.986 49.8995 38.2194 49.8033 38.4638 49.8033C38.7083 49.8033 38.9417 49.8996 39.1113 50.0703C39.4746 50.4358 39.4746 51.0223 39.1113 51.3878C38.9417 51.5607 38.7083 51.657 38.4638 51.657C38.2216 51.6592 37.986 51.5607 37.8164 51.39C37.4531 51.0245 37.4531 50.438 37.8164 50.0703ZM28.1006 3.66535C28.1072 3.29767 28.334 2.96718 28.6775 2.83148C29.0211 2.6936 29.4153 2.77458 29.6751 3.03721C29.935 3.29985 30.012 3.69162 29.8689 4.03082C29.7257 4.37005 29.391 4.59329 29.021 4.59329C28.5101 4.58672 28.0984 4.17308 28.1006 3.66535ZM33.5884 42.1719C33.584 42.1698 33.5796 42.1698 33.5774 42.1719H29.0365C29.0255 42.1654 29.0145 42.1654 29.0034 42.1719H24.4758C24.467 42.1719 24.4604 42.1676 24.4537 42.1676H24.4493C24.4405 42.1676 24.4339 42.1719 24.4273 42.1719H15.883L15.8764 33.5946C15.8764 33.5858 15.8808 33.5792 15.8808 33.5727C15.8808 33.5639 15.8764 33.5596 15.8764 33.5508V29.0313C15.8764 29.0204 15.883 29.0094 15.883 28.9985C15.883 28.9876 15.8764 28.9766 15.8764 28.9635V24.4681C15.8764 24.4528 15.8852 24.4397 15.8852 24.4243C15.8852 24.409 15.8764 24.3937 15.8764 24.3762L15.8676 15.8341H42.1619L42.1663 24.407C42.1663 24.4158 42.1619 24.4223 42.1619 24.4289C42.1619 24.4376 42.1663 24.442 42.1663 24.4508V28.9702C42.1663 28.9812 42.1597 28.9921 42.1597 29.0031C42.1597 29.014 42.1663 29.025 42.1663 29.0381V33.5335C42.1663 33.5488 42.1575 33.5619 42.1575 33.5772C42.1575 33.5926 42.1663 33.6079 42.1663 33.6254L42.1751 42.1675L33.5884 42.1719ZM50.0696 37.7969C50.2414 37.624 50.4748 37.5277 50.717 37.5277C50.9615 37.5277 51.1949 37.624 51.3644 37.7947C51.7278 38.1602 51.7278 38.7468 51.3644 39.1123C51.0033 39.4603 50.4307 39.4603 50.0695 39.1123C49.7084 38.7468 49.7084 38.1624 50.0696 37.7969ZM54.3176 29.9289C53.9389 29.9354 53.5931 29.7144 53.4434 29.3664C53.2936 29.0206 53.3685 28.6179 53.6349 28.3509C53.9014 28.0817 54.3044 27.9985 54.6546 28.1408C55.0069 28.283 55.2359 28.6245 55.2359 29.0009C55.2381 29.5087 54.8285 29.9223 54.3176 29.9289Z" stroke="#703391" stroke-width="0.5"/>
</svg>
