<svg width="58" height="58" viewBox="0 0 58 58" fill="none" xmlns="http://www.w3.org/2000/svg">
<mask id="path-1-outside-1_3260_17043" maskUnits="userSpaceOnUse" x="0" y="0" width="59" height="58" fill="black">
<rect fill="white" width="59" height="58"/>
<path fill-rule="evenodd" clip-rule="evenodd" d="M33.7123 27.7193C33.7124 26.628 33.3889 25.5612 32.7827 24.6538C32.1765 23.7463 31.3148 23.0391 30.3066 22.6214C29.2984 22.2037 28.189 22.0944 27.1187 22.3073C26.0483 22.5201 25.0652 23.0456 24.2935 23.8173C23.5219 24.5889 22.9964 25.5721 22.7835 26.6424C22.5706 27.7128 22.6799 28.8222 23.0976 29.8304C23.5153 30.8386 24.2226 31.7003 25.13 32.3065C26.0374 32.9127 27.1042 33.2362 28.1955 33.2361C29.6582 33.2346 31.0606 32.6529 32.0948 31.6186C33.1291 30.5843 33.7108 29.182 33.7123 27.7193ZM36.336 27.7193C36.336 29.3295 35.8585 30.9035 34.964 32.2423C34.0694 33.5812 32.7979 34.6246 31.3102 35.2408C29.8226 35.8569 28.1857 36.0181 26.6064 35.704C25.0272 35.3898 23.5766 34.6143 22.438 33.4757C21.2995 32.3371 20.5242 30.8864 20.2101 29.3072C19.8961 27.7279 20.0574 26.091 20.6737 24.6034C21.2899 23.1158 22.3335 21.8444 23.6724 20.9499C25.0113 20.0554 26.5853 19.5781 28.1955 19.5782C30.354 19.5803 32.4234 20.4388 33.9496 21.9651C35.4758 23.4914 36.334 25.5609 36.336 27.7193ZM45.1458 29.6563L42.2689 30.3567C42.0406 30.4124 41.8313 30.5283 41.663 30.6924C41.4948 30.8566 41.3736 31.0628 41.3123 31.2898C41.0105 32.4036 40.5671 33.4742 39.9929 34.4752C39.8763 34.6789 39.8164 34.9102 39.8195 35.145C39.8225 35.3797 39.8884 35.6094 40.0104 35.81L41.5505 38.3392L38.8136 41.0761L36.2856 39.5366C36.0849 39.4145 35.855 39.3484 35.62 39.3452C35.3851 39.3421 35.1535 39.4019 34.9495 39.5186C33.9487 40.0928 32.8784 40.5362 31.7647 40.8379C31.5378 40.8993 31.3315 41.0204 31.1674 41.1887C31.0033 41.357 30.8873 41.5662 30.8317 41.7946L30.1325 44.6696H26.2585L25.5594 41.7927C25.5039 41.5643 25.388 41.3549 25.2239 41.1866C25.0597 41.0183 24.8533 40.8972 24.6263 40.836C23.5126 40.5344 22.4423 40.091 21.4415 39.5167C21.2377 39.4001 21.0063 39.3402 20.7714 39.3433C20.5365 39.3463 20.3068 39.4122 20.106 39.5341L17.5787 41.0743L14.8418 38.3373L16.3819 35.8082C16.504 35.6076 16.57 35.378 16.5732 35.1432C16.5763 34.9084 16.5165 34.6771 16.4 34.4733C15.8253 33.4724 15.3817 32.4019 15.08 31.2879C15.0186 31.0609 14.8974 30.8546 14.729 30.6904C14.5606 30.5263 14.3512 30.4104 14.1227 30.3548L11.2446 29.6563V25.7817L14.1209 25.0831C14.3494 25.0278 14.5589 24.9119 14.7273 24.7478C14.8958 24.5836 15.0169 24.3772 15.0782 24.1501C15.3801 23.036 15.8237 21.9653 16.3981 20.9641C16.5147 20.7603 16.5745 20.5289 16.5713 20.2942C16.5681 20.0594 16.5021 19.8298 16.3801 19.6292L14.8399 17.1025L17.5769 14.3656L20.106 15.9057C20.3067 16.0279 20.5364 16.0939 20.7713 16.0971C21.0062 16.1003 21.2376 16.0404 21.4415 15.9238C22.4426 15.35 23.5129 14.9065 24.6263 14.6038C24.8534 14.5427 25.0598 14.4216 25.2239 14.2533C25.3881 14.085 25.504 13.8756 25.5594 13.6471L26.2585 10.7702H30.1325L30.8311 13.6471C30.8866 13.8756 31.0025 14.0849 31.1666 14.2532C31.3308 14.4215 31.5371 14.5426 31.7641 14.6038C32.8775 14.9066 33.9478 15.3501 34.9489 15.9238C35.1528 16.0406 35.3844 16.1006 35.6194 16.0974C35.8544 16.0942 36.0843 16.028 36.285 15.9057L38.813 14.3656L41.5499 17.1025L40.0097 19.6317C39.8878 19.8323 39.8219 20.062 39.8188 20.2967C39.8158 20.5315 39.8757 20.7628 39.9923 20.9666C40.5662 21.9677 41.0096 23.0382 41.3116 24.152C41.3728 24.379 41.4939 24.5854 41.6622 24.7495C41.8305 24.9137 42.0399 25.0295 42.2683 25.085L45.1452 25.7835V29.6582L45.1458 29.6563ZM43.6212 32.7273C43.3581 33.5373 43.0315 34.3254 42.6446 35.0841L44.3279 37.8491C44.4812 38.1001 44.5456 38.3955 44.5108 38.6876C44.4759 38.9797 44.3438 39.2516 44.1357 39.4595L39.9388 43.6594C39.7309 43.8676 39.4591 43.9998 39.1671 44.0349C38.875 44.07 38.5796 44.0059 38.3284 43.8529L35.5628 42.1678C34.8037 42.5553 34.015 42.8819 33.2041 43.1444L32.439 46.2912C32.3698 46.5772 32.2064 46.8316 31.9751 47.0135C31.7438 47.1953 31.4581 47.2941 31.1639 47.294H25.2272C24.9331 47.294 24.6475 47.1951 24.4163 47.0133C24.1852 46.8314 24.0219 46.5771 23.9527 46.2912L23.1876 43.1444C22.3764 42.882 21.5875 42.5554 20.8282 42.1678L18.0633 43.8548C17.8119 44.0077 17.5164 44.0717 17.2243 44.0367C16.9322 44.0016 16.6603 43.8694 16.4522 43.6613L12.2585 39.4614C12.0505 39.2534 11.9184 38.9816 11.8834 38.6895C11.8484 38.3974 11.9126 38.1021 12.0657 37.8509L13.7464 35.0841C13.3592 34.3249 13.0326 33.5362 12.7698 32.7254L9.62297 31.9615C9.33711 31.8917 9.08296 31.7279 8.90117 31.4965C8.71938 31.2651 8.62047 30.9794 8.62026 30.6851V24.751C8.62042 24.4568 8.71934 24.1713 8.90116 23.94C9.08297 23.7088 9.33716 23.5453 9.62297 23.4758L12.7698 22.7113C13.0325 21.9007 13.3591 21.1122 13.7464 20.3532L12.0626 17.5871C11.9095 17.3358 11.8452 17.0403 11.8802 16.7482C11.9152 16.456 12.0473 16.1841 12.2554 15.976L16.4522 11.7786C16.6605 11.5708 16.9324 11.4389 17.2245 11.404C17.5167 11.3692 17.812 11.4334 18.0633 11.5863L20.8282 13.2702C21.5876 12.8828 22.3765 12.5563 23.1876 12.2936L23.9527 9.1455C24.022 8.85969 24.1853 8.60546 24.4164 8.42362C24.6476 8.24178 24.9331 8.14288 25.2272 8.14279H31.1632C31.4574 8.14285 31.743 8.24172 31.9743 8.42356C32.2055 8.60539 32.369 8.85964 32.4384 9.1455L33.2035 12.2923C34.0143 12.5551 34.803 12.8817 35.5622 13.2689L38.3278 11.5851C38.5789 11.4321 38.8742 11.3678 39.1662 11.4027C39.4583 11.4375 39.7301 11.5695 39.9382 11.7773L44.1357 15.9748C44.3437 16.1828 44.4758 16.4548 44.5107 16.747C44.5455 17.0392 44.4812 17.3346 44.3279 17.5858L42.6446 20.3532C43.0317 21.1123 43.3583 21.9008 43.6212 22.7113L46.7675 23.4758C47.0532 23.5454 47.3073 23.7089 47.489 23.9401C47.6707 24.1713 47.7695 24.4569 47.7696 24.751V30.687C47.7695 30.9812 47.6707 31.2669 47.489 31.4983C47.3073 31.7297 47.0533 31.8935 46.7675 31.9634L43.6212 32.7273ZM51.865 12.8472C55.9151 18.5745 57.6671 25.6138 56.7743 32.5714C55.8815 39.529 52.4088 45.8978 47.0439 50.417C41.6789 54.9361 34.8127 57.2762 27.8046 56.974C20.7964 56.6717 14.1572 53.7492 9.20123 48.785C8.96299 48.5467 8.72973 48.3023 8.49896 48.0547L8.43987 50.0713C8.42968 50.4124 8.28711 50.7361 8.04235 50.9739C7.7976 51.2117 7.46988 51.3449 7.12863 51.3452C7.11557 51.3452 7.10313 51.3452 7.08944 51.3452C6.9172 51.3402 6.74763 51.3013 6.59044 51.2307C6.43325 51.1601 6.29152 51.0592 6.17337 50.9338C6.05522 50.8084 5.96296 50.6609 5.90188 50.4998C5.84079 50.3386 5.81208 50.167 5.81739 49.9948L5.99591 43.8989C6.00221 43.7079 6.05009 43.5206 6.13623 43.35C6.22236 43.1795 6.34467 43.0297 6.49462 42.9113C6.64457 42.7928 6.81856 42.7085 7.00444 42.6642C7.19033 42.62 7.38364 42.6168 7.57089 42.6549L13.5424 43.8728C13.8797 43.9459 14.1747 44.149 14.3634 44.438C14.5521 44.7271 14.6194 45.0788 14.5506 45.4171C14.4818 45.7554 14.2825 46.0529 13.9959 46.2453C13.7092 46.4376 13.3584 46.5094 13.0192 46.4449L10.0192 45.8297C10.3551 46.206 10.7003 46.5761 11.0561 46.9294C15.5488 51.4224 21.564 54.066 27.912 54.3373C34.26 54.6087 40.4788 52.4882 45.3386 48.395C50.1984 44.3019 53.3453 38.5341 54.1571 32.2324C54.9689 25.9306 53.3865 19.5536 49.7227 14.3625C49.5218 14.0784 49.4419 13.7261 49.5007 13.3832C49.5595 13.0402 49.7521 12.7346 50.0362 12.5337C50.3203 12.3328 50.6726 12.2529 51.0155 12.3117C51.3585 12.3705 51.6641 12.5631 51.865 12.8472ZM5.38632 38.2926C5.45564 38.4541 5.49179 38.6279 5.49264 38.8037C5.49349 38.9795 5.45902 39.1537 5.39128 39.3159C5.32353 39.4781 5.22389 39.625 5.09827 39.748C4.97265 39.871 4.82361 39.9674 4.65999 40.0317C4.49637 40.096 4.32151 40.1267 4.14578 40.1221C3.97006 40.1175 3.79705 40.0776 3.63702 40.0049C3.47699 39.9321 3.33321 39.828 3.2142 39.6986C3.09519 39.5692 3.00339 39.4173 2.94424 39.2517C0.769044 33.7232 0.408703 27.6462 1.91532 21.8993C3.42195 16.1525 6.71743 11.0339 11.3252 7.28365C15.933 3.53342 21.6142 1.346 27.5472 1.03773C33.4802 0.729464 39.3575 2.31633 44.3291 5.56883L43.9198 3.55719C43.8583 3.21941 43.9315 2.87097 44.1239 2.58658C44.3162 2.30219 44.6124 2.10449 44.9488 2.03589C45.2852 1.96729 45.6351 2.03325 45.9235 2.21961C46.2118 2.40598 46.4157 2.69791 46.4913 3.03282L47.7142 9.03851C47.7525 9.22572 47.7495 9.41905 47.7053 9.60497C47.6611 9.79088 47.5768 9.96488 47.4583 10.1148C47.3398 10.2647 47.1899 10.3869 47.0192 10.4728C46.8485 10.5588 46.6611 10.6063 46.4701 10.6122L40.3438 10.7939H40.3046C39.9566 10.799 39.6209 10.6657 39.3713 10.4233C39.1217 10.1809 38.9785 9.84923 38.9734 9.5013C38.9683 9.15338 39.1016 8.81767 39.344 8.56803C39.5864 8.31839 39.9181 8.17527 40.266 8.17016L43.3606 8.07872C38.8818 5.00358 33.5342 3.44712 28.1047 3.63833C22.6751 3.82953 17.4503 5.75832 13.1989 9.14091C8.94751 12.5235 5.89399 17.1813 4.48761 22.429C3.08123 27.6767 3.39625 33.2373 5.38632 38.2926Z"/>
</mask>
<path fill-rule="evenodd" clip-rule="evenodd" d="M33.7123 27.7193C33.7124 26.628 33.3889 25.5612 32.7827 24.6538C32.1765 23.7463 31.3148 23.0391 30.3066 22.6214C29.2984 22.2037 28.189 22.0944 27.1187 22.3073C26.0483 22.5201 25.0652 23.0456 24.2935 23.8173C23.5219 24.5889 22.9964 25.5721 22.7835 26.6424C22.5706 27.7128 22.6799 28.8222 23.0976 29.8304C23.5153 30.8386 24.2226 31.7003 25.13 32.3065C26.0374 32.9127 27.1042 33.2362 28.1955 33.2361C29.6582 33.2346 31.0606 32.6529 32.0948 31.6186C33.1291 30.5843 33.7108 29.182 33.7123 27.7193ZM36.336 27.7193C36.336 29.3295 35.8585 30.9035 34.964 32.2423C34.0694 33.5812 32.7979 34.6246 31.3102 35.2408C29.8226 35.8569 28.1857 36.0181 26.6064 35.704C25.0272 35.3898 23.5766 34.6143 22.438 33.4757C21.2995 32.3371 20.5242 30.8864 20.2101 29.3072C19.8961 27.7279 20.0574 26.091 20.6737 24.6034C21.2899 23.1158 22.3335 21.8444 23.6724 20.9499C25.0113 20.0554 26.5853 19.5781 28.1955 19.5782C30.354 19.5803 32.4234 20.4388 33.9496 21.9651C35.4758 23.4914 36.334 25.5609 36.336 27.7193ZM45.1458 29.6563L42.2689 30.3567C42.0406 30.4124 41.8313 30.5283 41.663 30.6924C41.4948 30.8566 41.3736 31.0628 41.3123 31.2898C41.0105 32.4036 40.5671 33.4742 39.9929 34.4752C39.8763 34.6789 39.8164 34.9102 39.8195 35.145C39.8225 35.3797 39.8884 35.6094 40.0104 35.81L41.5505 38.3392L38.8136 41.0761L36.2856 39.5366C36.0849 39.4145 35.855 39.3484 35.62 39.3452C35.3851 39.3421 35.1535 39.4019 34.9495 39.5186C33.9487 40.0928 32.8784 40.5362 31.7647 40.8379C31.5378 40.8993 31.3315 41.0204 31.1674 41.1887C31.0033 41.357 30.8873 41.5662 30.8317 41.7946L30.1325 44.6696H26.2585L25.5594 41.7927C25.5039 41.5643 25.388 41.3549 25.2239 41.1866C25.0597 41.0183 24.8533 40.8972 24.6263 40.836C23.5126 40.5344 22.4423 40.091 21.4415 39.5167C21.2377 39.4001 21.0063 39.3402 20.7714 39.3433C20.5365 39.3463 20.3068 39.4122 20.106 39.5341L17.5787 41.0743L14.8418 38.3373L16.3819 35.8082C16.504 35.6076 16.57 35.378 16.5732 35.1432C16.5763 34.9084 16.5165 34.6771 16.4 34.4733C15.8253 33.4724 15.3817 32.4019 15.08 31.2879C15.0186 31.0609 14.8974 30.8546 14.729 30.6904C14.5606 30.5263 14.3512 30.4104 14.1227 30.3548L11.2446 29.6563V25.7817L14.1209 25.0831C14.3494 25.0278 14.5589 24.9119 14.7273 24.7478C14.8958 24.5836 15.0169 24.3772 15.0782 24.1501C15.3801 23.036 15.8237 21.9653 16.3981 20.9641C16.5147 20.7603 16.5745 20.5289 16.5713 20.2942C16.5681 20.0594 16.5021 19.8298 16.3801 19.6292L14.8399 17.1025L17.5769 14.3656L20.106 15.9057C20.3067 16.0279 20.5364 16.0939 20.7713 16.0971C21.0062 16.1003 21.2376 16.0404 21.4415 15.9238C22.4426 15.35 23.5129 14.9065 24.6263 14.6038C24.8534 14.5427 25.0598 14.4216 25.2239 14.2533C25.3881 14.085 25.504 13.8756 25.5594 13.6471L26.2585 10.7702H30.1325L30.8311 13.6471C30.8866 13.8756 31.0025 14.0849 31.1666 14.2532C31.3308 14.4215 31.5371 14.5426 31.7641 14.6038C32.8775 14.9066 33.9478 15.3501 34.9489 15.9238C35.1528 16.0406 35.3844 16.1006 35.6194 16.0974C35.8544 16.0942 36.0843 16.028 36.285 15.9057L38.813 14.3656L41.5499 17.1025L40.0097 19.6317C39.8878 19.8323 39.8219 20.062 39.8188 20.2967C39.8158 20.5315 39.8757 20.7628 39.9923 20.9666C40.5662 21.9677 41.0096 23.0382 41.3116 24.152C41.3728 24.379 41.4939 24.5854 41.6622 24.7495C41.8305 24.9137 42.0399 25.0295 42.2683 25.085L45.1452 25.7835V29.6582L45.1458 29.6563ZM43.6212 32.7273C43.3581 33.5373 43.0315 34.3254 42.6446 35.0841L44.3279 37.8491C44.4812 38.1001 44.5456 38.3955 44.5108 38.6876C44.4759 38.9797 44.3438 39.2516 44.1357 39.4595L39.9388 43.6594C39.7309 43.8676 39.4591 43.9998 39.1671 44.0349C38.875 44.07 38.5796 44.0059 38.3284 43.8529L35.5628 42.1678C34.8037 42.5553 34.015 42.8819 33.2041 43.1444L32.439 46.2912C32.3698 46.5772 32.2064 46.8316 31.9751 47.0135C31.7438 47.1953 31.4581 47.2941 31.1639 47.294H25.2272C24.9331 47.294 24.6475 47.1951 24.4163 47.0133C24.1852 46.8314 24.0219 46.5771 23.9527 46.2912L23.1876 43.1444C22.3764 42.882 21.5875 42.5554 20.8282 42.1678L18.0633 43.8548C17.8119 44.0077 17.5164 44.0717 17.2243 44.0367C16.9322 44.0016 16.6603 43.8694 16.4522 43.6613L12.2585 39.4614C12.0505 39.2534 11.9184 38.9816 11.8834 38.6895C11.8484 38.3974 11.9126 38.1021 12.0657 37.8509L13.7464 35.0841C13.3592 34.3249 13.0326 33.5362 12.7698 32.7254L9.62297 31.9615C9.33711 31.8917 9.08296 31.7279 8.90117 31.4965C8.71938 31.2651 8.62047 30.9794 8.62026 30.6851V24.751C8.62042 24.4568 8.71934 24.1713 8.90116 23.94C9.08297 23.7088 9.33716 23.5453 9.62297 23.4758L12.7698 22.7113C13.0325 21.9007 13.3591 21.1122 13.7464 20.3532L12.0626 17.5871C11.9095 17.3358 11.8452 17.0403 11.8802 16.7482C11.9152 16.456 12.0473 16.1841 12.2554 15.976L16.4522 11.7786C16.6605 11.5708 16.9324 11.4389 17.2245 11.404C17.5167 11.3692 17.812 11.4334 18.0633 11.5863L20.8282 13.2702C21.5876 12.8828 22.3765 12.5563 23.1876 12.2936L23.9527 9.1455C24.022 8.85969 24.1853 8.60546 24.4164 8.42362C24.6476 8.24178 24.9331 8.14288 25.2272 8.14279H31.1632C31.4574 8.14285 31.743 8.24172 31.9743 8.42356C32.2055 8.60539 32.369 8.85964 32.4384 9.1455L33.2035 12.2923C34.0143 12.5551 34.803 12.8817 35.5622 13.2689L38.3278 11.5851C38.5789 11.4321 38.8742 11.3678 39.1662 11.4027C39.4583 11.4375 39.7301 11.5695 39.9382 11.7773L44.1357 15.9748C44.3437 16.1828 44.4758 16.4548 44.5107 16.747C44.5455 17.0392 44.4812 17.3346 44.3279 17.5858L42.6446 20.3532C43.0317 21.1123 43.3583 21.9008 43.6212 22.7113L46.7675 23.4758C47.0532 23.5454 47.3073 23.7089 47.489 23.9401C47.6707 24.1713 47.7695 24.4569 47.7696 24.751V30.687C47.7695 30.9812 47.6707 31.2669 47.489 31.4983C47.3073 31.7297 47.0533 31.8935 46.7675 31.9634L43.6212 32.7273ZM51.865 12.8472C55.9151 18.5745 57.6671 25.6138 56.7743 32.5714C55.8815 39.529 52.4088 45.8978 47.0439 50.417C41.6789 54.9361 34.8127 57.2762 27.8046 56.974C20.7964 56.6717 14.1572 53.7492 9.20123 48.785C8.96299 48.5467 8.72973 48.3023 8.49896 48.0547L8.43987 50.0713C8.42968 50.4124 8.28711 50.7361 8.04235 50.9739C7.7976 51.2117 7.46988 51.3449 7.12863 51.3452C7.11557 51.3452 7.10313 51.3452 7.08944 51.3452C6.9172 51.3402 6.74763 51.3013 6.59044 51.2307C6.43325 51.1601 6.29152 51.0592 6.17337 50.9338C6.05522 50.8084 5.96296 50.6609 5.90188 50.4998C5.84079 50.3386 5.81208 50.167 5.81739 49.9948L5.99591 43.8989C6.00221 43.7079 6.05009 43.5206 6.13623 43.35C6.22236 43.1795 6.34467 43.0297 6.49462 42.9113C6.64457 42.7928 6.81856 42.7085 7.00444 42.6642C7.19033 42.62 7.38364 42.6168 7.57089 42.6549L13.5424 43.8728C13.8797 43.9459 14.1747 44.149 14.3634 44.438C14.5521 44.7271 14.6194 45.0788 14.5506 45.4171C14.4818 45.7554 14.2825 46.0529 13.9959 46.2453C13.7092 46.4376 13.3584 46.5094 13.0192 46.4449L10.0192 45.8297C10.3551 46.206 10.7003 46.5761 11.0561 46.9294C15.5488 51.4224 21.564 54.066 27.912 54.3373C34.26 54.6087 40.4788 52.4882 45.3386 48.395C50.1984 44.3019 53.3453 38.5341 54.1571 32.2324C54.9689 25.9306 53.3865 19.5536 49.7227 14.3625C49.5218 14.0784 49.4419 13.7261 49.5007 13.3832C49.5595 13.0402 49.7521 12.7346 50.0362 12.5337C50.3203 12.3328 50.6726 12.2529 51.0155 12.3117C51.3585 12.3705 51.6641 12.5631 51.865 12.8472ZM5.38632 38.2926C5.45564 38.4541 5.49179 38.6279 5.49264 38.8037C5.49349 38.9795 5.45902 39.1537 5.39128 39.3159C5.32353 39.4781 5.22389 39.625 5.09827 39.748C4.97265 39.871 4.82361 39.9674 4.65999 40.0317C4.49637 40.096 4.32151 40.1267 4.14578 40.1221C3.97006 40.1175 3.79705 40.0776 3.63702 40.0049C3.47699 39.9321 3.33321 39.828 3.2142 39.6986C3.09519 39.5692 3.00339 39.4173 2.94424 39.2517C0.769044 33.7232 0.408703 27.6462 1.91532 21.8993C3.42195 16.1525 6.71743 11.0339 11.3252 7.28365C15.933 3.53342 21.6142 1.346 27.5472 1.03773C33.4802 0.729464 39.3575 2.31633 44.3291 5.56883L43.9198 3.55719C43.8583 3.21941 43.9315 2.87097 44.1239 2.58658C44.3162 2.30219 44.6124 2.10449 44.9488 2.03589C45.2852 1.96729 45.6351 2.03325 45.9235 2.21961C46.2118 2.40598 46.4157 2.69791 46.4913 3.03282L47.7142 9.03851C47.7525 9.22572 47.7495 9.41905 47.7053 9.60497C47.6611 9.79088 47.5768 9.96488 47.4583 10.1148C47.3398 10.2647 47.1899 10.3869 47.0192 10.4728C46.8485 10.5588 46.6611 10.6063 46.4701 10.6122L40.3438 10.7939H40.3046C39.9566 10.799 39.6209 10.6657 39.3713 10.4233C39.1217 10.1809 38.9785 9.84923 38.9734 9.5013C38.9683 9.15338 39.1016 8.81767 39.344 8.56803C39.5864 8.31839 39.9181 8.17527 40.266 8.17016L43.3606 8.07872C38.8818 5.00358 33.5342 3.44712 28.1047 3.63833C22.6751 3.82953 17.4503 5.75832 13.1989 9.14091C8.94751 12.5235 5.89399 17.1813 4.48761 22.429C3.08123 27.6767 3.39625 33.2373 5.38632 38.2926Z" fill="#703391"/>
<path fill-rule="evenodd" clip-rule="evenodd" d="M33.7123 27.7193C33.7124 26.628 33.3889 25.5612 32.7827 24.6538C32.1765 23.7463 31.3148 23.0391 30.3066 22.6214C29.2984 22.2037 28.189 22.0944 27.1187 22.3073C26.0483 22.5201 25.0652 23.0456 24.2935 23.8173C23.5219 24.5889 22.9964 25.5721 22.7835 26.6424C22.5706 27.7128 22.6799 28.8222 23.0976 29.8304C23.5153 30.8386 24.2226 31.7003 25.13 32.3065C26.0374 32.9127 27.1042 33.2362 28.1955 33.2361C29.6582 33.2346 31.0606 32.6529 32.0948 31.6186C33.1291 30.5843 33.7108 29.182 33.7123 27.7193ZM36.336 27.7193C36.336 29.3295 35.8585 30.9035 34.964 32.2423C34.0694 33.5812 32.7979 34.6246 31.3102 35.2408C29.8226 35.8569 28.1857 36.0181 26.6064 35.704C25.0272 35.3898 23.5766 34.6143 22.438 33.4757C21.2995 32.3371 20.5242 30.8864 20.2101 29.3072C19.8961 27.7279 20.0574 26.091 20.6737 24.6034C21.2899 23.1158 22.3335 21.8444 23.6724 20.9499C25.0113 20.0554 26.5853 19.5781 28.1955 19.5782C30.354 19.5803 32.4234 20.4388 33.9496 21.9651C35.4758 23.4914 36.334 25.5609 36.336 27.7193ZM45.1458 29.6563L42.2689 30.3567C42.0406 30.4124 41.8313 30.5283 41.663 30.6924C41.4948 30.8566 41.3736 31.0628 41.3123 31.2898C41.0105 32.4036 40.5671 33.4742 39.9929 34.4752C39.8763 34.6789 39.8164 34.9102 39.8195 35.145C39.8225 35.3797 39.8884 35.6094 40.0104 35.81L41.5505 38.3392L38.8136 41.0761L36.2856 39.5366C36.0849 39.4145 35.855 39.3484 35.62 39.3452C35.3851 39.3421 35.1535 39.4019 34.9495 39.5186C33.9487 40.0928 32.8784 40.5362 31.7647 40.8379C31.5378 40.8993 31.3315 41.0204 31.1674 41.1887C31.0033 41.357 30.8873 41.5662 30.8317 41.7946L30.1325 44.6696H26.2585L25.5594 41.7927C25.5039 41.5643 25.388 41.3549 25.2239 41.1866C25.0597 41.0183 24.8533 40.8972 24.6263 40.836C23.5126 40.5344 22.4423 40.091 21.4415 39.5167C21.2377 39.4001 21.0063 39.3402 20.7714 39.3433C20.5365 39.3463 20.3068 39.4122 20.106 39.5341L17.5787 41.0743L14.8418 38.3373L16.3819 35.8082C16.504 35.6076 16.57 35.378 16.5732 35.1432C16.5763 34.9084 16.5165 34.6771 16.4 34.4733C15.8253 33.4724 15.3817 32.4019 15.08 31.2879C15.0186 31.0609 14.8974 30.8546 14.729 30.6904C14.5606 30.5263 14.3512 30.4104 14.1227 30.3548L11.2446 29.6563V25.7817L14.1209 25.0831C14.3494 25.0278 14.5589 24.9119 14.7273 24.7478C14.8958 24.5836 15.0169 24.3772 15.0782 24.1501C15.3801 23.036 15.8237 21.9653 16.3981 20.9641C16.5147 20.7603 16.5745 20.5289 16.5713 20.2942C16.5681 20.0594 16.5021 19.8298 16.3801 19.6292L14.8399 17.1025L17.5769 14.3656L20.106 15.9057C20.3067 16.0279 20.5364 16.0939 20.7713 16.0971C21.0062 16.1003 21.2376 16.0404 21.4415 15.9238C22.4426 15.35 23.5129 14.9065 24.6263 14.6038C24.8534 14.5427 25.0598 14.4216 25.2239 14.2533C25.3881 14.085 25.504 13.8756 25.5594 13.6471L26.2585 10.7702H30.1325L30.8311 13.6471C30.8866 13.8756 31.0025 14.0849 31.1666 14.2532C31.3308 14.4215 31.5371 14.5426 31.7641 14.6038C32.8775 14.9066 33.9478 15.3501 34.9489 15.9238C35.1528 16.0406 35.3844 16.1006 35.6194 16.0974C35.8544 16.0942 36.0843 16.028 36.285 15.9057L38.813 14.3656L41.5499 17.1025L40.0097 19.6317C39.8878 19.8323 39.8219 20.062 39.8188 20.2967C39.8158 20.5315 39.8757 20.7628 39.9923 20.9666C40.5662 21.9677 41.0096 23.0382 41.3116 24.152C41.3728 24.379 41.4939 24.5854 41.6622 24.7495C41.8305 24.9137 42.0399 25.0295 42.2683 25.085L45.1452 25.7835V29.6582L45.1458 29.6563ZM43.6212 32.7273C43.3581 33.5373 43.0315 34.3254 42.6446 35.0841L44.3279 37.8491C44.4812 38.1001 44.5456 38.3955 44.5108 38.6876C44.4759 38.9797 44.3438 39.2516 44.1357 39.4595L39.9388 43.6594C39.7309 43.8676 39.4591 43.9998 39.1671 44.0349C38.875 44.07 38.5796 44.0059 38.3284 43.8529L35.5628 42.1678C34.8037 42.5553 34.015 42.8819 33.2041 43.1444L32.439 46.2912C32.3698 46.5772 32.2064 46.8316 31.9751 47.0135C31.7438 47.1953 31.4581 47.2941 31.1639 47.294H25.2272C24.9331 47.294 24.6475 47.1951 24.4163 47.0133C24.1852 46.8314 24.0219 46.5771 23.9527 46.2912L23.1876 43.1444C22.3764 42.882 21.5875 42.5554 20.8282 42.1678L18.0633 43.8548C17.8119 44.0077 17.5164 44.0717 17.2243 44.0367C16.9322 44.0016 16.6603 43.8694 16.4522 43.6613L12.2585 39.4614C12.0505 39.2534 11.9184 38.9816 11.8834 38.6895C11.8484 38.3974 11.9126 38.1021 12.0657 37.8509L13.7464 35.0841C13.3592 34.3249 13.0326 33.5362 12.7698 32.7254L9.62297 31.9615C9.33711 31.8917 9.08296 31.7279 8.90117 31.4965C8.71938 31.2651 8.62047 30.9794 8.62026 30.6851V24.751C8.62042 24.4568 8.71934 24.1713 8.90116 23.94C9.08297 23.7088 9.33716 23.5453 9.62297 23.4758L12.7698 22.7113C13.0325 21.9007 13.3591 21.1122 13.7464 20.3532L12.0626 17.5871C11.9095 17.3358 11.8452 17.0403 11.8802 16.7482C11.9152 16.456 12.0473 16.1841 12.2554 15.976L16.4522 11.7786C16.6605 11.5708 16.9324 11.4389 17.2245 11.404C17.5167 11.3692 17.812 11.4334 18.0633 11.5863L20.8282 13.2702C21.5876 12.8828 22.3765 12.5563 23.1876 12.2936L23.9527 9.1455C24.022 8.85969 24.1853 8.60546 24.4164 8.42362C24.6476 8.24178 24.9331 8.14288 25.2272 8.14279H31.1632C31.4574 8.14285 31.743 8.24172 31.9743 8.42356C32.2055 8.60539 32.369 8.85964 32.4384 9.1455L33.2035 12.2923C34.0143 12.5551 34.803 12.8817 35.5622 13.2689L38.3278 11.5851C38.5789 11.4321 38.8742 11.3678 39.1662 11.4027C39.4583 11.4375 39.7301 11.5695 39.9382 11.7773L44.1357 15.9748C44.3437 16.1828 44.4758 16.4548 44.5107 16.747C44.5455 17.0392 44.4812 17.3346 44.3279 17.5858L42.6446 20.3532C43.0317 21.1123 43.3583 21.9008 43.6212 22.7113L46.7675 23.4758C47.0532 23.5454 47.3073 23.7089 47.489 23.9401C47.6707 24.1713 47.7695 24.4569 47.7696 24.751V30.687C47.7695 30.9812 47.6707 31.2669 47.489 31.4983C47.3073 31.7297 47.0533 31.8935 46.7675 31.9634L43.6212 32.7273ZM51.865 12.8472C55.9151 18.5745 57.6671 25.6138 56.7743 32.5714C55.8815 39.529 52.4088 45.8978 47.0439 50.417C41.6789 54.9361 34.8127 57.2762 27.8046 56.974C20.7964 56.6717 14.1572 53.7492 9.20123 48.785C8.96299 48.5467 8.72973 48.3023 8.49896 48.0547L8.43987 50.0713C8.42968 50.4124 8.28711 50.7361 8.04235 50.9739C7.7976 51.2117 7.46988 51.3449 7.12863 51.3452C7.11557 51.3452 7.10313 51.3452 7.08944 51.3452C6.9172 51.3402 6.74763 51.3013 6.59044 51.2307C6.43325 51.1601 6.29152 51.0592 6.17337 50.9338C6.05522 50.8084 5.96296 50.6609 5.90188 50.4998C5.84079 50.3386 5.81208 50.167 5.81739 49.9948L5.99591 43.8989C6.00221 43.7079 6.05009 43.5206 6.13623 43.35C6.22236 43.1795 6.34467 43.0297 6.49462 42.9113C6.64457 42.7928 6.81856 42.7085 7.00444 42.6642C7.19033 42.62 7.38364 42.6168 7.57089 42.6549L13.5424 43.8728C13.8797 43.9459 14.1747 44.149 14.3634 44.438C14.5521 44.7271 14.6194 45.0788 14.5506 45.4171C14.4818 45.7554 14.2825 46.0529 13.9959 46.2453C13.7092 46.4376 13.3584 46.5094 13.0192 46.4449L10.0192 45.8297C10.3551 46.206 10.7003 46.5761 11.0561 46.9294C15.5488 51.4224 21.564 54.066 27.912 54.3373C34.26 54.6087 40.4788 52.4882 45.3386 48.395C50.1984 44.3019 53.3453 38.5341 54.1571 32.2324C54.9689 25.9306 53.3865 19.5536 49.7227 14.3625C49.5218 14.0784 49.4419 13.7261 49.5007 13.3832C49.5595 13.0402 49.7521 12.7346 50.0362 12.5337C50.3203 12.3328 50.6726 12.2529 51.0155 12.3117C51.3585 12.3705 51.6641 12.5631 51.865 12.8472ZM5.38632 38.2926C5.45564 38.4541 5.49179 38.6279 5.49264 38.8037C5.49349 38.9795 5.45902 39.1537 5.39128 39.3159C5.32353 39.4781 5.22389 39.625 5.09827 39.748C4.97265 39.871 4.82361 39.9674 4.65999 40.0317C4.49637 40.096 4.32151 40.1267 4.14578 40.1221C3.97006 40.1175 3.79705 40.0776 3.63702 40.0049C3.47699 39.9321 3.33321 39.828 3.2142 39.6986C3.09519 39.5692 3.00339 39.4173 2.94424 39.2517C0.769044 33.7232 0.408703 27.6462 1.91532 21.8993C3.42195 16.1525 6.71743 11.0339 11.3252 7.28365C15.933 3.53342 21.6142 1.346 27.5472 1.03773C33.4802 0.729464 39.3575 2.31633 44.3291 5.56883L43.9198 3.55719C43.8583 3.21941 43.9315 2.87097 44.1239 2.58658C44.3162 2.30219 44.6124 2.10449 44.9488 2.03589C45.2852 1.96729 45.6351 2.03325 45.9235 2.21961C46.2118 2.40598 46.4157 2.69791 46.4913 3.03282L47.7142 9.03851C47.7525 9.22572 47.7495 9.41905 47.7053 9.60497C47.6611 9.79088 47.5768 9.96488 47.4583 10.1148C47.3398 10.2647 47.1899 10.3869 47.0192 10.4728C46.8485 10.5588 46.6611 10.6063 46.4701 10.6122L40.3438 10.7939H40.3046C39.9566 10.799 39.6209 10.6657 39.3713 10.4233C39.1217 10.1809 38.9785 9.84923 38.9734 9.5013C38.9683 9.15338 39.1016 8.81767 39.344 8.56803C39.5864 8.31839 39.9181 8.17527 40.266 8.17016L43.3606 8.07872C38.8818 5.00358 33.5342 3.44712 28.1047 3.63833C22.6751 3.82953 17.4503 5.75832 13.1989 9.14091C8.94751 12.5235 5.89399 17.1813 4.48761 22.429C3.08123 27.6767 3.39625 33.2373 5.38632 38.2926Z" stroke="#703391" stroke-width="2" mask="url(#path-1-outside-1_3260_17043)"/>
</svg>
