<svg width="16" height="16" viewBox="0 0 16 16" fill="none" xmlns="http://www.w3.org/2000/svg">
<path d="M2.5 5C2.22386 5 2 5.22386 2 5.5C2 5.77614 2.22386 6 2.5 6V5ZM13.5 6C13.7761 6 14 5.77614 14 5.5C14 5.22386 13.7761 5 13.5 5V6ZM11.5 1.5C11.5 1.22386 11.2761 1 11 1C10.7239 1 10.5 1.22386 10.5 1.5H11.5ZM10.5 3.5C10.5 3.77614 10.7239 4 11 4C11.2761 4 11.5 3.77614 11.5 3.5H10.5ZM5.5 1.5C5.5 1.22386 5.27614 1 5 1C4.72386 1 4.5 1.22386 4.5 1.5H5.5ZM4.5 3.5C4.5 3.77614 4.72386 4 5 4C5.27614 4 5.5 3.77614 5.5 3.5H4.5ZM3 3H13V2H3V3ZM13 3H14C14 2.44772 13.5523 2 13 2V3ZM13 3V13H14V3H13ZM13 13V14C13.5523 14 14 13.5523 14 13H13ZM13 13H3V14H13V13ZM3 13H2C2 13.5523 2.44772 14 3 14V13ZM3 13V3H2V13H3ZM3 3V2C2.44772 2 2 2.44772 2 3H3ZM2.5 6H13.5V5H2.5V6ZM10.5 1.5V3.5H11.5V1.5H10.5ZM4.5 1.5V3.5H5.5V1.5H4.5Z" fill="#D9D9D9"/>
</svg>
