<svg width="86" height="86" viewBox="0 0 86 86" fill="none" xmlns="http://www.w3.org/2000/svg">
<circle cx="43" cy="43" r="43" fill="#703391" fill-opacity="0.1"/>
<path d="M42.9994 55.5896C42.4463 55.5896 41.9974 55.1182 41.9974 54.5375C41.9974 53.9568 42.4463 53.4854 42.9994 53.4854C46.0067 53.4854 48.7272 52.2079 50.6922 50.1441C52.6614 48.0772 53.8782 45.2203 53.8782 42.0634C53.8782 39.3475 52.9779 36.8546 51.4754 34.8976C49.9433 32.9021 47.7831 31.4575 45.3111 30.898C44.771 30.7781 44.4262 30.2198 44.5403 29.6527C44.6545 29.0857 45.1863 28.7236 45.7263 28.8435C48.6568 29.5068 51.2163 31.2184 53.0323 33.5834C54.8146 35.9044 55.8823 38.8544 55.8823 42.0634C55.8823 45.7917 54.4407 49.1721 52.1107 51.621L52.1048 51.6272C49.7718 54.0748 46.5521 55.5896 42.9994 55.5896ZM42.9994 42.8627C43.2112 42.8627 43.4028 42.7733 43.5401 42.6311C43.6755 42.487 43.7607 42.2858 43.7607 42.0634C43.7607 41.8411 43.6755 41.6399 43.5401 41.4958C43.4028 41.3536 43.2112 41.2641 42.9994 41.2641C42.7876 41.2641 42.596 41.3536 42.4588 41.4958C42.3233 41.6399 42.2381 41.8411 42.2381 42.0634C42.2381 42.2858 42.3233 42.487 42.4588 42.6311C42.596 42.7733 42.7876 42.8627 42.9994 42.8627ZM44.9526 44.1142C44.4498 44.6408 43.7595 44.9669 42.9994 44.9669C42.2393 44.9669 41.549 44.6408 41.048 44.116C40.5446 43.5863 40.234 42.8615 40.234 42.0634C40.234 41.2654 40.5446 40.5406 41.0444 40.0145C41.549 39.486 42.2393 39.16 42.9994 39.16C43.7595 39.16 44.4498 39.486 44.9509 40.0108C45.4542 40.5406 45.7648 41.2654 45.7648 42.0634C45.7648 42.8615 45.4542 43.5863 44.9526 44.1142ZM44.5421 45.8047C44.6799 45.742 44.813 45.6718 44.939 45.5954C45.0893 45.5041 45.2312 45.4048 45.3596 45.301C45.7033 45.0222 46.167 45.016 46.5125 45.2501L47.8227 46.0445L48.6946 44.4589L47.3424 43.6397C46.9833 43.4236 46.8011 43.0068 46.8497 42.6C46.8816 42.2274 46.884 41.9038 46.8491 41.5312C46.7935 41.0797 47.02 40.6574 47.3862 40.4611L48.6964 39.6674L47.8245 38.0818L46.4675 38.9041C46.0931 39.1295 45.637 39.0718 45.3259 38.7948C45.2141 38.7078 45.0839 38.619 44.9396 38.5315C44.7905 38.4408 44.6391 38.3619 44.4889 38.2967C44.1032 38.1302 43.8701 37.7396 43.8701 37.3272L43.8666 35.6901H42.1328V37.3272C42.1328 37.7936 41.843 38.1899 41.4419 38.3271C41.3141 38.3861 41.1864 38.4551 41.0592 38.5321C40.8977 38.6302 40.7552 38.7296 40.6345 38.8271C40.305 39.0929 39.8679 39.1078 39.5289 38.9022L38.1726 38.0843L37.3024 39.6674L38.6564 40.4878C39.0167 40.7045 39.1989 41.1231 39.1486 41.5312C39.1166 41.9181 39.1166 42.2131 39.1498 42.6C39.2036 43.0466 38.9812 43.4633 38.6221 43.6608L37.3042 44.4589L38.1761 46.0445L39.5319 45.2228C39.8921 45.0054 40.3287 45.0507 40.6386 45.3017C40.7759 45.4116 40.9161 45.511 41.0551 45.5948C41.2029 45.6817 41.3556 45.7612 41.5141 45.8302C41.8986 45.9972 42.1305 46.3879 42.1305 46.7997L42.1328 48.4368H43.8666V46.7997C43.8666 46.3388 44.1493 45.9469 44.5421 45.8047ZM45.9411 47.4114L45.8707 47.4536V49.4889C45.8707 50.0696 45.4217 50.5409 44.8686 50.5409H41.1308C40.5777 50.5409 40.1287 50.0696 40.1287 49.4889V47.4536L39.9874 47.3654L38.3104 48.384C37.833 48.674 37.2208 48.5032 36.9445 48.002L35.0753 44.603C34.8014 44.0974 34.9659 43.4565 35.4432 43.1689L37.1173 42.1541V41.9728L35.4432 40.9586C34.9659 40.671 34.8014 40.0301 35.0753 39.5289L36.944 36.1255C37.2202 35.6243 37.8324 35.4535 38.3098 35.7435L39.9862 36.7602L40.1287 36.6732V34.638C40.1287 34.0573 40.5777 33.5859 41.1308 33.5859H44.8686C45.4217 33.5859 45.8707 34.0573 45.8707 34.638V36.6732L46.0144 36.7608L47.6932 35.7435C48.1705 35.4559 48.781 35.6286 49.0549 36.1298L50.9235 39.5289C51.1974 40.0301 51.0329 40.671 50.5556 40.9586L48.8815 41.9728V42.1541L50.5597 43.1689C51.0371 43.459 51.1997 44.1018 50.9235 44.603L49.0543 48.002C48.778 48.4995 48.1688 48.6709 47.6926 48.384L46.0138 47.3667L45.9411 47.4114ZM37.991 53.4854C38.544 53.4854 38.993 53.9568 38.993 54.5375C38.993 55.1182 38.544 55.5896 37.991 55.5896H31.1186C30.5655 55.5896 30.1166 55.1182 30.1166 54.5375V42.0634C30.1166 38.3346 31.5581 34.9548 33.8887 32.5059L33.894 32.4997C36.227 30.0521 39.4473 28.5373 42.9994 28.5373C43.5525 28.5373 44.0015 29.0087 44.0015 29.5894C44.0015 30.1701 43.5525 30.6415 42.9994 30.6415C39.9927 30.6415 37.2717 31.919 35.3066 33.9828C33.3374 36.0497 32.1206 38.906 32.1206 42.0634V53.4854H37.991ZM43 61.8958C43.5838 61.8958 44.0955 61.7499 44.4457 61.5157C44.929 61.1934 44.9018 60.9357 44.4457 60.6326C44.0955 60.3985 43.5838 60.2525 43 60.2525C42.4162 60.2525 41.9045 60.3985 41.5543 60.6326C41.3354 60.7785 41.1994 60.9382 41.1994 61.0742C41.1994 61.2102 41.3354 61.3698 41.5543 61.5157C41.9045 61.7499 42.4162 61.8958 43 61.8958ZM45.5175 63.2821C44.855 63.7249 43.9624 64 43 64C42.0376 64 41.145 63.7249 40.4825 63.2821C39.6875 62.751 39.1953 61.9722 39.1953 61.0742C39.1953 60.1755 39.6875 59.3973 40.4825 58.8663C41.145 58.4235 42.0376 58.1483 43 58.1483C43.9624 58.1483 44.855 58.4235 45.5175 58.8663C45.8583 59.0942 46.1434 59.3669 46.3581 59.6755C50.1876 58.8756 53.557 56.7354 55.9994 53.7407C58.5583 50.6037 60.1046 46.5245 60.1046 42.0634C60.1046 40.0158 59.7786 38.0483 59.18 36.2192C58.5566 34.3163 57.6397 32.5599 56.4898 31.0141C56.1508 30.5582 56.2277 29.8987 56.6619 29.5428C57.0961 29.1869 57.7243 29.2677 58.0632 29.7235C59.2291 31.2899 60.1779 33.04 60.8617 34.9218C61.8046 35.0492 62.7037 35.3733 63.507 35.8658L63.562 35.9019C64.5375 36.513 65.3757 37.3719 65.9832 38.4259C66.6605 39.6015 67 40.9263 67 42.2498C67 43.5726 66.6605 44.898 65.9832 46.0743L65.9311 46.1562C65.3005 47.2189 64.4381 48.0753 63.4408 48.6715C62.6115 49.1678 61.6822 49.4858 60.7138 49.5957C59.933 51.6166 58.8476 53.4736 57.5172 55.1045C54.7773 58.4632 50.9992 60.8611 46.7083 61.7474C46.5285 62.3598 46.1061 62.8889 45.5175 63.2821ZM61.4485 47.3052C61.7987 47.1909 62.1359 47.0369 62.4541 46.8469C63.1669 46.4208 63.7839 45.8116 64.2328 45.0588L64.2689 44.9899C64.7534 44.149 64.9959 43.1994 64.9959 42.2498C64.9959 41.3001 64.7534 40.3505 64.2689 39.5102C63.8347 38.7563 63.2379 38.1433 62.5458 37.7092L62.4979 37.6818C62.1974 37.4974 61.8792 37.3458 61.5497 37.2297C61.9146 38.7786 62.1087 40.3984 62.1087 42.0634C62.1087 43.8763 61.8792 45.6339 61.4485 47.3052ZM24.4491 37.2303C24.1197 37.3465 23.802 37.498 23.5015 37.6818L23.4536 37.7092C22.7621 38.1427 22.1653 38.7563 21.7311 39.5102C21.2466 40.3505 21.0041 41.3001 21.0041 42.2498C21.0041 43.1994 21.2466 44.149 21.7311 44.9899C22.1842 45.7768 22.8142 46.4103 23.5453 46.8469C23.8647 47.0382 24.2042 47.1928 24.5568 47.3071C24.4071 46.7282 24.2829 46.1451 24.1841 45.5588C23.9895 44.4042 23.8907 43.2335 23.8907 42.0634C23.8907 40.3971 24.0842 38.7786 24.4491 37.2303ZM25.9617 49.6385C24.7502 49.6236 23.5796 49.2827 22.5586 48.6715C21.5317 48.0579 20.6492 47.1717 20.0168 46.0743C19.3395 44.898 19 43.5726 19 42.2498C19 40.9263 19.3395 39.6015 20.0168 38.4259C20.6243 37.3713 21.4625 36.5124 22.438 35.9019L22.4924 35.8658C23.2951 35.374 24.1948 35.0492 25.1377 34.9218C26.106 32.2544 27.6002 29.8589 29.4884 27.8771C32.9458 24.2464 37.7242 22 43 22C45.469 22 47.8328 22.4944 50.0043 23.3937C52.2598 24.3277 54.3047 25.6984 56.0426 27.4032C56.4466 27.7976 56.4691 28.4622 56.0934 28.8863C55.7178 29.3105 55.0849 29.3341 54.6809 28.9398C53.1228 27.4113 51.292 26.1835 49.2767 25.3488C47.3371 24.5457 45.2194 24.1042 43 24.1042C38.2761 24.1042 33.9987 26.1145 30.9045 29.3639C27.8096 32.6127 25.8948 37.1036 25.8948 42.0634C25.8948 43.1199 25.983 44.1682 26.1563 45.1973C26.3308 46.2326 26.5911 47.2499 26.9324 48.2318C27.179 48.9467 26.6685 49.6385 25.9617 49.6385Z" fill="#703391"/>
</svg>
