<svg width="86" height="86" viewBox="0 0 86 86" fill="none" xmlns="http://www.w3.org/2000/svg">
<circle cx="43" cy="43" r="43" fill="#703391" fill-opacity="0.1"/>
<path d="M41.4032 28.457C41.5693 28.457 41.7355 28.4576 41.9016 28.4585C41.9889 28.4587 42.0761 28.4588 42.166 28.4589C42.4459 28.4594 42.7258 28.4606 43.0057 28.4618C43.195 28.4623 43.3843 28.4627 43.5735 28.4631C44.0386 28.4641 44.5036 28.4658 44.9686 28.4677C45.0278 28.6003 45.087 28.7329 45.1461 28.8656C45.1791 28.9394 45.212 29.0133 45.246 29.0894C45.3865 29.409 45.5186 29.7315 45.6483 30.0556C45.686 30.1481 45.686 30.1481 45.7245 30.2425C45.9061 30.6952 45.9061 30.6952 45.9061 30.9052C45.971 30.919 46.0359 30.9327 46.1028 30.9469C46.6633 31.0754 47.1999 31.2377 47.7342 31.4501C47.7944 31.4733 47.8546 31.4964 47.9166 31.5203C48.2068 31.6364 48.4512 31.759 48.7043 31.9434C49.0113 32.1611 49.1855 32.2634 49.5624 32.3114C50.2172 32.1249 50.8195 31.7899 51.4108 31.4583C51.6654 31.3579 51.7462 31.3786 51.9999 31.4677C52.1452 31.5754 52.1452 31.5754 52.2849 31.7118C52.3377 31.7629 52.3906 31.8139 52.445 31.8665C52.5008 31.922 52.5565 31.9774 52.614 32.0346C52.7009 32.1201 52.7009 32.1201 52.7896 32.2074C52.9117 32.328 53.0335 32.4491 53.1548 32.5705C53.3412 32.7562 53.5296 32.9396 53.7183 33.1229C53.8367 33.2405 53.9549 33.3582 54.073 33.476C54.1297 33.5307 54.1864 33.5854 54.2449 33.6417C54.6245 34.0278 54.6245 34.0278 54.6262 34.3389C54.5305 34.5629 54.4297 34.7756 54.311 34.9884C53.8406 35.8151 53.8406 35.8151 53.7108 36.7277C53.8257 37.0385 54.0081 37.2927 54.1971 37.5625C54.5039 38.0033 54.6516 38.4886 54.8124 38.997C54.8406 39.0839 54.8689 39.1708 54.8981 39.2603C55.0936 39.8725 55.0936 39.8725 55.0936 40.0927C55.145 40.1065 55.1963 40.1202 55.2493 40.1344C55.7745 40.283 56.2806 40.4644 56.787 40.6669C56.8495 40.6918 56.9121 40.7167 56.9765 40.7424C57.4251 40.9241 57.4251 40.9241 57.5311 41.0302C57.5394 41.321 57.5419 41.6098 57.5403 41.9007C57.5401 42.0316 57.5401 42.0316 57.5399 42.1651C57.5393 42.445 57.5382 42.7249 57.537 43.0048C57.5365 43.1941 57.5361 43.3833 57.5357 43.5726C57.5347 44.0376 57.533 44.5026 57.5311 44.9677C57.3985 45.0269 57.2659 45.0861 57.1332 45.1452C57.0593 45.1781 56.9855 45.2111 56.9094 45.2451C56.5898 45.3856 56.2673 45.5176 55.9432 45.6474C55.8815 45.6725 55.8198 45.6976 55.7563 45.7235C55.3036 45.9052 55.3036 45.9052 55.0936 45.9052C55.0798 45.9701 55.0661 46.035 55.0519 46.1018C54.9234 46.6624 54.7611 47.199 54.5487 47.7333C54.5255 47.7935 54.5024 47.8537 54.4785 47.9157C54.3623 48.2059 54.2398 48.4502 54.0554 48.7034C53.8377 49.0104 53.7354 49.1845 53.6874 49.5614C53.8739 50.2162 54.2089 50.8186 54.5405 51.4099C54.6408 51.6645 54.6202 51.7453 54.5311 51.9989C54.4233 52.1443 54.4233 52.1443 54.2869 52.284C54.2359 52.3368 54.1849 52.3896 54.1323 52.444C54.0768 52.4998 54.0214 52.5556 53.9642 52.6131C53.9072 52.671 53.8502 52.729 53.7914 52.7887C53.6708 52.9108 53.5497 53.0325 53.4283 53.1539C53.2425 53.3402 53.0592 53.5287 52.8758 53.7174C52.7583 53.8357 52.6406 53.954 52.5228 54.072C52.4681 54.1288 52.4134 54.1855 52.357 54.2439C51.971 54.6236 51.971 54.6236 51.6599 54.6253C51.4358 54.5295 51.2232 54.4288 51.0104 54.3101C50.1837 53.8396 50.1837 53.8396 49.2711 53.7099C48.9603 53.8248 48.7061 54.0072 48.4363 54.1962C47.9955 54.503 47.5102 54.6507 47.0018 54.8114C46.9149 54.8397 46.828 54.868 46.7385 54.8971C46.1263 55.0927 46.1263 55.0927 45.9061 55.0927C45.8923 55.144 45.8786 55.1954 45.8644 55.2483C45.7158 55.7735 45.5343 56.2797 45.3319 56.786C45.307 56.8486 45.2821 56.9111 45.2564 56.9756C45.0747 57.4241 45.0747 57.4241 44.9686 57.5302C44.6778 57.5385 44.389 57.541 44.0981 57.5393C44.0109 57.5392 43.9236 57.5391 43.8337 57.5389C43.5538 57.5384 43.2739 57.5372 42.994 57.536C42.8047 57.5356 42.6155 57.5351 42.4262 57.5348C41.9612 57.5337 41.4961 57.5321 41.0311 57.5302C40.9719 57.3976 40.9127 57.2649 40.8536 57.1323C40.8206 57.0584 40.7877 56.9845 40.7537 56.9084C40.6132 56.5889 40.4812 56.2663 40.3514 55.9423C40.3263 55.8806 40.3012 55.8189 40.2753 55.7553C40.0936 55.3026 40.0936 55.3026 40.0936 55.0927C40.0287 55.0789 39.9638 55.0651 39.897 55.0509C39.3364 54.9224 38.7998 54.7602 38.2655 54.5478C38.1752 54.513 38.1752 54.513 38.0831 54.4776C37.7929 54.3614 37.5486 54.2389 37.2954 54.0545C36.9884 53.8367 36.8143 53.7344 36.4374 53.6864C35.7826 53.8729 35.1802 54.2079 34.5889 54.5396C34.3343 54.6399 34.2535 54.6193 33.9999 54.5302C33.8545 54.4224 33.8545 54.4224 33.7148 54.286C33.6356 54.2095 33.6356 54.2095 33.5548 54.1314C33.499 54.0759 33.4432 54.0204 33.3857 53.9633C33.3278 53.9063 33.2698 53.8492 33.2101 53.7905C33.088 53.6698 32.9663 53.5487 32.8449 53.4273C32.6586 53.2416 32.4701 53.0582 32.2814 52.8749C32.1631 52.7574 32.0448 52.6397 31.9267 52.5219C31.87 52.4672 31.8133 52.4125 31.7549 52.3561C31.3752 51.9701 31.3752 51.9701 31.3735 51.6589C31.4693 51.4349 31.57 51.2223 31.6887 51.0094C32.1592 50.1827 32.1592 50.1827 32.2889 49.2702C32.174 48.9593 31.9916 48.7052 31.8026 48.4353C31.4958 47.9946 31.3481 47.5093 31.1874 47.0009C31.1591 46.914 31.1308 46.8271 31.1017 46.7376C30.9061 46.1253 30.9061 46.1253 30.9061 45.9052C30.8548 45.8914 30.8034 45.8776 30.7505 45.8634C30.2253 45.7148 29.7191 45.5334 29.2128 45.331C29.1502 45.306 29.0877 45.2811 29.0232 45.2555C28.5747 45.0737 28.5747 45.0737 28.4686 44.9677C28.4603 44.6768 28.4578 44.388 28.4595 44.0972C28.4596 44.0099 28.4597 43.9227 28.4599 43.8328C28.4604 43.5529 28.4616 43.273 28.4628 42.9931C28.4632 42.8038 28.4637 42.6145 28.464 42.4253C28.4651 41.9602 28.4667 41.4952 28.4686 41.0302C29.0282 40.7722 29.5864 40.5181 30.162 40.2978C30.2636 40.2585 30.3652 40.2192 30.47 40.1787C30.7186 40.0927 30.7186 40.0927 30.9061 40.0927C30.9268 39.9953 30.9268 39.9953 30.9479 39.896C31.0764 39.3355 31.2386 38.7989 31.451 38.2645C31.4742 38.2044 31.4974 38.1442 31.5212 38.0822C31.6374 37.792 31.7599 37.5476 31.9443 37.2945C32.1621 36.9875 32.2644 36.8133 32.3124 36.4364C32.1259 35.7816 31.7908 35.1792 31.4592 34.588C31.3589 34.3334 31.3795 34.2526 31.4686 33.9989C31.5764 33.8535 31.5764 33.8535 31.7128 33.7139C31.7638 33.6611 31.8149 33.6082 31.8674 33.5538C31.9229 33.498 31.9784 33.4423 32.0355 33.3848C32.0925 33.3268 32.1496 33.2689 32.2083 33.2092C32.329 33.0871 32.45 32.9653 32.5715 32.844C32.7572 32.6576 32.9405 32.4692 33.1239 32.2805C33.2414 32.1621 33.3591 32.0439 33.4769 31.9258C33.5316 31.8691 33.5863 31.8124 33.6427 31.7539C34.0287 31.3743 34.0287 31.3743 34.3398 31.3726C34.5639 31.4683 34.7765 31.5691 34.9894 31.6878C35.8161 32.1582 35.8161 32.1582 36.7286 32.2879C37.0394 32.1731 37.2936 31.9907 37.5635 31.8017C38.0042 31.4949 38.4895 31.3472 38.9979 31.1864C39.0848 31.1581 39.1717 31.1299 39.2612 31.1007C39.8735 30.9052 39.8735 30.9052 40.0936 30.9052C40.1074 30.8538 40.1212 30.8025 40.1354 30.7495C40.284 30.2243 40.4654 29.7182 40.6678 29.2118C40.6927 29.1493 40.7177 29.0867 40.7433 29.0223C40.9673 28.4695 40.9673 28.4695 41.4032 28.457ZM37.0936 35.8739C37.0229 35.9293 36.9522 35.9846 36.8794 36.0416C35.2047 37.4298 34.114 39.5452 33.8124 41.6864C33.6074 44.6036 34.2409 47.0276 36.1665 49.261C37.8143 51.0973 40.1347 52.12 42.5831 52.2684C44.9 52.3637 47.109 51.5789 48.9061 50.1239C48.9768 50.0686 49.0475 50.0132 49.1203 49.9562C50.8978 48.4828 51.9647 46.2491 52.2255 43.98C52.4443 41.4554 51.7237 39.0675 50.1249 37.0927C50.0695 37.022 50.0142 36.9513 49.9571 36.8784C48.4012 35.0014 46.0534 33.9657 43.662 33.7411C41.2486 33.6097 38.973 34.3524 37.0936 35.8739Z" fill="#703391"/>
<path d="M47.1251 20.6865C47.2175 20.7052 47.31 20.7238 47.4052 20.743C50.6164 21.411 53.5025 22.7053 56.2188 24.5303C56.2476 24.4768 56.2764 24.4234 56.3061 24.3683C56.4375 24.1264 56.5713 23.886 56.7052 23.6455C56.7504 23.5613 56.7957 23.4772 56.8423 23.3905C56.9098 23.2704 56.9098 23.2704 56.9787 23.1478C57.0195 23.0737 57.0602 22.9996 57.1022 22.9232C57.293 22.6985 57.4348 22.7007 57.7188 22.6553C58.0774 23.3404 58.378 24.0387 58.6607 24.7581C58.725 24.9202 58.725 24.9202 58.7905 25.0856C58.8802 25.3122 58.9697 25.539 59.0589 25.7658C59.1504 25.9979 59.2419 26.23 59.3339 26.4619C59.4672 26.7981 59.6002 27.1345 59.733 27.471C59.7741 27.5748 59.8152 27.6786 59.8576 27.7855C59.8955 27.882 59.9334 27.9784 59.9724 28.0777C60.0224 28.2046 60.0224 28.2046 60.0735 28.3341C60.1469 28.5356 60.2132 28.7253 60.2501 28.9365C60.2192 28.9984 60.1882 29.0603 60.1563 29.124C59.9366 29.1782 59.7242 29.2193 59.5012 29.2548C59.4312 29.2665 59.3613 29.2782 59.2892 29.2902C58.365 29.4421 57.4378 29.575 56.5106 29.7069C56.1981 29.7514 55.8858 29.7967 55.5734 29.842C55.3731 29.8707 55.1729 29.8993 54.9726 29.9279C54.88 29.9413 54.7875 29.9548 54.6921 29.9687C54.2598 30.0296 53.8443 30.0783 53.4063 30.0615C53.3119 29.821 53.2873 29.6563 53.384 29.4135C53.493 29.2095 53.6086 29.0113 53.7286 28.8135C53.7693 28.7441 53.8099 28.6746 53.8518 28.6031C53.9521 28.4323 54.0541 28.2624 54.1563 28.0928C54.1018 28.0663 54.0473 28.0399 53.9911 28.0126C53.7954 27.9125 53.6112 27.8044 53.425 27.6878C51.2636 26.3432 49.0764 25.317 46.5626 24.8115C46.4526 24.7887 46.4526 24.7887 46.3403 24.7654C41.7808 23.8586 36.7578 24.9131 32.8888 27.457C31.4843 28.4062 30.1069 29.4959 29.0313 30.8115C28.9467 30.9115 28.8622 31.0115 28.7776 31.1115C27.6883 32.4168 26.8324 33.8614 26.1251 35.4053C26.0966 35.4674 26.0681 35.5296 26.0388 35.5936C24.2528 39.5562 24.1189 43.8948 25.1876 48.0615C25.2227 48.2015 25.2578 48.3415 25.2927 48.4816C25.3335 48.6449 25.3335 48.6449 25.3751 48.8115C24.5812 49.3108 23.7756 49.7898 22.9669 50.2647C22.8156 50.3541 22.8156 50.3541 22.6613 50.4453C22.5665 50.5007 22.4717 50.5562 22.374 50.6133C22.2885 50.6635 22.2029 50.7137 22.1148 50.7655C21.9063 50.874 21.9063 50.874 21.7188 50.874C20.9662 48.5524 20.9662 48.5524 20.7462 47.4463C20.7328 47.3798 20.7194 47.3133 20.7056 47.2448C20.4436 45.8372 20.3681 44.4397 20.3712 43.0108C20.3713 42.8786 20.3713 42.8786 20.3713 42.7438C20.3773 40.5042 20.6954 38.3961 21.3438 36.249C21.3791 36.1316 21.3791 36.1316 21.4151 36.0118C22.6988 31.8438 25.4385 27.82 28.9376 25.1865C28.9957 25.142 29.0538 25.0975 29.1137 25.0517C31.9057 22.9233 35.0669 21.5006 38.5001 20.7803C38.5933 20.7604 38.6865 20.7406 38.7826 20.7201C41.4389 20.1799 44.4661 20.144 47.1251 20.6865Z" fill="#703391"/>
<path d="M64.2808 35.125C64.7061 36.3909 65.0528 37.6584 65.312 38.9688C65.3354 39.082 65.3354 39.082 65.3593 39.1976C65.857 41.6958 65.8181 44.6325 65.312 47.125C65.2848 47.2622 65.2848 47.2622 65.2571 47.4021C64.1973 52.5856 61.3315 57.5993 57.062 60.8125C57.0039 60.857 56.9457 60.9015 56.8859 60.9474C53.9605 63.1775 50.6403 64.6209 47.0308 65.3125C46.9467 65.3292 46.8626 65.3459 46.7759 65.363C44.2746 65.8383 41.3681 65.8198 38.8745 65.3125C38.7804 65.2934 38.6864 65.2743 38.5895 65.2545C35.6018 64.6262 32.756 63.4837 30.2382 61.7471C29.9882 61.5671 29.9882 61.5671 29.7808 61.4688C29.75 61.5222 29.7193 61.5757 29.6876 61.6308C29.5489 61.8718 29.4099 62.1126 29.271 62.3535C29.2226 62.4377 29.1742 62.5219 29.1243 62.6086C29.055 62.7287 29.055 62.7287 28.9842 62.8512C28.9202 62.9624 28.9202 62.9624 28.8548 63.0758C28.7495 63.25 28.7495 63.25 28.6558 63.3438C28.4996 63.3476 28.3432 63.3478 28.187 63.3438C27.8663 62.5562 27.5468 61.7682 27.2287 60.9796C27.081 60.6134 26.9329 60.2475 26.7838 59.8818C26.6401 59.529 26.4973 59.1758 26.3553 58.8223C26.3009 58.6875 26.2461 58.5527 26.191 58.4182C26.1139 58.2298 26.0381 58.041 25.9626 57.852C25.8974 57.6908 25.8973 57.6908 25.8308 57.5264C25.7502 57.2525 25.7386 57.1355 25.8433 56.875C27.2136 56.6483 28.5862 56.4371 29.9601 56.2338C30.1331 56.2082 30.306 56.1825 30.4789 56.1566C30.725 56.1197 30.9712 56.0835 31.2174 56.0474C31.328 56.0307 31.328 56.0307 31.4409 56.0137C31.8288 55.9574 32.1999 55.9258 32.5933 55.9375C32.6877 56.178 32.7123 56.3428 32.6156 56.5856C32.5066 56.7896 32.391 56.9878 32.271 57.1855C32.2303 57.255 32.1897 57.3244 32.1478 57.3959C32.0475 57.5668 31.9455 57.7366 31.8433 57.9062C31.8978 57.9327 31.9523 57.9592 32.0085 57.9864C32.2042 58.0865 32.3884 58.1946 32.5746 58.3113C34.736 59.6558 36.9232 60.682 39.437 61.1875C39.5104 61.2027 39.5837 61.2179 39.6593 61.2336C43.244 61.9466 47.0739 61.4108 50.4058 59.9688C50.4711 59.941 50.5365 59.9132 50.6039 59.8847C52.3369 59.1419 53.8598 58.1069 55.2808 56.875C55.3315 56.8312 55.3823 56.7874 55.4346 56.7423C55.9915 56.2587 56.5017 55.7582 56.9683 55.1875C57.0528 55.0875 57.1374 54.9875 57.222 54.8876C59.9792 51.5835 61.4874 47.3625 61.4917 43.0703C61.4918 43.004 61.4919 42.9378 61.492 42.8695C61.4903 41.1711 61.233 39.5787 60.812 37.9375C60.7769 37.7975 60.7418 37.6575 60.7069 37.5175C60.6797 37.4086 60.6525 37.2997 60.6245 37.1875C61.4184 36.6882 62.224 36.2092 63.0327 35.7344C63.1336 35.6748 63.2344 35.6152 63.3383 35.5538C63.4331 35.4983 63.5279 35.4429 63.6256 35.3857C63.7111 35.3355 63.7966 35.2853 63.8848 35.2336C64.0933 35.125 64.0933 35.125 64.2808 35.125Z" fill="#703391"/>
<path d="M43.7925 36.0678C43.8901 36.1101 43.9878 36.1523 44.0883 36.1959C44.1924 36.2422 44.2964 36.2885 44.4035 36.3361C44.5117 36.3833 44.6199 36.4305 44.7313 36.4791C45.0181 36.6045 45.3044 36.7308 45.5906 36.8575C45.8234 36.9603 46.0565 37.0622 46.2896 37.1641C48.7322 38.2314 48.7322 38.2314 49.0002 38.4993C49.0253 38.7247 49.0253 38.7247 49.0275 39.0117C49.0287 39.1192 49.0299 39.2266 49.0311 39.3373C49.0313 39.4544 49.0315 39.5715 49.0317 39.6921C49.0327 39.8733 49.0327 39.8733 49.0336 40.0582C49.0347 40.3152 49.0351 40.5722 49.035 40.8292C49.035 41.0899 49.0362 41.3505 49.0388 41.6112C49.0624 44.0292 48.9128 46.0901 47.219 47.9681C47.1635 48.0323 47.108 48.0964 47.0509 48.1626C46.097 49.1978 44.6672 49.9957 43.261 50.1467C41.7586 50.1956 40.3422 49.4106 39.2502 48.4368C39.1836 48.378 39.1171 48.3191 39.0484 48.2585C38.544 47.785 38.1882 47.253 37.844 46.6556C37.8005 46.5836 37.757 46.5115 37.7121 46.4373C36.8839 44.9526 36.9376 43.2695 36.9462 41.6215C36.9478 41.2968 36.9456 40.9724 36.9423 40.6478C36.9397 40.3353 36.9407 40.0229 36.9413 39.7104C36.94 39.5943 36.9388 39.4782 36.9375 39.3586C36.9387 39.2511 36.9398 39.1437 36.9411 39.033C36.9412 38.9387 36.9412 38.8444 36.9413 38.7473C37.0223 38.4066 37.1817 38.3126 37.469 38.1243C37.6654 38.0284 37.8656 37.9399 38.0681 37.8574C38.1256 37.8336 38.1832 37.8099 38.2425 37.7854C38.4297 37.7082 38.6173 37.6321 38.8049 37.556C39.0672 37.4485 39.3292 37.3404 39.5912 37.2323C39.657 37.2051 39.7229 37.178 39.7907 37.1501C40.22 36.9724 40.645 36.7875 41.0685 36.5965C41.1744 36.5488 41.2803 36.5011 41.3894 36.4519C41.5878 36.3618 41.7859 36.271 41.9835 36.1792C42.0726 36.1389 42.1617 36.0986 42.2535 36.0571C42.3303 36.0216 42.407 35.9862 42.4861 35.9497C42.9629 35.7955 43.3427 35.8703 43.7925 36.0678ZM44.3772 41.3118C44.2419 41.4275 44.2419 41.4275 44.104 41.5455C43.8171 41.8049 43.5434 42.0733 43.2731 42.3497C43.0847 42.54 42.8929 42.7246 42.6955 42.9056C42.637 42.9597 42.5786 43.0139 42.5183 43.0697C42.344 43.1868 42.344 43.1868 41.969 43.1868C41.8119 43.0466 41.8119 43.0466 41.6584 42.8646C41.4177 42.6115 41.3151 42.5314 40.9729 42.4134C40.6443 42.4117 40.6443 42.4117 40.3752 42.6243C40.1613 42.8908 40.1613 42.8908 40.1811 43.2052C40.3197 43.6977 40.5875 43.9507 40.9494 44.3001C41.0106 44.3635 41.0717 44.4268 41.1347 44.492C41.428 44.7818 41.6332 44.9502 42.0298 45.0802C42.4271 45.057 42.5651 44.9502 42.8596 44.6868C42.9482 44.6088 43.0368 44.5307 43.128 44.4503C43.3826 44.2112 43.6326 43.9695 43.8755 43.7186C44.0405 43.5527 44.2122 43.3989 44.3889 43.2454C44.4505 43.1915 44.5122 43.1376 44.5757 43.0821C44.7267 42.9526 44.8799 42.8255 45.0342 42.6998C45.5623 42.2882 45.5623 42.2882 45.8537 41.7103C45.8352 41.391 45.8352 41.391 45.6135 41.1302C45.1047 40.7652 44.8238 40.9292 44.3772 41.3118Z" fill="#703391"/>
</svg>
