<svg width="86" height="86" viewBox="0 0 86 86" fill="none" xmlns="http://www.w3.org/2000/svg">
<circle cx="43" cy="43" r="43" fill="#703391" fill-opacity="0.1"/>
<path d="M41.9056 31.7376V37.644C41.9056 37.728 41.9221 37.8111 41.9542 37.8887C41.9863 37.9663 42.0334 38.0368 42.0927 38.0962C42.1521 38.1556 42.2225 38.2026 42.3 38.2347C42.3775 38.2668 42.4606 38.2833 42.5445 38.2833H49.0173C49.1011 38.2833 49.1842 38.2668 49.2617 38.2347C49.3392 38.2026 49.4097 38.1556 49.469 38.0962C49.5283 38.0368 49.5754 37.9663 49.6075 37.8887C49.6396 37.8111 49.6561 37.728 49.6561 37.644C49.6522 37.3945 49.6978 37.1467 49.7904 36.915C49.883 36.6834 50.0207 36.4725 50.1955 36.2946C50.3702 36.1168 50.5786 35.9755 50.8084 35.8791C51.0383 35.7827 51.285 35.7331 51.5341 35.7331C51.7833 35.7331 52.03 35.7827 52.2598 35.8791C52.4897 35.9755 52.6981 36.1168 52.8728 36.2946C53.0476 36.4725 53.1853 36.6834 53.2779 36.915C53.3705 37.1467 53.4161 37.3945 53.4121 37.644C53.4121 37.728 53.4287 37.8111 53.4608 37.8887C53.4929 37.9663 53.54 38.0368 53.5993 38.0962C53.6586 38.1556 53.7291 38.2026 53.8066 38.2347C53.8841 38.2668 53.9671 38.2833 54.051 38.2833H60.5238C60.6077 38.2833 60.6908 38.2668 60.7683 38.2347C60.8458 38.2026 60.9162 38.1556 60.9755 38.0962C61.0349 38.0368 61.0819 37.9663 61.1141 37.8887C61.1462 37.8111 61.1627 37.728 61.1627 37.644V21.7705C61.1618 21.0359 60.87 20.3317 60.3512 19.8123C59.8324 19.2929 59.1291 19.0008 58.3955 19H42.5445C42.375 19 42.2125 19.0674 42.0927 19.1874C41.9729 19.3074 41.9056 19.4701 41.9056 19.6398V25.5447C41.1925 25.69 40.5515 26.0776 40.0911 26.6419C39.6307 27.2062 39.3792 27.9125 39.3792 28.6411C39.3792 29.3698 39.6307 30.0761 40.0911 30.6404C40.5515 31.2047 41.1925 31.5923 41.9056 31.7376ZM42.5296 26.7613H42.5363C42.6208 26.7627 42.7047 26.747 42.783 26.7151C42.8613 26.6832 42.9323 26.6358 42.9918 26.5757C43.0517 26.5163 43.0993 26.4455 43.1317 26.3676C43.1642 26.2896 43.1809 26.206 43.1809 26.1215V20.279H58.3955C58.7899 20.2799 59.1678 20.4372 59.4467 20.7165C59.7256 20.9957 59.8826 21.3742 59.8835 21.7691V37.0042H54.6246C54.4775 36.2923 54.0897 35.6531 53.5268 35.1941C52.9638 34.7351 52.2601 34.4845 51.5341 34.4845C50.8082 34.4845 50.1044 34.7351 49.5415 35.1941C48.9785 35.6531 48.5908 36.2923 48.4437 37.0042H43.1833V31.1617C43.1833 31.0773 43.1665 30.9936 43.134 30.9157C43.1016 30.8377 43.054 30.7669 42.994 30.7075C42.9341 30.648 42.863 30.601 42.7849 30.5691C42.7067 30.5373 42.6231 30.5213 42.5387 30.522H42.5349C42.042 30.5145 41.5718 30.3132 41.2258 29.9617C40.8797 29.6101 40.6856 29.1364 40.6852 28.6428C40.6848 28.1492 40.8782 27.6752 41.2237 27.3231C41.5692 26.971 42.0391 26.7691 42.532 26.7608L42.5296 26.7613ZM66.9616 53.8486C66.9596 53.6788 66.8906 53.5167 66.7696 53.3977C66.7099 53.3386 66.639 53.292 66.5611 53.2605C66.4833 53.2291 66.3999 53.2135 66.316 53.2146L64.0749 53.2338C63.678 52.0428 63.0347 50.949 62.187 50.0239L63.291 48.0705C63.3746 47.9231 63.3962 47.7485 63.3512 47.585C63.3062 47.4216 63.1982 47.2828 63.051 47.1991L59.4275 45.1462C59.2803 45.0625 59.1059 45.0408 58.9427 45.0859C58.7795 45.1309 58.6409 45.2391 58.5573 45.3865L57.4533 47.3414C57.0518 47.2586 56.645 47.2038 56.236 47.1774V42.5674C56.236 42.4834 56.2195 42.4002 56.1874 42.3226C56.1552 42.245 56.1082 42.1744 56.0489 42.115C55.9895 42.0556 55.9191 42.0085 55.8416 41.9763C55.7641 41.9442 55.681 41.9276 55.5971 41.9276H49.6984C49.5512 41.2158 49.1635 40.5765 48.6006 40.1175C48.0376 39.6585 47.3339 39.4079 46.6079 39.4079C45.882 39.4079 45.1782 39.6585 44.6153 40.1175C44.0523 40.5765 43.6646 41.2158 43.5174 41.9276H38.2571V36.0847C38.2571 36.0007 38.2406 35.9175 38.2085 35.8399C38.1764 35.7624 38.1293 35.6919 38.07 35.6325C38.0106 35.5731 37.9402 35.526 37.8627 35.4939C37.7852 35.4618 37.7021 35.4454 37.6182 35.4454C37.1254 35.4375 36.6553 35.2359 36.3096 34.8841C35.9638 34.5323 35.77 34.0584 35.77 33.5648C35.77 33.0712 35.9638 32.5974 36.3096 32.2455C36.6553 31.8937 37.1254 31.6921 37.6182 31.6842C37.7877 31.6842 37.9502 31.6168 38.07 31.4968C38.1898 31.3769 38.2571 31.2141 38.2571 31.0445V24.5627C38.2571 24.393 38.1898 24.2303 38.07 24.1103C37.9502 23.9904 37.7877 23.923 37.6182 23.923H21.7672C21.0335 23.9237 20.3301 24.2159 19.8113 24.7354C19.2926 25.2549 19.0008 25.9593 19 26.694V58.4399C19.0009 59.1744 19.2927 59.8786 19.8113 60.398C20.33 60.9173 21.0332 61.2095 21.7667 61.2104H48.4801C48.6873 61.4999 48.9117 61.7767 49.1521 62.0391L48.0481 63.9925C47.9646 64.14 47.9429 64.3147 47.9879 64.4782C48.0329 64.6417 48.1409 64.7806 48.2881 64.8644L51.9112 66.9168C52.0068 66.9715 52.115 67.0002 52.2251 67C52.3383 67.0001 52.4496 66.9701 52.5474 66.913C52.6453 66.8559 52.7262 66.7738 52.7819 66.6751L53.8859 64.7207C55.1139 64.9742 56.3817 64.9637 57.6054 64.6899L58.744 66.6232C58.83 66.7693 58.9705 66.8752 59.1345 66.9177C59.2985 66.9601 59.4726 66.9356 59.6185 66.8496L63.2056 64.7346C63.3515 64.6485 63.4573 64.5079 63.4997 64.3436C63.5421 64.1794 63.5176 64.005 63.4317 63.8589L62.296 61.9252C63.1285 60.986 63.7524 59.8804 64.1262 58.6816L66.3688 58.6624C66.5379 58.6604 66.6993 58.5913 66.8176 58.4703C66.9359 58.3493 67.0015 58.1862 67 58.0169L66.9616 53.8486ZM44.091 43.2062C44.26 43.2058 44.4219 43.1384 44.5413 43.0186C44.6607 42.8989 44.7279 42.7366 44.728 42.5674C44.724 42.3179 44.7696 42.0701 44.8622 41.8385C44.9548 41.6068 45.0925 41.3959 45.2673 41.2181C45.4421 41.0402 45.6505 40.899 45.8803 40.8026C46.1101 40.7062 46.3568 40.6565 46.606 40.6565C46.8552 40.6565 47.1019 40.7062 47.3317 40.8026C47.5615 40.899 47.7699 41.0402 47.9447 41.2181C48.1195 41.3959 48.2572 41.6068 48.3497 41.8385C48.4423 42.0701 48.488 42.3179 48.484 42.5674C48.484 42.6514 48.5005 42.7346 48.5326 42.8122C48.5647 42.8897 48.6118 42.9602 48.6711 43.0196C48.7305 43.079 48.8009 43.1261 48.8784 43.1582C48.9559 43.1903 49.039 43.2067 49.1229 43.2067H54.9587V47.189C54.5466 47.2217 54.1372 47.2834 53.7337 47.3736L52.5966 45.4403C52.5106 45.2942 52.3702 45.1883 52.2062 45.1458C52.0422 45.1034 51.868 45.1279 51.7221 45.2139L48.135 47.3289C47.9891 47.415 47.8833 47.5556 47.8409 47.7199C47.7985 47.8841 47.823 48.0585 47.9089 48.2046L49.048 50.1383C48.2148 51.0775 47.5904 52.1832 47.2163 53.3823L44.9733 53.402C44.8894 53.4027 44.8065 53.42 44.7292 53.4528C44.652 53.4856 44.582 53.5333 44.5232 53.5932C44.4644 53.6531 44.418 53.724 44.3866 53.8019C44.3552 53.8798 44.3394 53.9631 44.3401 54.0471L44.3766 58.2159C44.378 58.3845 44.4459 58.5458 44.5655 58.6645C44.685 58.7833 44.8466 58.8499 45.015 58.8499H45.0208L47.2619 58.8302C47.3875 59.2073 47.5382 59.5755 47.7131 59.9323H38.2571V54.6638C38.9682 54.5166 39.6069 54.1284 40.0655 53.5646C40.5241 53.0008 40.7745 52.2959 40.7745 51.5688C40.7745 50.8416 40.5241 50.1367 40.0655 49.5729C39.6069 49.0091 38.9682 48.6209 38.2571 48.4738V43.2062H44.091ZM20.2778 26.694C20.2786 26.2991 20.4357 25.9206 20.7146 25.6413C20.9934 25.3621 21.3714 25.2048 21.7658 25.2039H36.9798V30.4701C36.269 30.6174 35.6305 31.0057 35.1722 31.5694C34.7138 32.1331 34.4636 32.8379 34.4636 33.5648C34.4636 34.2918 34.7138 34.9965 35.1722 35.5602C35.6305 36.124 36.269 36.5122 36.9798 36.6596V41.9272H31.144C30.9747 41.9275 30.8125 41.9952 30.693 42.1152C30.5735 42.2353 30.5064 42.3979 30.5066 42.5674C30.4987 43.061 30.2973 43.5316 29.946 43.8779C29.5947 44.2241 29.1215 44.4182 28.6286 44.4182C28.1356 44.4182 27.6624 44.2241 27.3111 43.8779C26.9598 43.5316 26.7584 43.061 26.7506 42.5674C26.7507 42.3981 26.6837 42.2357 26.5644 42.1157C26.4451 41.9958 26.2831 41.9282 26.1141 41.9276L20.2778 41.9089V26.694ZM20.2778 58.4399V43.1884L25.5376 43.2048C25.6843 43.9171 26.0719 44.557 26.635 45.0165C27.1981 45.4759 27.9022 45.7268 28.6286 45.7268C29.3549 45.7268 30.059 45.4759 30.6221 45.0165C31.1852 44.557 31.5728 43.9171 31.7195 43.2048H36.9798V49.0487C36.9798 49.1327 36.9962 49.2158 37.0283 49.2935C37.0603 49.3711 37.1074 49.4416 37.1666 49.501C37.2259 49.5604 37.2963 49.6076 37.3738 49.6397C37.4513 49.6719 37.5344 49.6884 37.6182 49.6884C37.8674 49.6844 38.1148 49.7301 38.3462 49.8229C38.5775 49.9156 38.7881 50.0535 38.9657 50.2285C39.1433 50.4035 39.2844 50.6122 39.3806 50.8423C39.4769 51.0725 39.5265 51.3195 39.5265 51.569C39.5265 51.8186 39.4769 52.0656 39.3806 52.2957C39.2844 52.5259 39.1433 52.7345 38.9657 52.9096C38.7881 53.0846 38.5775 53.2225 38.3462 53.3152C38.1148 53.4079 37.8674 53.4536 37.6182 53.4496C37.5344 53.4496 37.4513 53.466 37.3739 53.4982C37.2964 53.5303 37.226 53.5773 37.1667 53.6367C37.1074 53.6961 37.0604 53.7666 37.0283 53.8442C36.9962 53.9218 36.9798 54.0049 36.9798 54.0889V59.9314H21.7672C21.3723 59.9309 20.9938 59.7736 20.7146 59.494C20.4354 59.2144 20.2783 58.8353 20.2778 58.4399ZM63.6337 57.4069C63.4928 57.4079 63.3562 57.4557 63.2453 57.5426C63.1343 57.6296 63.0552 57.7509 63.0203 57.8876C62.6885 59.2097 62.0072 60.418 61.048 61.3854C60.9485 61.4858 60.8851 61.6165 60.8678 61.7569C60.8504 61.8972 60.88 62.0394 60.952 62.1612L62.008 63.9569L59.5216 65.4234L58.4656 63.6281C58.3938 63.5062 58.2837 63.4115 58.1525 63.3589C58.0212 63.3063 57.8763 63.2987 57.7403 63.3373C56.4312 63.7087 55.0464 63.7202 53.7313 63.3705C53.5947 63.3343 53.45 63.3444 53.3197 63.3993C53.1894 63.4541 53.081 63.5507 53.0113 63.6738L51.9861 65.4893L49.4742 64.0665L50.499 62.2525C50.5685 62.1295 50.5954 61.9869 50.5754 61.847C50.5554 61.7071 50.4897 61.5777 50.3886 61.4791C49.4136 60.5282 48.7105 59.3332 48.3525 58.0183C48.3158 57.8828 48.2355 57.7631 48.1241 57.6778C48.0127 57.5925 47.8764 57.5463 47.7361 57.5463H47.7309L45.6501 57.5646L45.6246 54.6748L47.7073 54.657C47.8486 54.6557 47.9854 54.6075 48.0964 54.5202C48.2075 54.4328 48.2865 54.3111 48.3213 54.174C48.6534 52.8527 49.3347 51.6453 50.2936 50.6786C50.393 50.5781 50.4563 50.4475 50.4737 50.3071C50.491 50.1667 50.4615 50.0246 50.3896 49.9028L49.3336 48.1075L51.8195 46.641L52.8755 48.4358C52.9476 48.5574 53.0578 48.6516 53.1891 48.7038C53.3203 48.756 53.4651 48.7632 53.6008 48.7242C54.9099 48.3531 56.2947 48.3416 57.6097 48.6911C57.7463 48.7275 57.8912 48.7174 58.0215 48.6625C58.1518 48.6077 58.2602 48.511 58.3297 48.3878L59.3555 46.5728L61.8669 47.9955L60.8421 49.811C60.7725 49.934 60.7457 50.0767 60.7658 50.2166C60.7858 50.3566 60.8517 50.4859 60.9529 50.5844C61.9279 51.5353 62.6308 52.7303 62.9886 54.0452C63.0254 54.1807 63.1056 54.3003 63.217 54.3856C63.3284 54.4709 63.4647 54.5171 63.6049 54.5172H63.6107L65.6915 54.4994L65.7165 57.3887L63.6337 57.4069ZM55.672 50.3681C54.5533 50.3676 53.4595 50.6994 52.5291 51.3214C51.5987 51.9435 50.8734 52.8278 50.445 53.8627C50.0165 54.8975 49.9042 56.0364 50.1221 57.1352C50.3401 58.234 50.8786 59.2434 51.6695 60.0357C52.4603 60.828 53.4681 61.3677 54.5653 61.5864C55.6625 61.8051 56.7998 61.6931 57.8334 61.2645C58.867 60.8359 59.7505 60.11 60.3721 59.1786C60.9936 58.2471 61.3254 57.152 61.3254 56.0317C61.3233 54.5307 60.727 53.0918 59.6673 52.0302C58.6076 50.9686 57.1709 50.3709 55.672 50.3681ZM55.672 60.414C54.806 60.414 53.9595 60.157 53.2395 59.6753C52.5194 59.1936 51.9582 58.5089 51.6268 57.7078C51.2954 56.9067 51.2086 56.0251 51.3775 55.1746C51.5464 54.3242 51.9634 53.5429 52.5757 52.9298C53.188 52.3166 53.9682 51.8991 54.8175 51.7299C55.6668 51.5608 56.5471 51.6476 57.3471 51.9795C58.1471 52.3114 58.8309 52.8734 59.3119 53.5944C59.793 54.3155 60.0497 55.1632 60.0496 56.0303C60.0486 57.1927 59.5871 58.3073 58.7664 59.1294C57.9457 59.9515 56.8328 60.414 55.672 60.4154V60.414Z" fill="#703391" stroke="#703391"/>
</svg>
