<svg width="20" height="16" viewBox="0 0 20 16" fill="none" xmlns="http://www.w3.org/2000/svg">
<path d="M1 1.25V0.5C0.585786 0.5 0.25 0.835786 0.25 1.25L1 1.25ZM19 1.25H19.75C19.75 0.835786 19.4142 0.5 19 0.5V1.25ZM10 9.5L9.49321 10.0529C9.77995 10.3157 10.2201 10.3157 10.5068 10.0529L10 9.5ZM1 2H19V0.5H1V2ZM18.25 1.25V14H19.75V1.25H18.25ZM18.25 14V14L19.3107 15.0607C19.592 14.7794 19.75 14.3978 19.75 14H18.25ZM18.25 14V14V15.5C18.6478 15.5 19.0294 15.342 19.3107 15.0607L18.25 14ZM18.25 14H1.75V15.5H18.25V14ZM1.75 14L1.75 14L0.68934 15.0607C0.970645 15.342 1.35218 15.5 1.75 15.5V14ZM1.75 14L1.75 14H0.25C0.25 14.3978 0.408035 14.7794 0.68934 15.0607L1.75 14ZM1.75 14V1.25H0.25V14H1.75ZM18.4932 0.697134L9.49321 8.94713L10.5068 10.0529L19.5068 1.80287L18.4932 0.697134ZM10.5068 8.94713L1.50679 0.697134L0.493207 1.80287L9.49321 10.0529L10.5068 8.94713Z" fill="#5E718D"/>
</svg>
