<svg width="12" height="12" viewBox="0 0 12 12" fill="none" xmlns="http://www.w3.org/2000/svg">
<g opacity="0.6">
<path d="M6 9.90086e-05C4.4087 9.90086e-05 2.88261 0.608891 1.75734 1.69259C0.632117 2.77629 0 4.24619 0 5.77869C0 7.31119 0.632117 8.78104 1.75734 9.86479C2.88256 10.9485 4.40878 11.5573 6 11.5573C7.59122 11.5573 9.11739 10.9485 10.2427 9.86479C11.3679 8.78109 12 7.31119 12 5.77869C12 4.76436 11.7228 3.76784 11.1962 2.88927C10.6696 2.01085 9.91207 1.28133 9.00002 0.774128C8.08785 0.266999 7.05314 0 5.9999 0L6 9.90086e-05ZM6 10.4017C4.72692 10.4017 3.50599 9.91462 2.60592 9.04762C1.7057 8.18072 1.19995 7.00484 1.19995 5.77879C1.19995 4.55274 1.7057 3.37681 2.60592 2.50996C3.50604 1.64296 4.72697 1.15587 6 1.15587C7.27303 1.15587 8.49401 1.64296 9.39408 2.50996C10.2943 3.37686 10.8001 4.55274 10.8001 5.77879C10.8001 6.59026 10.5783 7.3875 10.1569 8.09023C9.73559 8.79305 9.1297 9.37658 8.39995 9.78232C7.67029 10.1882 6.84251 10.4018 5.99995 10.4018L6 10.4017Z" fill="#55606A"/>
<path d="M7.69809 4.14335C7.85247 4.27076 8.06341 4.31419 8.25849 4.25866C8.45345 4.20304 8.60604 4.05618 8.6637 3.86831C8.72135 3.68053 8.67635 3.47738 8.54406 3.32859C7.86875 2.67888 6.95307 2.31406 5.99852 2.31445C5.04397 2.31474 4.12858 2.68024 3.45377 3.33042C2.77887 3.98062 2.39978 4.8623 2.39978 5.78166C2.39978 6.70099 2.77887 7.5827 3.45377 8.2329C4.12858 8.8831 5.04397 9.24849 5.99852 9.24886C6.95307 9.24915 7.86875 8.88443 8.54406 8.23473C8.67103 8.12996 8.74687 7.97895 8.7533 7.81807C8.75983 7.65719 8.69624 7.50104 8.57802 7.3872C8.45979 7.27333 8.29767 7.21219 8.13063 7.21838C7.96359 7.22457 7.80678 7.29761 7.69811 7.41989C7.24047 7.84034 6.63247 8.07482 6.00005 8.07482C5.36762 8.07482 4.75962 7.84032 4.30198 7.41989C3.85138 6.98639 3.59814 6.39801 3.59814 5.78459C3.59814 5.17107 3.85137 4.58278 4.30198 4.14918C4.75882 3.72806 5.36651 3.49249 5.99884 3.49143C6.63126 3.49027 7.23977 3.7238 7.69811 4.14336L7.69809 4.14335Z" fill="#55606A"/>
</g>
</svg>
