<svg width="86" height="86" viewBox="0 0 86 86" fill="none" xmlns="http://www.w3.org/2000/svg">
<circle cx="43" cy="43" r="43" fill="#703391" fill-opacity="0.1"/>
<path d="M64.8009 40.7604C63.8714 40.7661 63.0469 41.3575 62.7433 42.2334H56.0569V40.0025L57.3911 39.9875V39.9856C57.9851 39.98 58.5511 39.7404 58.9671 39.3194L60.9816 37.2681C61.8192 37.6687 62.818 37.4909 63.4645 36.8246C64.0605 36.2481 64.2853 35.3872 64.0436 34.5937C63.8018 33.8002 63.1347 33.2087 62.3177 33.0627C61.5006 32.9168 60.6705 33.2387 60.1682 33.8993C59.666 34.56 59.5761 35.4453 59.9359 36.1939L57.8952 38.2695C57.7584 38.408 57.571 38.4866 57.3761 38.4884L56.0568 38.5034V31.2437C56.0587 30.4071 55.3841 29.7259 54.5465 29.7221H47.506L47.5135 28.6348C47.5135 28.4383 47.5922 28.2511 47.7327 28.1145L49.809 26.0782V26.0801C50.6448 26.4937 51.653 26.329 52.3145 25.6702C52.7324 25.2603 52.9704 24.6989 52.9704 24.1131C52.9704 23.5272 52.7324 22.9658 52.3145 22.5559C51.4394 21.7118 50.0527 21.7118 49.1775 22.5559C48.5123 23.2016 48.3343 24.1992 48.7353 25.0358L46.6852 27.0477C46.2598 27.465 46.0181 28.0321 46.0125 28.6254L46.005 29.7241H43.7619V23.2784C44.6407 22.9734 45.231 22.1499 45.2367 21.2216C45.2367 19.9938 44.2416 19 43.0123 19C41.783 19 40.788 19.9938 40.788 21.2216C40.7936 22.1499 41.3839 22.9733 42.2627 23.2784V29.7222H40.0271L40.0121 28.6198C40.0046 28.0284 39.7648 27.465 39.345 27.0496L37.2912 25.0376H37.2893C37.6922 24.201 37.5142 23.2035 36.8471 22.5578C35.9738 21.7118 34.5853 21.7118 33.712 22.5578C33.2922 22.9677 33.0561 23.5291 33.0561 24.1149C33.0561 24.7008 33.2922 25.2622 33.712 25.6721C34.3716 26.329 35.3798 26.4937 36.2174 26.0801L38.2956 28.1182C38.4343 28.2567 38.513 28.442 38.513 28.6385L38.528 29.724H31.4765C30.6407 29.7296 29.9661 30.409 29.968 31.2437V38.4943L28.6468 38.4868H28.645C28.4501 38.4849 28.2627 38.4063 28.1259 38.266L26.0871 36.1923L26.0889 36.1942C26.5593 35.2303 26.2632 34.068 25.3881 33.4467C24.513 32.8272 23.3155 32.9301 22.5603 33.6918C21.7115 34.564 21.7115 35.9527 22.5603 36.8249C23.2069 37.4911 24.2057 37.669 25.0433 37.2684L27.0578 39.3178V39.3159C27.4757 39.7389 28.0454 39.9785 28.6413 39.9841L29.9718 39.9915V42.2337H23.282C22.9784 41.3578 22.1538 40.7664 21.2244 40.7608C19.9951 40.7608 19 41.7564 19 42.9823C19 44.2082 19.9951 45.2039 21.2244 45.2039C22.1538 45.1983 22.9783 44.6068 23.282 43.731H29.9684V45.9619L28.6342 45.9768V45.9787C28.0401 45.9843 27.4742 46.2239 27.0582 46.645L25.0287 48.7112C24.1948 48.3331 23.2166 48.5034 22.5607 49.1398C21.7119 50.0119 21.7119 51.4007 22.5607 52.2728C22.9711 52.692 23.5333 52.9297 24.1198 52.9297C24.7064 52.9297 25.2686 52.6921 25.679 52.2728C26.3236 51.6065 26.4885 50.609 26.0912 49.7705L28.1319 47.6949H28.1301C28.2687 47.5564 28.4543 47.4778 28.6491 47.476L29.9684 47.461L29.9702 54.7207C29.9665 55.5573 30.643 56.2385 31.4806 56.2423H38.5192L38.5117 57.3296C38.5117 57.5261 38.433 57.7133 38.2924 57.8499L36.2161 59.8862V59.8843C35.3766 59.4894 34.3797 59.6522 33.7107 60.2942C33.2928 60.7041 33.0548 61.2655 33.0548 61.8513C33.0548 62.4372 33.2928 62.9986 33.7107 63.4085C34.5858 64.2544 35.9744 64.2544 36.8476 63.4085C37.5129 62.7628 37.6909 61.7652 37.2899 60.9286L39.34 58.9167C39.7653 58.4994 40.0071 57.9323 40.0127 57.339L40.0202 56.2403H42.2652V62.686C41.2457 63.0509 40.6386 64.0934 40.8222 65.1583C41.0078 66.2214 41.9335 67 43.0147 67C44.096 67 45.0217 66.2214 45.2054 65.1583C45.3909 64.0934 44.7818 63.051 43.7643 62.686V56.2422H45.9999L46.0149 57.3446C46.0205 57.936 46.2604 58.4994 46.682 58.9148L48.7358 60.9268C48.3348 61.7634 48.5128 62.7609 49.18 63.4066C50.0532 64.2544 51.4418 64.2544 52.3151 63.4066C52.7348 62.9967 52.971 62.4353 52.971 61.8495C52.971 61.2636 52.7348 60.7022 52.3151 60.2923C51.6461 59.6504 50.6491 59.4875 49.8096 59.8843L47.7314 57.8462C47.5928 57.7077 47.514 57.5224 47.5122 57.3259L47.4972 56.2404H54.5506C55.3864 56.2348 56.0591 55.5554 56.0573 54.7207V47.4701L57.3784 47.4776H57.3802C57.5751 47.4794 57.7625 47.5581 57.8993 47.6984L59.9382 49.7721L59.9363 49.7702C59.5409 50.6087 59.7039 51.6044 60.3485 52.2726C60.7589 52.6918 61.3211 52.9295 61.9077 52.9295C62.4942 52.9295 63.0564 52.6918 63.4668 52.2726C64.3157 51.4004 64.3157 50.0117 63.4668 49.1395C62.8109 48.5032 61.8308 48.3329 60.9988 48.7109L58.9712 46.6485C58.5514 46.2255 57.9818 45.9859 57.3877 45.9803L56.0572 45.9728V43.7307H62.7437C63.0304 44.4943 63.72 45.0352 64.5314 45.1362C65.3428 45.2354 66.143 44.878 66.6096 44.2061C67.0744 43.5342 67.1287 42.6601 66.7483 41.9377C66.3698 41.2134 65.6198 40.7604 64.8009 40.7604ZM61.4185 34.7417C61.5459 34.6088 61.722 34.534 61.9075 34.534C62.0912 34.534 62.2673 34.6088 62.3947 34.7417C62.6758 35.0299 62.6758 35.4866 62.3947 35.7748C62.1249 36.0424 61.6901 36.0424 61.4184 35.7748C61.1373 35.4884 61.1374 35.0299 61.4185 34.7417ZM50.2274 23.6265C50.516 23.3458 50.9769 23.3458 51.2637 23.6265C51.3967 23.7538 51.4717 23.9297 51.4717 24.1131C51.4717 24.2965 51.3967 24.4725 51.2637 24.6016C50.9751 24.8804 50.5178 24.8804 50.2293 24.6016C50.0962 24.4724 50.0213 24.2965 50.0213 24.1131C50.0213 23.9278 50.0962 23.7519 50.2293 23.6247L50.2274 23.6265ZM35.7981 24.5997C35.5095 24.8805 35.0486 24.8805 34.7618 24.5997C34.6288 24.4724 34.5538 24.2965 34.5538 24.1131C34.5538 23.9278 34.6288 23.7519 34.7618 23.6247C35.0485 23.3439 35.5095 23.3439 35.7981 23.6247C35.9293 23.7519 36.0043 23.9278 36.0043 24.1131C36.0043 24.2965 35.9293 24.4725 35.7981 24.5997ZM24.607 35.7748C24.3372 36.0424 23.9005 36.0424 23.6307 35.7748C23.3496 35.4884 23.3496 35.028 23.6307 34.7417C23.9024 34.4759 24.3372 34.4759 24.6089 34.7417C24.8881 35.0299 24.8881 35.4885 24.607 35.7748ZM21.2246 43.7067C20.8348 43.6917 20.5256 43.3717 20.5256 42.9824C20.5256 42.5931 20.8348 42.273 21.2246 42.2581C21.6144 42.2731 21.9235 42.5931 21.9235 42.9824C21.9235 43.3717 21.6143 43.6917 21.2246 43.7067ZM24.607 51.2232C24.3353 51.4889 23.9005 51.4889 23.6307 51.2232C23.3496 50.9349 23.3496 50.4783 23.6307 50.1901C23.9005 49.9224 24.3353 49.9224 24.607 50.1901C24.8881 50.4764 24.8881 50.935 24.607 51.2232ZM35.7981 62.3383C35.5095 62.6191 35.0486 62.6191 34.7618 62.3383C34.6288 62.2111 34.5538 62.0351 34.5538 61.8517C34.5538 61.6683 34.6288 61.4924 34.7618 61.3633C35.0485 61.0844 35.5077 61.0844 35.7962 61.3633C35.9293 61.4924 36.0042 61.6683 36.0042 61.8517C36.0042 62.037 35.9293 62.213 35.7962 62.3402L35.7981 62.3383ZM50.2274 61.3632C50.516 61.0825 50.977 61.0825 51.2637 61.3632C51.3968 61.4924 51.4717 61.6683 51.4717 61.8517C51.4717 62.0351 51.3968 62.211 51.2637 62.3383C50.977 62.619 50.516 62.619 50.2274 62.3383C50.0962 62.211 50.0213 62.0351 50.0213 61.8517C50.0213 61.6683 50.0962 61.4923 50.2274 61.3632ZM43.0127 20.5237C43.4063 20.5162 43.7305 20.8288 43.738 21.2218C43.723 21.6111 43.4025 21.9199 43.0127 21.9199C42.623 21.9199 42.3025 21.6111 42.2875 21.2218C42.295 20.8288 42.6192 20.5162 43.0127 20.5237ZM43.0127 65.4415C42.7335 65.4303 42.4862 65.2544 42.3868 64.9923C42.2857 64.7303 42.3531 64.4346 42.5536 64.2418C42.756 64.0472 43.054 63.9911 43.3126 64.1015C43.5711 64.2119 43.7379 64.4646 43.7379 64.7434C43.7304 65.1364 43.4063 65.449 43.0127 65.4415ZM54.5488 54.7456L31.4676 54.7212L31.4789 31.2198H54.549L54.5602 31.2441L54.5488 54.7456ZM61.4185 50.1902C61.5459 50.0573 61.722 49.9824 61.9057 49.9824C62.0912 49.9824 62.2673 50.0573 62.3947 50.1902C62.6758 50.4765 62.6758 50.9369 62.3947 51.2233C62.123 51.489 61.6883 51.489 61.4165 51.2233C61.1373 50.935 61.1374 50.4765 61.4185 50.1902ZM64.8009 43.7071C64.5067 43.7184 64.2331 43.5481 64.1132 43.2786C63.9914 43.0091 64.0476 42.6927 64.2519 42.4794C64.458 42.2679 64.7709 42.2005 65.0464 42.3109C65.32 42.4214 65.4999 42.6871 65.4999 42.9828C65.5074 43.3758 65.1944 43.6997 64.8009 43.7071ZM39.4109 33.0035C38.0167 33.0035 36.823 34.235 36.4576 35.9943C34.3119 36.9881 32.8484 39.7768 32.8484 42.9771C32.8484 46.1775 34.3101 48.9661 36.4557 49.9598C36.8192 51.7228 38.0111 52.9618 39.4109 52.9618C41.135 52.9618 42.4841 51.1539 42.4841 48.8406V37.1227C42.4841 34.8113 41.1349 33.0035 39.4109 33.0035ZM40.9849 48.8429C40.9849 50.2391 40.2504 51.465 39.4109 51.465C38.6913 51.465 38.0148 50.5292 37.8724 49.3351L37.8162 48.8654L37.3683 48.7156C35.618 48.1242 34.3494 45.7118 34.3494 42.9772C34.3494 40.2447 35.6199 37.8304 37.3683 37.2406L37.8162 37.089L37.8724 36.6211C38.0167 35.4308 38.6931 34.4988 39.4109 34.4988C40.2485 34.4988 40.9849 35.7246 40.9849 37.1209V48.8429ZM49.5677 36.0057C49.2042 34.2427 48.0124 33.0037 46.6125 33.0037C44.8885 33.0037 43.5393 34.8116 43.5393 37.125L43.5412 48.8429C43.5412 51.1524 44.8904 52.9641 46.6144 52.9641C48.0086 52.9641 49.2023 51.7326 49.5677 49.9733C51.7134 48.9795 53.1769 46.1909 53.1769 42.9906C53.175 39.7902 51.7134 37.0013 49.5677 36.0057ZM48.657 48.725L48.2092 48.8766L48.1529 49.3445C48.0068 50.533 47.3303 51.4631 46.6145 51.4631C45.7768 51.4631 45.0404 50.2372 45.0404 48.841V37.1231C45.0404 35.7269 45.7749 34.501 46.6145 34.501C47.334 34.501 48.0106 35.4368 48.1529 36.6309L48.2092 37.1006L48.657 37.2504C50.4073 37.8418 51.676 40.2542 51.676 42.9888C51.676 45.7213 50.4073 48.1352 48.657 48.725Z" fill="#703391"/>
<path d="M50.2293 61.3632H50.2274M50.2274 61.3632C50.516 61.0825 50.977 61.0825 51.2637 61.3632C51.3968 61.4924 51.4717 61.6683 51.4717 61.8517C51.4717 62.0351 51.3968 62.211 51.2637 62.3383C50.977 62.619 50.516 62.619 50.2274 62.3383C50.0962 62.211 50.0213 62.0351 50.0213 61.8517C50.0213 61.6683 50.0962 61.4923 50.2274 61.3632ZM64.8009 40.7604C63.8714 40.7661 63.0469 41.3575 62.7433 42.2334H56.0569V40.0025L57.3911 39.9875V39.9856C57.9851 39.98 58.5511 39.7405 58.9671 39.3194L60.9816 37.2681C61.8192 37.6687 62.818 37.4909 63.4645 36.8246C64.0605 36.2481 64.2853 35.3872 64.0436 34.5937C63.8018 33.8002 63.1347 33.2087 62.3177 33.0627C61.5006 32.9168 60.6705 33.2387 60.1682 33.8993C59.666 34.56 59.5761 35.4453 59.9359 36.1939L57.8952 38.2695C57.7584 38.408 57.571 38.4866 57.3761 38.4884L56.0568 38.5034V31.2437C56.0587 30.4071 55.3841 29.7259 54.5465 29.7221H47.506L47.5135 28.6348C47.5135 28.4383 47.5922 28.2511 47.7327 28.1145L49.809 26.0782V26.0801C50.6448 26.4937 51.653 26.329 52.3145 25.6702C52.7324 25.2603 52.9704 24.6989 52.9704 24.1131C52.9704 23.5272 52.7324 22.9658 52.3145 22.5559C51.4394 21.7118 50.0527 21.7118 49.1775 22.5559C48.5123 23.2016 48.3343 24.1992 48.7353 25.0358L46.6852 27.0477C46.2598 27.465 46.0181 28.0321 46.0125 28.6254L46.005 29.7241H43.7619V23.2784C44.6407 22.9734 45.231 22.1499 45.2367 21.2216C45.2367 19.9938 44.2416 19 43.0123 19C41.783 19 40.788 19.9938 40.788 21.2216C40.7936 22.1499 41.3839 22.9733 42.2627 23.2784V29.7222H40.0271L40.0121 28.6198C40.0046 28.0284 39.7648 27.465 39.345 27.0496L37.2912 25.0376H37.2893C37.6922 24.201 37.5142 23.2035 36.8471 22.5578C35.9738 21.7118 34.5853 21.7118 33.712 22.5578C33.2922 22.9677 33.0561 23.5291 33.0561 24.1149C33.0561 24.7008 33.2922 25.2622 33.712 25.6721C34.3716 26.329 35.3798 26.4937 36.2174 26.0801L38.2956 28.1182C38.4343 28.2567 38.513 28.442 38.513 28.6385L38.528 29.724H31.4765C30.6407 29.7296 29.9661 30.409 29.968 31.2437V38.4943L28.6468 38.4868H28.645C28.4501 38.4849 28.2627 38.4063 28.1259 38.266L26.0871 36.1923L26.0889 36.1942C26.5593 35.2303 26.2632 34.068 25.3881 33.4467C24.513 32.8272 23.3155 32.9301 22.5603 33.6918C21.7115 34.564 21.7115 35.9527 22.5603 36.8249C23.2069 37.4911 24.2057 37.669 25.0433 37.2684L27.0578 39.3178V39.3159C27.4757 39.7389 28.0454 39.9785 28.6413 39.9841L29.9718 39.9915V42.2337H23.282C22.9784 41.3578 22.1538 40.7664 21.2244 40.7608C19.9951 40.7608 19 41.7564 19 42.9823C19 44.2082 19.9951 45.2039 21.2244 45.2039C22.1538 45.1983 22.9783 44.6068 23.282 43.731H29.9684V45.9619L28.6342 45.9768V45.9787C28.0401 45.9843 27.4742 46.2239 27.0582 46.645L25.0287 48.7112C24.1948 48.3331 23.2166 48.5034 22.5607 49.1398C21.7119 50.0119 21.7119 51.4007 22.5607 52.2728C22.9711 52.692 23.5333 52.9297 24.1198 52.9297C24.7064 52.9297 25.2686 52.692 25.679 52.2728C26.3236 51.6065 26.4885 50.609 26.0912 49.7705L28.1319 47.6949H28.1301C28.2687 47.5564 28.4543 47.4778 28.6491 47.476L29.9684 47.461L29.9702 54.7207C29.9665 55.5573 30.643 56.2385 31.4806 56.2423H38.5192L38.5117 57.3296C38.5117 57.5261 38.433 57.7133 38.2924 57.8499L36.2161 59.8862V59.8843C35.3766 59.4894 34.3797 59.6522 33.7107 60.2942C33.2928 60.7041 33.0548 61.2655 33.0548 61.8513C33.0548 62.4372 33.2928 62.9986 33.7107 63.4085C34.5858 64.2544 35.9744 64.2544 36.8476 63.4085C37.5129 62.7628 37.6909 61.7652 37.2899 60.9286L39.34 58.9167C39.7653 58.4994 40.0071 57.9323 40.0127 57.339L40.0202 56.2403H42.2652V62.686C41.2457 63.0509 40.6386 64.0934 40.8222 65.1583C41.0078 66.2214 41.9335 67 43.0147 67C44.096 67 45.0217 66.2214 45.2054 65.1583C45.3909 64.0934 44.7818 63.051 43.7643 62.686V56.2422H45.9999L46.0149 57.3446C46.0205 57.936 46.2604 58.4994 46.682 58.9148L48.7358 60.9268C48.3348 61.7634 48.5128 62.7609 49.18 63.4066C50.0532 64.2544 51.4418 64.2544 52.3151 63.4066C52.7348 62.9967 52.971 62.4353 52.971 61.8495C52.971 61.2636 52.7348 60.7022 52.3151 60.2923C51.6461 59.6504 50.6491 59.4875 49.8096 59.8843L47.7314 57.8462C47.5928 57.7077 47.514 57.5224 47.5122 57.3259L47.4972 56.2404H54.5506C55.3864 56.2348 56.0591 55.5554 56.0573 54.7207V47.4701L57.3784 47.4776H57.3802C57.5751 47.4794 57.7625 47.5581 57.8993 47.6984L59.9382 49.7721L59.9363 49.7702C59.5409 50.6087 59.7039 51.6044 60.3485 52.2726C60.7589 52.6918 61.3211 52.9295 61.9077 52.9295C62.4942 52.9295 63.0564 52.6918 63.4668 52.2726C64.3157 51.4004 64.3157 50.0117 63.4668 49.1395C62.8109 48.5032 61.8308 48.3329 60.9988 48.7109L58.9712 46.6485C58.5514 46.2255 57.9818 45.9859 57.3877 45.9803L56.0572 45.9728V43.7307H62.7437C63.0304 44.4943 63.72 45.0352 64.5314 45.1362C65.3428 45.2354 66.143 44.878 66.6096 44.2061C67.0744 43.5342 67.1287 42.6601 66.7483 41.9377C66.3698 41.2134 65.6198 40.7604 64.8009 40.7604ZM61.4185 34.7417C61.5459 34.6088 61.722 34.534 61.9075 34.534C62.0912 34.534 62.2673 34.6088 62.3947 34.7417C62.6758 35.0299 62.6758 35.4866 62.3947 35.7748C62.1249 36.0424 61.6901 36.0424 61.4184 35.7748C61.1373 35.4884 61.1374 35.0299 61.4185 34.7417ZM50.2274 23.6265C50.516 23.3458 50.9769 23.3458 51.2637 23.6265C51.3967 23.7538 51.4717 23.9297 51.4717 24.1131C51.4717 24.2965 51.3967 24.4725 51.2637 24.6016C50.9751 24.8804 50.5178 24.8804 50.2293 24.6016C50.0962 24.4724 50.0213 24.2965 50.0213 24.1131C50.0213 23.9278 50.0962 23.7519 50.2293 23.6247L50.2274 23.6265ZM35.7981 24.5997C35.5095 24.8805 35.0486 24.8805 34.7618 24.5997C34.6288 24.4724 34.5538 24.2965 34.5538 24.1131C34.5538 23.9278 34.6288 23.7519 34.7618 23.6247C35.0485 23.3439 35.5095 23.3439 35.7981 23.6247C35.9293 23.7519 36.0043 23.9278 36.0043 24.1131C36.0043 24.2965 35.9293 24.4725 35.7981 24.5997ZM24.607 35.7748C24.3372 36.0424 23.9005 36.0424 23.6307 35.7748C23.3496 35.4884 23.3496 35.028 23.6307 34.7417C23.9024 34.4759 24.3372 34.4759 24.6089 34.7417C24.8881 35.0299 24.8881 35.4885 24.607 35.7748ZM21.2246 43.7067C20.8348 43.6917 20.5256 43.3717 20.5256 42.9824C20.5256 42.5931 20.8348 42.273 21.2246 42.2581C21.6144 42.2731 21.9235 42.5931 21.9235 42.9824C21.9235 43.3717 21.6143 43.6917 21.2246 43.7067ZM24.607 51.2232C24.3353 51.4889 23.9005 51.4889 23.6307 51.2232C23.3496 50.9349 23.3496 50.4783 23.6307 50.1901C23.9005 49.9224 24.3353 49.9224 24.607 50.1901C24.8881 50.4764 24.8881 50.935 24.607 51.2232ZM35.7981 62.3383C35.5095 62.6191 35.0486 62.6191 34.7618 62.3383C34.6288 62.2111 34.5538 62.0351 34.5538 61.8517C34.5538 61.6683 34.6288 61.4924 34.7618 61.3633C35.0485 61.0844 35.5077 61.0844 35.7962 61.3633C35.9293 61.4924 36.0042 61.6683 36.0042 61.8517C36.0042 62.037 35.9293 62.213 35.7962 62.3402L35.7981 62.3383ZM43.0127 20.5237C43.4063 20.5162 43.7305 20.8288 43.738 21.2218C43.723 21.6111 43.4025 21.9199 43.0127 21.9199C42.623 21.9199 42.3025 21.6111 42.2875 21.2218C42.295 20.8288 42.6192 20.5162 43.0127 20.5237ZM43.0127 65.4415C42.7335 65.4303 42.4862 65.2544 42.3868 64.9923C42.2857 64.7303 42.3531 64.4346 42.5536 64.2418C42.756 64.0472 43.054 63.9911 43.3126 64.1015C43.5711 64.2119 43.7379 64.4646 43.7379 64.7434C43.7304 65.1364 43.4063 65.449 43.0127 65.4415ZM54.5488 54.7456L31.4676 54.7212L31.4789 31.2198H54.549L54.5602 31.2441L54.5488 54.7456ZM61.4185 50.1902C61.5459 50.0573 61.722 49.9824 61.9057 49.9824C62.0912 49.9824 62.2673 50.0573 62.3947 50.1902C62.6758 50.4765 62.6758 50.9369 62.3947 51.2233C62.123 51.489 61.6883 51.489 61.4165 51.2233C61.1373 50.935 61.1374 50.4765 61.4185 50.1902ZM64.8009 43.7071C64.5067 43.7184 64.2331 43.5481 64.1132 43.2786C63.9914 43.0091 64.0476 42.6927 64.2519 42.4794C64.458 42.2679 64.7709 42.2005 65.0464 42.3109C65.32 42.4214 65.4999 42.6871 65.4999 42.9828C65.5074 43.3758 65.1944 43.6997 64.8009 43.7071ZM39.4109 33.0035C38.0167 33.0035 36.823 34.235 36.4576 35.9943C34.3119 36.9881 32.8484 39.7768 32.8484 42.9771C32.8484 46.1775 34.3101 48.9661 36.4557 49.9598C36.8192 51.7228 38.0111 52.9618 39.4109 52.9618C41.135 52.9618 42.4841 51.1539 42.4841 48.8406V37.1227C42.4841 34.8113 41.1349 33.0035 39.4109 33.0035ZM40.9849 48.8429C40.9849 50.2391 40.2504 51.465 39.4109 51.465C38.6913 51.465 38.0148 50.5292 37.8724 49.3351L37.8162 48.8654L37.3683 48.7156C35.618 48.1242 34.3494 45.7118 34.3494 42.9772C34.3494 40.2447 35.6199 37.8304 37.3683 37.2406L37.8162 37.089L37.8724 36.6211C38.0167 35.4308 38.6931 34.4988 39.4109 34.4988C40.2485 34.4988 40.9849 35.7246 40.9849 37.1209V48.8429ZM49.5677 36.0057C49.2042 34.2427 48.0124 33.0037 46.6125 33.0037C44.8885 33.0037 43.5393 34.8116 43.5393 37.125L43.5412 48.8429C43.5412 51.1524 44.8904 52.9641 46.6144 52.9641C48.0086 52.9641 49.2023 51.7326 49.5677 49.9733C51.7134 48.9795 53.1769 46.1909 53.1769 42.9906C53.175 39.7902 51.7134 37.0013 49.5677 36.0057ZM48.657 48.725L48.2092 48.8766L48.1529 49.3445C48.0068 50.533 47.3303 51.4631 46.6145 51.4631C45.7768 51.4631 45.0404 50.2372 45.0404 48.841V37.1231C45.0404 35.7269 45.7749 34.501 46.6145 34.501C47.334 34.501 48.0106 35.4368 48.1529 36.6309L48.2092 37.1006L48.657 37.2504C50.4073 37.8418 51.676 40.2542 51.676 42.9888C51.676 45.7213 50.4073 48.1352 48.657 48.725Z" stroke="#703391" stroke-width="0.5"/>
</svg>
