<svg width="8" height="8" viewBox="0 0 8 8" fill="none" xmlns="http://www.w3.org/2000/svg">
<path fill-rule="evenodd" clip-rule="evenodd" d="M0.674936 0.000292156C0.541286 0.00032662 0.410684 0.0402325 0.299826 0.114908C0.188967 0.189583 0.102889 0.295635 0.052598 0.419504C0.00230662 0.543374 -0.00991363 0.679433 0.0174996 0.810287C0.0449128 0.94114 0.110714 1.06084 0.20649 1.15409L3.04996 3.99855L0.20649 6.84301C0.142027 6.90494 0.0905634 6.97912 0.0551128 7.06119C0.0196622 7.14327 0.000937193 7.23159 3.42889e-05 7.321C-0.000868615 7.4104 0.0160685 7.49908 0.0498542 7.58186C0.08364 7.66463 0.133595 7.73983 0.196795 7.80306C0.259994 7.86628 0.335168 7.91625 0.417913 7.95005C0.500659 7.98384 0.589314 8.00079 0.678686 7.99988C0.768059 7.99898 0.856353 7.98025 0.938399 7.94478C1.02044 7.90932 1.09459 7.85784 1.1565 7.79335L3.99996 4.94889L6.84342 7.79335C6.90532 7.85786 6.97947 7.90935 7.06152 7.94483C7.14357 7.98031 7.23187 7.99905 7.32126 7.99997C7.41064 8.00088 7.4993 7.98394 7.58206 7.95014C7.66482 7.91634 7.74 7.86637 7.80321 7.80314C7.86641 7.73991 7.91637 7.6647 7.95016 7.58191C7.98394 7.49913 8.00088 7.41043 7.99996 7.32102C7.99905 7.2316 7.98032 7.14327 7.94485 7.06119C7.90939 6.97911 7.8579 6.90494 7.79342 6.84301L4.94997 3.99855L7.79342 1.15409C7.8905 1.05969 7.95681 0.938154 7.98366 0.805408C8.0105 0.672662 7.99663 0.534899 7.94387 0.410174C7.8911 0.285448 7.8019 0.179579 7.68795 0.106439C7.57401 0.0332984 7.44063 -0.00369993 7.3053 0.000292156C7.13076 0.00549462 6.9651 0.0784667 6.84342 0.203749L3.99996 3.04821L1.1565 0.203749C1.09389 0.139369 1.01902 0.0881942 0.93631 0.053249C0.853597 0.0183039 0.764722 0.000297066 0.674936 0.000292156Z" fill="#703391"/>
</svg>
