<svg width="86" height="86" viewBox="0 0 86 86" fill="none" xmlns="http://www.w3.org/2000/svg">
<circle cx="43" cy="43" r="43" fill="#703391" fill-opacity="0.1"/>
<path d="M63.953 21H22.047C20.3711 21 19 22.3674 19 24.0387V61.9613C19 63.6326 20.3711 65 22.047 65H63.953C65.6288 65 67 63.6326 67 61.9613V24.0387C67 22.3674 65.6288 21 63.953 21ZM22.047 23.0258H63.953C64.5117 23.0258 64.9687 23.4816 64.9687 24.0387V27.7155H21.0313V24.0387C21.0313 23.4816 21.4883 23.0258 22.047 23.0258ZM63.953 62.9742H22.047C21.4883 62.9742 21.0313 62.5184 21.0313 61.9613V29.7413H64.9687V61.9613C64.9687 62.5184 64.5117 62.9742 63.953 62.9742Z" fill="#703391" stroke="#703391"/>
<path d="M25.2559 34.0805L36.8444 34.0906C37.403 34.0906 37.8601 33.6348 37.8601 33.0777C37.8601 32.5206 37.403 32.0648 36.8444 32.0648L25.2559 32.0547C24.6973 32.0547 24.2402 32.5105 24.2402 33.0676C24.2402 33.6247 24.6973 34.0805 25.2559 34.0805Z" fill="#703391" stroke="#703391"/>
<path d="M28.6279 37.7406C29.1865 37.7406 29.6435 37.2848 29.6435 36.7277C29.6435 36.1706 29.1865 35.7148 28.6279 35.7148H25.2559C24.6973 35.7148 24.2402 36.1706 24.2402 36.7277C24.2402 37.2848 24.6973 37.7406 25.2559 37.7406H28.6279Z" fill="#703391" stroke="#703391"/>
<path d="M31.3496 35.707C30.791 35.707 30.334 36.1628 30.334 36.7199C30.334 37.277 30.791 37.7328 31.3496 37.7328H34.7216C35.2802 37.7328 35.7373 37.277 35.7373 36.7199C35.7373 36.1628 35.2802 35.707 34.7216 35.707H31.3496Z" fill="#703391" stroke="#703391"/>
<path d="M40.3809 34.0922H42.8286C43.3872 34.0922 43.8443 33.6364 43.8443 33.0793C43.8443 32.5222 43.3872 32.0664 42.8286 32.0664H40.3809C39.8223 32.0664 39.3652 32.5222 39.3652 33.0793C39.3652 33.6364 39.8223 34.0922 40.3809 34.0922Z" fill="#703391" stroke="#703391"/>
<path d="M31.5237 45.5287C31.7269 45.7313 31.9808 45.8224 32.2449 45.8224C32.5089 45.8224 32.7628 45.7211 32.966 45.5287C33.3621 45.1337 33.3621 44.4955 32.966 44.1005L31.798 42.9357L32.8441 41.8924C33.2402 41.4974 33.2402 40.8592 32.8441 40.4642C32.448 40.0693 31.8081 40.0692 31.412 40.4642L30.3659 41.5075L29.3198 40.4642C28.9237 40.0692 28.2838 40.0692 27.8877 40.4642C27.4917 40.8593 27.4916 41.4974 27.8877 41.8924L28.9339 42.9357L27.7658 44.1005C27.3697 44.4956 27.3697 45.1337 27.7658 45.5287C27.969 45.7313 28.2229 45.8224 28.487 45.8224C28.7511 45.8224 29.005 45.7211 29.2081 45.5287L30.3761 44.3639L31.5237 45.5287Z" fill="#703391" stroke="#703391"/>
<path d="M49.0619 58.1906C46.1368 58.1906 43.7602 55.8204 43.7602 52.9033V51.779C43.7602 49.5405 41.9422 47.7274 39.6976 47.7274C37.453 47.7274 35.635 49.5405 35.635 51.779V52.2854C35.635 53.3996 34.7209 54.3112 33.6036 54.3112H33.4513C32.334 54.3112 31.42 53.3996 31.42 52.2854V47.8996C31.42 47.3425 30.9629 46.8867 30.4043 46.8867C29.8457 46.8867 29.3887 47.3425 29.3887 47.8996V52.2854C29.3887 54.5239 31.2067 56.337 33.4513 56.337H33.6036C35.8482 56.337 37.6663 54.5239 37.6663 52.2854V51.779C37.6663 50.6648 38.5803 49.7532 39.6976 49.7532C40.8148 49.7532 41.7289 50.6648 41.7289 51.779V52.9033C41.7289 56.9346 45.0196 60.2162 49.0617 60.2162C49.6204 60.2162 50.0774 59.7604 50.0774 59.2033C50.0774 58.6462 49.6205 58.1906 49.0619 58.1906Z" fill="#703391" stroke="#703391"/>
<path d="M55.2501 54.9023C53.432 54.9023 51.9492 56.3811 51.9492 58.1942C51.9492 60.0073 53.432 61.4861 55.2501 61.4861C57.0681 61.4861 58.5509 60.0073 58.5509 58.1942C58.5509 56.3811 57.0681 54.9023 55.2501 54.9023ZM55.2501 59.4603C54.5493 59.4603 53.9805 58.8931 53.9805 58.1942C53.9805 57.4953 54.5493 56.9281 55.2501 56.9281C55.9509 56.9281 56.5196 57.4953 56.5196 58.1942C56.5196 58.8931 55.9407 59.4603 55.2501 59.4603Z" fill="#703391" stroke="#703391"/>
<path d="M55.2501 35.6602C53.432 35.6602 51.9492 37.1389 51.9492 38.952C51.9492 40.7651 53.432 42.2439 55.2501 42.2439C57.0681 42.2439 58.5509 40.7651 58.5509 38.952C58.5509 37.1389 57.0681 35.6602 55.2501 35.6602ZM55.2501 40.2181C54.5493 40.2181 53.9805 39.6509 53.9805 38.952C53.9805 38.2532 54.5493 37.6859 55.2501 37.6859C55.9509 37.6859 56.5196 38.2532 56.5196 38.952C56.5196 39.6509 55.9407 40.2181 55.2501 40.2181Z" fill="#703391" stroke="#703391"/>
<path d="M56.2622 44.3166V44.1748C56.2622 43.6177 55.8052 43.1619 55.2466 43.1619C54.688 43.1619 54.2309 43.6177 54.2309 44.1748V44.3166C54.2309 45.7346 53.0832 46.8792 51.6613 46.8792C50.2394 46.8792 49.0917 45.7346 49.0917 44.3166V40.265C49.0917 37.753 47.0401 35.707 44.5213 35.707C42.0025 35.707 39.9509 37.753 39.9509 40.265C39.9509 41.2172 39.179 41.9869 38.2243 41.9869H35.543C34.9844 41.9869 34.5273 42.4427 34.5273 42.9998C34.5273 43.5569 34.9844 44.0127 35.543 44.0127H38.2243C40.2963 44.0127 41.9721 42.3312 41.9721 40.2751C41.9721 38.8774 43.1096 37.7429 44.5112 37.7429C45.9127 37.7429 47.0503 38.8774 47.0503 40.2751V44.3267C47.0503 46.8589 49.1121 48.9151 51.6512 48.9151C54.1903 48.9049 56.2622 46.8488 56.2622 44.3166Z" fill="#703391" stroke="#703391"/>
</svg>
