<svg width="56" height="56" viewBox="0 0 56 56" fill="none" xmlns="http://www.w3.org/2000/svg">
<path d="M24.9064 47.1429C22.7111 45.6909 21.8376 46.116 19.2173 46.119L5.98568 46.122C5.34241 46.122 4.66962 46.1609 4.03229 46.0591C0.270003 45.4454 0.00742473 42.3107 0.00742473 39.2988V10.0149C0.00742473 9.38613 -0.0250347 8.73641 0.0457843 8.11068C0.308408 5.85324 2.26773 4.20958 4.4454 4.01796C4.62835 3.99701 4.8231 4.00299 5.00606 4.00299L49.8052 4C52.5465 4.00299 55.4029 4.54191 55.9134 7.95805C56.0609 8.94907 55.9753 10.461 55.9753 11.488V40.8079C55.9488 44.3168 53.839 46.185 50.4514 46.1342C49.1236 46.0982 47.7928 46.1162 46.4679 46.1162L35.47 46.1192C34.148 46.1162 32.9146 45.9006 31.7638 46.715C30.8048 47.3976 30.4536 47.1671 29.3058 47.1671C27.8393 47.1671 26.37 47.1878 24.9064 47.1429ZM4.0233 8.04762C4.09412 12.2901 4.0351 16.5415 4.0351 20.7807L4.03215 36.4869C9.51471 36.5588 15.0089 36.4989 20.4916 36.4989H51.8439L51.9295 36.4749C52.0121 36.0139 51.9442 34.8642 51.9442 34.3342V15.5323C51.9442 13.0503 51.9058 10.5623 51.956 8.08332C49.8639 7.98451 47.7541 8.04439 45.662 8.04439L4.0233 8.04762Z" fill="#703391"/>
<path d="M22.3863 20.7705C22.4542 18.4381 22.0617 16.7496 23.6079 14.7316C24.5433 13.5071 25.942 12.7796 27.4439 12.582C29.6718 12.3365 31.8524 13.561 32.9118 15.537C33.8501 17.2915 33.5403 18.8933 33.6406 20.7705C35.0836 20.7645 36.4173 20.5519 36.4409 22.4081C36.4704 24.4231 36.4438 26.444 36.4438 28.4619V30.2463C36.4409 32.884 35.5439 32.5427 33.1507 32.5337L28.6154 32.5277L23.2686 32.5337C22.159 32.5337 19.9165 32.9738 19.6332 31.39C19.5004 30.6385 19.583 28.9199 19.583 28.0757C19.583 26.1146 19.5417 24.1476 19.5683 22.1895C19.5889 20.5549 21.2236 20.7316 22.3863 20.7705ZM27.5826 15.2735C24.6731 15.7166 25.0686 18.6148 25.0036 20.7615L28.5032 20.7705C29.3295 20.7705 30.1557 20.7615 30.9819 20.7854L30.9878 19.1987C30.9907 16.9621 30.1586 14.9652 27.5826 15.2735Z" fill="#703391"/>
<path d="M35.9043 51.9966H21.705C20.9054 51.9966 20.0998 52.0206 19.3031 51.9427C17.7096 51.7841 18.2172 49.4757 20.0969 49.2212L20.2001 49.2182C21.3922 49.1793 22.5933 49.2122 23.7854 49.2122H34.3436C35.5977 49.2092 37.616 49.0236 37.6338 50.9697C37.6426 52.0146 36.6834 51.9966 35.9043 51.9966Z" fill="#703391"/>
</svg>
