<svg width="52" height="52" viewBox="0 0 52 52" fill="none" xmlns="http://www.w3.org/2000/svg">
<path fill-rule="evenodd" clip-rule="evenodd" d="M10.5464 20.9373H7.49942V24.0134H10.5464V20.9373ZM29.2947 20.9373H26.2478V24.0134H29.2947V20.9373ZM19.9217 10.182H16.8747V13.258H19.9217V10.182ZM19.9217 20.9373H16.8747V24.0134H19.9217V20.9373ZM17.8253 19.7805V17.6663H9.59615V19.7805H11.1196C11.4365 19.7805 11.6925 20.0391 11.6925 20.3589V24.5896C11.6925 24.9095 11.4365 25.168 11.1196 25.168H6.92896C6.61211 25.168 6.35605 24.9094 6.35605 24.5896V20.3589C6.35605 20.039 6.61214 19.7805 6.92896 19.7805H8.45245V17.0879C8.45245 16.768 8.70853 16.5095 9.02535 16.5095H17.8278V14.4106H16.3043C15.9875 14.4106 15.7314 14.1521 15.7314 13.8322V9.60152C15.7314 9.28165 15.9875 9.02315 16.3043 9.02315H20.495C20.8119 9.02315 21.0679 9.28168 21.0679 9.60152V13.8322C21.0679 14.1521 20.8118 14.4106 20.495 14.4106H18.9715V16.5095H27.9129C28.2298 16.5095 28.4858 16.768 28.4858 17.0879V19.7805H29.8704C30.1873 19.7805 30.4433 20.0391 30.4433 20.3589V24.5896C30.4433 24.9095 30.1872 25.168 29.8704 25.168H25.6797C25.3629 25.168 25.1068 24.9094 25.1068 24.5896V20.3589C25.1068 20.039 25.3629 19.7805 25.6797 19.7805H27.3421V17.6663H18.9741V19.7805H20.4976C20.8144 19.7805 21.0705 20.0391 21.0705 20.3589V24.5896C21.0705 24.9095 20.8144 25.168 20.4976 25.168H16.3069C15.9901 25.168 15.734 24.9094 15.734 24.5896V20.3589C15.734 20.039 15.9901 19.7805 16.3069 19.7805H17.8304H17.8253ZM29.2473 2.97388V7.61423H33.8438L29.2473 2.97388ZM34.8225 27.1246V27.1268C36.7018 27.0326 38.4467 27.7118 39.7467 28.8905C41.0553 30.0758 41.9147 31.765 42.0188 33.6754L42.021 33.7039H42.0188C42.1122 35.6012 41.4394 37.3627 40.2718 38.6751C39.0978 39.9963 37.4245 40.8638 35.5321 40.969L35.5039 40.9712V40.969C33.6245 41.0632 31.8797 40.384 30.5797 39.2053C29.2711 38.02 28.4117 36.3308 28.3076 34.4204L28.3054 34.3919H28.3076C28.2142 32.4946 28.887 30.7331 30.0545 29.4207C31.2286 28.0995 32.9019 27.232 34.7942 27.1268L34.8225 27.1246ZM34.8225 28.2792C33.2577 28.3713 31.8731 29.0921 30.9031 30.1853C29.9243 31.2851 29.3622 32.7641 29.449 34.359L29.4512 34.3875C29.5423 35.9694 30.2585 37.365 31.3414 38.3443C32.4308 39.3324 33.8958 39.8999 35.4756 39.8122L35.5039 39.8101C37.0686 39.718 38.4532 38.9972 39.4233 37.904C40.402 36.8042 40.9641 35.3252 40.8773 33.7303L40.8751 33.7018C40.784 32.12 40.0678 30.7243 38.9849 29.745C37.8955 28.7569 36.4306 28.1894 34.8507 28.2771L34.8225 28.2792ZM38.3599 43.1469C37.5287 43.4515 36.665 43.6333 35.7947 43.6991V45.5811C35.7947 45.901 35.5386 46.1595 35.2218 46.1595H5.85704V48.8806H38.3625V43.1468L38.3599 43.1469ZM35.7969 24.3924C36.6693 24.4559 37.533 24.64 38.3621 24.9423L38.3599 6.03462H33.8958L35.6276 7.78298C35.7383 7.89471 35.7947 8.04369 35.7947 8.19268V24.3925L35.7969 24.3924ZM44.8855 41.6657C45.0439 41.6087 45.2132 41.5846 45.3781 41.589C45.7297 41.5999 46.0748 41.7467 46.333 42.0228L50.5259 46.5339V46.5361C50.8579 46.8932 51.0142 47.3533 50.999 47.8046C50.9838 48.2604 50.7993 48.7073 50.4478 49.0425L50.4456 49.0447H50.4434L48.8809 50.5214C48.5271 50.8566 48.0714 51.0143 47.6222 50.999C47.1708 50.9836 46.7259 50.7974 46.3939 50.4403L42.201 45.9314V45.9292C41.9427 45.6509 41.8212 45.2938 41.8321 44.9433C41.8386 44.7505 41.8842 44.5577 41.9688 44.3802L40.7231 43.0481C40.6818 43.0503 40.6428 43.0503 40.6016 43.0503C40.2717 43.0394 39.9483 42.9079 39.6987 42.6603C39.6901 42.6538 39.6836 42.645 39.677 42.6384V42.6362L39.6228 42.5771C39.5837 42.5968 39.5447 42.6187 39.5056 42.6384V49.4564C39.5056 49.7763 39.2495 50.0348 38.9327 50.0348H5.28391C4.96706 50.0348 4.711 49.7763 4.711 49.4564V46.1569H1.57291C1.25606 46.1569 1 45.8984 1 45.5785V1.57838C1 1.2585 1.25609 1 1.57291 1H28.6721C28.8326 1 28.978 1.06573 29.0822 1.17527L32.7499 4.87795H38.9328C39.2497 4.87795 39.5058 5.13648 39.5058 5.45633V25.4487C40.4368 25.9351 41.3027 26.5858 42.0623 27.3965L42.0796 27.4118V27.414L42.0905 27.4272C43.6487 29.1076 44.5016 31.1978 44.6557 33.3276C44.8032 35.3433 44.3258 37.3961 43.2342 39.1641L43.2754 39.2079C43.5293 39.4796 43.6487 39.8323 43.6378 40.1785C43.6357 40.2267 43.6313 40.2727 43.6248 40.3209L44.8857 41.6683L44.8855 41.6657ZM42.7435 43.5258L43.9718 42.3668L42.9995 41.3261L41.7734 42.4851L42.7456 43.5236L42.7435 43.5258ZM45.1784 42.8027L43.0429 44.8184L43.0451 44.8206C42.9995 44.8644 42.9757 44.9214 42.9735 44.9783C42.9713 45.0375 42.9908 45.0988 43.0321 45.1427L43.0342 45.1405L47.2271 49.6494C47.3443 49.7743 47.5005 49.8422 47.659 49.8466C47.8196 49.851 47.9801 49.7962 48.1039 49.6801L49.6664 48.2056L49.6642 48.2034L49.6664 48.2012C49.7901 48.0829 49.8552 47.9274 49.8596 47.7674C49.8639 47.6075 49.8096 47.4453 49.6968 47.3205L49.6946 47.3227L45.5018 42.8115C45.4584 42.7655 45.4019 42.7414 45.3433 42.7392C45.2826 42.737 45.224 42.7567 45.1784 42.7984L45.1784 42.8027ZM32.4131 35.1255L34.2057 36.1464C34.4466 36.2845 34.746 36.2231 34.9175 36.0194H34.9196L37.8581 32.5643C38.0621 32.3232 38.0361 31.9596 37.7952 31.7514C37.5564 31.5455 37.1962 31.5718 36.99 31.815L34.3554 34.9107L32.9708 34.122C32.6974 33.9665 32.3501 34.0651 32.1939 34.3411C32.0398 34.6172 32.1375 34.9677 32.4109 35.1254L32.4131 35.1255ZM7.08896 29.5978H11.31C11.6269 29.5978 11.8829 29.3392 11.8829 29.0194C11.8829 28.6995 11.6269 28.441 11.31 28.441H7.08896C6.77211 28.441 6.51605 28.6995 6.51605 29.0194C6.51605 29.3393 6.77214 29.5978 7.08896 29.5978ZM7.08896 36.5582H18.4087C18.7256 36.5582 18.9817 36.2997 18.9817 35.9799C18.9817 35.66 18.7256 35.4015 18.4087 35.4015H7.08896C6.77211 35.4015 6.51605 35.66 6.51605 35.9799C6.51605 36.2997 6.77214 36.5582 7.08896 36.5582ZM28.2829 39.0865C28.2981 39.1063 28.3133 39.126 28.3285 39.1479C28.5108 39.3933 28.7083 39.6299 28.9188 39.8599C28.9318 39.8731 28.9448 39.8862 28.9557 39.8994C30.3251 41.3629 32.0851 42.2283 33.9168 42.4868C34.3356 42.546 34.7566 42.5723 35.1777 42.5701C35.1928 42.5679 35.208 42.5679 35.2211 42.5679H35.2493C36.4125 42.546 37.5714 42.2831 38.65 41.7792C38.6739 41.7661 38.6999 41.7529 38.7281 41.742C38.969 41.6258 39.2056 41.4966 39.4377 41.3564C39.6721 41.2139 39.9673 41.2621 40.1474 41.4571L40.4838 41.8208C40.4924 41.8296 40.5011 41.8384 40.5098 41.8471C40.5467 41.88 40.5901 41.8953 40.6357 41.8975C40.6812 41.8997 40.729 41.8844 40.7659 41.8559C40.7789 41.8427 40.7941 41.8296 40.8093 41.8165L42.4305 40.2828C42.4717 40.2434 42.4934 40.193 42.4934 40.1404C42.4956 40.0878 42.4782 40.0352 42.4391 39.9958L42.0897 39.6189C41.8966 39.413 41.8857 39.0975 42.0485 38.8784C43.1596 37.2506 43.6523 35.3116 43.5112 33.4055C43.3745 31.5367 42.628 29.7028 41.265 28.2283C41.252 28.2152 41.239 28.202 41.2281 28.1889C40.4903 27.4002 39.6374 26.7845 38.7194 26.3441C38.6955 26.3354 38.6738 26.3244 38.6521 26.3113C37.6126 25.8227 36.4928 25.5598 35.3642 25.5226C35.3273 25.5204 35.2905 25.5204 35.2536 25.5204C35.2405 25.5204 35.2297 25.5226 35.2167 25.5226C35.1993 25.5226 35.1798 25.5204 35.1624 25.5204C33.0725 25.5007 30.9739 26.2609 29.3267 27.8121C29.3137 27.8252 29.3006 27.8383 29.2876 27.8493C28.8167 28.2984 28.4087 28.7892 28.0636 29.3107C28.0528 29.3304 28.0398 29.3501 28.0267 29.3676C27.3887 30.347 26.9699 31.4337 26.7724 32.5554C26.7702 32.5861 26.7637 32.6168 26.7572 32.6452C26.6964 33.0177 26.6595 33.3923 26.6465 33.7692C26.6248 34.455 26.6834 35.1429 26.8245 35.8177C26.8331 35.8462 26.8375 35.8746 26.8418 35.9031C27.0892 37.0292 27.5667 38.1159 28.2741 39.0887L28.2829 39.0865ZM7.08896 40.0374H27.5668C27.7339 40.2521 27.9119 40.4602 28.1007 40.6618L28.1115 40.675L28.1267 40.6925C29.6806 42.3532 31.6793 43.3369 33.7608 43.6305C34.0559 43.6722 34.3532 43.7006 34.6506 43.7138V45.0042L2.14515 45.0021V2.15619H28.1009V8.19009C28.1009 8.50996 28.357 8.76846 28.6738 8.76846H34.6507V24.3743C32.4501 24.4751 30.2712 25.3405 28.5372 26.9793L28.5241 26.9924H28.522L28.5068 27.0077C28.0402 27.4503 27.63 27.9323 27.2719 28.4406H14.0837C13.7669 28.4406 13.5108 28.6991 13.5108 29.019C13.5108 29.3389 13.7669 29.5974 14.0837 29.5974H26.573C26.1932 30.3379 25.9154 31.12 25.7375 31.9219H7.08914C6.77229 31.9219 6.51624 32.1804 6.51624 32.5003C6.51624 32.8202 6.77232 33.0787 7.08914 33.0787H25.5553C25.5335 33.2956 25.5205 33.5125 25.5118 33.7316C25.4945 34.2903 25.5227 34.849 25.6008 35.4033H21.1845C20.8676 35.4033 20.6116 35.6618 20.6116 35.9816C20.6116 36.3015 20.8677 36.56 21.1845 36.56H25.8352C26.0479 37.3641 26.3669 38.1462 26.7901 38.8846H7.089C6.77215 38.8846 6.51609 39.1431 6.51609 39.4629C6.51609 39.7828 6.77218 40.0413 7.089 40.0413L7.08896 40.0374Z" fill="#703391" stroke="#703391"/>
</svg>
