<svg width="86" height="86" viewBox="0 0 86 86" fill="none" xmlns="http://www.w3.org/2000/svg">
<circle cx="43" cy="43" r="43" fill="#703391" fill-opacity="0.1"/>
<path fill-rule="evenodd" clip-rule="evenodd" d="M19 26.2666V59.733C19 60.3344 19.2483 60.911 19.6786 61.3366C20.0924 61.7603 20.6717 62 21.2841 62H50.0676C50.6635 62 51.2428 61.7603 51.6731 61.3366C52.1035 60.9109 52.3352 60.3344 52.3352 59.733V54.4859C53.2621 54.2441 54.1725 53.8763 55.0166 53.3844L62.2331 60.5948C62.7628 61.1197 63.4745 61.4132 64.2193 61.4132C64.9476 61.4132 65.6593 61.1197 66.189 60.5948C66.7187 60.074 67 59.3631 67 58.6233C67 57.8834 66.7186 57.1725 66.189 56.6497L58.9725 49.4372C61.3724 45.2874 60.8097 39.8794 57.2511 36.3311C55.8442 34.9217 54.1394 33.9835 52.3352 33.5123V26.267C52.3352 25.6656 52.1035 25.089 51.6732 24.6634C51.2428 24.2397 50.6635 24 50.0677 24H21.2841C20.6717 24 20.0924 24.2397 19.6786 24.6634C19.2483 25.0891 19 25.6652 19 26.2666ZM40.4674 49.9086H20.6552V59.733C20.6552 59.8962 20.7214 60.0512 20.8372 60.167C20.9531 60.2827 21.1186 60.3468 21.2841 60.3468H50.0677C50.2332 60.3468 50.3822 60.2827 50.498 60.167C50.6139 60.0512 50.6801 59.8962 50.6801 59.733V54.7856C47.5353 55.1059 44.2914 54.0643 41.891 51.6671C41.3448 51.1215 40.8647 50.5327 40.4674 49.9086ZM56.4397 52.4712L58.0452 50.8634L65.0133 57.8177C65.2285 58.0326 65.3444 58.3219 65.3444 58.6236C65.3444 58.9253 65.2285 59.2147 65.0133 59.4275C64.7981 59.6404 64.5168 59.7602 64.2188 59.7602C63.9044 59.7602 63.623 59.6404 63.4078 59.4275L56.4397 52.4712ZM25.1074 53.8207C25.7198 53.8207 26.2164 54.3208 26.2164 54.9346C26.2164 55.5525 25.7199 56.0506 25.1074 56.0506C24.495 56.0506 23.9985 55.5525 23.9985 54.9346C23.9985 54.3208 24.495 53.8207 25.1074 53.8207ZM29.1626 53.8207C29.775 53.8207 30.2716 54.3208 30.2716 54.9346C30.2716 55.5525 29.775 56.0506 29.1626 56.0506C28.5501 56.0506 28.0371 55.5525 28.0371 54.9346C28.0371 54.3208 28.5502 53.8207 29.1626 53.8207ZM33.2177 53.8207C33.8301 53.8207 34.3267 54.3208 34.3267 54.9346C34.3267 55.5525 33.8302 56.0506 33.2177 56.0506C32.6053 56.0506 32.0922 55.5525 32.0922 54.9346C32.0922 54.3208 32.6053 53.8207 33.2177 53.8207ZM43.0661 37.4986C46.6578 33.911 52.4839 33.911 56.0755 37.4986C59.6671 41.0861 59.6672 46.9119 56.0755 50.4993C52.4838 54.0848 46.6577 54.0848 43.0661 50.4993C39.4744 46.9118 39.4744 41.086 43.0661 37.4986ZM44.3737 44.583L48.0482 48.2636C48.3793 48.588 48.9089 48.588 49.2234 48.2636L55.7445 41.7537C56.059 41.4313 56.059 40.9064 55.7445 40.584C55.4135 40.2616 54.9004 40.2616 54.5693 40.584L48.6436 46.5109L45.5318 43.4151C45.2173 43.0928 44.6877 43.0928 44.3732 43.4151C44.0422 43.7375 44.0422 44.2604 44.3732 44.5827L44.3737 44.583ZM40.4675 38.0773H20.6553V48.2551H39.5904C38.1836 44.9693 38.4813 41.1294 40.4675 38.0773ZM25.1076 41.886C25.7199 41.886 26.2165 42.3841 26.2165 42.9999C26.2165 43.6158 25.72 44.1139 25.1076 44.1139C24.4951 44.1139 23.9986 43.6158 23.9986 42.9999C23.9986 42.3841 24.4951 41.886 25.1076 41.886ZM29.1627 41.886C29.7751 41.886 30.2717 42.3841 30.2717 42.9999C30.2717 43.6158 29.7751 44.1139 29.1627 44.1139C28.5503 44.1139 28.0372 43.6158 28.0372 42.9999C28.0372 42.3841 28.5503 41.886 29.1627 41.886ZM33.2178 41.886C33.8302 41.886 34.3268 42.3841 34.3268 42.9999C34.3268 43.6158 33.8303 44.1139 33.2178 44.1139C32.6054 44.1139 32.0923 43.6158 32.0923 42.9999C32.0923 42.3841 32.6054 41.886 33.2178 41.886ZM50.68 33.2123V26.2665C50.68 26.1032 50.6138 25.9482 50.498 25.8325C50.3821 25.7168 50.2331 25.6527 50.0676 25.6527H21.2841C21.1185 25.6527 20.953 25.7168 20.8372 25.8325C20.7213 25.9482 20.6551 26.1032 20.6551 26.2665V36.4236H41.8084C41.825 36.3906 41.8581 36.3616 41.8912 36.3306C44.2912 33.9313 47.5349 32.8941 50.68 33.2123ZM25.1078 30.1993C25.7202 30.1993 26.2168 30.6973 26.2168 31.3132C26.2168 31.927 25.7202 32.4291 25.1078 32.4291C24.4953 32.4291 23.9988 31.9269 23.9988 31.3132C23.9988 30.6973 24.4953 30.1993 25.1078 30.1993ZM29.1629 30.1993C29.7753 30.1993 30.2719 30.6973 30.2719 31.3132C30.2719 31.927 29.7753 32.4291 29.1629 32.4291C28.5505 32.4291 28.0374 31.9269 28.0374 31.3132C28.0374 30.6973 28.5505 30.1993 29.1629 30.1993ZM33.218 30.1993C33.8304 30.1993 34.327 30.6973 34.327 31.3132C34.327 31.927 33.8305 32.4291 33.218 32.4291C32.6056 32.4291 32.0925 31.9269 32.0925 31.3132C32.0925 30.6973 32.6056 30.1993 33.218 30.1993Z" fill="#703391" stroke="#703391"/>
</svg>
