<svg width="86" height="86" viewBox="0 0 86 86" fill="none" xmlns="http://www.w3.org/2000/svg">
<circle cx="43" cy="43" r="43" fill="#703391" fill-opacity="0.1"/>
<path d="M62.9596 19H23.0404C20.8112 19 19 20.8097 19 23.0369V50.7749V54.7345C19 56.0183 20.0424 57.0597 21.3272 57.0597H32.3029L31.1316 62.8445H28.9591C27.8136 62.8445 26.8796 63.7777 26.8796 64.9222C26.8796 66.0668 27.8136 67 28.9591 67H57.0409C58.1864 67 59.1204 66.0668 59.1204 64.9222C59.1204 63.7777 58.1864 62.8445 57.0409 62.8445H54.8323L53.2068 57.0649H64.6728C65.9576 57.0649 67 56.0234 67 54.7396V50.78V23.0421C67 20.8097 65.1888 19 62.9596 19ZM23.0404 20.1961H62.9596C64.5283 20.1961 65.8028 21.4696 65.8028 23.0369V50.1768H20.1972V23.0369C20.1972 21.4696 21.4717 20.1961 23.0404 20.1961ZM57.9232 64.9222C57.9232 65.4069 57.5259 65.8039 57.0409 65.8039H28.9591C28.4741 65.8039 28.0768 65.4069 28.0768 64.9222C28.0768 64.4376 28.4741 64.0406 28.9591 64.0406H57.0409C57.5259 64.0406 57.9232 64.4324 57.9232 64.9222ZM53.5938 62.8445H32.3494L33.5207 57.0649H51.9632L53.5938 62.8445ZM65.808 54.7345C65.808 55.3583 65.2971 55.8687 64.6728 55.8687H21.3272C20.7029 55.8687 20.192 55.3635 20.192 54.7345V51.3729H65.808V54.7345ZM23.6442 33.0339C23.3139 33.0339 23.0456 33.302 23.0456 33.632V41.3244C23.0456 41.6543 23.3139 41.9224 23.6442 41.9224H26.7867C27.117 41.9224 27.3853 41.6543 27.3853 41.3244V33.632C27.3853 33.302 27.117 33.0339 26.7867 33.0339H23.6442ZM26.1881 40.7263H24.2427V34.2301H26.1881V40.7263ZM29.2584 30.5076C28.9282 30.5076 28.6599 30.7757 28.6599 31.1057V41.3244C28.6599 41.6543 28.9282 41.9224 29.2584 41.9224H32.401C32.7312 41.9224 32.9996 41.6543 32.9996 41.3244V31.1057C32.9996 30.7757 32.7312 30.5076 32.401 30.5076H29.2584ZM31.8024 40.7263H29.857V31.7038H31.8024V40.7263ZM34.7747 35.189C34.4444 35.189 34.1761 35.4571 34.1761 35.7871V41.3295C34.1761 41.6595 34.4444 41.9276 34.7747 41.9276H37.9172C38.2475 41.9276 38.5158 41.6595 38.5158 41.3295V35.7871C38.5158 35.4571 38.2475 35.189 37.9172 35.189H34.7747ZM37.3186 40.7263H35.3733V36.38H37.3186V40.7263ZM43.2167 31.1005H40.0742C39.7439 31.1005 39.4756 31.3686 39.4756 31.6986V41.3244C39.4756 41.6543 39.7439 41.9224 40.0742 41.9224H43.2167C43.547 41.9224 43.8153 41.6543 43.8153 41.3244V31.6986C43.8153 31.3686 43.547 31.1005 43.2167 31.1005ZM42.6181 40.7263H40.6728V32.2967H42.6181V40.7263ZM22.7566 31.4357C22.5605 31.1727 22.6173 30.7963 22.8805 30.6004L30.4298 25.0168C30.662 24.8415 30.9923 24.8621 31.1987 25.0683L36.5033 30.1777L43.1496 25.357L41.8183 25.1869C41.4932 25.1456 41.261 24.8466 41.3023 24.5166C41.3436 24.1918 41.6429 23.9598 41.9731 24.0011L44.8267 24.3671C45.1518 24.4084 45.384 24.7074 45.3427 25.0374L44.9763 27.8885C44.9351 28.1875 44.6822 28.4092 44.3829 28.4092C44.3571 28.4092 44.3313 28.4092 44.3055 28.4041C43.9804 28.3628 43.7482 28.0638 43.7895 27.7338L43.9856 26.2232L36.8026 31.4357C36.5704 31.6058 36.2453 31.5852 36.0338 31.3841L30.7343 26.2799L23.5926 31.5594C23.4842 31.6367 23.3604 31.678 23.2365 31.678C23.0559 31.678 22.8753 31.5955 22.7566 31.4357ZM22.2045 44.4694C22.2045 44.1394 22.4728 43.8713 22.8031 43.8713H44.0578C44.3881 43.8713 44.6564 44.1394 44.6564 44.4694C44.6564 44.7994 44.3881 45.0675 44.0578 45.0675H22.8031C22.4728 45.0675 22.2045 44.7994 22.2045 44.4694ZM55.3638 37.7205C53.7538 37.7205 52.4431 39.0301 52.4431 40.6387C52.4431 42.2473 53.7538 43.5568 55.3638 43.5568C56.9738 43.5568 58.2845 42.2473 58.2845 40.6387C58.2845 39.0249 56.9738 37.7205 55.3638 37.7205ZM55.3638 42.3555C54.4143 42.3555 53.6403 41.5822 53.6403 40.6335C53.6403 39.6849 54.4143 38.9115 55.3638 38.9115C56.3133 38.9115 57.0873 39.6849 57.0873 40.6335C57.0873 41.5873 56.3133 42.3555 55.3638 42.3555ZM61.6747 38.7981H60.6478C60.5756 38.597 60.493 38.3959 60.4001 38.2L61.1277 37.473C61.5405 37.0606 61.5405 36.3852 61.1277 35.9727L60.0286 34.8745C59.8273 34.6735 59.5642 34.5652 59.2804 34.5652C58.9966 34.5652 58.7282 34.6735 58.5321 34.8745L57.8046 35.6015C57.6085 35.5087 57.4124 35.4262 57.206 35.354V34.328C57.206 33.7454 56.7312 33.266 56.143 33.266H54.5846C54.0015 33.266 53.5216 33.7403 53.5216 34.328V35.354C53.3204 35.4262 53.1191 35.5087 52.923 35.6015L52.1954 34.8745C51.9942 34.6735 51.731 34.5652 51.4472 34.5652C51.1634 34.5652 50.8951 34.6735 50.699 34.8745L49.5999 35.9727C49.1871 36.3852 49.1871 37.0606 49.5999 37.473L50.3275 38.2C50.2346 38.3959 50.152 38.5918 50.0798 38.7981H49.0529C48.4698 38.7981 47.9899 39.2724 47.9899 39.8601V41.4172C47.9899 41.9998 48.4646 42.4793 49.0529 42.4793H50.0798C50.152 42.6803 50.2346 42.8814 50.3275 43.0773L49.5999 43.8043C49.1871 44.2168 49.1871 44.8922 49.5999 45.3046L50.699 46.4079C50.9002 46.609 51.1634 46.7173 51.4472 46.7173C51.731 46.7173 51.9994 46.609 52.1954 46.4079L52.923 45.681C53.1191 45.7738 53.3152 45.8563 53.5216 45.9285V46.9545C53.5216 47.5371 53.9963 48.0165 54.5846 48.0165H56.143C56.7261 48.0165 57.206 47.5422 57.206 46.9545V45.9285C57.4072 45.8563 57.6085 45.7738 57.8046 45.681L58.5321 46.4079C58.7334 46.609 58.9966 46.7173 59.2804 46.7173C59.5642 46.7173 59.8325 46.609 60.0286 46.4079L61.1329 45.3046C61.5457 44.8922 61.5457 44.2168 61.1329 43.8043L60.4053 43.0773C60.4982 42.8814 60.5807 42.6855 60.653 42.4793H61.6799C62.263 42.4793 62.7429 42.0049 62.7429 41.4172V39.8601C62.7377 39.2724 62.263 38.7981 61.6747 38.7981ZM61.5405 41.278H60.5498C60.0905 41.278 59.6829 41.5719 59.5435 42.0049C59.4765 42.2112 59.3887 42.4174 59.2907 42.6133C59.0843 43.0258 59.1617 43.5156 59.4868 43.8404L60.1886 44.5467L59.2804 45.4541L58.5786 44.753C58.2535 44.4281 57.7581 44.3508 57.3505 44.557C57.1544 44.655 56.948 44.7426 56.7416 44.8097C56.3029 44.954 56.014 45.3562 56.014 45.815V46.8049H54.7239V45.815C54.7239 45.3562 54.4298 44.9489 53.9963 44.8097C53.7899 44.7426 53.5835 44.655 53.3874 44.557C52.9746 44.3508 52.4844 44.4281 52.1593 44.753L51.4575 45.4541L50.539 44.5467L51.2408 43.8455C51.5659 43.5207 51.6433 43.0258 51.4369 42.6185C51.3388 42.4226 51.2511 42.2163 51.184 42.0101C51.0396 41.5719 50.6371 41.2831 50.1778 41.2831H49.1871V39.9942H50.1778C50.6371 39.9942 51.0447 39.7003 51.184 39.2672C51.2511 39.061 51.3388 38.8548 51.4369 38.6589C51.6433 38.2464 51.5659 37.7566 51.2408 37.4318L50.539 36.7306L51.4472 35.8232L52.149 36.5244C52.4741 36.8492 52.9695 36.9265 53.3771 36.7203C53.5732 36.6223 53.7796 36.5347 53.986 36.4677C54.4246 36.3233 54.7136 35.9212 54.7136 35.4623V34.4724H56.0037V35.4623C56.0037 35.9212 56.2978 36.3285 56.7312 36.4677C56.9376 36.5347 57.1441 36.6223 57.3401 36.7203C57.753 36.9265 58.2432 36.8492 58.5683 36.5244L59.27 35.8232L60.1782 36.7306L59.4765 37.4318C59.1514 37.7566 59.074 38.2516 59.2804 38.6589C59.3784 38.8548 59.4661 39.061 59.5332 39.2672C59.6777 39.7055 60.0802 39.9942 60.5395 39.9942H61.5302V41.278H61.5405ZM50.8332 32.7916C52.9849 32.7916 54.7342 31.0438 54.7342 28.8939C54.7342 26.7439 52.9849 24.9961 50.8332 24.9961C48.6814 24.9961 46.9321 26.7439 46.9321 28.8939C46.9269 31.0438 48.6814 32.7916 50.8332 32.7916ZM50.8332 26.1871C52.3244 26.1871 53.5371 27.3987 53.5371 28.8887C53.5371 30.3787 52.3244 31.5903 50.8332 31.5903C49.3419 31.5903 48.1292 30.3787 48.1292 28.8887C48.1292 27.3987 49.3367 26.1871 50.8332 26.1871ZM59.8944 32.7916C62.0462 32.7916 63.7955 31.0438 63.7955 28.8939C63.7955 26.7439 62.0462 24.9961 59.8944 24.9961C57.7426 24.9961 55.9933 26.7439 55.9933 28.8939C55.9933 31.0438 57.7426 32.7916 59.8944 32.7916ZM59.8944 26.1871C61.3857 26.1871 62.5984 27.3987 62.5984 28.8887C62.5984 30.3787 61.3857 31.5903 59.8944 31.5903C58.4031 31.5903 57.1905 30.3787 57.1905 28.8887C57.1905 27.3987 58.4031 26.1871 59.8944 26.1871ZM58.1142 29.1929C57.882 28.9609 57.882 28.5794 58.1142 28.3474C58.3464 28.1154 58.7282 28.1154 58.9604 28.3474L59.5229 28.9093L60.8284 27.6049C61.0606 27.3729 61.4425 27.3729 61.6747 27.6049C61.9069 27.8369 61.9069 28.2185 61.6747 28.4505L59.946 30.1777C59.8325 30.2911 59.6829 30.353 59.5229 30.353C59.3629 30.353 59.2133 30.2911 59.0998 30.1777L58.1142 29.1929ZM49.3883 29.4868L49.9869 28.8887L49.3883 28.2907C49.1561 28.0586 49.1561 27.6771 49.3883 27.4451C49.6205 27.2131 50.0024 27.2131 50.2346 27.4451L50.8332 28.0483L51.4317 27.4503C51.6639 27.2183 52.0458 27.2183 52.278 27.4503C52.5102 27.6823 52.5102 28.0638 52.278 28.2958L51.6794 28.8939L52.278 29.4919C52.5102 29.724 52.5102 30.1055 52.278 30.3375C52.1593 30.4561 52.0097 30.5128 51.8549 30.5128C51.7001 30.5128 51.5504 30.4561 51.4317 30.3375L50.8332 29.7394L50.2346 30.3375C50.1159 30.4561 49.9662 30.5128 49.8114 30.5128C49.6566 30.5128 49.507 30.4561 49.3883 30.3375C49.1561 30.1003 49.1561 29.724 49.3883 29.4868Z" fill="#703391" stroke="#703391" stroke-width="0.5"/>
</svg>
