<svg width="56" height="56" viewBox="0 0 56 56" fill="none" xmlns="http://www.w3.org/2000/svg">
<path fill-rule="evenodd" clip-rule="evenodd" d="M45.5434 50.2767H10.4566C10.0482 50.2786 9.65711 50.4417 9.36833 50.7306C9.07956 51.0195 8.91649 51.4107 8.9146 51.8193V53.3619H47.0854V51.8193C47.0835 51.4107 46.9204 51.0195 46.6317 50.7306C46.3429 50.4417 45.9518 50.2786 45.5434 50.2767ZM21.418 48.6398H34.582L32.3386 44.7862H23.6608L21.418 48.6398ZM23.698 36.561L25.1488 35.1426L24.1 34.0688C23.9685 33.9348 23.8872 33.7596 23.8697 33.5727C23.8522 33.3857 23.8997 33.1984 24.004 33.0424C24.5722 32.195 24.9751 31.2478 25.1914 30.2506C25.231 30.0675 25.3324 29.9036 25.4786 29.7865C25.6248 29.6694 25.8069 29.6063 25.9942 29.6078L27.5002 29.6234L27.5212 27.5921L26.08 27.5795C25.8814 27.5927 25.6848 27.5328 25.5272 27.4113C25.3695 27.2897 25.2617 27.1148 25.2238 26.9193C25.0288 25.9178 24.6454 24.9624 24.094 24.1041C23.9934 23.9466 23.9498 23.7593 23.9707 23.5736C23.9915 23.3878 24.0755 23.2149 24.2086 23.0837L25.2826 22.0315L23.863 20.5819L22.7914 21.6317C22.6575 21.7632 22.4823 21.8446 22.2955 21.8621C22.1086 21.8796 21.9214 21.8321 21.7654 21.7277C20.9182 21.1592 19.9712 20.7561 18.9742 20.5398C18.7911 20.5002 18.6273 20.3988 18.5103 20.2525C18.3932 20.1062 18.3301 19.9241 18.3316 19.7367L18.3472 18.2301L16.3168 18.2091L16.3018 19.6497C16.3149 19.8484 16.2551 20.045 16.1336 20.2027C16.0121 20.3604 15.8372 20.4684 15.6418 20.5062C14.6408 20.7016 13.6859 21.0851 12.8278 21.6365C12.6704 21.7373 12.4832 21.7809 12.2975 21.76C12.1118 21.7392 11.9389 21.6551 11.8078 21.5218L10.756 20.4474L9.3064 21.8682L10.36 22.9336C10.4915 23.0676 10.5728 23.2428 10.5903 23.4298C10.6078 23.6167 10.5603 23.804 10.456 23.96C9.88754 24.8075 9.48464 25.755 9.2686 26.7524C9.2289 26.9356 9.12735 27.0995 8.98103 27.2166C8.83472 27.3337 8.65256 27.3968 8.4652 27.3953L6.9598 27.3797L6.9388 29.4109L8.3788 29.4259C8.57741 29.4128 8.77399 29.4726 8.93163 29.5942C9.08927 29.7157 9.19715 29.8907 9.235 30.0862C9.42874 31.0869 9.81049 32.0418 10.36 32.9001C10.4604 33.0577 10.5038 33.2449 10.483 33.4306C10.4621 33.6163 10.3783 33.7892 10.2454 33.9205L9.1714 34.9728L10.591 36.423L11.6626 35.3725C11.7966 35.241 11.9717 35.1597 12.1586 35.1423C12.3455 35.1249 12.5327 35.1725 12.6886 35.2771C13.5356 35.8453 14.4825 36.2482 15.4792 36.4644C15.6627 36.5047 15.8267 36.6072 15.9435 36.7545C16.0602 36.9018 16.1226 37.0849 16.12 37.2729L16.1044 38.7789L18.1348 38.7999L18.1498 37.3594C18.1366 37.1606 18.1964 36.9639 18.3179 36.806C18.4395 36.6482 18.6143 36.5402 18.8098 36.5022C19.811 36.3074 20.766 35.9238 21.6238 35.3719C21.7813 35.2715 21.9684 35.228 22.1541 35.2489C22.3397 35.2698 22.5125 35.3537 22.6438 35.4866L23.6956 36.561H23.698ZM26.8732 35.7345L24.2584 38.2969C24.182 38.3722 24.0916 38.4316 23.9923 38.4718C23.893 38.512 23.7867 38.5323 23.6795 38.5314C23.5724 38.5305 23.4664 38.5085 23.3678 38.4666C23.2691 38.4247 23.1797 38.3638 23.1046 38.2873L21.9304 37.0868C21.2485 37.4603 20.5246 37.7512 19.774 37.9536L19.7566 39.6289C19.7555 39.8446 19.6689 40.0511 19.5158 40.203C19.3627 40.3549 19.1556 40.4399 18.94 40.4392L15.28 40.4014C15.173 40.4005 15.0672 40.3786 14.9687 40.3368C14.8702 40.2951 14.7808 40.2343 14.7058 40.158C14.6307 40.0817 14.5714 39.9913 14.5313 39.8921C14.4911 39.7929 14.4709 39.6867 14.4718 39.5797L14.4892 37.899C13.743 37.6815 13.0255 37.3754 12.352 36.9872L11.152 38.1601C10.9979 38.3115 10.7902 38.3956 10.5743 38.394C10.3583 38.3924 10.1518 38.3053 10 38.1517L7.4386 35.5358C7.2869 35.3815 7.20269 35.1731 7.20449 34.9567C7.20629 34.7402 7.29395 34.5333 7.4482 34.3815L8.6482 33.2068C8.27456 32.5248 7.98312 31.8009 7.78 31.0502L6.1054 31.0328C5.8893 31.0309 5.68277 30.9433 5.53114 30.7892C5.37951 30.6352 5.29516 30.4272 5.2966 30.211L5.335 26.5495C5.33579 26.4425 5.35764 26.3367 5.39932 26.2381C5.44101 26.1396 5.5017 26.0502 5.57792 25.9751C5.65415 25.9 5.74442 25.8407 5.84358 25.8005C5.94273 25.7603 6.04883 25.7401 6.1558 25.741L7.8358 25.7584C8.05204 25.0112 8.35701 24.2925 8.7442 23.6179L7.5718 22.4174C7.42024 22.263 7.33614 22.0547 7.33793 21.8383C7.33974 21.6219 7.4273 21.415 7.5814 21.2631L10.1962 18.7007C10.3506 18.5491 10.5588 18.4649 10.7751 18.4667C10.9914 18.4685 11.1982 18.5561 11.35 18.7103L12.5242 19.9108C13.2062 19.5388 13.9298 19.2491 14.68 19.0476L14.6968 17.3723C14.6977 17.2651 14.7197 17.1592 14.7615 17.0605C14.8034 16.9618 14.8643 16.8723 14.9407 16.7972C15.0172 16.7221 15.1077 16.6629 15.2071 16.6228C15.3065 16.5827 15.4128 16.5627 15.52 16.5638L19.18 16.6016C19.287 16.6025 19.3928 16.6244 19.4913 16.6662C19.5898 16.708 19.6792 16.7687 19.7542 16.845C19.8293 16.9213 19.8886 17.0117 19.9287 17.1109C19.9689 17.2101 19.9891 17.3163 19.9882 17.4234L19.9708 19.1041C20.7168 19.322 21.434 19.6283 22.1074 20.0164L23.3044 18.8435C23.4588 18.6919 23.667 18.6078 23.8833 18.6096C24.0996 18.6114 24.3064 18.699 24.4582 18.8532L27.0196 21.4696C27.1711 21.624 27.2552 21.8321 27.2534 22.0485C27.2516 22.2648 27.1641 22.4715 27.01 22.6233L25.81 23.7986C26.1842 24.4797 26.4762 25.2029 26.68 25.9529L28.3546 25.9703C28.4616 25.9711 28.5674 25.9929 28.666 26.0347C28.7646 26.0764 28.8539 26.1372 28.929 26.2135C29.0041 26.2898 29.0634 26.3802 29.1035 26.4795C29.1436 26.5787 29.1637 26.6849 29.1628 26.792L29.125 30.4535C29.1241 30.5609 29.1021 30.667 29.0601 30.7659C29.0182 30.8647 28.9571 30.9543 28.8805 31.0295C28.8038 31.1046 28.7131 31.1639 28.6135 31.204C28.5139 31.244 28.4073 31.2639 28.3 31.2626L26.62 31.2452C26.4023 31.9915 26.0963 32.709 25.7086 33.3827L26.881 34.5802C27.0326 34.7346 27.1167 34.9429 27.1149 35.1593C27.1131 35.3757 27.0255 35.5826 26.8714 35.7345H26.8732ZM20.26 25.5387C21.0444 26.3424 21.4777 27.4248 21.4647 28.548C21.4516 29.6712 20.9933 30.7433 20.1904 31.5286H20.1844C19.3772 32.2956 18.3006 32.7139 17.1875 32.6932C16.0745 32.6725 15.0142 32.2143 14.2361 31.4178C13.458 30.6213 13.0244 29.5504 13.0292 28.4367C13.0341 27.3229 13.4768 26.2558 14.2618 25.4661L14.2678 25.4625C15.071 24.6774 16.153 24.2436 17.2758 24.2565C18.3986 24.2695 19.4703 24.7281 20.2552 25.5315V25.5381L20.26 25.5387ZM21.415 24.3826L21.4186 24.3892C22.5075 25.5009 23.1108 26.9995 23.096 28.5559C23.0813 30.1123 22.4497 31.5992 21.34 32.69L21.3334 32.6936C20.2224 33.7841 18.7238 34.3884 17.1674 34.3735C15.611 34.3587 14.1242 33.7259 13.0342 32.6144C11.9442 31.5029 11.3401 30.0037 11.355 28.4467C11.3698 26.8896 12.0024 25.4023 13.1134 24.3118H13.12C14.231 23.2231 15.7284 22.6199 17.2835 22.6347C18.8385 22.6494 20.3242 23.2809 21.4144 24.3904L21.415 24.3826ZM45.9334 20.9786L47.3824 19.5596L46.3348 18.4918C46.2031 18.3579 46.1217 18.1827 46.1042 17.9957C46.0867 17.8087 46.1342 17.6214 46.2388 17.4654C46.8069 16.6182 47.2098 15.6712 47.4262 14.6742C47.4658 14.4909 47.5673 14.3269 47.7136 14.2097C47.8599 14.0925 48.0422 14.0293 48.2296 14.0308L49.735 14.0464L49.756 12.0187L48.316 12.0037C48.1173 12.0168 47.9208 11.9569 47.763 11.8354C47.6053 11.7138 47.4973 11.5389 47.4592 11.3435C47.2643 10.3429 46.8809 9.38851 46.3294 8.53131C46.229 8.37376 46.1856 8.18653 46.2064 8.00084C46.2273 7.81515 46.3111 7.64222 46.444 7.51089L47.5174 6.45986L46.1002 5.01026L45.0286 6.0595C44.8946 6.19103 44.7195 6.27234 44.5326 6.28972C44.3457 6.30711 44.1585 6.2595 44.0026 6.15494C43.1554 5.58716 42.2086 5.18455 41.212 4.96825C41.0288 4.92855 40.8649 4.82698 40.7478 4.68061C40.6306 4.53425 40.5674 4.35201 40.5688 4.16452L40.5844 2.6603L38.5546 2.63929L38.5402 4.07988C38.5531 4.27859 38.4932 4.4752 38.3717 4.63295C38.2503 4.7907 38.0755 4.89879 37.8802 4.93704C36.8792 5.1318 35.9243 5.51494 35.0662 6.0661C34.9088 6.16668 34.7216 6.21017 34.5359 6.18931C34.3503 6.16844 34.1774 6.08448 34.0462 5.95145L32.992 4.87641L31.5436 6.29479L32.5924 7.36563C32.7238 7.49953 32.8051 7.67464 32.8226 7.86148C32.8401 8.04832 32.7927 8.23548 32.6884 8.39145C32.1202 9.23796 31.7173 10.1844 31.501 11.1808C31.4614 11.3639 31.36 11.5278 31.2138 11.6449C31.0676 11.762 30.8855 11.8251 30.6982 11.8237L29.1922 11.8081L29.1694 13.8339L30.6094 13.8489C30.808 13.8358 31.0046 13.8956 31.1622 14.0172C31.3199 14.1387 31.4277 14.3137 31.4656 14.5092C31.6607 15.5099 32.0441 16.4644 32.5954 17.3219C32.6958 17.4795 32.7392 17.6667 32.7184 17.8524C32.6975 18.0381 32.6137 18.211 32.4808 18.3423L31.4068 19.3934L32.8264 20.8418L33.898 19.7925C34.0318 19.6611 34.2069 19.5797 34.3936 19.5622C34.5804 19.5447 34.7675 19.5922 34.9234 19.6965C35.7708 20.2643 36.7178 20.667 37.7146 20.8832C37.8978 20.9227 38.0617 21.0241 38.1789 21.1704C38.2961 21.3167 38.3592 21.4989 38.3578 21.6863L38.3422 23.1977L40.372 23.2187L40.387 21.7782C40.374 21.5795 40.4339 21.3829 40.5554 21.2252C40.6768 21.0675 40.8517 20.9596 41.047 20.9216C42.0479 20.7264 43.0028 20.343 43.861 19.7919C44.0185 19.6915 44.2056 19.648 44.3913 19.6689C44.5769 19.6898 44.7497 19.7737 44.881 19.9066L45.9328 20.9804L45.9334 20.9786ZM30.7534 4.78157L32.4334 3.1381C32.588 2.98708 32.796 2.90349 33.0121 2.90563C33.2281 2.90777 33.4345 2.99546 33.586 3.1495L34.7602 4.34999C35.442 3.97654 36.1657 3.68519 36.916 3.48204L36.9334 1.80915C36.9353 1.59296 37.0229 1.38635 37.1768 1.23465C37.3308 1.08296 37.5387 0.998579 37.7548 1.00002L41.4148 1.03843C41.5218 1.03914 41.6277 1.06095 41.7262 1.10261C41.8248 1.14428 41.9143 1.20498 41.9894 1.28124C42.0645 1.35751 42.1239 1.44785 42.164 1.54708C42.2042 1.64632 42.2245 1.7525 42.2236 1.85957L42.2062 3.53666C42.9522 3.75454 43.6696 4.06042 44.3434 4.44783L45.5404 3.27615C45.6947 3.12457 45.9028 3.04044 46.119 3.04224C46.3352 3.04404 46.5419 3.13163 46.6936 3.28576L48.1618 4.78637H51.3838C52.3419 4.7878 53.2604 5.16899 53.9382 5.84648C54.616 6.52397 54.9978 7.44255 55 8.40106V41.1703C54.9992 42.129 54.618 43.0482 53.9402 43.7258C53.2623 44.4035 52.3433 44.7842 51.385 44.7844H34.225L36.4684 48.6386H45.5434C46.3864 48.64 47.1944 48.9756 47.7904 49.5719C48.3865 50.1683 48.722 50.9766 48.7234 51.8199V54.1813C48.7234 54.3984 48.6372 54.6067 48.4837 54.7602C48.3302 54.9137 48.1221 55 47.905 55H8.0968C7.87975 55 7.67158 54.9137 7.5181 54.7602C7.36462 54.6067 7.2784 54.3984 7.2784 54.1813V51.8193C7.27983 50.976 7.61532 50.1677 8.21138 49.5714C8.80743 48.975 9.61545 48.6394 10.4584 48.638H19.5292L21.772 44.785H4.6162V44.7886C3.65785 44.7877 2.73907 44.4062 2.0617 43.728C1.38433 43.0497 1.00376 42.1303 1.0036 41.1715H1V8.39806C1.00159 7.43923 1.38302 6.52014 2.06074 5.84214C2.73845 5.16415 3.65717 4.78256 4.6156 4.78097L30.7534 4.78157ZM49.1098 20.1539C49.2635 20.0023 49.351 19.796 49.3529 19.5801C49.3548 19.3641 49.271 19.1563 49.12 19.002L47.9482 17.8057C48.3358 17.1329 48.6416 16.4161 48.859 15.6706L50.539 15.6881C50.7552 15.6896 50.9631 15.6053 51.1171 15.4536C51.2712 15.3019 51.3587 15.0952 51.3604 14.8789L51.3982 11.2204C51.3998 11.0042 51.3155 10.7961 51.1638 10.642C51.0122 10.488 50.8056 10.4004 50.5894 10.3987L48.9148 10.3813C48.7124 9.63143 48.4218 8.90827 48.049 8.22699L49.249 7.0541C49.332 6.97202 49.3964 6.87304 49.4378 6.76389C49.4792 6.65473 49.4967 6.53795 49.489 6.42144H51.385C51.9098 6.42255 52.4128 6.6316 52.7838 7.00284C53.1549 7.37407 53.3639 7.87726 53.365 8.40226V41.1703C53.3625 41.6949 53.1531 42.1973 52.7823 42.5682C52.4115 42.9391 51.9094 43.1486 51.385 43.1511L4.6168 43.1553V43.1517C4.09245 43.1492 3.59029 42.9397 3.21952 42.5688C2.84874 42.1978 2.63932 41.6955 2.6368 41.1709V8.39746C2.63791 7.87245 2.84687 7.36927 3.21795 6.99804C3.58904 6.6268 4.09201 6.41775 4.6168 6.41664H29.5852C29.6129 6.58063 29.6907 6.73201 29.8078 6.85002L30.9796 8.04631C30.5919 8.71907 30.2861 9.43587 30.0688 10.1814L28.3888 10.1646C28.2818 10.1637 28.1757 10.1839 28.0765 10.2241C27.9773 10.2643 27.887 10.3236 27.8107 10.3987C27.7344 10.4737 27.6737 10.5631 27.6319 10.6617C27.5902 10.7602 27.5683 10.8661 27.5674 10.9731L27.5296 14.6316C27.5287 14.7387 27.549 14.8449 27.5891 14.9442C27.6293 15.0435 27.6887 15.1338 27.7638 15.2102C27.8389 15.2865 27.9283 15.3472 28.0269 15.389C28.1255 15.4307 28.2313 15.4526 28.3384 15.4534L30.013 15.4708C30.2154 16.2223 30.5064 16.9471 30.88 17.6298L29.68 18.8033C29.5259 18.9552 29.4383 19.1621 29.4365 19.3785C29.4347 19.5949 29.5188 19.8032 29.6704 19.9576L32.2318 22.5711C32.3835 22.7254 32.5903 22.8131 32.8067 22.8149C33.0231 22.8167 33.2313 22.7324 33.3856 22.5807L34.5826 21.409C35.2562 21.7968 35.9737 22.1027 36.7198 22.3202L36.7024 23.9973C36.7017 24.1044 36.7221 24.2106 36.7624 24.3098C36.8027 24.4091 36.8622 24.4994 36.9374 24.5757C37.0126 24.6519 37.1021 24.7126 37.2008 24.7542C37.2994 24.7959 37.4053 24.8177 37.5124 24.8184L41.1724 24.8562C41.3886 24.8578 41.5965 24.7735 41.7505 24.6218C41.9046 24.47 41.9921 24.2633 41.9938 24.0471L42.0112 22.3742C42.7614 22.1715 43.485 21.8808 44.167 21.508L45.3412 22.7085C45.4929 22.8628 45.6997 22.9505 45.9161 22.9523C46.1325 22.9541 46.3407 22.8699 46.495 22.7181L49.1098 20.1581V20.1539ZM42.4948 9.9695C43.0791 10.5689 43.4727 11.3281 43.626 12.1511C43.7793 12.9742 43.6854 13.8242 43.3561 14.5939C43.0269 15.3636 42.477 16.0185 41.7761 16.4758C41.0751 16.9331 40.2543 17.1724 39.4175 17.1635C38.5807 17.1545 37.7653 16.8977 37.0742 16.4255C36.3832 15.9533 35.8475 15.2868 35.5348 14.5102C35.2221 13.7336 35.1464 12.8818 35.3172 12.0622C35.4881 11.2426 35.8979 10.4921 36.4948 9.90528C36.892 9.5136 37.3628 9.20441 37.8799 8.99551C38.3971 8.78662 38.9505 8.68215 39.5082 8.68812C40.0659 8.69409 40.6169 8.81038 41.1295 9.0303C41.642 9.25021 42.1061 9.56941 42.4948 9.9695ZM43.6552 8.82183C44.4669 9.65104 45.0147 10.7024 45.2292 11.843C45.4438 12.9836 45.3155 14.1622 44.8606 15.2299C44.4056 16.2976 43.6445 17.2063 42.6734 17.8413C41.7023 18.4763 40.5648 18.809 39.4047 18.7973C38.2446 18.7857 37.114 18.4302 36.1558 17.7758C35.1977 17.1214 34.455 16.1975 34.0216 15.1209C33.5882 14.0443 33.4836 12.8634 33.721 11.7273C33.9584 10.5913 34.5272 9.55112 35.3554 8.7384C35.9055 8.19797 36.5567 7.77137 37.2717 7.48302C37.9868 7.19468 38.7517 7.05025 39.5226 7.058C40.2935 7.06575 41.0554 7.22553 41.7645 7.52819C42.4736 7.83085 43.1161 8.27045 43.6552 8.82183ZM50.14 23.8484C48.2557 25.6915 45.927 27.0157 43.3801 27.6925C40.8331 28.3693 38.1545 28.3757 35.6044 27.711L36.274 27.3658C36.4664 27.2667 36.6115 27.0951 36.6775 26.8889C36.7434 26.6826 36.7247 26.4587 36.6256 26.2662C36.5265 26.0737 36.355 25.9285 36.1488 25.8626C35.9427 25.7966 35.7188 25.8153 35.5264 25.9145L33.0778 27.175C32.8855 27.2744 32.7405 27.4461 32.6746 27.6524C32.6088 27.8587 32.6276 28.0827 32.7268 28.2752L33.9868 30.7242C34.0859 30.917 34.2574 31.0625 34.4637 31.1288C34.67 31.195 34.8942 31.1766 35.0869 31.0775C35.2796 30.9784 35.4251 30.8067 35.4913 30.6004C35.5575 30.394 35.5391 30.1697 35.44 29.9769L35.0698 29.2566C37.9068 30.0221 40.8944 30.0338 43.7374 29.2905C46.5803 28.5472 49.1802 27.0746 51.28 25.0183C51.3568 24.9434 51.4181 24.8541 51.4604 24.7555C51.5027 24.657 51.5251 24.551 51.5265 24.4437C51.5279 24.3365 51.5081 24.23 51.4683 24.1304C51.4286 24.0307 51.3696 23.9399 51.2947 23.8631C51.2198 23.7863 51.1306 23.725 51.0321 23.6827C50.9335 23.6404 50.8276 23.6179 50.7204 23.6165C50.6132 23.6151 50.5067 23.6349 50.4071 23.6747C50.3076 23.7145 50.2168 23.7735 50.14 23.8484ZM6.592 17.3099C8.47631 15.4667 10.8051 14.1423 13.3521 13.4654C15.8992 12.7885 18.5779 12.782 21.1282 13.4467L20.458 13.7925C20.3627 13.8416 20.2781 13.909 20.2089 13.9908C20.1396 14.0727 20.0872 14.1673 20.0545 14.2694C20.0219 14.3716 20.0097 14.4791 20.0186 14.5859C20.0275 14.6928 20.0573 14.7968 20.1064 14.8921C20.1555 14.9874 20.2229 15.0721 20.3047 15.1414C20.3865 15.2106 20.4811 15.2631 20.5832 15.2957C20.6853 15.3284 20.7928 15.3406 20.8995 15.3317C21.0063 15.3228 21.1103 15.293 21.2056 15.2439L23.6542 13.9834C23.8465 13.8841 23.9915 13.7125 24.0574 13.5063C24.1234 13.3001 24.1048 13.0762 24.0058 12.8837L22.7458 10.4341C22.6967 10.3388 22.6293 10.2541 22.5474 10.1849C22.4656 10.1156 22.3709 10.0632 22.2688 10.0306C22.1667 9.99793 22.0592 9.98573 21.9524 9.99467C21.8456 10.0036 21.7416 10.0335 21.6463 10.0826C21.551 10.1318 21.4664 10.1992 21.3972 10.2811C21.328 10.363 21.2756 10.4577 21.2429 10.5598C21.2103 10.662 21.1981 10.7695 21.2071 10.8764C21.216 10.9833 21.2459 11.0873 21.295 11.1826L21.6646 11.9029C18.8276 11.138 15.8402 11.1268 12.9975 11.8705C10.1548 12.6141 7.55525 14.0868 5.4556 16.143C5.37878 16.2179 5.31745 16.3072 5.27512 16.4058C5.23279 16.5044 5.21028 16.6104 5.20889 16.7177C5.2075 16.825 5.22724 16.9315 5.267 17.0311C5.30676 17.1308 5.36575 17.2217 5.4406 17.2985C5.51545 17.3754 5.60471 17.4367 5.70326 17.4791C5.80182 17.5214 5.90774 17.5439 6.01499 17.5453C6.12225 17.5467 6.22872 17.527 6.32834 17.4872C6.42796 17.4474 6.51878 17.3884 6.5956 17.3135L6.592 17.3099ZM39.1396 36.6259H49.69C49.9031 36.6201 50.1056 36.5313 50.2543 36.3785C50.403 36.2256 50.4862 36.0207 50.4862 35.8074C50.4862 35.5941 50.403 35.3892 50.2543 35.2364C50.1056 35.0835 49.9031 34.9948 49.69 34.989H39.1396C38.9265 34.9948 38.724 35.0835 38.5753 35.2364C38.4266 35.3892 38.3434 35.5941 38.3434 35.8074C38.3434 36.0207 38.4266 36.2256 38.5753 36.3785C38.724 36.5313 38.9265 36.6201 39.1396 36.6259ZM36.2896 36.6259H37.0876C37.3007 36.6201 37.5032 36.5313 37.6519 36.3785C37.8006 36.2256 37.8838 36.0207 37.8838 35.8074C37.8838 35.5941 37.8006 35.3892 37.6519 35.2364C37.5032 35.0835 37.3007 34.9948 37.0876 34.989H36.2896C36.0765 34.9948 35.874 35.0835 35.7253 35.2364C35.5766 35.3892 35.4934 35.5941 35.4934 35.8074C35.4934 36.0207 35.5766 36.2256 35.7253 36.3785C35.874 36.5313 36.0765 36.6201 36.2896 36.6259ZM39.1396 40.2273H49.69C49.9031 40.2216 50.1056 40.1328 50.2543 39.9799C50.403 39.8271 50.4862 39.6222 50.4862 39.4089C50.4862 39.1956 50.403 38.9907 50.2543 38.8379C50.1056 38.685 49.9031 38.5962 49.69 38.5905H39.1396C38.9265 38.5962 38.724 38.685 38.5753 38.8379C38.4266 38.9907 38.3434 39.1956 38.3434 39.4089C38.3434 39.6222 38.4266 39.8271 38.5753 39.9799C38.724 40.1328 38.9265 40.2216 39.1396 40.2273ZM36.2896 40.2273H37.0876C37.3007 40.2216 37.5032 40.1328 37.6519 39.9799C37.8006 39.8271 37.8838 39.6222 37.8838 39.4089C37.8838 39.1956 37.8006 38.9907 37.6519 38.8379C37.5032 38.685 37.3007 38.5962 37.0876 38.5905H36.2896C36.0765 38.5962 35.874 38.685 35.7253 38.8379C35.5766 38.9907 35.4934 39.1956 35.4934 39.4089C35.4934 39.6222 35.5766 39.8271 35.7253 39.9799C35.874 40.1328 36.0765 40.2216 36.2896 40.2273Z" fill="#703391" stroke="#703391" stroke-width="0.7"/>
</svg>
