<svg width="53" height="56" viewBox="0 0 53 56" fill="none" xmlns="http://www.w3.org/2000/svg">
<path d="M46.8372 9.18343H26.4015C26.0781 7.22021 24.5352 5.66499 22.5812 5.33964V1.76606C22.5812 1.45447 22.3949 1.17598 22.1099 1.05742C21.8249 0.938856 21.496 1.00778 21.2795 1.22838C19.2159 3.33504 15.1957 3.73486 11.3096 4.12642C8.73632 4.38285 6.30555 4.62826 4.42831 5.35622C2.15372 6.23859 1 7.78272 1 9.95002C1 11.8389 1.87148 13.2561 3.58974 14.1661C4.11317 14.4418 4.70234 14.6624 5.32175 14.8444V37.6864C5.32175 40.5458 7.63199 42.8703 10.4711 42.8703H24.3213V47.0147H19.9063C17.7167 47.0147 15.9382 48.807 15.9382 51.0073V54.2335C15.9382 54.6554 16.278 55 16.7 55H40.619C41.0383 55 41.3808 54.6581 41.3808 54.2335V51.0073C41.3808 48.8042 39.6022 47.0147 37.4154 47.0147H33.0005V42.8703H46.8479C49.6898 42.8703 52 40.5458 52 37.6864L51.9863 14.3672C51.9863 11.5078 49.6761 9.18331 46.8342 9.18331L46.8372 9.18343ZM22.5815 6.9003C23.938 7.24222 24.9438 8.48029 24.9438 9.94721C24.9438 11.4169 23.938 12.6522 22.5815 12.9941V6.9003ZM9.96179 5.8056C10.4414 5.75045 10.9401 5.69806 11.4608 5.64842C14.9549 5.29824 18.5501 4.93978 21.061 3.34877V16.5539C18.5534 14.9656 14.9634 14.6044 11.4748 14.2542C10.9542 14.2018 10.4554 14.1522 9.96214 14.0971L9.96179 5.8056ZM10.5921 15.7022L12.4446 22.6564H10.1618L8.23801 15.4294C8.52302 15.4681 8.80529 15.5039 9.08206 15.537C9.57534 15.5976 10.0851 15.65 10.5948 15.7024L10.5921 15.7022ZM2.51854 9.95031C2.51854 7.39971 4.69997 6.53112 8.44069 5.99894V13.9099C4.67528 13.386 2.51854 12.4953 2.51854 9.94749V9.95031ZM37.405 48.5428C38.7534 48.5428 39.8496 49.6485 39.8496 51.0052V53.4648H17.4515V51.0052C17.4515 49.6458 18.5505 48.5428 19.8988 48.5428H37.405ZM25.8377 47.0125V42.8681H31.4666V47.0125H25.8377ZM46.8354 41.335L10.4665 41.3377C8.67151 41.3377 7.17522 40.0169 6.89017 38.2881H50.4171C50.1293 40.0169 48.633 41.3377 46.838 41.3377L46.8354 41.335ZM50.4665 36.7549L6.83791 36.7577V16.0962L8.84121 23.6182C8.92891 23.9519 9.23036 24.1862 9.57568 24.1862H13.4343C13.6699 24.1862 13.8947 24.0759 14.0372 23.8857C14.1824 23.6982 14.229 23.4528 14.1687 23.2212L12.2093 15.8644C15.802 16.2366 19.3729 16.7274 21.2776 18.6714C21.4229 18.8203 21.6202 18.9003 21.8202 18.9003C21.9162 18.9003 22.0148 18.881 22.108 18.8424C22.393 18.7238 22.5794 18.4453 22.5794 18.1337V14.5574C24.5305 14.232 26.0762 12.6796 26.3996 10.7136H46.8353C48.8386 10.7136 50.4664 12.3515 50.4664 14.3671V36.7573L50.4665 36.7549ZM27.9479 25.1021H24.388C23.9687 25.1021 23.6262 25.444 23.6262 25.8686V32.5828C23.6262 33.0047 23.966 33.3494 24.388 33.3494H27.9479C28.3672 33.3494 28.7097 33.0074 28.7097 32.5828V25.8686C28.7097 25.4467 28.3699 25.1021 27.9479 25.1021ZM27.186 31.8163H25.1472V26.6324H27.186V31.8163ZM34.8513 19.9157H31.2914C30.8721 19.9157 30.5296 20.2576 30.5296 20.6822V32.5828C30.5296 33.0047 30.8694 33.3494 31.2914 33.3494H34.8513C35.2706 33.3494 35.6131 33.0074 35.6131 32.5828V20.6822C35.6131 20.2603 35.2733 19.9157 34.8513 19.9157ZM34.0895 31.8163H32.0506V21.446H34.0895V31.8163ZM41.7547 25.1021H38.1948C37.7756 25.1021 37.433 25.444 37.433 25.8686V32.5828C37.433 33.0047 37.7728 33.3494 38.1948 33.3494H41.7547C42.174 33.3494 42.5165 33.0074 42.5165 32.5828V25.8686C42.5165 25.4467 42.1767 25.1021 41.7547 25.1021ZM40.9929 31.8163H38.954V26.6324H40.9929V31.8163ZM48.6581 21.5618H45.0983C44.679 21.5618 44.3364 21.9037 44.3364 22.3283V32.5828C44.3364 33.0047 44.6763 33.3494 45.0983 33.3494H48.6581C49.0774 33.3494 49.42 33.0074 49.42 32.5828V22.3283C49.42 21.9065 49.0801 21.5618 48.6581 21.5618ZM47.8963 31.8163H45.8574V23.0922H47.8963V31.8163ZM26.1641 24.115C27.4822 24.115 28.5537 23.0369 28.5537 21.7134C28.5537 21.4514 28.5099 21.1977 28.4331 20.9634L31.708 18.501C32.0944 18.7712 32.5631 18.9284 33.0673 18.9284C33.5715 18.9284 34.0374 18.7712 34.4238 18.501L37.7015 20.9634C37.6247 21.2005 37.5809 21.4514 37.5809 21.7134C37.5809 23.0369 38.6524 24.115 39.9705 24.115C41.286 24.115 42.3575 23.0369 42.3575 21.7134C42.3575 21.592 42.3492 21.4735 42.3301 21.3577L45.2021 19.8825C45.6323 20.3071 46.2243 20.5718 46.8738 20.5718C48.1892 20.5718 49.2607 19.4937 49.2607 18.1674C49.2607 16.8439 48.1892 15.7658 46.8738 15.7658C45.5556 15.7658 44.4841 16.8439 44.4841 18.1674C44.4841 18.2888 44.4923 18.4046 44.5088 18.5204L41.6367 19.9955C41.2065 19.5709 40.6173 19.309 39.9678 19.309C39.4635 19.309 38.9949 19.4661 38.6085 19.7363L35.3309 17.274C35.4076 17.0396 35.4515 16.7859 35.4515 16.5267C35.4515 15.2004 34.38 14.1223 33.0646 14.1223C31.7464 14.1223 30.6749 15.2004 30.6749 16.5267C30.6749 16.7887 30.716 17.0396 30.7955 17.274L27.5206 19.7363C27.1342 19.4661 26.6655 19.309 26.1613 19.309C24.8432 19.309 23.7717 20.3871 23.7717 21.7134C23.7717 23.0369 24.8432 24.115 26.1613 24.115L26.1641 24.115ZM46.8762 17.2988C47.3531 17.2988 47.7422 17.6903 47.7422 18.1701C47.7422 18.6527 47.3531 19.0442 46.8762 19.0442C46.3967 19.0442 46.0075 18.6527 46.0075 18.1701C46.0075 17.6904 46.3966 17.2988 46.8762 17.2988ZM39.973 20.8393C40.4499 20.8393 40.839 21.2308 40.839 21.7134C40.839 22.1932 40.4499 22.5847 39.973 22.5847C39.4934 22.5847 39.1043 22.1932 39.1043 21.7134C39.1043 21.2308 39.4934 20.8393 39.973 20.8393ZM33.0698 15.6526C33.5467 15.6526 33.9358 16.0441 33.9358 16.5267C33.9358 17.0065 33.5467 17.398 33.0698 17.398C32.5902 17.398 32.2011 17.0065 32.2011 16.5267C32.2011 16.0441 32.5902 15.6526 33.0698 15.6526ZM26.1666 20.8393C26.6462 20.8393 27.0353 21.2308 27.0353 21.7134C27.0353 22.1932 26.6462 22.5847 26.1666 22.5847C25.687 22.5847 25.2979 22.1932 25.2979 21.7134C25.2979 21.2308 25.687 20.8393 26.1666 20.8393ZM20.9734 32.5832C20.9734 33.0051 20.6336 33.3497 20.2116 33.3497H9.57315C9.15386 33.3497 8.81133 33.0078 8.81133 32.5832C8.81133 32.1613 9.15115 31.8167 9.57315 31.8167H20.2116C20.6309 31.8167 20.9734 32.1586 20.9734 32.5832ZM8.81399 29.2495C8.81399 28.8276 9.15382 28.4829 9.57582 28.4829H15.5309C15.9502 28.4829 16.2927 28.8249 16.2927 29.2495C16.2927 29.6714 15.9529 30.016 15.5309 30.016H9.57582C9.15652 30.016 8.81399 29.6741 8.81399 29.2495Z" fill="#703391" stroke="#703391" stroke-width="0.7"/>
</svg>
