<svg width="56" height="56" viewBox="0 0 56 56" fill="none" xmlns="http://www.w3.org/2000/svg">
<path d="M22.928 19.3193L21.0801 21.9017L25.1663 20.3474C25.7996 20.5148 26.4676 20.6105 27.1529 20.6105C31.0829 20.6105 34.2668 17.6853 34.2668 14.0748C34.2668 10.4642 31.0829 7.53906 27.1529 7.53906C23.2229 7.53906 20.0391 10.4642 20.0391 14.0748C20.0477 16.2188 21.1842 18.1237 22.928 19.3193ZM23.2577 16.9042L23.4659 15.8123H23.8216L24.0298 16.9042H23.2577ZM29.8336 15.9239C29.6341 16.0992 28.6625 16.8963 27.1616 16.8963C25.6608 16.8963 24.6891 16.0913 24.4896 15.9239V14.4653L27.0835 15.5732C27.1095 15.5812 27.1356 15.5891 27.1529 15.5891C27.179 15.5891 27.205 15.5891 27.231 15.5732L29.8336 14.4653V15.9239ZM27.1616 11.2373L31.8897 13.2458L27.1616 15.2544L23.8216 13.8277V15.6848H23.4659V13.6762L22.4422 13.2379L27.1616 11.2373Z" fill="#703391"/>
<path d="M12.3455 28.3246V31.712H19.6936V28.3246L20.6306 31.712H23.2853C23.2853 31.704 23.2853 31.704 23.2853 31.704C22.9643 30.7874 21.8278 25.782 21.2726 25.3197C20.7087 24.8574 20.1187 24.7219 19.5462 24.6183V21.2867C19.9105 21.1911 20.1795 20.8802 20.1795 20.5136V20.123C20.1795 19.7564 19.9105 19.4456 19.5462 19.3499V19.334C19.6416 17.9471 18.7567 16.6639 17.3513 16.1219C16.9349 15.9625 16.4924 15.8828 16.0326 15.8828C15.0783 15.8828 14.15 16.2574 13.482 16.903C12.8053 17.5566 12.4583 18.4413 12.519 19.326V19.3499C12.1547 19.4456 11.8857 19.7564 11.8857 20.123V20.5136C11.8857 20.8802 12.1547 21.1911 12.519 21.2867V24.6104C11.9378 24.714 11.3392 24.8495 10.7579 25.3197C10.194 25.782 9.06622 30.7954 8.75391 31.704V31.712H11.4086L12.3455 28.3246ZM16.05 25.3835C15.2345 25.3835 14.4884 25.0726 13.9505 24.5227C14.2108 24.3872 14.4276 24.2198 14.6185 24.0046C14.7486 23.8532 14.8701 23.6938 14.9742 23.5184C14.9742 23.5105 14.9829 23.5025 14.9829 23.4945C15.0436 23.375 15.1043 23.2474 15.1564 23.1199C15.434 23.2155 15.7203 23.2713 16.0326 23.2713C16.3276 23.2713 16.6052 23.2235 16.8741 23.1358C16.9435 23.3192 17.0303 23.4865 17.1344 23.6459C17.1431 23.6539 17.1431 23.6619 17.1431 23.6699C17.1431 23.6699 17.1517 23.6699 17.1517 23.6778C17.2385 23.7974 17.3166 23.909 17.412 24.0046C17.6202 24.2278 17.8544 24.4031 18.1234 24.5386C17.5855 25.0806 16.8394 25.3835 16.05 25.3835ZM18.1668 21.0237C18.1668 21.2708 18.1147 21.5179 18.0106 21.757C18.0106 21.7649 18.0019 21.7729 17.9933 21.7809C17.9759 21.8207 17.9586 21.8606 17.9412 21.8925C17.5855 21.9961 17.1604 22.0359 16.6833 22.0359C16.6139 21.9164 16.4751 21.8287 16.3015 21.8287H15.7897C15.5555 21.8287 15.3646 22.0041 15.3646 22.2193C15.3646 22.4345 15.5555 22.6098 15.7897 22.6098H16.3015C16.4924 22.6098 16.6572 22.4982 16.7093 22.3308C16.7093 22.3308 16.7093 22.3308 16.718 22.3308C17.0737 22.3308 17.4033 22.299 17.6983 22.2432C17.3079 22.6975 16.7006 22.9685 16.0413 22.9685C14.8701 22.9685 13.9158 22.0917 13.9158 21.0157V19.9636C14.1847 19.9397 14.445 19.876 14.7139 19.7883C14.7747 19.7724 14.8267 19.7484 14.8788 19.7245C15.5988 19.4217 16.2321 18.8717 16.7006 18.1464C16.8915 18.5688 17.1778 18.9275 17.5074 19.1586C17.707 19.3101 17.9325 19.4137 18.1668 19.4615V21.0237ZM13.7249 17.1023C14.3322 16.5125 15.1737 16.1697 16.0413 16.1697C16.4577 16.1697 16.8568 16.2494 17.2298 16.3929C17.8544 16.632 18.3576 17.0305 18.7046 17.5247C18.0627 16.8711 17.1084 16.4646 16.0413 16.4646H16.0326C14.9568 16.4726 13.9939 16.8871 13.3519 17.5486C13.456 17.3892 13.5861 17.2457 13.7249 17.1023Z" fill="#703391"/>
<path d="M53.9786 0H2.0127C0.902246 0 0 0.828918 0 1.83318V40.0431C0 41.0633 0.902246 41.8922 2.0127 41.8922H53.9873C55.0977 41.8922 56 41.0633 56 40.0431V1.83318C55.9913 0.828918 55.0977 0 53.9786 0ZM54.9242 36.7514H1.06708V5.11697H54.9242V36.7514Z" fill="#703391"/>
<path d="M44.7553 52.5711C39.4026 52.5711 34.8653 49.1837 33.7462 44.4493C33.6855 44.2739 33.6594 44.0747 33.6161 43.8754C33.5727 43.6363 33.3385 43.4609 33.0782 43.4609H22.8845C22.6243 43.4609 22.39 43.6363 22.3467 43.8754C22.3033 44.0747 22.2859 44.2659 22.2165 44.4493C21.1234 49.1279 16.5168 52.5711 11.2508 52.5711C10.9471 52.5711 10.7129 52.7863 10.7129 53.0652V55.5042C10.7129 55.7831 10.9471 55.9983 11.2508 55.9983H44.7467C45.0503 55.9983 45.2845 55.7831 45.2845 55.5042V53.0652C45.2845 52.7863 45.0503 52.5711 44.7553 52.5711Z" fill="#703391"/>
<path d="M51.2886 16.3555H35.8203V17.3518H51.2886V16.3555Z" fill="#703391"/>
<path d="M51.2886 19.0078H35.8203V20.0041H51.2886V19.0078Z" fill="#703391"/>
<path d="M51.2886 21.6719H35.8203V22.6682H51.2886V21.6719Z" fill="#703391"/>
<path d="M47.5669 24.3242H35.8203V25.3205H47.5669V24.3242Z" fill="#703391"/>
<path d="M47.5669 26.9805H35.8203V27.9768H47.5669V26.9805Z" fill="#703391"/>
<path d="M45.7797 29.6328H35.8203V30.6291H45.7797V29.6328Z" fill="#703391"/>
<path d="M5.89844 32.4805V35.8201L9.04762 34.1463L5.89844 32.4805Z" fill="#703391"/>
<path d="M50.0907 33.8516H9.59375V34.4493H50.0907V33.8516Z" fill="#703391"/>
</svg>
