<svg width="24" height="24" viewBox="0 0 24 24" fill="none" xmlns="http://www.w3.org/2000/svg">
<path d="M3 5.25V4.5C2.58579 4.5 2.25 4.83579 2.25 5.25H3ZM21 5.25H21.75C21.75 4.83579 21.4142 4.5 21 4.5V5.25ZM12 13.5L11.4932 14.0529C11.7799 14.3157 12.2201 14.3157 12.5068 14.0529L12 13.5ZM3 6H21V4.5H3V6ZM20.25 5.25V18H21.75V5.25H20.25ZM20.25 18V18L21.3107 19.0607C21.592 18.7794 21.75 18.3978 21.75 18H20.25ZM20.25 18V18V19.5C20.6478 19.5 21.0294 19.342 21.3107 19.0607L20.25 18ZM20.25 18H3.75V19.5H20.25V18ZM3.75 18L3.75 18L2.68934 19.0607C2.97065 19.342 3.35218 19.5 3.75 19.5V18ZM3.75 18L3.75 18H2.25C2.25 18.3978 2.40804 18.7794 2.68934 19.0607L3.75 18ZM3.75 18V5.25H2.25V18H3.75ZM20.4932 4.69713L11.4932 12.9471L12.5068 14.0529L21.5068 5.80287L20.4932 4.69713ZM12.5068 12.9471L3.50679 4.69713L2.49321 5.80287L11.4932 14.0529L12.5068 12.9471Z" fill="#55606A"/>
</svg>
