<svg width="54" height="54" viewBox="0 0 54 54" fill="none" xmlns="http://www.w3.org/2000/svg">
<path d="M12.8499 0.154982C13.3048 0.458507 13.6345 0.816984 13.882 1.3124C13.882 2.12465 13.882 2.93689 13.882 3.77375C15.9305 3.77375 17.979 3.77375 20.0895 3.77375C20.0895 3.00018 20.0895 2.22662 20.0895 1.42961C20.4389 0.730263 20.6373 0.4625 21.3046 0.111029C22.0026 -0.0885325 22.5341 0.00196055 23.1585 0.342239C23.5904 0.649525 23.7909 1.05564 23.9545 1.54682C23.9545 2.2817 23.9545 3.01659 23.9545 3.77375C25.9644 3.77375 27.9742 3.77375 30.0449 3.77375C30.0449 3.03886 30.0449 2.30397 30.0449 1.54682C30.4911 0.653771 30.6623 0.325066 31.5675 0.0231239C32.269 -0.0456974 32.7498 0.104504 33.3243 0.491952C34.2738 1.49084 33.91 2.16772 33.91 3.77375C35.9584 3.77375 38.0069 3.77375 40.1174 3.77375C40.1174 2.96151 40.1174 2.14926 40.1174 1.3124C40.8202 0.257538 40.8202 0.257538 41.5229 0.0231239C42.1807 -0.0200391 42.5977 -0.00214126 43.1626 0.374745C43.6317 0.850505 43.8808 1.20268 43.8768 1.87371C43.8764 1.98401 43.876 2.0943 43.8757 2.20794C43.8747 2.32337 43.8737 2.4388 43.8727 2.55773C43.8722 2.67406 43.8716 2.7904 43.8711 2.91026C43.8697 3.1981 43.8678 3.48592 43.8654 3.77375C43.9726 3.7713 44.0799 3.76884 44.1904 3.76631C44.5982 3.7582 45.0059 3.75239 45.4137 3.748C45.5884 3.74568 45.7631 3.74251 45.9377 3.73838C48.1757 3.68697 50.2733 4.15216 51.9477 5.74796C53.8718 7.83204 53.9908 10.2007 53.9852 12.8874C53.9859 13.1806 53.9867 13.4738 53.9876 13.7669C53.9895 14.4774 53.9898 15.1878 53.9892 15.8983C53.9887 16.4758 53.9888 17.0534 53.9895 17.6309C53.9896 17.7134 53.9896 17.7959 53.9897 17.8809C53.9899 18.0484 53.9901 18.216 53.9903 18.3836C53.9919 19.9511 53.9912 21.5186 53.9899 23.0861C53.9887 24.519 53.9903 25.9519 53.9931 27.3848C53.9959 28.8587 53.997 30.3326 53.9963 31.8065C53.9958 32.6329 53.9961 33.4594 53.9982 34.2859C54.0001 35.0623 53.9995 35.8388 53.9973 36.6152C53.9969 36.9001 53.9972 37.1849 53.9985 37.4697C54 37.8586 53.9987 38.2474 53.9966 38.6364C53.9977 38.7489 53.9988 38.8614 54 38.9774C53.9887 40.0085 53.6622 40.6764 52.9339 41.4066C52.827 41.5149 52.7202 41.6232 52.61 41.7347C52.4925 41.8514 52.3749 41.9681 52.2573 42.0848C52.1327 42.2102 52.0082 42.3356 51.8838 42.4611C51.5473 42.8 51.2093 43.1374 50.871 43.4744C50.5163 43.8282 50.1628 44.1831 49.8091 44.5378C49.2151 45.133 48.6202 45.7273 48.0247 46.3209C47.3371 47.0065 46.6512 47.6937 45.9662 48.3818C45.3769 48.9737 44.7867 49.5646 44.1957 50.1548C43.8432 50.5068 43.491 50.8591 43.1397 51.2123C42.8094 51.5442 42.4779 51.8749 42.1456 52.2048C42.0241 52.3258 41.903 52.4472 41.7823 52.569C41.617 52.7357 41.4501 52.9008 41.2832 53.0658C41.1904 53.1585 41.0976 53.2511 41.002 53.3466C40.2114 53.9818 39.5009 53.9893 38.5211 53.9838C38.3161 53.9848 38.3161 53.9848 38.107 53.9857C37.7292 53.9871 37.3515 53.9869 36.9737 53.9861C36.5656 53.9855 36.1575 53.987 35.7494 53.9882C34.9503 53.9902 34.1512 53.9903 33.352 53.9897C32.7019 53.9892 32.0517 53.9894 31.4015 53.99C31.3089 53.9901 31.2162 53.9902 31.1208 53.9903C30.9325 53.9905 30.7443 53.9906 30.5561 53.9908C28.7911 53.9924 27.0261 53.9918 25.261 53.9904C23.6495 53.9893 22.038 53.9908 20.4265 53.9936C18.7694 53.9965 17.1124 53.9976 15.4553 53.9968C14.526 53.9964 13.5967 53.9966 12.6673 53.9987C11.8756 54.0004 11.0838 54.0005 10.2921 53.9985C9.8888 53.9975 9.48557 53.9972 9.08231 53.999C6.46087 54.0083 4.05737 53.8757 2.05173 51.9642C0.526346 50.312 0.00515389 48.3293 0.016158 46.123C0.0155272 45.9689 0.0148965 45.8148 0.0142466 45.6561C0.0125682 45.2328 0.0130466 44.8096 0.0139151 44.3863C0.0144727 43.9281 0.0130008 43.4699 0.0118045 43.0117C0.00979727 42.1157 0.00969184 41.2197 0.0103069 40.3238C0.0107815 39.595 0.0106099 38.8662 0.0099852 38.1374C0.00989754 38.0334 0.00980922 37.9294 0.00971891 37.8222C0.00953953 37.6109 0.00936015 37.3996 0.00917919 37.1883C0.00757378 35.2095 0.00820663 33.2308 0.00955181 31.252C0.0107147 29.445 0.0092001 27.6379 0.0063975 25.8309C0.00353612 23.9718 0.00241614 22.1128 0.00319404 20.2537C0.00360205 19.2114 0.00334834 18.1691 0.00129073 17.1269C-0.000439376 16.2395 -0.000499912 15.3522 0.00153378 14.4649C0.00252604 14.0129 0.00279301 13.5609 0.0009887 13.109C-0.00906813 10.3902 0.0434366 7.85732 2.03435 5.76536C3.83278 4.10256 5.93513 3.71069 8.29674 3.75178C8.476 3.75354 8.65527 3.75515 8.83454 3.75658C9.26776 3.7604 9.70092 3.76644 10.1341 3.77375C10.1304 3.66743 10.1304 3.66743 10.1267 3.55897C10.1169 3.23501 10.1108 2.91108 10.1048 2.58703C10.1009 2.47553 10.097 2.36402 10.0929 2.24914C10.0834 1.55971 10.1313 1.15126 10.6026 0.609159C11.2839 -0.00615933 11.9836 -0.150966 12.8499 0.154982ZM4.74646 8.57924C3.29723 10.5664 3.9266 12.2573 3.9266 15.0256C19.1549 15.0256 34.3831 15.0256 50.0728 15.0256C50.3813 11.7466 50.3813 11.7466 49.3294 8.65387C48.5222 7.85377 47.6562 7.62544 46.5532 7.63014C46.4375 7.63039 46.4375 7.63039 46.3194 7.63064C46.0748 7.63129 45.8302 7.63276 45.5856 7.63426C45.419 7.63485 45.2524 7.63538 45.0858 7.63586C44.679 7.63715 44.2722 7.63917 43.8654 7.64159C43.8637 7.75323 43.8637 7.75323 43.862 7.86713C43.8557 8.20715 43.8459 8.54698 43.8361 8.88691C43.8344 9.004 43.8328 9.1211 43.831 9.24174C43.8076 9.95099 43.754 10.384 43.2797 10.9234C42.6981 11.3392 42.0969 11.3735 41.4058 11.275C40.8003 11.0647 40.5715 10.782 40.2346 10.2201C40.1959 9.36922 40.1573 8.51829 40.1174 7.64159C38.069 7.64159 36.0205 7.64159 33.91 7.64159C33.8713 8.45383 33.8326 9.26608 33.7928 10.1029C33.1966 10.998 33.1966 10.998 32.6216 11.275C31.9318 11.3751 31.3278 11.3381 30.7476 10.9234C29.9053 9.82981 30.1303 9.26435 30.0449 7.64159C28.0351 7.64159 26.0253 7.64159 23.9545 7.64159C23.9159 8.37647 23.8772 9.11136 23.8374 9.86852C23.3039 10.9364 23.3039 10.9364 22.9004 11.1578C22.2466 11.3759 21.6061 11.385 20.9826 11.0845C20.6751 10.8062 20.6751 10.8062 20.2066 10.1029C20.168 9.29069 20.1293 8.47844 20.0895 7.64159C18.041 7.64159 15.9926 7.64159 13.882 7.64159C13.8434 8.49251 13.8047 9.34343 13.7649 10.2201C13.196 11.0741 13.196 11.0741 12.5937 11.275C11.7942 11.3821 11.2482 11.2941 10.6026 10.8062C10.1279 10.2479 10.1863 9.59109 10.1707 8.89424C10.1667 8.7739 10.1627 8.65355 10.1586 8.52957C10.1489 8.23359 10.1408 7.93764 10.1341 7.64159C9.653 7.63281 9.17195 7.62647 8.69079 7.62227C8.52757 7.62052 8.36435 7.61813 8.20115 7.61506C6.93919 7.59195 5.68838 7.62764 4.74646 8.57924ZM3.9266 18.8935C3.91936 23.5711 3.91211 28.2488 3.90464 33.0682C3.90145 34.5455 3.89825 36.0228 3.89495 37.5449C3.89378 38.8685 3.89378 38.8685 3.89307 40.192C3.89274 40.7818 3.89142 41.3716 3.88951 41.9614C3.8871 42.7139 3.88638 43.4663 3.88687 44.2188C3.88677 44.4949 3.88607 44.7709 3.88472 45.047C3.88297 45.4202 3.88339 45.7934 3.88435 46.1667C3.88333 46.2744 3.8823 46.3821 3.88125 46.4931C3.88823 47.504 4.12427 48.5173 4.86358 49.2501C5.60818 49.7939 6.24797 50.0854 7.17537 50.085C7.28425 50.0852 7.39312 50.0854 7.50529 50.0857C7.6239 50.0853 7.7425 50.085 7.8647 50.0847C8.05485 50.0848 8.05485 50.0848 8.24884 50.085C8.67432 50.0851 9.0998 50.0845 9.52529 50.0839C9.83001 50.0838 10.1347 50.0839 10.4394 50.0839C11.0958 50.084 11.7523 50.0836 12.4087 50.083C13.3577 50.082 14.3068 50.0817 15.2558 50.0815C16.7956 50.0813 18.3354 50.0805 19.8752 50.0794C21.3709 50.0783 22.8666 50.0775 24.3623 50.077C24.5006 50.077 24.5006 50.077 24.6417 50.0769C25.1043 50.0767 25.5669 50.0766 26.0294 50.0765C29.8665 50.0752 33.7036 50.0732 37.5407 50.0706C37.5412 49.9346 37.5416 49.7987 37.542 49.6586C37.5464 48.3756 37.5531 47.0926 37.5623 45.8096C37.5669 45.1501 37.5707 44.4906 37.5725 43.831C37.5743 43.1941 37.5783 42.5573 37.5839 41.9205C37.5856 41.6779 37.5865 41.4352 37.5866 41.1926C37.5869 40.852 37.5901 40.5115 37.5939 40.1709C37.5933 40.0713 37.5928 39.9716 37.5921 39.8689C37.6036 39.2063 37.7289 38.6584 38.1264 38.1154C38.7603 37.6306 39.4047 37.578 40.1803 37.5826C40.2896 37.5814 40.3988 37.5802 40.5114 37.5789C40.862 37.5755 41.2125 37.5753 41.5632 37.5752C41.7808 37.5735 41.9985 37.5717 42.2162 37.5696C43.0196 37.5635 43.8232 37.5613 44.6267 37.5587C47.3225 37.5442 47.3225 37.5442 50.0728 37.5294C50.0728 31.3795 50.0728 25.2297 50.0728 18.8935C34.8446 18.8935 19.6163 18.8935 3.9266 18.8935ZM41.4058 41.3972C41.4058 43.3312 41.4058 45.2651 41.4058 47.2576C41.8855 46.8461 42.3381 46.4565 42.781 46.0137C42.8818 45.9132 42.9826 45.8128 43.0864 45.7093C43.1923 45.603 43.2983 45.4968 43.4074 45.3873C43.5191 45.2756 43.6309 45.1639 43.7426 45.0522C43.975 44.8198 44.2072 44.5872 44.4392 44.3545C44.7372 44.0556 45.0358 43.7572 45.3344 43.459C45.5644 43.2293 45.7942 42.9992 46.0238 42.7691C46.1874 42.6053 46.3512 42.4417 46.5151 42.2781C46.6133 42.1795 46.7114 42.0808 46.8126 41.9792C46.8996 41.8921 46.9866 41.8049 47.0762 41.7151C47.2752 41.5457 47.2752 41.5457 47.2619 41.3972C45.3294 41.3972 43.3969 41.3972 41.4058 41.3972Z" fill="#703391"/>
<path d="M35.3448 25.2368C35.8343 25.5708 36.1785 25.9378 36.3696 26.5114C36.3934 26.7518 36.3934 26.7518 36.3989 27.0169C36.4034 27.1467 36.4034 27.1467 36.408 27.2792C36.291 28.1535 35.6386 28.7001 35.0452 29.2906C34.946 29.3907 34.8467 29.4909 34.7444 29.594C34.4731 29.8674 34.2009 30.1399 33.9284 30.412C33.7004 30.6397 33.473 30.868 33.2457 31.0962C32.709 31.6349 32.1714 32.1727 31.6332 32.71C31.0791 33.2632 30.5264 33.8179 29.9745 34.3734C29.4995 34.8512 29.0237 35.3282 28.5472 35.8044C28.263 36.0884 27.9791 36.3727 27.6962 36.6579C27.3803 36.9758 27.0629 37.2921 26.7451 37.6082C26.6522 37.7022 26.5593 37.7963 26.4636 37.8932C25.8493 38.5 25.3663 38.8749 24.489 38.9866C23.364 38.8484 22.6893 38.0883 21.9283 37.3173C21.815 37.204 21.7017 37.0907 21.5882 36.9775C21.3519 36.7412 21.1165 36.5042 20.8816 36.2664C20.5816 35.9629 20.2798 35.6612 19.9774 35.3601C19.7436 35.1269 19.5106 34.8928 19.2778 34.6584C19.1133 34.493 18.9481 34.3281 18.7829 34.1633C18.6327 34.0108 18.6327 34.0108 18.4795 33.8552C18.3475 33.7223 18.3475 33.7223 18.213 33.5866C17.7498 33.0323 17.561 32.5323 17.5897 31.8219C17.6882 31.1605 17.9424 30.7412 18.4572 30.3206C19.0025 30.0572 19.6184 30.0309 20.2067 30.1448C20.8037 30.4954 21.2631 30.9367 21.7467 31.4286C21.8237 31.506 21.9007 31.5834 21.98 31.6631C22.224 31.9085 22.4671 32.1548 22.7102 32.4011C22.8762 32.5684 23.0423 32.7356 23.2084 32.9029C23.6139 33.3112 24.0187 33.7204 24.4231 34.1299C24.9996 33.6464 25.5405 33.1437 26.0686 32.6081C26.1466 32.5295 26.2246 32.4509 26.305 32.3699C26.4729 32.2006 26.6407 32.0312 26.8084 31.8617C27.0739 31.5934 27.3399 31.3255 27.6061 31.0578C28.3623 30.2972 29.118 29.536 29.8725 28.7736C30.3352 28.3062 30.7987 27.8397 31.2628 27.3737C31.4391 27.1962 31.6152 27.0184 31.7909 26.8404C32.0362 26.5918 32.2825 26.3444 32.5291 26.0972C32.6374 25.9867 32.6374 25.9867 32.7478 25.8739C33.5092 25.1155 34.3059 24.8769 35.3448 25.2368Z" fill="#703391"/>
</svg>
