<svg width="86" height="86" viewBox="0 0 86 86" fill="none" xmlns="http://www.w3.org/2000/svg">
<circle cx="43" cy="43" r="43" fill="#703391" fill-opacity="0.1"/>
<path d="M66.8988 44.3119C66.8614 44.0434 66.6683 43.8225 66.4078 43.7578L64.7676 43.3389C64.5764 42.6401 64.3009 41.968 63.9523 41.3358L64.8201 39.862C64.957 39.6278 64.942 39.3327 64.7789 39.1156C64.1735 38.3007 63.4593 37.5733 62.657 36.9564C62.4434 36.7907 62.1547 36.7755 61.9242 36.9145L60.4697 37.7961C59.8473 37.4438 59.1857 37.1658 58.4996 36.9678L58.0854 35.2998C58.0198 35.037 57.8042 34.839 57.5381 34.8028C56.5428 34.6657 55.5343 34.6657 54.539 34.8028C54.2728 34.839 54.0573 35.0351 53.9917 35.2998L53.5756 36.9697V36.9678C52.8914 37.1658 52.2316 37.4438 51.6093 37.7961L51.0994 37.4914V35.4978C51.0994 35.256 50.9701 35.0332 50.762 34.9152C50.554 34.7971 50.2991 34.8029 50.0966 34.9304C48.2672 36.0843 46.7021 37.1601 45.1259 38.255C44.9478 38.3788 44.8391 38.5863 44.8391 38.8053V55.9519H43.4108V40.603C43.4108 40.3631 43.2833 40.1403 43.0752 40.0222C42.8691 39.9042 42.616 39.9099 42.4136 40.0356C40.8615 40.9991 39.2139 41.9302 37.5157 42.8003C37.2946 42.9127 37.154 43.1431 37.1559 43.3945V55.9522H35.7257V44.7408C35.7257 44.5142 35.6113 44.3009 35.4239 44.1791C35.2346 44.0572 34.9984 44.0401 34.7941 44.1353C33.2364 44.8646 31.5851 45.5786 29.8852 46.2584C29.634 46.3574 29.4691 46.6049 29.4691 46.8772V55.9521H28.0408V47.9301C28.0389 47.713 27.9358 47.5112 27.7596 47.3855C27.5853 47.2618 27.3622 47.2313 27.1598 47.3037C25.6059 47.8749 23.9958 48.4252 22.2413 48.9907C21.9695 49.0783 21.784 49.3334 21.784 49.6248V55.9519H20.545C20.1832 55.9519 19.889 56.2508 19.889 56.6183V59.3336C19.889 59.7011 20.1832 60 20.545 60H52.3351C52.6968 60 52.9911 59.7011 52.9911 59.3336V56.6183C52.9911 56.2508 52.6968 55.9519 52.3351 55.9519H51.0998V54.183L51.6059 53.8745H51.6078C52.2283 54.2287 52.8899 54.5067 53.576 54.7028L53.9921 56.3727C54.0577 56.6373 54.2751 56.8354 54.5413 56.8696C55.5347 57.0086 56.5432 57.0086 57.5347 56.8696C57.8028 56.8354 58.0202 56.6373 58.0858 56.3727L58.5 54.7028C59.1879 54.5066 59.8496 54.2286 60.4719 53.8745L61.9246 54.7561C62.1533 54.8951 62.4438 54.8799 62.6575 54.7142C63.4578 54.0973 64.172 53.3737 64.7793 52.5587C64.9405 52.3436 64.9555 52.0484 64.8187 51.8162L63.9508 50.3405V50.3386C64.3013 49.7064 64.575 49.0362 64.768 48.3374L66.41 47.9147L66.4082 47.9166C66.6668 47.8499 66.8618 47.629 66.8974 47.3606C67.0342 46.3495 67.0342 45.3232 66.8974 44.3121L66.8988 44.3119ZM51.0993 43.7273C52.089 41.3396 54.597 39.9915 57.0974 40.5037C59.596 41.0159 61.3936 43.2475 61.3936 45.8388C61.3936 48.4284 59.596 50.66 57.0974 51.172C54.597 51.6843 52.0887 50.3362 51.0993 47.9484V43.7273ZM46.1525 39.1575C47.3259 38.3463 48.4993 37.5409 49.787 36.705V55.9515H46.1525V39.1575ZM38.4653 43.8035C39.71 43.158 40.9264 42.4782 42.0979 41.7813V55.9515H38.4653V43.8035ZM30.78 47.3318C32.0247 46.8272 33.2411 46.3074 34.4127 45.7762V55.9517H30.78V47.3318ZM23.0928 50.1137C24.3656 49.7005 25.5633 49.293 26.7255 48.8779V55.9518H23.0928V50.1137ZM51.6775 57.2846V58.6669H21.1994V57.2846H51.6775ZM65.6455 46.7356L64.0672 47.1412C63.8292 47.2022 63.6436 47.3926 63.5873 47.6363C63.398 48.4684 63.0738 49.2643 62.6276 49.9897C62.4983 50.2011 62.4964 50.4677 62.622 50.6828L63.458 52.1033C63.0794 52.566 62.6595 52.9906 62.2059 53.3753L60.8094 52.526C60.5976 52.3985 60.3352 52.4004 60.1253 52.5318C59.4111 52.9849 58.6295 53.3144 57.8104 53.5067C57.5704 53.5638 57.383 53.7523 57.323 53.9941L56.9219 55.5993C56.3333 55.6545 55.7392 55.6545 55.1506 55.5993L54.7532 53.9941C54.6932 53.7523 54.5039 53.5638 54.2659 53.5067C53.4449 53.3124 52.6633 52.983 51.9491 52.5318C51.7411 52.4004 51.4768 52.3985 51.2668 52.526L51.0981 52.6289V50.4011C52.9538 52.4689 55.8685 53.1658 58.4365 52.1548C61.0044 51.1456 62.6989 48.6341 62.6989 45.8369C62.6989 43.0398 61.0044 40.5281 58.4365 39.5191C55.8685 38.508 52.9537 39.2049 51.0981 41.2728V39.045L51.2668 39.1478V39.1459C51.4768 39.2735 51.7392 39.2716 51.9473 39.1402C52.6633 38.6908 53.4468 38.3614 54.2659 38.1653C54.5058 38.1082 54.6932 37.9196 54.7514 37.6778L55.1506 36.0746C55.7392 36.0212 56.3315 36.0212 56.9219 36.0746L57.323 37.6797H57.3212C57.3812 37.9216 57.5686 38.1082 57.8066 38.1653C58.6257 38.3614 59.4092 38.6908 60.1253 39.1402C60.3333 39.2716 60.5976 39.2735 60.8076 39.1459L62.2059 38.2967C62.6595 38.6813 63.0794 39.1078 63.458 39.5705L62.622 40.9948C62.4964 41.2081 62.5002 41.4765 62.6295 41.6879C63.0756 42.4115 63.3999 43.2074 63.5892 44.0395C63.6455 44.2813 63.831 44.4736 64.0691 44.5345L65.6474 44.9382C65.6736 45.2352 65.6867 45.5361 65.6867 45.8369C65.6886 46.1378 65.6736 46.4406 65.6474 46.7357L65.6455 46.7356ZM56.0374 50.0336C57.7076 50.0316 59.2127 49.0091 59.8519 47.4421C60.491 45.875 60.1386 44.0699 58.9559 42.8703C57.775 41.6707 55.9999 41.3109 54.4554 41.9601C52.9128 42.6094 51.9062 44.1404 51.9062 45.8369C51.91 48.1523 53.7563 50.0297 56.0374 50.0336ZM56.0374 42.9748C57.1771 42.9748 58.2042 43.6736 58.6391 44.7437C59.0759 45.8138 58.8341 47.0439 58.0281 47.8626C57.2221 48.6814 56.0094 48.9251 54.9578 48.4815C53.9044 48.0378 53.2184 46.9943 53.2184 45.8366C53.2221 44.2562 54.4817 42.9767 56.0374 42.9748ZM21.2689 48.0891C21.4957 48.0891 21.7207 48.0548 21.9362 47.9863C27.5274 46.2802 32.9651 44.0943 38.1911 41.4476C42.7872 39.1265 47.0832 36.2397 50.9859 32.8543L52.3242 34.2139C52.5004 34.3929 52.761 34.4557 52.9952 34.3757C53.2314 34.2958 53.402 34.0863 53.4376 33.8369L54.431 26.761C54.461 26.5535 54.3917 26.344 54.2455 26.1955C54.0993 26.047 53.8931 25.9765 53.6887 26.007L46.7232 27.0161C46.4777 27.0504 46.2715 27.2256 46.1928 27.4636C46.114 27.7035 46.1759 27.9682 46.3521 28.1472L47.7842 29.6019C44.2246 32.6485 40.3201 35.2534 36.1516 37.3573C31.1545 39.8859 25.9529 41.9766 20.6054 43.6064C19.5314 43.9358 18.8585 45.0135 19.0253 46.1407C19.1921 47.2661 20.148 48.0981 21.269 48.0905L21.2689 48.0891ZM20.9934 44.8807C26.4123 43.228 31.683 41.1087 36.7478 38.5477C41.2258 36.2895 45.4039 33.4617 49.1788 30.1334C49.3157 30.0115 49.3944 29.8382 49.4 29.6554C49.4056 29.4707 49.3363 29.2937 49.2088 29.1642L48.2079 28.1474L53.0064 27.4524L52.3222 32.3269L51.475 31.4663C51.2295 31.2168 50.834 31.2054 50.5734 31.4396C46.6409 34.9356 42.2792 37.8983 37.5968 40.2595C32.4384 42.8701 27.0684 45.0294 21.5482 46.7124C21.0534 46.8571 20.5361 46.5734 20.3861 46.0745C20.2343 45.5738 20.5042 45.0444 20.9934 44.8807Z" fill="#703391"/>
<path d="M56.0374 42.9767V42.9748M56.0374 42.9748C57.1771 42.9748 58.2042 43.6736 58.6391 44.7437C59.0759 45.8138 58.8341 47.0439 58.0281 47.8626C57.2221 48.6814 56.0094 48.9251 54.9578 48.4815C53.9044 48.0378 53.2184 46.9943 53.2184 45.8366C53.2221 44.2562 54.4817 42.9767 56.0374 42.9748ZM66.8988 44.3119C66.8614 44.0434 66.6683 43.8225 66.4078 43.7578L64.7676 43.3389C64.5764 42.6401 64.3009 41.968 63.9523 41.3358L64.8201 39.862C64.957 39.6278 64.942 39.3327 64.7789 39.1156C64.1735 38.3007 63.4593 37.5733 62.657 36.9564C62.4434 36.7907 62.1547 36.7755 61.9242 36.9145L60.4697 37.7961C59.8473 37.4438 59.1857 37.1658 58.4996 36.9678L58.0854 35.2998C58.0198 35.037 57.8042 34.839 57.5381 34.8028C56.5428 34.6657 55.5343 34.6657 54.539 34.8028C54.2728 34.839 54.0573 35.0351 53.9917 35.2998L53.5756 36.9697V36.9678C52.8914 37.1658 52.2316 37.4438 51.6093 37.7961L51.0994 37.4914V35.4978C51.0994 35.256 50.9701 35.0332 50.762 34.9152C50.554 34.7971 50.2991 34.8029 50.0966 34.9304C48.2672 36.0843 46.7021 37.1601 45.1259 38.255C44.9478 38.3788 44.8391 38.5863 44.8391 38.8053V55.9519H43.4108V40.603C43.4108 40.3631 43.2833 40.1403 43.0752 40.0222C42.8691 39.9042 42.616 39.9099 42.4136 40.0356C40.8615 40.9991 39.2139 41.9302 37.5157 42.8003C37.2946 42.9127 37.154 43.1431 37.1559 43.3945V55.9522H35.7257V44.7408C35.7257 44.5142 35.6113 44.3009 35.4239 44.1791C35.2346 44.0572 34.9984 44.0401 34.7941 44.1353C33.2364 44.8646 31.5851 45.5786 29.8852 46.2584C29.634 46.3574 29.4691 46.6049 29.4691 46.8772V55.9521H28.0408V47.9301C28.0389 47.713 27.9358 47.5112 27.7596 47.3855C27.5853 47.2618 27.3622 47.2313 27.1598 47.3037C25.6059 47.8749 23.9958 48.4252 22.2413 48.9907C21.9695 49.0783 21.784 49.3334 21.784 49.6248V55.9519H20.545C20.1832 55.9519 19.889 56.2508 19.889 56.6183V59.3336C19.889 59.7011 20.1832 60 20.545 60H52.3351C52.6968 60 52.9911 59.7011 52.9911 59.3336V56.6183C52.9911 56.2508 52.6968 55.9519 52.3351 55.9519H51.0998V54.183L51.6059 53.8745H51.6078C52.2283 54.2287 52.8899 54.5067 53.576 54.7028L53.9921 56.3727C54.0577 56.6373 54.2751 56.8354 54.5413 56.8696C55.5347 57.0086 56.5432 57.0086 57.5347 56.8696C57.8028 56.8354 58.0202 56.6373 58.0858 56.3727L58.5 54.7028C59.1879 54.5066 59.8496 54.2286 60.4719 53.8745L61.9246 54.7561C62.1533 54.8951 62.4438 54.8799 62.6575 54.7142C63.4578 54.0973 64.172 53.3737 64.7793 52.5587C64.9405 52.3436 64.9555 52.0484 64.8187 51.8162L63.9508 50.3405V50.3386C64.3013 49.7064 64.575 49.0362 64.768 48.3374L66.41 47.9147L66.4082 47.9166C66.6668 47.8499 66.8618 47.629 66.8974 47.3606C67.0342 46.3495 67.0342 45.3232 66.8974 44.3121L66.8988 44.3119ZM51.0993 43.7273C52.089 41.3396 54.597 39.9915 57.0974 40.5037C59.596 41.0159 61.3936 43.2475 61.3936 45.8388C61.3936 48.4284 59.596 50.66 57.0974 51.172C54.597 51.6843 52.0887 50.3362 51.0993 47.9484V43.7273ZM46.1525 39.1575C47.3259 38.3463 48.4993 37.5409 49.787 36.705V55.9515H46.1525V39.1575ZM38.4653 43.8035C39.71 43.158 40.9264 42.4782 42.0979 41.7813V55.9515H38.4653V43.8035ZM30.78 47.3318C32.0247 46.8272 33.2411 46.3074 34.4127 45.7762V55.9517H30.78V47.3318ZM23.0928 50.1137C24.3656 49.7005 25.5633 49.293 26.7255 48.8779V55.9518H23.0928V50.1137ZM51.6775 57.2846V58.6669H21.1994V57.2846H51.6775ZM65.6455 46.7356L64.0672 47.1412C63.8292 47.2022 63.6436 47.3926 63.5873 47.6363C63.398 48.4684 63.0738 49.2643 62.6276 49.9897C62.4983 50.2011 62.4964 50.4677 62.622 50.6828L63.458 52.1033C63.0794 52.566 62.6595 52.9906 62.2059 53.3753L60.8094 52.526C60.5976 52.3985 60.3352 52.4004 60.1253 52.5318C59.4111 52.9849 58.6295 53.3144 57.8104 53.5067C57.5705 53.5638 57.383 53.7523 57.323 53.9941L56.9219 55.5993C56.3333 55.6545 55.7392 55.6545 55.1506 55.5993L54.7532 53.9941C54.6932 53.7523 54.5039 53.5638 54.2659 53.5067C53.4449 53.3124 52.6633 52.983 51.9491 52.5318C51.7411 52.4004 51.4768 52.3985 51.2668 52.526L51.0981 52.6289V50.4011C52.9538 52.4689 55.8685 53.1658 58.4365 52.1548C61.0044 51.1456 62.6989 48.6341 62.6989 45.8369C62.6989 43.0398 61.0044 40.5281 58.4365 39.5191C55.8685 38.508 52.9537 39.2049 51.0981 41.2728V39.045L51.2668 39.1478V39.1459C51.4768 39.2735 51.7392 39.2716 51.9473 39.1402C52.6633 38.6908 53.4468 38.3614 54.2659 38.1653C54.5058 38.1082 54.6933 37.9196 54.7514 37.6778L55.1506 36.0746C55.7392 36.0212 56.3315 36.0212 56.9219 36.0746L57.323 37.6797H57.3212C57.3812 37.9216 57.5686 38.1082 57.8066 38.1653C58.6257 38.3614 59.4092 38.6908 60.1253 39.1402C60.3333 39.2716 60.5976 39.2735 60.8076 39.1459L62.2059 38.2967C62.6595 38.6813 63.0794 39.1078 63.458 39.5705L62.622 40.9948C62.4964 41.2081 62.5002 41.4765 62.6295 41.6879C63.0756 42.4115 63.3999 43.2074 63.5892 44.0395C63.6455 44.2813 63.831 44.4736 64.0691 44.5345L65.6474 44.9382C65.6736 45.2352 65.6867 45.5361 65.6867 45.8369C65.6886 46.1378 65.6736 46.4406 65.6474 46.7357L65.6455 46.7356ZM56.0374 50.0335C57.7076 50.0316 59.2127 49.0091 59.8519 47.4421C60.491 45.875 60.1386 44.0699 58.9559 42.8703C57.775 41.6707 55.9999 41.3109 54.4554 41.9601C52.9128 42.6094 51.9062 44.1404 51.9062 45.8369C51.91 48.1523 53.7563 50.0297 56.0374 50.0335ZM21.2689 48.0891C21.4957 48.0891 21.7207 48.0548 21.9362 47.9863C27.5274 46.2802 32.9651 44.0943 38.1911 41.4476C42.7872 39.1265 47.0832 36.2397 50.9859 32.8543L52.3242 34.2139C52.5004 34.3929 52.761 34.4557 52.9952 34.3757C53.2314 34.2958 53.402 34.0863 53.4376 33.8369L54.431 26.761C54.461 26.5535 54.3917 26.344 54.2455 26.1955C54.0993 26.047 53.8931 25.9765 53.6887 26.007L46.7232 27.0161C46.4777 27.0504 46.2715 27.2256 46.1928 27.4636C46.114 27.7035 46.1759 27.9682 46.3521 28.1472L47.7842 29.6019C44.2246 32.6485 40.3201 35.2534 36.1516 37.3573C31.1545 39.8859 25.9529 41.9766 20.6054 43.6064C19.5314 43.9358 18.8585 45.0135 19.0253 46.1407C19.1921 47.2661 20.148 48.0981 21.269 48.0905L21.2689 48.0891ZM20.9934 44.8807C26.4123 43.228 31.683 41.1087 36.7478 38.5477C41.2258 36.2895 45.4039 33.4617 49.1788 30.1334C49.3157 30.0115 49.3944 29.8382 49.4 29.6554C49.4056 29.4707 49.3363 29.2937 49.2088 29.1642L48.2079 28.1474L53.0064 27.4524L52.3222 32.3269L51.475 31.4663C51.2295 31.2168 50.834 31.2054 50.5734 31.4396C46.6409 34.9356 42.2792 37.8983 37.5968 40.2595C32.4384 42.8701 27.0684 45.0293 21.5482 46.7124C21.0534 46.8571 20.5361 46.5734 20.3861 46.0745C20.2343 45.5738 20.5042 45.0444 20.9934 44.8807Z" stroke="#703391" stroke-width="0.5"/>
</svg>
