<svg width="86" height="86" viewBox="0 0 86 86" fill="none" xmlns="http://www.w3.org/2000/svg">
<circle cx="43" cy="43" r="43" fill="#703391" fill-opacity="0.1"/>
<path d="M42.9786 64.5389C36.7702 64.5389 30.6271 62.2226 26.0023 57.767C18.5506 50.5875 16.845 39.3435 21.8579 30.4236C22.9494 28.4725 24.3442 26.6727 26.0023 25.0762C26.4485 24.6465 27.1712 24.6465 27.6172 25.0762C28.0632 25.506 28.0634 26.2022 27.6172 26.6318C26.1167 28.0772 24.8542 29.7051 23.8668 31.4693C19.3313 39.5411 20.8734 49.7152 27.6172 56.2114C34.6213 62.959 45.4739 64.2839 54.0141 59.433C54.5569 59.1236 55.2573 59.2983 55.5771 59.8218C55.8982 60.3446 55.7184 61.0194 55.1742 61.3281C51.3763 63.4869 47.1618 64.5389 42.9786 64.5389Z" fill="#703391" stroke="#703391"/>
<path d="M59.1323 58.0884C58.8393 58.0884 58.5479 57.981 58.3248 57.7661C57.8786 57.3364 57.8786 56.6402 58.3248 56.2106C59.8386 54.753 61.11 53.1007 62.1064 51.3C66.6643 43.1122 65.1429 33.1996 58.3248 26.631C51.3267 19.8912 40.4904 18.554 31.9741 23.3878C31.4253 23.6944 30.7295 23.5203 30.4098 22.9975C30.09 22.474 30.2716 21.8 30.8143 21.4912C40.2302 16.1525 52.2056 17.6251 59.9398 25.0753C67.4762 32.3342 69.1566 43.2904 64.1214 52.337C63.0196 54.3273 61.6127 56.1544 59.9398 57.766C59.7167 57.9809 59.4253 58.0884 59.1323 58.0884Z" fill="#703391" stroke="#703391"/>
<path d="M59.1298 58.0892C58.5557 58.0892 58.0621 57.6738 57.9967 57.1115L57.4837 52.6909C57.4138 52.0872 57.8644 51.5428 58.4919 51.4755C59.115 51.4089 59.683 51.8415 59.7529 52.446L60.1395 55.7736L63.5941 55.4019C64.2126 55.3346 64.7852 55.7686 64.8551 56.3724C64.9249 56.9761 64.4744 57.5205 63.8468 57.5878L59.2577 58.082C59.2146 58.087 59.1729 58.0892 59.1298 58.0892Z" fill="#703391" stroke="#703391"/>
<path d="M27.2439 31.3831C26.6625 31.3831 26.1642 30.9562 26.1077 30.3868L25.7806 27.0534L22.3217 27.37C21.6898 27.4358 21.1365 26.9832 21.0755 26.3787C21.0159 25.7742 21.477 25.237 22.1046 25.1797L26.7011 24.7593C27.0194 24.73 27.3034 24.8216 27.5368 25.0065C27.7703 25.1927 27.9175 25.4599 27.9472 25.7506L28.3829 30.1789C28.4424 30.7842 27.9813 31.3206 27.3523 31.3779C27.3166 31.3815 27.2795 31.3831 27.2439 31.3831Z" fill="#703391" stroke="#703391"/>
<path d="M42.9788 47.7044C41.0278 47.7044 39.4396 46.1745 39.4396 44.2945C39.4396 43.6871 39.9511 43.1944 40.5817 43.1944C41.2122 43.1944 41.7237 43.6871 41.7237 44.2945C41.7237 44.9613 42.2873 45.5042 42.9788 45.5042C43.6703 45.5042 44.2338 44.9613 44.2338 44.2945V43.9307C44.2338 43.2912 43.7848 42.7367 43.1408 42.5814L42.2634 42.3707C40.6009 41.9704 39.4395 40.5379 39.4395 38.887V38.5232C39.4395 36.6432 41.0277 35.1133 42.9786 35.1133C44.9296 35.1133 46.5178 36.6432 46.5178 38.5232C46.5178 39.1306 46.0063 39.6234 45.3758 39.6234C44.7452 39.6234 44.2337 39.1306 44.2337 38.5232C44.2337 37.8564 43.6701 37.3135 42.9786 37.3135C42.2872 37.3135 41.7236 37.8564 41.7236 38.5232V38.887C41.7236 39.5265 42.1726 40.081 42.8166 40.2363L43.694 40.447C45.3566 40.8473 46.518 42.2798 46.518 43.9307V44.2945C46.518 46.1745 44.9297 47.7044 42.9788 47.7044Z" fill="#703391" stroke="#703391"/>
<path d="M42.978 37.3077C42.3474 37.3077 41.8359 36.815 41.8359 36.2076V34.3189C41.8359 33.7115 42.3474 33.2188 42.978 33.2188C43.6086 33.2188 44.1201 33.7115 44.1201 34.3189V36.2076C44.1201 36.815 43.6086 37.3077 42.978 37.3077Z" fill="#703391" stroke="#703391"/>
<path d="M42.978 49.585C42.3474 49.585 41.8359 49.0923 41.8359 48.4849V46.5962C41.8359 45.9888 42.3474 45.4961 42.978 45.4961C43.6086 45.4961 44.1201 45.9888 44.1201 46.5962V48.4849C44.1201 49.0923 43.6086 49.585 42.978 49.585Z" fill="#703391" stroke="#703391"/>
<path d="M42.9777 55.7048C34.7914 55.7048 28.1309 49.2889 28.1309 41.4032C28.1309 33.5175 34.7914 27.1016 42.9777 27.1016C51.164 27.1016 57.8245 33.5175 57.8245 41.4032C57.8245 49.2889 51.164 55.7048 42.9777 55.7048ZM42.9777 29.3018C36.051 29.3018 30.415 34.7309 30.415 41.4032C30.415 48.0755 36.051 53.5046 42.9777 53.5046C49.9044 53.5046 55.5404 48.0755 55.5404 41.4032C55.5404 34.7309 49.9044 29.3018 42.9777 29.3018Z" fill="#703391" stroke="#703391"/>
</svg>
