<svg width="56" height="50" viewBox="0 0 56 50" fill="none" xmlns="http://www.w3.org/2000/svg">
<path d="M19.4537 25.518H11.0122C11.1444 28.9046 12.3067 32.2638 14.3988 35.6002H19.4537V37.7408H15.8893C16.984 39.1671 18.1749 40.5166 19.4537 41.78V44.7284C17.1404 42.6386 15.066 40.2981 13.2685 37.7499H6.51801C8.01578 39.7726 9.84884 41.5233 11.9375 42.9256C13.1417 43.7383 14.4225 44.4308 15.7617 44.9932C15.7617 44.9932 15.789 44.9932 15.8027 45.0251C16.9811 45.5236 18.2013 45.9161 19.4491 46.1981V48.4026C17.9076 48.0933 16.4017 47.6268 14.9549 47.0105C14.9323 47.0063 14.9116 46.9952 14.8957 46.9785C13.4427 46.3449 12.0499 45.5811 10.7342 44.6965C9.4375 43.8329 8.23111 42.8405 7.13334 41.7344C6.02482 40.6387 5.0334 39.4303 4.17518 38.1287C3.29353 36.8141 2.53809 35.4188 1.91896 33.9617C1.28241 32.4821 0.801232 30.9403 0.483177 29.361C-0.161059 26.1173 -0.161059 22.7782 0.483177 19.5345C0.790487 17.9676 1.2626 16.4377 1.89161 14.9704C1.89475 14.9483 1.90426 14.9277 1.91896 14.911C2.54778 13.4542 3.31074 12.0591 4.19797 10.744C5.06045 9.44555 6.05152 8.23755 7.15613 7.13831C8.25134 6.0294 9.45802 5.03676 10.757 4.1762C12.0704 3.29432 13.4637 2.53792 14.9185 1.91696C16.395 1.28207 17.9332 0.801805 19.5084 0.483823C22.7478 -0.161274 26.0824 -0.161274 29.3218 0.483823C30.8866 0.791544 32.4145 1.26428 33.8799 1.89414C33.9021 1.89639 33.923 1.90603 33.9391 1.92152C35.3926 2.5542 36.7855 3.31804 38.1006 4.20358C39.3973 5.06721 40.6037 6.05961 41.7015 7.1657C42.8121 8.25354 43.8066 9.4543 44.6687 10.7485C45.5564 12.0634 46.3194 13.4585 46.9478 14.9156C47.5869 16.4005 48.0682 17.9487 48.3835 19.5345C48.4154 19.6897 48.4473 19.8494 48.4747 19.9909H46.296V19.9452C46.0114 18.5053 45.576 17.0994 44.9969 15.7508C44.6335 14.9022 44.2227 14.0748 43.7662 13.2725H36.5737C37.8209 15.3668 38.7618 17.6292 39.3677 19.9909H37.1662C36.4784 17.6073 35.4333 15.3421 34.0667 13.2725H25.484V20.0046H23.6608H23.3463V13.2862H14.7635C12.5665 16.7062 11.3313 20.07 11.0578 23.3775H19.5357C19.49 23.5985 19.4626 23.8229 19.4537 24.0484V25.518ZM45.2385 26.4719V39.3702L40.1107 36.3533L34.9191 39.6303V26.4719H27.6263C27.2901 26.4743 26.9685 26.6094 26.7313 26.8478C26.4941 27.0863 26.3603 27.4088 26.3591 27.7453V46.5084C26.3603 46.8442 26.4944 47.1657 26.7319 47.4027C26.9694 47.6397 27.291 47.7727 27.6263 47.7727H52.5815C52.9156 47.7703 53.2353 47.6364 53.4716 47.3998C53.7079 47.1632 53.8417 46.843 53.8441 46.5084V27.7545C53.8453 27.5853 53.8128 27.4176 53.7486 27.2612C53.6844 27.1047 53.5897 26.9626 53.47 26.8432C53.3504 26.7238 53.2081 26.6295 53.0517 26.5658C52.8952 26.502 52.7276 26.4701 52.5587 26.4719H45.2385ZM27.6035 24.3085H52.5678C53.4774 24.3111 54.349 24.6737 54.9927 25.3172C55.3117 25.6358 55.5649 26.0142 55.7377 26.4309C55.9106 26.8475 55.9997 27.2942 56 27.7453V46.513C55.9974 47.4238 55.6353 48.2966 54.9927 48.9411C54.3503 49.5844 53.4808 49.9484 52.5724 49.9544C43.0917 49.9544 33.6383 50 24.1576 50V27.6221C24.1929 26.7309 24.5715 25.8881 25.214 25.2703C25.8564 24.6525 26.7128 24.3078 27.6035 24.3085ZM5.11414 35.6002H11.9056C10.0862 32.5353 9.04547 29.0703 8.87451 25.5089H2.16965C2.21982 26.6572 2.35696 27.8 2.57987 28.9274C2.86388 30.3681 3.3009 31.7742 3.88347 33.1219C4.24313 33.9722 4.65412 34.7998 5.11414 35.6002ZM2.16965 23.3775H8.92009C9.24355 19.8011 10.3869 16.3477 12.2611 13.2862H5.11414C4.65412 14.0865 4.24313 14.9142 3.88347 15.7645C3.88347 15.7645 3.88347 15.7965 3.85156 15.8102C2.84529 18.2121 2.2757 20.7749 2.16965 23.3775ZM6.50434 11.1456H13.6331C15.9598 7.88241 18.6649 4.90711 21.6917 2.28209C21.09 2.35968 20.5066 2.4464 19.9323 2.56506C18.4942 2.85002 17.0902 3.28602 15.7435 3.86584C14.4098 4.43842 13.1313 5.13202 11.9238 5.93795C10.7459 6.73567 9.65239 7.65173 8.66028 8.67186C7.88373 9.44038 7.16894 10.2691 6.52257 11.1502L6.50434 11.1456ZM27.1385 2.30491C30.171 4.91417 32.8755 7.88284 35.1926 11.1456H42.3259C40.8322 9.12403 39.0039 7.37349 36.9201 5.9699C35.717 5.15813 34.4377 4.46568 33.1005 3.90235C33.1005 3.90235 33.0685 3.90235 33.0549 3.8704C31.7165 3.30421 30.3236 2.8775 28.8979 2.59701C28.31 2.47834 27.7265 2.39163 27.1385 2.3186V2.30491ZM25.484 3.69697V11.1456H32.5717C30.4711 8.4254 28.096 5.92932 25.484 3.69697ZM23.3463 11.1456V3.69697C20.7343 5.92932 18.3592 8.4254 16.2585 11.1456H23.3463Z" fill="#703391"/>
</svg>
