<svg width="86" height="86" viewBox="0 0 86 86" fill="none" xmlns="http://www.w3.org/2000/svg">
<circle cx="43" cy="43" r="43" fill="#703391" fill-opacity="0.1"/>
<path d="M22.2324 23.8574H25.3133V25.2714H22.2324V23.8574Z" fill="#703391"/>
<path d="M22.2324 27.0918H30.1264V28.5058H22.2324V27.0918Z" fill="#703391"/>
<path d="M22.2324 33.4668H30.1264V34.8808H22.2324V33.4668Z" fill="#703391"/>
<path d="M22.2324 30.2773H30.1264V31.6913H22.2324V30.2773Z" fill="#703391"/>
<path d="M39.082 23.8574H42.1629V25.2714H39.082V23.8574Z" fill="#703391"/>
<path d="M39.082 27.0918H46.9761V28.5058H39.082V27.0918Z" fill="#703391"/>
<path d="M39.082 33.4668H46.9761V34.8808H39.082V33.4668Z" fill="#703391"/>
<path d="M39.082 30.2773H46.9761V31.6913H39.082V30.2773Z" fill="#703391"/>
<path d="M66.6164 23.9592L62.1352 19.4138C62.0246 19.169 61.7791 19 61.4921 19H53.3664C52.9757 19 52.6576 19.3173 52.6576 19.707V37.3642C52.6576 37.7539 52.9757 38.0712 53.3664 38.0712H59.0959C59.0337 38.8713 58.8366 39.3714 58.4597 39.7886C57.7301 40.6025 56.5925 40.6646 54.677 40.6025H54.6562C52.9205 40.5508 51.9212 41.1026 51.1259 42.0717C50.3894 42.9683 50.3306 44.065 50.379 45.8549L48.5361 44.0168L47.3984 45.0721L51.1363 48.6208L54.8533 45.0962L53.7122 44.0098L51.9073 45.8342C51.8485 44.3995 51.9453 43.527 52.4363 42.9855C52.993 42.3717 53.5013 42.0923 54.7115 42.1613C57.4361 42.3165 58.6636 41.7819 59.6076 40.8611C60.4132 40.0783 60.6656 39.0196 60.7313 38.0677H66.2913C66.682 38.0677 67.0001 37.7504 67.0001 37.3607L66.9967 24.583C66.9967 24.3106 66.8447 24.0764 66.6164 23.9592ZM62.2009 21.4933L64.5521 23.8798L62.2009 23.8763V21.4933ZM65.5826 36.6538H54.0752V20.4109H60.7867V24.5839C60.7867 24.9736 61.1048 25.2909 61.4955 25.2909H65.5825L65.5826 36.6538Z" fill="#703391"/>
<path d="M55.8906 23.8574H58.9715V25.2714H55.8906V23.8574Z" fill="#703391"/>
<path d="M55.8906 27.0918H63.7846V28.5058H55.8906V27.0918Z" fill="#703391"/>
<path d="M55.8906 33.4668H63.7846V34.8808H55.8906V33.4668Z" fill="#703391"/>
<path d="M55.8906 30.2773H63.7846V31.6913H55.8906V30.2773Z" fill="#703391"/>
<path d="M26.531 40.8615C27.4784 41.7788 28.7025 42.3168 31.4271 42.1617C32.6339 42.0927 33.1456 42.3686 33.7023 42.9859C34.1933 43.5273 34.2867 44.3999 34.2313 45.8345L32.4264 44.0102L31.2853 45.0965L35.0023 48.6211L38.7402 45.0724L37.6025 44.0172L35.7596 45.8553C35.808 44.0689 35.7458 42.9722 35.0127 42.072C34.2175 41.1029 33.2182 40.5511 31.4824 40.6029H31.4616C29.5495 40.6649 28.4085 40.6029 27.6789 39.789C27.302 39.3682 27.1049 38.8716 27.0427 38.0715H32.6373C33.028 38.0715 33.3461 37.7543 33.3461 37.3646L33.3392 24.5834C33.3392 24.3109 33.1836 24.0764 32.9588 23.9592L28.4776 19.4138C28.367 19.169 28.1215 19 27.8345 19H19.7088C19.3181 19 19 19.3173 19 19.707V37.3642C19 37.7539 19.3181 38.0712 19.7088 38.0712H25.4037C25.4729 39.0196 25.7254 40.0785 26.531 40.8615ZM28.5434 21.4932L30.8946 23.8797H28.5434V21.4932ZM20.4177 20.4103H27.1292V24.5833C27.1292 24.973 27.4473 25.2902 27.838 25.2902H31.925V36.6536H20.4177L20.4177 20.4103Z" fill="#703391"/>
<path d="M62.9848 53.911C62.9848 53.9041 62.9813 53.8938 62.9813 53.8869C62.9779 53.8696 62.9779 53.8558 62.9744 53.8386C62.971 53.8282 62.971 53.8179 62.9675 53.811L62.9571 53.7696C62.9537 53.7593 62.9502 53.7489 62.9468 53.742C62.9433 53.7282 62.9364 53.7144 62.9329 53.7006C62.9295 53.6903 62.926 53.6834 62.9226 53.6765C62.9122 53.6558 62.9053 53.6351 62.8949 53.6144C62.8914 53.6075 62.888 53.6006 62.8811 53.5937C62.8741 53.5799 62.8638 53.5661 62.8569 53.5523C62.8499 53.5454 62.8465 53.5386 62.8396 53.5282C62.8292 53.5144 62.8223 53.5041 62.8119 53.4937C62.805 53.4868 62.8015 53.4799 62.7946 53.473C62.7842 53.4592 62.7739 53.4489 62.7635 53.4385C62.7566 53.4316 62.7531 53.4282 62.7497 53.4213C62.7324 53.4041 62.7185 53.3903 62.7013 53.3765L62.6978 53.373C62.6805 53.3592 62.6598 53.3454 62.6425 53.3316C62.6356 53.3282 62.6286 53.3247 62.6252 53.3178C62.6114 53.3075 62.5975 53.3006 62.5837 53.2937C62.5733 53.2868 62.5664 53.2833 62.556 53.2799C62.5422 53.273 62.5318 53.2661 62.5215 53.2627C62.5111 53.2592 62.5007 53.2523 62.4903 53.2489C62.48 53.2454 62.4661 53.2385 62.4558 53.2351C62.4454 53.2316 62.435 53.2282 62.4246 53.2247C62.4212 53.2247 62.4212 53.2247 62.4177 53.2213L43.7741 47.8069V38.068H49.4828C49.8735 38.068 50.1916 37.7507 50.1916 37.361V24.5834C50.1916 24.3109 50.036 24.0764 49.8113 23.9592L45.3301 19.4138C45.2194 19.169 44.9739 19 44.6869 19H36.5613C36.1705 19 35.8524 19.3173 35.8524 19.707V37.3642C35.8524 37.7539 36.1705 38.0712 36.5613 38.0712H42.27V47.8003L23.5564 53.2251C23.5529 53.2251 23.5529 53.2285 23.5495 53.2285C23.5391 53.232 23.5287 53.2354 23.5184 53.2389C23.5045 53.2423 23.4942 53.2492 23.4803 53.2527C23.47 53.2561 23.4596 53.263 23.4492 53.2665C23.4354 53.2734 23.425 53.2768 23.4112 53.2837C23.4008 53.2871 23.3939 53.294 23.387 53.2975C23.3731 53.3044 23.3593 53.3147 23.3455 53.3216C23.3386 53.3251 23.3317 53.3285 23.3282 53.3354C23.3074 53.3492 23.2902 53.363 23.2729 53.3768L23.2694 53.3803C23.2521 53.3941 23.2348 53.4079 23.221 53.4251C23.2141 53.432 23.2106 53.4354 23.2072 53.4423C23.1968 53.4527 23.1864 53.4665 23.1761 53.4768C23.1691 53.4837 23.1657 53.4906 23.1588 53.4975C23.1484 53.5079 23.1415 53.5217 23.1311 53.532C23.1242 53.5389 23.1207 53.5458 23.1138 53.5561C23.1034 53.5699 23.0965 53.5837 23.0896 53.5975C23.0862 53.6044 23.0792 53.6113 23.0758 53.6182C23.0654 53.6389 23.055 53.6596 23.0481 53.6803C23.0447 53.6872 23.0412 53.6975 23.0377 53.7044C23.0308 53.7182 23.0274 53.732 23.0239 53.7458C23.0205 53.7562 23.017 53.7665 23.0135 53.7734C23.0101 53.7872 23.0066 53.801 23.0032 53.8148C22.9997 53.8251 22.9997 53.8355 22.9963 53.8424C22.9928 53.8596 22.9893 53.8734 22.9893 53.8907C22.9893 53.8976 22.9859 53.9079 22.9859 53.9148C22.9824 53.9389 22.9824 53.9631 22.9824 53.9872V53.9907V53.9941V60.5087C22.9824 60.8604 23.2141 61.1708 23.5529 61.2708L42.7604 66.9577C42.7639 66.9577 42.7639 66.9577 42.7673 66.9611L42.7743 66.9646C42.7777 66.9646 42.7777 66.9646 42.7812 66.968C42.8123 66.9784 42.8434 66.9818 42.8745 66.9887C42.8814 66.9887 42.8918 66.9922 42.8987 66.9922C42.9333 66.9956 42.9679 66.9991 43.0025 66.9991C43.037 66.9991 43.0716 66.9956 43.1062 66.9922C43.1131 66.9922 43.1235 66.9887 43.1304 66.9887C43.1615 66.9818 43.1926 66.9784 43.2238 66.968H43.2307L43.2376 66.9646C43.2411 66.9646 43.2411 66.9646 43.2445 66.9611L62.4316 61.2501C62.7705 61.1501 63.0021 60.8397 63.0021 60.4879V53.9975V53.994V53.9906C62.9883 53.9596 62.9848 53.9352 62.9848 53.911ZM45.3883 21.4932L47.7395 23.8797L45.3883 23.8762V21.4932ZM37.2627 20.4103H43.9741V24.5832C43.9741 24.9729 44.2922 25.2902 44.6829 25.2902H48.77V36.6535H37.2627L37.2627 20.4103ZM42.1968 65.1255L24.5694 59.9076V55.0553L42.1968 60.3456V65.1255ZM43.0613 58.904C43.0405 58.9006 43.0163 58.9006 42.9956 58.9006C42.9714 58.9006 42.9506 58.904 42.9264 58.904L26.5816 53.9966L42.2661 49.4478V53.5621L40.4784 51.8619C40.4266 51.8136 40.3436 51.8136 40.2917 51.8653L39.2129 52.9378C39.1887 52.962 39.1714 52.9965 39.1748 53.0344C39.1748 53.0689 39.1887 53.1034 39.2163 53.1275L42.9058 56.6107C42.93 56.6348 42.9645 56.6451 42.9957 56.6451C43.0268 56.6451 43.0613 56.6314 43.089 56.6072L46.7784 53.0758C46.8026 53.0516 46.8199 53.0171 46.8199 52.9827C46.8199 52.9482 46.8061 52.9137 46.7819 52.8895L45.7723 51.8652C45.7204 51.8135 45.6374 51.8135 45.5855 51.8618L43.7737 53.5689V49.4616L59.3891 53.9966L43.0613 58.904ZM61.3942 59.8835L43.7906 65.1255V60.349L61.3942 55.0587V59.8835Z" fill="#703391"/>
</svg>
