<svg width="86" height="86" viewBox="0 0 86 86" fill="none" xmlns="http://www.w3.org/2000/svg">
<circle cx="43" cy="43" r="43" fill="#703391" fill-opacity="0.1"/>
<path fill-rule="evenodd" clip-rule="evenodd" d="M43 19C29.7541 19 19 29.7541 19 43C19 56.2459 29.7541 67 43 67C56.2459 67 67 56.2459 67 43C67 29.7541 56.2459 19 43 19ZM43 23.2469C53.9024 23.2469 62.7536 32.0976 62.7536 43C62.7536 53.9024 53.9024 62.7531 43 62.7531C32.0981 62.7531 23.2469 53.9024 23.2469 43C23.2469 32.0976 32.0981 23.2469 43 23.2469Z" fill="#703391"/>
<path fill-rule="evenodd" clip-rule="evenodd" d="M39.4947 41.8046C39.0803 46.5646 37.9886 51.1811 36.2867 55.6697C35.8713 56.7657 36.4238 57.9923 37.5193 58.4078C38.6153 58.8233 39.8419 58.2713 40.2574 57.1753C41.4622 53.9977 42.3833 50.7609 43.0014 47.4606C43.6195 50.7609 44.5406 53.9977 45.7454 57.1753C46.1609 58.2713 47.3875 58.8233 48.4835 58.4078C49.5795 57.9923 50.1315 56.7657 49.7161 55.6697C48.0153 51.1838 46.9241 46.5694 46.5091 41.8137C49.0526 41.6889 51.5971 41.4222 54.1417 41.0089C55.2985 40.8206 56.0851 39.7289 55.8969 38.5721C55.7091 37.4158 54.6174 36.6291 53.4606 36.8169C46.4835 37.9507 39.507 37.9059 32.5299 36.8147C31.3721 36.6339 30.2851 37.427 30.1038 38.5849C29.923 39.7427 30.7161 40.8297 31.8739 41.0105C34.4137 41.4078 36.9539 41.6745 39.4947 41.8046Z" fill="#703391"/>
<path d="M43.0005 35.8877C45.1172 35.8877 46.833 34.1718 46.833 32.0552C46.833 29.9385 45.1172 28.2227 43.0005 28.2227C40.8839 28.2227 39.168 29.9385 39.168 32.0552C39.168 34.1718 40.8839 35.8877 43.0005 35.8877Z" fill="#703391"/>
</svg>
