<svg width="58" height="50" viewBox="0 0 58 50" fill="none" xmlns="http://www.w3.org/2000/svg">
<path fill-rule="evenodd" clip-rule="evenodd" d="M5.29701 1.0005C3.97287 1.0005 2.7787 1.61741 1.9873 2.57583C1.89953 2.68227 1.81611 2.79308 1.73892 2.90762C1.66111 3.02217 1.5889 3.14044 1.52229 3.26245C1.45568 3.38447 1.39467 3.50959 1.33989 3.63783C1.31499 3.70195 1.28387 3.76731 1.2627 3.83268C1.09275 4.29271 1 4.7881 1 5.30292V31.2128V35.5989C1 37.9523 2.94317 39.9016 5.2972 39.9016H21.4933V45.6814H14.543C14.1062 45.6814 13.6873 45.8549 13.3784 46.1638C13.0695 46.4727 12.896 46.8916 12.896 47.3284C12.896 47.7652 13.0695 48.1842 13.3784 48.493C13.6873 48.8019 14.1062 48.9754 14.543 48.9754H43.457C43.8938 48.9754 44.3127 48.8019 44.6216 48.493C44.9305 48.1842 45.104 47.7652 45.104 47.3284C45.104 46.8916 44.9305 46.4727 44.6216 46.1638C44.3127 45.8549 43.8938 45.6814 43.457 45.6814H36.5067V39.9016H52.7027C55.0568 39.9016 57 37.9523 57 35.5989V31.2128V5.30292C57 5.22947 56.9981 5.15601 56.9943 5.08318C56.9757 4.71963 56.9103 4.36716 56.8051 4.03163C56.7615 3.89717 56.7142 3.76582 56.6594 3.63758C56.6345 3.57346 56.6034 3.50997 56.5729 3.44709C56.5106 3.32197 56.4453 3.19995 56.3731 3.08168C56.3009 2.9634 56.223 2.84886 56.1402 2.73805C55.9747 2.51706 55.7879 2.31163 55.5844 2.1255C55.3802 1.93937 55.1586 1.77254 54.9224 1.62811C54.8663 1.59076 54.8035 1.55715 54.7425 1.52353C54.5601 1.42331 54.3696 1.33616 54.1722 1.26332C53.7128 1.09275 53.2174 1 52.7024 1L5.29701 1.0005ZM5.29701 4.29464H52.7026C52.8843 4.29464 53.0505 4.33822 53.1931 4.40981C53.5068 4.57353 53.7055 4.89785 53.7055 5.30311V9.68926V31.213V35.5991C53.7055 36.188 53.2847 36.6077 52.7024 36.6077H5.29682C4.71415 36.6077 4.29371 36.1881 4.29371 35.5991V31.213V5.30311C4.29371 5.26576 4.29539 5.23027 4.29856 5.19479C4.31101 5.08834 4.32969 4.98874 4.36828 4.89723C4.38073 4.86611 4.39318 4.83498 4.41186 4.80821C4.45544 4.72231 4.51271 4.64511 4.57994 4.57788C4.62351 4.53431 4.67332 4.49322 4.72685 4.45836C4.78288 4.42101 4.83704 4.39362 4.89742 4.36934C5.01881 4.31954 5.15134 4.29464 5.29701 4.29464ZM24.2687 12.1937C23.8318 12.1937 23.4129 12.3673 23.104 12.6761C22.7952 12.985 22.6216 13.4039 22.6216 13.8407V15.9666C22.2362 16.1116 21.8557 16.2698 21.4809 16.441L19.9744 14.9357C19.6655 14.6271 19.2468 14.4538 18.8102 14.4538C18.3736 14.4538 17.9549 14.6271 17.646 14.9357L10.9555 21.6209C10.8024 21.7738 10.681 21.9555 10.5981 22.1554C10.5153 22.3553 10.4726 22.5696 10.4726 22.786C10.4726 23.0024 10.5153 23.2167 10.5981 23.4166C10.681 23.6165 10.8024 23.7981 10.9555 23.9511L12.4607 25.4552C12.2902 25.8293 12.1321 26.2084 11.987 26.593H9.8579C9.42109 26.593 9.00219 26.7666 8.69333 27.0755C8.38446 27.3843 8.21091 27.8032 8.21086 28.24V33.4492C8.21087 33.886 8.3844 34.305 8.69328 34.6138C9.00216 34.9227 9.42108 35.0962 9.8579 35.0962C10.0742 35.0963 10.2884 35.0537 10.4882 34.9709C10.6881 34.8881 10.8696 34.7668 11.0226 34.6139C11.1756 34.4609 11.2969 34.2794 11.3797 34.0795C11.4625 33.8797 11.5051 33.6655 11.5051 33.4492V29.8871H13.1616C13.5155 29.8871 13.86 29.7731 14.1441 29.5619C14.4281 29.3508 14.6366 29.0538 14.7387 28.7149C15.0313 27.7425 15.4231 26.8025 15.9075 25.9098C16.077 25.5976 16.141 25.2389 16.0899 24.8874C16.0389 24.5358 15.8755 24.2102 15.6243 23.959L14.4502 22.786L18.8105 18.4292L19.9865 19.6041C20.2375 19.8549 20.5627 20.018 20.9139 20.069C21.265 20.12 21.6232 20.0563 21.9352 19.8874C22.8289 19.403 23.7697 19.0118 24.7431 18.7192C25.0822 18.6173 25.3794 18.4088 25.5907 18.1247C25.8019 17.8406 25.916 17.496 25.9161 17.1419V15.488H32.0842V17.1385C32.0843 17.4931 32.1987 17.8382 32.4106 18.1226C32.6224 18.4069 32.9204 18.6153 33.2602 18.7167C34.2356 19.0081 35.1785 19.3983 36.0742 19.8818C36.386 20.05 36.7439 20.1132 37.0946 20.062C37.4452 20.0107 37.77 19.8478 38.0207 19.5973L39.1898 18.4291L43.55 22.7859L42.3829 23.9522C42.132 24.203 41.9687 24.5281 41.9175 24.8792C41.8662 25.2302 41.9297 25.5885 42.0984 25.9006C42.5821 26.7954 42.9728 27.7374 43.2642 28.7118C43.3657 29.0514 43.5742 29.3492 43.8584 29.561C44.1427 29.7727 44.4878 29.887 44.8422 29.8871H46.4954V33.4491C46.4954 33.886 46.669 34.3049 46.9778 34.6138C47.2867 34.9226 47.7057 35.0962 48.1425 35.0962C48.5793 35.0962 48.9982 34.9227 49.3071 34.6138C49.616 34.3049 49.7896 33.886 49.7896 33.4491V28.24C49.7895 27.8032 49.616 27.3842 49.3071 27.0754C48.9982 26.7665 48.5793 26.593 48.1425 26.5929H46.019C45.874 26.2063 45.7159 25.8254 45.5447 25.4497L47.0445 23.9511C47.1976 23.7981 47.319 23.6164 47.4018 23.4165C47.4847 23.2166 47.5273 23.0023 47.5273 22.7859C47.5273 22.5695 47.4847 22.3552 47.4018 22.1553C47.319 21.9554 47.1976 21.7738 47.0445 21.6208L40.354 14.9356C40.0451 14.627 39.6264 14.4537 39.1898 14.4537C38.7532 14.4537 38.3344 14.627 38.0255 14.9356L36.5246 16.4354C36.148 16.2642 35.7658 16.1061 35.3784 15.9611V13.8408C35.3783 13.404 35.2048 12.9851 34.8959 12.6762C34.587 12.3673 34.1681 12.1938 33.7313 12.1937L24.2687 12.1937ZM28.9998 24.4321C24.303 24.4321 20.4588 28.2723 20.4588 32.9675C20.4588 33.1692 20.4651 33.3703 20.4775 33.5707C20.4928 33.7865 20.5505 33.9971 20.6472 34.1906C20.7439 34.3841 20.8777 34.5566 21.0411 34.6984C21.2045 34.8401 21.3942 34.9483 21.5994 35.0167C21.8046 35.0851 22.0212 35.1125 22.237 35.0972C22.4527 35.0819 22.6634 35.0242 22.8568 34.9275C23.0503 34.8308 23.2229 34.697 23.3646 34.5336C23.5063 34.3702 23.6145 34.1805 23.683 33.9753C23.7514 33.7701 23.7787 33.5535 23.7634 33.3377C23.7572 33.2145 23.751 33.0912 23.751 32.9673C23.751 30.0538 26.0799 27.7261 28.9979 27.7261C31.9158 27.7261 34.2447 30.0538 34.2447 32.9673C34.2447 33.0912 34.2403 33.2145 34.2323 33.3377C34.217 33.5535 34.2443 33.7701 34.3127 33.9753C34.3812 34.1805 34.4894 34.3702 34.6311 34.5336C34.7728 34.697 34.9454 34.8308 35.1389 34.9275C35.3323 35.0242 35.543 35.0819 35.7587 35.0972C35.9745 35.1125 36.1911 35.0851 36.3963 35.0167C36.6015 34.9483 36.7912 34.8401 36.9546 34.6984C37.118 34.5566 37.2519 34.3841 37.3486 34.1906C37.4453 33.9971 37.5029 33.7865 37.5182 33.5707C37.5306 33.3696 37.5369 33.1686 37.5369 32.9675C37.5369 28.2723 33.6967 24.4321 28.9998 24.4321ZM24.7872 39.9019H33.2123V45.6817H24.7872V39.9019Z" fill="#703391" stroke="#703391"/>
</svg>
