<svg width="133" height="64" viewBox="0 0 133 64" fill="none" xmlns="http://www.w3.org/2000/svg">
<g clip-path="url(#clip0_20_1543)">
<path d="M22.7553 23.4502C22.8508 23.6889 22.8985 23.9336 22.8985 24.1843C22.8985 24.435 22.8508 24.6797 22.7553 24.9184C22.6599 25.1571 22.5226 25.3839 22.3317 25.5809C22.1289 25.7659 21.9081 25.9151 21.6575 26.0106C21.4069 26.1121 21.1564 26.1598 20.9058 26.1598C20.6552 26.1598 20.3986 26.1181 20.154 26.0285C19.9034 25.939 19.6887 25.8017 19.5037 25.6167C18.5909 24.7035 17.5826 24.0351 16.4788 23.6053C15.3751 23.1756 14.2236 22.9607 13.0303 22.9607C11.8371 22.9607 10.6319 23.1935 9.54004 23.665C8.44822 24.1365 7.49362 24.7752 6.67624 25.5869C5.85886 26.3986 5.2145 27.3535 4.7372 28.4517C4.2599 29.5499 4.02125 30.7317 4.02125 31.9911C4.02125 33.2504 4.24797 34.3665 4.69544 35.4587C5.14291 36.551 5.76936 37.5119 6.56288 38.3415C7.36236 39.1711 8.30503 39.8336 9.39685 40.323C10.4887 40.8125 11.676 41.0631 12.9647 41.0751C14.1699 41.0751 15.3154 40.8662 16.4013 40.4484C17.4871 40.0306 18.5073 39.3621 19.456 38.437C19.6409 38.2639 19.8557 38.1266 20.1003 38.0371C20.339 37.9416 20.5955 37.8939 20.8521 37.8939C21.1086 37.8939 21.3652 37.9357 21.6038 38.0252C21.8425 38.1147 22.0573 38.246 22.2482 38.4191C22.451 38.6041 22.5942 38.825 22.6897 39.0697C22.7852 39.3203 22.8329 39.571 22.8329 39.8336C22.8329 40.0962 22.7852 40.3469 22.6897 40.5857C22.5942 40.8244 22.463 41.0393 22.29 41.2303C20.9774 42.5314 19.5216 43.4983 17.9167 44.125C16.3118 44.7517 14.6651 45.068 12.9587 45.068C11.7655 45.068 10.6199 44.9128 9.52215 44.6084C8.42435 44.2981 7.39219 43.8624 6.42565 43.2894C5.45912 42.7224 4.58208 42.036 3.79453 41.2362C3.00102 40.4364 2.32683 39.5591 1.766 38.5922C1.20517 37.6253 0.769633 36.5928 0.459387 35.4826C0.149141 34.3784 -0.00598145 33.2206 -0.00598145 32.0149C-0.00598145 30.8749 0.143175 29.7588 0.435522 28.6547C0.727869 27.5565 1.15147 26.5239 1.6944 25.557C2.23733 24.5901 2.89959 23.7008 3.6752 22.8832C4.45082 22.0655 5.32189 21.3612 6.28843 20.7703C7.25496 20.1794 8.30503 19.7199 9.44458 19.3916C10.5841 19.0633 11.7834 18.8962 13.0422 18.8962C14.7307 18.8962 16.3774 19.2185 17.9763 19.8631C19.5753 20.5077 21.0191 21.4806 22.3079 22.7817C22.5107 22.9667 22.6539 23.1816 22.7494 23.4263L22.7553 23.4502Z" fill="#E5E5E5"/>
<path d="M30.3981 40.8662L38.7389 40.8841C39.2998 40.8841 39.7771 41.0751 40.1589 41.4571C40.5407 41.839 40.7317 42.3105 40.7317 42.8776C40.7317 43.1581 40.6839 43.4207 40.5825 43.6594C40.4811 43.8982 40.3379 44.113 40.1589 44.2921C39.9799 44.4711 39.7651 44.6144 39.5265 44.7158C39.2878 44.8173 39.0253 44.8591 38.7449 44.8472H28.1488L27.9877 44.8054C27.5164 44.7099 27.1345 44.489 26.8422 44.1309C26.5499 43.7728 26.4007 43.355 26.4007 42.8716V21.0926C26.4007 20.8121 26.4484 20.5495 26.5499 20.3107C26.6513 20.072 26.7885 19.8571 26.9735 19.6781C27.1524 19.499 27.3672 19.3558 27.6059 19.2543C27.8505 19.1529 28.107 19.1051 28.3875 19.1051C28.6679 19.1051 28.9304 19.1529 29.169 19.2543C29.4077 19.3558 29.6225 19.4931 29.8015 19.6781C29.9805 19.8571 30.1236 20.072 30.231 20.3107C30.3384 20.5495 30.3921 20.8121 30.3921 21.0926V40.8602L30.3981 40.8662Z" fill="#E5E5E5"/>
<path d="M45.4928 44.8472C44.9558 44.8054 44.5143 44.6025 44.1683 44.2324C43.8222 43.8624 43.6432 43.4028 43.6432 42.8537V21.1165C43.6432 20.836 43.691 20.5734 43.7924 20.3346C43.8938 20.0959 44.0311 19.881 44.216 19.702C44.395 19.5229 44.6098 19.3797 44.8604 19.2722C45.111 19.1648 45.3735 19.1111 45.6539 19.1111H56.3872C56.6676 19.1111 56.9242 19.1648 57.1628 19.2722C57.3955 19.3797 57.6043 19.5229 57.7893 19.702C57.9683 19.881 58.1114 20.0959 58.2129 20.3346C58.3143 20.5734 58.362 20.836 58.362 21.1165C58.362 21.6775 58.1711 22.155 57.8012 22.537C57.4253 22.919 56.954 23.11 56.3932 23.11H47.6466V30.0692H53.9589C54.2393 30.0573 54.5019 30.0991 54.7405 30.2005C54.9792 30.302 55.1939 30.4393 55.3729 30.6243C55.5519 30.8033 55.6951 31.0182 55.7965 31.2569C55.898 31.4957 55.9457 31.7583 55.9457 32.0388C55.9457 32.5998 55.7548 33.0654 55.3729 33.4295C54.9911 33.7935 54.5198 33.9726 53.953 33.9726H47.6406V40.8722H56.3872C56.948 40.8722 57.4194 41.0691 57.7952 41.4571C58.1711 41.845 58.3561 42.3225 58.3561 42.8835C58.3561 43.1641 58.3083 43.4267 58.2069 43.6654C58.1055 43.9041 57.9683 44.119 57.7833 44.2981C57.6043 44.4771 57.3955 44.6204 57.1568 44.7218C56.9242 44.8233 56.6616 44.8651 56.3812 44.8531H45.4868L45.4928 44.8472Z" fill="#E5E5E5"/>
<path d="M59.967 21.8984C59.8476 21.6417 59.788 21.3851 59.788 21.1165C59.788 20.8479 59.8357 20.5972 59.9371 20.3645C60.0385 20.1317 60.1817 19.9228 60.3667 19.7437C60.5516 19.5647 60.7843 19.4214 61.0528 19.314C61.5599 19.0991 62.0671 19.0991 62.5682 19.3021C63.0694 19.511 63.4334 19.8691 63.666 20.3764L71.1656 37.8521L78.6414 20.3764C78.7488 20.1198 78.8919 19.9049 79.0709 19.7199C79.2499 19.5408 79.4587 19.4035 79.6914 19.308C79.9241 19.2125 80.1747 19.1648 80.4372 19.1648C80.6997 19.1648 80.9563 19.2125 81.2128 19.308C81.4694 19.4155 81.6842 19.5587 81.8691 19.7378C82.0481 19.9168 82.1913 20.1257 82.2927 20.3585C82.3941 20.5913 82.4419 20.8419 82.4419 21.1105C82.4419 21.3791 82.3882 21.6417 82.2808 21.8924L72.9913 43.552L72.9734 43.6117C72.8123 43.9996 72.5677 44.2981 72.2396 44.507C71.9114 44.7159 71.5534 44.8233 71.1656 44.8412H71.0224C70.8733 44.8412 70.7361 44.8233 70.5988 44.7815C70.5869 44.7815 70.563 44.7755 70.5392 44.7636C70.3363 44.7099 70.1514 44.6204 69.9783 44.501C69.6681 44.2981 69.4354 44.0056 69.2743 43.6177L59.967 21.8984Z" fill="#E5E5E5"/>
<mask id="mask0_20_1543" style="mask-type:luminance" maskUnits="userSpaceOnUse" x="85" y="19" width="5" height="26">
<path d="M89.4999 42.8776C89.4999 43.4386 89.309 43.9101 88.9152 44.2861C88.5274 44.6621 88.0501 44.8472 87.4893 44.8472C86.9285 44.8472 86.4571 44.6621 86.0693 44.2861C85.6875 43.9101 85.4966 43.4386 85.4966 42.8776V21.0807C85.4966 20.5196 85.6875 20.0481 86.0693 19.6721C86.4512 19.2961 86.9225 19.1111 87.4893 19.1111C88.0561 19.1111 88.5274 19.2961 88.9152 19.6721C89.3031 20.0481 89.4999 20.5196 89.4999 21.0807V42.8776Z" fill="white"/>
</mask>
<g mask="url(#mask0_20_1543)">
<path d="M87.4953 19.1049H85.4966V44.847H87.4953V19.1049Z" fill="#723393"/>
<path d="M89.494 19.1051H87.4953V44.8472H89.494V19.1051Z" fill="#703391"/>
</g>
<mask id="mask1_20_1543" style="mask-type:luminance" maskUnits="userSpaceOnUse" x="92" y="19" width="20" height="27">
<path d="M103.712 23.8142V43.6057C103.712 44.1668 103.521 44.6383 103.133 45.0143C102.745 45.3903 102.268 45.5753 101.707 45.5753C101.146 45.5753 100.687 45.3903 100.329 45.0143C99.9767 44.6383 99.7977 44.1668 99.7977 43.6057V23.8142H94.4519C93.8911 23.8142 93.4197 23.6233 93.0439 23.2413C92.668 22.8593 92.483 22.3878 92.483 21.8208C92.483 21.2538 92.668 20.7823 93.0439 20.4003C93.4197 20.0183 93.8911 19.8273 94.4519 19.8273H109.087C109.654 19.8273 110.125 20.0243 110.507 20.4122C110.889 20.8002 111.08 21.2776 111.08 21.8387C111.08 22.1192 111.032 22.3818 110.931 22.6205C110.829 22.8593 110.692 23.0682 110.507 23.2472C110.322 23.4263 110.113 23.5576 109.875 23.6591C109.636 23.7605 109.374 23.8083 109.093 23.8083H103.723L103.712 23.8142Z" fill="white"/>
</mask>
<g mask="url(#mask1_20_1543)">
<path d="M101.767 19.8333H92.4711V45.5753H101.767V19.8333Z" fill="#723393"/>
<path d="M111.068 19.8333H101.773V45.5753H111.068V19.8333Z" fill="#703391"/>
</g>
<path d="M133 0V64H69.0237V51.0066H73.5879V59.4401H128.442V4.56589H73.5879V12.3368H69.0237V0H133Z" fill="url(#paint0_linear_20_1543)"/>
</g>
<defs>
<linearGradient id="paint0_linear_20_1543" x1="69.0237" y1="32.003" x2="133" y2="32.003" gradientUnits="userSpaceOnUse">
<stop stop-color="#703391"/>
<stop offset="0.51" stop-color="#D54699"/>
<stop offset="1" stop-color="#703391"/>
</linearGradient>
<clipPath id="clip0_20_1543">
<rect width="133" height="64" fill="white"/>
</clipPath>
</defs>
</svg>
