<svg width="140" height="64" viewBox="0 0 140 64" fill="#314252" xmlns="http://www.w3.org/2000/svg">
    <g clip-path="url(#clip0_1052_1052)">
        <path d="M23.8744 23.4502C23.9745 23.6889 24.0246 23.9336 24.0246 24.1843C24.0246 24.435 23.9745 24.6797 23.8744 24.9184C23.7742 25.1572 23.6302 25.384 23.4299 25.5809C23.2171 25.766 22.9855 25.9152 22.7226 26.0107C22.4597 26.1121 22.1968 26.1599 21.9339 26.1599C21.671 26.1599 21.4018 26.1181 21.1451 26.0286C20.8822 25.939 20.6569 25.8018 20.4628 25.6167C19.5051 24.7036 18.4472 24.0351 17.2892 23.6054C16.1311 23.1756 14.923 22.9608 13.6711 22.9608C12.4191 22.9608 11.1547 23.1935 10.0092 23.6651C8.86363 24.1366 7.86208 24.7752 7.0045 25.5869C6.14693 26.3986 5.47088 27.3536 4.97011 28.4518C4.46933 29.55 4.21894 30.7317 4.21894 31.9911C4.21894 33.2504 4.45681 34.3665 4.92629 35.4588C5.39576 36.551 6.05303 37.5119 6.88557 38.3415C7.72437 39.1712 8.7134 39.8337 9.85892 40.3231C11.0044 40.8125 12.2501 41.0632 13.6022 41.0751C14.8667 41.0751 16.0685 40.8662 17.2078 40.4484C18.3471 40.0306 19.4175 39.3622 20.4128 38.437C20.6068 38.264 20.8322 38.1267 21.0888 38.0372C21.3392 37.9417 21.6084 37.8939 21.8775 37.8939C22.1467 37.8939 22.4159 37.9357 22.6662 38.0252C22.9166 38.1147 23.142 38.246 23.3423 38.4191C23.5551 38.6042 23.7054 38.825 23.8055 39.0697C23.9057 39.3204 23.9557 39.5711 23.9557 39.8337C23.9557 40.0963 23.9057 40.347 23.8055 40.5857C23.7054 40.8244 23.5676 41.0393 23.3861 41.2303C22.009 42.5314 20.4816 43.4983 18.7978 44.125C17.1139 44.7517 15.3862 45.068 13.596 45.068C12.344 45.068 11.1422 44.9128 9.99038 44.6084C8.83859 44.2981 7.75567 43.8624 6.7416 43.2894C5.72753 42.7224 4.80735 42.036 3.98107 41.2363C3.14854 40.4365 2.44119 39.5591 1.85278 38.5922C1.26437 37.6253 0.807412 36.5928 0.481908 35.4826C0.156404 34.3785 -0.00634766 33.2206 -0.00634766 32.015C-0.00634766 30.875 0.150145 29.7589 0.456869 28.6547C0.763594 27.5565 1.20803 26.524 1.77766 25.5571C2.3473 24.5902 3.04212 23.7009 3.85588 22.8832C4.66964 22.0655 5.58356 21.3612 6.59762 20.7703C7.61169 20.1795 8.7134 19.7199 9.909 19.3916C11.1046 19.0634 12.3628 18.8962 13.6836 18.8962C15.4551 18.8962 17.1828 19.2185 18.8604 19.8631C20.538 20.5077 22.0528 21.4806 23.4049 22.7817C23.6177 22.9667 23.768 23.1816 23.8681 23.4263L23.8744 23.4502Z"/>
        <path d="M31.893 40.8662L40.644 40.8841C41.2324 40.8841 41.7332 41.0751 42.1338 41.4571C42.5344 41.839 42.7347 42.3105 42.7347 42.8776C42.7347 43.1581 42.6847 43.4207 42.5783 43.6594C42.4718 43.8982 42.3216 44.113 42.1338 44.2921C41.946 44.4711 41.7207 44.6144 41.4703 44.7158C41.2199 44.8173 40.9445 44.8591 40.6503 44.8472H29.5331L29.3641 44.8054C28.8695 44.7099 28.4689 44.489 28.1622 44.1309C27.8555 43.7728 27.699 43.355 27.699 42.8716V21.0926C27.699 20.8121 27.7491 20.5495 27.8555 20.3107C27.9619 20.072 28.1059 19.8571 28.2999 19.6781C28.4877 19.499 28.713 19.3558 28.9634 19.2543C29.2201 19.1529 29.4892 19.1051 29.7835 19.1051C30.0777 19.1051 30.3531 19.1529 30.6035 19.2543C30.8539 19.3558 31.0792 19.4931 31.267 19.6781C31.4548 19.8571 31.605 20.072 31.7177 20.3107C31.8304 20.5495 31.8867 20.8121 31.8867 21.0926V40.8602L31.893 40.8662Z" />
        <path d="M47.7301 44.8472C47.1667 44.8054 46.7035 44.6025 46.3404 44.2324C45.9773 43.8624 45.7896 43.4028 45.7896 42.8537V21.1165C45.7896 20.836 45.8396 20.5734 45.946 20.3346C46.0525 20.0959 46.1964 19.881 46.3905 19.702C46.5783 19.5229 46.8036 19.3797 47.0665 19.2722C47.3294 19.1648 47.6049 19.1111 47.8991 19.1111H59.1602C59.4545 19.1111 59.7236 19.1648 59.974 19.2722C60.2181 19.3797 60.4372 19.5229 60.6313 19.702C60.8191 19.881 60.9693 20.0959 61.0757 20.3346C61.1821 20.5734 61.2322 20.836 61.2322 21.1165C61.2322 21.6775 61.0319 22.155 60.6438 22.537C60.2494 22.919 59.7549 23.11 59.1665 23.11H49.9898V30.0692H56.6126C56.9068 30.0573 57.1822 30.0991 57.4326 30.2005C57.683 30.302 57.9083 30.4393 58.0961 30.6243C58.2839 30.8033 58.4341 31.0182 58.5405 31.2569C58.6469 31.4957 58.697 31.7583 58.697 32.0388C58.697 32.5998 58.4967 33.0654 58.0961 33.4295C57.6955 33.7935 57.201 33.9726 56.6063 33.9726H49.9835V40.8722H59.1602C59.7487 40.8722 60.2432 41.0691 60.6375 41.4571C61.0319 41.845 61.2259 42.3225 61.2259 42.8835C61.2259 43.1641 61.1759 43.4267 61.0694 43.6654C60.963 43.9041 60.8191 44.119 60.625 44.2981C60.4372 44.4771 60.2181 44.6204 59.9677 44.7218C59.7236 44.8233 59.4482 44.8651 59.154 44.8531H47.7238L47.7301 44.8472Z" />
        <path d="M62.9161 21.8984C62.7909 21.6417 62.7283 21.3851 62.7283 21.1165C62.7283 20.8479 62.7783 20.5973 62.8848 20.3645C62.9912 20.1317 63.1414 19.9228 63.3355 19.7438C63.5295 19.5647 63.7736 19.4215 64.0553 19.314C64.5874 19.0992 65.1195 19.0992 65.6453 19.3021C66.1711 19.511 66.5529 19.8691 66.7971 20.3764L74.6655 37.8521L82.5089 20.3764C82.6216 20.1198 82.7718 19.9049 82.9596 19.7199C83.1474 19.5408 83.3665 19.4036 83.6106 19.3081C83.8547 19.2126 84.1176 19.1648 84.3931 19.1648C84.6685 19.1648 84.9376 19.2126 85.2068 19.3081C85.476 19.4155 85.7013 19.5587 85.8954 19.7378C86.0832 19.9169 86.2334 20.1258 86.3398 20.3585C86.4462 20.5913 86.4963 20.842 86.4963 21.1106C86.4963 21.3791 86.44 21.6417 86.3273 21.8924L76.581 43.552L76.5622 43.6117C76.3932 43.9997 76.1365 44.2981 75.7922 44.507C75.448 44.7159 75.0724 44.8233 74.6655 44.8412H74.5153C74.3588 44.8412 74.2148 44.8233 74.0708 44.7815C74.0583 44.7815 74.0333 44.7756 74.0082 44.7636C73.7954 44.7099 73.6014 44.6204 73.4198 44.501C73.0943 44.2981 72.8502 44.0056 72.6812 43.6177L62.9161 21.8984Z" />
        <mask id="mask0_1052_1052" style="mask-type:luminance" maskUnits="userSpaceOnUse" x="89" y="19" width="5" height="26">
            <path d="M93.9014 42.8776C93.9014 43.4386 93.7011 43.9101 93.288 44.2861C92.8811 44.6621 92.3803 44.8472 91.7919 44.8472C91.2035 44.8472 90.709 44.6621 90.3021 44.2861C89.9015 43.9101 89.7012 43.4386 89.7012 42.8776V21.0807C89.7012 20.5196 89.9015 20.0481 90.3021 19.6721C90.7027 19.2961 91.1972 19.1111 91.7919 19.1111C92.3866 19.1111 92.8811 19.2961 93.288 19.6721C93.6949 20.0481 93.9014 20.5196 93.9014 21.0807V42.8776Z" fill="white"/>
        </mask>
        <g mask="url(#mask0_1052_1052)">
            <path d="M91.7982 19.105H89.7012V44.847H91.7982V19.105Z" fill="#723393"/>
            <path d="M93.8953 19.1051H91.7983V44.8472H93.8953V19.1051Z" fill="#703391"/>
        </g>
        <mask id="mask1_1052_1052" style="mask-type:luminance" maskUnits="userSpaceOnUse" x="97" y="19" width="20" height="27">
            <path d="M108.812 23.8142V43.6057C108.812 44.1667 108.612 44.6382 108.205 45.0142C107.798 45.3903 107.297 45.5753 106.709 45.5753C106.12 45.5753 105.638 45.3903 105.263 45.0142C104.893 44.6382 104.706 44.1667 104.706 43.6057V23.8142H99.0969C98.5085 23.8142 98.014 23.6232 97.6197 23.2412C97.2253 22.8593 97.0312 22.3877 97.0312 21.8207C97.0312 21.2537 97.2253 20.7822 97.6197 20.4002C98.014 20.0183 98.5085 19.8273 99.0969 19.8273H114.452C115.047 19.8273 115.541 20.0242 115.942 20.4122C116.342 20.8001 116.543 21.2776 116.543 21.8386C116.543 22.1192 116.493 22.3818 116.386 22.6205C116.28 22.8593 116.136 23.0682 115.942 23.2472C115.748 23.4263 115.529 23.5576 115.278 23.659C115.028 23.7605 114.752 23.8082 114.458 23.8082H108.825L108.812 23.8142Z" fill="white"/>
        </mask>
        <g mask="url(#mask1_1052_1052)">
            <path d="M106.771 19.8333H97.0186V45.5753H106.771V19.8333Z" fill="#723393"/>
            <path d="M116.53 19.8333H106.777V45.5753H116.53V19.8333Z" fill="#703391"/>
        </g>
        <path d="M139.541 0V64H72.4185V51.0066H77.2071V59.4401H134.759V4.56589H77.2071V12.3368H72.4185V0H139.541Z" fill="url(#paint0_linear_1052_1052)"/>
    </g>
    <defs>
        <linearGradient id="paint0_linear_1052_1052" x1="72.4185" y1="32.003" x2="139.541" y2="32.003" gradientUnits="userSpaceOnUse">
            <stop stop-color="#703391"/>
            <stop offset="0.51" stop-color="#D54699"/>
            <stop offset="1" stop-color="#703391"/>
        </linearGradient>
        <clipPath id="clip0_1052_1052">
            <rect width="139.541" height="64" fill="white"/>
        </clipPath>
    </defs>
</svg>