<svg width="56" height="56" viewBox="0 0 56 56" fill="none" xmlns="http://www.w3.org/2000/svg">
<g clip-path="url(#clip0_3265_18532)">
<path d="M7.82896 11.8837C8.85771 12.6382 9.69798 13.7073 9.95323 14.985C9.96411 15.1892 9.9692 15.3937 9.97053 15.5982C9.9716 15.7231 9.97267 15.8479 9.97378 15.9765C9.97441 16.113 9.97503 16.2495 9.97568 16.3901C9.97677 16.5342 9.97785 16.6783 9.97896 16.8268C9.98192 17.2215 9.98422 17.6163 9.9864 18.011C9.9888 18.4237 9.99179 18.8363 9.99472 19.249C10.0002 20.0303 10.0051 20.8116 10.0098 21.5929C10.0152 22.4824 10.0212 23.372 10.0273 24.2615C10.0397 26.0912 10.0514 27.9209 10.0626 29.7507C10.1508 29.705 10.2389 29.6594 10.3298 29.6124C10.4465 29.5528 10.5632 29.4933 10.6834 29.4319C10.7986 29.3728 10.9139 29.3136 11.0326 29.2527C12.2741 28.6791 13.601 28.7936 14.8751 29.2038C16.1733 29.7891 17.1674 30.9327 18.1572 31.9249C18.2615 32.029 18.3658 32.1332 18.4702 32.2373C18.7499 32.5165 19.0293 32.7961 19.3086 33.0758C19.6022 33.3696 19.8961 33.6632 20.1899 33.9568C20.6821 34.4488 21.1741 34.9411 21.6659 35.4335C22.2343 36.0025 22.8031 36.5711 23.3722 37.1395C23.8622 37.629 24.352 38.1188 24.8416 38.6087C25.1334 38.9007 25.4254 39.1926 25.7175 39.4844C26.0422 39.8087 26.3664 40.1334 26.6906 40.4583C26.7873 40.5547 26.884 40.6512 26.9836 40.7506C27.0716 40.8389 27.1596 40.9272 27.2503 41.0182C27.3269 41.0948 27.4035 41.1715 27.4824 41.2505C27.672 41.4538 27.672 41.4538 27.8907 41.7819C28.2517 41.6616 28.3215 41.581 28.5559 41.2958C29.0259 40.7424 29.5326 40.2308 30.0446 39.7164C30.1492 39.6108 30.2539 39.5053 30.3585 39.3997C30.6992 39.0562 31.0404 38.7132 31.3818 38.3704C31.5001 38.2515 31.6184 38.1326 31.7367 38.0137C32.2291 37.5189 32.7218 37.0242 33.2148 36.5299C33.9174 35.8255 34.6191 35.1202 35.3195 34.4135C35.8144 33.9144 36.3104 33.4163 36.8071 32.919C37.1027 32.623 37.3979 32.3265 37.6919 32.0289C37.9687 31.7488 38.2469 31.47 38.526 31.1921C38.6752 31.043 38.8229 30.8926 38.9706 30.7421C40.1207 29.6034 41.4036 28.9094 43.0392 28.8347C43.8968 28.8709 44.722 29.0621 45.4687 29.4851C45.5567 29.5347 45.6447 29.5843 45.7354 29.6354C45.8021 29.6735 45.8688 29.7115 45.9376 29.7507C45.9377 29.6759 45.9377 29.6011 45.9378 29.524C45.9394 27.6989 45.9441 25.8738 45.952 24.0487C45.9558 23.1661 45.9586 22.2835 45.959 21.4009C45.9593 20.631 45.9616 19.8611 45.9661 19.0913C45.9684 18.6841 45.9698 18.277 45.9689 17.8699C45.9679 17.4139 45.9712 16.9579 45.9749 16.5019C45.9734 16.3025 45.9734 16.3025 45.972 16.099C45.9917 14.6093 46.5195 13.4665 47.5325 12.3959C48.6843 11.3086 49.9915 11.0946 51.5003 11.1197C52.8498 11.1793 53.9101 11.8569 54.8175 12.818C55.5797 13.7548 55.9071 14.7429 55.9068 15.9269C55.9072 16.023 55.9076 16.119 55.908 16.218C55.9093 16.5406 55.9097 16.8631 55.9101 17.1857C55.9108 17.4167 55.9115 17.6478 55.9123 17.8789C55.9146 18.6386 55.9157 19.3984 55.9168 20.1581C55.9172 20.42 55.9177 20.6819 55.9181 20.9438C55.9202 22.175 55.9218 23.4061 55.9227 24.6373C55.9238 26.0561 55.9266 27.4749 55.9311 28.8936C55.9344 29.9915 55.936 31.0894 55.9363 32.1872C55.9366 32.8422 55.9376 33.4972 55.9403 34.1523C55.9429 34.7695 55.9433 35.3868 55.9422 36.0041C55.9422 36.2295 55.9428 36.4549 55.9444 36.6802C55.9549 38.355 55.8094 39.9003 55.0499 41.4264C55.0121 41.5042 54.9742 41.5819 54.9352 41.662C54.6081 42.3111 54.2102 42.8779 53.7525 43.4428C53.4114 43.8696 53.0837 44.307 52.753 44.7419C52.6775 44.8407 52.6021 44.9396 52.5243 45.0414C52.0308 45.6885 51.5451 46.3409 51.0646 46.9977C50.5082 47.758 49.9364 48.5041 49.355 49.2454C48.8372 49.908 48.3374 50.5826 47.8409 51.2613C47.2757 52.0324 46.698 52.7937 46.1163 53.5524C45.8036 53.9606 45.4915 54.3687 45.1899 54.7852C45.1454 54.8463 45.1009 54.9074 45.055 54.9704C44.9435 55.1244 44.8332 55.2792 44.7229 55.4341C44.423 55.7793 44.1782 55.9762 43.7098 56.0309C43.3712 56.0435 43.0339 56.0449 42.695 56.0431C42.5646 56.0437 42.4342 56.0442 42.2998 56.0449C41.9382 56.0462 41.5766 56.046 41.2149 56.0452C40.8247 56.0446 40.4346 56.046 40.0444 56.0471C39.2802 56.049 38.516 56.0491 37.7518 56.0485C37.1307 56.0481 36.5096 56.0483 35.8885 56.0488C35.8001 56.0489 35.7117 56.049 35.6207 56.0491C35.4411 56.0493 35.2616 56.0494 35.0821 56.0496C33.3982 56.0511 31.7144 56.0505 30.0305 56.0492C28.4898 56.0482 26.9491 56.0496 25.4085 56.0522C23.8267 56.0549 22.2449 56.0559 20.6631 56.0552C19.775 56.0548 18.8868 56.055 17.9987 56.057C17.2427 56.0586 16.4867 56.0586 15.7306 56.0567C15.3449 56.0558 14.9591 56.0556 14.5734 56.0572C14.1553 56.059 13.7372 56.0574 13.3191 56.0555C13.1971 56.0565 13.0751 56.0576 12.9494 56.0587C12.2802 56.0523 11.8835 56.0124 11.3751 55.5632C11.1572 55.3141 11.1572 55.3141 10.9513 55.0231C10.8674 54.9072 10.7835 54.7913 10.6971 54.6719C10.6495 54.606 10.6019 54.54 10.5529 54.4721C10.226 54.0258 9.88651 53.589 9.54991 53.1501C8.97935 52.4036 8.41616 51.6525 7.86143 50.8942C7.36637 50.2177 6.86114 49.5509 6.34385 48.8913C5.76078 48.1478 5.19531 47.3933 4.63778 46.6305C4.14658 45.9599 3.64368 45.2989 3.1378 44.6393C1.09483 41.9618 0.0390549 39.7692 0.0511301 36.3646C0.0503565 36.1328 0.0493993 35.901 0.0482746 35.6692C0.0458311 35.0448 0.0461315 34.4205 0.0471063 33.7961C0.0476683 33.2732 0.0468656 32.7502 0.0460707 32.2273C0.044217 30.9932 0.044596 29.7591 0.0464304 28.5251C0.0482831 27.255 0.0465457 25.985 0.0430158 24.7149C0.0400912 23.6209 0.0393008 22.527 0.0402278 21.433C0.0407653 20.7811 0.040534 20.1293 0.0382827 19.4774C0.0362673 18.8647 0.0369359 18.252 0.039617 17.6392C0.0401622 17.4153 0.03979 17.1914 0.0383978 16.9674C0.0278246 15.1197 0.280245 13.7854 1.59501 12.3959C3.26261 10.8217 5.92855 10.6714 7.82896 11.8837ZM3.82823 14.985C3.37699 15.5919 3.37455 16.2069 3.3761 16.9398C3.37585 17.0258 3.37561 17.1119 3.37535 17.2005C3.37466 17.4885 3.37475 17.7764 3.37484 18.0644C3.37451 18.271 3.37414 18.4777 3.37372 18.6843C3.37276 19.2457 3.3725 19.8071 3.37243 20.3685C3.37235 20.7197 3.37212 21.0709 3.37183 21.422C3.37082 22.6485 3.37037 23.8751 3.37046 25.1016C3.37052 26.2424 3.36937 27.3833 3.36764 28.5241C3.36621 29.5051 3.36563 30.4862 3.3657 31.4672C3.36572 32.0524 3.36542 32.6375 3.36425 33.2227C3.36319 33.774 3.36319 34.3253 3.36398 34.8766C3.3641 35.0779 3.36384 35.2793 3.36318 35.4806C3.35606 37.7849 3.61377 39.5707 5.03135 41.4538C5.12454 41.5778 5.12454 41.5778 5.21961 41.7043C5.65979 42.288 6.10397 42.8687 6.5493 43.4485C6.92367 43.936 7.29709 44.4242 7.67002 44.9128C7.74255 45.0078 7.81508 45.1028 7.88981 45.2007C8.43468 45.9162 8.9684 46.6395 9.49954 47.3652C9.99305 48.0371 10.5027 48.6952 11.0173 49.351C11.5657 50.0523 12.0952 50.7667 12.6201 51.4857C12.6799 51.5676 12.7397 51.6494 12.8012 51.7338C12.8534 51.8054 12.9055 51.8771 12.9592 51.9509C13.0139 52.0241 13.0687 52.0972 13.1251 52.1725C13.1755 52.2661 13.2258 52.3596 13.2777 52.456C13.7291 52.8733 14.1937 52.7914 14.787 52.7815C14.9119 52.7816 15.0367 52.7817 15.1654 52.7817C15.5785 52.7814 15.9915 52.7771 16.4046 52.7728C16.6909 52.7718 16.9772 52.771 17.2635 52.7705C17.9402 52.7688 18.6169 52.7643 19.2936 52.7588C20.0641 52.7527 20.8346 52.7497 21.6052 52.7469C23.19 52.7412 24.7747 52.7316 26.3595 52.7194C26.3651 51.9355 26.3689 51.1515 26.3715 50.3676C26.3726 50.1014 26.3741 49.8353 26.376 49.5691C26.3787 49.1844 26.3799 48.7997 26.3808 48.4149C26.382 48.2978 26.3831 48.1808 26.3843 48.0602C26.3845 46.0906 25.954 44.5807 24.5502 43.1549C24.4443 43.0513 24.3385 42.9477 24.2326 42.8442C24.119 42.7302 24.0055 42.6161 23.8922 42.5019C23.588 42.196 23.2815 41.8926 22.9744 41.5896C22.6519 41.2708 22.3315 40.9498 22.0108 40.6291C21.4732 40.0921 20.9341 39.5565 20.394 39.0219C19.7701 38.4043 19.1482 37.7849 18.5273 37.1643C17.8642 36.5015 17.1999 35.84 16.5351 35.1789C16.3442 34.9889 16.1535 34.7987 15.9629 34.6085C15.6636 34.31 15.3635 34.0124 15.0628 33.7154C14.9527 33.6064 14.8428 33.4971 14.7333 33.3876C14.5837 33.238 14.4329 33.0896 14.2821 32.9412C14.1981 32.8579 14.1141 32.7746 14.0276 32.6887C13.6178 32.3497 13.3351 32.2631 12.8038 32.28C12.3532 32.3539 12.0529 32.5123 11.7032 32.8132C11.3836 33.2926 11.3139 33.6639 11.3751 34.235C11.5951 34.7698 11.9075 35.1392 12.3176 35.536C12.379 35.5967 12.4404 35.6575 12.5037 35.72C12.6363 35.8511 12.7694 35.9818 12.9027 36.1121C13.1141 36.3188 13.3244 36.5265 13.5343 36.7345C14.056 37.2509 14.5792 37.7657 15.1028 38.28C15.5458 38.7151 15.988 39.151 16.4288 39.5882C16.6354 39.7923 16.8432 39.9951 17.051 40.1979C17.1783 40.324 17.3055 40.45 17.4326 40.5762C17.4902 40.6317 17.5478 40.6873 17.6072 40.7445C18.044 41.1823 18.3433 41.6395 18.3986 42.2677C18.3258 42.8246 18.2034 43.2018 17.8282 43.6413C17.4856 43.8576 17.205 43.8954 16.8028 43.9011C16.7027 43.9042 16.6026 43.9073 16.4995 43.9105C15.7993 43.7973 15.3016 43.2258 14.8181 42.7428C14.7501 42.6757 14.6821 42.6086 14.612 42.5394C14.3883 42.3184 14.1655 42.0966 13.9429 41.8746C13.7865 41.7193 13.6301 41.5639 13.4738 41.4085C13.1463 41.0828 12.8192 40.7566 12.4925 40.4302C12.0765 40.0148 11.6588 39.6013 11.2407 39.1881C10.9169 38.8677 10.5945 38.5459 10.2723 38.2239C10.119 38.0711 9.96527 37.9187 9.81106 37.7668C8.12176 36.1007 6.80425 34.2213 6.75237 31.749C6.75047 31.4591 6.7497 31.1693 6.74995 30.8794C6.74929 30.7189 6.74853 30.5583 6.74768 30.3978C6.74606 30.0539 6.7451 29.7099 6.74465 29.366C6.74391 28.8217 6.74153 28.2775 6.73891 27.7332C6.73311 26.48 6.72945 25.2269 6.72581 23.9737C6.72245 22.824 6.71863 21.6743 6.71309 20.5246C6.71054 19.984 6.70903 19.4433 6.70833 18.9027C6.70768 18.5661 6.70614 18.2296 6.70435 17.893C6.70371 17.7374 6.70344 17.5818 6.70357 17.4263C6.74731 16.1247 6.74731 16.1247 6.18662 15.0055C5.68203 14.5748 5.4043 14.4988 4.75877 14.5129C4.35408 14.564 4.12812 14.7144 3.82823 14.985ZM49.7657 14.985C49.3519 15.5416 49.3147 16.0787 49.3139 16.7564C49.3134 16.8928 49.313 17.0292 49.3125 17.1698C49.3126 17.3201 49.3126 17.4705 49.3127 17.6209C49.3124 17.7799 49.312 17.939 49.3116 18.098C49.3107 18.4403 49.3101 18.7826 49.3098 19.1248C49.3091 19.6675 49.3073 20.2101 49.3053 20.7527C49.3046 20.9389 49.3039 21.1251 49.3032 21.3112C49.3028 21.4045 49.3025 21.4977 49.3021 21.5938C49.2975 22.8564 49.2939 24.1191 49.2926 25.3818C49.2917 26.2342 49.2892 27.0867 49.285 27.9391C49.2828 28.3894 49.2815 28.8396 49.282 29.2899C49.2825 29.7146 49.281 30.1392 49.278 30.5638C49.2772 30.7183 49.2772 30.8729 49.278 31.0274C49.2845 32.4309 49.0359 33.7619 48.3917 35.0212C48.362 35.0862 48.3323 35.1513 48.3018 35.2183C47.631 36.5614 46.2418 37.6673 45.1895 38.7203C45.0476 38.8625 44.9057 39.0048 44.7638 39.1471C44.4692 39.4423 44.1744 39.7374 43.8794 40.0322C43.5017 40.41 43.1247 40.7885 42.7478 41.1672C42.4563 41.4599 42.1643 41.7522 41.8721 42.0443C41.7328 42.1837 41.5936 42.3234 41.4547 42.4632C41.2613 42.6576 41.0673 42.8513 40.8731 43.0449C40.8162 43.1024 40.7593 43.1599 40.7007 43.2191C40.2216 43.6941 39.8997 43.8916 39.2247 43.9011C38.6777 43.8887 38.3573 43.8166 37.9532 43.4225C37.6381 42.9042 37.5952 42.5095 37.6563 41.925C37.8518 41.2935 38.328 40.8299 38.7905 40.3782C38.851 40.3181 38.9115 40.2581 38.9739 40.1963C39.1044 40.067 39.2351 39.9379 39.3661 39.809C39.5735 39.6049 39.7802 39.4001 39.9867 39.1951C40.5735 38.6126 41.1617 38.0315 41.7503 37.4507C42.111 37.0947 42.471 36.7378 42.8304 36.3804C42.9673 36.2447 43.1045 36.1093 43.242 35.9743C43.4342 35.7855 43.6253 35.5958 43.8162 35.4059C43.873 35.3506 43.9298 35.2953 43.9884 35.2383C44.4187 34.8068 44.5992 34.4684 44.6661 33.8659C44.6175 33.3958 44.498 33.0569 44.1876 32.7038C43.7891 32.3961 43.3826 32.2268 42.8751 32.2458C41.9234 32.453 41.1352 33.5496 40.4714 34.2079C40.3648 34.3133 40.2581 34.4187 40.1515 34.5241C39.8044 34.8672 39.4579 35.2109 39.1115 35.5548C39.0226 35.643 39.0226 35.643 38.9319 35.7331C38.3717 36.2894 37.8116 36.8459 37.2522 37.4031C36.5409 38.1114 35.8283 38.8184 35.114 39.5237C34.6093 40.0222 34.1062 40.5222 33.6041 41.0233C33.3053 41.3214 33.0059 41.6189 32.7049 41.9147C32.4214 42.1934 32.1398 42.4739 31.8595 42.7558C31.7092 42.9061 31.557 43.0544 31.4048 43.2027C30.0237 44.602 29.6157 46.1303 29.6159 48.0602C29.6171 48.1772 29.6182 48.2943 29.6194 48.4149C29.6197 48.5391 29.62 48.6634 29.6203 48.7914C29.6215 49.1824 29.6243 49.5735 29.6271 49.9645C29.6282 50.2321 29.6292 50.4996 29.63 50.7671C29.6324 51.4179 29.6361 52.0687 29.6407 52.7194C31.2826 52.7656 32.9245 52.8002 34.5669 52.8214C35.3297 52.8315 36.0921 52.8453 36.8547 52.8679C37.5916 52.8898 38.3279 52.9011 39.0652 52.9062C39.3454 52.9098 39.6257 52.9169 39.9058 52.9276C41.3707 53.0263 41.3707 53.0263 42.7016 52.5306C43.1633 52.0763 43.5017 51.5625 43.8205 51.0017C44.0525 50.6091 44.331 50.2549 44.6114 49.8962C44.7186 49.7527 44.8257 49.6091 44.9327 49.4655C45.332 48.9315 45.7376 48.4024 46.1427 47.8727C46.7063 47.1353 47.2626 46.3933 47.8106 45.6442C48.3057 44.9677 48.8111 44.301 49.3282 43.6413C51.5601 40.7847 52.6265 38.9114 52.6254 35.2377C52.6257 35.0297 52.6261 34.8218 52.6265 34.6138C52.6274 34.0516 52.6277 33.4894 52.6278 32.9272C52.6278 32.5756 52.6281 32.2241 52.6284 31.8726C52.6294 30.6455 52.6298 29.4185 52.6297 28.1915C52.6297 27.0485 52.6308 25.9056 52.6326 24.7627C52.634 23.7801 52.6346 22.7975 52.6345 21.8149C52.6345 21.2286 52.6348 20.6423 52.6359 20.0559C52.637 19.505 52.637 18.954 52.6362 18.4031C52.6361 18.2011 52.6364 17.9991 52.637 17.7971C52.6379 17.5211 52.6374 17.2451 52.6365 16.969C52.6374 16.8497 52.6374 16.8497 52.6382 16.7279C52.6338 16.0656 52.5654 15.5147 52.1241 15.0055C51.6195 14.5748 51.3418 14.4988 50.6963 14.5129C50.2916 14.564 50.0656 14.7144 49.7657 14.985Z" fill="#703391"/>
<path d="M24.8366 -0.0437712C24.9125 -0.0445219 24.9883 -0.0452725 25.0664 -0.046046C25.316 -0.0480403 25.5655 -0.0476249 25.8151 -0.0470023C25.9893 -0.0475014 26.1635 -0.0480818 26.3377 -0.0487396C26.7024 -0.0497157 27.0671 -0.0494523 27.4318 -0.0483641C27.8983 -0.0471077 28.3647 -0.0493179 28.8312 -0.0525113C29.1909 -0.0545218 29.5505 -0.0544872 29.9102 -0.0538634C30.0821 -0.0538467 30.2541 -0.0545057 30.426 -0.0558641C30.6668 -0.0574988 30.9075 -0.0563244 31.1483 -0.0544524C31.3535 -0.0544251 31.3535 -0.0544251 31.5629 -0.0543973C32.1073 0.0253651 32.4531 0.264599 32.7964 0.689009C32.9572 1.06934 32.9586 1.36742 32.9535 1.7799C32.953 1.85439 32.9526 1.92887 32.9521 2.00561C32.9503 2.24188 32.9461 2.47805 32.942 2.71429C32.9403 2.87515 32.9388 3.036 32.9375 3.19686C32.9339 3.58975 32.9282 3.98258 32.9214 4.37542C33.0203 4.40472 33.1192 4.43402 33.2211 4.46421C33.5526 4.58502 33.7549 4.71511 34.0331 4.92358C34.282 5.07991 34.282 5.07991 34.5621 5.14105C35.0293 5.00011 35.4052 4.7374 35.8062 4.46429C36.634 3.91264 37.264 3.53053 38.2808 3.71917C39.1243 4.0056 39.4043 4.67495 39.8121 5.42816C39.9184 5.61865 40.0248 5.80914 40.1314 5.99952C40.2422 6.19806 40.3522 6.39704 40.4621 6.59609C40.8288 7.25787 41.2101 7.91127 41.5894 8.56585C41.7244 8.80012 41.8595 9.03439 41.9944 9.26867C42.1625 9.56031 42.3312 9.84972 42.5099 10.135C42.7708 10.5928 42.7114 11.083 42.6558 11.5942C42.3922 12.268 41.7852 12.6478 41.1528 12.943C40.0756 13.4188 40.0756 13.4188 39.3656 14.3046C39.2733 14.7047 39.2845 15.0371 39.4374 15.4195C39.9269 16.1151 40.8606 16.4605 41.6014 16.8241C42.1863 17.1288 42.4492 17.3044 42.6558 17.9379C42.8587 18.9885 42.4137 19.7126 41.8765 20.5834C41.797 20.7167 41.7177 20.85 41.6387 20.9836C41.4766 21.2566 41.3132 21.5289 41.1487 21.8004C40.843 22.306 40.5473 22.8172 40.2511 23.3284C40.0616 23.6556 39.8711 23.9823 39.6801 24.3086C39.6288 24.3962 39.5775 24.4838 39.5246 24.5741C39.4751 24.6581 39.4256 24.742 39.3746 24.8285C39.3209 24.9243 39.2672 25.02 39.2119 25.1187C38.9732 25.4891 38.6892 25.6722 38.2808 25.8129C37.2552 25.9878 36.6602 25.6147 35.8336 25.0541C35.1246 24.5717 35.1246 24.5717 34.3122 24.3988C33.8414 24.544 33.5057 24.8309 33.1402 25.1567C33.068 25.1567 32.9958 25.1567 32.9214 25.1567C32.9237 25.2559 32.926 25.3552 32.9284 25.4575C32.9359 25.8281 32.9413 26.1986 32.9455 26.5693C32.9477 26.7292 32.9507 26.8892 32.9545 27.0492C32.9598 27.28 32.9622 27.5107 32.9642 27.7415C32.9665 27.8801 32.9688 28.0187 32.9711 28.1615C32.9115 28.6245 32.7826 28.8477 32.4839 29.2035C32.0402 29.5353 31.7109 29.5735 31.1625 29.5759C31.0867 29.5766 31.0108 29.5774 30.9327 29.5781C30.6831 29.5801 30.4337 29.5797 30.1841 29.5791C30.0099 29.5796 29.8357 29.5802 29.6615 29.5808C29.2967 29.5818 28.932 29.5815 28.5673 29.5805C28.1008 29.5792 27.6344 29.5814 27.168 29.5846C26.8083 29.5866 26.4486 29.5866 26.089 29.586C25.917 29.5859 25.7451 29.5866 25.5732 29.588C25.3323 29.5896 25.0916 29.5884 24.8508 29.5865C24.714 29.5865 24.5772 29.5865 24.4363 29.5865C23.8918 29.5067 23.546 29.2675 23.2027 28.8431C23.042 28.4628 23.0406 28.1647 23.0457 27.7522C23.0461 27.6777 23.0466 27.6032 23.0471 27.5265C23.0489 27.2902 23.053 27.054 23.0572 26.8178C23.0588 26.6569 23.0603 26.4961 23.0617 26.3352C23.0653 25.9423 23.0709 25.5495 23.0777 25.1567C22.9788 25.1274 22.8799 25.0981 22.778 25.0679C22.4465 24.9471 22.2443 24.817 21.966 24.6085C21.7172 24.4522 21.7172 24.4522 21.4371 24.391C20.9699 24.532 20.594 24.7947 20.1929 25.0678C19.3652 25.6195 18.7351 26.0016 17.7183 25.8129C16.8748 25.5265 16.5948 24.8571 16.1871 24.1039C16.0807 23.9134 15.9743 23.723 15.8678 23.5326C15.7569 23.334 15.6469 23.1351 15.537 22.936C15.1704 22.2742 14.789 21.6208 14.4097 20.9662C14.2747 20.732 14.1397 20.4977 14.0047 20.2634C13.8366 19.9717 13.6679 19.6822 13.4895 19.3966C13.3168 19.0947 13.296 18.899 13.2955 18.5532C13.2934 18.4553 13.2912 18.3575 13.2891 18.2566C13.3637 17.8181 13.478 17.4965 13.7808 17.1723C14.0961 16.9754 14.4199 16.8132 14.7537 16.6496C15.8899 16.1278 15.8899 16.1278 16.6707 15.2065C16.7656 14.8065 16.7423 14.4816 16.5705 14.1073C16.0515 13.4258 15.1475 13.0756 14.3978 12.708C13.8129 12.4033 13.5499 12.2277 13.3433 11.5942C13.1405 10.5436 13.5855 9.81951 14.1226 8.94866C14.2022 8.81543 14.2814 8.68205 14.3605 8.54852C14.5225 8.27544 14.6859 8.00324 14.8505 7.73165C15.1562 7.22608 15.4519 6.71491 15.748 6.20369C15.9376 5.87649 16.128 5.54984 16.3191 5.22351C16.3704 5.13589 16.4217 5.04827 16.4745 4.958C16.5488 4.83205 16.5488 4.83205 16.6246 4.70355C16.6782 4.60781 16.7319 4.51206 16.7872 4.41342C17.026 4.04298 17.31 3.85986 17.7183 3.71917C18.7439 3.54431 19.3389 3.91744 20.1656 4.47796C20.8745 4.9604 20.8745 4.9604 21.687 5.13325C22.1578 4.98809 22.4934 4.70124 22.8589 4.37542C22.9311 4.37542 23.0033 4.37542 23.0777 4.37542C23.0743 4.22651 23.0743 4.22651 23.0708 4.07459C23.0633 3.70399 23.0578 3.33348 23.0537 2.96284C23.0515 2.80286 23.0485 2.64289 23.0447 2.48294C23.0393 2.25213 23.0369 2.02144 23.035 1.79058C23.0315 1.58267 23.0315 1.58267 23.028 1.37055C23.0876 0.907598 23.2166 0.684445 23.5152 0.328547C23.9589 -0.00322023 24.2883 -0.0414008 24.8366 -0.0437712ZM26.3589 3.28167C26.3403 4.18796 26.3403 4.18796 26.3264 5.09432C26.2903 6.319 26.2903 6.319 25.8121 6.78167C25.4959 6.97016 25.1671 7.11202 24.8277 7.25335C24.0216 7.60911 23.3486 8.00182 22.6675 8.55902C22.2659 8.87144 21.8866 8.90953 21.3935 8.90551C20.8362 8.81598 20.3792 8.49672 19.9058 8.20355C19.3957 7.8736 19.3957 7.8736 18.8121 7.76605C18.6318 7.98805 18.6318 7.98805 18.469 8.28088C18.3744 8.4415 18.3744 8.4415 18.2778 8.60537C18.2127 8.71866 18.1477 8.83194 18.0806 8.94866C18.0143 9.06068 17.948 9.1727 17.8796 9.28811C17.5142 9.858 17.5142 9.858 17.3902 10.5004C17.5912 10.6592 17.5912 10.6592 17.8572 10.7965C17.9544 10.8517 18.0516 10.9069 18.1518 10.9638C18.358 11.0779 18.5645 11.1915 18.7713 11.3047C18.8689 11.3603 18.9665 11.416 19.0671 11.4733C19.1571 11.5227 19.247 11.5722 19.3396 11.6231C19.7073 11.9163 19.8744 12.2302 19.9362 12.6996C19.951 12.9707 19.9542 13.2397 19.9532 13.5112C19.9538 13.6104 19.9544 13.7097 19.955 13.8119C19.9557 14.021 19.9555 14.2302 19.9546 14.4393C19.9537 14.7578 19.9568 15.0762 19.9603 15.3947C19.9605 15.5986 19.9604 15.8025 19.9601 16.0063C19.9613 16.1008 19.9625 16.1953 19.9638 16.2926C19.9565 16.9314 19.8474 17.3088 19.4683 17.8285C19.2279 18.0259 19.2279 18.0259 18.971 18.1665C18.8787 18.2183 18.7863 18.2701 18.6912 18.3235C18.548 18.4 18.548 18.4 18.4019 18.478C18.2562 18.5589 18.2562 18.5589 18.1075 18.6414C17.8693 18.7733 17.6303 18.9033 17.3902 19.0317C17.4629 19.4041 17.6077 19.687 17.7974 20.0143C17.8562 20.1166 17.9151 20.2188 17.9757 20.3241C18.0683 20.4829 18.0683 20.4829 18.1627 20.645C18.2558 20.8063 18.2558 20.8063 18.3509 20.9709C18.5041 21.2363 18.6579 21.5013 18.8121 21.766C19.3099 21.6823 19.6651 21.4924 20.0836 21.2192C20.7666 20.7792 21.2753 20.5761 22.0933 20.6723C22.4671 20.8422 22.7575 21.0338 23.0841 21.2786C23.7435 21.7645 24.4129 22.1095 25.1679 22.4205C25.7033 22.6532 26.0101 22.8481 26.2496 23.4067C26.3152 23.8946 26.3256 24.3777 26.3316 24.8696C26.3406 25.3252 26.3497 25.7809 26.3589 26.2504C27.4418 26.2504 28.5246 26.2504 29.6402 26.2504C29.6588 25.3441 29.6588 25.3441 29.6728 24.4378C29.7088 23.2131 29.7088 23.2131 30.1871 22.7504C30.5033 22.5619 30.832 22.4201 31.1714 22.2787C31.9776 21.923 32.6506 21.5303 33.3316 20.9731C33.7333 20.6607 34.1126 20.6226 34.6057 20.6266C35.163 20.7161 35.62 21.0354 36.0933 21.3285C36.6034 21.6585 36.6034 21.6585 37.1871 21.766C37.3673 21.544 37.3673 21.544 37.5302 21.2512C37.5932 21.1441 37.6563 21.0371 37.7213 20.9267C37.7864 20.8134 37.8515 20.7001 37.9185 20.5834C37.9849 20.4714 38.0512 20.3594 38.1195 20.244C38.4849 19.6741 38.4849 19.6741 38.6089 19.0317C38.4079 18.8729 38.4079 18.8729 38.142 18.7356C38.0448 18.6804 37.9475 18.6252 37.8474 18.5683C37.6411 18.4542 37.4346 18.3406 37.2279 18.2274C37.1302 18.1718 37.0326 18.1161 36.932 18.0588C36.8421 18.0094 36.7522 17.9599 36.6595 17.9089C36.2918 17.6158 36.1248 17.3019 36.063 16.8325C36.0482 16.5614 36.045 16.2924 36.0459 16.0209C36.0453 15.9216 36.0448 15.8224 36.0442 15.7202C36.0435 15.5111 36.0436 15.3019 36.0445 15.0928C36.0455 14.7742 36.0423 14.4559 36.0388 14.1374C36.0387 13.9335 36.0387 13.7296 36.0391 13.5258C36.0378 13.4313 36.0366 13.3368 36.0353 13.2395C36.0426 12.6007 36.1518 12.2233 36.5308 11.7035C36.7713 11.5062 36.7713 11.5062 37.0281 11.3656C37.1205 11.3138 37.2128 11.262 37.308 11.2086C37.4034 11.1576 37.4989 11.1066 37.5972 11.0541C37.6944 11.0002 37.7915 10.9463 37.8916 10.8907C38.1298 10.7588 38.3688 10.6288 38.6089 10.5004C38.5362 10.128 38.3914 9.84514 38.2018 9.51776C38.1429 9.41554 38.0841 9.31332 38.0234 9.208C37.9617 9.10212 37.9 8.99623 37.8365 8.88714C37.7744 8.77956 37.7123 8.67199 37.6483 8.56115C37.495 8.29584 37.3413 8.03082 37.1871 7.76605C36.7338 7.86393 36.3722 8.07823 35.9771 8.31292C35.2674 8.73185 34.737 8.95758 33.9058 8.8598C33.5321 8.68991 33.2416 8.49831 32.915 8.25353C32.2556 7.76761 31.5863 7.42261 30.8312 7.11161C30.2971 6.87939 30.0182 6.66612 29.7496 6.12542C29.5977 5.54618 29.6047 4.93096 29.5787 4.33441C29.555 3.8133 29.555 3.8133 29.5308 3.28167C28.4841 3.28167 27.4374 3.28167 26.3589 3.28167Z" fill="#703391"/>
<path d="M30.7975 10.5706C31.8338 11.3306 32.6516 12.391 32.9218 13.6719C33.0636 15.204 32.9397 16.5481 32.0058 17.8214C31.2128 18.7518 30.1258 19.592 28.8658 19.7087C27.2749 19.7663 25.9734 19.6485 24.7101 18.572C23.8208 17.7388 23.0935 16.6394 23.0481 15.3882C23.0025 13.7639 23.2428 12.4907 24.3906 11.2657C26.0332 9.52981 28.8189 9.3084 30.7975 10.5706ZM26.5917 13.9044C26.4069 14.3767 26.3965 14.8124 26.4687 15.3126C26.7053 15.7945 26.9496 16.0999 27.4531 16.2969C28.0047 16.3718 28.4189 16.3597 28.9228 16.1124C29.2902 15.7808 29.4977 15.5596 29.5658 15.0575C29.5949 14.4322 29.5277 14.0435 29.0937 13.5626C28.674 13.1923 28.2587 13.1783 27.7197 13.196C27.2097 13.2695 26.9224 13.5296 26.5917 13.9044Z" fill="#703391"/>
</g>
<defs>
<clipPath id="clip0_3265_18532">
<rect width="56" height="56" fill="white"/>
</clipPath>
</defs>
</svg>
