<svg width="54" height="54" viewBox="0 0 54 54" fill="none" xmlns="http://www.w3.org/2000/svg">
<g clip-path="url(#clip0_2483_266)">
<path d="M28.5829 0.283446C29.1614 0.664628 29.674 1.09298 30.1791 1.56722C34.1083 5.2525 39.362 6.94707 44.666 7.22296C44.7434 7.22709 44.8208 7.23123 44.9005 7.23548C45.2831 7.25555 45.6655 7.27324 46.0484 7.2869C47.2556 7.33779 48.1541 7.565 49.045 8.40701C49.7093 9.17481 49.8986 9.98818 49.9201 10.9753C49.9223 11.0629 49.9245 11.1504 49.9268 11.2406C49.9339 11.5367 49.9401 11.8328 49.946 12.1289C49.9482 12.2324 49.9504 12.3358 49.9526 12.4424C50.1469 22.0258 50.1469 22.0258 49.7812 25.7344C49.7709 25.8402 49.7709 25.8402 49.7603 25.9483C49.0296 33.3305 46.7866 40.346 41.5547 45.7734C41.4983 45.8321 41.442 45.8907 41.384 45.9512C40.6387 46.723 39.8718 47.4343 39.0234 48.0938C38.868 48.2184 38.868 48.2184 38.7095 48.3455C35.7234 50.7207 30.3668 54.4012 26.4254 54.0433C20.6806 53.12 14.1312 48.3127 10.6523 43.7695C10.6081 43.7122 10.5638 43.655 10.5182 43.5959C6.26369 38.0604 4.54135 31.2415 4.11328 24.3633C4.10878 24.2934 4.10427 24.2236 4.09963 24.1516C3.98677 22.3446 3.99105 20.537 3.99463 18.7273C3.99487 18.5689 3.9951 18.4104 3.99534 18.252C3.99701 17.2319 4.00097 16.2118 4.00664 15.1917C4.00777 14.9851 4.00879 14.7786 4.00981 14.572C4.01349 13.8751 4.01948 13.1784 4.02991 12.4816C4.03272 12.2798 4.03488 12.0781 4.03634 11.8763C4.0477 10.4657 4.11882 9.29055 5.14448 8.22079C5.86557 7.58969 6.54993 7.38197 7.49034 7.33749C7.63985 7.32995 7.78936 7.32235 7.93887 7.31471C8.05607 7.30886 8.05607 7.30886 8.17564 7.3029C14.011 7.00474 19.4324 5.55473 23.8359 1.5227C25.138 0.340857 26.8266 -0.670878 28.5829 0.283446ZM26.3606 3.76392C24.0598 5.9268 21.299 7.63436 18.3516 8.75391C18.267 8.78611 18.1824 8.81831 18.0952 8.8515C14.9117 10.0388 11.5497 10.4614 8.17022 10.5302C7.89996 10.5475 7.64687 10.5934 7.38281 10.6523C7.29356 13.2471 7.26325 15.8419 7.25818 18.4381C7.25758 18.6704 7.25656 18.9028 7.2554 19.1351C7.21308 28.1946 8.68846 37.3001 15.293 43.9805C18.1677 46.8561 21.8308 48.8092 25.563 50.335C25.6613 50.3766 25.7596 50.4183 25.8609 50.4613C26.9223 50.8814 27.668 50.6585 28.6875 50.2229C28.7871 50.1811 28.8867 50.1392 28.9893 50.0961C32.245 48.7092 35.3791 47.0605 37.9688 44.6133C38.1132 44.4874 38.2582 44.3622 38.4038 44.2376C39.2268 43.5168 39.9267 42.7281 40.6055 41.8711C40.7274 41.722 40.7274 41.722 40.8518 41.5699C45.9432 35.2016 46.7825 26.7729 46.7435 18.9062C46.7424 18.6705 46.7418 18.4348 46.7413 18.1991C46.7364 15.6826 46.7037 13.1674 46.6172 10.6523C46.2651 10.5739 45.9369 10.5332 45.5765 10.5283C38.7968 10.3797 32.7386 8.30303 27.6777 3.76433C27.602 3.69676 27.5263 3.62919 27.4482 3.55957C27.3857 3.50247 27.3232 3.44537 27.2587 3.38653C26.8702 3.08995 26.6445 3.4902 26.3606 3.76392Z" fill="#703391"/>
<path d="M24.2808 14.9596C24.4799 14.958 24.4799 14.958 24.683 14.9565C24.8276 14.956 24.9722 14.9555 25.1168 14.9551C25.2658 14.9545 25.4147 14.9539 25.5637 14.9533C25.8758 14.9522 26.188 14.9516 26.5002 14.9512C26.8988 14.9506 27.2973 14.9481 27.6959 14.9451C28.0037 14.9431 28.3114 14.9426 28.6191 14.9424C28.766 14.9421 28.9129 14.9413 29.0598 14.9399C30.7009 14.9254 30.7009 14.9254 31.4165 15.5632C31.7354 15.929 31.7592 16.1024 31.7581 16.578C31.758 16.692 31.758 16.806 31.758 16.9235C31.7575 17.047 31.7569 17.1705 31.7564 17.2977C31.7562 17.4869 31.7562 17.4869 31.7559 17.6799C31.7553 18.0839 31.754 18.488 31.7527 18.8921C31.7521 19.1655 31.7517 19.4389 31.7512 19.7124C31.7501 20.3838 31.7483 21.0552 31.7461 21.7266C31.816 21.7256 31.886 21.7247 31.958 21.7237C32.6869 21.7144 33.4157 21.708 34.1446 21.7034C34.4165 21.7013 34.6885 21.6984 34.9604 21.6947C35.3515 21.6896 35.7426 21.6872 36.1337 21.6854C36.2551 21.6832 36.3764 21.681 36.5014 21.6788C36.9941 21.6786 37.3574 21.6902 37.8132 21.8873C38.4856 22.5599 38.5456 23.1928 38.5547 24.1274C38.5539 24.2742 38.5531 24.4209 38.5521 24.5676C38.5524 24.7205 38.5528 24.8733 38.5533 25.0261C38.554 25.3453 38.5531 25.6644 38.5511 25.9835C38.5487 26.3906 38.5501 26.7976 38.5526 27.2048C38.5541 27.52 38.5536 27.8352 38.5525 28.1505C38.5523 28.3005 38.5526 28.4505 38.5536 28.6006C38.5618 30.1903 38.5618 30.1903 38.0742 30.7969C37.6889 31.1822 37.3726 31.2444 36.8467 31.2666C36.6091 31.2666 36.3714 31.2642 36.1337 31.2599C36.0082 31.2593 35.8827 31.2588 35.7534 31.2581C35.3536 31.2558 34.9539 31.2505 34.5542 31.2451C34.2827 31.243 34.0112 31.2411 33.7397 31.2393C33.0751 31.2347 32.4106 31.2276 31.7461 31.2187C31.7473 31.2885 31.7484 31.3582 31.7496 31.43C31.7613 32.1571 31.7693 32.8843 31.775 33.6115C31.7777 33.8827 31.7813 34.1539 31.7859 34.4251C31.7923 34.8154 31.7953 35.2057 31.7976 35.5961C31.8003 35.7169 31.803 35.8376 31.8058 35.9621C31.806 36.571 31.7931 37.0426 31.3773 37.5135C30.6758 38.128 29.797 38.0169 28.9153 38.0145C28.7623 38.015 28.6093 38.0155 28.4563 38.0162C28.1366 38.0171 27.8168 38.0168 27.4971 38.0158C27.0891 38.0146 26.6813 38.0167 26.2733 38.0198C25.9576 38.0217 25.642 38.0217 25.3262 38.0211C25.1759 38.0211 25.0256 38.0217 24.8753 38.023C23.2819 38.035 23.2819 38.035 22.6758 37.5469C22.2904 37.1616 22.2282 36.8453 22.206 36.3194C22.2061 36.0817 22.2084 35.844 22.2127 35.6064C22.2133 35.4809 22.2139 35.3554 22.2145 35.2261C22.2169 34.8263 22.2222 34.4266 22.2275 34.0269C22.2296 33.7554 22.2316 33.4839 22.2333 33.2124C22.2379 32.5478 22.245 31.8833 22.2539 31.2187C22.1842 31.2199 22.1145 31.2211 22.0426 31.2223C21.3155 31.234 20.5884 31.2419 19.8611 31.2477C19.5899 31.2504 19.3188 31.254 19.0476 31.2585C18.6572 31.2649 18.2669 31.2679 17.8765 31.2702C17.6954 31.2743 17.6954 31.2743 17.5106 31.2785C16.9017 31.2787 16.4301 31.2658 15.9592 30.8499C15.3447 30.1485 15.4557 29.2697 15.4582 28.388C15.4577 28.235 15.4571 28.082 15.4565 27.929C15.4555 27.6092 15.4558 27.2895 15.4568 26.9697C15.4581 26.5618 15.4559 26.1539 15.4529 25.746C15.4509 25.4303 15.4509 25.1146 15.4515 24.7989C15.4516 24.6486 15.4509 24.4983 15.4496 24.348C15.4376 22.7546 15.4376 22.7546 15.9258 22.1484C16.311 21.7631 16.6273 21.7009 17.1532 21.6787C17.3909 21.6787 17.6286 21.6811 17.8662 21.6854C17.9917 21.686 18.1173 21.6866 18.2466 21.6872C18.6464 21.6895 19.046 21.6948 19.4458 21.7002C19.7173 21.7023 19.9888 21.7042 20.2603 21.706C20.9249 21.7106 21.5894 21.7177 22.2539 21.7266C22.253 21.6566 22.252 21.5867 22.2511 21.5146C22.2417 20.7858 22.2354 20.0569 22.2307 19.328C22.2286 19.0561 22.2257 18.7842 22.2221 18.5123C22.2169 18.1211 22.2146 17.7301 22.2127 17.3389C22.2105 17.2176 22.2083 17.0963 22.2061 16.9713C22.2059 16.3094 22.2216 15.8966 22.6758 15.3984C23.2015 15.0173 23.642 14.9635 24.2808 14.9596ZM25.5234 18.2461C25.5195 18.617 25.5155 18.9879 25.5115 19.37C25.5066 19.7309 25.5012 20.0919 25.4957 20.4528C25.4922 20.7028 25.4893 20.9528 25.4869 21.2028C25.4833 21.5631 25.4778 21.9233 25.4719 22.2836C25.4709 22.4501 25.4709 22.4501 25.4699 22.6199C25.457 23.2716 25.3865 23.7732 25.1016 24.3633C24.5865 24.7906 24.168 24.9007 23.5149 24.9123C23.4093 24.9144 23.3038 24.9165 23.195 24.9187C23.0253 24.9213 23.0253 24.9213 22.8521 24.924C22.7356 24.9262 22.6192 24.9284 22.4992 24.9306C22.1274 24.9375 21.7556 24.9437 21.3838 24.9499C21.1316 24.9545 20.8795 24.9591 20.6274 24.9638C20.0094 24.9751 19.3914 24.9856 18.7734 24.9961C18.7734 25.9706 18.7734 26.9452 18.7734 27.9492C19.3202 27.957 19.3202 27.957 19.878 27.9649C20.2323 27.9706 20.5866 27.9766 20.9409 27.9827C21.1865 27.9867 21.4321 27.9904 21.6777 27.9937C22.0314 27.9985 22.3851 28.0047 22.7388 28.011C22.848 28.0122 22.9573 28.0135 23.0698 28.0147C24.3997 28.0417 24.3997 28.0417 24.9763 28.5029C25.4911 29.1501 25.453 29.8499 25.4616 30.6411C25.4637 30.7573 25.4657 30.8734 25.4678 30.9931C25.4741 31.3628 25.479 31.7324 25.4839 32.102C25.4879 32.3532 25.492 32.6044 25.4962 32.8556C25.5065 33.4701 25.5149 34.0846 25.5234 34.6992C26.498 34.6992 27.4725 34.6992 28.4766 34.6992C28.4805 34.3271 28.4844 33.955 28.4885 33.5716C28.4934 33.21 28.4988 32.8483 28.5042 32.4867C28.5077 32.236 28.5107 31.9853 28.5131 31.7345C28.5166 31.3735 28.5222 31.0125 28.528 30.6514C28.5287 30.5399 28.5294 30.4284 28.5301 30.3134C28.5447 29.5749 28.6273 29.0458 29.083 28.4436C29.7163 27.9686 30.5044 28.0195 31.2612 28.011C31.3748 28.009 31.4885 28.0069 31.6056 28.0048C31.9666 27.9985 32.3277 27.9936 32.6887 27.9888C32.9343 27.9847 33.1799 27.9806 33.4255 27.9764C34.0259 27.9661 34.6262 27.9577 35.2266 27.9492C35.2266 26.9747 35.2266 26.0002 35.2266 24.9961C34.8557 24.9921 34.4848 24.9882 34.1026 24.9841C33.7417 24.9793 33.3808 24.9739 33.0198 24.9684C32.7698 24.9649 32.5198 24.962 32.2698 24.9596C31.9095 24.956 31.5493 24.9505 31.1891 24.9446C31.0781 24.9439 30.9671 24.9432 30.8527 24.9426C30.201 24.9297 29.6994 24.8592 29.1094 24.5742C28.682 24.0592 28.5719 23.6406 28.5604 22.9876C28.5572 22.8292 28.5572 22.8292 28.554 22.6677C28.5522 22.5545 28.5505 22.4414 28.5486 22.3248C28.5465 22.2083 28.5443 22.0919 28.542 21.9719C28.5351 21.6001 28.5289 21.2283 28.5227 20.8564C28.5181 20.6043 28.5135 20.3522 28.5089 20.1C28.4975 19.4821 28.4871 18.8641 28.4766 18.2461C27.502 18.2461 26.5275 18.2461 25.5234 18.2461Z" fill="#703391"/>
</g>
<defs>
<clipPath id="clip0_2483_266">
<rect width="54" height="54" fill="white"/>
</clipPath>
</defs>
</svg>
