<svg width="47" height="54" viewBox="0 0 47 54" fill="none" xmlns="http://www.w3.org/2000/svg">
<path d="M24.5829 0.283446C25.1614 0.664628 25.674 1.09298 26.1791 1.56722C30.1083 5.2525 35.362 6.94707 40.666 7.22296C40.7434 7.22709 40.8208 7.23123 40.9005 7.23548C41.2831 7.25555 41.6655 7.27324 42.0484 7.2869C43.2556 7.33779 44.1541 7.565 45.045 8.40701C45.7093 9.17481 45.8986 9.98818 45.9201 10.9753C45.9223 11.0629 45.9245 11.1504 45.9268 11.2406C45.9339 11.5367 45.9401 11.8328 45.946 12.1289C45.9482 12.2324 45.9504 12.3358 45.9526 12.4424C46.1469 22.0258 46.1469 22.0258 45.7812 25.7344C45.7709 25.8402 45.7709 25.8402 45.7603 25.9483C45.0296 33.3305 42.7866 40.346 37.5547 45.7734C37.4983 45.8321 37.442 45.8907 37.384 45.9512C36.6387 46.723 35.8718 47.4343 35.0234 48.0938C34.868 48.2184 34.868 48.2184 34.7095 48.3455C31.7234 50.7207 26.3668 54.4012 22.4254 54.0433C16.6806 53.12 10.1312 48.3127 6.65234 43.7695C6.60809 43.7122 6.56384 43.655 6.51824 43.5959C2.26369 38.0604 0.541351 31.2415 0.113281 24.3633C0.108777 24.2934 0.104274 24.2236 0.0996338 24.1516C-0.013233 22.3446 -0.00894537 20.537 -0.00537147 18.7273C-0.0051313 18.5689 -0.0048953 18.4104 -0.00466337 18.252C-0.00299177 17.2319 0.000967372 16.2118 0.00663571 15.1917C0.00776531 14.9851 0.00878879 14.7786 0.00980769 14.572C0.0134867 13.8751 0.0194828 13.1784 0.0299114 12.4816C0.0327203 12.2798 0.0348793 12.0781 0.0363358 11.8763C0.0477047 10.4657 0.118822 9.29055 1.14448 8.22079C1.86557 7.58969 2.54993 7.38197 3.49034 7.33749C3.63985 7.32995 3.78936 7.32235 3.93887 7.31471C4.05607 7.30886 4.05607 7.30886 4.17564 7.3029C10.011 7.00474 15.4324 5.55473 19.8359 1.5227C21.138 0.340857 22.8266 -0.670878 24.5829 0.283446ZM22.3606 3.76392C20.0598 5.9268 17.299 7.63436 14.3516 8.75391C14.267 8.78611 14.1824 8.81831 14.0952 8.8515C10.9117 10.0388 7.54965 10.4614 4.17022 10.5302C3.89996 10.5475 3.64687 10.5934 3.38281 10.6523C3.29356 13.2471 3.26325 15.8419 3.25818 18.4381C3.25758 18.6704 3.25656 18.9028 3.2554 19.1351C3.21308 28.1946 4.68846 37.3001 11.293 43.9805C14.1677 46.8561 17.8308 48.8092 21.563 50.335C21.6613 50.3766 21.7596 50.4183 21.8609 50.4613C22.9223 50.8814 23.668 50.6585 24.6875 50.2229C24.7871 50.1811 24.8867 50.1392 24.9893 50.0961C28.245 48.7092 31.3791 47.0605 33.9688 44.6133C34.1132 44.4874 34.2582 44.3622 34.4038 44.2376C35.2268 43.5168 35.9267 42.7281 36.6055 41.8711C36.7274 41.722 36.7274 41.722 36.8518 41.5699C41.9432 35.2016 42.7825 26.7729 42.7435 18.9062C42.7424 18.6705 42.7418 18.4348 42.7413 18.1991C42.7364 15.6826 42.7037 13.1674 42.6172 10.6523C42.2651 10.5739 41.9369 10.5332 41.5765 10.5283C34.7968 10.3797 28.7386 8.30303 23.6777 3.76433C23.602 3.69676 23.5263 3.62919 23.4482 3.55957C23.3857 3.50247 23.3232 3.44537 23.2587 3.38653C22.8702 3.08995 22.6445 3.4902 22.3606 3.76392Z" fill="#703391"/>
</svg>
