<svg width="24" height="24" viewBox="0 0 24 24" fill="none" xmlns="http://www.w3.org/2000/svg">
<path d="M14.2 6.28571C14.2 6.475 14.123 6.65714 13.9855 6.79106C13.848 6.92499 13.661 6.99999 13.4667 6.99999H4.66664C4.26146 6.99999 3.9333 6.68036 3.9333 6.2857C3.9333 5.89105 4.26146 5.57141 4.66664 5.57141H13.4667C13.661 5.57141 13.848 5.64641 13.9855 5.78034C14.123 5.91427 14.2 6.09643 14.2 6.28571ZM9.79997 8.42858H4.66663C4.26145 8.42858 3.93329 8.74821 3.93329 9.14287C3.93329 9.53752 4.26145 9.85716 4.66663 9.85716H9.79997C10.2051 9.85716 10.5333 9.53752 10.5333 9.14287C10.5333 8.74821 10.2051 8.42858 9.79997 8.42858ZM19.3333 14.1429H14.2C13.7948 14.1429 13.4666 14.4625 13.4666 14.8572C13.4666 15.2518 13.7948 15.5715 14.2 15.5715H19.3333C19.7385 15.5715 20.0667 15.2518 20.0667 14.8572C20.0667 14.4625 19.7385 14.1429 19.3333 14.1429ZM23 9.85716V21.2858C23 21.5751 22.8212 21.8349 22.5472 21.9456C22.2731 22.0563 21.9578 21.9947 21.7478 21.7911L19.2444 19.3527C19.1069 19.2188 18.9199 19.1429 18.7256 19.1429H9.06668C7.85209 19.1429 6.86668 18.1831 6.86668 17V13.4286H5.27442C5.08008 13.4286 4.89308 13.5036 4.75559 13.6375L2.25216 16.0768C2.04224 16.2804 1.72691 16.342 1.45284 16.2313C1.17875 16.1206 1 15.8608 1 15.5715V4.14287C1 2.95982 1.98541 2 3.2 2H14.9334C16.148 2 17.1334 2.95982 17.1334 4.14287V7.71431H20.8C22.0146 7.71431 23 8.67411 23 9.85716ZM14.9333 12C15.1276 12 15.3147 11.925 15.4521 11.7911C15.5896 11.6572 15.6666 11.475 15.6666 11.2857V4.14285C15.6666 3.95357 15.5896 3.77142 15.4521 3.6375C15.3146 3.50357 15.1276 3.42857 14.9333 3.42857H3.19996C2.79478 3.42857 2.46662 3.74821 2.46662 4.14286V13.8474L3.71878 12.6277C4.13037 12.2242 4.69045 11.9983 5.27437 12L14.9333 12ZM21.5333 9.85716C21.5333 9.66787 21.4563 9.48573 21.3188 9.35181C21.1813 9.21788 20.9943 9.14288 20.8 9.14288H17.1333V11.2857H19.1234C19.5286 11.2857 19.8568 11.6054 19.8568 12C19.8568 12.3947 19.5286 12.7143 19.1234 12.7143H16.5613C16.1479 13.167 15.5557 13.4268 14.9333 13.4286H8.33331V17.0001C8.33331 17.1893 8.41031 17.3715 8.54781 17.5054C8.68531 17.6393 8.87231 17.7143 9.06664 17.7143H18.7255C19.3095 17.7125 19.8695 17.9384 20.2811 18.342L21.5333 19.5617L21.5333 9.85716Z" fill="#703391"/>
</svg>
