<svg viewBox="0 0 741 886" fill="none" xmlns="http://www.w3.org/2000/svg">
<g opacity="0.4" filter="url(#filter0_f_837_206)">
<path fill-rule="evenodd" clip-rule="evenodd" d="M500.061 486.051C512.998 538.107 558.676 593.558 531.56 639.841C504.99 685.193 436.473 678.685 384.166 683.866C341.947 688.048 301.107 681.039 261.207 666.62C222.556 652.653 184.844 634.88 159.368 602.633C133.189 569.496 112.164 527.745 118.507 485.994C124.586 445.979 176.208 430.101 191.287 392.541C215.204 332.969 174.505 241.205 229.844 208.672C280.556 178.86 340.14 242.594 387.875 276.971C423.716 302.783 445.931 340.41 466.814 379.329C484.873 412.985 490.848 448.984 500.061 486.051Z" fill="#1404CE"/>
</g>
<defs>
<filter id="filter0_f_837_206" x="-82.6329" y="0.949219" width="822.644" height="884.115" filterUnits="userSpaceOnUse" color-interpolation-filters="sRGB">
<feFlood flood-opacity="0" result="BackgroundImageFix"/>
<feBlend mode="normal" in="SourceGraphic" in2="BackgroundImageFix" result="shape"/>
<feGaussianBlur stdDeviation="100" result="effect1_foregroundBlur_837_206"/>
</filter>
</defs>
</svg>
