<svg width="56" height="56" viewBox="0 0 56 56" fill="none" xmlns="http://www.w3.org/2000/svg">
<path d="M53.8741 0H2.12593C0.954074 0 0 0.92 0 2.05V39.95C0 41.08 0.954074 42 2.12593 42H22.8148V52H15.3274C14.8504 52 14.4356 52.31 14.3215 52.76L13.803 54.76C13.637 55.39 14.1348 56 14.8089 56H41.1911C41.8652 56 42.363 55.39 42.197 54.76L41.6785 52.76C41.5644 52.31 41.1496 52 40.6726 52H33.1852V42H53.8741C55.0459 42 56 41.08 56 39.95V2.05C56 0.92 55.0459 0 53.8741 0ZM51.8519 38H4.14815V4H51.8519V38Z" fill="#703391"/>
<path d="M19.123 34.99C21.6533 34.99 23.7274 33 23.7274 30.56V16.95L37.3333 14.56V24.1C36.6074 23.64 35.7363 23.36 34.803 23.36C32.2726 23.36 30.1985 25.35 30.1985 27.8C30.1985 30.25 32.2726 32.23 34.803 32.23C37.3333 32.23 39.4074 30.24 39.4074 27.8V13.36V8.68C39.4074 8.18 39.1793 7.7 38.7748 7.38C38.3704 7.06 37.8518 6.94 37.3437 7.03L23.0844 9.53C22.2548 9.67 21.6533 10.37 21.6533 11.18V16.11V26.85C20.9274 26.39 20.0563 26.11 19.123 26.11C16.5822 26.11 14.5185 28.1 14.5185 30.55C14.5185 33 16.5822 34.98 19.123 34.98V34.99Z" fill="#703391"/>
</svg>
