<svg width="86" height="86" viewBox="0 0 86 86" fill="none" xmlns="http://www.w3.org/2000/svg">
<circle cx="43" cy="43" r="43" fill="#703391" fill-opacity="0.1"/>
<path d="M29.9408 42.1773H31.5385C32.2965 42.1773 32.9867 42.4857 33.4854 42.9833C33.984 43.4808 34.2932 44.1693 34.2932 44.9256V57.5288C34.2932 58.2811 33.982 58.9696 33.4834 59.4691C32.9867 59.9687 32.2965 60.2771 31.5385 60.2771H29.1868C27.6349 60.2771 26.2227 59.6443 25.2014 58.6233C24.7706 58.1935 24.4095 57.6959 24.1343 57.1467C22.7999 56.9954 21.5991 56.3885 20.6955 55.485C19.6502 54.4401 19 52.9993 19 51.4152C19 49.8569 19.6303 48.436 20.6456 47.3952C21.5133 46.5096 22.6642 45.8966 23.9508 45.7096C24.2381 45.0011 24.6669 44.3623 25.1995 43.8309C25.9296 43.1005 26.8591 42.5692 27.8963 42.3244V40.79C27.8963 36.6447 29.5957 32.8775 32.3324 30.1447L32.3903 30.091C35.123 27.3924 38.8769 25.7188 43.0018 25.7188C47.1548 25.7188 50.9325 27.4143 53.6696 30.1447L53.7234 30.2025C56.4282 32.9289 58.1057 36.6742 58.1057 40.7897V42.3241C59.1429 42.5688 60.0705 43.0982 60.8025 43.8286C61.3371 44.3619 61.7639 45.0027 62.0512 45.7112C63.3377 45.8983 64.4886 46.5092 65.3544 47.3968C66.3717 48.4377 67 49.8586 67 51.4168C67 53.001 66.3498 54.4398 65.3045 55.4866C64.4029 56.3881 63.2021 56.9971 61.8657 57.1483C61.5904 57.6956 61.2294 58.1951 60.7986 58.625C59.7773 59.6439 58.3651 60.2787 56.8132 60.2787H54.4614C53.7035 60.2787 53.0153 59.9703 52.5166 59.4728C52.02 58.9713 51.7088 58.2847 51.7088 57.5324V44.9292C51.7088 44.173 52.018 43.4844 52.5166 42.9869C53.0153 42.4893 53.7054 42.1809 54.4614 42.1809H56.0592V40.7978C56.0592 37.2355 54.6091 33.9974 52.2693 31.6391L52.2214 31.5953C49.8537 29.2331 46.5886 27.7664 42.9983 27.7664C39.4278 27.7664 36.1823 29.2132 33.8185 31.5476L33.7747 31.5953C31.407 33.9576 29.9369 37.2153 29.9369 40.7994V42.1825L29.9408 42.1773ZM41.3944 43.7355C40.8299 43.7355 40.3731 43.2798 40.3731 42.7166C40.3731 42.1534 40.8299 41.6977 41.3944 41.6977H44.6118C45.1763 41.6977 45.6331 42.1534 45.6331 42.7166C45.6331 43.2798 45.1763 43.7355 44.6118 43.7355H41.3944ZM41.3944 37.2556C40.8299 37.2556 40.3731 36.7999 40.3731 36.2367C40.3731 35.6735 40.8299 35.2177 41.3944 35.2177H44.6118C45.1763 35.2177 45.6331 35.6735 45.6331 36.2367C45.6331 36.7999 45.1763 37.2556 44.6118 37.2556H41.3944ZM38.9828 40.4955C38.4183 40.4955 37.9616 40.0398 37.9616 39.4766C37.9616 38.9134 38.4183 38.4577 38.9828 38.4577H47.0254C47.5899 38.4577 48.0466 38.9134 48.0466 39.4766C48.0466 40.0398 47.5899 40.4955 47.0254 40.4955H38.9828ZM43.0041 30.754C45.3339 30.754 47.4442 31.6973 48.9724 33.2218C50.5004 34.7462 51.4459 36.8517 51.4459 39.1764C51.4459 41.5011 50.5004 43.6064 48.9724 45.1311C47.4445 46.6555 45.3341 47.5988 43.0041 47.5988C42.8565 47.5988 42.4955 47.7998 42.0427 48.0526C40.9935 48.6416 39.5972 49.4218 37.4988 49.4496C36.9363 49.4556 36.4755 49.0058 36.4696 48.4466C36.4676 48.3331 36.4855 48.2237 36.5194 48.1202C36.699 47.561 37.0002 46.5381 37.0759 45.7361C37.1039 45.4336 37.1737 45.2624 37.1537 45.2425C36.3419 44.4624 35.6836 43.5191 35.2368 42.4703C34.804 41.4553 34.5646 40.3409 34.5646 39.1787C34.5646 36.8542 35.5101 34.7487 37.0381 33.224C38.566 31.6996 40.6764 30.7563 43.0064 30.7563L43.0041 30.754ZM47.528 34.6626C46.3711 33.5083 44.7714 32.7939 43.0041 32.7939C41.2368 32.7939 39.6371 33.5083 38.4802 34.6626C37.3233 35.8168 36.6071 37.4129 36.6071 39.1762C36.6071 40.0657 36.7887 40.9095 37.1118 41.6717C37.4529 42.4698 37.9515 43.1862 38.5659 43.7773C39.0706 44.2609 39.1843 45.0589 39.1025 45.9266C39.0626 46.3485 38.9788 46.7982 38.8811 47.2261C39.7608 46.9953 40.4689 46.6012 41.0473 46.2769C41.7674 45.8788 42.3379 45.5584 43.0041 45.5584C44.7714 45.5584 46.3711 44.844 47.528 43.6897C48.6849 42.5354 49.4011 40.9394 49.4011 39.1761C49.4011 37.4129 48.685 35.8168 47.528 34.6626ZM62.4621 47.897V54.6475C62.4621 54.747 62.4601 54.8465 62.4542 54.944C62.9907 54.7549 63.4715 54.4484 63.8664 54.0544C64.5426 53.3798 64.9614 52.4444 64.9614 51.4195C64.9614 50.4105 64.5545 49.4891 63.8983 48.8164C63.4994 48.4084 63.0107 48.09 62.4621 47.897ZM23.5541 54.946C23.5481 54.8465 23.5461 54.749 23.5461 54.6495V47.899C22.9996 48.0921 22.5089 48.4105 22.11 48.8185C21.4537 49.4911 21.0468 50.4106 21.0468 51.4215C21.0468 52.4484 21.4677 53.3818 22.1419 54.0565C22.5368 54.4505 23.0175 54.7589 23.5541 54.946ZM56.8196 44.2171H54.4679C54.2724 44.2171 54.0948 44.2987 53.9652 44.4261C53.8375 44.5535 53.7558 44.7326 53.7558 44.9276V57.5308C53.7558 57.7278 53.8355 57.9049 53.9612 58.0323C54.0928 58.1597 54.2724 58.2413 54.4659 58.2413H56.8176C57.807 58.2413 58.7085 57.8373 59.3588 57.1865C60.0111 56.5358 60.416 55.6362 60.416 54.6491V47.809C60.416 46.8199 60.0111 45.9204 59.3608 45.2696C58.7066 44.6209 57.807 44.2169 56.8176 44.2169L56.8196 44.2171ZM31.541 44.2171H29.1893C28.1999 44.2171 27.2983 44.6211 26.648 45.2719C25.9958 45.9206 25.5908 46.8202 25.5908 47.8093V54.6494C25.5908 55.6365 25.9958 56.536 26.648 57.1868C27.3003 57.8376 28.1999 58.2415 29.1893 58.2415H31.541C31.7365 58.2415 31.914 58.1599 32.0437 58.0326C32.1733 57.9072 32.2531 57.7281 32.2531 57.5311V44.9279C32.2531 44.7328 32.1713 44.5557 32.0437 44.4264C31.916 44.299 31.7365 44.2171 31.541 44.2171Z" fill="#703391" stroke="#703391" stroke-width="0.5"/>
</svg>
