<svg width="86" height="86" viewBox="0 0 86 86" fill="none" xmlns="http://www.w3.org/2000/svg">
<circle cx="43" cy="43" r="43" fill="#703391" fill-opacity="0.1"/>
<g clip-path="url(#clip0_3228_13497)">
<path d="M42.4888 19.7448C42.7826 19.8759 42.7826 19.8759 43.0938 19.9371C43.3516 19.8368 43.3516 19.8368 43.627 19.6851C45.5534 18.772 47.925 18.6624 49.9375 19.3746C50.0345 19.4075 50.1316 19.4403 50.2316 19.4742C52.1814 20.2083 53.7344 21.6845 54.7188 23.4996C54.7869 23.7237 54.7869 23.7237 54.8125 23.8746C54.8853 23.8827 54.958 23.8908 55.033 23.8991C57.2577 24.1885 59.209 25.2966 60.6133 27.0387C61.8789 28.6866 62.5581 30.777 62.3373 32.8522C62.2469 33.6069 62.2469 33.6069 62.4879 34.3046C62.7259 34.5599 62.7259 34.5599 62.9904 34.7913C64.2008 35.9079 64.8514 37.9248 64.9493 39.5383C65.0199 41.5549 64.6351 43.4857 63.4375 45.1558C63.3409 45.2561 63.2423 45.3545 63.1423 45.4514C62.4916 46.0724 62.4916 46.0724 62.2678 46.9126C62.2853 47.3145 62.3369 47.7124 62.3857 48.1116C62.5401 49.856 61.777 51.913 60.7129 53.2594C60.5907 53.4026 60.4677 53.5453 60.3438 53.6871C60.2977 53.7455 60.2517 53.8038 60.2042 53.864C59.1641 55.1677 57.6349 55.8186 56.125 56.4058C56.1486 56.4539 56.1721 56.502 56.1964 56.5515C56.687 57.5529 57.1772 58.5545 57.6668 59.5564C57.7107 59.6462 57.7547 59.7361 57.8 59.8288C58.1863 60.6196 58.5668 61.4132 58.9441 62.2085C59.1824 62.7079 59.4257 63.2049 59.6692 63.7019C59.7095 63.7843 59.7499 63.8667 59.7914 63.9516C59.9948 64.3671 60.1985 64.7825 60.4028 65.1976C60.478 65.3511 60.5532 65.5046 60.6283 65.6582C60.663 65.7284 60.6977 65.7986 60.7335 65.8709C60.7659 65.9372 60.7982 66.0035 60.8316 66.0718C60.8597 66.129 60.8878 66.1862 60.9168 66.2452C61.0231 66.4903 61.103 66.7461 61.1875 66.9996C56.98 66.9996 52.7725 66.9996 48.4375 66.9996C48.0972 66.288 47.7569 65.5765 47.4063 64.8433C46.9226 63.851 46.9226 63.851 46.4368 62.8597C46.3325 62.6474 46.2286 62.4349 46.1249 62.2224C46.0933 62.1583 46.0616 62.0943 46.029 62.0283C45.8125 61.5834 45.8125 61.5834 45.8125 61.3746C45.7042 61.3707 45.5959 61.3669 45.4844 61.3629C44.8959 61.3002 44.3682 61.072 43.8222 60.8564C43.7622 60.8331 43.7022 60.8098 43.6404 60.7858C43.4831 60.724 43.327 60.6592 43.171 60.5942C42.8408 60.5152 42.7317 60.5692 42.4375 60.7301C41.7423 61.0781 40.9718 61.3746 40.1875 61.3746C40.167 61.4459 40.1464 61.5172 40.1253 61.5906C39.9512 62.0721 39.7234 62.5221 39.4961 62.9804C39.4469 63.0805 39.3976 63.1805 39.3469 63.2836C39.19 63.6025 39.0325 63.9212 38.875 64.2398C38.7176 64.5588 38.5602 64.8779 38.4031 65.197C38.3054 65.3954 38.2076 65.5936 38.1095 65.7918C38.0651 65.8819 38.0206 65.972 37.9749 66.0649C37.9359 66.1437 37.8969 66.2226 37.8567 66.3039C37.7496 66.5317 37.656 66.7658 37.5625 66.9996C33.355 66.9996 29.1475 66.9996 24.8125 66.9996C25.1109 66.2834 25.4099 65.595 25.7617 64.9078C26.1135 64.2122 26.4584 63.5142 26.793 62.8101C27.239 61.872 27.6919 60.9375 28.1465 60.0035C28.7286 58.8071 29.3064 57.6088 29.875 56.4058C29.7407 56.3547 29.7407 56.3547 29.6036 56.3026C28.4958 55.8746 27.5115 55.3911 26.5938 54.6246C26.5324 54.5769 26.471 54.5291 26.4077 54.4799C24.7217 53.1143 23.8379 50.9635 23.6128 48.852C23.5833 48.4552 23.6204 48.073 23.658 47.6778C23.7487 46.9054 23.7487 46.9054 23.5363 46.1809C23.3267 45.9546 23.3267 45.9546 23.0888 45.7524C21.8297 44.6138 21.1503 42.5715 21.0507 40.9297C20.966 38.5098 21.5866 36.3231 23.2522 34.5106C23.6329 34.0874 23.699 33.8425 23.6696 33.2829C23.6581 33.1527 23.6465 33.0224 23.6348 32.8922C23.4704 30.6135 24.2089 28.4405 25.6768 26.6984C27.0492 25.1322 28.8859 24.252 30.9063 23.8746C30.9991 23.8746 31.0919 23.8746 31.1875 23.8746C31.2128 23.7917 31.238 23.7088 31.264 23.6234C31.8546 21.9667 33.4742 20.5707 35.0119 19.8202C37.4138 18.7002 40.0686 18.653 42.4888 19.7448ZM34.8529 23.4816C34.0829 24.286 33.25 25.6288 33.25 26.7808C33.1939 26.7789 33.1378 26.7769 33.08 26.7749C31.9787 26.7415 30.9957 26.7118 29.9688 27.1558C29.8867 27.1887 29.8046 27.2216 29.7201 27.2555C29.0739 27.5422 28.5907 27.9722 28.0938 28.4683C28.0327 28.5283 27.9717 28.5882 27.9088 28.65C26.9075 29.7064 26.4734 31.1613 26.5 32.5933C26.5905 33.4527 26.8158 34.2987 27.0625 35.1246C26.9911 35.1757 26.9197 35.2268 26.8461 35.2795C25.318 36.3955 24.2853 37.6137 23.9688 39.5308C23.8216 41.0039 24.1772 42.4561 25.1036 43.6232C25.6842 44.2877 26.3135 44.8752 27.0625 45.3433C27.0369 45.4289 27.0369 45.4289 27.0109 45.5162C26.47 47.4023 26.2918 49.0675 27.2064 50.8783C27.7901 51.8579 28.5796 52.6077 29.5938 53.1246C29.7011 53.1793 29.7011 53.1793 29.8106 53.2352C30.6341 53.627 31.413 53.7152 32.3184 53.6988C32.4085 53.698 32.4986 53.6971 32.5914 53.6962C32.8109 53.6941 33.0305 53.691 33.25 53.6871C33.2611 53.7415 33.2722 53.7959 33.2836 53.8519C33.4919 54.8361 33.8642 55.693 34.4688 56.4996C34.5077 56.5551 34.5466 56.6105 34.5867 56.6677C35.3525 57.6697 36.6365 58.2987 37.8438 58.5621C39.8304 58.7237 41.3705 58.2501 42.9063 56.9683C43.2016 57.104 43.4675 57.2741 43.7381 57.4534C45.243 58.4495 46.7118 58.8077 48.5159 58.5009C49.9898 58.0852 51.222 57.1582 52 55.8433C52.5423 54.8131 52.5423 54.8131 52.75 53.6871C52.8038 53.6886 52.8575 53.69 52.9129 53.6916C54.7091 53.7342 56.1488 53.568 57.5664 52.3394C58.7326 51.2224 59.4088 49.9042 59.5 48.2829C59.5 47.4071 59.2885 46.6051 59.0038 45.7821C58.9375 45.5308 58.9375 45.5308 59.0313 45.2496C59.2363 45.0877 59.2363 45.0877 59.5 44.9097C60.8008 43.9809 61.6107 42.8545 61.9727 41.292C62.216 39.818 61.9477 38.3336 61.0938 37.0933C60.481 36.3214 59.774 35.6474 58.9375 35.1246C58.9556 35.0589 58.9738 34.9931 58.9924 34.9254C59.0434 34.7397 59.0939 34.5539 59.1441 34.368C59.1865 34.2118 59.2299 34.0559 59.2759 33.9007C59.6835 32.4617 59.4855 31.0233 58.8438 29.6871C58.0228 28.2602 56.8283 27.3776 55.2813 26.8746C54.9533 26.7974 54.6521 26.7697 54.3156 26.7717C54.224 26.772 54.1325 26.7723 54.0382 26.7726C53.8965 26.7738 53.8965 26.7738 53.752 26.775C53.6557 26.7754 53.5594 26.7758 53.4603 26.7763C53.2235 26.7774 52.9868 26.7789 52.75 26.7808C52.7334 26.6993 52.7334 26.6993 52.7164 26.616C52.5088 25.6349 52.1401 24.7692 51.5313 23.9683C51.4822 23.9038 51.4331 23.8393 51.3826 23.7728C50.4451 22.6241 49.0788 22.0041 47.6289 21.8355C45.8739 21.7162 44.4263 22.4102 43.0938 23.4996C42.8023 23.366 42.5422 23.198 42.2764 23.0193C39.8598 21.4059 37.0509 21.4387 34.8529 23.4816ZM32.2188 58.3746C32.1788 58.4546 32.1388 58.5346 32.0975 58.617C32.07 58.6721 32.0424 58.7272 32.0141 58.7839C31.9496 58.9129 31.8852 59.0418 31.8208 59.1708C31.6075 59.5982 31.3929 60.0248 31.1773 60.451C31.0732 60.6573 30.9692 60.8636 30.8652 61.0699C30.8172 61.1645 30.7691 61.259 30.7196 61.3564C30.2505 62.2889 29.8362 63.2318 29.4063 64.1871C31.4481 64.1871 33.49 64.1871 35.5938 64.1871C36.3604 62.7559 36.3604 62.7559 37 61.2808C36.8934 61.2489 36.7868 61.217 36.677 61.1842C35.0049 60.6666 33.5564 59.8927 32.429 58.509C32.3905 58.4646 32.3521 58.4203 32.3125 58.3746C32.2816 58.3746 32.2506 58.3746 32.2188 58.3746ZM53.6875 58.3746C53.5668 58.5119 53.4481 58.6509 53.3301 58.7906C52.1737 60.0797 50.6594 60.849 49 61.2808C49.1282 61.5722 49.2574 61.8631 49.3867 62.1539C49.4223 62.2347 49.4578 62.3155 49.4944 62.3987C49.7705 63.0177 50.0792 63.5874 50.4063 64.1871C52.4481 64.1871 54.49 64.1871 56.5938 64.1871C56.1045 63.0998 55.6206 62.0254 55.082 60.9644C54.9744 60.7508 54.8667 60.5372 54.759 60.3236C54.7069 60.2205 54.6548 60.1175 54.6011 60.0113C54.3262 59.4665 54.0538 58.9205 53.7813 58.3746C53.7503 58.3746 53.7194 58.3746 53.6875 58.3746Z" fill="#703391"/>
<path d="M52.145 29.3269C52.3826 29.5365 52.6137 29.7515 52.8438 29.9693C52.9325 30.0508 53.0212 30.1324 53.1126 30.2164C53.8975 30.9548 54.5082 31.786 55.0938 32.688C55.13 32.7433 55.1663 32.7986 55.2036 32.8556C57.0946 35.7897 57.6516 39.6603 56.9677 43.0543C56.5251 45.0941 55.7303 47.0659 54.4375 48.7193C54.3747 48.8026 54.3118 48.886 54.2471 48.9719C51.9069 51.967 48.5263 53.8987 44.7484 54.3719C41.0725 54.7729 37.2836 53.8429 34.3497 51.5545C33.9383 51.2166 33.5429 50.8665 33.1563 50.5005C33.0734 50.4236 32.9905 50.3468 32.905 50.2676C30.3008 47.7741 28.8763 44.1795 28.7562 40.6055C28.6939 37.5812 29.5446 34.6112 31.2813 32.1255C31.3451 32.0338 31.4089 31.9421 31.4746 31.8476C33.672 28.8447 36.9543 26.8046 40.6251 26.174C44.7615 25.5463 48.9381 26.6217 52.145 29.3269ZM35.0313 32.2193C34.9758 32.2687 34.9203 32.3181 34.8632 32.369C33.8494 33.3106 33.1501 34.5303 32.5938 35.7818C32.526 35.9317 32.526 35.9317 32.4568 36.0846C31.3039 38.8411 31.4656 41.9846 32.5762 44.7232C33.8375 47.4864 36.1129 49.7404 38.9611 50.8345C41.8453 51.8387 44.9803 51.8183 47.7695 50.5181C50.5346 49.1787 52.7043 46.8299 53.7212 43.9294C54.673 41.0949 54.4966 37.9954 53.2136 35.2925C51.8454 32.5588 49.4578 30.453 46.5684 29.4654C42.4039 28.133 38.1776 29.2577 35.0313 32.2193Z" fill="#703391"/>
<path d="M47.6875 35.4062C48.1941 35.6468 48.5407 36.0336 48.9355 36.4258C49.0151 36.5023 49.0947 36.5788 49.1767 36.6576C49.2514 36.7317 49.3262 36.8058 49.4032 36.8821C49.5064 36.9834 49.5064 36.9834 49.6117 37.0867C49.75 37.2812 49.75 37.2812 49.7334 37.4572C49.6353 37.7102 49.5027 37.8444 49.3104 38.0359C49.2361 38.1106 49.1619 38.1852 49.0853 38.2622C49.0033 38.3432 48.9212 38.4243 48.8366 38.5078C48.7507 38.5938 48.6647 38.6798 48.5761 38.7684C48.3405 39.0042 48.1039 39.239 47.8672 39.4738C47.62 39.7193 47.3736 39.9655 47.127 40.2117C46.6601 40.6778 46.1925 41.1431 45.7246 41.6082C45.1919 42.1377 44.66 42.668 44.1282 43.1984C43.0343 44.2894 41.9394 45.3794 40.8438 46.4688C40.4508 46.1382 40.0714 45.8018 39.7085 45.4379C39.6654 45.3949 39.6224 45.3518 39.578 45.3074C39.4383 45.1677 39.2989 45.0276 39.1595 44.8875C39.0617 44.7894 38.9639 44.6915 38.866 44.5935C38.6104 44.3376 38.3551 44.0813 38.0999 43.8251C37.8386 43.5628 37.577 43.3008 37.3155 43.0388C36.8038 42.5261 36.2924 42.0132 35.7812 41.5C36.0218 40.9934 36.4086 40.6468 36.8008 40.252C36.8773 40.1724 36.9538 40.0928 37.0326 40.0108C37.1437 39.8987 37.1437 39.8987 37.2571 39.7843C37.3246 39.7155 37.3922 39.6467 37.4617 39.5758C37.6562 39.4375 37.6562 39.4375 37.8376 39.4595C38.0549 39.54 38.1613 39.6272 38.3234 39.7915C38.405 39.8731 38.405 39.8731 38.4883 39.9564C38.5458 40.0154 38.6033 40.0744 38.6626 40.1351C38.7523 40.2255 38.7523 40.2255 38.8439 40.3176C39.0346 40.5099 39.2243 40.7032 39.4141 40.8965C39.5433 41.0271 39.6725 41.1577 39.8019 41.2881C40.1187 41.608 40.4346 41.9288 40.75 42.25C41.2075 41.8689 41.6377 41.4692 42.0574 41.047C42.1187 40.9857 42.1801 40.9243 42.2433 40.8611C42.4439 40.6605 42.6441 40.4595 42.8444 40.2585C42.9842 40.1185 43.1241 39.9785 43.264 39.8385C43.6306 39.4716 43.9969 39.1044 44.3631 38.7371C44.7375 38.3618 45.1121 37.9867 45.4868 37.6116C46.2206 36.8767 46.9541 36.1416 47.6875 35.4062Z" fill="#703391"/>
</g>
<defs>
<clipPath id="clip0_3228_13497">
<rect width="48" height="48" fill="white" transform="translate(19 19)"/>
</clipPath>
</defs>
</svg>
