<svg width="69" height="56" viewBox="0 0 69 56" fill="none" xmlns="http://www.w3.org/2000/svg">
<path d="M23.25 22.0598L22.0404 24.4486L26.035 28.4779L28.4044 27.2583C29.1827 27.6843 30.0031 28.0271 30.8521 28.2813L31.6727 30.8317H37.3228L38.1453 28.2813C38.9936 28.0266 39.8136 27.684 40.5921 27.2592L42.9623 28.4779L46.9622 24.4477L45.7535 22.0598C46.1767 21.2749 46.5171 20.4475 46.7691 19.5911L49.2978 18.7646V13.068L46.7691 12.2388C46.5167 11.383 46.1766 10.5559 45.7544 9.77102L46.9622 7.38398L42.9676 3.35473L40.5947 4.57697C39.8175 4.15029 38.9984 3.80624 38.1506 3.55036L37.3282 1H31.6754L30.8521 3.55036C30.0028 3.8046 29.1822 4.14746 28.4035 4.57338L26.035 3.35473L22.0404 7.38398L23.2473 9.77191C22.8247 10.5561 22.4849 11.383 22.2336 12.2388L19.704 13.068V18.7646L22.2336 19.5911C22.486 20.4475 22.8266 21.2749 23.25 22.0598ZM21.6737 14.5083L23.8659 13.7904L23.9986 13.2582C24.2551 12.221 24.6634 11.2281 25.2099 10.3121L25.4894 9.84101L24.4436 7.76716L26.4169 5.77587L28.4738 6.83029L28.9384 6.54852C29.8486 5.99819 30.8345 5.58662 31.8641 5.32718L32.3919 5.19347L33.1039 2.98322H35.8961L36.6081 5.19347L37.135 5.32718C38.1654 5.58731 39.1519 5.99979 40.0625 6.55121L40.5289 6.83388L42.5849 5.77856L44.5591 7.76626L43.5132 9.84101L43.7927 10.3103C44.3385 11.227 44.7467 12.2201 45.0041 13.2573L45.1367 13.7895L47.3281 14.5074V17.3198L45.1367 18.0377L45.0041 18.5761C44.7464 19.614 44.3379 20.6076 43.7918 21.5249L43.5124 21.9943L44.5591 24.0654L42.5858 26.0558L40.5306 25.0005L40.0642 25.2823C39.1539 25.8324 38.1681 26.2442 37.1386 26.5045L36.6117 26.6373L35.8996 28.8485H33.1048L32.3928 26.6373L31.865 26.5045C30.8354 26.2443 29.8496 25.8325 28.9393 25.2823L28.4738 25.0014L26.4178 26.0558L24.4436 24.0645L25.4885 21.9925L25.2091 21.5222C24.6633 20.6059 24.2554 19.6131 23.9986 18.5761L23.8659 18.044L21.6737 17.3261V14.5083ZM34.5013 23.5557C36.0002 23.5559 37.4655 23.1079 38.7118 22.2685C39.9581 21.429 40.9296 20.2358 41.5032 18.8396C42.0769 17.4435 42.227 15.9072 41.9347 14.4251C41.6423 12.9429 40.9206 11.5814 39.8607 10.5129C38.8008 9.4443 37.4505 8.71662 35.9804 8.42184C34.5103 8.12707 32.9866 8.27845 31.6018 8.85684C30.2171 9.43522 29.0336 10.4146 28.201 11.6712C27.3683 12.9278 26.924 14.4051 26.9242 15.9163C26.9266 17.9417 27.7256 19.8834 29.1461 21.3156C30.5666 22.7477 32.4925 23.5533 34.5013 23.5557ZM34.5013 10.2592C35.6104 10.2592 36.6945 10.5908 37.6166 11.212C38.5388 11.8332 39.2575 12.7162 39.6819 13.7492C40.1063 14.7822 40.2174 15.919 40.001 17.0156C39.7846 18.1123 39.2506 19.1197 38.4664 19.9103C37.6822 20.701 36.683 21.2394 35.5953 21.4576C34.5076 21.6757 33.3801 21.5638 32.3555 21.1359C31.3309 20.708 30.4551 19.9833 29.8389 19.0536C29.2228 18.1239 28.8939 17.0309 28.8939 15.9127C28.8963 14.414 29.4878 12.9774 30.5389 11.9177C31.59 10.858 33.0149 10.2616 34.5013 10.2592ZM11.8047 45.0696C9.29436 45.0807 6.86188 45.9492 4.90404 47.5333C2.9462 49.1174 1.57855 51.3236 1.02419 53.7921C0.991624 53.9371 0.991943 54.0876 1.02512 54.2324C1.05831 54.3772 1.12349 54.5126 1.21582 54.6284C1.30815 54.7443 1.42524 54.8377 1.55835 54.9015C1.69146 54.9654 1.83716 54.9981 1.98457 54.9973H21.6274C21.7745 54.9971 21.9197 54.9637 22.0523 54.8995C22.1849 54.8354 22.3015 54.742 22.3937 54.6264C22.4858 54.5108 22.5511 54.3759 22.5847 54.2315C22.6182 54.0871 22.6193 53.937 22.5878 53.7921C22.0332 51.3233 20.6651 49.1168 18.7068 47.5326C16.7484 45.9485 14.3154 45.0803 11.8047 45.0696ZM3.29742 53.0141C3.94385 51.265 5.10518 49.757 6.62573 48.6923C8.14628 47.6275 9.95335 47.0569 11.8047 47.0569C13.656 47.0569 15.4631 47.6275 16.9836 48.6923C18.5041 49.757 19.6655 51.265 20.3119 53.0141H3.29742ZM11.8047 44.2915C12.8079 44.2915 13.7886 43.9916 14.6228 43.4298C15.457 42.8679 16.1073 42.0693 16.4914 41.1349C16.8755 40.2005 16.9763 39.1723 16.7809 38.1802C16.5855 37.1881 16.1027 36.2767 15.3937 35.5611C14.6846 34.8456 13.781 34.3581 12.7972 34.1602C11.8133 33.9623 10.7934 34.063 9.86625 34.4494C8.93914 34.8359 8.14648 35.4908 7.58847 36.3314C7.03047 37.172 6.73217 38.1605 6.73129 39.172C6.7327 40.5285 7.26753 41.8292 8.21854 42.7889C9.16955 43.7486 10.4591 44.2889 11.8047 44.2915ZM11.8047 36.0356C12.4197 36.0365 13.0207 36.2212 13.5317 36.5664C14.0427 36.9115 14.4407 37.4017 14.6755 37.9748C14.9102 38.548 14.9712 39.1785 14.8507 39.7866C14.7301 40.3947 14.4335 40.9531 13.9983 41.3913C13.5631 41.8295 13.0088 42.1277 12.4055 42.2484C11.8022 42.369 11.1769 42.3067 10.6087 42.0691C10.0406 41.8316 9.55501 41.4296 9.21339 40.914C8.87177 40.3983 8.68944 39.7921 8.68944 39.172C8.69062 38.3397 9.01935 37.542 9.60344 36.954C10.1875 36.3659 10.9792 36.0356 11.8047 36.0356ZM34.5013 45.0696C31.9911 45.0809 29.5587 45.9494 27.6009 47.5335C25.6431 49.1175 24.2754 51.3237 23.7209 53.7921C23.6883 53.9371 23.6886 54.0876 23.7218 54.2324C23.755 54.3772 23.8202 54.5126 23.9125 54.6284C24.0048 54.7443 24.1219 54.8377 24.255 54.9015C24.3881 54.9654 24.5338 54.9981 24.6812 54.9973H44.3205C44.468 54.9981 44.6136 54.9654 44.7468 54.9015C44.8799 54.8377 44.997 54.7443 45.0893 54.6284C45.1816 54.5126 45.2468 54.3772 45.28 54.2324C45.3132 54.0876 45.3135 53.9371 45.2809 53.7921C44.7266 51.3238 43.3591 49.1176 41.4014 47.5336C39.4438 45.9495 37.0115 45.0809 34.5013 45.0696ZM25.9941 53.0141C26.6405 51.265 27.8019 49.757 29.3224 48.6923C30.8429 47.6275 32.65 47.0569 34.5013 47.0569C36.3527 47.0569 38.1597 47.6275 39.6803 48.6923C41.2008 49.757 42.3622 51.265 43.0086 53.0141H25.9941ZM34.5013 34.0524C33.4967 34.0515 32.5143 34.3511 31.6786 34.9133C30.8428 35.4755 30.1913 36.275 29.8064 37.2107C29.4216 38.1464 29.3206 39.1761 29.5164 40.1696C29.7122 41.1632 30.1959 42.0758 30.9063 42.792C31.6167 43.5083 32.5219 43.996 33.5073 44.1934C34.4928 44.3908 35.5141 44.289 36.4421 43.901C37.3702 43.5129 38.1632 42.856 38.7208 42.0134C39.2784 41.1708 39.5756 40.1804 39.5747 39.1675C39.5719 37.8117 39.0365 36.5124 38.0856 35.5537C37.1348 34.5951 35.846 34.0552 34.5013 34.0524ZM34.5013 42.3083C33.8861 42.3083 33.2846 42.1244 32.7731 41.7797C32.2615 41.4351 31.8628 40.9453 31.6273 40.3722C31.3919 39.7991 31.3303 39.1685 31.4503 38.5601C31.5704 37.9517 31.8666 37.3928 32.3017 36.9542C32.7367 36.5156 33.291 36.2169 33.8945 36.0959C34.4979 35.9748 35.1234 36.037 35.6918 36.2743C36.2602 36.5117 36.746 36.9137 37.0879 37.4295C37.4297 37.9453 37.6121 38.5516 37.6121 39.172C37.6109 40.0034 37.2828 40.8005 36.6997 41.3884C36.1166 41.9763 35.326 42.3071 34.5013 42.3083ZM67.9767 53.7948C67.4328 51.3208 66.068 49.108 64.1079 47.5218C62.1478 45.9357 59.7096 45.0712 57.1962 45.0712C54.6829 45.0712 52.2447 45.9357 50.2846 47.5218C48.3245 49.108 46.9597 51.3208 46.4158 53.7948C46.3842 53.9397 46.3853 54.0898 46.4189 54.2342C46.4525 54.3785 46.5178 54.5135 46.6099 54.6291C46.702 54.7447 46.8187 54.838 46.9513 54.9022C47.0839 54.9664 47.229 54.9998 47.3761 55H67.0154C67.1628 55.0008 67.3085 54.9681 67.4417 54.9042C67.5748 54.8403 67.6918 54.747 67.7842 54.6311C67.8765 54.5153 67.9417 54.3799 67.9749 54.2351C68.0081 54.0903 68.0093 53.9398 67.9767 53.7948ZM48.689 53.0168C49.3356 51.268 50.4969 49.7603 52.0174 48.6958C53.5378 47.6312 55.3447 47.0607 57.1958 47.0607C59.0469 47.0607 60.8538 47.6312 62.3742 48.6958C63.8946 49.7603 65.056 51.268 65.7026 53.0168H48.689ZM57.198 44.2915C58.2012 44.2915 59.1819 43.9916 60.0162 43.4298C60.8504 42.8679 61.5006 42.0693 61.8848 41.1349C62.2689 40.2005 62.3696 39.1723 62.1742 38.1802C61.9788 37.1881 61.4961 36.2767 60.787 35.5611C60.0779 34.8456 59.1743 34.3581 58.1905 34.1602C57.2067 33.9623 56.1867 34.063 55.2596 34.4494C54.3325 34.8359 53.5398 35.4908 52.9818 36.3314C52.4238 37.172 52.1255 38.1605 52.1246 39.172C52.1258 40.5286 52.6606 41.8294 53.6116 42.7891C54.5627 43.7489 55.8524 44.2891 57.198 44.2915ZM57.198 36.0356C57.8131 36.0365 58.4141 36.2212 58.925 36.5664C59.436 36.9115 59.8341 37.4017 60.0688 37.9748C60.3036 38.548 60.3646 39.1785 60.244 39.7866C60.1235 40.3947 59.8269 40.9531 59.3916 41.3913C58.9564 41.8295 58.4021 42.1277 57.7988 42.2484C57.1955 42.369 56.5702 42.3067 56.0021 42.0691C55.4339 41.8316 54.9483 41.4296 54.6067 40.914C54.2651 40.3983 54.0828 39.7921 54.0828 39.172C54.084 38.3397 54.4127 37.542 54.9968 36.954C55.5809 36.3659 56.3726 36.0356 57.198 36.0356Z" fill="#703391" stroke="#703391" stroke-width="0.5"/>
</svg>
