<svg width="40" height="40" viewBox="0 0 40 40" fill="none" xmlns="http://www.w3.org/2000/svg">
<path d="M38.6667 0H1.33333C0.599979 0 0 0.599979 0 1.33333V32C0 32.7334 0.599979 33.3333 1.33333 33.3333H14.3331C14.8854 33.3333 15.3331 33.781 15.3331 34.3333V36.3333C15.3331 36.8856 14.8854 37.3333 14.3331 37.3333H9.33333C8.59998 37.3333 8 37.9333 8 38.6667C8 39.4 8.59998 40 9.33333 40H30.6667C31.4 40 32 39.4 32 38.6667C32 37.9333 31.4 37.3333 30.6667 37.3333H25.6669C25.1146 37.3333 24.6669 36.8856 24.6669 36.3333V34.3333C24.6669 33.781 25.1146 33.3333 25.6669 33.3333H38.6667C39.4 33.3333 40 32.7334 40 32V1.33333C40 0.599979 39.4 0 38.6667 0ZM36.3333 2.66667C36.8856 2.66667 37.3333 3.11438 37.3333 3.66667V24.3333C37.3333 24.8856 36.8856 25.3333 36.3333 25.3333H3.66667C3.11438 25.3333 2.66667 24.8856 2.66667 24.3333V3.66667C2.66667 3.11438 3.11438 2.66667 3.66667 2.66667H36.3333ZM21.9998 36.3333C21.9998 36.8856 21.5521 37.3333 20.9998 37.3333H18.9998C18.4475 37.3333 17.9998 36.8856 17.9998 36.3333V34.3333C17.9998 33.781 18.4475 33.3333 18.9998 33.3333H20.9998C21.5521 33.3333 21.9998 33.781 21.9998 34.3333V36.3333ZM3.66667 30.6667C3.11438 30.6667 2.66667 30.219 2.66667 29.6667V29C2.66667 28.4477 3.11438 28 3.66667 28H36.3333C36.8856 28 37.3333 28.4477 37.3333 29V29.6667C37.3333 30.219 36.8856 30.6667 36.3333 30.6667H3.66667Z" fill="#703391"/>
<path d="M12.1869 17.7065C12.4535 17.9732 12.8002 18.1065 13.1336 18.1065C13.4669 18.1065 13.8136 17.9732 14.0669 17.7199C14.5869 17.1998 14.6002 16.3599 14.0802 15.8399L11.1869 12.8799L14.0802 9.91988C14.6003 9.39986 14.5869 8.54652 14.0669 8.0399C13.5469 7.51988 12.6935 7.53323 12.1869 8.05323L8.37359 11.9466C7.86692 12.4666 7.86692 13.2932 8.37359 13.8132L12.1869 17.7065Z" fill="#703391"/>
<path d="M25.92 17.7336C26.1733 17.987 26.52 18.1203 26.8533 18.1203C27.1867 18.1203 27.5466 17.987 27.8 17.7203L31.6133 13.827C32.12 13.3069 32.12 12.4803 31.6133 11.9603L27.8 8.06697C27.28 7.53363 26.44 7.53363 25.92 8.05363C25.4 8.57363 25.3867 9.41363 25.9067 9.93361L28.8 12.8936L25.9067 15.8536C25.3867 16.3736 25.4 17.227 25.92 17.7336Z" fill="#703391"/>
<path d="M18.1602 20.4003C18.2669 20.4269 18.3735 20.4403 18.4802 20.4403C19.0802 20.4403 19.6269 20.0269 19.7735 19.4269L22.8268 6.98702C23.0002 6.26702 22.5602 5.54702 21.8535 5.37371C21.1469 5.2004 20.4135 5.64038 20.2402 6.34702L17.1869 18.7869C17.0136 19.5069 17.4536 20.2269 18.1602 20.4003Z" fill="#703391"/>
<path d="M30.6667 21.3333C30.6667 22.0667 31.2666 22.6667 32 22.6667H33.3333C34.0667 22.6667 34.6667 22.0667 34.6667 21.3333C34.6667 20.6 34.0667 20 33.3333 20H32C31.2666 20 30.6667 20.6 30.6667 21.3333Z" fill="#703391"/>
<path d="M6.66666 22.6667H7.99999C8.73335 22.6667 9.33333 22.0667 9.33333 21.3333C9.33333 20.6 8.73335 20 7.99999 20H6.66666C5.93331 20 5.33333 20.6 5.33333 21.3333C5.33333 22.0667 5.93331 22.6667 6.66666 22.6667Z" fill="#703391"/>
</svg>
