<svg width="16" height="16" viewBox="0 0 16 16" fill="none" xmlns="http://www.w3.org/2000/svg">
<path d="M8.80156 8.975L8.80625 8.95312C8.89687 8.57969 9.01094 8.11406 8.92188 7.69219C8.8625 7.35938 8.61719 7.22969 8.40781 7.22031C8.16094 7.20938 7.94063 7.35 7.88594 7.55469C7.78281 7.92969 7.875 8.44219 8.04375 9.09531C7.83125 9.60156 7.49219 10.3375 7.24375 10.775C6.78125 11.0141 6.16094 11.3828 6.06875 11.8484C6.05 11.9344 6.07188 12.0437 6.12344 12.1422C6.18125 12.2516 6.27344 12.3359 6.38125 12.3766C6.42812 12.3938 6.48438 12.4078 6.55 12.4078C6.825 12.4078 7.27031 12.1859 7.86406 11.1672C7.95469 11.1375 8.04844 11.1062 8.13906 11.075C8.56406 10.9312 9.00469 10.7813 9.40312 10.7141C9.84375 10.95 10.3453 11.1016 10.6859 11.1016C11.0234 11.1016 11.1563 10.9016 11.2063 10.7812C11.2938 10.5703 11.2516 10.3047 11.1094 10.1625C10.9031 9.95938 10.4016 9.90625 9.62031 10.0031C9.23594 9.76875 8.98438 9.45 8.80156 8.975ZM7.0875 11.3484C6.87031 11.6641 6.70625 11.8219 6.61719 11.8906C6.72187 11.6984 6.92656 11.4953 7.0875 11.3484ZM8.45625 7.66875C8.5375 7.80781 8.52656 8.22813 8.46406 8.44063C8.3875 8.12969 8.37656 7.68906 8.42188 7.6375C8.43437 7.63906 8.44531 7.64844 8.45625 7.66875ZM8.43125 9.55156C8.59844 9.84062 8.80938 10.0891 9.04219 10.2734C8.70469 10.35 8.39687 10.4766 8.12187 10.5891C8.05625 10.6156 7.99219 10.6422 7.92969 10.6672C8.1375 10.2906 8.31094 9.86406 8.43125 9.55156ZM10.8625 10.575C10.8641 10.5781 10.8656 10.5828 10.8562 10.5891H10.8531L10.85 10.5938C10.8375 10.6016 10.7094 10.6766 10.1578 10.4594C10.7922 10.4297 10.8609 10.5734 10.8625 10.575ZM13.8531 4.50938L10.4906 1.14688C10.3969 1.05313 10.2703 1 10.1375 1H3.5C3.22344 1 3 1.22344 3 1.5V14.5C3 14.7766 3.22344 15 3.5 15H13.5C13.7766 15 14 14.7766 14 14.5V4.86406C14 4.73125 13.9469 4.60313 13.8531 4.50938ZM12.8469 5.09375H9.90625V2.15313L12.8469 5.09375ZM12.875 13.875H4.125V2.125H8.84375V5.5C8.84375 5.67405 8.91289 5.84097 9.03596 5.96404C9.15903 6.08711 9.32595 6.15625 9.5 6.15625H12.875V13.875Z" fill="#703391"/>
</svg>
