<svg width="86" height="86" viewBox="0 0 86 86" fill="none" xmlns="http://www.w3.org/2000/svg">
<circle cx="43" cy="43" r="43" fill="#703391" fill-opacity="0.1"/>
<path d="M64.9489 41.3147C64.9489 40.7366 65.4074 40.2688 65.974 40.2688C66.5407 40.2688 66.9992 40.7366 66.9992 41.3147V41.9664C66.9992 42.5445 66.5407 43.0123 65.974 43.0123C65.4074 43.0123 64.9489 42.5445 64.9489 41.9664V41.3147ZM39.6329 45.239C39.2545 45.6659 38.6098 45.6986 38.1913 45.3125C37.7729 44.9264 37.7409 44.2686 38.1193 43.8417C38.7359 43.1471 39.4888 42.5854 40.3337 42.2033C41.1506 41.8356 42.0536 41.6293 43.0006 41.6293C44.8206 41.6293 46.4684 42.3831 47.6597 43.5985C48.851 44.814 49.5898 46.4973 49.5898 48.3522C49.5898 50.205 48.851 51.8862 47.6597 53.1037C46.4684 54.3253 44.8186 55.0771 43.0006 55.0771C41.1806 55.0771 39.5328 54.3233 38.3415 53.1078L38.2855 53.0445C37.1282 51.8331 36.4134 50.1763 36.4134 48.3541L36.4274 47.9864C36.4495 47.4103 36.924 46.963 37.4886 46.9854C38.0532 47.0079 38.4917 47.4921 38.4697 48.0681L38.4657 48.3541C38.4657 49.6084 38.9522 50.7483 39.7451 51.5818L39.7952 51.6288C40.6161 52.4663 41.7513 52.9852 43.0067 52.9852C44.26 52.9852 45.3953 52.4663 46.2162 51.6288C47.0371 50.7932 47.5457 49.6329 47.5457 48.3521C47.5457 47.0733 47.0371 45.915 46.2162 45.0775C45.3953 44.2399 44.26 43.721 43.0067 43.721C42.35 43.721 41.7253 43.862 41.1646 44.1173C40.578 44.3829 40.0574 44.769 39.6389 45.2409L39.6329 45.239ZM46.2342 39.2087L46.6447 39.3721L47.0491 39.556L48.819 37.7501C49.3596 37.1986 50.0744 36.9208 50.7852 36.9208C51.498 36.9208 52.2087 37.1966 52.7513 37.7501L53.388 38.4038C53.9346 38.9615 54.205 39.6867 54.205 40.4099C54.205 41.131 53.9347 41.8582 53.3921 42.4118L51.6201 44.2197C51.7463 44.5077 51.8484 44.7631 51.9605 45.0552H54.4633C55.2281 45.0552 55.9249 45.3759 56.4294 45.8887C56.932 46.4015 57.2443 47.1123 57.2443 47.8947V48.8181C57.2443 49.5984 56.9299 50.3094 56.4294 50.8241C55.9268 51.3368 55.2301 51.6576 54.4633 51.6576H51.9605L51.8003 52.0784L51.6201 52.4952L53.3881 54.2969C53.9347 54.8546 54.205 55.5798 54.205 56.3029C54.205 57.0261 53.9347 57.7533 53.3921 58.3049L52.7474 58.9586C52.2068 59.5142 51.4941 59.79 50.7833 59.79C50.0705 59.79 49.3597 59.5142 48.8171 58.9606L47.0512 57.1527L46.6428 57.3386L46.2323 57.5V60.0535C46.2323 60.8339 45.918 61.5448 45.4174 62.0596L45.3434 62.127C44.8468 62.5989 44.1801 62.891 43.4513 62.891H42.5463C41.7835 62.891 41.0887 62.5702 40.5862 62.0596C40.0796 61.5468 39.7672 60.8359 39.7672 60.0535V57.5C39.4789 57.3877 39.2286 57.2794 38.9483 57.1527L37.1784 58.9565C36.6378 59.5122 35.925 59.7879 35.2123 59.7879C34.4995 59.7879 33.7887 59.5122 33.2461 58.9586L32.6074 58.3069C32.0668 57.7554 31.7945 57.0261 31.7945 56.3009C31.7945 55.5737 32.0648 54.8485 32.6074 54.2949L34.3773 52.489L34.1972 52.0743L34.039 51.6556H31.5362C30.7734 51.6556 30.0786 51.3349 29.5741 50.8242C29.0675 50.3073 28.7552 49.5964 28.7552 48.8181V47.8948C28.7552 47.1165 29.0695 46.4076 29.57 45.8929C30.0766 45.376 30.7734 45.0573 31.5362 45.0573H34.0389L34.1971 44.6386L34.3753 44.2218L32.5393 42.3424C32.0407 41.799 31.7945 41.1024 31.7945 40.4119C31.7945 39.6847 32.0648 38.9595 32.6074 38.4059L33.2501 37.7543C33.7907 37.1986 34.5034 36.9229 35.2162 36.9229C35.929 36.9229 36.6397 37.1986 37.1823 37.7522L38.9523 39.5581L39.3607 39.3742L39.7692 39.2128V36.6593C39.7692 35.879 40.0835 35.168 40.584 34.6533L40.6581 34.5859C41.1567 34.1119 41.8214 33.8219 42.5502 33.8219H43.4552C44.216 33.8219 44.9108 34.1406 45.4173 34.6533L45.4233 34.6594C45.9239 35.1742 46.2362 35.881 46.2362 36.6573V39.2108L46.2342 39.2087ZM45.8598 41.3005C45.5835 41.1821 45.2932 41.0799 45.0009 40.9982C44.5343 40.9002 44.1839 40.4793 44.1839 39.9727V36.6552C44.1839 36.4489 44.1018 36.2609 43.9737 36.1302C43.8396 35.9933 43.6574 35.9096 43.4531 35.9096H42.5482C42.364 35.9096 42.1938 35.977 42.0676 36.0893L42.0316 36.1281C41.8995 36.263 41.8154 36.4489 41.8154 36.6531V39.9707C41.8134 40.4324 41.511 40.8552 41.0545 40.9799C40.7422 41.0636 40.4359 41.1719 40.1415 41.2965C39.8592 41.415 39.5889 41.5498 39.3427 41.6928C38.9422 41.9767 38.3896 41.9379 38.0332 41.5743L35.7327 39.2271C35.5905 39.0821 35.4043 39.0106 35.2161 39.0106C35.0279 39.0106 34.8417 39.0821 34.6996 39.2271L34.0589 39.8788C33.9167 40.0238 33.8466 40.2138 33.8466 40.4058C33.8466 40.5835 33.9067 40.7613 34.0248 40.9002L36.3574 43.2801C36.6717 43.609 36.7518 44.1217 36.5176 44.5384C36.3614 44.8121 36.2192 45.1104 36.0891 45.4291C35.975 45.7069 35.8749 46.0011 35.7928 46.3095C35.6967 46.7855 35.2842 47.143 34.7877 47.143H31.5361C31.3339 47.143 31.1497 47.2268 31.0175 47.3616C30.8874 47.4964 30.8033 47.6844 30.8033 47.8907V48.814C30.8033 49.0203 30.8854 49.2083 31.0155 49.3431C31.1477 49.4759 31.3319 49.5617 31.5341 49.5617H34.7857C35.2382 49.5637 35.6526 49.8722 35.7748 50.3379C35.8569 50.6566 35.963 50.9692 36.0851 51.2694C36.2012 51.5575 36.3374 51.8394 36.4856 52.105C36.7498 52.5115 36.7058 53.063 36.3554 53.4205L34.0549 55.7677C33.9127 55.9128 33.8426 56.1028 33.8426 56.2948C33.8426 56.4868 33.9127 56.6768 34.0549 56.8218L34.6936 57.4735C34.8357 57.6185 35.0219 57.69 35.2101 57.69C35.3983 57.69 35.5846 57.6185 35.7287 57.4735L37.9952 55.1671C38.3115 54.8096 38.8401 54.7136 39.2646 54.9649C39.5329 55.1222 39.8052 55.2631 40.0795 55.3816L40.1315 55.402C40.4098 55.5205 40.7002 55.6227 40.9965 55.7044C41.463 55.8024 41.8134 56.2233 41.8134 56.7299V60.0474C41.8134 60.2517 41.8955 60.4376 42.0297 60.5724C42.1598 60.7072 42.344 60.793 42.5442 60.793H43.4492C43.6334 60.793 43.8036 60.7236 43.9317 60.6092L43.9658 60.5724C44.0979 60.4376 44.182 60.2517 44.182 60.0474V56.7299C44.184 56.2682 44.4863 55.8453 44.9429 55.7207C45.2552 55.6369 45.5615 55.5287 45.8558 55.4041C46.1582 55.2774 46.4505 55.1283 46.7268 54.9649C47.1172 54.7361 47.6258 54.7892 47.9601 55.1283L50.2646 57.4755C50.4068 57.6205 50.593 57.692 50.7812 57.692C50.9694 57.692 51.1556 57.6205 51.2978 57.4755L51.9385 56.8259C52.0786 56.6808 52.1487 56.4888 52.1487 56.2947C52.1487 56.1007 52.0786 55.9066 51.9365 55.7636L49.6399 53.4205C49.3216 53.0957 49.2395 52.5788 49.4757 52.1622C49.6299 51.8884 49.7741 51.5901 49.9042 51.2735C50.0183 50.9937 50.1205 50.6975 50.2025 50.3911C50.2986 49.9151 50.7111 49.5576 51.2076 49.5576H54.4592C54.6594 49.5576 54.8416 49.4738 54.9738 49.3369C55.1059 49.2021 55.19 49.0162 55.19 48.8119V47.8886C55.19 47.6843 55.1079 47.4964 54.9738 47.3636C54.8416 47.2288 54.6574 47.143 54.4592 47.143H51.2076C50.7551 47.1409 50.3407 46.8325 50.2185 46.3667C50.1364 46.0582 50.0383 45.7599 49.9282 45.4781L49.9062 45.429C49.7841 45.1267 49.6459 44.8427 49.4997 44.5792C49.2475 44.1748 49.2955 43.6314 49.6419 43.28L51.9384 40.9369C52.0786 40.7918 52.1507 40.5998 52.1507 40.4057C52.1507 40.2117 52.0806 40.0176 51.9384 39.8746L51.2977 39.225C51.1556 39.08 50.9694 39.0085 50.7812 39.0085C50.593 39.0085 50.4068 39.08 50.2646 39.225L47.9641 41.5722C47.6417 41.897 47.1372 41.9787 46.7267 41.7356C46.4504 41.5722 46.1581 41.4251 45.8558 41.2964L45.8598 41.3005ZM30.6869 27.4463C30.1203 27.4463 29.6618 26.9785 29.6618 26.4004C29.6618 25.8222 30.1203 25.3544 30.6869 25.3544H38.117C38.6837 25.3544 39.1422 25.8222 39.1422 26.4004C39.1422 26.9785 38.6837 27.4463 38.117 27.4463H30.6869ZM24.6464 27.4463C24.0798 27.4463 23.6213 26.9785 23.6213 26.4004C23.6213 25.8222 24.0798 25.3544 24.6464 25.3544H26.0359C26.6025 25.3544 27.061 25.8222 27.061 26.4004C27.061 26.9785 26.6025 27.4463 26.0359 27.4463H24.6464ZM64.9487 30.7087V24.1837C64.9487 23.6056 64.7184 23.0846 64.35 22.7067C63.9756 22.3247 63.465 22.0919 62.8984 22.0919H23.099C22.5323 22.0919 22.0218 22.3268 21.6514 22.7027C21.277 23.0847 21.0487 23.6056 21.0487 24.1837V30.7087H64.9487ZM19 31.7546V24.1837C19 23.0377 19.4605 21.9938 20.2013 21.2339L20.2074 21.2278C20.9502 20.4699 21.9753 20 23.0985 20H62.898C64.0212 20 65.0443 20.4698 65.7891 21.2257L65.7951 21.2318C66.5379 21.9897 66.9985 23.0356 66.9985 24.1837V37.8298C66.9985 38.4079 66.54 38.8757 65.9733 38.8757C65.4067 38.8757 64.9482 38.4079 64.9482 37.8298V32.7984H21.0498V61.8122C21.0498 62.3658 21.262 62.8704 21.6084 63.2463L21.6524 63.2912C22.0249 63.6712 22.5374 63.9061 23.1 63.9061H62.8995C63.4441 63.9061 63.9366 63.6896 64.303 63.3382L64.3471 63.2912C64.7195 62.9113 64.9498 62.3883 64.9498 61.8143V45.4556C64.9498 44.8774 65.4083 44.4096 65.9749 44.4096C66.5415 44.4096 67 44.8775 67 45.4556V61.8143C67 62.9664 66.5395 64.0123 65.7967 64.7702L65.7306 64.8335C64.9918 65.5546 63.9927 66 62.9015 66H23.102C21.9728 66 20.9477 65.5302 20.2069 64.7722L20.1448 64.7048C19.438 63.951 19.0015 62.9317 19.0015 61.8163V31.7581L19 31.7546Z" fill="#703391" stroke="#703391" stroke-width="0.5"/>
</svg>
