<svg width="86" height="86" viewBox="0 0 86 86" fill="none" xmlns="http://www.w3.org/2000/svg">
<circle cx="43" cy="43" r="43" fill="#703391" fill-opacity="0.1"/>
<path fill-rule="evenodd" clip-rule="evenodd" d="M51.4891 37.6942C51.628 37.8391 51.7357 38.0088 51.8061 38.1937C51.8764 38.3785 51.908 38.5749 51.8991 38.7715C51.8901 38.968 51.8408 39.161 51.754 39.3393C51.6671 39.5176 51.5444 39.6777 51.3929 39.8105L41.6236 48.3972C41.3352 48.651 40.958 48.7921 40.5664 48.7924C40.5366 48.7936 40.5067 48.7912 40.4774 48.7855C40.2688 48.7748 40.0645 48.7242 39.8767 48.6366C39.6888 48.549 39.5211 48.4263 39.3835 48.2756L34.4833 42.8643C34.2179 42.5631 34.0868 42.1738 34.1185 41.7807C34.1501 41.3875 34.3419 41.0221 34.6523 40.7634C34.9628 40.5047 35.367 40.3735 35.7775 40.3982C36.1881 40.4229 36.572 40.6014 36.8463 40.8953L40.6938 45.1417L49.278 37.6003C49.5848 37.3329 49.9895 37.1927 50.4038 37.2103C50.818 37.2279 51.2082 37.4018 51.4891 37.6942ZM63.5781 49.8228C63.6996 49.7412 63.7902 49.6239 63.8359 49.4886C63.8817 49.3533 63.8803 49.2074 63.8318 49.0729L62.2299 44.0836C61.9956 43.3776 61.9956 42.6194 62.2299 41.9134L63.8318 36.924C63.8801 36.7895 63.8815 36.6435 63.8357 36.5082C63.79 36.3728 63.6995 36.2554 63.5781 36.1736L59.222 33.0392C58.5992 32.6012 58.1345 31.9878 57.8928 31.2845L56.1312 26.3485C56.0882 26.2119 55.9996 26.0927 55.8789 26.0092C55.7583 25.9257 55.6123 25.8826 55.4635 25.8866L50.018 25.8061C49.2464 25.7995 48.4955 25.5658 47.867 25.1367L43.4113 22.1292C43.2934 22.0424 43.1488 21.9953 43.0001 21.9953C42.8514 21.9953 42.7069 22.0424 42.589 22.1292L38.1333 25.1367C37.5045 25.5658 36.7535 25.7994 35.9817 25.8061L30.5362 25.8866C30.3874 25.8825 30.2413 25.9255 30.1206 26.009C29.9999 26.0925 29.9113 26.2118 29.8685 26.3485L28.1047 31.2845C27.863 31.9878 27.3983 32.6012 26.7755 33.0392L22.4222 36.1731C22.3007 36.2549 22.2102 36.3723 22.1643 36.5076C22.1185 36.6429 22.1197 36.7889 22.1679 36.9235L23.7704 41.9129C24.0046 42.6188 24.0046 43.3771 23.7704 44.083L22.1679 49.0724C22.1198 49.2069 22.1185 49.3528 22.1644 49.488C22.2103 49.6233 22.3007 49.7406 22.4222 49.8223L26.7783 52.9567C27.401 53.3948 27.8657 54.0082 28.1075 54.7114L29.8713 59.6474C29.9126 59.785 30.0008 59.9053 30.1219 59.9891C30.2429 60.0729 30.3898 60.1154 30.539 60.1098L35.985 60.1968C36.7568 60.1978 37.5086 60.4323 38.1333 60.8666L42.589 63.8667C42.7077 63.9516 42.8519 63.9975 43.0001 63.9975C43.1483 63.9975 43.2925 63.9516 43.4113 63.8667L47.867 60.8666C48.4924 60.4317 49.2453 60.1972 50.018 60.1968L55.4635 60.1098C55.6127 60.1154 55.7596 60.0729 55.8806 59.9891C56.0016 59.9053 56.0899 59.785 56.1312 59.6474L57.895 54.7114C58.1368 54.0082 58.6015 53.3948 59.2242 52.9567L63.5803 49.8223L63.5781 49.8228ZM66.823 48.1887L65.2211 43.1993C65.1727 43.0694 65.1727 42.9275 65.2211 42.7977L66.823 37.8078C67.062 37.0831 67.0588 36.305 66.8139 35.5822C66.569 34.8594 66.0946 34.228 65.457 33.7763L61.101 30.6418C60.9806 30.5639 60.893 30.4475 60.8539 30.3133L59.0901 25.3773C58.8381 24.657 58.358 24.03 57.7168 23.5835C57.0755 23.137 56.305 22.8932 55.5125 22.886L50.0664 22.8055C49.9219 22.8081 49.7807 22.7634 49.6664 22.6786L45.2113 19.678C44.5658 19.237 43.7928 19 43.0001 19C42.2074 19 41.4345 19.237 40.789 19.678L36.3333 22.6796C36.219 22.7644 36.0778 22.8092 35.9333 22.8066L30.4878 22.8871C29.6952 22.8942 28.9247 23.138 28.2835 23.5845C27.6423 24.031 27.1622 24.6581 26.9101 25.3783L25.1463 30.3144C25.1073 30.4485 25.0197 30.565 24.8993 30.6429L20.5432 33.7763C19.9057 34.228 19.4313 34.8594 19.1863 35.5822C18.9413 36.305 18.9379 37.0831 19.1767 37.8078L20.7791 42.7977C20.827 42.9276 20.827 43.0693 20.7791 43.1993L19.1767 48.1887C18.9379 48.9134 18.9412 49.6916 19.1862 50.4145C19.4312 51.1374 19.9056 51.7688 20.5432 52.2207L24.8993 55.3551C25.0196 55.4329 25.1072 55.5492 25.1463 55.6831L26.9101 60.6192C27.1597 61.341 27.6391 61.9695 28.2809 62.4164C28.9227 62.8633 29.6945 63.106 30.4878 63.1104L35.9333 63.1909C36.0773 63.1921 36.2172 63.2367 36.3333 63.3184L40.789 66.3216C41.4344 66.7628 42.2074 67 43.0001 67C43.7929 67 44.5659 66.7628 45.2113 66.3216L49.6664 63.32C49.7827 63.2383 49.9228 63.1937 50.067 63.1925L55.5125 63.112C56.3057 63.1076 57.0776 62.8649 57.7194 62.418C58.3612 61.9711 58.8406 61.3425 59.0901 60.6208L60.8539 55.6847C60.8931 55.5508 60.9807 55.4345 61.101 55.3567L65.457 52.2223C66.0947 51.7705 66.5691 51.139 66.814 50.4161C67.0589 49.6932 67.062 48.915 66.823 48.1903V48.1887ZM43.0001 54.6719C45.409 54.6723 47.7639 53.988 49.7669 52.7055C51.77 51.4229 53.3313 49.5998 54.2533 47.4667C55.1754 45.3335 55.4168 42.9862 54.947 40.7215C54.4772 38.4569 53.3173 36.3766 51.6141 34.7439C49.9108 33.1111 47.7406 31.9992 45.3781 31.5488C43.0155 31.0984 40.5666 31.3296 38.3412 32.2134C36.1158 33.0971 34.2137 34.5936 32.8756 36.5136C31.5375 38.4336 30.8235 40.6908 30.8238 42.9998C30.8277 46.0942 32.1117 49.0609 34.3944 51.249C36.677 53.4371 39.7719 54.6681 43.0001 54.6719ZM43.0001 28.325C39.9722 28.3245 37.0122 29.1847 34.4943 30.7968C31.9764 32.4088 30.0138 34.7004 28.8547 37.3817C27.6956 40.063 27.392 43.0136 27.9823 45.8603C28.5726 48.7069 30.0304 51.3219 32.1712 53.3744C34.312 55.4269 37.0397 56.8248 40.0094 57.3913C42.979 57.9578 46.0573 57.6674 48.8548 56.5569C51.6522 55.4464 54.0434 53.5657 55.7257 51.1525C57.4081 48.7394 58.3061 45.9022 58.3062 42.9998C58.302 39.1095 56.6883 35.3797 53.8188 32.6285C50.9494 29.8773 47.0586 28.3294 43.0001 28.3245V28.325Z" fill="#703391"/>
</svg>
