<svg width="70" height="63" viewBox="0 0 70 63" fill="none" xmlns="http://www.w3.org/2000/svg">
<path d="M35 37.7581C38.4518 37.7581 41.25 34.9279 41.25 31.4367C41.25 27.9454 38.4518 25.1152 35 25.1152C31.5482 25.1152 28.75 27.9454 28.75 31.4367C28.75 34.9279 31.5482 37.7581 35 37.7581Z" fill="#00D8FF"/>
<path d="M35 45.9303C27.4878 46.1141 19.9945 45.0899 12.8 42.896C9.47655 41.8305 6.37684 40.1519 3.6575 37.9451C2.61982 37.1912 1.75568 36.2192 1.12436 35.0957C0.493031 33.9723 0.109474 32.724 0 31.4365C0 27.2568 4.54 23.1605 12.145 20.4802C19.5318 18.1052 27.2498 16.9542 35 17.0716C42.6468 16.9636 50.2614 18.0938 57.555 20.4195C60.7557 21.4515 63.7503 23.049 66.4 25.1378C67.4199 25.8565 68.2711 26.7933 68.8932 27.8818C69.5154 28.9703 69.8932 30.1839 70 31.4365C70 35.7806 64.925 40.1829 56.75 42.9188C49.6948 45.0412 42.3596 46.0569 35 45.9303ZM35 20.0958C27.5853 19.9956 20.2021 21.0898 13.1275 23.3375C6.1275 25.8079 2.99 29.1861 2.99 31.4289C2.99 33.7755 6.3625 37.4647 13.7675 40.0261C20.6502 42.1143 27.8165 43.0864 35 42.9062C42.041 43.0335 49.0598 42.0699 55.8125 40.0489C63.5 37.4722 67 33.778 67 31.4365C66.8739 30.633 66.5844 29.8647 66.1497 29.1801C65.7151 28.4955 65.1449 27.9094 64.475 27.4591C62.1044 25.606 59.4292 24.1902 56.5725 23.2768C49.5951 21.0611 42.3124 19.9873 35 20.0958Z" fill="#00D8FF"/>
<path d="M20.8 62.9654C19.6338 62.9925 18.4813 62.7063 17.46 62.136C13.88 60.0474 12.64 54.0243 14.1425 46.0214C15.7991 38.3625 18.6695 31.0251 22.6425 24.2933C26.3693 17.5397 31.1405 11.4327 36.775 6.2038C39.2579 3.91468 42.1222 2.08864 45.235 0.810332C46.3609 0.276648 47.5891 0 48.8325 0C50.0759 0 51.3041 0.276648 52.43 0.810332C56.1525 2.97986 57.385 9.62497 55.6475 18.1539C53.9397 25.3972 51.1439 32.3327 47.3575 38.7188C43.7618 45.3927 39.1409 51.4465 33.6675 56.6541C31.0945 59.0329 28.1083 60.9095 24.86 62.1891C23.5596 62.6773 22.1869 62.9398 20.8 62.9654ZM25.2325 25.7952C21.4427 32.2414 18.6917 39.2567 17.0825 46.5777C15.7 53.9485 17.0275 58.3811 18.9575 59.5088C20.9575 60.6796 25.8125 59.5695 31.7075 54.3606C36.9326 49.3716 41.3431 43.5768 44.775 37.1916C48.4023 31.0863 51.0842 24.4555 52.7275 17.5293C54.3625 9.50107 52.95 4.58551 50.945 3.4173C50.1935 3.12608 49.3905 2.99571 48.5867 3.03445C47.7828 3.07318 46.9957 3.28018 46.275 3.64234C43.5042 4.79878 40.9568 6.44055 38.75 8.49216C33.3667 13.5007 28.8092 19.3472 25.25 25.8104L25.2325 25.7952Z" fill="#00D8FF"/>
<path d="M49.1925 62.9983C45.805 62.9983 41.5025 60.9248 37.0225 57.0283C31.2892 51.7518 26.4374 45.5723 22.655 38.7289C18.7318 32.0898 15.8842 24.8585 14.22 17.3093C13.4983 13.988 13.3645 10.5636 13.825 7.195C13.9314 5.94539 14.3076 4.73462 14.9271 3.64807C15.5465 2.56151 16.3941 1.62563 17.41 0.906419C21.1275 -1.27069 27.435 0.967105 33.8725 6.74744C39.224 11.8607 43.7685 17.7738 47.3475 24.2806C51.2682 30.7648 54.1458 37.8377 55.8725 45.235C56.6253 48.6782 56.7414 52.2326 56.215 55.7185C56.0897 57.004 55.6911 58.247 55.0464 59.3621C54.4017 60.4772 53.5263 61.4382 52.48 62.179C51.4754 62.7422 50.3408 63.0249 49.1925 62.9983ZM25.2425 37.2067C28.8711 43.7467 33.5057 49.6609 38.9725 54.7273C44.595 59.6201 49.055 60.672 50.9725 59.5316C52.9725 58.3558 54.4475 53.5565 52.9275 45.7913C51.2622 38.7288 48.5022 31.9774 44.75 25.7877C41.3346 19.5601 36.9968 13.8979 31.8875 8.99788C25.8275 3.55637 20.9125 2.34013 18.91 3.51339C18.2859 4.02639 17.7737 4.66471 17.4058 5.38804C17.0378 6.11138 16.8222 6.90401 16.7725 7.71589C16.375 10.7201 16.5045 13.7716 17.155 16.7303C18.7557 23.9497 21.4868 30.8641 25.245 37.2118L25.2425 37.2067Z" fill="#00D8FF"/>
</svg>
