<svg width="56" height="58" viewBox="0 0 56 58" fill="none" xmlns="http://www.w3.org/2000/svg">
<path d="M35.4162 44.2695C37.1488 44.2695 38.718 44.9825 39.8526 46.1333C40.9902 47.2842 41.6902 48.8759 41.6902 50.6333C41.6902 52.3906 40.9872 53.9823 39.8526 55.1361C38.718 56.287 37.1458 57 35.4162 57C33.6836 57 32.1144 56.287 30.9797 55.1361C29.8422 53.9823 29.1422 52.3906 29.1422 50.6333C29.1422 50.3197 29.1655 50.009 29.2093 49.7043H15.4155C15.4476 49.8729 15.4826 50.0415 15.5205 50.2102L15.7626 51.2782C15.8268 51.5563 15.6518 51.8374 15.3776 51.8995L13.2717 52.3906C12.9975 52.4557 12.7204 52.2782 12.6591 52.0001L12.417 50.932C12.1749 49.8581 12.0408 48.7664 12.0466 47.6747C12.0524 46.6421 12.1808 45.6125 12.455 44.5919C13.0208 42.4824 14.1321 40.6836 15.5555 39.1511C16.7572 37.8553 18.1835 36.7488 19.6944 35.7991C17.2239 34.4263 15.3513 32.9974 14.0738 31.5388C12.6912 29.959 12 28.3376 12 26.7016C12 25.0656 12.6913 23.4442 14.0738 21.8644C15.3513 20.4058 17.224 18.9769 19.6944 17.6041C18.1836 16.6544 16.7572 15.5479 15.5555 14.2521C14.1291 12.7166 13.0208 10.9178 12.455 8.8113C12.1808 7.79057 12.0524 6.7581 12.0466 5.72851C12.0408 4.63681 12.172 3.54512 12.417 2.47114L12.6591 1.40308C12.7233 1.12497 12.9975 0.950417 13.2717 1.01255L15.3776 1.50367C15.6518 1.56876 15.8238 1.84687 15.7626 2.12496L15.5205 3.19303C15.4826 3.35575 15.4505 3.51256 15.4213 3.6664L15.4155 3.69894H30.8744C30.8453 3.53622 30.8103 3.36758 30.7694 3.19303L30.5273 2.12496C30.4661 1.84686 30.6382 1.5658 30.9123 1.50367L33.0183 1.01255C33.2924 0.950423 33.5695 1.12498 33.6308 1.40308L33.8729 2.47114C34.1179 3.54512 34.2492 4.63681 34.2433 5.72851C34.2375 6.76105 34.1091 7.79064 33.835 8.8113C33.2691 10.9208 32.1578 12.7196 30.7344 14.2521C29.5327 15.5479 28.1064 16.6544 26.5955 17.6041C26.8347 17.7372 27.068 17.8704 27.2926 18.0035C27.663 18.2195 28.016 18.4384 28.3485 18.6514C29.9819 17.4177 32.0061 16.684 34.1996 16.684C36.9064 16.684 39.3564 17.7964 41.1298 19.5952C42.9032 21.394 44 23.8822 44 26.6247C44 29.3702 42.9032 31.8553 41.1298 33.6541C39.3564 35.4529 36.9064 36.5653 34.1996 36.5653C32.0528 36.5653 30.0664 35.8642 28.4506 34.6778C28.0976 34.9056 27.7301 35.1364 27.3451 35.3612C27.103 35.5062 26.8492 35.6482 26.5926 35.7932C28.1034 36.7428 29.5298 37.8493 30.7315 39.1452C32.1287 40.6511 33.2253 42.4144 33.8 44.4705C34.3163 44.3404 34.8591 44.2695 35.4162 44.2695ZM29.4455 48.6629C29.7489 47.7221 30.2593 46.8759 30.9273 46.1837C30.9127 46.1008 30.8981 46.021 30.8806 45.9411C30.8427 45.7665 30.8048 45.5979 30.761 45.4411L30.7581 45.4322L15.5269 45.4352L15.524 45.4441C15.314 46.2251 15.2206 47.018 15.2265 47.8138C15.2294 48.0949 15.244 48.3789 15.2702 48.6629L29.4455 48.6629ZM31.811 45.4204C32.1319 45.1926 32.4761 44.9914 32.8349 44.8257C32.3127 42.9145 31.2919 41.2755 29.9851 39.8642C28.7338 38.5152 27.22 37.3791 25.6216 36.4175L25.607 36.4087C25.0703 36.098 24.5365 35.8081 24.0115 35.533C23.4982 35.2637 22.9906 35.0123 22.4948 34.7785L22.4744 34.7697C22.2907 34.6839 22.139 34.6188 22.0252 34.5655L21.999 34.5537C19.9659 33.5182 18.3355 32.4945 17.1104 31.4798C17.0842 31.462 17.0608 31.4413 17.0375 31.4176C16.7458 31.1721 16.4745 30.9295 16.2325 30.6839C14.9024 29.3585 14.2432 28.0272 14.2549 26.6721C14.252 26.6573 14.252 26.6455 14.252 26.6307C14.252 26.61 14.252 26.5893 14.2549 26.5715V26.5301L14.2578 26.4739V26.4443C14.3074 25.6721 14.5758 24.9059 15.0628 24.1425C15.5237 23.4236 16.18 22.7047 17.0375 21.9887C17.0579 21.968 17.0812 21.9473 17.1075 21.9325C17.1833 21.8674 17.2067 21.8496 17.2358 21.826V21.8289L17.2417 21.823L17.2679 21.8023C17.8717 21.3141 18.5717 20.8259 19.3651 20.3319C20.1322 19.8556 20.9956 19.3734 21.9523 18.8822C21.8589 18.8319 21.7627 18.7846 21.6693 18.7343C21.3602 18.5686 21.0481 18.4 20.733 18.2195C18.0933 19.6278 16.1303 21.0804 14.8441 22.5538C13.6336 23.9354 13.0298 25.326 13.0298 26.7046C13.0298 28.0833 13.6336 29.4738 14.8441 30.8555C16.0954 32.2844 17.9854 33.6986 20.5114 35.0684C20.8847 35.2548 21.2668 35.4412 21.6489 35.6276C22.2001 35.8968 22.7485 36.1661 23.3289 36.4619C23.3464 36.4679 23.3639 36.4767 23.3815 36.4856C23.5506 36.5714 23.7169 36.6602 23.8831 36.7489L23.889 36.7519L23.9036 36.7608C25.5195 37.6305 27.1237 38.6868 28.4742 39.9649C28.6025 40.0862 28.7279 40.2104 28.8534 40.3377C28.8709 40.3525 28.8855 40.3702 28.903 40.388C30.1105 41.6246 31.076 43.0565 31.6156 44.7133C31.6301 44.7429 31.6389 44.7754 31.6476 44.808C31.6856 44.9293 31.7206 45.0535 31.7556 45.1778C31.7731 45.2577 31.7935 45.3405 31.811 45.4204ZM27.5233 19.3557C27.2813 19.2048 27.0333 19.0539 26.7796 18.903C26.4208 18.693 26.0445 18.4829 25.6566 18.2729C25.2103 18.0599 24.694 17.8054 24.1107 17.5155C23.7315 17.3291 23.3611 17.1427 22.9994 16.9593C22.9702 16.9504 22.944 16.9386 22.9148 16.9238C22.7456 16.838 22.5794 16.7492 22.4102 16.6605L22.3927 16.6516C21.5964 16.2226 20.8001 15.7463 20.0301 15.2167C19.1025 14.5777 18.2246 13.8677 17.4429 13.0777C17.4225 13.06 17.4021 13.0393 17.3875 13.0185C16.7866 12.4032 16.2441 11.7375 15.7833 11.0215C15.3224 10.2997 14.9432 9.52449 14.6749 8.69319C14.6632 8.66656 14.6545 8.63993 14.6486 8.61034C14.6253 8.53638 14.6078 8.47721 14.5961 8.44466V8.44171C14.5815 8.39733 14.564 8.32928 14.5378 8.23461C14.354 7.5571 14.2519 6.87366 14.2169 6.19322C14.1849 5.52755 14.214 4.86189 14.2986 4.19622C14.3015 4.1696 14.3044 4.14297 14.3103 4.11338L14.3249 4.02167L14.3278 3.99504C14.3511 3.83528 14.3803 3.66073 14.4153 3.48026C14.4474 3.3057 14.4824 3.13411 14.5232 2.96547L14.6516 2.40334L13.5432 2.14595L13.4148 2.70808C13.1873 3.71396 13.0648 4.72583 13.0677 5.72876C13.0735 6.67254 13.1902 7.61336 13.4411 8.5423C13.9603 10.4713 14.984 12.1251 16.3024 13.5452C17.4866 14.8203 18.9071 15.9091 20.4122 16.8381L20.4355 16.8529C21.0364 17.2138 21.6022 17.5334 22.1389 17.8174C22.591 18.057 23.0343 18.2789 23.4689 18.486L23.8131 18.6457C23.9939 18.7286 24.1456 18.7966 24.2652 18.8499L24.2885 18.8617C24.8194 19.1309 25.3182 19.3972 25.779 19.6576C26.1115 19.844 26.4265 20.0304 26.724 20.2079C26.8991 19.9978 27.0828 19.7966 27.2724 19.6043C27.3541 19.5185 27.4358 19.4356 27.5233 19.3557ZM26.097 21.0391C25.8316 20.8794 25.5603 20.7196 25.2803 20.5628C24.8223 20.3054 24.3498 20.051 23.8539 19.7995C23.6702 19.7167 23.5156 19.6486 23.3931 19.5924C23.326 19.5628 23.2443 19.5244 23.1451 19.477L22.8972 19.5924C22.7747 19.6486 22.6201 19.7196 22.4364 19.7995C21.5059 20.2759 20.66 20.7492 19.8959 21.2226C19.5604 21.4297 19.2454 21.6368 18.945 21.8439H25.6128C25.7616 21.5658 25.922 21.2965 26.097 21.0391ZM25.1228 22.8823H17.5796C16.8592 23.5007 16.305 24.1072 15.9228 24.7107C15.6224 25.1841 15.4241 25.6486 15.3337 26.1131H24.4135C24.4719 24.9741 24.7173 23.8882 25.1228 22.8823ZM24.414 27.1515H15.311C15.4481 28.0597 15.9935 28.9887 16.9502 29.9414C17.1456 30.1367 17.3556 30.329 17.5832 30.5242H25.1816C24.7411 29.4828 24.4752 28.3467 24.414 27.1515ZM25.6915 31.5686H18.942C19.9163 32.2401 21.0801 32.9236 22.4335 33.6129C22.6201 33.6957 22.7747 33.7638 22.8943 33.82C22.9614 33.8496 23.0431 33.888 23.1422 33.9354C23.2414 33.888 23.326 33.8496 23.3902 33.82C23.5068 33.7667 23.6614 33.6957 23.8481 33.6129C24.3585 33.3525 24.8515 33.0892 25.3211 32.8229C25.6128 32.6573 25.8957 32.4945 26.167 32.3289C25.9978 32.0833 25.8403 31.8319 25.6915 31.5686ZM26.8028 33.1544C26.4907 33.3467 26.1641 33.539 25.8199 33.7313C25.3561 33.9916 24.8602 34.2609 24.3294 34.5301L24.4811 34.61C24.834 34.7934 25.1899 34.9887 25.5515 35.1899C25.9978 34.9532 26.4237 34.7135 26.832 34.4739C27.1003 34.3141 27.3599 34.1573 27.6137 33.9976C27.497 33.8881 27.3804 33.7786 27.2695 33.6662C27.1091 33.5005 26.9545 33.3289 26.8028 33.1544ZM21.1968 36.5626L20.7709 36.3555C19.1317 37.3319 17.58 38.4886 16.2995 39.8673C14.9811 41.2874 13.9573 42.9412 13.4381 44.8702C13.1873 45.7992 13.0706 46.743 13.0648 47.6837C13.0589 48.6867 13.1843 49.7015 13.4119 50.7044L13.5402 51.2665L14.6486 51.0092L14.5202 50.447C14.4327 50.0654 14.3627 49.6837 14.3102 49.2991C14.3044 49.2725 14.3015 49.2429 14.2986 49.2133C14.2402 48.7518 14.2082 48.2873 14.2023 47.8199C14.1965 46.9353 14.2986 46.0507 14.5348 45.175C14.5669 45.0507 14.6048 44.9264 14.6427 44.8051C14.6515 44.7726 14.6602 44.7401 14.6719 44.7105C15.2115 43.0537 16.1799 41.6218 17.3845 40.3851C17.3991 40.3674 17.4166 40.3526 17.4341 40.3348C17.5595 40.2106 17.685 40.0863 17.8133 39.962C19.0617 38.7845 20.523 37.7934 22.0106 36.9621C21.7422 36.829 21.4709 36.6957 21.1968 36.5626ZM23.4136 37.6751L23.1394 37.5331C21.7306 38.2727 20.3218 39.1573 19.0909 40.2046H27.194C26.0419 39.2223 24.7352 38.3851 23.4168 37.6751H23.4136ZM22.874 15.7374L23.1481 15.8764C24.0115 15.4238 24.8691 14.9208 25.6828 14.3587C26.2049 13.9978 26.7124 13.6161 27.1937 13.2049H19.0935C19.5748 13.6161 20.0823 14.0008 20.6044 14.3587C21.3336 14.8646 22.101 15.3202 22.874 15.7374ZM24.274 16.4445L24.557 16.5865C24.8661 16.7403 25.187 16.8971 25.5166 17.0569C27.1558 16.0805 28.7076 14.9238 29.9881 13.5451C31.3035 12.125 32.3303 10.4712 32.8494 8.54218C33.0974 7.61317 33.217 6.6694 33.2228 5.72865C33.2286 4.72572 33.1032 3.71089 32.8757 2.70796L32.7473 2.14584L31.6389 2.40323L31.7673 2.96535C31.811 3.1547 31.8519 3.35588 31.8898 3.56298C31.9219 3.74936 31.951 3.93575 31.9773 4.11622C31.9831 4.14285 31.986 4.16948 31.989 4.1961C32.0735 4.86178 32.1027 5.52744 32.0706 6.19311C32.0386 6.87357 31.9335 7.55701 31.7498 8.23449C31.7206 8.34395 31.7002 8.41496 31.6915 8.44454C31.6798 8.48596 31.6623 8.53922 31.639 8.61318C31.6331 8.64277 31.6244 8.66939 31.6127 8.69602C31.3443 9.52741 30.9652 10.3025 30.5043 11.0244C30.0464 11.7403 29.5039 12.406 28.9001 13.0214C28.8826 13.0421 28.8622 13.0628 28.8447 13.0806C28.0659 13.8705 27.185 14.5806 26.2575 15.2196C25.6129 15.6633 24.9449 16.0717 24.274 16.4445ZM28.2963 41.2458H17.9911C17.1044 42.1778 16.3693 43.2251 15.8852 44.3937H30.4047C29.9176 43.2221 29.1859 42.1777 28.2963 41.2458ZM31.0176 4.74663H15.2697C15.226 5.21112 15.2172 5.67859 15.2406 6.14309C15.2726 6.75551 15.3631 7.36499 15.5235 7.96855L15.5264 7.97742H30.7606L30.7635 7.96855C30.9268 7.36796 31.0173 6.75847 31.0464 6.14309C31.0698 5.6786 31.0585 5.21113 31.0176 4.74663ZM17.9914 12.1667H28.2966C28.8013 11.6341 29.2592 11.0661 29.6442 10.4596C29.9388 10.001 30.1926 9.52172 30.4026 9.01586H15.883C16.093 9.51881 16.3468 10.0011 16.6413 10.4596C17.0293 11.0661 17.4839 11.6341 17.9914 12.1667ZM40.4074 20.3381C38.8206 18.7257 36.6243 17.7316 34.2004 17.7316C31.7766 17.7316 29.5831 18.7287 27.9964 20.3381C27.3489 20.9949 26.8034 21.7523 26.3805 22.5896L26.3746 22.6014C25.7679 23.8115 25.4238 25.1812 25.4238 26.6339C25.4238 29.0924 26.4067 31.3173 27.9935 32.9297C29.5802 34.5391 31.7766 35.5361 34.1975 35.5361C36.6214 35.5361 38.8148 34.5391 40.4044 32.9297C41.9912 31.3173 42.9741 29.0924 42.9741 26.6339C42.98 24.1753 41.997 21.9505 40.4074 20.3381ZM31.9137 24.3114V21.1044C31.9137 20.9446 31.9778 20.7967 32.0828 20.6902C32.1878 20.5836 32.3308 20.5186 32.4912 20.5186H35.9097C36.0701 20.5186 36.213 20.5836 36.318 20.6902C36.423 20.7967 36.4872 20.9446 36.4872 21.1044V24.3114H39.6519C39.8094 24.3114 39.9553 24.3765 40.0603 24.483C40.1653 24.5895 40.2294 24.7345 40.2294 24.8972V28.3646C40.2294 28.5273 40.1653 28.6753 40.0603 28.7788C39.9553 28.8853 39.8094 28.9504 39.6519 28.9504H36.4872V32.1575C36.4872 32.3172 36.423 32.4652 36.318 32.5717H36.3209C36.2159 32.6782 36.0701 32.7433 35.9126 32.7433H32.4941C32.3366 32.7433 32.1908 32.6782 32.0858 32.5717C32.0595 32.5451 32.0391 32.5184 32.0216 32.4888C31.9545 32.3942 31.9166 32.2788 31.9166 32.1545V28.9474H28.7548C28.5972 28.9474 28.4543 28.8824 28.3493 28.7729H28.3464C28.2414 28.6664 28.1772 28.5185 28.1772 28.3587V24.8913C28.1772 24.7315 28.2414 24.5836 28.3464 24.4771C28.3727 24.4505 28.3989 24.4268 28.4281 24.4091C28.5214 24.344 28.6352 24.3055 28.7548 24.3055L31.9137 24.3114ZM35.4634 24.8321V21.557H32.9404V24.8321C32.9404 25.1191 32.7099 25.3528 32.427 25.3528H29.1981V27.912H32.427C32.7099 27.912 32.9404 28.1457 32.9404 28.4327V31.7078H35.4634V28.4327C35.4634 28.1457 35.6938 27.912 35.9768 27.912H39.2056V25.3528H35.9768C35.6938 25.3528 35.4634 25.1221 35.4634 24.8321ZM36.6301 47.4439C36.423 47.5001 36.2538 47.6392 36.1547 47.8167C36.0526 47.9942 36.0176 48.2102 36.073 48.4232L36.4609 49.8877L37.9835 49.4735L37.5956 48.009V48.006C37.5402 47.796 37.4031 47.6244 37.2281 47.5238C37.0531 47.4202 36.8401 47.3877 36.6301 47.4439ZM36.7235 50.8906L37.1114 52.3551C37.1668 52.5681 37.3039 52.7368 37.4818 52.8373C37.6539 52.9379 37.8698 52.9734 38.0798 52.9172C38.2898 52.861 38.456 52.722 38.5552 52.5444C38.6544 52.3669 38.6894 52.151 38.634 51.9379L38.2489 50.4735L36.7235 50.8906ZM35.2651 47.296C35.4926 46.8995 35.863 46.5859 36.3297 46.4498C36.3501 46.441 36.3764 46.435 36.3968 46.4321C36.8664 46.3137 37.3447 46.3966 37.7386 46.6273C38.1294 46.8581 38.4386 47.2338 38.5728 47.7072C38.5815 47.7279 38.5873 47.7516 38.5903 47.7723L39.0978 49.6954L39.1007 49.7072L39.1036 49.7131L39.6228 51.6746C39.7512 52.1628 39.6724 52.6598 39.4391 53.0681C39.2115 53.4675 38.8411 53.7781 38.3744 53.9142C38.3511 53.9231 38.3277 53.929 38.3073 53.932C37.8377 54.0503 37.3594 53.9675 36.9656 53.7367C36.7147 53.5888 36.496 53.3817 36.3385 53.1272C35.9651 53.4763 35.5188 53.7249 35.0405 53.855C34.2792 54.0621 33.4421 53.9763 32.7041 53.5474L32.6925 53.5385C31.9516 53.1065 31.4558 52.4083 31.2516 51.6332C31.0474 50.8581 31.1349 50.0031 31.5607 49.2516H31.5637L31.5695 49.2427C31.9953 48.4972 32.6808 47.9972 33.4392 47.7901C33.9642 47.6451 34.5271 47.6451 35.0667 47.7989C35.1105 47.6244 35.1776 47.4557 35.2651 47.296ZM35.7172 51.0918L35.6063 50.6717L35.6005 50.6569V50.6509L35.1484 48.938C34.6846 48.7072 34.1742 48.6717 33.7046 48.7989C33.3516 48.8966 33.0221 49.0859 32.7596 49.3581L35.7172 51.0918ZM32.2491 50.2574C32.147 50.6273 32.147 51.0089 32.2433 51.3669C32.3775 51.8757 32.6983 52.3343 33.1767 52.6243C33.1942 52.6331 33.2146 52.645 33.2321 52.6568C33.7192 52.932 34.2734 52.9882 34.7751 52.8491C35.128 52.7544 35.4547 52.5621 35.7201 52.29L32.2491 50.2574ZM39.1269 46.8669C38.1761 45.9025 36.8664 45.3078 35.4167 45.3078C33.9671 45.3078 32.6545 45.9054 31.7065 46.8669C30.7557 47.8314 30.1664 49.1627 30.1664 50.6332C30.1664 52.1036 30.7556 53.4349 31.7065 54.3994C32.6574 55.3639 33.967 55.9586 35.4167 55.9586C36.8664 55.9586 38.1789 55.3639 39.1269 54.3994C40.0778 53.435 40.6641 52.1066 40.6641 50.6332C40.6641 49.1628 40.0778 47.8315 39.1269 46.8669Z" fill="#703391" stroke="#703391" stroke-width="0.5"/>
</svg>
