<svg width="56" height="56" viewBox="0 0 56 56" fill="none" xmlns="http://www.w3.org/2000/svg">
<path d="M33.6093 34.8554L34.1729 35.1673C34.5912 35.3963 35.0814 35.4567 35.5428 35.3358C36.0042 35.215 36.4019 34.9222 36.6543 34.5175L38.1976 31.9638C38.321 31.7616 38.4019 31.5364 38.4353 31.3019C38.4687 31.0673 38.4539 30.8285 38.3919 30.5999C38.3295 30.3659 38.2201 30.147 38.0703 29.9567C37.9206 29.7664 37.7336 29.6085 37.5209 29.4929L36.9304 29.1776C36.9866 28.7876 37.0148 28.394 37.0148 28C37.0148 27.6098 36.9861 27.2161 36.9626 26.8146L37.5209 26.5063C37.7336 26.3908 37.9206 26.2332 38.0704 26.043C38.2201 25.8528 38.3295 25.634 38.3919 25.4001C38.4538 25.1717 38.4685 24.933 38.4351 24.6986C38.4017 24.4642 38.3209 24.2392 38.1976 24.0371L36.6543 21.4816C36.4014 21.0774 36.0037 20.785 35.5424 20.6644C35.0811 20.5438 34.5912 20.604 34.1729 20.8328L33.6102 21.1437C33.583 21.1533 33.5537 21.1557 33.5253 21.1505C33.4968 21.1453 33.4703 21.1327 33.4482 21.1141C32.8332 20.6634 32.164 20.2917 31.4563 20.0079C31.426 19.9972 31.3989 19.9792 31.377 19.9557V19.3399C31.3708 18.8594 31.1743 18.401 30.8307 18.0651C30.487 17.7293 30.0241 17.5434 29.5436 17.5483H26.4569C25.9764 17.5434 25.5135 17.7293 25.1699 18.0651C24.8262 18.401 24.6297 18.8594 24.6235 19.3399V19.9496C24.6033 19.9776 24.5746 19.9984 24.5416 20.0088C23.8338 20.2923 23.1645 20.6639 22.5497 21.115C22.5279 21.1335 22.5017 21.146 22.4735 21.1512C22.4454 21.1564 22.4164 21.1541 22.3894 21.1446L21.8259 20.8328C21.4075 20.6039 20.9174 20.5437 20.4561 20.6645C19.9947 20.7853 19.5971 21.0779 19.3445 21.4825L17.8012 24.0362C17.6777 24.2384 17.5969 24.4636 17.5635 24.6982C17.5301 24.9327 17.5449 25.1715 17.6069 25.4001C17.6693 25.6341 17.7787 25.853 17.9285 26.0433C18.0782 26.2336 18.2651 26.3915 18.4779 26.5072L19.0684 26.8224C19.0127 27.2125 18.9851 27.606 18.9857 28C18.9857 28.3902 19.0144 28.7839 19.0379 29.1854L18.4796 29.4937C18.2669 29.6092 18.0799 29.7668 17.9302 29.957C17.7804 30.1472 17.671 30.366 17.6087 30.5999C17.5467 30.8283 17.532 31.067 17.5654 31.3014C17.5988 31.5358 17.6796 31.7609 17.8029 31.9629L19.3463 34.5184C19.5989 34.9228 19.9967 35.2153 20.458 35.3359C20.9194 35.4565 21.4094 35.3962 21.8277 35.1673L22.3903 34.8563C22.4175 34.8461 22.4469 34.8435 22.4754 34.8487C22.5039 34.8539 22.5305 34.8668 22.5523 34.8859C23.1673 35.3366 23.8365 35.7083 24.5442 35.9921C24.5745 36.0028 24.6017 36.0208 24.6235 36.0443V36.6601C24.6297 37.1406 24.8262 37.599 25.1699 37.9349C25.5135 38.2707 25.9764 38.4566 26.4569 38.4517H29.5436C30.0241 38.4566 30.487 38.2707 30.8307 37.9349C31.1743 37.599 31.3708 37.1406 31.377 36.6601V36.0504C31.3973 36.0224 31.426 36.0016 31.4589 35.9912C32.1667 35.7077 32.836 35.3361 33.4508 34.8851C33.4724 34.8668 33.4984 34.8544 33.5262 34.8493C33.554 34.8441 33.5826 34.8462 33.6093 34.8554ZM32.4196 33.481C31.9228 33.8447 31.3823 34.1446 30.8109 34.3738C30.4698 34.5019 30.1751 34.7297 29.9654 35.0277C29.7556 35.3257 29.6405 35.68 29.6351 36.0443V36.6601C29.6351 36.6749 29.6029 36.7097 29.5436 36.7097H26.4569C26.3977 36.7097 26.3654 36.6749 26.3654 36.6601V36.0443C26.3601 35.6803 26.2452 35.3263 26.0358 35.0285C25.8264 34.7307 25.5321 34.5029 25.1914 34.3747C24.6197 34.1454 24.079 33.8455 23.5818 33.4819C23.2505 33.2376 22.8498 33.1055 22.4382 33.1048C22.1274 33.1035 21.8213 33.1814 21.549 33.3312L20.9854 33.643C20.9615 33.656 20.9339 33.6605 20.907 33.6559C20.8802 33.6513 20.8557 33.6379 20.8374 33.6178L19.321 31.0188L19.881 30.7105C20.1973 30.5425 20.4545 30.2817 20.6178 29.963C20.7812 29.6444 20.8429 29.2833 20.7947 28.9285C20.7053 28.3124 20.7053 27.6867 20.7947 27.0707C20.8428 26.7156 20.7808 26.3542 20.6169 26.0355C20.453 25.7168 20.1953 25.4561 19.8784 25.2887L19.294 24.9403L20.8374 22.3866C20.8552 22.3658 20.8797 22.3518 20.9067 22.347C20.9337 22.3422 20.9615 22.347 20.9854 22.3604L21.5498 22.6731C21.8679 22.843 22.2276 22.919 22.5872 22.8924C22.9468 22.8657 23.2914 22.7374 23.5809 22.5224C24.0777 22.1588 24.6182 21.8589 25.1896 21.6297C25.5308 21.5016 25.8254 21.2737 26.0352 20.9758C26.2449 20.6778 26.36 20.3235 26.3654 19.9592V19.3434C26.3654 19.3286 26.3977 19.2937 26.4569 19.2937H29.5436C29.6029 19.2937 29.6351 19.3286 29.6351 19.3434V19.9592C29.6405 20.3232 29.7553 20.6772 29.9647 20.975C30.1742 21.2728 30.4684 21.5006 30.8092 21.6288C31.3808 21.8581 31.9215 22.158 32.4187 22.5216C32.7079 22.738 33.0529 22.8671 33.4131 22.8938C33.7733 22.9205 34.1336 22.8436 34.4516 22.6723L35.0151 22.3604C35.0391 22.3477 35.0666 22.3432 35.0934 22.3478C35.1202 22.3524 35.1447 22.3657 35.1632 22.3857L36.6795 24.9847L36.1195 25.293C35.8032 25.461 35.5461 25.7218 35.3827 26.0405C35.2193 26.3591 35.1576 26.7202 35.2058 27.075C35.2953 27.6911 35.2953 28.3168 35.2058 28.9328C35.1577 29.2879 35.2198 29.6493 35.3836 29.968C35.5475 30.2867 35.8053 30.5474 36.1221 30.7148L36.7065 31.0632L35.1632 33.6169C35.1452 33.6376 35.1207 33.6515 35.0938 33.6562C35.0668 33.661 35.039 33.6563 35.0151 33.643L34.4507 33.3304C34.1328 33.1599 33.7729 33.0835 33.4132 33.1102C33.0535 33.1369 32.7088 33.2655 32.4196 33.481Z" fill="#703391" stroke="#703391"/>
<path d="M28.0003 23.2097C27.0529 23.2097 26.1267 23.4906 25.3389 24.017C24.5512 24.5433 23.9372 25.2915 23.5746 26.1668C23.212 27.0421 23.1172 28.0053 23.302 28.9346C23.4868 29.8638 23.9431 30.7174 24.613 31.3873C25.283 32.0573 26.1365 32.5135 27.0658 32.6983C27.995 32.8832 28.9582 32.7883 29.8335 32.4257C30.7088 32.0632 31.457 31.4492 31.9834 30.6614C32.5097 29.8736 32.7907 28.9475 32.7907 28C32.7893 26.73 32.2842 25.5123 31.3861 24.6142C30.488 23.7162 29.2704 23.211 28.0003 23.2097ZM28.0003 31.0484C27.3974 31.0484 26.808 30.8696 26.3067 30.5347C25.8054 30.1997 25.4147 29.7236 25.184 29.1666C24.9532 28.6096 24.8929 27.9966 25.0105 27.4053C25.1281 26.814 25.4184 26.2708 25.8448 25.8445C26.2711 25.4181 26.8143 25.1278 27.4056 25.0102C27.9969 24.8926 28.6099 24.9529 29.1669 25.1837C29.7239 25.4144 30.2 25.8051 30.535 26.3064C30.8699 26.8077 31.0487 27.3971 31.0487 28C31.0487 28.8085 30.7276 29.5839 30.1559 30.1556C29.5842 30.7273 28.8088 31.0484 28.0003 31.0484Z" fill="#703391" stroke="#703391"/>
<path d="M5.79048 46.2905C5.79048 46.9795 5.9948 47.6531 6.37762 48.226C6.76044 48.7989 7.30455 49.2455 7.94115 49.5092C8.57774 49.7729 9.27824 49.8418 9.95405 49.7074C10.6299 49.573 11.2506 49.2412 11.7379 48.754C12.2251 48.2667 12.5569 47.646 12.6913 46.9701C12.8258 46.2943 12.7568 45.5938 12.4931 44.9572C12.2294 44.3206 11.7828 43.7765 11.2099 43.3937C10.637 43.0109 9.96343 42.8066 9.27438 42.8066C8.76907 42.8089 8.27045 42.9222 7.81375 43.1384C4.50808 38.7854 2.72595 33.4659 2.74207 28C2.74362 23.8065 3.78886 19.6793 5.78354 15.9905C7.77822 12.3018 10.6596 9.16747 14.1679 6.87021C17.6762 4.57296 21.7012 3.18499 25.8797 2.83147C30.0583 2.47794 34.2592 3.16997 38.1036 4.84515L38.8004 3.24952C34.691 1.45844 30.2004 0.718364 25.7336 1.09603C21.2667 1.47369 16.9642 2.95723 13.2138 5.41284C9.46346 7.86846 6.38328 11.2189 4.25106 15.1621C2.11883 19.1053 1.0016 23.5172 1.00012 28C0.982558 33.8698 2.90484 39.5809 6.4681 44.2454C6.02955 44.8372 5.79207 45.5539 5.79048 46.2905ZM9.27438 44.5485C9.6189 44.5485 9.95569 44.6507 10.2422 44.8421C10.5286 45.0335 10.7519 45.3055 10.8837 45.6239C11.0156 45.9422 11.0501 46.2924 10.9829 46.6303C10.9156 46.9682 10.7497 47.2786 10.5061 47.5222C10.2625 47.7658 9.95212 47.9317 9.61421 47.9989C9.27631 48.0662 8.92606 48.0317 8.60776 47.8998C8.28946 47.768 8.01741 47.5447 7.826 47.2582C7.63459 46.9718 7.53243 46.635 7.53243 46.2905C7.53243 45.8285 7.71595 45.3854 8.04263 45.0587C8.36931 44.732 8.81238 44.5485 9.27438 44.5485Z" fill="#703391" stroke="#703391"/>
<path d="M50.2101 9.70955C50.2101 9.0205 50.0058 8.34692 49.623 7.774C49.2402 7.20107 48.6961 6.75453 48.0595 6.49084C47.4229 6.22716 46.7224 6.15816 46.0466 6.29259C45.3708 6.42702 44.75 6.75883 44.2628 7.24606C43.7755 7.73329 43.4437 8.35406 43.3093 9.02987C43.1749 9.70568 43.2439 10.4062 43.5075 11.0428C43.7712 11.6794 44.2178 12.2235 44.7907 12.6063C45.3636 12.9891 46.0372 13.1934 46.7262 13.1934C47.2315 13.1911 47.7302 13.0778 48.1869 12.8616C51.4925 17.2146 53.2747 22.5341 53.2586 28C53.257 32.1935 52.2118 36.3207 50.2171 40.0095C48.2224 43.6982 45.341 46.8325 41.8327 49.1298C38.3244 51.4271 34.2995 52.815 30.1209 53.1685C25.9423 53.5221 21.7414 52.83 17.897 51.1549L17.2002 52.7505C21.3096 54.5416 25.8002 55.2816 30.267 54.904C34.7339 54.5263 39.0365 53.0428 42.7868 50.5872C46.5372 48.1315 49.6173 44.7811 51.7496 40.8379C53.8818 36.8947 54.999 32.4828 55.0005 28C55.0181 22.1302 53.0958 16.4191 49.5325 11.7546C49.9711 11.1628 50.2085 10.4461 50.2101 9.70955ZM46.7262 11.4515C46.3817 11.4515 46.0449 11.3493 45.7585 11.1579C45.472 10.9665 45.2487 10.6945 45.1169 10.3762C44.985 10.0579 44.9506 9.70761 45.0178 9.36971C45.085 9.0318 45.2509 8.72142 45.4945 8.4778C45.7381 8.23419 46.0485 8.06828 46.3864 8.00107C46.7243 7.93385 47.0746 7.96835 47.3929 8.10019C47.7112 8.23204 47.9832 8.45531 48.1746 8.74177C48.366 9.02823 48.4682 9.36502 48.4682 9.70955C48.4682 10.1715 48.2847 10.6146 47.958 10.9413C47.6313 11.268 47.1882 11.4515 46.7262 11.4515Z" fill="#703391" stroke="#703391"/>
<path d="M28.0003 8.83856C26.4635 8.83779 24.9321 9.02113 23.439 9.38467L23.8518 11.077C26.4165 10.4516 29.0897 10.4166 31.6699 10.9748C34.25 11.533 36.6698 12.6698 38.7466 14.2993C40.8235 15.9289 42.5032 18.0088 43.6591 20.3821C44.8151 22.7554 45.4171 25.3602 45.4197 28C45.4288 31.5816 44.3199 35.0767 42.2477 37.9979C41.7506 37.7282 41.1949 37.5849 40.6294 37.5807C39.8499 37.5769 39.0915 37.8332 38.4742 38.3092C37.8569 38.7851 37.4161 39.4534 37.2216 40.2082C37.0271 40.963 37.09 41.7611 37.4003 42.4761C37.7107 43.1911 38.2508 43.7821 38.935 44.1555C39.6192 44.5289 40.4085 44.6632 41.1777 44.5373C41.9469 44.4114 42.6521 44.0324 43.1816 43.4604C43.7111 42.8884 44.0346 42.1561 44.1008 41.3794C44.167 40.6028 43.9722 39.8263 43.5471 39.1729C45.9059 35.9259 47.1717 32.0133 47.1617 28C47.1559 22.9198 45.1353 18.0494 41.5431 14.4572C37.9509 10.865 33.0804 8.84433 28.0003 8.83856ZM40.6294 42.8066C40.2849 42.8066 39.9481 42.7044 39.6616 42.513C39.3751 42.3216 39.1519 42.0495 39.02 41.7312C38.8882 41.4129 38.8537 41.0627 38.9209 40.7248C38.9881 40.3869 39.154 40.0765 39.3976 39.8329C39.6413 39.5893 39.9516 39.4234 40.2895 39.3561C40.6275 39.2889 40.9777 39.3234 41.296 39.4553C41.6143 39.5871 41.8864 39.8104 42.0778 40.0968C42.2692 40.3833 42.3713 40.7201 42.3713 41.0646C42.3713 41.5266 42.1878 41.9697 41.8611 42.2964C41.5345 42.623 41.0914 42.8066 40.6294 42.8066Z" fill="#703391" stroke="#703391"/>
<path d="M28.0003 47.1614C29.5371 47.1622 31.0684 46.9789 32.5616 46.6153L32.1487 44.923C29.584 45.5485 26.9108 45.5834 24.3307 45.0252C21.7505 44.467 19.3308 43.3302 17.2539 41.7007C15.1771 40.0711 13.4973 37.9912 12.3414 35.6179C11.1854 33.2446 10.5834 30.6398 10.5808 28C10.5717 24.4184 11.6807 20.9233 13.7529 18.0021C14.2499 18.2718 14.8057 18.4151 15.3711 18.4193C16.1506 18.4231 16.909 18.1668 17.5263 17.6908C18.1436 17.2149 18.5844 16.5466 18.7789 15.7918C18.9735 15.037 18.9106 14.2389 18.6002 13.5239C18.2898 12.8089 17.7498 12.2179 17.0655 11.8445C16.3813 11.4711 15.5921 11.3368 14.8229 11.4627C14.0536 11.5886 13.3484 11.9676 12.8189 12.5396C12.2894 13.1116 11.966 13.8439 11.8998 14.6206C11.8335 15.3972 12.0284 16.1737 12.4534 16.8271C10.0946 20.0741 8.82884 23.9867 8.83883 28C8.8446 33.0802 10.8652 37.9506 14.4575 41.5428C18.0497 45.135 22.9201 47.1557 28.0003 47.1614ZM15.3711 13.1934C15.7157 13.1934 16.0525 13.2956 16.3389 13.487C16.6254 13.6784 16.8486 13.9505 16.9805 14.2688C17.1123 14.5871 17.1468 14.9373 17.0796 15.2752C17.0124 15.6131 16.8465 15.9235 16.6029 16.1671C16.3593 16.4107 16.0489 16.5767 15.711 16.6439C15.3731 16.7111 15.0228 16.6766 14.7045 16.5447C14.3862 16.4129 14.1142 16.1896 13.9228 15.9032C13.7314 15.6167 13.6292 15.2799 13.6292 14.9354C13.6292 14.4734 13.8127 14.0303 14.1394 13.7036C14.4661 13.377 14.9091 13.1934 15.3711 13.1934Z" fill="#703391" stroke="#703391"/>
</svg>
