<svg width="86" height="86" viewBox="0 0 86 86" fill="none" xmlns="http://www.w3.org/2000/svg">
<circle cx="43" cy="43" r="43" fill="#703391" fill-opacity="0.1"/>
<path fill-rule="evenodd" clip-rule="evenodd" d="M19.699 38.3964C19.3035 38.3818 18.9918 38.0528 19.0002 37.6592C19.0085 37.2635 19.3307 36.949 19.7283 36.949L23.626 37.0365C24.0277 37.0428 24.3478 37.3739 24.3394 37.7737C24.331 38.1735 23.9984 38.4922 23.5967 38.4838L19.699 38.3984V38.3964ZM33.5222 58.8198V62.0082H47.1505V58.8198H33.5222ZM36.3718 63.4638V65.5484L44.3013 65.5464V63.4617L36.3718 63.4638ZM41.0666 24.5457V24.5437C41.0708 24.7394 40.9976 24.931 40.8595 25.0705C40.7214 25.2122 40.5331 25.2913 40.3364 25.2913C40.1377 25.2913 39.9494 25.2121 39.8113 25.0705C39.6753 24.931 39.6 24.7394 39.6063 24.5437V19.7455C39.6 19.5498 39.6753 19.3603 39.8113 19.2187C39.9494 19.0791 40.1377 19 40.3364 19C40.5331 19 40.7214 19.0791 40.8595 19.2187C40.9976 19.3603 41.0708 19.5498 41.0666 19.7455V24.5457ZM31.7858 42.1388C31.7858 43.0781 32.5494 43.8382 33.493 43.8382C34.4345 43.8382 35.1981 43.0781 35.1981 42.1388C35.1981 41.9452 35.2755 41.7598 35.4115 41.6245C35.5496 41.487 35.7358 41.41 35.9304 41.41H39.6064V38.4195C38.1774 38.0821 37.169 36.8118 37.169 35.3498C37.169 33.8879 38.1774 32.6197 39.6064 32.2823V28.6712C36.2693 28.8524 33.1186 30.2518 30.7567 32.603C28.3946 34.9521 26.9865 38.0905 26.8066 41.4102H31.0558C31.4575 41.4102 31.786 41.7351 31.786 42.137L31.7858 42.1388ZM36.5748 42.8657H39.6042V46.3601H39.6063C39.6063 46.7621 39.9327 47.089 40.3365 47.089C41.278 47.089 42.0437 47.8491 42.0437 48.7883C42.0437 49.7255 41.278 50.4856 40.3365 50.4856C39.9327 50.4856 39.6063 50.8126 39.6063 51.2145V57.3662H31.8171V54.6673C31.8276 53.5739 31.3903 52.5223 30.6036 51.758C29.3734 50.5293 28.4089 49.0612 27.7708 47.4472C27.1955 45.9853 26.8691 44.4359 26.8021 42.8678H30.407C30.7459 44.2881 32.0221 45.2919 33.4908 45.2919C34.9575 45.2919 36.2337 44.2881 36.5726 42.8678L36.5748 42.8657ZM62.269 31.9201C62.0954 32.0367 61.8799 32.0742 61.6769 32.02C61.4719 31.968 61.3024 31.8305 61.2083 31.6431C60.7355 30.8767 59.7437 30.6081 58.9445 31.0288C58.9173 31.0475 58.888 31.0642 58.8587 31.0788C58.07 31.5619 57.8085 32.5823 58.2708 33.3841C58.4696 33.7298 58.3503 34.1734 58.003 34.3712L54.2266 36.5412C54.2141 36.5495 54.2015 36.5558 54.189 36.5641C54.0216 36.6599 53.8228 36.687 53.6367 36.637C53.4484 36.587 53.2894 36.4642 53.1931 36.2976L51.3227 33.0738C49.946 33.4861 48.4606 32.9218 47.7137 31.6973C47.6823 31.6556 47.6551 31.6098 47.6342 31.5619C46.9458 30.3061 47.1948 28.7464 48.243 27.7655L46.0796 24.0336H46.0776C45.9583 23.8545 45.9227 23.6338 45.9813 23.4276C46.042 23.2214 46.1884 23.0528 46.3851 22.9632C49.8184 21.0098 53.8899 20.4871 57.7103 21.5054C61.5307 22.5259 64.7904 25.0061 66.7839 28.4067C66.9095 28.5796 66.9513 28.8003 66.899 29.0086C66.8446 29.2168 66.7023 29.3897 66.5098 29.4834L62.269 31.9201ZM56.7186 33.4383C56.2939 32.0388 56.8944 30.5332 58.1643 29.8022C58.179 29.7939 58.1957 29.7855 58.2124 29.7772C59.4782 29.0754 61.0599 29.319 62.0537 30.3687L65.1773 28.5735C63.3508 25.7871 60.5578 23.7712 57.3297 22.9091C54.1015 22.049 50.6679 22.4051 47.6868 23.9087L49.802 27.5489C49.9966 27.8363 49.9589 28.2236 49.712 28.4694C49.666 28.5131 49.6158 28.5527 49.5614 28.5839L49.5279 28.6027C48.735 29.0837 48.4734 30.1062 48.9337 30.908C49.4003 31.7077 50.4212 31.9909 51.2372 31.5473L51.2686 31.5286H51.2665C51.4339 31.4328 51.6326 31.4057 51.821 31.4557C52.0072 31.5057 52.1662 31.6286 52.2624 31.7952L54.091 34.9481L56.7186 33.4383ZM58.5117 45.3024H55.7792H55.7813C55.729 45.3024 55.6809 45.317 55.6391 45.3482C55.5972 45.3774 55.5638 45.419 55.547 45.4669C55.4487 45.7626 55.2855 46.0334 55.0721 46.2625C54.8984 46.4457 54.6913 46.5977 54.4633 46.7102C54.4424 46.7227 54.4193 46.7331 54.3963 46.7414C54.3733 46.7518 54.3357 46.7685 54.3043 46.781C54.2917 46.7873 54.2813 46.7914 54.2687 46.7977H54.2708C53.6892 47.0434 53.028 47.0247 52.4632 46.7414C52.4129 46.7185 52.3585 46.7102 52.3062 46.7206C52.256 46.7289 52.2121 46.7539 52.1765 46.7893L50.2433 48.7136C50.2078 48.749 50.1847 48.7948 50.1743 48.8427C50.1659 48.8969 50.1722 48.951 50.1952 48.9989C50.4797 49.5612 50.5007 50.2193 50.2538 50.7982L50.2391 50.8357H50.2371C50.0027 51.4209 49.5195 51.8728 48.919 52.0685C48.8709 52.0852 48.8269 52.1185 48.7977 52.1602C48.7684 52.2018 48.7537 52.2518 48.7537 52.3018V55.0216V55.0195C48.7537 55.0715 48.7684 55.1194 48.7977 55.1611C48.8269 55.2027 48.8709 55.2361 48.919 55.2527C49.2161 55.3527 49.4881 55.513 49.7182 55.7255C49.9337 55.9295 50.1032 56.1732 50.2203 56.446C50.2266 56.4585 50.2329 56.4731 50.2392 56.4856L50.2413 56.4918V56.4939C50.2559 56.5252 50.2706 56.5564 50.281 56.5897C50.4609 57.052 50.4756 57.5643 50.3166 58.035V58.0933C50.3166 58.2432 50.2706 58.389 50.1848 58.5098C50.1973 58.5473 50.2183 58.5806 50.2455 58.6077L52.1766 60.5298C52.2121 60.5652 52.2581 60.5902 52.3084 60.5986C52.3607 60.609 52.4151 60.6006 52.4632 60.5777C53.0281 60.2945 53.6892 60.2737 54.2708 60.5215L54.3085 60.5361C54.8943 60.7714 55.3483 61.2504 55.5471 61.8501C55.5638 61.898 55.5973 61.9397 55.6391 61.9688C55.681 62.0001 55.7291 62.0147 55.7814 62.0147H58.5138H58.5117C58.564 62.0147 58.6121 61.998 58.654 61.9688C58.6958 61.9397 58.7293 61.898 58.746 61.8501C58.9385 61.2649 59.3758 60.7943 59.9449 60.5548L59.9846 60.5361L60.0223 60.5215V60.5194C60.6039 60.2737 61.265 60.2945 61.8299 60.5777C61.878 60.6006 61.9324 60.6069 61.9847 60.5985C62.0349 60.5902 62.081 60.5652 62.1165 60.5298L64.0476 58.6076V58.6055C64.0832 58.5722 64.1083 58.5264 64.1167 58.4764C64.125 58.4244 64.1188 58.3702 64.0958 58.3223C63.8112 57.76 63.7903 57.1019 64.0393 56.523L64.0539 56.4855C64.2903 55.9003 64.7715 55.4485 65.372 55.2527C65.4222 55.234 65.464 55.2027 65.4933 55.159C65.5226 55.1194 65.5393 55.0694 65.5393 55.0195V52.2997C65.5393 52.2497 65.5226 52.1997 65.4933 52.1601C65.464 52.1164 65.4222 52.0852 65.372 52.0685C64.7861 51.8748 64.3133 51.4417 64.0706 50.8752C64.0644 50.8627 64.0581 50.8481 64.0518 50.8357L64.0371 50.7982C63.7903 50.2192 63.8112 49.5612 64.0936 48.9989C64.1167 48.951 64.125 48.8968 64.1167 48.8427C64.1062 48.7927 64.0832 48.749 64.0476 48.7136L62.1144 46.7893C62.0788 46.7518 62.0349 46.7289 61.9847 46.7206C61.9303 46.7102 61.8759 46.7185 61.8278 46.7414C61.2629 47.0246 60.6017 47.0434 60.0201 46.7976L59.9846 46.7831H59.9867C59.3967 46.5498 58.9427 46.0688 58.7439 45.469C58.7272 45.4211 58.6937 45.3795 58.6519 45.3503C58.61 45.3211 58.5619 45.3045 58.5117 45.3045L58.5117 45.3024ZM48.8543 56.9602C48.8187 56.8936 48.7727 56.8332 48.7183 56.7811C48.6409 56.7103 48.5488 56.6583 48.4505 56.625C48.1116 56.5104 47.8186 56.2938 47.6094 56.0064C47.4023 55.719 47.2893 55.3733 47.2893 55.0193V52.2995C47.2893 51.9455 47.4023 51.5998 47.6094 51.3124C47.8186 51.025 48.1116 50.8063 48.4505 50.6918C48.6534 50.6293 48.8166 50.4773 48.8919 50.2794L48.9066 50.2419C48.9965 50.0483 48.9903 49.8254 48.8898 49.6359C48.5697 48.9862 48.6974 48.2032 49.212 47.6867L51.1452 45.7645H51.1431C51.662 45.2543 52.4466 45.1252 53.1014 45.4438C53.1955 45.4917 53.2981 45.5188 53.4027 45.523C53.4361 45.5251 53.4696 45.523 53.5031 45.5188C53.6182 45.0357 53.706 44.5463 53.7688 44.0548C53.8169 43.6716 53.8504 43.276 53.8692 42.8698H49.6179C49.4233 42.8698 49.235 42.7928 49.099 42.6553C48.961 42.5179 48.8836 42.3325 48.8856 42.1389C48.8856 41.1997 48.122 40.4395 47.1784 40.4395C46.2369 40.4395 45.4712 41.1997 45.4712 42.1389C45.4712 42.3325 45.3938 42.5158 45.2578 42.6532C45.1197 42.7886 44.9356 42.8657 44.741 42.8657H41.0651V45.7187C42.494 46.0561 43.5025 47.3264 43.5025 48.7883C43.5025 50.2482 42.494 51.5185 41.0651 51.8559V57.3663H48.8521V56.9602L48.8543 56.9602ZM55.7796 43.8486H58.512C58.8677 43.8486 59.215 43.961 59.5037 44.1693C59.7924 44.3755 60.01 44.6691 60.1251 45.0044C60.1586 45.1043 60.2109 45.1939 60.282 45.2709C60.3552 45.3459 60.4431 45.4063 60.5414 45.4438L60.5812 45.4604C60.6774 45.5021 60.782 45.525 60.8887 45.5229C60.9934 45.5188 61.0959 45.4917 61.19 45.4438C61.8428 45.1252 62.6294 45.2543 63.1483 45.7624L65.0794 47.6846V47.6867C65.592 48.2011 65.7196 48.9841 65.4016 49.6359C65.3535 49.7275 65.3263 49.8296 65.32 49.9337C65.32 50.0399 65.3409 50.144 65.3827 50.2419L65.3974 50.2794L65.4099 50.3085C65.4476 50.396 65.5041 50.473 65.571 50.5397C65.6485 50.6084 65.7405 50.6626 65.8388 50.6938C66.1778 50.8083 66.4707 51.0249 66.6778 51.3144C66.887 51.6018 67 51.9475 67 52.3015V55.0213V55.0192C67 55.3754 66.887 55.719 66.6778 56.0064C66.4707 56.2958 66.1778 56.5124 65.8388 56.627C65.6359 56.6895 65.4727 56.8415 65.3974 57.0393V57.0414L65.3827 57.0789C65.3388 57.1768 65.3179 57.2809 65.32 57.3871C65.3242 57.4912 65.3514 57.5933 65.3995 57.6849C65.7196 58.3368 65.592 59.1198 65.0773 59.6341L63.1483 61.5563C62.6315 62.0686 61.8448 62.1956 61.19 61.877C61.0017 61.777 60.7758 61.7708 60.5812 61.8603L60.5435 61.8749L60.5143 61.8853V61.8874C60.328 61.9645 60.1879 62.1207 60.1272 62.3143C60.0121 62.6496 59.7945 62.9412 59.5037 63.1494C59.215 63.3577 58.8677 63.468 58.512 63.4701H55.7796H55.7817C55.426 63.468 55.0787 63.3577 54.79 63.1494C54.4991 62.9412 54.2816 62.6496 54.1665 62.3143C54.1037 62.1102 53.951 61.9499 53.7522 61.8749H53.7501L53.7125 61.8603V61.8582C53.5179 61.7708 53.2919 61.777 53.1036 61.8749C52.4488 62.1956 51.6621 62.0665 51.1454 61.5563L49.2122 59.632C48.9883 59.4092 48.8314 59.126 48.7603 58.8178H48.6117V62.735C48.6138 62.9287 48.5364 63.112 48.3983 63.2494C48.2624 63.3848 48.0762 63.4618 47.8837 63.4618H45.7622V66.2732C45.7622 66.4669 45.6848 66.6522 45.5467 66.7876C45.4107 66.925 45.2245 67 45.03 67H35.6404C35.2387 67 34.9102 66.6751 34.9102 66.2732V63.4618H32.7908C32.5983 63.4618 32.4121 63.3848 32.2761 63.2494C32.1381 63.1119 32.0607 62.9287 32.0627 62.735V58.8199H31.0878C30.684 58.8199 30.3576 58.4929 30.3576 58.091V54.6673C30.3743 53.9593 30.0898 53.2762 29.5772 52.7847C28.2069 51.4144 27.1336 49.7797 26.4243 47.9804C25.6921 46.1186 25.3218 44.1381 25.3301 42.1389C25.3301 38.178 26.9118 34.3772 29.7258 31.5767C32.5397 28.7736 36.3559 27.1992 40.337 27.1992C40.7387 27.1992 41.0651 27.5241 41.0651 27.926V32.9241C41.0651 33.326 40.7388 33.6509 40.335 33.6509C39.3935 33.6509 38.6298 34.411 38.6298 35.3502C38.6298 36.2894 39.3935 37.0496 40.335 37.0496C40.7388 37.0496 41.0651 37.3744 41.0651 37.7764V41.4104H44.0967C44.4357 39.988 45.7119 38.9863 47.1806 38.9863C48.6472 38.9863 49.9235 39.988 50.2624 41.4104H54.6162C55.02 41.4104 55.3464 41.7352 55.3464 42.1372C55.3464 42.7369 55.3129 43.3367 55.2481 43.9323C55.4217 43.8761 55.6017 43.8469 55.7837 43.8469L55.7796 43.8486ZM59.9681 50.8501C61.3134 52.1912 61.5226 54.2904 60.464 55.8648C59.4074 57.4412 57.378 58.0535 55.6205 57.3288C53.861 56.6041 52.861 54.7444 53.2334 52.8847C53.6037 51.0271 55.2419 49.688 57.1458 49.688C58.2044 49.686 59.2191 50.1046 59.9681 50.8501ZM57.1458 48.2345C59.7464 48.2345 61.985 50.0629 62.4913 52.6036C62.9976 55.1422 61.6335 57.6828 59.2296 58.6743C56.8278 59.6635 54.0556 58.8263 52.6123 56.6751C51.1666 54.5217 51.4511 51.6541 53.2902 49.8234C54.3111 48.8029 55.7001 48.2324 57.1458 48.2345ZM26.5813 25.1102L29.5271 28.0424C29.8158 28.3152 30.2677 28.309 30.5502 28.0299C30.8305 27.7508 30.8347 27.2989 30.5607 27.0137L27.6149 24.0815C27.3303 23.7983 26.868 23.7983 26.5834 24.0815C26.2968 24.3647 26.2968 24.8249 26.5834 25.1103L26.5813 25.1102Z" fill="#703391" stroke="#703391"/>
</svg>
