<svg width="61" height="56" viewBox="0 0 61 56" fill="none" xmlns="http://www.w3.org/2000/svg">
<path d="M54.6588 1H6.34123C3.39641 1 1 3.40317 1 6.35774V36.6472C1 39.6011 3.39576 42.005 6.34123 42.005H20.5762V47.0913H14.8464C12.2576 47.0913 10.1514 48.8652 10.1514 51.046V54.0457C10.1514 54.5729 10.5772 55 11.1028 55H49.8959C50.4215 55 50.8473 54.5729 50.8473 54.0457V51.046C50.8473 48.8652 48.7411 47.0913 46.1523 47.0913H40.4238V42.005H54.6588C57.6036 42.005 60 39.6018 60 36.6472V6.35774C59.9994 3.40317 57.6036 1 54.6588 1ZM48.9445 51.0453V53.0907H12.0548V51.0453C12.0548 49.9366 13.3329 48.9999 14.8464 48.9999H46.153C47.6665 48.9999 48.9445 49.9366 48.9445 51.0453ZM38.5203 47.0906H22.479V42.0043H38.5203V47.0906ZM58.0966 36.6472C58.0966 38.5487 56.5544 40.0956 54.6588 40.0956H6.34123C4.44562 40.0956 2.90344 38.5487 2.90344 36.6472V6.35774C2.90344 4.45627 4.44562 2.90932 6.34123 2.90932H54.6588C56.5544 2.90932 58.0966 4.45627 58.0966 6.35774V36.6472ZM54.769 4.68194H6.23103C5.37093 4.68194 4.67059 5.38379 4.67059 6.2472V35.2252C4.67059 35.7524 5.0964 36.1795 5.62198 36.1795H55.3774C55.903 36.1795 56.3288 35.7524 56.3288 35.2252V6.2472C56.3288 5.38379 55.6291 4.68194 54.769 4.68194ZM54.426 34.2709H6.57402V6.5906H54.426V34.2709ZM33.5397 31.7382C33.8703 31.729 34.1729 31.5485 34.3378 31.2613L36.2315 27.9712H37.3818L37.9569 28.9707L36.0633 32.2602C35.8976 32.5473 35.8931 32.9005 36.0509 33.1923C36.2087 33.484 36.5054 33.673 36.836 33.6907C36.939 33.6966 37.0407 33.6992 37.1425 33.6992C39.0413 33.6992 40.7237 32.7272 41.6849 31.0573C42.6219 29.4286 42.6017 27.3779 41.6777 25.7656L46.3062 17.7241C48.1594 17.7208 49.9409 16.7128 50.878 15.0841C51.8907 13.3252 51.8339 11.2583 50.7274 9.55565C50.5467 9.27765 50.235 9.11478 49.9044 9.12263C49.5738 9.13179 49.2712 9.31232 49.1063 9.59947L47.2126 12.8896H46.0623L45.4872 11.8901L47.3808 8.6C47.5465 8.31285 47.551 7.95964 47.3932 7.66791C47.2354 7.37618 46.9387 7.18714 46.6081 7.16948C44.5847 7.0596 42.7726 8.04336 41.7599 9.8029C40.8228 11.4316 40.843 13.4829 41.767 15.0946L37.1386 23.1361C35.2853 23.1394 33.5038 24.1473 32.5668 25.7761C31.5541 27.5349 31.6108 29.6019 32.7174 31.3045C32.8974 31.5832 33.2071 31.746 33.5397 31.7382ZM34.214 26.7317C34.8823 25.5707 36.2224 24.9035 37.5487 25.0716C37.9282 25.12 38.3006 24.9349 38.4923 24.6019L43.7077 15.5407C43.8994 15.2077 43.8733 14.7924 43.6411 14.4863C42.8326 13.4181 42.7387 11.9202 43.407 10.7592C43.7213 10.2137 44.1556 9.78458 44.6675 9.49612L43.5635 11.4146C43.3934 11.7096 43.3934 12.0739 43.5635 12.3689L44.6884 14.3227C44.8586 14.6177 45.1722 14.8002 45.5126 14.8002H47.7617C48.1014 14.8002 48.4157 14.6184 48.5859 14.3227L49.6899 12.4043C49.6964 12.9936 49.5438 13.5849 49.2295 14.1304C48.5611 15.2915 47.2211 15.9586 45.8947 15.7905C45.5146 15.7421 45.1429 15.9272 44.9512 16.2602L39.7358 25.3215C39.5441 25.6544 39.5702 26.0697 39.8023 26.3759C40.6109 27.444 40.7048 28.9419 40.0364 30.1029C39.7221 30.6485 39.2878 31.0775 38.7759 31.366L39.8799 29.4475C40.0501 29.1525 40.0501 28.7882 39.8799 28.4932L38.7551 26.5394C38.5849 26.2444 38.2712 26.0619 37.9308 26.0619H35.6818C35.3421 26.0619 35.0278 26.2437 34.8576 26.5394L33.7536 28.4579C33.7471 27.8685 33.9003 27.2766 34.214 26.7317ZM20.511 25.8827C23.508 25.8827 25.9455 23.437 25.9455 20.4314C25.9455 17.4251 23.5074 14.9801 20.511 14.9801C17.5147 14.9801 15.0766 17.4258 15.0766 20.4314C15.0766 23.437 17.5141 25.8827 20.511 25.8827ZM20.511 16.8881C22.4582 16.8881 24.0427 18.4769 24.0427 20.4307C24.0427 22.3839 22.4582 23.9734 20.511 23.9734C18.5639 23.9734 16.9793 22.3845 16.9793 20.4307C16.9793 18.4776 18.5639 16.8881 20.511 16.8881ZM10.0144 22.3394L11.241 22.813C11.4653 23.696 11.8122 24.5359 12.2772 25.3201L11.7431 26.5263C11.5833 26.8874 11.6616 27.3093 11.94 27.5886L13.3753 29.0282C13.6537 29.3075 14.075 29.386 14.4343 29.2258L15.6367 28.6901C16.4192 29.1565 17.2558 29.5044 18.1355 29.7294L18.6076 30.9605C18.7491 31.3287 19.1019 31.572 19.4957 31.572H21.525C21.9189 31.572 22.2717 31.3287 22.4132 30.9605L22.8853 29.7301C23.7656 29.5051 24.6029 29.1571 25.3847 28.6907L26.5872 29.2264C26.9471 29.3867 27.3677 29.3082 27.6461 29.0289L29.0814 27.5892C29.3598 27.3099 29.4381 26.888 29.2783 26.527L28.7443 25.3208C29.2092 24.5359 29.5561 23.6967 29.7804 22.8143L31.0076 22.3407C31.3748 22.1988 31.6173 21.8449 31.6173 21.4498V19.4143C31.6173 19.0192 31.3748 18.6653 31.0076 18.5234L29.7811 18.0498C29.5568 17.1668 29.2099 16.3269 28.7449 15.5426L29.279 14.3365C29.4387 13.9754 29.3605 13.5535 29.082 13.2742L27.6468 11.8345C27.3684 11.5552 26.9471 11.4767 26.5878 11.637L25.3854 12.1727C24.6029 11.7063 23.7662 11.3584 22.8866 11.1333L22.4145 9.90232C22.273 9.53406 21.9202 9.29074 21.5263 9.29074H19.497C19.1032 9.29074 18.7504 9.53406 18.6089 9.90232L18.1368 11.1333C17.2571 11.3584 16.4205 11.7063 15.638 12.1727L14.4356 11.637C14.0756 11.4767 13.655 11.5552 13.3766 11.8345L11.9413 13.2742C11.6629 13.5535 11.5846 13.9754 11.7444 14.3365L12.2785 15.5426C11.8135 16.3276 11.4666 17.1668 11.2423 18.0492L10.0157 18.5227C9.6486 18.6647 9.40603 19.0185 9.40603 19.4136V21.4498C9.40472 21.8436 9.6473 22.1981 10.0144 22.3394ZM11.3082 20.0684L12.3997 19.6471C12.7049 19.5294 12.9286 19.2625 12.9918 18.94C13.1875 17.9399 13.5755 17.0019 14.1441 16.1523C14.3267 15.8802 14.3567 15.5328 14.2236 15.2326L13.7483 14.1592L14.2595 13.6464L15.3296 14.1232C15.6282 14.2567 15.9745 14.2266 16.2464 14.0434C17.0935 13.4731 18.0285 13.0839 19.0256 12.8876C19.3464 12.8242 19.6125 12.5998 19.7305 12.2937L20.1504 11.1987H20.8736L21.2935 12.2937C21.4109 12.5998 21.677 12.8242 21.9984 12.8876C22.9955 13.0839 23.9306 13.4731 24.7776 14.0434C25.0489 14.2266 25.3952 14.2567 25.6945 14.1232L26.7645 13.6464L27.2758 14.1592L26.801 15.2319C26.668 15.5315 26.698 15.8788 26.8806 16.1516C27.4492 17.0013 27.8372 17.9393 28.0328 18.94C28.0961 19.2619 28.3198 19.5287 28.6249 19.6471L29.7159 20.0684V20.7938L28.6243 21.215C28.3191 21.3327 28.0954 21.5996 28.0322 21.9221C27.8366 22.9222 27.4486 23.8602 26.8799 24.7099C26.6974 24.982 26.6674 25.3293 26.8004 25.6295L27.2758 26.7029L26.7632 27.2151L25.6938 26.7389C25.3952 26.6061 25.0489 26.6362 24.777 26.8187C23.9306 27.3891 22.9955 27.7783 21.9971 27.9745C21.6763 28.0379 21.4103 28.2623 21.2922 28.5684L20.8723 29.6627H20.1491L19.7292 28.5678C19.6118 28.2616 19.3458 28.0373 19.0243 27.9738C18.0272 27.7776 17.0922 27.3884 16.2451 26.818C15.9732 26.6349 15.6269 26.6048 15.3283 26.7382L14.2588 27.2151L13.7476 26.7023L14.2223 25.6295C14.3554 25.3293 14.3254 24.982 14.1428 24.7099C13.5742 23.8608 13.1862 22.9229 12.9905 21.9214C12.9273 21.5996 12.7036 21.3327 12.3984 21.2143L11.3075 20.7931L11.3082 20.0684Z" fill="#703391" stroke="#703391" stroke-width="0.4"/>
</svg>
