<svg width="86" height="86" viewBox="0 0 86 86" fill="none" xmlns="http://www.w3.org/2000/svg">
<circle cx="43" cy="43" r="43" fill="#703391" fill-opacity="0.1"/>
<path d="M54.9068 50.6239C57.9722 48.245 60.1969 45.0066 61.274 41.3556C62.351 37.7046 62.2272 33.8211 60.9197 30.2409C59.6122 26.6607 57.1854 23.5604 53.9743 21.3678C50.7632 19.1752 46.926 17.9985 42.9924 18C39.0588 18.0015 35.2226 19.1812 32.0133 21.3762C28.804 23.5713 26.3798 26.6735 25.0753 30.2547C23.7707 33.8359 23.6502 37.7195 24.7302 41.3697C25.8102 45.0198 28.0376 48.2565 31.105 50.633C31.7666 51.1472 32.3157 51.7832 32.7203 52.5041C33.1249 53.2249 33.377 54.0162 33.4619 54.8318C33.0092 54.9921 32.6121 55.2718 32.3159 55.639C32.0197 56.0062 31.8362 56.4462 31.7863 56.9091C31.7364 57.3719 31.822 57.839 32.0335 58.2572C32.2449 58.6754 32.5738 59.028 32.9825 59.2748C32.7587 59.6469 32.6393 60.0689 32.6362 60.4991C32.6362 61.1623 32.9092 61.7982 33.3951 62.2671C33.881 62.736 34.54 62.9994 35.2271 62.9994H36.1694C36.6513 65.8214 39.5263 68 42.9999 68C46.4734 68 49.3485 65.8214 49.8304 62.9994H50.7726C51.4597 62.9994 52.1188 62.736 52.6046 62.2671C53.0905 61.7982 53.3635 61.1623 53.3635 60.4991C53.361 60.0684 53.2419 59.6458 53.018 59.2732C53.4268 59.0263 53.7556 58.6738 53.9671 58.2556C54.1786 57.8373 54.2642 57.3703 54.2143 56.9074C54.1644 56.4446 53.9809 56.0045 53.6847 55.6373C53.3885 55.2701 52.9914 54.9905 52.5387 54.8302C52.626 54.0129 52.8803 53.2204 53.2867 52.4984C53.6932 51.7764 54.2438 51.1393 54.9068 50.6239ZM60.2294 35.4963H56.4579C56.8392 34.6508 56.9215 33.7077 56.692 32.8127C56.5048 32.0742 56.1097 31.4 55.5503 30.8647C54.991 30.3293 54.2892 29.9536 53.5224 29.779C52.8868 29.6295 52.2243 29.6213 51.5849 29.7551C50.9455 29.8889 50.346 30.1611 49.8316 30.5512C49.3172 30.9413 48.9014 31.4391 48.6156 32.007C48.3298 32.5749 48.1814 33.1981 48.1817 33.8294C48.1808 34.4038 48.3059 34.9719 48.5487 35.4963H43.8635V30.9741C43.8632 30.6977 43.7914 30.4257 43.6547 30.1827C43.518 29.9398 43.3207 29.7336 43.0806 29.5827C42.8406 29.4319 42.5653 29.3412 42.2798 29.3189C41.9942 29.2965 41.7074 29.3432 41.4453 29.4548C40.9142 29.6761 40.3223 29.7224 39.7612 29.5865C39.3428 29.4825 38.9579 29.2793 38.6416 28.9952C38.3254 28.7111 38.0878 28.3551 37.9504 27.9598C37.8131 27.5644 37.7804 27.1422 37.8553 26.7315C37.9303 26.3209 38.1104 25.9348 38.3794 25.6085C38.7375 25.1839 39.228 24.8822 39.7781 24.7481C40.3281 24.614 40.9083 24.6548 41.4324 24.8643C41.6986 24.9772 41.9898 25.0242 42.2796 25.0012C42.5694 24.9782 42.8487 24.8859 43.0923 24.7326C43.33 24.5821 43.525 24.3768 43.6596 24.1352C43.7943 23.8936 43.8644 23.6234 43.8635 23.3491V19.682C48.1397 19.8852 52.1844 21.6171 55.2098 24.5405C58.2351 27.4639 60.0245 31.3694 60.2294 35.4963ZM42.074 19.6845H42.1362L42.1215 23.3349C41.4639 23.0595 40.7455 22.9464 40.0312 23.0059C39.317 23.0654 38.6293 23.2955 38.0302 23.6756C37.4312 24.0557 36.9396 24.5737 36.5999 25.183C36.2602 25.7922 36.083 26.4735 36.0843 27.1653C36.0856 27.8572 36.2654 28.5378 36.6075 29.1459C36.9496 29.7539 37.4431 30.2701 38.0436 30.6481C38.6441 31.026 39.3327 31.2537 40.0472 31.3106C40.7617 31.3675 41.4796 31.2519 42.1362 30.9741V35.4963H37.4501C37.1644 35.4956 36.883 35.5638 36.6315 35.6948C36.3801 35.8258 36.1666 36.0154 36.0105 36.2464C35.8528 36.4795 35.758 36.7468 35.7344 37.0242C35.7109 37.3015 35.7595 37.5802 35.8757 37.8349C36.1052 38.3474 36.1532 38.9186 36.0122 39.4601C35.9185 39.7892 35.756 40.0964 35.5346 40.3626C35.3133 40.6288 35.0378 40.8485 34.7252 41.008C34.4125 41.1676 34.0693 41.2637 33.7167 41.2905C33.3641 41.3172 33.0096 41.274 32.6749 41.1635C32.3403 41.0529 32.0326 40.8775 31.7709 40.6479C31.5092 40.4183 31.299 40.1394 31.1532 39.8284C31.0074 39.5174 30.9292 39.181 30.9233 38.8397C30.9173 38.4984 30.9839 38.1596 31.1188 37.8441C31.2362 37.5872 31.2852 37.3062 31.2614 37.0264C31.2375 36.7467 31.1416 36.4771 30.9824 36.2422C30.8266 36.0125 30.614 35.824 30.3636 35.6938C30.1132 35.5635 29.8332 35.4956 29.5487 35.4963H25.7695C26.0324 31.399 27.8324 27.5342 30.833 24.6243C33.8336 21.7143 37.8295 19.9584 42.074 19.6845ZM32.1871 49.3312C30.2805 47.8604 28.7204 46.0145 27.6107 43.9164C26.501 41.8183 25.8671 39.5161 25.7513 37.1632L29.534 37.1773C29.2502 37.8114 29.1341 38.5037 29.1962 39.1919C29.2584 39.88 29.4968 40.5425 29.8901 41.1196C30.2834 41.6968 30.8192 42.1705 31.4493 42.4983C32.0794 42.826 32.7841 42.9974 33.4999 42.9972C33.8429 42.9969 34.1848 42.9588 34.519 42.8838C35.1326 42.7418 35.7063 42.4713 36.1996 42.0916C36.6928 41.7118 37.0935 41.2319 37.3731 40.6861C37.6528 40.1402 37.8047 39.5417 37.818 38.9329C37.8313 38.3241 37.7057 37.7199 37.4501 37.1632H42.1362V41.6845C42.1354 41.9589 42.2056 42.2292 42.3405 42.4707C42.4753 42.7123 42.6705 42.9176 42.9083 43.068C43.1514 43.2217 43.4304 43.3144 43.72 43.3375C44.0096 43.3607 44.3006 43.3136 44.5665 43.2005C45.0906 42.9898 45.6713 42.9484 46.2219 43.0824C46.7724 43.2164 47.2633 43.5186 47.6212 43.9439C47.8902 44.27 48.0705 44.6557 48.1457 45.0661C48.2209 45.4765 48.1886 45.8986 48.0517 46.2938C47.9148 46.6891 47.6777 47.0451 47.3619 47.3294C47.0462 47.6138 46.6618 47.8174 46.2437 47.9219C45.682 48.0575 45.0897 48.0112 44.5579 47.7902C44.2946 47.679 44.0068 47.6326 43.7204 47.6553C43.434 47.678 43.1579 47.769 42.917 47.9202C42.6776 48.0709 42.4811 48.2769 42.3454 48.5196C42.2096 48.7622 42.1389 49.0338 42.1397 49.3095V54.6651H35.1796C35.0726 53.6289 34.7529 52.6236 34.2391 51.7078C33.7253 50.7921 33.0278 49.9842 32.1871 49.3312ZM51.6362 56.332C51.8653 56.332 52.085 56.4198 52.2469 56.5761C52.4089 56.7324 52.4999 56.9444 52.4999 57.1654C52.4999 57.3865 52.4089 57.5985 52.2469 57.7548C52.085 57.9111 51.8653 57.9989 51.6362 57.9989H34.3635C34.1345 57.9989 33.9148 57.9111 33.7528 57.7548C33.5909 57.5985 33.4999 57.3865 33.4999 57.1654C33.4999 56.9444 33.5909 56.7324 33.7528 56.5761C33.9148 56.4198 34.1345 56.332 34.3635 56.332H51.6362ZM42.9999 66.3331C40.4953 66.3331 38.4045 64.8988 37.9225 62.9994H48.0772C47.5953 64.8988 45.5044 66.3331 42.9999 66.3331ZM50.7726 61.3326H35.2271C34.9981 61.3326 34.7784 61.2448 34.6165 61.0885C34.4545 60.9322 34.3635 60.7202 34.3635 60.4991C34.3635 60.2781 34.4545 60.0661 34.6165 59.9098C34.7784 59.7535 34.9981 59.6657 35.2271 59.6657H50.7726C51.0016 59.6657 51.2213 59.7535 51.3833 59.9098C51.5452 60.0661 51.6362 60.2781 51.6362 60.4991C51.6362 60.7202 51.5452 60.9322 51.3833 61.0885C51.2213 61.2448 51.0016 61.3326 50.7726 61.3326ZM50.8201 54.6651H43.8635V49.317C44.7396 49.6849 45.7169 49.7643 46.6444 49.5429C47.4096 49.3622 48.1082 48.981 48.663 48.4412C49.2178 47.9014 49.6071 47.2241 49.788 46.4842C49.9772 45.7301 49.9445 44.94 49.6936 44.2029C49.4426 43.4658 48.9834 42.8109 48.3676 42.312C47.7518 41.8132 47.0039 41.4901 46.2082 41.3792C45.4124 41.2684 44.6004 41.3741 43.8635 41.6845V37.1632H48.5487C48.8331 37.1639 49.1131 37.0962 49.3635 36.9661C49.6138 36.836 49.8265 36.6476 49.9824 36.4181C50.1415 36.1835 50.2373 35.9142 50.2613 35.6348C50.2853 35.3554 50.2366 35.0746 50.1197 34.8179C49.9846 34.5025 49.9179 34.1637 49.9236 33.8224C49.9294 33.4812 50.0075 33.1446 50.1531 32.8336C50.2987 32.5226 50.5088 32.2436 50.7704 32.0139C51.0319 31.7842 51.3395 31.6086 51.674 31.4979C52.0086 31.3872 52.3631 31.3438 52.7157 31.3703C53.0683 31.3969 53.4115 31.4928 53.7243 31.6522C54.037 31.8116 54.3126 32.0311 54.5341 32.2972C54.7556 32.5633 54.9183 32.8703 55.0122 33.1994C55.1532 33.7414 55.1052 34.3131 54.8757 34.8262C54.7598 35.0801 54.7115 35.358 54.735 35.6345C54.7585 35.911 54.8532 36.1775 55.0105 36.4097C55.1666 36.6407 55.3801 36.8303 55.6315 36.9613C55.883 37.0923 56.1644 37.1606 56.4501 37.1598H60.2501C60.1336 39.5117 59.5005 41.8128 58.3926 43.9106C57.2846 46.0084 55.7273 47.8549 53.8238 49.3279C52.9819 49.9812 52.2828 50.7895 51.7671 51.7057C51.2515 52.6219 50.9296 53.6279 50.8201 54.6651Z" fill="#703391" stroke="#703391"/>
</svg>
