<svg width="74" height="45" viewBox="0 0 74 45" fill="none" xmlns="http://www.w3.org/2000/svg">
<path fill-rule="evenodd" clip-rule="evenodd" d="M37 0C27.1333 0 20.9667 4.93333 18.5 14.8C22.2 9.86667 26.5167 8.01667 31.45 9.25C34.2647 9.953 36.2764 11.9962 38.5033 14.256C42.1307 17.9381 46.3295 22.2 55.5 22.2C65.3667 22.2 71.5333 17.2667 74 7.4C70.3 12.3333 65.9833 14.1833 61.05 12.95C58.2353 12.247 56.2236 10.2038 53.9967 7.94404C50.3693 4.26185 46.1705 0 37 0ZM18.5 22.2C8.63333 22.2 2.46667 27.1333 0 37C3.7 32.0667 8.01667 30.2167 12.95 31.45C15.7647 32.1544 17.7764 34.1962 20.0033 36.456C23.6307 40.1381 27.8295 44.4 37 44.4C46.8667 44.4 53.0333 39.4667 55.5 29.6C51.8 34.5333 47.4833 36.3833 42.55 35.15C39.7353 34.447 37.7236 32.4038 35.4967 30.144C31.8693 26.4618 27.6705 22.2 18.5 22.2Z" fill="#38BDF8"/>
</svg>
