<svg width="63" height="56" viewBox="0 0 63 56" fill="none" xmlns="http://www.w3.org/2000/svg">
<path d="M24.6358 1.03562C24.7593 1.03509 24.8828 1.03457 25.01 1.03403C25.1451 1.03414 25.2803 1.03426 25.4195 1.03438C25.6355 1.03378 25.6355 1.03378 25.8558 1.03315C26.3398 1.03196 26.8238 1.03176 27.3078 1.03156C27.6541 1.03092 28.0005 1.03024 28.3469 1.0295C29.2891 1.0277 30.2313 1.02682 31.1734 1.02622C31.7619 1.02584 32.3503 1.02526 32.9387 1.02464C34.5683 1.02298 36.1979 1.02157 37.8274 1.0211C37.9317 1.02107 38.036 1.02104 38.1434 1.02101C38.2479 1.02098 38.3525 1.02095 38.4601 1.02092C38.672 1.02086 38.8838 1.0208 39.0956 1.02074C39.2006 1.02071 39.3057 1.02068 39.4139 1.02065C41.116 1.02011 42.8181 1.01772 44.5202 1.01454C46.2682 1.01129 48.0162 1.00959 49.7641 1.00943C50.7454 1.00931 51.7266 1.00852 52.7078 1.00604C53.6309 1.00371 54.5538 1.00349 55.4769 1.00469C55.8156 1.00479 56.1543 1.0042 56.493 1.00285C56.9556 1.00111 57.4181 1.00191 57.8806 1.00334C58.0145 1.00224 58.1485 1.00114 58.2864 1C59.3739 1.00785 60.3171 1.2075 61.1153 2.01076C61.6618 2.78032 61.9473 3.36736 61.9488 4.32682C61.9494 4.49749 61.95 4.66815 61.9507 4.84398C61.9507 5.03442 61.9506 5.22485 61.9506 5.41529C61.951 5.61678 61.9515 5.81828 61.9521 6.01977C61.9535 6.57487 61.954 7.12996 61.9543 7.68506C61.9549 8.28321 61.9562 8.88136 61.9573 9.47951C61.96 10.9247 61.9614 12.3699 61.9626 13.8152C61.9632 14.4955 61.9639 15.1758 61.9646 15.8562C61.967 18.1174 61.9689 20.3786 61.9699 22.6398C61.9702 23.2267 61.9704 23.8136 61.9707 24.4005C61.9708 24.5464 61.9708 24.6923 61.9709 24.8426C61.972 27.2063 61.9755 29.5699 61.9799 31.9336C61.9844 34.3595 61.9868 36.7854 61.9873 39.2114C61.9875 40.5738 61.9887 41.9361 61.9922 43.2985C61.9952 44.4587 61.9963 45.6188 61.9949 46.779C61.9943 47.371 61.9946 47.9629 61.9972 48.5549C61.9996 49.097 61.9995 49.639 61.9974 50.1812C61.997 50.3771 61.9976 50.573 61.9992 50.7689C62.0093 52.0695 61.9316 52.9269 61.0644 53.9374C60.2378 54.6504 59.6655 54.9452 58.589 54.9471C58.4333 54.9477 58.2777 54.9483 58.1173 54.949C57.9462 54.9489 57.7751 54.9489 57.5988 54.9489C57.4153 54.9493 57.2318 54.9498 57.0483 54.9504C56.5434 54.9518 56.0386 54.9523 55.5338 54.9526C54.9895 54.9532 54.4452 54.9545 53.901 54.9557C52.5864 54.9584 51.2719 54.9598 49.9573 54.961C49.3383 54.9616 48.7193 54.9623 48.1003 54.963C46.0427 54.9654 43.9851 54.9673 41.9276 54.9683C41.3937 54.9686 40.8598 54.9689 40.3259 54.9691C40.1932 54.9692 40.0605 54.9693 39.9238 54.9693C37.7736 54.9705 35.6234 54.9739 33.4732 54.9784C31.2658 54.9829 29.0584 54.9853 26.851 54.9858C25.6116 54.9861 24.3721 54.9873 23.1327 54.9908C22.0773 54.9937 21.0219 54.9948 19.9665 54.9935C19.428 54.9929 18.8896 54.9931 18.3512 54.9958C17.858 54.9982 17.3649 54.9981 16.8717 54.9959C16.6094 54.9955 16.347 54.9977 16.0847 55C15.1336 54.9929 14.497 54.9089 13.6934 54.3818C13.1574 53.7041 12.9999 53.1855 12.971 52.3334C12.9653 52.1743 12.9596 52.0152 12.9538 51.8513C12.9484 51.6852 12.9431 51.5191 12.9376 51.3479C12.9317 51.1802 12.9259 51.0125 12.9198 50.8397C12.9054 50.4251 12.8915 50.0105 12.8781 49.5959C12.7549 49.6602 12.7549 49.6602 12.6291 49.7258C12.2549 49.919 11.8787 50.1079 11.5024 50.2967C11.3085 50.398 11.3085 50.398 11.1107 50.5013C10.9845 50.5639 10.8584 50.6264 10.7285 50.6909C10.6132 50.7496 10.4979 50.8084 10.3792 50.8689C9.88255 51.0012 9.67037 50.9175 9.2094 50.6898C8.86195 50.4176 8.5535 50.113 8.24285 49.7994C8.10935 49.6669 8.10935 49.6669 7.97315 49.5316C7.78599 49.3448 7.59953 49.1573 7.41374 48.9692C7.12965 48.6824 6.84212 48.3995 6.55418 48.1166C6.37235 47.9343 6.19072 47.7517 6.00934 47.5689C5.92343 47.485 5.83752 47.401 5.74901 47.3145C5.35364 46.9081 5.15203 46.6525 4.98915 46.0973C4.99808 45.576 5.09373 45.2965 5.33578 44.8384C5.40917 44.6959 5.48256 44.5534 5.55817 44.4065C5.67562 44.1875 5.67562 44.1875 5.79543 43.964C5.94838 43.6717 6.10091 43.3792 6.25296 43.0864C6.32143 42.9579 6.38989 42.8294 6.46043 42.6969C6.60872 42.3883 6.71958 42.1407 6.76357 41.8018C6.6289 41.4594 6.48809 41.1452 6.32196 40.819C6.23562 40.6465 6.15 40.4736 6.06507 40.3004C6.0204 40.2121 5.97574 40.1238 5.92972 40.0329C5.81242 39.7507 5.81242 39.7507 5.75881 39.4355C5.69045 39.0632 5.62117 38.8323 5.40478 38.5201C4.77998 38.1733 4.11639 37.9822 3.43453 37.7851C3.15996 37.7014 2.88588 37.6163 2.6121 37.53C2.36413 37.4525 2.11499 37.3788 1.86581 37.3053C1.46664 37.1536 1.3125 37.0738 1.05664 36.7425C1.00488 36.4467 1.00488 36.4467 1.00389 36.0999C1.00261 35.9699 1.00132 35.8398 1 35.7058C1.00083 35.5656 1.00165 35.4255 1.0025 35.2811C1.00211 35.1369 1.00172 34.9928 1.00132 34.8443C1.00104 34.5395 1.00179 34.2347 1.0035 33.9298C1.00568 33.4626 1.00352 32.9954 1.00091 32.5281C1.00118 32.2322 1.0017 31.9363 1.0025 31.6404C1.00168 31.5002 1.00085 31.3601 1 31.2157C1.00128 31.0856 1.00257 30.9556 1.00389 30.8216C1.00422 30.7071 1.00454 30.5927 1.00488 30.4747C1.06889 30.109 1.1759 29.9939 1.46428 29.7688C1.84087 29.6092 1.84087 29.6092 2.29229 29.4595C2.53585 29.3782 2.53585 29.3782 2.78432 29.2953C2.95405 29.24 3.12378 29.1848 3.29865 29.1278C3.46838 29.071 3.6381 29.0141 3.81297 28.9556C5.07577 28.5381 5.07577 28.5381 5.54066 28.5381C5.55134 28.4058 5.56203 28.2734 5.57304 28.137C5.6816 27.3684 6.06241 26.7052 6.40769 26.0199C6.70589 25.3999 6.70589 25.3999 6.70837 24.7265C6.63691 24.5855 6.56544 24.4445 6.49181 24.2992C6.43678 24.1905 6.38175 24.0817 6.32505 23.9697C6.05694 23.4447 5.78346 22.9229 5.50324 22.4044C5.43659 22.2754 5.36994 22.1465 5.30128 22.0137C5.23968 21.8979 5.17808 21.7821 5.11461 21.6628C4.95128 21.1458 4.9827 20.8565 5.13302 20.3338C5.39337 19.9537 5.70429 19.6374 6.02951 19.3131C6.12023 19.2203 6.21096 19.1276 6.30443 19.032C6.49634 18.8372 6.6893 18.6434 6.88323 18.4505C7.17881 18.1554 7.46897 17.8555 7.75905 17.5549C7.94655 17.3658 8.13435 17.177 8.32247 16.9885C8.40857 16.8988 8.49467 16.8091 8.58338 16.7166C9.00324 16.307 9.30647 16.0395 9.90592 16.012C10.4503 16.0977 10.7322 16.215 11.1812 16.527C12.6075 17.5224 12.6075 17.5224 14.2523 17.8381C15.0356 17.6122 15.7134 17.2269 16.4027 16.7971C16.7601 16.5989 17.0929 16.5328 17.498 16.5051C17.5123 16.4229 17.5266 16.3408 17.5414 16.2562C17.7034 15.3796 17.9366 14.5516 18.2284 13.7105C18.268 13.5897 18.3076 13.4688 18.3483 13.3443C18.3883 13.2284 18.4282 13.1126 18.4694 12.9931C18.5223 12.8376 18.5223 12.8376 18.5763 12.6788C18.7648 12.3193 18.9046 12.1826 19.2645 11.9927C19.6277 11.9635 19.9565 11.9537 20.3175 11.9671C20.4123 11.9689 20.5071 11.9708 20.6047 11.9727C20.8374 11.9775 21.07 11.9848 21.3027 11.9927C21.3013 11.8478 21.3013 11.8478 21.2999 11.6999C21.2917 10.7847 21.2855 9.86953 21.2815 8.9543C21.2794 8.48389 21.2766 8.01351 21.2719 7.54312C21.2666 7.00105 21.2646 6.459 21.2629 5.9169C21.2608 5.74978 21.2586 5.58265 21.2565 5.41046C21.2562 3.96565 21.5007 2.79745 22.5256 1.73728C23.1834 1.24153 23.8236 1.03692 24.6358 1.03562ZM23.4883 3.68177C23.3042 4.15629 23.2855 4.58203 23.2918 5.08366C23.2915 5.18531 23.2911 5.28696 23.2908 5.3917C23.2901 5.73163 23.2923 6.07149 23.2946 6.41141C23.2947 6.65535 23.2946 6.89929 23.2944 7.14323C23.2943 7.80512 23.2967 8.46698 23.2995 9.12887C23.3021 9.8207 23.3023 10.5125 23.3028 11.2044C23.3041 12.5143 23.3074 13.8243 23.3115 15.1342C23.3161 16.6256 23.3183 18.117 23.3203 19.6084C23.3246 22.6761 23.3318 25.7439 23.3409 28.8116C23.5218 28.8789 23.5218 28.8789 23.7064 28.9476C23.8649 29.0076 24.0235 29.0676 24.1869 29.1294C24.4225 29.2179 24.4225 29.2179 24.6628 29.3082C26.0262 29.8822 27.0303 30.994 27.5903 32.3561C28.0712 33.7403 28.0161 35.5125 27.4358 36.8525C27.137 37.4332 26.8295 37.883 26.3642 38.3406C26.0111 38.6323 26.0111 38.6323 26.0584 39.067C26.1521 39.1152 26.2459 39.1633 26.3424 39.2129C28.8446 40.5358 30.3662 42.3291 31.2245 45.0264C31.4035 45.6545 31.51 46.2291 31.5215 46.8827C31.5256 47.0879 31.5256 47.0879 31.5297 47.2973C31.532 47.4433 31.5343 47.5894 31.5366 47.7398C31.5394 47.8906 31.5423 48.0414 31.5452 48.1967C31.554 48.6774 31.5621 49.158 31.57 49.6387C31.5759 49.9649 31.5818 50.2912 31.5878 50.6175C31.6024 51.4164 31.6162 52.2154 31.6295 53.0144C35.1433 53.0208 38.6572 53.0256 42.171 53.0286C43.8025 53.03 45.434 53.0319 47.0655 53.035C48.4873 53.0378 49.9091 53.0395 51.3309 53.0401C52.0839 53.0405 52.8369 53.0413 53.59 53.0433C54.2985 53.0452 55.007 53.0458 55.7155 53.0453C55.9758 53.0454 56.236 53.046 56.4963 53.047C56.8513 53.0484 57.2062 53.048 57.5612 53.0473C57.6645 53.0481 57.7677 53.0489 57.8741 53.0497C58.6014 53.0456 59.0993 52.9572 59.6546 52.476C60.0547 52.0015 60.0454 51.591 60.0461 50.992C60.0467 50.8259 60.0472 50.6597 60.0477 50.4885C60.0476 50.3032 60.0475 50.1179 60.0474 49.9325C60.0477 49.7364 60.0481 49.5402 60.0486 49.3441C60.0497 48.8038 60.0499 48.2635 60.05 47.7232C60.0503 47.141 60.0513 46.5588 60.0522 45.9766C60.0541 44.703 60.0549 43.4294 60.0555 42.1559C60.0559 41.361 60.0564 40.5662 60.057 39.7713C60.0587 37.5717 60.0601 35.3721 60.0606 33.1725C60.0606 33.0317 60.0606 32.8908 60.0607 32.7458C60.0607 32.6046 60.0607 32.4634 60.0607 32.318C60.0608 32.0319 60.0609 31.7459 60.0609 31.4598C60.061 31.3179 60.061 31.176 60.061 31.0298C60.0616 28.7295 60.0639 26.4293 60.0671 24.129C60.0703 21.7687 60.072 19.4085 60.0722 17.0482C60.0723 15.7224 60.0731 14.3967 60.0755 13.0709C60.0776 11.9422 60.0783 10.8135 60.0772 9.68481C60.0767 9.1087 60.0768 8.5326 60.0787 7.95649C60.0804 7.42932 60.0803 6.90219 60.0786 6.37502C60.0784 6.18409 60.0788 5.99315 60.08 5.80221C60.0815 5.54305 60.0802 5.28388 60.0788 5.02472C60.0789 4.88065 60.079 4.73658 60.0791 4.58815C59.9996 3.97852 59.6894 3.48822 59.213 3.10467C58.8269 2.98329 58.4779 2.95063 58.0747 2.94996C57.8965 2.94918 57.8965 2.94918 57.7147 2.94837C57.5198 2.94855 57.5197 2.94855 57.3209 2.94873C57.1824 2.94832 57.0439 2.94792 56.9012 2.9475C56.4356 2.94631 55.9701 2.94611 55.5046 2.9459C55.1713 2.94527 54.8381 2.94458 54.5049 2.94384C53.5987 2.94205 52.6924 2.94116 51.7862 2.94056C51.2203 2.94018 50.6543 2.9396 50.0884 2.93899C48.5212 2.93732 46.954 2.93591 45.3868 2.93545C45.2364 2.93541 45.2364 2.93541 45.0829 2.93536C44.9321 2.93531 44.9321 2.93531 44.7783 2.93527C44.5746 2.93521 44.3709 2.93515 44.1673 2.93509C44.0662 2.93506 43.9652 2.93502 43.8611 2.93499C42.2239 2.93445 40.5868 2.93207 38.9496 2.92888C37.2684 2.92564 35.5872 2.92394 33.906 2.92378C32.9622 2.92365 32.0185 2.92287 31.0747 2.92038C30.187 2.91806 29.2994 2.91783 28.4117 2.91903C28.0859 2.91914 27.76 2.91854 27.4341 2.91719C26.9894 2.91546 26.5447 2.91626 26.1 2.91768C25.971 2.91658 25.8419 2.91548 25.709 2.91435C24.8348 2.92092 24.0939 2.97514 23.4883 3.68177ZM20.3515 14.0438C20.0744 14.6967 19.8217 15.346 19.6334 16.0308C19.1606 17.7087 19.1606 17.7087 18.7305 18.1283C18.4117 18.27 18.1103 18.3451 17.7698 18.4194C17.4824 18.5236 17.1966 18.6322 16.9121 18.7442C16.7623 18.8008 16.6125 18.8574 16.4582 18.9157C15.8688 19.1586 15.3159 19.4555 14.7603 19.7681C14.2484 19.9735 13.9736 20.0024 13.4217 19.9236C12.7239 19.6139 12.0703 19.222 11.4087 18.8419C11.2737 18.767 11.1388 18.6921 10.9997 18.6149C10.8777 18.5448 10.7557 18.4746 10.6299 18.4023C10.3075 18.2497 10.3075 18.2497 10.0178 18.3649C9.45489 18.7715 8.97938 19.2724 8.48754 19.7612C8.3722 19.8716 8.25686 19.9821 8.13803 20.0958C8.02969 20.2034 7.92136 20.3111 7.80974 20.4219C7.71002 20.5197 7.6103 20.6175 7.50756 20.7183C7.27237 21.0047 7.27237 21.0047 7.32451 21.359C7.4414 21.6966 7.57479 21.991 7.7487 22.3026C7.80895 22.4133 7.86921 22.524 7.93129 22.6381C8.05822 22.8673 8.18561 23.0962 8.31345 23.325C8.66131 23.9661 8.95274 24.5084 8.93764 25.2564C8.79262 25.6898 8.58983 26.0837 8.37714 26.487C7.87573 27.4762 7.5148 28.415 7.26038 29.4948C6.92178 30.1128 6.45593 30.2303 5.81242 30.4525C5.6307 30.5175 5.6307 30.5175 5.44532 30.5838C5.06794 30.7156 4.6892 30.8412 4.30925 30.9652C3.86365 31.1119 3.41805 31.2586 2.95895 31.4097C2.95895 32.7634 2.95895 34.1171 2.95895 35.5118C3.23868 35.5994 3.5184 35.687 3.8066 35.7773C4.07808 35.8651 4.3491 35.9542 4.62012 36.0435C4.80804 36.1046 4.99638 36.1644 5.18514 36.2228C5.45723 36.3073 5.7274 36.3964 5.99766 36.4866C6.16061 36.5389 6.32356 36.5912 6.49145 36.645C7.03079 36.9546 7.11605 37.2533 7.30709 37.8364C7.36064 37.9767 7.36064 37.9767 7.41527 38.1198C7.4421 38.196 7.46893 38.2722 7.49658 38.3508C7.52792 38.438 7.55926 38.5253 7.59155 38.6152C7.62379 38.7051 7.65603 38.795 7.68925 38.8876C7.99378 39.7313 8.35301 40.5107 8.80123 41.2896C9.02619 41.9088 8.91949 42.3665 8.64688 42.9587C8.38168 43.4691 8.10111 43.9701 7.81982 44.4717C7.75256 44.5952 7.6853 44.7186 7.616 44.8459C7.55354 44.9572 7.49107 45.0686 7.42672 45.1833C7.28808 45.4811 7.28808 45.4811 7.3196 45.7689C7.48999 46.1443 7.72834 46.3738 8.02099 46.6625C8.19505 46.8356 8.19505 46.8356 8.37263 47.0123C8.49463 47.1317 8.61662 47.251 8.74232 47.3739C8.86484 47.4954 8.98736 47.6168 9.1136 47.742C9.4164 48.0418 9.72011 48.3407 10.0247 48.6388C10.6852 48.4248 11.2797 48.1659 11.893 47.844C11.9843 47.7988 12.0755 47.7535 12.1696 47.707C12.5642 47.4997 12.8374 47.3417 13.0644 46.9498C13.1632 46.5313 13.2503 46.1133 13.3282 45.6903C13.596 44.3973 14.0367 43.2365 14.8049 42.1602C14.8417 42.0871 14.8784 42.0139 14.9163 41.9386C14.7761 41.5151 14.6231 41.3675 14.3155 41.0642C12.2405 38.9398 11.3482 36.1393 11.3497 33.2043C11.3729 31.544 11.7534 30.0351 12.4705 28.5381C12.5559 28.3509 12.5559 28.3509 12.643 28.16C13.1812 27.0674 13.9325 26.2477 14.7805 25.3931C14.87 25.3015 14.9595 25.2098 15.0517 25.1154C16.7888 23.4613 19.007 22.8049 21.3027 22.3849C21.3027 19.6323 21.3027 16.8798 21.3027 14.0438C20.9888 14.0438 20.6749 14.0438 20.3515 14.0438ZM15.808 27.0169C13.8895 29.0678 13.1783 31.4751 13.2343 34.2294C13.3429 36.4386 14.4027 38.5276 16.0034 40.0242C16.2511 40.242 16.2511 40.242 16.5469 40.2977C16.9195 40.1339 16.9195 40.1339 17.2857 39.8618C17.4117 39.7753 17.5376 39.6887 17.6674 39.5996C17.8526 39.4713 17.8526 39.4713 18.0416 39.3405C18.267 39.202 18.4931 39.0647 18.721 38.9303C18.6004 38.7977 18.4799 38.6652 18.3558 38.5286C17.8865 37.9751 17.5389 37.3973 17.2263 36.7425C17.1606 36.6063 17.1606 36.6063 17.0936 36.4674C16.6082 35.2691 16.6334 33.7278 17.0394 32.5121C17.7624 30.8119 18.808 29.806 20.4874 29.0851C20.7564 28.9948 21.0255 28.9046 21.3027 28.8116C21.3027 27.3676 21.3027 25.9237 21.3027 24.436C19.1889 24.436 17.3056 25.585 15.808 27.0169ZM19.4004 32.0933C18.7599 33.0735 18.4374 34.081 18.67 35.2469C19.039 36.4839 19.8325 37.3042 20.912 37.956C21.8426 38.3083 22.9772 38.2568 23.8844 37.8706C24.955 37.3043 25.5426 36.577 25.965 35.4435C26.1619 34.4349 26.1155 33.563 25.6508 32.6403C24.9535 31.637 24.2184 31.1115 23.0691 30.726C21.6222 30.5804 20.3678 30.9624 19.4004 32.0933ZM17.0904 42.3488C15.9622 43.6165 15.0405 45.2164 15.0325 46.9619C15.0316 47.0897 15.0307 47.2174 15.0298 47.349C15.0297 47.4859 15.0295 47.6228 15.0294 47.7639C15.0289 47.9051 15.0285 48.0463 15.028 48.1918C15.0273 48.49 15.027 48.7881 15.027 49.0862C15.0267 49.5439 15.0243 50.0015 15.0217 50.4591C15.0213 50.7486 15.021 51.0381 15.0209 51.3276C15.0199 51.4651 15.0189 51.6025 15.0179 51.7441C15.0184 51.871 15.0188 51.9979 15.0192 52.1286C15.019 52.2405 15.0188 52.3524 15.0186 52.4677C15.0278 52.7725 15.0278 52.7725 15.324 53.0144C15.5839 53.0562 15.5839 53.0562 15.8852 53.0501C16.0028 53.051 16.1203 53.052 16.2414 53.053C16.3707 53.0527 16.4999 53.0523 16.6331 53.052C16.8369 53.053 16.8369 53.053 17.0449 53.0541C17.4958 53.056 17.9468 53.0559 18.3977 53.0555C18.7101 53.0561 19.0226 53.0567 19.335 53.0573C19.9905 53.0583 20.6461 53.0583 21.3016 53.0576C22.143 53.0568 22.9844 53.0591 23.8258 53.0623C24.4712 53.0643 25.1166 53.0644 25.762 53.064C26.0723 53.0641 26.3826 53.0648 26.6928 53.0661C27.1262 53.0678 27.5595 53.0669 27.9928 53.0653C28.1863 53.0669 28.1863 53.0669 28.3837 53.0685C28.5016 53.0675 28.6195 53.0666 28.741 53.0656C28.8947 53.0656 28.8947 53.0656 29.0516 53.0657C29.3998 52.9991 29.5188 52.8897 29.7272 52.6042C29.7679 52.2045 29.7843 51.8347 29.7813 51.435C29.7817 51.3187 29.7821 51.2024 29.7825 51.0826C29.7828 50.8356 29.782 50.5886 29.7803 50.3416C29.7782 49.97 29.7803 49.5987 29.7829 49.2271C29.7864 46.5267 29.3401 44.1581 27.4002 42.1405C24.3916 39.5324 19.9975 39.5132 17.0904 42.3488Z" fill="#703391" stroke="#703391" stroke-width="0.5"/>
<path d="M57.039 6.65989C57.3963 6.86871 57.4389 7.05048 57.591 7.43759C57.5764 8.2155 57.0367 8.69539 56.5262 9.24298C56.4516 9.32406 56.377 9.40514 56.3001 9.48868C56.2302 9.55972 56.1603 9.63075 56.0883 9.70394C55.9205 9.94395 55.9205 9.94395 55.9806 10.2723C56.0856 10.618 56.2196 10.9289 56.3681 11.2577C56.9326 12.8033 56.8309 14.6313 56.1627 16.1221C55.2423 17.7948 53.961 18.7925 52.1813 19.4194C50.4855 19.773 48.7408 19.5143 47.2726 18.5818C45.7482 17.4572 44.8323 16.0783 44.5381 14.1805C44.3692 12.4978 44.8117 11.0463 45.761 9.66815C45.8451 9.54406 45.9291 9.41997 46.0158 9.29212C47.0796 8.15858 48.4998 7.41525 50.0502 7.311C51.7109 7.27997 52.9884 7.64156 54.4573 8.4375C54.5525 8.30918 54.6478 8.18086 54.746 8.04865C54.876 7.88186 55.0063 7.71522 55.1367 7.5487C55.1988 7.46391 55.261 7.37913 55.3251 7.29178C55.8587 6.62235 56.1954 6.5519 57.039 6.65989ZM47.3915 10.8988C46.5896 11.9825 46.4513 12.9925 46.5763 14.3173C46.8575 15.4289 47.6025 16.2763 48.4871 16.9666C49.4928 17.5265 50.4743 17.5976 51.6038 17.4623C52.8002 17.0784 53.7158 16.3984 54.3283 15.2894C54.8508 14.143 54.8463 13.0304 54.4573 11.856C53.2976 12.9853 52.2262 14.2236 51.2779 15.5378C50.996 15.9164 50.8283 16.0826 50.3724 16.2231C49.7334 16.2368 49.7334 16.2368 49.4297 16.0949C49.3936 16.0216 49.3576 15.9482 49.3204 15.8727C49.0497 15.3315 48.6725 14.8586 48.3167 14.3715C47.2426 12.8833 47.2426 12.8833 47.2896 12.138C47.3233 11.9998 47.3569 11.8616 47.3915 11.7192C48.2395 11.5352 48.2395 11.5352 48.6792 11.7369C49.0797 12.0357 49.3106 12.3481 49.5911 12.7619C49.913 13.2804 49.913 13.2804 50.3809 13.6336C51.3052 12.5082 52.2055 11.3657 53.0985 10.2151C52.3576 9.57192 51.616 9.32784 50.6526 9.20666C49.3114 9.37537 48.3035 9.88444 47.3915 10.8988Z" fill="#703391" stroke="#703391" stroke-width="0.5"/>
<path d="M56.4784 37.6312C56.903 37.6996 56.903 37.6996 57.3022 37.9902C57.5824 38.3833 57.5824 38.3833 57.5649 38.7743C57.4301 39.2632 57.2463 39.5208 56.92 39.9045C56.8251 40.0177 56.7301 40.1308 56.6323 40.2474C56.4612 40.4505 56.2876 40.6515 56.1106 40.8494C55.9201 41.1083 55.9201 41.1083 55.9917 41.407C56.0518 41.5559 56.0518 41.5559 56.1132 41.7078C56.715 43.2479 56.9514 44.9924 56.4104 46.5962C55.6772 48.2868 54.543 49.5602 52.8309 50.2507C52.0839 50.5258 51.412 50.628 50.6186 50.6214C50.5065 50.6207 50.3944 50.6199 50.279 50.6191C48.572 50.5694 47.2101 49.8698 46.0422 48.635C44.8579 47.2206 44.403 45.5406 44.538 43.7161C44.8705 41.9051 45.719 40.5016 47.1706 39.3576C48.5067 38.4738 50.1687 38.1989 51.7295 38.4463C52.7392 38.6703 53.5767 39.075 54.4572 39.6139C54.5407 39.5101 54.6243 39.4063 54.7104 39.2993C54.8751 39.0955 54.8751 39.0955 55.0432 38.8875C55.2063 38.6853 55.2063 38.6853 55.3728 38.4789C56.0104 37.7131 56.0104 37.7131 56.4784 37.6312ZM47.3915 41.9385C46.6414 43.0501 46.4599 44.0199 46.5762 45.357C46.8638 46.5262 47.4775 47.4016 48.47 48.0661C49.43 48.6223 50.4337 48.8125 51.5172 48.5655C52.6609 48.2116 53.506 47.5793 54.1854 46.5876C54.7933 45.3553 54.8881 44.3333 54.4572 43.0324C54.3675 43.0324 54.2778 43.0324 54.1854 43.0324C53.9571 43.304 53.7434 43.5773 53.5315 43.8614C52.9537 44.6199 52.3551 45.3543 51.7311 46.0749C51.655 46.1628 51.579 46.2508 51.5006 46.3414C50.6986 47.2641 50.6986 47.2641 50.2704 47.3312C49.5196 47.2274 49.147 46.5861 48.7099 46.0065C48.5528 45.7905 48.3965 45.574 48.2407 45.357C48.1607 45.2484 48.0806 45.1398 47.9981 45.028C47.9219 44.9222 47.8457 44.8164 47.7672 44.7075C47.6983 44.6123 47.6293 44.5171 47.5582 44.419C47.3692 44.0872 47.297 43.822 47.2556 43.4426C47.3915 43.0581 47.3915 43.0581 47.6632 42.7589C48.1303 42.682 48.1303 42.682 48.6144 42.7589C49.0421 43.1285 49.3503 43.5573 49.6674 44.0238C49.7508 44.1458 49.8342 44.2677 49.9201 44.3934C49.9824 44.4858 50.0448 44.5781 50.109 44.6733C50.6272 44.4659 50.8798 44.1613 51.2216 43.7247C51.327 43.5914 51.4324 43.4581 51.5411 43.3209C51.6514 43.1805 51.7618 43.0402 51.8755 42.8957C52.1037 42.6127 52.3335 42.3312 52.5634 42.0496C52.6658 41.9236 52.7683 41.7975 52.8739 41.6677C52.948 41.5766 53.022 41.4854 53.0984 41.3915C52.388 40.6327 51.6847 40.4126 50.6695 40.3746C49.3377 40.4151 48.2721 40.9302 47.3915 41.9385Z" fill="#703391" stroke="#703391" stroke-width="0.5"/>
<path d="M57.1749 22.2482C57.5077 22.6145 57.5861 22.8143 57.5708 23.31C57.3813 23.9848 56.9385 24.3808 56.4647 24.878C56.0539 25.3156 56.0539 25.3156 55.9567 25.8867C56.0875 26.2127 56.2249 26.5339 56.3681 26.8546C56.8913 28.2817 56.8309 30.0367 56.2752 31.4455C55.4191 33.1562 54.1581 34.2655 52.3522 34.8703C50.6874 35.3322 49.1004 35.1101 47.5614 34.3239C46.1205 33.4698 45.2548 32.2473 44.6904 30.6646C44.2917 29.1018 44.5119 27.4119 45.243 25.9828C46.2 24.4006 47.5059 23.3853 49.2939 22.9319C49.7177 22.8762 50.1322 22.8666 50.5592 22.872C50.6715 22.8729 50.7837 22.8737 50.8993 22.8746C52.2559 22.9092 53.303 23.3448 54.4573 24.0258C54.6144 23.8357 54.6144 23.8357 54.7747 23.6417C54.9123 23.4763 55.05 23.3109 55.1876 23.1455C55.2912 23.0201 55.2912 23.0201 55.3968 22.8921C56.0066 22.1613 56.2279 22.0141 57.1749 22.2482ZM47.3916 26.3503C46.6419 27.4641 46.4613 28.43 46.5763 29.7688C46.839 30.8804 47.4431 31.8011 48.3852 32.4448C49.4791 33.0785 50.5953 33.2679 51.8432 32.9571C53.0142 32.5222 53.7563 31.8757 54.3214 30.757C54.838 29.5994 54.8486 28.6255 54.4573 27.4442C53.9794 27.8081 53.5991 28.1782 53.2259 28.6493C53.0698 28.8446 53.0698 28.8446 52.9106 29.044C52.7215 29.2835 52.5329 29.5234 52.3444 29.7633C52.1966 29.9512 52.0487 30.1391 51.9006 30.3268C51.7552 30.5112 51.6104 30.6961 51.466 30.8813C50.9547 31.5312 50.9547 31.5312 50.6527 31.6832C50.1978 31.7323 50.1978 31.7323 49.7015 31.6832C49.3793 31.4118 49.3793 31.4118 49.0985 31.0336C48.9964 30.8974 48.8943 30.7611 48.7891 30.6208C48.6866 30.475 48.5842 30.3292 48.4786 30.179C48.4264 30.1053 48.3742 30.0315 48.3204 29.9556C47.3217 28.5357 47.3217 28.5357 47.2557 27.9912C47.3831 27.6152 47.3831 27.6152 47.5274 27.3075C48.3629 27.1097 48.3629 27.1097 48.8183 27.3502C49.3122 27.8846 49.7093 28.4776 50.1091 29.0851C50.6803 28.8711 51.0006 28.4437 51.3745 27.9827C51.4398 27.9036 51.5051 27.8245 51.5724 27.743C52.0948 27.1073 52.6037 26.4611 53.0985 25.8034C52.5545 25.189 51.7894 24.9191 50.9934 24.7923C49.5891 24.7313 48.308 25.2796 47.3916 26.3503Z" fill="#703391" stroke="#703391" stroke-width="0.5"/>
<path d="M29.5337 14.9634C29.7291 14.9624 29.7291 14.9624 29.9283 14.9613C30.3581 14.9594 30.7878 14.9595 31.2176 14.9598C31.5166 14.9593 31.8156 14.9587 32.1146 14.9581C32.741 14.9571 33.3674 14.9571 33.9938 14.9578C34.7966 14.9586 35.5994 14.9563 36.4022 14.9531C37.0195 14.9511 37.6369 14.951 38.2542 14.9514C38.5502 14.9513 38.8462 14.9506 39.1423 14.9492C39.556 14.9476 39.9696 14.9485 40.3834 14.9501C40.5057 14.949 40.6279 14.948 40.7539 14.9469C41.4654 14.9529 41.9711 15.0158 42.4999 15.5479C42.578 16.3819 42.578 16.3819 42.3091 16.8058C41.7685 17.1832 41.2619 17.1273 40.6185 17.1207C40.4149 17.1218 40.4149 17.1218 40.2073 17.1229C39.7584 17.1246 39.3097 17.1224 38.8608 17.1199C38.5491 17.1199 38.2374 17.1201 37.9257 17.1205C37.2723 17.1207 36.619 17.119 35.9656 17.1159C35.1276 17.112 34.2897 17.1124 33.4516 17.1141C32.808 17.115 32.1643 17.114 31.5206 17.1123C31.2116 17.1117 30.9026 17.1116 30.5935 17.1122C30.1619 17.1125 29.7303 17.1103 29.2986 17.1073C29.1065 17.1082 29.1065 17.1082 28.9105 17.1092C28.048 17.0993 28.048 17.0993 27.6128 16.8638C27.3462 16.5613 27.3004 16.3609 27.2814 15.9581C27.3663 15.5907 27.3663 15.5907 27.5531 15.2745C28.1813 14.9159 28.8328 14.9615 29.5337 14.9634Z" fill="#703391" stroke="#703391" stroke-width="0.5"/>
<path d="M28.3741 9.7848C28.4924 9.78382 28.6107 9.78284 28.7326 9.78183C28.8634 9.78147 28.9942 9.7811 29.1289 9.78072C29.2659 9.77982 29.4029 9.77892 29.544 9.778C29.9994 9.77529 30.4549 9.7737 30.9103 9.77234C31.143 9.7715 31.143 9.7715 31.3803 9.77065C32.2012 9.7678 33.022 9.76584 33.8429 9.76456C34.6924 9.76305 35.5418 9.75834 36.3912 9.75292C37.0429 9.74935 37.6946 9.7482 38.3464 9.7477C38.6596 9.74704 38.9728 9.74544 39.2859 9.74291C39.7239 9.7396 40.1616 9.73971 40.5996 9.74066C40.7295 9.73891 40.8595 9.73716 40.9934 9.73535C41.8686 9.74231 41.8686 9.74231 42.3092 10.0568C42.569 10.4588 42.5681 10.7014 42.4999 11.1723C42.3767 11.4671 42.3767 11.4671 42.0922 11.7193C41.6438 11.8042 41.1978 11.7925 40.7427 11.7879C40.6042 11.7886 40.4656 11.7893 40.3228 11.7901C39.8638 11.7918 39.4048 11.7896 38.9458 11.7871C38.6274 11.7871 38.3091 11.7873 37.9908 11.7877C37.3233 11.7879 36.6557 11.7862 35.9882 11.7831C35.1314 11.7792 34.2747 11.7796 33.4179 11.7813C32.7605 11.7822 32.1031 11.7812 31.4457 11.7795C31.1297 11.7789 30.8137 11.7788 30.4978 11.7794C30.0566 11.7798 29.6155 11.7775 29.1744 11.7745C28.9774 11.7754 28.9774 11.7754 28.7765 11.7764C28.6565 11.775 28.5365 11.7737 28.4128 11.7723C28.3085 11.7719 28.2042 11.7716 28.0967 11.7713C27.7509 11.7051 27.6331 11.5837 27.4173 11.3091C27.2984 10.9843 27.2984 10.9843 27.2814 10.6254C27.6971 9.78863 27.6971 9.78863 28.3741 9.7848Z" fill="#703391" stroke="#703391" stroke-width="0.5"/>
<path d="M28.3801 25.3731C28.4998 25.3721 28.6194 25.3711 28.7427 25.3701C28.875 25.3697 29.0073 25.3694 29.1435 25.369C29.2821 25.3681 29.4206 25.3672 29.5633 25.3663C30.0238 25.3635 30.4843 25.362 30.9448 25.3606C31.1016 25.36 31.2584 25.3595 31.4199 25.3589C32.2494 25.3561 33.0789 25.3541 33.9084 25.3528C34.7673 25.3513 35.6262 25.3466 36.4851 25.3412C37.1437 25.3376 37.8023 25.3365 38.4609 25.336C38.7776 25.3353 39.0943 25.3337 39.411 25.3312C39.8535 25.3279 40.2959 25.328 40.7384 25.3289C40.8701 25.3272 41.0019 25.3254 41.1376 25.3236C42.0215 25.3306 42.0215 25.3306 42.3769 25.645C42.5461 26.0512 42.5631 26.3244 42.4999 26.7606C42.308 27.0554 42.308 27.0554 41.9563 27.3075C41.5109 27.3895 41.0702 27.3808 40.6185 27.3761C40.4149 27.3772 40.4149 27.3772 40.2073 27.3784C39.7584 27.3801 39.3097 27.3778 38.8608 27.3754C38.5491 27.3754 38.2374 27.3756 37.9257 27.376C37.2723 27.3762 36.619 27.3744 35.9656 27.3713C35.1276 27.3674 34.2897 27.3678 33.4516 27.3696C32.808 27.3705 32.1643 27.3694 31.5206 27.3677C31.2116 27.3671 30.9026 27.3671 30.5935 27.3676C30.1619 27.368 29.7303 27.3658 29.2986 27.3628C29.1065 27.3637 29.1065 27.3637 28.9105 27.3646C28.0479 27.3547 28.0479 27.3547 27.6134 27.1193C27.3436 26.814 27.291 26.6217 27.2814 26.2136C27.591 25.5904 27.6989 25.3769 28.3801 25.3731Z" fill="#703391" stroke="#703391" stroke-width="0.5"/>
<path d="M31.8446 30.565C32.0041 30.5637 32.0041 30.5637 32.1668 30.5623C32.5193 30.5596 32.8719 30.558 33.2245 30.5566C33.3448 30.5561 33.4652 30.5555 33.5891 30.555C34.226 30.5521 34.8629 30.5501 35.4998 30.5489C36.1578 30.5474 36.8157 30.5426 37.4736 30.5372C37.9794 30.5336 38.4852 30.5325 38.991 30.532C39.2336 30.5313 39.4761 30.5297 39.7186 30.5272C40.0582 30.5239 40.3977 30.524 40.7373 30.525C40.8374 30.5232 40.9374 30.5215 41.0405 30.5197C41.5262 30.5246 41.8048 30.5796 42.2226 30.8368C42.4999 31.1362 42.4999 31.1362 42.5848 31.6148C42.4999 32.0934 42.4999 32.0934 42.2214 32.3925C41.724 32.7 41.3224 32.7165 40.7563 32.7089C40.6512 32.7097 40.5462 32.7104 40.438 32.7112C40.092 32.7129 39.7461 32.7106 39.4001 32.7081C39.159 32.7082 38.9179 32.7084 38.6768 32.7087C38.1719 32.7089 37.6671 32.7072 37.1622 32.7041C36.5157 32.7002 35.8692 32.7006 35.2227 32.7023C34.7249 32.7033 34.2272 32.7022 33.7294 32.7005C33.4911 32.6999 33.2527 32.6999 33.0143 32.7004C32.681 32.7008 32.3477 32.6985 32.0143 32.6956C31.8671 32.6965 31.8671 32.6965 31.7169 32.6974C31.1243 32.6886 30.7376 32.6051 30.2707 32.2301C30.0976 31.7293 30.0893 31.5078 30.3132 31.0251C30.7345 30.4755 31.205 30.5674 31.8446 30.565Z" fill="#703391" stroke="#703391" stroke-width="0.5"/>
<path d="M33.9425 40.8204C34.2003 40.8178 34.2003 40.8178 34.4634 40.8151C34.652 40.814 34.8405 40.813 35.0291 40.8121C35.1714 40.8112 35.1714 40.8112 35.3165 40.8104C35.8186 40.8075 36.3207 40.8056 36.8228 40.8043C37.3409 40.8028 37.859 40.7981 38.3771 40.7926C38.7759 40.7891 39.1747 40.7879 39.5735 40.7874C39.7645 40.7868 39.9554 40.7852 40.1464 40.7826C40.414 40.7793 40.6817 40.7798 40.9493 40.7804C41.1776 40.7792 41.1776 40.7792 41.4104 40.778C41.9175 40.8604 42.1434 41.0244 42.4998 41.3916C42.5847 41.8702 42.5847 41.8702 42.4998 42.3488C42.1442 42.7147 41.9176 42.8796 41.4122 42.9633C41.2609 42.963 41.1096 42.9626 40.9536 42.9622C40.6952 42.9634 40.6952 42.9634 40.4315 42.9647C40.2446 42.9628 40.0577 42.9608 39.8709 42.9588C39.6782 42.9584 39.4855 42.9583 39.2928 42.9584C38.8897 42.958 38.4866 42.9557 38.0836 42.952C37.5674 42.9474 37.0513 42.9463 36.5351 42.9465C36.1375 42.9465 35.7399 42.945 35.3423 42.943C35.152 42.9421 34.9617 42.9416 34.7714 42.9414C34.5053 42.9408 34.2393 42.9382 33.9734 42.9355C33.7465 42.9339 33.7465 42.9339 33.5151 42.9323C33.1283 42.8961 32.9024 42.8366 32.5806 42.6223C32.3734 42.2052 32.4127 41.8507 32.4447 41.3916C32.8555 40.8279 33.2809 40.8263 33.9425 40.8204Z" fill="#703391" stroke="#703391" stroke-width="0.5"/>
<path d="M34.9753 46.1067C35.2052 46.1041 35.2052 46.1041 35.4397 46.1014C35.6871 46.1031 35.6871 46.1031 35.9394 46.1048C36.1093 46.1043 36.2791 46.1037 36.4541 46.1032C36.8133 46.1028 37.1723 46.1036 37.5314 46.1061C37.9911 46.1092 38.4506 46.1075 38.9103 46.1042C39.3496 46.1017 39.7888 46.1034 40.2281 46.1048C40.393 46.1037 40.5579 46.1026 40.7278 46.1014C40.8811 46.1032 41.0344 46.1049 41.1923 46.1067C41.3944 46.1073 41.3944 46.1073 41.6006 46.108C42.0559 46.1969 42.2182 46.36 42.4998 46.7244C42.5656 47.178 42.5591 47.4351 42.3408 47.8395C42.0922 48.0918 42.0922 48.0918 41.7416 48.1612C41.6013 48.1617 41.461 48.1621 41.3165 48.1626C41.1573 48.1643 40.9982 48.166 40.8342 48.1678C40.6622 48.1667 40.4902 48.1656 40.313 48.1644C40.1366 48.165 39.9602 48.1655 39.7785 48.166C39.4052 48.1668 39.032 48.1656 38.6587 48.1631C38.1802 48.16 37.7019 48.1618 37.2235 48.165C36.7671 48.1675 36.3108 48.1658 35.8545 48.1644C35.5965 48.1661 35.5965 48.1661 35.3333 48.1678C35.1742 48.1661 35.015 48.1643 34.8511 48.1626C34.7108 48.1621 34.5705 48.1617 34.4259 48.1612C34.0753 48.0918 34.0753 48.0918 33.8267 47.8395C33.6084 47.4351 33.6019 47.178 33.6677 46.7244C34.0672 46.2074 34.3332 46.1087 34.9753 46.1067Z" fill="#703391" stroke="#703391" stroke-width="0.5"/>
</svg>
