<svg width="58" height="58" viewBox="0 0 58 58" fill="none" xmlns="http://www.w3.org/2000/svg">
<path d="M20.1678 3.77812C20.5448 3.6096 20.8712 3.38547 21.2088 3.14952C23.8615 1.30777 27.0872 0.681451 30.2794 1.19338C30.7501 1.28871 31.1982 1.42389 31.653 1.57749C31.7267 1.6017 31.8004 1.6259 31.8763 1.65084C33.5442 2.21068 34.9197 3.13344 36.1775 4.35723C36.2681 4.44188 36.3587 4.52654 36.4521 4.61376C38.1676 6.25438 39.5129 8.67187 39.5695 11.0871C39.6112 13.356 39.1837 15.2208 38.3817 17.3293C38.5372 17.3761 38.5372 17.3761 38.6958 17.4239C40.2857 17.9944 41.5278 19.4894 42.3261 20.9198C42.3782 21.0097 42.4302 21.0996 42.4838 21.1922C42.7985 21.7721 43.018 22.3709 43.218 22.9974C43.2414 23.0706 43.2649 23.1438 43.2892 23.2192C43.9902 25.5207 43.9781 28.1239 43.2542 30.4173C43.2122 30.5507 43.1702 30.6842 43.1269 30.8217C42.35 33.0144 40.9678 34.9459 38.8666 36.0297C37.2999 36.7691 35.5292 36.9691 33.8427 36.4834C33.6131 36.3982 33.3856 36.3067 33.1612 36.2084C33.0536 36.1619 32.9461 36.1155 32.8353 36.0677C30.6574 35.0036 29.3062 32.8865 28.4754 30.6846C28.3681 30.3653 28.266 30.046 28.1727 29.7223C28.0997 29.7965 28.0267 29.8707 27.9515 29.9472C27.8522 30.0474 27.7529 30.1475 27.6506 30.2508C27.5537 30.3488 27.4568 30.4469 27.3569 30.548C27.026 30.8744 26.676 31.1766 26.3246 31.4807C25.9361 31.8214 25.5611 32.1763 25.1853 32.531C24.6164 33.0662 24.0451 33.5983 23.4669 34.1236C23.0381 34.5141 22.6221 34.9121 22.2157 35.3257C21.9235 35.6119 21.6136 35.8764 21.3021 36.1414C21.0794 36.3311 21.0794 36.3311 20.8494 36.6065C20.6319 36.7875 20.6319 36.7875 20.3128 36.8671C19.7276 36.7435 19.4241 36.3911 19.0077 35.9767C18.9216 35.891 18.9216 35.891 18.8337 35.8036C18.3199 35.2915 18.3199 35.2915 18.0703 35.0367C17.6657 34.6259 17.2441 34.2433 16.8076 33.8666C16.4199 33.5278 16.0467 33.1739 15.6724 32.8206C15.122 32.3031 14.5701 31.7877 14.0119 31.2787C12.6506 30.0361 11.3116 28.7758 10.0093 27.4714C9.78203 27.2439 9.55412 27.017 9.32615 26.7901C8.62294 26.0884 7.93071 25.3864 7.29051 24.6261C7.18324 24.5046 7.07569 24.3834 6.96785 24.2624C3.43912 20.2547 0.703278 15.8642 1.02586 10.38C1.23082 8.4669 2.25134 6.73685 3.46211 5.28381C3.58952 5.13017 3.58952 5.13017 3.71951 4.97344C5.77674 2.59414 8.64574 1.3049 11.7425 1.01286C14.8852 0.878773 17.7374 1.79285 20.1678 3.77812ZM5.0251 5.80139C3.18876 7.73188 2.44739 9.93971 2.48825 12.5449C2.53755 13.7179 2.81946 14.8879 3.3461 15.9395C6.98307 15.9395 10.62 15.9395 14.3672 15.9395C15.7163 13.1087 15.7163 13.1087 17.0355 10.2642C17.356 10.1042 17.6095 10.1262 17.9636 10.1483C18.2894 10.4736 18.3323 10.8485 18.4346 11.2835C18.4686 11.4237 18.4686 11.4237 18.5033 11.5668C18.5786 11.878 18.6527 12.1895 18.7267 12.501C18.7793 12.7194 18.8319 12.9377 18.8846 13.1561C19.0239 13.7344 19.1622 14.3129 19.3003 14.8915C19.411 15.3544 19.5224 15.8172 19.6339 16.28C20.2101 18.6733 20.7815 21.0676 21.3279 23.4679C21.3662 23.4679 21.4045 23.4679 21.444 23.4679C21.4676 23.3587 21.4913 23.2494 21.5157 23.1369C21.7391 22.1071 21.9643 21.0778 22.1913 20.0488C22.308 19.5198 22.424 18.9907 22.5385 18.4612C22.6491 17.9502 22.7614 17.4396 22.8748 16.9292C22.9177 16.7345 22.9601 16.5396 23.0019 16.3446C23.0605 16.0714 23.1212 15.7987 23.1824 15.5261C23.1992 15.4454 23.216 15.3648 23.2333 15.2817C23.345 14.7973 23.4765 14.5019 23.8802 14.2021C24.2402 14.197 24.2402 14.197 24.5763 14.3179C24.7372 14.5447 24.7372 14.5447 24.8495 14.8627C24.8963 14.9886 24.943 15.1145 24.9911 15.2443C25.0168 15.3169 25.0424 15.3895 25.0689 15.4643C25.1669 15.7373 25.2707 16.0076 25.3755 16.2781C25.6267 16.9267 25.8738 17.5767 26.1207 18.227C26.2075 18.455 26.2942 18.683 26.381 18.911C26.5918 19.4647 26.8022 20.0185 27.0125 20.5724C27.2755 20.1786 27.3993 19.7846 27.5382 19.3377C27.5946 19.1604 27.6509 18.9831 27.7072 18.8058C27.7953 18.5266 27.8831 18.2472 27.9707 17.9678C28.0556 17.6979 28.1413 17.4283 28.227 17.1588C28.253 17.0749 28.279 16.9911 28.3058 16.9047C28.4945 16.3131 28.4945 16.3131 28.7527 16.0553C29.1021 16.023 29.1021 16.023 29.5565 16.0184C29.6804 16.0166 29.6804 16.0166 29.8069 16.0148C30.0806 16.0112 30.3542 16.0093 30.6279 16.0073C30.8175 16.0052 31.007 16.0029 31.1966 16.0005C31.6959 15.9946 32.1952 15.99 32.6945 15.9857C33.2038 15.9811 33.7132 15.9751 34.2225 15.9693C35.2222 15.9581 36.2219 15.9483 37.2216 15.9395C37.3155 15.682 37.409 15.4244 37.5023 15.1666C37.5544 15.0232 37.6065 14.8797 37.6602 14.7319C38.4029 12.5589 38.1852 10.1941 37.1926 8.14317C36.8136 7.42527 36.3618 6.82033 35.8294 6.21039C35.7778 6.1423 35.7263 6.07422 35.6731 6.00408C34.2147 4.1161 31.6941 2.9357 29.3784 2.61627C26.5891 2.28028 24.0729 2.97503 21.8119 4.61873C21.4765 4.88736 21.1651 5.17791 20.8621 5.48242C20.5262 5.69963 20.3291 5.69394 19.9358 5.63127C19.6836 5.44773 19.4767 5.27334 19.2542 5.0594C15.0245 1.26962 8.92768 1.99552 5.0251 5.80139ZM17.2675 13.1597C17.2131 13.2778 17.1587 13.3959 17.1027 13.5175C16.9006 13.9553 16.6973 14.3925 16.4936 14.8295C16.4056 15.0187 16.3179 15.2081 16.2306 15.3977C16.1051 15.6701 15.9784 15.9419 15.8514 16.2136C15.8126 16.2986 15.7738 16.3835 15.7338 16.471C15.545 16.8718 15.44 17.0786 15.0633 17.3293C14.7131 17.3541 14.3732 17.3654 14.0227 17.3663C13.9163 17.3674 13.8099 17.3686 13.7003 17.3698C13.3481 17.3734 12.996 17.3753 12.6438 17.3773C12.3998 17.3795 12.1558 17.3817 11.9118 17.3841C11.2693 17.39 10.6268 17.3946 9.98421 17.3989C9.32867 17.4036 8.67315 17.4095 8.01762 17.4153C6.73115 17.4265 5.44467 17.4363 4.15818 17.4452C5.33188 21.1269 9.17629 24.4473 11.8484 27.1069C12.0932 27.3506 12.3372 27.5949 12.5813 27.8393C12.74 27.9977 12.8988 28.156 13.0576 28.3144C13.1289 28.3858 13.2002 28.4572 13.2737 28.5308C13.7096 28.9637 14.1598 29.3737 14.6248 29.7752C14.8567 29.976 15.0818 30.1828 15.3044 30.3937C15.4227 30.5054 15.4227 30.5054 15.5433 30.6194C15.6242 30.696 15.7051 30.7726 15.7884 30.8516C16.4728 31.4975 17.1611 32.1382 17.8567 32.7722C18.2412 33.1227 18.6247 33.4745 19.0077 33.8268C19.0704 33.8843 19.1331 33.9418 19.1977 34.0011C19.5283 34.3054 19.8525 34.6142 20.1678 34.9343C20.532 34.7736 20.7737 34.5874 21.0506 34.3032C21.1287 34.224 21.2067 34.1448 21.2872 34.0632C21.4078 33.939 21.4078 33.939 21.531 33.8123C22.0659 33.2645 22.6061 32.7367 23.1872 32.2377C23.5733 31.9023 23.9434 31.55 24.3153 31.1991C25.3494 30.2272 25.3494 30.2272 25.8343 29.7846C26.0028 29.6299 26.1692 29.473 26.3355 29.316C26.6645 29.0274 26.6645 29.0274 27.0298 28.7894C27.5073 28.4548 27.8785 28.1771 27.9989 27.5807C28.0541 26.9869 28.0501 26.3952 28.0476 25.7993C28.0427 23.1758 29.251 20.676 31.073 18.835C31.6118 18.314 32.1477 17.907 32.8131 17.561C32.8131 17.5228 32.8131 17.4845 32.8131 17.4452C31.7795 17.4452 30.7458 17.4452 29.6808 17.4452C29.4075 18.1672 29.4075 18.1672 29.1567 18.8949C29.112 19.0316 29.112 19.0316 29.0664 19.1712C29.0355 19.2663 29.0047 19.3614 28.973 19.4594C28.9402 19.5598 28.9075 19.6602 28.8738 19.7637C28.8053 19.9743 28.7369 20.1849 28.6685 20.3956C28.5639 20.7179 28.459 21.0401 28.3539 21.3623C28.2871 21.5677 28.2204 21.7731 28.1536 21.9785C28.1067 22.1226 28.1067 22.1226 28.0588 22.2695C28.0297 22.3593 28.0007 22.449 27.9707 22.5414C27.9325 22.6592 27.9325 22.6592 27.8935 22.7793C27.824 23.0066 27.7663 23.2374 27.7086 23.4679C27.3641 23.4679 27.0195 23.4679 26.6645 23.4679C26.3336 22.7401 26.0318 22.0072 25.7491 21.2596C25.7085 21.1531 25.668 21.0466 25.6262 20.9369C25.4983 20.6007 25.3708 20.2644 25.2434 19.9281C25.1561 19.6985 25.0688 19.4689 24.9814 19.2393C24.7687 18.68 24.5564 18.1205 24.3443 17.561C24.1064 17.9735 24.0094 18.4048 23.9085 18.8651C23.8896 18.9489 23.8707 19.0328 23.8513 19.1192C23.8104 19.3008 23.7699 19.4825 23.7296 19.6643C23.6657 19.9521 23.6011 20.2398 23.5363 20.5275C23.3989 21.1383 23.2625 21.7493 23.1261 22.3604C22.9681 23.0682 22.8096 23.7759 22.6504 24.4834C22.5869 24.7664 22.5239 25.0496 22.4611 25.3328C22.422 25.5069 22.3829 25.681 22.3437 25.8551C22.3265 25.9336 22.3092 26.012 22.2915 26.0928C22.0532 27.1451 22.0532 27.1451 21.792 27.4059C21.5213 27.4106 21.2506 27.4108 20.9799 27.4059C20.6571 26.7241 20.4791 26.0402 20.3085 25.3072C20.2632 25.1163 20.2632 25.1163 20.2169 24.9217C20.1516 24.6466 20.0867 24.3714 20.0221 24.0962C19.9199 23.6609 19.8167 23.2258 19.7133 22.7908C19.4942 21.8682 19.2763 20.9452 19.0585 20.0222C18.8057 18.951 18.5524 17.8799 18.2979 16.8091C18.1962 16.38 18.0953 15.9506 17.9945 15.5212C17.9323 15.2592 17.8701 14.9972 17.8079 14.7352C17.78 14.6153 17.7521 14.4955 17.7233 14.372C17.6972 14.2626 17.671 14.1531 17.644 14.0404C17.6216 13.9452 17.5992 13.8501 17.5761 13.7521C17.5026 13.4763 17.5026 13.4763 17.2675 13.1597ZM31.4618 20.4475C29.6749 22.7826 29.1304 25.6296 29.486 28.519C29.8735 30.8 30.9736 32.9575 32.8761 34.3376C34.133 35.1294 35.4394 35.4467 36.9053 35.1334C37.9051 34.8702 38.6501 34.4579 39.4258 33.7761C39.4974 33.7141 39.5691 33.6522 39.6429 33.5883C41.3082 32.0442 42.1467 29.6625 42.2504 27.4362C42.32 24.6508 41.671 21.9823 39.7022 19.9068C38.5105 18.7814 37.1572 18.2042 35.5181 18.2242C33.8563 18.361 32.5296 19.2088 31.4618 20.4475Z" fill="#703391" stroke="#703391" stroke-width="0.6"/>
<path d="M31.9285 37.6491C32.7003 38.1078 33.1188 39.3096 33.5279 40.0807C33.7184 40.4397 33.91 40.798 34.1015 41.1564C34.1587 41.2635 34.1587 41.2635 34.2171 41.3728C34.7446 42.3594 35.2865 43.338 35.8294 44.3162C35.8643 44.2488 35.8992 44.1815 35.9351 44.1121C36.7543 42.5323 37.5834 40.9584 38.4509 39.4043C38.5669 39.1904 38.6776 38.9736 38.7847 38.7551C39.2128 37.9014 39.2128 37.9014 39.6207 37.6016C40.2472 37.5965 40.7378 37.8619 41.2965 38.1269C41.4212 38.1839 41.5459 38.2409 41.6744 38.2997C42.0137 38.4553 42.3519 38.6129 42.6898 38.7714C43.0655 38.947 43.4425 39.12 43.8193 39.2933C44.5989 39.6523 45.3771 40.0144 46.1545 40.3782C46.1976 40.2743 46.1976 40.2743 46.2415 40.1683C46.4126 39.8693 46.5518 39.739 46.8506 39.5674C47.1496 39.5225 47.1496 39.5225 47.4846 39.5213C47.6061 39.5209 47.7276 39.5204 47.8528 39.5199C47.979 39.5213 48.1053 39.5226 48.2355 39.524C48.4242 39.522 48.4242 39.522 48.6168 39.5199C48.7385 39.5204 48.8601 39.5208 48.9855 39.5213C49.0961 39.5217 49.2068 39.5221 49.3208 39.5225C49.6915 39.5756 49.9112 39.6999 50.2149 39.9149C50.5159 40.3168 50.4974 40.7916 50.5194 41.2758C50.5239 41.3566 50.5284 41.4374 50.533 41.5206C50.5439 41.7189 50.5536 41.9172 50.563 42.1155C50.8273 42.2189 50.8273 42.2189 51.143 42.2314C51.4049 42.0191 51.4049 42.0191 51.6361 41.7246C52.0724 41.2586 52.3468 41.0702 52.9829 41.0279C53.6709 41.1532 54.126 41.7031 54.5944 42.1807C54.6969 42.2831 54.6969 42.2831 54.8015 42.3877C55.3045 42.8951 55.4956 43.1859 55.4921 43.9167C55.3861 44.4473 54.9939 44.757 54.6234 45.1269C54.4136 45.3522 54.4136 45.3522 54.2753 45.5902C54.3136 45.7049 54.3519 45.8195 54.3913 45.9377C54.5551 45.9442 54.5551 45.9442 54.7222 45.9508C54.8666 45.9584 55.0111 45.966 55.1599 45.9739C55.3026 45.9806 55.4453 45.9873 55.5923 45.9942C56.0386 46.0567 56.3295 46.1655 56.7116 46.401C57.0866 46.9626 56.9864 47.5795 56.9871 48.2396C56.99 48.3769 56.9928 48.5141 56.9957 48.6554C56.9962 48.7879 56.9966 48.9203 56.9971 49.0567C56.998 49.1777 56.999 49.2986 57 49.4231C56.9297 49.8429 56.7718 50.035 56.4796 50.3389C56.1097 50.5236 55.7105 50.4665 55.3049 50.462C55.2175 50.4615 55.13 50.4609 55.0398 50.4604C54.8237 50.459 54.6075 50.457 54.3913 50.4547C54.2933 50.7199 54.2933 50.7199 54.2753 51.0339C54.455 51.2931 54.455 51.2931 54.7176 51.5116C55.1665 51.9193 55.47 52.2113 55.5152 52.8363C55.5019 53.5359 55.1635 53.8776 54.6809 54.3533C54.5854 54.4428 54.4898 54.5322 54.3913 54.6243C54.3137 54.7078 54.2361 54.7913 54.1561 54.8773C53.7712 55.2679 53.4515 55.4952 52.8977 55.5582C52.3211 55.5245 52.0797 55.2592 51.6941 54.8488C51.6049 54.7399 51.5158 54.6311 51.424 54.5189C51.1564 54.2317 51.1564 54.2317 50.7605 54.2991C50.657 54.33 50.5536 54.3609 50.4469 54.3927C50.4523 54.5198 50.4577 54.6468 50.4633 54.7777C50.4676 54.9462 50.4718 55.1146 50.4759 55.2831C50.4818 55.4084 50.4818 55.4084 50.4877 55.5362C50.496 55.9887 50.4789 56.196 50.2276 56.5884C49.683 57.1149 48.9839 56.9757 48.2645 56.9842C48.1265 56.9886 47.9886 56.9929 47.8464 56.9974C46.8391 57.0075 46.8391 57.0075 46.3562 56.6992C46.1224 56.308 46.0651 56.003 46.0385 55.5509C45.9395 55.586 45.8405 55.6211 45.7385 55.6572C44.7314 55.9941 43.7244 56.2403 42.6814 56.4413C42.5615 56.4647 42.4416 56.4881 42.318 56.5122C40.3739 56.8746 38.4787 56.9881 36.5038 56.9842C36.3815 56.9842 36.2593 56.9841 36.1333 56.984C30.3623 56.9704 23.6938 55.6755 19.3725 51.5266C19.0419 51.0258 19.0639 50.711 19.1165 50.129C19.1236 50.0264 19.1307 49.9238 19.138 49.8181C19.2166 48.7997 19.3371 47.7844 19.4572 46.7701C19.4666 46.6909 19.476 46.6116 19.4856 46.53C19.551 45.984 19.6247 45.4395 19.7038 44.8953C19.7155 44.8112 19.7272 44.7272 19.7393 44.6406C19.7757 44.3867 19.8158 44.1336 19.8569 43.8805C19.8803 43.7308 19.9036 43.5811 19.9277 43.4268C20.1001 42.8923 20.3555 42.7261 20.8413 42.4672C21.09 42.3436 21.3414 42.2278 21.5944 42.1133C21.6888 42.0698 21.7832 42.0263 21.8805 41.9815C22.189 41.8396 22.498 41.6988 22.8071 41.5581C23.0217 41.4598 23.2363 41.3613 23.4508 41.2628C23.9933 41.014 24.5361 40.7663 25.0792 40.519C25.3706 40.3863 25.6619 40.2534 25.9532 40.1204C27.4589 39.4332 28.9663 38.7495 30.4784 38.0762C30.6015 38.0213 30.6015 38.0213 30.7271 37.9653C31.5845 37.5859 31.5845 37.5859 31.9285 37.6491ZM30.4879 39.7584C30.3793 39.8077 30.3793 39.8077 30.2685 39.8581C30.0265 39.9683 29.7848 40.0791 29.543 40.19C29.3732 40.2675 29.2034 40.345 29.0336 40.4225C28.5733 40.6327 28.1133 40.8436 27.6533 41.0547C27.3551 41.1914 27.0569 41.3281 26.7586 41.4647C26.2528 41.6963 25.7472 41.9284 25.2417 42.1607C25.0467 42.2503 24.8517 42.3398 24.6566 42.4293C24.2076 42.6354 23.7592 42.8428 23.3123 43.0537C23.0122 43.1947 22.7142 43.3228 22.4059 43.4468C21.7494 43.7092 21.7494 43.7092 21.2994 44.2231C21.211 44.5423 21.1733 44.8402 21.1467 45.1704C21.1325 45.2886 21.1183 45.4069 21.1036 45.5288C21.0735 45.7902 21.0465 46.0519 21.022 46.3138C20.9842 46.7045 20.9382 47.0927 20.8886 47.482C20.8462 47.8179 20.8072 48.1541 20.7691 48.4905C20.7502 48.6556 20.7305 48.8206 20.71 48.9855C20.6818 49.2184 20.6583 49.4518 20.635 49.6852C20.6204 49.8197 20.6057 49.9543 20.5906 50.0929C20.646 50.579 20.8432 50.7265 21.2119 51.0339C21.3055 51.1143 21.3992 51.1948 21.4956 51.2777C26.5728 55.2161 34.0166 56.0698 40.2026 55.3078C40.9514 55.2097 41.6978 55.0998 42.4421 54.9718C42.2745 54.5749 42.0627 54.3614 41.7388 54.0814C41.3119 53.666 41.1505 53.3708 41.1392 52.7744C41.2041 52.2044 41.55 51.9264 41.9491 51.5551C42.164 51.357 42.164 51.357 42.3261 51.1497C42.3261 50.8336 42.3197 50.68 42.0941 50.4547C41.7319 50.4273 41.3705 50.4089 41.0076 50.3948C40.2248 50.3543 40.2248 50.3543 39.8899 50.1073C39.5358 49.5394 39.6105 48.9092 39.6071 48.2614C39.6033 48.1357 39.5994 48.0101 39.5955 47.8806C39.5893 46.9576 39.5893 46.9576 39.9293 46.4946C40.4211 46.1608 40.8361 46.1416 41.4198 46.1042C41.5674 46.0945 41.715 46.0848 41.867 46.0748C41.9802 46.0677 42.0935 46.0607 42.2101 46.0535C42.3022 45.7846 42.3022 45.7846 42.3261 45.4744C42.1766 45.2497 42.1766 45.2497 41.9491 45.069C41.4813 44.6365 41.1983 44.3381 41.1152 43.6864C41.2333 42.7268 42.0812 42.0196 42.7901 41.4206C43.1057 41.2509 43.3691 41.1635 43.7182 41.0731C43.1559 40.6234 42.5118 40.3542 41.8621 40.0525C41.7352 39.9913 41.6084 39.9302 41.4778 39.8672C41.2947 39.7822 41.2947 39.7822 41.108 39.6955C40.9967 39.6431 40.8855 39.5907 40.7708 39.5368C40.4807 39.4293 40.4807 39.4293 40.2247 39.5041C39.907 39.7642 39.7549 40.0907 39.5781 40.4524C39.5387 40.5301 39.4993 40.6078 39.4587 40.6878C39.3744 40.8546 39.2906 41.0217 39.2074 41.189C38.99 41.6261 38.7682 42.0608 38.5471 42.496C38.5033 42.5826 38.4595 42.6692 38.4144 42.7584C38.0365 43.5042 37.6451 44.2416 37.2433 44.9749C37.1885 45.0756 37.1337 45.1764 37.0772 45.2802C36.9347 45.5396 36.7893 45.797 36.6415 46.0535C36.601 46.1258 36.5604 46.1981 36.5187 46.2726C36.2437 46.7303 36.2437 46.7303 35.9291 46.8163C35.808 46.8042 35.808 46.8042 35.6844 46.7919C35.5409 46.7775 35.3973 46.7632 35.2494 46.7484C35.2179 46.6663 35.1864 46.5842 35.1539 46.4996C35.0144 46.1621 34.8565 45.8425 34.6883 45.5183C34.6229 45.392 34.5575 45.2658 34.4901 45.1357C34.42 45.0014 34.3499 44.8671 34.2778 44.7288C34.2419 44.6599 34.2061 44.5911 34.1692 44.5202C33.2815 42.8151 32.3571 41.1306 31.421 39.4516C31.0675 39.4516 30.8085 39.612 30.4879 39.7584ZM47.5466 41.0731C47.5361 41.2532 47.5361 41.2532 47.5253 41.4369C47.5155 41.5955 47.5057 41.7542 47.4959 41.9129C47.4913 41.9918 47.4868 42.0708 47.4821 42.1522C47.4307 42.965 47.4307 42.965 47.3146 43.2738C47.0753 43.3968 47.0753 43.3968 46.7346 43.5054C46.6276 43.5504 46.6276 43.5504 46.5184 43.5963C45.9961 43.814 45.5655 43.9547 44.9944 43.8529C44.736 43.6707 44.5128 43.4733 44.2861 43.2534C44.0373 43.0056 44.0373 43.0056 43.6022 42.6947C43.296 43.0004 42.9897 43.3062 42.6741 43.6212C42.7794 43.7431 42.8847 43.8649 42.9932 43.9904C43.0563 44.0649 43.1194 44.1394 43.1844 44.2162C43.3332 44.389 43.4885 44.5563 43.6457 44.7215C43.9093 45.1263 43.8971 45.3435 43.8343 45.8219C43.6997 46.2175 43.5371 46.5972 43.3702 46.9801C43.3319 47.0947 43.2936 47.2094 43.2542 47.3275C42.8308 47.5023 42.3443 47.4824 41.8911 47.5085C41.8102 47.5135 41.7292 47.5185 41.6459 47.5237C41.4473 47.5359 41.2486 47.5476 41.05 47.5592C41.05 48.0178 41.05 48.4765 41.05 48.9491C41.1605 48.9534 41.271 48.9577 41.3849 48.9622C41.5304 48.9698 41.6759 48.9774 41.8258 48.9853C41.9698 48.992 42.1138 48.9987 42.2622 49.0056C42.6947 49.0678 42.9157 49.1404 43.2542 49.4123C43.6585 50.0382 43.9667 50.7477 43.8343 51.4971C43.5609 52.0025 43.2068 52.3783 42.7901 52.7712C42.9738 53.2662 43.3129 53.4969 43.7182 53.8136C43.7758 53.7494 43.8334 53.6852 43.8927 53.619C44.7387 52.7184 44.7387 52.7184 45.4584 52.6554C46.1816 52.8048 47.014 53.0738 47.4306 53.6978C47.4655 54.0168 47.4897 54.3263 47.5031 54.6461C47.5099 54.7763 47.5099 54.7763 47.5167 54.9092C47.5276 55.123 47.5373 55.337 47.5466 55.5509C48.006 55.5509 48.4655 55.5509 48.9388 55.5509C48.9473 55.3709 48.9473 55.3709 48.956 55.1872C48.9647 55.0285 48.9735 54.8699 48.9823 54.7112C48.9859 54.6322 48.9895 54.5533 48.9932 54.4719C49.0399 53.6713 49.0399 53.6713 49.2868 53.3503C49.5682 53.1825 49.5682 53.1825 49.9031 53.039C50.0127 52.9908 50.1224 52.9426 50.2353 52.8929C50.6701 52.7314 51.0082 52.6344 51.4693 52.706C52.0066 52.969 52.3663 53.3768 52.7672 53.8136C53.2039 53.6142 53.4807 53.3512 53.8113 53.0028C53.6102 52.5409 53.3218 52.2851 52.948 51.9577C52.701 51.645 52.6692 51.4306 52.6512 51.0339C52.7545 50.6488 52.7545 50.6488 52.9122 50.2593C52.9885 50.0651 52.9885 50.0651 53.0663 49.867C53.2144 49.5628 53.3143 49.3845 53.5793 49.1807C53.9815 49.0468 54.3382 49.0268 54.7611 48.9997C54.9087 48.99 55.0563 48.9803 55.2084 48.9703C55.3216 48.9633 55.4348 48.9563 55.5515 48.9491C55.5515 48.4904 55.5515 48.0317 55.5515 47.5592C55.4242 47.5575 55.2969 47.5559 55.1658 47.5542C54.9971 47.5488 54.8284 47.5432 54.6596 47.5375C54.576 47.5368 54.4923 47.5361 54.4061 47.5354C53.9411 47.5164 53.7419 47.4794 53.3626 47.1864C52.945 46.6426 52.6674 46.0281 52.6416 45.3341C52.7615 44.622 53.2881 44.1938 53.8113 43.7371C53.7067 43.6006 53.5999 43.4658 53.4923 43.3317C53.433 43.2564 53.3738 43.1812 53.3128 43.1036C53.102 42.8747 53.102 42.8747 52.6512 42.9263C52.4026 43.0977 52.4026 43.0977 52.1726 43.3244C51.7668 43.7029 51.522 43.9074 50.9432 43.9013C50.3257 43.7881 49.5188 43.4659 49.1341 42.9553C49.0225 42.5887 49.0035 42.237 48.9823 41.8549C48.9693 41.6355 48.9693 41.6355 48.956 41.4116C48.9503 41.2999 48.9446 41.1882 48.9388 41.0731C48.4794 41.0731 48.02 41.0731 47.5466 41.0731ZM44.5303 41.4206C44.6353 41.5544 44.742 41.6869 44.8494 41.8187C44.9086 41.8926 44.9678 41.9666 45.0288 42.0427C45.254 42.2577 45.3829 42.3139 45.6904 42.3472C45.8053 42.309 45.9202 42.2707 46.0385 42.2314C46.0385 42.1549 46.0385 42.0785 46.0385 41.9997C45.8309 41.9027 45.623 41.8063 45.4149 41.7102C45.2992 41.6564 45.1834 41.6027 45.0642 41.5473C44.7813 41.4056 44.7813 41.4056 44.5303 41.4206Z" fill="#703391" stroke="#703391" stroke-width="0.6"/>
<path d="M50.0992 44.7795C51.0493 45.3639 51.7054 46.1558 52.0714 47.2118C52.2743 48.2613 52.2173 49.3059 51.6934 50.2562C51.0028 51.2339 50.1722 51.9015 48.9939 52.1342C47.8405 52.2928 46.7535 52.0492 45.8108 51.3574C44.9798 50.6265 44.4906 49.8102 44.3783 48.7093C44.3359 47.5883 44.5419 46.6402 45.2774 45.7712C45.4129 45.6314 45.5504 45.4936 45.6907 45.3586C45.8199 45.2296 45.8199 45.2296 45.9517 45.098C47.1796 44.3179 48.7746 44.0952 50.0992 44.7795ZM46.4208 46.7494C45.9857 47.4279 45.8303 48.031 45.9227 48.8333C46.158 49.5863 46.5988 50.0764 47.2972 50.4552C47.8965 50.7205 48.4242 50.7479 49.0551 50.5706C49.7863 50.2647 50.255 49.7935 50.5632 49.0649C50.7794 48.3615 50.6731 47.7947 50.3742 47.1308C50.0643 46.6115 49.6437 46.3085 49.1276 46.0101C48.1337 45.7739 47.1131 45.9364 46.4208 46.7494Z" fill="#703391" stroke="#703391" stroke-width="0.6"/>
</svg>
