<svg width="86" height="86" viewBox="0 0 86 86" fill="none" xmlns="http://www.w3.org/2000/svg">
<circle cx="43" cy="43" r="43" fill="#703391" fill-opacity="0.1"/>
<path d="M47.5841 65.7881L50.754 63.7211C60.2996 57.4977 66 46.9991 66 35.6352V25.2267C66 24.4198 65.4383 23.7223 64.6442 23.5519L43.868 19.0386C43.6259 18.9871 43.3774 18.9871 43.1353 19.0386L22.3558 23.5519C21.5649 23.7222 21 24.4198 21 25.2267V35.6352C21 46.9991 26.7007 57.4972 36.246 63.7211L39.4159 65.7881C40.6588 66.5949 42.0791 67 43.4995 67C44.9198 67 46.3434 66.595 47.583 65.7881H47.5841ZM38.1318 60.8505C29.5614 55.2635 24.4419 45.8385 24.4419 35.6349V26.6049L43.5 22.4645L62.5557 26.6049V35.6349C62.5557 45.8377 57.436 55.266 48.8658 60.8505L45.6958 62.9174C44.3626 63.7886 42.6356 63.7886 41.2992 62.9174L38.1293 60.8505H38.1318Z" fill="#703391"/>
<path d="M50.2955 35.4805C49.6208 34.8086 48.533 34.8086 47.8616 35.4805L41.9639 41.3535L39.6236 39.0229C38.9489 38.3511 37.861 38.3511 37.1896 39.0229C36.5149 39.6948 36.5149 40.7781 37.1896 41.4467L40.7469 44.9892C41.0827 45.3235 41.5249 45.4907 41.964 45.4907C42.4062 45.4907 42.8452 45.3235 43.181 44.9892L50.2957 37.9042C50.9703 37.2324 50.9702 36.1491 50.2955 35.4805Z" fill="#703391"/>
<path d="M57.274 40.4256C57.274 32.8617 51.0955 26.709 43.4998 26.709C35.9041 26.709 29.7256 32.8617 29.7256 40.4256C29.7256 47.9896 35.9041 54.1423 43.4998 54.1423C51.0955 54.1423 57.274 47.9896 57.274 40.4256ZM33.17 40.4256C33.17 34.7519 37.8023 30.139 43.4998 30.139C49.1973 30.139 53.8296 34.7519 53.8296 40.4256C53.8296 46.0994 49.1973 50.7123 43.4998 50.7123C37.8023 50.7123 33.17 46.0994 33.17 40.4256Z" fill="#703391"/>
</svg>
