<svg width="40" height="40" viewBox="0 0 40 40" fill="none" xmlns="http://www.w3.org/2000/svg">
<path d="M1.29449 0.00917359C1.34855 0.0086385 1.4026 0.00810341 1.4583 0.0075521C1.63619 0.00613049 1.81403 0.00642663 1.99193 0.00687043C2.11611 0.00651463 2.24028 0.00610095 2.36446 0.00563201C2.62445 0.00493621 2.88442 0.00512401 3.1444 0.00589968C3.47692 0.00679527 3.80938 0.00521978 4.14189 0.00294348C4.39826 0.00151035 4.65463 0.00153499 4.91101 0.00197964C5.03357 0.00199157 5.15613 0.0015218 5.27869 0.000553547C5.45037 -0.000611718 5.62193 0.000225413 5.79361 0.00155984C5.93987 0.00157927 5.93987 0.00157927 6.08909 0.0015991C6.41165 0.0488539 6.57421 0.144653 6.82361 0.352535C7.05751 0.742359 7.05751 0.742359 7.05751 2.37962C11.8044 2.34103 11.8044 2.34103 16.6472 2.30165C16.8401 1.91573 16.8401 1.91573 17.037 1.52201C17.5114 0.830374 18.247 0.283514 19.065 0.0747851C20.1656 -0.0863552 21.162 0.00485354 22.095 0.649776C22.7236 1.14022 22.9806 1.55847 23.3522 2.30165C26.5167 2.32738 29.6813 2.35311 32.9418 2.37962C32.9418 1.83932 32.9418 1.29903 32.9418 0.742359C33.3165 0.180379 33.3165 0.180379 33.6435 0.0406755C33.9003 0.0104501 33.9003 0.0104501 34.1956 0.00917359C34.2497 0.0086385 34.3038 0.00810341 34.3594 0.0075521C34.5373 0.00613049 34.7152 0.00642663 34.8931 0.00687043C35.0173 0.00651463 35.1414 0.00610095 35.2656 0.00563201C35.5256 0.00493621 35.7856 0.00512401 36.0456 0.00589968C36.3781 0.00679527 36.7105 0.00521978 37.043 0.00294348C37.2994 0.00151035 37.5558 0.00153499 37.8122 0.00197964C37.9347 0.00199157 38.0573 0.0015218 38.1798 0.000553547C38.3515 -0.000611718 38.5231 0.000225413 38.6948 0.00155984C38.841 0.00157927 38.841 0.00157927 38.9902 0.0015991C39.3865 0.0596534 39.6203 0.222214 39.869 0.53243C39.9825 0.798072 39.9889 1.00565 39.9902 1.29449C39.991 1.37557 39.991 1.37557 39.9918 1.4583C39.9932 1.63619 39.9929 1.81403 39.9925 1.99193C39.9928 2.11611 39.9932 2.24028 39.9937 2.36446C39.9944 2.62445 39.9942 2.88442 39.9934 3.1444C39.9925 3.47692 39.9941 3.80938 39.9964 4.14189C39.9978 4.39826 39.9978 4.65463 39.9974 4.91101C39.9973 5.03357 39.9978 5.15613 39.9988 5.27869C39.9999 5.45037 39.9991 5.62193 39.9978 5.79361C39.9978 5.93987 39.9977 5.93987 39.9977 6.08909C39.9397 6.48537 39.7771 6.71914 39.4669 6.96783C39.2013 7.08131 38.9937 7.08776 38.7048 7.08901C38.6508 7.08954 38.5967 7.09008 38.541 7.09063C38.3631 7.09205 38.1853 7.09176 38.0074 7.09131C37.8832 7.09167 37.7591 7.09208 37.6349 7.09255C37.3749 7.09325 37.1149 7.09306 36.8549 7.09228C36.5224 7.09139 36.19 7.09296 35.8574 7.09524C35.6011 7.09667 35.3447 7.09665 35.0883 7.0962C34.9658 7.09619 34.8432 7.09666 34.7206 7.09763C34.549 7.09879 34.3774 7.09796 34.2057 7.09662C34.1082 7.09661 34.0107 7.0966 33.9102 7.09658C33.5877 7.04933 33.4251 6.95353 33.1757 6.74565C32.9418 6.35582 32.9418 6.35582 32.9418 4.71856C31.4238 4.74429 29.9059 4.77002 28.3419 4.79653C28.7021 5.05381 29.0623 5.3111 29.4334 5.57618C29.8525 5.94164 29.8525 5.94164 30.0398 6.11645C30.196 6.26198 30.3563 6.39919 30.52 6.53612C31.6737 7.54876 32.5952 8.83677 33.3316 10.1761C33.3714 10.2483 33.3714 10.2483 33.4119 10.3221C34.3139 11.988 34.9367 13.8202 35.1223 15.7094C35.1564 16.3129 35.1564 16.3129 35.4434 16.8132C35.6396 16.9102 35.6396 16.9102 35.8506 16.9697C36.5398 17.1908 36.9893 17.9089 37.3079 18.5183C37.6846 19.2933 37.6881 20.4337 37.4248 21.2471C36.9941 22.2203 36.2654 22.9503 35.2808 23.3522C35.213 23.38 35.1453 23.4078 35.0755 23.4365C34.2429 23.6635 33.1513 23.6238 32.3961 23.1962C31.4581 22.6278 30.8175 21.8412 30.5249 20.7793C30.3991 19.6118 30.5671 18.634 31.2985 17.6927C31.6607 17.2725 32.0564 16.9729 32.552 16.7251C32.6292 16.7251 32.7064 16.7251 32.7859 16.7251C32.1901 12.8939 30.621 9.59722 27.4529 7.23536C26.1363 6.28047 24.6783 5.62843 23.1183 5.18635C23.0893 5.27092 23.0893 5.27092 23.0598 5.3572C22.7251 6.10913 22.0287 6.57046 21.3077 6.90371C20.5449 7.18765 19.4612 7.19196 18.6971 6.90919C17.9195 6.53693 17.1782 6.02882 16.8811 5.18635C15.001 5.77105 13.3042 6.524 11.8134 7.83716C11.7452 7.89675 11.6771 7.95635 11.6069 8.01775C11.0149 8.54306 10.4696 9.07684 9.99093 9.70831C9.92525 9.79492 9.92525 9.79492 9.85824 9.88328C8.32035 11.9423 7.60533 14.2052 7.21344 16.7251C7.27385 16.7358 7.33427 16.7465 7.39651 16.7576C8.02043 16.895 8.57082 17.465 8.92866 17.9726C9.49245 18.9262 9.62957 19.9505 9.4263 21.0364C9.10912 22.0075 8.40514 22.7538 7.51068 23.2206C7.41305 23.2676 7.31376 23.3112 7.21344 23.3522C7.1457 23.38 7.07796 23.4078 7.00817 23.4365C6.17557 23.6635 5.08398 23.6238 4.32874 23.1962C3.3908 22.6278 2.75014 21.8412 2.45758 20.7793C2.33181 19.6123 2.49883 18.6322 3.23206 17.6924C3.56783 17.3014 3.85156 17.0696 4.33514 16.8881C4.58106 16.7664 4.69333 16.7046 4.80475 16.4509C4.85273 16.2023 4.87904 15.9592 4.89886 15.7067C4.92034 15.5227 4.94237 15.3388 4.96494 15.1549C4.97541 15.064 4.98587 14.9731 4.99666 14.8794C5.46445 11.2868 7.75669 7.73741 10.5903 5.55577C10.9408 5.2955 11.2998 5.04688 11.6574 4.79653C9.38047 4.75794 9.38047 4.75794 7.05751 4.71856C7.05751 5.25886 7.05751 5.79916 7.05751 6.35582C6.68285 6.9178 6.68285 6.9178 6.35582 7.05751C6.09899 7.08773 6.09899 7.08773 5.80369 7.08901C5.74964 7.08954 5.69558 7.09008 5.63989 7.09063C5.46199 7.09205 5.28415 7.09176 5.10626 7.09131C4.98208 7.09167 4.8579 7.09208 4.73372 7.09255C4.47374 7.09325 4.21377 7.09306 3.95378 7.09228C3.62126 7.09139 3.28881 7.09296 2.9563 7.09524C2.69992 7.09667 2.44356 7.09665 2.18718 7.0962C2.06462 7.09619 1.94205 7.09666 1.81949 7.09763C1.64781 7.09879 1.47625 7.09796 1.30458 7.09662C1.20707 7.09661 1.10956 7.0966 1.0091 7.09658C0.612814 7.03853 0.379043 6.87597 0.130355 6.56575C0.0168756 6.30011 0.0104222 6.09253 0.00917359 5.80369C0.0086385 5.74964 0.00810341 5.69558 0.0075521 5.63989C0.00613049 5.46199 0.00642663 5.28415 0.00687043 5.10626C0.00651463 4.98208 0.00610095 4.8579 0.00563201 4.73372C0.00493621 4.47374 0.00512401 4.21377 0.00589968 3.95378C0.00679527 3.62126 0.0052197 3.28881 0.0029434 2.9563C0.00151027 2.69992 0.00153499 2.44356 0.00197964 2.18718C0.00199157 2.06462 0.0015218 1.94205 0.000553547 1.81949C-0.000611718 1.64781 0.000225413 1.47625 0.00155984 1.30458C0.0015728 1.20707 0.00158575 1.10956 0.0015991 1.0091C0.0596534 0.612814 0.222214 0.379043 0.53243 0.130355C0.798072 0.0168756 1.00565 0.0104222 1.29449 0.00917359ZM2.37962 2.37962C2.37962 3.15147 2.37962 3.92332 2.37962 4.71856C3.15147 4.71856 3.92332 4.71856 4.71856 4.71856C4.71856 3.94671 4.71856 3.17486 4.71856 2.37962C3.94671 2.37962 3.17486 2.37962 2.37962 2.37962ZM35.2808 2.37962C35.2808 3.15147 35.2808 3.92332 35.2808 4.71856C36.0526 4.71856 36.8245 4.71856 37.6197 4.71856C37.6197 3.94671 37.6197 3.17486 37.6197 2.37962C36.8479 2.37962 36.076 2.37962 35.2808 2.37962ZM18.9959 2.93512C18.8641 3.27181 18.8567 3.58236 18.9082 3.93892C19.0768 4.28244 19.251 4.50016 19.6098 4.6406C20.003 4.69395 20.2983 4.68535 20.6575 4.50903C20.9194 4.2727 21.0673 4.11501 21.1158 3.7571C21.1366 3.31134 21.0887 3.03433 20.7793 2.69148C20.4802 2.42751 20.1841 2.4176 19.7999 2.43017C19.4363 2.48261 19.2316 2.668 18.9959 2.93512ZM4.9622 19.3857C4.83046 19.7224 4.82307 20.0329 4.87449 20.3895C5.04313 20.733 5.21729 20.9507 5.57618 21.0912C5.96937 21.1445 6.26467 21.1359 6.62383 20.9596C6.88572 20.7233 7.03362 20.5656 7.08218 20.2077C7.10289 19.7619 7.05505 19.4849 6.74565 19.1421C6.44649 18.8781 6.15046 18.8682 5.76622 18.8807C5.40268 18.9332 5.1979 19.1186 4.9622 19.3857ZM33.0295 19.3857C32.8978 19.7224 32.8904 20.0329 32.9418 20.3895C33.1105 20.733 33.2846 20.9507 33.6435 21.0912C34.0367 21.1445 34.332 21.1359 34.6912 20.9596C34.953 20.7233 35.1009 20.5656 35.1495 20.2077C35.1702 19.7619 35.1224 19.4849 34.813 19.1421C34.5138 18.8781 34.2178 18.8682 33.8335 18.8807C33.47 18.9332 33.2652 19.1186 33.0295 19.3857Z" fill="#703391"/>
<path d="M20.6039 9.55734C21.0578 9.94824 21.3846 10.4406 21.7079 10.94C21.7512 11.0062 21.7946 11.0724 21.8392 11.1406C21.9327 11.2835 22.026 11.4264 22.1192 11.5694C22.3719 11.9571 22.6258 12.3439 22.8798 12.7307C22.9321 12.8104 22.9843 12.89 23.0382 12.9721C23.5647 13.773 24.1009 14.5673 24.6386 15.3608C25.4479 16.5561 26.2468 17.7577 27.0388 18.9645C27.5766 19.7837 28.1177 20.6004 28.6666 21.4122C28.7188 21.4895 28.7711 21.5668 28.8249 21.6464C29.0766 22.0184 29.3288 22.3901 29.5816 22.7614C29.6721 22.8948 29.7626 23.0282 29.8531 23.1616C29.9147 23.2516 29.9147 23.2516 29.9775 23.3435C30.3659 23.9167 30.6221 24.3597 30.5249 25.0675C30.344 25.5158 30.0484 25.7825 29.7051 26.1157C29.3415 26.4896 29.0342 26.905 28.7317 27.3284C28.6808 27.3995 28.6808 27.3995 28.6288 27.472C27.318 29.329 26.0809 31.8658 26.0809 34.1893C26.1936 34.3136 26.1936 34.3136 26.3489 34.4232C27.3478 35.2563 28.0269 36.5668 28.186 37.8537C28.2054 38.099 28.2153 38.3434 28.2201 38.5895C28.2218 38.6486 28.2236 38.7076 28.2254 38.7685C28.2236 39.1729 28.1465 39.4087 27.8741 39.7248C27.5505 39.9717 27.2661 39.9922 26.8723 39.989C26.8111 39.9894 26.75 39.9898 26.687 39.9902C26.4824 39.9913 26.2779 39.9908 26.0733 39.9902C25.9265 39.9907 25.7798 39.9912 25.633 39.9919C25.2345 39.9933 24.836 39.9932 24.4374 39.9927C24.1048 39.9925 23.7721 39.993 23.4394 39.9934C22.6546 39.9945 21.8698 39.9944 21.085 39.9935C20.2753 39.9926 19.4656 39.9937 18.6559 39.9958C17.9608 39.9975 17.2656 39.998 16.5704 39.9976C16.1552 39.9973 15.74 39.9975 15.3248 39.9989C14.9344 40.0001 14.544 39.9998 14.1536 39.9983C14.0103 39.998 13.8671 39.9982 13.7238 39.9991C13.5282 40.0001 13.3326 39.9992 13.137 39.9978C13.0804 39.9986 13.0237 39.9993 12.9654 40.0001C12.5723 39.9944 12.3512 39.8917 12.0473 39.6469C11.7809 39.326 11.7738 39.006 11.7793 38.6041C11.78 38.542 11.7807 38.48 11.7814 38.4161C11.8224 36.9894 12.457 35.5984 13.4506 34.5792C13.536 34.5174 13.6213 34.4557 13.7068 34.394C13.9419 34.2094 13.9419 34.2094 13.9492 33.9442C13.4329 30.6906 11.9273 27.8358 9.67786 25.4509C9.44501 25.1734 9.43148 24.8673 9.44096 24.5181C9.56508 23.664 10.4203 22.7468 10.8982 22.0453C11.1514 21.6734 11.4036 21.3007 11.6556 20.928C11.7076 20.8511 11.7597 20.7742 11.8133 20.6949C12.3528 19.8958 12.8826 19.0906 13.4116 18.2845C14.2506 17.0069 15.0997 15.7366 15.9566 14.4711C16.4467 13.747 16.9341 13.0212 17.4168 12.2922C17.492 12.1787 17.492 12.1787 17.5688 12.0629C17.81 11.699 18.0507 11.3349 18.2907 10.9703C18.3771 10.8398 18.4636 10.7093 18.55 10.5788C18.5886 10.5198 18.6271 10.4609 18.6668 10.4001C19.1489 9.67523 19.7006 9.20834 20.6039 9.55734ZM18.7522 14.6202C18.689 14.7052 18.6296 14.7931 18.5717 14.8819C18.5337 14.9399 18.4956 14.9979 18.4564 15.0576C18.4145 15.122 18.3727 15.1864 18.3295 15.2527C18.2856 15.3197 18.2417 15.3867 18.1965 15.4557C18.1007 15.6019 18.005 15.7481 17.9095 15.8944C17.6517 16.2888 17.393 16.6825 17.1342 17.0761C17.0807 17.1573 17.0273 17.2385 16.9723 17.3223C16.4363 18.136 15.8922 18.9442 15.3461 19.7512C15.1603 20.0259 14.9746 20.3006 14.7888 20.5753C14.7432 20.6429 14.6975 20.7104 14.6505 20.78C14.1222 21.5621 13.5986 22.3474 13.0754 23.133C13.0307 23.2001 12.9861 23.2671 12.94 23.3363C12.6943 23.7053 12.4487 24.0745 12.2032 24.4437C12.3039 24.6586 12.4148 24.839 12.5632 25.0239C14.4574 27.4196 15.6119 30.0406 16.2574 33.0199C16.3212 33.0072 16.385 32.9946 16.4508 32.9815C16.7595 32.9369 17.061 32.931 17.372 32.9318C17.4668 32.9316 17.4668 32.9316 17.5635 32.9314C17.7713 32.9311 17.9792 32.9313 18.187 32.9315C18.332 32.9315 18.4771 32.9314 18.6221 32.9313C18.9257 32.9312 19.2292 32.9314 19.5328 32.9317C19.9213 32.9322 20.3098 32.9319 20.6983 32.9315C20.9977 32.9312 21.2971 32.9313 21.5965 32.9315C21.7397 32.9315 21.8829 32.9315 22.0262 32.9313C22.2266 32.9311 22.4269 32.9314 22.6273 32.9318C22.6861 32.9317 22.745 32.9315 22.8056 32.9313C23.1259 32.9326 23.4277 32.9576 23.742 33.0199C23.7557 32.9615 23.7693 32.9031 23.7834 32.843C24.3285 30.537 25.0612 28.2561 26.4707 26.3149C26.5086 26.2627 26.5464 26.2106 26.5854 26.1569C26.9741 25.6251 27.3708 25.1027 27.7961 24.5997C27.6667 24.2088 27.4407 23.8953 27.2099 23.559C27.1661 23.4945 27.1223 23.43 27.0772 23.3636C26.9821 23.2236 26.8869 23.0837 26.7915 22.9439C26.5335 22.5655 26.2767 22.1862 26.02 21.8069C25.9669 21.7284 25.9137 21.6499 25.8589 21.5691C25.3073 20.7532 24.7652 19.9311 24.2244 19.108C24.0383 18.8251 23.8522 18.5422 23.6661 18.2592C23.6208 18.1903 23.5755 18.1214 23.5288 18.0504C23.0778 17.365 22.6254 16.6805 22.1711 15.9971C22.0884 15.8726 22.0057 15.7479 21.9232 15.6232C21.8105 15.4532 21.6976 15.2833 21.5845 15.1135C21.5512 15.0631 21.5179 15.0126 21.4835 14.9605C21.4068 14.8457 21.3272 14.7327 21.2471 14.6202C21.2214 14.6202 21.1956 14.6202 21.1691 14.6202C21.1691 16.8328 21.1691 19.0455 21.1691 21.3251C21.4522 21.4795 21.7352 21.6339 22.0268 21.7929C22.74 22.3278 23.3013 23.075 23.4301 23.976C23.5278 25.1497 23.3953 26.0278 22.6614 26.9819C22.165 27.549 21.3729 28.0474 20.6095 28.1254C19.3639 28.1843 18.4693 28.0169 17.5048 27.1725C16.7413 26.3552 16.5213 25.4351 16.5455 24.3481C16.5897 23.4182 17.0034 22.6535 17.6793 22.0189C18.0501 21.7179 18.3893 21.5456 18.8302 21.3251C18.8302 19.1125 18.8302 16.8999 18.8302 14.6202C18.8045 14.6202 18.7787 14.6202 18.7522 14.6202ZM18.9959 24.0637C18.8641 24.4004 18.8567 24.7109 18.9082 25.0675C19.0768 25.411 19.251 25.6287 19.6098 25.7691C20.003 25.8225 20.2983 25.8139 20.6575 25.6376C20.9194 25.4012 21.0673 25.2435 21.1158 24.8856C21.1366 24.4399 21.0887 24.1629 20.7793 23.82C20.4802 23.5561 20.1841 23.5461 19.7999 23.5587C19.4364 23.6111 19.2316 23.7965 18.9959 24.0637ZM15.2438 36.2164C14.8589 36.6595 14.6187 37.0772 14.3862 37.6198C18.0911 37.6198 21.796 37.6198 25.6131 37.6198C25.0776 36.5487 24.5733 35.8057 23.4155 35.4027C22.7157 35.1844 22.0134 35.1904 21.2873 35.1898C21.1866 35.1895 21.0858 35.1893 20.9821 35.189C20.7695 35.1885 20.5569 35.1884 20.3443 35.1884C20.0746 35.1884 19.8048 35.1874 19.535 35.186C19.2745 35.185 19.014 35.185 18.7534 35.1849C18.6579 35.1844 18.5624 35.1838 18.4639 35.1832C17.2372 35.1864 16.1889 35.3914 15.2438 36.2164Z" fill="#703391"/>
</svg>
