<svg width="86" height="86" viewBox="0 0 86 86" fill="none" xmlns="http://www.w3.org/2000/svg">
<circle cx="43" cy="43" r="43" fill="#703391" fill-opacity="0.1"/>
<path d="M43.0011 58.3784C34.5138 58.3784 27.625 51.4978 27.625 43.0037C27.625 34.5286 34.492 27.6289 42.9998 27.6289C51.4885 27.6289 58.3759 34.5095 58.3759 43.0037C58.3759 51.4488 51.5362 58.3784 43.0011 58.3784ZM43.0011 29.2765C35.4315 29.2765 29.274 35.4341 29.274 43.0037C29.274 50.5733 35.4315 56.7308 43.0011 56.7308C50.5707 56.7308 56.7283 50.5733 56.7283 43.0037C56.7283 35.4341 50.5694 29.2765 43.0011 29.2765Z" fill="#703391"/>
<path d="M43.001 54.684C36.5425 54.684 31.3164 49.4442 31.3164 42.9994C31.3164 38.1981 34.2209 34.0272 38.453 32.2339C44.3191 29.7502 51.2201 32.4422 53.7665 38.4513C57.0263 46.1503 51.3345 54.684 43.001 54.684ZM43.001 32.9651C37.4671 32.9651 32.9654 37.4668 32.9654 43.0007C32.9654 48.5346 37.4671 53.0363 43.001 53.0363C48.5349 53.0363 53.0366 48.5346 53.0366 43.0007C53.0366 37.4668 48.5349 32.9651 43.001 32.9651Z" fill="#703391"/>
<path d="M44.7782 29.3815C44.3234 29.3815 43.9544 29.0125 43.9544 28.5577V24.9206C43.9544 24.4658 44.3234 24.0968 44.7782 24.0968H44.9007L42.9998 21.2931L41.0989 24.0968H41.2215C41.6763 24.0968 42.0453 24.4658 42.0453 24.9206V28.5577C42.0453 29.0125 41.6763 29.3815 41.2215 29.3815C40.7667 29.3815 40.3976 29.0125 40.3976 28.5577V25.7444H39.5452C39.2402 25.7444 38.9597 25.5756 38.8167 25.306C38.6738 25.0363 38.6915 24.7095 38.863 24.4576L42.3176 19.3622C42.4715 19.1362 42.7261 19 42.9998 19C43.2735 19 43.5282 19.1348 43.682 19.3622L47.1366 24.4576C47.507 25.0023 47.1162 25.7444 46.4544 25.7444H45.602V28.5577C45.602 29.0125 45.233 29.3815 44.7782 29.3815Z" fill="#703391"/>
<path d="M53.8875 34.6256C53.5661 34.3042 53.5661 33.7827 53.8875 33.46L56.4597 30.8878C56.7838 30.5664 57.3012 30.5664 57.6253 30.8878L57.7125 30.9749L58.3511 27.6483L55.0245 28.287C55.0572 28.3333 55.3527 28.5348 55.3527 28.9569C55.3527 29.1761 55.2655 29.3845 55.1116 29.5397L52.5394 32.1119C52.2181 32.4333 51.6965 32.4333 51.3738 32.1119C51.0525 31.7906 51.0525 31.2691 51.3738 30.9463L53.3633 28.9569L52.76 28.3537C52.2943 27.888 52.5367 27.0873 53.1862 26.9607L59.2321 25.8005C59.7999 25.6902 60.3065 26.19 60.1962 26.7646L59.036 32.8105C58.9121 33.4559 58.1128 33.7065 57.643 33.2367L57.0398 32.6335L55.0504 34.6229C54.7331 34.9483 54.2089 34.947 53.8875 34.6256Z" fill="#703391"/>
<path d="M60.2562 46.457V45.6046H57.443C56.9882 45.6046 56.6191 45.2356 56.6191 44.7808C56.6191 44.326 56.9882 43.957 57.443 43.957H61.08C61.5348 43.957 61.9038 44.326 61.9038 44.7808V44.9034L64.7075 43.0025L61.9038 41.1015V41.2241C61.9038 41.6789 61.5348 42.0479 61.08 42.0479H57.443C56.9882 42.0479 56.6191 41.6789 56.6191 41.2241C56.6191 40.7693 56.9882 40.4003 57.443 40.4003H60.2562V39.5479C60.2562 38.8874 60.9983 38.4953 61.543 38.8657L66.6384 42.3202C67.1232 42.6498 67.1191 43.3592 66.6384 43.6847L61.543 47.1392C60.9888 47.5151 60.2562 47.1093 60.2562 46.457Z" fill="#703391"/>
<path d="M59.2321 60.195L53.1862 59.0348C52.5408 58.9109 52.2916 58.1103 52.76 57.6418L53.3633 57.0386L51.3738 55.0492C51.0525 54.7278 51.0525 54.2049 51.3738 53.8836C51.6952 53.5622 52.2181 53.5622 52.5394 53.8836L55.1116 56.4558C55.2669 56.611 55.3527 56.8194 55.3527 57.0386C55.3527 57.4607 55.0545 57.6677 55.0245 57.7086L58.3511 58.3472L57.7125 55.0206C57.6662 55.0533 57.4646 55.3488 57.0425 55.3488C56.8246 55.3488 56.6149 55.2616 56.4597 55.1077L53.8875 52.5355C53.5661 52.2142 53.5661 51.6926 53.8875 51.3699C54.2089 51.0486 54.7304 51.0486 55.0531 51.3699L57.0425 53.3593L57.6457 52.7561C58.1114 52.2904 58.9121 52.5328 59.0387 53.1823L60.1989 59.2282C60.3078 59.7933 59.8149 60.3026 59.2321 60.195Z" fill="#703391"/>
<path d="M42.3185 66.6364L38.8639 61.541C38.4935 60.9964 38.8843 60.2542 39.5461 60.2542H40.3985V57.441C40.3985 56.9862 40.7675 56.6172 41.2224 56.6172C41.6772 56.6172 42.0462 56.9862 42.0462 57.441V61.0781C42.0462 61.5329 41.6772 61.9019 41.2224 61.9019H41.0998L43.0007 64.7056L44.9016 61.9019H44.7791C44.3243 61.9019 43.9552 61.5329 43.9552 61.0781V57.441C43.9552 56.9862 44.3243 56.6172 44.7791 56.6172C45.2339 56.6172 45.6029 56.9862 45.6029 57.441V60.2542H46.4553C47.1157 60.2542 47.5079 60.9964 47.1375 61.541L43.6829 66.6364C43.3561 67.1185 42.6453 67.1185 42.3185 66.6364Z" fill="#703391"/>
<path d="M26.613 60.2151C26.0996 60.2151 25.7061 59.748 25.8041 59.236L26.9643 53.1901C27.0882 52.5447 27.8875 52.2941 28.3573 52.7639L28.9605 53.3672L30.9499 51.3777C31.2713 51.0564 31.7928 51.0564 32.1155 51.3777C32.4369 51.6991 32.4369 52.222 32.1155 52.5433L29.5433 55.1156C29.3894 55.2708 29.1797 55.3566 28.9605 55.3566C28.5397 55.3566 28.3355 55.0611 28.2906 55.0284L27.6519 58.355L30.9785 57.7164C30.9458 57.6714 30.6503 57.4672 30.6503 57.0464C30.6503 56.8286 30.7375 56.6189 30.8914 56.4636L33.4636 53.8914C33.7849 53.57 34.3065 53.57 34.6292 53.8914C34.9505 54.2128 34.9505 54.7343 34.6292 55.057L32.6398 57.0464L33.243 57.6496C33.7087 58.1153 33.4663 58.916 32.8168 59.0426L26.7709 60.2028C26.7164 60.2096 26.6647 60.2151 26.613 60.2151Z" fill="#703391"/>
<path d="M24.4575 47.1355L19.362 43.681C18.8773 43.3514 18.8814 42.642 19.362 42.3166L24.4575 38.862C25.0021 38.4916 25.7442 38.8824 25.7442 39.5442V40.3966H28.5575C29.0123 40.3966 29.3813 40.7656 29.3813 41.2204C29.3813 41.6752 29.0123 42.0442 28.5575 42.0442H24.9204C24.4656 42.0442 24.0966 41.6752 24.0966 41.2204V41.0978L21.2929 42.9988L24.0966 44.8997V44.7771C24.0966 44.3223 24.4656 43.9533 24.9204 43.9533H28.5575C29.0123 43.9533 29.3813 44.3223 29.3813 44.7771C29.3813 45.2319 29.0123 45.6009 28.5575 45.6009H25.7442V46.4533C25.7442 46.7584 25.5754 47.0389 25.3058 47.1818C25.0443 47.3221 24.7135 47.3085 24.4575 47.1355Z" fill="#703391"/>
<path d="M30.9483 34.6306L28.9589 32.6411L28.3556 33.2444C27.8899 33.7101 27.0893 33.4677 26.9626 32.8182L25.8025 26.7723C25.6922 26.2031 26.1919 25.6979 26.7666 25.8082L32.8124 26.9684C33.4579 27.0923 33.7084 27.8916 33.2386 28.3614L32.6354 28.9646L34.6248 30.954C34.9462 31.2754 34.9462 31.7969 34.6248 32.1196C34.3035 32.441 33.7819 32.441 33.4592 32.1196L30.887 29.5474C30.5657 29.226 30.5657 28.7045 30.887 28.3818L30.9742 28.2946L27.6476 27.656L28.2862 30.9826L28.3733 30.8955C28.6947 30.5741 29.2162 30.5741 29.5389 30.8955L32.1112 33.4677C32.4325 33.789 32.4325 34.3106 32.1112 34.6333C31.7939 34.9506 31.2696 34.9519 30.9483 34.6306Z" fill="#703391"/>
<path d="M43.0011 44.846C40.4112 44.846 38.3047 42.7395 38.3047 40.1496C38.3047 37.5596 40.4112 35.4531 43.0011 35.4531C45.5911 35.4531 47.6976 37.5596 47.6976 40.1496C47.6976 42.7395 45.5911 44.846 43.0011 44.846ZM43.0011 37.1008C41.3208 37.1008 39.9537 38.4679 39.9537 40.1482C39.9537 41.8285 41.3208 43.1957 43.0011 43.1957C44.6814 43.1957 46.0486 41.8285 46.0486 40.1482C46.0486 38.4679 44.6814 37.1008 43.0011 37.1008Z" fill="#703391"/>
<path d="M49.7932 50.8495C49.3806 47.5011 46.5279 44.8486 42.9984 44.8486C39.5452 44.8486 36.6244 47.4289 36.2036 50.8495C36.1478 51.3016 35.7365 51.6216 35.2845 51.5671C34.8324 51.5113 34.511 51.1 34.5668 50.6493C35.2518 45.0719 41.1193 41.6772 46.3032 43.8681C49.0715 45.0378 51.0568 47.6155 51.4272 50.648C51.483 51.1 51.1617 51.5113 50.7096 51.5657C50.2698 51.6229 49.8504 51.3057 49.7932 50.8495Z" fill="#703391"/>
</svg>
