<svg width="28" height="31" viewBox="0 0 28 31" fill="none" xmlns="http://www.w3.org/2000/svg">
<path d="M13.6325 0.920572C12.76 0.925572 11.885 0.978072 11.0025 1.08557C9.31501 1.29307 7.64251 1.63807 6.03751 2.37557C3.48501 3.54807 1.67501 5.53807 1.15001 8.43057C0.927506 9.65057 0.747506 10.8881 0.645006 12.1331C0.447506 14.5506 0.570006 16.9756 1.25501 19.3581C1.79501 21.2356 2.79001 22.9231 4.53251 24.0181C5.27001 24.4806 6.24251 24.7056 6.75001 24.9406C6.89251 25.0081 6.92751 25.0481 6.93501 25.0581C6.94251 25.0656 6.96251 25.0831 6.96001 25.2331C6.94251 26.7631 6.96001 29.7231 6.96001 29.7231L6.96251 30.3606H8.10501L8.29001 30.1806C8.29001 30.1806 11.1925 27.3881 12.2425 26.2381C12.4325 26.0331 12.53 25.9181 12.55 25.9056C12.5675 25.8931 12.5375 25.8856 12.7325 25.8806C14.11 25.8531 15.485 25.8006 16.86 25.7256C18.6725 25.6256 20.52 25.4531 22.2975 24.7106C23.845 24.0631 25.1375 23.0056 25.92 21.4206C26.72 19.7956 27.1475 18.0731 27.3075 16.2906C27.5725 13.3231 27.48 10.3506 26.66 7.42057C26.1775 5.70307 25.2075 4.25057 23.72 3.22557C21.94 2.00057 19.9325 1.54057 17.9675 1.24807C16.82 1.07807 15.665 0.965572 14.505 0.930572C14.215 0.923072 13.925 0.918072 13.6325 0.920572ZM14.47 2.21057C15.5725 2.24057 16.675 2.34807 17.78 2.51307C19.675 2.79557 21.4625 3.22557 22.995 4.28057C24.2375 5.13557 25.0125 6.29057 25.4275 7.76307C26.1925 10.5031 26.29 13.3106 26.0325 16.1781C25.885 17.8306 25.4925 19.3881 24.77 20.8556C24.1325 22.1506 23.1375 22.9731 21.8025 23.5306C20.2525 24.1781 18.5675 24.3506 16.7925 24.4481C15.4325 24.5231 14.07 24.5731 12.7075 24.6006C12.365 24.6081 12.03 24.6981 11.7925 24.8731C11.555 25.0481 11.4475 25.2106 11.3 25.3706C10.55 26.1906 9.05501 27.6331 8.24001 28.4231C8.23501 27.4681 8.22751 26.3131 8.24001 25.2481C8.24501 24.9206 8.17001 24.5856 7.98251 24.3206C7.79501 24.0556 7.53751 23.8956 7.29001 23.7806C6.56751 23.4456 5.62251 23.1906 5.21251 22.9331C3.78001 22.0331 2.96751 20.6831 2.48501 19.0031C1.85251 16.8056 1.73251 14.5431 1.92001 12.2406C2.02001 11.0456 2.19251 9.84807 2.41001 8.66057C2.86501 6.15807 4.29501 4.58307 6.57001 3.53807C8.00751 2.87807 9.54251 2.55307 11.16 2.35557C12.2625 2.22057 13.365 2.17807 14.47 2.21057ZM14.74 5.40057C14.2125 5.40057 13.7 5.46057 13.2025 5.57057C12.86 5.65057 12.6425 5.99307 12.72 6.33807C12.7975 6.68307 13.1425 6.89807 13.4875 6.82057C13.89 6.72807 14.31 6.68057 14.74 6.68057C17.865 6.68057 20.385 9.20057 20.385 12.3231C20.385 12.7556 20.3375 13.1756 20.245 13.5806C20.1675 13.9231 20.3825 14.2681 20.7275 14.3456C21.0725 14.4231 21.415 14.2056 21.4925 13.8606C21.605 13.3656 21.665 12.8531 21.665 12.3231C21.665 8.50807 18.5575 5.40057 14.74 5.40057ZM8.35501 6.68307C8.25001 6.67807 8.14251 6.68557 8.03001 6.71057C6.86751 6.96807 5.71251 7.81057 5.68001 9.31557C5.71251 9.52557 5.71001 9.75057 5.78751 9.94057C6.16751 10.8706 6.49751 11.8306 6.97251 12.7106C9.28501 16.9856 12.7825 19.9581 17.24 21.8456C17.7725 22.0706 18.3225 22.1181 18.86 21.8931C19.6 21.5856 20.2275 21.1106 20.645 20.4281C21.2175 19.4906 21.225 18.8406 20.2825 18.1481C19.665 17.6931 19.0575 17.2256 18.4325 16.7806C17.48 16.1056 16.45 15.9881 15.74 17.1731C15.7025 17.2331 15.6475 17.2831 15.6 17.3331C15.235 17.7206 14.7875 17.8156 14.3125 17.6206C12.51 16.8781 11.1175 15.6806 10.2775 13.8981C9.78251 12.8506 9.91751 12.3256 10.8425 11.6281C10.935 11.5606 11.0225 11.4881 11.1075 11.4106C11.5125 11.0406 11.62 10.6006 11.38 10.1031C10.8375 8.96807 10.115 7.95557 9.20001 7.08307C8.95251 6.84807 8.67001 6.70057 8.35501 6.68307ZM14.73 7.32057C14.4475 7.32057 14.1675 7.34307 13.8925 7.39057C13.66 7.42057 13.4625 7.57557 13.3775 7.79307C13.2925 8.01307 13.335 8.26057 13.485 8.44057C13.6375 8.61807 13.8775 8.70057 14.1075 8.65057C14.3075 8.61807 14.5175 8.60057 14.73 8.60057C16.81 8.60057 18.48 10.2706 18.48 12.3506C18.48 12.5631 18.4625 12.7731 18.43 12.9731C18.38 13.2031 18.4625 13.4431 18.64 13.5956C18.82 13.7456 19.0675 13.7881 19.2875 13.7031C19.505 13.6181 19.66 13.4206 19.69 13.1881C19.7375 12.9131 19.76 12.6331 19.76 12.3506C19.76 9.58057 17.5 7.32057 14.73 7.32057ZM14.64 9.24057C14.41 9.23807 14.195 9.35807 14.0775 9.55807C13.9625 9.75807 13.9625 10.0031 14.0775 10.2031C14.195 10.4031 14.41 10.5231 14.64 10.5206C15.7075 10.5206 16.56 11.3731 16.56 12.4406C16.5575 12.6706 16.6775 12.8856 16.8775 13.0031C17.0775 13.1181 17.3225 13.1181 17.5225 13.0031C17.7225 12.8856 17.8425 12.6706 17.84 12.4406C17.84 10.6806 16.4 9.24057 14.64 9.24057Z" fill="white"/>
</svg>
