<svg width="70" height="71" viewBox="0 0 70 71" fill="none" xmlns="http://www.w3.org/2000/svg">
<path d="M69.7684 10.5085L36.8859 70.0733C36.2069 71.3031 34.4627 71.3103 33.7736 70.0865L0.239102 10.5142C-0.511633 9.18058 0.614128 7.56517 2.10599 7.83529L35.0237 13.7957C35.2337 13.8337 35.4487 13.8334 35.6586 13.7946L67.888 7.84384C69.3748 7.56932 70.5059 9.17221 69.7684 10.5085Z" fill="url(#paint0_linear_140_35)"/>
<path d="M50.7042 0.0174795L26.3701 4.84768C25.9702 4.92707 25.6741 5.27042 25.6499 5.68248L24.1531 31.2926C24.1178 31.8958 24.6647 32.364 25.2459 32.2282L32.0208 30.6443C32.6547 30.4962 33.2275 31.0618 33.0972 31.7075L31.0844 41.6922C30.9489 42.3643 31.5717 42.9389 32.2195 42.7395L36.4041 41.4516C37.0528 41.2521 37.6761 41.8284 37.5389 42.5009L34.3401 58.1847C34.14 59.1657 35.4281 59.7007 35.9653 58.8596L36.3242 58.2978L56.1529 18.2112C56.485 17.54 55.9124 16.7747 55.1847 16.917L48.211 18.2804C47.5556 18.4084 46.9981 17.7901 47.183 17.1406L51.7346 1.15665C51.9198 0.506051 51.3602 -0.112726 50.7042 0.0174795Z" fill="url(#paint1_linear_140_35)"/>
<defs>
<linearGradient id="paint0_linear_140_35" x1="-0.579667" y1="5.70654" x2="41.034" y2="61.4952" gradientUnits="userSpaceOnUse">
<stop stop-color="#41D1FF"/>
<stop offset="1" stop-color="#BD34FE"/>
</linearGradient>
<linearGradient id="paint1_linear_140_35" x1="33.1344" y1="1.32887" x2="40.7273" y2="52.7462" gradientUnits="userSpaceOnUse">
<stop stop-color="#FFEA83"/>
<stop offset="0.0833333" stop-color="#FFDD35"/>
<stop offset="1" stop-color="#FFA800"/>
</linearGradient>
</defs>
</svg>
