<svg width="24" height="24" viewBox="0 0 24 24" fill="none" xmlns="http://www.w3.org/2000/svg">
<path fill-rule="evenodd" clip-rule="evenodd" d="M20.5039 3.70973C18.2461 1.52443 15.2461 0.318359 12.0508 0.318359C5.46484 0.318359 0.101563 5.5056 0.101563 11.88C0.097656 13.9179 0.648438 15.9066 1.69531 17.6608L0 23.6534L6.33594 22.0428C8.07812 22.9653 10.0469 23.4492 12.0469 23.453H12.0508C18.6367 23.453 23.9961 18.2658 24 11.8876C24 8.79867 22.7578 5.89502 20.5039 3.70973ZM12.0508 21.4983H12.0469C10.2656 21.4983 8.51562 21.0333 6.99219 20.1599L6.62891 19.952L2.86719 20.9048L3.87109 17.3584L3.63672 16.9954C2.64063 15.4642 2.11719 13.6948 2.11719 11.88C2.11719 6.58313 6.57422 2.27303 12.0547 2.27303C14.707 2.27303 17.1992 3.27494 19.0742 5.08972C20.9492 6.90827 21.9805 9.32042 21.9805 11.8876C21.9805 17.1882 17.5234 21.4983 12.0508 21.4983ZM17.4961 14.2997C17.1992 14.156 15.7305 13.4566 15.457 13.3621C15.1836 13.2638 14.9844 13.2184 14.7852 13.5058C14.5859 13.7969 14.0156 14.4472 13.8398 14.64C13.668 14.829 13.4922 14.8555 13.1953 14.7118C12.8945 14.5682 11.9336 14.2619 10.793 13.2751C9.90625 12.5114 9.30469 11.5624 9.13281 11.2751C8.95703 10.984 9.11328 10.829 9.26172 10.6853C9.39844 10.5567 9.5625 10.3488 9.71094 10.1787C9.85938 10.0123 9.91016 9.89132 10.0117 9.6985C10.1094 9.50568 10.0586 9.33554 9.98438 9.19187C9.91016 9.0482 9.3125 7.62284 9.0625 7.04438C8.82031 6.48105 8.57422 6.56044 8.39062 6.5491C8.21875 6.54154 8.01953 6.54154 7.82031 6.54154C7.62109 6.54154 7.29688 6.61337 7.02344 6.90449C6.75 7.19183 5.98047 7.89128 5.98047 9.31286C5.98047 10.7344 7.05078 12.1106 7.19922 12.3035C7.34766 12.4925 9.30469 15.4113 12.3008 16.6627C13.0117 16.9614 13.5664 17.1391 14 17.2714C14.7148 17.4907 15.3672 17.4605 15.8828 17.3886C16.457 17.3054 17.6484 16.6892 17.8984 16.0124C18.1445 15.3394 18.1445 14.761 18.0703 14.64C17.9961 14.519 17.7969 14.4472 17.4961 14.2997Z" fill="white"/>
</svg>
