<svg width="53" height="53" viewBox="0 0 53 53" fill="none" xmlns="http://www.w3.org/2000/svg">
    <path d="M26.2725 48.6423C38.5912 48.6411 48.5766 38.6539 48.5755 26.3351C48.5743 14.0164 38.5871 4.03096 26.2683 4.03211C13.9496 4.03325 3.96418 14.0205 3.96533 26.3393C3.96647 38.658 13.9537 48.6434 26.2725 48.6423Z" fill="white"/>
    <path d="M25.8894 11.7557C26.4876 12.4889 34.411 28.4385 37.8939 35.739C38.7797 37.5993 38.6245 37.7891 36.5944 37.7951C33.995 37.8039 33.8713 37.8442 33.043 35.4001C32.4188 33.557 31.5043 32.7721 29.457 32.8988C26.7311 33.0658 23.9792 32.8849 21.2417 32.7759C20.4136 32.7415 19.9766 32.9974 19.7408 33.7652C19.5856 34.2627 19.3297 34.7314 19.1227 35.2145C18.1079 37.6128 17.9124 37.7249 15.2698 37.4491C14.3382 37.3514 13.8982 36.9374 14.2604 35.9827C14.6341 35.0021 14.9791 34.0043 15.4333 33.0611C18.5526 26.5766 21.692 20.1036 24.8372 13.6307C25.1333 13.021 25.4984 12.4459 25.8866 11.7557L25.8894 11.7557ZM25.9304 19.856C24.8064 22.4756 23.8117 24.8307 22.7825 27.1715C22.5439 27.7121 22.4835 28.1118 23.2168 28.129C25.1117 28.1777 27.0067 28.212 28.8987 28.2089C29.4221 28.2089 29.4306 27.3463 29.4306 27.3463C29.4306 27.3463 27.3684 22.6508 25.9304 19.8531L25.9304 19.856Z" fill="#000207"/>
</svg>
