<svg width="148" height="53" viewBox="0 0 148 53" fill="none" xmlns="http://www.w3.org/2000/svg">
    <path d="M66.0961 31.6427C64.6934 31.6868 64.8227 30.7693 64.8203 29.8842C64.8179 28.5322 64.8293 27.1803 64.813 25.8283C64.8037 24.9894 64.7088 24.1321 65.9938 24.266C66.6547 24.3352 66.7887 23.8915 66.7494 23.36C66.7193 22.9301 66.9272 22.2322 66.2131 22.2877C64.748 22.4057 64.7317 21.5252 64.8148 20.5084C64.8864 19.6348 64.3525 19.5308 63.6638 19.5402C63.0722 19.5471 62.4829 19.5934 62.6193 20.3676C62.9777 22.4082 61.6766 22.4407 60.3339 22.212C58.4388 21.8886 57.5653 22.7184 57.0155 24.454C56.3778 26.46 55.4721 28.3806 54.5687 30.6177C53.6163 28.2536 52.6756 26.2477 52.0075 24.154C51.4735 22.4855 50.6091 21.8431 48.7418 22.4534C49.4769 24.2536 50.1542 26.07 50.9494 27.831C52.4519 31.161 54.3564 34.4425 51.1144 37.8862C52.8962 38.473 53.7351 38.0777 54.3451 36.557C55.8469 32.8038 57.6029 29.1499 59.1255 25.4036C59.7078 23.9707 60.7686 24.2757 61.79 24.2987C63.0727 24.3286 62.5482 25.3571 62.5736 25.9788C62.6431 27.6658 62.5739 29.3575 62.6226 31.0445C62.6852 33.1729 63.7692 34.0372 65.8999 33.8105C66.4569 33.7527 66.852 33.6509 66.7503 33.0108C66.6693 32.4931 67.1153 31.6057 66.0985 31.6381L66.0961 31.6427Z" fill="white"/>
    <path d="M28.5615 16.8339C28.5521 15.3133 27.3133 14.5161 25.2796 14.5602C23.6203 14.5973 24.2098 15.8406 24.1913 16.6333C24.1269 19.3996 24.1664 22.1682 24.1667 24.9368C24.1669 27.435 24.1672 29.9332 24.1674 32.4291C24.1677 35.9372 24.1793 35.9164 27.4678 34.8738C28.3875 34.5826 28.5862 34.0556 28.5746 33.2352C28.5559 31.6822 28.572 30.1292 28.5718 28.5785C28.5715 24.6637 28.5873 20.7488 28.5615 16.8339Z" fill="white"/>
    <path d="M5.45142 15.7456C4.35599 15.6186 3.90071 15.5608 3.94937 16.8804C4.04668 19.508 3.9799 22.1403 3.98015 24.7725C3.9804 27.5388 3.9691 30.3051 3.99247 33.0714C3.99713 33.5035 3.75222 34.0651 4.29533 34.347C5.25907 34.8461 8.12688 33.0294 8.1314 31.9178C8.14256 27.6678 7.98963 23.411 8.19492 19.1702C8.30102 16.9632 7.63305 16.0019 5.45374 15.7479L5.45142 15.7456Z" fill="white"/>
    <path d="M128.817 30.9873C127.241 32.2169 125.381 31.9929 124.255 30.7497C123.011 29.3771 122.889 27.0384 124.026 25.4852C125.158 23.9368 126.752 23.583 128.308 24.5073C129.399 25.1566 129.912 24.8815 130.351 24.0033C130.878 22.9494 129.805 22.7854 129.26 22.4966C127.376 21.5054 124.356 21.9702 122.791 23.3985C121.028 25.0071 120.421 27.9861 121.375 30.3201C122.275 32.5155 124.114 33.7009 126.64 33.7099C127.89 33.756 129.053 33.4624 130.095 32.7621C130.659 32.3853 131.029 31.967 130.351 31.3292C129.896 30.8994 129.72 30.2755 128.812 30.985L128.817 30.9873Z" fill="white"/>
    <path d="M21.7582 22.1779C21.7512 21.7481 21.8783 21.2512 21.1064 21.2027C18.9202 21.0643 17.5868 22.2823 17.5847 24.5263C17.5849 26.3497 17.622 28.1754 17.5714 29.9988C17.5437 30.9764 17.9112 31.4062 18.8749 31.6788C21.7846 32.5012 21.7707 32.5521 21.7704 29.4761C21.7703 28.5979 21.7703 27.7197 21.7702 26.8415C21.77 25.2885 21.7815 23.7332 21.7605 22.1802L21.7582 22.1779Z" fill="white"/>
    <path d="M12.0891 24.1802C10.7048 23.9261 10.6494 24.3814 10.6702 25.4352C10.7144 27.663 10.6845 29.8931 10.6847 32.1233C10.685 35.2709 10.6758 35.2362 13.6107 34.3624C14.5512 34.0826 14.8932 33.6089 14.8192 32.6498C14.7428 31.6422 14.8028 30.623 14.8027 29.6108C14.8027 28.936 14.694 28.2381 14.8233 27.5887C15.2715 25.3192 14.1667 24.559 12.0914 24.1802L12.0891 24.1802Z" fill="white"/>
    <path d="M119.506 25.7929C119.23 22.7863 116.658 21.319 113.785 22.35C113.293 22.5257 112.87 22.9533 112.283 22.6806C111.028 21.9667 110.088 21.7587 110.141 23.7601C110.225 26.9169 110.218 30.0738 110.251 33.2306C112.197 33.9284 112.287 33.8821 112.314 32.0079C112.337 30.4595 112.309 28.9088 112.325 27.3604C112.339 25.715 112.928 24.4393 114.705 24.104C116.476 23.7711 117.023 25.0421 117.509 26.3547C117.624 26.558 117.68 26.766 117.708 26.9786C117.652 26.7706 117.587 26.5627 117.509 26.3547C117.493 27.635 117.361 28.9268 117.493 30.191C117.609 31.3026 116.862 32.5459 117.935 33.5257C117.935 33.5257 117.935 33.5257 117.935 33.5234C117.935 33.5234 117.935 33.5234 117.935 33.5257C118.665 33.5465 119.645 34.0548 119.622 32.6289C119.585 30.3479 119.716 28.0531 119.508 25.7883L119.506 25.7929Z" fill="white"/>
    <path d="M46.1975 25.302C45.1367 24.6619 45.9802 24.2343 46.2782 23.7328C47.5861 21.5441 46.985 18.8426 44.7478 17.8606C42.1894 16.74 39.4739 16.7403 36.7701 17.4408C36.7405 22.4765 36.711 27.5145 36.686 32.5502C36.6861 32.8876 36.6907 33.232 37.1506 33.2828C39.2421 33.3034 41.3359 33.4187 43.4204 33.3191C45.4564 33.2242 47.0694 32.2534 47.7417 30.2405C48.3955 28.283 48.1412 26.4712 46.1975 25.2997L46.1975 25.302ZM41.0364 19.3724C43.6248 19.557 44.5053 19.9937 44.5055 21.7016C44.5056 23.4464 43.4103 24.0705 40.919 24.2625C38.511 24.4476 39.2527 22.8298 39.1092 21.1567C38.9497 20.193 39.0905 19.2339 41.0387 19.3724L41.0364 19.3724ZM41.1184 31.4035C38.6919 31.5863 39.1701 30.128 39.1584 28.4965C38.9503 27.23 38.9941 26.1231 41.2173 26.2777C44.4597 26.5016 45.643 27.0145 45.6062 28.8726C45.5694 30.689 44.3561 31.1606 41.1184 31.4035Z" fill="white"/>
    <path d="M88.2575 17.5308C86.5219 17.1843 84.7655 17.367 83.0184 17.3441C82.7226 17.3395 82.0963 17.1778 82.4083 17.9126C82.3879 21.4138 82.335 24.915 82.3539 28.4162C82.3844 34.27 82.463 34.3186 88.3491 33.3774C92.9965 32.6328 95.2356 29.9472 95.1866 25.1727C95.1423 20.7332 92.8472 18.2029 88.2552 17.5308L88.2575 17.5308ZM85.8507 31.3509C84.9517 31.284 84.7021 30.9258 84.7182 30.1054C84.7527 28.49 84.7271 26.8699 84.7293 25.2545C84.7291 23.7038 84.766 22.1531 84.715 20.6048C84.6849 19.7243 85.0292 19.4908 85.8843 19.4353C90.1619 19.1599 92.7389 21.4221 92.6884 25.4965C92.6403 29.4275 89.999 31.6532 85.8507 31.3509Z" fill="white"/>
    <path d="M75.4411 22.228C72.5453 21.4795 69.9317 22.5105 68.6747 24.8955C67.2791 27.5418 67.7924 30.6038 69.9395 32.4455C71.9965 34.2086 75.5855 34.31 77.8224 32.5372C78.2753 32.179 79.618 31.9316 78.6843 30.7808C77.9562 29.8842 77.3739 30.1615 76.5489 30.8249C74.7534 32.2694 71.8876 31.8838 70.7828 30.2084C70.2189 29.3533 70.0432 28.7109 71.4668 28.7639C72.613 28.8054 73.7616 28.773 74.9079 28.7705C76.1235 28.7704 77.3368 28.7657 78.5524 28.7702C79.2087 28.7748 79.687 28.7493 79.6592 27.811C79.5874 25.3128 77.773 22.8286 75.4411 22.228ZM76.7703 26.4131C76.6202 27.3468 75.2821 26.6906 74.4871 26.8432C74.1635 26.9056 73.8192 26.8525 73.4841 26.8525C73.015 26.8526 72.5412 26.9011 72.079 26.8411C71.5267 26.7672 70.7248 27.1994 70.4798 26.4923C70.2393 25.7967 70.8841 25.2582 71.3994 24.8583C72.3399 24.1303 73.396 23.8274 74.5954 24.1971C75.751 24.5529 76.962 25.1929 76.7657 26.4131L76.7703 26.4131Z" fill="white"/>
    <path d="M140.813 28.7648C143.88 28.7646 144.43 27.8262 142.944 25.0347C142.225 23.6828 141.162 22.6915 139.634 22.2618C136.741 21.4485 133.921 22.498 132.655 24.8808C131.368 27.3052 131.879 30.5798 133.816 32.3083C135.94 34.2054 139.474 34.3438 141.835 32.5294C142.307 32.1688 143.451 31.903 142.82 30.9486C142.253 30.0889 141.574 29.9688 140.564 30.7778C138.165 32.6938 135.3 31.8159 134.174 28.7655C136.503 28.7652 138.657 28.765 140.811 28.7648L140.813 28.7648ZM136.268 26.8333C135.664 26.7293 134.733 27.2933 134.518 26.4382C134.331 25.6941 135.066 25.1209 135.68 24.6887C137.215 23.6116 139.523 23.965 140.557 25.4324C140.783 25.7536 141.107 26.0863 140.952 26.5185C140.767 27.0316 140.27 26.8213 139.905 26.8375C139.166 26.8723 138.421 26.8469 137.682 26.8493C137.21 26.8493 136.727 26.9141 136.27 26.8333L136.268 26.8333Z" fill="white"/>
    <path d="M107.305 22.2251C106.275 22.1743 106.011 22.6157 106.039 23.487C105.524 23.1751 105.031 22.8076 104.486 22.5604C102.138 21.486 99.434 21.997 97.8141 23.7789C96.2174 25.5378 95.9288 28.5629 97.1492 30.7606C98.3072 32.8496 100.926 33.9818 103.38 33.45C104.531 33.2003 105.675 32.0794 106.846 33.5029C106.969 33.6508 107.757 33.7986 108.06 33.2254C108.094 29.953 108.128 26.6806 108.165 23.4082C108.172 22.8004 108.255 22.2712 107.305 22.2251ZM102.402 31.6059C100.207 31.6339 98.8431 30.222 98.8198 27.8971C98.7988 25.6901 100.298 24.0422 102.344 24.0281C104.292 24.0141 106.011 25.7911 106.044 27.8525C106.079 29.9625 104.51 31.5803 102.4 31.6082L102.402 31.6059Z" fill="white"/>
</svg>
