<svg width="100" height="53" viewBox="0 0 100 53" fill="none" xmlns="http://www.w3.org/2000/svg">
    <path d="M56.3684 35.4394C54.4183 35.4044 52.5387 35.1383 50.7882 34.2926C47.4949 32.7031 45.7873 30.0327 45.5756 26.4145C45.4069 23.5403 46.2368 20.8814 47.5758 18.379C50.3242 13.2373 54.4551 9.50514 59.5728 6.81058C62.1806 5.4398 64.9412 4.53107 67.8741 4.18229C70.0356 3.92756 72.1736 4.02917 74.2569 4.70642C78.3961 6.04524 80.8438 9.51052 80.7346 13.8532C80.6526 17.119 79.533 20.0599 77.7633 22.7384C73.7188 28.8593 68.143 32.9166 61.0399 34.8281C59.5049 35.2394 57.9308 35.408 56.3684 35.4355L56.3684 35.4394Z" fill="white"/>
    <path d="M20.6756 35.4428C20.9458 34.824 21.1885 34.264 21.4352 33.708C25.7417 23.9611 30.0482 14.2103 34.3429 4.45951C34.4878 4.13056 34.6522 4.05223 34.9968 4.07178C37.0174 4.16949 38.9675 4.52956 40.7454 5.5436C43.5218 7.12925 45.0062 9.54908 45.2766 12.7091C45.555 15.971 44.5645 18.9354 42.9828 21.7236C40.5123 26.0821 36.9766 29.3952 32.693 31.937C29.9051 33.5897 26.9213 34.7334 23.7026 35.2271C22.7197 35.376 21.729 35.4466 20.6717 35.4506L20.6756 35.4428Z" fill="white"/>
    <path d="M8.74909 47.7754C8.05999 48.6917 7.17894 48.8132 6.22737 48.5313C5.15049 48.2103 4.69617 47.3489 4.55902 46.3151C4.4689 45.6299 4.50016 44.9368 4.75462 44.2711C5.40058 42.5754 7.37803 42.1719 8.63513 43.4719C8.66255 43.4993 8.69388 43.5228 8.75262 43.5737C8.75254 42.7318 8.77204 41.9251 8.74456 41.1224C8.72885 40.6877 8.48213 40.4136 8.01223 40.4019C7.89867 40.4019 7.74205 40.4372 7.74986 40.2414C7.75768 40.0887 7.90648 40.1083 8.00046 40.0965C8.51734 40.022 9.03422 39.9633 9.5511 39.8849C9.78605 39.8496 9.83305 39.9397 9.82916 40.1551C9.82158 42.8609 9.82183 45.5628 9.82991 48.2686C9.82993 48.4879 9.76728 48.5467 9.54408 48.5545C8.81574 48.5742 8.81573 48.5859 8.74517 47.7754L8.74909 47.7754ZM5.71414 45.6846C5.7142 46.362 5.84739 47.0003 6.07847 47.4232C6.58761 48.3433 7.79761 48.4176 8.32616 47.5052C8.99566 46.35 8.94463 45.1243 8.40022 43.93C8.17698 43.4445 7.7188 43.2135 7.19017 43.2292C6.6772 43.2449 6.30131 43.5269 6.0664 43.989C5.79234 44.5216 5.718 45.0972 5.71414 45.6846Z" fill="white"/>
    <path d="M32.3653 45.1885C33.1171 44.4836 33.8179 43.9001 34.4209 43.2304C34.8281 42.7762 35.2706 42.7957 35.8345 42.8426C35.0592 43.5828 34.3466 44.2916 33.5949 44.9652C33.3638 45.1728 33.4108 45.2707 33.5831 45.4586C34.4056 46.3709 35.2162 47.295 36.0269 48.2151C36.1052 48.3013 36.1835 48.3913 36.3206 48.544C35.8742 48.5441 35.51 48.5324 35.1498 48.548C34.9579 48.5559 34.8874 48.4149 34.7895 48.3053C34.0963 47.5222 33.407 46.7391 32.7178 45.956C32.6316 45.8581 32.5376 45.7641 32.3653 45.5762C32.3654 46.5043 32.3224 47.3109 32.3812 48.1137C32.4204 48.6423 32.1189 48.5327 31.8213 48.5484C31.5002 48.568 31.3044 48.5641 31.3083 48.1177C31.3355 45.9052 31.3196 43.6928 31.3194 41.4803C31.3194 40.6972 31.2215 40.5797 30.45 40.3957C30.356 40.3723 30.2581 40.3684 30.2503 40.2509C30.2425 40.1256 30.356 40.1099 30.4422 40.0981C31.006 40.0198 31.5699 39.9492 32.1299 39.8748C32.4666 39.8317 32.357 40.0862 32.357 40.2389C32.365 41.7583 32.3573 43.2815 32.3574 44.8009L32.3575 45.1846L32.3653 45.1885Z" fill="white"/>
    <path d="M57.4185 42.7263C59.2276 42.7261 60.2928 43.8264 60.2969 45.6903C60.297 47.6286 59.326 48.6351 57.4503 48.6353C55.6765 48.6354 54.623 47.5352 54.6228 45.6752C54.6227 43.7525 55.5937 42.7226 57.4145 42.7224L57.4185 42.7263ZM55.7976 45.6437C55.8446 46.2507 55.8643 46.932 56.2716 47.5194C56.8864 48.4004 58.3196 48.365 58.7698 47.3938C59.3023 46.2543 59.2513 45.06 58.7069 43.9283C58.4405 43.3762 57.908 43.2001 57.3089 43.2354C56.6784 43.2746 56.2438 43.5801 56.0167 44.1753C55.8445 44.6295 55.8328 45.1073 55.7976 45.6477L55.7976 45.6437Z" fill="white"/>
    <path d="M64.8745 44.2265C65.0899 43.9367 65.2308 43.7213 65.3952 43.5333C66.0726 42.7619 66.9302 42.5621 67.9013 42.8126C68.4339 42.9496 68.7237 43.2824 68.7316 43.8345C68.7591 45.3265 68.7436 46.8184 68.7515 48.3064C68.7516 48.4865 68.6889 48.5296 68.5127 48.5453C67.7021 48.608 67.706 48.6159 67.7021 47.8209C67.702 46.6697 67.7018 45.5145 67.6822 44.3633C67.6782 43.9952 67.6586 43.5997 67.2357 43.4314C66.801 43.263 66.382 43.3335 66.0218 43.6233C65.3052 44.199 64.8824 44.9431 64.8668 45.879C64.8551 46.6465 64.8513 47.4179 64.871 48.1854C64.8788 48.4634 64.8123 48.5887 64.5186 48.5417C64.4128 48.5261 64.3032 48.5261 64.1975 48.5418C63.9038 48.5849 63.8098 48.4831 63.8137 48.1737C63.8331 46.8972 63.8213 45.6206 63.8212 44.3441C63.8211 43.5335 63.7702 43.4669 62.9831 43.2242C62.9008 43.1968 62.7873 43.2125 62.7873 43.0793C62.7873 42.9579 62.8812 42.9384 62.9752 42.9266C63.5077 42.86 64.0442 42.8012 64.5768 42.7307C64.8 42.6993 64.8783 42.7659 64.8666 42.9969C64.8509 43.365 64.8627 43.7331 64.8628 44.2265L64.8745 44.2265Z" fill="white"/>
    <path d="M83.5333 44.2445C83.7017 44.0017 83.7995 43.8529 83.9053 43.7119C84.5513 42.8465 85.5655 42.5018 86.5601 42.8071C87.0888 42.9676 87.3864 43.277 87.3943 43.833C87.4218 45.3249 87.4063 46.8169 87.4182 48.3049C87.4182 48.4811 87.3712 48.5594 87.1832 48.5438C87.0462 48.532 86.9052 48.5242 86.7682 48.5438C86.451 48.5908 86.3531 48.4812 86.3609 48.1523C86.3843 47.0441 86.3685 45.9398 86.3684 44.8316C86.3684 44.6633 86.3645 44.4949 86.3488 44.3265C86.2743 43.3945 85.6047 43.0383 84.8137 43.5552C83.9914 44.0918 83.5608 44.8906 83.5374 45.8774C83.5179 46.6449 83.5219 47.4164 83.5376 48.1838C83.5415 48.4501 83.4945 48.5989 83.193 48.5441C83.1186 48.5324 83.0364 48.5324 82.962 48.5442C82.5939 48.6068 82.4686 48.4933 82.4764 48.09C82.5076 46.8447 82.4879 45.5995 82.4878 44.3543C82.4877 43.5398 82.429 43.4615 81.6536 43.2305C81.5714 43.207 81.4578 43.2227 81.4539 43.0896C81.4539 42.9329 81.5792 42.9407 81.6849 42.929C82.2018 42.8624 82.7226 42.8075 83.2395 42.737C83.4509 42.7095 83.5488 42.7565 83.5371 42.9954C83.5176 43.3713 83.5333 43.7472 83.5333 44.2484L83.5333 44.2445Z" fill="white"/>
    <path d="M93.7027 45.0024C93.1505 45.0025 92.5945 45.0064 92.0424 45.0026C91.8387 45.0026 91.7448 45.0339 91.7565 45.2845C91.8467 46.8234 92.9354 48.002 94.4352 48.1193C94.7054 48.1428 94.9834 48.0723 95.2575 48.0488C95.3593 48.0409 95.512 47.9039 95.5316 48.131C95.5434 48.2563 95.6022 48.4247 95.3946 48.4678C94.2356 48.7106 93.0726 48.8282 91.9957 48.194C91.0597 47.6419 90.7268 46.7374 90.711 45.6958C90.7071 45.3277 90.6875 44.9635 90.7697 44.5954C91.0319 43.4167 91.7915 42.7667 93.0015 42.7274C93.5223 42.7117 94.0431 42.692 94.5444 42.9074C95.2845 43.2245 95.7349 43.9332 95.7115 44.7242C95.7037 44.9513 95.6332 45.0101 95.4178 45.0062C94.85 44.9945 94.2822 45.0024 93.7105 45.0024L93.7027 45.0024ZM93.1544 44.5678C93.5068 44.5678 93.8632 44.5521 94.2117 44.5716C94.4701 44.5873 94.525 44.4972 94.4897 44.2583C94.3957 43.6592 93.8552 43.205 93.2208 43.209C92.5003 43.213 91.8739 43.7339 91.8113 44.3526C91.7878 44.5679 91.8935 44.5679 92.0501 44.5679C92.4182 44.564 92.7863 44.5678 93.1544 44.5678Z" fill="white"/>
    <path d="M26.6561 45.0088C26.1039 45.0088 25.5479 45.0089 24.9957 45.0089C24.7999 45.0089 24.6903 45.0325 24.706 45.287C24.7884 46.8181 25.8849 48.0044 27.3808 48.1257C27.651 48.1492 27.929 48.0826 28.2031 48.0591C28.3049 48.0512 28.4576 47.9102 28.4811 48.1334C28.4929 48.2548 28.5555 48.4271 28.3519 48.4702C27.1929 48.7131 26.0299 48.8307 24.949 48.2003C24.0288 47.66 23.688 46.7751 23.6605 45.7531C23.6487 45.3262 23.6409 44.8955 23.7426 44.4726C23.9579 43.5797 24.4982 43.0158 25.3989 42.8239C26.0998 42.675 26.8007 42.6475 27.4821 42.9176C28.23 43.2152 28.6765 43.9317 28.6531 44.7266C28.6453 44.9459 28.5865 45.0203 28.3633 45.0125C27.7955 45.0008 27.2278 45.0087 26.6561 45.0088ZM26.1 44.5742C26.4524 44.5741 26.8087 44.5584 27.1572 44.578C27.4078 44.5936 27.4744 44.5114 27.4391 44.2686C27.3451 43.6695 26.8047 43.2114 26.1742 43.2154C25.4537 43.2194 24.8272 43.7363 24.7607 44.355C24.7373 44.5665 24.8351 44.5743 24.9957 44.5743C25.3638 44.5664 25.7319 44.5742 26.1 44.5742Z" fill="white"/>
    <path d="M40.2829 40.9324C40.2829 41.4924 40.3065 41.9662 40.2752 42.4361C40.2517 42.7729 40.3731 42.8551 40.6864 42.8277C41.0231 42.8002 41.3638 42.8198 41.7006 42.8197C41.8337 42.8197 41.9786 42.7884 41.9747 43.0116C41.9747 43.2113 41.9082 43.2818 41.7085 43.274C41.3404 43.2623 40.9684 43.2819 40.6003 43.2662C40.381 43.2584 40.2753 43.2937 40.2753 43.556C40.2911 44.7543 40.2716 45.9525 40.2874 47.1508C40.2992 47.8987 40.6986 48.1923 41.5249 48.1374C41.6776 48.1257 41.9321 47.9103 41.9752 48.294C42.0144 48.6739 41.7481 48.623 41.5249 48.6308C41.2195 48.6387 40.9101 48.6426 40.6008 48.627C39.6414 48.5801 39.2459 48.1729 39.2419 47.2135C39.2339 46.0466 39.2221 44.8758 39.2494 43.7089C39.2572 43.329 39.1279 43.2585 38.7833 43.2547C38.5797 43.2547 38.1842 43.4858 38.1803 43.0433C38.1763 42.589 38.5758 42.8435 38.7755 42.8318C39.0966 42.8161 39.3198 42.7925 39.2375 42.3892C39.069 41.563 39.7895 41.3906 40.279 40.9246L40.2829 40.9324Z" fill="white"/>
    <path d="M73.6499 44.245C73.65 45.5333 73.6384 46.8256 73.6581 48.1139C73.662 48.4389 73.6072 48.572 73.2431 48.5525C72.6087 48.5212 72.6087 48.5447 72.6086 47.9299C72.6084 45.7801 72.6082 43.6303 72.608 41.4806C72.608 40.6896 72.5179 40.5799 71.7386 40.3999C71.6446 40.3764 71.5467 40.3725 71.5389 40.2589C71.531 40.1336 71.6407 40.1179 71.7268 40.1062C72.2907 40.0278 72.8546 39.9612 73.4145 39.8789C73.7043 39.8397 73.6495 40.0355 73.6495 40.1961C73.6496 41.547 73.6498 42.898 73.6499 44.2489L73.6499 44.245Z" fill="white"/>
    <path d="M19.721 43.8586C19.7836 43.745 19.8423 43.6275 19.9128 43.5179C20.1595 43.1224 20.508 42.8561 20.9661 42.762C21.1619 42.7229 21.4791 42.6171 21.5535 42.8168C21.6514 43.0713 21.6044 43.3885 21.5692 43.6744C21.5536 43.8075 21.3891 43.737 21.2912 43.7292C20.3318 43.6666 19.7719 44.1444 19.6702 45.1273C19.5685 46.1219 19.6234 47.1205 19.6235 48.119C19.6235 48.4323 19.5961 48.585 19.2123 48.5615C18.5741 48.5224 18.5741 48.5538 18.574 47.8959C18.5739 46.6977 18.5738 45.4994 18.5737 44.3051C18.5736 43.5728 18.46 43.4319 17.7669 43.244C17.6729 43.2205 17.528 43.2518 17.5359 43.0834C17.5437 42.9229 17.6768 42.9464 17.7747 42.9346C18.2916 42.868 18.8124 42.8131 19.3254 42.7426C19.5446 42.7113 19.6308 42.7739 19.6152 43.0049C19.5995 43.279 19.6113 43.5532 19.6113 43.8312C19.6466 43.8429 19.6818 43.8507 19.7131 43.8625L19.721 43.8586Z" fill="white"/>
    <path d="M49.9043 45.9854C49.4774 45.9854 48.9057 45.8171 48.659 46.0286C48.3732 46.2753 48.5925 46.8587 48.5691 47.2973C48.5534 47.5558 48.5378 47.822 48.5692 48.0805C48.6201 48.476 48.4596 48.5621 48.0876 48.5543C47.7586 48.5465 47.6333 48.4917 47.6568 48.1315C47.692 47.5363 47.6527 46.9332 47.6723 46.3341C47.684 46.0443 47.6174 45.9347 47.3041 45.9504C46.6463 45.9779 45.9806 45.9466 45.3227 45.9662C45.0565 45.9741 44.9977 45.884 44.9899 45.6295C44.9859 45.3515 45.0877 45.3006 45.3344 45.3084C46.0119 45.324 46.6854 45.3043 47.3628 45.3199C47.6017 45.3238 47.68 45.2573 47.6721 45.0145C47.6564 44.4154 47.6916 43.8162 47.6563 43.2171C47.6367 42.8569 47.8482 42.8921 48.0557 42.9195C48.2554 42.9469 48.5843 42.7471 48.5687 43.2053C48.5492 43.7731 48.5806 44.3409 48.5571 44.9087C48.5415 45.218 48.6159 45.3355 48.9527 45.3198C49.6262 45.2923 50.3036 45.3275 50.981 45.3039C51.2943 45.2922 51.2669 45.4527 51.2787 45.6681C51.2944 45.9226 51.1926 45.9774 50.9654 45.9657C50.613 45.9501 50.2606 45.9619 49.9043 45.9619L49.9043 45.9893L49.9043 45.9854Z" fill="white"/>
    <path d="M14.8145 45.6833C14.8146 46.5134 14.799 47.3436 14.8226 48.1737C14.8304 48.4753 14.7443 48.5928 14.4428 48.5497C14.337 48.5341 14.2274 48.5341 14.1217 48.5497C13.8358 48.5928 13.7614 48.4871 13.7653 48.2013C13.7808 46.909 13.7729 45.6207 13.7728 44.3285C13.7727 43.5532 13.7061 43.467 12.9542 43.24C12.872 43.2165 12.7624 43.2322 12.7624 43.099C12.7623 42.9346 12.8837 42.9502 12.9856 42.9346C13.4868 42.8719 13.9919 42.8209 14.4931 42.7425C14.7672 42.7034 14.8299 42.8012 14.8221 43.0597C14.8065 43.9368 14.8183 44.8101 14.8184 45.6872L14.8145 45.6833Z" fill="white"/>
    <path d="M78.6346 45.6471C78.6347 46.4929 78.627 47.3387 78.6388 48.1845C78.6427 48.4508 78.5997 48.5957 78.2942 48.5487C78.1728 48.5292 78.0475 48.5292 77.9261 48.5488C77.6207 48.5997 77.5815 48.4509 77.5854 48.1846C77.5971 46.8768 77.593 45.5728 77.589 44.2649C77.5889 43.5561 77.4793 43.423 76.8057 43.239C76.7157 43.2155 76.5708 43.2508 76.5786 43.0785C76.5864 42.9179 76.7156 42.9375 76.8135 42.9258C77.3148 42.8631 77.8199 42.8082 78.3211 42.7377C78.556 42.7024 78.6461 42.7611 78.6383 43.0196C78.6227 43.8967 78.6345 44.7699 78.6346 45.6471Z" fill="white"/>
    <path d="M14.2231 41.5327C13.7532 41.5327 13.4242 41.243 13.4281 40.8279C13.4359 40.4324 13.7491 40.1504 14.1916 40.1425C14.6732 40.1386 14.9748 40.4087 14.9709 40.8434C14.971 41.2585 14.6773 41.5248 14.2191 41.5287L14.2231 41.5327Z" fill="white"/>
    <path d="M78.0468 40.1406C78.5049 40.1444 78.7947 40.4107 78.7987 40.8258C78.8026 41.2604 78.4972 41.5385 78.0195 41.5307C77.5731 41.5229 77.2598 41.241 77.2519 40.8455C77.248 40.4304 77.5769 40.1406 78.0429 40.1445L78.0468 40.1406Z" fill="white"/>
</svg>
