<svg width="164" height="58" viewBox="0 0 164 58" fill="none" xmlns="http://www.w3.org/2000/svg">
    <path d="M25.2205 8.04495C25.9594 8.26656 26.696 8.48817 27.435 8.70979C29.5875 9.36033 31.0607 10.8953 32.3624 12.5876C32.72 13.0524 33.0489 13.193 33.5638 13.2334C40.8508 13.8048 45.471 21.3964 42.2918 27.9709C42.0106 28.5502 42.0369 29.0269 42.3111 29.5966C45.5058 36.2348 40.6652 43.7772 33.6334 44.2784C32.9374 44.3286 32.6633 44.7028 32.282 45.1486C30.0416 47.7685 27.3529 49.566 23.7321 49.4805C20.2377 49.3998 17.4605 47.8984 15.3936 45.124C14.9907 44.5829 14.6046 44.3207 13.9085 44.2445C6.6287 43.4514 2.49236 36.3055 5.41889 29.6C5.66912 29.0255 5.6929 28.5655 5.4378 27.9767C2.47902 21.174 6.59259 14.1108 13.9891 13.2829C14.5159 13.2233 14.9139 13.116 15.2309 12.6511C16.7825 10.3794 18.9181 8.93703 21.6021 8.28842C21.7451 8.25265 21.8666 8.12869 21.9977 8.04763C23.0728 8.04753 24.1478 8.04743 25.2205 8.04733L25.2205 8.04495ZM14.7538 33.997C12.2699 33.7922 10.0626 33.1155 8.20796 31.5639C7.7884 31.2135 7.58103 31.328 7.43567 31.7904C6.22274 35.6211 8.48529 40.3048 12.838 41.3341C13.3314 41.4509 13.6603 41.3412 13.5792 40.7382C13.2715 38.4069 13.6408 36.1829 14.7538 33.997ZM32.8664 23.5501C34.3037 23.5499 35.4718 23.9479 36.6374 24.3125C37.8555 24.6938 38.8925 25.4541 39.9128 26.2358C41.538 22.1596 39.0967 17.3066 34.9991 16.2892C34.3579 16.1295 34.0718 16.2106 34.1481 16.9519C34.3796 19.1997 34.1009 21.3713 32.8664 23.5501ZM14.7814 23.535C13.6823 21.3803 13.2602 19.3256 13.5604 17.1541C13.6961 16.1696 13.3433 16.0051 12.4686 16.3223C11.017 16.8492 9.73223 17.5811 8.7908 18.8398C7.27497 20.8636 6.72215 23.0853 7.38505 25.5499C7.47089 25.8693 7.53768 26.5511 8.14308 26.0433C10.0308 24.4604 12.2571 23.7641 14.7838 23.5374L14.7814 23.535ZM23.8222 18.4093C25.2689 16.0589 27.2257 14.5641 29.6808 13.6795C26.8892 10.1234 21.4115 9.82829 18.4418 12.9607C18.0008 13.4256 17.8721 13.6902 18.6206 13.9833C20.7875 14.8269 22.4538 16.307 23.8222 18.4093ZM39.9061 31.294C37.9063 32.9508 35.6229 33.8759 32.8912 34.0001C34.1047 36.1501 34.3838 38.3907 34.148 40.71C34.0694 41.4871 34.5223 41.356 34.999 41.2391C39.0869 40.24 41.5369 35.3723 39.9061 31.294ZM29.636 43.8712C28.5895 43.3874 27.5144 42.9656 26.6062 42.2482C25.7003 41.5308 24.8826 40.73 24.2413 39.7599C23.8432 39.1568 23.5548 39.4214 23.2497 39.8744C22.1224 41.543 20.6399 42.8065 18.7473 43.5123C17.8749 43.8365 17.9679 44.1178 18.5305 44.6565C21.4532 47.4522 26.8117 47.671 29.6384 43.8712L29.636 43.8712ZM22.4721 33.6626C22.4601 33.5529 22.4053 33.1882 22.3933 32.8211C22.3575 31.7604 21.8045 31.6198 20.9535 32.0013C19.9405 32.4567 18.9895 33.0241 18.2768 33.8775C16.6204 35.8633 15.5408 38.011 16.2657 40.7308C16.4493 41.422 16.6685 41.3386 17.1762 41.1907C20.2177 40.3013 22.4772 37.219 22.4721 33.6626ZM33.6628 26.358C31.0169 26.2772 29.3698 27.0949 27.8015 28.1081C27.1317 28.5396 27.4488 29.0712 27.8469 29.443C30.3619 31.7907 35.3247 31.7044 37.8655 29.3324C38.3708 28.8604 38.3159 28.5839 37.8272 28.1835C36.4088 27.0204 34.7879 26.4174 33.6628 26.3603L33.6628 26.358ZM14.4532 31.2439C16.5913 31.2318 18.2455 30.5952 19.709 29.4294C20.1786 29.0551 20.436 28.7429 19.8328 28.178C17.2392 25.7445 12.2931 25.7354 9.76897 28.1789C9.30181 28.6319 9.32567 28.9012 9.76908 29.3684C11.1255 30.7961 12.9205 30.9818 14.4532 31.2415L14.4532 31.2439ZM16.2254 18.3409C16.0421 21.2085 18.1377 24.636 21.2724 25.6082C21.9613 25.8227 22.1734 25.713 22.3354 25.0003C22.993 22.1231 21.5196 18.7361 18.7901 17.0868C18.1274 16.6864 17.3098 16.0334 16.6638 16.3338C15.9106 16.6843 16.3589 17.7497 16.223 18.3409L16.2254 18.3409ZM25.2362 23.844C25.2363 24.049 25.2291 24.2539 25.2363 24.4589C25.296 25.9154 25.4295 25.9916 26.8287 25.386C30.0274 24.0008 31.834 20.7851 31.3974 17.3002C31.2901 16.4492 31.0445 16.137 30.0792 16.4732C26.6587 17.6653 25.1192 21.0336 25.2339 23.844L25.2362 23.844ZM25.2229 33.9221C24.8894 36.5466 27.1948 40.1434 30.1744 41.0918C30.9873 41.3491 31.259 41.1632 31.3877 40.3837C31.9022 37.3135 30.3621 34.0814 27.6183 32.5442C25.4109 31.3072 25.2226 31.4145 25.2205 33.9245L25.2229 33.9221Z" fill="white"/>
    <path d="M67.7757 28.7641C67.7755 27.0383 67.8183 25.3125 67.7609 23.5891C67.7227 22.4521 68.526 22.8739 69.029 22.862C69.551 22.8476 70.3447 22.4995 70.2805 23.6175C70.2162 24.7235 70.2926 25.8343 70.257 26.9427C70.2379 27.5386 70.4668 27.6864 71.046 27.715C74.5691 27.9006 74.5691 27.9149 74.5688 24.4109C74.5686 22.809 74.9786 22.5158 76.59 22.8255C77.093 22.9232 77.0286 23.2116 77.0286 23.5311C77.029 27.0231 77.0269 30.5128 77.032 34.0049C77.0321 35.2683 76.0834 34.539 75.5828 34.6606C75.1204 34.7726 74.4935 34.8967 74.553 33.9718C74.6244 32.8252 74.548 31.6715 74.5789 30.5226C74.5932 30.0053 74.4453 29.7455 73.8923 29.8242C73.8518 29.829 73.8089 29.8243 73.7684 29.8243C71.434 29.7244 70.2668 30.8408 70.267 33.1737C70.2672 34.6468 69.6403 35.0783 68.16 34.6994C67.6523 34.5707 67.7858 34.2322 67.7833 33.9414C67.7713 32.2156 67.7759 30.4922 67.7757 28.7665L67.7757 28.7641Z" fill="white"/>
    <path d="M97.2378 28.7909C97.238 30.4738 97.1714 32.1614 97.2621 33.8419C97.3194 34.905 96.6568 34.7192 96.0823 34.6715C95.5364 34.6263 94.6641 35.0888 94.7354 33.8803C94.7997 32.8172 94.7233 31.7445 94.7566 30.6766C94.7756 30.0736 94.6326 29.7494 93.9413 29.8138C92.8067 29.9164 91.3288 29.3469 90.628 30.0501C90.0798 30.5984 90.459 32.0739 90.4495 33.137C90.4378 34.6911 89.9658 35.0297 88.3997 34.6985C87.8872 34.5889 87.9849 34.2766 87.9849 33.9715C87.9798 30.5223 88.0152 27.0708 87.9601 23.6216C87.9433 22.5108 88.6727 22.8349 89.1948 22.8587C89.6882 22.8801 90.5201 22.4247 90.4558 23.5737C90.3939 24.6797 90.487 25.7929 90.4275 26.8989C90.3918 27.5759 90.6517 27.6926 91.2666 27.7117C94.7444 27.8115 94.7635 27.8281 94.7298 24.3217C94.7202 23.3873 94.6391 22.7104 96.0121 22.7818C97.0776 22.8365 97.3088 23.1225 97.2541 24.107C97.1684 25.6635 97.2329 27.2272 97.2331 28.7885L97.2378 28.7909Z" fill="white"/>
    <path d="M158.842 28.7797C158.842 30.4221 158.759 32.0692 158.871 33.702C158.952 34.8819 158.244 34.6794 157.565 34.6795C156.928 34.6795 156.232 34.8679 156.347 33.7619C156.452 32.7464 156.327 31.7095 156.382 30.6869C156.423 29.9599 156.137 29.7621 155.455 29.8027C154.633 29.8504 153.801 29.8648 152.981 29.8005C152.182 29.7362 151.989 30.0747 152.022 30.797C152.07 31.8625 152.016 32.9304 152.039 33.9959C152.066 35.1543 151.196 34.6062 150.717 34.6491C150.245 34.6921 149.52 35.002 149.529 33.9651C149.565 30.4778 149.534 26.9905 149.548 23.5008C149.552 22.2899 150.501 22.9691 151.013 22.8547C151.493 22.7497 152.105 22.6448 152.048 23.5554C151.981 24.6185 152.06 25.6887 152.024 26.7543C152.003 27.4026 152.158 27.6839 152.902 27.71C156.368 27.836 156.37 27.8599 156.365 24.4298C156.365 23.5645 156.081 22.6635 157.619 22.773C158.663 22.8492 158.922 23.1018 158.868 24.0982C158.78 25.6524 158.844 27.2161 158.844 28.775L158.842 28.7797Z" fill="white"/>
    <path d="M102.203 28.7378C102.203 27.0955 102.234 25.4531 102.189 23.8132C102.169 23.1052 102.296 22.793 103.116 22.8191C105.135 22.8833 107.161 22.895 109.18 22.8138C110.1 22.7779 110.05 23.2475 110.031 23.8577C110.012 24.4656 110.191 25.1068 109.144 25.0211C107.998 24.9258 106.832 25.057 105.681 24.9809C104.825 24.9261 104.575 25.2598 104.687 26.0321C104.711 26.1918 104.711 26.3635 104.687 26.5232C104.556 27.4338 104.825 27.8842 105.867 27.7674C106.723 27.6719 107.605 27.8125 108.463 27.7314C109.45 27.6383 109.226 28.2795 109.273 28.8254C109.328 29.4571 109.223 29.8408 108.439 29.7646C107.743 29.698 107.033 29.7052 106.337 29.7648C105.798 29.8126 104.992 29.4169 104.773 29.9986C104.53 30.647 104.671 31.4574 104.723 32.1916C104.759 32.6802 105.219 32.5133 105.512 32.5181C106.749 32.5346 107.991 32.5822 109.224 32.5082C110.191 32.4485 110.034 33.0516 110.027 33.607C110.02 34.1385 110.249 34.744 109.252 34.7083C107.193 34.6346 105.126 34.6539 103.064 34.7041C102.328 34.7209 102.168 34.4587 102.185 33.7889C102.225 32.106 102.199 30.4231 102.199 28.7402L102.203 28.7378Z" fill="white"/>
    <path d="M118.469 22.8489C119.477 22.5723 119.851 23.0991 120.159 23.95C121.289 27.1035 122.496 30.2308 123.647 33.3772C123.795 33.78 124.2 34.3067 123.59 34.6477C122.97 34.9933 121.28 34.6074 121.228 34.1116C120.996 31.9591 119.602 31.8615 117.855 31.8974C116.684 31.9214 116.127 32.2385 115.929 33.3564C115.767 34.2741 115.35 34.7843 114.206 34.7367C113.121 34.6915 113.014 34.2935 113.309 33.4925C114.551 30.1195 115.833 26.7608 117.06 23.3806C117.356 22.5654 117.99 22.9467 118.471 22.8489L118.469 22.8489ZM118.436 26.1336C117.95 27.5925 117.585 28.689 117.218 29.7903L119.669 29.7901C119.275 28.6269 118.917 27.5638 118.436 26.1336Z" fill="white"/>
    <path d="M55.7214 28.6804C55.7212 27 55.7545 25.3171 55.7043 23.6366C55.6851 22.9739 55.9068 22.8166 56.5385 22.8284C58.6409 22.864 60.7433 22.8829 62.8457 22.8207C63.6585 22.7968 63.7181 23.1782 63.6514 23.7765C63.5895 24.3176 63.9448 25.0684 62.8506 25.0137C61.5754 24.9518 60.2953 25.0306 59.0177 24.9878C58.3932 24.9664 58.1786 25.1238 58.1668 25.7912C58.1312 27.8435 58.0978 27.8412 60.1025 27.841C60.5983 27.8409 61.1037 27.91 61.5852 27.8265C62.8008 27.6191 62.9415 28.2483 62.882 29.228C62.8439 29.8549 62.5817 29.9741 62.0383 29.9599C61.0085 29.9338 59.9764 29.9815 58.9466 29.9411C58.365 29.9173 58.1481 30.0842 58.172 30.6897C58.2174 31.7552 58.1412 32.823 58.1961 33.8885C58.263 35.2258 57.2737 34.5561 56.735 34.6681C56.1391 34.7922 55.6528 34.7541 55.698 33.8435C55.7837 32.1249 55.7216 30.3991 55.7214 28.6781L55.7214 28.6804Z" fill="white"/>
    <path d="M142.483 29.9351C142.483 31.2509 142.44 32.5667 142.495 33.8801C142.55 35.2149 141.571 34.5547 141.027 34.6644C140.424 34.7885 139.964 34.7384 139.988 33.835C140.057 31.2058 139.982 28.5742 140.03 25.945C140.044 25.1942 139.851 24.8819 139.072 24.9821C138.666 25.0346 138.237 24.9393 137.834 25.0013C136.738 25.1707 136.542 24.6487 136.573 23.6809C136.597 22.9443 136.852 22.8108 137.513 22.8203C139.992 22.8534 142.471 22.8699 144.947 22.8124C145.755 22.7933 145.836 23.1556 145.755 23.7611C145.684 24.2855 146.092 25.053 144.974 25.015C144.173 24.9888 143.074 24.6075 142.633 25.2035C142.232 25.7446 142.497 26.7767 142.485 27.5919C142.473 28.3714 142.483 29.1532 142.483 29.9351Z" fill="white"/>
    <path d="M127.637 28.7598C127.637 27.034 127.684 25.3082 127.62 23.5848C127.577 22.4406 128.378 22.8672 128.874 22.86C129.384 22.8505 130.146 22.4762 130.123 23.6036C130.063 26.1899 130.159 28.781 130.078 31.3673C130.045 32.3827 130.391 32.602 131.315 32.5423C132.467 32.4683 133.63 32.5659 134.781 32.511C135.775 32.4632 135.537 33.1331 135.549 33.6646C135.561 34.17 135.735 34.7253 134.822 34.7016C132.677 34.6446 130.527 34.6639 128.381 34.6974C127.781 34.707 127.611 34.5259 127.623 33.9371C127.659 32.2113 127.635 30.4855 127.635 28.7621L127.637 28.7598Z" fill="white"/>
</svg>
