<svg width="141" height="46" viewBox="0 0 141 46" fill="none" xmlns="http://www.w3.org/2000/svg">
    <g clip-path="url(#clip0_4655_8754)">
        <path d="M53.9909 32.7069C54.1567 33.6081 54.3638 34.4161 54.4208 35.2344C54.4415 35.5141 54.1256 36.0424 53.8925 36.0786C52.6443 36.2962 51.3495 36.6225 50.1116 36.493C48.1745 36.2962 47.2889 35.0842 47.2837 33.142C47.2733 29.8375 47.3044 26.528 47.2474 23.2235C47.2215 21.7319 46.6156 21.0948 45.4658 21.0534C44.2434 21.0068 43.5494 21.6646 43.3474 23.1044C43.306 23.4048 43.3422 23.7156 43.3422 24.0885C43.6685 24.1247 43.9637 24.1662 44.259 24.1921C44.5646 24.218 44.8753 24.2283 45.2793 24.2542V27.1598C44.663 27.2013 44.0984 27.2375 43.394 27.2893V36.3169H39.3127V27.3877C38.6653 27.2893 38.1577 27.2116 37.5776 27.1184V24.3008C38.08 24.2387 38.5462 24.1765 39.1781 24.0937C39.2039 23.6949 39.235 23.2753 39.2506 22.8506C39.3593 19.7586 40.7785 18.0856 43.8446 17.7076C45.01 17.5625 46.253 17.6402 47.408 17.8629C49.8319 18.3239 51.2614 20.0641 51.3132 22.5191C51.3702 25.2953 51.3236 28.0714 51.3339 30.8527C51.3443 32.9296 51.7794 33.2559 53.9961 32.7017L53.9909 32.7069Z" fill="white"/>
        <path d="M68.5811 23.3019C68.783 23.2086 68.8245 23.1724 68.8659 23.1724C71.1448 22.9376 72.6762 23.8837 73.46 26.0106C74.211 28.0306 74.9982 30.0402 75.7751 32.0497C75.801 32.1171 75.8839 32.1689 75.9668 32.2621C76.8421 30.4338 77.6086 28.6884 76.3604 26.6736C75.7233 25.6481 75.4126 24.431 74.9413 23.276C76.9647 22.9238 78.4718 24.1323 79.4628 26.9015C79.8047 25.9019 80.162 25.1198 80.3329 24.2963C80.5298 23.3226 81.0322 22.9911 81.9903 23.0999C82.5963 23.1672 83.2127 23.1102 84.0465 23.1102C83.4923 24.4672 83.1453 25.7102 82.5083 26.7875C81.3688 28.7039 82.0732 30.382 82.9796 32.3087C83.2748 31.6406 83.5338 31.1175 83.7409 30.5736C84.5386 28.476 85.3776 26.3887 86.0872 24.2652C86.3928 23.3433 86.8641 23.0118 87.8067 23.0999C88.594 23.1724 89.3916 23.1154 90.4067 23.1154C89.3709 25.6326 88.4127 27.9736 87.4494 30.3147C86.8278 31.8219 86.0716 33.2824 85.5951 34.831C85.1808 36.1829 84.4402 36.4936 83.0987 36.4833C81.8919 36.4729 81.2808 36.1725 80.9545 34.9864C80.6126 33.733 80.0377 32.5418 79.4628 31.0605C78.8309 32.7127 78.2612 34.0749 77.8054 35.4733C77.5568 36.2398 77.158 36.535 76.3656 36.447C75.7959 36.3848 75.2054 36.4884 74.6409 36.4107C74.356 36.3693 73.9624 36.1518 73.8588 35.9135C72.0875 31.7493 70.3576 27.5644 68.5914 23.3122L68.5811 23.3019Z" fill="white"/>
        <path d="M109.907 34.4996V41.7662H105.95V23.1931H109.332C109.368 23.7266 109.41 24.2341 109.436 24.6226C110.549 24.0632 111.632 23.2086 112.844 22.9756C115.894 22.3903 118.51 23.9286 119.587 26.8393C120.633 29.6673 120.374 32.4278 118.375 34.8C116.319 37.2394 112.906 37.3275 110.606 35.1314C110.456 34.9864 110.301 34.8518 109.907 34.4944V34.4996ZM109.928 29.5637C109.928 31.6665 111.269 33.2669 113.009 33.2462C114.646 33.2255 116.013 31.5888 115.987 29.6724C115.962 27.7509 114.615 26.3266 112.813 26.3266C110.927 26.3266 109.928 27.4505 109.928 29.5637Z" fill="white"/>
        <path d="M61.7444 22.8459C65.9448 22.82 68.8815 25.6116 68.9178 29.6722C68.954 33.7691 66.0018 36.6643 61.7703 36.685C57.6424 36.7006 54.5814 33.7898 54.5607 29.8328C54.5399 25.7463 57.4922 22.877 61.7444 22.8459ZM61.734 26.3264C59.9472 26.3419 58.7559 27.7455 58.7663 29.8224C58.7766 31.8217 60.0974 33.2926 61.8376 33.2408C63.5572 33.189 64.7536 31.7077 64.7329 29.6463C64.7121 27.673 63.4795 26.3057 61.734 26.3264Z" fill="white"/>
        <path d="M97.2073 22.8459C101.392 22.8718 104.344 25.7359 104.324 29.7603C104.308 33.8312 101.278 36.7109 97.052 36.685C92.9085 36.6591 89.9252 33.7535 89.9356 29.7499C89.9459 25.6686 92.9448 22.82 97.2073 22.8459ZM94.1723 29.7188C94.1619 31.8061 95.348 33.2253 97.1141 33.2408C98.8388 33.2512 100.056 31.8786 100.087 29.8794C100.118 27.7611 98.9839 26.3575 97.2125 26.3212C95.3946 26.285 94.1826 27.6368 94.1723 29.7188Z" fill="white"/>
        <path d="M120.696 34.5254C121.203 33.6087 121.628 32.8421 122.104 31.9824C122.493 32.1999 122.804 32.4174 123.151 32.5573C124.088 32.9354 125.015 33.3652 125.989 33.6139C126.833 33.8262 127.952 33.9764 128.252 32.9043C128.584 31.713 127.336 31.7338 126.621 31.4437C125.683 31.0604 124.684 30.8222 123.757 30.413C120.955 29.17 120.587 25.9433 123 24.0321C125.352 22.1727 129.708 22.4938 132.142 24.7624C131.681 25.5289 131.204 26.311 130.692 27.1501C129.868 26.7564 129.107 26.3162 128.294 26.0365C127.729 25.8397 127.061 25.7413 126.481 25.8449C126.056 25.9174 125.445 26.3421 125.383 26.6891C125.326 27.0154 125.797 27.6369 126.181 27.8026C127.31 28.2947 128.537 28.5692 129.682 29.025C131.681 29.8278 132.365 30.7963 132.297 32.5469C132.23 34.3182 131.246 35.7322 129.428 36.276C126.284 37.2187 123.42 36.5661 120.69 34.5254H120.696Z" fill="white"/>
        <path d="M133.96 32.3389H137.119V36.3321H133.96V32.3389Z" fill="white"/>
        <path d="M13.4108 22.5184C13.4108 19.9011 11.289 17.7793 8.6717 17.7793C6.05438 17.7793 3.93262 19.9011 3.93262 22.5184V31.2352C3.93262 33.8525 6.05438 35.9743 8.6717 35.9743C11.289 35.9743 13.4108 33.8525 13.4108 31.2352V22.5184Z" fill="white"/>
        <path d="M24.6293 22.5184C24.6293 19.9011 22.5075 17.7793 19.8902 17.7793C17.2729 17.7793 15.1511 19.9011 15.1511 22.5184V31.2352C15.1511 33.8525 17.2729 35.9743 19.8902 35.9743C22.5075 35.9743 24.6293 33.8525 24.6293 31.2352V22.5184Z" fill="#D9DCD9"/>
        <path d="M24.6293 27.0399C24.6293 24.4225 22.5075 22.3008 19.8902 22.3008C17.2729 22.3008 15.1511 24.4225 15.1511 27.0399V35.7567C15.1511 38.374 17.2729 40.4958 19.8902 40.4958C22.5075 40.4958 24.6293 38.374 24.6293 35.7567V27.0399Z" fill="white"/>
    </g>
    <defs>
        <clipPath id="clip0_4655_8754">
            <rect width="133" height="24.1201" fill="white" transform="translate(3.93262 17.6445)"/>
        </clipPath>
    </defs>
</svg>
