<svg width="192" height="53" viewBox="0 0 192 53" fill="none" xmlns="http://www.w3.org/2000/svg">
    <path d="M88.6227 37.1174C88.3312 37.185 88.1624 37.0561 88.0887 36.7431C88.0641 36.6326 87.9567 36.5467 87.8953 36.4423C87.8493 36.3626 87.8032 36.2736 87.7848 36.1846C87.751 36.0342 87.8093 35.8378 87.5607 35.8255C87.5423 35.8255 87.5178 35.7979 87.5086 35.7795C87.3858 35.4573 87.3213 35.1013 87.131 34.8251C86.9622 34.5796 86.8977 34.285 86.7351 34.064C86.4956 33.7418 86.3391 33.3919 86.1825 33.0329C86.0966 32.8365 85.9922 32.6462 85.8756 32.4652C85.7098 32.2074 85.5257 31.9619 85.3507 31.7103C85.3446 31.701 85.3323 31.6918 85.3292 31.6796C85.2003 31.3604 85.0959 31.032 84.9424 30.7282C84.792 30.4306 84.5833 30.1605 84.4145 29.872C84.3623 29.78 84.3592 29.6603 84.3163 29.5621C84.2702 29.4669 84.2027 29.381 84.1383 29.2982C84.1199 29.2736 84.0493 29.2583 84.0493 29.2491C84.1536 28.8654 83.773 28.6844 83.6809 28.3745C83.5827 28.0399 83.3494 27.7484 83.1806 27.4354C83.0332 27.1684 82.935 26.8615 82.7355 26.6375C82.5084 26.3828 82.5728 25.9654 82.2199 25.8028C82.1922 25.7905 82.1646 25.7506 82.1584 25.72C82.1246 25.4898 82.1032 25.3057 81.8791 25.1093C81.6581 24.9129 81.6458 24.4955 81.4954 24.1978C81.345 23.8971 81.1394 23.627 80.9613 23.3386C80.9245 23.2802 80.9061 23.2066 80.8692 23.1452C80.7004 22.8598 80.5286 22.5744 80.3567 22.2921C80.3444 22.2706 80.3198 22.2553 80.3106 22.2338C80.1847 21.9269 80.1234 21.5617 79.9147 21.3316C79.6783 21.0646 79.7642 20.638 79.4082 20.46C79.3683 20.4385 79.3591 20.3557 79.3406 20.2974C79.2792 20.1286 79.3529 19.8708 79.0552 19.8493C79.0399 19.8493 79.0214 19.8125 79.0153 19.791C78.8955 19.4657 78.8587 19.0514 78.6316 18.8335C78.3737 18.5819 78.4934 18.14 78.1159 17.9958C78.0791 17.9835 78.0822 17.8853 78.0545 17.8362C77.8919 17.5447 77.723 17.2531 77.5542 16.9616C77.5358 16.9309 77.5082 16.9033 77.4959 16.8695C77.3577 16.5473 77.2319 16.2189 77.0815 15.9028C77.0324 15.7985 76.9219 15.7187 76.7654 15.5469L100.062 15.5447C99.9513 15.7473 99.8531 15.9191 99.7641 16.0941C99.7181 16.1892 99.712 16.3058 99.6567 16.3918C99.4082 16.7693 99.1596 17.1376 99.0338 17.5918C98.9571 17.8711 98.6963 18.0982 98.5153 18.3468C98.5091 18.356 98.4968 18.3652 98.4907 18.3744C98.3557 18.6967 98.2392 19.0251 98.0827 19.3351C97.9354 19.6297 97.7451 19.9059 97.5733 20.1883C97.5487 20.2282 97.5119 20.2681 97.5027 20.311C97.4383 20.6916 97.2112 20.974 96.9596 21.2471C96.8061 21.4159 96.8707 21.6706 96.6467 21.8671C96.4042 22.0819 96.4257 22.576 96.1955 22.8246C95.9562 23.0824 96.036 23.5029 95.6831 23.6686C95.6463 23.6871 95.6371 23.773 95.6218 23.8313C95.5819 24.0124 95.6463 24.2517 95.3517 24.2733C95.3425 24.2733 95.3272 24.2947 95.3303 24.3009C95.4224 24.6845 95.0388 24.8687 94.956 25.1848C94.9038 25.3935 94.781 25.5899 94.6644 25.774C94.4956 26.0441 94.287 26.2866 94.1336 26.5659C93.9709 26.8605 93.8605 27.1828 93.7194 27.4866C93.6795 27.5725 93.6181 27.6493 93.5598 27.7229C93.5383 27.7475 93.4647 27.7628 93.4677 27.772C93.5414 28.1464 93.2192 28.3582 93.0842 28.6344C92.9216 28.9659 92.8756 29.371 92.538 29.6104C92.5104 29.6288 92.5012 29.6718 92.4859 29.7056C92.2711 30.1721 92.1515 30.7398 91.8078 31.0713C91.5439 31.3261 91.6298 31.6913 91.2953 31.9122C91.059 32.0688 91.0529 32.5445 90.8964 32.8514C90.7491 33.143 90.5344 33.4008 90.3503 33.6739C90.338 33.6923 90.3072 33.7046 90.298 33.7261C90.1753 34.0514 90.0802 34.3859 89.9299 34.6959C89.7918 34.9813 89.5985 35.2422 89.4267 35.5123C89.3285 35.6688 89.2088 35.8131 89.126 35.9757C88.9511 36.3348 88.7976 36.7001 88.6135 37.1144L88.6227 37.1174Z" fill="white"/>
    <path d="M131.974 26.4459C131.974 26.9584 131.986 27.474 131.971 27.9865C131.962 28.2596 132.02 28.545 131.744 28.7722C131.646 28.852 131.692 29.1036 131.667 29.2755C131.633 29.5057 131.735 29.7849 131.422 29.9231C131.372 29.9445 131.382 30.1072 131.366 30.2054C131.342 30.365 131.412 30.5767 131.145 30.6013C131.127 30.6013 131.096 30.6412 131.099 30.6535C131.198 31.0525 130.808 31.252 130.713 31.5804C130.624 31.8873 130.372 32.1512 130.173 32.4213C129.967 32.7037 129.759 32.9891 129.522 33.2408C129.163 33.6244 128.924 34.1093 128.408 34.3703C128.086 34.5329 127.871 34.892 127.583 35.1314C127.396 35.288 127.144 35.3708 126.951 35.5212C126.638 35.7668 126.245 35.8558 125.926 36.1136C125.653 36.3346 125.226 36.3746 124.864 36.482C124.695 36.5311 124.489 36.4606 124.404 36.7153C124.382 36.7736 124.183 36.7798 124.063 36.7982C123.713 36.8504 123.314 36.6909 123.029 37.053C122.986 37.1083 122.838 37.0929 122.737 37.0929C121.758 37.0961 120.782 37.1023 119.803 37.0901C119.668 37.0902 119.539 36.9643 119.401 36.9183C119.266 36.8723 119.122 36.8447 118.981 36.8171C118.665 36.7527 118.275 36.9553 118.057 36.5502C118.054 36.541 118.035 36.541 118.023 36.5379C117.615 36.4182 117.198 36.3293 116.805 36.1728C116.51 36.0562 116.246 35.8568 115.97 35.6911C115.93 35.6665 115.902 35.6082 115.863 35.599C115.476 35.5131 115.212 35.2553 114.93 34.9976C114.736 34.8165 114.451 34.7398 114.233 34.5803C114.067 34.4606 113.95 34.2795 113.803 34.1322C113.644 33.9696 113.472 33.8162 113.309 33.6535C113.156 33.497 113.002 33.3374 112.861 33.1687C112.664 32.9354 112.465 32.6992 112.296 32.4475C112.143 32.2174 112.035 31.9565 111.897 31.7141C111.725 31.4164 111.541 31.1279 111.363 30.8364C111.357 30.8272 111.345 30.818 111.342 30.8057C111.213 30.3699 111.09 29.9342 110.958 29.4984C110.899 29.3081 110.81 29.1301 110.752 28.9398C110.712 28.811 110.685 28.6729 110.678 28.5378C110.657 27.9854 110.657 27.433 110.623 26.8837C110.611 26.7149 110.506 26.5522 110.457 26.3834C110.436 26.3098 110.436 26.2238 110.457 26.1502C110.506 25.9691 110.608 25.7942 110.623 25.61C110.66 25.162 110.65 24.7078 110.675 24.2566C110.69 24.008 110.614 23.7196 110.908 23.563C110.917 23.5569 110.927 23.5415 110.927 23.5323C110.896 23.0781 111.098 22.6945 111.282 22.2986C111.378 22.096 111.264 21.7953 111.586 21.7032C111.605 21.697 111.614 21.6357 111.614 21.5988C111.614 21.1999 111.896 20.9666 112.129 20.7026C112.16 20.6658 112.197 20.6198 112.2 20.5737C112.218 20.2085 112.525 20.0581 112.737 19.8341C112.774 19.7942 112.807 19.7389 112.82 19.6837C112.887 19.34 113.179 19.1834 113.397 18.9624C113.657 18.6923 113.903 18.41 114.155 18.1337C114.194 18.0908 114.237 18.0294 114.287 18.0233C114.664 17.971 114.851 17.6733 115.1 17.437C115.284 17.259 115.554 17.1761 115.781 17.041C115.864 16.9919 115.928 16.9183 116.005 16.86C116.057 16.817 116.109 16.7556 116.168 16.7464C116.367 16.7095 116.518 16.6297 116.696 16.51C117.018 16.2921 117.447 16.2368 117.828 16.0987C117.972 16.0465 118.098 15.9483 118.242 15.89C118.353 15.8439 118.475 15.8194 118.595 15.804C119.025 15.7426 119.494 15.8929 119.872 15.5369C119.942 15.4694 120.114 15.5 120.24 15.5C120.866 15.4938 121.495 15.4876 122.121 15.4968C122.434 15.5029 122.735 15.4967 123.039 15.6992C123.251 15.8373 123.598 15.7698 123.883 15.8004C124.095 15.8219 124.353 15.7482 124.457 16.0398C124.463 16.0582 124.497 16.0827 124.515 16.0797C124.85 16.0397 125.095 16.2177 125.375 16.3711C125.712 16.5583 126.114 16.6227 126.461 16.7915C126.67 16.8927 126.826 17.0953 127.013 17.2487C127.066 17.2917 127.13 17.3377 127.194 17.35C127.535 17.4052 127.741 17.6261 127.925 17.8992C128.026 18.0496 128.207 18.1447 128.339 18.2797C128.628 18.5682 128.91 18.8659 129.196 19.1604C129.309 19.2771 129.401 19.4489 129.536 19.5041C130.006 19.7005 130.046 20.2314 130.39 20.5322C130.583 20.6979 130.571 21.1306 130.77 21.2564C131.12 21.4804 130.905 21.9714 131.289 22.1402C131.347 22.1678 131.344 22.3428 131.363 22.4532C131.399 22.6742 131.301 22.9473 131.614 23.0547C131.633 23.0609 131.642 23.1192 131.645 23.156C131.771 24.2025 132.139 25.2214 132.004 26.2986C131.998 26.3477 132.004 26.3998 132.004 26.4489C131.995 26.449 131.986 26.449 131.977 26.449L131.974 26.4459ZM128.856 26.3203C128.856 26.3203 128.85 26.3203 128.846 26.3203C128.846 25.7311 128.886 25.1388 128.831 24.5557C128.791 24.1414 128.625 23.7394 128.512 23.3343C128.505 23.3128 128.472 23.3036 128.459 23.2821C128.383 23.1348 128.303 22.9906 128.238 22.8402C128.189 22.7267 128.195 22.5579 128.113 22.4965C127.717 22.205 127.683 21.671 127.299 21.358C127.026 21.134 126.9 20.7043 126.612 20.5386C126.237 20.3208 126.047 19.8206 125.531 19.8298C125.501 19.8298 125.47 19.7623 125.436 19.7316C125.224 19.5291 125.037 19.2928 124.718 19.2499C124.644 19.2407 124.528 19.2437 124.509 19.2038C124.273 18.719 123.604 19.1057 123.371 18.6301C122.754 18.5994 122.146 18.4644 121.545 18.4001C120.793 18.3203 120.007 18.5352 119.237 18.6274C119.203 18.6304 119.172 18.6581 119.139 18.6734C118.93 18.7594 118.724 18.8484 118.513 18.9282C118.421 18.962 118.292 18.9528 118.233 19.0111C117.945 19.3149 117.528 19.3702 117.19 19.5789C117.141 19.6096 117.055 19.5943 117.018 19.6342C116.754 19.8982 116.512 20.1805 116.242 20.4383C115.864 20.7974 115.462 21.1289 115.091 21.4911C114.953 21.6261 114.836 21.798 114.756 21.973C114.612 22.286 114.505 22.6113 114.382 22.9336C114.373 22.955 114.348 22.9796 114.33 22.9796C114.063 23.0134 114.146 23.2282 114.118 23.3847C114.103 23.4676 114.106 23.618 114.075 23.6272C113.722 23.707 113.854 23.9955 113.815 24.2072C113.775 24.4282 113.772 24.6553 113.726 24.8732C113.676 25.1064 113.56 25.3274 113.538 25.5607C113.505 25.9075 113.526 26.2604 113.526 26.6133C113.526 26.8374 113.459 27.1166 113.563 27.2793C113.839 27.715 113.772 28.1877 113.83 28.648C113.843 28.7431 113.87 28.8997 113.919 28.9119C114.177 28.9702 114.107 29.1666 114.131 29.3262C114.143 29.4121 114.125 29.5165 114.165 29.5809C114.334 29.8479 114.641 30.0873 114.677 30.3665C114.751 30.9067 115.193 31.1491 115.469 31.4928C115.862 31.9868 116.442 32.3244 116.89 32.7816C117.191 33.0885 117.559 33.2296 117.919 33.4106C118.173 33.5395 118.532 33.5487 118.704 33.7359C118.993 34.052 119.33 33.9629 119.656 34.0151C119.766 34.0335 119.923 34.0089 119.981 34.0764C120.251 34.3741 120.601 34.2943 120.926 34.3034C121.301 34.3157 121.678 34.3064 122.056 34.2941C122.191 34.291 122.326 34.2542 122.458 34.2204C122.712 34.1529 122.964 34.0761 123.216 33.9994C123.624 33.8766 124.029 33.7507 124.434 33.6218C124.452 33.6157 124.468 33.588 124.48 33.5665C124.646 33.275 125.121 33.4437 125.223 33.0601C125.757 33.1061 125.901 32.5168 126.33 32.3726C126.478 32.3234 126.576 32.1239 126.689 31.9889C126.825 31.8262 126.935 31.639 127.088 31.5009C127.309 31.3045 127.543 31.1295 127.632 30.8257C127.656 30.7459 127.693 30.663 127.745 30.5955C127.886 30.4052 128.116 30.2364 128.165 30.0277C128.267 29.5888 128.693 29.2604 128.58 28.7602C128.573 28.7295 128.604 28.6927 128.616 28.6558C128.699 28.395 128.831 28.1341 128.853 27.8671C128.89 27.3546 128.865 26.839 128.865 26.3265L128.856 26.3203Z" fill="white"/>
    <path d="M54.231 26.3247C54.2309 25.5973 54.2155 24.87 54.24 24.1457C54.2461 23.9616 54.3811 23.7805 54.4578 23.5994C54.467 23.5779 54.4885 23.5503 54.4855 23.5319C54.378 22.9703 54.7615 22.5345 54.9211 22.0557C55.0223 21.7549 55.1083 21.3805 55.409 21.1196C55.6023 20.9508 55.6606 20.6347 55.7987 20.3922C55.8938 20.2234 56.0135 20.0608 56.1363 19.9104C56.3388 19.6648 56.5474 19.4254 56.7653 19.1922C57.0384 18.9037 57.3115 18.6152 57.603 18.3451C57.9467 18.0259 58.2905 17.7067 58.6648 17.4274C58.8889 17.2585 59.2878 17.2309 59.4044 17.0253C59.6038 16.6692 60.0765 16.8687 60.2237 16.5065C60.2421 16.4605 60.3833 16.4605 60.4662 16.439C60.6196 16.3991 60.8406 16.4727 60.8651 16.2057C60.8651 16.1842 60.9173 16.1535 60.948 16.1474C61.5035 16.0307 62.0589 15.9233 62.6113 15.7943C62.866 15.736 63.1085 15.6316 63.3601 15.5641C63.4921 15.5272 63.6302 15.5119 63.7683 15.5119C64.4588 15.5057 65.1493 15.4902 65.8368 15.5178C66.0792 15.527 66.3125 15.6712 66.5549 15.7141C66.8373 15.7663 67.1258 15.7755 67.4112 15.8092C67.6322 15.8368 67.8961 15.7447 68.025 16.0485C68.0465 16.0976 68.2061 16.0884 68.3012 16.1068C68.5406 16.1528 68.8505 16.03 68.9672 16.383C68.9733 16.4044 69.0316 16.4075 69.0685 16.4198C69.6547 16.5916 70.204 16.8186 70.6092 17.3096C70.6491 17.3557 70.7473 17.3587 70.8209 17.371C71.1217 17.4262 71.2844 17.6533 71.4655 17.8681C71.5852 18.0123 71.7172 18.1504 71.8645 18.2609C72.2144 18.5279 72.5305 18.8071 72.7791 19.1907C72.9663 19.4792 73.3254 19.651 73.5678 19.9118C73.7397 20.0959 73.8288 20.3537 73.9853 20.5563C74.2124 20.8509 74.2033 21.2897 74.5685 21.4984C74.6084 21.5199 74.5869 21.6395 74.6023 21.7132C74.633 21.8666 74.5532 22.0876 74.8264 22.1091C74.8448 22.1091 74.8724 22.1398 74.8754 22.1582C74.9921 22.5909 75.0996 23.0267 75.2193 23.4594C75.2961 23.7356 75.3912 24.0056 75.468 24.2788C75.4987 24.3862 75.514 24.4997 75.514 24.6102C75.5141 25.7887 75.5234 26.9672 75.5021 28.1456C75.5021 28.3206 75.3732 28.4955 75.2996 28.6674C75.2843 28.7011 75.2443 28.7349 75.2474 28.7625C75.3579 29.3333 74.9283 29.7814 74.8977 30.3216C74.8916 30.4075 74.8026 30.4873 74.7443 30.5671C74.7105 30.6132 74.6399 30.6439 74.6307 30.6899C74.5878 30.9139 74.5847 31.1011 74.3515 31.2945C74.1244 31.4848 74.0938 31.896 73.9312 32.1876C73.8176 32.3932 73.6274 32.5559 73.4678 32.7339C73.342 32.872 73.21 33.0009 73.0781 33.136C72.6792 33.5442 72.2771 33.9524 71.8813 34.3637C71.6204 34.6338 71.3872 34.9284 71.1018 35.1709C70.9085 35.3336 70.6476 35.4103 70.4267 35.5423C70.1167 35.7265 69.8191 35.9352 69.503 36.1101C69.2759 36.2329 69.0304 36.3802 68.7849 36.4018C68.1804 36.454 67.6955 36.9389 67.051 36.8346C66.8361 36.8009 66.5691 36.7641 66.428 37.0557C66.4034 37.1078 66.2439 37.1048 66.1457 37.1048C65.2066 37.1049 64.2644 37.1111 63.3253 37.0928C63.2026 37.0928 63.089 36.9639 62.9601 36.9179C62.8251 36.8719 62.6777 36.8535 62.5365 36.8228C62.2235 36.7553 61.8276 36.9794 61.6189 36.5559C61.6158 36.5497 61.5944 36.5497 61.5821 36.5467C61.1617 36.4301 60.732 36.3411 60.3299 36.1816C60.0353 36.065 59.7806 35.8532 59.5074 35.6845C59.4552 35.6538 59.4061 35.6078 59.3509 35.5955C58.9826 35.5188 58.7739 35.1935 58.4731 35.0401C58.2245 34.9143 58.0097 34.7547 57.7948 34.5952C57.6229 34.4663 57.4971 34.2791 57.3437 34.1257C57.1779 33.963 56.9968 33.8219 56.8341 33.6592C56.6807 33.5027 56.5426 33.3278 56.4014 33.159C56.2049 32.9227 55.9932 32.6987 55.8244 32.444C55.6709 32.2138 55.5788 31.9438 55.4407 31.7014C55.2749 31.4098 55.0877 31.1275 54.9097 30.8421C54.9035 30.8329 54.8913 30.8237 54.8882 30.8114C54.7623 30.4002 54.6211 29.992 54.5167 29.5747C54.4584 29.3445 54.5351 29.0898 54.2896 28.9026C54.2128 28.8412 54.225 28.6417 54.222 28.5067C54.2157 27.7793 54.2218 27.052 54.2218 26.3247L54.231 26.3247ZM72.4053 26.3659C72.304 25.5772 72.6323 24.7394 72.1566 23.9722C72.0092 23.7328 72.0706 23.4014 71.8619 23.1129C71.5334 22.6557 71.3554 22.091 71.0914 21.5816C71.0116 21.4251 70.8765 21.2931 70.7476 21.1704C70.4745 20.9034 70.189 20.6487 69.9097 20.3879C69.6918 20.1853 69.5445 19.8999 69.2069 19.8508C69.1332 19.8386 69.0596 19.7772 68.9982 19.725C68.7741 19.5379 68.5961 19.2862 68.2738 19.2525C68.2002 19.2464 68.0805 19.2402 68.0652 19.2003C67.9455 18.8904 67.6692 18.9549 67.436 18.915C67.3286 18.8966 67.1475 18.8812 67.1291 18.8229C67.0462 18.556 66.8344 18.6388 66.6626 18.6174C66.1132 18.5468 65.5425 18.6973 65.0146 18.4088C64.9256 18.3597 64.7721 18.415 64.6525 18.4396C64.4775 18.4764 64.3056 18.5562 64.1307 18.5716C63.7317 18.6054 63.3297 18.5993 62.9277 18.63C62.7835 18.6392 62.6331 18.6853 62.5012 18.7466C62.1759 18.8971 61.8659 19.0782 61.5406 19.2224C61.2306 19.3606 60.9084 19.4741 60.5923 19.6C60.5616 19.6123 60.5432 19.6522 60.5186 19.6767C60.3621 19.8425 60.2088 20.0113 60.043 20.1709C59.7577 20.441 59.4508 20.6926 59.1777 20.975C58.9475 21.2144 58.8002 21.5796 58.5301 21.7239C58.165 21.9203 58.1558 22.2978 58.0147 22.5648C57.8582 22.8595 57.5053 23.1511 57.6373 23.5776C57.6403 23.5899 57.6127 23.6298 57.5973 23.6329C57.269 23.6789 57.3826 23.9459 57.3519 24.1301C57.3151 24.351 57.3827 24.6334 57.2661 24.7899C56.996 25.1551 57.1127 25.5541 57.0575 25.9377C56.9103 26.9106 57.4044 27.8067 57.3769 28.7642C57.3769 28.8194 57.4106 28.9176 57.4444 28.9238C57.7267 28.9728 57.6317 29.2 57.6655 29.3657C57.6808 29.4485 57.6747 29.5467 57.7146 29.6143C57.8772 29.872 58.135 30.0991 58.2148 30.3784C58.3223 30.7651 58.6077 30.9584 58.8256 31.2376C59.1111 31.6059 59.4978 31.8667 59.7618 32.2165C60.1424 32.7259 60.6887 32.9868 61.1675 33.3274C61.5573 33.6035 62.0636 33.7355 62.5148 33.9288C62.9444 34.1129 63.4539 34.1466 63.9266 34.2662C65.0375 34.5454 66.13 34.134 67.2134 33.916C67.4405 33.87 67.6737 33.649 67.956 33.6398C67.9836 33.6398 68.0113 33.5937 68.0297 33.5661C68.1954 33.293 68.6097 33.4341 68.7785 33.0873C68.8306 32.9799 69.1682 33.0075 69.34 32.7681C69.5794 32.4366 69.9415 32.1941 70.2453 31.9056C70.3773 31.7828 70.4816 31.6263 70.6228 31.5158C70.8529 31.3286 71.08 31.1506 71.1751 30.8529C71.2028 30.7639 71.2794 30.6902 71.3346 30.6104C71.4666 30.4232 71.6415 30.2513 71.7213 30.0457C71.8808 29.6375 71.9851 29.2109 72.114 28.7935C72.1232 28.7597 72.1416 28.726 72.1539 28.6922C72.2306 28.4835 72.3656 28.2779 72.3779 28.0661C72.4085 27.5045 72.387 26.9398 72.3869 26.3751L72.4053 26.3659Z" fill="white"/>
    <path d="M15.64 36.7931L15.6381 15.8659C15.77 15.8475 15.856 15.8291 15.9388 15.8291C17.5807 15.8289 19.2226 15.8288 20.8645 15.847C21.0425 15.847 21.2174 15.9698 21.3954 16.025C21.4998 16.0587 21.6134 16.0863 21.7208 16.0894C22.221 16.1047 22.7243 16.0985 23.2245 16.1261C23.4486 16.1383 23.7463 16.0125 23.8476 16.3654C23.8506 16.3808 23.8937 16.3961 23.9121 16.393C24.4338 16.2856 24.8297 16.6937 25.3146 16.7366C25.4711 16.7519 25.689 16.6967 25.7105 16.9667C25.7105 16.9821 25.7442 17.0036 25.7657 17.0128C26.0972 17.1478 26.4317 17.2674 26.757 17.4147C26.9197 17.4884 27.107 17.5773 27.199 17.7154C27.4968 18.1696 28.0737 18.2831 28.3806 18.679C28.6446 19.0196 29.0896 19.2221 29.191 19.7101C29.2278 19.8819 29.4211 20.0231 29.5501 20.1734C29.7035 20.3545 29.8938 20.5141 30.0104 20.7135C30.1117 20.8885 30.167 21.0695 30.302 21.2475C30.5384 21.5544 30.5906 22.0024 30.7318 22.3891C30.7748 22.5057 30.8699 22.6039 30.9037 22.7236C30.9589 22.9231 30.9835 23.1318 31.0235 23.3343C31.0695 23.5614 30.9437 23.8499 31.266 23.9849C31.312 24.0033 31.3181 24.1445 31.3182 24.2274C31.3183 25.6176 31.3184 27.0109 31.3155 28.4011C31.3155 28.484 31.2909 28.5699 31.2572 28.6467C31.1897 28.8001 31.0731 28.9413 31.0363 29.104C30.9688 29.4047 31.0977 29.7515 30.7601 29.9817C30.6987 30.0216 30.7479 30.2027 30.7111 30.307C30.6528 30.4758 30.5699 30.6354 30.4932 30.795C30.4779 30.8257 30.4349 30.8441 30.4196 30.8779C30.2999 31.1449 30.2417 31.4702 30.0483 31.6666C29.72 32.0073 29.7261 32.572 29.2228 32.793C29.0632 32.8636 28.9835 33.1122 28.87 33.2841C28.5723 33.726 28.2225 34.1066 27.7438 34.3645C27.5627 34.4627 27.4216 34.6284 27.262 34.7665C27.084 34.92 26.9275 35.1011 26.728 35.2146C26.5623 35.3067 26.3935 35.319 26.2247 35.4878C26.0068 35.7088 25.614 35.758 25.2979 35.8838C25.1997 35.9237 25.1046 35.9728 25.0125 36.0219C24.9174 36.0741 24.8254 36.1693 24.7272 36.1785C23.8924 36.2553 23.1068 36.6574 22.2382 36.547C22.005 36.5163 21.7319 36.4918 21.5662 36.765C21.5416 36.8079 21.4281 36.8049 21.3544 36.8049C19.4762 36.805 17.5949 36.8052 15.6431 36.8054L15.64 36.7931ZM18.487 26.3124C18.4872 28.6448 18.4967 30.9741 18.4785 33.3065C18.4785 33.6687 18.7332 33.8957 18.9327 33.9141C19.6417 33.9724 20.3905 34.0521 21.0626 33.8802C21.6058 33.742 22.1337 33.7144 22.6707 33.6529C22.8058 33.6376 22.9438 33.6161 23.0727 33.5762C23.263 33.5148 23.4471 33.435 23.6343 33.3644C23.9688 33.2416 24.3064 33.1188 24.6409 32.996C24.6501 32.9929 24.6594 32.9806 24.6686 32.9714C24.8343 32.8057 24.9754 32.5418 25.1687 32.4957C25.583 32.3975 25.8255 32.155 26.0464 31.8297C26.1385 31.6946 26.2858 31.5964 26.4146 31.489C26.6448 31.2987 26.9149 31.1391 26.9793 30.8076C26.9916 30.7493 27.0038 30.6603 27.0437 30.6388C27.5194 30.3902 27.4886 29.8102 27.8323 29.4541C28.0348 29.2454 28.0869 28.8679 28.1483 28.558C28.271 27.9319 28.3845 27.2997 28.4427 26.6644C28.4826 26.2286 28.4427 25.8051 28.2892 25.357C28.0804 24.7617 28.2124 24.0773 27.8962 23.4758C27.7274 23.1566 27.6506 22.7914 27.5278 22.4477C27.5186 22.4201 27.4573 22.417 27.4389 22.3894C27.2823 22.1869 27.1258 21.9782 26.9723 21.7726C26.8188 21.567 26.6807 21.3491 26.5119 21.1558C26.3584 20.9809 26.1804 20.8274 26.0024 20.6771C25.7937 20.5022 25.5727 20.3426 25.3517 20.1861C25.2965 20.1462 25.1584 20.1677 25.1461 20.1309C25.0202 19.735 24.5814 19.8118 24.3205 19.6062C23.9952 19.3515 23.4765 19.3485 23.0438 19.2319C22.9855 19.2165 22.9302 19.192 22.875 19.1644C22.7246 19.0969 22.5773 18.9711 22.4269 18.9649C21.2638 18.9252 20.0975 18.9099 18.9313 18.8885C18.6244 18.8824 18.4771 18.9868 18.4802 19.352C18.4989 21.6691 18.4899 23.9892 18.4901 26.3093L18.487 26.3124Z" fill="white"/>
    <path d="M101.348 15.487L101.851 15.487C104.371 15.4868 106.89 15.4865 109.41 15.4863C109.523 15.4863 109.637 15.4863 109.748 15.5016C109.824 15.5139 109.898 15.563 109.972 15.5937C109.929 15.655 109.886 15.7195 109.843 15.7809C109.815 15.8177 109.766 15.8484 109.754 15.8883C109.646 16.3302 109.386 16.6863 109.131 17.0546C108.968 17.2909 108.965 17.7021 108.763 17.8341C108.431 18.049 108.625 18.5338 108.235 18.6597C108.216 18.6658 108.204 18.6965 108.195 18.718C108.072 19.0433 107.98 19.384 107.827 19.6909C107.686 19.9733 107.477 20.2249 107.299 20.4889C107.287 20.5073 107.25 20.5134 107.244 20.5349C107.127 20.8265 107.02 21.1211 106.894 21.4065C106.808 21.5999 106.704 21.7871 106.593 21.9682C106.431 22.2352 106.259 22.4961 106.087 22.757C106.075 22.7754 106.044 22.7876 106.035 22.8061C105.897 23.1375 105.783 23.4843 105.621 23.8004C105.476 24.0828 105.271 24.3345 105.102 24.6076C105.059 24.6751 105.065 24.7733 105.025 24.847C104.958 24.9698 104.878 25.0864 104.798 25.203C104.786 25.2214 104.743 25.2368 104.743 25.2429C104.841 25.6143 104.485 25.7892 104.378 26.0746C104.274 26.3539 104.071 26.5964 103.915 26.8542C103.789 27.0629 103.648 27.2624 103.543 27.4803C103.393 27.7964 103.273 28.1279 103.132 28.4471C103.095 28.533 103.019 28.6005 102.957 28.6773C102.923 28.7202 102.859 28.7601 102.853 28.8062C102.822 29.0271 102.795 29.1867 102.571 29.3647C102.353 29.5366 102.334 29.9509 102.19 30.2394C102.034 30.5525 101.834 30.844 101.653 31.1448C101.629 31.1847 101.579 31.2154 101.573 31.2553C101.521 31.6481 101.309 31.9458 101.024 32.2006C101.015 32.2098 101.006 32.219 101 32.2313C100.874 32.5505 100.769 32.8789 100.616 33.1827C100.472 33.4712 100.278 33.7351 100.104 34.0083C100.091 34.0298 100.061 34.039 100.054 34.0605C99.9225 34.3919 99.812 34.7326 99.6525 35.0518C99.5144 35.328 99.3242 35.5766 99.1554 35.8344C99.1309 35.8743 99.0818 35.9111 99.0818 35.951C99.0726 36.4329 98.6338 36.6753 98.4558 37.0651C98.4374 37.1081 98.2011 37.1204 98.1796 37.0805C98.0354 36.8381 97.9801 36.5189 97.7898 36.3348C97.5381 36.0862 97.6485 35.6381 97.2649 35.4909C97.2556 35.4878 97.2373 35.4724 97.2404 35.4663C97.317 35.095 96.9211 34.9231 96.8689 34.6009C96.8505 34.4935 96.7461 34.3953 96.6786 34.2971C96.6602 34.2695 96.6172 34.2511 96.6049 34.2234C96.4699 33.892 96.3624 33.5483 96.2028 33.2291C96.0555 32.9407 95.8437 32.689 95.6779 32.4098C95.5398 32.1765 95.46 31.9034 95.2973 31.6917C95.0763 31.4032 95.0824 30.992 94.7663 30.7618C94.7479 30.7496 94.7387 30.7219 94.7295 30.6974C94.6006 30.3752 94.487 30.0468 94.3397 29.7338C94.2568 29.5558 93.9529 29.4914 94.0634 29.2121C94.1002 29.1231 94.1585 29.0402 94.2137 28.9604C94.2413 28.9236 94.3089 28.9144 94.3242 28.8745C94.4592 28.5676 94.5113 28.1778 94.7323 27.9691C95.0085 27.7082 94.8796 27.2786 95.2355 27.079C95.3767 26.9992 95.4534 26.7875 95.5332 26.6217C95.6743 26.3271 95.7817 26.0141 95.9351 25.7225C96.0886 25.4279 96.2788 25.1547 96.4568 24.8724C96.4752 24.8417 96.5243 24.8294 96.5366 24.7987C96.6593 24.4764 96.7759 24.1511 96.9017 23.8289C96.9293 23.7583 96.9846 23.7 97.0275 23.6355C97.0797 23.5557 97.1503 23.4821 97.1779 23.3961C97.227 23.2427 97.1594 23.0309 97.4264 23.0094C97.4571 23.0094 97.4693 22.8805 97.5031 22.8191C97.6596 22.5429 97.8191 22.2698 97.9756 21.9966C98.0186 21.9229 98.0554 21.8493 98.0892 21.7726C98.2211 21.4687 98.2701 21.0268 98.5003 20.8917C98.844 20.6892 98.5984 20.1767 99.0311 20.0999C99.0526 20.0968 99.0465 19.9587 99.0618 19.8881C99.0956 19.747 99.0219 19.5352 99.2858 19.5383C99.3104 19.5383 99.3411 19.4922 99.3533 19.4615C99.4791 19.1577 99.5773 18.8416 99.7277 18.55C99.8872 18.2431 100.111 17.973 100.28 17.6722C100.418 17.4236 100.519 17.1536 100.639 16.8927C100.673 16.8221 100.719 16.7576 100.759 16.6932C100.817 16.6011 100.894 16.5183 100.931 16.417C100.98 16.2819 100.897 16.1162 101.148 16.0487C101.247 16.0211 101.271 15.708 101.345 15.4778L101.348 15.487Z" fill="white"/>
    <path d="M141.162 28.1059C141.129 28.3023 141.067 28.5018 141.067 28.6982C141.062 31.1687 141.065 33.6392 141.065 36.1097L141.065 36.7695L137.968 36.7698L137.968 36.1898C137.968 29.6069 137.967 23.024 137.967 16.4411C137.967 15.8365 137.967 15.8365 138.565 15.8364C139.694 15.8363 140.821 15.8301 141.95 15.8423C142.094 15.8423 142.235 15.9404 142.38 15.9865C142.496 16.0233 142.613 16.0693 142.73 16.0754C143.23 16.0938 143.733 16.0907 144.233 16.1121C144.476 16.1213 144.774 16.0139 144.902 16.3545C144.909 16.3698 144.948 16.3852 144.967 16.3821C145.473 16.2685 145.848 16.6674 146.311 16.7441C146.572 16.7871 146.814 16.9896 147.045 17.1461C147.29 17.3149 147.53 17.499 147.741 17.7046C147.947 17.901 148.125 18.1281 148.297 18.3551C148.444 18.5515 148.567 18.7664 148.699 18.9781C148.773 19.0947 148.846 19.2113 148.911 19.3341C149.003 19.509 149.089 19.6901 149.175 19.8681C149.19 19.9018 149.224 19.9294 149.227 19.9632C149.405 20.9575 149.712 21.9549 149.47 22.9677C149.378 23.3482 149.292 23.7257 149.206 24.1063C149.132 24.4224 148.881 24.6986 148.709 24.9902C148.678 25.0424 148.638 25.0976 148.626 25.1559C148.571 25.4935 148.316 25.693 148.104 25.9232C148.058 25.9754 148.04 26.0552 147.994 26.1073C147.892 26.224 147.788 26.3437 147.675 26.448C147.46 26.6414 147.248 26.8409 147.018 27.0128C146.84 27.1478 146.647 27.2706 146.444 27.3535C146.113 27.4916 145.766 27.5899 145.428 27.7157C145.327 27.7526 145.149 27.8262 145.152 27.8661C145.167 28.0349 145.232 28.2006 145.299 28.3602C145.336 28.4492 145.441 28.5106 145.471 28.5996C145.579 28.8942 145.778 29.0967 146.012 29.2931C146.156 29.4128 146.269 29.5754 146.368 29.7381C146.503 29.9652 146.589 30.2199 146.733 30.4408C146.892 30.6863 147.132 30.8889 147.261 31.1466C147.466 31.5517 147.967 31.7419 148.022 32.2575C148.037 32.4079 148.197 32.5736 148.332 32.6749C148.645 32.9081 148.826 33.2088 148.97 33.5648C149.044 33.7489 149.253 33.8748 149.397 34.0313C149.443 34.0804 149.501 34.1356 149.517 34.197C149.597 34.5376 149.842 34.7401 150.097 34.9488C150.226 35.0531 150.345 35.2096 150.391 35.3662C150.511 35.762 150.766 36.0352 151.067 36.3021C151.156 36.3819 151.122 36.6029 151.15 36.8054L148.971 36.8056C148.658 36.8057 148.342 36.7873 148.032 36.8119C147.676 36.8395 147.516 36.6278 147.363 36.3669C147.286 36.235 147.175 36.1214 147.062 36.0171C146.712 35.6918 146.672 35.1271 146.196 34.9062C146.169 34.8939 146.135 34.854 146.135 34.8264C146.119 34.4029 145.803 34.185 145.549 33.9089C145.371 33.7155 145.3 33.4271 145.159 33.1938C145.051 33.0158 144.901 32.8624 144.781 32.6875C144.588 32.4082 144.416 32.1136 144.213 31.8436C143.943 31.4845 143.645 31.147 143.375 30.7879C143.222 30.5823 143.124 30.3337 142.961 30.1374C142.737 29.8704 142.639 29.5359 142.396 29.2628C142.191 29.0295 142.01 28.7411 141.785 28.5048C141.641 28.3513 141.469 28.2255 141.307 28.0905C141.258 28.0997 141.212 28.1089 141.162 28.1212L141.162 28.1059ZM141.092 25.4881C141.939 25.488 142.777 25.5708 143.581 25.4479C143.927 25.3957 144.296 25.2024 144.679 25.1471C144.713 25.1409 144.747 25.1164 144.774 25.0949C144.986 24.9414 145.189 24.7665 145.413 24.6345C145.766 24.4258 146.091 24.2078 146.115 23.7475C146.115 23.7137 146.137 23.6493 146.152 23.6493C146.517 23.6186 146.379 23.327 146.419 23.1367C146.499 22.7501 146.569 22.3603 146.637 21.9736C146.646 21.9276 146.637 21.8754 146.628 21.8294C146.557 21.5102 146.447 21.1941 146.422 20.8719C146.397 20.5404 146.109 20.4146 145.971 20.1722C145.882 20.0126 145.636 19.942 145.532 19.7855C145.305 19.4541 145.025 19.2608 144.62 19.2424C144.51 19.2363 144.338 19.224 144.304 19.1596C144.148 18.865 143.881 18.9448 143.647 18.9295C143.16 18.9019 142.672 18.8989 142.184 18.8928C141.825 18.8867 141.465 18.8928 141.088 18.8929L141.089 25.4911L141.092 25.4881Z" fill="white"/>
    <path d="M170.935 36.779L166.89 36.7794C166.746 36.5952 166.626 36.4265 166.494 36.27C166.197 35.9171 165.831 35.601 165.61 35.2051C165.399 34.8277 165.021 34.6067 164.852 34.1771C164.723 33.8487 164.346 33.6217 164.094 33.3332C163.935 33.1491 163.809 32.9312 163.658 32.7409C163.49 32.523 163.305 32.3174 163.127 32.1057C163.002 31.9553 162.866 31.8142 162.744 31.6607C162.437 31.2833 162.059 30.9365 161.844 30.51C161.642 30.108 161.154 29.9331 161.092 29.4298C161.074 29.2763 160.89 29.1321 160.758 29.0032C160.42 28.6718 160.046 28.3772 159.843 27.9292C159.766 27.7573 159.638 27.6069 159.518 27.4627C159.493 27.432 159.38 27.4474 159.328 27.4781C159.217 27.5456 159.082 27.6162 159.033 27.7206C158.916 27.9722 158.646 28.1042 158.652 28.4694C158.683 31.0136 158.668 33.5608 158.669 36.105C158.669 36.3167 158.669 36.5254 158.669 36.7679C158.503 36.7771 158.383 36.7894 158.263 36.7924C157.585 36.7925 156.91 36.7926 156.232 36.7926C155.787 36.7927 155.544 36.5533 155.544 36.1083C155.544 29.5745 155.543 23.0407 155.543 16.51C155.543 16.0773 155.797 15.8164 156.221 15.8163C157.009 15.8163 157.798 15.8162 158.679 15.8161L158.68 24.1545C158.726 24.1667 158.769 24.179 158.815 24.1943C159.459 23.5467 160.168 22.9452 160.723 22.23C161.138 21.6991 161.62 21.2602 162.083 20.7875C162.338 20.5297 162.516 20.2044 162.767 19.9435C163.007 19.6918 163.304 19.4954 163.559 19.259C163.722 19.1056 163.847 18.9183 164.001 18.7526C164.145 18.5991 164.308 18.461 164.452 18.3076C164.615 18.1388 164.762 17.9546 164.924 17.7827C165.053 17.6446 165.185 17.5126 165.323 17.3868C165.698 17.04 166.084 16.7054 166.45 16.3494C166.597 16.2082 166.695 16.021 166.833 15.8675C166.873 15.8246 166.968 15.8184 167.039 15.8184C168.18 15.8183 169.322 15.8151 170.461 15.8181C170.577 15.8181 170.691 15.861 170.838 15.8917C170.494 16.2846 170.206 16.6498 169.881 16.9782C169.623 17.2391 169.298 17.4355 169.043 17.6964C168.687 18.0617 168.38 18.476 168.027 18.8443C167.773 19.1083 167.466 19.317 167.199 19.5687C167.045 19.716 166.932 19.9063 166.794 20.0689C166.686 20.1948 166.576 20.3145 166.453 20.4219C166.171 20.6736 165.861 20.8946 165.594 21.1647C165.342 21.4194 165.143 21.7202 164.91 21.9903C164.793 22.1222 164.652 22.2327 164.52 22.3524C164.142 22.6962 163.725 23.0031 163.397 23.3899C163.12 23.7152 162.826 24.0068 162.501 24.2769C162.252 24.4825 162.031 24.725 161.81 24.9613C161.626 25.1577 161.761 25.6457 161.967 25.8359C162.231 26.0784 162.464 26.3638 162.676 26.6553C162.872 26.9223 163.023 27.2015 163.296 27.4225C163.572 27.6465 163.75 27.9902 163.968 28.2848C164.195 28.5917 164.395 28.9231 164.646 29.2085C164.883 29.4754 165.18 29.6872 165.435 29.9388C165.573 30.0738 165.714 30.2303 165.785 30.4053C165.92 30.7398 166.19 30.9392 166.42 31.1909C166.801 31.6082 167.092 32.1053 167.436 32.5534C167.574 32.7344 167.765 32.8756 167.924 33.0382C168.032 33.1487 168.142 33.2592 168.231 33.3819C168.394 33.6059 168.541 33.8422 168.701 34.0662C168.824 34.2412 168.94 34.4222 169.087 34.5726C169.422 34.9163 170.07 35.5177 170.291 36.0486C170.364 36.2266 170.573 36.3463 170.714 36.4967C170.776 36.5611 170.825 36.6378 170.935 36.7759L170.935 36.779Z" fill="white"/>
    <path d="M40.7575 18.9689C40.7577 20.5065 40.7547 21.9734 40.761 23.4373C40.761 23.6921 41.0956 23.9437 41.3933 23.9436C43.7257 23.9434 46.058 23.9432 48.3935 23.943C48.5408 23.943 48.6881 23.943 48.8539 23.943L48.8541 26.7879C48.6823 26.7879 48.535 26.7879 48.3877 26.7879C46.0553 26.7881 43.7229 26.7884 41.3874 26.7886C40.7552 26.7886 40.7552 26.7886 40.7552 27.4086C40.7554 29.3665 40.7556 31.3215 40.7558 33.2795C40.7558 33.6661 41.0382 33.9454 41.431 33.9454C43.7757 33.9451 46.1234 33.9449 48.4681 33.9447C48.6891 33.9447 48.9132 33.9723 49.1464 33.9845L49.1467 36.7742L37.9204 36.7753L37.9185 15.8174C38.0934 15.8174 38.2192 15.8174 38.3419 15.8173C41.7546 15.817 45.1642 15.8167 48.5769 15.8164C49.1692 15.8163 49.1723 15.8163 49.1723 16.4209C49.1724 17.0347 49.1725 17.6516 49.1725 18.2654C49.1726 18.695 48.9946 18.873 48.5618 18.8731C46.2049 18.8733 43.8449 18.8735 41.4879 18.8768C41.2547 18.8768 41.0215 18.929 40.7575 18.9597L40.7575 18.9689Z" fill="white"/>
    <path d="M177.116 30.505C177.131 30.7904 177.122 31.0206 177.168 31.2384C177.208 31.4287 177.315 31.6036 177.389 31.7878C177.416 31.8553 177.429 31.9289 177.453 31.9995C177.57 32.3248 177.594 32.7606 177.825 32.9478C178.328 33.3621 178.721 33.9021 179.476 34.0678C180.004 34.1813 180.513 34.2979 181.047 34.2794C181.219 34.2733 181.388 34.1474 181.56 34.0799C181.627 34.0523 181.695 34.0216 181.765 34.0185C182.229 34.0031 182.551 33.7637 182.849 33.4261C183.091 33.1499 183.392 32.9258 183.668 32.6772C183.677 32.668 183.693 32.6618 183.696 32.6526C183.812 32.2905 183.99 31.9314 184.033 31.56C184.091 31.026 184.039 30.4828 184.054 29.9427C184.067 29.4916 183.821 29.1847 183.533 28.884C183.388 28.7336 183.321 28.5034 183.164 28.3653C182.802 28.0431 182.431 27.7209 182.019 27.4693C181.703 27.276 181.283 27.2515 180.976 27.049C180.641 26.828 180.166 26.8987 179.926 26.512C179.917 26.4936 179.883 26.4905 179.862 26.4813C179.512 26.3586 179.15 26.2666 178.815 26.1101C178.539 25.9812 178.297 25.7817 178.042 25.613C178.011 25.5946 177.984 25.5516 177.953 25.5516C177.397 25.5394 177.115 25.0392 176.691 24.7968C176.366 24.6096 175.955 24.3089 175.86 23.8056C175.823 23.6092 175.605 23.4465 175.482 23.2624C175.405 23.1458 175.344 23.0169 175.286 22.8911C175.197 22.7008 175.108 22.5105 175.037 22.3141C174.991 22.1883 174.96 22.0471 174.96 21.9121C174.951 21.2738 174.942 20.6323 174.966 19.994C174.972 19.8221 175.104 19.6564 175.175 19.4845C175.193 19.4385 175.212 19.3925 175.227 19.3464C175.368 18.9475 175.482 18.5393 175.663 18.1587C175.752 17.9684 175.96 17.8334 176.111 17.6707C176.258 17.5111 176.384 17.33 176.543 17.1858C176.737 17.0108 176.958 16.8666 177.166 16.71C177.384 16.5473 177.605 16.3877 177.823 16.2251C177.851 16.2036 177.863 16.1514 177.891 16.1422C178.305 16.0194 178.725 15.9058 179.14 15.7799C179.339 15.7185 179.529 15.6265 179.729 15.562C179.846 15.5252 179.971 15.4975 180.094 15.4944C180.659 15.4852 181.223 15.4759 181.785 15.4943C181.939 15.5004 182.083 15.617 182.239 15.6661C182.393 15.7121 182.552 15.7367 182.709 15.7704C182.97 15.8256 183.307 15.6721 183.449 16.0496C183.455 16.0711 183.516 16.0834 183.55 16.0772C183.973 16.0342 184.164 16.3871 184.44 16.5927C184.664 16.7554 184.912 16.8873 185.127 17.0622C185.311 17.2126 185.468 17.3998 185.621 17.5839C185.907 17.9276 186.177 18.2866 186.466 18.6273C186.576 18.7592 186.527 19.0876 186.355 19.1674C186.051 19.3086 185.732 19.4222 185.441 19.5849C185.25 19.6892 185.094 19.8611 184.922 19.9992C184.858 20.0514 184.787 20.1005 184.713 20.1373C184.551 20.2171 184.385 20.2877 184.173 20.3829C184.09 20.1712 183.691 20.1037 183.71 19.6986C183.716 19.5881 183.538 19.4561 183.421 19.3579C183.047 19.0449 182.758 18.5969 182.191 18.5663C182.052 18.5601 181.914 18.462 181.788 18.3822C181.546 18.2287 180.53 18.2964 180.285 18.4774C180.214 18.5296 180.107 18.5603 180.015 18.5603C179.557 18.5542 179.257 18.8029 178.974 19.1282C178.735 19.4044 178.437 19.6285 178.176 19.8863C178.124 19.9354 178.115 20.0428 178.112 20.1226C178.1 20.5492 178.121 20.9758 178.088 21.3993C178.054 21.8504 178.287 22.1235 178.612 22.3782C178.784 22.5133 178.901 22.7127 179.045 22.8846C179.076 22.9214 179.104 22.9674 179.143 22.9828C179.45 23.1086 179.874 23.1423 180.046 23.3663C180.304 23.7069 180.834 23.4215 180.967 23.8757C180.967 23.8849 180.988 23.8879 180.997 23.891C181.369 24.0045 181.746 24.1058 182.108 24.2408C182.265 24.2991 182.387 24.4556 182.544 24.52C182.885 24.6611 183.25 24.747 183.584 24.9066C183.848 25.0324 184.085 25.2257 184.324 25.4037C184.609 25.6154 184.861 25.8947 185.171 26.0542C185.546 26.2445 185.8 26.4992 185.984 26.8674C186.086 27.07 186.288 27.2234 186.445 27.3983C186.46 27.4167 186.491 27.4259 186.497 27.4474C186.632 27.8679 186.761 28.2944 186.902 28.7118C186.964 28.8959 187.062 29.0678 187.132 29.2519C187.163 29.3286 187.188 29.4146 187.188 29.4943C187.191 30.234 187.197 30.9736 187.179 31.7132C187.179 31.836 187.065 31.9557 187.001 32.0754C186.973 32.1275 186.909 32.1858 186.918 32.2257C187.059 32.7352 186.691 33.1219 186.495 33.481C186.35 33.7449 186.326 34.1101 186.001 34.3342C185.681 34.5552 185.506 34.9787 185.236 35.2826C185.049 35.4913 184.813 35.6601 184.586 35.8289C184.307 36.0346 184.015 36.2249 183.724 36.4121C183.665 36.4489 183.573 36.4305 183.515 36.4674C183.131 36.6914 182.637 36.6853 182.306 36.8726C181.968 37.0659 181.671 37.069 181.351 37.0844C180.762 37.109 180.173 37.0968 179.584 37.0846C179.335 37.0785 179.08 37.1368 178.875 36.8667C178.795 36.7624 178.522 36.8115 178.338 36.7809C178.126 36.7471 177.843 36.873 177.761 36.5262C177.751 36.4924 177.616 36.5047 177.558 36.4679C177.297 36.3083 177.039 36.1396 176.782 35.9769C176.732 35.9463 176.686 35.9002 176.631 35.8849C176.3 35.7806 176.112 35.5167 175.882 35.2804C175.609 35.0042 175.416 34.6973 175.207 34.3812C174.955 34.0007 174.848 33.5373 174.587 33.2151C174.292 32.853 174.483 32.3865 174.255 32.1471C173.964 31.8403 174.053 31.5364 174.022 31.2265C173.998 30.9748 174.12 30.8336 174.396 30.8367C174.636 30.8397 174.875 30.8458 175.108 30.8059C175.28 30.7783 175.44 30.6801 175.603 30.6156C175.658 30.5941 175.713 30.5573 175.768 30.5542C176.204 30.5296 176.64 30.5112 177.116 30.4896L177.116 30.505Z" fill="white"/>
    <path d="M4.71252 15.8486L7.74461 15.8484L7.74656 36.7909L4.71447 36.7912L4.71252 15.8486Z" fill="white"/>
</svg>
