<svg width="137" height="53" viewBox="0 0 137 53" fill="none" xmlns="http://www.w3.org/2000/svg">
    <path d="M31.9837 19.9857C30.7914 20.3691 29.747 21.0204 28.7526 21.8722L28.7526 21.509C28.7524 18.8237 28.7496 16.1385 28.7569 13.4533C28.7568 13.2354 28.7067 13.1703 28.4813 13.1728C27.6146 13.1879 26.7454 13.1905 25.8788 13.173C25.6183 13.1681 25.5781 13.2507 25.5782 13.4862C25.5861 18.6312 25.5841 23.7787 25.5871 28.9236C25.5871 29.3144 25.6047 29.7077 25.6498 30.0959C25.8855 32.1424 26.7348 33.8982 28.1577 35.3885C30.7304 38.081 33.8716 38.9599 37.4385 38.0954C41.9096 37.0128 45.724 32.2883 44.1855 26.4271C42.9025 21.5427 37.6671 18.1541 31.9837 19.9832L31.9837 19.9857ZM35.036 35.22C31.5543 35.2504 28.6784 32.2498 28.7408 28.9108C28.8081 25.4241 31.5656 22.6384 35.0474 22.6381C38.5592 22.6377 41.3699 25.4479 41.3627 28.9547C41.3555 32.444 38.5428 35.2297 35.0335 35.2225L35.036 35.22Z" fill="white"/>
    <path d="M126.605 19.6085C125.53 19.6161 124.458 19.6238 123.384 19.6063C123.113 19.6013 123.068 19.6915 123.068 19.9345C123.076 23.7218 123.074 27.5067 123.072 31.294C123.072 31.3992 123.102 31.512 123.032 31.6397C118.47 27.442 113.918 23.2518 109.321 19.0215L109.321 19.2119C109.322 25.5617 109.323 31.914 109.318 38.2639C109.318 38.4492 109.371 38.4993 109.551 38.4968C110.616 38.4892 111.68 38.4841 112.745 38.4965C112.993 38.499 113.073 38.4438 113.07 38.1783C113.06 34.5688 113.062 30.9593 113.064 27.3523C113.064 27.2596 113.032 27.1569 113.105 27.0643C117.674 31.1718 122.233 35.2693 126.822 39.3944C126.835 39.3042 126.84 39.2767 126.84 39.2516C126.839 32.7791 126.839 26.309 126.843 19.8364C126.843 19.6436 126.775 19.606 126.6 19.6085L126.605 19.6085Z" fill="white"/>
    <path d="M97.7092 19.5267C92.6869 19.4896 88.2061 23.8134 88.2968 28.9834C88.1946 34.1535 92.7238 38.4614 97.7736 38.4409C102.683 38.4204 107.274 34.302 107.191 28.864C107.113 23.6814 102.907 19.5663 97.7092 19.5292L97.7092 19.5267ZM97.7307 35.2598C94.2289 35.2601 91.4457 32.485 91.4429 28.9907C91.4401 25.4814 94.2252 22.6882 97.7295 22.6904C101.214 22.69 104.002 25.4852 104.005 28.977C104.005 32.4688 101.22 35.2619 97.7307 35.2598Z" fill="white"/>
    <path d="M16.3913 19.8012C16.2034 19.7411 16.1584 19.7912 16.1609 19.9841C16.171 20.9259 16.1736 21.8677 16.1612 22.8095C16.1587 23.0124 16.2338 23.0926 16.4067 23.1677C19.1571 24.3923 20.6653 27.373 20.0193 30.2987C19.2657 33.7204 15.7491 35.8875 12.3349 35.0311C8.83047 34.1522 6.78113 30.5229 7.85539 27.0561C8.4113 25.26 9.60355 23.995 11.2893 23.1832C11.3869 23.1356 11.5222 23.1331 11.5197 22.9553C11.512 21.9032 11.517 20.8487 11.5169 19.7841C11.4542 19.7941 11.4091 19.7966 11.364 19.8092C7.25115 20.9392 3.44922 25.263 4.64958 31.0165C5.46403 34.9291 9.48471 39.0717 15.2283 38.2872C17.6805 37.9538 19.6592 36.7613 21.2196 34.8725C23.068 32.6355 23.6864 30.0429 23.1526 27.2325C22.4284 23.4076 20.0661 20.9906 16.3888 19.8037L16.3913 19.8012Z" fill="white"/>
    <path d="M76.2822 19.5648C76.0567 19.5648 75.9365 19.6324 75.8288 19.8278C73.7376 23.5653 71.6388 27.2977 69.5376 31.0326C69.485 31.1228 69.4599 31.2406 69.3497 31.2957C69.3147 31.2356 69.2846 31.1779 69.2521 31.1228C67.1401 27.3532 65.0281 23.5861 62.9212 19.814C62.8235 19.6386 62.7208 19.566 62.5129 19.5685C61.263 19.5787 60.0106 19.5738 58.7606 19.5764C58.6705 19.5764 58.5777 19.5489 58.4675 19.614C62.0927 26.0912 65.7178 32.566 69.368 39.0908C73.022 32.5778 76.6585 26.0949 80.3149 19.5744C78.9323 19.5745 77.6072 19.5797 76.2822 19.5698L76.2822 19.5648Z" fill="white"/>
    <path d="M50.2161 13.1683C49.134 13.1759 48.0519 13.181 46.9698 13.166C46.7243 13.1636 46.6892 13.2387 46.6892 13.4591C46.6971 17.5696 46.695 21.6801 46.6954 25.7931C46.6958 29.9061 46.6962 34.0141 46.6915 38.127C46.6915 38.34 46.7342 38.4101 46.9621 38.4076C48.0342 38.3949 49.1088 38.3973 50.1809 38.4073C50.3838 38.4072 50.4488 38.3697 50.4488 38.1517C50.4431 29.9007 50.4423 21.6522 50.4465 13.4012C50.4465 13.2183 50.3989 13.1707 50.2161 13.1708L50.2161 13.1683Z" fill="white"/>
    <path d="M86.2468 19.8297C86.2468 19.6243 86.2042 19.5617 85.9887 19.5642C84.9066 19.5768 83.822 19.5769 82.7399 19.5645C82.5245 19.5645 82.4819 19.6221 82.482 19.8275C82.4875 25.9444 82.4881 32.0613 82.4837 38.1782C82.4837 38.3836 82.5263 38.4462 82.7417 38.4437C83.8163 38.431 84.8883 38.4309 85.9629 38.4434C86.2009 38.4458 86.251 38.3807 86.251 38.1503C86.2432 35.1094 86.2454 32.071 86.2451 29.0301C86.2448 25.9892 86.2446 22.8956 86.2493 19.8272L86.2468 19.8297Z" fill="white"/>
    <path d="M132.861 29.0008C132.86 25.9624 132.86 22.9215 132.865 19.8831C132.865 19.6451 132.83 19.5499 132.554 19.5525C131.49 19.5726 130.428 19.5652 129.363 19.5553C129.163 19.5553 129.095 19.5954 129.095 19.8133C129.103 25.9377 129.104 32.0621 129.097 38.189C129.097 38.4094 129.167 38.447 129.367 38.4444C130.432 38.4343 131.496 38.4317 132.558 38.4441C132.796 38.4466 132.872 38.399 132.869 38.1435C132.859 35.0951 132.861 32.0467 132.861 28.9983L132.861 29.0008Z" fill="white"/>
    <path d="M56.0982 19.5398C55.0236 19.5474 53.9516 19.55 52.877 19.5401C52.644 19.5376 52.5689 19.5777 52.5689 19.8357C52.5792 22.8741 52.577 25.915 52.5772 28.9534C52.5775 31.9918 52.5778 35.0327 52.5731 38.0711C52.5731 38.284 52.6182 38.3517 52.8462 38.3491C53.9283 38.3365 55.0129 38.3389 56.095 38.3488C56.2703 38.3488 56.3329 38.3112 56.3329 38.1209C56.3273 32.004 56.3267 25.8871 56.3312 19.7702C56.3312 19.5849 56.2786 19.5398 56.0982 19.5398Z" fill="white"/>
    <path d="M12.6694 25.9393C13.4434 25.9267 14.2175 25.9267 14.9915 25.9391C15.1793 25.9416 15.2194 25.8865 15.2168 25.7086C15.2092 24.5539 15.2116 23.3992 15.2115 22.2444C15.2114 21.0897 15.2088 19.8974 15.2137 18.7226C15.2137 18.5522 15.1861 18.4846 14.9908 18.4871C14.2168 18.4997 13.4428 18.4973 12.6687 18.4874C12.4859 18.4874 12.4383 18.535 12.4408 18.7178C12.4485 21.0473 12.4487 23.3744 12.4414 25.7039C12.4415 25.8817 12.4766 25.9418 12.6669 25.9393L12.6694 25.9393Z" fill="white"/>
</svg>
