<svg width="116" height="52" viewBox="0 0 116 52" fill="none" xmlns="http://www.w3.org/2000/svg">
    <path d="M10.2489 17.55C13.7022 13.254 21.2597 13.0731 25.6576 17.5172C30.8074 22.7208 30.6439 32.7493 23.6663 37.3001C21.6693 38.6003 19.4609 39.0783 17.1035 38.9963C16.6885 38.9806 16.5553 38.8319 16.5592 38.4129C16.5825 36.9131 16.5981 35.4133 16.5548 33.9136C16.5391 33.3262 16.7114 33.1852 17.2909 33.1538C20.3883 32.9813 22.7259 30.706 23.1407 27.5341C23.5594 24.3153 21.8283 21.3237 18.9501 20.3764C14.6504 18.9592 10.1748 21.6459 10.2341 26.8657C10.313 33.5148 10.2353 40.1677 10.2751 46.8207C10.2791 47.6156 10.048 47.7645 9.32361 47.7371C7.80035 47.6824 6.27318 47.7021 4.74601 47.7297C4.29961 47.7376 4.15471 47.6397 4.15467 47.1581C4.16935 36.6049 4.16837 26.0518 4.15173 15.4986C4.15168 15.017 4.26131 14.8564 4.76645 14.8642C6.39152 14.8954 8.01659 14.8992 9.64165 14.8638C10.1703 14.852 10.276 15.0477 10.2526 15.5137C10.2213 16.1285 10.2449 16.7433 10.2449 17.5578L10.2489 17.55Z" fill="white"/>
    <path d="M62.8615 17.4399C62.8614 16.645 62.8731 15.9715 62.8574 15.2979C62.8495 14.9768 62.9631 14.8594 63.292 14.8593C65.0424 14.8709 66.7927 14.8708 68.5431 14.8588C68.8681 14.8588 69.0052 14.9684 68.9778 15.2935C68.9661 15.4188 68.9778 15.5441 68.9778 15.6694C68.9785 22.9724 68.9714 30.2754 68.9916 37.5784C68.9917 38.1501 68.8703 38.3459 68.2634 38.3303C66.6892 38.2874 65.1111 38.2875 63.537 38.3307C62.9574 38.3465 62.8478 38.1585 62.8516 37.6142C62.8748 33.8629 62.8823 30.1115 62.8584 26.3601C62.8386 23.5447 61.1389 21.1875 58.6014 20.3537C55.7897 19.4298 52.8803 20.2328 51.2163 22.5276C49.611 24.7402 49.4899 27.1915 50.5944 29.6349C51.6205 31.906 53.5159 33.0571 56.0024 33.1586C56.535 33.1821 56.6094 33.37 56.6016 33.8204C56.5783 35.2692 56.551 36.722 56.6138 38.1708C56.6452 38.8835 56.3437 38.9854 55.7524 38.9972C50.3211 39.0995 45.7667 35.6031 44.3252 30.2111C42.8641 24.7369 44.7118 19.3525 49.0894 16.145C52.9071 13.3449 59.4152 13.4852 62.5952 17.2324C62.6383 17.2833 62.7049 17.3185 62.8693 17.4399L62.8615 17.4399Z" fill="white"/>
    <path d="M76.4896 26.8092C76.4894 24.7455 76.4657 23.0422 76.5008 21.3427C76.5125 20.7984 76.3324 20.6692 75.8233 20.6888C74.8483 20.7281 73.8732 20.6851 72.8982 20.7087C72.5027 20.7204 72.3852 20.5912 72.3891 20.1996C72.4085 18.5981 72.4084 17.0004 72.3886 15.3989C72.3808 14.9642 72.5296 14.8428 72.9486 14.8545C73.9471 14.8818 74.9495 14.8426 75.9481 14.8699C76.371 14.8816 76.5041 14.7524 76.4962 14.3255C76.4687 13.0999 76.4999 11.8742 76.4802 10.6486C76.4724 10.2609 76.582 10.0847 76.9775 9.9711C78.6534 9.4893 80.3254 8.97617 81.9857 8.44346C82.4282 8.30245 82.5378 8.38467 82.53 8.84674C82.5067 10.648 82.5382 12.4493 82.5109 14.2467C82.5031 14.7401 82.6441 14.881 83.1375 14.8692C84.4885 14.8338 85.8394 14.8729 87.1904 14.8493C87.6525 14.8414 87.8561 14.9275 87.8444 15.4522C87.8132 17.0029 87.8094 18.5536 87.8448 20.1042C87.8566 20.6329 87.653 20.7151 87.1909 20.7073C85.8165 20.68 84.4381 20.7115 83.0637 20.6881C82.6447 20.6803 82.5076 20.7978 82.5077 21.2325C82.5275 24.2829 82.5004 27.3333 82.5242 30.3838C82.5361 31.954 83.2958 32.7371 84.8582 32.8309C85.6806 32.8818 86.5068 32.8582 87.3291 32.8268C87.7285 32.8111 87.8421 32.9285 87.8343 33.324C87.8149 34.8238 87.815 36.3236 87.8347 37.8233C87.8387 38.2227 87.686 38.3481 87.3218 38.3755C85.4226 38.5167 83.5274 38.603 81.6478 38.2272C78.75 37.6519 77.0778 35.792 76.6389 32.7299C76.3411 30.6349 76.568 28.536 76.4817 26.8013L76.4896 26.8092Z" fill="white"/>
    <path d="M33.5049 21.1507C33.5044 15.7508 33.5157 10.3509 33.4878 4.95487C33.4877 4.30093 33.6012 4.04248 34.3296 4.07373C35.8528 4.13625 37.38 4.11261 38.9033 4.08114C39.4162 4.06935 39.5807 4.19855 39.5808 4.73894C39.5661 15.7385 39.5671 26.7341 39.5838 37.7336C39.5839 38.2819 39.3724 38.3367 38.9338 38.3328C37.3323 38.3173 35.7346 38.3018 34.133 38.3411C33.5731 38.3568 33.4908 38.1454 33.4947 37.652C33.5099 32.1542 33.5054 26.6524 33.5049 21.1546L33.5049 21.1507Z" fill="white"/>
    <path d="M99.8536 9.4474C101.725 9.44723 101.714 9.44722 102.356 11.2015C103.59 14.5729 104.82 17.9482 106.093 21.3078C106.343 21.9696 106.202 22.1341 105.533 22.095C104.836 22.052 104.135 22.0599 103.434 22.0952C103.007 22.1148 102.831 21.9543 102.694 21.5588C102.184 20.0904 102.169 20.0982 100.61 20.0984C99.7606 20.0984 98.9108 20.1259 98.065 20.0869C97.5912 20.0634 97.3602 20.2083 97.2075 20.6782C96.7495 22.0958 96.7299 22.1036 95.2458 22.0842C94.6506 22.0764 93.8166 22.3545 93.5267 21.963C93.2252 21.5557 93.7773 20.8665 93.9769 20.3104C95.2023 16.9349 96.4628 13.5711 97.6764 10.1916C97.8722 9.64337 98.0993 9.34183 98.7297 9.43967C99.0939 9.49446 99.4776 9.45135 99.8536 9.45132L99.8536 9.4474ZM99.8226 13.0265C99.435 14.1425 99.114 15.051 98.8008 15.9634C98.5163 16.791 98.7996 17.2047 99.6507 17.2047C99.9992 17.2046 100.348 17.185 100.696 17.2085C101.103 17.2359 101.24 17.1262 101.092 16.7033C100.68 15.5599 100.297 14.4048 99.8265 13.0265L99.8226 13.0265Z" fill="white"/>
    <path d="M108.077 15.7443C108.077 13.896 108.105 12.0516 108.061 10.2034C108.046 9.56119 108.257 9.38495 108.864 9.43189C109.483 9.48274 110.113 9.45527 110.736 9.43563C111.096 9.42385 111.284 9.50606 111.28 9.92506C111.269 13.8174 111.269 17.7097 111.281 21.602C111.281 22.0093 111.121 22.1189 110.749 22.1072C110.052 22.0877 109.351 22.076 108.654 22.1074C108.18 22.131 108.062 21.9469 108.07 21.5005C108.09 19.5779 108.078 17.6591 108.077 15.7364L108.077 15.7443Z" fill="white"/>
</svg>
