<svg width="98" height="53" viewBox="0 0 98 53" fill="none" xmlns="http://www.w3.org/2000/svg">
    <path d="M11.7456 28.7964C12.0406 32.5137 12.318 36.0144 12.6004 39.5932L4.61668 39.5939C5.69883 30.9 5.67544 22.2867 4.63702 13.6509C8.87565 13.6505 13.3157 13.2975 17.6703 13.7605C21.2264 14.1379 23.5538 17.7316 23.4005 21.2726C23.2397 24.9874 20.3915 27.9041 16.2536 28.4888C14.9239 28.6778 13.5689 28.6779 11.7456 28.7964ZM11.9696 26.7791C14.6996 27.2498 16.0948 26.6427 16.4572 24.3055C16.8046 22.0741 16.6785 19.7168 16.3987 17.4602C16.1971 15.8308 14.8068 15.0149 13.1371 15.0957C12.7316 15.1159 12.0265 15.7128 12.019 16.0579C11.9362 19.5989 11.9692 23.1424 11.9696 26.7791Z" fill="white"/>
    <path d="M74.7605 21.8409L81.9005 21.8402C81.9686 22.6688 82.0265 23.384 82.0543 23.719C83.6988 23.0086 85.3206 21.8777 87.0685 21.6408C90.4709 21.1821 92.8813 23.4913 93.01 26.8988C93.0833 28.7953 93.0054 30.6967 93.0358 32.5957C93.056 33.7567 93.0788 34.9278 93.2351 36.0762C93.3888 37.2045 93.7113 38.3101 93.9935 39.5668L86.2742 39.5675C86.4502 35.7545 86.674 32.0523 86.7643 28.3475C86.812 26.431 85.9834 25.5773 84.3741 25.4943C82.4928 25.3988 81.9563 25.8622 82.0119 27.7662C82.1205 31.6573 82.2947 35.5483 82.4462 39.5603L74.7924 39.561C76.1544 33.6777 76.2143 27.8776 74.7581 21.8434L74.7605 21.8409Z" fill="white"/>
    <path d="M32.6107 21.5431C38.3327 21.5501 41.8916 25.0404 41.9199 30.6743C41.9481 36.3812 38.1304 40.2021 32.4562 40.1447C26.8123 40.0873 23.1753 36.3905 23.1647 30.6962C23.1541 24.9893 26.7174 21.5361 32.6132 21.5431L32.6107 21.5431ZM29.9747 30.751C29.9749 32.8338 30.4511 34.8838 30.9147 36.8885C31.0633 37.5332 31.7258 38.5607 32.5065 38.5631C33.3074 38.563 33.9747 37.5228 34.1534 36.8554C35.231 32.8383 35.2332 28.7609 34.1876 24.7389C34.0138 24.0715 33.3261 23.0214 32.5202 23.029C31.7168 23.0366 31.062 24.102 30.9009 24.772C30.4352 26.7138 29.9771 28.7059 29.9747 30.751Z" fill="white"/>
    <path d="M60.7141 12.33C61.332 21.4595 60.0585 30.4708 61.6032 39.5347L53.8437 39.5355C54.9359 30.7936 55.0283 22.0696 53.7657 13.1265C55.9291 12.877 58.2762 12.6073 60.7141 12.3275L60.7141 12.33Z" fill="white"/>
    <path d="M43.4847 13.1287C45.6405 12.8817 47.9574 12.6145 50.3877 12.3372C51.0912 21.4139 49.649 30.4478 51.3926 39.5168L43.6282 39.5175C44.5567 30.7707 44.7548 22.0818 43.4872 13.1287L43.4847 13.1287Z" fill="white"/>
    <path d="M71.8409 39.5901L64.2954 39.5908C65.4987 33.6445 65.5133 27.7965 64.2737 21.8379L71.1517 21.8373C71.3815 27.7784 71.6087 33.6062 71.8409 39.5901Z" fill="white"/>
    <path d="M71.3471 12.3549C71.3473 13.8283 71.3952 15.1001 71.3374 16.3669C71.2419 18.4548 69.6126 20.0365 67.691 19.9914C65.7769 19.9462 64.1574 18.2413 64.1169 16.2291C64.0764 14.179 65.5169 12.5041 67.5266 12.3679C68.6901 12.2897 69.8612 12.3526 71.3471 12.3524L71.3471 12.3549Z" fill="white"/>
</svg>
