<svg width="177" height="53" viewBox="0 0 177 53" fill="none" xmlns="http://www.w3.org/2000/svg">
    <path d="M125.312 24.5263C124.736 23.473 124.078 23.4025 123.362 23.4104C121.674 23.4263 119.982 23.3833 118.299 23.4305C117.539 23.4501 117.265 23.2113 117.312 22.4399C117.351 21.7938 117.382 21.3356 118.244 21.359C120.248 21.4137 122.253 21.3352 124.258 21.4015C125.887 21.4562 127.05 22.5134 127.364 24.2402C127.814 26.7502 127.482 29.2916 127.568 31.8173C127.592 32.5261 127.114 32.5261 126.609 32.5144C126.088 32.4988 125.504 32.6203 125.516 31.7862C125.532 30.4665 125.473 29.1469 125.535 27.8312C125.578 26.9227 125.39 26.4763 124.341 26.543C122.818 26.6371 121.283 26.6059 119.752 26.5669C118.42 26.5318 117.79 27.1897 117.763 28.4545C117.735 29.7428 118.366 30.4006 119.697 30.3692C120.911 30.3417 122.125 30.4042 123.335 30.3493C124.13 30.314 124.318 30.6546 124.314 31.3712C124.306 32.0917 124.251 32.5812 123.312 32.5343C121.945 32.464 120.567 32.5737 119.196 32.4995C117.038 32.3861 115.636 30.6163 115.718 28.2159C115.789 26.1248 117.222 24.6014 119.282 24.5425C121.208 24.4875 123.139 24.5304 125.32 24.5302L125.312 24.5263Z" fill="#FCFCFC"/>
    <path d="M13.3077 29.4897C14.1066 29.8812 14.7175 30.2492 15.3793 30.488C16.2095 30.7894 16.1507 31.4473 16.0293 32.0425C15.8688 32.8179 15.0858 32.5713 14.7177 32.4421C13.3863 31.9684 12.1057 31.3537 10.8134 30.7665C9.90489 30.3554 9.03948 29.8268 8.10356 29.4901C7.22639 29.173 7.45739 28.5113 7.44951 27.9239C7.44159 27.0272 8.16604 27.3325 8.61636 27.3207C9.93599 27.2815 11.2556 27.3205 12.5752 27.2969C13.8048 27.2772 14.4117 26.584 14.4077 25.3936C14.4076 24.168 13.7692 23.5767 12.5162 23.6082C11.2513 23.6396 9.98263 23.6123 8.71391 23.6085C7.40602 23.6008 6.7835 24.2509 6.78754 25.5549C6.79946 27.5089 6.75659 29.4629 6.80376 31.4169C6.82341 32.2353 6.58048 32.5172 5.73466 32.5134C4.88492 32.5135 4.79497 32.1062 4.80665 31.4366C4.83778 29.326 4.7749 27.2115 4.8726 25.1008C4.97812 22.8649 6.43464 21.5255 8.64316 21.4822C9.91188 21.4586 11.1767 21.4663 12.4454 21.4819C14.5639 21.5013 15.8405 22.4527 16.2636 24.3088C16.7572 26.4585 15.9938 28.1737 14.1417 29.0745C13.9146 29.1842 13.6874 29.2978 13.2959 29.4897L13.3077 29.4897Z" fill="#FCFCFC"/>
    <path d="M150.757 24.9778C150.757 26.1917 150.8 27.4056 150.745 28.6195C150.648 30.9377 149.125 32.4297 146.814 32.4887C145.389 32.5241 143.963 32.5438 142.542 32.4695C140.564 32.3679 139.284 31.1619 139.139 29.1962C139.033 27.7787 139.041 26.3416 139.154 24.9279C139.33 22.7468 140.724 21.5171 142.905 21.4817C144.225 21.4581 145.548 21.5245 146.86 21.45C147.733 21.399 148.023 21.63 148.031 22.5541C148.039 23.537 147.616 23.6663 146.813 23.6389C145.549 23.596 144.28 23.6627 143.015 23.6197C141.821 23.5807 141.273 24.172 141.159 25.2919C141.155 25.3428 141.135 25.3977 141.139 25.4486C141.331 26.9757 140.368 29.0003 141.782 29.9321C143.454 31.0284 145.675 30.3743 147.636 30.2174C148.572 30.1429 148.787 29.1248 148.783 28.2124C148.775 25.9452 148.783 23.674 148.783 21.4067C148.783 20.7528 148.575 20.0597 149.73 20.0674C150.772 20.0752 150.788 20.5803 150.764 21.3439C150.725 22.5578 150.753 23.7717 150.753 24.9856L150.757 24.9778Z" fill="#FCFBFB"/>
    <path d="M100.258 21.3727C101.21 21.3726 102.157 21.3882 103.109 21.3685C103.876 21.3528 104.522 21.2588 104.499 22.4531C104.48 23.5769 103.861 23.4282 103.176 23.4243C101.382 23.4167 99.5849 23.409 97.7914 23.4248C96.1703 23.4367 95.6141 23.9733 95.6025 25.6179C95.5639 30.8181 95.286 30.3052 100.083 30.4261C100.557 30.4378 101.03 30.473 101.508 30.473C102.55 30.4729 102.847 29.7993 102.871 28.9144C102.89 28.0568 102.424 27.6731 101.598 27.6732C100.858 27.6732 100.118 27.6302 99.3816 27.6734C98.5437 27.7244 98.1638 27.5286 98.1833 26.5496C98.2028 25.6333 98.5786 25.508 99.3266 25.5588C100.008 25.6058 100.697 25.5665 101.386 25.5704C103.755 25.578 104.919 26.6978 104.946 28.9964C104.974 31.4281 103.956 32.4737 101.516 32.5014C100.091 32.5172 98.6654 32.5447 97.2401 32.49C94.9885 32.4041 93.7432 31.1433 93.6725 28.9113C93.6332 27.5917 93.6251 26.272 93.6838 24.9524C93.7775 22.6969 95.0345 21.4672 97.2587 21.3965C98.2612 21.3651 99.2635 21.3924 100.266 21.3923C100.266 21.3884 100.266 21.3806 100.266 21.3766L100.258 21.3727Z" fill="#FCFCFC"/>
    <path d="M78.6511 28.1341C77.8602 28.1341 77.0574 28.0559 76.2781 28.1617C75.7573 28.2322 74.8056 27.6567 74.7744 28.6591C74.7471 29.6028 75.2954 30.3625 76.4349 30.3624C78.1775 30.3622 79.9239 30.4364 81.6586 30.3345C82.8177 30.2639 82.9548 30.7925 82.9119 31.7284C82.8806 32.3745 82.6103 32.5233 82.0347 32.5155C80.0298 32.4922 78.0172 32.5747 76.0162 32.473C74.211 32.3792 72.8833 30.8952 72.7892 28.9804C72.7225 27.6099 72.7223 26.2315 72.7888 24.8649C72.8904 22.8052 74.3038 21.4345 76.34 21.3951C78.1883 21.3597 80.0367 21.434 81.8811 21.3633C82.7739 21.3319 82.903 21.7 82.9148 22.4714C82.9266 23.2702 82.6213 23.4464 81.8929 23.4269C80.2052 23.384 78.5136 23.4272 76.8259 23.4117C76.1563 23.404 75.5493 23.4941 75.1617 24.0972C74.8485 24.5906 74.5353 25.1467 74.7351 25.7262C74.9701 26.4153 75.6435 26.0864 76.1173 26.0981C78.0165 26.137 79.9196 26.1525 81.8188 26.0975C82.692 26.074 82.8566 26.4224 82.8684 27.2134C82.8842 28.0593 82.4885 28.1611 81.8071 28.1377C80.7538 28.1025 79.6966 28.13 78.6393 28.1262L78.6511 28.1341Z" fill="#FDFDFD"/>
    <path d="M34.0148 26.1089C34.9116 26.1088 35.8083 26.1401 36.7051 26.1008C37.4686 26.0655 37.9581 26.0929 37.97 27.1345C37.9818 28.2153 37.4296 28.1527 36.7012 28.1449C34.9078 28.1216 33.1144 28.0982 31.321 28.165C30.8354 28.1807 29.8837 27.6561 29.9543 28.8151C30.0053 29.6688 30.4322 30.3462 31.4151 30.3617C33.1537 30.3851 34.8963 30.3888 36.6349 30.3613C37.4298 30.3494 38.0133 30.3141 38.0212 31.4615C38.0292 32.648 37.3792 32.5384 36.6234 32.5306C34.9866 32.5151 33.3536 32.5466 31.7168 32.5193C29.5748 32.4882 28.2121 31.341 27.9691 29.2343C27.7849 27.6132 27.7691 25.9646 28.0274 24.3434C28.3013 22.6244 29.5504 21.4613 31.2381 21.4102C33.1882 21.3513 35.1421 21.4372 37.0922 21.3783C37.9576 21.3508 37.9812 21.7737 38.0009 22.4316C38.0205 23.1443 37.8717 23.4732 37.0572 23.4459C35.3695 23.3873 33.6817 23.4462 31.994 23.4229C31.1951 23.4112 30.5373 23.6031 30.1419 24.355C29.5272 25.5141 29.8681 26.1093 31.1642 26.1249C32.1118 26.1365 33.0634 26.1247 34.011 26.1246C34.011 26.1207 34.011 26.1168 34.011 26.1128L34.0148 26.1089Z" fill="#FCFCFC"/>
    <path d="M168.327 28.1284C167.482 28.1285 166.628 28.058 165.794 28.156C165.3 28.2148 164.353 27.6236 164.408 28.7827C164.447 29.6442 164.913 30.3176 165.876 30.3371C167.674 30.3761 169.471 30.3916 171.264 30.3366C172.122 30.3091 172.498 30.5088 172.479 31.4604C172.463 32.2983 172.197 32.549 171.378 32.5216C169.585 32.467 167.783 32.5416 165.99 32.4869C164.001 32.4283 162.56 31.1323 162.43 29.1666C162.328 27.5925 162.348 25.9948 162.489 24.4206C162.645 22.6585 164.004 21.4484 165.766 21.3934C167.665 21.3345 169.572 21.4205 171.471 21.3498C172.395 21.3145 172.454 21.7452 172.482 22.4814C172.513 23.3076 172.145 23.429 171.448 23.4134C169.756 23.3783 168.065 23.4294 166.377 23.3943C165.468 23.3748 164.803 23.7234 164.517 24.5575C164.208 25.4503 164.161 26.1983 165.563 26.1237C167.407 26.0257 169.259 26.1077 171.107 26.0919C171.816 26.084 172.411 25.986 172.408 27.0825C172.408 28.0888 171.985 28.1868 171.182 28.1399C170.234 28.0851 169.279 28.1283 168.331 28.1284L168.327 28.1284Z" fill="#FDFDFD"/>
    <path d="M61.1357 28.3894C61.1357 29.3918 61.0966 30.3982 61.1476 31.4007C61.1868 32.1525 61.0772 32.5441 60.1531 32.5363C59.225 32.5286 59.1428 32.1018 59.1545 31.3695C59.1857 29.4703 59.1619 27.5673 59.1656 25.6681C59.1655 24.3289 58.5899 23.5888 57.1645 23.6281C55.8997 23.6596 54.631 23.6558 53.3623 23.6285C52.0113 23.6012 51.4513 24.2983 51.4514 25.5748C51.4516 27.5288 51.4165 29.4828 51.4676 31.4368C51.4912 32.267 51.2133 32.5098 50.387 32.5412C49.4512 32.5726 49.3649 32.134 49.3766 31.3939C49.4078 29.4399 49.3489 27.4859 49.3996 25.5319C49.4698 22.9083 50.9615 21.4985 53.6125 21.4787C54.8264 21.4707 56.0443 21.4589 57.2582 21.4862C59.5215 21.5408 60.9902 22.9582 61.104 25.2254C61.1589 26.2788 61.112 27.336 61.1121 28.3933C61.12 28.3933 61.1238 28.3933 61.1316 28.3933L61.1357 28.3894Z" fill="#F9F8F8"/>
</svg>
