<svg width="92" height="53" viewBox="0 0 92 53" fill="none" xmlns="http://www.w3.org/2000/svg">
    <g clip-path="url(#clip0_4655_8777)">
        <path d="M57.8492 38.072C57.9006 38.9453 57.9988 39.8139 58.2137 40.6639C58.223 40.7013 58.2301 40.741 58.2418 40.7783C58.2604 40.832 58.3002 40.8647 58.3516 40.8787C58.452 40.9067 58.5547 40.9231 58.6551 40.9557C59.5775 41.2475 60.1474 41.8733 60.3996 42.8003C60.6963 44.3018 59.781 45.5395 58.5061 45.8151C56.9486 46.1515 55.8417 45.1475 55.5264 44.0874C55.1877 42.9479 55.6966 41.771 56.6446 41.2081C56.6563 41.2011 56.6679 41.1964 56.6796 41.1894C56.7707 41.1381 56.8618 41.0867 56.9505 41.0353C57.0019 40.9092 56.9785 40.7784 56.9761 40.65C56.9597 39.5618 56.7845 38.4947 56.4972 37.4463C56.4762 37.3716 56.4457 37.2992 56.4224 37.2244C56.4084 37.1801 56.3733 37.1614 56.3359 37.1567C56.2589 37.1474 56.1795 37.1497 56.1024 37.1451C55.2011 37.1031 54.3137 36.9701 53.4497 36.6923C53.1648 36.6013 52.8846 36.4962 52.609 36.3748C52.5366 36.3445 52.4666 36.3118 52.3942 36.2838C52.3265 36.2558 52.2658 36.2791 52.2144 36.3212C52.1537 36.3702 52.0977 36.4262 52.0417 36.48C50.1831 38.2221 48.6071 40.1931 47.3323 42.3999C46.9611 43.0444 46.6155 43.7006 46.3003 44.3755C46.2676 44.4456 46.235 44.5179 46.2023 44.588C46.1789 44.637 46.1767 44.6884 46.2047 44.7374C46.2514 44.8168 46.3005 44.8939 46.3448 44.9733C47.4075 46.8786 46.4946 49.2372 44.4608 49.9472C42.6114 50.5919 40.5798 49.5903 40.0052 47.6686C39.4726 45.894 40.4018 44.1309 41.9896 43.4745C42.5664 43.2363 43.1642 43.1358 43.7877 43.2432C43.8904 43.2595 43.9955 43.2642 44.0959 43.2945C44.4415 43.3926 44.3995 43.3599 44.6424 43.138C46.7018 41.2534 48.3898 39.0793 49.7019 36.6133C49.9657 36.1182 50.2131 35.6161 50.4396 35.1024C50.4699 35.0347 50.4606 34.9763 50.4139 34.9249C50.3789 34.8852 50.3439 34.8479 50.3065 34.8128C49.286 33.7948 48.6087 32.5783 48.2046 31.2006C47.8962 30.1522 47.777 29.0827 47.8119 27.9922C47.8585 26.5515 48.1924 25.1807 48.8344 23.887C49.0609 23.4293 49.327 22.9973 49.6329 22.5886C49.6726 22.5372 49.7146 22.4859 49.7496 22.4298C49.7776 22.3854 49.7869 22.3294 49.7612 22.2804C49.5791 21.9488 49.4062 21.6126 49.2077 21.2903C48.1124 19.5204 46.6926 18.0681 44.9412 16.9404C44.8548 16.8844 44.7636 16.8284 44.6725 16.7817C44.6422 16.7653 44.5931 16.7583 44.5604 16.77C44.4507 16.812 44.3456 16.8634 44.2382 16.9101C43.5097 17.2208 42.7508 17.2722 41.9732 17.1742C40.6818 16.9245 39.6894 16.245 39.0424 15.0962C38.601 14.3117 38.4515 13.4664 38.5542 12.5674C38.7199 11.1219 39.7658 9.51759 41.6969 9.06673C43.9783 8.53412 45.996 9.89763 46.6056 11.8614C46.9139 12.8608 46.8486 13.8439 46.419 14.8013C46.3933 14.8597 46.3653 14.9204 46.335 14.9788C46.2159 15.2147 46.1902 15.189 46.3444 15.4808C47.351 17.3815 48.7219 18.9646 50.464 20.2254C50.7372 20.4239 51.0268 20.6013 51.3117 20.7881C51.37 20.8278 51.4354 20.8254 51.4961 20.7904C51.5755 20.7437 51.6502 20.6923 51.7272 20.6433C52.5982 20.0944 53.5392 19.7324 54.548 19.5315C55.5917 19.3236 56.6449 19.2791 57.7027 19.3911C58.8143 19.5078 59.8791 19.7995 60.8739 20.3178C60.9206 20.3412 60.9649 20.3692 61.0139 20.3879C61.0653 20.4089 61.1167 20.4042 61.1588 20.3645C61.2265 20.3038 61.2918 20.2407 61.3548 20.1754C64.5536 16.9269 67.2084 13.2816 69.3143 9.23696C69.3493 9.16691 69.3866 9.09919 69.4193 9.02679C69.4426 8.97542 69.4334 8.92405 69.4007 8.87969C69.347 8.8073 69.2885 8.73725 69.2301 8.66487C68.714 8.00642 68.3684 7.26856 68.2002 6.45128C68.0717 5.83249 68.0482 5.21135 68.1486 4.5832C68.4216 2.87854 69.3043 1.58948 70.7823 0.709009C71.4641 0.302636 72.2089 0.0783966 73.0029 0.01761C74.4483 -0.0922744 75.742 0.302239 76.8606 1.22217C77.9325 2.10474 78.5631 3.24655 78.7617 4.62425C79.1239 7.14146 77.6367 9.56311 75.2643 10.4086C74.3606 10.731 73.4359 10.8011 72.4902 10.6331C72.1026 10.5654 71.7313 10.4487 71.367 10.3039C71.2876 10.2712 71.2152 10.2806 71.1522 10.3436C71.0798 10.4184 71.005 10.4931 70.9326 10.5678C67.8412 13.7672 65.2402 17.3262 63.1297 21.2447C63.0503 21.3941 62.9733 21.5459 62.8939 21.6954C62.8659 21.7467 62.8799 21.7958 62.9149 21.8378C62.9476 21.8775 62.9826 21.9172 63.0176 21.9569C64.0195 23.0473 64.6712 24.3222 65.0402 25.7489C65.2878 26.7016 65.3884 27.673 65.3417 28.6584C65.2765 30.0548 64.966 31.3929 64.3426 32.6516C64.1512 33.0369 63.9294 33.4058 63.6843 33.7608C63.6399 33.8239 63.5979 33.8892 63.5582 33.957C63.5465 33.9756 63.5465 34.0107 63.5582 34.0317C63.6096 34.1228 63.6633 34.2115 63.7217 34.2979C64.6792 35.7175 65.7161 37.0741 66.8394 38.3654C68.4788 40.2496 70.2747 41.9751 72.2246 43.5371C72.2643 43.5698 72.304 43.6048 72.3461 43.6352C72.6333 43.8476 72.5422 43.829 72.8574 43.6818C74.9613 42.6986 77.5113 43.3965 78.7678 45.47C79.2185 46.2125 79.4405 47.0251 79.4266 47.8914C79.3894 50.0818 77.9231 51.7538 76.083 52.2701C73.6196 52.9615 71.0999 51.5513 70.3968 49.0925C70.0792 47.981 70.1841 46.8975 70.6791 45.8537C70.7515 45.7019 70.8378 45.5548 70.9195 45.4053C70.9475 45.3563 70.9475 45.3049 70.9195 45.2582C70.8728 45.1788 70.8237 45.1041 70.7747 45.0271C69.3991 42.9419 67.832 41.0086 66.0852 39.2201C64.8708 37.9779 63.5818 36.8175 62.211 35.7481C62.1386 35.6921 62.0639 35.6407 61.9868 35.5917C61.9681 35.58 61.9331 35.58 61.9144 35.5917C61.856 35.6197 61.8 35.6524 61.7463 35.6898C60.8988 36.276 59.9647 36.6637 58.9653 36.8996C58.6874 36.965 58.4025 37.0048 58.12 37.0562C58.0826 37.0632 58.0429 37.0678 58.0032 37.0725C57.9005 37.0912 57.8608 37.1286 57.8584 37.222C57.8538 37.3924 57.8539 37.5606 57.8515 37.731C57.8515 37.8478 57.8516 37.9669 57.8516 38.0836L57.8492 38.072ZM62.3714 28.2407C62.376 27.7037 62.3153 27.1713 62.2032 26.6482C62.0537 25.943 61.8037 25.2729 61.4301 24.6541C60.7271 23.4866 59.7299 22.6974 58.4199 22.3076C58.0065 22.1839 57.5815 22.1209 57.1518 22.0835C56.3626 22.0136 55.5874 22.079 54.8285 22.2916C53.5185 22.6583 52.4935 23.4196 51.7697 24.5779C51.1977 25.491 50.8895 26.4928 50.8009 27.5623C50.7379 28.3329 50.7801 29.0988 50.9459 29.8577C51.1048 30.5746 51.3499 31.2587 51.733 31.8892C52.3986 32.9819 53.3421 33.7197 54.5611 34.1049C54.9861 34.238 55.4204 34.3173 55.8617 34.3617C56.7023 34.448 57.5289 34.3895 58.3439 34.1746C59.2849 33.9247 60.1021 33.4599 60.7722 32.7476C61.2322 32.2572 61.5731 31.6898 61.8299 31.0686C62.2035 30.1649 62.3575 29.2191 62.3714 28.2454L62.3714 28.2407Z" fill="#F5F5F5"/>
        <path d="M40.8867 37.3792C40.3263 37.3792 39.7659 37.3793 39.2031 37.3793C39.1121 37.3793 39.021 37.3747 38.9299 37.3793C38.8319 37.384 38.7524 37.3513 38.6847 37.2813C38.4441 37.0408 38.2036 36.8026 37.9631 36.5645C37.5918 36.1979 37.2228 35.829 36.8491 35.4624C36.8024 35.418 36.7534 35.376 36.6997 35.3387C36.681 35.327 36.6483 35.3223 36.6272 35.3317C36.5689 35.3573 36.5106 35.3877 36.4545 35.4227C35.8708 35.7754 35.2496 36.0417 34.5935 36.2285C34.0774 36.3757 33.5544 36.4738 33.022 36.5346C32.4102 36.6047 31.7984 36.6211 31.1866 36.5931C30.0844 36.5442 29.0102 36.3551 27.9827 35.9419C26.3504 35.2859 25.0988 34.1909 24.2136 32.6731C23.7582 31.8886 23.4428 31.0503 23.2302 30.1723C23.0503 29.4344 22.9593 28.6825 22.9452 27.926C22.9123 26.24 23.2415 24.6311 24.0329 23.1342C25.1162 21.0862 26.7927 19.7714 29.0203 19.1547C29.7769 18.9445 30.5498 18.8277 31.3367 18.8206C31.715 18.8159 32.0933 18.8112 32.4715 18.8322C33.506 18.8904 34.5148 19.0888 35.4769 19.481C37.1326 20.1557 38.3914 21.2835 39.2695 22.8362C39.767 23.7189 40.0939 24.6622 40.2901 25.6546C40.4887 26.661 40.5379 27.6745 40.4446 28.6926C40.3279 29.9372 40.0082 31.1281 39.4315 32.242C39.2751 32.5433 39.0976 32.8329 38.9108 33.1154C38.8805 33.1598 38.8852 33.2228 38.9202 33.2602C38.9833 33.3256 39.0462 33.3933 39.1093 33.4587C39.4899 33.8346 39.873 34.2082 40.249 34.5888C40.7558 35.0978 41.2555 35.6114 41.7599 36.1204C42.1172 36.4824 42.4793 36.8419 42.8366 37.2038C42.8716 37.2389 42.8972 37.2856 42.9229 37.3276C42.9276 37.3346 42.9136 37.3579 42.9066 37.3603C42.8575 37.3696 42.8085 37.3813 42.7595 37.3836C42.1337 37.3837 41.5078 37.3838 40.8797 37.3838L40.8867 37.3792ZM25.92 27.6571C25.9201 28.2362 25.988 28.8317 26.1398 29.4155C26.357 30.2444 26.7096 31.008 27.2374 31.6874C28.1529 32.8689 29.3603 33.5506 30.8314 33.763C31.3358 33.8353 31.8425 33.8446 32.3539 33.7932C33.0614 33.7231 33.7362 33.5432 34.3737 33.2279C34.4087 33.2116 34.4414 33.1906 34.4695 33.1625C34.4835 33.1485 34.4951 33.1088 34.4858 33.0972C34.4414 33.0341 34.3924 32.9734 34.3387 32.9174C33.582 32.1632 32.823 31.409 32.064 30.6572C31.5549 30.1529 31.0458 29.6462 30.5391 29.1395C30.4924 29.0951 30.4549 29.0414 30.4152 28.9901C30.4106 28.9854 30.4199 28.9644 30.4293 28.955C30.469 28.913 30.5228 28.9247 30.5718 28.9247C31.7977 28.9246 33.0237 28.9244 34.2496 28.9243C34.6699 28.9243 34.5554 28.8776 34.8566 29.1788C35.3914 29.7135 35.924 30.2505 36.4588 30.7852C36.5125 30.8389 36.5731 30.8903 36.6362 30.9346C36.6479 30.944 36.69 30.9346 36.7016 30.9206C36.7413 30.8692 36.7763 30.8155 36.8044 30.7572C37.0892 30.1967 37.2852 29.6036 37.3996 28.9871C37.4883 28.5107 37.5397 28.032 37.5186 27.5487C37.5022 27.1587 37.4695 26.7687 37.3971 26.3834C37.2709 25.7016 37.0771 25.0408 36.7688 24.4173C36.1078 23.0864 35.0802 22.1875 33.6464 21.7696C33.2331 21.6506 32.8081 21.5876 32.3784 21.5456C31.6966 21.4779 31.024 21.5247 30.3562 21.6532C29.7514 21.77 29.1794 21.9849 28.6517 22.3072C27.7947 22.828 27.1503 23.5496 26.688 24.4346C26.165 25.4364 25.9409 26.5129 25.92 27.6595L25.92 27.6571Z" fill="#F5F5F5"/>
        <path d="M72.5595 28.1802C72.5593 25.4925 72.559 22.8048 72.5588 20.1171C72.5587 19.9863 72.5658 19.8579 72.5727 19.7271C72.5727 19.7084 72.6008 19.6804 72.6195 19.6758C72.6825 19.6617 72.7479 19.6524 72.8109 19.6524C73.4624 19.6523 74.1163 19.6499 74.7678 19.6522C75.382 19.6521 75.9937 19.6638 76.6079 19.6637C77.9506 19.6682 79.2955 19.6751 80.6382 19.6727C81.201 19.6726 81.7591 19.7216 82.3078 19.8406C83.0808 20.0064 83.8024 20.2935 84.454 20.7465C85.5982 21.5403 86.3129 22.6261 86.6399 23.9734C86.8128 24.6902 86.8385 25.4165 86.7428 26.1497C86.6868 26.591 86.5958 27.023 86.4464 27.4434C85.9935 28.7137 85.1436 29.6222 83.9177 30.1757C83.5371 30.3485 83.1402 30.477 82.7339 30.5704C82.6335 30.5938 82.533 30.6242 82.4326 30.6522C82.4046 30.6592 82.3883 30.7246 82.4093 30.7503C82.4747 30.832 82.5401 30.9137 82.6078 30.9908C83.5863 32.0952 84.5625 33.1973 85.541 34.2993C86.1809 35.0208 86.8231 35.7423 87.463 36.4661C87.5237 36.5339 87.5774 36.6086 87.6288 36.6833C87.6358 36.6926 87.6125 36.7393 87.5985 36.744C87.5471 36.7534 87.4958 36.7557 87.4421 36.7557C86.3586 36.7558 85.2774 36.7559 84.1939 36.756C84.1425 36.756 84.0888 36.756 84.0375 36.7537C83.9837 36.7537 83.937 36.735 83.8996 36.693C83.8389 36.6253 83.7782 36.5576 83.7175 36.4875C82.1995 34.748 80.6839 33.0061 79.1635 31.2666C78.8436 30.9 78.9697 30.9654 78.5073 30.9631C77.6714 30.9585 76.8377 30.9633 76.0018 30.9634C75.8967 30.9634 75.794 30.9657 75.6889 30.9704C75.6422 30.9704 75.5977 31.0218 75.5954 31.0755C75.5931 31.1922 75.5885 31.309 75.5885 31.4281C75.5886 32.3668 75.5887 33.3078 75.5888 34.2466C75.5888 34.9634 75.5889 35.6827 75.589 36.3995C75.589 36.4906 75.589 36.5817 75.5774 36.6727C75.5727 36.7078 75.5423 36.7405 75.5003 36.7475C75.4606 36.7521 75.4232 36.7568 75.3835 36.7568C74.5102 36.7569 73.6345 36.757 72.7612 36.7571C72.7215 36.7571 72.6841 36.7524 72.6444 36.7477C72.6001 36.7431 72.5673 36.7104 72.565 36.6754C72.5556 36.5586 72.5533 36.4418 72.5533 36.3228C72.5532 34.7839 72.553 33.2427 72.5529 31.7039L72.5526 28.1802L72.5595 28.1802ZM75.5973 25.3708C75.5974 26.1928 75.5974 27.0147 75.5975 27.8343C75.5975 27.9394 75.5998 28.0422 75.6045 28.1473C75.6045 28.1963 75.656 28.2406 75.7073 28.243C75.7727 28.2453 75.8381 28.25 75.9035 28.25C76.1907 28.2499 76.4778 28.2499 76.7627 28.2499C78.04 28.2498 79.3174 28.2497 80.5947 28.2495C80.9613 28.2495 81.3255 28.2284 81.6805 28.1303C82.6565 27.8594 83.3196 27.2545 83.6348 26.2831C83.7609 25.8931 83.7842 25.4915 83.7561 25.0852C83.6836 24.0741 83.0671 23.0373 81.8575 22.6498C81.4535 22.5214 81.0424 22.4794 80.6245 22.4795C79.0739 22.4796 77.5212 22.4798 75.9707 22.4799C75.8796 22.4799 75.7885 22.4846 75.6975 22.4869C75.6508 22.4869 75.6063 22.5383 75.604 22.592C75.6017 22.7088 75.5993 22.8255 75.5993 22.9446C75.5994 23.7526 75.5995 24.5605 75.5996 25.3708L75.5973 25.3708Z" fill="#F5F5F5"/>
        <path d="M11.4926 36.7585C10.6683 36.7586 9.85098 36.6863 9.04301 36.5276C8.37516 36.3969 7.7306 36.1914 7.11877 35.8903C6.23606 35.4537 5.50754 34.8349 4.93536 34.0341C4.65511 33.6394 4.42389 33.2168 4.23004 32.7732C4.21135 32.7288 4.23001 32.6587 4.2697 32.6354C4.29305 32.6214 4.31636 32.612 4.33971 32.6003C5.06823 32.222 5.79683 31.8436 6.52535 31.4653C6.5487 31.4536 6.572 31.4443 6.59535 31.4326C6.6584 31.4046 6.71682 31.4256 6.75418 31.4956C6.77988 31.5423 6.8008 31.589 6.82649 31.6334C7.18382 32.3082 7.69993 32.8312 8.34446 33.2305C8.91659 33.5853 9.54013 33.8118 10.1963 33.9378C10.9295 34.0779 11.6698 34.1175 12.4171 34.038C12.8607 33.9913 13.295 33.9189 13.7199 33.7834C14.0959 33.6643 14.4485 33.5008 14.766 33.2649C15.0859 33.029 15.3428 32.7371 15.5132 32.3751C15.7327 31.9104 15.7794 31.4201 15.6906 30.9227C15.6112 30.4697 15.3683 30.1008 15.0203 29.8042C14.7914 29.6081 14.5346 29.454 14.2613 29.3279C13.8807 29.1528 13.4836 29.0244 13.0773 28.9334C12.5683 28.819 12.0522 28.7444 11.5338 28.6837C10.5881 28.5717 9.64937 28.42 8.73165 28.1516C8.2436 28.0068 7.76726 27.8341 7.31423 27.5983C6.88221 27.3765 6.48521 27.1056 6.13724 26.7647C5.58144 26.2207 5.22641 25.5646 5.05821 24.8057C4.96711 24.3971 4.91573 23.9837 4.92036 23.5634C4.93424 22.1577 5.48286 21.0111 6.58495 20.1353C7.07996 19.743 7.62874 19.4487 8.21716 19.2221C8.82894 18.9886 9.45937 18.8367 10.1062 18.7409C10.9375 18.6171 11.771 18.617 12.6047 18.6823C13.5177 18.7546 14.4098 18.9414 15.2598 19.2986C16.0141 19.6137 16.6913 20.048 17.2565 20.6434C17.5904 20.996 17.8753 21.3836 18.0995 21.8132C18.1252 21.8622 18.1089 21.9229 18.0646 21.9463C18.0412 21.958 18.0178 21.9697 17.9944 21.9813C17.3103 22.334 16.6285 22.6867 15.9444 23.0393C15.8977 23.0627 15.8486 23.0814 15.7996 23.0954C15.7785 23.1001 15.7482 23.0907 15.7272 23.079C15.7061 23.0674 15.6875 23.044 15.6712 23.0253C15.2041 22.4206 14.5898 22.0143 13.8986 21.7155C13.17 21.4027 12.4111 21.244 11.6172 21.244C11.0801 21.2441 10.5501 21.2862 10.0271 21.4146C9.73519 21.4871 9.45257 21.5875 9.18405 21.723C8.96222 21.8351 8.75678 21.9752 8.57466 22.1433C8.17539 22.5147 7.94428 22.9724 7.9023 23.5141C7.86032 24.0675 8.04008 24.5415 8.46044 24.9128C8.6566 25.0879 8.88086 25.2186 9.11905 25.3284C9.49969 25.5035 9.9013 25.6179 10.3076 25.7066C10.791 25.8116 11.2814 25.8816 11.7742 25.9423C12.6685 26.0496 13.5558 26.1896 14.4291 26.4137C14.9732 26.5538 15.5057 26.7265 16.0147 26.9623C16.407 27.1444 16.7783 27.3592 17.1193 27.6254C17.911 28.2464 18.3968 29.059 18.6023 30.0397C18.7519 30.7496 18.7753 31.4665 18.6749 32.181C18.5209 33.2785 18.0423 34.215 17.218 34.9646C16.702 35.4364 16.1067 35.7843 15.4645 36.0506C14.8107 36.3215 14.1312 36.4991 13.433 36.6066C12.7862 36.707 12.1394 36.7631 11.4856 36.7538L11.4926 36.7585Z" fill="#F5F5F5"/>
    </g>
    <defs>
        <clipPath id="clip0_4655_8777">
            <rect width="91.2387" height="52.4419" fill="white" transform="translate(0.303955 0.00878906)"/>
        </clipPath>
    </defs>
</svg>
