<svg width="52" height="53" viewBox="0 0 52 53" fill="none" xmlns="http://www.w3.org/2000/svg">
    <g clip-path="url(#clip0_4655_8713)">
        <g clip-path="url(#clip1_4655_8713)">
            <path d="M23.6961 11.3471C24.0761 11.0845 24.3682 10.7279 24.6905 10.4049C27.7308 7.3593 30.7705 4.31372 33.7974 1.25538C35.6398 -0.606219 38.4152 -0.219687 39.7282 1.66579C40.8538 3.28336 40.6102 5.32477 39.2102 6.71358C37.4175 8.49191 35.6354 10.2816 33.8648 12.0821C32.3836 13.5878 32.4127 15.9952 33.9029 17.4898C35.733 19.3249 37.5691 21.1546 39.389 23.0004C40.5703 24.1989 40.772 26.1443 39.8964 27.5914C38.984 29.1004 37.1985 29.8184 35.5566 29.3257C34.9274 29.137 34.3714 28.8175 33.9026 28.3468C32.1747 26.6118 30.442 24.8821 28.71 23.1518C28.6247 23.0665 28.5582 22.9557 28.4306 22.9201C28.395 22.7805 28.2795 22.7019 28.1862 22.6086C26.4522 20.8675 24.7088 19.1345 22.9842 17.384C21.6927 16.0734 21.5918 13.942 22.703 12.4733C23.0072 12.0711 23.4282 11.7782 23.6961 11.3478L23.6961 11.3471Z" fill="#EEE6E6"/>
            <path d="M23.6958 11.3475C23.4279 11.778 23.0069 12.0708 22.7027 12.4731C21.5915 13.9418 21.6924 16.0731 22.9839 17.3838C24.7085 19.1343 26.4512 20.8666 28.1859 22.6083C28.2792 22.7023 28.3947 22.7802 28.4303 22.9199C27.0169 24.2449 25.6667 25.6344 24.2982 27.0051C22.2933 29.0137 20.2917 31.0264 18.2874 33.0351C17.571 33.753 16.6974 34.1641 15.6902 34.1836C13.5131 34.2262 11.7314 32.475 11.7829 30.308C11.809 29.2189 12.2313 28.3271 12.9901 27.5688C14.7284 25.8308 16.4628 24.0894 18.1992 22.3494C19.8885 20.657 19.8319 18.21 18.114 16.5455C16.5425 15.0227 15.0234 13.4455 13.4674 11.9058C12.8851 11.3297 12.3029 10.7657 12.0147 9.97C11.0871 7.41028 12.9873 4.84292 15.4692 4.81248C16.606 4.79894 17.5428 5.20915 18.3346 6.00414C20.068 7.74453 21.8053 9.48157 23.542 11.2186C23.589 11.2656 23.6441 11.3039 23.6951 11.3469L23.6958 11.3475Z" fill="white"/>
            <path d="M43.0112 43.6829C42.5673 43.6829 42.1241 43.6749 41.6803 43.6864C41.4862 43.6918 41.4076 43.6488 41.4089 43.4312C41.4109 42.9974 41.4458 42.563 41.3833 42.1285C41.3484 41.8854 41.5485 41.9136 41.7029 41.9136C42.7881 41.9135 43.8732 41.9134 44.9584 41.9133C45.6071 41.9132 46.2564 41.9246 46.9044 41.9071C47.1489 41.9003 47.1972 41.9836 47.1959 42.2106C47.1866 43.6986 47.1868 45.186 47.1963 46.6741C47.1977 46.897 47.1567 46.9904 46.9089 46.9776C46.4852 46.9562 46.0588 46.9643 45.6337 46.9751C45.439 46.9805 45.3416 46.9348 45.302 46.7193C45.2624 46.503 45.2079 46.2176 45.0562 46.1122C44.8607 45.9766 44.705 46.2822 44.5149 46.3668C43.6098 46.7718 42.6825 47.0351 41.6812 47.1218C40.8942 47.1904 40.1039 47.2019 39.3263 47.1939C38.2995 47.1832 37.2748 46.9839 36.3011 46.5952C34.9681 46.0635 33.997 45.1664 33.467 43.8248C33.3092 43.4246 33.2131 43.0036 33.2111 42.561C33.2076 41.7042 33.1538 40.8534 33.4593 40.0193C33.8037 39.0799 34.3818 38.3385 35.1969 37.7851C36.2371 37.0792 37.435 36.8427 38.6551 36.6976C39.4106 36.6075 40.1707 36.6034 40.9295 36.6295C41.8602 36.6617 42.7809 36.7744 43.6781 37.0382C44.7995 37.3678 45.7685 37.9587 46.5093 38.8558C46.8061 39.2157 46.9573 39.6985 47.1588 40.1329C47.2159 40.2558 47.1514 40.3243 46.9943 40.3236C45.5848 40.317 44.1753 40.3178 42.7658 40.32C42.6395 40.32 42.5804 40.2529 42.4951 40.1723C41.9377 39.6452 41.2675 39.3807 40.4987 39.3814C40.0723 39.3815 39.6559 39.3976 39.2275 39.4964C38.3861 39.6912 37.6865 40.5065 37.5328 41.2915C37.4241 41.8488 37.4187 42.3666 37.6041 42.844C37.8996 43.6061 38.4362 44.1789 39.2998 44.3547C40.1197 44.5212 40.9397 44.5077 41.7515 44.3445C42.2148 44.2511 42.6614 44.0751 43.0105 43.6822L43.0112 43.6829Z" fill="white"/>
            <path d="M16.332 46.9721C16.6744 46.5557 16.9007 46.1474 17.1364 45.7499C17.5318 45.0824 18.0025 44.4672 18.3986 43.801C18.7343 43.2369 19.1291 42.7071 19.4574 42.139C19.8462 41.4661 20.3182 40.8462 20.6821 40.1539C20.8499 39.8349 21.1212 39.5474 21.3219 39.2264C21.7778 38.4971 22.2498 37.7779 22.7084 37.0499C22.8125 36.8847 22.9327 36.8223 23.1355 36.8243C24.2428 36.8363 25.3521 36.8691 26.4568 36.8119C26.949 36.7863 27.0329 37.1429 27.2082 37.394C27.6542 38.0339 28.0511 38.7074 28.4816 39.3587C28.8288 39.8831 29.1512 40.4304 29.4904 40.9635C29.7368 41.351 30.0223 41.7223 30.258 42.1071C30.6751 42.7886 31.0995 43.4661 31.5233 44.1436C32.07 45.0165 32.6362 45.878 33.2017 46.7389C33.2399 46.7966 33.2843 46.8389 33.2668 46.9087C33.2426 47.0041 33.1607 46.9679 33.103 46.9679C31.7828 46.97 30.4633 46.9688 29.1431 46.9702C28.9739 46.9703 28.9107 46.8756 28.8368 46.7332C28.6058 46.2887 28.3419 45.861 28.1014 45.4212C28.0416 45.311 27.9658 45.2976 27.859 45.2976C25.8565 45.2998 23.8541 45.302 21.8523 45.2948C21.6831 45.2948 21.6146 45.3801 21.5461 45.4983C21.297 45.9281 21.0426 46.3552 20.8002 46.789C20.7351 46.9059 20.674 46.9757 20.5236 46.9751C19.1591 46.9691 17.7945 46.972 16.332 46.9721ZM24.8669 39.7183C24.2693 40.7599 23.6966 41.7571 23.1065 42.7859L26.6252 42.7856C26.0322 41.7509 25.4593 40.7524 24.8669 39.7183Z" fill="white"/>
            <path d="M10.6072 36.8272C12.5311 36.827 14.4557 36.8328 16.3795 36.8192C16.6535 36.8172 16.7086 36.9025 16.7019 37.1543C16.6852 37.7916 16.6872 38.4295 16.7014 39.0668C16.7061 39.2729 16.6517 39.33 16.4429 39.328C15.3134 39.3174 14.1833 39.3316 13.0538 39.3169C12.7926 39.3136 12.7214 39.3794 12.7228 39.6439C12.7337 41.9707 12.7252 44.2975 12.7362 46.6243C12.7375 46.8929 12.6872 46.9836 12.3951 46.9789C11.1984 46.9602 10.0011 46.9637 8.8045 46.9765C8.54933 46.9792 8.4674 46.9249 8.46872 46.6495C8.48126 44.3228 8.4703 41.996 8.48217 39.6692C8.48349 39.3919 8.41364 39.314 8.13362 39.318C7.01489 39.3342 5.89615 39.3182 4.77809 39.3297C4.54306 39.3325 4.48866 39.2633 4.48259 39.0323C4.46507 38.344 4.56775 37.6517 4.42734 36.9674C4.40315 36.8479 4.49381 36.8418 4.56834 36.8351C4.67981 36.8257 4.79196 36.8277 4.90343 36.8277C6.80514 36.8275 8.70686 36.8273 10.6086 36.8272L10.6072 36.8272Z" fill="white"/>
            <path d="M11.6504 13.9435C12.0808 13.9219 12.4052 14.0596 12.6812 14.3362C14.0465 15.7053 15.4199 17.0663 16.7805 18.4408C17.4312 19.0981 17.385 19.9623 16.684 20.6675C15.9192 21.4358 15.1497 22.1994 14.3829 22.9663C13.8532 23.4962 13.3308 24.0327 12.7963 24.5572C11.959 25.3792 10.7745 25.19 10.354 24.1566C10.0961 23.5234 10.3008 22.9814 10.7702 22.516C11.3745 21.9183 11.9754 21.3173 12.575 20.7149C13.3505 19.9365 13.3592 19.0931 12.5902 18.3048C12.0053 17.7052 11.4137 17.111 10.8133 16.5268C9.96709 15.7043 10.1268 14.92 10.8245 14.1604C11.0152 13.9529 11.3791 13.9334 11.6504 13.9435Z" fill="white"/>
            <path d="M41.9483 10.6621C41.9746 11.0556 41.8108 11.3981 41.5214 11.6882C40.8976 12.3128 40.2805 12.9434 39.648 13.5592C38.9 14.2872 38.8672 15.1333 39.5938 15.884C40.2157 16.5266 40.8389 17.1685 41.489 17.7815C42.0834 18.3422 42.0418 19.2991 41.7034 19.7416C41.1126 20.5132 40.2013 20.5979 39.4733 19.9003C38.7964 19.251 38.143 18.5769 37.4795 17.9128C36.8085 17.2407 36.1363 16.5699 35.4688 15.8951C34.7616 15.18 34.738 14.3615 35.4403 13.6469C36.7638 12.3011 38.0966 10.9633 39.4435 9.64098C40.4017 8.70077 41.5299 9.27212 41.8623 10.0457C41.945 10.2384 41.9497 10.4358 41.949 10.6621L41.9483 10.6621Z" fill="#EEE6E6"/>
            <path d="M16.0651 52.5403C15.2237 52.49 14.577 51.875 14.6628 50.8805C14.7487 49.8913 15.4866 49.5273 16.2716 49.5561C17.3823 49.597 17.8672 50.3631 17.8116 51.1018C17.7324 52.1453 16.9172 52.5846 16.0651 52.5397L16.0651 52.5403ZM15.3391 51.0275C15.3371 51.5721 15.693 51.9447 16.2202 51.9487C16.752 51.9527 17.1186 51.5874 17.1246 51.0488C17.1306 50.5116 16.7679 50.1336 16.2401 50.1269C15.7143 50.1196 15.3417 50.493 15.3397 51.0282L15.3391 51.0275Z" fill="white"/>
            <path d="M20.6201 52.5335C19.8687 52.5094 19.3643 52.2516 19.1252 51.6452C18.7988 50.8186 19.1479 49.7086 20.2841 49.5849C20.7306 49.5365 21.1657 49.5405 21.5479 49.8151C21.6419 49.8823 21.8547 49.9783 21.7379 50.0857C21.615 50.1992 21.5432 50.4867 21.2437 50.351C20.9502 50.2188 20.6628 50.0241 20.2995 50.1826C19.8953 50.3585 19.5999 50.9072 19.7262 51.3135C19.8599 51.7419 20.391 52.0326 20.845 51.9399C21.2371 51.8599 21.176 51.5618 21.1578 51.2985C21.141 51.0555 21.2102 50.9776 21.4674 50.9816C21.7158 50.9856 21.8065 51.0433 21.7837 51.2998C21.7669 51.4932 21.7931 51.6886 21.8301 51.8874C21.8926 52.2238 21.5615 52.293 21.3453 52.3964C21.0868 52.5207 20.792 52.5321 20.6201 52.5335Z" fill="white"/>
            <path d="M39.5423 52.5346C39.2844 52.5547 38.9561 52.4943 38.6485 52.3399C38.5202 52.2755 38.3846 52.2043 38.5189 52.0189C38.6209 51.8779 38.6578 51.6489 38.9218 51.8054C39.1971 51.9678 39.506 52.0101 39.8176 51.9799C39.9801 51.9644 40.1835 51.9073 40.1815 51.7092C40.1795 51.5387 40.0082 51.4547 39.8444 51.4017C39.5408 51.3023 39.2105 51.3037 38.9271 51.1265C38.5792 50.9083 38.4254 50.6081 38.5133 50.267C38.604 49.9164 38.9652 49.625 39.3077 49.5873C39.7079 49.5436 40.0974 49.5678 40.4882 49.6618C40.6339 49.6967 40.8159 49.794 40.7535 49.8921C40.6635 50.0338 40.6575 50.3467 40.3466 50.2587C40.1176 50.1943 39.898 50.1037 39.6482 50.1232C39.4467 50.1386 39.2493 50.146 39.2171 50.3931C39.1862 50.6356 39.4159 50.6624 39.5623 50.7128C39.8806 50.8215 40.2325 50.8262 40.5299 51.0095C40.7697 51.1579 40.9336 51.3862 40.8993 51.6554C40.8564 51.9932 40.6778 52.2585 40.332 52.421C40.0936 52.5332 39.8673 52.5292 39.5416 52.5366L39.5423 52.5346Z" fill="white"/>
            <path d="M26.3645 52.5272C26.0577 52.5534 25.779 52.4688 25.5151 52.3419C25.419 52.2956 25.2001 52.2573 25.3451 52.0787C25.4465 51.9545 25.4337 51.6046 25.7722 51.8094C26.0778 51.994 26.4222 51.9759 26.7674 51.9463C26.9427 51.9315 27.0004 51.7985 27.0313 51.6897C27.0648 51.5722 26.9191 51.5232 26.8258 51.4655C26.5625 51.301 26.2415 51.3547 25.9615 51.2131C25.5848 51.0231 25.3363 50.7444 25.3517 50.3838C25.3651 50.0608 25.6612 49.7069 26.0252 49.6202C26.4616 49.5161 26.9028 49.5241 27.3286 49.6765C27.4562 49.7222 27.6489 49.7564 27.5287 49.9995C27.4408 50.1775 27.4058 50.3353 27.1439 50.2017C26.8935 50.0734 26.6114 50.0452 26.3281 50.1205C26.185 50.1588 26.0809 50.234 26.0669 50.3864C26.0514 50.5503 26.1663 50.6127 26.3006 50.6651C26.5699 50.7711 26.8593 50.8007 27.1292 50.9141C27.6114 51.1176 27.7283 51.268 27.7041 51.7823C27.6887 52.1188 27.4658 52.3686 27.0495 52.4532C26.8239 52.4996 26.5935 52.5641 26.3632 52.5265L26.3645 52.5272Z" fill="white"/>
            <path d="M36.1744 52.5255C35.4498 52.5894 34.9965 52.212 34.709 51.6534C34.5411 51.327 34.5586 50.9282 34.6827 50.5649C35.0177 49.5898 36.2929 49.2123 37.1324 49.8394C37.2237 49.9079 37.4446 49.9958 37.3003 50.1207C37.1848 50.2215 37.0928 50.48 36.8168 50.3511C36.7154 50.3041 36.6563 50.2168 36.5542 50.1806C35.9673 49.9738 35.3556 50.364 35.3355 50.9919C35.3255 51.3102 35.3738 51.6399 35.7109 51.8151C36.0561 51.9937 36.3946 51.9675 36.7162 51.7553C36.9378 51.6088 37.2373 51.6699 37.3582 51.8982C37.4025 51.9822 37.3508 52.0419 37.2957 52.1037C36.9855 52.4502 36.6008 52.594 36.173 52.5262L36.1744 52.5255Z" fill="white"/>
            <path d="M28.7555 49.5904C29.5371 49.5904 30.308 49.599 31.0782 49.5849C31.322 49.5801 31.281 49.7259 31.2844 49.8669C31.2878 50.0133 31.312 50.1502 31.0749 50.1422C30.8486 50.1342 30.535 50.0274 30.4128 50.2034C30.3014 50.3632 30.3779 50.6553 30.3766 50.8897C30.374 51.3255 30.3505 51.7626 30.3828 52.1964C30.4083 52.5382 30.2035 52.4697 30.0068 52.4825C29.7959 52.496 29.6865 52.4691 29.6965 52.2052C29.7199 51.6029 29.6957 50.9985 29.7084 50.3955C29.7131 50.1887 29.652 50.1115 29.4445 50.133C29.3008 50.1484 29.1537 50.1283 29.0094 50.137C28.7891 50.1498 28.6159 50.1445 28.7676 49.8443C28.7978 49.7852 28.7615 49.6925 28.7548 49.5898L28.7555 49.5904Z" fill="white"/>
            <path d="M11.4473 51.0246C11.4473 50.6217 11.454 50.2188 11.4459 49.8159C11.4371 49.4043 11.7426 49.6326 11.9031 49.597C12.0918 49.5546 12.1449 49.6446 12.1328 49.8629C12.1006 50.4652 12.1269 51.0709 12.1162 51.6746C12.1129 51.8928 12.2169 51.9398 12.405 51.9351C12.7179 51.9277 13.0322 51.9458 13.3444 51.9283C13.5613 51.9162 13.5499 52.0438 13.5372 52.1815C13.5251 52.3064 13.6164 52.485 13.3566 52.4803C12.7858 52.4696 12.215 52.471 11.6449 52.4805C11.475 52.4832 11.4407 52.4187 11.4441 52.2649C11.4528 51.8513 11.4474 51.437 11.4473 51.0226L11.4473 51.0246Z" fill="white"/>
            <path d="M33.2121 51.065C33.2122 51.4558 33.2028 51.8473 33.2163 52.2381C33.2223 52.4228 33.1746 52.5061 32.9792 52.4799C32.8805 52.4665 32.7785 52.4772 32.6777 52.4779C32.5193 52.4779 32.4528 52.4685 32.5031 52.2509C32.5689 51.9642 32.5339 51.6533 32.5359 51.3525C32.5392 50.8945 32.5372 50.4365 32.5372 49.9786C32.5371 49.8557 32.5217 49.6287 32.5425 49.6253C32.7386 49.5931 32.942 49.5803 33.1401 49.6004C33.2597 49.6125 33.2086 49.7462 33.2093 49.8254C33.2147 50.2384 33.2121 50.652 33.2121 51.0657L33.2121 51.065Z" fill="white"/>
            <path d="M23.3116 51.0019C23.3116 50.6225 23.3243 50.2417 23.3068 49.863C23.2967 49.6407 23.3733 49.5722 23.5888 49.5843C23.7916 49.595 23.9884 49.5494 23.981 49.8677C23.967 50.4928 23.9778 51.1187 23.9778 51.7439C23.9778 51.8667 23.9778 51.9896 23.9779 52.1125C23.9779 52.4369 23.6831 52.6135 23.3809 52.4738C23.2661 52.4208 23.3138 52.3201 23.3124 52.2415C23.307 51.8285 23.3096 51.4149 23.3103 51.0019L23.3116 51.0019Z" fill="white"/>
        </g>
    </g>
    <defs>
        <clipPath id="clip0_4655_8713">
            <rect width="50.6055" height="52.4419" fill="white" transform="translate(0.502441 0.0732422)"/>
        </clipPath>
        <clipPath id="clip1_4655_8713">
            <rect width="42.7739" height="52.502" fill="white" transform="translate(4.41821 0.0429688)"/>
        </clipPath>
    </defs>
</svg>
