<svg width="48" height="48" viewBox="0 0 48 48" fill="none" xmlns="http://www.w3.org/2000/svg">
<path d="M8.11424 0.000650983C7.54062 0.00650416 6.98636 0.0533326 6.45387 0.141136C4.31912 0.486498 2.45304 1.52846 1.2767 3.43374C0.0980141 5.33909 -0.204542 7.79755 0.124596 10.3702C0.453734 12.9428 1.38805 15.7116 2.80151 18.5918C3.41144 19.8327 4.13026 21.0971 4.91451 22.3703C5.45667 21.5683 6.02547 20.7664 6.62569 19.9703C6.02786 18.9694 5.46875 17.9772 4.99679 17.0172C3.69945 14.3744 2.91043 11.9158 2.65143 9.89928C2.39488 7.88274 2.64417 6.38423 3.32427 5.28372C4.00442 4.18621 5.12499 3.4691 6.79751 3.19989C8.47003 2.93069 10.6386 3.15892 13.1002 3.91696C15.6295 4.69551 18.4637 6.03592 21.4142 7.86808C19.7804 9.08269 18.137 10.4202 16.5081 11.8953C10.4015 17.4211 5.6283 23.6496 2.80163 29.4092C1.38817 32.2891 0.451441 35.0608 0.124719 37.6337C-0.20445 40.2064 0.0980955 42.6678 1.27683 44.5702C2.45551 46.4755 4.32408 47.5175 6.45641 47.8599C8.59116 48.2052 11.0479 47.9008 13.7319 47.0725C16.4379 46.2384 19.3786 44.8599 22.4114 42.9926C21.5425 42.3926 20.6712 41.7546 19.7999 41.0844C17.4328 42.4248 15.1649 43.4492 13.1025 44.0843C10.641 44.8423 8.4699 45.0735 6.79732 44.8043C5.12474 44.535 4.00423 43.818 3.32409 42.7175C2.64394 41.6199 2.38983 40.1155 2.64883 38.099C2.90539 36.0824 3.69926 33.6298 4.9966 30.9869C5.72756 29.4972 6.62792 27.9489 7.65901 26.3773C10.1012 29.6523 13.0225 32.9128 16.377 35.9655L16.3745 35.9625C16.3794 35.9713 16.3842 35.9801 16.3915 35.9889C16.435 36.0269 16.4641 36.0708 16.5077 36.1089C16.544 36.1411 16.5851 36.1703 16.6238 36.1996C16.6287 36.2025 16.6311 36.2055 16.6359 36.2113C22.7014 41.6727 28.9433 45.4309 34.2707 47.0725C36.9549 47.9008 39.4092 48.2022 41.5437 47.8569C43.6785 47.5116 45.5445 46.4667 46.7233 44.5614C47.902 42.656 48.2045 40.1976 47.8754 37.6249C47.5463 35.0523 46.6144 32.2894 45.2009 29.4064C44.5982 28.1801 43.8915 26.9303 43.1194 25.6718C42.5748 26.4737 42.0084 27.2756 41.4058 28.0746C41.9939 29.061 42.5433 30.0327 43.008 30.9809C44.3054 33.6238 45.0992 36.0765 45.3558 38.093C45.6124 40.1095 45.3582 41.6139 44.6781 42.7144C43.9979 43.8119 42.8822 44.5232 41.2097 44.7953C39.5372 45.0646 37.3613 44.8421 34.8996 44.0841C32.3703 43.3055 29.5361 41.9651 26.5831 40.133C28.2169 38.9184 29.8603 37.5867 31.4892 36.1116C37.5958 30.5858 42.3708 24.352 45.1981 18.5917C46.6116 15.7118 47.541 12.946 47.8702 10.3732C48.1994 7.80038 47.8968 5.33908 46.7181 3.43672C45.5394 1.53136 43.6708 0.489446 41.5385 0.144115C41.006 0.0592389 40.4518 0.0124105 39.8806 0.00362921C38.1645 -0.0168584 36.2791 0.308014 34.2677 0.928509C31.5836 1.75681 28.667 3.11776 25.6582 4.9616C26.5271 5.56452 27.3985 6.19959 28.2722 6.87572C30.6127 5.55576 32.8564 4.54599 34.8965 3.91676C37.358 3.15874 39.5291 2.92752 41.2017 3.19677C42.8743 3.46603 43.9948 4.18309 44.6749 5.2836C45.3551 6.38111 45.6092 7.88554 45.3527 9.90208C45.0961 11.9186 44.2998 14.3712 43.0049 17.0142C42.2763 18.501 41.376 20.0492 40.3473 21.6209C37.8737 18.2931 34.9039 14.98 31.4887 11.8896C25.3821 6.3638 19.094 2.58231 13.7257 0.928705C11.7119 0.308232 9.82646 -0.0195522 8.10803 0.000902503L8.11424 0.000650983ZM23.9992 9.58887C25.9767 10.9791 27.9807 12.5625 29.9654 14.3595C33.3612 17.4327 36.304 20.737 38.6982 23.9972C36.3045 27.2606 33.3637 30.5649 29.9679 33.6379C27.9808 35.4349 25.9767 37.0154 23.9993 38.4027C22.0243 37.0124 20.0202 35.432 18.0355 33.6349C14.6422 30.5647 11.6988 27.2604 9.30768 23.9973C11.7014 20.7339 14.6397 17.4296 18.0355 14.3596C20.0202 12.5626 22.0243 10.9763 24.0017 9.58602L23.9992 9.58887ZM23.9968 13.7888C20.6761 13.7888 17.9847 17.0464 17.9847 21.0618C17.9847 23.4179 18.9286 25.6246 20.5163 26.9886C21.3586 27.7964 21.3683 28.9964 21.3683 28.9964H26.635C26.635 28.9964 26.6423 27.8637 27.5378 26.9535C27.545 26.9476 27.5475 26.9359 27.5547 26.93C29.1013 25.5603 30.0162 23.3798 30.0162 21.0619C30.0162 17.0463 27.3224 13.7889 24.0017 13.7889L23.9968 13.7888ZM21.3659 29.3823V31.4076C21.3659 31.4076 21.3247 32.6398 22.046 33.2222C22.7673 33.8047 23.4159 34.2144 23.9968 34.2144C24.5777 34.2144 25.2288 33.8047 25.95 33.2222C26.6713 32.6398 26.6302 31.4076 26.6302 31.4076V29.3823H21.3659Z" fill="#703391"/>
</svg>
