<svg width="50" height="52" viewBox="0 0 50 52" fill="none" xmlns="http://www.w3.org/2000/svg">
<path d="M40.5339 42.0829H39.2877C39.4777 41.5624 39.6042 41.0216 39.6648 40.4718H42.1736V38.8607H39.6648C39.6042 38.3109 39.4777 37.7701 39.2877 37.2496H40.5339C40.6418 37.2502 40.7488 37.2299 40.8486 37.1898C40.9485 37.1497 41.0394 37.0907 41.116 37.016L42.7557 35.4049L41.5915 34.261L40.1977 35.6385H38.4514C38.2327 35.3543 37.9944 35.0851 37.7381 34.833C37.9634 34.3249 38.0779 33.7761 38.0743 33.2219C38.0714 32.669 37.9528 32.1226 37.7257 31.6168C37.4986 31.111 37.1679 30.6565 36.7543 30.2816C37.2942 29.3846 38.1482 28.7117 39.1565 28.3886L38.6318 26.8581C37.2526 27.3172 36.0882 28.2496 35.3523 29.4841C34.4653 29.1514 33.4846 29.1514 32.5976 29.4841C31.8616 28.2496 30.6973 27.3172 29.3181 26.8581L28.7934 28.3886C29.8084 28.7217 30.6633 29.4097 31.1956 30.3219C30.787 30.6921 30.4592 31.1401 30.2323 31.6386C30.0054 32.1372 29.884 32.6758 29.8756 33.2219C29.872 33.7761 29.9865 34.3249 30.2118 34.833C29.9555 35.0851 29.7172 35.3543 29.4985 35.6385H27.7521L26.3584 34.261L25.1942 35.4049L26.8339 37.016C26.9105 37.0907 27.0014 37.1497 27.1012 37.1898C27.2011 37.2299 27.3081 37.2502 27.416 37.2496H28.6622C28.4722 37.7701 28.3456 38.3109 28.2851 38.8607H25.7763V40.4718H28.2851C28.3456 41.0216 28.4722 41.5624 28.6622 42.0829H27.416C27.3081 42.0823 27.2011 42.1026 27.1012 42.1427C27.0014 42.1828 26.9105 42.2418 26.8339 42.3165L25.1942 43.9276L26.3584 45.0715L27.7521 43.694H29.4985C29.9774 44.4342 30.6388 45.0437 31.4213 45.466C32.2038 45.8883 33.0822 46.1096 33.9749 46.1096C34.8677 46.1096 35.746 45.8883 36.5286 45.466C37.3111 45.0437 37.9724 44.4342 38.4514 43.694H40.1977L41.5915 45.0715L42.7557 43.9276L41.116 42.3165C41.0394 42.2418 40.9485 42.1828 40.8486 42.1427C40.7488 42.1026 40.6418 42.0823 40.5339 42.0829ZM30.925 36.4441C31.2584 35.9489 31.7114 35.5426 32.2436 35.2615C32.7759 34.9804 33.3707 34.8332 33.9749 34.8332C34.5792 34.8332 35.174 34.9804 35.7063 35.2615C36.2385 35.5426 36.6915 35.9489 37.0249 36.4441H30.925ZM36.4346 33.2219C36.4319 33.4205 36.4044 33.618 36.3526 33.8099C35.6215 33.4242 34.8047 33.2224 33.9749 33.2224C33.1452 33.2224 32.3284 33.4242 31.5973 33.8099C31.5075 33.4765 31.4915 33.128 31.5501 32.7879C31.6088 32.4478 31.7409 32.124 31.9376 31.8382C32.1342 31.5525 32.3908 31.3114 32.6902 31.1312C32.9896 30.951 33.3247 30.8359 33.6731 30.7935C34.0215 30.7512 34.3751 30.7826 34.7102 30.8857C35.0452 30.9887 35.3539 31.1611 35.6155 31.3911C35.8771 31.6212 36.0855 31.9036 36.2268 32.2194C36.3681 32.5351 36.4389 32.877 36.4346 33.2219ZM29.8756 39.6662C29.8781 39.121 29.9582 38.5787 30.1134 38.0552H33.1551V44.4029C31.2858 43.9518 29.8756 42.0023 29.8756 39.6662ZM34.7948 44.4029V38.0552H37.8365C37.9917 38.5787 38.0718 39.121 38.0743 39.6662C38.0743 42.0023 36.6641 43.9518 34.7948 44.4029Z" fill="#703391"/>
<path d="M39.7139 24.7878V1.80555C39.7139 1.5919 39.6276 1.38701 39.4738 1.23594C39.32 1.08487 39.1115 1 38.8941 1H2.81987C2.60243 1 2.39389 1.08487 2.24013 1.23594C2.08638 1.38701 2 1.5919 2 1.80555V46.9162C2 47.1298 2.08638 47.3347 2.24013 47.4858C2.39389 47.6368 2.60243 47.7217 2.81987 47.7217H25.0137C26.5349 48.9974 28.3177 49.9365 30.241 50.4753C32.1644 51.014 34.1832 51.1398 36.1603 50.8439C38.1375 50.5481 40.0268 49.8377 41.6997 48.761C43.3727 47.6842 44.7902 46.2663 45.856 44.6035C46.9218 42.9408 47.6109 41.0721 47.8765 39.1245C48.1421 37.1769 47.9781 35.1959 47.3954 33.3161C46.8127 31.4363 45.8252 29.7017 44.4997 28.2302C43.1743 26.7586 41.5421 25.5846 39.7139 24.7878ZM3.63974 2.61109H38.0742V24.1595C36.7455 23.7607 35.3641 23.5571 33.9749 23.5553C30.6941 23.5551 27.5193 24.6967 25.0137 26.7775H15.1179V28.3886H23.3658C22.9296 28.898 22.5296 29.4363 22.1688 29.9997H15.1179V31.6108H21.2915C20.5899 33.1355 20.1786 34.7737 20.0781 36.4441H15.1179V38.0551H20.0781C20.1071 38.5955 20.1701 39.1335 20.2667 39.6662H15.1179V41.2773H20.652C21.2133 43.0527 22.1367 44.6972 23.3658 46.1106H3.63974V2.61109ZM33.9749 49.3328C31.5425 49.3328 29.1648 48.6241 27.1424 47.2964C25.12 45.9687 23.5438 44.0816 22.613 41.8736C21.6822 39.6657 21.4386 37.2362 21.9131 34.8923C22.3877 32.5484 23.5589 30.3954 25.2788 28.7055C26.9988 27.0156 29.1901 25.8648 31.5756 25.3986C33.9612 24.9323 36.4339 25.1716 38.6811 26.0862C40.9283 27.0007 42.849 28.5495 44.2003 30.5365C45.5516 32.5236 46.2729 34.8598 46.2729 37.2496C46.2729 40.4543 44.9772 43.5277 42.6709 45.7937C40.3645 48.0598 37.2365 49.3328 33.9749 49.3328Z" fill="#703391"/>
<path d="M6.0993 13.8887H12.6582C12.8757 13.8887 13.0842 13.8038 13.238 13.6527C13.3917 13.5017 13.4781 13.2968 13.4781 13.0831V6.63877C13.4781 6.42512 13.3917 6.22023 13.238 6.06916C13.0842 5.91809 12.8757 5.83322 12.6582 5.83322H6.0993C5.88186 5.83322 5.67332 5.91809 5.51957 6.06916C5.36581 6.22023 5.27943 6.42512 5.27943 6.63877V13.0831C5.27943 13.2968 5.36581 13.5017 5.51957 13.6527C5.67332 13.8038 5.88186 13.8887 6.0993 13.8887ZM6.91917 7.44431H11.8384V12.2776H6.91917V7.44431Z" fill="#703391"/>
<path d="M6.0993 23.5554H12.6582C12.8757 23.5554 13.0842 23.4705 13.238 23.3195C13.3917 23.1684 13.4781 22.9635 13.4781 22.7498V16.6357L15.7 14.4608L14.5357 13.3169L12.3221 15.4999H6.0993C5.88186 15.4999 5.67332 15.5848 5.51957 15.7359C5.36581 15.8869 5.27943 16.0918 5.27943 16.3055V22.7498C5.27943 22.9635 5.36581 23.1684 5.51957 23.3195C5.67332 23.4705 5.88186 23.5554 6.0993 23.5554ZM11.8384 21.9443H8.07518L11.8384 18.2468V21.9443ZM10.6824 17.111L6.91917 20.8085V17.111H10.6824Z" fill="#703391"/>
<path d="M12.6582 34.8331H6.0993C5.88186 34.8331 5.67332 34.9179 5.51957 35.069C5.36581 35.2201 5.27943 35.425 5.27943 35.6386V42.083C5.27943 42.2966 5.36581 42.5015 5.51957 42.6526C5.67332 42.8037 5.88186 42.8885 6.0993 42.8885H12.6582C12.8757 42.8885 13.0842 42.8037 13.238 42.6526C13.3917 42.5015 13.4781 42.2966 13.4781 42.083V35.6386C13.4781 35.425 13.3917 35.2201 13.238 35.069C13.0842 34.9179 12.8757 34.8331 12.6582 34.8331ZM11.8384 41.2774H6.91917V36.4442H11.8384V41.2774Z" fill="#703391"/>
<path d="M36.4348 7.44455H15.1182V9.05564H36.4348V7.44455Z" fill="#703391"/>
<path d="M33.1553 10.6664H15.1182V12.2775H33.1553V10.6664Z" fill="#703391"/>
<path d="M36.4348 17.111H15.1182V18.7221H36.4348V17.111Z" fill="#703391"/>
<path d="M33.1553 20.3331H15.1182V21.9442H33.1553V20.3331Z" fill="#703391"/>
<path d="M36.4346 10.6664H34.7948V12.2775H36.4346V10.6664Z" fill="#703391"/>
<path d="M36.4346 20.3331H34.7948V21.9442H36.4346V20.3331Z" fill="#703391"/>
<path d="M15.7 24.1272L14.5357 22.9833L12.3221 25.1664H6.0993C5.88186 25.1664 5.67332 25.2512 5.51957 25.4023C5.36581 25.5534 5.27943 25.7583 5.27943 25.9719V32.4163C5.27943 32.6299 5.36581 32.8348 5.51957 32.9859C5.67332 33.137 5.88186 33.2218 6.0993 33.2218H12.6582C12.8757 33.2218 13.0842 33.137 13.238 32.9859C13.3917 32.8348 13.4781 32.6299 13.4781 32.4163V26.3022L15.7 24.1272ZM10.6824 26.7775L6.91917 30.4749V26.7775H10.6824ZM11.8384 31.6107H8.07518L11.8384 27.9133V31.6107Z" fill="#703391"/>
<path d="M40.5339 42.0829H39.2877C39.4777 41.5624 39.6042 41.0216 39.6648 40.4718H42.1736V38.8607H39.6648C39.6042 38.3109 39.4777 37.7701 39.2877 37.2496H40.5339C40.6418 37.2502 40.7488 37.2299 40.8486 37.1898C40.9485 37.1497 41.0394 37.0907 41.116 37.016L42.7557 35.4049L41.5915 34.261L40.1977 35.6385H38.4514C38.2327 35.3543 37.9944 35.0851 37.7381 34.833C37.9634 34.3249 38.0779 33.7761 38.0743 33.2219C38.0714 32.669 37.9528 32.1226 37.7257 31.6168C37.4986 31.111 37.1679 30.6565 36.7543 30.2816C37.2942 29.3846 38.1482 28.7117 39.1565 28.3886L38.6318 26.8581C37.2526 27.3172 36.0882 28.2496 35.3523 29.4841C34.4653 29.1514 33.4846 29.1514 32.5976 29.4841C31.8616 28.2496 30.6973 27.3172 29.3181 26.8581L28.7934 28.3886C29.8084 28.7217 30.6633 29.4097 31.1956 30.3219C30.787 30.6921 30.4592 31.1401 30.2323 31.6386C30.0054 32.1372 29.884 32.6758 29.8756 33.2219C29.872 33.7761 29.9865 34.3249 30.2118 34.833C29.9555 35.0851 29.7172 35.3543 29.4985 35.6385H27.7521L26.3584 34.261L25.1942 35.4049L26.8339 37.016C26.9105 37.0907 27.0014 37.1497 27.1012 37.1898C27.2011 37.2299 27.3081 37.2502 27.416 37.2496H28.6622C28.4722 37.7701 28.3456 38.3109 28.2851 38.8607H25.7763V40.4718H28.2851C28.3456 41.0216 28.4722 41.5624 28.6622 42.0829H27.416C27.3081 42.0823 27.2011 42.1026 27.1012 42.1427C27.0014 42.1828 26.9105 42.2418 26.8339 42.3165L25.1942 43.9276L26.3584 45.0715L27.7521 43.694H29.4985C29.9774 44.4342 30.6388 45.0437 31.4213 45.466C32.2038 45.8883 33.0822 46.1096 33.9749 46.1096C34.8677 46.1096 35.746 45.8883 36.5286 45.466C37.3111 45.0437 37.9724 44.4342 38.4514 43.694H40.1977L41.5915 45.0715L42.7557 43.9276L41.116 42.3165C41.0394 42.2418 40.9485 42.1828 40.8486 42.1427C40.7488 42.1026 40.6418 42.0823 40.5339 42.0829ZM30.925 36.4441C31.2584 35.9489 31.7114 35.5426 32.2436 35.2615C32.7759 34.9804 33.3707 34.8332 33.9749 34.8332C34.5792 34.8332 35.174 34.9804 35.7063 35.2615C36.2385 35.5426 36.6915 35.9489 37.0249 36.4441H30.925ZM36.4346 33.2219C36.4319 33.4205 36.4044 33.618 36.3526 33.8099C35.6215 33.4242 34.8047 33.2224 33.9749 33.2224C33.1452 33.2224 32.3284 33.4242 31.5973 33.8099C31.5075 33.4765 31.4915 33.128 31.5501 32.7879C31.6088 32.4478 31.7409 32.124 31.9376 31.8382C32.1342 31.5525 32.3908 31.3114 32.6902 31.1312C32.9896 30.951 33.3247 30.8359 33.6731 30.7935C34.0215 30.7512 34.3751 30.7826 34.7102 30.8857C35.0452 30.9887 35.3539 31.1611 35.6155 31.3911C35.8771 31.6212 36.0855 31.9036 36.2268 32.2194C36.3681 32.5351 36.4389 32.877 36.4346 33.2219ZM29.8756 39.6662C29.8781 39.121 29.9582 38.5787 30.1134 38.0552H33.1551V44.4029C31.2858 43.9518 29.8756 42.0023 29.8756 39.6662ZM34.7948 44.4029V38.0552H37.8365C37.9917 38.5787 38.0718 39.121 38.0743 39.6662C38.0743 42.0023 36.6641 43.9518 34.7948 44.4029Z" stroke="#703391" stroke-width="0.5"/>
<path d="M39.7139 24.7878V1.80555C39.7139 1.5919 39.6276 1.38701 39.4738 1.23594C39.32 1.08487 39.1115 1 38.8941 1H2.81987C2.60243 1 2.39389 1.08487 2.24013 1.23594C2.08638 1.38701 2 1.5919 2 1.80555V46.9162C2 47.1298 2.08638 47.3347 2.24013 47.4858C2.39389 47.6368 2.60243 47.7217 2.81987 47.7217H25.0137C26.5349 48.9974 28.3177 49.9365 30.241 50.4753C32.1644 51.014 34.1832 51.1398 36.1603 50.8439C38.1375 50.5481 40.0268 49.8377 41.6997 48.761C43.3727 47.6842 44.7902 46.2663 45.856 44.6035C46.9218 42.9408 47.6109 41.0721 47.8765 39.1245C48.1421 37.1769 47.9781 35.1959 47.3954 33.3161C46.8127 31.4363 45.8252 29.7017 44.4997 28.2302C43.1743 26.7586 41.5421 25.5846 39.7139 24.7878ZM3.63974 2.61109H38.0742V24.1595C36.7455 23.7607 35.3641 23.5571 33.9749 23.5553C30.6941 23.5551 27.5193 24.6967 25.0137 26.7775H15.1179V28.3886H23.3658C22.9296 28.898 22.5296 29.4363 22.1688 29.9997H15.1179V31.6108H21.2915C20.5899 33.1355 20.1786 34.7737 20.0781 36.4441H15.1179V38.0551H20.0781C20.1071 38.5955 20.1701 39.1335 20.2667 39.6662H15.1179V41.2773H20.652C21.2133 43.0527 22.1367 44.6972 23.3658 46.1106H3.63974V2.61109ZM33.9749 49.3328C31.5425 49.3328 29.1648 48.6241 27.1424 47.2964C25.12 45.9687 23.5438 44.0816 22.613 41.8736C21.6822 39.6657 21.4386 37.2362 21.9131 34.8923C22.3877 32.5484 23.5589 30.3954 25.2788 28.7055C26.9988 27.0156 29.1901 25.8648 31.5756 25.3986C33.9612 24.9323 36.4339 25.1716 38.6811 26.0862C40.9283 27.0007 42.849 28.5495 44.2003 30.5365C45.5516 32.5236 46.2729 34.8598 46.2729 37.2496C46.2729 40.4543 44.9772 43.5277 42.6709 45.7937C40.3645 48.0598 37.2365 49.3328 33.9749 49.3328Z" stroke="#703391" stroke-width="0.5"/>
<path d="M6.0993 13.8887H12.6582C12.8757 13.8887 13.0842 13.8038 13.238 13.6527C13.3917 13.5017 13.4781 13.2968 13.4781 13.0831V6.63877C13.4781 6.42512 13.3917 6.22023 13.238 6.06916C13.0842 5.91809 12.8757 5.83322 12.6582 5.83322H6.0993C5.88186 5.83322 5.67332 5.91809 5.51957 6.06916C5.36581 6.22023 5.27943 6.42512 5.27943 6.63877V13.0831C5.27943 13.2968 5.36581 13.5017 5.51957 13.6527C5.67332 13.8038 5.88186 13.8887 6.0993 13.8887ZM6.91917 7.44431H11.8384V12.2776H6.91917V7.44431Z" stroke="#703391" stroke-width="0.5"/>
<path d="M6.0993 23.5554H12.6582C12.8757 23.5554 13.0842 23.4705 13.238 23.3195C13.3917 23.1684 13.4781 22.9635 13.4781 22.7498V16.6357L15.7 14.4608L14.5357 13.3169L12.3221 15.4999H6.0993C5.88186 15.4999 5.67332 15.5848 5.51957 15.7359C5.36581 15.8869 5.27943 16.0918 5.27943 16.3055V22.7498C5.27943 22.9635 5.36581 23.1684 5.51957 23.3195C5.67332 23.4705 5.88186 23.5554 6.0993 23.5554ZM11.8384 21.9443H8.07518L11.8384 18.2468V21.9443ZM10.6824 17.111L6.91917 20.8085V17.111H10.6824Z" stroke="#703391" stroke-width="0.5"/>
<path d="M12.6582 34.8331H6.0993C5.88186 34.8331 5.67332 34.9179 5.51957 35.069C5.36581 35.2201 5.27943 35.425 5.27943 35.6386V42.083C5.27943 42.2966 5.36581 42.5015 5.51957 42.6526C5.67332 42.8037 5.88186 42.8885 6.0993 42.8885H12.6582C12.8757 42.8885 13.0842 42.8037 13.238 42.6526C13.3917 42.5015 13.4781 42.2966 13.4781 42.083V35.6386C13.4781 35.425 13.3917 35.2201 13.238 35.069C13.0842 34.9179 12.8757 34.8331 12.6582 34.8331ZM11.8384 41.2774H6.91917V36.4442H11.8384V41.2774Z" stroke="#703391" stroke-width="0.5"/>
<path d="M36.4348 7.44455H15.1182V9.05564H36.4348V7.44455Z" stroke="#703391" stroke-width="0.5"/>
<path d="M33.1553 10.6664H15.1182V12.2775H33.1553V10.6664Z" stroke="#703391" stroke-width="0.5"/>
<path d="M36.4348 17.111H15.1182V18.7221H36.4348V17.111Z" stroke="#703391" stroke-width="0.5"/>
<path d="M33.1553 20.3331H15.1182V21.9442H33.1553V20.3331Z" stroke="#703391" stroke-width="0.5"/>
<path d="M36.4346 10.6664H34.7948V12.2775H36.4346V10.6664Z" stroke="#703391" stroke-width="0.5"/>
<path d="M36.4346 20.3331H34.7948V21.9442H36.4346V20.3331Z" stroke="#703391" stroke-width="0.5"/>
<path d="M15.7 24.1272L14.5357 22.9833L12.3221 25.1664H6.0993C5.88186 25.1664 5.67332 25.2512 5.51957 25.4023C5.36581 25.5534 5.27943 25.7583 5.27943 25.9719V32.4163C5.27943 32.6299 5.36581 32.8348 5.51957 32.9859C5.67332 33.137 5.88186 33.2218 6.0993 33.2218H12.6582C12.8757 33.2218 13.0842 33.137 13.238 32.9859C13.3917 32.8348 13.4781 32.6299 13.4781 32.4163V26.3022L15.7 24.1272ZM10.6824 26.7775L6.91917 30.4749V26.7775H10.6824ZM11.8384 31.6107H8.07518L11.8384 27.9133V31.6107Z" stroke="#703391" stroke-width="0.5"/>
</svg>
