<svg width="50" height="52" viewBox="0 0 50 52" fill="none" xmlns="http://www.w3.org/2000/svg">
<path d="M40.2103 38.3739V1.86206C40.2103 1.63362 40.1164 1.4138 39.9486 1.25215C39.7808 1.0905 39.5527 1 39.3156 1H8.89473C8.40039 1 8 1.38576 8 1.86204V45.8263C8 46.0548 8.09395 46.2746 8.26171 46.4363C8.42947 46.5979 8.65763 46.6884 8.89475 46.6884H26.7447C27.7602 48.6646 29.5989 50.1301 31.8044 50.7184C34.0077 51.3068 36.3698 50.9641 38.2957 49.7745C40.2216 48.5871 41.5301 46.6626 41.897 44.4881C42.2616 42.3114 41.6486 40.0893 40.2103 38.3739ZM9.78948 44.964V2.72437H38.4209V36.7944C35.683 35.0164 32.095 35.0337 29.3751 36.8375C26.6551 38.6413 25.3577 41.8653 26.1026 44.9641L9.78948 44.964ZM33.9475 49.2742C31.4154 49.2742 29.1316 47.8044 28.1611 45.5502C27.1925 43.2939 27.7271 40.6991 29.5188 38.9728C31.3105 37.2465 34.0037 36.7315 36.3457 37.6647C38.6854 38.6 40.2109 40.8003 40.2109 43.2396C40.2065 46.5714 37.4059 49.2698 33.9475 49.2742ZM38.2131 40.9645C38.3652 41.139 38.439 41.3675 38.4167 41.5937C38.3965 41.8222 38.2824 42.0312 38.099 42.1778L32.7306 46.488C32.375 46.7746 31.8515 46.7509 31.525 46.4362L29.7355 44.7122C29.3888 44.3738 29.391 43.8307 29.7378 43.4946C30.0867 43.1605 30.6504 43.1584 31.0015 43.4924L32.2139 44.6605L36.9537 40.8546C37.1349 40.708 37.372 40.6369 37.6069 40.6585C37.844 40.6779 38.061 40.7877 38.2131 40.9645ZM24.1053 13.9309C25.9149 13.9309 27.5455 12.8814 28.239 11.2694C28.9301 9.65948 28.5476 7.80613 27.2682 6.5734C25.9887 5.34067 24.065 4.97219 22.3942 5.63809C20.721 6.30615 19.6317 7.87725 19.6317 9.62075C19.6339 12 21.6358 13.9287 24.1053 13.9309ZM24.1053 7.03457C25.1901 7.03457 26.1699 7.66385 26.5859 8.63148C26.9997 9.59697 26.7716 10.709 26.0043 11.4504C25.2348 12.1895 24.0807 12.4094 23.0786 12.0107C22.0742 11.6098 21.4211 10.6659 21.4211 9.62069C21.4233 8.19404 22.6245 7.03672 24.1053 7.03457ZM16.9474 24.2754H31.2631C31.5002 24.2754 31.7284 24.1849 31.8962 24.0232C32.0639 23.8616 32.1579 23.6418 32.1579 23.4133C32.1579 19.129 28.5521 15.6552 24.1056 15.6552C19.6591 15.6552 16.0533 19.1293 16.0533 23.4133C16.0533 23.6418 16.1472 23.8616 16.315 24.0232C16.4828 24.1849 16.7109 24.2754 16.948 24.2754H16.9474ZM24.1053 17.379C27.2167 17.3834 29.8562 19.5837 30.3034 22.5513H17.9072C18.3545 19.5837 20.994 17.3834 24.1053 17.379ZM13.3685 28.5853C13.3685 28.109 13.7689 27.7233 14.2632 27.7233H18.7369C19.2312 27.7233 19.6316 28.109 19.6316 28.5853C19.6316 29.0616 19.2312 29.4473 18.7369 29.4473H14.2632C13.7689 29.4473 13.3685 29.0616 13.3685 28.5853ZM13.3685 32.0334C13.3685 31.5572 13.7689 31.1714 14.2632 31.1714H28.5789C29.0733 31.1714 29.4737 31.5572 29.4737 32.0334C29.4737 32.5097 29.0733 32.8955 28.5789 32.8955H14.2632C13.7689 32.8955 13.3685 32.5097 13.3685 32.0334ZM23.2108 35.4816C23.2108 35.71 23.1169 35.9299 22.9491 36.0915C22.7814 36.2532 22.5532 36.3437 22.3161 36.3437H14.2638C13.7695 36.3437 13.3691 35.9579 13.3691 35.4816C13.3691 35.0053 13.7695 34.6196 14.2638 34.6196H22.3161C22.5532 34.6196 22.7814 34.7101 22.9491 34.8717C23.1169 35.0334 23.2108 35.2532 23.2108 35.4816ZM23.2108 41.5162C23.2108 41.7446 23.1169 41.9644 22.9491 42.1261C22.7814 42.2877 22.5532 42.3782 22.3161 42.3782H14.2638C13.7695 42.3782 13.3691 41.9925 13.3691 41.5162C13.3691 41.0399 13.7695 40.6541 14.2638 40.6541H22.3161C22.5532 40.6541 22.7814 40.7447 22.9491 40.9063C23.1169 41.0679 23.2108 41.2877 23.2108 41.5162Z" fill="#703391" stroke="#703391"/>
</svg>
