<svg width="50" height="50" viewBox="0 0 50 50" fill="none" xmlns="http://www.w3.org/2000/svg">
<path d="M45 50H5C3.67436 49.9985 2.40344 49.4713 1.46607 48.5339C0.528708 47.5966 0.0014558 46.3256 0 45V5C0.0014558 3.67436 0.528708 2.40344 1.46607 1.46607C2.40344 0.528708 3.67436 0.0014558 5 0H45C46.3256 0.0014558 47.5966 0.528708 48.5339 1.46607C49.4713 2.40344 49.9985 3.67436 50 5V45C49.9985 46.3256 49.4713 47.5966 48.5339 48.5339C47.5966 49.4713 46.3256 49.9985 45 50ZM5 3.33333C4.55809 3.33373 4.1344 3.50945 3.82193 3.82193C3.50945 4.1344 3.33373 4.55809 3.33333 5V45C3.33373 45.4419 3.50945 45.8656 3.82193 46.1781C4.1344 46.4905 4.55809 46.6663 5 46.6667H45C45.4419 46.6663 45.8656 46.4905 46.1781 46.1781C46.4905 45.8656 46.6663 45.4419 46.6667 45V5C46.6663 4.55809 46.4905 4.1344 46.1781 3.82193C45.8656 3.50945 45.4419 3.33373 45 3.33333H5Z" fill="#703391"/>
<path d="M48.3333 13.3333H1.66667C1.22464 13.3333 0.800716 13.1577 0.488155 12.8452C0.175595 12.5326 0 12.1087 0 11.6667C0 11.2246 0.175595 10.8007 0.488155 10.4882C0.800716 10.1756 1.22464 10 1.66667 10H48.3333C48.7754 10 49.1993 10.1756 49.5118 10.4882C49.8244 10.8007 50 11.2246 50 11.6667C50 12.1087 49.8244 12.5326 49.5118 12.8452C49.1993 13.1577 48.7754 13.3333 48.3333 13.3333Z" fill="#703391"/>
<path d="M8.33338 8.33333C9.25386 8.33333 10.0001 7.58714 10.0001 6.66667C10.0001 5.74619 9.25386 5 8.33338 5C7.41291 5 6.66672 5.74619 6.66672 6.66667C6.66672 7.58714 7.41291 8.33333 8.33338 8.33333Z" fill="#703391"/>
<path d="M13.3334 8.33333C14.2539 8.33333 15.0001 7.58714 15.0001 6.66667C15.0001 5.74619 14.2539 5 13.3334 5C12.4129 5 11.6667 5.74619 11.6667 6.66667C11.6667 7.58714 12.4129 8.33333 13.3334 8.33333Z" fill="#703391"/>
<path d="M18.3334 8.33333C19.2539 8.33333 20.0001 7.58714 20.0001 6.66667C20.0001 5.74619 19.2539 5 18.3334 5C17.4129 5 16.6667 5.74619 16.6667 6.66667C16.6667 7.58714 17.4129 8.33333 18.3334 8.33333Z" fill="#703391"/>
<path d="M18.3333 38.3334H15C13.6744 38.332 12.4034 37.8047 11.4661 36.8673C10.5287 35.93 10.0015 34.659 10 33.3334V31.6667C10.0015 30.3411 10.5287 29.0702 11.4661 28.1328C12.4034 27.1955 13.6744 26.6682 15 26.6667H18.3333C18.7754 26.6667 19.1993 26.8423 19.5118 27.1549C19.8244 27.4675 20 27.8914 20 28.3334V36.6667C20 37.1088 19.8244 37.5327 19.5118 37.8453C19.1993 38.1578 18.7754 38.3334 18.3333 38.3334ZM15 30.0001C14.5581 30.0005 14.1344 30.1762 13.8219 30.4887C13.5095 30.8011 13.3337 31.2248 13.3333 31.6667V33.3334C13.3337 33.7753 13.5095 34.199 13.8219 34.5115C14.1344 34.824 14.5581 34.9997 15 35.0001H16.6667V30.0001H15Z" fill="#703391"/>
<path d="M35 38.3334H31.6667C31.2246 38.3334 30.8007 38.1578 30.4882 37.8453C30.1756 37.5327 30 37.1088 30 36.6667V28.3334C30 27.8914 30.1756 27.4675 30.4882 27.1549C30.8007 26.8423 31.2246 26.6667 31.6667 26.6667H35C36.3256 26.6682 37.5966 27.1955 38.5339 28.1328C39.4713 29.0702 39.9985 30.3411 40 31.6667V33.3334C39.9985 34.659 39.4713 35.93 38.5339 36.8673C37.5966 37.8047 36.3256 38.332 35 38.3334ZM33.3333 35.0001H35C35.4419 34.9997 35.8656 34.824 36.1781 34.5115C36.4905 34.199 36.6663 33.7753 36.6667 33.3334V31.6667C36.6663 31.2248 36.4905 30.8011 36.1781 30.4887C35.8656 30.1762 35.4419 30.0005 35 30.0001H33.3333V35.0001Z" fill="#703391"/>
<path d="M34.9999 30C34.5579 30 34.134 29.8244 33.8214 29.5118C33.5089 29.1993 33.3333 28.7754 33.3333 28.3333V26.6667C33.3333 24.4565 32.4553 22.3369 30.8925 20.7741C29.3297 19.2113 27.2101 18.3333 24.9999 18.3333C22.7898 18.3333 20.6702 19.2113 19.1074 20.7741C17.5446 22.3369 16.6666 24.4565 16.6666 26.6667V28.3333C16.6666 28.7754 16.491 29.1993 16.1785 29.5118C15.8659 29.8244 15.442 30 14.9999 30C14.5579 30 14.134 29.8244 13.8214 29.5118C13.5089 29.1993 13.3333 28.7754 13.3333 28.3333V26.6667C13.3333 23.5725 14.5624 20.605 16.7504 18.4171C18.9383 16.2292 21.9058 15 24.9999 15C28.0941 15 31.0616 16.2292 33.2495 18.4171C35.4375 20.605 36.6666 23.5725 36.6666 26.6667V28.3333C36.6666 28.7754 36.491 29.1993 36.1785 29.5118C35.8659 29.8244 35.442 30 34.9999 30Z" fill="#703391"/>
<path d="M33.3333 45H24.9999C24.5579 45 24.134 44.8244 23.8214 44.5118C23.5089 44.1993 23.3333 43.7754 23.3333 43.3333C23.3333 42.8913 23.5089 42.4674 23.8214 42.1548C24.134 41.8423 24.5579 41.6667 24.9999 41.6667H33.3333V36.6667C33.3333 36.2246 33.5089 35.8007 33.8214 35.4882C34.134 35.1756 34.5579 35 34.9999 35C35.442 35 35.8659 35.1756 36.1785 35.4882C36.491 35.8007 36.6666 36.2246 36.6666 36.6667V41.6667C36.6656 42.5504 36.3141 43.3977 35.6892 44.0226C35.0643 44.6475 34.217 44.999 33.3333 45Z" fill="#703391"/>
</svg>
