<svg width="52" height="52" viewBox="0 0 52 52" fill="none" xmlns="http://www.w3.org/2000/svg">
<path d="M17.4766 36.0044C18.25 34.8464 18.7031 33.4537 18.7031 31.9514C18.7031 27.9219 15.4297 24.6514 11.4141 24.6514C7.39844 24.6514 4.125 27.9219 4.125 31.9514C4.125 33.4459 4.57813 34.8386 5.35156 36.0044C2.64844 37.9527 1 41.0902 1 44.4703V49.6891C1 50.2603 1.46875 50.7297 2.03906 50.7297H20.7891C21.3672 50.7297 21.8281 50.2603 21.8281 49.6891V44.4703C21.8359 41.0902 20.1875 37.9527 17.4766 36.0044ZM11.4141 26.7326C14.2891 26.7326 16.625 29.0721 16.625 31.9514C16.625 34.8308 14.2891 37.1702 11.4141 37.1702C8.53906 37.1702 6.20313 34.8308 6.20313 31.9514C6.21094 29.0721 8.54688 26.7326 11.4141 26.7326ZM19.75 48.6406H3.08594V44.4703C3.08594 41.6848 4.48438 39.1107 6.76563 37.5693C8.03125 38.6177 9.64844 39.2515 11.4141 39.2515C13.1797 39.2515 14.8047 38.6177 16.0625 37.5693C18.3516 39.1107 19.75 41.6848 19.75 44.4703V48.6406Z" fill="#703391"/>
<path d="M46.6484 36.0044C47.4219 34.8386 47.875 33.4459 47.875 31.9514C47.875 27.9219 44.6015 24.6514 40.5859 24.6514C36.5625 24.6514 33.2969 27.9297 33.2969 31.9514C33.2969 33.4459 33.75 34.8386 34.5234 36.0044C31.8125 37.9527 30.1719 41.0902 30.1719 44.4703V49.6891C30.1719 50.2681 30.6406 50.7297 31.2109 50.7297H49.9609C50.5312 50.7297 51 50.2603 51 49.6891V44.4703C51 41.0902 49.3515 37.9527 46.6484 36.0044ZM40.5859 26.7326C43.4609 26.7326 45.7969 29.0721 45.7969 31.9514C45.7969 34.8308 43.4609 37.1702 40.5859 37.1702C37.7109 37.1702 35.375 34.8308 35.375 31.9514C35.375 29.0721 37.7109 26.7326 40.5859 26.7326ZM48.914 48.6406H32.25V44.4703C32.25 41.6848 33.6484 39.1107 35.9297 37.5693C37.1953 38.6177 38.8125 39.2515 40.5781 39.2515C42.3437 39.2515 43.9687 38.6177 45.2265 37.5693C47.5078 39.1107 48.9062 41.6848 48.9062 44.4703V48.6406H48.914Z" fill="#703391"/>
<path d="M33.289 26.7326V23.6029H35.375C37.1015 23.6029 38.5 22.2024 38.5 20.4732V10.0434C38.5 8.31427 37.1015 6.91373 35.375 6.91373H31.2109V3.78401C31.2109 2.05484 29.8125 0.654297 28.0859 0.654297H11.414C9.68747 0.654297 8.28903 2.05484 8.28903 3.78401V16.3029C8.28903 18.032 9.68747 19.4326 11.414 19.4326V21.5217C11.414 21.9051 11.625 22.2572 11.9609 22.4449C12.1172 22.531 12.4531 22.711 13.0312 22.3902L17.4609 19.4326H17.664V20.4732C17.664 22.2024 19.0625 23.6029 20.789 23.6029H27L31.5703 27.5229C31.8359 27.8202 33.1562 28.0784 33.289 26.7326ZM17.1484 17.3435C16.9453 17.3435 16.7422 17.4061 16.5703 17.5156L13.5 19.5734V18.392C13.5 17.813 13.0312 17.3513 12.4609 17.3513H11.4218C10.8437 17.3435 10.375 16.8819 10.375 16.3029V3.78401C10.375 3.20501 10.8437 2.74338 11.414 2.74338H28.0781C28.6562 2.74338 29.125 3.20501 29.125 3.78401V6.91373H20.789C19.0625 6.91373 17.664 8.31427 17.664 10.0434V17.3435H17.1484ZM31.2109 22.5623V24.4636L28.0703 21.7642C27.8828 21.5999 27.6406 21.5138 27.3906 21.5138H20.7968C20.2187 21.5138 19.7578 21.0444 19.7578 20.4732V10.0434C19.7578 9.46444 20.2265 9.00281 20.7968 9.00281H35.375C35.9531 9.00281 36.414 9.47227 36.414 10.0434V20.4732C36.414 21.0522 35.9453 21.5138 35.375 21.5138H32.25C31.6718 21.5217 31.2109 21.9833 31.2109 22.5623Z" fill="#703391"/>
<path d="M34.336 13.1731C34.336 12.5941 33.8672 12.1325 33.2969 12.1325H22.875C22.2969 12.1325 21.836 12.602 21.836 13.1731C21.836 13.7521 22.3047 14.2138 22.875 14.2138H33.2891C33.8672 14.2138 34.336 13.7521 34.336 13.1731Z" fill="#703391"/>
<path d="M31.2109 16.3029H24.9609C24.3828 16.3029 23.9219 16.7723 23.9219 17.3435C23.9219 17.9225 24.3906 18.3841 24.9609 18.3841H31.2109C31.789 18.3841 32.25 17.9147 32.25 17.3435C32.25 16.7723 31.7812 16.3029 31.2109 16.3029Z" fill="#703391"/>
<path d="M17.4766 36.0044C18.25 34.8464 18.7031 33.4537 18.7031 31.9514C18.7031 27.9219 15.4297 24.6514 11.4141 24.6514C7.39844 24.6514 4.125 27.9219 4.125 31.9514C4.125 33.4459 4.57813 34.8386 5.35156 36.0044C2.64844 37.9527 1 41.0902 1 44.4703V49.6891C1 50.2603 1.46875 50.7297 2.03906 50.7297H20.7891C21.3672 50.7297 21.8281 50.2603 21.8281 49.6891V44.4703C21.8359 41.0902 20.1875 37.9527 17.4766 36.0044ZM11.4141 26.7326C14.2891 26.7326 16.625 29.0721 16.625 31.9514C16.625 34.8308 14.2891 37.1702 11.4141 37.1702C8.53906 37.1702 6.20313 34.8308 6.20313 31.9514C6.21094 29.0721 8.54688 26.7326 11.4141 26.7326ZM19.75 48.6406H3.08594V44.4703C3.08594 41.6848 4.48438 39.1107 6.76563 37.5693C8.03125 38.6177 9.64844 39.2515 11.4141 39.2515C13.1797 39.2515 14.8047 38.6177 16.0625 37.5693C18.3516 39.1107 19.75 41.6848 19.75 44.4703V48.6406Z" stroke="#703391" stroke-width="0.7"/>
<path d="M46.6484 36.0044C47.4219 34.8386 47.875 33.4459 47.875 31.9514C47.875 27.9219 44.6015 24.6514 40.5859 24.6514C36.5625 24.6514 33.2969 27.9297 33.2969 31.9514C33.2969 33.4459 33.75 34.8386 34.5234 36.0044C31.8125 37.9527 30.1719 41.0902 30.1719 44.4703V49.6891C30.1719 50.2681 30.6406 50.7297 31.2109 50.7297H49.9609C50.5312 50.7297 51 50.2603 51 49.6891V44.4703C51 41.0902 49.3515 37.9527 46.6484 36.0044ZM40.5859 26.7326C43.4609 26.7326 45.7969 29.0721 45.7969 31.9514C45.7969 34.8308 43.4609 37.1702 40.5859 37.1702C37.7109 37.1702 35.375 34.8308 35.375 31.9514C35.375 29.0721 37.7109 26.7326 40.5859 26.7326ZM48.914 48.6406H32.25V44.4703C32.25 41.6848 33.6484 39.1107 35.9297 37.5693C37.1953 38.6177 38.8125 39.2515 40.5781 39.2515C42.3437 39.2515 43.9687 38.6177 45.2265 37.5693C47.5078 39.1107 48.9062 41.6848 48.9062 44.4703V48.6406H48.914Z" stroke="#703391" stroke-width="0.7"/>
<path d="M33.289 26.7326V23.6029H35.375C37.1015 23.6029 38.5 22.2024 38.5 20.4732V10.0434C38.5 8.31427 37.1015 6.91373 35.375 6.91373H31.2109V3.78401C31.2109 2.05484 29.8125 0.654297 28.0859 0.654297H11.414C9.68747 0.654297 8.28903 2.05484 8.28903 3.78401V16.3029C8.28903 18.032 9.68747 19.4326 11.414 19.4326V21.5217C11.414 21.9051 11.625 22.2572 11.9609 22.4449C12.1172 22.531 12.4531 22.711 13.0312 22.3902L17.4609 19.4326H17.664V20.4732C17.664 22.2024 19.0625 23.6029 20.789 23.6029H27L31.5703 27.5229C31.8359 27.8202 33.1562 28.0784 33.289 26.7326ZM17.1484 17.3435C16.9453 17.3435 16.7422 17.4061 16.5703 17.5156L13.5 19.5734V18.392C13.5 17.813 13.0312 17.3513 12.4609 17.3513H11.4218C10.8437 17.3435 10.375 16.8819 10.375 16.3029V3.78401C10.375 3.20501 10.8437 2.74338 11.414 2.74338H28.0781C28.6562 2.74338 29.125 3.20501 29.125 3.78401V6.91373H20.789C19.0625 6.91373 17.664 8.31427 17.664 10.0434V17.3435H17.1484ZM31.2109 22.5623V24.4636L28.0703 21.7642C27.8828 21.5999 27.6406 21.5138 27.3906 21.5138H20.7968C20.2187 21.5138 19.7578 21.0444 19.7578 20.4732V10.0434C19.7578 9.46444 20.2265 9.00281 20.7968 9.00281H35.375C35.9531 9.00281 36.414 9.47227 36.414 10.0434V20.4732C36.414 21.0522 35.9453 21.5138 35.375 21.5138H32.25C31.6718 21.5217 31.2109 21.9833 31.2109 22.5623Z" stroke="#703391" stroke-width="0.7"/>
<path d="M34.336 13.1731C34.336 12.5941 33.8672 12.1325 33.2969 12.1325H22.875C22.2969 12.1325 21.836 12.602 21.836 13.1731C21.836 13.7521 22.3047 14.2138 22.875 14.2138H33.2891C33.8672 14.2138 34.336 13.7521 34.336 13.1731Z" stroke="#703391" stroke-width="0.7"/>
<path d="M31.2109 16.3029H24.9609C24.3828 16.3029 23.9219 16.7723 23.9219 17.3435C23.9219 17.9225 24.3906 18.3841 24.9609 18.3841H31.2109C31.789 18.3841 32.25 17.9147 32.25 17.3435C32.25 16.7723 31.7812 16.3029 31.2109 16.3029Z" stroke="#703391" stroke-width="0.7"/>
</svg>
