<svg width="52" height="52" viewBox="0 0 52 52" fill="none" xmlns="http://www.w3.org/2000/svg">
<path d="M38.7046 32.9831C35.5518 32.9831 32.9862 35.5485 32.9862 38.7018C32.9862 41.8551 35.5512 44.4205 38.7046 44.4205C41.8575 44.4205 44.4225 41.8551 44.4225 38.7018C44.4225 35.549 41.8575 32.9831 38.7046 32.9831ZM38.7046 42.4682C36.6284 42.4682 34.9393 40.7788 34.9393 38.7023C34.9393 36.6258 36.6284 34.9365 38.7046 34.9365C40.7808 34.9365 42.4699 36.6258 42.4699 38.7023C42.4699 40.7788 40.7803 42.4682 38.7046 42.4682ZM49.2803 35.8498C48.6422 35.8498 48.1145 35.4965 47.8696 34.9054C47.6246 34.3136 47.7476 33.6913 48.1993 33.2401C48.5241 32.9153 48.7034 32.4832 48.7034 32.0239C48.7034 31.5645 48.5246 31.1325 48.1998 30.8076L46.5988 29.2064C46.274 28.8815 45.842 28.7027 45.3827 28.7027C44.9234 28.7027 44.4914 28.8815 44.1666 29.2064C43.7155 29.6581 43.0927 29.7806 42.5016 29.5361C41.91 29.2911 41.5573 28.7634 41.5573 28.1252C41.5573 27.1769 40.7857 26.4052 39.837 26.4052H39.6818V13.1418C39.6818 12.6026 39.2449 12.1651 38.7052 12.1651H27.1709C26.9041 10.3489 26.2228 8.57099 25.1346 6.93582C22.662 3.21923 18.5561 1 14.1499 1C9.7438 1 5.63787 3.21923 3.16578 6.93582C0.784457 10.5157 0.344282 14.7775 1.95735 18.6286C2.75404 20.5312 3.46816 22.1068 4.09862 23.4975C5.04732 25.5909 5.76145 27.1687 6.21748 28.6584C5.67779 29.1451 5.33822 29.8489 5.33822 30.631C5.33822 31.2675 5.5635 31.8527 5.93861 32.3104C5.5635 32.7687 5.33822 33.3533 5.33822 33.9899C5.33822 35.4544 6.5297 36.6461 7.99404 36.6461H8.21713C8.15535 36.8703 8.12199 37.106 8.12199 37.3494C8.12199 38.8139 9.31347 40.0056 10.7778 40.0056H13.1733V45.3808C13.1733 45.92 13.6102 46.3576 14.1499 46.3576H29.0104C29.0689 46.4423 29.135 46.5227 29.2094 46.5971L30.8104 48.1983C31.1352 48.5232 31.5672 48.702 32.0265 48.702C32.4858 48.702 32.9178 48.5232 33.2426 48.1983C33.6948 47.7461 34.3176 47.6225 34.9087 47.8669C35.4998 48.1119 35.8525 48.6397 35.8525 49.2795C35.8525 50.2278 36.624 51 37.5722 51H39.8359C40.7841 51 41.5562 50.2284 41.5562 49.2795C41.5562 48.6413 41.9094 48.1136 42.5005 47.8686C43.0922 47.6236 43.7144 47.7466 44.1655 48.1983C44.4903 48.5232 44.9223 48.702 45.3816 48.702C45.8409 48.702 46.2729 48.5232 46.5977 48.1983L48.1982 46.5971C48.523 46.2722 48.7023 45.8402 48.7023 45.3808C48.7023 44.9214 48.5235 44.4894 48.1987 44.1646C47.7476 43.7134 47.624 43.0905 47.869 42.4993C48.114 41.9076 48.6411 41.5549 49.2798 41.5549C50.2279 41.5549 51 40.7832 51 39.8344V37.5703C51 36.6215 50.2285 35.8498 49.2803 35.8498ZM3.75851 17.8739C2.40244 14.6364 2.77864 11.0434 4.79142 8.01754C6.90044 4.84674 10.3989 2.95345 14.1494 2.95345C17.8999 2.95345 21.3983 4.84674 23.5079 8.01754C25.5207 11.044 25.8974 14.6364 24.5408 17.8739C23.7545 19.7508 23.0464 21.3133 22.422 22.6919C21.5011 24.7241 20.7482 26.3872 20.2495 27.9753H17.0436V17.8143H18.806C20.8543 17.8143 22.5209 16.1474 22.5209 14.0988C22.5209 12.0502 20.8543 10.3833 18.806 10.3833C16.7576 10.3833 15.091 12.0502 15.091 14.0988V15.8614H13.2078V14.0988C13.2078 12.0502 11.5411 10.3833 9.49282 10.3833C7.4445 10.3833 5.77785 12.0502 5.77785 14.0988C5.77785 16.1474 7.4445 17.8143 9.49282 17.8143H11.2552V27.9748H8.04927C7.55058 26.3872 6.79764 24.7236 5.87682 22.6914C5.25292 21.3127 4.54481 19.7503 3.75851 17.8739ZM7.2914 30.631C7.2914 30.2432 7.6069 29.9277 7.99459 29.9277H20.3064C20.6941 29.9277 21.0096 30.2432 21.0096 30.631C21.0096 31.0187 20.6941 31.3343 20.3064 31.3343H7.99404C7.6069 31.3343 7.2914 31.0187 7.2914 30.631ZM11.2557 15.8609H9.49337C8.5217 15.8609 7.73103 15.0701 7.73103 14.0983C7.73103 13.1265 8.5217 12.3357 9.49337 12.3357C10.465 12.3357 11.2557 13.1265 11.2557 14.0983V15.8609ZM15.0921 27.9748H13.2089V17.8143H15.0921V27.9748ZM17.0447 15.8609V14.0983C17.0447 13.1265 17.8354 12.3357 18.807 12.3357C19.7787 12.3357 20.5694 13.1265 20.5694 14.0983C20.5694 15.0701 19.7787 15.8609 18.807 15.8609H17.0447ZM7.2914 33.9904C7.2914 33.6027 7.6069 33.2872 7.99459 33.2872H20.3064C20.6941 33.2872 21.0096 33.6027 21.0096 33.9904C21.0096 34.3782 20.6941 34.6937 20.3064 34.6937H7.99404C7.6069 34.6937 7.2914 34.3782 7.2914 33.9904ZM10.0752 37.3499C10.0752 36.9687 10.3972 36.6466 10.7784 36.6466H17.5226C17.9103 36.6466 18.2258 36.9622 18.2258 37.3499C18.2258 37.7377 17.9103 38.0532 17.5226 38.0532H10.7784C10.3907 38.0527 10.0752 37.7371 10.0752 37.3499ZM15.1265 40.0061H17.5221C18.9864 40.0061 20.1779 38.8145 20.1779 37.3499C20.1779 37.1066 20.1445 36.8708 20.0827 36.6466H20.3058C21.7702 36.6466 22.9616 35.455 22.9616 33.9904C22.9616 33.3539 22.7364 32.7687 22.3613 32.311C22.7364 31.8527 22.9616 31.2681 22.9616 30.631C22.9616 29.8489 22.6221 29.1451 22.0824 28.6584C22.5384 27.1687 23.2525 25.5909 24.2012 23.4975C24.8312 22.1068 25.5453 20.5307 26.3425 18.6281C26.956 17.1641 27.2715 15.6405 27.2972 14.118H37.7275V26.4047H37.5722C36.624 26.4047 35.8525 27.1763 35.8525 28.1246C35.8525 28.7628 35.4993 29.2906 34.9082 29.5356C34.3165 29.7806 33.6943 29.6575 33.2432 29.2058C32.9184 28.881 32.4864 28.7021 32.0271 28.7021C31.5678 28.7021 31.1358 28.881 30.811 29.2058L29.2099 30.8071C28.8851 31.1319 28.7063 31.5639 28.7063 32.0233C28.7063 32.4827 28.8851 32.9147 29.2099 33.2396C29.6611 33.6908 29.7846 34.3136 29.5397 34.9054C29.2947 35.4971 28.7676 35.8498 28.1289 35.8498C27.1808 35.8498 26.4087 36.6215 26.4087 37.5703V39.8344C26.4087 40.7827 27.1802 41.5549 28.1289 41.5549C28.767 41.5549 29.2947 41.9081 29.5397 42.4993C29.7846 43.091 29.6616 43.7134 29.2099 44.1651C29.1356 44.2395 29.07 44.3204 29.0109 44.4052H15.1265V40.0061ZM49.0474 39.6085C47.7143 39.6927 46.5846 40.4977 46.0657 41.7517C45.5467 43.0057 45.7759 44.3735 46.6589 45.3759L45.3772 46.6578C44.3749 45.7746 43.0074 45.5449 41.7536 46.0644C40.4998 46.584 39.6949 47.7133 39.6107 49.0466H37.798C37.7138 47.7116 36.9095 46.5818 35.6562 46.0628C34.4029 45.5432 33.0348 45.7735 32.0314 46.6583L30.7497 45.3764C31.6328 44.374 31.8625 43.0063 31.343 41.7523C30.8236 40.4983 29.6944 39.6933 28.3613 39.6091V37.7962C29.6944 37.7119 30.8236 36.9075 31.343 35.6535C31.8625 34.3995 31.6328 33.0318 30.7497 32.0293L32.0314 30.7475C33.0337 31.6307 34.4013 31.8604 35.6551 31.3408C36.9089 30.8213 37.7138 29.692 37.798 28.3587H39.6107C39.6949 29.692 40.4998 30.8218 41.7536 31.3408C43.0074 31.8604 44.3749 31.6307 45.3772 30.7475L46.6589 32.0293C45.7759 33.0318 45.5462 34.3995 46.0657 35.6535C46.5851 36.9075 47.7143 37.7125 49.0474 37.7962V39.6085Z" fill="#703391" stroke="#703391"/>
</svg>
