<svg width="52" height="52" viewBox="0 0 52 52" fill="none" xmlns="http://www.w3.org/2000/svg">
<path fill-rule="evenodd" clip-rule="evenodd" d="M32.9615 2.58057V6.43173C32.9615 7.42729 33.7798 8.24175 34.7737 8.24175H39.3276L32.9615 2.58057ZM41.4688 27.9509C41.7738 27.6459 42.2688 27.6459 42.5738 27.9509C42.8788 28.2559 42.8788 28.7503 42.5738 29.0553L37.6221 34.0065C37.3171 34.3115 36.8221 34.3115 36.5171 34.0065L33.7848 31.2764C33.4798 30.9714 33.4798 30.4764 33.7848 30.1714C34.0898 29.8664 34.5848 29.8664 34.8898 30.1714L37.0676 32.3487L41.4688 27.9509ZM39.8921 24.5864C38.2321 24.1414 36.3504 24.358 34.8709 25.2464C31.5931 27.1381 30.7098 31.037 32.4576 34.3081C33.2526 35.7943 34.8526 36.9382 36.4659 37.3693C38.1721 37.8249 39.9615 37.5932 41.4871 36.7104C44.6544 34.8826 45.7405 30.8337 43.9099 27.6703C42.9805 26.0547 41.6493 25.1275 39.8921 24.5864ZM34.0943 23.8975C30.2659 26.1364 28.8003 31.0914 31.0981 35.0676C33.3592 38.9788 38.3571 40.3177 42.2682 38.0593C46.1794 35.8004 47.5205 30.8014 45.2594 26.8886C43.0032 22.9775 38.006 21.6386 34.0943 23.8975ZM44.3166 40.3699L43.2438 40.9899L44.1038 42.4821L45.181 41.8621L44.3166 40.3699ZM42.9894 39.3415C47.5622 36.6976 49.1661 30.9292 46.6283 26.3242C45.4355 24.1614 43.4194 22.453 40.8627 21.7125C38.3754 20.9919 35.7215 21.3197 33.5204 22.5302C31.3614 23.7214 29.6509 25.7375 28.9109 28.2947C28.7631 28.8103 28.7398 29.0125 28.6425 29.4859C28.4436 30.7548 28.4992 32.1459 28.837 33.3876C29.0542 34.1909 29.327 34.9026 29.7292 35.6337C30.9637 37.8726 33.0259 39.5299 35.4948 40.2449C38.0376 40.981 40.7288 40.6393 42.9894 39.3415ZM45.5649 39.4104L46.5311 41.0832C46.9333 40.851 47.4005 40.9766 47.6172 41.3549L50.5994 46.5227C51.0111 47.235 51.0944 48.0489 50.9 48.7855C50.47 50.3817 48.8378 51.3239 47.2427 50.8967C46.5033 50.6989 45.8416 50.22 45.4305 49.5078L42.4438 44.3371C42.2266 43.961 42.3516 43.4932 42.7532 43.2616L41.7871 41.5877C41.5327 41.6749 41.2738 41.7527 41.0104 41.821V48.1122C41.0104 49.7033 39.716 51 38.1254 51H3.88503C2.29446 51 1 49.7033 1 48.1122V3.88725C1 2.29613 2.29446 1 3.88503 1H32.1803C33.2115 1 33.877 1.02833 34.677 1.75168L40.0682 6.62562C40.6877 7.18785 41.0116 7.92619 41.0116 8.76064V20.1385C47.1144 21.7369 50.6978 28.0386 48.9455 34.0959C48.3261 36.2348 47.1238 38.0465 45.5661 39.4104H45.5649ZM44.1827 44.2355L46.7766 48.7266C47.1738 49.4083 48.0616 49.645 48.7416 49.2439C49.4122 48.8489 49.6389 47.97 49.255 47.2977L46.6566 42.8049L44.1833 44.2349L44.1827 44.2355ZM35.0604 41.7405C36.5304 42.1666 38.0193 42.2771 39.4482 42.1143V48.1133C39.4482 48.8422 38.8521 49.4383 38.126 49.4383H3.88503C3.15947 49.4383 2.5628 48.8422 2.5628 48.1133V3.88725C2.5628 3.15836 3.15891 2.56224 3.88503 2.56224H31.3992V6.43173C31.3992 8.29008 32.9159 9.80454 34.7743 9.80454H39.4488V19.8447C33.822 19.1941 28.5236 22.8819 27.2475 28.5164H13.784C13.354 28.5164 13.0029 28.8664 13.0029 29.2975C13.0029 29.7287 13.354 30.0787 13.784 30.0787H27.007C26.9331 31.0031 26.9747 31.9203 27.1225 32.8104H13.784C13.354 32.8104 13.0029 33.1604 13.0029 33.592C13.0029 34.0237 13.354 34.3731 13.784 34.3731H27.497C28.0103 35.9726 28.8703 37.441 30.0259 38.6649H13.784C13.354 38.6649 13.0029 39.0149 13.0029 39.446C13.0029 39.8771 13.354 40.2271 13.784 40.2271H31.8526C32.8098 40.8821 33.887 41.3982 35.0615 41.7388L35.0604 41.7405ZM13.7835 44.5233H35.2965C35.7265 44.5233 36.0776 44.1733 36.0776 43.7421C36.0776 43.311 35.7265 42.9605 35.2965 42.9605H13.7835C13.3535 42.9605 13.0024 43.3105 13.0024 43.7421C13.0024 44.1738 13.3535 44.5233 13.7835 44.5233ZM8.23564 39.7277C6.58062 39.7277 5.74339 41.7421 6.91784 42.9155C8.0923 44.0883 10.1034 43.2532 10.1034 41.5943C10.1034 40.5632 9.2712 39.7277 8.23564 39.7277ZM5.81283 39.1699C4.47226 40.5093 4.47226 42.6805 5.81283 44.0199C7.1534 45.3594 9.32176 45.3594 10.6629 44.0199C12.0035 42.6805 12.0035 40.5088 10.6629 39.1699C9.32231 37.8304 7.1534 37.8304 5.81283 39.1699ZM21.0052 11.8296C18.9619 11.8296 17.3018 13.4879 17.3018 15.5324C17.3018 17.5769 18.9619 19.2363 21.0052 19.2363C23.0486 19.2363 24.7086 17.578 24.7086 15.5324C24.7086 13.4868 23.0486 11.8296 21.0052 11.8296ZM22.5169 14.019C21.1758 12.674 18.8641 13.6313 18.8641 15.5324C18.8641 17.4335 21.1758 18.3913 22.5169 17.0463C23.3536 16.2096 23.3536 14.8552 22.5169 14.019ZM13.9496 15.0874L12.8124 13.8246C12.1607 13.1046 12.0451 12.0435 12.5396 11.2157L13.0668 10.3062C13.5985 9.48676 14.4768 9.08898 15.429 9.2912L17.0935 9.64454L17.8613 9.20065L18.3885 7.58229C18.6891 6.65284 19.5352 6.03894 20.5108 6.03894H21.5002C22.4758 6.03894 23.3219 6.65284 23.6225 7.58229L24.1497 9.20065L24.9169 9.64454L26.5814 9.2912C27.5336 9.08842 28.4864 9.51121 28.9764 10.3584L29.5036 11.2684C29.9475 12.1385 29.8503 13.1024 29.1986 13.8246L28.0614 15.0874V15.9779L29.1986 17.2407C29.8503 17.9635 29.9659 19.008 29.4714 19.8502L28.9442 20.7586C28.4125 21.578 27.5342 21.9763 26.5814 21.7741L24.9169 21.4202L24.1497 21.8636L23.6225 23.4819C23.3219 24.4119 22.4758 25.0258 21.5002 25.0258H20.5108C19.5352 25.0258 18.6891 24.4125 18.3885 23.4819L17.8613 21.8636L17.0935 21.4202L15.429 21.7741C14.4768 21.9763 13.524 21.5541 13.034 20.7063L12.5118 19.7963C12.0635 18.9258 12.1601 17.9624 12.8124 17.2402L13.9496 15.9774V15.0874ZM13.9729 12.7807L15.3135 14.2735C15.6696 14.6485 15.4935 14.9729 15.4935 15.5324C15.4935 15.7241 15.5074 15.9168 15.5307 16.1313C15.5585 16.3657 15.4985 16.5868 15.3413 16.7652L13.9729 18.2841C13.7696 18.5085 13.7324 18.8124 13.8851 19.0691L14.3796 19.9274C14.5318 20.1897 14.8046 20.3119 15.1057 20.2485L17.108 19.8252C17.5702 19.728 17.783 20.0397 18.2452 20.3063C18.7124 20.5747 19.0913 20.603 19.2391 21.0547L19.8724 22.9991C19.9652 23.2864 20.2102 23.4625 20.5108 23.4625H21.5002C21.8052 23.4625 22.0458 23.2864 22.1386 22.9991L22.7719 21.0547C22.9197 20.6035 23.3036 20.5719 23.7658 20.3058C23.9275 20.213 24.0758 20.1135 24.228 19.9997C24.4086 19.8424 24.6536 19.7691 24.9075 19.8219L26.9047 20.2474C27.2053 20.3108 27.4825 20.188 27.6303 19.9252L28.1247 19.0691C28.2725 18.8091 28.2403 18.5091 28.037 18.283L26.6958 16.7907C26.3397 16.4163 26.5153 16.0913 26.5153 15.5313C26.5153 15.3152 26.497 15.1135 26.4736 14.9007C26.4503 14.6896 26.5153 14.4696 26.6725 14.299L28.0364 12.7796C28.2397 12.5557 28.277 12.2518 28.1242 11.9946L27.6297 11.1373C27.4725 10.8746 27.2092 10.7518 26.9042 10.8157L24.9019 11.239C24.4397 11.3368 24.2269 11.0246 23.7647 10.7573C23.298 10.489 22.9186 10.4612 22.7708 10.0095L22.1375 8.06452C22.0452 7.7773 21.8047 7.60118 21.4991 7.60118H20.5097C20.2091 7.60118 19.9641 7.7773 19.8713 8.06452L19.238 10.009C19.0902 10.4601 18.7063 10.4918 18.2441 10.7573C18.0869 10.8507 17.9346 10.9496 17.7819 11.064C17.6019 11.2207 17.3568 11.2946 17.1068 11.2418L15.1046 10.8162C14.804 10.7523 14.5313 10.8751 14.3785 11.1379L13.884 11.9946C13.7363 12.2546 13.7685 12.5546 13.9718 12.7801L13.9729 12.7807ZM8.23508 29.5787C6.58006 29.5787 5.74283 31.5931 6.91729 32.7665C8.09175 33.9393 10.1029 33.1042 10.1029 31.4459C10.1029 30.4148 9.27065 29.5787 8.23508 29.5787ZM5.81228 29.0209C4.4717 30.3603 4.4717 32.532 5.81228 33.8709C7.15285 35.2104 9.3212 35.2104 10.6623 33.8709C12.0029 32.5315 12.0029 30.3598 10.6623 29.0209C9.32176 27.6814 7.15285 27.6814 5.81228 29.0209Z" fill="#703391" stroke="#703391"/>
</svg>
