<svg width="39" height="52" viewBox="0 0 39 52" fill="none" xmlns="http://www.w3.org/2000/svg">
<path d="M31.4688 51.0754H1.78125C1.3498 51.0754 1 50.7251 1 50.293V1.78243C1 1.35033 1.3498 1 1.78125 1H31.4688C31.9002 1 32.25 1.35033 32.25 1.78243V50.293C32.25 50.7251 31.9002 51.0754 31.4688 51.0754ZM2.5625 49.5106H30.6875V2.56486H2.5625V49.5106Z" fill="#703391" stroke="#703391" stroke-width="0.5"/>
<path d="M18.1875 22.9072H15.0625C14.6311 22.9072 14.2812 22.5569 14.2812 22.1248V20.9841C13.8435 20.8462 13.4192 20.67 13.0116 20.4566L12.2058 21.2637C11.9007 21.5692 11.4061 21.5692 11.101 21.2637L8.89102 19.0504C8.58584 18.7449 8.58584 18.2495 8.89102 17.944L9.69688 17.1369C9.48379 16.7286 9.30791 16.3038 9.17021 15.8653H8.03125C7.5998 15.8653 7.25 15.515 7.25 15.0829V11.9532C7.25 11.5211 7.5998 11.1708 8.03125 11.1708H9.17031C9.254 10.9044 9.35215 10.6424 9.46416 10.3859L8.60508 9.63652C8.27979 9.35269 8.2457 8.85859 8.529 8.53271L10.5808 6.17271C10.7168 6.01612 10.9095 5.92018 11.1161 5.9059C11.3227 5.89123 11.5268 5.96008 11.6831 6.09652L12.5424 6.84618C13.0885 6.50964 13.6699 6.24391 14.2812 6.05182V4.91133C14.2812 4.47924 14.6311 4.12891 15.0625 4.12891H18.1875C18.6189 4.12891 18.9688 4.47924 18.9688 4.91133V6.05202C19.4065 6.18992 19.8308 6.36607 20.2384 6.57947L21.0442 5.7724C21.3494 5.46686 21.8439 5.46686 22.1491 5.7724L24.3591 7.98569C24.6642 8.29123 24.6642 8.78661 24.3591 9.09214L23.5531 9.89932C23.7662 10.3075 23.9421 10.7324 24.0798 11.1708H25.2188C25.6502 11.1708 26 11.5211 26 11.9532V15.0829C26 15.515 25.6502 15.8653 25.2188 15.8653H24.0797C23.996 16.1317 23.8979 16.3937 23.7858 16.6502L24.6449 17.3997C24.9703 17.6835 25.0044 18.1776 24.721 18.5035L22.6692 20.8635C22.5331 21.02 22.3406 21.116 22.1339 21.1303C21.9271 21.1446 21.7231 21.076 21.5669 20.9397L20.7076 20.19C20.1614 20.5266 19.5799 20.7923 18.9687 20.9844V22.1248C18.9687 22.5569 18.6189 22.9072 18.1875 22.9072ZM15.8438 21.3423H17.4062V20.3858C17.4062 20.0207 17.6585 19.704 18.014 19.6229C18.8461 19.433 19.6181 19.0803 20.3084 18.5747C20.603 18.359 21.0075 18.3761 21.2828 18.6163L22.0041 19.2455L23.0298 18.0657L22.3093 17.4371C22.0344 17.1973 21.9615 16.799 22.1339 16.4772C22.3998 15.9809 22.5972 15.4535 22.7207 14.9093C22.8016 14.5531 23.1177 14.3003 23.4825 14.3003H24.4375V12.7354H23.4824C23.1178 12.7354 22.8016 12.4828 22.7206 12.1266C22.5643 11.4387 22.2939 10.7858 21.9169 10.1857C21.7228 9.87653 21.7679 9.47407 22.0257 9.21577L22.7019 8.53867L21.5967 7.43203L20.9206 8.10912C20.6627 8.36732 20.2607 8.4127 19.9521 8.21807C19.3529 7.84045 18.7009 7.56964 18.0141 7.41305C17.6585 7.33197 17.4062 7.01538 17.4062 6.65018V5.69376H15.8437V6.65028C15.8437 7.01538 15.5914 7.33207 15.2359 7.41315C14.4038 7.60308 13.6318 7.95576 12.9415 8.46141C12.6468 8.67706 12.2424 8.65985 11.9671 8.41984L11.2458 7.79057L10.2203 8.97018L10.9408 9.59877C11.2157 9.83858 11.2885 10.2369 11.1161 10.5587C10.8503 11.0549 10.6528 11.5823 10.5293 12.1266C10.4484 12.4828 10.1322 12.7356 9.76748 12.7356H8.8125V14.3005H9.76758C10.1322 14.3005 10.4484 14.5531 10.5293 14.9093C10.6856 15.5972 10.9561 16.2501 11.3331 16.8502C11.5273 17.1594 11.4821 17.5619 11.2243 17.8201L10.5482 18.4972L11.6533 19.604L12.3294 18.9269C12.5874 18.6685 12.9895 18.6235 13.2979 18.8179C13.897 19.1955 14.549 19.4664 15.2358 19.6229C15.5914 19.704 15.8438 20.0206 15.8438 20.3858V21.3423Z" fill="#703391" stroke="#703391" stroke-width="0.5"/>
<path d="M28.3438 27.602H12.7188C12.2873 27.602 11.9375 27.2516 11.9375 26.8195C11.9375 26.3874 12.2873 26.0371 12.7188 26.0371H28.3438C28.7752 26.0371 29.125 26.3874 29.125 26.8195C29.125 27.2516 28.7752 27.602 28.3438 27.602Z" fill="#703391" stroke="#703391" stroke-width="0.5"/>
<path d="M28.3438 35.4262H12.7188C12.2873 35.4262 11.9375 35.0759 11.9375 34.6438C11.9375 34.2117 12.2873 33.8613 12.7188 33.8613H28.3438C28.7752 33.8613 29.125 34.2117 29.125 34.6438C29.125 35.0759 28.7752 35.4262 28.3438 35.4262Z" fill="#703391" stroke="#703391" stroke-width="0.5"/>
<path d="M28.3438 44.0336H12.7188C12.2873 44.0336 11.9375 43.6833 11.9375 43.2512C11.9375 42.8191 12.2873 42.4688 12.7188 42.4688H28.3438C28.7752 42.4688 29.125 42.8191 29.125 43.2512C29.125 43.6833 28.7752 44.0336 28.3438 44.0336Z" fill="#703391" stroke="#703391" stroke-width="0.5"/>
<path d="M28.3438 47.9457H12.7188C12.2873 47.9457 11.9375 47.5954 11.9375 47.1633C11.9375 46.7312 12.2873 46.3809 12.7188 46.3809H28.3438C28.7752 46.3809 29.125 46.7312 29.125 47.1633C29.125 47.5954 28.7752 47.9457 28.3438 47.9457Z" fill="#703391" stroke="#703391" stroke-width="0.5"/>
<path d="M28.3438 39.3383H12.7188C12.2873 39.3383 11.9375 38.988 11.9375 38.5559C11.9375 38.1238 12.2873 37.7734 12.7188 37.7734H28.3438C28.7752 37.7734 29.125 38.1238 29.125 38.5559C29.125 38.988 28.7752 39.3383 28.3438 39.3383Z" fill="#703391" stroke="#703391" stroke-width="0.5"/>
<path d="M28.3438 30.7328H12.7188C12.2873 30.7328 11.9375 30.3825 11.9375 29.9504C11.9375 29.5183 12.2873 29.168 12.7188 29.168H28.3438C28.7752 29.168 29.125 29.5183 29.125 29.9504C29.125 30.3825 28.7752 30.7328 28.3438 30.7328Z" fill="#703391" stroke="#703391" stroke-width="0.5"/>
<path d="M16.625 18.2134C14.0403 18.2134 11.9375 16.1074 11.9375 13.5188C11.9375 10.9302 14.0403 8.82422 16.625 8.82422C19.2097 8.82422 21.3125 10.9302 21.3125 13.5188C21.3125 16.1074 19.2097 18.2134 16.625 18.2134ZM16.625 10.3891C14.9019 10.3891 13.5 11.793 13.5 13.5188C13.5 15.2445 14.9019 16.6485 16.625 16.6485C18.3481 16.6485 19.75 15.2445 19.75 13.5188C19.75 11.793 18.3481 10.3891 16.625 10.3891Z" fill="#703391" stroke="#703391" stroke-width="0.5"/>
<path d="M6.33461 31.5139C6.11547 31.5139 5.9062 31.4218 5.75805 31.2593L4.32963 29.6945C4.03852 29.3756 4.06069 28.8808 4.37905 28.5891C4.6975 28.2976 5.19165 28.3198 5.48276 28.6387L6.31078 29.5456L8.99633 26.3544C9.27446 26.0238 9.76743 25.982 10.0972 26.2603C10.4271 26.5389 10.4692 27.0325 10.1911 27.3628L6.93198 31.2356C6.78706 31.4078 6.57514 31.5091 6.35034 31.5136C6.34516 31.5138 6.33989 31.5139 6.33461 31.5139Z" fill="#703391" stroke="#703391" stroke-width="0.5"/>
<path d="M6.33461 39.3382C6.11547 39.3382 5.9062 39.2461 5.75805 39.0836L4.32963 37.5188C4.03852 37.1998 4.06069 36.705 4.37905 36.4134C4.6975 36.1217 5.19165 36.144 5.48276 36.463L6.31078 37.3699L8.99633 34.1787C9.27446 33.8481 9.76743 33.8061 10.0972 34.0846C10.4271 34.3631 10.4692 34.8567 10.1911 35.187L6.93198 39.0598C6.78706 39.2321 6.57514 39.3334 6.35034 39.3379C6.34516 39.3381 6.33989 39.3382 6.33461 39.3382Z" fill="#703391" stroke="#703391" stroke-width="0.5"/>
<path d="M6.33461 47.9455C6.11547 47.9455 5.9062 47.8534 5.75805 47.691L4.32963 46.1261C4.03852 45.8072 4.06069 45.3124 4.37905 45.0207C4.6975 44.7291 5.19165 44.7513 5.48276 45.0703L6.31078 45.9772L8.99633 42.786C9.27446 42.4555 9.76743 42.4136 10.0972 42.6919C10.4271 42.9705 10.4692 43.4641 10.1911 43.7944L6.93198 47.6672C6.78706 47.8394 6.57514 47.9407 6.35034 47.9452C6.34516 47.9454 6.33989 47.9455 6.33461 47.9455Z" fill="#703391" stroke="#703391" stroke-width="0.5"/>
<path d="M36.1562 51.075C35.82 51.075 35.5214 50.8595 35.415 50.54L33.8525 45.8454C33.8261 45.7656 33.8125 45.682 33.8125 45.598V12.736C33.8125 11.4416 34.864 10.3887 36.1562 10.3887C37.4485 10.3887 38.5 11.4416 38.5 12.736V45.598C38.5 45.682 38.4864 45.7656 38.46 45.8454L36.8975 50.54C36.7911 50.8595 36.4925 51.075 36.1562 51.075ZM35.375 45.4709L36.1562 47.8182L36.9375 45.4709V12.736C36.9375 12.3045 36.587 11.9535 36.1562 11.9535C35.7255 11.9535 35.375 12.3045 35.375 12.736V45.4709Z" fill="#703391" stroke="#703391" stroke-width="0.5"/>
<path d="M37.7188 16.6488H34.5938C34.1623 16.6488 33.8125 16.2985 33.8125 15.8664C33.8125 15.4343 34.1623 15.084 34.5938 15.084H37.7188C38.1502 15.084 38.5 15.4343 38.5 15.8664C38.5 16.2985 38.1502 16.6488 37.7188 16.6488Z" fill="#703391" stroke="#703391" stroke-width="0.5"/>
<path d="M37.7188 45.5981H34.5938C34.1623 45.5981 33.8125 45.2477 33.8125 44.8156C33.8125 44.3835 34.1623 44.0332 34.5938 44.0332H37.7188C38.1502 44.0332 38.5 44.3835 38.5 44.8156C38.5 45.2477 38.1502 45.5981 37.7188 45.5981Z" fill="#703391" stroke="#703391" stroke-width="0.5"/>
</svg>
