<svg width="42" height="52" viewBox="0 0 42 52" fill="none" xmlns="http://www.w3.org/2000/svg">
<path fill-rule="evenodd" clip-rule="evenodd" d="M40.2495 1C40.6602 1 41 1.33225 41 1.73601V50.264C41 50.6677 40.6603 51 40.2495 51H1.75046C1.33976 51 1 50.6677 1 50.264V9.5316C1 9.51688 1.0043 9.50426 1.0086 9.49165C1.01505 9.3108 1.09031 9.14047 1.21933 9.01009L9.1902 1.21665C9.32136 1.09048 9.49769 1.01688 9.68261 1.01057C9.69552 1.00426 9.70842 1.00216 9.72132 1.00006L40.2495 1ZM39.4948 49.5296V2.4718H10.4743V9.53095C10.4743 9.9347 10.1346 10.267 9.72172 10.267H2.50555V49.5297L39.4948 49.5296ZM11.7344 19.2882L11.7322 14.3465C11.7322 13.9428 12.072 13.6105 12.4848 13.6105H15.9898V10.1618C15.9898 9.75808 16.3295 9.42582 16.7424 9.42582H20.2474V8.06949C20.2474 7.66574 20.5871 7.33348 21 7.33348H25.2576C25.6704 7.33348 26.0102 7.66573 26.0102 8.06949V11.5182H29.5152C29.9259 11.5182 30.2656 11.8504 30.2656 12.2542V19.288H33.7728C34.1856 19.288 34.5254 19.6203 34.5254 20.024C34.5254 20.4278 34.1856 20.76 33.7728 20.76H8.22745C7.81459 20.76 7.47484 20.4278 7.47484 20.024C7.47484 19.6203 7.81459 19.288 8.22745 19.288L11.7344 19.2882ZM28.7605 12.9903H26.0082V19.2882H28.7605V12.9903ZM17.4929 10.8979V19.2884H20.2452V10.8979H17.4929ZM21.7505 8.80561V19.2886H24.5028V8.80561H21.7505ZM15.9875 15.0826H13.2352V19.2883H15.9875V15.0826ZM33.7728 25.2646C34.1857 25.2646 34.5254 25.5968 34.5254 26.0006C34.5254 26.4043 34.1857 26.7366 33.7728 26.7366H15.5708C15.158 26.7366 14.8182 26.4043 14.8182 26.0006C14.8182 25.5968 15.158 25.2646 15.5708 25.2646H33.7728ZM11.216 25.2646C11.6289 25.2646 11.9686 25.5968 11.9686 26.0006C11.9686 26.4043 11.6289 26.7366 11.216 26.7366H8.22712C7.81427 26.7366 7.47451 26.4043 7.47451 26.0006C7.47451 25.5968 7.81426 25.2646 8.22712 25.2646H11.216ZM33.7728 37.2193C34.1857 37.2193 34.5254 37.5516 34.5254 37.9553C34.5254 38.3591 34.1857 38.6913 33.7728 38.6913H15.5708C15.158 38.6913 14.8182 38.3591 14.8182 37.9553C14.8182 37.5516 15.158 37.2193 15.5708 37.2193H33.7728ZM11.216 37.2193C11.6289 37.2193 11.9686 37.5516 11.9686 37.9553C11.9686 38.3591 11.6289 38.6913 11.216 38.6913H8.22712C7.81427 38.6913 7.47451 38.3591 7.47451 37.9553C7.47451 37.5516 7.81426 37.2193 8.22712 37.2193H11.216ZM33.7728 43.1959C34.1857 43.1959 34.5254 43.5282 34.5254 43.9319C34.5254 44.3357 34.1857 44.6679 33.7728 44.6679H24.6707C24.2579 44.6679 23.9181 44.3357 23.9181 43.9319C23.9181 43.5282 24.2579 43.1959 24.6707 43.1959H33.7728ZM33.7728 31.2411C34.1857 31.2411 34.5254 31.5734 34.5254 31.9772C34.5254 32.3809 34.1857 32.7132 33.7728 32.7132H15.5708C15.158 32.7132 14.8182 32.3809 14.8182 31.9772C14.8182 31.5734 15.158 31.2411 15.5708 31.2411H33.7728ZM11.216 31.2411C11.6289 31.2411 11.9686 31.5734 11.9686 31.9772C11.9686 32.3809 11.6289 32.7132 11.216 32.7132H8.22712C7.81427 32.7132 7.47451 32.3809 7.47451 31.9772C7.47451 31.5734 7.81426 31.2411 8.22712 31.2411H11.216ZM8.969 3.51272L3.56747 8.79511H8.969V3.51272Z" fill="#703391" stroke="#703391"/>
</svg>
