<svg width="50" height="52" viewBox="0 0 50 52" fill="none" xmlns="http://www.w3.org/2000/svg">
<path d="M24.9093 1C23.0468 1 21.3819 2.25472 21.244 4.01847H15.8548C14.2627 4.01847 12.7339 5.11344 12.7339 6.73509V8.70597C12.7339 10.3276 14.2627 11.4226 15.8548 11.4226H34.1452C35.7373 11.4226 37.2661 10.3276 37.2661 8.70597V6.73509C37.2661 5.11344 35.7373 4.01847 34.1452 4.01847H28.756C28.6181 2.25472 26.9532 1 25.0907 1H25H24.9093ZM24.9093 3.27273H25H25.0907C25.9977 3.27273 26.4879 3.79169 26.4879 4.23153V5.15483C26.4879 5.4562 26.6103 5.74522 26.8281 5.95833C27.0458 6.17143 27.3412 6.29116 27.6492 6.29119H34.1452C34.712 6.29119 34.9435 6.59509 34.9435 6.73509V8.70597C34.9435 8.84597 34.712 9.14986 34.1452 9.14986H15.8548C15.288 9.14986 15.0565 8.84597 15.0565 8.70597V6.73509C15.0565 6.59509 15.288 6.29119 15.8548 6.29119H22.3508C22.6588 6.29116 22.9542 6.17143 23.1719 5.95833C23.3897 5.74522 23.5121 5.4562 23.5121 5.15483V4.23153C23.5121 3.79169 24.0023 3.27273 24.9093 3.27273ZM8.99597 7.48082C8.69751 7.51534 8.42434 7.66172 8.23387 7.8892C7.3638 8.89151 7 10.2176 7 11.6001V45.8331C7 48.67 9.35148 51 12.244 51H37.756C40.6485 51 43 48.67 43 45.8331V11.6001C43 10.2176 42.6362 8.89151 41.7661 7.8892C41.6672 7.77495 41.5463 7.68088 41.4103 7.61235C41.2742 7.54382 41.1257 7.50219 40.9732 7.48982C40.8208 7.47746 40.6673 7.4946 40.5216 7.54028C40.3758 7.58596 40.2407 7.65927 40.124 7.75604C40.0072 7.8528 39.9111 7.97113 39.8411 8.10425C39.771 8.23737 39.7285 8.38269 39.7158 8.5319C39.7032 8.68112 39.7207 8.8313 39.7674 8.97389C39.8141 9.11648 39.889 9.24867 39.9879 9.36293C40.3944 9.83119 40.6774 10.6208 40.6774 11.6001V45.8331C40.6774 47.458 39.394 48.7273 37.756 48.7273H12.244C10.606 48.7273 9.32258 47.458 9.32258 45.8331V11.6001C9.32258 10.6208 9.6056 9.83119 10.0121 9.36293C10.1692 9.18992 10.2686 8.9741 10.2969 8.74434C10.3253 8.51457 10.2813 8.28181 10.1708 8.07717C10.0603 7.87254 9.88865 7.70578 9.6787 7.59922C9.46875 7.49265 9.23055 7.45134 8.99597 7.48082ZM15.7097 16.6605C13.8709 16.6605 12.3347 18.1348 12.3347 19.9453V20.1761C12.3347 21.9867 13.8594 23.4787 15.7097 23.4787H15.9456C17.7958 23.4787 19.3024 21.9754 19.3024 20.1761V19.9453C19.3024 18.146 17.7843 16.6605 15.9456 16.6605H15.7097ZM15.7097 18.9332H15.9456C16.551 18.9332 16.9798 19.3528 16.9798 19.9453V20.1761C16.9798 20.7686 16.5395 21.206 15.9456 21.206H15.7097C15.1157 21.206 14.6573 20.7574 14.6573 20.1761V19.9453C14.6573 19.3641 15.1042 18.9332 15.7097 18.9332ZM22.3508 18.9332C22.1983 18.9402 22.0487 18.9765 21.9105 19.0401C21.7723 19.1036 21.6482 19.1932 21.5454 19.3037C21.4426 19.4141 21.3631 19.5433 21.3113 19.6839C21.2595 19.8245 21.2366 19.9736 21.2437 20.1229C21.2509 20.2721 21.288 20.4185 21.353 20.5537C21.418 20.689 21.5095 20.8103 21.6224 20.9109C21.7353 21.0115 21.8674 21.0893 22.0111 21.1399C22.1547 21.1905 22.3072 21.213 22.4597 21.206H36.504C36.6579 21.2081 36.8107 21.1803 36.9535 21.1241C37.0963 21.068 37.2263 20.9846 37.3359 20.8789C37.4455 20.7731 37.5325 20.6472 37.5919 20.5082C37.6513 20.3693 37.6819 20.2202 37.6819 20.0696C37.6819 19.919 37.6513 19.7699 37.5919 19.631C37.5325 19.4921 37.4455 19.3661 37.3359 19.2603C37.2263 19.1546 37.0963 19.0712 36.9535 19.0151C36.8107 18.9589 36.6579 18.9311 36.504 18.9332H22.4597C22.4234 18.9316 22.3871 18.9316 22.3508 18.9332ZM18.9214 25.5561C18.752 25.5701 18.5879 25.6203 18.4405 25.7031C18.2932 25.7859 18.1662 25.8994 18.0685 26.0355L15.4919 29.4446L14.5121 28.0419C14.434 27.9046 14.3277 27.7847 14.1998 27.6897C14.0719 27.5947 13.9253 27.5266 13.7693 27.4899C13.6132 27.4531 13.451 27.4484 13.2929 27.476C13.1349 27.5037 12.9844 27.5631 12.8511 27.6505C12.7177 27.738 12.6042 27.8515 12.518 27.984C12.4317 28.1165 12.3744 28.265 12.3497 28.4203C12.3251 28.5755 12.3336 28.7341 12.3747 28.8859C12.4159 29.0378 12.4887 29.1796 12.5887 29.3026L14.4758 32.0547C14.5799 32.2069 14.72 32.3322 14.8842 32.42C15.0484 32.5078 15.2319 32.5555 15.419 32.559C15.6061 32.5625 15.7912 32.5217 15.9587 32.44C16.1263 32.3584 16.2711 32.2384 16.381 32.0902L19.9375 27.3849C20.0758 27.2105 20.1591 27.0003 20.1773 26.7802C20.1955 26.5602 20.1479 26.3396 20.0401 26.1457C19.9323 25.9517 19.7691 25.7926 19.5704 25.6879C19.3717 25.5832 19.1462 25.5374 18.9214 25.5561ZM22.3508 28.6456C22.1983 28.6526 22.0487 28.6889 21.9105 28.7524C21.7723 28.816 21.6482 28.9056 21.5454 29.016C21.4426 29.1265 21.3631 29.2557 21.3113 29.3963C21.2595 29.5368 21.2366 29.686 21.2437 29.8352C21.2509 29.9845 21.288 30.1309 21.353 30.2661C21.418 30.4013 21.5095 30.5227 21.6224 30.6232C21.7353 30.7238 21.8674 30.8016 22.0111 30.8523C22.1547 30.9029 22.3072 30.9254 22.4597 30.9183H36.504C36.6579 30.9205 36.8107 30.8926 36.9535 30.8365C37.0963 30.7803 37.2263 30.697 37.3359 30.5912C37.4455 30.4855 37.5325 30.3595 37.5919 30.2206C37.6513 30.0817 37.6819 29.9326 37.6819 29.782C37.6819 29.6314 37.6513 29.4823 37.5919 29.3433C37.5325 29.2044 37.4455 29.0784 37.3359 28.9727C37.2263 28.867 37.0963 28.7836 36.9535 28.7274C36.8107 28.6713 36.6579 28.6435 36.504 28.6456H22.4597C22.4234 28.6439 22.3871 28.6439 22.3508 28.6456ZM15.7097 36.0852C13.8594 36.0852 12.3347 37.5772 12.3347 39.3878V39.6186C12.3347 41.4292 13.8709 42.9034 15.7097 42.9034H15.9456C17.7844 42.9034 19.3024 41.4179 19.3024 39.6186V39.3878C19.3024 37.5885 17.7958 36.0852 15.9456 36.0852H15.7097ZM15.7097 38.358H15.9456C16.5395 38.358 16.9798 38.7953 16.9798 39.3878V39.6186C16.9798 40.2111 16.551 40.6307 15.9456 40.6307H15.7097C15.1042 40.6307 14.6573 40.1998 14.6573 39.6186V39.3878C14.6573 38.8065 15.1157 38.358 15.7097 38.358ZM22.4597 38.358C22.3058 38.3558 22.153 38.3836 22.0102 38.4398C21.8674 38.4959 21.7374 38.5793 21.6278 38.685C21.5183 38.7908 21.4312 38.9168 21.3718 39.0557C21.3124 39.1946 21.2818 39.3437 21.2818 39.4943C21.2818 39.6449 21.3124 39.794 21.3718 39.9329C21.4312 40.0719 21.5183 40.1979 21.6278 40.3036C21.7374 40.4093 21.8674 40.4927 22.0102 40.5488C22.153 40.605 22.3058 40.6328 22.4597 40.6307H36.504C36.6579 40.6328 36.8107 40.605 36.9535 40.5488C37.0963 40.4927 37.2263 40.4093 37.3359 40.3036C37.4455 40.1979 37.5325 40.0719 37.5919 39.9329C37.6513 39.794 37.6819 39.6449 37.6819 39.4943C37.6819 39.3437 37.6513 39.1946 37.5919 39.0557C37.5325 38.9168 37.4455 38.7908 37.3359 38.685C37.2263 38.5793 37.0963 38.4959 36.9535 38.4398C36.8107 38.3836 36.6579 38.3558 36.504 38.358H22.4597Z" fill="#703391" stroke="#703391"/>
</svg>
