<svg width="52" height="52" viewBox="0 0 52 52" fill="none" xmlns="http://www.w3.org/2000/svg">
<path d="M45.5364 13.9872C45.2453 12.3043 43.7785 11.0728 42.0545 11.0661H41.6754C41.646 11.0661 41.6189 11.0638 41.5896 11.0594C41.4204 11.037 41.2669 10.9498 41.1631 10.8158C41.0616 10.6817 41.0164 10.5118 41.039 10.3442C41.0593 10.1922 41.0751 10.0313 41.0864 9.86589C41.0977 9.71839 41.1044 9.55524 41.1044 9.38315H41.1022C41.1022 5.88767 38.5364 2.91273 35.0497 2.36518C31.5655 1.81986 28.1941 3.86261 27.104 7.18598C27.0927 7.21504 27.0815 7.24409 27.0657 7.27314C26.9077 7.58604 26.5241 7.71567 26.2059 7.55922C25.9283 7.42065 25.6349 7.31561 25.3326 7.24632C24.0779 6.95354 22.76 7.27091 21.7807 8.10008C21.0495 8.71914 20.5666 9.5796 20.4267 10.525C20.3793 10.829 20.1175 11.0569 19.8061 11.0659C18.1249 11.115 16.71 12.3286 16.4211 13.9691C16.4211 13.978 16.4211 13.9869 16.4166 13.9936V13.9959C16.385 14.1814 16.3715 14.3714 16.3715 14.5613C16.3783 16.4879 17.9534 18.0479 19.8986 18.0523H21.3135C21.3857 17.8423 21.4624 17.6389 21.5459 17.4377C21.6588 17.1695 21.7897 16.8946 21.9341 16.622C21.9679 16.5594 21.9882 16.4923 21.9905 16.4208C21.9882 16.3493 21.9679 16.28 21.9341 16.2174L21.6475 15.6565V15.6587C21.3067 14.9972 21.4354 14.1948 21.9657 13.6718L23.261 12.38C23.789 11.8503 24.6059 11.723 25.2717 12.0649L25.8358 12.3487H25.8381C25.9013 12.3822 25.9712 12.4001 26.0412 12.4024C26.1134 12.4001 26.1833 12.3822 26.2465 12.3487C26.5218 12.2035 26.7971 12.0761 27.0702 11.9643C27.3433 11.8526 27.6344 11.7475 27.9277 11.6559H27.93C27.9977 11.6358 28.0586 11.6 28.1105 11.5531C28.1602 11.5017 28.1985 11.4391 28.2188 11.372L28.4152 10.7753C28.6408 10.0668 29.3066 9.58855 30.0557 9.59301H31.8971C32.6486 9.58631 33.3165 10.0668 33.5445 10.7753L33.7385 11.372C33.7611 11.4391 33.7972 11.5017 33.8469 11.5531V11.5553C33.8988 11.6045 33.962 11.638 34.0297 11.6559C34.323 11.7475 34.6051 11.8503 34.8872 11.9643C35.1557 12.0761 35.4355 12.2057 35.7109 12.3487C35.7741 12.3822 35.844 12.4001 35.914 12.4024C35.9862 12.4001 36.0561 12.3822 36.1193 12.3487L36.6835 12.0649C37.3514 11.7229 38.1661 11.8503 38.6941 12.38L39.994 13.6673C40.5265 14.1903 40.6574 14.9949 40.3144 15.6565L40.0256 16.2174C39.9917 16.28 39.9714 16.3493 39.9714 16.4208C39.9737 16.4901 39.9917 16.5594 40.0278 16.6197C40.1722 16.8946 40.3009 17.1673 40.4137 17.4355C40.4972 17.6389 40.5762 17.8423 40.6461 18.0501H42.061V18.0523C43.0968 18.0523 44.0807 17.6009 44.7509 16.8187C45.4234 16.0342 45.71 14.9994 45.5407 13.987L45.5364 13.9872ZM34.3753 23.7005C34.1226 23.9486 33.7142 23.9486 33.4637 23.7005C33.2109 23.4502 33.2109 23.0457 33.4637 22.7954L34.9666 21.3069L33.4637 19.8162C33.2109 19.5681 33.2109 19.1636 33.4637 18.9132C33.7142 18.6629 34.1226 18.6629 34.3753 18.9132L36.3363 20.8576C36.4582 20.9761 36.5259 21.1392 36.5259 21.3091C36.5259 21.4789 36.4582 21.6399 36.3363 21.7605L34.3753 23.7005ZM31.3718 17.3777V17.3755C31.4643 17.0358 31.8186 16.8324 32.1616 16.924C32.5069 17.0157 32.71 17.3665 32.6174 17.7063L30.5797 25.2403C30.4872 25.58 30.1329 25.7812 29.7899 25.6895C29.4469 25.5979 29.2438 25.247 29.3363 24.9073L31.3718 17.3777ZM28.4901 22.7975V22.7953C28.6164 22.9137 28.6886 23.0791 28.6909 23.2512C28.6931 23.4233 28.6255 23.5887 28.5013 23.7116C28.3795 23.8323 28.2125 23.8993 28.0365 23.8971C27.8627 23.8949 27.698 23.8233 27.5784 23.7004L25.6174 21.7605V21.7583C25.3669 21.5079 25.3669 21.1057 25.6174 20.8554L27.5784 18.9132V18.9154C27.8311 18.6763 28.2305 18.6808 28.4788 18.9266C28.727 19.1702 28.7315 19.5658 28.4901 19.8184L26.9849 21.3091L28.4901 22.7975ZM30.9746 13.6632C35.2103 13.6989 38.6245 17.1094 38.6245 21.3042C38.6245 25.4992 35.2102 28.9097 30.9746 28.9475V28.943C28.9188 28.9609 26.9375 28.1653 25.4775 26.7304C24.0152 25.2956 23.1938 23.3422 23.1938 21.304C23.1938 19.2657 24.0152 17.3123 25.4775 15.8775C26.9375 14.4449 28.9188 13.647 30.9746 13.6649V13.6632ZM35.5217 16.8077V16.8055C34.3167 15.6098 32.6806 14.9371 30.9746 14.9393C27.425 14.9393 24.5454 17.7911 24.5454 21.3068C24.5454 24.8246 27.4249 27.6765 30.9746 27.6765V27.6742C33.5742 27.672 35.9166 26.1232 36.9116 23.7452C37.9066 21.3672 37.3586 18.6292 35.5217 16.8077ZM22.3341 18.9644C22.325 18.9868 22.3137 19.0091 22.3025 19.0293C22.228 19.15 22.1422 19.2639 22.043 19.3645C21.8489 19.5589 21.6074 19.7042 21.3434 19.7847L20.7409 19.9791C20.5536 20.0328 20.4272 20.2048 20.4362 20.3971V22.2185C20.4272 22.4107 20.5536 22.5851 20.7409 22.6365L21.3434 22.8309C21.6074 22.9136 21.8489 23.0566 22.043 23.2533C22.237 23.4478 22.3792 23.6847 22.4627 23.9461C22.5417 24.1987 22.6319 24.4445 22.7312 24.6859C22.8373 24.9385 22.9501 25.1776 23.0697 25.4011V25.4033C23.1983 25.6425 23.2683 25.9129 23.2683 26.1856C23.2706 26.4582 23.2051 26.7287 23.081 26.9723L22.7899 27.5288V27.531C22.747 27.6137 22.7312 27.7076 22.7425 27.7992C22.7583 27.8909 22.8057 27.9758 22.8734 28.0406L24.1755 29.3324C24.2386 29.3994 24.3244 29.4441 24.4169 29.4598C24.5117 29.4732 24.6065 29.4576 24.69 29.4129L25.2564 29.1268C25.7551 28.8742 26.3463 28.8787 26.8405 29.138C27.0662 29.2542 27.3077 29.3659 27.5627 29.4732C27.8064 29.5738 28.0546 29.6632 28.3096 29.7414L28.3119 29.7392C28.5759 29.8218 28.8174 29.9626 29.0137 30.1549C29.21 30.3471 29.3567 30.5862 29.4402 30.8477L29.6342 31.4444V31.4422C29.6907 31.6255 29.8622 31.7484 30.0562 31.7439H31.8976C32.0917 31.7506 32.2632 31.6277 32.3196 31.4422L32.516 30.8454V30.8477C32.5994 30.5862 32.7439 30.347 32.9425 30.1549C33.141 29.9626 33.3825 29.8196 33.6466 29.7392C33.8993 29.6609 34.1498 29.5715 34.3913 29.471C34.6463 29.3659 34.8877 29.2542 35.1134 29.1357L35.1156 29.138C35.6121 28.8765 36.2033 28.8742 36.7043 29.129L37.2707 29.4128H37.2685C37.44 29.5067 37.6498 29.4732 37.783 29.3324L39.0828 28.0428C39.225 27.9132 39.2588 27.7009 39.164 27.5333L38.8774 26.9768C38.6179 26.4828 38.6224 25.8951 38.8887 25.4033C39.0061 25.1799 39.1189 24.9407 39.2227 24.6882C39.3242 24.4468 39.4145 24.2009 39.4958 23.9484C39.656 23.4142 40.0734 22.994 40.6105 22.8309L41.2131 22.6365C41.3033 22.6074 41.3823 22.5538 41.4387 22.48C41.4929 22.404 41.52 22.3124 41.52 22.2185V20.397C41.52 20.3032 41.4929 20.2115 41.4387 20.1356C41.3823 20.0618 41.3033 20.0059 41.2131 19.9791L40.6105 19.7847C40.3465 19.702 40.1073 19.5567 39.911 19.3623C39.814 19.2617 39.7282 19.1522 39.656 19.0315C39.6425 19.0091 39.6289 18.9868 39.6199 18.9622C39.568 18.8684 39.5274 18.7678 39.498 18.665C39.4168 18.4147 39.3265 18.1666 39.225 17.9274C39.1212 17.6749 39.0083 17.4335 38.891 17.2122V17.21C38.7624 16.9686 38.6924 16.7004 38.6879 16.4278C38.6856 16.1529 38.7533 15.8824 38.8775 15.6388L39.1641 15.0801H39.1663C39.2114 14.9996 39.2272 14.9058 39.2137 14.8119C39.1979 14.7203 39.1505 14.6376 39.0851 14.5727L37.7852 13.2854C37.7198 13.2184 37.6341 13.1737 37.5415 13.158C37.449 13.1424 37.3542 13.1603 37.273 13.205L36.7066 13.4888C36.4606 13.6162 36.1876 13.681 35.91 13.6765C35.6347 13.6743 35.3639 13.6072 35.1202 13.4776C34.8945 13.3636 34.6553 13.2519 34.398 13.1468C34.1543 13.0463 33.9061 12.9569 33.6533 12.8764C33.3893 12.796 33.1479 12.6529 32.9492 12.4607C32.7552 12.2663 32.6085 12.0294 32.525 11.7679L32.3287 11.1711H32.3264C32.2993 11.084 32.2452 11.0058 32.1707 10.9499C32.0917 10.8962 31.9992 10.8672 31.9067 10.8672H30.0563C29.8622 10.865 29.6907 10.9856 29.6343 11.1689L29.4402 11.7657C29.2732 12.2976 28.849 12.7133 28.3096 12.872C28.0546 12.9524 27.8064 13.0418 27.5627 13.1424C27.3077 13.2452 27.064 13.357 26.8406 13.4732L26.8383 13.4754C26.3441 13.7369 25.7484 13.7414 25.2496 13.4866L24.6877 13.2027V13.2005C24.5185 13.1089 24.3064 13.1424 24.1732 13.281L22.8712 14.5683C22.8057 14.6353 22.7606 14.718 22.7425 14.8097C22.729 14.9013 22.747 14.9952 22.7899 15.0779L23.081 15.6366C23.2051 15.8802 23.2706 16.1506 23.2683 16.4255C23.2661 16.6982 23.1984 16.9664 23.0675 17.2078C22.9501 17.4313 22.8373 17.6704 22.729 17.923C22.6274 18.1643 22.5372 18.4102 22.4605 18.6605C22.4289 18.7656 22.386 18.8661 22.3341 18.9622L22.3341 18.9644ZM19.5313 19.3176C17.0242 19.1209 15.0858 17.0514 15.079 14.5594V14.5124H12.2424V26.7535H17.4123H17.4101C17.7373 26.7558 18.051 26.8854 18.2811 27.1156C18.2992 27.1312 18.3127 27.1491 18.3262 27.1692C18.5293 27.3883 18.6422 27.6766 18.6422 27.9761V29.5897H20.8401V29.5875C21.1651 29.5875 21.4765 29.7171 21.7067 29.9451C21.9391 30.1708 22.07 30.4814 22.0723 30.8055V38.827H49.7139V14.5107H46.875V14.5599C46.8682 17.0519 44.932 19.1192 42.425 19.3181C42.4453 19.3405 42.4611 19.3651 42.4814 19.3896C42.6958 19.6824 42.8108 20.0355 42.8108 20.3976V22.2191C42.8108 22.9633 42.3257 23.6204 41.6126 23.8462L41.01 24.0406C40.9423 24.0607 40.8792 24.0965 40.8273 24.1456C40.7799 24.1993 40.7438 24.2596 40.7234 24.3267C40.6332 24.6127 40.5294 24.8966 40.412 25.1737C40.2947 25.4486 40.1683 25.7168 40.0262 25.9895C39.9923 26.0521 39.972 26.1214 39.9697 26.1929C39.972 26.2644 39.9901 26.3337 40.0239 26.3963L40.3128 26.955V26.9572C40.6558 27.6188 40.5271 28.4234 39.9923 28.9464L38.6925 30.2337H38.6947C38.1644 30.7611 37.3521 30.8863 36.6841 30.5488L36.1199 30.265C36.0567 30.2292 35.9845 30.2113 35.9123 30.2113C35.8424 30.2113 35.7724 30.2315 35.7115 30.265C35.4339 30.4103 35.1586 30.5377 34.8878 30.6494C34.6057 30.7634 34.3214 30.8662 34.0303 30.9578C33.9603 30.9757 33.8994 31.0115 33.8475 31.0606C33.7978 31.112 33.7595 31.1746 33.7369 31.2417L33.5428 31.8384V31.8362C33.3149 32.5469 32.6492 33.0274 31.8955 33.0229H30.0563C29.3071 33.0252 28.6414 32.5446 28.4134 31.8362L28.2171 31.2394V31.2417C28.1968 31.1746 28.1607 31.112 28.1111 31.0606C28.0592 31.0115 27.996 30.9779 27.9283 30.9578C27.6349 30.8662 27.3483 30.7634 27.0707 30.6494C26.7932 30.5354 26.5224 30.408 26.2471 30.265C26.1839 30.2315 26.1139 30.2113 26.0417 30.2113C25.9695 30.2113 25.8995 30.2292 25.8363 30.265L25.2722 30.5488C24.6043 30.8885 23.7918 30.7611 23.2615 30.2359L21.9617 28.9486H21.964C21.4314 28.4234 21.3028 27.6188 21.6458 26.9572L21.9324 26.3985C21.9662 26.3359 21.9865 26.2666 21.9888 26.1951C21.9843 26.1236 21.9662 26.0543 21.9324 25.9917C21.7857 25.7191 21.6571 25.4464 21.5442 25.1782C21.4291 24.9011 21.3253 24.615 21.2351 24.3289C21.2148 24.2619 21.1786 24.1993 21.129 24.1479C21.0771 24.0987 21.0139 24.0629 20.9462 24.0428L20.3437 23.8484C19.9939 23.7389 19.6893 23.5221 19.4749 23.2271C19.2605 22.9343 19.1454 22.5812 19.1454 22.2191V20.3977C19.1432 20.0356 19.2605 19.6825 19.4749 19.3897C19.4929 19.3651 19.511 19.3399 19.5313 19.3176ZM46.683 13.2317H50.3546V13.2339C50.7111 13.2339 51 13.52 51 13.8709V39.4676C51 39.8185 50.7112 40.1046 50.3546 40.1046H36.7446V43.4325H45.3899C45.5614 43.4325 45.7261 43.4995 45.8457 43.618C45.9676 43.7386 46.0353 43.9018 46.0353 44.0694V47.319C46.0353 47.4889 45.9676 47.652 45.8457 47.7727C45.7261 47.8912 45.5614 47.9605 45.3899 47.9605H22.07V49.7842C22.07 50.106 21.9368 50.4167 21.7067 50.6446C21.4765 50.8704 21.1651 51 20.8401 51H5.65768C5.33273 51 5.02129 50.8704 4.79114 50.6446L4.78663 50.6379H4.78437C4.55645 50.41 4.42782 50.1016 4.42782 49.7797V48.1728H2.22986C1.9049 48.1728 1.59121 48.0454 1.36106 47.8174V47.813C1.13088 47.585 1.00226 47.2766 1 46.9525V30.5633C1 30.3555 1.10155 30.161 1.27305 30.0426L5.31918 26.8935C5.43201 26.8041 5.57193 26.7572 5.71635 26.7572V26.755H10.954V13.8725C10.954 13.5216 11.2406 13.2355 11.5949 13.2333H15.2687C15.8035 11.4207 17.3651 10.0887 19.2539 9.83171C19.9625 7.04472 22.799 5.33943 25.6218 6.00324C25.7911 6.04123 25.958 6.08817 26.1228 6.14404C26.7253 4.72706 27.7069 3.50009 28.9616 2.59718C30.6541 1.38137 32.7415 0.829359 34.8201 1.04615C36.8984 1.26294 38.8233 2.23513 40.2202 3.775C41.6193 5.31488 42.3911 7.31294 42.3911 9.38251C42.3911 9.51437 42.3911 9.65294 42.3798 9.79821C44.3972 9.93901 46.1145 11.309 46.6832 13.2333L46.683 13.2317ZM18.5088 46.6823C18.8631 46.6823 19.1519 46.9684 19.1519 47.3215C19.1519 47.6724 18.8631 47.9585 18.5088 47.9585H7.98835C7.6318 47.9585 7.3452 47.6724 7.3452 47.3215C7.3452 46.9684 7.63179 46.6823 7.98835 46.6823H18.5088ZM18.5088 42.9343V42.9365C18.8631 42.9365 19.1519 43.2204 19.1519 43.5735C19.1519 43.9266 18.8631 44.2105 18.5088 44.2105H7.98835C7.6318 44.2105 7.3452 43.9266 7.3452 43.5735C7.3452 43.2204 7.63179 42.9365 7.98835 42.9365L18.5088 42.9343ZM18.5088 35.438C18.8653 35.438 19.1542 35.7241 19.1542 36.0772C19.1542 36.4303 18.8653 36.7164 18.5088 36.7164H7.98835C7.6318 36.7164 7.34295 36.4303 7.34295 36.0772C7.34295 35.7241 7.63179 35.438 7.98835 35.438H18.5088ZM18.5088 39.186V39.1883C18.8653 39.1883 19.1542 39.4743 19.1542 39.8252C19.1542 40.1784 18.8653 40.4644 18.5088 40.4644H7.98835C7.6318 40.4644 7.34295 40.1784 7.34295 39.8252C7.34295 39.4743 7.63179 39.1883 7.98835 39.1883L18.5088 39.186ZM3.49098 29.9333H5.06838V28.7063L3.49098 29.9333ZM6.35688 28.0313V30.5747C6.35688 30.9256 6.06803 31.2117 5.71373 31.2117H2.28816V46.8942H4.42743V33.3927C4.42743 33.1848 4.52897 32.9904 4.70048 32.8719L8.71957 29.743L8.71732 29.7408C8.83692 29.6402 8.98811 29.5844 9.14382 29.5866H17.3535V28.0333L6.35688 28.0313ZM6.91878 32.7649H8.49618V31.538L6.91878 32.7649ZM9.78693 30.8608V33.4041C9.78693 33.5718 9.71923 33.7349 9.59737 33.8534C9.47777 33.974 9.31304 34.0411 9.14379 34.0411H5.71597V49.7259H20.7811V30.8605L9.78693 30.8608ZM22.0699 46.6795H44.7468V44.7061H22.0699V46.6795ZM22.0699 43.4276H25.2089V40.102H22.0699V43.4276ZM35.4563 40.0998H26.4951V43.4276H35.4563V40.0998Z" fill="#703391"/>
<path d="M19.5313 19.3153V19.3176M19.5313 19.3176C17.0242 19.1209 15.0858 17.0514 15.079 14.5594V14.5124H12.2424V26.7535H17.4123H17.4101C17.7373 26.7558 18.051 26.8854 18.2811 27.1156C18.2992 27.1312 18.3127 27.1491 18.3262 27.1692C18.5293 27.3883 18.6422 27.6766 18.6422 27.9761V29.5897H20.8401V29.5875C21.1651 29.5875 21.4765 29.7171 21.7067 29.9451C21.9391 30.1708 22.07 30.4814 22.0723 30.8055V38.827H49.7139V14.5107H46.875V14.5599C46.8682 17.0519 44.932 19.1192 42.425 19.3181C42.4453 19.3405 42.4611 19.3651 42.4814 19.3896C42.6958 19.6824 42.8108 20.0355 42.8108 20.3976V22.2191C42.8108 22.9633 42.3257 23.6204 41.6126 23.8462L41.01 24.0406C40.9423 24.0607 40.8792 24.0965 40.8273 24.1456C40.7799 24.1993 40.7438 24.2596 40.7235 24.3267C40.6332 24.6127 40.5294 24.8966 40.412 25.1737C40.2947 25.4486 40.1683 25.7168 40.0262 25.9895C39.9923 26.0521 39.972 26.1214 39.9697 26.1929C39.972 26.2644 39.9901 26.3337 40.0239 26.3963L40.3128 26.955V26.9572C40.6558 27.6188 40.5271 28.4234 39.9923 28.9464L38.6925 30.2337H38.6947C38.1644 30.7611 37.3521 30.8863 36.6841 30.5488L36.1199 30.265C36.0567 30.2292 35.9845 30.2113 35.9123 30.2113C35.8424 30.2113 35.7724 30.2315 35.7115 30.265C35.4339 30.4103 35.1586 30.5377 34.8878 30.6494C34.6057 30.7634 34.3214 30.8662 34.0302 30.9578C33.9603 30.9757 33.8994 31.0115 33.8475 31.0606C33.7978 31.112 33.7595 31.1746 33.7369 31.2417L33.5428 31.8384V31.8362C33.3149 32.5469 32.6492 33.0274 31.8955 33.0229H30.0563C29.3071 33.0252 28.6414 32.5446 28.4134 31.8362L28.2171 31.2394V31.2417C28.1968 31.1746 28.1607 31.112 28.1111 31.0606C28.0592 31.0115 27.996 30.9779 27.9283 30.9578C27.6349 30.8662 27.3483 30.7634 27.0707 30.6494C26.7932 30.5354 26.5224 30.408 26.2471 30.265C26.1839 30.2315 26.1139 30.2113 26.0417 30.2113C25.9695 30.2113 25.8995 30.2292 25.8364 30.265L25.2722 30.5488C24.6043 30.8885 23.7918 30.7611 23.2615 30.2359L21.9617 28.9486H21.964C21.4314 28.4234 21.3028 27.6188 21.6458 26.9572L21.9324 26.3985C21.9662 26.3359 21.9865 26.2666 21.9888 26.1951C21.9843 26.1236 21.9662 26.0543 21.9324 25.9917C21.7857 25.7191 21.6571 25.4464 21.5442 25.1782C21.4291 24.9011 21.3253 24.615 21.2351 24.3289C21.2148 24.2619 21.1786 24.1993 21.129 24.1479C21.0771 24.0987 21.0139 24.0629 20.9462 24.0428L20.3437 23.8484C19.9939 23.7389 19.6893 23.5221 19.4749 23.2271C19.2605 22.9343 19.1454 22.5812 19.1454 22.2191V20.3977C19.1432 20.0356 19.2605 19.6825 19.4749 19.3897C19.4929 19.3651 19.511 19.3399 19.5313 19.3176ZM45.5364 13.9872C45.2453 12.3043 43.7785 11.0728 42.0545 11.0661H41.6754C41.646 11.0661 41.6189 11.0638 41.5896 11.0594C41.4204 11.037 41.2669 10.9498 41.1631 10.8158C41.0616 10.6817 41.0164 10.5118 41.039 10.3442C41.0593 10.1922 41.0751 10.0313 41.0864 9.86589C41.0977 9.71839 41.1044 9.55524 41.1044 9.38315H41.1022C41.1022 5.88767 38.5364 2.91273 35.0497 2.36518C31.5655 1.81986 28.1941 3.86261 27.104 7.18598C27.0927 7.21504 27.0815 7.24409 27.0657 7.27314C26.9077 7.58604 26.5241 7.71567 26.2059 7.55922C25.9283 7.42065 25.6349 7.31561 25.3326 7.24632C24.0779 6.95354 22.76 7.27091 21.7807 8.10008C21.0495 8.71914 20.5666 9.5796 20.4267 10.525C20.3793 10.829 20.1175 11.0569 19.8061 11.0659C18.1249 11.115 16.71 12.3286 16.4211 13.9691C16.4211 13.978 16.4211 13.9869 16.4166 13.9936V13.9959C16.385 14.1814 16.3715 14.3714 16.3715 14.5613C16.3783 16.4879 17.9534 18.0479 19.8986 18.0523H21.3135C21.3857 17.8423 21.4624 17.6389 21.5459 17.4377C21.6588 17.1695 21.7897 16.8946 21.9341 16.622C21.9679 16.5594 21.9882 16.4923 21.9905 16.4208C21.9882 16.3493 21.9679 16.28 21.9341 16.2174L21.6475 15.6565V15.6587C21.3067 14.9972 21.4354 14.1948 21.9657 13.6718L23.261 12.38C23.789 11.8503 24.6059 11.723 25.2717 12.0649L25.8358 12.3487H25.8381C25.9013 12.3822 25.9712 12.4001 26.0412 12.4024C26.1134 12.4001 26.1833 12.3822 26.2465 12.3487C26.5218 12.2035 26.7971 12.0761 27.0702 11.9643C27.3433 11.8526 27.6344 11.7475 27.9277 11.6559H27.93C27.9977 11.6358 28.0586 11.6 28.1105 11.5531C28.1602 11.5017 28.1985 11.4391 28.2188 11.372L28.4152 10.7753C28.6408 10.0668 29.3066 9.58855 30.0557 9.59301H31.8971C32.6486 9.58631 33.3165 10.0668 33.5445 10.7753L33.7385 11.372C33.7611 11.4391 33.7972 11.5017 33.8469 11.5531V11.5553C33.8988 11.6045 33.962 11.638 34.0297 11.6559C34.323 11.7475 34.6051 11.8503 34.8872 11.9643C35.1557 12.0761 35.4355 12.2057 35.7109 12.3487C35.7741 12.3822 35.844 12.4001 35.914 12.4024C35.9862 12.4001 36.0561 12.3822 36.1193 12.3487L36.6835 12.0649C37.3514 11.7229 38.1661 11.8503 38.6941 12.38L39.994 13.6673C40.5265 14.1903 40.6574 14.9949 40.3144 15.6565L40.0256 16.2174C39.9917 16.28 39.9714 16.3493 39.9714 16.4208C39.9737 16.4901 39.9917 16.5594 40.0278 16.6197C40.1722 16.8946 40.3009 17.1673 40.4137 17.4355C40.4972 17.6389 40.5762 17.8423 40.6461 18.0501H42.061V18.0523C43.0968 18.0523 44.0807 17.6009 44.7509 16.8187C45.4234 16.0342 45.71 14.9994 45.5407 13.987L45.5364 13.9872ZM34.3753 23.7005C34.1226 23.9486 33.7142 23.9486 33.4637 23.7005C33.2109 23.4502 33.2109 23.0457 33.4637 22.7954L34.9666 21.3069L33.4637 19.8162C33.2109 19.5681 33.2109 19.1636 33.4637 18.9132C33.7142 18.6629 34.1226 18.6629 34.3753 18.9132L36.3363 20.8576C36.4582 20.9761 36.5259 21.1392 36.5259 21.3091C36.5259 21.4789 36.4582 21.6399 36.3363 21.7605L34.3753 23.7005ZM31.3718 17.3777V17.3755C31.4643 17.0358 31.8186 16.8324 32.1616 16.924C32.5069 17.0157 32.71 17.3665 32.6174 17.7063L30.5797 25.2403C30.4872 25.58 30.1329 25.7812 29.7899 25.6895C29.4469 25.5979 29.2438 25.247 29.3363 24.9073L31.3718 17.3777ZM28.4901 22.7975V22.7953C28.6164 22.9137 28.6886 23.0791 28.6909 23.2512C28.6931 23.4233 28.6254 23.5887 28.5013 23.7116C28.3795 23.8323 28.2125 23.8993 28.0365 23.8971C27.8627 23.8949 27.698 23.8233 27.5784 23.7004L25.6174 21.7605V21.7583C25.3669 21.5079 25.3669 21.1057 25.6174 20.8554L27.5784 18.9132V18.9154C27.8311 18.6763 28.2305 18.6808 28.4788 18.9266C28.727 19.1702 28.7315 19.5658 28.4901 19.8184L26.9849 21.3091L28.4901 22.7975ZM30.9746 13.6632C35.2103 13.6989 38.6245 17.1094 38.6245 21.3042C38.6245 25.4992 35.2102 28.9098 30.9746 28.9475V28.943C28.9188 28.9609 26.9375 28.1653 25.4775 26.7304C24.0152 25.2956 23.1938 23.3422 23.1938 21.304C23.1938 19.2657 24.0152 17.3123 25.4775 15.8775C26.9375 14.4449 28.9188 13.647 30.9746 13.6649V13.6632ZM35.5217 16.8077V16.8055C34.3167 15.6098 32.6806 14.9371 30.9746 14.9393C27.425 14.9393 24.5454 17.7911 24.5454 21.3068C24.5454 24.8246 27.4249 27.6765 30.9746 27.6765V27.6742C33.5742 27.672 35.9166 26.1232 36.9116 23.7452C37.9066 21.3672 37.3586 18.6292 35.5217 16.8077ZM22.3341 18.9644C22.325 18.9868 22.3137 19.0092 22.3025 19.0293C22.228 19.15 22.1422 19.2639 22.043 19.3645C21.8489 19.5589 21.6074 19.7042 21.3434 19.7847L20.7409 19.9791C20.5536 20.0328 20.4272 20.2048 20.4362 20.3971V22.2185C20.4272 22.4107 20.5536 22.5851 20.7409 22.6365L21.3434 22.8309C21.6074 22.9136 21.8489 23.0566 22.043 23.2533C22.237 23.4478 22.3792 23.6847 22.4627 23.9461C22.5417 24.1987 22.6319 24.4445 22.7312 24.6859C22.8373 24.9385 22.9501 25.1776 23.0697 25.4011V25.4033C23.1983 25.6425 23.2683 25.9129 23.2683 26.1856C23.2706 26.4582 23.2051 26.7287 23.081 26.9723L22.7899 27.5288V27.531C22.747 27.6137 22.7312 27.7076 22.7425 27.7992C22.7583 27.8909 22.8057 27.9758 22.8734 28.0406L24.1755 29.3324C24.2386 29.3994 24.3244 29.4441 24.4169 29.4598C24.5117 29.4732 24.6065 29.4576 24.69 29.4129L25.2564 29.1268C25.7551 28.8742 26.3463 28.8787 26.8405 29.138C27.0662 29.2542 27.3077 29.3659 27.5627 29.4732C27.8064 29.5738 28.0546 29.6632 28.3096 29.7414L28.3119 29.7392C28.5759 29.8218 28.8174 29.9626 29.0137 30.1549C29.21 30.3471 29.3567 30.5862 29.4402 30.8477L29.6342 31.4444V31.4422C29.6907 31.6254 29.8622 31.7484 30.0562 31.7439H31.8976C32.0917 31.7506 32.2632 31.6277 32.3196 31.4422L32.516 30.8454V30.8477C32.5994 30.5862 32.7439 30.347 32.9425 30.1549C33.141 29.9626 33.3825 29.8196 33.6466 29.7392C33.8993 29.6609 34.1498 29.5715 34.3913 29.471C34.6463 29.3659 34.8877 29.2542 35.1134 29.1357L35.1156 29.138C35.6121 28.8765 36.2033 28.8742 36.7043 29.129L37.2707 29.4128H37.2685C37.44 29.5067 37.6498 29.4732 37.783 29.3324L39.0828 28.0428C39.225 27.9132 39.2588 27.7009 39.164 27.5333L38.8774 26.9768C38.6179 26.4828 38.6224 25.8951 38.8887 25.4033C39.0061 25.1799 39.1189 24.9407 39.2227 24.6882C39.3242 24.4468 39.4145 24.2009 39.4958 23.9484C39.656 23.4142 40.0734 22.994 40.6105 22.8309L41.2131 22.6365C41.3033 22.6074 41.3823 22.5538 41.4387 22.48C41.4929 22.404 41.52 22.3124 41.52 22.2185V20.397C41.52 20.3032 41.4929 20.2115 41.4387 20.1356C41.3823 20.0618 41.3033 20.0059 41.2131 19.9791L40.6105 19.7847C40.3465 19.702 40.1073 19.5567 39.911 19.3623C39.814 19.2617 39.7282 19.1522 39.656 19.0315C39.6425 19.0091 39.6289 18.9868 39.6199 18.9622C39.568 18.8684 39.5274 18.7678 39.498 18.665C39.4168 18.4147 39.3265 18.1666 39.225 17.9274C39.1212 17.6749 39.0083 17.4335 38.891 17.2122V17.21C38.7624 16.9686 38.6924 16.7004 38.6879 16.4278C38.6857 16.1529 38.7533 15.8824 38.8775 15.6388L39.1641 15.0801H39.1663C39.2114 14.9996 39.2272 14.9058 39.2137 14.8119C39.1979 14.7203 39.1505 14.6376 39.0851 14.5727L37.7852 13.2854C37.7198 13.2184 37.6341 13.1737 37.5415 13.158C37.449 13.1424 37.3542 13.1603 37.273 13.205L36.7066 13.4888C36.4606 13.6162 36.1876 13.681 35.91 13.6765C35.6347 13.6743 35.3639 13.6072 35.1202 13.4776C34.8945 13.3636 34.6553 13.2519 34.398 13.1468C34.1543 13.0463 33.9061 12.9569 33.6533 12.8764C33.3893 12.796 33.1479 12.6529 32.9492 12.4607C32.7552 12.2663 32.6085 12.0294 32.525 11.7679L32.3287 11.1711H32.3264C32.2993 11.084 32.2452 11.0058 32.1707 10.9499C32.0917 10.8962 31.9992 10.8672 31.9067 10.8672H30.0563C29.8622 10.865 29.6907 10.9856 29.6343 11.1689L29.4402 11.7657C29.2732 12.2976 28.849 12.7133 28.3096 12.872C28.0546 12.9524 27.8064 13.0418 27.5627 13.1424C27.3077 13.2452 27.064 13.357 26.8406 13.4732L26.8383 13.4754C26.3441 13.7369 25.7484 13.7414 25.2496 13.4866L24.6877 13.2027V13.2005C24.5185 13.1089 24.3064 13.1424 24.1732 13.281L22.8712 14.5683C22.8057 14.6353 22.7606 14.718 22.7425 14.8097C22.729 14.9013 22.747 14.9952 22.7899 15.0779L23.081 15.6366C23.2051 15.8802 23.2706 16.1506 23.2683 16.4255C23.2661 16.6982 23.1984 16.9664 23.0675 17.2078C22.9501 17.4313 22.8373 17.6704 22.729 17.923C22.6274 18.1643 22.5372 18.4102 22.4605 18.6605C22.4289 18.7656 22.386 18.8661 22.3341 18.9622L22.3341 18.9644ZM46.683 13.2317H50.3546V13.2339C50.7111 13.2339 51 13.52 51 13.8709V39.4676C51 39.8185 50.7111 40.1046 50.3546 40.1046H36.7446V43.4325H45.3899C45.5614 43.4325 45.7261 43.4995 45.8457 43.618C45.9676 43.7386 46.0353 43.9018 46.0353 44.0694V47.319C46.0353 47.4889 45.9676 47.652 45.8457 47.7727C45.7261 47.8912 45.5614 47.9605 45.3899 47.9605H22.07V49.7842C22.07 50.106 21.9369 50.4167 21.7067 50.6446C21.4765 50.8704 21.1651 51 20.8401 51H5.65768C5.33273 51 5.02129 50.8704 4.79114 50.6446L4.78663 50.6379H4.78437C4.55645 50.41 4.42782 50.1015 4.42782 49.7797V48.1728H2.22986C1.9049 48.1728 1.59121 48.0454 1.36106 47.8174V47.813C1.13088 47.585 1.00226 47.2766 1 46.9525V30.5633C1 30.3555 1.10155 30.161 1.27305 30.0426L5.31918 26.8935C5.43201 26.8041 5.57193 26.7572 5.71635 26.7572V26.755H10.954V13.8725C10.954 13.5216 11.2406 13.2355 11.5949 13.2333H15.2687C15.8035 11.4207 17.3651 10.0887 19.2539 9.83171C19.9625 7.04472 22.799 5.33943 25.6218 6.00324C25.7911 6.04123 25.958 6.08817 26.1228 6.14404C26.7253 4.72706 27.7069 3.50009 28.9616 2.59718C30.6541 1.38137 32.7415 0.829359 34.8201 1.04615C36.8984 1.26294 38.8233 2.23513 40.2202 3.775C41.6193 5.31488 42.3911 7.31294 42.3911 9.38251C42.3911 9.51437 42.3911 9.65294 42.3798 9.79821C44.3972 9.93901 46.1145 11.309 46.6832 13.2333L46.683 13.2317ZM18.5088 46.6823C18.8631 46.6823 19.1519 46.9684 19.1519 47.3215C19.1519 47.6724 18.8631 47.9585 18.5088 47.9585H7.98835C7.6318 47.9585 7.3452 47.6724 7.3452 47.3215C7.3452 46.9684 7.63179 46.6823 7.98835 46.6823H18.5088ZM18.5088 42.9343V42.9365C18.8631 42.9365 19.1519 43.2204 19.1519 43.5735C19.1519 43.9266 18.8631 44.2105 18.5088 44.2105H7.98835C7.6318 44.2105 7.3452 43.9266 7.3452 43.5735C7.3452 43.2204 7.63179 42.9365 7.98835 42.9365L18.5088 42.9343ZM18.5088 35.438C18.8653 35.438 19.1542 35.7241 19.1542 36.0772C19.1542 36.4303 18.8653 36.7164 18.5088 36.7164H7.98835C7.6318 36.7164 7.34295 36.4303 7.34295 36.0772C7.34295 35.7241 7.63179 35.438 7.98835 35.438H18.5088ZM18.5088 39.186V39.1883C18.8653 39.1883 19.1542 39.4743 19.1542 39.8252C19.1542 40.1784 18.8653 40.4644 18.5088 40.4644H7.98835C7.6318 40.4644 7.34295 40.1784 7.34295 39.8252C7.34295 39.4743 7.63179 39.1883 7.98835 39.1883L18.5088 39.186ZM3.49098 29.9333H5.06838V28.7063L3.49098 29.9333ZM6.35688 28.0313V30.5747C6.35688 30.9256 6.06803 31.2117 5.71373 31.2117H2.28816V46.8942H4.42743V33.3927C4.42743 33.1848 4.52897 32.9904 4.70048 32.8719L8.71957 29.743L8.71732 29.7408C8.83692 29.6402 8.98811 29.5844 9.14382 29.5866H17.3535V28.0333L6.35688 28.0313ZM6.91878 32.7649H8.49618V31.538L6.91878 32.7649ZM9.78693 30.8608V33.4041C9.78693 33.5718 9.71923 33.7349 9.59737 33.8534C9.47777 33.974 9.31304 34.0411 9.14379 34.0411H5.71597V49.7259H20.7811V30.8605L9.78693 30.8608ZM22.0699 46.6795H44.7468V44.7061H22.0699V46.6795ZM22.0699 43.4276H25.2089V40.102H22.0699V43.4276ZM35.4563 40.0998H26.4951V43.4276H35.4563V40.0998Z" stroke="#703391" stroke-width="0.5"/>
</svg>
