<svg width="52" height="52" viewBox="0 0 52 52" fill="none" xmlns="http://www.w3.org/2000/svg">
<mask id="path-1-outside-1_3229_37771" maskUnits="userSpaceOnUse" x="0" y="0" width="52" height="52" fill="black">
<rect fill="white" width="52" height="52"/>
<path fill-rule="evenodd" clip-rule="evenodd" d="M30.2074 24.947C30.2075 23.9689 29.9187 23.0128 29.3774 22.1995C28.8362 21.3862 28.0668 20.7523 27.1666 20.378C26.2664 20.0037 25.2759 19.9057 24.3202 20.0965C23.3646 20.2872 22.4868 20.7582 21.7978 21.4498C21.1088 22.1414 20.6396 23.0226 20.4495 23.9818C20.2595 24.9411 20.3571 25.9354 20.73 26.839C21.1029 27.7426 21.7344 28.5149 22.5446 29.0582C23.3548 29.6015 24.3074 29.8914 25.2817 29.8913C26.5877 29.89 27.8398 29.3687 28.7633 28.4417C29.6867 27.5147 30.2061 26.2579 30.2074 24.947ZM32.55 24.947C32.55 26.3901 32.1237 27.8008 31.325 29.0007C30.5262 30.2006 29.391 31.1358 28.0627 31.688C26.7345 32.2403 25.2729 32.3847 23.8629 32.1031C22.4528 31.8216 21.1577 31.1266 20.1411 30.1061C19.1246 29.0856 18.4323 27.7855 18.1519 26.3701C17.8715 24.9547 18.0155 23.4876 18.5658 22.1544C19.116 20.8211 20.0478 19.6816 21.2432 18.8799C22.4386 18.0783 23.8441 17.6504 25.2817 17.6505C27.2089 17.6525 29.0566 18.4218 30.4193 19.7898C31.7819 21.1577 32.5483 23.0125 32.55 24.947ZM40.4159 26.683L37.8473 27.3107C37.6434 27.3606 37.4565 27.4645 37.3063 27.6116C37.156 27.7587 37.0479 27.9436 36.9931 28.1469C36.7237 29.1452 36.3278 30.1047 35.8151 31.0018C35.711 31.1845 35.6575 31.3918 35.6602 31.6022C35.663 31.8126 35.7218 32.0184 35.8307 32.1982L37.2058 34.465L34.7621 36.9179L32.505 35.5381C32.3258 35.4287 32.1206 35.3695 31.9108 35.3666C31.701 35.3638 31.4942 35.4174 31.3121 35.522C30.4185 36.0366 29.4629 36.434 28.4685 36.7044C28.2659 36.7594 28.0817 36.868 27.9352 37.0188C27.7886 37.1696 27.6851 37.3571 27.6354 37.5618L27.0112 40.1385H23.5523L22.928 37.5601C22.8785 37.3554 22.775 37.1678 22.6284 37.0169C22.4819 36.8661 22.2976 36.7575 22.0949 36.7027C21.1006 36.4324 20.1449 36.035 19.2514 35.5203C19.0693 35.4158 18.8627 35.3621 18.653 35.3648C18.4433 35.3676 18.2382 35.4266 18.059 35.5359L15.8024 36.9162L13.3587 34.4633L14.7339 32.1965C14.8428 32.0168 14.9018 31.811 14.9046 31.6006C14.9074 31.3902 14.854 31.1828 14.75 31.0002C14.2369 30.1032 13.8408 29.1437 13.5715 28.1453C13.5166 27.9418 13.4084 27.7569 13.258 27.6098C13.1077 27.4627 12.9207 27.3588 12.7167 27.309L10.147 26.683V23.2104L12.7151 22.5843C12.9191 22.5347 13.1062 22.4309 13.2566 22.2838C13.4069 22.1366 13.5151 21.9516 13.5698 21.7481C13.8394 20.7496 14.2355 19.79 14.7483 18.8926C14.8524 18.71 14.9058 18.5026 14.9029 18.2922C14.9001 18.0818 14.8412 17.876 14.7322 17.6963L13.3571 15.4317L15.8008 12.9788L18.059 14.3591C18.2381 14.4686 18.4432 14.5278 18.653 14.5307C18.8627 14.5335 19.0693 14.4799 19.2514 14.3753C20.1452 13.8611 21.1008 13.4635 22.0949 13.1923C22.2976 13.1375 22.4819 13.029 22.6285 12.8782C22.7751 12.7273 22.8785 12.5397 22.928 12.3349L23.5523 9.7565H27.0112L27.6349 12.3349C27.6845 12.5396 27.7879 12.7272 27.9345 12.8781C28.0811 13.0289 28.2653 13.1374 28.468 13.1923C29.4621 13.4636 30.4176 13.8612 31.3115 14.3753C31.4936 14.48 31.7004 14.5338 31.9102 14.5309C32.12 14.5281 32.3253 14.4688 32.5045 14.3591L34.7616 12.9788L37.2053 15.4317L35.8301 17.6985C35.7213 17.8783 35.6624 18.0841 35.6597 18.2945C35.6569 18.5049 35.7104 18.7122 35.8146 18.8949C36.327 19.7921 36.7228 20.7516 36.9925 21.7498C37.0472 21.9532 37.1553 22.1382 37.3055 22.2853C37.4558 22.4324 37.6427 22.5363 37.8467 22.586L40.4154 23.2121V26.6847L40.4159 26.683ZM39.0547 29.4353C38.8197 30.1613 38.5282 30.8676 38.1827 31.5476L39.6856 34.0257C39.8225 34.2507 39.88 34.5154 39.8489 34.7772C39.8178 35.039 39.6998 35.2827 39.514 35.469L35.7668 39.2332C35.5812 39.4197 35.3385 39.5382 35.0778 39.5697C34.817 39.6011 34.5533 39.5437 34.3289 39.4066L31.8597 37.8963C31.1819 38.2436 30.4777 38.5363 29.7537 38.7716L29.0705 41.5919C29.0087 41.8482 28.8628 42.0762 28.6563 42.2392C28.4498 42.4022 28.1947 42.4907 27.932 42.4906H22.6314C22.3688 42.4906 22.1138 42.402 21.9074 42.239C21.701 42.076 21.5552 41.8481 21.4935 41.5919L20.8103 38.7716C20.0861 38.5364 19.3817 38.2437 18.7038 37.8963L16.2351 39.4082C16.0106 39.5453 15.7468 39.6027 15.486 39.5712C15.2251 39.5398 14.9824 39.4213 14.7966 39.2348L11.0522 35.4707C10.8665 35.2843 10.7485 35.0407 10.7173 34.7789C10.6861 34.5172 10.7434 34.2525 10.8801 34.0273L12.3807 31.5476C12.035 30.8672 11.7434 30.1603 11.5088 29.4336L8.69908 28.749C8.44385 28.6864 8.21693 28.5396 8.05462 28.3323C7.89231 28.1249 7.80399 27.8688 7.8038 27.6051V22.2866C7.80395 22.023 7.89227 21.7671 8.0546 21.5598C8.21694 21.3526 8.44389 21.2061 8.69908 21.1438L11.5088 20.4586C11.7433 19.7321 12.0349 19.0254 12.3807 18.3452L10.8773 15.866C10.7406 15.6408 10.6832 15.376 10.7145 15.1142C10.7457 14.8523 10.8637 14.6086 11.0495 14.4221L14.7966 10.6602C14.9826 10.474 15.2254 10.3558 15.4862 10.3245C15.747 10.2933 16.0107 10.3508 16.2351 10.4879L18.7038 11.997C19.3818 11.6499 20.0862 11.3572 20.8103 11.1218L21.4935 8.30034C21.5553 8.04419 21.7012 7.81633 21.9075 7.65336C22.1139 7.49038 22.3688 7.40174 22.6314 7.40167H27.9315C28.1941 7.40172 28.4491 7.49034 28.6556 7.6533C28.8621 7.81627 29.008 8.04414 29.07 8.30034L29.7531 11.1207C30.477 11.3562 31.1812 11.6489 31.8591 11.9959L34.3284 10.4868C34.5526 10.3497 34.8162 10.2921 35.077 10.3233C35.3377 10.3546 35.5805 10.4728 35.7663 10.6591L39.514 14.421C39.6998 14.6075 39.8177 14.8513 39.8488 15.1131C39.88 15.375 39.8225 15.6398 39.6856 15.8649L38.1827 18.3452C38.5283 19.0255 38.8199 19.7322 39.0547 20.4586L41.8638 21.1438C42.1189 21.2061 42.3458 21.3526 42.5081 21.5599C42.6703 21.7671 42.7585 22.023 42.7585 22.2866V27.6067C42.7585 27.8704 42.6703 28.1265 42.5081 28.3339C42.3458 28.5413 42.119 28.6881 41.8638 28.7507L39.0547 29.4353ZM46.4152 11.618C50.0313 16.751 51.5956 23.0599 50.7985 29.2956C50.0013 35.5313 46.9008 41.2393 42.1106 45.2896C37.3205 49.3398 31.19 51.4371 24.9327 51.1662C18.6754 50.8954 12.7475 48.2761 8.32253 43.8269C8.10982 43.6134 7.90155 43.3943 7.6955 43.1724L7.64274 44.9798C7.63365 45.2855 7.50635 45.5756 7.28782 45.7887C7.06928 46.0019 6.77668 46.1212 6.47199 46.1215C6.46033 46.1215 6.44922 46.1215 6.437 46.1215C6.28321 46.117 6.13181 46.0822 5.99146 46.0189C5.85111 45.9556 5.72457 45.8652 5.61908 45.7528C5.51359 45.6404 5.43122 45.5082 5.37668 45.3638C5.32214 45.2193 5.2965 45.0656 5.30124 44.9112L5.46064 39.4478C5.46626 39.2766 5.50901 39.1088 5.58592 38.9559C5.66282 38.803 5.77202 38.6688 5.90591 38.5626C6.0398 38.4565 6.19514 38.3809 6.36111 38.3412C6.52708 38.3015 6.69968 38.2987 6.86687 38.3328L12.1986 39.4244C12.4998 39.4899 12.7631 39.6719 12.9316 39.931C13.1001 40.19 13.1601 40.5053 13.0987 40.8085C13.0373 41.1116 12.8594 41.3783 12.6034 41.5507C12.3475 41.7231 12.0343 41.7874 11.7315 41.7296L9.05286 41.1782C9.35277 41.5155 9.661 41.8472 9.97868 42.1639C13.99 46.1907 19.3607 48.5599 25.0286 48.8032C30.6965 49.0464 36.2489 47.1458 40.588 43.4774C44.9271 39.8089 47.7369 34.6397 48.4617 28.9918C49.1865 23.3439 47.7736 17.6285 44.5024 12.976C44.323 12.7214 44.2517 12.4057 44.3042 12.0983C44.3567 11.7909 44.5287 11.5171 44.7823 11.337C45.036 11.1569 45.3505 11.0853 45.6567 11.138C45.9629 11.1907 46.2358 11.3633 46.4152 11.618ZM4.91636 34.4232C4.97825 34.5679 5.01053 34.7237 5.01129 34.8813C5.01205 35.0388 4.98127 35.1949 4.92078 35.3403C4.8603 35.4857 4.77133 35.6174 4.65917 35.7276C4.54701 35.8378 4.41394 35.9243 4.26785 35.9818C4.12176 36.0394 3.96563 36.067 3.80874 36.0629C3.65184 36.0587 3.49736 36.023 3.35448 35.9578C3.2116 35.8926 3.08322 35.7993 2.97697 35.6833C2.87071 35.5674 2.78874 35.4312 2.73593 35.2828C0.79379 30.3279 0.472056 24.8814 1.81725 19.7309C3.16245 14.5803 6.10485 9.99279 10.2189 6.63167C14.333 3.27056 19.4055 1.3101 24.7028 1.03382C30.0002 0.757534 35.2478 2.17975 39.6867 5.09478L39.3213 3.29186C39.2663 2.98913 39.3317 2.67684 39.5035 2.42196C39.6752 2.16707 39.9396 1.98989 40.24 1.92841C40.5404 1.86693 40.8528 1.92604 41.1102 2.09307C41.3677 2.2601 41.5497 2.52174 41.6172 2.8219L42.7091 8.20445C42.7433 8.37224 42.7406 8.54551 42.7012 8.71213C42.6617 8.87875 42.5864 9.0347 42.4806 9.16906C42.3748 9.30342 42.241 9.41294 42.0886 9.48995C41.9362 9.56696 41.7689 9.60961 41.5983 9.6149L36.1284 9.77769H36.0934C35.7827 9.78227 35.483 9.66279 35.2601 9.44554C35.0372 9.22829 34.9094 8.93105 34.9049 8.61923C34.9003 8.3074 35.0193 8.00652 35.2357 7.78279C35.4522 7.55905 35.7483 7.43078 36.0589 7.4262L38.822 7.34425C34.823 4.58818 30.0484 3.19321 25.2006 3.36458C20.3528 3.53595 15.6878 5.26461 11.8919 8.29622C8.09599 11.3278 5.36964 15.5023 4.11394 20.2056C2.85825 24.9088 3.13951 29.8924 4.91636 34.4232Z"/>
</mask>
<path fill-rule="evenodd" clip-rule="evenodd" d="M30.2074 24.947C30.2075 23.9689 29.9187 23.0128 29.3774 22.1995C28.8362 21.3862 28.0668 20.7523 27.1666 20.378C26.2664 20.0037 25.2759 19.9057 24.3202 20.0965C23.3646 20.2872 22.4868 20.7582 21.7978 21.4498C21.1088 22.1414 20.6396 23.0226 20.4495 23.9818C20.2595 24.9411 20.3571 25.9354 20.73 26.839C21.1029 27.7426 21.7344 28.5149 22.5446 29.0582C23.3548 29.6015 24.3074 29.8914 25.2817 29.8913C26.5877 29.89 27.8398 29.3687 28.7633 28.4417C29.6867 27.5147 30.2061 26.2579 30.2074 24.947ZM32.55 24.947C32.55 26.3901 32.1237 27.8008 31.325 29.0007C30.5262 30.2006 29.391 31.1358 28.0627 31.688C26.7345 32.2403 25.2729 32.3847 23.8629 32.1031C22.4528 31.8216 21.1577 31.1266 20.1411 30.1061C19.1246 29.0856 18.4323 27.7855 18.1519 26.3701C17.8715 24.9547 18.0155 23.4876 18.5658 22.1544C19.116 20.8211 20.0478 19.6816 21.2432 18.8799C22.4386 18.0783 23.8441 17.6504 25.2817 17.6505C27.2089 17.6525 29.0566 18.4218 30.4193 19.7898C31.7819 21.1577 32.5483 23.0125 32.55 24.947ZM40.4159 26.683L37.8473 27.3107C37.6434 27.3606 37.4565 27.4645 37.3063 27.6116C37.156 27.7587 37.0479 27.9436 36.9931 28.1469C36.7237 29.1452 36.3278 30.1047 35.8151 31.0018C35.711 31.1845 35.6575 31.3918 35.6602 31.6022C35.663 31.8126 35.7218 32.0184 35.8307 32.1982L37.2058 34.465L34.7621 36.9179L32.505 35.5381C32.3258 35.4287 32.1206 35.3695 31.9108 35.3666C31.701 35.3638 31.4942 35.4174 31.3121 35.522C30.4185 36.0366 29.4629 36.434 28.4685 36.7044C28.2659 36.7594 28.0817 36.868 27.9352 37.0188C27.7886 37.1696 27.6851 37.3571 27.6354 37.5618L27.0112 40.1385H23.5523L22.928 37.5601C22.8785 37.3554 22.775 37.1678 22.6284 37.0169C22.4819 36.8661 22.2976 36.7575 22.0949 36.7027C21.1006 36.4324 20.1449 36.035 19.2514 35.5203C19.0693 35.4158 18.8627 35.3621 18.653 35.3648C18.4433 35.3676 18.2382 35.4266 18.059 35.5359L15.8024 36.9162L13.3587 34.4633L14.7339 32.1965C14.8428 32.0168 14.9018 31.811 14.9046 31.6006C14.9074 31.3902 14.854 31.1828 14.75 31.0002C14.2369 30.1032 13.8408 29.1437 13.5715 28.1453C13.5166 27.9418 13.4084 27.7569 13.258 27.6098C13.1077 27.4627 12.9207 27.3588 12.7167 27.309L10.147 26.683V23.2104L12.7151 22.5843C12.9191 22.5347 13.1062 22.4309 13.2566 22.2838C13.4069 22.1366 13.5151 21.9516 13.5698 21.7481C13.8394 20.7496 14.2355 19.79 14.7483 18.8926C14.8524 18.71 14.9058 18.5026 14.9029 18.2922C14.9001 18.0818 14.8412 17.876 14.7322 17.6963L13.3571 15.4317L15.8008 12.9788L18.059 14.3591C18.2381 14.4686 18.4432 14.5278 18.653 14.5307C18.8627 14.5335 19.0693 14.4799 19.2514 14.3753C20.1452 13.8611 21.1008 13.4635 22.0949 13.1923C22.2976 13.1375 22.4819 13.029 22.6285 12.8782C22.7751 12.7273 22.8785 12.5397 22.928 12.3349L23.5523 9.7565H27.0112L27.6349 12.3349C27.6845 12.5396 27.7879 12.7272 27.9345 12.8781C28.0811 13.0289 28.2653 13.1374 28.468 13.1923C29.4621 13.4636 30.4176 13.8612 31.3115 14.3753C31.4936 14.48 31.7004 14.5338 31.9102 14.5309C32.12 14.5281 32.3253 14.4688 32.5045 14.3591L34.7616 12.9788L37.2053 15.4317L35.8301 17.6985C35.7213 17.8783 35.6624 18.0841 35.6597 18.2945C35.6569 18.5049 35.7104 18.7122 35.8146 18.8949C36.327 19.7921 36.7228 20.7516 36.9925 21.7498C37.0472 21.9532 37.1553 22.1382 37.3055 22.2853C37.4558 22.4324 37.6427 22.5363 37.8467 22.586L40.4154 23.2121V26.6847L40.4159 26.683ZM39.0547 29.4353C38.8197 30.1613 38.5282 30.8676 38.1827 31.5476L39.6856 34.0257C39.8225 34.2507 39.88 34.5154 39.8489 34.7772C39.8178 35.039 39.6998 35.2827 39.514 35.469L35.7668 39.2332C35.5812 39.4197 35.3385 39.5382 35.0778 39.5697C34.817 39.6011 34.5533 39.5437 34.3289 39.4066L31.8597 37.8963C31.1819 38.2436 30.4777 38.5363 29.7537 38.7716L29.0705 41.5919C29.0087 41.8482 28.8628 42.0762 28.6563 42.2392C28.4498 42.4022 28.1947 42.4907 27.932 42.4906H22.6314C22.3688 42.4906 22.1138 42.402 21.9074 42.239C21.701 42.076 21.5552 41.8481 21.4935 41.5919L20.8103 38.7716C20.0861 38.5364 19.3817 38.2437 18.7038 37.8963L16.2351 39.4082C16.0106 39.5453 15.7468 39.6027 15.486 39.5712C15.2251 39.5398 14.9824 39.4213 14.7966 39.2348L11.0522 35.4707C10.8665 35.2843 10.7485 35.0407 10.7173 34.7789C10.6861 34.5172 10.7434 34.2525 10.8801 34.0273L12.3807 31.5476C12.035 30.8672 11.7434 30.1603 11.5088 29.4336L8.69908 28.749C8.44385 28.6864 8.21693 28.5396 8.05462 28.3323C7.89231 28.1249 7.80399 27.8688 7.8038 27.6051V22.2866C7.80395 22.023 7.89227 21.7671 8.0546 21.5598C8.21694 21.3526 8.44389 21.2061 8.69908 21.1438L11.5088 20.4586C11.7433 19.7321 12.0349 19.0254 12.3807 18.3452L10.8773 15.866C10.7406 15.6408 10.6832 15.376 10.7145 15.1142C10.7457 14.8523 10.8637 14.6086 11.0495 14.4221L14.7966 10.6602C14.9826 10.474 15.2254 10.3558 15.4862 10.3245C15.747 10.2933 16.0107 10.3508 16.2351 10.4879L18.7038 11.997C19.3818 11.6499 20.0862 11.3572 20.8103 11.1218L21.4935 8.30034C21.5553 8.04419 21.7012 7.81633 21.9075 7.65336C22.1139 7.49038 22.3688 7.40174 22.6314 7.40167H27.9315C28.1941 7.40172 28.4491 7.49034 28.6556 7.6533C28.8621 7.81627 29.008 8.04414 29.07 8.30034L29.7531 11.1207C30.477 11.3562 31.1812 11.6489 31.8591 11.9959L34.3284 10.4868C34.5526 10.3497 34.8162 10.2921 35.077 10.3233C35.3377 10.3546 35.5805 10.4728 35.7663 10.6591L39.514 14.421C39.6998 14.6075 39.8177 14.8513 39.8488 15.1131C39.88 15.375 39.8225 15.6398 39.6856 15.8649L38.1827 18.3452C38.5283 19.0255 38.8199 19.7322 39.0547 20.4586L41.8638 21.1438C42.1189 21.2061 42.3458 21.3526 42.5081 21.5599C42.6703 21.7671 42.7585 22.023 42.7585 22.2866V27.6067C42.7585 27.8704 42.6703 28.1265 42.5081 28.3339C42.3458 28.5413 42.119 28.6881 41.8638 28.7507L39.0547 29.4353ZM46.4152 11.618C50.0313 16.751 51.5956 23.0599 50.7985 29.2956C50.0013 35.5313 46.9008 41.2393 42.1106 45.2896C37.3205 49.3398 31.19 51.4371 24.9327 51.1662C18.6754 50.8954 12.7475 48.2761 8.32253 43.8269C8.10982 43.6134 7.90155 43.3943 7.6955 43.1724L7.64274 44.9798C7.63365 45.2855 7.50635 45.5756 7.28782 45.7887C7.06928 46.0019 6.77668 46.1212 6.47199 46.1215C6.46033 46.1215 6.44922 46.1215 6.437 46.1215C6.28321 46.117 6.13181 46.0822 5.99146 46.0189C5.85111 45.9556 5.72457 45.8652 5.61908 45.7528C5.51359 45.6404 5.43122 45.5082 5.37668 45.3638C5.32214 45.2193 5.2965 45.0656 5.30124 44.9112L5.46064 39.4478C5.46626 39.2766 5.50901 39.1088 5.58592 38.9559C5.66282 38.803 5.77202 38.6688 5.90591 38.5626C6.0398 38.4565 6.19514 38.3809 6.36111 38.3412C6.52708 38.3015 6.69968 38.2987 6.86687 38.3328L12.1986 39.4244C12.4998 39.4899 12.7631 39.6719 12.9316 39.931C13.1001 40.19 13.1601 40.5053 13.0987 40.8085C13.0373 41.1116 12.8594 41.3783 12.6034 41.5507C12.3475 41.7231 12.0343 41.7874 11.7315 41.7296L9.05286 41.1782C9.35277 41.5155 9.661 41.8472 9.97868 42.1639C13.99 46.1907 19.3607 48.5599 25.0286 48.8032C30.6965 49.0464 36.2489 47.1458 40.588 43.4774C44.9271 39.8089 47.7369 34.6397 48.4617 28.9918C49.1865 23.3439 47.7736 17.6285 44.5024 12.976C44.323 12.7214 44.2517 12.4057 44.3042 12.0983C44.3567 11.7909 44.5287 11.5171 44.7823 11.337C45.036 11.1569 45.3505 11.0853 45.6567 11.138C45.9629 11.1907 46.2358 11.3633 46.4152 11.618ZM4.91636 34.4232C4.97825 34.5679 5.01053 34.7237 5.01129 34.8813C5.01205 35.0388 4.98127 35.1949 4.92078 35.3403C4.8603 35.4857 4.77133 35.6174 4.65917 35.7276C4.54701 35.8378 4.41394 35.9243 4.26785 35.9818C4.12176 36.0394 3.96563 36.067 3.80874 36.0629C3.65184 36.0587 3.49736 36.023 3.35448 35.9578C3.2116 35.8926 3.08322 35.7993 2.97697 35.6833C2.87071 35.5674 2.78874 35.4312 2.73593 35.2828C0.79379 30.3279 0.472056 24.8814 1.81725 19.7309C3.16245 14.5803 6.10485 9.99279 10.2189 6.63167C14.333 3.27056 19.4055 1.3101 24.7028 1.03382C30.0002 0.757534 35.2478 2.17975 39.6867 5.09478L39.3213 3.29186C39.2663 2.98913 39.3317 2.67684 39.5035 2.42196C39.6752 2.16707 39.9396 1.98989 40.24 1.92841C40.5404 1.86693 40.8528 1.92604 41.1102 2.09307C41.3677 2.2601 41.5497 2.52174 41.6172 2.8219L42.7091 8.20445C42.7433 8.37224 42.7406 8.54551 42.7012 8.71213C42.6617 8.87875 42.5864 9.0347 42.4806 9.16906C42.3748 9.30342 42.241 9.41294 42.0886 9.48995C41.9362 9.56696 41.7689 9.60961 41.5983 9.6149L36.1284 9.77769H36.0934C35.7827 9.78227 35.483 9.66279 35.2601 9.44554C35.0372 9.22829 34.9094 8.93105 34.9049 8.61923C34.9003 8.3074 35.0193 8.00652 35.2357 7.78279C35.4522 7.55905 35.7483 7.43078 36.0589 7.4262L38.822 7.34425C34.823 4.58818 30.0484 3.19321 25.2006 3.36458C20.3528 3.53595 15.6878 5.26461 11.8919 8.29622C8.09599 11.3278 5.36964 15.5023 4.11394 20.2056C2.85825 24.9088 3.13951 29.8924 4.91636 34.4232Z" fill="#703391"/>
<path fill-rule="evenodd" clip-rule="evenodd" d="M30.2074 24.947C30.2075 23.9689 29.9187 23.0128 29.3774 22.1995C28.8362 21.3862 28.0668 20.7523 27.1666 20.378C26.2664 20.0037 25.2759 19.9057 24.3202 20.0965C23.3646 20.2872 22.4868 20.7582 21.7978 21.4498C21.1088 22.1414 20.6396 23.0226 20.4495 23.9818C20.2595 24.9411 20.3571 25.9354 20.73 26.839C21.1029 27.7426 21.7344 28.5149 22.5446 29.0582C23.3548 29.6015 24.3074 29.8914 25.2817 29.8913C26.5877 29.89 27.8398 29.3687 28.7633 28.4417C29.6867 27.5147 30.2061 26.2579 30.2074 24.947ZM32.55 24.947C32.55 26.3901 32.1237 27.8008 31.325 29.0007C30.5262 30.2006 29.391 31.1358 28.0627 31.688C26.7345 32.2403 25.2729 32.3847 23.8629 32.1031C22.4528 31.8216 21.1577 31.1266 20.1411 30.1061C19.1246 29.0856 18.4323 27.7855 18.1519 26.3701C17.8715 24.9547 18.0155 23.4876 18.5658 22.1544C19.116 20.8211 20.0478 19.6816 21.2432 18.8799C22.4386 18.0783 23.8441 17.6504 25.2817 17.6505C27.2089 17.6525 29.0566 18.4218 30.4193 19.7898C31.7819 21.1577 32.5483 23.0125 32.55 24.947ZM40.4159 26.683L37.8473 27.3107C37.6434 27.3606 37.4565 27.4645 37.3063 27.6116C37.156 27.7587 37.0479 27.9436 36.9931 28.1469C36.7237 29.1452 36.3278 30.1047 35.8151 31.0018C35.711 31.1845 35.6575 31.3918 35.6602 31.6022C35.663 31.8126 35.7218 32.0184 35.8307 32.1982L37.2058 34.465L34.7621 36.9179L32.505 35.5381C32.3258 35.4287 32.1206 35.3695 31.9108 35.3666C31.701 35.3638 31.4942 35.4174 31.3121 35.522C30.4185 36.0366 29.4629 36.434 28.4685 36.7044C28.2659 36.7594 28.0817 36.868 27.9352 37.0188C27.7886 37.1696 27.6851 37.3571 27.6354 37.5618L27.0112 40.1385H23.5523L22.928 37.5601C22.8785 37.3554 22.775 37.1678 22.6284 37.0169C22.4819 36.8661 22.2976 36.7575 22.0949 36.7027C21.1006 36.4324 20.1449 36.035 19.2514 35.5203C19.0693 35.4158 18.8627 35.3621 18.653 35.3648C18.4433 35.3676 18.2382 35.4266 18.059 35.5359L15.8024 36.9162L13.3587 34.4633L14.7339 32.1965C14.8428 32.0168 14.9018 31.811 14.9046 31.6006C14.9074 31.3902 14.854 31.1828 14.75 31.0002C14.2369 30.1032 13.8408 29.1437 13.5715 28.1453C13.5166 27.9418 13.4084 27.7569 13.258 27.6098C13.1077 27.4627 12.9207 27.3588 12.7167 27.309L10.147 26.683V23.2104L12.7151 22.5843C12.9191 22.5347 13.1062 22.4309 13.2566 22.2838C13.4069 22.1366 13.5151 21.9516 13.5698 21.7481C13.8394 20.7496 14.2355 19.79 14.7483 18.8926C14.8524 18.71 14.9058 18.5026 14.9029 18.2922C14.9001 18.0818 14.8412 17.876 14.7322 17.6963L13.3571 15.4317L15.8008 12.9788L18.059 14.3591C18.2381 14.4686 18.4432 14.5278 18.653 14.5307C18.8627 14.5335 19.0693 14.4799 19.2514 14.3753C20.1452 13.8611 21.1008 13.4635 22.0949 13.1923C22.2976 13.1375 22.4819 13.029 22.6285 12.8782C22.7751 12.7273 22.8785 12.5397 22.928 12.3349L23.5523 9.7565H27.0112L27.6349 12.3349C27.6845 12.5396 27.7879 12.7272 27.9345 12.8781C28.0811 13.0289 28.2653 13.1374 28.468 13.1923C29.4621 13.4636 30.4176 13.8612 31.3115 14.3753C31.4936 14.48 31.7004 14.5338 31.9102 14.5309C32.12 14.5281 32.3253 14.4688 32.5045 14.3591L34.7616 12.9788L37.2053 15.4317L35.8301 17.6985C35.7213 17.8783 35.6624 18.0841 35.6597 18.2945C35.6569 18.5049 35.7104 18.7122 35.8146 18.8949C36.327 19.7921 36.7228 20.7516 36.9925 21.7498C37.0472 21.9532 37.1553 22.1382 37.3055 22.2853C37.4558 22.4324 37.6427 22.5363 37.8467 22.586L40.4154 23.2121V26.6847L40.4159 26.683ZM39.0547 29.4353C38.8197 30.1613 38.5282 30.8676 38.1827 31.5476L39.6856 34.0257C39.8225 34.2507 39.88 34.5154 39.8489 34.7772C39.8178 35.039 39.6998 35.2827 39.514 35.469L35.7668 39.2332C35.5812 39.4197 35.3385 39.5382 35.0778 39.5697C34.817 39.6011 34.5533 39.5437 34.3289 39.4066L31.8597 37.8963C31.1819 38.2436 30.4777 38.5363 29.7537 38.7716L29.0705 41.5919C29.0087 41.8482 28.8628 42.0762 28.6563 42.2392C28.4498 42.4022 28.1947 42.4907 27.932 42.4906H22.6314C22.3688 42.4906 22.1138 42.402 21.9074 42.239C21.701 42.076 21.5552 41.8481 21.4935 41.5919L20.8103 38.7716C20.0861 38.5364 19.3817 38.2437 18.7038 37.8963L16.2351 39.4082C16.0106 39.5453 15.7468 39.6027 15.486 39.5712C15.2251 39.5398 14.9824 39.4213 14.7966 39.2348L11.0522 35.4707C10.8665 35.2843 10.7485 35.0407 10.7173 34.7789C10.6861 34.5172 10.7434 34.2525 10.8801 34.0273L12.3807 31.5476C12.035 30.8672 11.7434 30.1603 11.5088 29.4336L8.69908 28.749C8.44385 28.6864 8.21693 28.5396 8.05462 28.3323C7.89231 28.1249 7.80399 27.8688 7.8038 27.6051V22.2866C7.80395 22.023 7.89227 21.7671 8.0546 21.5598C8.21694 21.3526 8.44389 21.2061 8.69908 21.1438L11.5088 20.4586C11.7433 19.7321 12.0349 19.0254 12.3807 18.3452L10.8773 15.866C10.7406 15.6408 10.6832 15.376 10.7145 15.1142C10.7457 14.8523 10.8637 14.6086 11.0495 14.4221L14.7966 10.6602C14.9826 10.474 15.2254 10.3558 15.4862 10.3245C15.747 10.2933 16.0107 10.3508 16.2351 10.4879L18.7038 11.997C19.3818 11.6499 20.0862 11.3572 20.8103 11.1218L21.4935 8.30034C21.5553 8.04419 21.7012 7.81633 21.9075 7.65336C22.1139 7.49038 22.3688 7.40174 22.6314 7.40167H27.9315C28.1941 7.40172 28.4491 7.49034 28.6556 7.6533C28.8621 7.81627 29.008 8.04414 29.07 8.30034L29.7531 11.1207C30.477 11.3562 31.1812 11.6489 31.8591 11.9959L34.3284 10.4868C34.5526 10.3497 34.8162 10.2921 35.077 10.3233C35.3377 10.3546 35.5805 10.4728 35.7663 10.6591L39.514 14.421C39.6998 14.6075 39.8177 14.8513 39.8488 15.1131C39.88 15.375 39.8225 15.6398 39.6856 15.8649L38.1827 18.3452C38.5283 19.0255 38.8199 19.7322 39.0547 20.4586L41.8638 21.1438C42.1189 21.2061 42.3458 21.3526 42.5081 21.5599C42.6703 21.7671 42.7585 22.023 42.7585 22.2866V27.6067C42.7585 27.8704 42.6703 28.1265 42.5081 28.3339C42.3458 28.5413 42.119 28.6881 41.8638 28.7507L39.0547 29.4353ZM46.4152 11.618C50.0313 16.751 51.5956 23.0599 50.7985 29.2956C50.0013 35.5313 46.9008 41.2393 42.1106 45.2896C37.3205 49.3398 31.19 51.4371 24.9327 51.1662C18.6754 50.8954 12.7475 48.2761 8.32253 43.8269C8.10982 43.6134 7.90155 43.3943 7.6955 43.1724L7.64274 44.9798C7.63365 45.2855 7.50635 45.5756 7.28782 45.7887C7.06928 46.0019 6.77668 46.1212 6.47199 46.1215C6.46033 46.1215 6.44922 46.1215 6.437 46.1215C6.28321 46.117 6.13181 46.0822 5.99146 46.0189C5.85111 45.9556 5.72457 45.8652 5.61908 45.7528C5.51359 45.6404 5.43122 45.5082 5.37668 45.3638C5.32214 45.2193 5.2965 45.0656 5.30124 44.9112L5.46064 39.4478C5.46626 39.2766 5.50901 39.1088 5.58592 38.9559C5.66282 38.803 5.77202 38.6688 5.90591 38.5626C6.0398 38.4565 6.19514 38.3809 6.36111 38.3412C6.52708 38.3015 6.69968 38.2987 6.86687 38.3328L12.1986 39.4244C12.4998 39.4899 12.7631 39.6719 12.9316 39.931C13.1001 40.19 13.1601 40.5053 13.0987 40.8085C13.0373 41.1116 12.8594 41.3783 12.6034 41.5507C12.3475 41.7231 12.0343 41.7874 11.7315 41.7296L9.05286 41.1782C9.35277 41.5155 9.661 41.8472 9.97868 42.1639C13.99 46.1907 19.3607 48.5599 25.0286 48.8032C30.6965 49.0464 36.2489 47.1458 40.588 43.4774C44.9271 39.8089 47.7369 34.6397 48.4617 28.9918C49.1865 23.3439 47.7736 17.6285 44.5024 12.976C44.323 12.7214 44.2517 12.4057 44.3042 12.0983C44.3567 11.7909 44.5287 11.5171 44.7823 11.337C45.036 11.1569 45.3505 11.0853 45.6567 11.138C45.9629 11.1907 46.2358 11.3633 46.4152 11.618ZM4.91636 34.4232C4.97825 34.5679 5.01053 34.7237 5.01129 34.8813C5.01205 35.0388 4.98127 35.1949 4.92078 35.3403C4.8603 35.4857 4.77133 35.6174 4.65917 35.7276C4.54701 35.8378 4.41394 35.9243 4.26785 35.9818C4.12176 36.0394 3.96563 36.067 3.80874 36.0629C3.65184 36.0587 3.49736 36.023 3.35448 35.9578C3.2116 35.8926 3.08322 35.7993 2.97697 35.6833C2.87071 35.5674 2.78874 35.4312 2.73593 35.2828C0.79379 30.3279 0.472056 24.8814 1.81725 19.7309C3.16245 14.5803 6.10485 9.99279 10.2189 6.63167C14.333 3.27056 19.4055 1.3101 24.7028 1.03382C30.0002 0.757534 35.2478 2.17975 39.6867 5.09478L39.3213 3.29186C39.2663 2.98913 39.3317 2.67684 39.5035 2.42196C39.6752 2.16707 39.9396 1.98989 40.24 1.92841C40.5404 1.86693 40.8528 1.92604 41.1102 2.09307C41.3677 2.2601 41.5497 2.52174 41.6172 2.8219L42.7091 8.20445C42.7433 8.37224 42.7406 8.54551 42.7012 8.71213C42.6617 8.87875 42.5864 9.0347 42.4806 9.16906C42.3748 9.30342 42.241 9.41294 42.0886 9.48995C41.9362 9.56696 41.7689 9.60961 41.5983 9.6149L36.1284 9.77769H36.0934C35.7827 9.78227 35.483 9.66279 35.2601 9.44554C35.0372 9.22829 34.9094 8.93105 34.9049 8.61923C34.9003 8.3074 35.0193 8.00652 35.2357 7.78279C35.4522 7.55905 35.7483 7.43078 36.0589 7.4262L38.822 7.34425C34.823 4.58818 30.0484 3.19321 25.2006 3.36458C20.3528 3.53595 15.6878 5.26461 11.8919 8.29622C8.09599 11.3278 5.36964 15.5023 4.11394 20.2056C2.85825 24.9088 3.13951 29.8924 4.91636 34.4232Z" stroke="#703391" mask="url(#path-1-outside-1_3229_37771)"/>
</svg>
