
<svg width="50" height="50" viewBox="0 0 50 50" fill="none" xmlns="http://www.w3.org/2000/svg">
<path d="M35.1436 10.5659C35.1037 10.4844 35.0637 10.4098 35.017 10.3351C34.9704 10.2604 34.9104 10.1925 34.8504 10.1382C34.7905 10.0704 34.7238 10.0161 34.6505 9.96855C34.5772 9.91425 34.4973 9.87352 34.4173 9.83958C34.3373 9.80565 34.2574 9.7785 34.1707 9.76492C33.9975 9.72419 33.8242 9.72419 33.651 9.76492C33.5643 9.7785 33.4777 9.80565 33.3978 9.83958C33.3178 9.87352 33.2445 9.91425 33.1712 9.96855C33.0979 10.0161 33.0313 10.0704 32.9646 10.1382C32.9046 10.1925 32.8513 10.2604 32.8047 10.3351C32.7514 10.4098 32.7114 10.4844 32.6781 10.5659C32.6448 10.6473 32.6181 10.7356 32.6048 10.8238C32.5848 10.912 32.5781 11.0071 32.5781 11.0953C32.5781 11.4551 32.7181 11.8012 32.9646 12.0524C33.2178 12.3103 33.551 12.4529 33.9109 12.4529C34.0841 12.4529 34.2574 12.4189 34.4173 12.351C34.5839 12.2832 34.7238 12.1813 34.8504 12.0524C34.9171 11.9913 34.9704 11.9234 35.017 11.8487C35.0703 11.7741 35.1103 11.6926 35.1436 11.6112C35.177 11.5365 35.2036 11.4483 35.2169 11.36C35.2369 11.2718 35.2436 11.1836 35.2436 11.0953C35.2436 11.0071 35.2369 10.9188 35.2169 10.8306C35.1969 10.7356 35.177 10.6473 35.1436 10.5659Z" fill="#703391"/>
<path d="M30.2932 10.5659C30.2599 10.4844 30.2199 10.4098 30.1733 10.3351C30.1266 10.2604 30.0667 10.1925 30.0067 10.1382C29.9467 10.0704 29.8801 10.0161 29.8068 9.96855C29.7335 9.91425 29.6535 9.87352 29.5735 9.83958C29.4936 9.80565 29.407 9.7785 29.327 9.76492C29.1537 9.72419 28.9738 9.72419 28.8072 9.76492C28.7206 9.7785 28.634 9.80565 28.554 9.83958C28.474 9.87352 28.3941 9.91425 28.3274 9.96855C28.2541 10.0161 28.1808 10.0704 28.1209 10.1382C27.8743 10.3826 27.7344 10.7356 27.7344 11.0953C27.7344 11.4551 27.8743 11.7944 28.1209 12.0524C28.2475 12.1813 28.3941 12.2832 28.554 12.351C28.7139 12.4189 28.8872 12.4529 29.0671 12.4529C29.4203 12.4529 29.7535 12.3103 30.0067 12.0524C30.2599 11.8012 30.3998 11.4551 30.3998 11.0953C30.3998 11.0071 30.3865 10.9188 30.3732 10.8306C30.3532 10.7356 30.3265 10.6473 30.2932 10.5659Z" fill="#703391"/>
<path d="M25.4483 10.5659C25.415 10.4844 25.375 10.4098 25.3284 10.3351C25.2751 10.2604 25.2218 10.1925 25.1618 10.1382C25.1018 10.0704 25.0285 10.0161 24.9552 9.96855C24.8886 9.91425 24.8086 9.87352 24.7286 9.83958C24.6487 9.80565 24.5621 9.7785 24.4754 9.76492C24.3088 9.72419 24.1289 9.72419 23.9557 9.76492C23.8757 9.7785 23.7891 9.80565 23.7091 9.83958C23.6291 9.87352 23.5492 9.91425 23.4759 9.96855C23.4026 10.0161 23.3359 10.0704 23.276 10.1382C23.0294 10.3826 22.8828 10.7356 22.8828 11.0953C22.8828 11.4551 23.0227 11.7944 23.276 12.0524C23.3359 12.1203 23.4092 12.1746 23.4759 12.2221C23.5492 12.2764 23.6291 12.3171 23.7091 12.351C23.7891 12.385 23.869 12.4121 23.9557 12.4257C24.0423 12.4461 24.1289 12.4529 24.2155 12.4529C24.3955 12.4529 24.5687 12.4189 24.7286 12.351C24.8886 12.2832 25.0352 12.1813 25.1618 12.0524C25.415 11.7944 25.5483 11.4551 25.5483 11.0953C25.5483 11.0071 25.5416 10.9188 25.5283 10.8306C25.5083 10.7356 25.4816 10.6473 25.4483 10.5659Z" fill="#703391"/>
<path d="M49.611 42.6786L44.1335 37.0991C45.4929 35.3954 46.3125 33.2233 46.3125 30.8544C46.3125 26.9175 44.0468 23.5237 40.7816 21.9218V15.5888V6.35754C40.7816 5.61089 40.1819 5 39.4489 5H1.33273C0.59973 5 0 5.61089 0 6.35754V15.5956V43.6357C0 44.3823 0.59973 44.9932 1.33273 44.9932H39.4489C40.1819 44.9932 40.7816 44.3823 40.7816 43.6357V39.787C41.2748 39.5495 41.7412 39.2712 42.181 38.9521L47.7252 44.5995C47.9851 44.8642 48.3249 45 48.6648 45C49.0046 45 49.3445 44.8642 49.6043 44.5995C50.1308 44.0633 50.1308 43.208 49.611 42.6786ZM2.66547 7.71509H38.1162V14.2381H2.66547V7.71509ZM38.1095 42.2781H2.66547V16.9532H38.1162V21.0801C37.6164 20.9986 37.1033 20.9443 36.5835 20.9443C31.9723 20.9443 28.1073 24.2296 27.1078 28.6212H26.3948L23.9559 22.2476C23.7493 21.7114 23.2495 21.338 22.6831 21.3855C22.1234 21.3991 21.6303 21.7724 21.4503 22.3155L18.4983 31.3295L16.1527 24.1549C15.9795 23.6323 15.5197 23.2725 14.9799 23.2318C14.4468 23.2047 13.9337 23.4897 13.6938 23.9784L11.4149 28.6212H7.18343C6.45043 28.6212 5.8507 29.2321 5.8507 29.9788C5.8507 30.7254 6.45043 31.3363 7.18343 31.3363H12.2412C12.7476 31.3363 13.2074 31.0445 13.434 30.5829L14.6467 28.119L17.2389 36.047C17.4188 36.6036 17.9319 36.9769 18.505 36.9769C19.0781 36.9769 19.5845 36.6036 19.7711 36.047L22.8164 26.7343L24.2491 30.4675C24.449 30.9902 24.9421 31.3295 25.4885 31.3295H26.8812C27.1278 36.5764 31.3792 40.7645 36.5902 40.7645C37.11 40.7645 37.6231 40.7102 38.1228 40.6287V42.2781H38.1095ZM38.1095 37.8797C37.6164 37.9883 37.1033 38.0562 36.5769 38.0562C32.8386 38.0562 29.7799 35.0831 29.5334 31.3363C29.52 31.1802 29.5067 31.0173 29.5067 30.8544C29.5067 30.0738 29.6333 29.3204 29.8599 28.6212C30.7861 25.7433 33.4449 23.6594 36.5769 23.6594C37.1033 23.6594 37.6164 23.7205 38.1095 23.8359C39.0891 24.0599 39.9953 24.4943 40.775 25.0848C42.5142 26.3949 43.6404 28.4923 43.6404 30.8612C43.6404 33.2301 42.5075 35.3275 40.775 36.6375C39.9953 37.2213 39.0957 37.6557 38.1095 37.8797Z" fill="#703391"/>
</svg>
