<svg width="52" height="52" viewBox="0 0 52 52" fill="none" xmlns="http://www.w3.org/2000/svg">
<path d="M47.1919 44.9655H36.3516C36.2196 44.9656 36.0899 44.9311 35.9754 44.8655C35.8609 44.8 35.7656 44.7056 35.699 44.5917C35.6324 44.4779 35.5968 44.3487 35.5958 44.2169C35.5949 44.0851 35.6285 43.9553 35.6933 43.8405C36.6468 42.1501 37.1404 40.2397 37.1249 38.2996C37.1094 36.3594 36.5854 34.4572 35.6051 32.7821C34.6247 31.107 33.2222 29.7176 31.537 28.7519C29.8519 27.7863 27.9429 27.2782 26 27.2782C24.0571 27.2782 22.1481 27.7863 20.463 28.7519C18.7778 29.7176 17.3753 31.107 16.3949 32.7821C15.4146 34.4572 14.8906 36.3594 14.8751 38.2996C14.8596 40.2397 15.3532 42.1501 16.3067 43.8405C16.3715 43.9553 16.4051 44.0851 16.4042 44.2169C16.4032 44.3487 16.3676 44.4779 16.301 44.5917C16.2344 44.7056 16.1391 44.8 16.0246 44.8655C15.9101 44.9311 15.7804 44.9656 15.6484 44.9655H4.80805C3.79835 44.9641 2.83042 44.5628 2.11655 43.8498C1.40268 43.1367 1.00114 42.17 1 41.1616V4.8028C1.00114 3.79459 1.40271 2.82799 2.11662 2.11508C2.83052 1.40216 3.79845 1.00114 4.80805 1H47.1919C48.2016 1.00114 49.1695 1.40216 49.8834 2.11508C50.5973 2.82799 50.9989 3.79459 51 4.8028V41.1584C50.9997 42.1673 50.5986 43.1348 49.8846 43.8486C49.1706 44.5624 48.2022 44.9641 47.1919 44.9655ZM37.572 43.4569H47.1919C47.8012 43.456 48.3852 43.2139 48.8158 42.7836C49.2465 42.3533 49.4887 41.77 49.4893 41.1616V4.8028C49.4887 4.19452 49.2465 3.61132 48.8158 3.1812C48.3851 2.75108 47.8011 2.50919 47.1919 2.50862H4.80805C4.19893 2.50919 3.61493 2.75108 3.18421 3.1812C2.7535 3.61132 2.51128 4.19452 2.5107 4.8028V41.1584C2.51042 41.7673 2.75223 42.3515 3.183 42.7825C3.61378 43.2135 4.19827 43.456 4.80805 43.4569H14.428C13.5846 41.5364 13.2337 39.4362 13.4072 37.3462C13.5808 35.2562 14.2732 33.2424 15.4218 31.4868C16.5705 29.7312 18.1392 28.2891 19.9861 27.291C21.8331 26.293 23.9 25.7703 26 25.7703C28.1 25.7703 30.1669 26.293 32.0139 27.291C33.8608 28.2891 35.4295 29.7312 36.5782 31.4868C37.7268 33.2424 38.4192 35.2562 38.5928 37.3462C38.7663 39.4362 38.4154 41.5364 37.572 43.4569Z" fill="#703391" stroke="#703391" stroke-width="0.6"/>
<path d="M45.3745 40.101H37.8415C37.737 40.1014 37.6336 40.08 37.5378 40.0384C37.442 39.9968 37.3559 39.9358 37.2849 39.8592C37.2139 39.7826 37.1596 39.6922 37.1254 39.5936C37.0912 39.495 37.0778 39.3904 37.0862 39.2864C37.111 38.9846 37.1229 38.6808 37.1229 38.3844C37.1229 35.4379 35.9507 32.612 33.8644 30.5285C31.778 28.445 28.9482 27.2745 25.9976 27.2745C23.047 27.2745 20.2173 28.445 18.1309 30.5285C16.0445 32.612 14.8723 35.4379 14.8723 38.3844C14.8723 38.6808 14.8842 38.9846 14.909 39.2864C14.9174 39.3904 14.9041 39.495 14.8699 39.5936C14.8357 39.6922 14.7813 39.7826 14.7104 39.8592C14.6394 39.9358 14.5532 39.9968 14.4574 40.0384C14.3616 40.08 14.2582 40.1014 14.1537 40.101H6.62498C6.42465 40.101 6.23252 40.0216 6.09087 39.8801C5.94921 39.7386 5.86963 39.5468 5.86963 39.3467V6.6215C5.86963 6.42144 5.94921 6.22958 6.09087 6.08812C6.23252 5.94666 6.42465 5.86719 6.62498 5.86719H45.3745C45.5749 5.86719 45.767 5.94666 45.9087 6.08812C46.0503 6.22958 46.1299 6.42144 46.1299 6.6215V39.3467C46.1299 39.5468 46.0503 39.7386 45.9087 39.8801C45.767 40.0216 45.5749 40.101 45.3745 40.101ZM38.6347 38.5924H44.6192V7.37581H7.38033V38.5924H13.366C13.366 38.5224 13.366 38.4534 13.366 38.3844C13.366 35.0378 14.6972 31.8282 17.0669 29.4618C19.4367 27.0953 22.6507 25.7659 26.0019 25.7659C29.3532 25.7659 32.5672 27.0953 34.9369 29.4618C37.3066 31.8282 38.6379 35.0378 38.6379 38.3844C38.6357 38.4534 38.6357 38.5224 38.6347 38.5924Z" fill="#703391" stroke="#703391" stroke-width="0.6"/>
<path d="M45.3745 14.3641H6.62498C6.42465 14.3641 6.23252 14.2846 6.09087 14.1432C5.94921 14.0017 5.86963 13.8098 5.86963 13.6098C5.86963 13.4097 5.94921 13.2179 6.09087 13.0764C6.23252 12.9349 6.42465 12.8555 6.62498 12.8555H45.3745C45.5749 12.8555 45.767 12.9349 45.9087 13.0764C46.0503 13.2179 46.1299 13.4097 46.1299 13.6098C46.1299 13.8098 46.0503 14.0017 45.9087 14.1432C45.767 14.2846 45.5749 14.3641 45.3745 14.3641Z" fill="#703391" stroke="#703391" stroke-width="0.6"/>
<path d="M13.3993 10.868H10.0542C9.85385 10.868 9.66172 10.7885 9.52007 10.6471C9.37841 10.5056 9.29883 10.3137 9.29883 10.1137C9.29883 9.91363 9.37841 9.72177 9.52007 9.58031C9.66172 9.43885 9.85385 9.35938 10.0542 9.35938H13.3993C13.5996 9.35938 13.7918 9.43885 13.9334 9.58031C14.0751 9.72177 14.1547 9.91363 14.1547 10.1137C14.1547 10.3137 14.0751 10.5056 13.9334 10.6471C13.7918 10.7885 13.5996 10.868 13.3993 10.868Z" fill="#703391" stroke="#703391" stroke-width="0.6"/>
<path d="M20.2323 10.868H16.8872C16.6869 10.868 16.4947 10.7885 16.3531 10.6471C16.2114 10.5056 16.1318 10.3137 16.1318 10.1137C16.1318 9.91363 16.2114 9.72177 16.3531 9.58031C16.4947 9.43885 16.6869 9.35938 16.8872 9.35938H20.2323C20.4327 9.35938 20.6248 9.43885 20.7664 9.58031C20.9081 9.72177 20.9877 9.91363 20.9877 10.1137C20.9877 10.3137 20.9081 10.5056 20.7664 10.6471C20.6248 10.7885 20.4327 10.868 20.2323 10.868Z" fill="#703391" stroke="#703391" stroke-width="0.6"/>
<path d="M27.0634 10.868H23.7182C23.5179 10.868 23.3258 10.7885 23.1841 10.6471C23.0425 10.5056 22.9629 10.3137 22.9629 10.1137C22.9629 9.91363 23.0425 9.72177 23.1841 9.58031C23.3258 9.43885 23.5179 9.35938 23.7182 9.35938H27.0634C27.2637 9.35938 27.4558 9.43885 27.5975 9.58031C27.7391 9.72177 27.8187 9.91363 27.8187 10.1137C27.8187 10.3137 27.7391 10.5056 27.5975 10.6471C27.4558 10.7885 27.2637 10.868 27.0634 10.868Z" fill="#703391" stroke="#703391" stroke-width="0.6"/>
<path d="M26.0002 51.0027C23.5011 51.0027 21.058 50.2626 18.9801 48.8761C16.9021 47.4896 15.2825 45.5188 14.3261 43.2131C13.3697 40.9073 13.1195 38.3702 13.6071 35.9224C14.0946 33.4747 15.2981 31.2262 17.0653 29.4615C18.8324 27.6968 21.0839 26.495 23.5351 26.0081C25.9862 25.5212 28.5269 25.7711 30.8358 26.7262C33.1447 27.6812 35.1182 29.2986 36.5066 31.3737C37.8951 33.4488 38.6362 35.8885 38.6362 38.3842C38.6325 41.7297 37.3 44.9371 34.9311 47.3027C32.5622 49.6684 29.3504 50.999 26.0002 51.0027ZM26.0002 27.2742C23.7999 27.2742 21.6489 27.9258 19.8194 29.1466C17.9898 30.3674 16.5639 32.1025 15.7218 34.1326C14.8798 36.1627 14.6595 38.3965 15.0887 40.5516C15.518 42.7067 16.5776 44.6863 18.1335 46.2401C19.6894 47.7938 21.6717 48.8519 23.8298 49.2806C25.9879 49.7093 28.2248 49.4893 30.2577 48.6484C32.2906 47.8075 34.0281 46.3835 35.2505 44.5565C36.473 42.7295 37.1255 40.5815 37.1255 38.3842C37.1221 35.4387 35.9488 32.6148 33.8632 30.5321C31.7775 28.4493 28.9498 27.2777 26.0002 27.2742Z" fill="#703391" stroke="#703391" stroke-width="0.6"/>
<path d="M27.6346 47.3392H24.365C24.1647 47.3392 23.9726 47.2597 23.8309 47.1182C23.6893 46.9768 23.6097 46.7849 23.6097 46.5849V45.0999C23.3809 45.0181 23.1554 44.9243 22.9353 44.8198L21.8832 45.8704C21.813 45.9405 21.7297 45.996 21.6381 46.034C21.5464 46.0719 21.4482 46.0914 21.349 46.0914C21.2498 46.0914 21.1516 46.0719 21.0599 46.034C20.9683 45.996 20.885 45.9405 20.8149 45.8704L18.5035 43.5676C18.4333 43.4976 18.3777 43.4144 18.3397 43.3229C18.3018 43.2314 18.2822 43.1333 18.2822 43.0342C18.2822 42.9352 18.3018 42.8371 18.3397 42.7455C18.3777 42.654 18.4333 42.5709 18.5035 42.5008L19.5556 41.4502C19.4477 41.2346 19.357 41.0051 19.275 40.7767H17.7881C17.5877 40.7767 17.3956 40.6972 17.254 40.5557C17.1123 40.4143 17.0327 40.2224 17.0327 40.0224V36.7573C17.0327 36.5572 17.1123 36.3654 17.254 36.2239C17.3956 36.0824 17.5877 36.003 17.7881 36.003H19.275C19.3568 35.7738 19.4505 35.549 19.5556 35.3295L18.5035 34.2788C18.4333 34.2088 18.3777 34.1256 18.3397 34.0341C18.3018 33.9426 18.2822 33.8445 18.2822 33.7454C18.2822 33.6464 18.3018 33.5483 18.3397 33.4567C18.3777 33.3652 18.4333 33.2821 18.5035 33.212L20.8203 30.8984C20.8904 30.8284 20.9737 30.7728 21.0653 30.7349C21.157 30.697 21.2552 30.6775 21.3544 30.6775C21.4536 30.6775 21.5518 30.697 21.6435 30.7349C21.7351 30.7728 21.8184 30.8284 21.8886 30.8984L22.9406 31.9491C23.1565 31.8413 23.3863 31.7508 23.6151 31.6689V30.184C23.6151 29.9839 23.6947 29.7921 23.8363 29.6506C23.978 29.5092 24.1701 29.4297 24.3704 29.4297H27.64C27.8404 29.4297 28.0325 29.5092 28.1741 29.6506C28.3158 29.7921 28.3954 29.9839 28.3954 30.184V31.6689C28.6241 31.7508 28.8497 31.8446 29.0698 31.9491L30.1219 30.8984C30.1927 30.8278 30.2768 30.7718 30.3695 30.7339C30.4621 30.696 30.5613 30.6768 30.6614 30.6775C30.7606 30.6775 30.8588 30.697 30.9505 30.7349C31.0421 30.7728 31.1254 30.8284 31.1956 30.8984L33.5069 33.2066C33.5771 33.2767 33.6327 33.3598 33.6707 33.4514C33.7087 33.5429 33.7282 33.641 33.7282 33.74C33.7282 33.8391 33.7087 33.9372 33.6707 34.0287C33.6327 34.1202 33.5771 34.2034 33.5069 34.2734L32.4549 35.3241C32.5628 35.5396 32.6534 35.7691 32.7354 35.9976H34.2116C34.4119 35.9976 34.604 36.077 34.7457 36.2185C34.8874 36.36 34.9669 36.5518 34.9669 36.7519V40.017C34.9669 40.217 34.8874 40.4089 34.7457 40.5504C34.604 40.6918 34.4119 40.7713 34.2116 40.7713H32.7246C32.6428 41.0005 32.5492 41.2253 32.4441 41.4448L33.4962 42.4954C33.5663 42.5655 33.622 42.6486 33.6599 42.7401C33.6979 42.8317 33.7174 42.9298 33.7174 43.0288C33.7174 43.1279 33.6979 43.226 33.6599 43.3175C33.622 43.409 33.5663 43.4922 33.4962 43.5622L31.1848 45.8704C31.1146 45.9405 31.0314 45.996 30.9397 46.034C30.8481 46.0719 30.7498 46.0914 30.6506 46.0914C30.5514 46.0914 30.4532 46.0719 30.3616 46.034C30.2699 45.996 30.1866 45.9405 30.1165 45.8704L29.0644 44.8198C28.8446 44.9244 28.6195 45.0175 28.39 45.0989V46.5849C28.39 46.7849 28.3104 46.9768 28.1687 47.1182C28.0271 47.2597 27.835 47.3392 27.6346 47.3392ZM25.1204 45.8306H26.8793V44.5439C26.8792 44.3774 26.9343 44.2155 27.036 44.0836C27.1377 43.9516 27.2803 43.857 27.4415 43.8144C27.9263 43.6877 28.3917 43.496 28.8248 43.2443C28.9689 43.1606 29.1367 43.1268 29.302 43.1483C29.4674 43.1697 29.6209 43.2452 29.7388 43.3629L30.6506 44.2734L31.8937 43.0288L30.983 42.1183C30.8651 42.0005 30.7896 41.8472 30.7681 41.6821C30.7466 41.517 30.7804 41.3494 30.8643 41.2056C31.1166 40.7729 31.3094 40.3082 31.4373 39.8241C31.4799 39.6631 31.5747 39.5207 31.7068 39.4192C31.839 39.3176 32.0011 39.2626 32.1678 39.2627H33.4562V37.5062H32.1678C32.0011 37.5063 31.839 37.4512 31.7068 37.3497C31.5747 37.2481 31.4799 37.1058 31.4373 36.9448C31.3095 36.4606 31.1168 35.9959 30.8643 35.5633C30.7803 35.4195 30.7463 35.2521 30.7676 35.087C30.7889 34.9219 30.8642 34.7685 30.9819 34.6506L31.8937 33.74L30.6506 32.4987L29.7388 33.4081C29.6209 33.5258 29.4674 33.6013 29.302 33.6227C29.1367 33.6442 28.9689 33.6104 28.8248 33.5267C28.3916 33.2747 27.9263 33.0822 27.4415 32.9545C27.2803 32.9119 27.1377 32.8172 27.036 32.6853C26.9343 32.5533 26.8792 32.3915 26.8793 32.2249V30.9383H25.1204V32.2249C25.1204 32.3915 25.0653 32.5533 24.9636 32.6853C24.8619 32.8172 24.7194 32.9119 24.5582 32.9545C24.0734 33.0822 23.6081 33.2747 23.1748 33.5267C23.0307 33.6104 22.8629 33.6442 22.6976 33.6227C22.5323 33.6013 22.3787 33.5258 22.2608 33.4081L21.349 32.4987L20.1059 33.74L21.0177 34.6506C21.1354 34.7685 21.2108 34.9219 21.2321 35.087C21.2533 35.2521 21.2193 35.4195 21.1354 35.5633C20.8832 35.9961 20.6905 36.4607 20.5624 36.9448C20.5197 37.1058 20.4249 37.2481 20.2928 37.3497C20.1607 37.4512 19.9986 37.5063 19.8318 37.5062H18.5434V39.2627H19.8318C19.9986 39.2626 20.1607 39.3176 20.2928 39.4192C20.4249 39.5207 20.5197 39.6631 20.5624 39.8241C20.6903 40.3082 20.883 40.7729 21.1354 41.2056C21.2192 41.3494 21.253 41.517 21.2316 41.6821C21.2101 41.8472 21.1345 42.0005 21.0167 42.1183L20.1059 43.0288L21.349 44.2702L22.2608 43.3596C22.3789 43.2421 22.5325 43.1669 22.6978 43.1456C22.8631 43.1244 23.0308 43.1583 23.1748 43.2422C23.6081 43.4942 24.0734 43.6866 24.5582 43.8144C24.7194 43.857 24.8619 43.9516 24.9636 44.0836C25.0653 44.2155 25.1204 44.3774 25.1204 44.5439V45.8306Z" fill="#703391" stroke="#703391" stroke-width="0.6"/>
<path d="M26.0003 41.7706C25.3287 41.7706 24.6722 41.5717 24.1137 41.1991C23.5553 40.8265 23.12 40.2968 22.863 39.6772C22.606 39.0575 22.5387 38.3757 22.6697 37.7179C22.8008 37.06 23.1242 36.4558 23.5991 35.9815C24.074 35.5073 24.6791 35.1843 25.3378 35.0534C25.9966 34.9226 26.6794 34.9897 27.2999 35.2464C27.9204 35.5031 28.4507 35.9377 28.8239 36.4954C29.197 37.0531 29.3962 37.7087 29.3962 38.3794C29.395 39.2785 29.0369 40.1404 28.4003 40.7761C27.7637 41.4118 26.9006 41.7695 26.0003 41.7706ZM26.0003 36.4969C25.6275 36.4969 25.263 36.6073 24.953 36.8142C24.643 37.021 24.4014 37.315 24.2587 37.659C24.116 38.003 24.0787 38.3815 24.1514 38.7467C24.2242 39.1119 24.4037 39.4473 24.6673 39.7106C24.931 39.9739 25.2669 40.1532 25.6326 40.2258C25.9982 40.2985 26.3773 40.2612 26.7218 40.1187C27.0662 39.9762 27.3606 39.7349 27.5678 39.4253C27.7749 39.1157 27.8855 38.7518 27.8855 38.3794C27.8849 37.8803 27.6861 37.4018 27.3327 37.0489C26.9793 36.696 26.5001 36.4975 26.0003 36.4969Z" fill="#703391" stroke="#703391" stroke-width="0.6"/>
<path d="M12.7114 24.8949C12.5111 24.8949 12.3189 24.8155 12.1773 24.674C12.0356 24.5325 11.9561 24.3407 11.9561 24.1406V19.9445C11.9561 19.7444 12.0356 19.5526 12.1773 19.4111C12.3189 19.2697 12.5111 19.1902 12.7114 19.1902C12.9117 19.1902 13.1039 19.2697 13.2455 19.4111C13.3872 19.5526 13.4668 19.7444 13.4668 19.9445V24.1406C13.4668 24.3407 13.3872 24.5325 13.2455 24.674C13.1039 24.8155 12.9117 24.8949 12.7114 24.8949ZM12.7114 17.9283C12.5111 17.9283 12.3189 17.8489 12.1773 17.7074C12.0356 17.5659 11.9561 17.3741 11.9561 17.174V15.9887C11.9561 15.7886 12.0356 15.5968 12.1773 15.4553C12.3189 15.3138 12.5111 15.2344 12.7114 15.2344C12.9117 15.2344 13.1039 15.3138 13.2455 15.4553C13.3872 15.5968 13.4668 15.7886 13.4668 15.9887V17.174C13.4668 17.3741 13.3872 17.5659 13.2455 17.7074C13.1039 17.8489 12.9117 17.9283 12.7114 17.9283Z" fill="#703391" stroke="#703391" stroke-width="0.6"/>
<path d="M12.8142 20.6937H12.6081C12.0482 20.6811 11.5155 20.4502 11.124 20.0503C10.7324 19.6505 10.5132 19.1134 10.5132 18.5541C10.5132 17.9949 10.7324 17.4578 11.124 17.058C11.5155 16.6581 12.0482 16.4272 12.6081 16.4146H12.8142C13.0996 16.4082 13.3835 16.4588 13.649 16.5635C13.9145 16.6681 14.1565 16.8247 14.3606 17.024C14.5647 17.2233 14.7269 17.4613 14.8376 17.7241C14.9483 17.9869 15.0054 18.2691 15.0054 18.5541C15.0054 18.8392 14.9483 19.1214 14.8376 19.3842C14.7269 19.647 14.5647 19.885 14.3606 20.0843C14.1565 20.2836 13.9145 20.4402 13.649 20.5448C13.3835 20.6495 13.0996 20.7001 12.8142 20.6937ZM12.6081 17.9232C12.4451 17.93 12.291 17.9994 12.178 18.117C12.065 18.2345 12.0019 18.3912 12.0019 18.5541C12.0019 18.7171 12.065 18.8738 12.178 18.9913C12.291 19.1089 12.4451 19.1783 12.6081 19.1851H12.8142C12.8994 19.1886 12.9844 19.1749 13.0641 19.1448C13.1439 19.1146 13.2167 19.0687 13.2782 19.0098C13.3397 18.9509 13.3886 18.8801 13.422 18.8018C13.4555 18.7235 13.4727 18.6393 13.4727 18.5541C13.4727 18.469 13.4555 18.3848 13.422 18.3065C13.3886 18.2282 13.3397 18.1574 13.2782 18.0985C13.2167 18.0396 13.1439 17.9937 13.0641 17.9635C12.9844 17.9334 12.8994 17.9197 12.8142 17.9232H12.6081Z" fill="#703391" stroke="#703391" stroke-width="0.6"/>
<path d="M19.4516 24.8917C19.2513 24.8917 19.0592 24.8122 18.9175 24.6708C18.7759 24.5293 18.6963 24.3374 18.6963 24.1374V22.2074C18.6963 22.0074 18.7759 21.8155 18.9175 21.6741C19.0592 21.5326 19.2513 21.4531 19.4516 21.4531C19.652 21.4531 19.8441 21.5326 19.9858 21.6741C20.1274 21.8155 20.207 22.0074 20.207 22.2074V24.1374C20.207 24.3374 20.1274 24.5293 19.9858 24.6708C19.8441 24.8122 19.652 24.8917 19.4516 24.8917ZM19.4516 20.1913C19.2513 20.1913 19.0592 20.1118 18.9175 19.9703C18.7759 19.8289 18.6963 19.637 18.6963 19.437V15.9887C18.6963 15.7886 18.7759 15.5968 18.9175 15.4553C19.0592 15.3138 19.2513 15.2344 19.4516 15.2344C19.652 15.2344 19.8441 15.3138 19.9858 15.4553C20.1274 15.5968 20.207 15.7886 20.207 15.9887V19.437C20.207 19.637 20.1274 19.8289 19.9858 19.9703C19.8441 20.1118 19.652 20.1913 19.4516 20.1913Z" fill="#703391" stroke="#703391" stroke-width="0.6"/>
<path d="M19.5541 22.9627H19.3469C18.787 22.9501 18.2543 22.7192 17.8627 22.3193C17.4712 21.9195 17.252 21.3824 17.252 20.8231C17.252 20.2639 17.4712 19.7268 17.8627 19.3269C18.2543 18.9271 18.787 18.6961 19.3469 18.6836H19.5541C20.114 18.6961 20.6467 18.9271 21.0383 19.3269C21.4298 19.7268 21.649 20.2639 21.649 20.8231C21.649 21.3824 21.4298 21.9195 21.0383 22.3193C20.6467 22.7192 20.114 22.9501 19.5541 22.9627ZM19.3469 20.1922C19.1839 20.1989 19.0297 20.2684 18.9168 20.3859C18.8038 20.5035 18.7407 20.6602 18.7407 20.8231C18.7407 20.9861 18.8038 21.1428 18.9168 21.2603C19.0297 21.3779 19.1839 21.4473 19.3469 21.4541H19.5541C19.7171 21.4473 19.8713 21.3779 19.9842 21.2603C20.0972 21.1428 20.1603 20.9861 20.1603 20.8231C20.1603 20.6602 20.0972 20.5035 19.9842 20.3859C19.8713 20.2684 19.7171 20.1989 19.5541 20.1922H19.3469Z" fill="#703391" stroke="#703391" stroke-width="0.6"/>
<path d="M26.1919 24.8949C25.9915 24.8949 25.7994 24.8155 25.6578 24.674C25.5161 24.5325 25.4365 24.3407 25.4365 24.1406V23.0566C25.4365 22.8565 25.5161 22.6647 25.6578 22.5232C25.7994 22.3817 25.9915 22.3023 26.1919 22.3023C26.3922 22.3023 26.5843 22.3817 26.726 22.5232C26.8676 22.6647 26.9472 22.8565 26.9472 23.0566V24.1406C26.9472 24.3407 26.8676 24.5325 26.726 24.674C26.5843 24.8155 26.3922 24.8949 26.1919 24.8949ZM26.1919 21.0404C25.9915 21.0404 25.7994 20.9609 25.6578 20.8195C25.5161 20.678 25.4365 20.4862 25.4365 20.2861V15.9887C25.4365 15.7886 25.5161 15.5968 25.6578 15.4553C25.7994 15.3138 25.9915 15.2344 26.1919 15.2344C26.3922 15.2344 26.5843 15.3138 26.726 15.4553C26.8676 15.5968 26.9472 15.7886 26.9472 15.9887V20.2915C26.9472 20.4915 26.8676 20.6834 26.726 20.8249C26.5843 20.9663 26.3922 21.0458 26.1919 21.0458V21.0404Z" fill="#703391" stroke="#703391" stroke-width="0.6"/>
<path d="M26.2942 23.8109H26.0881C25.8027 23.8173 25.5189 23.7667 25.2533 23.662C24.9878 23.5574 24.7459 23.4008 24.5418 23.2015C24.3376 23.0022 24.1755 22.7642 24.0647 22.5014C23.954 22.2386 23.897 21.9564 23.897 21.6713C23.897 21.3863 23.954 21.104 24.0647 20.8413C24.1755 20.5785 24.3376 20.3405 24.5418 20.1412C24.7459 19.9419 24.9878 19.7853 25.2533 19.6807C25.5189 19.576 25.8027 19.5254 26.0881 19.5318H26.2942C26.5796 19.5254 26.8634 19.576 27.129 19.6807C27.3945 19.7853 27.6364 19.9419 27.8405 20.1412C28.0447 20.3405 28.2068 20.5785 28.3176 20.8413C28.4283 21.104 28.4853 21.3863 28.4853 21.6713C28.4853 21.9564 28.4283 22.2386 28.3176 22.5014C28.2068 22.7642 28.0447 23.0022 27.8405 23.2015C27.6364 23.4008 27.3945 23.5574 27.129 23.662C26.8634 23.7667 26.5796 23.8173 26.2942 23.8109ZM26.0881 21.0458C26.0029 21.0423 25.9179 21.056 25.8382 21.0861C25.7585 21.1162 25.6857 21.1621 25.6242 21.2211C25.5627 21.28 25.5137 21.3508 25.4803 21.4291C25.4469 21.5074 25.4296 21.5916 25.4296 21.6767C25.4296 21.7618 25.4469 21.8461 25.4803 21.9244C25.5137 22.0027 25.5627 22.0734 25.6242 22.1324C25.6857 22.1913 25.7585 22.2372 25.8382 22.2673C25.9179 22.2975 26.0029 22.3112 26.0881 22.3077H26.2942C26.3794 22.3112 26.4644 22.2975 26.5441 22.2673C26.6238 22.2372 26.6966 22.1913 26.7581 22.1324C26.8196 22.0734 26.8686 22.0027 26.902 21.9244C26.9354 21.8461 26.9527 21.7618 26.9527 21.6767C26.9527 21.5916 26.9354 21.5074 26.902 21.4291C26.8686 21.3508 26.8196 21.28 26.7581 21.2211C26.6966 21.1621 26.6238 21.1162 26.5441 21.0861C26.4644 21.056 26.3794 21.0423 26.2942 21.0458H26.0881Z" fill="#703391" stroke="#703391" stroke-width="0.6"/>
<path d="M32.9316 24.8949C32.7313 24.8949 32.5392 24.8155 32.3975 24.674C32.2559 24.5325 32.1763 24.3407 32.1763 24.1406V20.5393C32.1763 20.4403 32.1958 20.3422 32.2338 20.2507C32.2717 20.1592 32.3274 20.076 32.3975 20.006C32.4676 19.9359 32.5509 19.8803 32.6426 19.8424C32.7342 19.8045 32.8324 19.785 32.9316 19.785C33.0308 19.785 33.129 19.8045 33.2207 19.8424C33.3123 19.8803 33.3956 19.9359 33.4657 20.006C33.5359 20.076 33.5915 20.1592 33.6295 20.2507C33.6674 20.3422 33.687 20.4403 33.687 20.5393V24.1406C33.687 24.3407 33.6074 24.5325 33.4657 24.674C33.3241 24.8155 33.132 24.8949 32.9316 24.8949ZM32.9316 18.5232C32.7313 18.5232 32.5392 18.4437 32.3975 18.3022C32.2559 18.1608 32.1763 17.9689 32.1763 17.7689V15.9887C32.1763 15.7886 32.2559 15.5968 32.3975 15.4553C32.5392 15.3138 32.7313 15.2344 32.9316 15.2344C33.132 15.2344 33.3241 15.3138 33.4657 15.4553C33.6074 15.5968 33.687 15.7886 33.687 15.9887V17.7689C33.687 17.9689 33.6074 18.1608 33.4657 18.3022C33.3241 18.4437 33.132 18.5232 32.9316 18.5232Z" fill="#703391" stroke="#703391" stroke-width="0.6"/>
<path d="M33.0354 21.2914H32.8293C32.5439 21.2977 32.2601 21.2471 31.9946 21.1425C31.729 21.0378 31.4871 20.8813 31.283 20.682C31.0789 20.4826 30.9167 20.2446 30.8059 19.9819C30.6952 19.7191 30.6382 19.4369 30.6382 19.1518C30.6382 18.8667 30.6952 18.5845 30.8059 18.3218C30.9167 18.059 31.0789 17.821 31.283 17.6217C31.4871 17.4223 31.729 17.2658 31.9946 17.1611C32.2601 17.0565 32.5439 17.0059 32.8293 17.0123H33.0354C33.5953 17.0248 34.1281 17.2557 34.5196 17.6556C34.9111 18.0555 35.1304 18.5925 35.1304 19.1518C35.1304 19.7111 34.9111 20.2481 34.5196 20.648C34.1281 21.0479 33.5953 21.2788 33.0354 21.2914ZM32.8293 18.5209C32.7441 18.5174 32.6591 18.5311 32.5794 18.5612C32.4997 18.5913 32.4269 18.6372 32.3654 18.6962C32.3039 18.7551 32.255 18.8258 32.2215 18.9041C32.1881 18.9824 32.1709 19.0667 32.1709 19.1518C32.1709 19.2369 32.1881 19.3212 32.2215 19.3995C32.255 19.4778 32.3039 19.5485 32.3654 19.6074C32.4269 19.6664 32.4997 19.7123 32.5794 19.7424C32.6591 19.7725 32.7441 19.7862 32.8293 19.7827H33.0354C33.1985 19.776 33.3526 19.7066 33.4656 19.589C33.5786 19.4714 33.6416 19.3148 33.6416 19.1518C33.6416 18.9888 33.5786 18.8322 33.4656 18.7146C33.3526 18.597 33.1985 18.5276 33.0354 18.5209H32.8293Z" fill="#703391" stroke="#703391" stroke-width="0.6"/>
<path d="M39.6728 24.8949C39.4725 24.8949 39.2804 24.8155 39.1387 24.674C38.9971 24.5325 38.9175 24.3407 38.9175 24.1406V22.3464C38.9175 22.1464 38.9971 21.9545 39.1387 21.8131C39.2804 21.6716 39.4725 21.5921 39.6728 21.5921C39.8732 21.5921 40.0653 21.6716 40.2069 21.8131C40.3486 21.9545 40.4282 22.1464 40.4282 22.3464V24.1406C40.4282 24.3407 40.3486 24.5325 40.2069 24.674C40.0653 24.8155 39.8732 24.8949 39.6728 24.8949ZM39.6728 20.3303C39.4725 20.3303 39.2804 20.2508 39.1387 20.1093C38.9971 19.9679 38.9175 19.776 38.9175 19.576V15.9887C38.9175 15.7886 38.9971 15.5968 39.1387 15.4553C39.2804 15.3138 39.4725 15.2344 39.6728 15.2344C39.8732 15.2344 40.0653 15.3138 40.2069 15.4553C40.3486 15.5968 40.4282 15.7886 40.4282 15.9887V19.576C40.4282 19.675 40.4086 19.7731 40.3707 19.8646C40.3327 19.9561 40.2771 20.0393 40.2069 20.1093C40.1368 20.1794 40.0535 20.235 39.9619 20.2729C39.8703 20.3108 39.772 20.3303 39.6728 20.3303Z" fill="#703391" stroke="#703391" stroke-width="0.6"/>
<path d="M39.7752 23.096H39.5691C39.2837 23.1024 38.9998 23.0518 38.7343 22.9472C38.4688 22.8425 38.2268 22.686 38.0227 22.4866C37.8186 22.2873 37.6564 22.0493 37.5457 21.7865C37.435 21.5238 37.3779 21.2416 37.3779 20.9565C37.3779 20.6714 37.435 20.3892 37.5457 20.1264C37.6564 19.8637 37.8186 19.6256 38.0227 19.4263C38.2268 19.227 38.4688 19.0705 38.7343 18.9658C38.9998 18.8612 39.2837 18.8105 39.5691 18.8169H39.7752C40.0606 18.8105 40.3444 18.8612 40.6099 18.9658C40.8755 19.0705 41.1174 19.227 41.3215 19.4263C41.5256 19.6256 41.6878 19.8637 41.7985 20.1264C41.9093 20.3892 41.9663 20.6714 41.9663 20.9565C41.9663 21.2416 41.9093 21.5238 41.7985 21.7865C41.6878 22.0493 41.5256 22.2873 41.3215 22.4866C41.1174 22.686 40.8755 22.8425 40.6099 22.9472C40.3444 23.0518 40.0606 23.1024 39.7752 23.096ZM39.5691 20.3256C39.4839 20.3221 39.3989 20.3358 39.3192 20.3659C39.2394 20.396 39.1666 20.4419 39.1051 20.5009C39.0436 20.5598 38.9947 20.6305 38.9613 20.7088C38.9278 20.7871 38.9106 20.8714 38.9106 20.9565C38.9106 21.0416 38.9278 21.1259 38.9613 21.2042C38.9947 21.2825 39.0436 21.3532 39.1051 21.4121C39.1666 21.4711 39.2394 21.517 39.3192 21.5471C39.3989 21.5772 39.4839 21.5909 39.5691 21.5874H39.7752C39.8603 21.5909 39.9453 21.5772 40.025 21.5471C40.1048 21.517 40.1776 21.4711 40.2391 21.4121C40.3006 21.3532 40.3495 21.2825 40.3829 21.2042C40.4164 21.1259 40.4336 21.0416 40.4336 20.9565C40.4336 20.8714 40.4164 20.7871 40.3829 20.7088C40.3495 20.6305 40.3006 20.5598 40.2391 20.5009C40.1776 20.4419 40.1048 20.396 40.025 20.3659C39.9453 20.3358 39.8603 20.3221 39.7752 20.3256H39.5691Z" fill="#703391" stroke="#703391" stroke-width="0.6"/>
<path d="M11.0698 36.0004C10.8695 36.0004 10.6773 35.9209 10.5357 35.7795C10.394 35.638 10.3145 35.4461 10.3145 35.2461V31.05C10.3145 30.8499 10.394 30.6581 10.5357 30.5166C10.6773 30.3751 10.8695 30.2957 11.0698 30.2957C11.2701 30.2957 11.4623 30.3751 11.6039 30.5166C11.7456 30.6581 11.8252 30.8499 11.8252 31.05V35.2461C11.8252 35.4461 11.7456 35.638 11.6039 35.7795C11.4623 35.9209 11.2701 36.0004 11.0698 36.0004ZM11.0698 29.0338C10.8695 29.0338 10.6773 28.9543 10.5357 28.8129C10.394 28.6714 10.3145 28.4796 10.3145 28.2795V27.0942C10.3145 26.8941 10.394 26.7022 10.5357 26.5608C10.6773 26.4193 10.8695 26.3398 11.0698 26.3398C11.2701 26.3398 11.4623 26.4193 11.6039 26.5608C11.7456 26.7022 11.8252 26.8941 11.8252 27.0942V28.2795C11.8252 28.3786 11.8056 28.4766 11.7677 28.5682C11.7297 28.6597 11.6741 28.7428 11.6039 28.8129C11.5338 28.8829 11.4505 28.9385 11.3589 28.9764C11.2672 29.0143 11.169 29.0338 11.0698 29.0338Z" fill="#703391" stroke="#703391" stroke-width="0.6"/>
<path d="M11.1737 31.8064H10.9665C10.4066 31.7939 9.8739 31.563 9.48236 31.1631C9.09082 30.7632 8.87158 30.2262 8.87158 29.6669C8.87158 29.1076 9.09082 28.5706 9.48236 28.1707C9.8739 27.7708 10.4066 27.5399 10.9665 27.5273H11.1737C11.7336 27.5399 12.2664 27.7708 12.6579 28.1707C13.0494 28.5706 13.2687 29.1076 13.2687 29.6669C13.2687 30.2262 13.0494 30.7632 12.6579 31.1631C12.2664 31.563 11.7336 31.7939 11.1737 31.8064ZM10.9665 29.036C10.8035 29.0427 10.6494 29.1121 10.5364 29.2297C10.4234 29.3473 10.3603 29.5039 10.3603 29.6669C10.3603 29.8299 10.4234 29.9865 10.5364 30.1041C10.6494 30.2217 10.8035 30.2911 10.9665 30.2978H11.1737C11.3368 30.2911 11.4909 30.2217 11.6039 30.1041C11.7169 29.9865 11.7799 29.8299 11.7799 29.6669C11.7799 29.5039 11.7169 29.3473 11.6039 29.2297C11.4909 29.1121 11.3368 29.0427 11.1737 29.036H10.9665Z" fill="#703391" stroke="#703391" stroke-width="0.6"/>
<path d="M40.9297 36.0004C40.7293 36.0004 40.5372 35.9209 40.3956 35.7795C40.2539 35.638 40.1743 35.4461 40.1743 35.2461V31.05C40.1743 30.8499 40.2539 30.6581 40.3956 30.5166C40.5372 30.3751 40.7293 30.2957 40.9297 30.2957C41.13 30.2957 41.3221 30.3751 41.4638 30.5166C41.6054 30.6581 41.685 30.8499 41.685 31.05V35.2461C41.685 35.4461 41.6054 35.638 41.4638 35.7795C41.3221 35.9209 41.13 36.0004 40.9297 36.0004ZM40.9297 29.0338C40.7293 29.0338 40.5372 28.9543 40.3956 28.8129C40.2539 28.6714 40.1743 28.4796 40.1743 28.2795V27.0942C40.1743 26.8941 40.2539 26.7022 40.3956 26.5608C40.5372 26.4193 40.7293 26.3398 40.9297 26.3398C41.13 26.3398 41.3221 26.4193 41.4638 26.5608C41.6054 26.7022 41.685 26.8941 41.685 27.0942V28.2795C41.685 28.3786 41.6655 28.4766 41.6275 28.5682C41.5896 28.6597 41.5339 28.7428 41.4638 28.8129C41.3936 28.8829 41.3104 28.9385 41.2187 28.9764C41.1271 29.0143 41.0289 29.0338 40.9297 29.0338Z" fill="#703391" stroke="#703391" stroke-width="0.6"/>
<path d="M41.0336 31.8064H40.8264C40.2665 31.7939 39.7338 31.563 39.3422 31.1631C38.9507 30.7632 38.7314 30.2262 38.7314 29.6669C38.7314 29.1076 38.9507 28.5706 39.3422 28.1707C39.7338 27.7708 40.2665 27.5399 40.8264 27.5273H41.0336C41.5935 27.5399 42.1262 27.7708 42.5178 28.1707C42.9093 28.5706 43.1285 29.1076 43.1285 29.6669C43.1285 30.2262 42.9093 30.7632 42.5178 31.1631C42.1262 31.563 41.5935 31.7939 41.0336 31.8064ZM40.8264 29.036C40.6634 29.0427 40.5092 29.1121 40.3962 29.2297C40.2833 29.3473 40.2202 29.5039 40.2202 29.6669C40.2202 29.8299 40.2833 29.9865 40.3962 30.1041C40.5092 30.2217 40.6634 30.2911 40.8264 30.2978H41.0336C41.1966 30.2911 41.3508 30.2217 41.4637 30.1041C41.5767 29.9865 41.6398 29.8299 41.6398 29.6669C41.6398 29.5039 41.5767 29.3473 41.4637 29.2297C41.3508 29.1121 41.1966 29.0427 41.0336 29.036H40.8264Z" fill="#703391" stroke="#703391" stroke-width="0.6"/>
</svg>
