<svg width="52" height="52" viewBox="0 0 52 52" fill="none" xmlns="http://www.w3.org/2000/svg">
<path fill-rule="evenodd" clip-rule="evenodd" d="M18.9488 34.5902C18.7863 34.5902 18.6305 34.5299 18.5157 34.4225C18.4008 34.3151 18.3362 34.1694 18.3362 34.0175C18.3362 33.8656 18.4008 33.72 18.5157 33.6126C18.6305 33.5052 18.7863 33.4448 18.9488 33.4448H29.4264C29.5889 33.4448 29.7447 33.5052 29.8596 33.6126C29.9745 33.72 30.039 33.8656 30.039 34.0175C30.039 34.1694 29.9745 34.3151 29.8596 34.4225C29.7447 34.5299 29.5889 34.5902 29.4264 34.5902H18.9488ZM18.9488 15.4168C18.8668 15.4192 18.7851 15.4062 18.7086 15.3785C18.6321 15.3508 18.5623 15.309 18.5034 15.2556C18.4444 15.2022 18.3976 15.1383 18.3656 15.0677C18.3336 14.9971 18.3171 14.9211 18.3171 14.8444C18.3171 14.7677 18.3336 14.6918 18.3656 14.6211C18.3976 14.5505 18.4444 14.4866 18.5034 14.4332C18.5623 14.3798 18.6321 14.338 18.7086 14.3103C18.7851 14.2826 18.8668 14.2696 18.9488 14.272H29.4264C29.5085 14.2696 29.5901 14.2826 29.6667 14.3103C29.7432 14.338 29.813 14.3798 29.8719 14.4332C29.9308 14.4866 29.9777 14.5505 30.0096 14.6211C30.0416 14.6918 30.0581 14.7677 30.0581 14.8444C30.0581 14.9211 30.0416 14.9971 30.0096 15.0677C29.9777 15.1383 29.9308 15.2022 29.8719 15.2556C29.813 15.309 29.7432 15.3508 29.6667 15.3785C29.5901 15.4062 29.5085 15.4192 29.4264 15.4168H18.9488ZM35.4148 18.7445C34.3182 18.6788 33.223 18.8919 32.2455 19.3612C31.268 19.8305 30.4447 20.5385 29.8629 21.41C29.2812 22.2815 28.9627 23.284 28.9413 24.3112C28.9199 25.3383 29.1964 26.3516 29.7414 27.2437C29.8116 27.2881 29.8711 27.3457 29.9163 27.4127C29.9615 27.4798 29.9913 27.5549 30.0039 27.6333C30.5866 28.4293 31.3762 29.0736 32.2986 29.5058C33.221 29.938 34.2457 30.1439 35.2766 30.104C36.3074 30.064 37.3105 29.7797 38.1914 29.2777C39.0724 28.7757 39.8024 28.0725 40.3127 27.2341C40.823 26.3958 41.0969 25.45 41.1086 24.4855C41.1203 23.521 40.8695 22.5696 40.3797 21.7206C39.89 20.8717 39.1773 20.1531 38.3088 19.6325C37.4403 19.1119 36.4444 18.8063 35.4148 18.7445ZM30.1992 19.2933C31.3216 18.3715 32.7194 17.7939 34.2041 17.6383C35.6888 17.4828 37.1887 17.757 38.5015 18.4237C39.8142 19.0904 40.8766 20.1176 41.5451 21.3667C42.2136 22.6157 42.456 24.0264 42.2398 25.4084C42.0235 26.7904 41.3589 28.077 40.3356 29.0947C39.3124 30.1123 37.9798 30.8119 36.5178 31.0991C35.0557 31.3863 33.5346 31.2472 32.1599 30.7005C30.7851 30.1539 29.6228 29.2261 28.8299 28.0423C28.8186 28.0267 28.8079 28.0106 28.7984 27.9945C27.8987 26.622 27.546 24.9968 27.8024 23.405C28.0587 21.8133 28.9071 20.3572 30.1992 19.2933ZM42.7193 34.1383L47.8605 39.5987C48.0535 39.7955 48.3214 39.9137 48.6066 39.928C48.8917 39.9422 49.1715 39.8514 49.3859 39.6749C49.6003 39.4985 49.7321 39.2505 49.7531 38.9843C49.7741 38.718 49.6826 38.4546 49.4982 38.2507L44.3571 32.7903C44.2809 32.8729 44.1987 32.9504 44.1112 33.0224L42.992 33.943C42.9053 34.014 42.8136 34.0794 42.7175 34.1389L42.7193 34.1383ZM43.6647 31.6577C43.6689 31.6444 43.6736 31.6316 43.6784 31.6188C43.7075 31.5293 43.7254 31.4371 43.732 31.3438C43.7429 31.1874 43.7208 31.0305 43.6669 30.8821C43.6129 30.7337 43.5283 30.5967 43.4176 30.4789L43.2075 30.2563C42.7968 30.7586 42.3342 31.2219 41.8263 31.6394C41.3158 32.0603 40.762 32.4332 40.1731 32.7525L40.3845 32.9751C40.4952 33.0925 40.6296 33.1883 40.7799 33.2571C40.9303 33.3259 41.0937 33.3662 41.2608 33.3758C41.3631 33.3821 41.4658 33.3768 41.5668 33.3602L41.6025 33.3536C41.8192 33.3123 42.0206 33.2187 42.1865 33.082L43.301 32.162C43.4668 32.0257 43.5915 31.8513 43.6629 31.6561L43.6647 31.6577ZM27.5857 46.9386C27.5832 46.8619 27.5971 46.7855 27.6267 46.714C27.6563 46.6424 27.701 46.5772 27.7581 46.5221C27.8152 46.467 27.8836 46.4232 27.9592 46.3933C28.0347 46.3634 28.1159 46.348 28.198 46.348C28.2801 46.348 28.3613 46.3634 28.4368 46.3933C28.5124 46.4232 28.5807 46.467 28.6379 46.5221C28.695 46.5772 28.7397 46.6424 28.7693 46.714C28.7989 46.7855 28.8128 46.8619 28.8103 46.9386V47.1489C28.8128 47.2256 28.7989 47.302 28.7693 47.3735C28.7397 47.4451 28.695 47.5103 28.6379 47.5654C28.5807 47.6205 28.5124 47.6643 28.4368 47.6942C28.3613 47.7241 28.2801 47.7395 28.198 47.7395C28.1159 47.7395 28.0347 47.7241 27.9592 47.6942C27.8836 47.6643 27.8152 47.6205 27.7581 47.5654C27.701 47.5103 27.6563 47.4451 27.6267 47.3735C27.5971 47.302 27.5832 47.2256 27.5857 47.1489V46.9386ZM27.5857 40.6845C27.5907 40.5358 27.6574 40.3947 27.7716 40.2912C27.8859 40.1876 28.0388 40.1297 28.198 40.1297C28.3572 40.1297 28.5101 40.1876 28.6244 40.2912C28.7386 40.3947 28.8053 40.5358 28.8103 40.6845V45.0257C28.8128 45.1023 28.7989 45.1787 28.7693 45.2503C28.7397 45.3218 28.695 45.387 28.6379 45.4421C28.5807 45.4972 28.5124 45.541 28.4368 45.5709C28.3613 45.6008 28.2801 45.6162 28.198 45.6162C28.1159 45.6162 28.0347 45.6008 27.9592 45.5709C27.8836 45.541 27.8152 45.4972 27.7581 45.4421C27.701 45.387 27.6563 45.3218 27.6267 45.2503C27.5971 45.1787 27.5832 45.1023 27.5857 45.0257V40.6845ZM5.98811 41.5555L8.51524 43.9237V41.5555H5.98811ZM36.6626 46.3419C36.7247 46.1758 36.7563 46.0009 36.756 45.8249V33.9023C36.2001 33.9902 35.6374 34.0352 35.0736 34.037V43.7706L36.6626 46.343V46.3419ZM36.0976 47.7116C36.0873 47.6971 36.078 47.6821 36.0696 47.6665L32.79 42.3559L29.4133 36.8927C29.2239 36.5941 28.9175 36.3762 28.5591 36.2852C28.2007 36.1942 27.8185 36.2372 27.4934 36.4052C27.2811 36.5223 27.1055 36.6897 26.9844 36.8905L26.5838 37.54C26.5668 37.5727 26.5469 37.6039 26.5243 37.6335L23.6096 42.3548L20.2365 47.8168C20.1846 47.9009 20.1423 47.9899 20.1103 48.0823C20.105 48.1034 20.0984 48.1242 20.0906 48.1446C20.0599 48.2517 20.0442 48.3621 20.0442 48.473C20.0457 48.7035 20.112 48.9296 20.2365 49.1286C20.3571 49.3301 20.5325 49.4983 20.7449 49.6162C20.9601 49.7288 21.2032 49.7864 21.4498 49.7831H34.9445C35.1916 49.7856 35.4349 49.7266 35.6496 49.6122C35.8643 49.4978 36.0426 49.3321 36.1663 49.1321C36.29 48.9321 36.3546 48.705 36.3535 48.474C36.3524 48.2429 36.2857 48.0163 36.1601 47.8174L36.0946 47.7111L36.0976 47.7116ZM37.2549 16.206C38.6338 16.5332 39.911 17.1592 40.9833 18.0333C42.0555 18.9074 42.8927 20.0051 43.4271 21.2378C43.9615 22.4704 44.1782 23.8032 44.0596 25.1286C43.941 26.454 43.4904 27.7347 42.7443 28.8671L42.7265 28.8811C42.6357 28.956 42.5706 29.0544 42.5395 29.1638C42.1069 29.7613 41.5945 30.3048 41.0149 30.7812C40.4309 31.2622 39.7833 31.671 39.0879 31.9978C38.971 32.0138 38.8616 32.0612 38.773 32.1341L38.7628 32.1425C38.2738 32.3496 37.766 32.5154 37.2454 32.6378C37.2263 32.6414 37.2074 32.6458 37.1888 32.6512C35.0589 33.1387 32.8122 32.8888 30.8641 31.9475C28.9161 31.0062 27.3985 29.4373 26.5921 27.5309C26.5862 27.5153 26.5802 27.5002 26.5731 27.4858C26.1734 26.5212 25.9662 25.4964 25.9617 24.462C25.9617 24.452 25.9617 24.4414 25.9617 24.4308C25.9617 24.4203 25.9617 24.4086 25.9617 24.398C25.9617 24.226 25.9682 24.0535 25.9801 23.8821C26.1144 21.8788 27.0073 19.9856 28.4989 18.5419C28.5091 18.533 28.5186 18.5235 28.5281 18.5141C28.69 18.3582 28.8597 18.2074 29.0371 18.0616C30.1331 17.1591 31.4461 16.5176 32.8644 16.1915C34.2826 15.8654 35.7641 15.8645 37.1829 16.1888C37.2057 16.1953 37.229 16.2007 37.2525 16.2049L37.2549 16.206ZM14.6339 5.03426H12.286C12.2001 5.03168 12.116 5.05706 12.0479 5.10605C12.036 5.1133 12.0259 5.1227 12.018 5.13369C12.0101 5.14469 12.0047 5.15706 12.002 5.17006V9.34424C12.0047 9.35724 12.0101 9.36961 12.018 9.3806C12.0259 9.3916 12.036 9.401 12.0479 9.40824C12.1158 9.45749 12.2001 9.4829 12.286 9.48004H26.6838C26.7697 9.48275 26.8539 9.45736 26.9219 9.40824C26.9457 9.39343 26.9622 9.37041 26.9678 9.34424V5.16895C26.9622 5.14278 26.9457 5.11976 26.9219 5.10494C26.8538 5.05607 26.7697 5.03071 26.6838 5.03315H24.3359C24.1909 5.03293 24.0508 4.98457 23.9404 4.89669C23.8301 4.80882 23.7567 4.68715 23.7334 4.55339C23.6495 4.1939 23.4867 3.8546 23.2553 3.55695C23.0239 3.2593 22.729 3.00978 22.3892 2.82417C21.5119 2.33216 20.5082 2.07227 19.4852 2.07227C18.4622 2.07227 17.4585 2.33216 16.5812 2.82417C16.2473 3.00728 15.9565 3.25184 15.7266 3.54304C15.4967 3.83424 15.3323 4.16603 15.2435 4.51833C15.2285 4.6597 15.1578 4.79078 15.0451 4.88613C14.9324 4.98147 14.7859 5.03427 14.6339 5.03426ZM10.7763 8.01685V6.51414H3.88008C3.43944 6.51517 3.01716 6.67928 2.70557 6.97057C2.39399 7.26187 2.21846 7.65665 2.21736 8.06861V45.826C2.2183 46.2381 2.39376 46.633 2.70536 46.9244C3.01696 47.2158 3.43934 47.38 3.88008 47.381H19.1018C19.1262 47.3365 19.1512 47.2925 19.1786 47.2486L20.0228 45.8811H9.12425C9.03592 45.8812 8.94861 45.8634 8.86835 45.8289C8.78808 45.7944 8.71677 45.744 8.65931 45.6813L4.07892 41.3875C4.02233 41.3347 3.97743 41.2719 3.94678 41.2029C3.91614 41.1338 3.90035 41.0598 3.90032 40.9851V9.40156C3.9022 9.03524 4.05852 8.68438 4.33537 8.42514C4.61222 8.1659 4.98726 8.01919 5.3791 8.01685H10.7763ZM28.1935 9.16224V9.34312C28.192 9.52273 28.1481 9.6998 28.065 9.86171C27.9818 10.0236 27.8615 10.1664 27.7125 10.2798C27.4233 10.5035 27.0592 10.6252 26.6838 10.6238H12.286C11.9108 10.6254 11.5468 10.5036 11.2579 10.2798C11.1088 10.1664 10.9884 10.0237 10.9052 9.86176C10.8219 9.69985 10.7779 9.52276 10.7763 9.34312V9.16336H5.37791C5.34478 9.1632 5.31195 9.16916 5.2813 9.18091C5.25064 9.19266 5.22278 9.20996 5.19931 9.23181C5.17535 9.25425 5.15639 9.2809 5.14351 9.31022C5.13064 9.33955 5.12411 9.37097 5.1243 9.40268V40.4101H8.63669C8.92883 40.412 9.20837 40.5216 9.41467 40.715C9.62097 40.9084 9.73738 41.17 9.73862 41.4431V44.734H20.73L22.5517 41.7843L24.9651 37.8761H18.9488C18.7863 37.8761 18.6305 37.8158 18.5157 37.7084C18.4008 37.601 18.3362 37.4553 18.3362 37.3034C18.3362 37.1516 18.4008 37.0059 18.5157 36.8985C18.6305 36.7911 18.7863 36.7307 18.9488 36.7307H25.6759L25.9272 36.3239C26.1554 35.9491 26.4854 35.6373 26.8838 35.4201C27.1825 35.2572 27.5128 35.1514 27.8556 35.1087C28.1983 35.066 28.5467 35.0873 28.8806 35.1713C29.2145 35.2553 29.5273 35.4004 29.8008 35.5981C30.0744 35.7959 30.3032 36.0424 30.4742 36.3233L33.8491 41.7871V33.9736C32.0644 33.7805 30.3648 33.1544 28.919 32.1574C27.4733 31.1603 26.3316 29.8271 25.6075 28.29H18.9488C18.8668 28.2924 18.7851 28.2794 18.7086 28.2517C18.6321 28.224 18.5623 28.1822 18.5034 28.1288C18.4444 28.0754 18.3976 28.0115 18.3656 27.9409C18.3336 27.8702 18.3171 27.7943 18.3171 27.7176C18.3171 27.6409 18.3336 27.5649 18.3656 27.4943C18.3976 27.4237 18.4444 27.3598 18.5034 27.3064C18.5623 27.253 18.6321 27.2112 18.7086 27.1835C18.7851 27.1558 18.8668 27.1428 18.9488 27.1452H25.1574C24.938 26.4477 24.8038 25.7292 24.7573 25.0035H18.9488C18.8668 25.0059 18.7851 24.9929 18.7086 24.9652C18.6321 24.9375 18.5623 24.8957 18.5034 24.8423C18.4444 24.7889 18.3976 24.725 18.3656 24.6544C18.3336 24.5837 18.3171 24.5078 18.3171 24.4311C18.3171 24.3544 18.3336 24.2785 18.3656 24.2078C18.3976 24.1372 18.4444 24.0733 18.5034 24.0199C18.5623 23.9665 18.6321 23.9247 18.7086 23.897C18.7851 23.8693 18.8668 23.8563 18.9488 23.8587H24.7591L24.7621 23.8103C24.8862 21.9643 25.5779 20.1911 26.7541 18.7039H18.9488C18.7863 18.7039 18.6305 18.6435 18.5157 18.5361C18.4008 18.4287 18.3362 18.2831 18.3362 18.1312C18.3362 17.9793 18.4008 17.8336 18.5157 17.7262C18.6305 17.6188 18.7863 17.5585 18.9488 17.5585H27.8191C27.9512 17.4371 28.0878 17.3186 28.2287 17.2028C29.8001 15.9044 31.7601 15.0885 33.8437 14.8653V9.40156C33.8442 9.33828 33.8181 9.27735 33.7711 9.23181C33.7476 9.20998 33.7197 9.1927 33.6891 9.18095C33.6584 9.1692 33.6256 9.16323 33.5925 9.16336L28.1935 9.16224ZM28.1935 6.51526V8.01796H33.5919C33.9837 8.0203 34.3588 8.16701 34.6356 8.42625C34.9125 8.6855 35.0688 9.03635 35.0707 9.40268V14.8063C35.2743 14.8063 35.4777 14.8128 35.6809 14.8258C36.04 14.8475 36.3976 14.8865 36.7524 14.9426V8.06972C36.7513 7.65767 36.5757 7.2628 36.264 6.97149C35.9523 6.68018 35.5299 6.51614 35.0891 6.51526H28.1935ZM12.286 3.88886C11.9106 3.88719 11.5466 4.00916 11.2579 4.23337C11.1089 4.34666 10.9884 4.4893 10.9052 4.65112C10.8219 4.81294 10.7779 4.98995 10.7763 5.1695V5.36931H3.88008C3.11479 5.37122 2.38143 5.65628 1.84029 6.16219C1.29915 6.66809 0.99423 7.3537 0.992188 8.06916V45.826C0.994231 46.5414 1.29918 47.2269 1.84036 47.7326C2.38154 48.2383 3.1149 48.5231 3.88008 48.5247H18.8178C18.83 48.9384 18.9542 49.3424 19.1786 49.6991C19.4067 50.0735 19.7368 50.3847 20.1353 50.6013C20.5359 50.8163 20.9902 50.9282 21.4521 50.9257H34.9445C35.6406 50.9221 36.3072 50.6625 36.8002 50.2029C37.2931 49.7434 37.5728 49.121 37.5787 48.4702C37.5779 48.1331 37.5013 47.7999 37.3537 47.4923C37.5028 47.3154 37.6279 47.1219 37.7264 46.9163C37.8916 46.572 37.9772 46.1989 37.9776 45.8215V33.6329C38.3373 33.5323 38.6909 33.4134 39.0367 33.2768L39.4623 33.7292C39.6797 33.9594 39.9434 34.1472 40.2384 34.282C40.5334 34.4169 40.8539 34.4961 41.1816 34.5151C41.2701 34.5195 41.3587 34.5195 41.4471 34.5151L46.9396 40.3545C47.3452 40.7854 47.9173 41.0479 48.53 41.0845C49.1427 41.121 49.7458 40.9285 50.2067 40.5493C50.6675 40.1701 50.9484 39.6352 50.9875 39.0624C51.0266 38.4896 50.8206 37.9258 50.415 37.4949L44.922 31.6611C44.9369 31.5808 44.947 31.4998 44.9524 31.4184C44.9739 31.1123 44.9306 30.8052 44.825 30.5148C44.7194 30.2244 44.5535 29.9563 44.3368 29.7259L43.9135 29.2757C45.0018 27.5301 45.4751 25.5087 45.2664 23.4977C45.0577 21.4867 44.1777 19.588 42.7509 18.0705C41.4804 16.7165 39.8269 15.7253 37.9806 15.2109V8.06972C37.9785 7.35426 37.6736 6.66865 37.1325 6.16274C36.5913 5.65684 35.858 5.37177 35.0927 5.36986H28.1935V5.16895C28.192 4.98943 28.1481 4.81244 28.065 4.65061C27.9818 4.48879 27.8615 4.34613 27.7125 4.23282C27.4235 4.00869 27.0593 3.88674 26.6838 3.88831H24.8121C24.4876 3.04768 23.8679 2.33471 23.0541 1.86578C21.9797 1.25108 20.7445 0.925781 19.4849 0.925781C18.2253 0.925781 16.9901 1.25108 15.9157 1.86578C15.102 2.33494 14.4825 3.04811 14.1583 3.88886H12.286ZM15.4299 13.6598L15.9609 13.2702C16.0887 13.1798 16.2494 13.14 16.4083 13.1594C16.5673 13.1789 16.7116 13.256 16.8102 13.3741C16.9088 13.4923 16.9537 13.6419 16.9353 13.7908C16.9168 13.9396 16.8365 14.0757 16.7116 14.1696L15.4299 15.1079V19.409C15.4299 19.5609 15.3653 19.7066 15.2505 19.814C15.1356 19.9214 14.9798 19.9817 14.8173 19.9817H8.56644C8.48589 19.9819 8.40611 19.9672 8.33165 19.9384C8.25719 19.9097 8.18952 19.8676 8.13251 19.8144C8.0755 19.7612 8.03027 19.698 7.99941 19.6284C7.96855 19.5589 7.95266 19.4843 7.95266 19.409V13.5652C7.95266 13.4134 8.01714 13.2679 8.13191 13.1606C8.24668 13.0533 8.40234 12.993 8.56465 12.993H14.8155C14.9779 12.993 15.1336 13.0533 15.2485 13.1606C15.3633 13.2678 15.4279 13.4134 15.4281 13.5652V13.6587L15.4299 13.6598ZM10.503 16.2806L11.5186 17.3019C11.6268 17.4104 11.7758 17.4753 11.9342 17.483C12.0926 17.4907 12.248 17.4405 12.3676 17.3431L14.2035 16.0023V18.8363H9.17902V14.139H14.2035V14.5547L12.0312 16.1415L11.3966 15.5025C11.2855 15.3941 11.1332 15.3309 10.9726 15.3267C10.812 15.3225 10.6562 15.3776 10.5387 15.4801C10.4213 15.5825 10.3518 15.7241 10.3452 15.8742C10.3386 16.0242 10.3955 16.1706 10.5036 16.2817L10.503 16.2806ZM15.4299 23.2465L15.9609 22.8569C16.0242 22.8108 16.0966 22.7768 16.1739 22.7569C16.2512 22.737 16.332 22.7315 16.4116 22.7407C16.4912 22.75 16.5681 22.7738 16.6378 22.8108C16.7076 22.8478 16.7689 22.8973 16.8182 22.9565C16.8675 23.0157 16.9038 23.0833 16.9251 23.1556C16.9464 23.2279 16.9523 23.3034 16.9424 23.3779C16.9325 23.4523 16.9071 23.5242 16.8675 23.5894C16.8278 23.6546 16.7749 23.7119 16.7116 23.758L15.4299 24.6941V28.9957C15.4297 29.1475 15.3651 29.293 15.2502 29.4003C15.1354 29.5076 14.9797 29.5679 14.8173 29.5679H8.56644C8.48592 29.5681 8.40615 29.5534 8.33169 29.5248C8.25724 29.4961 8.18956 29.454 8.13254 29.4009C8.07552 29.3477 8.03029 29.2846 7.99942 29.2151C7.96855 29.1455 7.95266 29.071 7.95266 28.9957V23.1519C7.95266 23.0001 8.01712 22.8545 8.13188 22.7471C8.24663 22.6397 8.40229 22.5793 8.56465 22.5792H14.8155C14.978 22.5792 15.1338 22.6395 15.2487 22.7469C15.3636 22.8543 15.4281 23 15.4281 23.1519V23.2454L15.4299 23.2465ZM10.503 25.8673L11.5186 26.8897C11.6266 26.9984 11.7756 27.0635 11.934 27.0713C12.0925 27.0791 12.248 27.0289 12.3676 26.9314L14.2035 25.589V28.423H9.17902V23.7257H14.2035V24.1414L12.0324 25.7282L11.3978 25.0892C11.3434 25.0333 11.2776 24.988 11.2043 24.956C11.131 24.924 11.0517 24.906 10.9709 24.9029C10.8901 24.8998 10.8094 24.9117 10.7336 24.938C10.6578 24.9643 10.5883 25.0044 10.5291 25.056C10.47 25.1076 10.4224 25.1696 10.3892 25.2385C10.3559 25.3075 10.3376 25.3819 10.3353 25.4574C10.3331 25.533 10.3469 25.6083 10.376 25.6788C10.4051 25.7494 10.4489 25.8138 10.5048 25.8684L10.503 25.8673ZM15.4299 32.8332L15.9609 32.4436C16.024 32.3975 16.0963 32.3635 16.1734 32.3435C16.2506 32.3235 16.3313 32.3179 16.4108 32.3271C16.4903 32.3362 16.567 32.3599 16.6367 32.3968C16.7064 32.4337 16.7677 32.4831 16.817 32.5421C16.8663 32.6011 16.9026 32.6686 16.924 32.7408C16.9454 32.813 16.9514 32.8883 16.9416 32.9627C16.9318 33.037 16.9065 33.1088 16.867 33.1739C16.8275 33.2391 16.7747 33.2963 16.7116 33.3424L15.4299 34.2808V38.5819C15.4299 38.7337 15.3653 38.8794 15.2505 38.9868C15.1356 39.0942 14.9798 39.1546 14.8173 39.1546H8.56644C8.48587 39.1548 8.40605 39.1401 8.33155 39.1114C8.25706 39.0827 8.18936 39.0406 8.13233 38.9874C8.07531 38.9342 8.03008 38.871 7.99925 38.8014C7.96842 38.7318 7.95259 38.6572 7.95266 38.5819V32.738C7.95266 32.5862 8.01712 32.4406 8.13188 32.3332C8.24663 32.2259 8.40229 32.1655 8.56465 32.1653H14.8155C14.978 32.1653 15.1338 32.2256 15.2487 32.333C15.3636 32.4404 15.4281 32.5861 15.4281 32.738V32.8315L15.4299 32.8332ZM10.503 35.454L11.5186 36.4764C11.6267 36.585 11.7757 36.65 11.9342 36.6577C12.0926 36.6654 12.248 36.6151 12.3676 36.5176L14.2035 35.1757V38.0097H9.17902V33.3118H14.2035V33.7276L12.0312 35.3149L11.3966 34.6754C11.2841 34.5726 11.1336 34.5143 10.9763 34.5126C10.819 34.5109 10.6671 34.566 10.5521 34.6663C10.4371 34.7667 10.3679 34.9046 10.3589 35.0514C10.3499 35.1982 10.4017 35.3426 10.5036 35.4546L10.503 35.454Z" fill="#703391" stroke="#703391" stroke-width="0.7"/>
</svg>
