<svg width="52" height="52" viewBox="0 0 52 52" fill="none" xmlns="http://www.w3.org/2000/svg">
<path d="M20.7502 27.0001L21.3648 28.5521C24.3127 27.3855 27.594 27.3751 30.5523 28.5209L31.1565 26.9688C27.8127 25.6667 24.094 25.6771 20.7502 27.0001Z" fill="#703391"/>
<path d="M50.1667 45.1667H49.3333V14.3333C49.3333 12.9583 48.2083 11.8333 46.8333 11.8333H45.1667V10.1667C45.1667 9.70833 44.7917 9.33333 44.3333 9.33333H41V7.66667H44.3333C44.7917 7.66667 45.1667 7.29167 45.1667 6.83333V1.83333C45.1667 1.375 44.7917 1 44.3333 1H36C35.5417 1 35.1667 1.375 35.1667 1.83333V3.5H16.8333V1.83333C16.8333 1.375 16.4583 1 16 1H7.66667C7.20833 1 6.83333 1.375 6.83333 1.83333V6.83333C6.83333 7.29167 7.20833 7.66667 7.66667 7.66667H11V9.33333H7.66667C7.20833 9.33333 6.83333 9.70833 6.83333 10.1667V11.8333H5.16667C3.79167 11.8333 2.66667 12.9583 2.66667 14.3333V45.1667H1.83333C1.375 45.1667 1 45.5417 1 46V48.5C1 49.875 2.125 51 3.5 51H48.5C49.875 51 51 49.875 51 48.5V46C51 45.5417 50.625 45.1667 50.1667 45.1667ZM36.8333 14.3333V11H43.5V14.3333H36.8333ZM36.8333 2.66667H43.5V6H36.8333V2.66667ZM8.5 2.66667H15.1667V6H8.5V2.66667ZM8.5 11H15.1667V14.3333H8.5V11ZM4.33333 14.3333C4.33333 13.875 4.70833 13.5 5.16667 13.5H6.83333V15.1667C6.83333 15.625 7.20833 16 7.66667 16H11V17.6667H7.66667C7.20833 17.6667 6.83333 18.0417 6.83333 18.5V23.5C6.83333 23.9583 7.20833 24.3333 7.66667 24.3333H16C16.4583 24.3333 16.8333 23.9583 16.8333 23.5V18.5C16.8333 18.0417 16.4583 17.6667 16 17.6667H12.6667V16H16C16.4583 16 16.8333 15.625 16.8333 15.1667V10.1667C16.8333 9.70833 16.4583 9.33333 16 9.33333H12.6667V7.66667H16C16.4583 7.66667 16.8333 7.29167 16.8333 6.83333V5.16667H35.1667V6.83333C35.1667 7.29167 35.5417 7.66667 36 7.66667H39.3333V9.33333H36C35.5417 9.33333 35.1667 9.70833 35.1667 10.1667V15.1667C35.1667 15.625 35.5417 16 36 16H39.3333V17.6667H36C35.5417 17.6667 35.1667 18.0417 35.1667 18.5V23.5C35.1667 23.9583 35.5417 24.3333 36 24.3333H44.3333C44.7917 24.3333 45.1667 23.9583 45.1667 23.5V18.5C45.1667 18.0417 44.7917 17.6667 44.3333 17.6667H41V16H44.3333C44.7917 16 45.1667 15.625 45.1667 15.1667V13.5H46.8333C47.2917 13.5 47.6667 13.875 47.6667 14.3333V45.1667H39.2604C40.3958 42.1354 40.4688 38.8125 39.4583 35.7396L37.875 36.2604C38.8333 39.1771 38.6771 42.3542 37.4583 45.1667H33.8437L29.2604 40.5833L33.1042 36.7396C36.8646 35.5833 39.5729 32.3021 39.9896 28.3958L40.1562 26.9271C40.2083 26.4687 39.875 26.0625 39.4167 26.0104C39.3542 26 39.2917 26 39.2292 26.0104L37.7604 26.1771C33.8542 26.6042 30.5729 29.3125 29.4167 33.0625L25.5833 36.9062L21.7604 33.0833L22.4167 32.4271L21.2396 31.25L20.6771 31.8125L20.1458 29.1771C20.0833 28.8854 19.875 28.6458 19.5938 28.5521L12.0938 26.0521C11.6562 25.9062 11.1875 26.1458 11.0417 26.5833C10.9896 26.75 10.9896 26.9375 11.0417 27.1146L13.5417 34.6146C13.6354 34.8958 13.875 35.1146 14.1667 35.1667L16.8021 35.6979L16.2396 36.2604L17.4167 37.4375L18.0729 36.7812L21.8958 40.6042L17.3125 45.1875H14.5417C13.8542 43.6146 13.5 41.9062 13.5 40.1875C13.5 39.1354 13.6354 38.0833 13.8958 37.0625L12.2812 36.6458C11.9792 37.8021 11.8333 38.9896 11.8333 40.1875C11.8333 41.8958 12.1354 43.5938 12.7396 45.1875H4.33333V14.3333ZM15.1667 19.3333V22.6667H8.5V19.3333H15.1667ZM43.5 19.3333V22.6667H36.8333V19.3333H43.5ZM14.9167 28.7396L18.6042 29.9688L19.25 33.2187L18.2188 34.25L14.9688 33.6042L13.7396 29.9167L16.2396 32.4167L17.4167 31.2396L14.9167 28.7396ZM20.5833 34.2604L24.4062 38.0833L23.0833 39.4062L19.2604 35.5833L20.5833 34.2604ZM30.1667 34.6771L31.4896 36L21.4896 46H21.3438L20.75 45.4062C20.5938 45.25 20.3854 45.1667 20.1562 45.1667H19.6667L30.1667 34.6771ZM32.8958 35.0521L31.1146 33.2708C32.1562 30.2917 34.8125 28.1667 37.9583 27.8229L38.3958 27.7708L38.3438 28.2083C38 31.3542 35.8854 34.0104 32.8958 35.0521ZM25.5833 44.2604L27.3229 46H23.8438L25.5833 44.2604ZM29.6771 46L26.7604 43.0833L28.0833 41.7604L31.5417 45.2188C31.4271 45.2604 31.3333 45.3229 31.2396 45.4062L30.6458 46H29.6771ZM49.3333 48.5C49.3333 48.9583 48.9583 49.3333 48.5 49.3333H3.5C3.04167 49.3333 2.66667 48.9583 2.66667 48.5V46.8333H19.8229L20.4167 47.4271C20.5729 47.5833 20.7812 47.6667 21.0104 47.6667H31.0104C31.2292 47.6667 31.4479 47.5833 31.6042 47.4271L32.1979 46.8333H49.3333V48.5Z" fill="#703391"/>
<path d="M19.1351 16.8548L20.3955 17.1568L20.6247 17.7193L19.9476 18.8339C19.7497 19.1673 19.7914 19.5839 20.0726 19.8548L21.3122 21.0943C21.583 21.3652 22.0101 21.4173 22.333 21.2193L23.4476 20.5423L24.0101 20.7714L24.3122 22.0318C24.406 22.4068 24.7393 22.6673 25.1247 22.6673H26.8747C27.2601 22.6673 27.5935 22.4068 27.6872 22.0318L27.9893 20.7714L28.5518 20.5423L29.6664 21.2193C29.9997 21.4173 30.4164 21.3756 30.6872 21.0943L31.9268 19.8548C32.1976 19.5839 32.2497 19.1568 32.0518 18.8339L31.3747 17.7193L31.6039 17.1568L32.8643 16.8548C33.2393 16.761 33.4997 16.4277 33.4997 16.0423V14.2923C33.4997 13.9068 33.2393 13.5735 32.8643 13.4798L31.6039 13.1777L31.3747 12.6152L32.0518 11.5006C32.2497 11.1673 32.208 10.7506 31.9268 10.4798L30.6872 9.24018C30.4164 8.96934 29.9893 8.91726 29.6664 9.11518L28.5518 9.79226L27.9893 9.56309L27.6872 8.30268C27.5935 7.92768 27.2601 7.66726 26.8747 7.66726H25.1247C24.7393 7.66726 24.406 7.92768 24.3122 8.30268L24.0101 9.56309L23.4476 9.79226L22.333 9.11518C21.9997 8.91726 21.583 8.95893 21.3122 9.24018L20.0726 10.4798C19.8018 10.7506 19.7497 11.1777 19.9476 11.5006L20.6247 12.6152L20.3955 13.1777L19.1351 13.4798C18.7601 13.5735 18.4997 13.9068 18.4997 14.2923V16.0423C18.4997 16.4277 18.7601 16.761 19.1351 16.8548ZM20.1664 14.9485L21.1976 14.6985C21.458 14.636 21.6664 14.4485 21.7705 14.2089L22.333 12.8652C22.4372 12.6152 22.4164 12.3339 22.2705 12.1152L21.708 11.1985L22.0205 10.886L22.9372 11.4485C23.1664 11.5839 23.4476 11.6048 23.6872 11.511L25.031 10.9485C25.281 10.8443 25.458 10.636 25.5205 10.3756L25.7705 9.34434H26.208L26.458 10.3756C26.5205 10.636 26.708 10.8443 26.9476 10.9485L28.2914 11.511C28.5414 11.6152 28.8226 11.5943 29.0414 11.4485L29.958 10.886L30.2705 11.1985L29.708 12.1152C29.5726 12.3443 29.5518 12.6256 29.6455 12.8652L30.208 14.2089C30.3122 14.4589 30.5205 14.636 30.781 14.6985L31.8122 14.9485V15.386L30.781 15.636C30.5205 15.6985 30.3122 15.886 30.208 16.1256L29.6455 17.4693C29.5414 17.7193 29.5622 18.0006 29.708 18.2193L30.2705 19.136L29.958 19.4485L29.0414 18.886C28.8122 18.7506 28.531 18.7193 28.2914 18.8235L26.9476 19.386C26.6976 19.4902 26.5205 19.6985 26.458 19.9589L26.208 20.9902H25.7705L25.5205 19.9589C25.458 19.6985 25.2705 19.4902 25.031 19.386L23.6872 18.8235C23.4372 18.7193 23.156 18.7402 22.9372 18.886L22.0205 19.4485L21.708 19.136L22.2705 18.2193C22.406 17.9902 22.4268 17.7089 22.333 17.4693L21.7705 16.1256C21.6664 15.8756 21.458 15.6985 21.1976 15.636L20.1664 15.386V14.9485Z" fill="#703391"/>
<path d="M25.9994 17.667C27.3848 17.667 28.4994 16.5524 28.4994 15.167C28.4994 13.7815 27.3848 12.667 25.9994 12.667C24.614 12.667 23.4994 13.7815 23.4994 15.167C23.4994 16.542 24.6244 17.667 25.9994 17.667ZM25.9994 14.3336C26.4577 14.3336 26.8327 14.7086 26.8327 15.167C26.8327 15.6253 26.4577 16.0003 25.9994 16.0003C25.5411 16.0003 25.1661 15.6253 25.1661 15.167C25.1661 14.7086 25.5411 14.3336 25.9994 14.3336Z" fill="#703391"/>
<path d="M20.7502 27.0001L21.3648 28.5521C24.3127 27.3855 27.594 27.3751 30.5523 28.5209L31.1565 26.9688C27.8127 25.6667 24.094 25.6771 20.7502 27.0001Z" stroke="#703391" stroke-width="0.5"/>
<path d="M50.1667 45.1667H49.3333V14.3333C49.3333 12.9583 48.2083 11.8333 46.8333 11.8333H45.1667V10.1667C45.1667 9.70833 44.7917 9.33333 44.3333 9.33333H41V7.66667H44.3333C44.7917 7.66667 45.1667 7.29167 45.1667 6.83333V1.83333C45.1667 1.375 44.7917 1 44.3333 1H36C35.5417 1 35.1667 1.375 35.1667 1.83333V3.5H16.8333V1.83333C16.8333 1.375 16.4583 1 16 1H7.66667C7.20833 1 6.83333 1.375 6.83333 1.83333V6.83333C6.83333 7.29167 7.20833 7.66667 7.66667 7.66667H11V9.33333H7.66667C7.20833 9.33333 6.83333 9.70833 6.83333 10.1667V11.8333H5.16667C3.79167 11.8333 2.66667 12.9583 2.66667 14.3333V45.1667H1.83333C1.375 45.1667 1 45.5417 1 46V48.5C1 49.875 2.125 51 3.5 51H48.5C49.875 51 51 49.875 51 48.5V46C51 45.5417 50.625 45.1667 50.1667 45.1667ZM36.8333 14.3333V11H43.5V14.3333H36.8333ZM36.8333 2.66667H43.5V6H36.8333V2.66667ZM8.5 2.66667H15.1667V6H8.5V2.66667ZM8.5 11H15.1667V14.3333H8.5V11ZM4.33333 14.3333C4.33333 13.875 4.70833 13.5 5.16667 13.5H6.83333V15.1667C6.83333 15.625 7.20833 16 7.66667 16H11V17.6667H7.66667C7.20833 17.6667 6.83333 18.0417 6.83333 18.5V23.5C6.83333 23.9583 7.20833 24.3333 7.66667 24.3333H16C16.4583 24.3333 16.8333 23.9583 16.8333 23.5V18.5C16.8333 18.0417 16.4583 17.6667 16 17.6667H12.6667V16H16C16.4583 16 16.8333 15.625 16.8333 15.1667V10.1667C16.8333 9.70833 16.4583 9.33333 16 9.33333H12.6667V7.66667H16C16.4583 7.66667 16.8333 7.29167 16.8333 6.83333V5.16667H35.1667V6.83333C35.1667 7.29167 35.5417 7.66667 36 7.66667H39.3333V9.33333H36C35.5417 9.33333 35.1667 9.70833 35.1667 10.1667V15.1667C35.1667 15.625 35.5417 16 36 16H39.3333V17.6667H36C35.5417 17.6667 35.1667 18.0417 35.1667 18.5V23.5C35.1667 23.9583 35.5417 24.3333 36 24.3333H44.3333C44.7917 24.3333 45.1667 23.9583 45.1667 23.5V18.5C45.1667 18.0417 44.7917 17.6667 44.3333 17.6667H41V16H44.3333C44.7917 16 45.1667 15.625 45.1667 15.1667V13.5H46.8333C47.2917 13.5 47.6667 13.875 47.6667 14.3333V45.1667H39.2604C40.3958 42.1354 40.4688 38.8125 39.4583 35.7396L37.875 36.2604C38.8333 39.1771 38.6771 42.3542 37.4583 45.1667H33.8437L29.2604 40.5833L33.1042 36.7396C36.8646 35.5833 39.5729 32.3021 39.9896 28.3958L40.1562 26.9271C40.2083 26.4687 39.875 26.0625 39.4167 26.0104C39.3542 26 39.2917 26 39.2292 26.0104L37.7604 26.1771C33.8542 26.6042 30.5729 29.3125 29.4167 33.0625L25.5833 36.9062L21.7604 33.0833L22.4167 32.4271L21.2396 31.25L20.6771 31.8125L20.1458 29.1771C20.0833 28.8854 19.875 28.6458 19.5938 28.5521L12.0938 26.0521C11.6562 25.9062 11.1875 26.1458 11.0417 26.5833C10.9896 26.75 10.9896 26.9375 11.0417 27.1146L13.5417 34.6146C13.6354 34.8958 13.875 35.1146 14.1667 35.1667L16.8021 35.6979L16.2396 36.2604L17.4167 37.4375L18.0729 36.7812L21.8958 40.6042L17.3125 45.1875H14.5417C13.8542 43.6146 13.5 41.9062 13.5 40.1875C13.5 39.1354 13.6354 38.0833 13.8958 37.0625L12.2812 36.6458C11.9792 37.8021 11.8333 38.9896 11.8333 40.1875C11.8333 41.8958 12.1354 43.5938 12.7396 45.1875H4.33333V14.3333ZM15.1667 19.3333V22.6667H8.5V19.3333H15.1667ZM43.5 19.3333V22.6667H36.8333V19.3333H43.5ZM14.9167 28.7396L18.6042 29.9688L19.25 33.2187L18.2188 34.25L14.9688 33.6042L13.7396 29.9167L16.2396 32.4167L17.4167 31.2396L14.9167 28.7396ZM20.5833 34.2604L24.4062 38.0833L23.0833 39.4062L19.2604 35.5833L20.5833 34.2604ZM30.1667 34.6771L31.4896 36L21.4896 46H21.3438L20.75 45.4062C20.5938 45.25 20.3854 45.1667 20.1562 45.1667H19.6667L30.1667 34.6771ZM32.8958 35.0521L31.1146 33.2708C32.1562 30.2917 34.8125 28.1667 37.9583 27.8229L38.3958 27.7708L38.3438 28.2083C38 31.3542 35.8854 34.0104 32.8958 35.0521ZM25.5833 44.2604L27.3229 46H23.8438L25.5833 44.2604ZM29.6771 46L26.7604 43.0833L28.0833 41.7604L31.5417 45.2188C31.4271 45.2604 31.3333 45.3229 31.2396 45.4062L30.6458 46H29.6771ZM49.3333 48.5C49.3333 48.9583 48.9583 49.3333 48.5 49.3333H3.5C3.04167 49.3333 2.66667 48.9583 2.66667 48.5V46.8333H19.8229L20.4167 47.4271C20.5729 47.5833 20.7812 47.6667 21.0104 47.6667H31.0104C31.2292 47.6667 31.4479 47.5833 31.6042 47.4271L32.1979 46.8333H49.3333V48.5Z" stroke="#703391" stroke-width="0.5"/>
<path d="M19.1351 16.8548L20.3955 17.1568L20.6247 17.7193L19.9476 18.8339C19.7497 19.1673 19.7914 19.5839 20.0726 19.8548L21.3122 21.0943C21.583 21.3652 22.0101 21.4173 22.333 21.2193L23.4476 20.5423L24.0101 20.7714L24.3122 22.0318C24.406 22.4068 24.7393 22.6673 25.1247 22.6673H26.8747C27.2601 22.6673 27.5935 22.4068 27.6872 22.0318L27.9893 20.7714L28.5518 20.5423L29.6664 21.2193C29.9997 21.4173 30.4164 21.3756 30.6872 21.0943L31.9268 19.8548C32.1976 19.5839 32.2497 19.1568 32.0518 18.8339L31.3747 17.7193L31.6039 17.1568L32.8643 16.8548C33.2393 16.761 33.4997 16.4277 33.4997 16.0423V14.2923C33.4997 13.9068 33.2393 13.5735 32.8643 13.4798L31.6039 13.1777L31.3747 12.6152L32.0518 11.5006C32.2497 11.1673 32.208 10.7506 31.9268 10.4798L30.6872 9.24018C30.4164 8.96934 29.9893 8.91726 29.6664 9.11518L28.5518 9.79226L27.9893 9.56309L27.6872 8.30268C27.5935 7.92768 27.2601 7.66726 26.8747 7.66726H25.1247C24.7393 7.66726 24.406 7.92768 24.3122 8.30268L24.0101 9.56309L23.4476 9.79226L22.333 9.11518C21.9997 8.91726 21.583 8.95893 21.3122 9.24018L20.0726 10.4798C19.8018 10.7506 19.7497 11.1777 19.9476 11.5006L20.6247 12.6152L20.3955 13.1777L19.1351 13.4798C18.7601 13.5735 18.4997 13.9068 18.4997 14.2923V16.0423C18.4997 16.4277 18.7601 16.761 19.1351 16.8548ZM20.1664 14.9485L21.1976 14.6985C21.458 14.636 21.6664 14.4485 21.7705 14.2089L22.333 12.8652C22.4372 12.6152 22.4164 12.3339 22.2705 12.1152L21.708 11.1985L22.0205 10.886L22.9372 11.4485C23.1664 11.5839 23.4476 11.6048 23.6872 11.511L25.031 10.9485C25.281 10.8443 25.458 10.636 25.5205 10.3756L25.7705 9.34434H26.208L26.458 10.3756C26.5205 10.636 26.708 10.8443 26.9476 10.9485L28.2914 11.511C28.5414 11.6152 28.8226 11.5943 29.0414 11.4485L29.958 10.886L30.2705 11.1985L29.708 12.1152C29.5726 12.3443 29.5518 12.6256 29.6455 12.8652L30.208 14.2089C30.3122 14.4589 30.5205 14.636 30.781 14.6985L31.8122 14.9485V15.386L30.781 15.636C30.5205 15.6985 30.3122 15.886 30.208 16.1256L29.6455 17.4693C29.5414 17.7193 29.5622 18.0006 29.708 18.2193L30.2705 19.136L29.958 19.4485L29.0414 18.886C28.8122 18.7506 28.531 18.7193 28.2914 18.8235L26.9476 19.386C26.6976 19.4902 26.5205 19.6985 26.458 19.9589L26.208 20.9902H25.7705L25.5205 19.9589C25.458 19.6985 25.2705 19.4902 25.031 19.386L23.6872 18.8235C23.4372 18.7193 23.156 18.7402 22.9372 18.886L22.0205 19.4485L21.708 19.136L22.2705 18.2193C22.406 17.9902 22.4268 17.7089 22.333 17.4693L21.7705 16.1256C21.6664 15.8756 21.458 15.6985 21.1976 15.636L20.1664 15.386V14.9485Z" stroke="#703391" stroke-width="0.5"/>
<path d="M25.9994 17.667C27.3848 17.667 28.4994 16.5524 28.4994 15.167C28.4994 13.7815 27.3848 12.667 25.9994 12.667C24.614 12.667 23.4994 13.7815 23.4994 15.167C23.4994 16.542 24.6244 17.667 25.9994 17.667ZM25.9994 14.3336C26.4577 14.3336 26.8327 14.7086 26.8327 15.167C26.8327 15.6253 26.4577 16.0003 25.9994 16.0003C25.5411 16.0003 25.1661 15.6253 25.1661 15.167C25.1661 14.7086 25.5411 14.3336 25.9994 14.3336Z" stroke="#703391" stroke-width="0.5"/>
</svg>
