<svg width="41" height="50" viewBox="0 0 41 50" fill="none" xmlns="http://www.w3.org/2000/svg">
<path d="M20.3705 0L25.5309 2.4L28.4914 3.73448C29.1263 4.01724 29.6797 4.25517 30.155 4.45862L31.4553 4.97586L33.8115 5.84483C35.6278 6.4931 37.9398 7.27586 40.7407 8.2V26.3552C40.7407 33.1965 34.7858 40.8414 25.4189 47.0034L24.4411 47.6379C23.9998 47.9138 22.6418 48.7034 20.3705 50L16.4322 47.7448L16.2896 47.6586C6.33195 41.431 -0.0405464 33.4793 0.000194196 26.3552V8.2L2.92333 7.22759L6.48134 6.00345C8.04306 5.45172 9.27885 4.9931 10.1853 4.62069L12.039 3.82759L15.6174 2.22069C17.006 1.58276 18.5915 0.841379 20.3739 0.00344823L20.3705 0ZM20.3705 3.79655L18.0449 4.88276L14.8637 6.33793C13.4548 6.97241 12.3174 7.46552 11.4551 7.82069C10.1853 8.33793 8.34861 9.01035 5.93473 9.84138L3.39524 10.7V26.3759C3.36808 31.7103 8.44367 38.4483 17.1282 44.1172L18.1976 44.8L20.3569 46.0448L22.5195 44.7862L22.6485 44.7069C31.5605 39.0793 36.9519 32.3448 37.3253 26.9483L37.3457 26.3552V10.7L33.0408 9.22414L30.8883 8.44138L29.2859 7.82069L28.3454 7.42414L27.2217 6.93448C26.2032 6.48621 24.9945 5.94138 23.589 5.2931L20.3705 3.79655ZM31.0649 15.2L33.4686 17.6379L19.0634 32.269L10.6606 23.7345L13.0609 21.2966L19.0634 27.3897L31.0649 15.2Z" fill="#703391"/>
</svg>
