<svg width="50" height="52" viewBox="0 0 50 52" fill="none" xmlns="http://www.w3.org/2000/svg">
<path d="M47.0392 41.6009H38.6775C38.4227 41.6009 38.1783 41.4996 37.9981 41.3192C37.8179 41.1389 37.7167 40.8944 37.7167 40.6393C37.7167 40.3843 37.8179 40.1398 37.9981 39.9594C38.1783 39.7791 38.4227 39.6778 38.6775 39.6778H46.0783V2.92307H3.92167V39.6778H11.3225C11.5773 39.6778 11.8217 39.7791 12.0019 39.9594C12.1821 40.1398 12.2833 40.3843 12.2833 40.6393C12.2833 40.8944 12.1821 41.1389 12.0019 41.3192C11.8217 41.4996 11.5773 41.6009 11.3225 41.6009H2.96084C2.70601 41.6009 2.46161 41.4996 2.28142 41.3192C2.10123 41.1389 2 40.8944 2 40.6393V1.96154C2 1.70652 2.10123 1.46195 2.28142 1.28163C2.46161 1.1013 2.70601 1 2.96084 1H47.0392C47.294 1 47.5384 1.1013 47.7186 1.28163C47.8988 1.46195 48 1.70652 48 1.96154V40.6393C48 40.8944 47.8988 41.1389 47.7186 41.3192C47.5384 41.4996 47.294 41.6009 47.0392 41.6009Z" fill="#703391" stroke="#703391"/>
<path d="M47.0392 8.55198H2.96084C2.70601 8.55198 2.46161 8.45067 2.28142 8.27035C2.10123 8.09003 2 7.84546 2 7.59044C2 7.33543 2.10123 7.09086 2.28142 6.91053C2.46161 6.73021 2.70601 6.62891 2.96084 6.62891H47.0392C47.294 6.62891 47.5384 6.73021 47.7186 6.91053C47.8988 7.09086 48 7.33543 48 7.59044C48 7.84546 47.8988 8.09003 47.7186 8.27035C47.5384 8.45067 47.294 8.55198 47.0392 8.55198Z" fill="#703391" stroke="#703391"/>
<path d="M35.8243 5.73557H35.4159C35.1611 5.73557 34.9167 5.63427 34.7365 5.45395C34.5563 5.27362 34.4551 5.02905 34.4551 4.77404C34.4551 4.51902 34.5563 4.27445 34.7365 4.09413C34.9167 3.9138 35.1611 3.8125 35.4159 3.8125H35.8243C36.0791 3.8125 36.3235 3.9138 36.5037 4.09413C36.6839 4.27445 36.7851 4.51902 36.7851 4.77404C36.7851 5.02905 36.6839 5.27362 36.5037 5.45395C36.3235 5.63427 36.0791 5.73557 35.8243 5.73557Z" fill="#703391" stroke="#703391"/>
<path d="M39.293 5.73557H38.8847C38.6298 5.73557 38.3854 5.63427 38.2052 5.45395C38.0251 5.27362 37.9238 5.02905 37.9238 4.77404C37.9238 4.51902 38.0251 4.27445 38.2052 4.09413C38.3854 3.9138 38.6298 3.8125 38.8847 3.8125H39.293C39.5478 3.8125 39.7922 3.9138 39.9724 4.09413C40.1526 4.27445 40.2539 4.51902 40.2539 4.77404C40.2539 5.02905 40.1526 5.27362 39.9724 5.45395C39.7922 5.63427 39.5478 5.73557 39.293 5.73557Z" fill="#703391" stroke="#703391"/>
<path d="M42.7598 5.73557H42.3515C42.0966 5.73557 41.8522 5.63427 41.672 5.45395C41.4919 5.27362 41.3906 5.02905 41.3906 4.77404C41.3906 4.51902 41.4919 4.27445 41.672 4.09413C41.8522 3.9138 42.0966 3.8125 42.3515 3.8125H42.7598C43.0146 3.8125 43.259 3.9138 43.4392 4.09413C43.6194 4.27445 43.7207 4.51902 43.7207 4.77404C43.7207 5.02905 43.6194 5.27362 43.4392 5.45395C43.259 5.63427 43.0146 5.73557 42.7598 5.73557Z" fill="#703391" stroke="#703391"/>
<path d="M28.2353 51.0014H21.7617C21.6254 51.0014 21.4907 50.9723 21.3664 50.9162C21.2422 50.86 21.1314 50.7781 21.0412 50.6758C20.9511 50.5735 20.8837 50.4531 20.8436 50.3228C20.8035 50.1924 20.7916 50.055 20.8086 49.9197L21.1804 46.9347C19.5201 46.5385 17.9335 45.8802 16.4801 44.9846L14.6329 47.3596C14.5492 47.4672 14.4437 47.5557 14.3232 47.6194C14.2028 47.6831 14.0702 47.7204 13.9342 47.7288C13.7983 47.7373 13.6621 47.7167 13.5347 47.6685C13.4073 47.6203 13.2916 47.5455 13.1952 47.4491L8.61805 42.8686C8.52171 42.7723 8.44694 42.6565 8.39871 42.529C8.35048 42.4016 8.32988 42.2653 8.33829 42.1292C8.34669 41.9932 8.38391 41.8605 8.44746 41.7399C8.51101 41.6193 8.59946 41.5137 8.70692 41.4299L11.0808 39.5832C10.1859 38.1287 9.52806 36.5409 9.13209 34.8795L6.1493 35.2515C6.01407 35.2685 5.87677 35.2566 5.7465 35.2164C5.61624 35.1763 5.496 35.1089 5.39376 35.0187C5.29153 34.9285 5.20964 34.8176 5.15354 34.6933C5.09743 34.569 5.0684 34.4341 5.06836 34.2977V27.8188C5.0684 27.6824 5.09743 27.5476 5.15354 27.4233C5.20964 27.2989 5.29153 27.188 5.39376 27.0978C5.496 27.0076 5.61624 26.9402 5.7465 26.9001C5.87677 26.8599 6.01407 26.848 6.1493 26.8651L9.13209 27.237C9.52806 25.5756 10.1859 23.9878 11.0808 22.5333L8.70692 20.6848C8.59946 20.601 8.51101 20.4954 8.44746 20.3748C8.38391 20.2542 8.34669 20.1215 8.33829 19.9855C8.32988 19.8494 8.35048 19.7132 8.39871 19.5857C8.44694 19.4582 8.52171 19.3424 8.61805 19.2461L13.1952 14.6656C13.2915 14.5691 13.4072 14.4943 13.5346 14.4461C13.662 14.3978 13.7981 14.3772 13.9341 14.3856C14.07 14.394 14.2027 14.4312 14.3231 14.4948C14.4436 14.5584 14.5492 14.647 14.6329 14.7545L16.4801 17.1301C17.9335 16.2345 19.5201 15.5762 21.1804 15.18L20.8086 12.195C20.7916 12.0597 20.8035 11.9223 20.8436 11.7919C20.8837 11.6616 20.9511 11.5412 21.0412 11.4389C21.1314 11.3366 21.2422 11.2547 21.3664 11.1985C21.4907 11.1424 21.6254 11.1133 21.7617 11.1133H28.2353C28.3716 11.1133 28.5063 11.1424 28.6305 11.1985C28.7548 11.2547 28.8656 11.3366 28.9557 11.4389C29.0459 11.5412 29.1132 11.6616 29.1533 11.7919C29.1934 11.9223 29.2054 12.0597 29.1883 12.195L28.8166 15.18C30.4769 15.5762 32.0635 16.2345 33.5169 17.1301L35.3641 14.7545C35.4478 14.647 35.5534 14.5584 35.6739 14.4948C35.7943 14.4312 35.9269 14.394 36.0629 14.3856C36.1988 14.3772 36.335 14.3978 36.4624 14.4461C36.5898 14.4943 36.7055 14.5691 36.8018 14.6656L41.3789 19.2461C41.4753 19.3424 41.55 19.4582 41.5983 19.5857C41.6465 19.7132 41.6671 19.8494 41.6587 19.9855C41.6503 20.1215 41.6131 20.2542 41.5495 20.3748C41.486 20.4954 41.3975 20.601 41.2901 20.6848L38.9162 22.5333C39.8111 23.9878 40.4689 25.5756 40.8649 27.237L43.8477 26.8651C43.9829 26.848 44.1202 26.8599 44.2505 26.9001C44.3807 26.9402 44.501 27.0076 44.6032 27.0978C44.7054 27.188 44.7873 27.2989 44.8434 27.4233C44.8995 27.5476 44.9286 27.6824 44.9286 27.8188V34.2947C44.9286 34.4311 44.8995 34.5659 44.8434 34.6903C44.7873 34.8146 44.7054 34.9255 44.6032 35.0157C44.501 35.1059 44.3807 35.1733 44.2505 35.2134C44.1202 35.2536 43.9829 35.2655 43.8477 35.2484L40.8649 34.8765C40.4692 36.539 39.8114 38.1278 38.9162 39.5832L41.2901 41.4317C41.3975 41.5155 41.486 41.6211 41.5495 41.7417C41.6131 41.8623 41.6503 41.995 41.6587 42.131C41.6671 42.2671 41.6465 42.4034 41.5983 42.5308C41.55 42.6583 41.4753 42.7741 41.3789 42.8704L36.8018 47.4509C36.7054 47.5473 36.5897 47.6221 36.4623 47.6703C36.3349 47.7185 36.1987 47.7391 36.0627 47.7306C35.9268 47.7222 35.7942 47.6849 35.6737 47.6212C35.5533 47.5575 35.4477 47.469 35.3641 47.3614L33.5169 44.9858C32.0635 45.8814 30.4769 46.5397 28.8166 46.9359L29.1883 49.9197C29.2054 50.055 29.1934 50.1924 29.1533 50.3228C29.1132 50.4531 29.0459 50.5735 28.9557 50.6758C28.8656 50.7781 28.7548 50.86 28.6305 50.9162C28.5063 50.9723 28.3716 51.0014 28.2353 51.0014ZM22.8498 49.0783H27.1472L26.8001 46.2959C26.77 46.0524 26.8341 45.8066 26.9792 45.6089C27.1244 45.4111 27.3396 45.2764 27.5807 45.2322C29.5934 44.8694 31.5043 44.0765 33.183 42.9077C33.3849 42.7677 33.6328 42.7105 33.8756 42.7477C34.1184 42.7849 34.3377 42.9138 34.4885 43.1078L36.2102 45.3217L39.2489 42.2809L37.0384 40.5567C36.8445 40.4058 36.7157 40.1863 36.6785 39.9433C36.6413 39.7003 36.6985 39.4523 36.8384 39.2502C38.0064 37.5703 38.7986 35.658 39.1612 33.6439C39.2053 33.4023 39.3402 33.1868 39.538 33.0415C39.7359 32.8962 39.9818 32.8322 40.2253 32.8626L43.0057 33.2094V28.9077L40.2253 29.2545C39.9818 29.2849 39.7359 29.2209 39.538 29.0756C39.3402 28.9303 39.2053 28.7148 39.1612 28.4732C38.7986 26.4591 38.0064 24.5468 36.8384 22.8669C36.6985 22.6648 36.6413 22.4168 36.6785 22.1738C36.7157 21.9308 36.8445 21.7113 37.0384 21.5604L39.2507 19.8368L36.212 16.7966L34.4903 19.0105C34.3395 19.2045 34.1202 19.3334 33.8774 19.3706C33.6346 19.4078 33.3867 19.3506 33.1848 19.2106C31.5056 18.0411 29.5941 17.2479 27.5807 16.8849C27.3393 16.8407 27.124 16.7058 26.9788 16.5078C26.8336 16.3098 26.7697 16.0637 26.8001 15.82L27.1466 13.0376H22.8498L23.1963 15.82C23.2267 16.0637 23.1628 16.3098 23.0176 16.5078C22.8724 16.7058 22.6571 16.8407 22.4156 16.8849C20.4024 17.2479 18.4912 18.0412 16.8122 19.2106C16.6102 19.3506 16.3624 19.4078 16.1196 19.3706C15.8768 19.3334 15.6574 19.2045 15.5066 19.0105L13.7849 16.7966L10.7463 19.8368L12.9586 21.5604C13.1525 21.7113 13.2813 21.9308 13.3185 22.1738C13.3557 22.4168 13.2985 22.6648 13.1586 22.8669C11.9906 24.5468 11.1983 26.4591 10.8358 28.4732C10.7916 28.7148 10.6568 28.9303 10.459 29.0756C10.2611 29.2209 10.0152 29.2849 9.77165 29.2545L6.99123 28.9077V33.2082L9.77165 32.8614C10.0152 32.831 10.2611 32.895 10.459 33.0403C10.6568 33.1856 10.7916 33.4011 10.8358 33.6427C11.1983 35.6568 11.9906 37.5691 13.1586 39.249C13.2985 39.4511 13.3557 39.6991 13.3185 39.9421C13.2813 40.1851 13.1525 40.4046 12.9586 40.5555L10.7463 42.2785L13.7849 45.3193L15.5066 43.1054C15.6574 42.9114 15.8768 42.7825 16.1196 42.7453C16.3624 42.7081 16.6102 42.7653 16.8122 42.9053C18.4912 44.0752 20.4027 44.8689 22.4162 45.2322C22.6577 45.2764 22.873 45.4113 23.0182 45.6093C23.1634 45.8073 23.2273 46.0534 23.1969 46.2971L22.8498 49.0783Z" fill="#703391" stroke="#703391"/>
<path d="M20.1626 36.195C19.9508 36.1951 19.7448 36.1252 19.5768 35.9961C19.4088 35.867 19.2882 35.6859 19.2336 35.4811L17.2519 28.0502L15.2702 35.4811C15.2045 35.7275 15.0436 35.9377 14.8231 36.0654C14.6025 36.1932 14.3403 36.228 14.094 36.1622C13.8478 36.0965 13.6378 35.9356 13.5101 35.7148C13.3825 35.4941 13.3476 35.2317 13.4133 34.9853L15.6425 26.6319C15.697 26.4272 15.8176 26.2462 15.9855 26.1171C16.1534 25.988 16.3592 25.918 16.5709 25.918H17.9347C18.1464 25.918 18.3522 25.988 18.5201 26.1171C18.688 26.2462 18.8086 26.4272 18.8631 26.6319L21.0922 34.9853C21.1303 35.1278 21.135 35.2771 21.1062 35.4217C21.0773 35.5664 21.0156 35.7024 20.9258 35.8194C20.836 35.9363 20.7205 36.031 20.5883 36.0962C20.456 36.1613 20.3106 36.1951 20.1632 36.195H20.1626Z" fill="#703391" stroke="#703391"/>
<path d="M19.3191 33.0246H15.1894C14.9345 33.0246 14.6901 32.9233 14.5099 32.743C14.3297 32.5627 14.2285 32.3181 14.2285 32.0631C14.2285 31.8081 14.3297 31.5635 14.5099 31.3832C14.6901 31.2029 14.9345 31.1016 15.1894 31.1016H19.3191C19.574 31.1016 19.8184 31.2029 19.9986 31.3832C20.1787 31.5635 20.28 31.8081 20.28 32.0631C20.28 32.3181 20.1787 32.5627 19.9986 32.743C19.8184 32.9233 19.574 33.0246 19.3191 33.0246Z" fill="#703391" stroke="#703391"/>
<path d="M33.012 32.0183H29.9001C29.6283 32.018 29.3678 31.9098 29.1756 31.7175C28.9834 31.5252 28.8753 31.2644 28.875 30.9925V26.9438C28.8753 26.6718 28.9834 26.4111 29.1756 26.2188C29.3678 26.0265 29.6283 25.9183 29.9001 25.918H33.012C33.813 25.9292 34.5773 26.2555 35.1397 26.8263C35.7022 27.3971 36.0175 28.1665 36.0175 28.9681C36.0175 29.7698 35.7022 30.5392 35.1397 31.11C34.5773 31.6808 33.813 32.0071 33.012 32.0183ZM30.7967 30.0952H33.012C33.3062 30.0884 33.5861 29.9667 33.7917 29.7561C33.9974 29.5454 34.1126 29.2626 34.1126 28.9681C34.1126 28.6736 33.9974 28.3908 33.7917 28.1802C33.5861 27.9696 33.3062 27.8478 33.012 27.841H30.7967V30.0952Z" fill="#703391" stroke="#703391"/>
<path d="M33.5711 36.1935H29.9001C29.6283 36.1932 29.3678 36.085 29.1756 35.8927C28.9834 35.7004 28.8753 35.4396 28.875 35.1677V31.1196C28.8753 30.8476 28.9834 30.5869 29.1756 30.3946C29.3678 30.2022 29.6283 30.0941 29.9001 30.0938H33.5711C34.3794 30.0938 35.1546 30.4151 35.7261 30.987C36.2976 31.559 36.6187 32.3347 36.6187 33.1436C36.6187 33.9525 36.2976 34.7282 35.7261 35.3002C35.1546 35.8722 34.3794 36.1935 33.5711 36.1935ZM30.7967 34.2704H33.5711C33.8697 34.2704 34.1561 34.1517 34.3673 33.9404C34.5784 33.7291 34.6971 33.4425 34.6971 33.1436C34.6971 32.8448 34.5784 32.5582 34.3673 32.3469C34.1561 32.1355 33.8697 32.0168 33.5711 32.0168H30.7967V34.2704Z" fill="#703391" stroke="#703391"/>
<path d="M22.8486 38.7395C22.6976 38.739 22.5487 38.7029 22.4142 38.6341C22.2797 38.5654 22.1633 38.4658 22.0745 38.3436C21.9856 38.2213 21.9268 38.0799 21.9028 37.9306C21.8788 37.7814 21.8903 37.6286 21.9364 37.4846L26.2349 24.04C26.2717 23.9177 26.3325 23.8039 26.4136 23.7054C26.4948 23.6069 26.5948 23.5255 26.7077 23.466C26.8206 23.4066 26.9443 23.3702 27.0714 23.3591C27.1985 23.348 27.3266 23.3623 27.4481 23.4013C27.5697 23.4403 27.6822 23.503 27.7792 23.586C27.8763 23.669 27.9558 23.7704 28.0132 23.8845C28.0706 23.9986 28.1047 24.1229 28.1136 24.2503C28.1224 24.3777 28.1058 24.5056 28.0647 24.6265L23.7632 38.0712C23.7011 38.2652 23.5791 38.4344 23.4147 38.5545C23.2504 38.6746 23.0521 38.7394 22.8486 38.7395Z" fill="#703391" stroke="#703391"/>
</svg>
