<svg width="56" height="54" viewBox="0 0 56 54" fill="none" xmlns="http://www.w3.org/2000/svg">
<path fill-rule="evenodd" clip-rule="evenodd" d="M2.80311 0H53.1969C54.7388 0 56 0.220958 56 1.72272V40.4297C56 41.9315 54.7388 43.1597 53.1969 43.1597H2.80311C1.26124 43.1597 0 41.9315 0 40.4297V1.72272C0 0.220958 1.26124 0 2.80311 0ZM26.1707 29.34C25.9666 29.2742 25.7494 29.2381 25.5236 29.2381C25.2753 29.2381 25.037 29.2818 24.8148 29.3609L20.7741 24.4504L20.7729 24.4517C20.7181 24.3852 20.6509 24.327 20.5732 24.2814C20.2172 24.0731 19.763 24.1984 19.5583 24.5606L16.9201 29.2216C16.9002 29.2564 16.8691 29.278 16.8299 29.2837C16.7907 29.2894 16.7546 29.2773 16.726 29.2501L15.008 27.5793C15.1188 27.3172 15.1804 27.0285 15.1804 26.7252C15.1804 25.5293 14.2277 24.56 13.0524 24.56C11.877 24.56 10.9244 25.5293 10.9244 26.7252C10.9244 27.0601 10.999 27.378 11.1328 27.661L8.01609 31.1026C7.73733 31.4109 7.75724 31.8902 8.05964 32.1738C8.36267 32.4575 8.83369 32.4372 9.11244 32.1295L12.2068 28.7126C12.4662 28.8272 12.7518 28.8905 13.0524 28.8905C13.3846 28.8905 13.6988 28.8133 13.9788 28.6746L16.4976 31.1248C16.7956 31.4135 17.2673 31.4014 17.5504 31.0982C17.6033 31.0412 17.6462 30.9785 17.6786 30.912L20.2253 26.4125C20.2465 26.3757 20.2807 26.3529 20.3224 26.3498C20.3641 26.346 20.4014 26.3618 20.4288 26.3947L23.6718 30.3359C23.4957 30.6512 23.3949 31.0159 23.3949 31.404C23.3949 32.5999 24.3476 33.5692 25.5229 33.5692C26.6983 33.5692 27.6509 32.5999 27.6509 31.404C27.6509 30.9918 27.5377 30.6069 27.3417 30.2789L37.0322 17.7482C37.2643 17.8362 37.515 17.885 37.7776 17.885C38.953 17.885 39.9056 16.9157 39.9056 15.7197C39.9056 14.5238 38.953 13.5544 37.7776 13.5544C36.6022 13.5544 35.6496 14.5238 35.6496 15.7197C35.6496 16.0933 35.7423 16.4446 35.906 16.7511L26.1707 29.34ZM19.3486 15.4532C18.3705 15.4532 17.5772 16.2604 17.5772 17.2557C17.5772 18.2509 18.3705 19.0582 19.3486 19.0582C20.3268 19.0582 21.1201 18.2509 21.1201 17.2557C21.1201 16.9961 21.066 16.7498 20.9695 16.5269L22.5095 14.96C22.8013 14.663 22.8013 14.1825 22.5095 13.8856C22.2177 13.5886 21.7454 13.5886 21.4536 13.8856L19.8433 15.5241C19.6859 15.4779 19.5204 15.4532 19.3486 15.4532ZM11.3929 20.5143C11.5117 20.7733 11.77 20.9531 12.0699 20.9531H14.7311C15.1436 20.9531 15.4778 20.6131 15.4778 20.1933C15.4778 19.7736 15.1436 19.4336 14.7311 19.4336H12.5925C12.544 19.4336 12.5017 19.407 12.4805 19.362C12.2684 18.9176 12.0966 18.4485 11.9703 17.9616C11.8695 17.5741 11.798 17.1734 11.7575 16.7606H12.2951C12.7076 16.7606 13.0418 16.4206 13.0418 16.0008C13.0418 15.5811 12.7076 15.2411 12.2951 15.2411H11.7513C11.8963 13.6393 12.5179 12.178 13.4705 11.0055L13.8588 11.4006C14.1506 11.6975 14.6228 11.6975 14.9147 11.4006C15.2065 11.1043 15.2065 10.6231 14.9147 10.3262L14.5289 9.93364C15.6825 8.9732 17.1173 8.34831 18.6884 8.20712V8.73578C18.6884 9.15554 19.0226 9.49552 19.4351 9.49552C19.8476 9.49552 20.1818 9.15554 20.1818 8.73578V8.21979C21.7348 8.38566 23.1492 9.02448 24.2841 9.99189L23.9556 10.3262C23.6644 10.6231 23.6644 11.1036 23.9556 11.4006C24.2474 11.6975 24.7196 11.6975 25.0115 11.4006L25.3307 11.0764C26.2509 12.2369 26.8508 13.6716 26.9926 15.2411H26.5751C26.1626 15.2411 25.8284 15.5811 25.8284 16.0008C25.8284 16.4206 26.1626 16.7606 26.5751 16.7606H26.9864C26.946 17.1727 26.8738 17.5741 26.7736 17.9616C26.6473 18.4491 26.4749 18.9176 26.2634 19.362C26.2422 19.407 26.2005 19.4336 26.1514 19.4336H24.0116C23.599 19.4336 23.2649 19.7736 23.2649 20.1933C23.2649 20.6131 23.599 20.9531 24.0116 20.9531H26.6728C26.9721 20.9531 27.2309 20.7739 27.3498 20.5143C27.7225 19.8394 28.0149 19.1126 28.2134 18.3472C28.3833 17.6944 28.4853 17.0163 28.5115 16.3224C28.5563 16.2249 28.5818 16.116 28.5818 16.0008C28.5818 15.8881 28.5575 15.7811 28.5146 15.6849C28.4461 13.3183 27.5091 11.1739 26.017 9.56896C25.9859 9.51578 25.9479 9.46576 25.9031 9.41955C25.8614 9.37713 25.816 9.34041 25.7675 9.31002C24.118 7.66897 21.8612 6.65661 19.3723 6.65661C16.8467 6.65661 14.56 7.69809 12.9049 9.38282C11.2498 11.0669 10.2256 13.3936 10.2256 15.9635C10.2256 16.7827 10.3314 17.5811 10.5299 18.3465C10.7277 19.1126 11.0202 19.8394 11.3929 20.5143ZM45.4054 21.7413C45.2001 21.7413 45.0321 21.9123 45.0321 22.1212V32.7025C45.0321 32.9114 45.2001 33.0824 45.4054 33.0824H47.8078C48.0132 33.0824 48.1812 32.9114 48.1812 32.7025V22.1212C48.1812 21.9123 48.0132 21.7413 47.8078 21.7413H45.4054ZM38.9891 25.5843C38.7837 25.5843 38.6157 25.7553 38.6157 25.9642V32.7025C38.6157 32.9114 38.7837 33.0824 38.9891 33.0824H41.3915C41.5968 33.0824 41.7648 32.9114 41.7648 32.7025V25.9642C41.7648 25.7553 41.5968 25.5843 41.3915 25.5843H38.9891ZM32.4819 28.1782C32.2765 28.1782 32.1085 28.3492 32.1085 28.5581V32.7019C32.1085 32.9108 32.2765 33.0817 32.4819 33.0817H34.8843C35.0896 33.0817 35.2576 32.9108 35.2576 32.7019V28.5581C35.2576 28.3492 35.0896 28.1782 34.8843 28.1782H32.4819ZM15.838 50.226H22.9955C23.7384 48.602 24.1565 46.8217 24.3046 44.9128C24.3146 44.7805 24.4222 44.6798 24.5529 44.6798H31.4471C31.5772 44.6798 31.6848 44.7811 31.6954 44.9128C31.8435 46.8223 32.2616 48.602 33.0045 50.226H40.162C41.1818 50.226 42.0162 51.075 42.0162 52.1127V53.6201C42.0162 53.8291 41.8482 54 41.6428 54H14.3565C14.1512 54 13.9832 53.8291 13.9832 53.6201V52.1127C13.9832 51.075 14.8176 50.226 15.838 50.226ZM26.7929 41.1635H28.6415C29.054 41.1635 29.3882 40.8235 29.3882 40.4038C29.3882 39.984 29.054 39.644 28.6415 39.644H26.7929C26.3804 39.644 26.0462 39.984 26.0462 40.4038C26.0462 40.8235 26.3804 41.1635 26.7929 41.1635ZM3.84036 3.55306C3.70347 3.55306 3.59209 3.66576 3.59147 3.80505L3.42284 37.3926C3.42222 37.4623 3.44649 37.5231 3.49502 37.5725C3.54356 37.6218 3.60267 37.6472 3.67173 37.6472H52.3301C52.467 37.6472 52.5784 37.5345 52.579 37.3952L52.7476 3.80694C52.7483 3.73667 52.724 3.67652 52.6755 3.62714C52.6269 3.57776 52.5678 3.55243 52.4988 3.55243L3.84036 3.55306Z" fill="#703391"/>
</svg>
