<svg width="48" height="48" viewBox="0 0 48 48" fill="none" xmlns="http://www.w3.org/2000/svg">
<path d="M4.09365 2L4.49378 2.09865V4.46637L5.23267 4.46504C7.53864 4.461 9.84463 4.45806 12.1506 4.45616C13.3359 4.45512 14.5212 4.45375 15.7066 4.45148C16.7408 4.44951 17.7751 4.44823 18.8094 4.4478L19.5986 4.44715C19.8821 4.44679 20.1656 4.44626 20.4491 4.44551C24.7336 4.4346 28.7781 4.54934 32.7028 6.43946L32.9188 6.54231C35.7129 7.88751 38.1813 9.97735 40.0051 12.4574L40.1299 12.6254C43.2043 16.8139 44.3561 22.0761 43.559 27.1627C43.0477 30.0614 41.9904 32.9527 40.1744 35.3158C40.0531 35.4783 39.9386 35.6458 39.8289 35.8161C39.4981 36.2856 39.3733 36.4628 39.2025 36.5666C39.0989 36.6296 38.9784 36.6655 38.7848 36.7232C38.4054 36.7532 38.0405 36.75 37.6602 36.7338C37.6003 36.7329 37.5404 36.7321 37.4805 36.7314C37.4027 36.7305 37.3248 36.7297 37.2469 36.7291C36.8871 36.725 36.5277 36.7144 36.168 36.7023C35.8297 36.6921 35.4914 36.6871 35.153 36.6821L35.0635 36.6808C34.343 36.6692 33.623 36.6507 32.9028 36.6278C33.0179 36.2873 33.1789 36.1768 33.4406 35.9974C33.4817 35.9692 33.5254 35.9392 33.5718 35.9064C36.7109 33.5971 38.6524 30.014 39.2795 26.2363C39.8498 22.368 38.8762 18.2891 36.5535 15.1125C34.0826 11.879 30.5473 9.58167 26.4459 8.9806C25.25 8.81744 24.0833 8.76639 22.8772 8.77358C22.6759 8.77366 22.4745 8.77361 22.2731 8.77344C21.7342 8.77336 21.1954 8.77508 20.6565 8.77716C20.1478 8.77884 19.639 8.77914 19.1303 8.77943L18.9584 8.77954C17.8899 8.78045 16.8215 8.78287 15.7531 8.78586C14.5353 8.78918 13.3175 8.7908 12.0996 8.79228C9.59769 8.79536 7.09575 8.80062 4.59381 8.80718L4.49378 11.0762L3.99362 11.1749C3.76907 10.9845 3.5946 10.81 3.40593 10.5891L3.2454 10.4092C3.0932 10.2381 2.94309 10.0655 2.79323 9.89238C2.67039 9.75458 2.54745 9.61685 2.42437 9.47926L2.26299 9.29544C1.88318 8.86575 1.49435 8.44377 1.1056 8.02189L1.10494 8.02116L0.94577 7.84837L0.705068 7.58632L0.48703 7.34971L0.292436 7.13004L0.110347 6.92888C0.0469845 6.825 0.0176416 6.7769 0.00804386 6.72524C-0.000222937 6.6807 0.0061878 6.6335 0.0181301 6.54558C0.100639 6.31802 0.192881 6.20135 0.36199 6.02789L0.527936 5.85517L0.705068 5.67489C0.824857 5.55049 0.944549 5.42601 1.06417 5.30146L1.238 5.12145C1.41748 4.93385 1.59082 4.74181 1.76166 4.54652C2.08882 4.17262 2.42617 3.80813 2.76373 3.44343L2.7652 3.44184L2.84989 3.35034C3.11946 3.05676 3.384 2.7593 3.64624 2.45936L3.79355 2.29596L3.93774 2.12024L4.09365 2Z" fill="#703391"/>
<path d="M10.3105 11.3048C10.4487 11.306 10.5869 11.307 10.725 11.3077C11.0873 11.3103 11.4493 11.3171 11.8114 11.3248C12.1533 11.3313 12.4952 11.3345 12.8372 11.3377L12.9219 11.3385C13.6471 11.3459 14.3721 11.3576 15.0972 11.3722C14.9821 11.7127 14.8211 11.8231 14.5595 12.0026C14.5183 12.0308 14.4746 12.0608 14.4282 12.0936C11.3409 14.3648 9.35618 17.9131 8.75429 21.6399C8.182 25.5484 9.04718 29.6879 11.4625 32.8876C11.9416 33.5048 12.4559 34.0892 12.9965 34.6547L13.1966 34.8713C15.0804 36.8348 17.688 38.1174 20.3176 38.7859L20.5401 38.843C22.0309 39.1935 23.5422 39.2212 25.066 39.2152C25.2673 39.2152 25.4686 39.2152 25.6699 39.2153C26.2108 39.2154 26.7518 39.2142 27.2928 39.2128C27.5651 39.2122 27.8374 39.2119 28.1097 39.2117L28.9949 39.2113C30.0669 39.2106 31.1389 39.209 32.2109 39.207C33.4323 39.2048 34.6538 39.2037 35.8752 39.2027C38.3855 39.2007 40.8959 39.1972 43.4062 39.1928L43.5062 36.9238L44.0064 36.8251C44.2309 37.0155 44.4054 37.19 44.5941 37.4109L44.7548 37.591C44.907 37.762 45.057 37.9346 45.2068 38.1076C45.271 38.1799 45.3353 38.2521 45.3997 38.3243C45.4562 38.3877 45.5128 38.4512 45.5694 38.5146L45.7296 38.6972C45.9511 38.9465 46.1774 39.1912 46.404 39.436L46.4071 39.4395C46.7622 39.8237 47.1159 40.2086 47.4598 40.6025C47.59 40.7513 47.7236 40.8972 47.8576 41.0426C47.9434 41.1695 47.9801 41.2238 47.9914 41.2829C47.9999 41.3272 47.9941 41.3741 47.9839 41.4562C47.8994 41.6811 47.8059 41.7999 47.638 41.9721L47.4721 42.1448L47.2949 42.3251C47.1752 42.4495 47.0555 42.574 46.9358 42.6985L46.762 42.8786C46.5825 43.0662 46.4092 43.2582 46.2383 43.4535C45.9113 43.8272 45.5741 44.1915 45.2367 44.5561L45.2363 44.5566L45.2348 44.5582L45.1501 44.6497C44.8806 44.9433 44.616 45.2407 44.3538 45.5406L44.2064 45.704L44.0623 45.8798L43.9063 46L43.5062 45.9013V43.5336L42.7673 43.535C40.4614 43.539 38.1554 43.5419 35.8494 43.5439C34.6641 43.5449 33.4788 43.5463 32.2934 43.5485C31.2592 43.5505 30.2249 43.5518 29.1906 43.5522C28.644 43.5525 28.0975 43.553 27.5509 43.5545C23.2664 43.5654 19.2219 43.4507 15.2972 41.5605L15.0812 41.4577C12.2871 40.1125 9.81873 38.0226 7.99489 35.5426L7.8701 35.3746C5.52682 32.1822 4.33274 28.4106 4.19368 24.4933L4.18118 24.2089C4.11116 21.1792 4.85128 18.1295 6.19432 15.417L6.2986 15.204C6.85248 14.085 7.51394 13.0424 8.29499 12.0628L8.39696 11.888C8.82625 11.2504 9.40649 11.2719 10.0951 11.2975C10.1657 11.3001 10.2376 11.3028 10.3105 11.3048Z" fill="#703391"/>
<path fill-rule="evenodd" clip-rule="evenodd" d="M24.3804 12.8929L23.9937 12.9013C23.9368 12.9012 23.8775 12.8997 23.8166 12.8974C23.7653 12.8955 23.7128 12.8932 23.6595 12.8907C23.0506 12.8631 22.3402 12.8309 22.1236 13.4705L22.0869 13.7214L22.0408 13.9873C21.9778 14.3608 21.8962 14.6751 21.6883 14.997C21.2487 15.5646 20.6572 15.9452 19.9331 16.046C19.3735 16.0593 18.8643 16.015 18.4088 15.6668L18.3679 15.6341C18.0394 15.3709 17.8592 15.2265 17.4104 15.1766C17.2782 15.1948 17.1842 15.2078 17.0963 15.2382C16.88 15.3129 16.7011 15.4928 16.0818 16.1157C15.9871 16.2118 15.8923 16.3077 15.7974 16.4036C15.7733 16.4272 15.7495 16.4503 15.7262 16.473L15.7232 16.4759C15.3787 16.8107 15.1223 17.06 15.0284 17.5566C15.065 17.7307 15.0821 17.812 15.1166 17.8855C15.1468 17.9499 15.1904 18.0082 15.2721 18.1176L15.2722 18.1177C15.5765 18.4678 15.7559 18.8258 15.8974 19.2646C16.0163 20.0236 15.8083 20.6412 15.3722 21.2623C14.8862 21.7417 14.5017 21.9243 13.8343 22.0207C13.498 22.0545 13.3075 22.1191 13.016 22.292C12.9141 22.4437 12.8493 22.5402 12.8081 22.6457C12.7361 22.8302 12.7366 23.0421 12.7378 23.6248L12.7464 24.0062C12.7463 24.0717 12.7458 24.1372 12.7454 24.2027L12.7454 24.2101V24.2103C12.7428 24.602 12.7403 24.9927 12.7964 25.3812C12.9559 25.6474 13.0249 25.7522 13.3235 25.8505L13.5779 25.8868L13.8475 25.9322C14.2263 25.9943 14.5449 26.0749 14.8713 26.2798C15.4468 26.7134 15.8327 27.2968 15.9349 28.0109C15.9484 28.5628 15.9036 29.065 15.5504 29.5143L15.5173 29.5545C15.2505 29.8785 15.1041 30.0563 15.0534 30.4989C15.0719 30.6293 15.0851 30.722 15.1158 30.8086C15.1916 31.0219 15.374 31.1984 16.0057 31.8091C16.0558 31.8572 16.1059 31.9054 16.156 31.9535L16.2975 32.0897C16.3225 32.1145 16.3469 32.1389 16.3709 32.1629C16.7103 32.5026 16.9631 32.7555 17.4667 32.8481C17.6432 32.812 17.7257 32.7951 17.8001 32.7611C17.8654 32.7313 17.9245 32.6883 18.0354 32.6077L18.0356 32.6076C18.3915 32.3068 18.7509 32.1274 19.1985 31.991C19.99 31.8826 20.5636 32.0535 21.2179 32.509C21.7112 32.9847 21.8951 33.3659 21.9931 34.0258C22.0273 34.3574 22.0928 34.5453 22.2682 34.8327C22.422 34.9333 22.5198 34.9972 22.6268 35.0378C22.8138 35.1088 23.0288 35.1084 23.6196 35.1071L24.0063 35.0987C24.0484 35.0987 24.0906 35.0989 24.1327 35.0992L24.2055 35.0996L24.213 35.0997H24.2133C24.6104 35.1022 25.0066 35.1047 25.4004 35.0493C25.6704 34.8921 25.7767 34.824 25.8764 34.5295L25.9131 34.2786L25.9592 34.0127C26.0221 33.6392 26.1038 33.325 26.3117 33.003C26.7513 32.4354 27.3428 32.0549 28.0669 31.954C28.6265 31.9407 29.1357 31.985 29.5912 32.3332L29.632 32.3659C29.9606 32.6291 30.1408 32.7735 30.5896 32.8234C30.7218 32.8052 30.8158 32.7922 30.9037 32.7618C31.12 32.6871 31.2989 32.5072 31.9181 31.8843C32.0129 31.7882 32.1077 31.6923 32.2026 31.5964C32.2267 31.5728 32.2505 31.5497 32.2738 31.5271L32.2768 31.5241L32.2769 31.5241C32.6213 31.1893 32.8777 30.94 32.9716 30.4434C32.935 30.2693 32.9179 30.188 32.8834 30.1145C32.8532 30.0501 32.8096 29.9918 32.7279 29.8824L32.7278 29.8823C32.4228 29.5313 32.2409 29.1768 32.1026 28.7354C31.9926 27.9548 32.1659 27.3891 32.6278 26.7438C33.1102 26.2573 33.4966 26.0759 34.1657 25.9793C34.5019 25.9455 34.6925 25.8809 34.984 25.708C35.0859 25.5563 35.1507 25.4598 35.1919 25.3543C35.2639 25.1699 35.2634 24.9579 35.2622 24.3752L35.2536 23.9938C35.2537 23.9258 35.2542 23.8578 35.2546 23.7899V23.7897C35.2572 23.398 35.2597 23.0073 35.2036 22.6188C35.0441 22.3526 34.9751 22.2478 34.6765 22.1495L34.4221 22.1132L34.1525 22.0678C33.7737 22.0057 33.4551 21.9252 33.1287 21.7202C32.5532 21.2866 32.1673 20.7032 32.0651 19.9891C32.0516 19.4372 32.0964 18.935 32.4496 18.4857L32.4827 18.4455C32.7496 18.1215 32.8959 17.9437 32.9466 17.5011C32.9281 17.3707 32.9149 17.278 32.8842 17.1914C32.8084 16.9781 32.6259 16.8016 31.9943 16.1909C31.8969 16.0975 31.7996 16.0039 31.7025 15.9103L31.678 15.886C31.6615 15.8695 31.6452 15.8532 31.6291 15.8371C31.2896 15.4974 31.0368 15.2445 30.5333 15.1519C30.3568 15.188 30.2743 15.2049 30.1999 15.2389C30.1346 15.2687 30.0755 15.3117 29.9645 15.3923L29.9644 15.3924C29.6085 15.6932 29.2491 15.8726 28.8015 16.009C28.01 16.1174 27.4364 15.9465 26.7821 15.491C26.2888 15.0153 26.1049 14.6341 26.0069 13.9742C25.9727 13.6426 25.9072 13.4547 25.7318 13.1673L25.7317 13.1672L25.7313 13.1669C25.5778 13.0666 25.48 13.0027 25.3732 12.9622C25.1862 12.8912 24.9712 12.8917 24.3804 12.8929ZM18.5983 24.6906C18.4689 22.9582 18.9766 21.5847 20.0988 20.2511C21.5949 18.6255 24.1477 18.2512 26.1444 19.0796C27.7265 19.831 28.6376 20.9237 29.2126 22.5352C29.6463 24.0705 29.3776 25.4853 28.6015 26.861C27.7117 28.1476 26.4917 28.983 24.9269 29.285C23.339 29.491 22.0275 29.1589 20.7177 28.2545C19.5566 27.379 18.8046 26.1296 18.5983 24.6906Z" fill="#703391"/>
<path d="M3.99362 36.8251L4.49378 36.9238L4.59381 39.1928L5.25535 39.1763C5.47059 39.1747 5.68575 39.1749 5.90099 39.1754C6.04875 39.1747 6.19652 39.1721 6.3442 39.1675C7.1884 39.1423 7.48075 39.1336 7.71904 39.2413C7.84527 39.2984 7.95633 39.3881 8.12623 39.5254C8.37666 39.7597 8.59465 40.0191 8.81431 40.2806L8.81903 40.2862C8.84437 40.3163 8.86975 40.3465 8.89518 40.3767C10.0041 41.3581 11.239 42.227 12.5256 42.966C12.6243 43.0291 12.6871 43.0691 12.7463 43.1137C12.8496 43.1914 12.9423 43.2829 13.1966 43.5336H4.49378V45.9013L4.09365 46C3.9982 45.9292 3.94585 45.8903 3.89688 45.8477C3.8374 45.7959 3.78292 45.7386 3.66226 45.6115L3.42273 45.3618C3.17 45.0867 2.91903 44.8106 2.67366 44.529C2.38694 44.2016 2.0925 43.8808 1.79808 43.5601L1.79793 43.5599C1.72954 43.4854 1.66115 43.4109 1.59285 43.3363C1.36414 43.0865 1.13558 42.8367 0.908258 42.5856C0.766526 42.4306 0.622766 42.2774 0.47687 42.1263L0.279932 41.9182L0.104095 41.737C0.0470211 41.6469 0.0190947 41.6028 0.00729899 41.5548C-0.00399611 41.5089 -0.000479367 41.4594 0.0064076 41.3625C0.103826 41.1398 0.213737 40.9995 0.379964 40.8206L0.569869 40.6141L0.792596 40.3767C0.928296 40.2307 1.064 40.0847 1.19966 39.9387C1.24867 39.8859 1.2977 39.8333 1.34675 39.7806C1.39363 39.7303 1.44053 39.68 1.48745 39.6297C1.80306 39.2912 2.11274 38.9484 2.41811 38.6009C2.62809 38.3642 2.84189 38.1312 3.05582 37.898C3.37727 37.5468 3.69041 37.1917 3.99362 36.8251Z" fill="#703391"/>
<path d="M44.3878 2.45011C44.1388 2.19461 43.9702 2.04227 43.6063 2L43.5062 2.09865V4.46637H34.8034C35.0577 4.71715 35.1504 4.80855 35.2537 4.88628C35.3129 4.93086 35.3756 4.97094 35.4744 5.03402C36.761 5.77301 37.996 6.64195 39.1048 7.62332C39.1319 7.65542 39.1589 7.68753 39.1858 7.71961C39.4055 7.98097 39.6234 8.24032 39.8738 8.47465C40.0437 8.6119 40.1547 8.70162 40.281 8.75868C40.5192 8.86637 40.8116 8.85767 41.6558 8.83254C41.8035 8.8279 41.9512 8.82532 42.099 8.82464C42.3143 8.82508 42.5294 8.82535 42.7447 8.82375L43.4062 8.80718L43.5062 11.0762L44.0064 11.1749C44.3096 10.8083 44.6227 10.4532 44.9442 10.102C45.1581 9.86883 45.3719 9.63577 45.5819 9.3991C45.8873 9.0516 46.1969 8.70885 46.5126 8.37031C46.6086 8.26739 46.7045 8.1644 46.8003 8.06134L47.2074 7.62332L47.4301 7.38593L47.62 7.17937C47.7863 7.00054 47.8962 6.86024 47.9936 6.63754C48.0005 6.54062 48.004 6.49113 47.9927 6.44517C47.9809 6.39719 47.953 6.35309 47.8959 6.26296L47.7201 6.08184L47.5231 5.87374C47.3772 5.72255 47.2335 5.56934 47.0917 5.41438C46.8644 5.16336 46.6359 4.91347 46.4071 4.66368C46.3412 4.59164 46.2752 4.51967 46.2091 4.4477C45.9113 4.1231 45.6134 3.79847 45.3228 3.46749C45.0861 3.19645 44.8458 2.92968 44.5995 2.66708L44.3878 2.45011Z" fill="#703391"/>
</svg>
