<svg width="48" height="48" viewBox="0 0 48 48" fill="none" xmlns="http://www.w3.org/2000/svg">
<g clip-path="url(#clip0_2503_315)">
<path d="M23.4887 0.745198C23.7826 0.876225 23.7826 0.876225 24.0937 0.937459C24.3515 0.837202 24.3515 0.837202 24.6269 0.685506C26.5534 -0.227682 28.9249 -0.337277 30.9375 0.374959C31.0345 0.40783 31.1316 0.440701 31.2315 0.474568C33.1814 1.20863 34.7344 2.6849 35.7187 4.49996C35.7868 4.72408 35.7868 4.72408 35.8125 4.87496C35.8852 4.88306 35.958 4.89115 36.0329 4.8995C38.2577 5.18887 40.209 6.297 41.6133 8.03902C42.8789 9.68694 43.558 11.7774 43.3372 13.8526C43.2469 14.6072 43.2469 14.6072 43.4879 15.305C43.7259 15.5602 43.7259 15.5602 43.9903 15.7917C45.2008 16.9083 45.8514 18.9252 45.9493 20.5386C46.0199 22.5553 45.6351 24.4861 44.4375 26.1562C44.3408 26.2564 44.2423 26.3549 44.1423 26.4517C43.4916 27.0728 43.4916 27.0728 43.2678 27.9129C43.2852 28.3149 43.3369 28.7128 43.3857 29.1119C43.5401 30.8563 42.7769 32.9134 41.7129 34.2597C41.5906 34.403 41.4677 34.5456 41.3437 34.6875C41.2977 34.7458 41.2516 34.8042 41.2042 34.8643C40.1641 36.1681 38.6348 36.8189 37.125 37.4062C37.1485 37.4543 37.1721 37.5023 37.1963 37.5519C37.6869 38.5533 38.1771 39.5548 38.6667 40.5567C38.7107 40.6466 38.7547 40.7365 38.8 40.8291C39.1863 41.62 39.5668 42.4136 39.9441 43.2088C40.1824 43.7083 40.4257 44.2053 40.6692 44.7022C40.7095 44.7846 40.7498 44.867 40.7914 44.9519C40.9948 45.3675 41.1985 45.7829 41.4028 46.198C41.4779 46.3515 41.5531 46.505 41.6283 46.6585C41.663 46.7287 41.6977 46.799 41.7335 46.8713C41.7658 46.9376 41.7982 47.0039 41.8315 47.0722C41.8597 47.1294 41.8878 47.1866 41.9167 47.2455C42.023 47.4906 42.103 47.7465 42.1875 48C37.98 48 33.7725 48 29.4375 48C29.0972 47.2884 28.7569 46.5768 28.4062 45.8437C27.9226 44.8513 27.9226 44.8513 27.4368 43.8601C27.3325 43.6478 27.2286 43.4353 27.1249 43.2227C27.0932 43.1587 27.0616 43.0947 27.029 43.0287C26.8125 42.5838 26.8125 42.5838 26.8125 42.375C26.7042 42.3711 26.5959 42.3672 26.4844 42.3632C25.8959 42.3006 25.3681 42.0724 24.8221 41.8568C24.7621 41.8335 24.7021 41.8102 24.6403 41.7862C24.4831 41.7243 24.327 41.6596 24.171 41.5946C23.8407 41.5155 23.7316 41.5695 23.4375 41.7304C22.7423 42.0785 21.9718 42.375 21.1875 42.375C21.1669 42.4463 21.1464 42.5175 21.1252 42.591C20.9512 43.0725 20.7234 43.5225 20.4961 43.9808C20.4468 44.0808 20.3976 44.1809 20.3469 44.284C20.1899 44.6029 20.0325 44.9216 19.875 45.2402C19.7175 45.5592 19.5602 45.8783 19.4031 46.1974C19.3054 46.3957 19.2075 46.594 19.1095 46.7921C19.065 46.8823 19.0206 46.9724 18.9748 47.0652C18.9358 47.1441 18.8969 47.223 18.8567 47.3042C18.7496 47.5321 18.656 47.7662 18.5625 48C14.355 48 10.1475 48 5.81248 48C6.11088 47.2838 6.40988 46.5954 6.76169 45.9082C7.11348 45.2126 7.45842 44.5145 7.79294 43.8105C8.23893 42.8724 8.69191 41.9378 9.14646 41.0039C9.72862 39.8074 10.3063 38.6091 10.875 37.4062C10.7407 37.3551 10.7407 37.3551 10.6036 37.3029C9.49575 36.875 8.51144 36.3914 7.59373 35.625C7.53233 35.5772 7.47094 35.5295 7.40769 35.4803C5.72171 34.1147 4.83786 31.9639 4.61277 29.8524C4.5833 29.4556 4.62035 29.0734 4.65797 28.6782C4.74867 27.9058 4.74867 27.9058 4.53623 27.1812C4.32671 26.9549 4.32671 26.9549 4.08872 26.7528C2.82968 25.6142 2.15031 23.5719 2.05064 21.93C1.96598 19.5102 2.58654 17.3234 4.25212 15.511C4.63287 15.0878 4.69892 14.8429 4.66953 14.2833C4.65803 14.153 4.64643 14.0228 4.63474 13.8925C4.47034 11.6139 5.20886 9.44092 6.67673 7.69881C8.04915 6.13257 9.88589 5.25238 11.9062 4.87496C11.999 4.87496 12.0919 4.87496 12.1875 4.87496C12.2127 4.79206 12.238 4.70915 12.264 4.62374C12.8546 2.96707 14.4742 1.57105 16.0118 0.820523C18.4138 -0.299405 21.0685 -0.346599 23.4887 0.745198ZM15.8529 4.48201C15.0829 5.28639 14.25 6.62915 14.25 7.78121C14.1939 7.77924 14.1378 7.77728 14.08 7.77526C12.9787 7.74184 11.9957 7.71213 10.9687 8.15621C10.8867 8.18908 10.8046 8.22195 10.7201 8.25582C10.0738 8.54259 9.59069 8.97259 9.09373 9.46871C9.0327 9.52865 8.97167 9.58859 8.90879 9.65035C7.90743 10.7067 7.47337 12.1616 7.49998 13.5937C7.59048 14.453 7.81576 15.2991 8.06248 16.125C7.99105 16.1761 7.91963 16.2272 7.84605 16.2799C6.31795 17.3959 5.28528 18.6141 4.96873 20.5312C4.82157 22.0043 5.17714 23.4565 6.10361 24.6236C6.68413 25.2881 7.31347 25.8756 8.06248 26.3437C8.03692 26.4293 8.03692 26.4293 8.01084 26.5166C7.46996 28.4027 7.29173 30.0679 8.2064 31.8786C8.79006 32.8583 9.57952 33.6081 10.5937 34.125C10.701 34.1797 10.701 34.1797 10.8105 34.2356C11.6341 34.6273 12.413 34.7156 13.3183 34.6992C13.4084 34.6983 13.4985 34.6975 13.5913 34.6966C13.8109 34.6944 14.0304 34.6914 14.25 34.6875C14.2611 34.7418 14.2722 34.7962 14.2836 34.8523C14.4919 35.8365 14.8642 36.6934 15.4687 37.5C15.5076 37.5554 15.5466 37.6109 15.5866 37.668C16.3525 38.6701 17.6365 39.2991 18.8437 39.5625C20.8303 39.7241 22.3704 39.2504 23.9062 37.9687C24.2016 38.1044 24.4674 38.2744 24.738 38.4537C26.2429 39.4499 27.7117 39.8081 29.5158 39.5013C30.9898 39.0855 32.2219 38.1586 33 36.8437C33.5423 35.8134 33.5423 35.8134 33.75 34.6875C33.8037 34.6889 33.8575 34.6904 33.9128 34.6919C35.709 34.7346 37.1488 34.5684 38.5664 33.3398C39.7326 32.2228 40.4087 30.9046 40.5 29.2833C40.5 28.4074 40.2885 27.6054 40.0038 26.7824C39.9375 26.5312 39.9375 26.5312 40.0312 26.25C40.2363 26.0881 40.2363 26.0881 40.5 25.9101C41.8007 24.9812 42.6107 23.8548 42.9726 22.2923C43.216 20.8184 42.9477 19.334 42.0937 18.0937C41.481 17.3218 40.7739 16.6477 39.9375 16.125C39.9556 16.0592 39.9737 15.9935 39.9924 15.9257C40.0434 15.7401 40.0939 15.5543 40.144 15.3684C40.1865 15.2122 40.2298 15.0562 40.2759 14.9011C40.6835 13.4621 40.4854 12.0236 39.8437 10.6875C39.0228 9.26052 37.8283 8.37795 36.2812 7.87496C35.9533 7.79773 35.6521 7.77009 35.3155 7.77205C35.224 7.77236 35.1324 7.77266 35.0381 7.77297C34.8965 7.77415 34.8965 7.77415 34.7519 7.77535C34.6557 7.77577 34.5594 7.7762 34.4602 7.77663C34.2235 7.77773 33.9867 7.77927 33.75 7.78121C33.7333 7.69964 33.7333 7.69964 33.7164 7.61641C33.5087 6.63522 33.1401 5.76952 32.5312 4.96871C32.4822 4.90418 32.4331 4.83964 32.3825 4.77315C31.4451 3.62444 30.0788 3.00445 28.6289 2.8359C26.8739 2.71654 25.4263 3.41053 24.0937 4.49996C23.8022 4.36636 23.5421 4.19841 23.2764 4.0197C20.8598 2.40628 18.0509 2.43907 15.8529 4.48201ZM13.2187 39.375C13.1787 39.455 13.1387 39.535 13.0975 39.6174C13.07 39.6725 13.0424 39.7275 13.014 39.7843C12.9496 39.9132 12.8852 40.0422 12.8208 40.1712C12.6075 40.5985 12.3929 41.0252 12.1772 41.4514C12.0732 41.6577 11.9692 41.864 11.8652 42.0703C11.8172 42.1648 11.7691 42.2594 11.7196 42.3568C11.2504 43.2892 10.8361 44.2321 10.4062 45.1875C12.4481 45.1875 14.49 45.1875 16.5937 45.1875C17.3604 43.7563 17.3604 43.7563 18 42.2812C17.8934 42.2493 17.7868 42.2174 17.677 42.1845C16.0049 41.6669 14.5564 40.8931 13.4289 39.5094C13.3905 39.465 13.3521 39.4207 13.3125 39.375C13.2815 39.375 13.2506 39.375 13.2187 39.375ZM34.6875 39.375C34.5668 39.5123 34.448 39.6513 34.3301 39.791C33.1737 41.0801 31.6593 41.8493 30 42.2812C30.1282 42.5725 30.2573 42.8634 30.3867 43.1543C30.4222 43.235 30.4578 43.3158 30.4944 43.3991C30.7705 44.0181 31.0791 44.5878 31.4062 45.1875C33.4481 45.1875 35.49 45.1875 37.5937 45.1875C37.1045 44.1002 36.6205 43.0258 36.082 41.9648C35.9743 41.7512 35.8667 41.5376 35.759 41.3239C35.7069 41.2209 35.6548 41.1178 35.6011 41.0116C35.3262 40.4669 35.0537 39.9209 34.7812 39.375C34.7503 39.375 34.7194 39.375 34.6875 39.375Z" fill="#703391"/>
<path d="M33.145 10.3264C33.3826 10.536 33.6137 10.751 33.8438 10.9688C33.9325 11.0503 34.0212 11.1319 34.1126 11.216C34.8975 11.9543 35.5082 12.7856 36.0938 13.6875C36.13 13.7428 36.1663 13.7982 36.2036 13.8552C38.0946 16.7892 38.6516 20.6599 37.9677 24.0539C37.5251 26.0936 36.7303 28.0654 35.4375 29.7188C35.3747 29.8022 35.3118 29.8855 35.2471 29.9715C32.9069 32.9666 29.5263 34.8982 25.7484 35.3714C22.0725 35.7724 18.2836 34.8425 15.3497 32.554C14.9383 32.2161 14.5429 31.866 14.1563 31.5C14.0734 31.4232 13.9905 31.3463 13.905 31.2671C11.3008 28.7736 9.87627 25.179 9.75624 21.605C9.69395 18.5807 10.5446 15.6107 12.2813 13.125C12.3451 13.0333 12.4089 12.9416 12.4746 12.8471C14.672 9.84421 17.9543 7.8041 21.6251 7.17347C25.7615 6.5458 29.9381 7.62117 33.145 10.3264ZM16.0313 13.2188C15.9758 13.2682 15.9203 13.3176 15.8632 13.3685C14.8494 14.3101 14.1501 15.5298 13.5938 16.7813C13.526 16.9312 13.526 16.9312 13.4568 17.0841C12.3039 19.8406 12.4656 22.9841 13.5762 25.7227C14.8375 28.4859 17.1129 30.7399 19.9611 31.834C22.8453 32.8383 25.9803 32.8178 28.7695 31.5176C31.5346 30.1782 33.7043 27.8295 34.7212 24.9289C35.673 22.0944 35.4966 18.9949 34.2136 16.292C32.8454 13.5583 30.4578 11.4525 27.5684 10.4649C23.4039 9.13256 19.1776 10.2572 16.0313 13.2188Z" fill="#703391"/>
<path d="M28.6875 16.4062C29.1941 16.6468 29.5407 17.0336 29.9355 17.4258C30.0151 17.5023 30.0947 17.5788 30.1767 17.6576C30.2514 17.7317 30.3262 17.8058 30.4032 17.8821C30.5064 17.9834 30.5064 17.9834 30.6117 18.0867C30.75 18.2812 30.75 18.2812 30.7334 18.4572C30.6353 18.7102 30.5027 18.8444 30.3104 19.0359C30.2361 19.1106 30.1619 19.1852 30.0853 19.2622C30.0033 19.3432 29.9212 19.4243 29.8366 19.5078C29.7507 19.5938 29.6647 19.6798 29.5761 19.7684C29.3405 20.0042 29.1039 20.239 28.8672 20.4738C28.62 20.7193 28.3736 20.9655 28.127 21.2117C27.6601 21.6778 27.1925 22.1431 26.7246 22.6082C26.1919 23.1377 25.66 23.668 25.1282 24.1984C24.0343 25.2894 22.9394 26.3794 21.8438 27.4688C21.4508 27.1382 21.0714 26.8018 20.7085 26.4379C20.6654 26.3949 20.6224 26.3518 20.578 26.3074C20.4383 26.1677 20.2989 26.0276 20.1595 25.8875C20.0617 25.7894 19.9639 25.6915 19.866 25.5935C19.6104 25.3376 19.3551 25.0813 19.0999 24.8251C18.8386 24.5628 18.577 24.3008 18.3155 24.0388C17.8038 23.5261 17.2924 23.0132 16.7812 22.5C17.0218 21.9934 17.4086 21.6468 17.8008 21.252C17.8773 21.1724 17.9538 21.0928 18.0326 21.0108C18.1437 20.8987 18.1437 20.8987 18.2571 20.7843C18.3246 20.7155 18.3922 20.6467 18.4617 20.5758C18.6562 20.4375 18.6562 20.4375 18.8376 20.4595C19.0549 20.54 19.1613 20.6272 19.3234 20.7915C19.405 20.8731 19.405 20.8731 19.4883 20.9564C19.5458 21.0154 19.6033 21.0744 19.6626 21.1351C19.7523 21.2255 19.7523 21.2255 19.8439 21.3176C20.0346 21.5099 20.2243 21.7032 20.4141 21.8965C20.5433 22.0271 20.6725 22.1577 20.8019 22.2881C21.1187 22.608 21.4346 22.9288 21.75 23.25C22.2075 22.8689 22.6377 22.4692 23.0574 22.047C23.1187 21.9857 23.1801 21.9243 23.2433 21.8611C23.4439 21.6605 23.6441 21.4595 23.8444 21.2585C23.9842 21.1185 24.1241 20.9785 24.264 20.8385C24.6306 20.4716 24.9969 20.1044 25.3631 19.7371C25.7375 19.3618 26.1121 18.9867 26.4868 18.6116C27.2206 17.8767 27.9541 17.1416 28.6875 16.4062Z" fill="#703391"/>
</g>
<defs>
<clipPath id="clip0_2503_315">
<rect width="48" height="48" fill="white"/>
</clipPath>
</defs>
</svg>
