<svg width="48" height="48" viewBox="0 0 48 48" fill="none" xmlns="http://www.w3.org/2000/svg">
<path fill-rule="evenodd" clip-rule="evenodd" d="M23.9625 5.00164L24.1933 5.00225C28.001 5.01818 31.7275 6.10059 34.816 8.26612L34.9855 8.3848C36.2932 9.31188 37.4979 10.3533 38.4862 11.5942L38.7227 11.8755C40.4175 13.9016 40.8495 14.418 40.9596 14.9911C40.9973 15.1871 40.9973 15.3898 40.9973 15.6618L41.3474 15.6444C43.0052 15.6519 44.4842 16.3191 45.7299 17.3258L45.9215 17.4775C47.0401 18.4499 47.8741 20.064 47.9708 21.4984C47.9799 21.8374 47.9831 22.1759 47.9837 22.515L47.9857 22.8932C47.9868 23.1566 47.9872 23.42 47.9871 23.6834C47.987 24.0169 47.9897 24.3503 47.993 24.6837C47.9952 24.944 47.9955 25.2044 47.9954 25.4647C47.9956 25.5616 47.9963 25.6585 47.9972 25.7555C47.998 25.8399 47.999 25.9244 48 26.0089C47.9908 27.7769 47.3355 29.3009 46.08 30.5975L45.8264 30.8228L45.6578 30.989C44.3596 32.201 42.5842 32.6788 40.8041 32.6718C40.3805 32.6306 39.9657 32.5683 39.5486 32.4869L39.4818 32.6801C39.3267 33.0101 39.1136 33.2757 38.8785 33.5558L38.7363 33.7268C38.2605 34.2928 37.7539 34.827 37.2306 35.3527L37.0182 35.5708C34.6886 37.8954 31.5016 39.3994 28.2676 40.1591L28.0641 40.2075C27.9262 40.2381 27.7875 40.2651 27.6482 40.289C27.3161 40.3511 27.1297 40.3876 26.9177 40.6484L26.8057 40.9052C26.3428 41.8165 25.6535 42.3775 24.6748 42.7483L24.4085 42.8505C23.4156 43.1127 22.1975 43.0378 21.2944 42.5634C20.2526 41.973 19.5806 41.2166 19.2334 40.0988C18.9909 38.9247 19.1625 37.8845 19.8155 36.8607C20.4786 35.976 21.3373 35.4182 22.4602 35.2035C23.6401 35.0545 24.809 35.2822 25.7678 35.9771C26.24 36.3575 26.6327 36.754 26.8962 37.294V37.4789C29.9982 36.6739 32.5581 35.5319 34.9126 33.4113L35.0997 33.2503C36.2371 32.2297 37.1095 30.9446 37.8101 29.6211L37.9043 29.4442C39.7551 25.9256 40.0289 21.8153 38.7518 18.0769C38.4497 17.2322 38.0671 16.4426 37.6169 15.6618L37.4483 15.3631C36.8343 14.314 36.0649 13.3895 35.2023 12.5186L34.9409 12.2503C33.8117 11.1143 32.4993 10.278 31.0493 9.56036L30.8698 9.47085C27.3537 7.74151 23.139 7.47968 19.3819 8.59959C19.1495 8.67164 18.918 8.74555 18.6867 8.8208L18.4907 8.8839C16.5221 9.53318 14.7791 10.6943 13.2781 12.0564L12.9978 12.3066C10.1045 14.9415 8.55323 18.7593 8.44931 22.5468C8.42281 25.1354 9.08415 27.635 10.3334 29.9268C10.5802 30.3964 10.663 30.7888 10.513 31.3122C10.2762 31.7722 10.013 32.0131 9.51134 32.2095L9.32535 32.2865C7.59877 32.9183 5.72715 32.7231 4.04801 32.077C3.17556 31.6948 2.54485 31.1986 1.88131 30.5455L1.67947 30.3483C0.673179 29.3072 0.0429387 27.8924 0.0291446 26.4675L0.0253954 26.1278L0.0220471 25.574C0.0200192 25.2445 0.0186516 24.9151 0.017732 24.5856C0.0166709 24.2492 0.0133697 23.9129 0.00950264 23.5765C0.00848871 23.4722 0.00775774 23.3679 0.00721541 23.2636C0.00688529 23.1972 0.00662591 23.1308 0.00641369 23.0644C0.00613074 22.9732 0.0059421 22.882 0.0058242 22.7908C0.00514039 22.6078 0.00259377 22.4247 0 22.2417C0.00457447 20.3812 0.749553 18.8082 2.10428 17.4764C3.33519 16.3585 4.92062 15.6554 6.63197 15.6502L7.00019 15.6618L7.04681 15.5092C7.22432 14.9618 7.46318 14.4849 7.76682 13.992L7.90757 13.7621C8.38569 12.9965 8.92706 12.288 9.51134 11.5942L9.65353 11.4242C12.7038 7.80903 17.2456 5.54858 22.0587 5.04766C22.6732 4.99546 23.2907 4.99841 23.9072 5.00137H23.9074L23.9625 5.00164ZM42.1563 18.7125C42.2024 19.2169 42.2651 19.7148 42.3495 20.2147C42.7837 23.1366 42.3948 25.9906 41.4802 28.789L41.3931 29.0673C41.3637 29.1614 41.3344 29.2554 41.3052 29.3495C41.267 29.4709 41.2288 29.5922 41.1905 29.7135C42.0566 29.7872 42.8571 29.466 43.5235 28.9458C44.3005 28.262 44.8949 27.4495 44.9768 26.4153C44.9859 26.1178 44.989 25.8208 44.9896 25.5231L44.9916 25.1912C44.9926 24.96 44.993 24.7287 44.993 24.4975C44.9934 24.1461 44.9969 23.7948 45.0006 23.4435C45.0009 23.3171 45.0012 23.1908 45.0014 23.0645L45.0017 22.7671L45.0059 22.4521C44.9998 21.4305 44.6913 20.5141 43.9914 19.7294C43.4422 19.2181 42.9057 18.8788 42.1563 18.7125ZM4.08498 19.6359C3.22941 20.5428 2.99517 21.5444 2.99843 22.7328L2.99689 23.0632C2.99628 23.293 2.9964 23.5227 2.99722 23.7525C2.99736 23.8088 2.99741 23.8652 2.99736 23.9216C2.99734 23.9621 2.99727 24.0025 2.99715 24.043C2.99647 24.2948 2.99442 24.5466 2.9922 24.7985C2.99206 25.0229 2.99211 25.2472 2.99239 25.4715L2.98911 25.7832C3.00038 27.0143 3.39782 27.9102 4.28758 28.7862C5.01945 29.4448 5.81001 29.7319 6.80703 29.7135L6.59948 29.0499C6.52608 28.8169 6.45109 28.5845 6.3758 28.3521C5.45176 25.4457 5.16456 22.3979 5.80298 19.4041C5.84205 19.1696 5.84778 18.9495 5.8412 18.7125C5.21155 18.7125 4.52668 19.2421 4.08498 19.6359ZM22.4534 38.3109C22.2222 38.5765 22.1675 38.7479 22.1154 39.091C22.1795 39.5278 22.3235 39.6657 22.6459 39.9743L22.6466 39.975C22.9563 40.1232 23.2765 40.1125 23.6124 40.0674C23.9408 39.8761 24.184 39.6879 24.2885 39.3278C24.2811 38.8815 24.2607 38.6793 23.9867 38.3167C23.448 37.9468 22.9968 37.9564 22.4534 38.3109Z" fill="#703391"/>
<path d="M20.7149 22.5316C20.5696 22.0708 20.3003 21.806 19.9242 21.4974C19.0694 21.1701 18.4077 21.4077 17.8416 22.0463C17.6531 22.4703 17.6694 22.8809 17.7209 23.3348C17.8921 23.7626 18.1692 23.9579 18.5901 24.1668C19.2334 24.3166 19.6301 24.2522 20.1958 23.9299C20.601 23.5318 20.7149 23.0794 20.7149 22.5316Z" fill="#703391"/>
<path d="M29.5887 21.5091C29.943 21.7884 30.0732 21.891 30.1534 22.0217C30.1999 22.0976 30.2297 22.183 30.2766 22.3178C30.3256 22.8073 30.3393 23.2104 30.1136 23.6583C29.7343 24.0508 29.4055 24.2158 28.8396 24.265C28.3562 24.2513 27.9851 24.0903 27.6327 23.7796C27.3619 23.331 27.2295 22.9165 27.3309 22.3987C27.4626 21.9809 27.7095 21.7627 28.0552 21.4858C28.5559 21.3261 29.1009 21.3061 29.5885 21.5089L29.5887 21.5091Z" fill="#703391"/>
<path d="M24.8066 21.5618C24.7321 21.5133 24.6507 21.4743 24.4817 21.3934C23.9352 21.3355 23.5396 21.3368 23.0873 21.6476C22.7473 21.9333 22.5662 22.123 22.5293 22.567C22.5215 23.1958 22.5672 23.5132 23.0329 23.9819C23.5588 24.2754 23.9937 24.2952 24.5782 24.1668C25.02 23.9842 25.2418 23.7505 25.4475 23.3348C25.517 22.8391 25.5431 22.3943 25.2905 21.9481L25.0612 21.7632C24.9391 21.6603 24.8758 21.6069 24.8066 21.5618Z" fill="#703391"/>
<path fill-rule="evenodd" clip-rule="evenodd" d="M26.8962 11.4093L27.0851 11.4544C30.1871 12.2217 32.8379 14.143 34.503 16.7585C36.1072 19.4022 36.6867 22.5942 35.9094 25.5874C35.0073 28.7214 33.0245 31.3294 30.0812 32.9859C29.1266 33.504 28.1453 33.8702 27.0894 34.1509L26.7449 34.2462C25.8392 34.4518 24.9298 34.4544 24.0048 34.457L23.9686 34.4571L23.7661 34.4582C23.0424 34.4601 22.3447 34.4381 21.6362 34.2828C21.0403 34.1869 20.6535 34.2303 20.132 34.5246L19.8017 34.7084L19.4533 34.9078C19.4047 34.935 19.3561 34.9621 19.3075 34.9893C19.2358 35.0293 19.1641 35.0692 19.0923 35.1091C18.5211 35.428 17.9548 35.7541 17.3911 36.085L17.1044 36.2518C16.9289 36.3543 16.7542 36.4582 16.5805 36.5638C16.0701 36.8626 15.6241 37.042 15.0166 37.0167C14.5102 36.8713 14.1991 36.6618 13.8576 36.2771C13.6019 35.5429 13.8006 34.8086 14.0179 34.0881L14.0966 33.8149C14.1787 33.5298 14.2625 33.2452 14.3465 32.9607C14.4308 32.6741 14.5147 32.3875 14.5975 32.1005C14.6488 31.9227 14.701 31.7451 14.7542 31.5677L14.8245 31.3245L14.8876 31.1115C14.9242 30.8897 14.9025 30.7558 14.8234 30.5455C14.7004 30.3928 14.5706 30.245 14.4371 30.1006C12.2555 27.5982 11.5965 24.4287 11.8489 21.2391C12.203 18.2121 14.0057 15.4202 16.4653 13.5355C17.9697 12.4406 19.6473 11.7123 21.4876 11.3168L21.7872 11.2482C23.4306 10.9387 25.2744 11.0212 26.8962 11.4093ZM18.1072 16.0316L17.8699 16.2183C17.2338 16.7373 16.7439 17.3143 16.2721 17.9729L16.1095 18.1972C14.8376 20.0787 14.5296 22.4564 14.932 24.6348C15.3495 26.3041 16.2128 27.8491 17.5096 29.0433C17.9028 29.4128 18.1206 29.7405 18.1291 30.2779C18.1233 30.7469 18.0056 31.158 17.8597 31.6029C17.7536 31.858 17.7026 31.9808 17.6872 32.1076C17.6729 32.2249 17.6893 32.3456 17.7207 32.578L17.7208 32.579L17.7209 32.5793L17.9291 32.462C18.2398 32.287 18.5508 32.1125 18.8618 31.938L19.1894 31.7533L19.5035 31.5772L19.7932 31.4144C20.4882 31.0486 21.1601 31.1839 21.886 31.3717C24.3539 31.9591 26.7545 31.4951 28.9245 30.2682C31.0164 28.9706 32.471 27.0249 33.0285 24.698C33.4895 22.3117 33.0539 20.0393 31.7254 17.9729C31.514 17.6833 31.287 17.411 31.0493 17.1409L30.8686 16.9304C29.3979 15.2734 27.208 14.2491 24.9646 13.9978C22.4587 13.8597 20.0464 14.442 18.1072 16.0316Z" fill="#703391"/>
</svg>
