<svg width="86" height="86" viewBox="0 0 86 86" fill="none" xmlns="http://www.w3.org/2000/svg">
<circle cx="43" cy="43" r="43" fill="#703391" fill-opacity="0.1"/>
<g clip-path="url(#clip0_3260_16289)">
<path d="M34 19C34.99 19 35.98 19 37 19C37 20.485 37 21.97 37 23.5C38.485 23.5 39.97 23.5 41.5 23.5C41.5 22.015 41.5 20.53 41.5 19C42.49 19 43.48 19 44.5 19C44.5 20.485 44.5 21.97 44.5 23.5C45.985 23.5 47.47 23.5 49 23.5C49 22.015 49 20.53 49 19C49.99 19 50.98 19 52 19C52 20.485 52 21.97 52 23.5C53.3251 23.4853 53.3251 23.4853 54.6501 23.4662C56.0064 23.4531 57.1929 23.5838 58.4102 24.2324C58.4724 24.2645 58.5347 24.2967 58.5989 24.3297C59.0999 24.5954 59.5401 24.91 59.9688 25.2812C60.0802 25.3652 60.0802 25.3652 60.194 25.4508C61.0875 26.2046 61.7441 27.2781 62.125 28.375C62.1581 28.4675 62.1912 28.5599 62.2253 28.6552C62.5717 29.7574 62.5423 30.8321 62.5234 31.9785C62.5157 32.6456 62.508 33.3127 62.5 34C63.985 34 65.47 34 67 34C67 34.99 67 35.98 67 37C65.515 37 64.03 37 62.5 37C62.5 38.485 62.5 39.97 62.5 41.5C63.985 41.5 65.47 41.5 67 41.5C67 42.49 67 43.48 67 44.5C65.515 44.5 64.03 44.5 62.5 44.5C62.5 45.985 62.5 47.47 62.5 49C63.985 49 65.47 49 67 49C67 49.99 67 50.98 67 52C65.515 52 64.03 52 62.5 52C62.5147 53.3251 62.5147 53.3251 62.5338 54.6501C62.5469 56.0064 62.4162 57.1929 61.7676 58.4102C61.7355 58.4724 61.7033 58.5347 61.6703 58.5989C61.4046 59.0999 61.09 59.5401 60.7188 59.9688C60.6628 60.0431 60.6068 60.1174 60.5492 60.194C59.7954 61.0875 58.7219 61.7441 57.625 62.125C57.5325 62.1581 57.4401 62.1912 57.3448 62.2253C56.2426 62.5717 55.1679 62.5423 54.0215 62.5234C53.3544 62.5157 52.6873 62.508 52 62.5C52 63.985 52 65.47 52 67C51.01 67 50.02 67 49 67C49 65.515 49 64.03 49 62.5C47.515 62.5 46.03 62.5 44.5 62.5C44.5 63.985 44.5 65.47 44.5 67C43.51 67 42.52 67 41.5 67C41.5 65.515 41.5 64.03 41.5 62.5C40.015 62.5 38.53 62.5 37 62.5C37 63.985 37 65.47 37 67C36.01 67 35.02 67 34 67C34 65.515 34 64.03 34 62.5C32.6749 62.5147 32.6749 62.5147 31.3499 62.5338C29.9936 62.5469 28.8071 62.4162 27.5898 61.7676C27.5276 61.7355 27.4653 61.7033 27.4011 61.6703C26.9001 61.4046 26.4599 61.09 26.0312 60.7188C25.9569 60.6628 25.8826 60.6068 25.806 60.5492C24.9125 59.7954 24.2559 58.7219 23.875 57.625C23.8419 57.5325 23.8088 57.4401 23.7747 57.3448C23.4283 56.2426 23.4577 55.1679 23.4766 54.0215C23.4882 53.0209 23.4882 53.0209 23.5 52C22.015 52 20.53 52 19 52C19 51.01 19 50.02 19 49C20.485 49 21.97 49 23.5 49C23.5 47.515 23.5 46.03 23.5 44.5C22.015 44.5 20.53 44.5 19 44.5C19 43.51 19 42.52 19 41.5C20.485 41.5 21.97 41.5 23.5 41.5C23.5 40.015 23.5 38.53 23.5 37C22.015 37 20.53 37 19 37C19 36.01 19 35.02 19 34C20.485 34 21.97 34 23.5 34C23.4853 32.6749 23.4853 32.6749 23.4662 31.3499C23.4531 29.9936 23.5838 28.8071 24.2324 27.5898C24.2645 27.5276 24.2967 27.4653 24.3297 27.4011C24.5954 26.9001 24.91 26.4599 25.2812 26.0312C25.3652 25.9198 25.3652 25.9198 25.4508 25.806C26.2046 24.9125 27.2781 24.2559 28.375 23.875C28.5137 23.8254 28.5137 23.8254 28.6552 23.7747C29.7574 23.4283 30.8321 23.4577 31.9785 23.4766C32.6456 23.4843 33.3127 23.492 34 23.5C34 22.015 34 20.53 34 19ZM27.6016 28.123C26.6293 29.2599 26.4851 30.5665 26.4875 32.0044C26.4873 32.1023 26.487 32.2001 26.4868 32.301C26.4862 32.6272 26.4863 32.9534 26.4864 33.2796C26.4861 33.5142 26.4858 33.7488 26.4854 33.9834C26.4847 34.5535 26.4844 35.1236 26.4843 35.6937C26.4843 36.1574 26.4841 36.6212 26.4838 37.085C26.483 38.4019 26.4825 39.7188 26.4826 41.0358C26.4826 41.1067 26.4826 41.1776 26.4826 41.2506C26.4826 41.3216 26.4826 41.3926 26.4826 41.4657C26.4827 42.6155 26.4818 43.7652 26.4805 44.915C26.4791 46.0976 26.4785 47.2802 26.4785 48.4629C26.4786 49.126 26.4783 49.7891 26.4773 50.4522C26.4764 51.0761 26.4764 51.7 26.4771 52.324C26.4772 52.5523 26.477 52.7807 26.4764 53.0091C26.4656 55.8458 26.4656 55.8458 27.9158 58.2029C29.0954 59.3158 30.4449 59.515 32.0044 59.5125C32.1023 59.5127 32.2001 59.513 32.301 59.5132C32.6272 59.5138 32.9534 59.5137 33.2796 59.5136C33.5142 59.5139 33.7488 59.5142 33.9834 59.5146C34.5535 59.5153 35.1236 59.5156 35.6937 59.5157C36.1574 59.5157 36.6212 59.5159 37.085 59.5162C38.4019 59.517 39.7188 59.5175 41.0358 59.5174C41.1067 59.5174 41.1776 59.5174 41.2506 59.5174C41.3216 59.5174 41.3926 59.5174 41.4657 59.5174C42.6155 59.5173 43.7652 59.5182 44.915 59.5195C46.0976 59.5209 47.2802 59.5215 48.4629 59.5215C49.126 59.5214 49.7891 59.5217 50.4522 59.5227C51.0761 59.5236 51.7 59.5236 52.324 59.5229C52.5523 59.5228 52.7807 59.523 53.0091 59.5236C55.8458 59.5344 55.8458 59.5344 58.2029 58.0842C59.3158 56.9046 59.515 55.5551 59.5125 53.9956C59.5127 53.8977 59.513 53.7999 59.5132 53.699C59.5138 53.3728 59.5137 53.0466 59.5136 52.7204C59.5139 52.4858 59.5142 52.2512 59.5146 52.0166C59.5153 51.4465 59.5156 50.8764 59.5157 50.3063C59.5157 49.8426 59.5159 49.3788 59.5162 48.915C59.517 47.5981 59.5175 46.2812 59.5174 44.9642C59.5174 44.8933 59.5174 44.8224 59.5174 44.7494C59.5174 44.6784 59.5174 44.6074 59.5174 44.5343C59.5173 43.3845 59.5182 42.2348 59.5195 41.085C59.5209 39.9024 59.5215 38.7198 59.5215 37.5371C59.5214 36.874 59.5217 36.2109 59.5227 35.5478C59.5236 34.9239 59.5236 34.3 59.5229 33.676C59.5228 33.4477 59.523 33.2193 59.5236 32.9909C59.5344 30.1542 59.5344 30.1542 58.0842 27.7971C56.9046 26.6842 55.5551 26.485 53.9956 26.4875C53.8977 26.4873 53.7999 26.487 53.699 26.4868C53.3728 26.4862 53.0466 26.4863 52.7204 26.4864C52.4858 26.4861 52.2512 26.4858 52.0166 26.4854C51.4465 26.4847 50.8764 26.4844 50.3063 26.4843C49.8426 26.4843 49.3788 26.4841 48.915 26.4838C47.5981 26.483 46.2812 26.4825 44.9642 26.4826C44.8933 26.4826 44.8224 26.4826 44.7494 26.4826C44.6784 26.4826 44.6074 26.4826 44.5343 26.4826C43.3845 26.4827 42.2348 26.4818 41.085 26.4805C39.9024 26.4791 38.7198 26.4785 37.5371 26.4785C36.874 26.4786 36.2109 26.4783 35.5478 26.4773C34.9239 26.4764 34.3 26.4764 33.676 26.4771C33.4477 26.4772 33.2193 26.477 32.9909 26.4764C30.881 26.4715 29.1353 26.4974 27.6016 28.123Z" fill="#703391"/>
<path d="M42.2089 34.7974C42.3498 34.9039 42.4884 35.0135 42.6249 35.1255C42.7175 35.1983 42.8101 35.271 42.9055 35.346C43.1876 35.5831 43.401 35.8439 43.6152 36.1451C43.683 36.2376 43.7508 36.3302 43.8206 36.4256C44.4236 37.4301 44.5692 38.495 44.5532 39.644C44.553 39.78 44.5531 39.916 44.5534 40.052C44.5535 40.4162 44.5508 40.7804 44.5475 41.1447C44.5445 41.5272 44.5443 41.9097 44.5437 42.2922C44.5423 43.0143 44.5384 43.7364 44.5337 44.4585C44.5284 45.2815 44.5259 46.1045 44.5235 46.9276C44.5186 48.6186 44.5101 50.3095 44.4999 52.0005C43.5099 52.0005 42.5199 52.0005 41.4999 52.0005C41.4999 50.268 41.4999 48.5355 41.4999 46.7505C40.0149 46.7505 38.5299 46.7505 36.9999 46.7505C36.9999 48.483 36.9999 50.2155 36.9999 52.0005C36.0099 52.0005 35.0199 52.0005 33.9999 52.0005C33.9893 50.228 33.9807 48.4554 33.9757 46.6828C33.9732 45.8597 33.97 45.0365 33.9646 44.2134C33.9599 43.4953 33.9569 42.7773 33.9558 42.0592C33.9552 41.6795 33.9538 41.2999 33.9504 40.9202C33.9472 40.5617 33.9462 40.2032 33.9469 39.8447C33.9468 39.7142 33.9459 39.5837 33.9441 39.4533C33.9261 38.0945 34.2523 36.9386 35.1249 35.8755C35.1977 35.783 35.2704 35.6904 35.3454 35.595C36.9818 33.6476 40.1615 33.4113 42.2089 34.7974ZM37.5013 37.8315C36.9868 38.5756 36.9726 39.441 36.9816 40.3173C36.9818 40.4049 36.982 40.4925 36.9822 40.5828C36.9832 40.9063 36.9858 41.2298 36.9882 41.5533C36.9921 42.2784 36.996 43.0035 36.9999 43.7505C38.4849 43.7505 39.9699 43.7505 41.4999 43.7505C41.5038 43.0254 41.5077 42.3003 41.5117 41.5533C41.5134 41.326 41.5151 41.0988 41.5168 40.8646C41.5174 40.6822 41.5179 40.4998 41.5182 40.3173C41.5197 40.178 41.5197 40.178 41.5212 40.036C41.5214 39.167 41.4405 38.3298 40.8437 37.6568C40.2596 37.137 39.6862 37.0031 38.9134 37.0401C38.3274 37.1394 37.8951 37.3873 37.5013 37.8315Z" fill="#703391"/>
<path d="M49 34C49.99 34 50.98 34 52 34C52 39.94 52 45.88 52 52C51.01 52 50.02 52 49 52C49 46.06 49 40.12 49 34Z" fill="#703391"/>
</g>
<defs>
<clipPath id="clip0_3260_16289">
<rect width="48" height="48" fill="white" transform="translate(19 19)"/>
</clipPath>
</defs>
</svg>
