<svg width="86" height="86" viewBox="0 0 86 86" fill="none" xmlns="http://www.w3.org/2000/svg">
<circle cx="43" cy="43" r="43" fill="#703391" fill-opacity="0.1"/>
<path d="M47.8779 58.011H38.264C37.9773 58.011 37.7024 57.8956 37.4997 57.6903C37.297 57.485 37.1832 57.2066 37.1832 56.9162C37.1832 50.5667 34.4379 48.5359 34.3244 48.4538C34.2698 48.413 34.2175 48.3692 34.1677 48.3224C29.0338 43.1224 28.9311 34.7585 33.9407 29.7117C36.3634 27.2613 39.6472 25.8849 43.0709 25.8849C46.4947 25.8849 49.7785 27.2613 52.2012 29.7117C57.227 34.7749 57.1027 43.1224 51.9688 48.3224C51.926 48.374 51.8769 48.42 51.8229 48.4593C51.7202 48.5359 48.9803 50.5667 48.9803 56.9162C48.9803 57.0618 48.9517 57.206 48.896 57.3403C48.8404 57.4745 48.7588 57.5962 48.6561 57.6982C48.5535 57.8001 48.4318 57.8803 48.2981 57.934C48.1645 57.9877 48.0216 58.0139 47.8779 58.011ZM39.3178 55.8215H46.8187C47.1213 49.6471 49.8936 47.1839 50.4935 46.7186C54.7357 42.3396 54.8167 35.4373 50.6718 31.2334C48.6546 29.1941 45.921 28.0488 43.0709 28.0488C40.2209 28.0488 37.4873 29.1941 35.4701 31.2334C31.3197 35.4373 31.4062 42.367 35.643 46.7186C36.2429 47.1839 39.0206 49.6471 39.3178 55.8215Z" fill="#703391"/>
<path d="M45.2885 67H40.8518C40.5651 67 40.2902 66.8847 40.0875 66.6794C39.8848 66.474 39.7709 66.1956 39.7709 65.9053C39.7709 65.6149 39.8848 65.3365 40.0875 65.1311C40.2902 64.9258 40.5651 64.8105 40.8518 64.8105H45.2885C45.5752 64.8105 45.8501 64.9258 46.0528 65.1311C46.2555 65.3365 46.3693 65.6149 46.3693 65.9053C46.3693 66.1956 46.2555 66.474 46.0528 66.6794C45.8501 66.8847 45.5752 67 45.2885 67Z" fill="#703391"/>
<path d="M46.7643 62.5055H39.3931C39.1064 62.5055 38.8315 62.3902 38.6288 62.1849C38.4261 61.9796 38.3122 61.7011 38.3122 61.4108C38.3122 61.1205 38.4261 60.842 38.6288 60.6367C38.8315 60.4314 39.1064 60.316 39.3931 60.316H46.7643C47.0509 60.316 47.3258 60.4314 47.5285 60.6367C47.7312 60.842 47.8451 61.1205 47.8451 61.4108C47.8451 61.7011 47.7312 61.9796 47.5285 62.1849C47.3258 62.3902 47.0509 62.5055 46.7643 62.5055Z" fill="#703391"/>
<path d="M43.0026 42.4393C42.3222 42.4437 41.6558 42.2433 41.0878 41.8637C40.5199 41.484 40.076 40.9422 39.8124 40.3068C39.5488 39.6714 39.4773 38.971 39.607 38.2944C39.7368 37.6178 40.0619 36.9955 40.5411 36.5062C41.0204 36.0169 41.6323 35.6827 42.2992 35.546C42.9661 35.4093 43.6581 35.4761 44.2875 35.7381C44.9169 36.0001 45.4553 36.4455 45.8346 37.0177C46.2139 37.5899 46.4169 38.2633 46.418 38.9526C46.4195 39.873 46.061 40.7566 45.4209 41.41C44.7809 42.0635 43.9114 42.4336 43.0026 42.4393ZM43.0026 37.1189C42.6424 37.1145 42.289 37.2188 41.9874 37.4185C41.6859 37.6182 41.4498 37.9042 41.3092 38.2402C41.1686 38.5762 41.1299 38.9469 41.1979 39.3053C41.266 39.6636 41.4377 39.9934 41.6913 40.2525C41.9449 40.5117 42.2689 40.6887 42.6221 40.7608C42.9752 40.8329 43.3416 40.797 43.6746 40.6577C44.0075 40.5183 44.292 40.2817 44.4918 39.9781C44.6917 39.6745 44.7978 39.3175 44.7968 38.9526C44.7968 38.4686 44.6085 38.004 44.2726 37.6598C43.9368 37.3155 43.4804 37.1192 43.0026 37.1134V37.1189Z" fill="#703391"/>
<path d="M43.4511 46.8175H42.5648C42.182 46.7928 41.8192 46.6359 41.5369 46.3729C41.2546 46.1099 41.07 45.7567 41.0138 45.3724L40.8193 44.628L40.5815 44.524L39.8844 44.9728C39.5815 45.181 39.2236 45.2917 38.8576 45.2903C38.4485 45.2841 38.0583 45.115 37.7714 44.8195L37.1445 44.1846C36.8899 43.8933 36.7419 43.5223 36.7252 43.1337C36.7084 42.7451 36.824 42.3624 37.0526 42.0498L37.5012 41.289L37.4687 41.2124L36.6743 41.0098C36.2938 40.9582 35.9436 40.7713 35.6863 40.4826C35.429 40.194 35.2812 39.8221 35.2693 39.4334V38.5412C35.2878 38.1406 35.4419 37.7588 35.7057 37.4597C35.9694 37.1607 36.3267 36.9627 36.7176 36.899L37.4471 36.7348C37.4471 36.6965 37.4796 36.6527 37.5012 36.6089L37.0148 35.87C36.7875 35.5583 36.6736 35.1766 36.6923 34.7895C36.711 34.4025 36.8612 34.0339 37.1175 33.7462L37.7714 33.0893C38.0681 32.8301 38.4415 32.6782 38.8328 32.6574C39.2241 32.6366 39.6111 32.7481 39.933 32.9744L40.5977 33.4013L40.8301 33.3028L41.0138 32.5201C41.0726 32.1374 41.2592 31.7869 41.5425 31.5268C41.8258 31.2668 42.1885 31.1131 42.5702 31.0914H43.4511C43.8468 31.1092 44.2244 31.2649 44.5198 31.5322C44.8152 31.7996 45.0104 32.162 45.0723 32.5584L45.2398 33.3192L45.402 33.3849L46.0721 32.9525C46.3789 32.7491 46.7376 32.6406 47.1043 32.6405C47.3099 32.6371 47.5142 32.675 47.7052 32.752C47.8963 32.8291 48.0704 32.9437 48.2175 33.0893L48.839 33.7243C49.0953 34.0144 49.2449 34.3852 49.2626 34.7741C49.2804 35.163 49.1651 35.5462 48.9362 35.859L48.5201 36.5597C48.5201 36.6199 48.5742 36.6801 48.5958 36.7403L49.3578 36.91C49.7445 36.9774 50.0967 37.1773 50.3554 37.4762C50.6141 37.7751 50.7637 38.1549 50.779 38.5521V39.4443C50.7574 39.8332 50.6043 40.2026 50.3455 40.4907C50.0867 40.7787 49.7379 40.9678 49.3578 41.0262L48.5796 41.2124C48.5639 41.2571 48.5458 41.3009 48.5255 41.3437L48.9525 42.0608C49.1771 42.3739 49.2888 42.7555 49.2692 43.142C49.2495 43.5286 49.0996 43.8965 48.8444 44.1846L48.2013 44.8141C48.0545 44.9604 47.8805 45.0759 47.6895 45.1539C47.4984 45.2318 47.294 45.2708 47.088 45.2684C46.7023 45.2734 46.3246 45.1567 46.0072 44.9345L45.3587 44.5185L45.202 44.5842L45.0291 45.3724C44.9653 45.7582 44.7748 46.1108 44.4884 46.3731C44.2019 46.6354 43.8364 46.792 43.4511 46.8175ZM42.6351 45.1753H43.3862C43.4192 45.1426 43.4418 45.1007 43.4511 45.0549L43.7159 43.8507C43.7503 43.6913 43.8253 43.5438 43.9334 43.4229C44.0414 43.3019 44.1788 43.2116 44.332 43.161C44.5594 43.0877 44.78 42.9943 44.9913 42.8818C45.136 42.8078 45.2971 42.773 45.459 42.7807C45.6209 42.7883 45.7781 42.8383 45.9154 42.9256L46.9583 43.5715C47.0045 43.6001 47.056 43.6187 47.1097 43.6263L47.6501 43.0789C47.6334 43.0215 47.6098 42.9663 47.5798 42.9147L46.9259 41.8911C46.8444 41.7562 46.7981 41.6025 46.7915 41.4445C46.7848 41.2864 46.8181 41.1293 46.8881 40.9879C46.994 40.7824 47.0826 40.5682 47.1529 40.3475C47.1992 40.1918 47.2841 40.0507 47.3995 39.9376C47.5149 39.8245 47.657 39.7433 47.8122 39.7016L48.9633 39.4115C49.0262 39.398 49.0865 39.3739 49.1416 39.3403V38.6069C49.1057 38.5786 49.0656 38.5564 49.0227 38.5412L47.8554 38.2784C47.694 38.2412 47.5456 38.1606 47.4257 38.0449C47.3059 37.9293 47.2191 37.783 47.1745 37.6216C47.0998 37.3948 47.0058 37.175 46.8935 36.9647C46.8212 36.8223 46.7863 36.6634 46.792 36.5034C46.7976 36.3433 46.8438 36.1874 46.9259 36.0506L47.542 35.0161C47.5752 34.9596 47.6007 34.8989 47.6176 34.8354L47.0772 34.2881C47.0316 34.2902 46.9871 34.3033 46.9475 34.3264L45.9262 34.9887C45.7864 35.0752 45.6272 35.1241 45.4636 35.1308C45.3 35.1375 45.1374 35.1018 44.9913 35.027C44.7791 34.9151 44.5586 34.8199 44.332 34.7424C44.1787 34.6903 44.0414 34.5989 43.9334 34.4771C43.8254 34.3553 43.7505 34.2072 43.7159 34.0472L43.4619 32.8813C43.4519 32.8266 43.4277 32.7756 43.3916 32.7335H42.6351C42.6047 32.7862 42.5828 32.8435 42.5702 32.9032L42.2838 34.0691C42.2441 34.2244 42.1664 34.3671 42.0577 34.4838C41.9491 34.6006 41.8131 34.6876 41.6623 34.7369C41.417 34.8131 41.1799 34.914 40.9544 35.038C40.8096 35.1143 40.6477 35.151 40.4846 35.1442C40.3215 35.1375 40.163 35.0877 40.0249 34.9997L38.9981 34.3373C38.9539 34.3048 38.9014 34.2858 38.8468 34.2826L38.3064 34.83C38.3207 34.8882 38.3445 34.9437 38.3766 34.9942L39.0305 36.0889C39.1091 36.2194 39.1555 36.3671 39.1658 36.5195C39.1762 36.6719 39.1501 36.8246 39.09 36.9647C38.9935 37.1769 38.914 37.3966 38.8522 37.6216C38.8032 37.7799 38.714 37.9223 38.5936 38.0347C38.4731 38.1471 38.3256 38.2255 38.1659 38.262L37.031 38.5138C36.9781 38.5273 36.9285 38.5515 36.8851 38.585V39.3513C36.9363 39.3799 36.9907 39.4019 37.0472 39.417L38.2091 39.7071C38.359 39.7506 38.4961 39.8307 38.6082 39.9405C38.7204 40.0503 38.8042 40.1863 38.8522 40.3366C38.9138 40.5343 38.9916 40.7266 39.0846 40.9113C39.156 41.0542 39.1901 41.2133 39.1834 41.3734C39.1768 41.5334 39.1297 41.6891 39.0467 41.8254L38.4037 42.9202C38.3707 42.9748 38.3452 43.0337 38.328 43.0953L38.8684 43.6427C38.9137 43.6429 38.9583 43.6316 38.9981 43.6098L40.0465 42.9311C40.1853 42.8421 40.3448 42.7917 40.5089 42.785C40.673 42.7782 40.836 42.8154 40.9814 42.8928C41.2078 43.0149 41.4448 43.1156 41.6893 43.1938C41.8401 43.2431 41.9761 43.3302 42.0847 43.4469C42.1934 43.5637 42.2711 43.7063 42.3108 43.8616L42.5918 45.0111C42.6002 45.0673 42.6147 45.1224 42.6351 45.1753ZM37.2796 40.8401C37.2796 40.8401 37.3066 40.8456 37.3066 40.8401H37.2796Z" fill="#703391"/>
<path d="M43.0841 23.8278C42.8691 23.8278 42.6629 23.7413 42.5109 23.5874C42.3589 23.4334 42.2735 23.2245 42.2735 23.0068V19.8211C42.2735 19.6033 42.3589 19.3945 42.5109 19.2405C42.6629 19.0865 42.8691 19 43.0841 19C43.2991 19 43.5053 19.0865 43.6573 19.2405C43.8093 19.3945 43.8947 19.6033 43.8947 19.8211V23.0287C43.8891 23.2426 43.8012 23.4459 43.6498 23.5951C43.4984 23.7444 43.2954 23.8279 43.0841 23.8278Z" fill="#703391"/>
<path d="M33.7565 26.3727C33.6137 26.3745 33.4732 26.3374 33.3496 26.2651C33.2259 26.1929 33.1238 26.0882 33.0539 25.9622L31.4651 23.187C31.3576 22.9983 31.3285 22.774 31.3843 22.5636C31.44 22.3532 31.576 22.1738 31.7623 22.0649C31.9487 21.956 32.1701 21.9266 32.3778 21.983C32.5856 22.0395 32.7627 22.1772 32.8702 22.366L34.4536 25.1411C34.5076 25.2344 34.5428 25.3376 34.557 25.4447C34.5713 25.5518 34.5644 25.6608 34.5368 25.7652C34.5091 25.8696 34.4613 25.9674 34.3959 26.0529C34.3306 26.1384 34.2492 26.2099 34.1564 26.2633C34.0355 26.3362 33.8971 26.3741 33.7565 26.3727Z" fill="#703391"/>
<path d="M27.8823 33.2858C27.7399 33.287 27.5999 33.2492 27.477 33.1763L24.7317 31.5725C24.5454 31.4636 24.4094 31.2843 24.3537 31.0738C24.2979 30.8634 24.327 30.6391 24.4345 30.4504C24.542 30.2617 24.7191 30.1239 24.9269 30.0675C25.1346 30.011 25.356 30.0405 25.5423 30.1494L28.2876 31.7532C28.4424 31.8434 28.5635 31.9829 28.6319 32.15C28.7004 32.3171 28.7125 32.5024 28.6662 32.6772C28.62 32.8519 28.5181 33.0063 28.3764 33.1164C28.2346 33.2265 28.0609 33.286 27.8823 33.2858Z" fill="#703391"/>
<path d="M26.8227 42.7338H23.6505C23.4355 42.7338 23.2293 42.6473 23.0773 42.4933C22.9252 42.3393 22.8398 42.1305 22.8398 41.9127C22.8398 41.695 22.9252 41.4861 23.0773 41.3322C23.2293 41.1782 23.4355 41.0917 23.6505 41.0917H26.8227C27.0377 41.0917 27.2438 41.1782 27.3959 41.3322C27.5479 41.4861 27.6333 41.695 27.6333 41.9127C27.6333 42.1305 27.5479 42.3393 27.3959 42.4933C27.2438 42.6473 27.0377 42.7338 26.8227 42.7338Z" fill="#703391"/>
<path d="M52.2495 26.3727C52.1072 26.374 51.9671 26.3361 51.8442 26.2633C51.7519 26.2094 51.671 26.1376 51.6061 26.0521C51.5412 25.9665 51.4936 25.8688 51.466 25.7646C51.4384 25.6604 51.4313 25.5517 51.4452 25.4447C51.4591 25.3377 51.4937 25.2346 51.547 25.1411L53.1304 22.366C53.2379 22.1772 53.415 22.0395 53.6228 21.983C53.8305 21.9266 54.0519 21.956 54.2382 22.0649C54.4246 22.1738 54.5606 22.3532 54.6163 22.5636C54.672 22.774 54.643 22.9983 54.5355 23.187L52.9521 25.9622C52.8817 26.0879 52.7795 26.1922 52.656 26.2644C52.5325 26.3365 52.3921 26.374 52.2495 26.3727Z" fill="#703391"/>
<path d="M58.1238 33.2858C57.9447 33.2872 57.7702 33.2285 57.6275 33.1189C57.4849 33.0093 57.382 32.8549 57.3351 32.6798C57.2882 32.5048 57.2999 32.3189 57.3682 32.1513C57.4366 31.9836 57.5579 31.8436 57.7131 31.7532L60.4692 30.1494C60.5614 30.0954 60.6633 30.0605 60.7689 30.0464C60.8745 30.0324 60.9818 30.0395 61.0846 30.0675C61.1875 30.0954 61.2839 30.1436 61.3684 30.2093C61.4529 30.275 61.5238 30.357 61.577 30.4504C61.6302 30.5439 61.6648 30.647 61.6786 30.754C61.6925 30.8609 61.6854 30.9696 61.6578 31.0738C61.6302 31.178 61.5826 31.2757 61.5178 31.3613C61.4529 31.4468 61.372 31.5186 61.2798 31.5725L58.5237 33.1763C58.4028 33.2493 58.2645 33.2871 58.1238 33.2858Z" fill="#703391"/>
<path d="M62.3492 42.7338H59.1824C58.9674 42.7338 58.7612 42.6473 58.6092 42.4933C58.4572 42.3393 58.3718 42.1305 58.3718 41.9127C58.3718 41.695 58.4572 41.4861 58.6092 41.3322C58.7612 41.1782 58.9674 41.0917 59.1824 41.0917H62.3492C62.5642 41.0917 62.7704 41.1782 62.9224 41.3322C63.0744 41.4861 63.1598 41.695 63.1598 41.9127C63.1598 42.1305 63.0744 42.3393 62.9224 42.4933C62.7704 42.6473 62.5642 42.7338 62.3492 42.7338Z" fill="#703391"/>
<path d="M47.8779 58.011H38.264C37.9773 58.011 37.7024 57.8956 37.4997 57.6903C37.297 57.485 37.1832 57.2066 37.1832 56.9162C37.1832 50.5667 34.4379 48.5359 34.3244 48.4538C34.2698 48.413 34.2175 48.3692 34.1677 48.3224C29.0338 43.1224 28.9311 34.7585 33.9407 29.7117C36.3634 27.2613 39.6472 25.8849 43.0709 25.8849C46.4947 25.8849 49.7785 27.2613 52.2012 29.7117C57.227 34.7749 57.1027 43.1224 51.9688 48.3224C51.926 48.374 51.8769 48.42 51.8229 48.4593C51.7202 48.5359 48.9803 50.5667 48.9803 56.9162C48.9803 57.0618 48.9517 57.206 48.896 57.3403C48.8404 57.4745 48.7588 57.5962 48.6561 57.6982C48.5535 57.8001 48.4318 57.8803 48.2981 57.934C48.1645 57.9877 48.0216 58.0139 47.8779 58.011ZM39.3178 55.8215H46.8187C47.1213 49.6471 49.8936 47.1839 50.4935 46.7186C54.7357 42.3396 54.8167 35.4373 50.6718 31.2334C48.6546 29.1941 45.921 28.0488 43.0709 28.0488C40.2209 28.0488 37.4873 29.1941 35.4701 31.2334C31.3197 35.4373 31.4062 42.367 35.643 46.7186C36.2429 47.1839 39.0206 49.6471 39.3178 55.8215Z" stroke="#703391" stroke-width="0.5"/>
<path d="M45.2885 67H40.8518C40.5651 67 40.2902 66.8847 40.0875 66.6794C39.8848 66.474 39.7709 66.1956 39.7709 65.9053C39.7709 65.6149 39.8848 65.3365 40.0875 65.1311C40.2902 64.9258 40.5651 64.8105 40.8518 64.8105H45.2885C45.5752 64.8105 45.8501 64.9258 46.0528 65.1311C46.2555 65.3365 46.3693 65.6149 46.3693 65.9053C46.3693 66.1956 46.2555 66.474 46.0528 66.6794C45.8501 66.8847 45.5752 67 45.2885 67Z" stroke="#703391" stroke-width="0.5"/>
<path d="M46.7643 62.5055H39.3931C39.1064 62.5055 38.8315 62.3902 38.6288 62.1849C38.4261 61.9796 38.3122 61.7011 38.3122 61.4108C38.3122 61.1205 38.4261 60.842 38.6288 60.6367C38.8315 60.4314 39.1064 60.316 39.3931 60.316H46.7643C47.0509 60.316 47.3258 60.4314 47.5285 60.6367C47.7312 60.842 47.8451 61.1205 47.8451 61.4108C47.8451 61.7011 47.7312 61.9796 47.5285 62.1849C47.3258 62.3902 47.0509 62.5055 46.7643 62.5055Z" stroke="#703391" stroke-width="0.5"/>
<path d="M43.0026 42.4393C42.3222 42.4437 41.6558 42.2433 41.0878 41.8637C40.5199 41.484 40.076 40.9422 39.8124 40.3068C39.5488 39.6714 39.4773 38.971 39.607 38.2944C39.7368 37.6178 40.0619 36.9955 40.5411 36.5062C41.0204 36.0169 41.6323 35.6827 42.2992 35.546C42.9661 35.4093 43.6581 35.4761 44.2875 35.7381C44.9169 36.0001 45.4553 36.4455 45.8346 37.0177C46.2139 37.5899 46.4169 38.2633 46.418 38.9526C46.4195 39.873 46.061 40.7566 45.4209 41.41C44.7809 42.0635 43.9114 42.4336 43.0026 42.4393ZM43.0026 37.1189C42.6424 37.1145 42.289 37.2188 41.9874 37.4185C41.6859 37.6182 41.4498 37.9042 41.3092 38.2402C41.1686 38.5762 41.1299 38.9469 41.1979 39.3053C41.266 39.6636 41.4377 39.9934 41.6913 40.2525C41.9449 40.5117 42.2689 40.6887 42.6221 40.7608C42.9752 40.8329 43.3416 40.797 43.6746 40.6577C44.0075 40.5183 44.292 40.2817 44.4918 39.9781C44.6917 39.6745 44.7978 39.3175 44.7968 38.9526C44.7968 38.4686 44.6085 38.004 44.2726 37.6598C43.9368 37.3155 43.4804 37.1192 43.0026 37.1134V37.1189Z" stroke="#703391" stroke-width="0.5"/>
<path d="M43.4511 46.8175H42.5648C42.182 46.7928 41.8192 46.6359 41.5369 46.3729C41.2546 46.1099 41.07 45.7567 41.0138 45.3724L40.8193 44.628L40.5815 44.524L39.8844 44.9728C39.5815 45.181 39.2236 45.2917 38.8576 45.2903C38.4485 45.2841 38.0583 45.115 37.7714 44.8195L37.1445 44.1846C36.8899 43.8933 36.7419 43.5223 36.7252 43.1337C36.7084 42.7451 36.824 42.3624 37.0526 42.0498L37.5012 41.289L37.4687 41.2124L36.6743 41.0098C36.2938 40.9582 35.9436 40.7713 35.6863 40.4826C35.429 40.194 35.2812 39.8221 35.2693 39.4334V38.5412C35.2878 38.1406 35.4419 37.7588 35.7057 37.4597C35.9694 37.1607 36.3267 36.9627 36.7176 36.899L37.4471 36.7348C37.4471 36.6965 37.4796 36.6527 37.5012 36.6089L37.0148 35.87C36.7875 35.5583 36.6736 35.1766 36.6923 34.7895C36.711 34.4025 36.8612 34.0339 37.1175 33.7462L37.7714 33.0893C38.0681 32.8301 38.4415 32.6782 38.8328 32.6574C39.2241 32.6366 39.6111 32.7481 39.933 32.9744L40.5977 33.4013L40.8301 33.3028L41.0138 32.5201C41.0726 32.1374 41.2592 31.7869 41.5425 31.5268C41.8258 31.2668 42.1885 31.1131 42.5702 31.0914H43.4511C43.8468 31.1092 44.2244 31.2649 44.5198 31.5322C44.8152 31.7996 45.0104 32.162 45.0723 32.5584L45.2398 33.3192L45.402 33.3849L46.0721 32.9525C46.3789 32.7491 46.7376 32.6406 47.1043 32.6405C47.3099 32.6371 47.5142 32.675 47.7052 32.752C47.8963 32.8291 48.0704 32.9437 48.2175 33.0893L48.839 33.7243C49.0953 34.0144 49.2449 34.3852 49.2626 34.7741C49.2804 35.163 49.1651 35.5462 48.9362 35.859L48.5201 36.5597C48.5201 36.6199 48.5742 36.6801 48.5958 36.7403L49.3578 36.91C49.7445 36.9774 50.0967 37.1773 50.3554 37.4762C50.6141 37.7751 50.7637 38.1549 50.779 38.5521V39.4443C50.7574 39.8332 50.6043 40.2026 50.3455 40.4907C50.0867 40.7787 49.7379 40.9678 49.3578 41.0262L48.5796 41.2124C48.5639 41.2571 48.5458 41.3009 48.5255 41.3437L48.9525 42.0608C49.1771 42.3739 49.2888 42.7555 49.2692 43.142C49.2495 43.5286 49.0996 43.8965 48.8444 44.1846L48.2013 44.8141C48.0545 44.9604 47.8805 45.0759 47.6895 45.1539C47.4984 45.2318 47.294 45.2708 47.088 45.2684C46.7023 45.2734 46.3246 45.1567 46.0072 44.9345L45.3587 44.5185L45.202 44.5842L45.0291 45.3724C44.9653 45.7582 44.7748 46.1108 44.4884 46.3731C44.2019 46.6354 43.8364 46.792 43.4511 46.8175ZM42.6351 45.1753H43.3862C43.4192 45.1426 43.4418 45.1007 43.4511 45.0549L43.7159 43.8507C43.7503 43.6913 43.8253 43.5438 43.9334 43.4229C44.0414 43.3019 44.1788 43.2116 44.332 43.161C44.5594 43.0877 44.78 42.9943 44.9913 42.8818C45.136 42.8078 45.2971 42.773 45.459 42.7807C45.6209 42.7883 45.7781 42.8383 45.9154 42.9256L46.9583 43.5715C47.0045 43.6001 47.056 43.6187 47.1097 43.6263L47.6501 43.0789C47.6334 43.0215 47.6098 42.9663 47.5798 42.9147L46.9259 41.8911C46.8444 41.7562 46.7981 41.6025 46.7915 41.4445C46.7848 41.2864 46.8181 41.1293 46.8881 40.9879C46.994 40.7824 47.0826 40.5682 47.1529 40.3475C47.1992 40.1918 47.2841 40.0507 47.3995 39.9376C47.5149 39.8245 47.657 39.7433 47.8122 39.7016L48.9633 39.4115C49.0262 39.398 49.0865 39.3739 49.1416 39.3403V38.6069C49.1057 38.5786 49.0656 38.5564 49.0227 38.5412L47.8554 38.2784C47.694 38.2412 47.5456 38.1606 47.4257 38.0449C47.3059 37.9293 47.2191 37.783 47.1745 37.6216C47.0998 37.3948 47.0058 37.175 46.8935 36.9647C46.8212 36.8223 46.7863 36.6634 46.792 36.5034C46.7976 36.3433 46.8438 36.1874 46.9259 36.0506L47.542 35.0161C47.5752 34.9596 47.6007 34.8989 47.6176 34.8354L47.0772 34.2881C47.0316 34.2902 46.9871 34.3033 46.9475 34.3264L45.9262 34.9887C45.7864 35.0752 45.6272 35.1241 45.4636 35.1308C45.3 35.1375 45.1374 35.1018 44.9913 35.027C44.7791 34.9151 44.5586 34.8199 44.332 34.7424C44.1787 34.6903 44.0414 34.5989 43.9334 34.4771C43.8254 34.3553 43.7505 34.2072 43.7159 34.0472L43.4619 32.8813C43.4519 32.8266 43.4277 32.7756 43.3916 32.7335H42.6351C42.6047 32.7862 42.5828 32.8435 42.5702 32.9032L42.2838 34.0691C42.2441 34.2244 42.1664 34.3671 42.0577 34.4838C41.9491 34.6006 41.8131 34.6876 41.6623 34.7369C41.417 34.8131 41.1799 34.914 40.9544 35.038C40.8096 35.1143 40.6477 35.151 40.4846 35.1442C40.3215 35.1375 40.163 35.0877 40.0249 34.9997L38.9981 34.3373C38.9539 34.3048 38.9014 34.2858 38.8468 34.2826L38.3064 34.83C38.3207 34.8882 38.3445 34.9437 38.3766 34.9942L39.0305 36.0889C39.1091 36.2194 39.1555 36.3671 39.1658 36.5195C39.1762 36.6719 39.1501 36.8246 39.09 36.9647C38.9935 37.1769 38.914 37.3966 38.8522 37.6216C38.8032 37.7799 38.714 37.9223 38.5936 38.0347C38.4731 38.1471 38.3256 38.2255 38.1659 38.262L37.031 38.5138C36.9781 38.5273 36.9285 38.5515 36.8851 38.585V39.3513C36.9363 39.3799 36.9907 39.4019 37.0472 39.417L38.2091 39.7071C38.359 39.7506 38.4961 39.8307 38.6082 39.9405C38.7204 40.0503 38.8042 40.1863 38.8522 40.3366C38.9138 40.5343 38.9916 40.7266 39.0846 40.9113C39.156 41.0542 39.1901 41.2133 39.1834 41.3734C39.1768 41.5334 39.1297 41.6891 39.0467 41.8254L38.4037 42.9202C38.3707 42.9748 38.3452 43.0337 38.328 43.0953L38.8684 43.6427C38.9137 43.6429 38.9583 43.6316 38.9981 43.6098L40.0465 42.9311C40.1853 42.8421 40.3448 42.7917 40.5089 42.785C40.673 42.7782 40.836 42.8154 40.9814 42.8928C41.2078 43.0149 41.4448 43.1156 41.6893 43.1938C41.8401 43.2431 41.9761 43.3302 42.0847 43.4469C42.1934 43.5637 42.2711 43.7063 42.3108 43.8616L42.5918 45.0111C42.6002 45.0673 42.6147 45.1224 42.6351 45.1753ZM37.2796 40.8401C37.2796 40.8401 37.3066 40.8456 37.3066 40.8401H37.2796Z" stroke="#703391" stroke-width="0.5"/>
<path d="M43.0841 23.8278C42.8691 23.8278 42.6629 23.7413 42.5109 23.5874C42.3589 23.4334 42.2735 23.2245 42.2735 23.0068V19.8211C42.2735 19.6033 42.3589 19.3945 42.5109 19.2405C42.6629 19.0865 42.8691 19 43.0841 19C43.2991 19 43.5053 19.0865 43.6573 19.2405C43.8093 19.3945 43.8947 19.6033 43.8947 19.8211V23.0287C43.8891 23.2426 43.8012 23.4459 43.6498 23.5951C43.4984 23.7444 43.2954 23.8279 43.0841 23.8278Z" stroke="#703391" stroke-width="0.5"/>
<path d="M33.7565 26.3727C33.6137 26.3745 33.4732 26.3374 33.3496 26.2651C33.2259 26.1929 33.1238 26.0882 33.0539 25.9622L31.4651 23.187C31.3576 22.9983 31.3285 22.774 31.3843 22.5636C31.44 22.3532 31.576 22.1738 31.7623 22.0649C31.9487 21.956 32.1701 21.9266 32.3778 21.983C32.5856 22.0395 32.7627 22.1772 32.8702 22.366L34.4536 25.1411C34.5076 25.2344 34.5428 25.3376 34.557 25.4447C34.5713 25.5518 34.5644 25.6608 34.5368 25.7652C34.5091 25.8696 34.4613 25.9674 34.3959 26.0529C34.3306 26.1384 34.2492 26.2099 34.1564 26.2633C34.0355 26.3362 33.8971 26.3741 33.7565 26.3727Z" stroke="#703391" stroke-width="0.5"/>
<path d="M27.8823 33.2858C27.7399 33.287 27.5999 33.2492 27.477 33.1763L24.7317 31.5725C24.5454 31.4636 24.4094 31.2843 24.3537 31.0738C24.2979 30.8634 24.327 30.6391 24.4345 30.4504C24.542 30.2617 24.7191 30.1239 24.9269 30.0675C25.1346 30.011 25.356 30.0405 25.5423 30.1494L28.2876 31.7532C28.4424 31.8434 28.5635 31.9829 28.6319 32.15C28.7004 32.3171 28.7125 32.5024 28.6662 32.6772C28.62 32.8519 28.5181 33.0063 28.3764 33.1164C28.2346 33.2265 28.0609 33.286 27.8823 33.2858Z" stroke="#703391" stroke-width="0.5"/>
<path d="M26.8227 42.7338H23.6505C23.4355 42.7338 23.2293 42.6473 23.0773 42.4933C22.9252 42.3393 22.8398 42.1305 22.8398 41.9127C22.8398 41.695 22.9252 41.4861 23.0773 41.3322C23.2293 41.1782 23.4355 41.0917 23.6505 41.0917H26.8227C27.0377 41.0917 27.2438 41.1782 27.3959 41.3322C27.5479 41.4861 27.6333 41.695 27.6333 41.9127C27.6333 42.1305 27.5479 42.3393 27.3959 42.4933C27.2438 42.6473 27.0377 42.7338 26.8227 42.7338Z" stroke="#703391" stroke-width="0.5"/>
<path d="M52.2495 26.3727C52.1072 26.374 51.9671 26.3361 51.8442 26.2633C51.7519 26.2094 51.671 26.1376 51.6061 26.0521C51.5412 25.9665 51.4936 25.8688 51.466 25.7646C51.4384 25.6604 51.4313 25.5517 51.4452 25.4447C51.4591 25.3377 51.4937 25.2346 51.547 25.1411L53.1304 22.366C53.2379 22.1772 53.415 22.0395 53.6228 21.983C53.8305 21.9266 54.0519 21.956 54.2382 22.0649C54.4246 22.1738 54.5606 22.3532 54.6163 22.5636C54.672 22.774 54.643 22.9983 54.5355 23.187L52.9521 25.9622C52.8817 26.0879 52.7795 26.1922 52.656 26.2644C52.5325 26.3365 52.3921 26.374 52.2495 26.3727Z" stroke="#703391" stroke-width="0.5"/>
<path d="M58.1238 33.2858C57.9447 33.2872 57.7702 33.2285 57.6275 33.1189C57.4849 33.0093 57.382 32.8549 57.3351 32.6798C57.2882 32.5048 57.2999 32.3189 57.3682 32.1513C57.4366 31.9836 57.5579 31.8436 57.7131 31.7532L60.4692 30.1494C60.5614 30.0954 60.6633 30.0605 60.7689 30.0464C60.8745 30.0324 60.9818 30.0395 61.0846 30.0675C61.1875 30.0954 61.2839 30.1436 61.3684 30.2093C61.4529 30.275 61.5238 30.357 61.577 30.4504C61.6302 30.5439 61.6648 30.647 61.6786 30.754C61.6925 30.8609 61.6854 30.9696 61.6578 31.0738C61.6302 31.178 61.5826 31.2757 61.5178 31.3613C61.4529 31.4468 61.372 31.5186 61.2798 31.5725L58.5237 33.1763C58.4028 33.2493 58.2645 33.2871 58.1238 33.2858Z" stroke="#703391" stroke-width="0.5"/>
<path d="M62.3492 42.7338H59.1824C58.9674 42.7338 58.7612 42.6473 58.6092 42.4933C58.4572 42.3393 58.3718 42.1305 58.3718 41.9127C58.3718 41.695 58.4572 41.4861 58.6092 41.3322C58.7612 41.1782 58.9674 41.0917 59.1824 41.0917H62.3492C62.5642 41.0917 62.7704 41.1782 62.9224 41.3322C63.0744 41.4861 63.1598 41.695 63.1598 41.9127C63.1598 42.1305 63.0744 42.3393 62.9224 42.4933C62.7704 42.6473 62.5642 42.7338 62.3492 42.7338Z" stroke="#703391" stroke-width="0.5"/>
</svg>
