<svg width="86" height="86" viewBox="0 0 86 86" fill="none" xmlns="http://www.w3.org/2000/svg">
<circle cx="43" cy="43" r="43" fill="#703391" fill-opacity="0.1"/>
<path d="M68 44.4377C68 45.7505 67.9087 47.0716 67.726 48.3676C67.6604 48.836 67.2792 49.1846 66.8304 49.1846H63.8876C63.3495 51.8668 62.3567 54.3894 60.9389 56.7017L63.0179 58.9007C63.3336 59.2347 63.3733 59.7661 63.1052 60.1421C61.6199 62.2656 59.8527 64.137 57.8491 65.7019C57.6862 65.8258 57.4976 65.8909 57.3109 65.8909C57.0766 65.8909 56.8483 65.7943 56.6696 65.6116L54.5846 63.4061C54.1974 63.6687 53.8022 63.9228 53.3892 64.1707C52.9523 64.4291 52.4023 64.2673 52.158 63.8052C51.9138 63.3431 52.0667 62.7613 52.5035 62.503C53.0933 62.1543 53.6532 61.7826 54.1755 61.3898C54.5369 61.1209 55.0254 61.1692 55.3351 61.4969L57.3843 63.6645C58.7882 62.4862 60.059 61.1419 61.171 59.6527L59.1218 57.4852C58.812 57.1575 58.7703 56.6408 59.0205 56.2649C60.6627 53.7801 61.741 51.016 62.2373 48.0542C62.3128 47.5963 62.6901 47.2644 63.1269 47.2644H66.024C66.1253 46.3234 66.1769 45.372 66.1769 44.431C66.1769 43.49 66.1253 42.5386 66.024 41.5976H63.1269C62.6901 41.5976 62.3128 41.2636 62.2373 40.8078C61.7389 37.84 60.6567 35.0759 59.0205 32.5971C58.7723 32.2149 58.812 31.6982 59.1218 31.3705L61.171 29.203C60.0531 27.7138 58.7862 26.3695 57.3843 25.1975L55.3351 27.3651C55.0254 27.6928 54.5369 27.7369 54.1815 27.4722C51.8383 25.7415 49.2252 24.5947 46.4136 24.0696C45.9807 23.9898 45.6669 23.5907 45.6669 23.1286V20.0684C43.8977 19.8541 42.0788 19.8541 40.3096 20.0684V23.1328C40.3096 23.5949 39.9939 23.994 39.5629 24.0738C36.7572 24.5947 34.1441 25.7415 31.8007 27.4764C31.4393 27.739 30.9508 27.697 30.647 27.3693L28.5978 25.2017C27.1939 26.3737 25.929 27.718 24.8111 29.2072L26.8603 31.3747C27.1701 31.7024 27.2118 32.2191 26.9616 32.595C25.3194 35.0798 24.2412 37.8439 23.7448 40.8057C23.6693 41.2636 23.292 41.5955 22.8552 41.5955H19.9581C19.8568 42.5365 19.8052 43.4879 19.8052 44.4289C19.8052 45.3699 19.8568 46.3213 19.9581 47.2623H22.8552C23.292 47.2623 23.6693 47.5963 23.7448 48.0521C24.2432 51.0262 25.3254 53.784 26.9616 56.2628C27.2098 56.645 27.1701 57.1617 26.8603 57.4894L24.8111 59.6569C25.9251 61.1461 27.1959 62.4903 28.5978 63.6687L30.647 61.5011C30.9568 61.1734 31.4452 61.1293 31.8066 61.394C32.1879 61.6796 32.6048 61.9632 33.0516 62.2425C33.4785 62.5114 33.6215 63.0973 33.3673 63.5553C33.1132 64.0068 32.5592 64.1581 32.1263 63.8892C31.8781 63.7338 31.6338 63.5721 31.3995 63.4103L29.3145 65.6158C28.9988 65.9497 28.4964 65.9917 28.141 65.7082C26.1434 64.1434 24.3741 62.272 22.8848 60.1484C22.6207 59.7661 22.6564 59.2389 22.9722 58.907L25.0512 56.7079C23.6334 54.3954 22.6465 51.8749 22.1083 49.1909H19.1696C18.7228 49.1909 18.3415 48.8422 18.274 48.3739C18.0913 47.0779 18 45.7547 18 44.444C18 43.1313 18.0913 41.8102 18.274 40.5142C18.3396 40.0458 18.7208 39.6972 19.1696 39.6972H22.1124C22.6505 37.0149 23.6433 34.4924 25.0611 32.1801L22.9821 29.981C22.6664 29.6471 22.6267 29.1156 22.8948 28.7397C24.384 26.6162 26.1533 24.7447 28.1509 23.1799C28.5123 22.9005 29.0107 22.9383 29.3245 23.2723L31.4095 25.4714C33.5957 23.9717 35.9786 22.9278 38.516 22.3523V19.2395C38.516 18.7669 38.8417 18.3636 39.2845 18.2922C41.7189 17.9058 44.2765 17.8994 46.7168 18.2922C47.1596 18.3615 47.4853 18.7648 47.4853 19.2395V22.3523C50.027 22.9278 52.4118 23.9717 54.5918 25.4714L56.6768 23.2723C56.9925 22.9383 57.4949 22.9005 57.8504 23.1799C59.848 24.7447 61.6172 26.6098 63.1065 28.7397C63.3706 29.122 63.3349 29.6492 63.0192 29.9873L60.9342 32.1864C62.352 34.4989 63.3428 37.0194 63.8829 39.7034H66.8257C67.2725 39.7034 67.6538 40.0521 67.7213 40.5205C67.904 41.8164 67.9953 43.1397 67.9953 44.4503L68 44.4377ZM55.5717 44.4377C55.5717 48.4642 53.8183 52.3102 50.8537 54.8202V62.8583C50.8537 63.3855 50.4467 63.816 49.9483 63.816H47.488V66.7629C47.488 67.2355 47.1624 67.6387 46.7156 67.7102C45.4904 67.9034 44.2454 68 43.0044 68C41.7633 68 40.5143 67.9034 39.2891 67.7102C38.8463 67.6408 38.5167 67.2376 38.5167 66.7629V63.816H36.0565C35.5581 63.816 35.151 63.3854 35.151 62.8583V54.8202C32.1884 52.3081 30.4331 48.4646 30.4331 44.4377C30.4331 37.1094 36.0705 31.1463 43.0042 31.1463C49.9384 31.1463 55.5698 37.1094 55.5698 44.4377H55.5717ZM45.6851 63.8159H40.3277V65.9247C42.101 66.139 43.906 66.139 45.6851 65.9247V63.8159ZM49.0508 61.9066V59.6529H36.9677V61.9066H49.0508ZM40.9276 50.5601V57.7432H45.0856V50.5601C45.0856 50.2219 45.2584 49.9048 45.5384 49.7325L48.7313 47.7855V40.7954L46.3108 39.3167V45.7524C46.3108 46.0969 46.1381 46.4078 45.8581 46.58L43.4634 48.0419C43.1834 48.2141 42.8378 48.2141 42.5579 48.0419L40.1592 46.58C39.8792 46.4078 39.7064 46.0969 39.7064 45.7524V39.3167L37.2859 40.7954V47.7855L40.4788 49.7325C40.7588 49.9048 40.9316 50.2156 40.9316 50.5601H40.9276ZM53.7692 44.4416C53.7692 38.1656 48.9459 33.0639 43.0128 33.0639C37.0795 33.0639 32.2503 38.1657 32.2503 44.4416C32.2503 48.0816 33.8369 51.415 36.601 53.589C36.8293 53.7717 36.9663 54.0511 36.9663 54.3577V57.7498H39.1208V51.1211L35.9279 49.174C35.6479 49.0018 35.4751 48.6909 35.4751 48.3464V40.2535C35.4751 39.9154 35.6479 39.5982 35.9279 39.4259L39.2419 37.3991L40.1613 36.8404C40.4413 36.6681 40.7868 36.6744 41.0668 36.8404C41.3468 37.0126 41.5195 37.3235 41.5195 37.6679V45.2065L43.0147 46.1201L44.5099 45.2065V37.6679C44.5099 37.3298 44.6827 37.0126 44.9627 36.8404C45.2427 36.6681 45.5882 36.6681 45.8681 36.8404L46.7835 37.3991L50.0976 39.4259C50.3776 39.5982 50.5504 39.909 50.5504 40.2535V48.3464C50.5504 48.6909 50.3776 49.0018 50.0976 49.174L46.9047 51.1211V57.7498H49.0592V54.3577C49.0592 54.0574 49.1962 53.7717 49.4245 53.589C52.1906 51.4171 53.7752 48.084 53.7752 44.4416H53.7692Z" fill="#703391" stroke="#703391" stroke-width="0.5"/>
</svg>
