<svg width="86" height="86" viewBox="0 0 86 86" fill="none" xmlns="http://www.w3.org/2000/svg">
<circle cx="43" cy="43" r="43" fill="#703391" fill-opacity="0.1"/>
<g clip-path="url(#clip0_3260_16307)">
<path d="M44.3949 21.324C44.9378 21.7199 45.297 22.2134 45.4375 22.8753C45.5238 23.585 45.4452 24.2305 45.0625 24.844C44.7321 25.2054 44.4069 25.5313 43.9375 25.6878C43.9066 27.2965 43.8756 28.9053 43.8438 30.5628C44.8647 30.5628 45.8856 30.5628 46.9375 30.5628C46.9342 30.2095 46.931 29.8563 46.9276 29.4923C46.9254 29.1501 46.9237 28.8079 46.9221 28.4657C46.9206 28.2279 46.9187 27.9901 46.9163 27.7523C46.9129 27.4104 46.9113 27.0686 46.91 26.7267C46.9086 26.6205 46.9071 26.5142 46.9056 26.4047C46.9056 26.3053 46.9056 26.2058 46.9056 26.1034C46.9046 25.9725 46.9046 25.9725 46.9037 25.839C46.9531 25.4812 47.0982 25.22 47.3828 24.9964C47.7007 24.9081 47.9322 24.9521 48.25 25.0315C48.4984 25.2255 48.6114 25.3341 48.6701 25.6474C48.6693 25.7381 48.6684 25.8289 48.6676 25.9224C48.6675 26.0772 48.6675 26.0772 48.6675 26.2352C48.6656 26.346 48.6636 26.4569 48.6616 26.5711C48.6611 26.685 48.6606 26.7989 48.66 26.9163C48.6579 27.2803 48.6532 27.6441 48.6484 28.0081C48.6466 28.2548 48.6448 28.5015 48.6433 28.7482C48.6395 29.3531 48.6322 29.9579 48.625 30.5628C49.6459 30.5628 50.6669 30.5628 51.7188 30.5628C51.7155 30.1519 51.7122 29.741 51.7089 29.3177C51.7071 28.9885 51.7055 28.6593 51.7042 28.3301C51.7027 27.9835 51.7007 27.6369 51.6975 27.2902C51.6945 26.9559 51.6928 26.6216 51.6921 26.2872C51.6913 26.0986 51.6891 25.9101 51.6869 25.7215C51.6866 24.3518 51.6866 24.3518 52.1262 23.8587C52.548 23.4821 52.9485 23.318 53.5084 23.3349C53.5974 23.3351 53.6864 23.3352 53.7781 23.3354C53.9635 23.3373 54.1488 23.3416 54.334 23.3486C54.61 23.3466 54.8307 23.3349 55.0938 23.2503C55.2869 23.0515 55.4094 22.8597 55.5382 22.6149C55.7827 22.1834 56.1754 21.9921 56.623 21.8147C57.5156 21.6483 58.1752 21.7413 58.9353 22.2491C59.5142 22.6998 59.7724 23.2194 59.8691 23.9417C59.9078 24.6576 59.7547 25.2452 59.3066 25.8108C58.758 26.3755 58.179 26.6486 57.3906 26.6839C56.7098 26.6542 56.1696 26.46 55.6676 25.9925C55.4182 25.7136 55.2631 25.464 55.0938 25.1253C54.5369 25.0943 53.98 25.0634 53.4062 25.0315C53.4062 26.8568 53.4062 28.6822 53.4062 30.5628C53.8703 30.5628 54.3344 30.5628 54.8125 30.5628C55.7965 30.8321 56.5016 31.2429 57.0387 32.1254C57.496 32.976 57.4375 33.544 57.4375 34.594C59.2628 34.594 61.0881 34.594 62.9688 34.594C62.9378 34.0372 62.9069 33.4803 62.875 32.9065C62.5673 32.6072 62.5673 32.6072 62.3187 32.5176C61.9031 32.3463 61.7085 31.9635 61.4863 31.5882C61.2635 31.006 61.277 30.3273 61.4541 29.7362C61.7454 29.0916 62.1727 28.6087 62.8142 28.3007C63.5265 28.0486 64.2644 28.0643 64.9609 28.3655C65.5509 28.7011 66.0051 29.2463 66.2094 29.8944C66.3633 30.6502 66.2733 31.4084 65.8479 32.0606C65.6011 32.3708 65.4397 32.5176 65.0631 32.6747C64.8849 32.7634 64.8849 32.7634 64.75 32.9065C64.6615 33.2417 64.6753 33.5696 64.6855 33.9143C64.698 34.6026 64.6827 35.1378 64.2812 35.719C63.9003 36.1 63.4981 36.2621 62.9617 36.3041C62.8087 36.3035 62.8087 36.3035 62.6526 36.3028C62.5362 36.3028 62.4199 36.3028 62.3001 36.3028C62.1746 36.3018 62.0491 36.3008 61.9236 36.2998C61.7941 36.2995 61.6646 36.2992 61.535 36.299C61.1957 36.2983 60.8563 36.2965 60.5169 36.2944C60.17 36.2925 59.8231 36.2916 59.4762 36.2907C58.7966 36.2888 58.1171 36.2851 57.4375 36.2815C57.4375 37.3025 57.4375 38.3234 57.4375 39.3753C57.8043 39.3688 58.1711 39.3622 58.549 39.3555C58.9042 39.3511 59.2595 39.3477 59.6147 39.3444C59.8616 39.3416 60.1085 39.3377 60.3554 39.3328C60.7103 39.326 61.0651 39.3228 61.42 39.3204C61.5304 39.3174 61.6408 39.3145 61.7545 39.3116C62.5014 39.3112 62.5014 39.3112 62.7692 39.4969C62.9452 39.6999 63.0529 39.8807 63.0977 40.1469C63.0459 40.4169 63.0004 40.6431 62.8398 40.8694C62.5364 41.0678 62.2695 41.0743 61.9182 41.0734C61.769 41.0734 61.769 41.0734 61.6168 41.0734C61.5096 41.0729 61.4024 41.0724 61.2919 41.0719C61.182 41.0718 61.0721 41.0717 60.9589 41.0715C60.6073 41.071 60.2558 41.0698 59.9043 41.0686C59.6662 41.0682 59.4281 41.0677 59.19 41.0674C58.6058 41.0664 58.0217 41.0646 57.4375 41.0628C57.4375 42.0837 57.4375 43.1047 57.4375 44.1565C58.1251 44.1582 58.8122 44.1579 59.4997 44.1525C59.7336 44.1513 59.9675 44.1512 60.2014 44.1523C60.5375 44.1537 60.8734 44.151 61.2095 44.1474C61.3665 44.1494 61.3665 44.1494 61.5267 44.1514C62.0388 44.1621 62.0388 44.1621 62.4585 43.9173C62.5767 43.7203 62.5767 43.7203 62.6875 43.4065C63.1316 42.8948 63.6727 42.6071 64.3442 42.5364C65.1177 42.5108 65.666 42.6549 66.2734 43.137C66.8475 43.6806 67.0196 44.2105 67.0527 44.9944C67.0273 45.7791 66.7973 46.3754 66.2207 46.9163C65.5697 47.4105 64.9015 47.5347 64.0938 47.4378C63.3259 47.2677 62.8547 46.8548 62.4062 46.219C62.3753 46.1262 62.3444 46.0334 62.3125 45.9378C60.7038 45.9068 59.095 45.8759 57.4375 45.844C57.4375 46.865 57.4375 47.8859 57.4375 48.9378C57.7907 48.9345 58.144 48.9313 58.5079 48.9279C58.8502 48.9257 59.1924 48.924 59.5346 48.9223C59.7724 48.9209 60.0102 48.919 60.248 48.9166C60.5899 48.9132 60.9317 48.9116 61.2736 48.9103C61.433 48.9081 61.433 48.9081 61.5956 48.9059C61.695 48.9059 61.7945 48.9059 61.8969 48.9059C62.0278 48.9049 62.0278 48.9049 62.1612 48.904C62.519 48.9534 62.7803 49.0985 63.0039 49.3831C63.0922 49.701 63.0482 49.9325 62.9688 50.2503C62.7747 50.4987 62.6662 50.6117 62.3529 50.6704C62.2621 50.6695 62.1714 50.6687 62.0779 50.6679C61.9746 50.6678 61.8714 50.6678 61.7651 50.6678C61.6543 50.6658 61.5434 50.6639 61.4292 50.6619C61.2583 50.6611 61.2583 50.6611 61.084 50.6603C60.72 50.6582 60.3561 50.6535 59.9922 50.6487C59.7455 50.6468 59.4988 50.6451 59.2521 50.6436C58.6472 50.6398 58.0424 50.6324 57.4375 50.6253C57.4375 51.6462 57.4375 52.6672 57.4375 53.719C58.0538 53.7141 58.0538 53.7141 58.6826 53.7091C59.0118 53.7073 59.341 53.7058 59.6702 53.7045C60.0168 53.703 60.3634 53.701 60.7101 53.6978C61.0444 53.6947 61.3787 53.6931 61.713 53.6923C61.9016 53.6916 62.0902 53.6894 62.2788 53.6872C63.6485 53.6869 63.6485 53.6869 64.1416 54.1265C64.5182 54.5483 64.6823 54.9488 64.6654 55.5087C64.6652 55.5977 64.665 55.6867 64.6649 55.7784C64.663 55.9638 64.6586 56.1491 64.6517 56.3343C64.6537 56.6102 64.6654 56.831 64.75 57.094C64.9488 57.2871 65.1406 57.4097 65.3854 57.5385C65.8169 57.783 66.0082 58.1757 66.1855 58.6233C66.352 59.5159 66.2589 60.1755 65.7512 60.9356C65.3005 61.5144 64.7808 61.7726 64.0586 61.8694C63.3427 61.908 62.7551 61.755 62.1895 61.3069C61.6247 60.7582 61.3517 60.1793 61.3164 59.3909C61.3461 58.7101 61.5403 58.1698 62.0078 57.6679C62.2867 57.4184 62.5363 57.2634 62.875 57.094C62.9059 56.5372 62.9369 55.9803 62.9688 55.4065C61.1434 55.4065 59.3181 55.4065 57.4375 55.4065C57.4375 55.8706 57.4375 56.3347 57.4375 56.8128C57.1682 57.7968 56.7574 58.5019 55.8749 59.039C55.0243 59.4963 54.4563 59.4378 53.4062 59.4378C53.4062 61.2631 53.4062 63.0884 53.4062 64.969C53.9631 64.9381 54.52 64.9072 55.0938 64.8753C55.3931 64.5675 55.3931 64.5675 55.4827 64.319C55.6539 63.9034 56.0368 63.7087 56.4121 63.4866C56.9943 63.2638 57.673 63.2773 58.264 63.4544C58.9016 63.7425 59.3904 64.172 59.6963 64.8068C59.9789 65.5748 59.9225 66.2866 59.5938 67.0315C59.1676 67.6888 58.6344 68.0076 57.9062 68.2503C57.1136 68.3247 56.4011 68.2153 55.7676 67.7112C55.5255 67.5032 55.4531 67.369 55.3256 67.0634C55.2369 66.8851 55.2369 66.8851 55.0938 66.7503C54.7586 66.6618 54.4306 66.6756 54.0859 66.6858C53.3977 66.6982 52.8624 66.683 52.2812 66.2815C51.9003 65.9006 51.7382 65.4984 51.6962 64.962C51.6966 64.86 51.697 64.758 51.6975 64.6529C51.6975 64.5365 51.6975 64.4202 51.6975 64.3003C51.6985 64.1749 51.6994 64.0494 51.7004 63.9239C51.7008 63.7943 51.7011 63.6648 51.7012 63.5353C51.702 63.1959 51.7038 62.8566 51.7059 62.5172C51.7078 62.1703 51.7087 61.8234 51.7096 61.4765C51.7115 60.7969 51.7152 60.1174 51.7188 59.4378C50.6978 59.4378 49.6769 59.4378 48.625 59.4378C48.6315 59.8046 48.6381 60.1713 48.6448 60.5492C48.6492 60.9045 48.6526 61.2597 48.6559 61.615C48.6587 61.8619 48.6626 62.1088 48.6674 62.3557C48.6743 62.7106 48.6774 63.0654 48.6799 63.4203C48.6828 63.5307 48.6857 63.6411 48.6887 63.7548C48.689 64.5016 48.689 64.5016 48.5034 64.7695C48.3004 64.9455 48.1196 65.0532 47.8534 65.0979C47.5834 65.0462 47.3572 65.0007 47.1309 64.8401C46.9325 64.5367 46.926 64.2697 46.9269 63.9185C46.9269 63.819 46.9269 63.7196 46.9269 63.6171C46.9274 63.5099 46.9278 63.4026 46.9283 63.2922C46.9285 63.1273 46.9285 63.1273 46.9287 62.9592C46.9293 62.6076 46.9304 62.2561 46.9316 61.9046C46.9321 61.6665 46.9325 61.4284 46.9329 61.1903C46.9339 60.6061 46.9357 60.022 46.9375 59.4378C45.9166 59.4378 44.8956 59.4378 43.8438 59.4378C43.8421 60.1254 43.8424 60.8125 43.8478 61.5C43.849 61.7339 43.8491 61.9678 43.8479 62.2017C43.8465 62.5378 43.8493 62.8737 43.8529 63.2098C43.8509 63.3668 43.8509 63.3668 43.8489 63.527C43.8382 64.0391 43.8382 64.0391 44.083 64.4588C44.28 64.577 44.28 64.577 44.5938 64.6878C45.1055 65.1319 45.3932 65.673 45.4639 66.3445C45.4895 67.1179 45.3454 67.6663 44.8633 68.2737C44.3197 68.8478 43.7898 69.0199 43.0059 69.053C42.2212 69.0276 41.6249 68.7976 41.084 68.221C40.5898 67.57 40.4656 66.9018 40.5625 66.094C40.7326 65.3262 41.1455 64.8549 41.7812 64.4065C41.8741 64.3756 41.9669 64.3447 42.0625 64.3128C42.0934 62.704 42.1244 61.0953 42.1562 59.4378C41.1353 59.4378 40.1144 59.4378 39.0625 59.4378C39.0658 59.791 39.069 60.1443 39.0724 60.5082C39.0746 60.8504 39.0763 61.1927 39.0779 61.5349C39.0794 61.7727 39.0813 62.0105 39.0837 62.2483C39.0871 62.5901 39.0887 62.932 39.09 63.2738C39.0914 63.3801 39.0929 63.4864 39.0944 63.5959C39.0944 63.745 39.0944 63.745 39.0944 63.8972C39.0954 64.028 39.0954 64.028 39.0963 64.1615C39.0469 64.5193 38.9018 64.7806 38.6172 65.0042C38.2993 65.0925 38.0678 65.0485 37.75 64.969C37.5016 64.775 37.3886 64.6665 37.3299 64.3532C37.3307 64.2624 37.3316 64.1716 37.3324 64.0781C37.3325 63.9749 37.3325 63.8717 37.3325 63.7654C37.3344 63.6545 37.3364 63.5437 37.3384 63.4295C37.3389 63.3156 37.3394 63.2016 37.34 63.0843C37.3421 62.7203 37.3468 62.3564 37.3516 61.9925C37.3534 61.7458 37.3552 61.4991 37.3567 61.2524C37.3605 60.6474 37.3678 60.0427 37.375 59.4378C36.3541 59.4378 35.3331 59.4378 34.2812 59.4378C34.2845 59.8487 34.2878 60.2596 34.2911 60.6829C34.2929 61.0121 34.2945 61.3413 34.2958 61.6705C34.2973 62.0171 34.2993 62.3637 34.3025 62.7103C34.3055 63.0447 34.3072 63.379 34.3079 63.7133C34.3087 63.9019 34.3109 64.0905 34.3131 64.2791C34.3134 65.6488 34.3134 65.6488 33.8738 66.1418C33.452 66.5184 33.0515 66.6826 32.4916 66.6657C32.4026 66.6655 32.3136 66.6653 32.2219 66.6651C32.0365 66.6633 31.8512 66.6589 31.666 66.652C31.39 66.654 31.1693 66.6656 30.9062 66.7503C30.7131 66.949 30.5906 67.1409 30.4618 67.3857C30.2173 67.8172 29.8246 68.0085 29.377 68.1858C28.4844 68.3522 27.8248 68.2592 27.0647 67.7515C26.5731 67.3686 26.3219 66.9151 26.1484 66.3225C26.0689 65.5468 26.1806 64.8559 26.6414 64.2077C27.1914 63.6129 27.7991 63.3585 28.6035 63.3225C29.2891 63.3466 29.827 63.5373 30.3324 64.0081C30.5818 64.287 30.7369 64.5366 30.9062 64.8753C31.4631 64.9062 32.02 64.9372 32.5938 64.969C32.5938 63.1437 32.5938 61.3184 32.5938 59.4378C32.1297 59.4378 31.6656 59.4378 31.1875 59.4378C30.2035 59.1685 29.4984 58.7577 28.9613 57.8752C28.504 57.0246 28.5625 56.4565 28.5625 55.4065C26.7372 55.4065 24.9119 55.4065 23.0312 55.4065C23.0777 56.2418 23.0777 56.2418 23.125 57.094C23.4327 57.3934 23.4327 57.3934 23.6813 57.4829C24.0969 57.6542 24.2915 58.0371 24.5137 58.4124C24.7365 58.9946 24.723 59.6733 24.5459 60.2643C24.2546 60.9089 23.8273 61.3919 23.1858 61.6999C22.4735 61.952 21.7356 61.9362 21.0391 61.635C20.4535 61.302 19.9932 60.7569 19.791 60.1123C19.6214 59.2613 19.764 58.5893 20.2312 57.8675C20.4448 57.5845 20.6037 57.4649 20.9336 57.3288C21.1134 57.2388 21.1134 57.2388 21.25 57.094C21.3387 56.7589 21.3247 56.4309 21.3145 56.0862C21.302 55.398 21.3173 54.8627 21.7188 54.2815C22.0997 53.9006 22.5019 53.7384 23.0383 53.6965C23.1403 53.6969 23.2423 53.6973 23.3474 53.6977C23.4638 53.6978 23.5801 53.6978 23.6999 53.6978C23.8254 53.6987 23.9509 53.6997 24.0764 53.7007C24.2059 53.7011 24.3354 53.7013 24.465 53.7015C24.8043 53.7022 25.1437 53.7041 25.4831 53.7062C25.83 53.7081 26.1769 53.7089 26.5238 53.7099C27.2034 53.7118 27.8829 53.7155 28.5625 53.719C28.5625 52.6981 28.5625 51.6772 28.5625 50.6253C28.1957 50.6318 27.8289 50.6383 27.451 50.6451C27.0958 50.6494 26.7405 50.6529 26.3853 50.6562C26.1384 50.659 25.8915 50.6628 25.6446 50.6677C25.2897 50.6745 24.9349 50.6777 24.58 50.6802C24.4696 50.6831 24.3592 50.686 24.2455 50.689C23.4986 50.6893 23.4986 50.6893 23.2308 50.5037C23.0548 50.3007 22.9471 50.1199 22.9023 49.8537C22.9541 49.5836 22.9996 49.3574 23.1602 49.1311C23.4636 48.9327 23.7305 48.9263 24.0818 48.9271C24.231 48.9271 24.231 48.9271 24.3832 48.9272C24.4904 48.9276 24.5976 48.9281 24.7081 48.9286C24.873 48.9288 24.873 48.9288 25.0411 48.929C25.3927 48.9296 25.7442 48.9307 26.0957 48.9319C26.3338 48.9324 26.5719 48.9328 26.81 48.9332C27.3942 48.9342 27.9783 48.936 28.5625 48.9378C28.5625 47.9168 28.5625 46.8959 28.5625 45.844C27.8749 45.8424 27.1878 45.8426 26.5003 45.848C26.2664 45.8493 26.0325 45.8493 25.7986 45.8482C25.4625 45.8468 25.1266 45.8496 24.7905 45.8532C24.6335 45.8512 24.6335 45.8512 24.4733 45.8491C23.9612 45.8385 23.9612 45.8385 23.5415 46.0833C23.4233 46.2802 23.4233 46.2802 23.3125 46.594C22.8684 47.1058 22.3273 47.3935 21.6558 47.4641C20.8823 47.4898 20.334 47.3457 19.7266 46.8636C19.1525 46.32 18.9804 45.7901 18.9473 45.0061C18.9727 44.2215 19.2027 43.6252 19.7793 43.0843C20.4303 42.59 21.0985 42.4659 21.9062 42.5628C22.6741 42.7329 23.1453 43.1458 23.5938 43.7815C23.6247 43.8743 23.6556 43.9672 23.6875 44.0628C25.2962 44.0937 26.905 44.1247 28.5625 44.1565C28.5625 43.1356 28.5625 42.1147 28.5625 41.0628C28.2093 41.066 27.856 41.0693 27.4921 41.0727C27.1498 41.0749 26.8076 41.0766 26.4654 41.0782C26.2276 41.0796 25.9898 41.0816 25.752 41.084C25.4101 41.0874 25.0683 41.089 24.7264 41.0902C24.567 41.0924 24.567 41.0924 24.4044 41.0946C24.305 41.0947 24.2055 41.0947 24.1031 41.0947C23.9722 41.0956 23.9722 41.0956 23.8388 41.0966C23.481 41.0472 23.2197 40.9021 22.9961 40.6175C22.9078 40.2996 22.9518 40.0681 23.0312 39.7503C23.2253 39.5019 23.3338 39.3888 23.6471 39.3302C23.7832 39.3314 23.7832 39.3314 23.9221 39.3327C24.077 39.3328 24.077 39.3328 24.2349 39.3328C24.3457 39.3347 24.4566 39.3367 24.5708 39.3387C24.6847 39.3392 24.7986 39.3397 24.916 39.3403C25.28 39.3424 25.6439 39.3471 26.0078 39.3518C26.2545 39.3537 26.5012 39.3554 26.7479 39.357C27.3528 39.3608 27.9576 39.3681 28.5625 39.3753C28.5625 38.3543 28.5625 37.3334 28.5625 36.2815C27.9462 36.2864 27.9462 36.2864 27.3174 36.2914C26.9882 36.2932 26.659 36.2948 26.3298 36.2961C25.9832 36.2976 25.6366 36.2995 25.2899 36.3027C24.9556 36.3058 24.6213 36.3075 24.287 36.3082C24.0984 36.309 23.9098 36.3112 23.7212 36.3134C22.3515 36.3136 22.3515 36.3136 21.8584 35.8741C21.4818 35.4523 21.3177 35.0518 21.3346 34.4919C21.3348 34.4029 21.335 34.3138 21.3351 34.2221C21.337 34.0368 21.3414 33.8515 21.3483 33.6662C21.3463 33.3903 21.3347 33.1696 21.25 32.9065C21.0512 32.7136 20.8594 32.5912 20.6146 32.4627C20.2037 32.2287 20.0125 31.8449 19.8145 31.43C19.6459 30.6331 19.6982 29.9514 20.125 29.2503C20.5213 28.6582 20.9825 28.318 21.6818 28.1659C22.3909 28.0709 23.0044 28.152 23.615 28.5387C24.1974 29 24.5589 29.5594 24.6697 30.2984C24.7016 31.0134 24.5784 31.573 24.1562 32.1565C23.8423 32.4936 23.5377 32.7002 23.125 32.9065C23.0941 33.4634 23.0631 34.0203 23.0312 34.594C24.8566 34.594 26.6819 34.594 28.5625 34.594C28.5625 34.13 28.5625 33.6659 28.5625 33.1878C28.8318 32.2037 29.2426 31.4987 30.1251 30.9616C30.9757 30.5042 31.5437 30.5628 32.5938 30.5628C32.5938 28.7375 32.5938 26.9122 32.5938 25.0315C32.0369 25.0625 31.48 25.0934 30.9062 25.1253C30.6069 25.433 30.6069 25.433 30.5173 25.6816C30.3461 26.0972 29.9632 26.2918 29.5879 26.514C29.0057 26.7368 28.327 26.7232 27.736 26.5462C27.0984 26.2581 26.6096 25.8286 26.3037 25.1938C26.0211 24.4258 26.0775 23.7139 26.4062 22.969C26.8324 22.3118 27.3656 21.993 28.0938 21.7503C29.0069 21.6659 29.6233 21.8893 30.3569 22.4168C30.5312 22.594 30.5312 22.594 30.6777 22.9372C30.7649 23.1153 30.7649 23.1153 30.9062 23.2503C31.2414 23.3388 31.5694 23.3249 31.9141 23.3147C32.6023 23.3023 33.1376 23.3175 33.7188 23.719C34.0997 24.1 34.2618 24.5022 34.3038 25.0386C34.3034 25.1406 34.303 25.2426 34.3025 25.3477C34.3025 25.5222 34.3025 25.5222 34.3025 25.7002C34.3015 25.8257 34.3006 25.9512 34.2996 26.0767C34.2992 26.2062 34.2989 26.3357 34.2988 26.4652C34.298 26.8046 34.2962 27.144 34.2941 27.4834C34.2922 27.8303 34.2913 28.1772 34.2904 28.5241C34.2885 29.2037 34.2848 29.8832 34.2812 30.5628C35.3022 30.5628 36.3231 30.5628 37.375 30.5628C37.3685 30.196 37.3619 29.8292 37.3552 29.4513C37.3508 29.0961 37.3474 28.7408 37.3441 28.3855C37.3413 28.1386 37.3374 27.8918 37.3326 27.6449C37.3257 27.29 37.3226 26.9352 37.3201 26.5802C37.3172 26.4699 37.3143 26.3595 37.3113 26.2458C37.311 25.4989 37.311 25.4989 37.4966 25.2311C37.6996 25.0551 37.8804 24.9474 38.1466 24.9026C38.4166 24.9544 38.6428 24.9998 38.8691 25.1604C39.0675 25.4639 39.074 25.7308 39.0731 26.0821C39.0731 26.1815 39.0731 26.281 39.0731 26.3835C39.0726 26.4907 39.0722 26.5979 39.0717 26.7084C39.0715 26.8732 39.0715 26.8732 39.0713 27.0414C39.0707 27.3929 39.0696 27.7445 39.0684 28.096C39.0679 28.3341 39.0675 28.5722 39.0671 28.8103C39.0661 29.3945 39.0643 29.9786 39.0625 30.5628C40.0834 30.5628 41.1044 30.5628 42.1562 30.5628C42.1579 29.8751 42.1576 29.1881 42.1522 28.5006C42.151 28.2667 42.1509 28.0328 42.1521 27.7989C42.1535 27.4628 42.1507 27.1269 42.1471 26.7908C42.1491 26.6338 42.1491 26.6338 42.1511 26.4735C42.1618 25.9615 42.1618 25.9615 41.917 25.5417C41.72 25.4236 41.72 25.4236 41.4062 25.3128C40.8945 24.8687 40.6068 24.3276 40.5361 23.656C40.5105 22.8826 40.6546 22.3342 41.1367 21.7268C41.9908 20.8249 43.3254 20.6988 44.3949 21.324ZM42.4434 22.8811C42.2175 23.1468 42.2175 23.1468 42.25 23.4964C42.3522 23.8626 42.3522 23.8626 42.625 24.094C42.8467 24.1884 42.8467 24.1884 43.0938 24.1878C43.4206 24.0358 43.5478 23.9286 43.75 23.6253C43.7337 23.1661 43.7337 23.1661 43.498 22.7874C43.075 22.593 42.8246 22.6135 42.4434 22.8811ZM28.1055 23.5901C27.8833 23.8385 27.8125 23.9494 27.8125 24.2815C27.9424 24.5475 28.0722 24.7287 28.2812 24.9378C28.6285 24.9841 28.8037 24.9596 29.1133 24.7913C29.3417 24.5712 29.3417 24.5712 29.3594 24.2347C29.3024 23.8225 29.3024 23.8225 29.0312 23.5315C28.6426 23.4164 28.4625 23.3883 28.1055 23.5901ZM56.7812 23.719C56.6346 24.0123 56.6541 24.2399 56.6875 24.5628C56.8686 24.8139 56.8686 24.8139 57.1562 24.9378C57.4866 24.9321 57.7109 24.9118 57.9883 24.7268C58.1298 24.5067 58.175 24.3566 58.1875 24.094C58.0355 23.7672 57.9283 23.64 57.625 23.4378C57.2225 23.4378 57.1011 23.4943 56.7812 23.719ZM21.625 30.094C21.4051 30.3645 21.4051 30.3645 21.4492 30.7034C21.5046 31.0267 21.5046 31.0267 21.6836 31.2132C22.0011 31.3552 22.2188 31.3619 22.5625 31.3128C22.8136 31.1317 22.8136 31.1317 22.9375 30.844C22.9318 30.5136 22.9115 30.2894 22.7266 30.012C22.2957 29.735 22.0238 29.7922 21.625 30.094ZM63.25 30.094C63.037 30.2691 63.037 30.2691 63.0273 30.5452C63.0716 30.921 63.1526 31.0644 63.4375 31.3128C63.7812 31.3619 63.9989 31.3552 64.3164 31.2132C64.5468 30.9384 64.5625 30.7296 64.5625 30.3753C64.3939 30.0769 64.2765 29.943 63.959 29.8128C63.6467 29.8128 63.4995 29.9119 63.25 30.094ZM30.4902 32.9124C30.3132 33.2452 30.2383 33.4901 30.2374 33.8617C30.237 33.9422 30.2366 34.0226 30.2361 34.1055C30.2362 34.1939 30.2362 34.2823 30.2362 34.3733C30.2359 34.4672 30.2355 34.5611 30.2352 34.6579C30.2341 34.9739 30.2338 35.29 30.2334 35.6061C30.2328 35.8322 30.2322 36.0582 30.2315 36.2842C30.2297 36.9636 30.2287 37.643 30.2279 38.3224C30.2275 38.6424 30.227 38.9625 30.2265 39.2825C30.2249 40.3464 30.2235 41.4103 30.2229 42.4742C30.2227 42.7503 30.2225 43.0263 30.2223 43.3024C30.2223 43.371 30.2222 43.4396 30.2222 43.5103C30.2214 44.6217 30.219 45.733 30.216 46.8443C30.2129 47.9855 30.2112 49.1266 30.2109 50.2678C30.2107 50.9085 30.2099 51.5491 30.2075 52.1897C30.2052 52.7925 30.2049 53.3952 30.2059 53.998C30.2059 54.2191 30.2053 54.4403 30.204 54.6614C30.2024 54.9636 30.203 55.2656 30.2043 55.5677C30.2032 55.6551 30.2022 55.7424 30.2012 55.8324C30.2066 56.3861 30.2995 56.8239 30.625 57.2815C31.0247 57.5997 31.3519 57.7616 31.8614 57.7629C31.9419 57.7633 32.0223 57.7637 32.1052 57.7641C32.2378 57.7641 32.2378 57.7641 32.3731 57.7641C32.5139 57.7646 32.5139 57.7646 32.6576 57.7651C32.9737 57.7662 33.2898 57.7665 33.6058 57.7669C33.8319 57.7675 34.0579 57.7681 34.284 57.7687C34.9634 57.7705 35.6428 57.7715 36.3222 57.7724C36.6422 57.7728 36.9622 57.7733 37.2822 57.7738C38.3461 57.7754 39.41 57.7767 40.4739 57.7774C40.75 57.7776 41.0261 57.7778 41.3021 57.778C41.3707 57.778 41.4394 57.778 41.5101 57.7781C42.6214 57.7789 43.7327 57.7812 44.844 57.7843C45.9852 57.7874 47.1264 57.7891 48.2675 57.7894C48.9082 57.7896 49.5488 57.7904 50.1895 57.7928C50.7922 57.795 51.3949 57.7954 51.9977 57.7944C52.2188 57.7944 52.44 57.795 52.6612 57.7962C52.9633 57.7979 53.2653 57.7972 53.5674 57.796C53.6548 57.797 53.7421 57.7981 53.8321 57.7991C54.3858 57.7937 54.8236 57.7008 55.2812 57.3753C55.5994 56.9756 55.7614 56.6484 55.7626 56.1388C55.7632 56.0182 55.7632 56.0182 55.7639 55.8951C55.7638 55.8067 55.7638 55.7183 55.7638 55.6272C55.7643 55.4864 55.7643 55.4864 55.7648 55.3427C55.7659 55.0266 55.7662 54.7105 55.7666 54.3944C55.7672 54.1684 55.7678 53.9424 55.7685 53.7163C55.7703 53.0369 55.7713 52.3575 55.7721 51.6781C55.7725 51.3581 55.773 51.0381 55.7735 50.7181C55.7751 49.6542 55.7764 48.5903 55.7771 47.5264C55.7773 47.2503 55.7775 46.9742 55.7777 46.6981C55.7777 46.6295 55.7778 46.5609 55.7778 46.4902C55.7786 45.3789 55.781 44.2676 55.784 43.1563C55.7871 42.0151 55.7888 40.8739 55.7891 39.7327C55.7893 39.0921 55.7901 38.4515 55.7925 37.8108C55.7948 37.2081 55.7951 36.6053 55.7941 36.0026C55.7941 35.7814 55.7947 35.5603 55.796 35.3391C55.7976 35.037 55.797 34.735 55.7957 34.4329C55.7968 34.3455 55.7978 34.2582 55.7988 34.1681C55.7934 33.6145 55.7005 33.1767 55.375 32.719C54.9753 32.4009 54.6481 32.2389 54.1386 32.2377C54.0581 32.2373 53.9777 32.2369 53.8948 32.2364C53.8064 32.2364 53.718 32.2365 53.6269 32.2365C53.533 32.2361 53.4392 32.2358 53.3424 32.2354C53.0263 32.2344 52.7102 32.234 52.3942 32.2337C52.1681 32.2331 51.9421 32.2325 51.716 32.2318C51.0366 32.23 50.3573 32.229 49.6779 32.2282C49.3578 32.2278 49.0378 32.2273 48.7178 32.2268C47.6539 32.2252 46.59 32.2238 45.5261 32.2232C45.25 32.223 44.9739 32.2228 44.6979 32.2226C44.6293 32.2226 44.5606 32.2225 44.4899 32.2225C43.3786 32.2217 42.2673 32.2193 41.156 32.2163C40.0148 32.2132 38.8736 32.2115 37.7325 32.2112C37.0918 32.211 36.4512 32.2102 35.8105 32.2078C35.2078 32.2055 34.6051 32.2052 34.0023 32.2062C33.7812 32.2062 33.56 32.2056 33.3388 32.2043C33.0367 32.2027 32.7347 32.2033 32.4326 32.2046C32.3452 32.2035 32.2579 32.2025 32.1679 32.2014C31.4709 32.2083 30.9351 32.3535 30.4902 32.9124ZM20.6875 44.719C20.6094 45.0003 20.6094 45.0003 20.6875 45.2815C20.8672 45.5706 20.8672 45.5706 21.1562 45.7503C21.4911 45.7503 21.7076 45.7265 21.9883 45.5393C22.1298 45.3192 22.175 45.1691 22.1875 44.9065C22.0355 44.5797 21.9283 44.4525 21.625 44.2503C21.1569 44.164 20.9651 44.3542 20.6875 44.719ZM63.9062 44.6253C63.7973 44.8497 63.7973 44.8497 63.8125 45.094C63.9645 45.4209 64.0717 45.5481 64.375 45.7503C64.8341 45.734 64.8341 45.734 65.2129 45.4983C65.3464 45.2078 65.3642 45.0357 65.3125 44.719C65.0977 44.4367 64.96 44.2764 64.6094 44.1975C64.2906 44.2693 64.1332 44.392 63.9062 44.6253ZM21.5312 58.969C21.4214 59.2847 21.4214 59.2847 21.4375 59.6253C21.6061 59.9236 21.7235 60.0575 22.041 60.1878C22.3558 60.1878 22.5013 60.0948 22.75 59.9065C22.9709 59.636 22.9709 59.636 22.9199 59.2972C22.864 58.9835 22.864 58.9835 22.7383 58.7874C22.3257 58.5536 21.8361 58.6056 21.5312 58.969ZM63.209 58.887C63.0373 59.2028 63.0023 59.3652 63.0625 59.719C63.244 59.9678 63.3792 60.0716 63.666 60.1819C63.983 60.1897 64.1248 60.0959 64.375 59.9065C64.5949 59.6361 64.5949 59.6361 64.5508 59.2972C64.4954 58.9739 64.4954 58.9739 64.3164 58.7874C63.8935 58.5982 63.5654 58.5763 63.209 58.887ZM27.9062 65.4378C27.805 65.6629 27.805 65.6629 27.8125 65.9065C27.9645 66.2334 28.0717 66.3606 28.375 66.5628C28.7181 66.5505 28.9454 66.541 29.2129 66.3167C29.3549 65.9992 29.3616 65.7815 29.3125 65.4378C29.0705 65.1602 28.9198 65.0752 28.5566 65.0159C28.2144 65.0742 28.1095 65.1593 27.9062 65.4378ZM56.6875 65.4378C56.6384 65.7815 56.6451 65.9992 56.7871 66.3167C57.0619 66.5471 57.2707 66.5628 57.625 66.5628C57.9234 66.3941 58.0573 66.2767 58.1875 65.9593C58.1875 65.647 58.0883 65.4998 57.9062 65.2503C57.7312 65.0373 57.7312 65.0373 57.4551 65.0276C57.0793 65.0718 56.9359 65.1529 56.6875 65.4378ZM42.4375 66.094C42.2176 66.3645 42.2176 66.3645 42.2617 66.7034C42.3165 67.028 42.3165 67.028 42.502 67.2132C42.7925 67.3467 42.9645 67.3645 43.2812 67.3128C43.5703 67.1331 43.5703 67.1331 43.75 66.844C43.75 66.5092 43.7262 66.2927 43.5391 66.012C43.1082 65.735 42.8363 65.7922 42.4375 66.094Z" fill="#703391"/>
<path d="M38.6874 37.7818C39.0006 37.9072 39.1545 38.0673 39.3436 38.3443C39.4394 38.6227 39.4394 38.6227 39.523 38.9545C39.5463 39.0463 39.5463 39.0463 39.5701 39.1399C39.7756 39.959 39.9584 40.7836 40.1423 41.6076C40.1822 41.7855 40.2222 41.9634 40.2621 42.1413C40.3456 42.513 40.4288 42.8849 40.512 43.2567C40.6163 43.7237 40.721 44.1906 40.8258 44.6574C41.027 45.5539 41.2275 46.4505 41.4271 47.3473C41.5342 47.8284 41.6419 48.3094 41.7501 48.7903C41.8132 49.0707 41.8757 49.3513 41.9381 49.6319C41.9666 49.7595 41.9952 49.887 42.0241 50.0145C42.0633 50.1873 42.1016 50.3603 42.1399 50.5333C42.1613 50.6289 42.1827 50.7244 42.2048 50.8229C42.2726 51.2314 42.3051 51.544 42.121 51.9205C41.9686 52.1256 41.9686 52.1256 41.7811 52.2193C41.1166 52.2847 41.1166 52.2847 40.7997 52.0424C40.4603 51.6893 40.4054 51.2482 40.3115 50.782C40.2813 50.6425 40.2813 50.6425 40.2505 50.5002C40.1868 50.2044 40.1255 49.9082 40.0643 49.6119C40.0215 49.4108 39.9784 49.2097 39.9352 49.0086C39.8296 48.5167 39.7274 48.0244 39.6249 47.5318C38.6658 47.5009 37.7068 47.47 36.7186 47.4381C36.6877 47.6856 36.6568 47.9331 36.6249 48.1881C36.6021 48.3177 36.5776 48.447 36.5499 48.5756C36.5357 48.6416 36.5216 48.7076 36.5071 48.7756C36.4921 48.8441 36.477 48.9126 36.4615 48.9831C36.4457 49.0559 36.4299 49.1286 36.4135 49.2036C36.3801 49.356 36.3466 49.5085 36.3128 49.6609C36.2616 49.8933 36.2116 50.1261 36.1616 50.3588C36.1289 50.5077 36.096 50.6566 36.0631 50.8054C36.0485 50.8744 36.0338 50.9435 36.0187 51.0146C35.9084 51.5035 35.7617 51.8638 35.4061 52.2193C34.9561 52.271 34.7581 52.2852 34.3749 52.0377C34.0349 51.5171 34.1724 50.9295 34.2887 50.3465C34.3357 50.1312 34.3837 49.9161 34.4325 49.7012C34.4586 49.5831 34.4846 49.465 34.5115 49.3434C34.5825 49.0216 34.6547 48.7002 34.7271 48.3788C34.803 48.0414 34.878 47.7037 34.9531 47.3661C35.0792 46.7996 35.2062 46.2333 35.3335 45.667C35.4805 45.0133 35.6263 44.3594 35.7715 43.7053C35.9116 43.0745 36.0525 42.4439 36.1938 41.8133C36.2538 41.5456 36.3135 41.2779 36.3729 41.0101C36.4559 40.6361 36.5402 40.2623 36.6246 39.8886C36.649 39.778 36.6734 39.6674 36.6986 39.5534C36.9711 38.3573 36.9711 38.3573 37.4276 37.9342C37.8643 37.7278 38.2132 37.6894 38.6874 37.7818ZM38.1249 41.0631C37.9907 41.6552 37.8572 42.2474 37.7243 42.8398C37.679 43.0412 37.6336 43.2427 37.5879 43.444C37.5223 43.7337 37.4573 44.0234 37.3925 44.3132C37.3617 44.448 37.3617 44.448 37.3303 44.5855C37.3115 44.6699 37.2928 44.7544 37.2734 44.8414C37.2485 44.9522 37.2485 44.9522 37.223 45.0653C37.1747 45.3224 37.1747 45.3224 37.1874 45.7506C37.868 45.7506 38.5486 45.7506 39.2499 45.7506C39.1121 44.862 38.9327 43.9866 38.7381 43.1091C38.6868 42.8768 38.6365 42.6443 38.5863 42.4118C38.5537 42.2638 38.5209 42.1157 38.4882 41.9676C38.4733 41.8983 38.4585 41.829 38.4432 41.7575C38.3603 41.3717 38.3603 41.3717 38.1249 41.0631Z" fill="#703391"/>
<path d="M44.7402 37.764C44.8495 37.7625 44.9587 37.761 45.0712 37.7594C45.5709 37.7553 46.0705 37.7514 46.5702 37.7493C46.8341 37.748 47.0978 37.7454 47.3616 37.7416C47.7413 37.7361 48.121 37.7344 48.5008 37.733C48.6187 37.7309 48.7367 37.7288 48.8583 37.7266C49.7687 37.7288 49.7687 37.7288 50.0582 38.0074C50.2104 38.2383 50.2847 38.3531 50.2831 38.6258C50.2854 38.6858 50.2877 38.7457 50.2901 38.8075C50.2186 39.0008 50.2186 39.0008 49.6561 39.4696C49.0683 39.4696 48.4805 39.4696 47.8749 39.4696C47.8749 43.1202 47.8749 46.7708 47.8749 50.5321C48.4627 50.5321 49.0505 50.5321 49.6561 50.5321C50.2186 51.0008 50.2186 51.0008 50.2901 51.1942C50.2866 51.2841 50.2866 51.2841 50.2831 51.3758C50.2835 51.4358 50.2838 51.4957 50.2842 51.5575C50.1786 51.8691 50.0326 52.0589 49.7499 52.2196C49.3363 52.2908 48.9261 52.283 48.5073 52.2785C48.3255 52.2789 48.3255 52.2789 48.14 52.2792C47.884 52.2795 47.628 52.2781 47.3719 52.2755C47.0441 52.2723 46.7165 52.2729 46.3887 52.2747C46.0754 52.2759 45.7621 52.2742 45.4487 52.2727C45.3312 52.2731 45.2136 52.2736 45.0924 52.2741C44.9286 52.2719 44.9286 52.2719 44.7615 52.2696C44.6175 52.2687 44.6175 52.2687 44.4706 52.2678C44.1537 52.2071 44.0444 52.0915 43.8436 51.8446C43.7099 51.5771 43.7208 51.3913 43.7499 51.0946C43.9515 50.7817 44.0503 50.6507 44.4061 50.5321C44.994 50.5321 45.5818 50.5321 46.1874 50.5321C46.1874 46.8814 46.1874 43.2308 46.1874 39.4696C45.5996 39.4696 45.0118 39.4696 44.4061 39.4696C43.9374 39.1883 43.9374 39.1883 43.7499 38.9071C43.7026 38.4722 43.7706 38.2266 44.0311 37.8758C44.2775 37.7527 44.4644 37.7674 44.7402 37.764Z" fill="#703391"/>
</g>
<defs>
<clipPath id="clip0_3260_16307">
<rect width="48" height="48" fill="white" transform="translate(19 21)"/>
</clipPath>
</defs>
</svg>
