<svg width="67" height="58" viewBox="0 0 67 58" fill="none" xmlns="http://www.w3.org/2000/svg">
<path d="M52.1376 29.5863C51.6889 29.5863 51.2456 29.6106 50.805 29.6539V13.8722C50.805 10.5939 48.394 7.87337 45.2532 7.37254V4.47058C45.2532 2.56482 43.7071 1.01367 41.8042 1.01367H41.2582C39.3553 1.01367 37.8092 2.56482 37.8092 4.47058V7.28321H35.2603V4.47058C35.2603 2.56482 33.7114 1.01367 31.8086 1.01367H31.2626C29.3624 1.01367 27.8135 2.56482 27.8135 4.47058V7.28321H24.7538V4.47058C24.7538 2.56482 23.2077 1.01367 21.3048 1.01367H20.7588C18.8559 1.01367 17.3098 2.56482 17.3098 4.47058V7.28321H14.7582V4.47058C14.7582 2.56482 13.212 1.01367 11.3091 1.01367H10.7631C8.86025 1.01367 7.31414 2.56482 7.31414 4.47058V7.29672C3.80839 7.44561 1 10.334 1 13.8722V41.3595C1 44.995 3.95702 47.9484 7.59251 47.9484H39.2116C41.1091 53.2705 46.1797 57.0981 52.1375 57.0981C59.711 57.0981 65.8715 50.9261 65.8715 43.3406C65.8715 35.7557 59.7116 29.5863 52.1376 29.5863ZM41.2579 3.17934H41.8039C42.5148 3.17934 43.0906 3.75865 43.0906 4.47061V8.11699C43.0906 8.82621 42.5148 9.40557 41.8039 9.40557H41.2579C40.6417 9.40557 40.147 8.9589 40.0226 8.37687C40.0226 8.37416 40.0254 8.36875 40.0254 8.36604C40.0254 8.26859 39.9956 8.18197 39.9713 8.09263V4.47058C39.9713 3.75865 40.547 3.17934 41.2579 3.17934ZM31.2626 3.17934H31.8086C32.5194 3.17934 33.0979 3.75865 33.0979 4.47061V8.08449C33.0709 8.17653 33.0411 8.26587 33.0411 8.36602C33.0411 8.37144 33.0438 8.37685 33.0438 8.38227C32.9168 8.96158 32.4249 9.40556 31.8085 9.40556H31.2626C30.6544 9.40556 30.1679 8.97243 30.0327 8.40126C30.0354 8.39043 30.0408 8.3796 30.0408 8.36606C30.0408 8.25237 30.0084 8.14679 29.976 8.04393V4.47066C29.976 3.75874 30.5544 3.17934 31.2626 3.17934ZM20.7586 3.17934H21.3046C22.0128 3.17934 22.5912 3.75865 22.5912 4.47061V8.09267C22.5669 8.18201 22.5372 8.26863 22.5372 8.36608C22.5372 8.36879 22.5399 8.3742 22.5399 8.37691C22.4155 8.95892 21.9209 9.4056 21.3046 9.4056H20.7586C20.1396 9.4056 19.6477 8.95894 19.5233 8.37691C19.5233 8.3742 19.526 8.36879 19.526 8.36608C19.526 8.26863 19.4936 8.18201 19.472 8.09267V4.47061C19.472 3.75869 20.0477 3.17934 20.7586 3.17934ZM10.7632 3.17934H11.3092C12.0201 3.17934 12.5959 3.75865 12.5959 4.47061V8.08449C12.5715 8.17653 12.5391 8.26587 12.5391 8.36602C12.5391 8.37144 12.5445 8.37685 12.5445 8.38227C12.4175 8.96158 11.9255 9.40556 11.3092 9.40556H10.7632C10.1551 9.40556 9.66855 8.97243 9.53341 8.40126C9.53341 8.39043 9.54152 8.3796 9.54152 8.36606C9.54152 8.25237 9.50908 8.14679 9.47665 8.04393V4.47066C9.47665 3.75874 10.055 3.17934 10.7632 3.17934ZM7.58182 9.44888C8.10349 10.6941 9.33331 11.5712 10.7632 11.5712H11.3092C12.7418 11.5712 13.969 10.6941 14.4907 9.44888H17.5774C18.0991 10.6941 19.3262 11.5712 20.7589 11.5712H21.3049C22.7347 11.5712 23.9646 10.6941 24.4863 9.44888H28.0812C28.6029 10.6941 29.8327 11.5712 31.2627 11.5712H31.8086C33.2412 11.5712 34.4684 10.6941 34.9901 9.44888H38.0768C38.5985 10.6941 39.8283 11.5712 41.2583 11.5712H41.8043C43.2044 11.5712 44.4099 10.7266 44.9478 9.52199C47.0399 9.87391 48.6428 11.6849 48.6428 13.8722V14.9604L3.16229 15.0849V13.8722C3.16229 11.4359 5.14376 9.45428 7.58182 9.44888ZM7.59263 45.7831C5.14918 45.7831 3.16249 43.7988 3.16249 41.3598V17.2509L48.643 17.1263V30.055C46.3022 30.6722 44.1993 31.885 42.5207 33.5363C41.9855 33.1275 41.3287 32.8866 40.634 32.8866H37.4986C35.7768 32.8866 34.3794 34.2861 34.3794 36.0105V39.1506C34.3794 40.8723 35.7768 42.2746 37.4986 42.2746H38.4554C38.4284 42.6265 38.4014 42.9811 38.4014 43.3412C38.4014 44.1776 38.4879 44.9897 38.6311 45.7829L7.59263 45.7831ZM38.8014 40.1091H37.4986C36.9715 40.1091 36.5418 39.6787 36.5418 39.1508V36.0107C36.5418 35.4828 36.9715 35.0524 37.4986 35.0524H40.634C40.8043 35.0524 40.9638 35.1011 41.1043 35.1823C40.0312 36.6334 39.2393 38.3008 38.8014 40.1091ZM53.2191 54.8763V53.9749C53.2191 53.3766 52.7353 52.8921 52.1379 52.8921C51.5406 52.8921 51.0567 53.3766 51.0567 53.9749V54.8763C45.6319 54.3701 41.2883 50.1011 40.6531 44.7086H41.8019C42.3993 44.7086 42.8831 44.224 42.8831 43.6258C42.8831 43.0275 42.3993 42.5429 41.8019 42.5429H40.6045C40.9937 36.8852 45.4428 32.3322 51.0565 31.8069V33.2769C51.0565 33.8724 51.5404 34.3597 52.1377 34.3597C52.7351 34.3597 53.2189 33.8724 53.2189 33.2769V31.8069C58.8303 32.3321 63.2793 36.8853 63.6689 42.5429H62.4715C61.8741 42.5429 61.3903 43.0275 61.3903 43.6258C61.3903 44.224 61.8741 44.7086 62.4715 44.7086H63.6229C62.985 50.101 58.6412 54.3698 53.2191 54.8763Z" fill="#703391"/>
<path d="M13.7774 21.0859H10.2203C8.61747 21.0859 7.31464 22.3907 7.31464 23.9959V27.5557C7.31464 29.161 8.61747 30.4685 10.2203 30.4685H13.7774C15.3803 30.4685 16.6831 29.161 16.6831 27.5557V23.9959C16.6831 22.3907 15.3803 21.0859 13.7774 21.0859ZM14.5207 27.5557C14.5207 27.9672 14.1856 28.3028 13.7774 28.3028H10.2203C9.81218 28.3028 9.47702 27.9672 9.47702 27.5557V23.9959C9.47702 23.5845 9.81219 23.2515 10.2203 23.2515H13.7774C14.1856 23.2515 14.5207 23.5845 14.5207 23.9959V27.5557Z" fill="#703391"/>
<path d="M13.7774 32.8912H10.2203C8.61747 32.8912 7.31464 34.196 7.31464 35.8013V39.361C7.31464 40.9663 8.61747 42.2738 10.2203 42.2738H13.7774C15.3803 42.2738 16.6831 40.9663 16.6831 39.361V35.8013C16.6831 34.196 15.3803 32.8912 13.7774 32.8912ZM14.5207 39.361C14.5207 39.7725 14.1856 40.1081 13.7774 40.1081H10.2203C9.81218 40.1081 9.47702 39.7725 9.47702 39.361V35.8013C9.47702 35.3898 9.81219 35.0568 10.2203 35.0568H13.7774C14.1856 35.0568 14.5207 35.3898 14.5207 35.8013V39.361Z" fill="#703391"/>
<path d="M27.3108 21.0859H23.7538C22.1509 21.0859 20.8481 22.3907 20.8481 23.9959V27.5557C20.8481 29.161 22.1509 30.4685 23.7538 30.4685H27.3108C28.9137 30.4685 30.2165 29.161 30.2165 27.5557V23.9959C30.2165 22.3907 28.9137 21.0859 27.3108 21.0859ZM28.0542 27.5557C28.0542 27.9672 27.719 28.3028 27.3108 28.3028H23.7538C23.3456 28.3028 23.0105 27.9672 23.0105 27.5557V23.9959C23.0105 23.5845 23.3456 23.2515 23.7538 23.2515H27.3108C27.719 23.2515 28.0542 23.5845 28.0542 23.9959V27.5557Z" fill="#703391"/>
<path d="M27.3108 32.8912H23.7538C22.1509 32.8912 20.8481 34.196 20.8481 35.8013V39.361C20.8481 40.9663 22.1509 42.2738 23.7538 42.2738H27.3108C28.9137 42.2738 30.2165 40.9663 30.2165 39.361V35.8013C30.2165 34.196 28.9137 32.8912 27.3108 32.8912ZM28.0542 39.361C28.0542 39.7725 27.719 40.1081 27.3108 40.1081H23.7538C23.3456 40.1081 23.0105 39.7725 23.0105 39.361V35.8013C23.0105 35.3898 23.3456 35.0568 23.7538 35.0568H27.3108C27.719 35.0568 28.0542 35.3898 28.0542 35.8013V39.361Z" fill="#703391"/>
<path d="M37.2875 30.4685H40.8446C42.4475 30.4685 43.7503 29.161 43.7503 27.5557V23.9959C43.7503 22.3907 42.4475 21.0859 40.8446 21.0859H37.2875C35.6874 21.0859 34.3818 22.3907 34.3818 23.9959V27.5557C34.3818 29.161 35.6874 30.4685 37.2875 30.4685ZM36.5442 23.9959C36.5442 23.5845 36.8794 23.2515 37.2875 23.2515H40.8446C41.2555 23.2515 41.5879 23.5845 41.5879 23.9959V27.5557C41.5879 27.9672 41.2555 28.3028 40.8446 28.3028H37.2875C36.8794 28.3028 36.5442 27.9672 36.5442 27.5557V23.9959Z" fill="#703391"/>
<path d="M56.5059 36.1968L51.2946 42.6612C50.9919 43.0402 50.9757 43.5762 51.2568 43.9714L53.7759 47.496C53.9868 47.791 54.3192 47.9481 54.6544 47.9481C54.8733 47.9481 55.0923 47.8831 55.2842 47.7477C55.768 47.3985 55.8815 46.7244 55.5329 46.2372L53.4948 43.3813L58.1899 37.5557C58.5629 37.0928 58.4926 36.4107 58.0277 36.0344C57.5655 35.6608 56.8817 35.7312 56.5059 36.1968Z" fill="#703391"/>
<path d="M52.1376 29.5863C51.6889 29.5863 51.2456 29.6106 50.805 29.6539V13.8722C50.805 10.5939 48.394 7.87337 45.2532 7.37254V4.47058C45.2532 2.56482 43.7071 1.01367 41.8042 1.01367H41.2582C39.3553 1.01367 37.8092 2.56482 37.8092 4.47058V7.28321H35.2603V4.47058C35.2603 2.56482 33.7114 1.01367 31.8086 1.01367H31.2626C29.3624 1.01367 27.8135 2.56482 27.8135 4.47058V7.28321H24.7538V4.47058C24.7538 2.56482 23.2077 1.01367 21.3048 1.01367H20.7588C18.8559 1.01367 17.3098 2.56482 17.3098 4.47058V7.28321H14.7582V4.47058C14.7582 2.56482 13.212 1.01367 11.3091 1.01367H10.7631C8.86025 1.01367 7.31414 2.56482 7.31414 4.47058V7.29672C3.80839 7.44561 1 10.334 1 13.8722V41.3595C1 44.995 3.95702 47.9484 7.59251 47.9484H39.2116C41.1091 53.2705 46.1797 57.0981 52.1375 57.0981C59.711 57.0981 65.8715 50.9261 65.8715 43.3406C65.8715 35.7557 59.7116 29.5863 52.1376 29.5863ZM41.2579 3.17934H41.8039C42.5148 3.17934 43.0906 3.75865 43.0906 4.47061V8.11699C43.0906 8.82621 42.5148 9.40557 41.8039 9.40557H41.2579C40.6417 9.40557 40.147 8.9589 40.0226 8.37687C40.0226 8.37416 40.0254 8.36875 40.0254 8.36604C40.0254 8.26859 39.9956 8.18197 39.9713 8.09263V4.47058C39.9713 3.75865 40.547 3.17934 41.2579 3.17934ZM31.2626 3.17934H31.8086C32.5194 3.17934 33.0979 3.75865 33.0979 4.47061V8.08449C33.0709 8.17653 33.0411 8.26587 33.0411 8.36602C33.0411 8.37144 33.0438 8.37685 33.0438 8.38227C32.9168 8.96158 32.4249 9.40556 31.8085 9.40556H31.2626C30.6544 9.40556 30.1679 8.97243 30.0327 8.40126C30.0354 8.39043 30.0408 8.3796 30.0408 8.36606C30.0408 8.25237 30.0084 8.14679 29.976 8.04393V4.47066C29.976 3.75874 30.5544 3.17934 31.2626 3.17934ZM20.7586 3.17934H21.3046C22.0128 3.17934 22.5912 3.75865 22.5912 4.47061V8.09267C22.5669 8.18201 22.5372 8.26863 22.5372 8.36608C22.5372 8.36879 22.5399 8.3742 22.5399 8.37691C22.4155 8.95892 21.9209 9.4056 21.3046 9.4056H20.7586C20.1396 9.4056 19.6477 8.95894 19.5233 8.37691C19.5233 8.3742 19.526 8.36879 19.526 8.36608C19.526 8.26863 19.4936 8.18201 19.472 8.09267V4.47061C19.472 3.75869 20.0477 3.17934 20.7586 3.17934ZM10.7632 3.17934H11.3092C12.0201 3.17934 12.5959 3.75865 12.5959 4.47061V8.08449C12.5715 8.17653 12.5391 8.26587 12.5391 8.36602C12.5391 8.37144 12.5445 8.37685 12.5445 8.38227C12.4175 8.96158 11.9255 9.40556 11.3092 9.40556H10.7632C10.1551 9.40556 9.66855 8.97243 9.53341 8.40126C9.53341 8.39043 9.54152 8.3796 9.54152 8.36606C9.54152 8.25237 9.50908 8.14679 9.47665 8.04393V4.47066C9.47665 3.75874 10.055 3.17934 10.7632 3.17934ZM7.58182 9.44888C8.10349 10.6941 9.33331 11.5712 10.7632 11.5712H11.3092C12.7418 11.5712 13.969 10.6941 14.4907 9.44888H17.5774C18.0991 10.6941 19.3262 11.5712 20.7589 11.5712H21.3049C22.7347 11.5712 23.9646 10.6941 24.4863 9.44888H28.0812C28.6029 10.6941 29.8327 11.5712 31.2627 11.5712H31.8086C33.2412 11.5712 34.4684 10.6941 34.9901 9.44888H38.0768C38.5985 10.6941 39.8283 11.5712 41.2583 11.5712H41.8043C43.2044 11.5712 44.4099 10.7266 44.9478 9.52199C47.0399 9.87391 48.6428 11.6849 48.6428 13.8722V14.9604L3.16229 15.0849V13.8722C3.16229 11.4359 5.14376 9.45428 7.58182 9.44888ZM7.59263 45.7831C5.14918 45.7831 3.16249 43.7988 3.16249 41.3598V17.2509L48.643 17.1263V30.055C46.3022 30.6722 44.1993 31.885 42.5207 33.5363C41.9855 33.1275 41.3287 32.8866 40.634 32.8866H37.4986C35.7768 32.8866 34.3794 34.2861 34.3794 36.0105V39.1506C34.3794 40.8723 35.7768 42.2746 37.4986 42.2746H38.4554C38.4284 42.6265 38.4014 42.9811 38.4014 43.3412C38.4014 44.1776 38.4879 44.9897 38.6311 45.7829L7.59263 45.7831ZM38.8014 40.1091H37.4986C36.9715 40.1091 36.5418 39.6787 36.5418 39.1508V36.0107C36.5418 35.4828 36.9715 35.0524 37.4986 35.0524H40.634C40.8043 35.0524 40.9638 35.1011 41.1043 35.1823C40.0312 36.6334 39.2393 38.3008 38.8014 40.1091ZM53.2191 54.8763V53.9749C53.2191 53.3766 52.7353 52.8921 52.1379 52.8921C51.5406 52.8921 51.0567 53.3766 51.0567 53.9749V54.8763C45.6319 54.3701 41.2883 50.1011 40.6531 44.7086H41.8019C42.3993 44.7086 42.8831 44.224 42.8831 43.6258C42.8831 43.0275 42.3993 42.5429 41.8019 42.5429H40.6045C40.9937 36.8852 45.4428 32.3322 51.0565 31.8069V33.2769C51.0565 33.8724 51.5404 34.3597 52.1377 34.3597C52.7351 34.3597 53.2189 33.8724 53.2189 33.2769V31.8069C58.8303 32.3321 63.2793 36.8853 63.6689 42.5429H62.4715C61.8741 42.5429 61.3903 43.0275 61.3903 43.6258C61.3903 44.224 61.8741 44.7086 62.4715 44.7086H63.6229C62.985 50.101 58.6412 54.3698 53.2191 54.8763Z" stroke="#703391" stroke-width="0.7"/>
<path d="M13.7774 21.0859H10.2203C8.61747 21.0859 7.31464 22.3907 7.31464 23.9959V27.5557C7.31464 29.161 8.61747 30.4685 10.2203 30.4685H13.7774C15.3803 30.4685 16.6831 29.161 16.6831 27.5557V23.9959C16.6831 22.3907 15.3803 21.0859 13.7774 21.0859ZM14.5207 27.5557C14.5207 27.9672 14.1856 28.3028 13.7774 28.3028H10.2203C9.81218 28.3028 9.47702 27.9672 9.47702 27.5557V23.9959C9.47702 23.5845 9.81219 23.2515 10.2203 23.2515H13.7774C14.1856 23.2515 14.5207 23.5845 14.5207 23.9959V27.5557Z" stroke="#703391" stroke-width="0.7"/>
<path d="M13.7774 32.8912H10.2203C8.61747 32.8912 7.31464 34.196 7.31464 35.8013V39.361C7.31464 40.9663 8.61747 42.2738 10.2203 42.2738H13.7774C15.3803 42.2738 16.6831 40.9663 16.6831 39.361V35.8013C16.6831 34.196 15.3803 32.8912 13.7774 32.8912ZM14.5207 39.361C14.5207 39.7725 14.1856 40.1081 13.7774 40.1081H10.2203C9.81218 40.1081 9.47702 39.7725 9.47702 39.361V35.8013C9.47702 35.3898 9.81219 35.0568 10.2203 35.0568H13.7774C14.1856 35.0568 14.5207 35.3898 14.5207 35.8013V39.361Z" stroke="#703391" stroke-width="0.7"/>
<path d="M27.3108 21.0859H23.7538C22.1509 21.0859 20.8481 22.3907 20.8481 23.9959V27.5557C20.8481 29.161 22.1509 30.4685 23.7538 30.4685H27.3108C28.9137 30.4685 30.2165 29.161 30.2165 27.5557V23.9959C30.2165 22.3907 28.9137 21.0859 27.3108 21.0859ZM28.0542 27.5557C28.0542 27.9672 27.719 28.3028 27.3108 28.3028H23.7538C23.3456 28.3028 23.0105 27.9672 23.0105 27.5557V23.9959C23.0105 23.5845 23.3456 23.2515 23.7538 23.2515H27.3108C27.719 23.2515 28.0542 23.5845 28.0542 23.9959V27.5557Z" stroke="#703391" stroke-width="0.7"/>
<path d="M27.3108 32.8912H23.7538C22.1509 32.8912 20.8481 34.196 20.8481 35.8013V39.361C20.8481 40.9663 22.1509 42.2738 23.7538 42.2738H27.3108C28.9137 42.2738 30.2165 40.9663 30.2165 39.361V35.8013C30.2165 34.196 28.9137 32.8912 27.3108 32.8912ZM28.0542 39.361C28.0542 39.7725 27.719 40.1081 27.3108 40.1081H23.7538C23.3456 40.1081 23.0105 39.7725 23.0105 39.361V35.8013C23.0105 35.3898 23.3456 35.0568 23.7538 35.0568H27.3108C27.719 35.0568 28.0542 35.3898 28.0542 35.8013V39.361Z" stroke="#703391" stroke-width="0.7"/>
<path d="M37.2875 30.4685H40.8446C42.4475 30.4685 43.7503 29.161 43.7503 27.5557V23.9959C43.7503 22.3907 42.4475 21.0859 40.8446 21.0859H37.2875C35.6874 21.0859 34.3818 22.3907 34.3818 23.9959V27.5557C34.3818 29.161 35.6874 30.4685 37.2875 30.4685ZM36.5442 23.9959C36.5442 23.5845 36.8794 23.2515 37.2875 23.2515H40.8446C41.2555 23.2515 41.5879 23.5845 41.5879 23.9959V27.5557C41.5879 27.9672 41.2555 28.3028 40.8446 28.3028H37.2875C36.8794 28.3028 36.5442 27.9672 36.5442 27.5557V23.9959Z" stroke="#703391" stroke-width="0.7"/>
<path d="M56.5059 36.1968L51.2946 42.6612C50.9919 43.0402 50.9757 43.5762 51.2568 43.9714L53.7759 47.496C53.9868 47.791 54.3192 47.9481 54.6544 47.9481C54.8733 47.9481 55.0923 47.8831 55.2842 47.7477C55.768 47.3985 55.8815 46.7244 55.5329 46.2372L53.4948 43.3813L58.1899 37.5557C58.5629 37.0928 58.4926 36.4107 58.0277 36.0344C57.5655 35.6608 56.8817 35.7312 56.5059 36.1968Z" stroke="#703391" stroke-width="0.7"/>
</svg>
