<svg width="67" height="58" viewBox="0 0 67 58" fill="none" xmlns="http://www.w3.org/2000/svg">
<path d="M52.1376 29.5843C51.6889 29.5843 51.2456 29.6087 50.805 29.652V13.8702C50.805 10.5919 48.394 7.87142 45.2532 7.37059V4.46863C45.2532 2.56287 43.7071 1.01172 41.8042 1.01172H41.2582C39.3553 1.01172 37.8092 2.56287 37.8092 4.46863V7.28126H35.2603V4.46863C35.2603 2.56287 33.7114 1.01172 31.8086 1.01172H31.2626C29.3624 1.01172 27.8135 2.56287 27.8135 4.46863V7.28126H24.7538V4.46863C24.7538 2.56287 23.2077 1.01172 21.3048 1.01172H20.7588C18.8559 1.01172 17.3098 2.56287 17.3098 4.46863V7.28126H14.7582V4.46863C14.7582 2.56287 13.212 1.01172 11.3091 1.01172H10.7631C8.86025 1.01172 7.31414 2.56287 7.31414 4.46863V7.29477C3.80839 7.44366 1 10.3321 1 13.8702V41.3575C1 44.9931 3.95702 47.9465 7.59251 47.9465H39.2116C41.1091 53.2685 46.1797 57.0962 52.1375 57.0962C59.711 57.0962 65.8715 50.9242 65.8715 43.3387C65.8715 35.7537 59.7116 29.5843 52.1376 29.5843ZM41.2579 3.17739H41.8039C42.5148 3.17739 43.0906 3.7567 43.0906 4.46866V8.11504C43.0906 8.82426 42.5148 9.40361 41.8039 9.40361H41.2579C40.6417 9.40361 40.147 8.95695 40.0226 8.37492C40.0226 8.37221 40.0254 8.3668 40.0254 8.36409C40.0254 8.26664 39.9956 8.18001 39.9713 8.09068V4.46862C39.9713 3.7567 40.547 3.17739 41.2579 3.17739ZM31.2626 3.17739H31.8086C32.5194 3.17739 33.0979 3.7567 33.0979 4.46866V8.08254C33.0709 8.17458 33.0411 8.26391 33.0411 8.36407C33.0411 8.36949 33.0438 8.3749 33.0438 8.38032C32.9168 8.95963 32.4249 9.4036 31.8085 9.4036H31.2626C30.6544 9.4036 30.1679 8.97048 30.0327 8.3993C30.0354 8.38848 30.0408 8.37765 30.0408 8.36411C30.0408 8.25042 30.0084 8.14484 29.976 8.04198V4.46871C29.976 3.75678 30.5544 3.17739 31.2626 3.17739ZM20.7586 3.17739H21.3046C22.0128 3.17739 22.5912 3.7567 22.5912 4.46866V8.09072C22.5669 8.18005 22.5372 8.26668 22.5372 8.36413C22.5372 8.36684 22.5399 8.37225 22.5399 8.37496C22.4155 8.95697 21.9209 9.40365 21.3046 9.40365H20.7586C20.1396 9.40365 19.6477 8.95699 19.5233 8.37496C19.5233 8.37225 19.526 8.36684 19.526 8.36413C19.526 8.26668 19.4936 8.18005 19.472 8.09072V4.46866C19.472 3.75674 20.0477 3.17739 20.7586 3.17739ZM10.7632 3.17739H11.3092C12.0201 3.17739 12.5959 3.7567 12.5959 4.46866V8.08254C12.5715 8.17458 12.5391 8.26391 12.5391 8.36407C12.5391 8.36949 12.5445 8.3749 12.5445 8.38032C12.4175 8.95963 11.9255 9.4036 11.3092 9.4036H10.7632C10.1551 9.4036 9.66855 8.97048 9.53341 8.3993C9.53341 8.38848 9.54152 8.37765 9.54152 8.36411C9.54152 8.25042 9.50908 8.14484 9.47665 8.04198V4.46871C9.47665 3.75678 10.055 3.17739 10.7632 3.17739ZM7.58182 9.44693C8.10349 10.6922 9.33331 11.5693 10.7632 11.5693H11.3092C12.7418 11.5693 13.969 10.6922 14.4907 9.44693H17.5774C18.0991 10.6922 19.3262 11.5693 20.7589 11.5693H21.3049C22.7347 11.5693 23.9646 10.6922 24.4863 9.44693H28.0812C28.6029 10.6922 29.8327 11.5693 31.2627 11.5693H31.8086C33.2412 11.5693 34.4684 10.6922 34.9901 9.44693H38.0768C38.5985 10.6922 39.8283 11.5693 41.2583 11.5693H41.8043C43.2044 11.5693 44.4099 10.7246 44.9478 9.52004C47.0399 9.87195 48.6428 11.683 48.6428 13.8702V14.9585L3.16229 15.083V13.8702C3.16229 11.4339 5.14376 9.45233 7.58182 9.44693ZM7.59263 45.7811C5.14918 45.7811 3.16249 43.7969 3.16249 41.3578V17.2489L48.643 17.1244V30.0531C46.3022 30.6703 44.1993 31.883 42.5207 33.5343C41.9855 33.1255 41.3287 32.8846 40.634 32.8846H37.4986C35.7768 32.8846 34.3794 34.2841 34.3794 36.0085V39.1487C34.3794 40.8704 35.7768 42.2726 37.4986 42.2726H38.4554C38.4284 42.6245 38.4014 42.9791 38.4014 43.3392C38.4014 44.1757 38.4879 44.9878 38.6311 45.7809L7.59263 45.7811ZM38.8014 40.1072H37.4986C36.9715 40.1072 36.5418 39.6767 36.5418 39.1489V36.0087C36.5418 35.4809 36.9715 35.0504 37.4986 35.0504H40.634C40.8043 35.0504 40.9638 35.0992 41.1043 35.1804C40.0312 36.6314 39.2393 38.2988 38.8014 40.1072ZM53.2191 54.8744V53.9729C53.2191 53.3747 52.7353 52.8901 52.1379 52.8901C51.5406 52.8901 51.0567 53.3747 51.0567 53.9729V54.8744C45.6319 54.3682 41.2883 50.0992 40.6531 44.7066H41.8019C42.3993 44.7066 42.8831 44.2221 42.8831 43.6238C42.8831 43.0256 42.3993 42.541 41.8019 42.541H40.6045C40.9937 36.8832 45.4428 32.3303 51.0565 31.805V33.2749C51.0565 33.8705 51.5404 34.3577 52.1377 34.3577C52.7351 34.3577 53.2189 33.8705 53.2189 33.2749V31.805C58.8303 32.3301 63.2793 36.8834 63.6689 42.541H62.4715C61.8741 42.541 61.3903 43.0256 61.3903 43.6238C61.3903 44.2221 61.8741 44.7066 62.4715 44.7066H63.6229C62.985 50.099 58.6412 54.3678 53.2191 54.8744Z" fill="#703391"/>
<path d="M13.7774 21.0839H10.2203C8.61747 21.0839 7.31464 22.3887 7.31464 23.994V27.5537C7.31464 29.159 8.61747 30.4665 10.2203 30.4665H13.7774C15.3803 30.4665 16.6831 29.159 16.6831 27.5537V23.994C16.6831 22.3887 15.3803 21.0839 13.7774 21.0839ZM14.5207 27.5537C14.5207 27.9652 14.1856 28.3009 13.7774 28.3009H10.2203C9.81218 28.3009 9.47702 27.9652 9.47702 27.5537V23.994C9.47702 23.5825 9.81219 23.2496 10.2203 23.2496H13.7774C14.1856 23.2496 14.5207 23.5825 14.5207 23.994V27.5537Z" fill="#703391"/>
<path d="M13.7774 32.8893H10.2203C8.61747 32.8893 7.31464 34.194 7.31464 35.7993V39.3591C7.31464 40.9643 8.61747 42.2718 10.2203 42.2718H13.7774C15.3803 42.2718 16.6831 40.9643 16.6831 39.3591V35.7993C16.6831 34.194 15.3803 32.8893 13.7774 32.8893ZM14.5207 39.3591C14.5207 39.7705 14.1856 40.1062 13.7774 40.1062H10.2203C9.81218 40.1062 9.47702 39.7705 9.47702 39.3591V35.7993C9.47702 35.3878 9.81219 35.0549 10.2203 35.0549H13.7774C14.1856 35.0549 14.5207 35.3879 14.5207 35.7993V39.3591Z" fill="#703391"/>
<path d="M27.3108 21.0839H23.7538C22.1509 21.0839 20.8481 22.3887 20.8481 23.994V27.5537C20.8481 29.159 22.1509 30.4665 23.7538 30.4665H27.3108C28.9137 30.4665 30.2165 29.159 30.2165 27.5537V23.994C30.2165 22.3887 28.9137 21.0839 27.3108 21.0839ZM28.0542 27.5537C28.0542 27.9652 27.719 28.3009 27.3108 28.3009H23.7538C23.3456 28.3009 23.0105 27.9652 23.0105 27.5537V23.994C23.0105 23.5825 23.3456 23.2496 23.7538 23.2496H27.3108C27.719 23.2496 28.0542 23.5825 28.0542 23.994V27.5537Z" fill="#703391"/>
<path d="M27.3108 32.8893H23.7538C22.1509 32.8893 20.8481 34.194 20.8481 35.7993V39.3591C20.8481 40.9643 22.1509 42.2718 23.7538 42.2718H27.3108C28.9137 42.2718 30.2165 40.9643 30.2165 39.3591V35.7993C30.2165 34.194 28.9137 32.8893 27.3108 32.8893ZM28.0542 39.3591C28.0542 39.7705 27.719 40.1062 27.3108 40.1062H23.7538C23.3456 40.1062 23.0105 39.7705 23.0105 39.3591V35.7993C23.0105 35.3878 23.3456 35.0549 23.7538 35.0549H27.3108C27.719 35.0549 28.0542 35.3879 28.0542 35.7993V39.3591Z" fill="#703391"/>
<path d="M37.2875 30.4665H40.8446C42.4475 30.4665 43.7503 29.159 43.7503 27.5537V23.994C43.7503 22.3887 42.4475 21.0839 40.8446 21.0839H37.2875C35.6874 21.0839 34.3818 22.3887 34.3818 23.994V27.5537C34.3818 29.159 35.6874 30.4665 37.2875 30.4665ZM36.5442 23.994C36.5442 23.5825 36.8794 23.2496 37.2875 23.2496H40.8446C41.2555 23.2496 41.5879 23.5825 41.5879 23.994V27.5537C41.5879 27.9652 41.2555 28.3009 40.8446 28.3009H37.2875C36.8794 28.3009 36.5442 27.9652 36.5442 27.5537V23.994Z" fill="#703391"/>
<path d="M56.5059 36.1949L51.2946 42.6593C50.9919 43.0383 50.9757 43.5743 51.2568 43.9695L53.7759 47.494C53.9868 47.7891 54.3192 47.9461 54.6544 47.9461C54.8733 47.9461 55.0923 47.8811 55.2842 47.7458C55.768 47.3966 55.8815 46.7225 55.5329 46.2352L53.4948 43.3793L58.1899 37.5538C58.5629 37.0909 58.4926 36.4087 58.0277 36.0324C57.5655 35.6588 56.8817 35.7293 56.5059 36.1949Z" fill="#703391"/>
<path d="M52.1376 29.5843C51.6889 29.5843 51.2456 29.6087 50.805 29.652V13.8702C50.805 10.5919 48.394 7.87142 45.2532 7.37059V4.46863C45.2532 2.56287 43.7071 1.01172 41.8042 1.01172H41.2582C39.3553 1.01172 37.8092 2.56287 37.8092 4.46863V7.28126H35.2603V4.46863C35.2603 2.56287 33.7114 1.01172 31.8086 1.01172H31.2626C29.3624 1.01172 27.8135 2.56287 27.8135 4.46863V7.28126H24.7538V4.46863C24.7538 2.56287 23.2077 1.01172 21.3048 1.01172H20.7588C18.8559 1.01172 17.3098 2.56287 17.3098 4.46863V7.28126H14.7582V4.46863C14.7582 2.56287 13.212 1.01172 11.3091 1.01172H10.7631C8.86025 1.01172 7.31414 2.56287 7.31414 4.46863V7.29477C3.80839 7.44366 1 10.3321 1 13.8702V41.3575C1 44.9931 3.95702 47.9465 7.59251 47.9465H39.2116C41.1091 53.2685 46.1797 57.0962 52.1375 57.0962C59.711 57.0962 65.8715 50.9242 65.8715 43.3387C65.8715 35.7537 59.7116 29.5843 52.1376 29.5843ZM41.2579 3.17739H41.8039C42.5148 3.17739 43.0906 3.7567 43.0906 4.46866V8.11504C43.0906 8.82426 42.5148 9.40361 41.8039 9.40361H41.2579C40.6417 9.40361 40.147 8.95695 40.0226 8.37492C40.0226 8.37221 40.0254 8.3668 40.0254 8.36409C40.0254 8.26664 39.9956 8.18001 39.9713 8.09068V4.46862C39.9713 3.7567 40.547 3.17739 41.2579 3.17739ZM31.2626 3.17739H31.8086C32.5194 3.17739 33.0979 3.7567 33.0979 4.46866V8.08254C33.0709 8.17458 33.0411 8.26391 33.0411 8.36407C33.0411 8.36949 33.0438 8.3749 33.0438 8.38032C32.9168 8.95963 32.4249 9.4036 31.8085 9.4036H31.2626C30.6544 9.4036 30.1679 8.97048 30.0327 8.3993C30.0354 8.38848 30.0408 8.37765 30.0408 8.36411C30.0408 8.25042 30.0084 8.14484 29.976 8.04198V4.46871C29.976 3.75678 30.5544 3.17739 31.2626 3.17739ZM20.7586 3.17739H21.3046C22.0128 3.17739 22.5912 3.7567 22.5912 4.46866V8.09072C22.5669 8.18005 22.5372 8.26668 22.5372 8.36413C22.5372 8.36684 22.5399 8.37225 22.5399 8.37496C22.4155 8.95697 21.9209 9.40365 21.3046 9.40365H20.7586C20.1396 9.40365 19.6477 8.95699 19.5233 8.37496C19.5233 8.37225 19.526 8.36684 19.526 8.36413C19.526 8.26668 19.4936 8.18005 19.472 8.09072V4.46866C19.472 3.75674 20.0477 3.17739 20.7586 3.17739ZM10.7632 3.17739H11.3092C12.0201 3.17739 12.5959 3.7567 12.5959 4.46866V8.08254C12.5715 8.17458 12.5391 8.26391 12.5391 8.36407C12.5391 8.36949 12.5445 8.3749 12.5445 8.38032C12.4175 8.95963 11.9255 9.4036 11.3092 9.4036H10.7632C10.1551 9.4036 9.66855 8.97048 9.53341 8.3993C9.53341 8.38848 9.54152 8.37765 9.54152 8.36411C9.54152 8.25042 9.50908 8.14484 9.47665 8.04198V4.46871C9.47665 3.75678 10.055 3.17739 10.7632 3.17739ZM7.58182 9.44693C8.10349 10.6922 9.33331 11.5693 10.7632 11.5693H11.3092C12.7418 11.5693 13.969 10.6922 14.4907 9.44693H17.5774C18.0991 10.6922 19.3262 11.5693 20.7589 11.5693H21.3049C22.7347 11.5693 23.9646 10.6922 24.4863 9.44693H28.0812C28.6029 10.6922 29.8327 11.5693 31.2627 11.5693H31.8086C33.2412 11.5693 34.4684 10.6922 34.9901 9.44693H38.0768C38.5985 10.6922 39.8283 11.5693 41.2583 11.5693H41.8043C43.2044 11.5693 44.4099 10.7246 44.9478 9.52004C47.0399 9.87195 48.6428 11.683 48.6428 13.8702V14.9585L3.16229 15.083V13.8702C3.16229 11.4339 5.14376 9.45233 7.58182 9.44693ZM7.59263 45.7811C5.14918 45.7811 3.16249 43.7969 3.16249 41.3578V17.2489L48.643 17.1244V30.0531C46.3022 30.6703 44.1993 31.883 42.5207 33.5343C41.9855 33.1255 41.3287 32.8846 40.634 32.8846H37.4986C35.7768 32.8846 34.3794 34.2841 34.3794 36.0085V39.1487C34.3794 40.8704 35.7768 42.2726 37.4986 42.2726H38.4554C38.4284 42.6245 38.4014 42.9791 38.4014 43.3392C38.4014 44.1757 38.4879 44.9878 38.6311 45.7809L7.59263 45.7811ZM38.8014 40.1072H37.4986C36.9715 40.1072 36.5418 39.6767 36.5418 39.1489V36.0087C36.5418 35.4809 36.9715 35.0504 37.4986 35.0504H40.634C40.8043 35.0504 40.9638 35.0992 41.1043 35.1804C40.0312 36.6314 39.2393 38.2988 38.8014 40.1072ZM53.2191 54.8744V53.9729C53.2191 53.3747 52.7353 52.8901 52.1379 52.8901C51.5406 52.8901 51.0567 53.3747 51.0567 53.9729V54.8744C45.6319 54.3682 41.2883 50.0992 40.6531 44.7066H41.8019C42.3993 44.7066 42.8831 44.2221 42.8831 43.6238C42.8831 43.0256 42.3993 42.541 41.8019 42.541H40.6045C40.9937 36.8832 45.4428 32.3303 51.0565 31.805V33.2749C51.0565 33.8705 51.5404 34.3577 52.1377 34.3577C52.7351 34.3577 53.2189 33.8705 53.2189 33.2749V31.805C58.8303 32.3301 63.2793 36.8834 63.6689 42.541H62.4715C61.8741 42.541 61.3903 43.0256 61.3903 43.6238C61.3903 44.2221 61.8741 44.7066 62.4715 44.7066H63.6229C62.985 50.099 58.6412 54.3678 53.2191 54.8744Z" stroke="#703391" stroke-width="0.7"/>
<path d="M13.7774 21.0839H10.2203C8.61747 21.0839 7.31464 22.3887 7.31464 23.994V27.5537C7.31464 29.159 8.61747 30.4665 10.2203 30.4665H13.7774C15.3803 30.4665 16.6831 29.159 16.6831 27.5537V23.994C16.6831 22.3887 15.3803 21.0839 13.7774 21.0839ZM14.5207 27.5537C14.5207 27.9652 14.1856 28.3009 13.7774 28.3009H10.2203C9.81218 28.3009 9.47702 27.9652 9.47702 27.5537V23.994C9.47702 23.5825 9.81219 23.2496 10.2203 23.2496H13.7774C14.1856 23.2496 14.5207 23.5825 14.5207 23.994V27.5537Z" stroke="#703391" stroke-width="0.7"/>
<path d="M13.7774 32.8893H10.2203C8.61747 32.8893 7.31464 34.194 7.31464 35.7993V39.3591C7.31464 40.9643 8.61747 42.2718 10.2203 42.2718H13.7774C15.3803 42.2718 16.6831 40.9643 16.6831 39.3591V35.7993C16.6831 34.194 15.3803 32.8893 13.7774 32.8893ZM14.5207 39.3591C14.5207 39.7705 14.1856 40.1062 13.7774 40.1062H10.2203C9.81218 40.1062 9.47702 39.7705 9.47702 39.3591V35.7993C9.47702 35.3878 9.81219 35.0549 10.2203 35.0549H13.7774C14.1856 35.0549 14.5207 35.3879 14.5207 35.7993V39.3591Z" stroke="#703391" stroke-width="0.7"/>
<path d="M27.3108 21.0839H23.7538C22.1509 21.0839 20.8481 22.3887 20.8481 23.994V27.5537C20.8481 29.159 22.1509 30.4665 23.7538 30.4665H27.3108C28.9137 30.4665 30.2165 29.159 30.2165 27.5537V23.994C30.2165 22.3887 28.9137 21.0839 27.3108 21.0839ZM28.0542 27.5537C28.0542 27.9652 27.719 28.3009 27.3108 28.3009H23.7538C23.3456 28.3009 23.0105 27.9652 23.0105 27.5537V23.994C23.0105 23.5825 23.3456 23.2496 23.7538 23.2496H27.3108C27.719 23.2496 28.0542 23.5825 28.0542 23.994V27.5537Z" stroke="#703391" stroke-width="0.7"/>
<path d="M27.3108 32.8893H23.7538C22.1509 32.8893 20.8481 34.194 20.8481 35.7993V39.3591C20.8481 40.9643 22.1509 42.2718 23.7538 42.2718H27.3108C28.9137 42.2718 30.2165 40.9643 30.2165 39.3591V35.7993C30.2165 34.194 28.9137 32.8893 27.3108 32.8893ZM28.0542 39.3591C28.0542 39.7705 27.719 40.1062 27.3108 40.1062H23.7538C23.3456 40.1062 23.0105 39.7705 23.0105 39.3591V35.7993C23.0105 35.3878 23.3456 35.0549 23.7538 35.0549H27.3108C27.719 35.0549 28.0542 35.3879 28.0542 35.7993V39.3591Z" stroke="#703391" stroke-width="0.7"/>
<path d="M37.2875 30.4665H40.8446C42.4475 30.4665 43.7503 29.159 43.7503 27.5537V23.994C43.7503 22.3887 42.4475 21.0839 40.8446 21.0839H37.2875C35.6874 21.0839 34.3818 22.3887 34.3818 23.994V27.5537C34.3818 29.159 35.6874 30.4665 37.2875 30.4665ZM36.5442 23.994C36.5442 23.5825 36.8794 23.2496 37.2875 23.2496H40.8446C41.2555 23.2496 41.5879 23.5825 41.5879 23.994V27.5537C41.5879 27.9652 41.2555 28.3009 40.8446 28.3009H37.2875C36.8794 28.3009 36.5442 27.9652 36.5442 27.5537V23.994Z" stroke="#703391" stroke-width="0.7"/>
<path d="M56.5059 36.1949L51.2946 42.6593C50.9919 43.0383 50.9757 43.5743 51.2568 43.9695L53.7759 47.494C53.9868 47.7891 54.3192 47.9461 54.6544 47.9461C54.8733 47.9461 55.0923 47.8811 55.2842 47.7458C55.768 47.3966 55.8815 46.7225 55.5329 46.2352L53.4948 43.3793L58.1899 37.5538C58.5629 37.0909 58.4926 36.4087 58.0277 36.0324C57.5655 35.6588 56.8817 35.7293 56.5059 36.1949Z" stroke="#703391" stroke-width="0.7"/>
</svg>
