<svg width="12" height="24" viewBox="0 0 12 24" fill="white" xmlns="http://www.w3.org/2000/svg">
<path d="M0.00437927 12.1004C0.0263205 12.3467 0.127864 12.5799 0.294379 12.7664L9.87314 23.5686C9.97446 23.6902 10.0998 23.7907 10.2418 23.8641C10.3838 23.9374 10.5395 23.9822 10.6995 23.9957C10.8596 24.0092 11.0208 23.9911 11.1736 23.9425C11.3264 23.8939 11.4675 23.8159 11.5887 23.713C11.7099 23.6101 11.8087 23.4845 11.879 23.3436C11.9494 23.2027 11.99 23.0495 11.9984 22.893C12.0068 22.7365 11.9827 22.58 11.9278 22.4327C11.8728 22.2854 11.7881 22.1505 11.6785 22.0358L2.78261 12L11.6785 1.96419C11.7881 1.84954 11.8728 1.71457 11.9278 1.56731C11.9827 1.42005 12.0068 1.26351 11.9984 1.10701C11.99 0.950516 11.9494 0.797264 11.879 0.656385C11.8087 0.515506 11.7099 0.389881 11.5887 0.286991C11.4675 0.184102 11.3264 0.106052 11.1736 0.0574903C11.0208 0.00892895 10.8596 -0.00915054 10.6995 0.00432818C10.5395 0.0178069 10.3838 0.0625682 10.2418 0.135947C10.0998 0.209325 9.97446 0.309819 9.87314 0.431445L0.294379 11.2336C0.188922 11.3518 0.108899 11.4894 0.0590792 11.6383C0.00925922 11.7872 -0.00934219 11.9443 0.00437927 12.1004Z"/>
</svg>
