<svg width="56" height="56" viewBox="0 0 56 56" fill="none" xmlns="http://www.w3.org/2000/svg">
<g clip-path="url(#clip0_3333_5804)">
<path d="M21.8792 -0.0151355C22.0459 -0.0163094 22.0459 -0.0163094 22.216 -0.0175071C22.3373 -0.0178012 22.4586 -0.0180953 22.5836 -0.0183983C22.7119 -0.019117 22.8402 -0.0198357 22.9723 -0.0205762C23.3974 -0.0227341 23.8224 -0.0240108 24.2475 -0.0251007C24.3943 -0.0255437 24.5411 -0.025994 24.6878 -0.0264515C25.3779 -0.0285346 26.068 -0.0300909 26.7582 -0.0310028C27.5523 -0.0320697 28.3465 -0.0349436 29.1406 -0.0393701C29.7559 -0.0426808 30.3712 -0.0442896 30.9866 -0.0446507C31.3533 -0.0449066 31.7201 -0.0460897 32.0868 -0.0486387C32.497 -0.0513117 32.9071 -0.0511999 33.3173 -0.0504417C33.4371 -0.0518428 33.5568 -0.0532439 33.6802 -0.0546875C34.9858 -0.0459356 36.1031 0.402129 37.0674 1.28526C38.1827 2.46155 38.4454 3.72379 38.4205 5.27489C38.3698 6.56327 37.6993 7.63698 36.7773 8.5117C36.0446 9.11706 35.1164 9.53163 34.1604 9.529C34.0093 9.52899 34.0093 9.52899 33.8552 9.52898C33.7474 9.52841 33.6396 9.52785 33.5286 9.52727C33.4175 9.52711 33.3065 9.52696 33.192 9.5268C32.8377 9.52619 32.4833 9.52481 32.1289 9.52342C31.8885 9.52287 31.6481 9.52237 31.4077 9.52193C30.8187 9.52081 30.2297 9.51867 29.6406 9.51659C29.6406 10.5994 29.6406 11.6822 29.6406 12.7978C29.8886 12.7969 30.1365 12.7959 30.3919 12.7949C32.7256 12.786 35.0593 12.7794 37.393 12.7752C38.5928 12.7729 39.7927 12.7698 40.9925 12.7648C42.0382 12.7605 43.084 12.7576 44.1297 12.7567C44.6834 12.7561 45.2372 12.7548 45.7909 12.7516C46.3122 12.7486 46.8334 12.7477 47.3546 12.7484C47.5459 12.7482 47.7371 12.7474 47.9284 12.7457C48.1897 12.7435 48.4509 12.744 48.7122 12.7452C48.7878 12.744 48.8633 12.7427 48.9412 12.7414C49.4818 12.748 49.784 12.9024 50.2031 13.2353C50.6723 13.7463 50.5726 14.4032 50.5633 15.0558C50.5628 15.1789 50.5624 15.3019 50.5619 15.4287C50.5601 15.821 50.5559 16.2132 50.5518 16.6055C50.5501 16.8717 50.5486 17.1379 50.5473 17.4042C50.5437 18.0563 50.5382 18.7083 50.5312 19.3603C50.6637 19.358 50.7961 19.3558 50.9325 19.3534C51.4254 19.3455 51.9182 19.3404 52.4111 19.3363C52.6242 19.3341 52.8372 19.3311 53.0502 19.3273C53.357 19.322 53.6637 19.3195 53.9706 19.3176C54.0653 19.3154 54.16 19.3131 54.2576 19.3108C54.8548 19.3105 55.2068 19.387 55.6719 19.7978C55.9744 20.2151 56.0416 20.5068 56.0442 21.0189C56.0456 21.1525 56.047 21.2861 56.0484 21.4237C56.0479 21.6389 56.0479 21.6389 56.0474 21.8584C56.0479 22.0081 56.0485 22.1578 56.0492 22.3075C56.0501 22.6207 56.0499 22.9339 56.0488 23.2472C56.0475 23.6475 56.0497 24.0476 56.0529 24.4479C56.0549 24.7569 56.0549 25.0659 56.0543 25.3749C56.0543 25.5938 56.0561 25.8128 56.058 26.0317C56.0484 27.2894 56.0483 27.2894 55.5625 27.7822C55.0802 28.197 54.5859 28.1531 53.9813 28.1424C53.8331 28.1417 53.8331 28.1417 53.682 28.141C53.3677 28.1391 53.0535 28.135 52.7393 28.1308C52.5257 28.1292 52.3122 28.1277 52.0986 28.1264C51.5761 28.1227 51.0537 28.1171 50.5312 28.1103C50.5322 28.1788 50.5332 28.2472 50.5342 28.3177C50.5439 29.031 50.5505 29.7442 50.5553 30.4575C50.5575 30.7236 50.5605 30.9897 50.5643 31.2557C50.5696 31.6385 50.572 32.0213 50.574 32.4042C50.5762 32.5228 50.5785 32.6414 50.5808 32.7636C50.581 33.4159 50.5599 33.8448 50.0938 34.3447C49.6931 34.6298 49.4226 34.7137 48.933 34.7123C48.8108 34.7127 48.6885 34.7132 48.5626 34.7137C48.4296 34.7125 48.2965 34.7113 48.1595 34.7101C48.0186 34.7101 47.8777 34.7102 47.7325 34.7102C47.347 34.7103 46.9616 34.7084 46.5761 34.7061C46.1729 34.7041 45.7697 34.7039 45.3665 34.7035C44.6034 34.7025 43.8404 34.6998 43.0773 34.6965C42.2084 34.6928 41.3395 34.691 40.4705 34.6894C38.6835 34.6859 36.8964 34.6801 35.1094 34.6728C35.1145 34.7915 35.1195 34.9103 35.1248 35.0326C35.1289 35.1907 35.1328 35.3487 35.1367 35.5068C35.1422 35.6238 35.1422 35.6238 35.1478 35.7431C35.1583 36.3143 35.0445 36.6233 34.6719 37.0791C34.1895 37.4939 33.6953 37.45 33.0906 37.4393C32.9425 37.4386 32.9425 37.4386 32.7914 37.4378C32.4771 37.436 32.1629 37.4319 31.8486 37.4277C31.6351 37.4261 31.4215 37.4246 31.208 37.4232C30.6855 37.4199 30.1631 37.4135 29.6406 37.4072C29.6406 38.49 29.6406 39.5728 29.6406 40.6885C29.8886 40.6875 30.1365 40.6865 30.3919 40.6855C32.7256 40.6766 35.0593 40.6701 37.393 40.6658C38.5928 40.6635 39.7927 40.6605 40.9925 40.6555C42.0382 40.6511 43.084 40.6483 44.1297 40.6473C44.6834 40.6467 45.2372 40.6454 45.7909 40.6422C46.3122 40.6392 46.8334 40.6383 47.3546 40.639C47.5459 40.6389 47.7371 40.638 47.9284 40.6363C48.1897 40.6341 48.4509 40.6347 48.7122 40.6358C48.7878 40.6346 48.8633 40.6333 48.9412 40.632C49.4818 40.6387 49.784 40.793 50.2031 41.126C50.6723 41.637 50.5726 42.2938 50.5633 42.9465C50.5628 43.0695 50.5624 43.1925 50.5619 43.3193C50.5601 43.7116 50.5559 44.1038 50.5518 44.4961C50.5501 44.7623 50.5486 45.0286 50.5473 45.2948C50.5437 45.9469 50.5382 46.5989 50.5312 47.251C50.7299 47.2475 50.7299 47.2475 50.9325 47.244C51.4254 47.2361 51.9182 47.2311 52.4111 47.2269C52.6242 47.2247 52.8372 47.2218 53.0502 47.218C53.357 47.2126 53.6637 47.2102 53.9706 47.2082C54.0653 47.206 54.16 47.2037 54.2576 47.2014C54.8548 47.2012 55.2068 47.2776 55.6719 47.6885C55.9744 48.1058 56.0416 48.3975 56.0442 48.9095C56.0456 49.0431 56.047 49.1767 56.0484 49.3144C56.0479 49.5295 56.0479 49.5295 56.0474 49.7491C56.0479 49.8988 56.0485 50.0484 56.0492 50.1981C56.0501 50.5114 56.0499 50.8246 56.0488 51.1378C56.0475 51.5381 56.0497 51.9383 56.0529 52.3385C56.0549 52.6475 56.0549 52.9565 56.0543 53.2655C56.0543 53.4845 56.0561 53.7034 56.058 53.9224C56.0484 55.18 56.0483 55.18 55.5625 55.6728C55.0372 56.1045 54.4866 56.048 53.8394 56.0452C53.6617 56.0463 53.6617 56.0463 53.4803 56.0474C53.0887 56.0494 52.6972 56.049 52.3056 56.0484C52.0333 56.0489 51.761 56.0495 51.4887 56.0501C50.8449 56.0512 50.2012 56.0506 49.5574 56.0493C49.0445 56.0485 48.5317 56.0497 48.0189 56.052C47.3112 56.0551 46.6035 56.056 45.8958 56.0552C45.6262 56.0552 45.3566 56.0559 45.0869 56.0573C44.7099 56.0589 44.333 56.0577 43.956 56.0558C43.8446 56.0569 43.7333 56.0579 43.6186 56.059C42.9904 56.0525 42.5943 56.0047 42.1094 55.5635C41.7911 55.1566 41.7396 54.8531 41.7371 54.3424C41.7357 54.2088 41.7343 54.0752 41.7329 53.9375C41.7333 53.7224 41.7333 53.7224 41.7338 53.5029C41.7333 53.3532 41.7327 53.2035 41.7321 53.0538C41.7311 52.7406 41.7314 52.4274 41.7325 52.1141C41.7337 51.7138 41.7315 51.3137 41.7283 50.9134C41.7263 50.6044 41.7263 50.2954 41.727 49.9864C41.727 49.7675 41.7251 49.5485 41.7233 49.3296C41.7329 48.0719 41.7329 48.0719 42.2188 47.5791C42.7011 47.1643 43.1954 47.2082 43.8 47.2189C43.9481 47.2196 43.9481 47.2196 44.0993 47.2203C44.4135 47.2222 44.7277 47.2263 45.042 47.2305C45.2555 47.2321 45.4691 47.2336 45.6826 47.2349C46.2052 47.2383 46.7275 47.2447 47.25 47.251C47.25 46.1681 47.25 45.0853 47.25 43.9697C41.4389 43.9697 35.6278 43.9697 29.6406 43.9697C29.6406 45.0525 29.6406 46.1353 29.6406 47.251C29.9567 47.2459 30.2728 47.2408 30.5985 47.2356C30.9058 47.2322 31.2132 47.2295 31.5205 47.2269C31.7335 47.2247 31.9466 47.2218 32.1596 47.218C32.4664 47.2126 32.7731 47.2102 33.08 47.2082C33.1747 47.206 33.2694 47.2037 33.3669 47.2014C33.9641 47.2012 34.3162 47.2776 34.7812 47.6885C35.0838 48.1058 35.151 48.3975 35.1536 48.9095C35.155 49.0431 35.1563 49.1767 35.1578 49.3144C35.1573 49.5295 35.1573 49.5295 35.1568 49.7491C35.1573 49.8988 35.1579 50.0484 35.1585 50.1981C35.1595 50.5114 35.1593 50.8246 35.1582 51.1378C35.1569 51.5381 35.1591 51.9383 35.1623 52.3385C35.1643 52.6475 35.1643 52.9565 35.1637 53.2655C35.1636 53.4845 35.1655 53.7034 35.1674 53.9224C35.1577 55.18 35.1577 55.18 34.6719 55.6728C34.1466 56.1045 33.596 56.048 32.9488 56.0452C32.7711 56.0463 32.7711 56.0463 32.5897 56.0474C32.1981 56.0494 31.8066 56.049 31.415 56.0484C31.1427 56.0489 30.8704 56.0495 30.5981 56.0501C29.9543 56.0512 29.3106 56.0506 28.6668 56.0493C28.1539 56.0485 27.6411 56.0497 27.1282 56.052C26.4205 56.0551 25.7129 56.056 25.0052 56.0552C24.7356 56.0552 24.4659 56.0559 24.1963 56.0573C23.8193 56.0589 23.4424 56.0577 23.0653 56.0558C22.954 56.0569 22.8427 56.0579 22.728 56.059C22.0997 56.0525 21.7037 56.0047 21.2188 55.5635C20.9005 55.1566 20.849 54.8531 20.8464 54.3424C20.845 54.2088 20.8437 54.0752 20.8422 53.9375C20.8425 53.7941 20.8429 53.6507 20.8432 53.5029C20.8427 53.3532 20.8421 53.2035 20.8415 53.0538C20.8405 52.7406 20.8407 52.4274 20.8418 52.1141C20.8431 51.7138 20.8409 51.3137 20.8377 50.9134C20.8357 50.6044 20.8357 50.2954 20.8363 49.9864C20.8364 49.7675 20.8345 49.5485 20.8326 49.3296C20.8423 48.0719 20.8423 48.0719 21.3281 47.5791C21.8105 47.1643 22.3047 47.2082 22.9094 47.2189C23.0575 47.2196 23.0575 47.2196 23.2086 47.2203C23.5229 47.2222 23.8371 47.2263 24.1514 47.2305C24.3649 47.2321 24.5785 47.2336 24.792 47.2349C25.3145 47.2383 25.8369 47.2447 26.3594 47.251C26.3594 46.1681 26.3594 45.0853 26.3594 43.9697C20.5483 43.9697 14.7372 43.9697 8.75 43.9697C8.75 45.0525 8.75 46.1353 8.75 47.251C9.0661 47.2459 9.38221 47.2408 9.70789 47.2356C10.0152 47.2322 10.3225 47.2295 10.6299 47.2269C10.8429 47.2247 11.0559 47.2218 11.2689 47.218C11.5758 47.2126 11.8825 47.2102 12.1893 47.2082C12.284 47.206 12.3787 47.2037 12.4763 47.2014C13.0735 47.2012 13.4255 47.2776 13.8906 47.6885C14.1931 48.1058 14.2604 48.3975 14.2629 48.9095C14.2643 49.0431 14.2657 49.1767 14.2671 49.3144C14.2668 49.4578 14.2665 49.6013 14.2662 49.7491C14.2667 49.8988 14.2673 50.0484 14.2679 50.1981C14.2689 50.5114 14.2686 50.8246 14.2675 51.1378C14.2663 51.5381 14.2685 51.9383 14.2717 52.3385C14.2737 52.6475 14.2737 52.9565 14.273 53.2655C14.273 53.4845 14.2749 53.7034 14.2767 53.9224C14.2671 55.18 14.2671 55.18 13.7812 55.6728C13.2559 56.1045 12.7053 56.048 12.0582 56.0452C11.8804 56.0463 11.8804 56.0463 11.6991 56.0474C11.3075 56.0494 10.9159 56.049 10.5244 56.0484C10.2521 56.0489 9.97976 56.0495 9.70747 56.0501C9.06369 56.0512 8.41993 56.0506 7.77616 56.0493C7.2633 56.0485 6.75046 56.0497 6.23761 56.052C5.52992 56.0551 4.82227 56.056 4.11457 56.0552C3.84495 56.0552 3.57532 56.0559 3.3057 56.0573C2.92866 56.0589 2.55174 56.0577 2.17471 56.0558C2.06338 56.0569 1.95205 56.0579 1.83735 56.059C1.20911 56.0525 0.813094 56.0047 0.328125 55.5635C0.00987548 55.1566 -0.0416198 54.8531 -0.044193 54.3424C-0.0455804 54.2088 -0.0469677 54.0752 -0.0483971 53.9375C-0.048076 53.7941 -0.0477549 53.6507 -0.0474241 53.5029C-0.0479234 53.3532 -0.0485038 53.2035 -0.0491614 53.0538C-0.0501369 52.7406 -0.0498748 52.4274 -0.0487859 52.1141C-0.0475297 51.7138 -0.0497398 51.3137 -0.0529332 50.9134C-0.0549455 50.6044 -0.0549085 50.2954 -0.054285 49.9864C-0.0542602 49.7675 -0.0561051 49.5485 -0.0579834 49.3296C-0.0483499 48.0719 -0.0483499 48.0719 0.4375 47.5791C0.919846 47.1643 1.4141 47.2082 2.01874 47.2189C2.16688 47.2196 2.16688 47.2196 2.31802 47.2203C2.63229 47.2222 2.94649 47.2263 3.26074 47.2305C3.47429 47.2321 3.68784 47.2336 3.9014 47.2349C4.42388 47.2385 4.9463 47.2442 5.46875 47.251C5.46778 47.1825 5.46681 47.1141 5.46581 47.0436C5.45611 46.3303 5.44952 45.6171 5.44472 44.9038C5.44252 44.6377 5.43954 44.3716 5.43575 44.1056C5.43043 43.7228 5.42795 43.34 5.42603 42.9571C5.42377 42.8385 5.42151 42.7199 5.41918 42.5977C5.41899 41.9454 5.44009 41.5165 5.90625 41.0166C6.35342 40.6811 6.73224 40.6422 7.27461 40.649C7.35636 40.6487 7.43812 40.6484 7.52235 40.6482C7.79577 40.6476 8.06913 40.6494 8.34254 40.6512C8.53874 40.6513 8.73494 40.6512 8.93114 40.6511C9.46351 40.651 9.99586 40.6529 10.5282 40.6552C11.0847 40.6572 11.6411 40.6574 12.1976 40.6578C13.2512 40.6588 14.3048 40.6615 15.3584 40.6648C16.5579 40.6685 17.7575 40.6703 18.957 40.6719C21.4245 40.6754 23.8919 40.6812 26.3594 40.6885C26.3594 39.6056 26.3594 38.5228 26.3594 37.4072C26.0433 37.4123 25.7272 37.4174 25.4015 37.4226C25.0942 37.426 24.7868 37.4287 24.4795 37.4312C24.2665 37.4334 24.0534 37.4364 23.8404 37.4402C23.5336 37.4455 23.2269 37.448 22.92 37.4499C22.8253 37.4522 22.7306 37.4545 22.6331 37.4568C22.0359 37.457 21.6838 37.3805 21.2188 36.9697C20.8561 36.5031 20.8503 36.0827 20.8701 35.5137C20.8716 35.4327 20.8731 35.3517 20.8746 35.2682C20.8784 35.0697 20.8843 34.8713 20.8906 34.6728C20.8168 34.6732 20.743 34.6736 20.667 34.6741C18.8705 34.6837 17.0739 34.691 15.2774 34.6955C14.4086 34.6978 13.5398 34.7008 12.671 34.7058C11.9137 34.7102 11.1564 34.713 10.399 34.714C9.9981 34.7146 9.5972 34.7159 9.19628 34.7191C8.74848 34.7226 8.30075 34.7227 7.85294 34.7225C7.65398 34.7249 7.65398 34.7249 7.451 34.7273C6.75757 34.7239 6.32027 34.7094 5.79688 34.2353C5.3277 33.7243 5.42743 33.0675 5.43671 32.4148C5.43717 32.2918 5.43764 32.1688 5.43811 32.042C5.43995 31.6497 5.44407 31.2575 5.44824 30.8652C5.44989 30.599 5.45139 30.3327 5.45273 30.0665C5.45634 29.4144 5.46183 28.7624 5.46875 28.1103C5.33634 28.1126 5.20393 28.1149 5.06751 28.1173C4.57464 28.1252 4.08178 28.1302 3.58887 28.1344C3.37584 28.1366 3.16282 28.1395 2.94981 28.1433C2.643 28.1487 2.33627 28.1511 2.02942 28.1531C1.93472 28.1553 1.84001 28.1576 1.74244 28.1599C1.14524 28.1601 0.793208 28.0837 0.328125 27.6728C0.0256226 27.2555 -0.0416129 26.9638 -0.044193 26.4518C-0.0455804 26.3182 -0.0469677 26.1846 -0.0483971 26.0469C-0.048076 25.9035 -0.0477549 25.76 -0.0474241 25.6122C-0.0479234 25.4625 -0.0485038 25.3129 -0.0491614 25.1632C-0.0501369 24.8499 -0.0498748 24.5367 -0.0487859 24.2235C-0.0475297 23.8232 -0.0497398 23.423 -0.0529332 23.0228C-0.0549455 22.7138 -0.0549085 22.4048 -0.054285 22.0958C-0.0542602 21.8768 -0.0561051 21.6579 -0.0579834 21.4389C-0.0483499 20.1813 -0.0483499 20.1813 0.4375 19.6885C0.919846 19.2736 1.4141 19.3175 2.01874 19.3283C2.1175 19.3288 2.21626 19.3292 2.31802 19.3297C2.63229 19.3315 2.94649 19.3356 3.26074 19.3398C3.47429 19.3415 3.68784 19.343 3.9014 19.3443C4.42388 19.3479 4.9463 19.3536 5.46875 19.3603C5.46778 19.2919 5.46681 19.2235 5.46581 19.153C5.45611 18.4397 5.44952 17.7265 5.44472 17.0132C5.44252 16.7471 5.43954 16.481 5.43575 16.215C5.43043 15.8321 5.42795 15.4494 5.42603 15.0665C5.42377 14.9479 5.42151 14.8293 5.41918 14.707C5.41899 14.0548 5.44009 13.6258 5.90625 13.126C6.35342 12.7905 6.73224 12.7515 7.27461 12.7584C7.39724 12.758 7.39724 12.758 7.52235 12.7575C7.79577 12.757 8.06913 12.7588 8.34254 12.7606C8.53874 12.7607 8.73494 12.7606 8.93114 12.7604C9.46351 12.7603 9.99586 12.7623 10.5282 12.7646C11.0847 12.7666 11.6411 12.7668 12.1976 12.7672C13.2512 12.7682 14.3048 12.7709 15.3584 12.7742C16.5579 12.7779 17.7575 12.7797 18.957 12.7813C21.4245 12.7848 23.8919 12.7906 26.3594 12.7978C26.3594 11.715 26.3594 10.6322 26.3594 9.51659C26.0101 9.52166 25.6609 9.52674 25.3011 9.53197C24.9594 9.53539 24.6176 9.53804 24.2759 9.54062C24.0401 9.54281 23.8043 9.54578 23.5685 9.54959C23.2277 9.55495 22.887 9.55739 22.5462 9.55931C22.4424 9.56157 22.3385 9.56383 22.2315 9.56615C20.8852 9.5666 19.7909 9.01235 18.8121 8.1118C17.7464 6.9886 17.5563 5.71996 17.579 4.24309C17.6268 3.02516 18.2233 1.95974 19.0996 1.12889C19.8902 0.474106 20.8445 -0.0101201 21.8792 -0.0151355ZM21.3418 3.7744C20.9815 4.19825 20.9687 4.46365 20.9765 5.00444C21.0091 5.3465 21.1058 5.5372 21.3281 5.79784C21.9978 6.29128 22.6985 6.25162 23.4959 6.25122C23.6036 6.25159 23.7112 6.25196 23.8222 6.25234C24.1777 6.25338 24.5333 6.25359 24.8888 6.25371C25.1363 6.25406 25.3838 6.25443 25.6313 6.25481C26.1501 6.25547 26.6688 6.25567 27.1875 6.2556C27.8516 6.25559 28.5157 6.25709 29.1798 6.25897C29.691 6.26019 30.2022 6.26041 30.7134 6.26035C30.9582 6.26048 31.203 6.26096 31.4478 6.26181C31.7905 6.26288 32.1331 6.26256 32.4758 6.26191C32.6268 6.26283 32.6268 6.26283 32.781 6.26377C33.4997 6.26026 34.0948 6.23305 34.6582 5.74315C35.0185 5.3193 35.0313 5.0539 35.0235 4.51311C34.9909 4.17105 34.8942 3.98034 34.6719 3.71971C34.0022 3.22627 33.3015 3.26593 32.5041 3.26632C32.3964 3.26596 32.2888 3.26559 32.1778 3.26521C31.8223 3.26417 31.4668 3.26396 31.1112 3.26384C30.8637 3.26349 30.6162 3.26312 30.3687 3.26274C29.8499 3.26208 29.3312 3.26188 28.8125 3.26194C28.1484 3.26196 27.4843 3.26046 26.8202 3.25858C26.309 3.25736 25.7978 3.25714 25.2866 3.2572C25.0418 3.25707 24.797 3.25659 24.5522 3.25574C24.2095 3.25467 23.8669 3.25498 23.5242 3.25564C23.4235 3.25503 23.3228 3.25441 23.219 3.25378C22.5003 3.25728 21.9052 3.28449 21.3418 3.7744ZM8.75 16.0791C8.75 17.1619 8.75 18.2447 8.75 19.3603C9.06737 19.3644 9.38474 19.3685 9.71173 19.3727C10.0198 19.3778 10.3278 19.3834 10.6359 19.389C10.8496 19.3927 11.0634 19.3957 11.2772 19.3982C11.5848 19.4019 11.8924 19.4076 12.2 19.4137C12.3429 19.4148 12.3429 19.4148 12.4887 19.4159C13.0037 19.4283 13.3726 19.4507 13.7812 19.7978C14.0835 20.2164 14.1507 20.5077 14.1518 21.0206C14.1529 21.1546 14.1539 21.2885 14.155 21.4266C14.1543 21.5703 14.1536 21.7141 14.153 21.8623C14.1532 22.0122 14.1535 22.1622 14.1539 22.3121C14.1544 22.6258 14.1537 22.9395 14.1522 23.2532C14.1503 23.6544 14.1514 24.0556 14.1533 24.4569C14.1545 24.7663 14.1541 25.0758 14.1533 25.3853C14.153 25.6049 14.154 25.8245 14.155 26.0441C14.1539 26.1781 14.1529 26.312 14.1518 26.4501C14.1516 26.5677 14.1513 26.6853 14.151 26.8064C14.09 27.2747 13.9092 27.5642 13.552 27.8676C13.1001 28.0573 12.6857 28.0534 12.2 28.0569C12.0519 28.0599 12.0519 28.0599 11.9007 28.0629C11.5865 28.0688 11.2723 28.0725 10.958 28.0762C10.7445 28.0798 10.5309 28.0836 10.3174 28.0875C9.7949 28.097 9.27253 28.1036 8.75 28.1103C8.75 29.1931 8.75 30.276 8.75 31.3916C12.7564 31.3916 16.7628 31.3916 20.8906 31.3916C20.9267 30.8141 20.9628 30.2366 21 29.6416C21.4123 28.9544 21.4123 28.9544 21.875 28.7666C22.2679 28.7197 22.6576 28.7218 23.0529 28.7241C23.2309 28.7233 23.2309 28.7233 23.4126 28.7224C23.8047 28.7209 24.1967 28.7219 24.5889 28.723C24.8614 28.7228 25.134 28.7225 25.4065 28.7221C26.0508 28.7215 26.6951 28.7227 27.3394 28.7244C27.8529 28.7256 28.3665 28.7252 28.88 28.7238C29.5884 28.7219 30.2968 28.7216 31.0052 28.7227C31.2752 28.7229 31.5452 28.7226 31.8152 28.7219C32.1925 28.721 32.5698 28.7223 32.9471 28.7241C33.0588 28.7235 33.1705 28.7228 33.2856 28.7221C34.262 28.7309 34.262 28.7309 34.6719 29.0947C35 29.6416 35 29.6416 35.1094 31.3916C39.1158 31.3916 43.1222 31.3916 47.25 31.3916C47.25 30.3088 47.25 29.226 47.25 28.1103C46.9326 28.1062 46.6153 28.1022 46.2883 28.0979C45.9802 28.0929 45.6722 28.0873 45.3641 28.0816C45.1504 28.078 44.9366 28.0749 44.7228 28.0724C44.4152 28.0688 44.1076 28.063 43.8 28.0569C43.7047 28.0562 43.6095 28.0555 43.5113 28.0548C42.9963 28.0424 42.6274 28.0199 42.2188 27.6728C41.9165 27.2542 41.8493 26.963 41.8482 26.4501C41.8471 26.3161 41.8461 26.1821 41.845 26.0441C41.846 25.8284 41.846 25.8284 41.847 25.6084C41.8468 25.4584 41.8465 25.3085 41.8461 25.1585C41.8456 24.8448 41.8463 24.5312 41.8478 24.2175C41.8497 23.8162 41.8486 23.415 41.8467 23.0138C41.8455 22.7043 41.8459 22.3949 41.8467 22.0854C41.847 21.8658 41.846 21.6462 41.845 21.4266C41.8461 21.2926 41.8471 21.1586 41.8482 21.0206C41.8484 20.903 41.8487 20.7854 41.849 20.6642C41.91 20.1959 42.0908 19.9065 42.4481 19.6031C42.8999 19.4133 43.3143 19.4173 43.8 19.4137C43.9481 19.4108 43.9481 19.4108 44.0993 19.4078C44.4135 19.4019 44.7277 19.3982 45.042 19.3945C45.2555 19.3909 45.4691 19.3871 45.6826 19.3832C46.2051 19.3736 46.7275 19.3671 47.25 19.3603C47.25 18.2775 47.25 17.1947 47.25 16.0791C34.545 16.0791 21.84 16.0791 8.75 16.0791ZM3.28125 22.6416C3.28125 23.3635 3.28125 24.0853 3.28125 24.8291C5.80781 24.8291 8.33438 24.8291 10.9375 24.8291C10.9375 24.1072 10.9375 23.3853 10.9375 22.6416C8.41094 22.6416 5.88438 22.6416 3.28125 22.6416ZM45.0625 22.6416C45.0625 23.3635 45.0625 24.0853 45.0625 24.8291C47.5891 24.8291 50.1156 24.8291 52.7188 24.8291C52.7188 24.1072 52.7188 23.3853 52.7188 22.6416C50.1922 22.6416 47.6656 22.6416 45.0625 22.6416ZM24.1719 31.9385C24.1719 32.6603 24.1719 33.3822 24.1719 34.126C26.6984 34.126 29.225 34.126 31.8281 34.126C31.8281 33.4041 31.8281 32.6822 31.8281 31.9385C29.3016 31.9385 26.775 31.9385 24.1719 31.9385ZM3.28125 50.5322C3.28125 51.2541 3.28125 51.976 3.28125 52.7197C5.80781 52.7197 8.33438 52.7197 10.9375 52.7197C10.9375 51.9978 10.9375 51.276 10.9375 50.5322C8.41094 50.5322 5.88438 50.5322 3.28125 50.5322ZM24.1719 50.5322C24.1719 51.2541 24.1719 51.976 24.1719 52.7197C26.6984 52.7197 29.225 52.7197 31.8281 52.7197C31.8281 51.9978 31.8281 51.276 31.8281 50.5322C29.3016 50.5322 26.775 50.5322 24.1719 50.5322ZM45.0625 50.5322C45.0625 51.2541 45.0625 51.976 45.0625 52.7197C47.5891 52.7197 50.1156 52.7197 52.7188 52.7197C52.7188 51.9978 52.7188 51.276 52.7188 50.5322C50.1922 50.5322 47.6656 50.5322 45.0625 50.5322Z" fill="#703391"/>
</g>
<defs>
<clipPath id="clip0_3333_5804">
<rect width="56" height="56" fill="white"/>
</clipPath>
</defs>
</svg>
