<svg width="86" height="86" viewBox="0 0 86 86" fill="none" xmlns="http://www.w3.org/2000/svg">
<circle cx="43" cy="43" r="43" fill="#703391" fill-opacity="0.1"/>
<path d="M55.9609 21.6401C56.0374 21.6988 56.114 21.7575 56.1928 21.8179C58.195 23.4274 59.5944 26.2008 59.8821 28.7181C59.9641 30.069 59.9881 31.4267 59.6642 32.7472C59.7923 32.7831 59.9203 32.819 60.0523 32.8561C61.3451 33.2916 62.4746 34.0078 63.4765 34.925C63.5693 35.009 63.6621 35.0929 63.7577 35.1794C65.7799 37.0986 66.9025 39.7397 66.9984 42.5107C67.0467 45.3708 66.027 48.0451 64.0676 50.1334C62.3988 51.8364 60.0313 53.2435 57.5866 53.3365C57.3396 53.3386 57.0929 53.3374 56.8459 53.3347C56.7605 53.3342 56.6752 53.3337 56.5872 53.3332C56.3784 53.3319 56.1697 53.33 55.9609 53.3279C55.9619 53.4325 55.9628 53.5372 55.9638 53.645C55.9727 54.6364 55.9792 55.6279 55.9835 56.6194C55.9857 57.1291 55.9888 57.6386 55.9938 58.1482C55.9986 58.6411 56.0011 59.1339 56.0022 59.6267C56.003 59.8137 56.0046 60.0007 56.007 60.1876C56.0301 62.0888 55.6622 63.7459 54.3135 65.17C52.3137 67.0562 50.0107 67.0071 47.4253 66.998C47.008 66.9969 46.5908 66.9979 46.1735 66.9986C45.4733 66.9994 44.7732 66.9984 44.073 66.9963C43.2682 66.9939 42.4634 66.9947 41.6585 66.9971C40.9625 66.9991 40.2665 66.9993 39.5704 66.9982C39.1569 66.9975 38.7434 66.9974 38.3299 66.9989C35.8237 67.0065 33.6532 66.9891 31.6988 65.204C30.6266 64.0809 29.9972 62.5967 30.013 61.0419C30.013 60.9578 30.0129 60.8738 30.0129 60.7872C30.013 60.5126 30.0147 60.2381 30.0164 59.9636C30.0169 59.7719 30.0172 59.5803 30.0174 59.3887C30.0182 58.8867 30.0203 58.3848 30.0228 57.8828C30.025 57.3696 30.026 56.8565 30.0271 56.3433C30.0294 55.3382 30.0331 54.333 30.0377 53.3279C29.9493 53.3287 29.8608 53.3294 29.7696 53.3302C29.6529 53.3308 29.5362 53.3313 29.4159 53.3319C29.3005 53.3327 29.1851 53.3334 29.0662 53.3342C28.6119 53.3257 28.1864 53.2615 27.7436 53.1646C27.6128 53.1361 27.6128 53.1361 27.4795 53.107C24.6596 52.4438 22.1274 50.7511 20.571 48.2956C19.0712 45.8288 18.6368 42.9627 19.3043 40.1583C20.0962 37.1594 21.9835 34.9572 24.6164 33.3993C24.9854 33.1919 25.3551 33.0809 25.7626 32.965C26.0876 32.8574 26.0876 32.8574 26.3344 32.6383C26.4875 32.1876 26.543 31.7608 26.5948 31.2899C26.8492 29.0392 28.4395 27.0149 30.1603 25.6419C32.2294 24.0698 34.9139 23.4278 37.4797 23.7399C37.9455 23.8156 38.4028 23.9196 38.8603 24.0358C38.9468 24.0572 39.0333 24.0787 39.1224 24.1008C39.1797 24.1153 39.237 24.1297 39.296 24.1446C39.3203 24.068 39.3446 23.9914 39.3696 23.9124C39.5454 23.5319 39.7927 23.2597 40.0789 22.9604C40.1334 22.9027 40.1879 22.8449 40.2441 22.7855C40.352 22.6714 40.4603 22.5577 40.569 22.4443C40.6828 22.3243 40.7935 22.2013 40.903 22.0774C44.7426 17.868 51.8021 18.2264 55.9609 21.6401ZM42.9959 25.8223C42.7053 26.2184 42.4629 26.6271 42.242 27.0652C42.2049 27.1381 42.1678 27.211 42.1295 27.2861C42.0578 27.4292 41.9883 27.5734 41.9213 27.7189C41.645 28.2791 41.3703 28.4644 40.8209 28.7181C39.9921 28.9186 39.4311 28.7099 38.6701 28.3647C37.2043 27.7088 35.8041 27.5842 34.2605 28.0656C33.5138 28.3514 32.9199 28.7325 32.3251 29.2626C32.2501 29.3249 32.1751 29.3873 32.0979 29.4515C31.1738 30.2797 30.5416 31.568 30.4536 32.8088C30.4399 33.2191 30.4331 33.629 30.4309 34.0394C30.4143 34.7027 30.3504 35.2619 29.9288 35.7962C29.464 36.189 28.9311 36.3086 28.3426 36.4291C26.6008 36.8308 25.1698 37.7243 24.1628 39.2127C23.2405 40.7818 22.9267 42.4759 23.2502 44.2664C23.7827 46.1199 25.0256 47.4623 26.6612 48.4277C27.0885 48.638 27.5191 48.8143 27.9682 48.9722C28.094 49.0171 28.2198 49.062 28.3494 49.1083C28.7069 49.1849 29.0441 49.221 29.408 49.2495C29.5259 49.2589 29.6438 49.2683 29.7652 49.2779C29.8551 49.2848 29.9451 49.2917 30.0377 49.2989C30.0381 49.2092 30.0385 49.1196 30.0389 49.0273C30.0431 48.1768 30.0493 47.3263 30.0578 46.4759C30.062 46.0388 30.0655 45.6017 30.0672 45.1646C30.0689 44.7416 30.0727 44.3187 30.0778 43.8958C30.0794 43.7356 30.0803 43.5754 30.0804 43.4152C30.0826 41.5423 30.5759 40.0234 31.8609 38.6384C32.8868 37.6854 34.206 37.0925 35.6071 37.0869C35.7415 37.0861 35.8758 37.0853 36.0142 37.0845C36.1622 37.0842 36.3103 37.0839 36.4583 37.0836C36.6149 37.0829 36.7715 37.0822 36.9281 37.0814C37.4417 37.0792 37.9553 37.078 38.4689 37.0769C38.6462 37.0765 38.8236 37.076 39.0009 37.0756C39.8347 37.0735 40.6685 37.072 41.5023 37.0711C42.4619 37.07 43.4215 37.0671 44.3811 37.0627C45.1246 37.0594 45.868 37.0578 46.6115 37.0575C47.0547 37.0572 47.4978 37.0563 47.941 37.0535C48.3587 37.0509 48.7763 37.0505 49.194 37.0516C49.3463 37.0517 49.4985 37.051 49.6507 37.0495C51.3452 37.0337 52.9329 37.4802 54.1978 38.6546C54.9435 39.4693 55.426 40.4071 55.7431 41.4586C55.7622 41.5208 55.7814 41.5831 55.8011 41.6472C55.8687 41.975 55.87 42.2886 55.8744 42.6233C55.8754 42.6956 55.8765 42.7679 55.8776 42.8424C55.8811 43.0804 55.8838 43.3184 55.8865 43.5565C55.8887 43.7219 55.891 43.8873 55.8933 44.0527C55.8993 44.4873 55.9047 44.922 55.91 45.3566C55.9154 45.8004 55.9215 46.2442 55.9275 46.688C55.9392 47.5583 55.9503 48.4286 55.9609 49.2989C56.1332 49.3008 56.3054 49.3022 56.4777 49.3034C56.6216 49.3046 56.6216 49.3046 56.7684 49.3059C58.4766 49.2631 59.9032 48.4046 61.0802 47.2299C61.151 47.1604 61.2217 47.0909 61.2946 47.0194C62.4628 45.7874 62.8805 44.223 62.8686 42.5689C62.8157 40.8478 62.1102 39.3706 60.9326 38.125C59.7217 37.0325 58.3426 36.4599 56.7343 36.2645C56.03 36.1641 55.5274 35.8692 55.0963 35.2993C54.8032 34.3512 54.943 33.6044 55.3823 32.7374C56.1124 31.119 55.948 29.3631 55.4129 27.7198C54.7736 26.0506 53.5197 24.6387 51.9308 23.818C48.707 22.4686 45.284 23.1125 42.9959 25.8223ZM34.7294 41.5292C34.6796 41.5912 34.6297 41.6533 34.5784 41.7172C34.5015 41.8094 34.5015 41.8094 34.4231 41.9035C34.0949 42.4012 34.0404 42.8288 34.0394 43.4195C34.039 43.4951 34.0386 43.5706 34.0381 43.6484C34.037 43.9008 34.0374 44.1531 34.0379 44.4055C34.0374 44.5867 34.0368 44.7679 34.0362 44.9491C34.0347 45.4409 34.0347 45.9328 34.0349 46.4246C34.0351 46.8354 34.0345 47.2461 34.034 47.6569C34.0328 48.6262 34.0328 49.5954 34.0334 50.5647C34.0341 51.5641 34.0327 52.5635 34.0304 53.5629C34.0285 54.4214 34.0278 55.2798 34.0282 56.1383C34.0284 56.6509 34.0281 57.1634 34.0266 57.6759C34.0252 58.158 34.0254 58.6401 34.0269 59.1222C34.0271 59.2989 34.0268 59.4756 34.0259 59.6523C34.0248 59.894 34.0257 60.1357 34.027 60.3774C34.027 60.5125 34.027 60.6476 34.027 60.7868C34.0978 61.4486 34.3627 61.9941 34.8302 62.4749C35.4715 62.9229 36.1734 62.8491 36.9239 62.8473C37.0707 62.8481 37.2175 62.849 37.3643 62.8501C37.7617 62.8525 38.1591 62.8528 38.5566 62.8526C38.8889 62.8526 39.2213 62.8535 39.5537 62.8545C40.3382 62.8565 41.1227 62.8569 41.9072 62.8561C42.7151 62.8554 43.523 62.8579 44.3309 62.8619C45.0258 62.8653 45.7207 62.8665 46.4156 62.8661C46.8301 62.8659 47.2445 62.8665 47.659 62.8691C48.049 62.8716 48.4389 62.8713 48.8289 62.8691C49.0392 62.8686 49.2495 62.8707 49.4598 62.8729C50.2354 62.8655 50.7974 62.7902 51.3862 62.2571C51.8798 61.6371 51.9443 61.195 51.9461 60.4182C51.9465 60.3427 51.9468 60.2673 51.9471 60.1896C51.9481 59.9369 51.9482 59.6842 51.9484 59.4315C51.9489 59.2503 51.9494 59.0691 51.95 58.8879C51.9515 58.3956 51.9522 57.9033 51.9526 57.4111C51.953 57.1034 51.9534 56.7958 51.9539 56.4882C51.9554 55.5256 51.9564 54.5629 51.9569 53.6002C51.9573 52.4893 51.9593 51.3784 51.9624 50.2675C51.9648 49.4086 51.9659 48.5496 51.966 47.6907C51.9661 47.1778 51.9668 46.6649 51.9687 46.152C51.9705 45.6694 51.9707 45.1869 51.9698 44.7043C51.9697 44.5275 51.9702 44.3506 51.9713 44.1738C51.9726 43.9318 51.972 43.6899 51.9709 43.4479C51.971 43.3127 51.9712 43.1774 51.9713 43.0381C51.8957 42.3255 51.6212 41.8092 51.0595 41.3497C50.3517 40.9499 49.682 40.9768 48.8827 40.9808C48.7415 40.9802 48.6003 40.9796 48.4547 40.979C48.069 40.9775 47.6833 40.9781 47.2976 40.9791C46.8929 40.98 46.4883 40.9792 46.0837 40.9787C45.4043 40.9781 44.7249 40.9789 44.0456 40.9804C43.2613 40.9822 42.4771 40.9816 41.6929 40.9798C41.0183 40.9784 40.3436 40.9781 39.669 40.979C39.2666 40.9795 38.8643 40.9796 38.4619 40.9785C38.0132 40.9774 37.5646 40.9789 37.1159 40.9808C36.9171 40.9798 36.9171 40.9798 36.7143 40.9787C35.9467 40.9845 35.3348 41.0111 34.7294 41.5292Z" fill="#703391"/>
<path d="M40.1772 53.8526C40.3139 53.8512 40.4507 53.8498 40.5915 53.8483C40.7411 53.8474 40.8906 53.8466 41.0402 53.8459C41.1535 53.8452 41.1535 53.8452 41.2691 53.8446C41.6691 53.8423 42.0691 53.8407 42.4691 53.8397C42.8807 53.8385 43.2921 53.8348 43.7036 53.8304C44.0215 53.8276 44.3393 53.8267 44.6571 53.8263C44.8087 53.8258 44.9603 53.8245 45.1118 53.8225C45.978 53.8116 46.6224 53.8238 47.3563 54.3074C47.9271 54.9081 48.0544 55.3802 48.0371 56.1926C47.9881 56.7191 47.7723 57.0258 47.4517 57.4313C46.6468 58.0785 45.7078 58.0582 44.715 58.0532C44.5785 58.0535 44.442 58.0538 44.3013 58.0541C43.9407 58.0544 43.5801 58.0531 43.2195 58.0512C42.9997 58.0506 42.7799 58.0512 42.56 58.0524C42.1346 58.0544 41.7094 58.0541 41.284 58.0532C41.154 58.0538 41.0239 58.0545 40.8899 58.0552C40.0644 58.0483 39.2641 58.0123 38.6018 57.4721C38.5434 57.398 38.485 57.3239 38.4248 57.2475C38.3642 57.1734 38.3035 57.0993 38.241 57.0229C37.8889 56.5032 37.9167 55.89 37.9891 55.2875C38.2266 54.6695 38.6055 54.2968 39.1873 53.9807C39.5414 53.8627 39.8045 53.8559 40.1772 53.8526Z" fill="#703391"/>
<path d="M40.187 45.9027C40.3954 45.9 40.3954 45.9 40.6079 45.8974C40.7599 45.8961 40.9119 45.895 41.0638 45.8939C41.1405 45.8933 41.2173 45.8927 41.2963 45.8921C41.7027 45.8892 42.1091 45.8871 42.5155 45.8855C42.8507 45.8841 43.1859 45.8811 43.5211 45.8766C43.9268 45.8712 44.3325 45.8685 44.7383 45.8678C44.8924 45.867 45.0464 45.8654 45.2004 45.8628C46.0864 45.8486 46.7858 45.8506 47.4651 46.4681C47.9929 47.0365 48.0431 47.4897 48.0322 48.241C47.9863 48.8438 47.7323 49.1648 47.2949 49.5512C46.8473 49.9178 46.5932 49.9671 46.0083 49.972C45.9371 49.9727 45.8659 49.9734 45.7925 49.9741C45.5564 49.9763 45.3203 49.9776 45.0841 49.9787C45.0034 49.9791 44.9227 49.9795 44.8396 49.98C44.4123 49.9823 43.9849 49.9838 43.5576 49.9848C43.1169 49.986 42.6762 49.9898 42.2355 49.9941C41.8961 49.997 41.5567 49.9979 41.2173 49.9983C41.0549 49.9988 40.8925 50.0001 40.7301 50.0021C40.5022 50.0047 40.2745 50.0046 40.0466 50.0039C39.9172 50.0045 39.7877 50.0052 39.6543 50.0058C38.9295 49.8984 38.5136 49.4219 38.0979 48.8638C37.907 48.2913 37.8686 47.6526 38.0876 47.0824C38.5783 46.246 39.2326 45.9136 40.187 45.9027Z" fill="#703391"/>
</svg>
