<svg width="56" height="56" viewBox="0 0 56 56" fill="none" xmlns="http://www.w3.org/2000/svg">
<path d="M25.4167 1.65637C27.8373 2.22883 29.6949 1.87822 32.0866 1.32252C34.2071 0.835737 36.2441 0.791959 38.1781 1.95792C38.7346 2.32989 39.1994 2.80858 39.6692 3.28195C39.7646 3.37366 39.8601 3.46537 39.9585 3.55986C40.514 4.09937 41.0084 4.66869 41.4942 5.27124C42.7975 6.88341 44.1672 7.66323 46.0491 8.41824C48.1654 9.26729 50.2418 10.2941 51.2766 12.4613C51.8393 13.8283 52.0213 15.2487 52.1321 16.7121C52.3254 19.1888 52.9357 20.9862 54.274 23.0777C54.6902 23.7288 55.0633 24.3747 55.3735 25.0839C55.4039 25.1532 55.4343 25.2225 55.4656 25.2939C56.149 26.9247 56.1777 28.8711 55.5473 30.5258C55.1174 31.5565 54.5533 32.4919 53.9613 33.4354C52.6916 35.4604 52.2898 37.1539 52.1086 39.516C51.9299 41.8192 51.4658 43.8881 49.7434 45.5402C48.5175 46.5758 47.0458 47.1587 45.5758 47.7524C43.7953 48.4747 42.5717 49.3128 41.3617 50.8165C40.906 51.3659 40.4212 51.887 39.9311 52.4057C39.7946 52.551 39.6604 52.6986 39.5265 52.8464C38.2634 54.1957 36.6266 54.9323 34.7889 55C33.3619 54.9807 31.9637 54.6346 30.5833 54.3033C28.1663 53.7317 26.3105 54.0783 23.923 54.6372C21.8015 55.1256 19.7542 55.1668 17.8219 54.0018C17.2654 53.6298 16.8006 53.1511 16.3308 52.6777C16.1876 52.5402 16.1876 52.5402 16.0415 52.3998C15.486 51.8603 14.9916 51.291 14.5058 50.6885C13.0971 48.9459 11.6244 48.2313 9.59307 47.3886C7.55415 46.5402 5.65683 45.5115 4.69186 43.4169C4.15851 42.0538 3.96027 40.6326 3.8522 39.1818C3.66584 36.6881 3.07214 34.9858 1.72605 32.882C1.30979 32.2309 0.936693 31.585 0.62647 30.8758C0.596078 30.8065 0.565686 30.7372 0.534373 30.6658C-0.148957 29.035 -0.17773 27.0886 0.452659 25.4339C0.882594 24.4032 1.44666 23.4678 2.03874 22.5243C3.30844 20.4993 3.71017 18.8058 3.89139 16.4437C4.0701 14.1405 4.53423 12.0716 6.25658 10.4195C7.48251 9.38393 8.95418 8.80095 10.4242 8.20733C12.2087 7.4834 13.4328 6.64217 14.6459 5.13549C15.0671 4.62533 15.5121 4.1393 15.9653 3.65777C16.1054 3.50829 16.2435 3.35696 16.3815 3.20554C18.98 0.449727 22.0817 0.856072 25.4167 1.65637ZM18.8289 5.56067C18.3305 6.04223 17.9011 6.57373 17.4678 7.11368C17.0022 7.67871 16.5034 8.21146 16.0036 8.74609C15.9402 8.81808 15.8768 8.89006 15.8115 8.96423C14.6787 10.2023 13.04 10.835 11.5323 11.4782C9.17889 12.3979 9.17889 12.3979 7.68115 14.3263C7.36428 15.322 7.3014 16.3597 7.20871 17.3948C7.1887 17.6111 7.16868 17.8274 7.14859 18.0437C7.12961 18.2543 7.11246 18.465 7.09537 18.6758C6.9818 19.9275 6.71744 21.1201 6.14071 22.2425C6.10488 22.3125 6.06905 22.3825 6.03213 22.4546C5.62984 23.2246 5.17941 23.9675 4.73417 24.7131C3.63895 26.5456 3.63895 26.5456 3.46198 28.6355C3.74062 29.6365 4.24603 30.5082 4.79732 31.3776C5.00759 31.71 5.21304 32.0454 5.4182 32.381C5.4578 32.4458 5.49739 32.5105 5.53819 32.5773C6.63285 34.3792 6.98608 36.1166 7.16994 38.191C7.28616 40.5494 7.28616 40.5494 8.26052 42.6237C8.31212 42.6859 8.36371 42.748 8.41687 42.812C9.36915 43.7795 10.8762 44.2357 12.1018 44.7526C13.665 45.4129 14.9015 46.134 16.1127 47.3229C16.1844 47.3905 16.2561 47.4581 16.33 47.5278C16.6973 47.8807 17.0196 48.2583 17.3396 48.6548C18.7614 50.5087 18.7614 50.5087 20.7749 51.5371C22.0977 51.676 23.4276 51.2813 24.7078 50.977C27.4988 50.315 29.785 50.5597 32.5438 51.2494C33.7322 51.5392 35.0485 51.8552 36.1525 51.1836C37.0999 50.5171 37.8059 49.7479 38.5283 48.8499C38.9958 48.284 39.4954 47.7496 39.9964 47.2136C40.0598 47.1416 40.1232 47.0696 40.1885 46.9955C41.3213 45.7574 42.96 45.1247 44.4677 44.4815C46.6734 43.639 46.6734 43.639 48.1894 41.929C48.4902 41.1303 48.6018 40.3706 48.6733 39.5228C48.6994 39.252 48.7258 38.9812 48.7525 38.7105C48.7654 38.5776 48.7782 38.4448 48.7914 38.308C49.07 35.5449 49.8356 33.5138 51.3111 31.1764C52.0773 29.9539 52.7485 28.8215 52.538 27.3242C52.2463 26.3245 51.7556 25.4541 51.2027 24.5821C50.9924 24.2497 50.787 23.9143 50.5818 23.5787C50.5422 23.5139 50.5026 23.4492 50.4618 23.3824C49.3671 21.5805 49.0139 19.8431 48.8301 17.7687C48.7138 15.4103 48.7138 15.4103 47.7395 13.336C47.6879 13.2738 47.6363 13.2117 47.5831 13.1477C46.6308 12.1802 45.1238 11.724 43.8982 11.2071C42.335 10.5468 41.0985 9.82568 39.8873 8.63681C39.8156 8.56919 39.7439 8.50157 39.67 8.4319C39.3027 8.07903 38.9804 7.70136 38.6604 7.30492C37.2185 5.40086 37.2185 5.40086 35.1608 4.38503C33.6964 4.33331 32.2443 4.75031 30.8303 5.08765C28.238 5.70081 26.0058 5.34773 23.4562 4.71026C21.5728 4.25098 20.3194 4.23986 18.8289 5.56067Z" fill="#703391"/>
<path d="M40.5418 13.3351C40.9104 13.6577 41.2735 13.9852 41.6324 14.3187C41.7292 14.4068 41.7292 14.4068 41.8279 14.4967C45.0434 17.5505 47.0837 22.3703 47.2192 26.7724C47.3599 32.5318 45.5473 37.4095 41.6324 41.6394C41.5737 41.704 41.5151 41.7687 41.4547 41.8353C40.8212 42.5051 40.0785 43.0564 39.3421 43.6064C39.2809 43.6525 39.2197 43.6986 39.1566 43.7461C35.2066 46.6749 30.0538 47.7219 25.2234 47.1287C20.0873 46.3511 15.4784 43.5146 12.4049 39.3444C12.3366 39.2531 12.3366 39.2531 12.2669 39.1599C9.33698 35.1933 8.29712 30.0464 8.88989 25.1968C9.65687 20.1048 12.4628 15.4654 16.5763 12.3926C17.338 11.8367 18.1388 11.3669 18.9711 10.926C19.1407 10.8354 19.3082 10.7409 19.4753 10.6458C26.1097 7.02486 34.9648 8.48037 40.5418 13.3351ZM24.5103 12.4609C24.3832 12.4917 24.3832 12.4917 24.2536 12.5231C20.204 13.5411 16.5659 16.1598 14.3971 19.7608C13.5405 21.2516 12.9174 22.8115 12.5139 24.482C12.485 24.5994 12.485 24.5994 12.4556 24.7192C11.9487 26.8835 11.9838 29.3198 12.5139 31.4761C12.5447 31.6034 12.5447 31.6034 12.5761 31.7333C13.356 34.849 14.9508 37.3235 17.2034 39.563C17.2861 39.6455 17.3687 39.7281 17.4539 39.8131C19.4146 41.684 21.8997 42.8548 24.5103 43.4972C24.5887 43.5166 24.6671 43.536 24.7479 43.5561C26.9075 44.0637 29.3386 44.0282 31.49 43.4972C31.6171 43.4663 31.6171 43.4663 31.7467 43.4349C34.5459 42.7313 36.9578 41.3568 39.015 39.3444C39.1144 39.2529 39.2138 39.1613 39.3162 39.0669C41.9243 36.5989 43.6745 32.781 43.8273 29.1843C43.8642 27.5916 43.8681 26.0347 43.4863 24.482C43.4556 24.3546 43.4556 24.3546 43.4242 24.2247C42.4084 20.1668 39.795 16.5212 36.2015 14.3479C34.7137 13.4896 33.157 12.8652 31.49 12.4609C31.4119 12.4416 31.3338 12.4223 31.2533 12.4024C29.0934 11.8944 26.6621 11.9297 24.5103 12.4609Z" fill="#703391"/>
<path d="M28.5452 15.7413C29.0249 15.9816 29.3411 16.2765 29.6358 16.7248C29.7562 17.1846 29.7786 17.6523 29.8062 18.125C29.8109 18.2007 29.8156 18.2764 29.8204 18.3545C29.8319 18.5398 29.8429 18.7251 29.8539 18.9105C29.9347 18.9306 30.0155 18.9508 30.0988 18.9715C30.8687 19.184 31.5492 19.4647 32.2531 19.8394C32.3705 19.9016 32.3705 19.9016 32.4902 19.9651C33.1144 20.3058 33.6992 20.641 33.9981 21.3147C34.1604 21.9793 34.1386 22.4604 33.78 23.0632C33.3914 23.4728 33.0304 23.6904 32.4644 23.7599C31.8739 23.7035 31.4593 23.4546 30.9444 23.1725C29.6639 22.5031 28.546 22.0584 27.072 22.3529C26.5188 22.5384 26.082 22.8635 25.8187 23.3911C25.7889 23.6177 25.7889 23.6177 25.7846 23.8692C25.7806 23.9534 25.7765 24.0377 25.7723 24.1245C25.8371 24.4736 25.988 24.5812 26.255 24.8117C26.5655 24.9753 26.5655 24.9753 26.9165 25.1106C27.0473 25.1639 27.1781 25.2171 27.3128 25.2721C27.3816 25.2995 27.4504 25.3269 27.5213 25.3552C27.7362 25.441 27.9505 25.5281 28.1647 25.6156C28.6923 25.831 29.2209 26.0439 29.7496 26.2568C31.766 27.0718 33.366 27.9322 34.3367 29.9843C34.7408 31.1002 34.7136 32.5255 34.2443 33.6107C34.199 33.7003 34.1538 33.7899 34.1071 33.8822C34.0596 33.9763 34.0121 34.0704 33.9631 34.1674C33.1979 35.5502 31.9656 36.4267 30.4878 36.9421C30.072 37.0514 30.072 37.0514 29.7448 37.0514C29.7473 37.1609 29.7499 37.2703 29.7525 37.3831C29.7545 37.5298 29.7565 37.6765 29.7584 37.8232C29.761 37.9665 29.7635 38.1097 29.7661 38.2574C29.7401 38.7859 29.6957 39.2552 29.3461 39.6699C29.2797 39.7209 29.2134 39.7719 29.145 39.8245C29.0455 39.9035 29.0455 39.9035 28.9439 39.9841C28.4816 40.3097 28.0028 40.2815 27.4546 40.2206C26.9749 39.9803 26.6587 39.6854 26.364 39.2371C26.2294 38.7572 26.2424 38.2765 26.2481 37.7822C26.2486 37.7013 26.2491 37.6204 26.2496 37.537C26.2509 37.3387 26.2529 37.1404 26.255 36.9421C26.129 36.9241 26.003 36.9061 25.8733 36.8875C24.2431 36.5216 22.5571 35.4319 21.5655 34.1008C21.3503 33.6695 21.408 33.1502 21.4564 32.6801C21.7372 32.1175 22.0612 31.7859 22.656 31.5873C23.2354 31.4952 23.6474 31.5491 24.142 31.8741C24.4402 32.0932 24.7148 32.3275 24.9872 32.5776C26.0178 33.4906 27.3592 33.7208 28.6875 33.6969C29.5124 33.6288 30.0684 33.3944 30.6241 32.7757C31.0131 32.2896 31.1066 32.0067 31.0535 31.3687C30.4356 30.1046 28.999 29.7226 27.7818 29.2514C26.7521 28.8503 25.7297 28.4467 24.7392 27.9545C24.6682 27.9194 24.5972 27.8844 24.5241 27.8483C23.435 27.2934 22.8746 26.4858 22.4379 25.3582C22.0588 24.1223 22.1799 22.8875 22.717 21.7207C23.4271 20.3805 24.512 19.5385 25.9278 19.0198C26.0358 19.0198 26.1437 19.0198 26.255 19.0198C26.2524 18.9024 26.2499 18.7851 26.2473 18.6642C26.2452 18.5072 26.2433 18.3503 26.2413 18.1933C26.2395 18.1163 26.2377 18.0393 26.2358 17.96C26.2303 17.3619 26.2518 16.7688 26.6537 16.292C26.7532 16.2155 26.7532 16.2155 26.8548 16.1374C26.9211 16.0847 26.9875 16.0321 27.0559 15.9778C27.5182 15.6521 27.997 15.6804 28.5452 15.7413Z" fill="#703391"/>
</svg>
