<svg width="86" height="86" viewBox="0 0 86 86" fill="none" xmlns="http://www.w3.org/2000/svg">
<circle cx="43" cy="43" r="43" fill="#703391" fill-opacity="0.1"/>
<path d="M43 67C39.8196 67.004 36.7644 65.7565 34.4978 63.5223C31.3193 63.494 28.2761 62.2182 26.0281 59.9698C23.7802 57.7214 22.5039 54.6803 22.4756 51.5002C20.2475 49.2316 19 46.1786 19 43C19 39.8214 20.2475 36.7685 22.4756 34.4998C22.5039 31.3194 23.7798 28.2782 26.0281 26.0302C28.2765 23.7822 31.3196 22.506 34.4978 22.4777C36.7663 20.2496 39.8193 19 43 19C46.1807 19 49.2336 20.2496 51.5022 22.4777C54.6807 22.506 57.7239 23.7818 59.9719 26.0302C62.2198 28.2786 63.496 31.3196 63.5244 34.4998C65.7525 36.7684 67 39.8214 67 43C67 46.1786 65.7525 49.2315 63.5244 51.5002C63.496 54.6806 62.2202 57.7218 59.9719 59.9698C57.7235 62.2178 54.6803 63.494 51.5022 63.5223C49.2357 65.7565 46.1807 67.004 43 67ZM43 22.2352C40.6445 22.2311 38.384 23.1652 36.7199 24.8313C36.1537 25.3933 35.3894 25.7108 34.5928 25.7128C32.2393 25.7148 29.9808 26.651 28.3147 28.315C26.6507 29.9811 25.7126 32.2395 25.7105 34.5931C25.7126 35.3917 25.3971 36.156 24.831 36.7201C23.169 38.3862 22.2349 40.6446 22.2349 43.0003C22.2349 45.3559 23.169 47.6143 24.831 49.2804C25.3972 49.8445 25.7126 50.6088 25.7105 51.4075C25.7126 53.761 26.6507 56.0195 28.3147 57.6855C29.9808 59.3495 32.2392 60.2857 34.5928 60.2877C35.3894 60.2897 36.1537 60.6072 36.7199 61.1692C38.3859 62.8312 40.6444 63.7654 43 63.7654C45.3556 63.7654 47.614 62.8312 49.2801 61.1692C49.8463 60.6072 50.6105 60.2897 51.4072 60.2877C53.7607 60.2857 56.0192 59.3495 57.6853 57.6855C59.3493 56.0195 60.2874 53.761 60.2895 51.4075C60.2874 50.6088 60.6029 49.8445 61.169 49.2804C62.831 47.6143 63.7651 45.3559 63.7651 43.0003C63.7651 40.6446 62.831 38.3862 61.169 36.7201C60.6028 36.156 60.2874 35.3917 60.2895 34.5931C60.2874 32.2395 59.3493 29.9811 57.6853 28.315C56.0192 26.651 53.7608 25.7148 51.4072 25.7128C50.6105 25.7108 49.8463 25.3933 49.2801 24.8313C47.6161 23.1652 45.3556 22.2311 43 22.2352ZM43 57.7136C32.9185 57.3132 28.3574 49.8061 28.3574 43C28.4383 24.3258 56.5567 22.6736 57.7135 43.0021V43C57.7095 46.9003 56.1567 50.641 53.3988 53.3988C50.6409 56.1566 46.9002 57.7075 43 57.7136ZM43.0323 31.5236C35.1305 31.8512 31.5922 37.5206 31.5922 43C31.5295 57.5459 53.6247 58.8741 54.4782 43C54.4742 39.9631 53.2671 37.0496 51.1239 34.8984C48.9786 32.7492 46.0691 31.534 43.0321 31.5219L43.0323 31.5236ZM39.1725 50.9583C38.3941 50.9502 37.6601 50.6044 37.1587 50.01C36.6573 49.4136 36.443 48.6311 36.5683 47.8628L37.0637 44.9735C35.893 43.7037 33.5234 42.2803 34.2957 40.2159C34.8921 38.0869 37.6318 38.3376 39.3303 37.9959C40.1855 36.4794 40.784 33.8064 43 33.8934C45.212 33.8044 45.8185 36.4855 46.6697 37.9959C48.3742 38.3396 51.1038 38.0848 51.7043 40.2159C52.4807 42.2763 50.1029 43.7098 48.9363 44.9735C49.1365 46.7043 50.2222 49.2195 48.3783 50.4508C46.6617 51.8237 44.5609 50.006 42.9998 49.2882C42.1688 49.6481 40.1067 51.0512 39.1725 50.9583ZM38.0787 41.4452L39.5445 42.8746C40.7981 43.9422 40.1835 45.867 39.959 47.2319L41.7707 46.2796C43.1557 45.4101 44.8278 46.6031 46.043 47.2319L45.6972 45.216C45.309 43.6147 46.9386 42.4177 47.9233 41.4472C46.5505 41.2369 44.5386 41.2329 43.9058 39.7063L43 37.8684C42.3773 39.1078 41.7444 41.0267 40.1006 41.15L38.0787 41.4452Z" fill="#703391"/>
</svg>
