<svg width="86" height="86" viewBox="0 0 86 86" fill="none" xmlns="http://www.w3.org/2000/svg">
<circle cx="43" cy="43" r="43" fill="#703391" fill-opacity="0.1"/>
<path d="M53.1667 48.6825L49.894 47.5575C49.7814 47.5194 49.6635 47.5004 49.5449 47.5013H48.454V46.6238L49.7631 46.3763C49.9735 46.3336 50.167 46.228 50.3195 46.0725L52.5013 43.8225C52.68 43.6073 52.7734 43.3305 52.7628 43.0474C52.7522 42.7642 52.6384 42.4956 52.4441 42.2953C52.2498 42.0949 51.9894 41.9776 51.7148 41.9666C51.4403 41.9557 51.1718 42.052 50.9631 42.2363L48.9995 44.2163L47.9086 44.4525C47.4874 43.833 46.8765 43.3773 46.174 43.1588C46.2533 42.928 46.2867 42.6832 46.2722 42.4388C46.2582 41.8234 46.0472 41.2301 45.6722 40.7513L45.9449 40.47C46.1236 40.2548 46.217 39.978 46.2064 39.6949C46.1958 39.4117 46.082 39.1431 45.8877 38.9428C45.6934 38.7424 45.433 38.6251 45.1584 38.6141C44.8839 38.6032 44.6154 38.6995 44.4067 38.8838L43.6322 39.6825H42.3667L41.5922 38.8838C41.3835 38.6995 41.1151 38.6032 40.8405 38.6141C40.5659 38.6251 40.3055 38.7424 40.1112 38.9428C39.9169 39.1431 39.8031 39.4117 39.7925 39.6949C39.7819 39.978 39.8753 40.2548 40.054 40.47L40.3267 40.7513C39.9517 41.2301 39.7408 41.8234 39.7267 42.4388C39.7261 42.6862 39.7744 42.9312 39.8686 43.1588C39.1661 43.3773 38.5552 43.833 38.134 44.4525L37.0431 44.2163L35.0904 42.2025C34.8817 42.0182 34.6132 41.9219 34.3387 41.9329C34.0641 41.9438 33.8037 42.0612 33.6094 42.2615C33.4151 42.4619 33.3013 42.7305 33.2907 43.0136C33.2801 43.2967 33.3735 43.5736 33.5522 43.7888L35.734 46.0388C35.8865 46.1942 36.08 46.2999 36.2904 46.3425L37.5995 46.6238V47.5013H36.454C36.3355 47.5004 36.2176 47.5194 36.1049 47.5575L32.8322 48.6825C32.6961 48.7291 32.5702 48.8028 32.4618 48.8995C32.3533 48.9962 32.2644 49.114 32.2 49.2462C32.0701 49.513 32.0483 49.8222 32.1395 50.1057C32.2306 50.3891 32.4272 50.6236 32.686 50.7576C32.9448 50.8916 33.2446 50.914 33.5195 50.82L36.6286 49.7513H37.7195C37.7587 49.9864 37.8096 50.2192 37.8722 50.4488L36.1704 50.8763C35.9159 50.9475 35.695 51.1113 35.5486 51.3375L33.3667 54.7125C33.2776 54.8348 33.2135 54.9746 33.1785 55.1232C33.1435 55.2719 33.1382 55.4264 33.1631 55.5772C33.1879 55.728 33.2423 55.872 33.323 56.0004C33.4037 56.1288 33.5089 56.2389 33.6322 56.324C33.7555 56.409 33.8944 56.4672 34.0402 56.495C34.1861 56.5228 34.336 56.5197 34.4806 56.4857C34.6253 56.4518 34.7617 56.3878 34.8816 56.2976C35.0014 56.2074 35.1022 56.093 35.1777 55.9613L37.1304 52.935L38.8322 52.4513C39.4577 53.3402 40.2807 54.0616 41.2322 54.555L42.5086 55.2075C42.6594 55.2848 42.8256 55.3251 42.994 55.3251C43.1625 55.3251 43.3286 55.2848 43.4795 55.2075L44.7558 54.555C45.7073 54.0616 46.5303 53.3402 47.1558 52.4513L48.8577 52.935L50.8104 55.9613C50.978 56.1911 51.2246 56.346 51.4995 56.3942C51.7744 56.4423 52.0568 56.3801 52.2886 56.2203C52.5204 56.0604 52.6841 55.8151 52.7459 55.5347C52.8078 55.2543 52.7632 54.9601 52.6213 54.7125L50.4395 51.3375C50.2931 51.1113 50.0722 50.9475 49.8177 50.8763L48.1486 50.4038C48.2111 50.1742 48.2621 49.9414 48.3013 49.7063H49.3922L52.5013 50.775C52.7762 50.869 53.076 50.8466 53.3348 50.7126C53.5936 50.5786 53.7902 50.3441 53.8813 50.0607C53.9724 49.7772 53.9506 49.468 53.8207 49.2012C53.6908 48.9343 53.4634 48.7315 53.1886 48.6375L53.1667 48.6825ZM41.9086 42.4388C41.9086 42.2896 41.966 42.1465 42.0683 42.041C42.1706 41.9356 42.3094 41.8763 42.454 41.8763H43.5449C43.6896 41.8763 43.8283 41.9356 43.9306 42.041C44.0329 42.1465 44.0904 42.2896 44.0904 42.4388C44.0904 42.588 44.0329 42.7311 43.9306 42.8365C43.8283 42.942 43.6896 43.0013 43.5449 43.0013H42.454C42.3094 43.0013 42.1706 42.942 42.0683 42.8365C41.966 42.7311 41.9086 42.588 41.9086 42.4388ZM43.7849 52.5638L42.9995 52.9688L42.214 52.5638C41.4678 52.1826 40.8397 51.5941 40.4002 50.8647C39.9608 50.1353 39.7275 49.2938 39.7267 48.435V46.3763C39.7267 46.0779 39.8417 45.7918 40.0463 45.5808C40.2508 45.3698 40.5283 45.2513 40.8177 45.2513H45.1813C45.4706 45.2513 45.7481 45.3698 45.9527 45.5808C46.1573 45.7918 46.2722 46.0779 46.2722 46.3763V48.435C46.2755 49.2976 46.0442 50.1438 45.6045 50.8776C45.1648 51.6114 44.5344 52.2034 43.7849 52.5863V52.5638Z" fill="#703391"/>
<path d="M63.7273 25H22.2727C21.4047 25 20.5723 25.3556 19.9586 25.9885C19.3448 26.6214 19 27.4799 19 28.375V57.625C19 58.5201 19.3448 59.3785 19.9586 60.0115C20.5723 60.6444 21.4047 61 22.2727 61H63.7273C64.5953 61 65.4277 60.6444 66.0414 60.0115C66.6552 59.3785 67 58.5201 67 57.625V28.375C67 27.4799 66.6552 26.6214 66.0414 25.9885C65.4277 25.3556 64.5953 25 63.7273 25ZM21.1818 28.375C21.1818 28.0766 21.2968 27.7905 21.5013 27.5795C21.7059 27.3685 21.9834 27.25 22.2727 27.25H63.7273C64.0166 27.25 64.2941 27.3685 64.4987 27.5795C64.7033 27.7905 64.8182 28.0766 64.8182 28.375V34H21.1818V28.375ZM63.7273 58.75H22.2727C21.9834 58.75 21.7059 58.6315 21.5013 58.4205C21.2968 58.2095 21.1818 57.9234 21.1818 57.625V36.25H64.8182V57.625C64.8182 57.9234 64.7033 58.2095 64.4987 58.4205C64.2941 58.6315 64.0166 58.75 63.7273 58.75Z" fill="#703391"/>
<path d="M24.4542 31.75C25.0567 31.75 25.5451 31.2463 25.5451 30.625C25.5451 30.0037 25.0567 29.5 24.4542 29.5C23.8517 29.5 23.3633 30.0037 23.3633 30.625C23.3633 31.2463 23.8517 31.75 24.4542 31.75Z" fill="#703391"/>
<path d="M28.8175 31.75C29.42 31.75 29.9084 31.2463 29.9084 30.625C29.9084 30.0037 29.42 29.5 28.8175 29.5C28.215 29.5 27.7266 30.0037 27.7266 30.625C27.7266 31.2463 28.215 31.75 28.8175 31.75Z" fill="#703391"/>
<path d="M33.1827 31.75C33.7852 31.75 34.2736 31.2463 34.2736 30.625C34.2736 30.0037 33.7852 29.5 33.1827 29.5C32.5802 29.5 32.0918 30.0037 32.0918 30.625C32.0918 31.2463 32.5802 31.75 33.1827 31.75Z" fill="#703391"/>
</svg>
