<svg width="56" height="58" viewBox="0 0 56 58" fill="none" xmlns="http://www.w3.org/2000/svg">
<path d="M46.8657 1.28595L52.3632 7.82022C52.7666 8.30142 52.3813 8.99472 51.7542 8.99472H49.1373V28.1867C49.1373 28.5891 48.7895 28.9151 48.3642 28.9151H44.135C43.7058 28.9151 43.358 28.5891 43.358 28.1867V8.99593H40.745C40.1076 8.99593 39.708 8.29899 40.158 7.78992L45.6413 1.27504C45.9567 0.901724 46.5657 0.911421 46.8657 1.28595ZM48.3939 5.44699L46.2502 2.898L42.343 7.54266H44.135C44.5643 7.54266 44.9121 7.86871 44.9121 8.27111V27.4594H47.5871V8.27111C47.5871 7.86871 47.9349 7.54266 48.3642 7.54266H50.1562L48.3939 5.44699ZM36.7395 6.14757L42.237 12.6831C42.6404 13.1642 42.2551 13.8576 41.628 13.8576H39.0112V28.1879C39.0112 28.5903 38.6634 28.9163 38.238 28.9163H34.0089C33.5796 28.9163 33.2318 28.5903 33.2318 28.1879V13.8576H30.6188C29.9853 13.8576 29.5858 13.1606 30.0318 12.6515L35.5151 6.13666C35.8306 5.76334 36.4395 5.77304 36.7395 6.14757ZM38.2677 10.3086L36.1241 7.75962L32.2169 12.4043H34.0089C34.4381 12.4043 34.7859 12.7267 34.7859 13.1291V27.4594H37.461V13.1291C37.461 12.7267 37.8088 12.4043 38.238 12.4043H40.03L38.2677 10.3086ZM38.2277 41.5667C40.9467 41.5667 43.1498 43.6345 43.1498 46.1847C43.1498 48.73 40.9467 50.799 38.2277 50.799C35.5086 50.799 33.3055 48.7313 33.3055 46.1847C33.3055 43.6357 35.5086 41.5667 38.2277 41.5667ZM40.6131 43.9484C38.4953 41.9631 34.8557 43.3751 34.8557 46.1847C34.8557 48.9919 38.4953 50.4039 40.6131 48.4185C41.9293 47.1847 41.9293 45.1823 40.6131 43.9484ZM35.0057 40.1074L35.9224 39.7534L36.1758 38.8638C36.2676 38.5377 36.5792 38.3244 36.9231 38.3244V38.3208H39.5322C39.9097 38.3208 40.2252 38.5753 40.295 38.9123L40.5329 39.7534L41.4457 40.1074L42.2991 39.6468C42.6068 39.4783 42.9921 39.5328 43.2338 39.7607L45.0814 41.4891C45.3491 41.74 45.3788 42.1279 45.1771 42.4103L44.7078 43.1666L45.0853 44.0224L46.0343 44.2599C46.3821 44.346 46.6135 44.6417 46.6135 44.9605V46.7713C47.7604 46.455 48.8089 46.0635 49.7101 45.5993C50.4096 45.2417 51.0224 44.8405 51.5163 44.3969C51.5564 44.352 51.5965 44.3145 51.6482 44.2769C51.9701 43.9715 52.2416 43.6442 52.4511 43.3012V38.0105C52.4511 37.4432 51.9559 36.9802 51.3521 36.9802H49.4825V38.0699C49.4825 38.9111 48.7533 39.5983 47.8522 39.5983C47.1049 39.5983 46.4998 39.6844 45.9283 39.1486L45.9244 39.1523C45.6309 38.8735 45.4473 38.4929 45.4473 38.0699V36.9802H31.008V38.0699C31.008 38.9111 30.2749 39.5983 29.3776 39.5983C28.6342 39.5983 28.0213 39.6844 27.4499 39.151C27.1564 38.8723 26.9728 38.4917 26.9728 38.0687V36.979H25.1032C24.4981 36.979 24.0042 37.4432 24.0042 38.0093V43.3C24.2163 43.6503 24.4917 43.9799 24.8252 44.2926C24.8614 44.3205 24.8951 44.3508 24.9248 44.386C25.4239 44.8332 26.0393 45.2381 26.7465 45.5993C27.6477 46.0635 28.6962 46.455 29.8431 46.7713V44.9605C29.8431 44.6066 30.1146 44.3108 30.474 44.2454L31.3713 44.0224L31.7488 43.1666L31.2536 42.3679C31.0739 42.0758 31.1321 41.7182 31.3752 41.4916V41.4879L33.2228 39.7595C33.4904 39.5086 33.9041 39.4783 34.2054 39.6698L35.0057 40.1074ZM44.9677 48.6452L44.9134 48.7797C44.8513 48.924 44.7815 49.0646 44.7078 49.2028L45.203 50.0003C45.3827 50.2924 45.3245 50.65 45.0788 50.8766L45.0827 50.8803L43.2351 52.6087C42.9675 52.8596 42.5538 52.8899 42.2525 52.6984L41.4457 52.262L40.5329 52.6159L40.2795 53.5056C40.1877 53.8316 39.8761 54.045 39.5322 54.045V54.0486H36.9231C36.5456 54.0486 36.2301 53.7941 36.1603 53.4571L35.9224 52.6147L35.0057 52.2608L34.155 52.7214C33.8472 52.8899 33.4619 52.8353 33.2202 52.6075L31.3726 50.879C31.105 50.6281 31.0752 50.2403 31.2769 49.9579L31.7462 49.2015C31.6725 49.0646 31.6027 48.9228 31.5407 48.7785C31.5226 48.7337 31.5006 48.6888 31.4825 48.644C29.1475 48.1943 26.8616 47.4622 25.1097 46.3629V54.6401C25.1097 55.1346 25.5428 55.5407 26.0703 55.5407H50.3837C50.9112 55.5407 51.3443 55.1358 51.3443 54.6401V46.3629C49.5924 47.4634 47.3065 48.1979 44.9677 48.6452ZM36.0504 41.2576C35.8228 41.3473 35.5991 41.4467 35.391 41.5631C35.157 41.6903 34.8557 41.7037 34.6062 41.5667L33.8951 41.1825L32.8905 42.1243L33.2977 42.78C33.5977 43.2575 33.2241 43.5739 32.9719 44.1411C32.8801 44.3545 32.8 44.5702 32.734 44.7969C32.6681 45.0441 32.4625 45.2502 32.1807 45.3193L31.3933 45.5181V46.8477L32.1742 47.0441C32.7457 47.181 32.7198 47.6489 32.9732 48.2222C33.5667 49.353 33.5783 49.1361 32.8931 50.2427L33.8977 51.1845L34.5971 50.8063C35.1065 50.5251 35.4401 50.8718 36.0517 51.1081C36.2831 51.1978 36.5132 51.273 36.7486 51.3311C37.0123 51.393 37.236 51.5857 37.3097 51.8499L37.5191 52.5881H38.9413L39.1469 51.8596C39.2969 51.3093 39.8102 51.3481 40.4075 51.1069C40.6351 51.0172 40.8587 50.9178 41.0669 50.8015C41.3009 50.6742 41.6022 50.6609 41.8517 50.7978L42.5628 51.1821L43.5674 50.2403L43.1601 49.5846C42.8602 49.107 43.2338 48.7943 43.486 48.221C43.9178 47.0319 43.7458 47.1762 45.0659 46.8465V45.5168L44.285 45.3205C43.7135 45.1835 43.7394 44.7157 43.486 44.1424C43.3903 43.9254 43.2804 43.7193 43.1601 43.5206C43.0205 43.3012 43.0102 43.0224 43.1563 42.7848L43.5661 42.1218L42.5615 41.1801L41.8621 41.5582C41.3526 41.8394 41.0191 41.4928 40.4075 41.2564C40.1761 41.1667 39.9459 41.0916 39.7106 41.0334C39.443 40.9716 39.2232 40.7789 39.1495 40.5146L38.9401 39.7765H37.5178L37.3123 40.5049C37.161 41.0455 36.6632 41.0176 36.0504 41.2576ZM28.6031 34.3209C29.3466 34.3209 29.9594 34.2349 30.5309 34.7682C30.7468 34.9706 30.9007 35.2324 30.9705 35.5209H31.0506V33.298C31.0506 31.772 32.3811 30.5284 34.0089 30.5284H42.4452C44.073 30.5284 45.4034 31.772 45.4034 33.298V35.5209H45.4835C45.6451 34.83 46.3045 34.3222 47.0777 34.3222C47.8211 34.3222 48.434 34.2361 49.0054 34.7694C49.2214 34.9718 49.3791 35.2336 49.445 35.5221H51.3508C52.8092 35.5221 54 36.6384 54 38.0093V43.4794C54 44.026 52.8971 45.1423 52.8971 45.1496V54.6425C52.8971 55.9407 51.7645 57 50.3824 57H26.0716C24.6869 57 23.5569 55.9419 23.5569 54.6425V50.1833H2.77317C2.34392 50.1833 2 49.8573 2 49.4549V42.02C2 38.282 4.73065 35.0458 8.5202 34.121C7.79099 33.0871 7.36562 31.8532 7.36562 30.5272V26.9382C7.36562 23.8705 10.0407 21.3615 13.3144 21.3615H15.3701C18.6425 21.3615 21.3188 23.8693 21.3188 26.9382V30.5247C21.3188 31.8507 20.8935 33.0846 20.1642 34.1185C21.4869 34.4409 22.701 35.0494 23.7159 35.8918C24.1232 35.6579 24.5951 35.5209 25.1045 35.5209H27.0103C27.1706 34.83 27.83 34.3209 28.6031 34.3209ZM29.3763 35.7742C28.3678 35.7742 28.523 35.6579 28.523 36.2481V38.0662L28.6031 38.1414C28.7169 38.1414 29.3802 38.1656 29.4319 38.1171C29.4461 38.1038 29.4578 38.0856 29.4578 38.065V35.8494L29.3763 35.7742ZM47.8522 35.7742C46.845 35.7742 46.9988 35.6579 46.9988 36.2481V38.0662C46.9988 38.0868 47.0092 38.1038 47.0247 38.1184L47.0208 38.122C47.0725 38.1632 47.7397 38.1426 47.8522 38.1426L47.9323 38.0675V35.8518L47.8522 35.7742ZM23.5569 45.1472C23.2233 44.8102 22.454 43.9339 22.4579 43.4769H22.454V38.0069C22.454 37.6396 22.5381 37.2917 22.6919 36.9766C21.6589 36.1281 20.3828 35.5645 19.0123 35.3754C18.1951 36.0663 17.2022 36.5815 16.1096 36.8493L18.3891 45.1472C18.4291 45.2914 18.4188 45.4393 18.371 45.5702L17.1686 48.724H23.5569V45.1472ZM32.606 35.5209H33.9287C33.9287 34.813 33.8809 34.2567 34.504 33.6761C34.8596 33.3428 35.3509 33.1331 35.8901 33.1331H40.5666C41.6474 33.1331 42.5279 33.961 42.5279 34.9742V35.5209H43.8506V33.298C43.8506 32.5768 43.217 31.9816 42.4465 31.9816H34.0101C33.2409 31.9816 32.606 32.5756 32.606 33.298V35.5209ZM35.4789 35.5209H40.9764V34.9742C40.9764 34.7646 40.7889 34.59 40.5666 34.59H35.8901C35.6664 34.59 35.4802 34.7658 35.4802 34.9742V35.5209H35.4789ZM14.5698 37.0626H14.1121L11.8508 45.2878L13.1592 48.724H15.5227L16.835 45.2878L14.5698 37.0626ZM12.5735 36.8505C11.481 36.5827 10.488 36.0675 9.67478 35.3767C6.2007 35.8506 3.55021 38.6783 3.55021 42.0176V48.724H11.5146L10.3122 45.5702C10.2501 45.409 10.254 45.2369 10.3083 45.0853L12.5735 36.8505ZM15.3688 22.8148H13.3131C10.8979 22.8148 8.91454 24.6741 8.91454 26.9382V30.5247C8.91454 33.321 11.3595 35.6094 14.3422 35.6094C17.3224 35.6094 19.766 33.321 19.766 30.5247V26.9382C19.7673 24.6741 17.784 22.8148 15.3688 22.8148ZM26.6133 11.0092L32.1108 17.541C32.5142 18.0222 32.1289 18.7155 31.5019 18.7155V18.7192H28.885V31.8617C28.885 32.2641 28.5411 32.5901 28.1118 32.5901H23.8827C23.4534 32.5901 23.1056 32.2641 23.1056 31.8617V18.7192H20.4927C19.8591 18.7192 19.4596 18.0222 19.9095 17.5132L25.3889 10.9995C25.7044 10.6213 26.3134 10.6347 26.6133 11.0092ZM28.1416 15.1666L25.9979 12.6212L22.0907 17.2635H23.8827C24.3119 17.2635 24.6597 17.5895 24.6597 17.9919V31.1344H27.3348V17.9907C27.3348 17.5883 27.6826 17.2623 28.1118 17.2623H29.9038L28.1416 15.1666Z" fill="#703391" stroke="#703391" stroke-width="0.5"/>
</svg>
