<svg width="86" height="86" viewBox="0 0 86 86" fill="none" xmlns="http://www.w3.org/2000/svg">
<circle cx="43" cy="43" r="43" fill="#703391" fill-opacity="0.1"/>
<path d="M20.5057 31.4171C20.757 30.8917 21.3675 30.679 21.8702 30.9417C22.3729 31.2044 22.5764 31.8424 22.325 32.3679C21.9041 33.2457 21.5769 34.1693 21.3595 35.1243C21.15 36.0396 21.0383 37.0008 21.0383 37.9954C21.0383 40.1888 21.5929 42.2697 22.5843 44.1337C23.6277 46.0957 25.1597 47.8346 27.0469 49.2316C27.398 49.4922 27.5436 49.9446 27.4438 50.3575C27.1147 51.7336 26.6499 53.0847 26.0554 54.3837C25.8738 54.7882 25.6764 55.1864 25.4669 55.5784C26.1252 55.3303 26.7716 55.0488 27.402 54.7361C28.8442 54.021 30.2087 53.141 31.4615 52.1173C31.7328 51.8963 32.0759 51.8421 32.3831 51.938C33.3407 52.2362 34.3281 52.4697 35.3376 52.6219C36.331 52.772 37.3564 52.8512 38.4097 52.8512C43.2432 52.8512 47.6122 51.1623 50.7657 48.4331C53.8637 45.7497 55.7808 42.0573 55.7808 37.9932C55.7808 33.9274 53.8637 30.2349 50.7657 27.5532C47.6138 24.8239 43.2448 23.1351 38.4097 23.1351C36.5504 23.1351 34.765 23.3832 33.0975 23.8419C31.364 24.3194 29.7521 25.0199 28.3098 25.904C27.825 26.2001 27.2026 26.0312 26.9174 25.5245C26.6341 25.0179 26.7957 24.3673 27.2804 24.0692C28.8883 23.0829 30.6717 22.3052 32.5788 21.7819C34.4261 21.2752 36.385 21 38.4098 21C43.7322 21 48.5618 22.8765 52.0666 25.9123C54.622 28.1245 56.4773 30.9497 57.319 34.1211C60.1238 35.2574 62.5096 37.0631 64.2092 39.3003C65.9727 41.623 67 44.4086 67 47.4071C67 49.6131 66.4394 51.7085 65.438 53.5935C64.5204 55.3199 63.2297 56.8607 61.6617 58.1367C61.8931 58.9562 62.1864 59.7526 62.5355 60.5157C62.9803 61.4894 63.5229 62.4235 64.1533 63.2992C64.4905 63.7683 64.3987 64.4355 63.9499 64.7879C63.7025 64.9818 63.3973 65.0402 63.116 64.9735C61.6438 64.6274 60.2234 64.1124 58.8829 63.4493C57.69 62.8593 56.5549 62.1441 55.4916 61.3226C54.7515 61.5332 53.9855 61.7 53.1995 61.8209L53.1656 61.8251C52.234 61.9669 51.2804 62.0398 50.3169 62.0398C48.4058 62.0398 46.5586 61.7542 44.8332 61.2288C43.0418 60.6825 41.392 59.8798 39.9457 58.8727C39.4769 58.5474 39.3473 57.8864 39.6585 57.3965C39.9697 56.9065 40.6021 56.771 41.0708 57.0963C42.3555 57.9907 43.8178 58.7038 45.3997 59.1855C46.9278 59.6504 48.5835 59.9048 50.3171 59.9048C51.1968 59.9048 52.0506 59.8402 52.8745 59.7172L52.9064 59.7109C53.7622 59.5796 54.5981 59.3836 55.406 59.1292C55.7132 59.0375 56.0583 59.0917 56.3276 59.3127C57.3849 60.178 58.5359 60.9203 59.7548 61.5249C60.1677 61.7292 60.5906 61.919 61.0175 62.092L60.7023 61.4373C60.1917 60.3197 59.7907 59.1605 59.5074 57.9782C59.4117 57.5654 59.5553 57.113 59.9064 56.8523C61.4943 55.6764 62.785 54.2127 63.6628 52.5634C64.4946 50.9975 64.9595 49.2524 64.9595 47.4113C64.9595 44.9114 64.0977 42.5824 62.6155 40.6309C61.3827 39.0066 59.7209 37.643 57.768 36.6527C57.8079 37.0968 57.8278 37.5451 57.8278 37.9996C57.8278 42.7305 55.6255 47.0005 52.0688 50.0825C48.5638 53.1162 43.7364 54.9927 38.412 54.9927C37.2729 54.9927 36.1459 54.9051 35.0487 54.7383C34.1011 54.5924 33.1815 54.3901 32.2998 54.1357C31.043 55.1178 29.6925 55.9664 28.2781 56.669C26.7341 57.4342 25.1003 58.0285 23.4066 58.433C23.1074 58.5226 22.7742 58.4705 22.5069 58.2599C22.0581 57.9055 21.9683 57.2362 22.3075 56.767C23.0515 55.7349 23.6939 54.6299 24.2205 53.4727C24.6554 52.5282 25.0145 51.5419 25.2958 50.5286C23.4286 49.0316 21.8945 47.2135 20.8114 45.1744C19.6504 42.9914 19 40.5603 19 38.0017C19 36.8633 19.1337 35.7373 19.385 34.6385C19.6404 33.5231 20.0214 32.4471 20.5121 31.4234L20.5057 31.4171ZM28.5572 33.8733C27.9926 33.8733 27.5358 33.3958 27.5358 32.8057C27.5358 32.2157 27.9926 31.7382 28.5572 31.7382H43.4248C43.9893 31.7382 44.4461 32.2157 44.4461 32.8057C44.4461 33.3958 43.9893 33.8733 43.4248 33.8733H28.5572ZM33.3967 44.2401C32.8322 44.2401 32.3754 43.7626 32.3754 43.1725C32.3754 42.5825 32.8322 42.105 33.3967 42.105H48.2664C48.831 42.105 49.2878 42.5825 49.2878 43.1725C49.2878 43.7626 48.8309 44.2401 48.2664 44.2401H33.3967ZM28.5572 39.0567C27.9926 39.0567 27.5358 38.5793 27.5358 37.9892C27.5358 37.3991 27.9926 36.9217 28.5572 36.9217H48.2645C48.8291 36.9217 49.2859 37.3991 49.2859 37.9892C49.2859 38.5793 48.8291 39.0567 48.2645 39.0567H28.5572ZM47.8197 33.8734C47.2552 33.8734 46.7984 33.3959 46.7984 32.8058C46.7984 32.2158 47.2552 31.7383 47.8197 31.7383H48.2646C48.8292 31.7383 49.286 32.2158 49.286 32.8058C49.286 33.3959 48.8291 33.8734 48.2646 33.8734H47.8197ZM23.4585 27.1511C23.8514 26.732 24.4978 26.7279 24.8987 27.1386C25.2997 27.5494 25.3037 28.2249 24.9107 28.644L24.799 28.7628C24.406 29.1819 23.7597 29.1861 23.3587 28.7754C22.9577 28.3646 22.9538 27.689 23.3467 27.27L23.4585 27.1511Z" fill="#703391" stroke="#703391"/>
</svg>
