<svg width="56" height="58" viewBox="0 0 56 58" fill="none" xmlns="http://www.w3.org/2000/svg">
<path d="M34.8959 35.5885H21.0989C16.1091 35.5885 12.9108 30.4122 15.2141 26.0947L23.8635 9.88216V6.76494C23.8635 6.31002 24.2404 5.94141 24.7056 5.94141H31.2893C31.7544 5.94141 32.1314 6.31002 32.1314 6.76494V9.88216L40.7807 26.0946V26.0947C43.0888 30.4211 39.8754 35.5885 34.8959 35.5885ZM25.5477 7.58847C25.5179 10.097 25.6188 10.1525 25.4521 10.465L16.7072 26.8564C14.9851 30.0848 17.3822 33.9414 21.0989 33.9414H34.896C38.6193 33.9414 41.0066 30.079 39.2875 26.8565C30.0763 9.51882 30.4471 10.467 30.4471 10.0841V7.58847H25.5477Z" fill="#703391" stroke="#703391" stroke-width="0.5"/>
<path d="M31.5093 7.58824H24.4919C22.6346 7.58824 21.1235 6.11049 21.1235 4.29412C21.1235 2.47774 22.6346 1 24.4919 1H31.5093C33.3666 1 34.8776 2.47774 34.8776 4.29412C34.8776 6.11049 33.3666 7.58824 31.5093 7.58824ZM24.4919 2.64706C23.5632 2.64706 22.8077 3.38593 22.8077 4.29412C22.8077 5.20231 23.5632 5.94118 24.4919 5.94118H31.5093C32.4379 5.94118 33.1935 5.20231 33.1935 4.29412C33.1935 3.38593 32.4379 2.64706 31.5093 2.64706H24.4919Z" fill="#703391" stroke="#703391" stroke-width="0.5"/>
<path d="M33.5531 31.7246H22.4536C19.8371 31.7246 18.1552 29.005 19.3747 26.738L22.8839 20.2154C23.0622 19.8842 23.4463 19.7123 23.819 19.7966C24.4041 19.9289 25.0363 19.9906 25.8087 19.9906C28.7448 19.9906 28.9202 19.0282 31.8907 18.9262C32.2158 18.9165 32.5151 19.0858 32.6655 19.3657L36.632 26.7382C37.852 29.0055 36.1691 31.7246 33.5531 31.7246ZM24.0841 21.5217L20.8652 27.5048C20.2356 28.6748 21.104 30.0775 22.4535 30.0775H33.553C34.9048 30.0775 35.7699 28.6729 35.1413 27.5048L31.428 20.6029C29.2643 20.7891 28.8713 21.6376 25.8084 21.6376C25.1718 21.6376 24.6099 21.6002 24.0841 21.5217Z" fill="#703391" stroke="#703391" stroke-width="0.5"/>
<path d="M25.4026 26.5299C24.9298 26.5299 24.5605 26.1513 24.5605 25.7063C24.5605 25.2695 24.9208 24.8828 25.4026 24.8828C25.8668 24.8828 26.2447 25.2508 26.2447 25.7063C26.2447 26.1588 25.8692 26.5299 25.4026 26.5299Z" fill="#703391" stroke="#703391" stroke-width="0.5"/>
<path d="M29.6121 28.1783C29.1577 28.1783 28.77 27.8193 28.77 27.3548C28.77 26.9021 29.1478 26.5314 29.6121 26.5313C30.0751 26.5311 30.4542 26.8999 30.4542 27.3548C30.4542 27.8011 30.0848 28.1783 29.6121 28.1783Z" fill="#703391" stroke="#703391" stroke-width="0.5"/>
<path d="M15.7892 56.9994H7.50309C5.57145 56.9994 4 55.4626 4 53.5735V48.7641C4 48.3092 4.37692 47.9406 4.84209 47.9406H6.10522V45.47C6.10522 45.0151 6.48214 44.6465 6.94731 44.6465H17.4734C17.9386 44.6465 18.3155 45.0151 18.3155 45.47V54.5288C18.3155 55.8911 17.1822 56.9994 15.7892 56.9994ZM15.7892 55.3524C16.2536 55.3524 16.6313 54.983 16.6313 54.5288V46.2935H7.7894V47.9406H14.1051C14.5702 47.9406 14.9471 48.3092 14.9471 48.7641V54.5288C14.9471 54.983 15.3249 55.3524 15.7892 55.3524ZM5.68418 49.5877V53.5735C5.68418 54.5544 6.50022 55.3524 7.50309 55.3524H13.4072C13.1554 54.6576 13.3087 54.5389 13.263 49.5877H5.68418Z" fill="#703391" stroke="#703391" stroke-width="0.5"/>
<path d="M32.6281 56.9994H24.342C22.4103 56.9994 20.8389 55.4626 20.8389 53.5735V48.7641C20.8389 48.3092 21.2158 47.9406 21.681 47.9406H22.9441V45.47C22.9441 45.0151 23.321 44.6465 23.7862 44.6465H34.3123C34.7774 44.6465 35.1544 45.0151 35.1544 45.47V54.5288C35.1544 55.8911 34.021 56.9994 32.6281 56.9994ZM32.6281 55.3524C33.0925 55.3524 33.4702 54.983 33.4702 54.5288V46.2935H24.6283V47.9406H30.9439C31.4091 47.9406 31.786 48.3092 31.786 48.7641V54.5288C31.786 54.983 32.1637 55.3524 32.6281 55.3524ZM22.523 49.5877V53.5735C22.523 54.5544 23.3391 55.3524 24.342 55.3524H30.2461C29.9943 54.6576 30.1475 54.5389 30.1018 49.5877H22.523Z" fill="#703391" stroke="#703391" stroke-width="0.5"/>
<path d="M49.4748 56.9994H41.1886C39.257 56.9994 37.6855 55.4626 37.6855 53.5735V48.7641C37.6855 48.3092 38.0625 47.9406 38.5276 47.9406H39.7908V45.47C39.7908 45.0151 40.1677 44.6465 40.6329 44.6465H51.159C51.6241 44.6465 52.001 45.0151 52.001 45.47V54.5288C52.001 55.8911 50.8677 56.9994 49.4748 56.9994ZM49.4748 55.3524C49.9392 55.3524 50.3169 54.983 50.3169 54.5288V46.2935H41.4749V47.9406H47.7906C48.2558 47.9406 48.6327 48.3092 48.6327 48.7641V54.5288C48.6327 54.983 49.0104 55.3524 49.4748 55.3524ZM39.3697 49.5877V53.5735C39.3697 54.5544 40.1858 55.3524 41.1886 55.3524H47.0928C46.841 54.6576 46.9942 54.5389 46.9485 49.5877H39.3697Z" fill="#703391" stroke="#703391" stroke-width="0.5"/>
<path d="M45.6843 46.2933C45.2191 46.2933 44.8422 45.9247 44.8422 45.4698V41.3521H12.8429V45.4698C12.8429 45.9247 12.4659 46.2933 12.0008 46.2933C11.5356 46.2933 11.1587 45.9247 11.1587 45.4698V40.5286C11.1587 40.0737 11.5356 39.7051 12.0008 39.7051H45.6843C46.1495 39.7051 46.5264 40.0737 46.5264 40.5286V45.4698C46.5264 45.9247 46.1495 46.2933 45.6843 46.2933Z" fill="#703391" stroke="#703391" stroke-width="0.5"/>
<path d="M27.9974 46.2943C27.5322 46.2943 27.1553 45.9257 27.1553 45.4708V34.7649C27.1553 34.31 27.5322 33.9414 27.9974 33.9414C28.4625 33.9414 28.8394 34.31 28.8394 34.7649V45.4708C28.8394 45.9257 28.4625 46.2943 27.9974 46.2943Z" fill="#703391" stroke="#703391" stroke-width="0.5"/>
</svg>
