<svg width="86" height="86" viewBox="0 0 86 86" fill="none" xmlns="http://www.w3.org/2000/svg">
<circle cx="43" cy="43" r="43" fill="#703391" fill-opacity="0.1"/>
<path d="M23.0753 62C21.9586 62 20.9413 61.5444 20.2041 60.8139C19.463 60.0773 19 59.0598 19 57.9399V28.0601C19 26.9402 19.461 25.9227 20.2021 25.1861C20.9393 24.4536 21.9586 24 23.0733 24H62.9247C64.0414 24 65.0587 24.4556 65.7959 25.1861C66.537 25.9227 67 26.9402 67 28.0601V57.9399C67 59.0598 66.539 60.0773 65.7959 60.8139C65.0587 61.5464 64.0414 62 62.9247 62H23.0733H23.0753ZM52.9796 57.0668C52.4173 57.0668 51.9622 56.6072 51.9622 56.0393C51.9622 55.4713 52.4173 55.0117 52.9796 55.0117H60.5303C61.0926 55.0117 61.5477 55.4713 61.5477 56.0393C61.5477 56.6073 61.0926 57.0668 60.5303 57.0668H52.9796ZM52.9796 53.2556C52.4173 53.2556 51.9622 52.796 51.9622 52.228C51.9622 51.66 52.4173 51.2004 52.9796 51.2004H60.5303C61.0926 51.2004 61.5477 51.66 61.5477 52.228C61.5477 52.796 61.0926 53.2556 60.5303 53.2556H52.9796ZM49.7627 57.0668C49.2003 57.0668 48.7453 56.6072 48.7453 56.0393C48.7453 55.4713 49.2003 55.0117 49.7627 55.0117H49.9514C50.5138 55.0117 50.9688 55.4713 50.9688 56.0393C50.9688 56.6073 50.5137 57.0668 49.9514 57.0668H49.7627ZM49.7627 53.2556C49.2003 53.2556 48.7453 52.796 48.7453 52.228C48.7453 51.66 49.2003 51.2004 49.7627 51.2004H49.9514C50.5138 51.2004 50.9688 51.66 50.9688 52.228C50.9688 52.796 50.5137 53.2556 49.9514 53.2556H49.7627ZM52.9796 49.4443C52.4173 49.4443 51.9622 48.9847 51.9622 48.4167C51.9622 47.8488 52.4173 47.3892 52.9796 47.3892H60.5303C61.0926 47.3892 61.5477 47.8488 61.5477 48.4167C61.5477 48.9847 61.0926 49.4443 60.5303 49.4443H52.9796ZM49.7627 49.4463C49.2003 49.4463 48.7453 48.9867 48.7453 48.4187C48.7453 47.8508 49.2003 47.3912 49.7627 47.3912H49.9514C50.5138 47.3912 50.9688 47.8508 50.9688 48.4187C50.9688 48.9867 50.5137 49.4463 49.9514 49.4463H49.7627ZM49.7627 44.6697C49.2003 44.6697 48.7453 44.2101 48.7453 43.6421C48.7453 43.0741 49.2003 42.6146 49.7627 42.6146H60.8563C61.4186 42.6146 61.8736 43.0742 61.8736 43.6421C61.8736 44.2101 61.4186 44.6697 60.8563 44.6697H49.7627ZM49.7627 41.2398C49.2003 41.2398 48.7453 40.7802 48.7453 40.2122C48.7453 39.6442 49.2003 39.1846 49.7627 39.1846H60.8563C61.4186 39.1846 61.8736 39.6442 61.8736 40.2122C61.8736 40.7802 61.4186 41.2398 60.8563 41.2398H49.7627ZM56.3871 35.7546C56.9494 35.7546 57.4044 36.2142 57.4044 36.7822C57.4044 37.3502 56.9494 37.8097 56.3871 37.8097H49.7627C49.2003 37.8097 48.7453 37.3501 48.7453 36.7822C48.7453 36.2142 49.2003 35.7546 49.7627 35.7546H56.3871ZM35.321 35.1023C38.4127 35.1023 41.2124 36.3687 43.2369 38.4138C45.2637 40.461 46.5155 43.2888 46.5155 46.4094C46.5155 49.5322 45.2617 52.36 43.2369 54.4049C41.2102 56.452 38.4125 57.7164 35.321 57.7164C32.2295 57.7164 29.4295 56.45 27.405 54.4049C25.3783 52.3578 24.1265 49.532 24.1265 46.4094C24.1265 43.2868 25.3803 40.4587 27.405 38.4138C29.4318 36.3667 32.2315 35.1023 35.321 35.1023ZM41.7984 39.8669C40.1412 38.1931 37.8502 37.1575 35.321 37.1575C32.7917 37.1575 30.5005 38.1931 28.8436 39.8669C27.1864 41.5407 26.1611 43.8547 26.1611 46.4094C26.1611 48.9641 27.1864 51.2784 28.8436 52.952C30.5007 54.6258 32.7917 55.6614 35.321 55.6614C37.8502 55.6614 40.1414 54.6258 41.7984 52.952C43.4555 51.2782 44.4808 48.9641 44.4808 46.4094C44.4808 43.8547 43.4555 41.5405 41.7984 39.8669ZM35.2314 42.777C35.3765 42.2311 35.9329 41.906 36.4753 42.0505C37.0158 42.197 37.3377 42.7589 37.1946 43.3068L35.4083 50.0462C35.2633 50.5921 34.7069 50.9172 34.1645 50.7727C33.624 50.6262 33.3021 50.0642 33.4451 49.5163L35.2314 42.777ZM37.6576 44.9526C37.2602 44.5512 37.2602 43.9009 37.6576 43.4996C38.055 43.0982 38.6988 43.0982 39.0961 43.4996L41.26 45.6851C41.6574 46.0865 41.6574 46.7368 41.26 47.1382L39.0961 49.3198C38.7007 49.7212 38.0589 49.7232 37.6615 49.3238C37.2641 48.9244 37.2621 48.2761 37.6575 47.8748L39.1041 46.4137L37.6576 44.9526ZM31.5494 43.4996C31.9468 43.1002 32.5886 43.1022 32.984 43.5036C33.3794 43.905 33.3775 44.5532 32.9801 44.9526L31.5375 46.4096L32.9841 47.8707C33.3815 48.2721 33.3815 48.9224 32.9841 49.3238C32.5867 49.7252 31.9429 49.7252 31.5455 49.3238L29.3817 47.1382C28.9863 46.7328 28.9882 46.0845 29.3856 45.6852L31.5494 43.4996ZM51.5865 29.28C51.0242 29.28 50.5692 28.8204 50.5692 28.2525C50.5692 27.6845 51.0242 27.2249 51.5865 27.2249H59.4353C59.9976 27.2249 60.4526 27.6845 60.4526 28.2525C60.4526 28.8204 59.9976 29.28 59.4353 29.28H51.5865ZM35.1244 29.282C34.562 29.282 34.107 28.8224 34.107 28.2545C34.107 27.6865 34.562 27.2269 35.1244 27.2269H35.1462C35.7086 27.2269 36.1636 27.6865 36.1636 28.2545C36.1636 28.8225 35.7085 29.282 35.1462 29.282H35.1244ZM30.8444 29.282C30.282 29.282 29.827 28.8224 29.827 28.2545C29.827 27.6865 30.282 27.2269 30.8444 27.2269H30.8662C31.4286 27.2269 31.8836 27.6865 31.8836 28.2545C31.8836 28.8225 31.4285 29.282 30.8662 29.282H30.8444ZM26.5643 29.282C26.002 29.282 25.547 28.8224 25.547 28.2545C25.547 27.6865 26.002 27.2269 26.5643 27.2269H26.5862C27.1485 27.2269 27.6035 27.6865 27.6035 28.2545C27.6035 28.8225 27.1485 29.282 26.5862 29.282H26.5643ZM21.0325 30.2012H42.7701C42.9668 30.2012 43.1496 30.2574 43.3066 30.3558L47.4753 32.4611H64.965V28.0598C64.965 27.5099 64.7365 27.0082 64.3728 26.6469C64.0032 26.2816 63.4906 26.0529 62.9243 26.0529H23.0729C22.5066 26.0529 21.992 26.2797 21.6244 26.6469C21.2608 27.0082 21.0322 27.5099 21.0322 28.0598L21.0325 30.2012ZM64.965 34.5162H47.2449C47.0919 34.5122 46.9369 34.4781 46.7919 34.4038L42.5397 32.2564H21.0325V57.9395C21.0325 58.4894 21.2591 58.9891 21.6247 59.3524C21.9943 59.7177 22.5069 59.9464 23.0732 59.9464H62.9246C63.4909 59.9464 64.0035 59.7196 64.3731 59.3524C64.7387 58.9891 64.9653 58.4894 64.9653 57.9395V34.5139L64.965 34.5162Z" fill="#703391"/>
</svg>
