<svg width="58" height="58" viewBox="0 0 58 58" fill="none" xmlns="http://www.w3.org/2000/svg">
<path d="M53.8889 1H4.11111C2.4 1 1 2.4 1 4.11111V53.8889C1 55.6 2.4 57 4.11111 57H53.8889C55.6 57 57 55.6 57 53.8889V4.11111C57 2.4 55.6 1 53.8889 1ZM4.11111 3.07407H53.8889C54.4593 3.07407 54.9259 3.54074 54.9259 4.11111V7.26518C54.9259 8.36975 54.0305 9.26519 52.9259 9.26519H5.07408C3.96951 9.26519 3.07407 8.36975 3.07407 7.26519V4.11111C3.07407 3.54074 3.54074 3.07407 4.11111 3.07407ZM53.8889 54.9259H4.11111C3.54074 54.9259 3.07407 54.4593 3.07407 53.8889V13.3393C3.07407 12.2347 3.9695 11.3393 5.07407 11.3393H52.9259C54.0305 11.3393 54.9259 12.2347 54.9259 13.3393V53.8889C54.9259 54.4593 54.4593 54.9259 53.8889 54.9259ZM5.14815 6.15407C5.14815 5.5837 5.61481 5.11704 6.18518 5.11704C6.75556 5.11704 7.22222 5.5837 7.22222 6.15407C7.22222 6.72444 6.75556 7.19111 6.18518 7.19111C5.61481 7.19111 5.14815 6.72444 5.14815 6.15407ZM9.2963 6.15407C9.2963 5.5837 9.76296 5.11704 10.3333 5.11704C10.9037 5.11704 11.3704 5.5837 11.3704 6.15407C11.3704 6.72444 10.9037 7.19111 10.3333 7.19111C9.76296 7.19111 9.2963 6.72444 9.2963 6.15407ZM13.4444 6.15407C13.4444 5.5837 13.9111 5.11704 14.4815 5.11704C15.0519 5.11704 15.5185 5.5837 15.5185 6.15407C15.5185 6.72444 15.0519 7.19111 14.4815 7.19111C13.9111 7.19111 13.4444 6.72444 13.4444 6.15407ZM37.6681 30.9585C37.669 30.9594 37.6704 30.9595 37.6715 30.9589C39.7235 29.6933 40.6768 27.1119 39.8163 24.7585C39.3393 23.4622 38.3852 22.4252 37.1304 21.8444C36.7045 21.6457 36.2592 21.5096 35.8062 21.4351C34.8661 21.2804 33.9377 20.7864 33.6082 19.8924L33.2 18.7852C32.9718 18.163 32.4533 17.6859 31.8104 17.4993C31.1674 17.323 30.4726 17.4578 29.9541 17.8726L21.2166 24.8566C21.0486 24.9908 20.8601 25.0971 20.6583 25.1713L16.2548 26.7911C14.6993 27.3615 13.4548 28.5126 12.7496 30.0163C12.0444 31.52 11.9822 33.2104 12.5526 34.7763C13.4756 37.2963 15.8607 38.8519 18.4015 38.8519C19.0572 38.8519 19.6979 39.1904 19.9238 39.806L22.7778 47.5837C23.0681 48.3615 23.6385 48.9837 24.3956 49.3363C24.8104 49.5333 25.2563 49.6267 25.7022 49.6267C26.0652 49.6267 26.4281 49.5644 26.7807 49.4296C27.5585 49.1393 28.1807 48.5689 28.5333 47.8119C28.8859 47.0548 28.917 46.2148 28.6267 45.437L26.3807 39.3316C25.9093 38.05 26.8324 36.6833 28.1974 36.6421L36.7467 36.3837C37.4104 36.363 38.0326 36.0207 38.4059 35.4711C38.7793 34.9215 38.8622 34.2163 38.6341 33.5941L37.6636 30.9614C37.6626 30.9586 37.666 30.9564 37.6681 30.9585ZM36.2489 23.7215C37.0059 24.0741 37.5763 24.6963 37.8667 25.4741C37.9834 25.7905 38.0443 26.1135 38.0546 26.4327C38.0993 27.8143 36.4226 27.5631 35.9467 26.2652L35.3854 24.7349C35.1552 24.107 35.6421 23.4403 36.2489 23.7215ZM14.5022 34.0556C14.5022 34.0566 14.5008 34.0569 14.5004 34.0559C14.1187 33.0202 14.1711 31.8918 14.6267 30.8874C15.0933 29.8815 15.923 29.1141 16.96 28.7304L18.9711 27.9903C20.0081 27.6087 21.1579 28.1402 21.5391 29.1773L23.0215 33.211C23.4024 34.2474 22.8713 35.3965 21.835 35.7778L19.8222 36.5185C17.6772 37.3061 15.294 36.1987 14.504 34.0553C14.5037 34.0543 14.5022 34.0545 14.5022 34.0556ZM26.6459 46.9511C26.5319 47.2 26.3244 47.397 26.0652 47.4904C25.8059 47.5837 25.5259 47.5733 25.2667 47.4593C25.0178 47.3452 24.8207 47.1378 24.7274 46.8785L21.985 39.4032C21.7238 38.6913 22.0876 37.9023 22.7985 37.6385C23.1658 37.5065 23.5707 37.6957 23.7051 38.0621L26.677 46.163C26.7704 46.4222 26.76 46.7022 26.6459 46.9511ZM35.7292 31.7162C36.1992 32.9975 35.2764 34.3628 33.9123 34.4042L27.195 34.6081C26.3345 34.6342 25.5538 34.1068 25.257 33.2987L23.1919 27.6775C22.895 26.8695 23.1485 25.9621 23.8212 25.425L29.0743 21.2301C30.1403 20.3789 31.7269 20.8212 32.1988 22.1011L32.5363 23.0163L35.3985 30.7941C35.3985 30.7941 35.3985 30.7941 35.3985 30.8044V30.8148L35.7292 31.7162ZM41.74 24.0533C41.7425 24.0533 41.7443 24.0508 41.7434 24.0485C41.5498 23.5105 41.8194 22.9224 42.357 22.7259L44.3067 22.0104C44.8459 21.8133 45.437 22.0933 45.6341 22.6222C45.8311 23.1615 45.5615 23.7526 45.0222 23.9496L43.0726 24.6652C42.9585 24.7067 42.8341 24.7274 42.7096 24.7274C42.2861 24.7274 41.8935 24.4702 41.7367 24.0582C41.7358 24.0559 41.7375 24.0533 41.74 24.0533ZM38.3748 18.9304L39.4533 17.157C39.7541 16.6696 40.3867 16.5141 40.8741 16.8148C41.3615 17.1156 41.517 17.7481 41.2163 18.2459L40.1378 20.0193C39.9407 20.3407 39.5985 20.517 39.2563 20.517C39.0696 20.517 38.883 20.4652 38.717 20.3615C38.2296 20.0607 38.0741 19.4281 38.3748 18.9304ZM45.7689 30.12C45.6237 30.5556 45.2193 30.8356 44.7837 30.8356C44.68 30.8356 44.5659 30.8148 44.4622 30.7837L42.4918 30.1407C41.9526 29.9644 41.6519 29.3733 41.8281 28.8341C42.0044 28.2948 42.5852 27.9941 43.1348 28.1704L45.1052 28.8133C45.6444 28.9896 45.9452 29.5807 45.7689 30.12ZM6.18518 15.5185C6.18518 14.9481 6.65185 14.4815 7.22222 14.4815H17.5926C18.163 14.4815 18.6296 14.9481 18.6296 15.5185C18.6296 16.0889 18.163 16.5556 17.5926 16.5556H7.22222C6.65185 16.5556 6.18518 16.0889 6.18518 15.5185ZM12.4074 21.7407H7.22222C6.65185 21.7407 6.18518 21.2741 6.18518 20.7037C6.18518 20.1333 6.65185 19.6667 7.22222 19.6667H12.4074C12.9778 19.6667 13.4444 20.1333 13.4444 20.7037C13.4444 21.2741 12.9778 21.7407 12.4074 21.7407ZM51.8148 50.7778C51.8148 51.3481 51.3481 51.8148 50.7778 51.8148H40.4074C39.837 51.8148 39.3704 51.3481 39.3704 50.7778C39.3704 50.2074 39.837 49.7407 40.4074 49.7407H50.7778C51.3481 49.7407 51.8148 50.2074 51.8148 50.7778ZM51.8148 45.5926C51.8148 46.163 51.3481 46.6296 50.7778 46.6296H45.5926C45.0222 46.6296 44.5556 46.163 44.5556 45.5926C44.5556 45.0222 45.0222 44.5556 45.5926 44.5556H50.7778C51.3481 44.5556 51.8148 45.0222 51.8148 45.5926Z" fill="#703391" stroke="#703391" stroke-width="0.7"/>
</svg>
