<svg width="86" height="86" viewBox="0 0 86 86" fill="none" xmlns="http://www.w3.org/2000/svg">
<circle cx="43" cy="43" r="43" fill="#703391" fill-opacity="0.1"/>
<path d="M43.0001 38.4952C40.576 38.4952 38.2856 38.0169 36.5481 37.1516C34.6346 36.1973 33.582 34.8649 33.582 33.399C33.582 31.9331 34.6347 30.6006 36.5481 29.6463C38.2832 28.781 40.5758 28.3027 43.0001 28.3027C45.4245 28.3027 47.7147 28.781 49.4521 29.6463C51.3657 30.6006 52.4205 31.9331 52.4205 33.399C52.4205 34.8649 51.3678 36.1974 49.4521 37.1516C47.7148 38.0191 45.4245 38.4952 43.0001 38.4952ZM43.0001 29.8997C40.8191 29.8997 38.7829 30.3179 37.2641 31.0742C35.9416 31.7349 35.1811 32.5824 35.1811 33.401C35.1811 34.2196 35.9394 35.0671 37.2641 35.7278C38.7829 36.4841 40.819 36.9023 43.0001 36.9023C45.1813 36.9023 47.2174 36.4841 48.7362 35.7278C50.0587 35.0671 50.8192 34.2196 50.8192 33.401C50.8192 32.5824 50.0609 31.7349 48.7362 31.0742C47.2174 30.3179 45.1813 29.8997 43.0001 29.8997Z" fill="#703391" stroke="#703391" stroke-width="0.5"/>
<path d="M42.9997 43.2249C39.9265 43.2249 37.0541 42.4419 35.3191 41.1294C34.1839 40.2708 33.584 39.2342 33.584 38.1309V38.1286C33.584 37.6882 33.9408 37.3301 34.3824 37.3301C34.8239 37.3301 35.1807 37.6882 35.1807 38.1286C35.1807 38.8694 35.7807 39.4767 36.2825 39.8571C37.7499 40.9671 40.2611 41.63 42.9976 41.63C45.7341 41.63 48.2452 40.9671 49.7128 39.8571C50.2169 39.4767 50.8146 38.8694 50.8146 38.1286H50.819C50.819 37.6882 51.1758 37.3301 51.6174 37.3301C52.0589 37.3301 52.4158 37.6882 52.4158 38.1286C52.4158 39.232 51.8158 40.2708 50.6807 41.1272C48.9456 42.4396 46.0728 43.2249 42.9997 43.2249Z" fill="#703391" stroke="#703391" stroke-width="0.5"/>
<path d="M42.9997 47.9512C39.9265 47.9512 37.0541 47.1681 35.3191 45.8557C34.1839 44.9971 33.584 43.9605 33.584 42.8572V42.8549C33.584 42.4145 33.9408 42.0586 34.3824 42.0586C34.8239 42.0586 35.1807 42.4145 35.1807 42.8549C35.1807 43.5957 35.7807 44.203 36.2825 44.5834C37.7521 45.6934 40.2633 46.3563 42.9999 46.3563C45.7365 46.3563 48.2475 45.6934 49.7151 44.5834C50.2191 44.203 50.8168 43.5957 50.8168 42.8549H50.8191C50.8191 42.4145 51.1759 42.0586 51.6174 42.0586C52.059 42.0586 52.4158 42.4145 52.4158 42.8549C52.4158 43.9583 51.8159 44.9971 50.6807 45.8535C48.9456 47.1681 46.0728 47.9512 42.9997 47.9512Z" fill="#703391" stroke="#703391" stroke-width="0.5"/>
<path d="M42.9997 52.6777C39.9265 52.6777 37.0541 51.8947 35.3191 50.5823C34.1839 49.7236 33.584 48.687 33.584 47.5837C33.584 47.1433 33.9408 46.7852 34.3824 46.7852C34.8239 46.7852 35.1807 47.1433 35.1807 47.5837C35.1807 48.3245 35.7807 48.9317 36.2825 49.3121C37.7499 50.4221 40.2611 51.085 42.9976 51.085C45.7341 51.085 48.2452 50.4221 49.7128 49.3121C50.2169 48.9318 50.8146 48.3245 50.8146 47.5837H50.819C50.819 47.1433 51.1758 46.7852 51.6174 46.7852C52.0589 46.7852 52.4158 47.1433 52.4158 47.5837C52.4158 48.687 51.8158 49.7259 50.6807 50.5823C48.9456 51.8947 46.0728 52.6777 42.9997 52.6777Z" fill="#703391" stroke="#703391" stroke-width="0.5"/>
<path d="M51.6167 48.3795C51.1752 48.3795 50.8184 48.0213 50.8184 47.5831V33.4001C50.8184 32.9597 51.1752 32.6016 51.6167 32.6016C52.0583 32.6016 52.4151 32.9597 52.4151 33.4001V47.5831C52.4151 47.7945 52.3326 47.9969 52.1809 48.1459C52.0315 48.295 51.8286 48.3795 51.6167 48.3795Z" fill="#703391" stroke="#703391" stroke-width="0.5"/>
<path d="M34.3824 48.3795C33.9408 48.3795 33.584 48.0213 33.584 47.5831V33.4001C33.584 32.9597 33.9408 32.6016 34.3824 32.6016C34.8239 32.6016 35.1807 32.9597 35.1807 33.4001V47.5831C35.1807 47.7945 35.0982 47.9969 34.9466 48.1459C34.7972 48.295 34.5942 48.3795 34.3824 48.3795Z" fill="#703391" stroke="#703391" stroke-width="0.5"/>
<path d="M43.6722 40.8586H42.3296C41.8881 40.8586 41.5312 40.5004 41.5312 40.0622C41.5312 39.6218 41.8881 39.2637 42.3296 39.2637H43.6722C44.1138 39.2637 44.4706 39.6218 44.4706 40.0622C44.4706 40.5004 44.1138 40.8586 43.6722 40.8586Z" fill="#703391" stroke="#703391" stroke-width="0.5"/>
<path d="M43.6722 45.5871H42.3296C41.8881 45.5871 41.5312 45.2312 41.5312 44.7907C41.5312 44.3503 41.8881 43.9922 42.3296 43.9922H43.6722C44.1138 43.9922 44.4706 44.3503 44.4706 44.7907C44.4706 45.2312 44.1138 45.5871 43.6722 45.5871Z" fill="#703391" stroke="#703391" stroke-width="0.5"/>
<path d="M43.6722 50.3136H42.3296C41.8881 50.3136 41.5312 49.9577 41.5312 49.5173C41.5312 49.0769 41.8881 48.7188 42.3296 48.7188H43.6722C44.1138 48.7188 44.4706 49.0769 44.4706 49.5173C44.4706 49.9578 44.1138 50.3136 43.6722 50.3136Z" fill="#703391" stroke="#703391" stroke-width="0.5"/>
<path d="M43 68C42.8707 68 42.7436 67.9689 42.6276 67.9088C36.7065 64.8012 31.7464 60.1408 28.2877 54.4262C24.8287 48.7139 23 42.1674 23 35.4916V23.5284C23 23.2325 23.165 22.9611 23.4282 22.8232C35.6808 16.3923 50.3198 16.3923 62.5718 22.8232C62.835 22.9611 63 23.2325 63 23.5284V35.4916C63 42.1674 61.1713 48.7139 57.7123 54.4262C54.2533 60.1408 49.2935 64.8012 43.3724 67.9088C43.2564 67.9689 43.1294 68 43 68ZM24.5992 24.0136V35.4917C24.5992 48.4025 31.6375 60.1676 43 66.3007C54.3602 60.1676 61.4009 48.4025 61.4009 35.4917V24.0136C49.8443 18.1231 36.1552 18.1231 24.5986 24.0136H24.5992Z" fill="#703391" stroke="#703391" stroke-width="0.5"/>
<path d="M43.0014 64.3471C42.8564 64.3471 42.7159 64.307 42.5933 64.2336C32.428 58.2076 26.1992 47.2853 26.1992 35.4912V25.508C26.1992 25.1988 26.3799 24.9162 26.6631 24.785C37.0242 19.9935 48.9782 19.9935 59.3393 24.785C59.6225 24.9163 59.8032 25.1988 59.8032 25.508V35.4912C59.8032 47.2853 53.5744 58.2076 43.4091 64.2359C43.2865 64.3093 43.1441 64.3471 43.0014 64.3471ZM27.7983 26.0217V35.4913C27.7983 46.5537 33.5543 56.8239 43.0014 62.6188C52.4484 56.8239 58.2045 46.5537 58.2045 35.4913V26.0217C48.5302 21.7063 37.4731 21.7063 27.7983 26.0217Z" fill="#703391" stroke="#703391" stroke-width="0.5"/>
</svg>
