<svg width="86" height="86" viewBox="0 0 86 86" fill="none" xmlns="http://www.w3.org/2000/svg">
<circle cx="43" cy="43" r="43" fill="#703391" fill-opacity="0.1"/>
<path fill-rule="evenodd" clip-rule="evenodd" d="M42.9625 24.0016L43.1933 24.0022C47.001 24.0182 50.7275 25.1006 53.816 27.2661L53.9855 27.3848C55.2932 28.3119 56.4979 29.3533 57.4862 30.5942L57.7227 30.8755C59.4175 32.9016 59.8495 33.418 59.9596 33.9911C59.9973 34.1871 59.9973 34.3898 59.9973 34.6618L60.3474 34.6444C62.0052 34.6519 63.4842 35.3191 64.7299 36.3258L64.9215 36.4775C66.0401 37.4499 66.8741 39.064 66.9708 40.4984C66.9799 40.8374 66.9831 41.1759 66.9837 41.515L66.9857 41.8932C66.9868 42.1566 66.9872 42.42 66.9871 42.6834C66.987 43.0169 66.9897 43.3503 66.993 43.6837C66.9952 43.944 66.9955 44.2044 66.9954 44.4647C66.9956 44.5616 66.9963 44.6585 66.9972 44.7555C66.998 44.8399 66.999 44.9244 67 45.0089C66.9908 46.7769 66.3355 48.3009 65.08 49.5975L64.8264 49.8228L64.6578 49.989C63.3596 51.201 61.5842 51.6788 59.8041 51.6718C59.3805 51.6306 58.9657 51.5683 58.5486 51.4869L58.4818 51.6801C58.3267 52.0101 58.1136 52.2757 57.8785 52.5558L57.7363 52.7268C57.2605 53.2928 56.7539 53.827 56.2306 54.3527L56.0182 54.5708C53.6886 56.8954 50.5016 58.3994 47.2676 59.1591L47.0641 59.2075C46.9262 59.2381 46.7875 59.2651 46.6482 59.289C46.3161 59.3511 46.1297 59.3876 45.9177 59.6484L45.8057 59.9052C45.3428 60.8165 44.6535 61.3775 43.6748 61.7483L43.4085 61.8505C42.4156 62.1127 41.1975 62.0378 40.2944 61.5634C39.2526 60.973 38.5806 60.2166 38.2334 59.0988C37.9909 57.9247 38.1625 56.8845 38.8155 55.8607C39.4786 54.976 40.3373 54.4182 41.4602 54.2035C42.6401 54.0545 43.809 54.2822 44.7678 54.9771C45.24 55.3575 45.6327 55.754 45.8962 56.294V56.4789C48.9982 55.6739 51.5581 54.5319 53.9126 52.4113L54.0997 52.2503C55.2371 51.2297 56.1095 49.9446 56.8101 48.6211L56.9043 48.4442C58.7551 44.9256 59.0289 40.8153 57.7518 37.0769C57.4497 36.2322 57.0671 35.4426 56.6169 34.6618L56.4483 34.3631C55.8343 33.314 55.0649 32.3895 54.2023 31.5186L53.9409 31.2503C52.8117 30.1143 51.4993 29.278 50.0493 28.5604L49.8698 28.4709C46.3537 26.7415 42.139 26.4797 38.3819 27.5996C38.1495 27.6716 37.918 27.7456 37.6867 27.8208L37.4907 27.8839C35.5221 28.5332 33.7791 29.6943 32.2781 31.0564L31.9978 31.3066C29.1045 33.9415 27.5532 37.7593 27.4493 41.5468C27.4228 44.1354 28.0842 46.635 29.3334 48.9268C29.5802 49.3964 29.663 49.7888 29.513 50.3122C29.2762 50.7722 29.013 51.0131 28.5113 51.2095L28.3253 51.2865C26.5988 51.9183 24.7271 51.7231 23.048 51.077C22.1756 50.6948 21.5448 50.1986 20.8813 49.5455L20.6795 49.3483C19.6732 48.3072 19.0429 46.8924 19.0291 45.4675L19.0254 45.1278L19.022 44.574C19.02 44.2445 19.0187 43.9151 19.0177 43.5856C19.0167 43.2492 19.0134 42.9129 19.0095 42.5765C19.0085 42.4722 19.0078 42.3679 19.0072 42.2636C19.0069 42.1972 19.0066 42.1308 19.0064 42.0644C19.0061 41.9732 19.0059 41.882 19.0058 41.7908C19.0051 41.6078 19.0026 41.4247 19 41.2417C19.0046 39.3812 19.7496 37.8082 21.1043 36.4764C22.3352 35.3585 23.9206 34.6554 25.632 34.6502L26.0002 34.6618L26.0468 34.5092C26.2243 33.9618 26.4632 33.4849 26.7668 32.992L26.9076 32.7621C27.3857 31.9965 27.9271 31.288 28.5113 30.5942L28.6535 30.4242C31.7038 26.809 36.2456 24.5486 41.0587 24.0477C41.6732 23.9955 42.2907 23.9984 42.9072 24.0014H42.9074L42.9625 24.0016ZM61.1563 37.7125C61.2024 38.2169 61.2651 38.7148 61.3495 39.2147C61.7837 42.1366 61.3948 44.9906 60.4802 47.789L60.3931 48.0673C60.3637 48.1614 60.3344 48.2554 60.3052 48.3495C60.267 48.4709 60.2288 48.5922 60.1905 48.7135C61.0566 48.7872 61.8571 48.466 62.5235 47.9458C63.3005 47.262 63.8949 46.4495 63.9768 45.4153C63.9859 45.1178 63.989 44.8208 63.9896 44.5231L63.9916 44.1912C63.9926 43.96 63.993 43.7287 63.993 43.4975C63.9934 43.1461 63.9969 42.7948 64.0006 42.4435C64.0009 42.3171 64.0012 42.1908 64.0014 42.0645L64.0017 41.7671L64.0059 41.4521C63.9998 40.4305 63.6913 39.5141 62.9914 38.7294C62.4422 38.2181 61.9057 37.8788 61.1563 37.7125ZM23.085 38.6359C22.2294 39.5428 21.9952 40.5444 21.9984 41.7328L21.9969 42.0632C21.9963 42.293 21.9964 42.5227 21.9972 42.7525C21.9974 42.8088 21.9974 42.8652 21.9974 42.9216C21.9973 42.9621 21.9973 43.0025 21.9972 43.043C21.9965 43.2948 21.9944 43.5466 21.9922 43.7985C21.9921 44.0229 21.9921 44.2472 21.9924 44.4715L21.9891 44.7832C22.0004 46.0143 22.3978 46.9102 23.2876 47.7862C24.0194 48.4448 24.81 48.7319 25.807 48.7135L25.5995 48.0499C25.5261 47.8169 25.4511 47.5845 25.3758 47.3521C24.4518 44.4457 24.1646 41.3979 24.803 38.4041C24.8421 38.1696 24.8478 37.9495 24.8412 37.7125C24.2116 37.7125 23.5267 38.2421 23.085 38.6359ZM41.4534 57.3109C41.2222 57.5765 41.1675 57.7479 41.1154 58.091C41.1795 58.5278 41.3235 58.6657 41.6459 58.9743L41.6466 58.975C41.9563 59.1232 42.2765 59.1125 42.6124 59.0674C42.9408 58.8761 43.184 58.6879 43.2885 58.3278C43.2811 57.8815 43.2607 57.6793 42.9867 57.3167C42.448 56.9468 41.9968 56.9564 41.4534 57.3109Z" fill="#703391"/>
<path d="M39.7149 41.5316C39.5696 41.0708 39.3003 40.806 38.9242 40.4974C38.0694 40.1701 37.4077 40.4077 36.8416 41.0463C36.6531 41.4703 36.6694 41.8809 36.7209 42.3348C36.8921 42.7626 37.1692 42.9579 37.5901 43.1668C38.2334 43.3166 38.6301 43.2522 39.1958 42.9299C39.601 42.5318 39.7149 42.0794 39.7149 41.5316Z" fill="#703391"/>
<path d="M48.5887 40.5091C48.943 40.7884 49.0732 40.891 49.1534 41.0217C49.1999 41.0976 49.2297 41.183 49.2766 41.3178C49.3256 41.8073 49.3393 42.2104 49.1136 42.6583C48.7343 43.0508 48.4055 43.2158 47.8396 43.265C47.3562 43.2513 46.9851 43.0903 46.6327 42.7796C46.3619 42.331 46.2295 41.9165 46.3309 41.3987C46.4626 40.9809 46.7095 40.7627 47.0552 40.4858C47.5559 40.3261 48.1009 40.3061 48.5885 40.5089L48.5887 40.5091Z" fill="#703391"/>
<path d="M43.8066 40.5618C43.7321 40.5133 43.6507 40.4743 43.4817 40.3934C42.9352 40.3355 42.5396 40.3368 42.0873 40.6476C41.7473 40.9333 41.5662 41.123 41.5293 41.567C41.5215 42.1958 41.5672 42.5132 42.0329 42.9819C42.5588 43.2754 42.9937 43.2952 43.5782 43.1668C44.02 42.9842 44.2418 42.7505 44.4475 42.3348C44.517 41.8391 44.5431 41.3943 44.2905 40.9481L44.0612 40.7632C43.9391 40.6603 43.8758 40.6069 43.8066 40.5618Z" fill="#703391"/>
<path fill-rule="evenodd" clip-rule="evenodd" d="M45.8962 30.4093L46.0851 30.4544C49.1871 31.2217 51.8379 33.143 53.503 35.7585C55.1072 38.4022 55.6867 41.5942 54.9094 44.5874C54.0073 47.7214 52.0245 50.3294 49.0812 51.9859C48.1266 52.504 47.1453 52.8702 46.0894 53.1509L45.7449 53.2462C44.8392 53.4518 43.9298 53.4544 43.0048 53.457L42.9686 53.4571L42.7661 53.4582C42.0424 53.4601 41.3447 53.4381 40.6362 53.2828C40.0403 53.1869 39.6535 53.2303 39.132 53.5246L38.8017 53.7084L38.4533 53.9078C38.4047 53.935 38.3561 53.9621 38.3075 53.9893C38.2358 54.0293 38.1641 54.0692 38.0923 54.1091C37.5211 54.428 36.9548 54.7541 36.3911 55.085L36.1044 55.2518C35.9289 55.3543 35.7542 55.4582 35.5805 55.5638C35.0701 55.8626 34.6241 56.042 34.0166 56.0167C33.5102 55.8713 33.1991 55.6618 32.8576 55.2771C32.6019 54.5429 32.8006 53.8086 33.0179 53.0881L33.0966 52.8149C33.1787 52.5298 33.2625 52.2452 33.3465 51.9607C33.4308 51.6741 33.5147 51.3875 33.5975 51.1005C33.6488 50.9227 33.701 50.7451 33.7542 50.5677L33.8245 50.3245L33.8876 50.1115C33.9242 49.8897 33.9025 49.7558 33.8234 49.5455C33.7004 49.3928 33.5706 49.245 33.4371 49.1006C31.2555 46.5982 30.5965 43.4287 30.8489 40.2391C31.203 37.2121 33.0057 34.4202 35.4653 32.5355C36.9697 31.4406 38.6473 30.7123 40.4876 30.3168L40.7872 30.2482C42.4306 29.9387 44.2744 30.0212 45.8962 30.4093ZM37.1072 35.0316L36.8699 35.2183C36.2338 35.7373 35.7439 36.3143 35.2721 36.9729L35.1095 37.1972C33.8376 39.0787 33.5296 41.4564 33.932 43.6348C34.3495 45.3041 35.2128 46.8491 36.5096 48.0433C36.9028 48.4128 37.1206 48.7405 37.1291 49.2779C37.1233 49.7469 37.0056 50.158 36.8597 50.6029C36.7536 50.858 36.7026 50.9808 36.6872 51.1076C36.6729 51.2249 36.6893 51.3456 36.7207 51.578L36.7208 51.579L36.7209 51.5793L36.9291 51.462C37.2398 51.287 37.5508 51.1125 37.8618 50.938L38.1894 50.7533L38.5035 50.5772L38.7932 50.4144C39.4882 50.0486 40.1601 50.1839 40.886 50.3717C43.3539 50.9591 45.7545 50.4951 47.9245 49.2682C50.0164 47.9706 51.471 46.0249 52.0285 43.698C52.4895 41.3117 52.0539 39.0393 50.7254 36.9729C50.514 36.6833 50.287 36.411 50.0493 36.1409L49.8686 35.9304C48.3979 34.2734 46.208 33.2491 43.9646 32.9978C41.4587 32.8597 39.0464 33.442 37.1072 35.0316Z" fill="#703391"/>
</svg>
