<svg width="86" height="86" viewBox="0 0 86 86" fill="none" xmlns="http://www.w3.org/2000/svg">
<circle cx="43" cy="43" r="43" fill="#703391" fill-opacity="0.1"/>
<path d="M61.6565 20H24.342C21.3974 20 19 22.4709 19 25.51V50.3149C19 53.3521 21.3956 55.8249 24.342 55.8249L36.7444 55.8229V59.7707H31.2245C30.7939 59.7707 30.4444 60.1312 30.4444 60.5753V65.1933C30.4444 65.6374 30.7939 65.998 31.2245 65.998L54.7735 66C55.204 66 55.5536 65.6394 55.5536 65.1954V60.5774C55.5536 60.1333 55.204 59.7727 54.7735 59.7727L49.2535 59.7707V55.8229H61.658C64.6026 55.8229 67 53.3519 67 50.3129L66.998 25.51C66.998 22.4708 64.6029 20 61.6565 20ZM24.342 21.6092H61.6585C63.7421 21.6092 65.4386 23.3591 65.4386 25.5082V49.0787H20.562V25.5082C20.562 23.3591 22.2565 21.6092 24.342 21.6092ZM53.9934 64.3913H32.0046V61.3826H53.9934V64.3913ZM47.6913 59.7712H38.3067V55.8234H47.6913V59.7712ZM61.656 54.2122H24.3415C22.3804 54.2122 20.7649 52.664 20.5792 50.6902H65.4183C65.2347 52.6641 63.6171 54.2122 61.656 54.2122ZM23.7767 46.6403H49.7531C50.1836 46.6403 50.5332 46.2797 50.5332 45.8356C50.5332 45.3915 50.1836 45.031 49.7531 45.031H48.1474L48.1494 37.8486C48.1494 37.4045 47.7998 37.0439 47.3693 37.0439H44.0554V28.6454C44.0554 28.2013 43.7058 27.8408 43.2752 27.8408H39.1792C38.7487 27.8408 38.3991 28.2013 38.3991 28.6454V35.2333H35.8653V31.0615C35.8653 30.6174 35.5157 30.2568 35.0852 30.2568H30.9911C30.5606 30.2568 30.211 30.6174 30.211 31.0615V35.2333H26.8951C26.4645 35.2333 26.115 35.5939 26.115 36.038L26.113 45.0294H24.5587V25.1765C24.5587 24.7324 24.2092 24.3719 23.7786 24.3719C23.3481 24.3719 22.9985 24.7324 22.9985 25.1765V45.8361C22.9965 46.2802 23.3461 46.6408 23.7766 46.6408L23.7767 46.6403ZM46.5871 38.6532V45.0294H44.0553V38.6532H46.5871ZM39.9594 29.4501H42.4933V37.8486L42.4952 45.0294H39.9614L39.9594 36.038V29.4501ZM38.3973 36.8447V45.0294H35.8635V36.8447H38.3973ZM31.7696 31.8662H34.3015V45.0295H31.7696V31.8662ZM27.6736 36.8447H30.2074V45.0294H27.6736V36.8447ZM55.2693 34.0275C58.4805 34.0275 61.4707 32.3184 63.0704 29.5684C63.2185 29.3138 63.2185 28.9939 63.0704 28.7393C61.4687 25.9873 58.4807 24.2762 55.2693 24.2762C52.058 24.2762 49.0698 25.9852 47.4702 28.7393C47.322 28.994 47.322 29.3118 47.4702 29.5664C49.0679 32.3184 52.0559 34.0275 55.2693 34.0275ZM52.1035 29.1528C52.1035 27.3521 53.5234 25.8875 55.2693 25.8875C57.0151 25.8875 58.4351 27.3521 58.4351 29.1528C58.4351 30.9515 57.0151 32.4162 55.2693 32.4162C53.5234 32.4162 52.1035 30.9515 52.1035 29.1528ZM61.4704 29.1528C60.9727 29.8882 60.3466 30.5197 59.6337 31.0269C59.8687 30.4504 59.9971 29.8169 59.9971 29.1528C59.9971 28.4888 59.8668 27.8552 59.6337 27.2787C60.3467 27.7839 60.9727 28.4174 61.4704 29.1528ZM50.9047 27.2787C50.6697 27.8552 50.5413 28.4887 50.5413 29.1528C50.5413 29.8169 50.6717 30.4484 50.9047 31.0269C50.1918 30.5197 49.5657 29.8882 49.07 29.1528C49.5657 28.4174 50.1918 27.7839 50.9047 27.2787ZM63.1808 36.753C63.1808 37.1971 62.8312 37.5577 62.4007 37.5577L52.5635 37.5597C52.133 37.5597 51.7834 37.1992 51.7834 36.7551C51.7834 36.311 52.133 35.9504 52.5635 35.9504H62.4007C62.8312 35.9484 63.1808 36.3089 63.1808 36.753ZM57.9156 39.6212C57.9156 40.0653 57.5661 40.4259 57.1355 40.4259H52.5635C52.133 40.4259 51.7834 40.0653 51.7834 39.6212C51.7834 39.1771 52.133 38.8166 52.5635 38.8166H57.1355C57.5661 38.8166 57.9156 39.1771 57.9156 39.6212ZM57.9156 42.6014C57.9156 43.0455 57.5661 43.406 57.1355 43.406H52.5635C52.133 43.406 51.7834 43.0455 51.7834 42.6014C51.7834 42.1573 52.133 41.7967 52.5635 41.7967H57.1355C57.5661 41.7967 57.9156 42.1573 57.9156 42.6014ZM56.8531 29.1528C56.8531 30.0553 56.1422 30.7886 55.2673 30.7886C54.3923 30.7886 53.6814 30.0553 53.6814 29.1528C53.6814 28.2524 54.3923 27.5171 55.2673 27.5171C56.1422 27.5171 56.8531 28.2525 56.8531 29.1528Z" fill="#703391" stroke="#703391" stroke-width="0.5"/>
</svg>
