<svg width="86" height="86" viewBox="0 0 86 86" fill="none" xmlns="http://www.w3.org/2000/svg">
<circle cx="43" cy="43" r="43" fill="#703391" fill-opacity="0.1"/>
<path d="M64.6531 55.1535L64.2006 54.8899C70.1784 43.7576 66.2882 29.7405 55.3371 23.3746C49.5709 20.0207 42.6784 19.3198 36.3601 21.4179C35.8538 20.9444 35.0609 20.9536 34.5703 21.4516L33.9448 22.1178C33.2502 21.7112 32.5065 21.4046 31.7546 21.235L31.7501 20.291C31.7465 19.5778 31.1687 19 30.4605 19H30.4559L28.627 19.0082C28.283 19.0097 27.9604 19.1461 27.7179 19.3923C27.4754 19.6386 27.3425 19.965 27.3445 20.3109L27.3719 21.2253C26.5992 21.4302 25.8575 21.7434 25.2026 22.1607L24.5359 21.4961C24.0317 20.9929 23.2144 20.9965 22.7146 21.5043L21.4271 22.8121C21.1851 23.0578 21.0526 23.3843 21.0542 23.7311C21.0557 24.0775 21.1911 24.4024 21.4357 24.6466L22.0977 25.275C21.6939 25.9733 21.3895 26.7223 21.2211 27.4778L20.283 27.4819C19.9396 27.4834 19.6169 27.6199 19.3739 27.8661C19.1309 28.1123 18.9985 28.4388 19 28.7846L19.0086 30.6253C19.0122 31.3384 19.59 31.9162 20.2977 31.9162H20.3033L21.2125 31.8902C21.4169 32.6682 21.7289 33.4146 22.1434 34.0716L21.4818 34.7429C21.0298 35.2026 20.9948 35.9173 21.3647 36.4221C18.0965 46.8545 22.5046 58.3229 31.9555 63.8178C35.6311 65.9548 39.6623 67 43.6626 67C49.3948 67 55.0596 64.8493 59.5053 60.6852L64.6516 57.6935C65.1087 57.4279 65.3816 56.9533 65.3816 56.424C65.3816 55.8943 65.1087 55.4192 64.6521 55.154L64.6531 55.1535ZM21.2409 30.5849H21.2353L20.3267 30.6186L20.2886 28.8086L21.2267 28.8046C21.8141 28.802 22.3255 28.3999 22.4696 27.8278C22.6365 27.1682 22.8942 26.5337 23.2362 25.9427C23.5319 25.4323 23.4472 24.7851 23.0297 24.3677L22.3626 23.746L23.6085 22.4392L24.2752 23.1038C24.6922 23.5201 25.3355 23.5993 25.8403 23.2974C26.4247 22.9475 27.0533 22.6823 27.7082 22.5086C28.2764 22.3574 28.6701 21.8389 28.6671 21.2488L28.6331 20.3359L30.4331 20.2981L30.4376 21.2422C30.4407 21.8322 30.8399 22.3467 31.4087 22.4928C32.0641 22.6609 32.6942 22.9204 33.2832 23.2657C33.7905 23.5625 34.4338 23.4772 34.8463 23.0578L35.4657 22.387L35.6879 22.6016C35.7001 22.6159 35.7138 22.6261 35.727 22.6394L36.7655 23.6397L36.1044 24.3105C35.691 24.7309 35.6123 25.3792 35.9127 25.886C36.2602 26.474 36.5245 27.1064 36.698 27.7639C36.8467 28.3361 37.3728 28.7126 37.9496 28.731L38.8577 28.6973L38.8668 30.5073L37.9577 30.5114C37.3707 30.5134 36.8604 30.9155 36.7163 31.4876C36.5478 32.1502 36.2901 32.7847 35.9482 33.3748C35.6534 33.8851 35.7387 34.5324 36.1557 34.9482L36.8223 35.57L35.5763 36.8773L34.9097 36.2121C34.4927 35.7963 33.8489 35.7171 33.3446 36.019C32.7607 36.3684 32.1321 36.6341 31.4766 36.8078C30.9094 36.959 30.5147 37.477 30.5173 38.0681L30.5513 38.9805L28.7513 39.0188L28.7467 38.0742C28.7437 37.4837 28.3449 36.9697 27.7762 36.8241C27.1197 36.6556 26.4886 36.396 25.9016 36.0517C25.6997 35.9332 25.476 35.8749 25.2538 35.8749C24.9185 35.8749 24.5872 36.0062 24.3386 36.2586L23.7191 36.9294L22.6517 35.901C22.599 35.8193 22.5285 35.7528 22.4432 35.7002L22.4189 35.6767L23.0799 35.006C23.4929 34.5855 23.572 33.9377 23.2717 33.4299C22.9242 32.8419 22.6604 32.21 22.4869 31.551C22.3372 30.9819 21.8253 30.5849 21.2409 30.5849ZM58.0518 52.1598C57.5962 52.4245 57.3238 52.9001 57.3238 53.4314V55.8662C51.5413 62.3629 41.9478 63.9139 34.4125 59.5327C26.7808 55.0958 23.3752 45.986 26.1325 37.6471C26.5566 37.8316 26.9904 37.9812 27.4287 38.0798L27.4333 39.0239C27.4368 39.7371 28.0147 40.3149 28.7229 40.3149H28.7274L30.5563 40.3062C30.9003 40.3052 31.223 40.1683 31.4655 39.922C31.7085 39.6758 31.8409 39.3493 31.8389 39.0035L31.812 38.0896C32.5856 37.8842 33.3274 37.571 33.9813 37.1542L34.6479 37.8188C35.1527 38.3225 35.9695 38.3179 36.4692 37.8106L37.7568 36.5028C38.2565 35.995 38.253 35.1725 37.7482 34.6688L37.0861 34.0409C37.4889 33.3451 37.7938 32.5957 37.9623 31.8371L38.9018 31.833C39.609 31.8299 40.1843 31.247 40.1843 30.5333V30.5297L40.1747 28.6886C40.1706 27.9754 39.5938 27.3986 38.8876 27.3986H38.881L37.9719 27.4242C37.8638 27.0145 37.7243 26.6145 37.5574 26.2308C42.6444 24.4259 48.1899 24.9301 52.8822 27.6577C61.4859 32.6606 64.5668 43.6473 59.9421 52.4132L59.5068 52.1603C59.0507 51.8947 58.5069 51.8942 58.0513 52.1583L58.0518 52.1598ZM32.6151 62.6679C23.9023 57.6026 19.729 47.1569 22.4179 37.4995L22.7912 37.8719C23.2955 38.3756 24.1128 38.3716 24.613 37.8643L24.7201 37.7503C22.0734 46.5424 25.7342 56.0205 33.754 60.6826C36.834 62.4732 40.2346 63.3391 43.6083 63.3391C48.6267 63.3391 53.5797 61.4157 57.3243 57.7732V59.4152C57.3243 59.8203 57.4856 60.1912 57.7652 60.4624C50.6799 66.4641 40.7262 67.3837 32.6156 62.6684L32.6151 62.6679ZM63.9941 56.5431L58.8468 59.5352C58.792 59.5679 58.7428 59.5526 58.7113 59.5342C58.6794 59.5158 58.6413 59.48 58.6413 59.4147V53.4314C58.6413 53.3772 58.6641 53.3359 58.7098 53.3098C58.7544 53.2837 58.8006 53.2843 58.8473 53.3113L59.864 53.9019C60.1795 54.0848 60.5818 53.976 60.764 53.6587C66.2055 44.1689 62.9652 31.9898 53.5407 26.5097C48.5983 23.6371 42.7727 23.0614 37.4007 24.878L37.7005 24.5736C38.1997 24.0658 38.1961 23.2433 37.6914 22.7395L37.4204 22.4693C43.2029 20.7461 49.4339 21.4741 54.6776 24.5235C65.1898 30.634 68.8055 44.2189 62.7369 54.8051C62.5553 55.1224 62.6629 55.528 62.9779 55.7114L63.9931 56.3025C64.0397 56.3295 64.0636 56.3704 64.0636 56.423C64.0636 56.4756 64.0397 56.516 63.9926 56.5431H63.9941ZM51.7828 37.4402C51.7828 38.2351 51.243 38.9136 50.4906 39.1675V39.6313C50.4906 39.9976 50.1954 40.295 49.8316 40.295C49.4679 40.295 49.1726 39.9976 49.1726 39.6313V39.168C48.6064 38.9774 48.1554 38.5468 47.9702 37.9792C47.8566 37.6313 48.0448 37.2558 48.3908 37.1419C48.7358 37.0264 49.1087 37.217 49.2223 37.5654C49.2928 37.781 49.5262 37.9348 49.7971 37.9475C49.82 37.9455 49.8438 37.946 49.8676 37.9475C50.1949 37.9327 50.4648 37.7064 50.4648 37.4408C50.4648 37.1654 50.1756 36.9335 49.8331 36.9335C48.7581 36.9335 47.884 36.1105 47.884 35.0989C47.884 34.3045 48.4228 33.6271 49.1741 33.3722V32.9063C49.1741 32.54 49.4694 32.2427 49.8331 32.2427C50.1969 32.2427 50.4922 32.54 50.4922 32.9063V33.3737C51.0664 33.5694 51.5281 34.0133 51.7057 34.5835C51.8142 34.9334 51.621 35.3053 51.2734 35.4147C50.9259 35.5219 50.5561 35.3293 50.448 34.9794C50.3785 34.7551 50.1203 34.5916 49.8337 34.5916C49.4912 34.5916 49.202 34.8241 49.202 35.0994C49.202 35.3748 49.4912 35.6073 49.8337 35.6073C50.9087 35.6073 51.7828 36.4303 51.7828 37.4418V37.4402ZM56.3112 46.6639C56.2564 46.1658 56.0976 45.7163 55.8541 45.3781C56.1559 44.9638 56.3315 44.3783 56.3315 43.6886C56.3315 42.3047 55.6237 41.3376 54.6101 41.3376H53.6918C55.2047 40.1672 56.1853 38.3332 56.1853 36.2683C56.1853 32.7413 53.3357 29.8718 49.8331 29.8718C46.3306 29.8718 43.4825 32.7413 43.4825 36.2683C43.4825 38.3332 44.4631 40.1678 45.9754 41.3376H45.0582C44.0446 41.3376 43.3369 42.3042 43.3369 43.6886C43.3369 44.3804 43.5139 44.9684 43.8173 45.3827C43.7336 45.4992 43.6595 45.6279 43.5961 45.7704C43.2739 45.5712 43.0178 45.3949 42.8016 45.2468C42.24 44.8611 41.8291 44.5873 41.2487 44.5893C40.5887 44.5975 39.9134 44.9679 38.2824 45.8634L37.8613 46.0943H36.9578V45.7658C36.9578 45.3995 36.6625 45.1022 36.2987 45.1022H32.8682C32.5045 45.1022 32.2092 45.3995 32.2092 45.7658V54.7137C32.2092 55.08 32.5045 55.3773 32.8682 55.3773H36.2987C36.6625 55.3773 36.9578 55.08 36.9578 54.7137V54.3847H38.0054C39.7628 55.0513 40.9702 55.6123 41.8565 56.024C43.0193 56.5645 43.7214 56.8905 44.4961 56.9145C44.5281 56.9155 44.5595 56.916 44.5915 56.916C45.6152 56.916 46.5452 56.3959 48.7003 55.1913C49.336 54.8358 50.0843 54.4179 51.0117 53.9136L57.0483 50.1496C57.8829 49.629 58.0878 48.616 57.547 47.6857C57.2756 47.2187 56.8281 46.8351 56.3101 46.6639H56.3112ZM44.801 36.2683C44.801 33.4729 47.0586 31.199 49.8337 31.199C52.6087 31.199 54.8683 33.4734 54.8683 36.2683C54.8683 39.0633 52.6097 41.3376 49.8337 41.3376C47.0576 41.3376 44.801 39.0633 44.801 36.2683ZM45.0587 42.6649H54.6101C54.8004 42.6649 55.0134 43.1027 55.0134 43.6886C55.0134 44.2746 54.8004 44.7124 54.6101 44.7124H45.0587C44.8685 44.7124 44.6554 44.2746 44.6554 43.6886C44.6554 43.1027 44.8685 42.6649 45.0587 42.6649ZM45.0587 46.0391H54.6101C54.6471 46.0391 54.6882 46.0443 54.7481 46.1081C54.8496 46.2164 54.9454 46.4484 54.9886 46.7493C54.9505 46.7676 54.912 46.7758 54.8739 46.7973L51.1968 48.8458C51.0396 47.8502 50.3354 46.9562 49.128 46.9562H45.8994C45.4656 46.7676 45.0886 46.5883 44.7538 46.4182C44.8309 46.1899 44.9436 46.0391 45.0587 46.0391ZM33.5277 54.05V46.4294H35.6408V46.7569V46.7579V53.7216V53.7226V54.05H33.5277ZM56.3553 49.0211L50.3526 52.7652C49.4537 53.2531 48.7013 53.6735 48.0616 54.0317C46.1221 55.1157 45.2434 55.6087 44.5372 55.5883C44.0304 55.5724 43.4546 55.3047 42.4095 54.8194C41.4856 54.3903 40.2204 53.8023 38.357 53.0998C38.2829 53.0717 38.2048 53.0574 38.1256 53.0574H36.9583V47.421H38.0297C38.1393 47.421 38.2479 47.3935 38.3443 47.3408L38.914 47.0287C40.2158 46.314 40.9326 45.9206 41.2655 45.9165H41.269C41.4319 45.9165 41.6302 46.0478 42.0599 46.3431C42.443 46.6062 42.9488 46.9516 43.692 47.3567C43.695 47.3582 43.6976 47.3597 43.7006 47.3613C44.1887 47.6269 44.7766 47.9181 45.5072 48.2308C45.5889 48.2655 45.6761 48.2839 45.7649 48.2839H49.1285C49.8915 48.2839 49.9133 49.1764 49.9133 49.278C49.9133 49.4507 49.8829 49.6173 49.8271 49.7613C49.8215 49.7736 49.8164 49.7869 49.8113 49.7996C49.7789 49.8747 49.7393 49.9432 49.6931 50.0024C49.5567 50.1777 49.372 50.263 49.1285 50.263H44.0841C43.7204 50.263 43.4251 50.5603 43.4251 50.9266C43.4251 51.2929 43.7204 51.5902 44.0841 51.5902H49.1285C49.7758 51.5902 50.3445 51.3169 50.7306 50.8209C50.8057 50.7243 50.8732 50.6206 50.932 50.5108L55.5121 47.9595C55.8794 47.7541 56.2579 48.0949 56.4106 48.3564C56.5111 48.5296 56.6374 48.8458 56.3558 49.0216L56.3553 49.0211ZM29.5919 34.8736C32.4477 34.8736 34.7712 32.5339 34.7712 29.6582C34.7712 26.7825 32.4477 24.4423 29.5919 24.4423C26.7362 24.4423 24.4127 26.782 24.4127 29.6582C24.4127 32.5344 26.7362 34.8736 29.5919 34.8736ZM29.5919 25.769C31.7212 25.769 33.4537 27.5136 33.4537 29.6577C33.4537 31.8018 31.7212 33.5464 29.5919 33.5464C27.4627 33.5464 25.7302 31.8018 25.7302 29.6577C25.7302 27.5136 27.4627 25.769 29.5919 25.769Z" fill="#703391" stroke="#703391" stroke-width="0.6"/>
</svg>
