<svg width="86" height="86" viewBox="0 0 86 86" fill="none" xmlns="http://www.w3.org/2000/svg">
<circle cx="43" cy="43" r="43" fill="#703391" fill-opacity="0.1"/>
<path fill-rule="evenodd" clip-rule="evenodd" d="M52.5809 27.2736V20.4549H25.5108V65.5451H27.7442C27.7294 65.24 27.7244 64.9328 27.7292 64.6235C27.7377 64.0855 27.7747 63.5482 27.84 63.0139V63.0032C27.8197 62.8118 27.8791 62.6206 28.0053 62.4714C28.1314 62.3222 28.3138 62.2272 28.5126 62.2075L32.3354 61.8203C32.4515 61.424 32.5919 61.0347 32.7559 60.6544C32.9204 60.2728 33.108 59.9007 33.3177 59.5403L30.8999 56.6309C30.7948 56.5042 30.7369 56.3472 30.7355 56.185C30.7341 56.0229 30.7893 55.8649 30.8922 55.7365C31.2959 55.2358 31.7381 54.7649 32.2152 54.328C32.6847 53.8972 33.1778 53.4907 33.6923 53.1104C33.8271 53.0104 33.9931 52.9572 34.1633 52.9595C34.3335 52.9618 34.4979 53.0195 34.6297 53.1232L37.5755 55.4432C38.3234 55.04 39.1182 54.7233 39.9434 54.4997L40.4138 50.8096C40.4351 50.6379 40.5194 50.4791 40.6514 50.3618C40.7834 50.2445 40.9545 50.1764 41.134 50.1696C42.3906 50.0121 43.6633 50.0146 44.9192 50.1771C45.0879 50.1976 45.2444 50.2724 45.3632 50.3895C45.482 50.5066 45.5562 50.659 45.5735 50.8219L45.9768 54.4992C46.412 54.6152 46.84 54.7548 47.2589 54.9173C47.6534 55.0706 48.0382 55.2462 48.4112 55.4432L51.3587 53.1216C51.4978 53.0121 51.6728 52.954 51.8524 52.9575C52.032 52.961 52.2044 53.026 52.3388 53.1408C52.84 53.5118 53.3208 53.9078 53.7793 54.3269C54.2556 54.7641 54.6971 55.2351 55.1001 55.736C55.2085 55.871 55.264 56.0386 55.2567 56.2091C55.2494 56.3797 55.1798 56.5423 55.0602 56.6683L52.6734 59.5403C53.0928 60.2605 53.4225 61.0258 53.6557 61.8203L57.4785 62.2075C57.6547 62.2248 57.8188 62.3013 57.9422 62.4235C58.0656 62.5457 58.1403 62.7058 58.1534 62.8757C58.2281 63.4456 58.2683 64.0192 58.2736 64.5936C58.2762 64.9136 58.2688 65.2308 58.2514 65.5451H60.4908V27.9984H53.336C53.1357 27.9983 52.9436 27.9216 52.802 27.7851C52.6604 27.6487 52.5809 27.4638 52.5809 27.2709V27.2736ZM29.2528 65.5451C29.2354 65.2425 29.2293 64.9403 29.2345 64.6384C29.2397 64.2875 29.2591 63.9365 29.2927 63.5856L33.0108 63.2133C33.1674 63.1978 33.3151 63.1356 33.4331 63.0352C33.5512 62.9349 33.6336 62.8016 33.669 62.6539C33.7867 62.1619 33.9469 61.6802 34.1477 61.2139C34.349 60.7467 34.5899 60.2963 34.8679 59.8672C34.9562 59.7306 34.9949 59.5697 34.978 59.4097C34.961 59.2496 34.8894 59.0995 34.7743 58.9829L32.4512 56.1877C32.7044 55.9051 32.9737 55.6352 33.2557 55.3755C33.5377 55.1157 33.8369 54.8619 34.1421 54.6197L37.0231 56.8912C37.15 56.991 37.3071 57.0483 37.4707 57.0547C37.6344 57.061 37.7958 57.016 37.9306 56.9264C38.3669 56.6656 38.8244 56.4391 39.2985 56.2491C39.783 56.056 40.2834 55.9021 40.7944 55.7888C40.9455 55.7554 41.0823 55.678 41.1861 55.5671C41.2898 55.4562 41.3556 55.3172 41.3745 55.1691L41.8349 51.5579C42.2149 51.5269 42.5978 51.5109 42.9873 51.5109C43.3767 51.5109 43.7535 51.5264 44.1308 51.5568L44.5241 55.1552C44.5402 55.306 44.6049 55.4481 44.7091 55.5618C44.8134 55.6754 44.9519 55.7548 45.1053 55.7888C45.6439 55.9086 46.1719 56.0691 46.6843 56.2688C47.1679 56.4557 47.6337 56.6825 48.0766 56.9467C48.2103 57.0268 48.3666 57.0647 48.5237 57.0551C48.6809 57.0456 48.831 56.989 48.9531 56.8933L51.8341 54.6219C52.1404 54.864 52.4379 55.1157 52.7205 55.3776C53.0031 55.6395 53.2712 55.9072 53.5244 56.1899L51.1609 59.0341C51.0639 59.151 51.0069 59.2938 50.9978 59.4431C50.9887 59.5924 51.0279 59.7408 51.1099 59.8677C51.3879 60.2969 51.6288 60.7473 51.8302 61.2144C52.031 61.6808 52.1911 62.1624 52.3089 62.6544C52.3461 62.807 52.4337 62.9438 52.5584 63.0446C52.6831 63.1453 52.8383 63.2045 53.0008 63.2133L56.7173 63.5899C56.7472 63.928 56.7637 64.2658 56.7666 64.6032C56.7699 64.914 56.7613 65.2274 56.7406 65.5435H48.2528C48.3701 64.8494 48.3369 64.1394 48.1551 63.4583C47.9733 62.7772 47.6469 62.1397 47.1964 61.5861C46.746 61.0324 46.1813 60.5746 45.538 60.2414C44.8947 59.9083 44.1866 59.707 43.4585 59.6503C42.7303 59.5936 41.9979 59.6828 41.3073 59.9121C40.6167 60.1414 39.9829 60.506 39.446 60.9827C38.909 61.4595 38.4804 62.0382 38.1873 62.6824C37.8942 63.3265 37.7428 64.0221 37.7428 64.7253C37.7431 64.9995 37.7669 65.2731 37.8137 65.5435L29.2528 65.5451ZM39.3467 65.5451C39.334 65.4917 39.3223 65.4384 39.3124 65.3851C39.2725 65.1673 39.2528 64.9465 39.2536 64.7253C39.2476 64.2439 39.3409 63.766 39.5281 63.3195C39.7153 62.873 39.9927 62.4667 40.3442 62.1242C40.6958 61.7816 41.1145 61.5097 41.576 61.3241C42.0375 61.1385 42.5328 61.0429 43.033 61.0429C43.5332 61.0429 44.0284 61.1385 44.4899 61.3241C44.9515 61.5097 45.3701 61.7816 45.7217 62.1242C46.0732 62.4667 46.3506 62.873 46.5379 63.3195C46.7251 63.766 46.8184 64.2439 46.8123 64.7253C46.8134 64.9465 46.7937 65.1673 46.7536 65.3851C46.7436 65.4384 46.7325 65.4917 46.7198 65.5451H39.3467ZM32.0335 44.8304C31.9711 44.7565 31.9244 44.6716 31.8961 44.5804C31.8679 44.4892 31.8585 44.3935 31.8687 44.2988C31.8788 44.2041 31.9082 44.1122 31.9552 44.0285C32.0022 43.9447 32.0659 43.8707 32.1426 43.8107C32.2193 43.7506 32.3076 43.7057 32.4024 43.6785C32.4971 43.6512 32.5965 43.6423 32.6949 43.652C32.7932 43.6618 32.8887 43.6901 32.9757 43.7353C33.0627 43.7806 33.1395 43.8419 33.2019 43.9157L33.2573 43.9803L33.9105 43.2549C33.9747 43.181 34.0534 43.12 34.1423 43.0757C34.2311 43.0314 34.3282 43.0045 34.428 42.9967C34.5277 42.9889 34.6281 43.0003 34.7232 43.0302C34.8183 43.0601 34.9063 43.108 34.982 43.171C35.0576 43.234 35.1195 43.3109 35.164 43.3972C35.2085 43.4835 35.2347 43.5775 35.241 43.6736C35.2474 43.7697 35.2338 43.8661 35.201 43.9572C35.1682 44.0482 35.117 44.132 35.0502 44.2037C34.6413 44.6571 34.2014 45.1189 33.8086 45.5808C33.7798 45.6126 33.7483 45.6421 33.7144 45.6688C33.6375 45.7288 33.5492 45.7736 33.4543 45.8007C33.3594 45.8278 33.2599 45.8367 33.1615 45.8268C33.0631 45.8169 32.9677 45.7884 32.8807 45.743C32.7937 45.6976 32.7169 45.6361 32.6545 45.5621L32.034 44.8288L32.0335 44.8304ZM39.5262 47.1568C39.3258 47.1568 39.1336 47.0802 38.9919 46.9437C38.8501 46.8073 38.7705 46.6223 38.7705 46.4293C38.7705 46.2364 38.8501 46.0514 38.9919 45.9149C39.1336 45.7785 39.3258 45.7019 39.5262 45.7019H55.8115C56.0119 45.7019 56.2041 45.7785 56.3458 45.9149C56.4875 46.0514 56.5672 46.2364 56.5672 46.4293C56.5672 46.6223 56.4875 46.8073 56.3458 46.9437C56.2041 47.0802 56.0119 47.1568 55.8115 47.1568H39.5262ZM39.5262 43.1333C39.4253 43.136 39.3248 43.1191 39.2308 43.0837C39.1368 43.0484 39.051 42.9952 38.9787 42.9274C38.9063 42.8597 38.8488 42.7786 38.8096 42.6891C38.7703 42.5995 38.7501 42.5033 38.7501 42.4061C38.7501 42.3089 38.7703 42.2127 38.8096 42.1232C38.8488 42.0337 38.9063 41.9526 38.9787 41.8848C39.051 41.817 39.1368 41.7639 39.2308 41.7285C39.3248 41.6932 39.4253 41.6763 39.5262 41.6789H55.6724C55.7733 41.6763 55.8738 41.6932 55.9678 41.7285C56.0619 41.7639 56.1476 41.817 56.2199 41.8848C56.2923 41.9526 56.3498 42.0337 56.3891 42.1232C56.4283 42.2127 56.4486 42.3089 56.4486 42.4061C56.4486 42.5033 56.4283 42.5995 56.3891 42.6891C56.3498 42.7786 56.2923 42.8597 56.2199 42.9274C56.1476 42.9952 56.0619 43.0484 55.9678 43.0837C55.8738 43.1191 55.7733 43.136 55.6724 43.1333H39.5262ZM32.2811 40.4549H34.818C35.1914 40.4554 35.561 40.5267 35.9057 40.6648C36.2504 40.8029 36.5635 41.0051 36.827 41.2597L36.8314 41.264C37.3646 41.7764 37.6647 42.4716 37.6658 43.1968V45.6389C37.6657 45.9988 37.5919 46.3551 37.4484 46.6875C37.3049 47.0198 37.0947 47.3216 36.8297 47.5755L36.7821 47.6176C36.2541 48.1062 35.5504 48.3795 34.818 48.3803H32.2811C31.5263 48.3787 30.8029 48.0894 30.2691 47.5757C29.7353 47.0619 29.4346 46.3656 29.4328 45.6389V43.1968C29.4333 42.837 29.5075 42.4808 29.6512 42.1487C29.795 41.8165 30.0055 41.515 30.2705 41.2613C30.5344 41.0063 30.848 40.8039 31.1933 40.6658C31.5386 40.5277 31.9089 40.4566 32.2828 40.4565L32.2811 40.4549ZM34.818 41.9099C34.9928 41.9095 35.166 41.9422 35.3276 42.0063C35.4892 42.0703 35.6361 42.1644 35.7599 42.2832V42.2864C35.8838 42.4054 35.982 42.5467 36.0491 42.7023C36.1161 42.8578 36.1506 43.0246 36.1505 43.1931V45.6352C36.1502 45.8038 36.1153 45.9707 36.0478 46.1263C35.9803 46.2819 35.8815 46.4231 35.7571 46.5419L35.7267 46.5733C35.4795 46.7969 35.1528 46.9212 34.8136 46.9205H32.2811C31.9271 46.919 31.5879 46.7829 31.3376 46.5419C31.0872 46.3009 30.9458 45.9744 30.9442 45.6336V43.1968C30.9438 43.0286 30.9779 42.8619 31.0444 42.7063C31.1109 42.5507 31.2087 42.4093 31.3321 42.2901C31.4554 42.1704 31.6021 42.0753 31.7638 42.0103C31.9254 41.9454 32.0988 41.9118 32.2739 41.9115L34.818 41.9099ZM32.034 33.5413C31.908 33.3922 31.8487 33.2009 31.8692 33.0097C31.8897 32.8185 31.9882 32.6429 32.1432 32.5216C32.2981 32.4003 32.4968 32.3432 32.6954 32.3629C32.8941 32.3826 33.0765 32.4775 33.2025 32.6267L33.2579 32.6907L33.9111 31.9659C33.9752 31.8919 34.054 31.831 34.1428 31.7866C34.2317 31.7423 34.3288 31.7154 34.4285 31.7076C34.5283 31.6998 34.6286 31.7112 34.7237 31.7411C34.8189 31.7711 34.9068 31.8189 34.9825 31.882C35.0582 31.945 35.1201 32.0219 35.1646 32.1082C35.2091 32.1944 35.2352 32.2884 35.2416 32.3845C35.2479 32.4807 35.2343 32.5771 35.2016 32.6681C35.1688 32.7591 35.1175 32.8429 35.0507 32.9147C34.6419 33.368 34.202 33.8293 33.8092 34.2917C33.7804 34.3236 33.7489 34.353 33.715 34.3797C33.5597 34.5008 33.3608 34.5575 33.1621 34.5375C32.9634 34.5175 32.781 34.4224 32.6551 34.2731L32.0346 33.5397L32.034 33.5413ZM39.5268 35.8672C39.4258 35.8698 39.3254 35.853 39.2314 35.8176C39.1373 35.7822 39.0516 35.7291 38.9792 35.6613C38.9069 35.5935 38.8494 35.5125 38.8101 35.4229C38.7708 35.3334 38.7506 35.2372 38.7506 35.14C38.7506 35.0428 38.7708 34.9466 38.8101 34.8571C38.8494 34.7675 38.9069 34.6865 38.9792 34.6187C39.0516 34.5509 39.1373 34.4978 39.2314 34.4624C39.3254 34.427 39.4258 34.4102 39.5268 34.4128H55.8115C55.9124 34.4102 56.0128 34.427 56.1069 34.4624C56.2009 34.4978 56.2866 34.5509 56.359 34.6187C56.4313 34.6865 56.4889 34.7675 56.5281 34.8571C56.5674 34.9466 56.5876 35.0428 56.5876 35.14C56.5876 35.2372 56.5674 35.3334 56.5281 35.4229C56.4889 35.5125 56.4313 35.5935 56.359 35.6613C56.2866 35.7291 56.2009 35.7822 56.1069 35.8176C56.0128 35.853 55.9124 35.8698 55.8115 35.8672H39.5268ZM39.5268 31.8443C39.3263 31.8443 39.1341 31.7676 38.9924 31.6312C38.8507 31.4948 38.7711 31.3097 38.7711 31.1168C38.7711 30.9239 38.8507 30.7388 38.9924 30.6024C39.1341 30.466 39.3263 30.3893 39.5268 30.3893H55.6724C55.8728 30.3893 56.065 30.466 56.2068 30.6024C56.3485 30.7388 56.4281 30.9239 56.4281 31.1168C56.4281 31.3097 56.3485 31.4948 56.2068 31.6312C56.065 31.7676 55.8728 31.8443 55.6724 31.8443H39.5268ZM32.2811 29.1659H34.818C35.1914 29.1663 35.561 29.2377 35.9057 29.3758C36.2504 29.5138 36.5635 29.716 36.827 29.9707L36.8314 29.9755C37.3645 30.4873 37.6646 31.1819 37.6658 31.9067V34.3493C37.6657 34.7092 37.5919 35.0655 37.4484 35.3979C37.3049 35.7302 37.0947 36.032 36.8297 36.2859L36.7821 36.328C36.2541 36.8166 35.5504 37.0899 34.818 37.0907H32.2811C31.5263 37.0891 30.8029 36.7998 30.2691 36.2861C29.7353 35.7723 29.4346 35.076 29.4328 34.3493V31.9067C29.4333 31.5469 29.5076 31.1908 29.6513 30.8588C29.7951 30.5268 30.0055 30.2253 30.2705 29.9717C30.5344 29.7167 30.848 29.5143 31.1933 29.3762C31.5386 29.2381 31.9089 29.167 32.2828 29.1669L32.2811 29.1659ZM34.818 30.6208C34.9928 30.6204 35.166 30.6531 35.3276 30.7172C35.4892 30.7813 35.6361 30.8754 35.7599 30.9941V30.9968C35.8838 31.1158 35.982 31.2571 36.0491 31.4127C36.1161 31.5682 36.1506 31.735 36.1505 31.9035V34.3461C36.1502 34.5148 36.1153 34.6817 36.0478 34.8372C35.9803 34.9928 35.8815 35.1341 35.7571 35.2528L35.7267 35.2837C35.4795 35.5073 35.1528 35.6315 34.8136 35.6309H32.2811C31.9271 35.6297 31.5879 35.4937 31.3375 35.2528C31.087 35.0118 30.9457 34.6854 30.9442 34.3445V31.9067C30.9437 31.5669 31.0832 31.2409 31.3321 31C31.4555 30.8804 31.6022 30.7854 31.7638 30.7205C31.9254 30.6556 32.0988 30.6221 32.2739 30.6219L34.818 30.6208ZM59.4121 26.5461H54.0934V21.4693L59.4121 26.5461ZM53.9072 19.2512L61.7346 26.7179C61.8179 26.7861 61.8848 26.8709 61.9306 26.9665C61.9764 27.0621 62.0001 27.1662 62 27.2715V66.2725C62 66.4654 61.9205 66.6503 61.7789 66.7867C61.6373 66.9232 61.4452 66.9999 61.2449 67H24.7551C24.5548 66.9999 24.3627 66.9232 24.2211 66.7867C24.0795 66.6503 24 66.4654 24 66.2725V19.7275C24 19.5346 24.0795 19.3497 24.2211 19.2133C24.3627 19.0768 24.5548 19.0001 24.7551 19H53.336C53.4444 18.9999 53.5515 19.0223 53.6501 19.0657C53.7486 19.109 53.8364 19.1723 53.9072 19.2512Z" fill="#703391" stroke="#703391" stroke-width="0.7"/>
</svg>
