<svg width="86" height="86" viewBox="0 0 86 86" fill="none" xmlns="http://www.w3.org/2000/svg">
<circle cx="43" cy="43" r="43" fill="#703391" fill-opacity="0.1"/>
<path fill-rule="evenodd" clip-rule="evenodd" d="M59.8249 42.615L64.8541 50.371C65.085 50.7267 65.038 51.199 64.7405 51.5004L55.0574 61.3411C54.8871 61.5141 54.6608 61.6045 54.432 61.6045C54.2819 61.6045 54.1304 61.566 53.993 61.4859L49.8286 59.0607V62.122C49.8286 64.8115 47.6752 67 45.0287 67H25.7999C23.1534 67 21 64.8115 21 62.122V25.9074C21 23.2178 23.1534 21.0293 25.7999 21.0293H43.5123C44.9802 19.7659 46.875 19 48.9451 19C53.5899 19 57.3679 22.84 57.3679 27.5599C57.3679 31.9759 54.0597 35.6208 49.8291 36.0716V40.3484C50.3545 40.3187 50.8869 40.4403 51.3693 40.7119C51.4986 40.3618 51.6971 40.042 51.9633 39.7719C53.2712 38.4418 54.8962 39.2935 55.6767 39.7026C55.707 39.7185 55.7363 39.736 55.7645 39.7555L59.5804 42.3639C59.6774 42.4302 59.7607 42.5154 59.8249 42.615ZM41.0037 40.524L44.2584 43.8317C44.3857 43.5349 44.5584 43.2551 44.7948 43.0149C45.3141 42.4866 46.0213 42.214 46.7725 42.2371C46.9968 42.2448 47.2145 42.288 47.4276 42.3475C47.5368 41.904 47.7469 41.4974 48.0606 41.1627V36.0716C44.121 35.6521 40.982 32.4621 40.5693 28.4583H22.768V59.3436H48.0606V58.3646L42.5111 58.4853C42.4848 58.4858 42.4585 58.4863 42.4318 58.4863C40.5425 58.4863 38.9877 57.0227 38.9483 55.1894C38.9089 53.33 40.4435 51.7832 42.3691 51.7411L44.3018 51.6806L37.1641 44.4267C36.0538 43.2988 36.0129 41.5061 37.0717 40.4301C37.5905 39.9018 38.2946 39.6231 39.0488 39.6523C39.7813 39.678 40.4758 39.9875 41.0037 40.524ZM55.5999 27.5599C55.5999 23.8308 52.6145 20.7968 48.9451 20.7968C45.2757 20.7968 42.2903 23.8308 42.2903 27.5599C42.2903 31.289 45.2757 34.323 48.9451 34.323C52.6145 34.323 55.5999 31.289 55.5999 27.5599ZM41.9332 22.8261H25.7999C24.1284 22.8261 22.768 24.2086 22.768 25.9074V26.6615H40.5693C40.7143 25.2539 41.1977 23.9479 41.9332 22.8261ZM25.7999 65.2032H45.0292C46.7007 65.2032 48.0611 63.8212 48.0606 62.122V61.1399H22.768V62.122C22.768 63.8212 24.1279 65.2032 25.7999 65.2032ZM49.2785 56.669L54.286 59.5849L62.981 50.7483L58.4459 43.7547L54.8204 41.2766C53.603 40.6462 53.3949 40.8567 53.2126 41.043C53.0433 41.215 52.9549 41.4553 52.964 41.7202C52.9741 42.0082 53.0954 42.2844 53.3055 42.4984L55.4019 44.6289C55.7474 44.9795 55.7474 45.5489 55.4019 45.8995C55.2296 46.0751 55.0033 46.1629 54.777 46.1629C54.5507 46.1629 54.3249 46.0751 54.1521 45.8995L50.7838 42.4764C50.5737 42.2628 50.3014 42.1401 50.018 42.1298C49.7619 42.1196 49.521 42.2104 49.3512 42.3824C49.182 42.5544 49.0936 42.7947 49.1027 43.0596C49.1128 43.3476 49.234 43.6237 49.4442 43.8378L49.4447 43.8383L52.2114 46.6501C52.5569 47.0007 52.5569 47.5695 52.2114 47.9206C52.0391 48.0962 51.8128 48.184 51.5865 48.184C51.3602 48.184 51.1344 48.0962 50.9616 47.9206L47.4777 44.3799C47.2675 44.1664 46.9957 44.0437 46.7119 44.0334C46.4643 44.0273 46.2158 44.114 46.0456 44.286C45.6829 44.6551 45.7253 45.3215 46.1385 45.7419L49.576 49.2354C49.9215 49.586 49.9215 50.1553 49.576 50.506C49.2305 50.8571 48.6713 50.8571 48.3258 50.506L44.8888 47.013L44.8873 47.012C44.8863 47.011 44.8858 47.0099 44.8847 47.0089L39.754 41.7946C39.5439 41.581 39.2721 41.4584 38.9882 41.4481C38.7179 41.4378 38.4911 41.5287 38.3219 41.7007C37.9592 42.0698 38.0016 42.7361 38.4144 43.1561L46.9983 51.8787C47.2478 52.1318 47.3251 52.5122 47.1953 52.8449C47.0655 53.1775 46.7533 53.4009 46.4007 53.4116L42.4161 53.5364C41.4573 53.5574 40.6986 54.2813 40.7168 55.1499C40.735 56.019 41.5361 56.7034 42.4742 56.6885L48.8203 56.5504C48.9714 56.5488 49.1391 56.5878 49.2785 56.669ZM30.5877 33.841C30.9332 33.4899 31.4924 33.4899 31.838 33.841L34.3975 36.4433C34.743 36.7944 34.743 37.3632 34.3975 37.7139C34.2253 37.8894 33.999 37.9772 33.7727 37.9772C33.5464 37.9772 33.3206 37.8894 33.1478 37.7139L30.5877 35.1116C30.2422 34.7604 30.2422 34.1916 30.5877 33.841ZM38.9504 33.1243L36.4282 35.6881C36.0827 36.0392 36.0827 36.608 36.4282 36.9587C36.6009 37.1342 36.8267 37.222 37.053 37.222C37.2793 37.222 37.5057 37.1342 37.6779 36.9587L40.2001 34.3949C40.5456 34.0438 40.5456 33.475 40.2001 33.1243C39.8551 32.7732 39.2959 32.7732 38.9504 33.1243ZM29.8087 42.4153L32.3314 39.8515C32.6764 39.5009 33.2356 39.5004 33.5811 39.8515C33.9266 40.2027 33.9266 40.7715 33.5811 41.1221L31.0584 43.6859C30.8861 43.8615 30.6598 43.9493 30.4335 43.9493C30.2072 43.9493 29.9814 43.8615 29.8087 43.6859C29.4631 43.3348 29.4631 42.7659 29.8087 42.4153ZM37.3647 62.4722H33.4645C32.976 62.4722 32.5805 62.8746 32.5805 63.3706C32.5805 63.8665 32.976 64.269 33.4645 64.269H37.3647C37.8532 64.269 38.2487 63.8665 38.2487 63.3706C38.2487 62.8746 37.8532 62.4722 37.3647 62.4722ZM29.5975 25.642H26.5954C26.1074 25.642 25.7114 25.2395 25.7114 24.7436C25.7114 24.2477 26.1069 23.8452 26.5954 23.8452H29.5975C30.0859 23.8452 30.4815 24.2477 30.4815 24.7436C30.4815 25.2395 30.0859 25.642 29.5975 25.642ZM32.4123 25.642H39.0938C39.5823 25.642 39.9778 25.2395 39.9778 24.7436C39.9778 24.2477 39.5823 23.8452 39.0938 23.8452H32.4123C31.9238 23.8452 31.5283 24.2477 31.5283 24.7436C31.5283 25.2395 31.9238 25.642 32.4123 25.642ZM48.4095 30.2731L46.0192 28.4239C45.6302 28.1231 45.5555 27.5594 45.851 27.1651C46.147 26.7698 46.7021 26.6939 47.0896 26.9942L48.7975 28.3151L51.4394 24.9967C51.7465 24.6106 52.3032 24.5516 52.6825 24.8632C53.0624 25.1753 53.121 25.741 52.8139 26.1266L49.632 30.1232C49.4582 30.3419 49.2026 30.4563 48.9445 30.4563C48.7571 30.4563 48.5691 30.3968 48.4095 30.2731Z" fill="#703391"/>
<path d="M64.8541 50.371L64.6444 50.507L64.6444 50.507L64.8541 50.371ZM59.8249 42.615L59.6147 42.7504L59.6151 42.751L59.8249 42.615ZM64.7405 51.5004L64.5626 51.3247L64.5623 51.325L64.7405 51.5004ZM55.0574 61.3411L54.8792 61.1658L55.0574 61.3411ZM53.993 61.4859L54.1189 61.2699L54.1188 61.2699L53.993 61.4859ZM49.8286 59.0607L49.9544 58.8447L49.5786 58.6259V59.0607H49.8286ZM43.5123 21.0293V21.2793H43.605L43.6754 21.2188L43.5123 21.0293ZM49.8291 36.0716L49.8026 35.823L49.5791 35.8468V36.0716H49.8291ZM49.8291 40.3484H49.5791V40.613L49.8432 40.598L49.8291 40.3484ZM51.3693 40.7119L51.2466 40.9298L51.5022 41.0736L51.6038 40.7985L51.3693 40.7119ZM51.9633 39.7719L52.1414 39.9474L52.1416 39.9472L51.9633 39.7719ZM55.6767 39.7026L55.7929 39.4813L55.7927 39.4812L55.6767 39.7026ZM55.7645 39.7555L55.6226 39.9613L55.6235 39.9619L55.7645 39.7555ZM59.5804 42.3639L59.4393 42.5703L59.4394 42.5704L59.5804 42.3639ZM44.2584 43.8317L44.0802 44.007L44.3413 44.2724L44.4881 43.9302L44.2584 43.8317ZM41.0037 40.524L41.1819 40.3487L41.0037 40.524ZM44.7948 43.0149L44.973 43.1902L44.9731 43.1901L44.7948 43.0149ZM46.7725 42.2371L46.781 41.9873L46.7802 41.9873L46.7725 42.2371ZM47.4276 42.3475L47.3604 42.5883L47.6088 42.6577L47.6704 42.4072L47.4276 42.3475ZM48.0606 41.1627L48.243 41.3336L48.3106 41.2615V41.1627H48.0606ZM48.0606 36.0716H48.3106V35.8468L48.0871 35.823L48.0606 36.0716ZM40.5693 28.4583L40.818 28.4327L40.7949 28.2083H40.5693V28.4583ZM22.768 28.4583V28.2083H22.518V28.4583H22.768ZM22.768 59.3436H22.518V59.5936H22.768V59.3436ZM48.0606 59.3436V59.5936H48.3106V59.3436H48.0606ZM48.0606 58.3646H48.3106V58.1091L48.0552 58.1147L48.0606 58.3646ZM42.5111 58.4853L42.516 58.7352L42.5165 58.7352L42.5111 58.4853ZM38.9483 55.1894L38.6983 55.1947L38.6983 55.1948L38.9483 55.1894ZM42.3691 51.7411L42.3746 51.9911L42.377 51.991L42.3691 51.7411ZM44.3018 51.6806L44.3096 51.9304L44.8808 51.9125L44.48 51.5052L44.3018 51.6806ZM37.1641 44.4267L37.3423 44.2513L37.3423 44.2513L37.1641 44.4267ZM37.0717 40.4301L37.2499 40.6054L37.25 40.6052L37.0717 40.4301ZM39.0488 39.6523L39.0391 39.9021L39.0401 39.9022L39.0488 39.6523ZM41.9332 22.8261L42.1423 22.9632L42.3961 22.5761H41.9332V22.8261ZM22.768 26.6615H22.518V26.9115H22.768V26.6615ZM40.5693 26.6615V26.9115H40.7949L40.818 26.6871L40.5693 26.6615ZM48.0606 62.122H47.8106V62.122L48.0606 62.122ZM48.0606 61.1399H48.3106V60.8899H48.0606V61.1399ZM22.768 61.1399V60.8899H22.518V61.1399H22.768ZM54.286 59.5849L54.1602 59.8009L54.328 59.8987L54.4642 59.7602L54.286 59.5849ZM49.2785 56.669L49.4043 56.4529L49.4042 56.4529L49.2785 56.669ZM62.981 50.7483L63.1592 50.9236L63.3 50.7806L63.1908 50.6123L62.981 50.7483ZM58.4459 43.7547L58.6556 43.6186L58.6283 43.5766L58.5869 43.5483L58.4459 43.7547ZM54.8204 41.2766L54.9615 41.0702L54.9489 41.0616L54.9354 41.0546L54.8204 41.2766ZM53.2126 41.043L53.3908 41.2184L53.3912 41.2179L53.2126 41.043ZM52.964 41.7202L52.7142 41.7287L52.7142 41.7289L52.964 41.7202ZM53.3055 42.4984L53.1271 42.6736L53.1273 42.6738L53.3055 42.4984ZM55.4019 44.6289L55.2237 44.8043L55.2238 44.8044L55.4019 44.6289ZM55.4019 45.8995L55.2238 45.724L55.2234 45.7244L55.4019 45.8995ZM54.1521 45.8995L54.3303 45.7242V45.7242L54.1521 45.8995ZM50.7838 42.4764L50.6056 42.6517V42.6517L50.7838 42.4764ZM50.018 42.1298L50.008 42.3796L50.009 42.3797L50.018 42.1298ZM49.3512 42.3824L49.1733 42.2068L49.173 42.2071L49.3512 42.3824ZM49.1027 43.0596L48.8529 43.0681L48.8529 43.0683L49.1027 43.0596ZM49.4442 43.8378L49.2658 44.0129L49.2661 44.0133L49.4442 43.8378ZM49.4447 43.8383L49.6229 43.663L49.6228 43.6629L49.4447 43.8383ZM52.2114 46.6501L52.0332 46.8254L52.0333 46.8255L52.2114 46.6501ZM52.2114 47.9206L52.0332 47.7453L52.0329 47.7456L52.2114 47.9206ZM50.9616 47.9206L50.7834 48.096V48.096L50.9616 47.9206ZM47.4777 44.3799L47.2995 44.5553L47.4777 44.3799ZM46.7119 44.0334L46.7209 43.7836L46.7181 43.7835L46.7119 44.0334ZM46.0456 44.286L45.8679 44.1101L45.8672 44.1108L46.0456 44.286ZM46.1385 45.7419L45.9602 45.9171L45.9603 45.9172L46.1385 45.7419ZM49.576 49.2354L49.3978 49.4107L49.398 49.4109L49.576 49.2354ZM49.576 50.506L49.398 50.3305L49.3978 50.3306L49.576 50.506ZM48.3258 50.506L48.1476 50.6813V50.6813L48.3258 50.506ZM44.8888 47.013L45.067 46.8377L45.0497 46.82L45.0292 46.8062L44.8888 47.013ZM44.8873 47.012L44.7092 47.1874L44.7265 47.205L44.7469 47.2188L44.8873 47.012ZM44.8847 47.0089L45.063 46.8336L45.0629 46.8336L44.8847 47.0089ZM39.754 41.7946L39.5758 41.97L39.754 41.7946ZM38.9882 41.4481L38.9787 41.6979L38.9792 41.6979L38.9882 41.4481ZM38.3219 41.7007L38.1437 41.5253L38.1436 41.5254L38.3219 41.7007ZM38.4144 43.1561L38.236 43.3313L38.2362 43.3314L38.4144 43.1561ZM46.9983 51.8787L46.8201 52.0541L46.8203 52.0542L46.9983 51.8787ZM47.1953 52.8449L46.9624 52.754L46.9624 52.754L47.1953 52.8449ZM46.4007 53.4116L46.393 53.1618L46.3929 53.1618L46.4007 53.4116ZM42.4161 53.5364L42.4216 53.7863L42.4239 53.7863L42.4161 53.5364ZM40.7168 55.1499L40.9667 55.1447V55.1447L40.7168 55.1499ZM42.4742 56.6885L42.4782 56.9384L42.4796 56.9384L42.4742 56.6885ZM48.8203 56.5504L48.8178 56.3004L48.8149 56.3004L48.8203 56.5504ZM31.838 33.841L32.0162 33.6657L32.0162 33.6657L31.838 33.841ZM30.5877 33.841L30.7658 34.0165L30.7659 34.0163L30.5877 33.841ZM34.3975 36.4433L34.2193 36.6186L34.2193 36.6186L34.3975 36.4433ZM34.3975 37.7139L34.2195 37.5384L34.2191 37.5388L34.3975 37.7139ZM33.1478 37.7139L32.9696 37.8892L32.9696 37.8892L33.1478 37.7139ZM30.5877 35.1116L30.7659 34.9363L30.7659 34.9362L30.5877 35.1116ZM36.4282 35.6881L36.6064 35.8634L36.6064 35.8634L36.4282 35.6881ZM38.9504 33.1243L38.7722 32.949L38.7722 32.949L38.9504 33.1243ZM36.4282 36.9587L36.6064 36.7833L36.6063 36.7832L36.4282 36.9587ZM37.6779 36.9587L37.4997 36.7833L37.4995 36.7836L37.6779 36.9587ZM40.2001 34.3949L40.0219 34.2196L40.0219 34.2196L40.2001 34.3949ZM40.2001 33.1243L40.0218 33.2995L40.022 33.2998L40.2001 33.1243ZM32.3314 39.8515L32.5096 40.0269V40.0269L32.3314 39.8515ZM29.8087 42.4153L29.9867 42.5908L29.9869 42.5907L29.8087 42.4153ZM33.5811 39.8515L33.4029 40.0269L33.4029 40.0269L33.5811 39.8515ZM33.5811 41.1221L33.403 40.9467L33.4029 40.9468L33.5811 41.1221ZM31.0584 43.6859L30.8802 43.5106L30.8799 43.5108L31.0584 43.6859ZM29.8087 43.6859L29.9869 43.5106L29.9869 43.5106L29.8087 43.6859ZM46.0192 28.4239L46.1722 28.2262L46.1721 28.2262L46.0192 28.4239ZM48.4095 30.2731L48.5627 30.0755L48.5625 30.0753L48.4095 30.2731ZM45.851 27.1651L46.051 27.3151L46.0511 27.315L45.851 27.1651ZM47.0896 26.9942L46.9364 27.1918L46.9366 27.1919L47.0896 26.9942ZM48.7975 28.3151L48.6445 28.5128L48.8395 28.6636L48.9931 28.4708L48.7975 28.3151ZM51.4394 24.9967L51.635 25.1524L51.635 25.1523L51.4394 24.9967ZM52.6825 24.8632L52.8413 24.67L52.8412 24.67L52.6825 24.8632ZM52.8139 26.1266L52.6183 25.9708L52.6183 25.9709L52.8139 26.1266ZM49.632 30.1232L49.4364 29.9674L49.4362 29.9676L49.632 30.1232ZM65.0639 50.2349L60.0347 42.479L59.6151 42.751L64.6444 50.507L65.0639 50.2349ZM64.9184 51.676C65.2989 51.2906 65.3582 50.6885 65.0638 50.2349L64.6444 50.507C64.8118 50.7649 64.7771 51.1074 64.5626 51.3247L64.9184 51.676ZM55.2355 61.5165L64.9187 51.6757L64.5623 51.325L54.8792 61.1658L55.2355 61.5165ZM54.432 61.8545C54.7267 61.8545 55.0175 61.738 55.2355 61.5165L54.8792 61.1658C54.7567 61.2902 54.5949 61.3545 54.432 61.3545V61.8545ZM53.8671 61.7019C54.0439 61.8049 54.2391 61.8545 54.432 61.8545V61.3545C54.3248 61.3545 54.2169 61.3271 54.1189 61.2699L53.8671 61.7019ZM49.7028 59.2768L53.8672 61.7019L54.1188 61.2699L49.9544 58.8447L49.7028 59.2768ZM50.0786 62.122V59.0607H49.5786V62.122H50.0786ZM45.0287 67.25C47.817 67.25 50.0786 64.9458 50.0786 62.122H49.5786C49.5786 64.6773 47.5333 66.75 45.0287 66.75V67.25ZM25.7999 67.25H45.0287V66.75H25.7999V67.25ZM20.75 62.122C20.75 64.9458 23.0116 67.25 25.7999 67.25V66.75C23.2953 66.75 21.25 64.6773 21.25 62.122H20.75ZM20.75 25.9074V62.122H21.25V25.9074H20.75ZM25.7999 20.7793C23.0116 20.7793 20.75 23.0836 20.75 25.9074H21.25C21.25 23.3521 23.2953 21.2793 25.7999 21.2793V20.7793ZM43.5123 20.7793H25.7999V21.2793H43.5123V20.7793ZM48.9451 18.75C46.812 18.75 44.86 19.5396 43.3492 20.8399L43.6754 21.2188C45.1004 19.9923 46.9381 19.25 48.9451 19.25V18.75ZM57.6179 27.5599C57.6179 22.7058 53.7318 18.75 48.9451 18.75V19.25C53.448 19.25 57.1179 22.9742 57.1179 27.5599H57.6179ZM49.8556 36.3202C54.215 35.8557 57.6179 32.102 57.6179 27.5599H57.1179C57.1179 31.8498 53.9044 35.386 49.8026 35.823L49.8556 36.3202ZM50.0791 40.3484V36.0716H49.5791V40.3484H50.0791ZM51.4919 40.4941C50.9685 40.1994 50.3886 40.0663 49.815 40.0988L49.8432 40.598C50.3203 40.571 50.8053 40.6813 51.2466 40.9298L51.4919 40.4941ZM51.7853 39.5964C51.4931 39.8928 51.2759 40.2433 51.1348 40.6253L51.6038 40.7985C51.7214 40.4803 51.9011 40.1911 52.1414 39.9474L51.7853 39.5964ZM55.7927 39.4812C55.4059 39.2784 54.7691 38.9425 54.054 38.8377C53.3242 38.7307 52.5056 38.8639 51.7851 39.5967L52.1416 39.9472C52.7289 39.3499 53.3767 39.2438 53.9815 39.3324C54.601 39.4232 55.167 39.7177 55.5606 39.924L55.7927 39.4812ZM55.9065 39.5497C55.8691 39.5239 55.8311 39.5014 55.7929 39.4813L55.5604 39.924C55.5828 39.9357 55.6034 39.9481 55.6226 39.9613L55.9065 39.5497ZM59.7215 42.1575L55.9056 39.5491L55.6235 39.9619L59.4393 42.5703L59.7215 42.1575ZM60.0351 42.4796C59.9527 42.3517 59.8457 42.2424 59.7214 42.1575L59.4394 42.5704C59.5091 42.6179 59.5688 42.6791 59.6147 42.7504L60.0351 42.4796ZM44.4366 43.6563L41.1819 40.3487L40.8255 40.6994L44.0802 44.007L44.4366 43.6563ZM44.6166 42.8395C44.3545 43.1059 44.1658 43.4134 44.0286 43.7331L44.4881 43.9302C44.6056 43.6565 44.7623 43.4044 44.973 43.1902L44.6166 42.8395ZM46.7802 41.9873C45.9625 41.9621 45.1869 42.2594 44.6165 42.8396L44.9731 43.1901C45.4413 42.7138 46.0801 42.466 46.7648 42.487L46.7802 41.9873ZM47.4949 42.1067C47.2699 42.0439 47.0315 41.9959 46.781 41.9873L46.7639 42.487C46.962 42.4938 47.1591 42.5321 47.3604 42.5883L47.4949 42.1067ZM47.8782 40.9917C47.5329 41.3602 47.3034 41.806 47.1849 42.2878L47.6704 42.4072C47.7701 42.0019 47.9609 41.6346 48.243 41.3336L47.8782 40.9917ZM47.8106 36.0716V41.1627H48.3106V36.0716H47.8106ZM40.3206 28.4839C40.7451 32.6024 43.9743 35.888 48.0341 36.3202L48.0871 35.823C44.2676 35.4163 41.2189 32.3217 40.818 28.4327L40.3206 28.4839ZM22.768 28.7083H40.5693V28.2083H22.768V28.7083ZM23.018 59.3436V28.4583H22.518V59.3436H23.018ZM48.0606 59.0936H22.768V59.5936H48.0606V59.0936ZM47.8106 58.3646V59.3436H48.3106V58.3646H47.8106ZM42.5165 58.7352L48.066 58.6146L48.0552 58.1147L42.5056 58.2353L42.5165 58.7352ZM42.4318 58.7363C42.4614 58.7363 42.49 58.7357 42.516 58.7352L42.5062 58.2353C42.4796 58.2358 42.4557 58.2363 42.4318 58.2363V58.7363ZM38.6983 55.1948C38.7408 57.1721 40.4148 58.7363 42.4318 58.7363V58.2363C40.6702 58.2363 39.2345 56.8732 39.1982 55.1841L38.6983 55.1948ZM42.3637 51.4912C40.3084 51.5361 38.6558 53.1891 38.6983 55.1947L39.1982 55.1841C39.1619 53.4709 40.5786 52.0303 42.3746 51.9911L42.3637 51.4912ZM44.294 51.4307L42.3613 51.4913L42.377 51.991L44.3096 51.9304L44.294 51.4307ZM36.9859 44.602L44.1236 51.8559L44.48 51.5052L37.3423 44.2513L36.9859 44.602ZM36.8935 40.2547C35.7315 41.4356 35.7875 43.3846 36.986 44.602L37.3423 44.2513C36.3201 43.213 36.2943 41.5766 37.2499 40.6054L36.8935 40.2547ZM39.0585 39.4025C38.2348 39.3706 37.4621 39.6757 36.8933 40.2549L37.25 40.6052C37.7188 40.1279 38.3544 39.8756 39.0391 39.9021L39.0585 39.4025ZM41.1819 40.3487C40.6105 39.7679 39.8558 39.4304 39.0576 39.4025L39.0401 39.9022C39.7068 39.9255 40.3412 40.2072 40.8255 40.6994L41.1819 40.3487ZM48.9451 21.0468C52.4726 21.0468 55.3499 23.9651 55.3499 27.5599H55.8499C55.8499 23.6966 52.7563 20.5468 48.9451 20.5468V21.0468ZM42.5403 27.5599C42.5403 23.9651 45.4176 21.0468 48.9451 21.0468V20.5468C45.1339 20.5468 42.0403 23.6966 42.0403 27.5599H42.5403ZM48.9451 34.073C45.4176 34.073 42.5403 31.1548 42.5403 27.5599H42.0403C42.0403 31.4233 45.1339 34.573 48.9451 34.573V34.073ZM55.3499 27.5599C55.3499 31.1548 52.4726 34.073 48.9451 34.073V34.573C52.7563 34.573 55.8499 31.4233 55.8499 27.5599H55.3499ZM25.7999 23.0761H41.9332V22.5761H25.7999V23.0761ZM23.018 25.9074C23.018 24.3429 24.2702 23.0761 25.7999 23.0761V22.5761C23.9865 22.5761 22.518 24.0744 22.518 25.9074H23.018ZM23.018 26.6615V25.9074H22.518V26.6615H23.018ZM40.5693 26.4115H22.768V26.9115H40.5693V26.4115ZM41.7241 22.6891C40.9674 23.8432 40.4698 25.1873 40.3206 26.6359L40.818 26.6871C40.9587 25.3204 41.428 24.0525 42.1423 22.9632L41.7241 22.6891ZM45.0292 64.9532H25.7999V65.4532H45.0292V64.9532ZM47.8106 62.122C47.8111 63.6869 46.5589 64.9532 45.0292 64.9532V65.4532C46.8426 65.4532 48.3111 63.9555 48.3106 62.1219L47.8106 62.122ZM47.8106 61.1399V62.122H48.3106V61.1399H47.8106ZM22.768 61.3899H48.0606V60.8899H22.768V61.3899ZM23.018 62.122V61.1399H22.518V62.122H23.018ZM25.7999 64.9532C24.2697 64.9532 23.018 63.687 23.018 62.122H22.518C22.518 63.9555 23.986 65.4532 25.7999 65.4532V64.9532ZM54.4118 59.3689L49.4043 56.4529L49.1527 56.885L54.1602 59.8009L54.4118 59.3689ZM62.8028 50.5729L54.1078 59.4096L54.4642 59.7602L63.1592 50.9236L62.8028 50.5729ZM58.2361 43.8907L62.7713 50.8843L63.1908 50.6123L58.6556 43.6186L58.2361 43.8907ZM54.6794 41.483L58.3048 43.961L58.5869 43.5483L54.9615 41.0702L54.6794 41.483ZM53.3912 41.2179C53.4391 41.169 53.4633 41.1463 53.4921 41.1302C53.5147 41.1175 53.5518 41.1026 53.6252 41.1035C53.7897 41.1056 54.1015 41.1859 54.7055 41.4986L54.9354 41.0546C54.3219 40.7369 53.921 40.6072 53.6315 40.6036C53.4779 40.6016 53.3527 40.6349 53.247 40.6944C53.1474 40.7504 53.0772 40.8239 53.0339 40.8682L53.3912 41.2179ZM53.2139 41.7116C53.2069 41.508 53.2745 41.3365 53.3908 41.2184L53.0344 40.8677C52.8122 41.0935 52.703 41.4025 52.7142 41.7287L53.2139 41.7116ZM53.4839 42.3233C53.3155 42.1518 53.2217 41.9342 53.2139 41.7114L52.7142 41.7289C52.7266 42.0822 52.8752 42.417 53.1271 42.6736L53.4839 42.3233ZM55.5801 44.4536L53.4837 42.3231L53.1273 42.6738L55.2237 44.8043L55.5801 44.4536ZM55.5799 46.075C56.0214 45.627 56.0214 44.9014 55.5799 44.4534L55.2238 44.8044C55.4734 45.0577 55.4734 45.4707 55.2238 45.724L55.5799 46.075ZM54.777 46.4129C55.0682 46.4129 55.3595 46.2997 55.5803 46.0746L55.2234 45.7244C55.0997 45.8505 54.9384 45.9129 54.777 45.9129V46.4129ZM53.9739 46.0748C54.195 46.2995 54.4856 46.4129 54.777 46.4129V45.9129C54.6158 45.9129 54.4548 45.8506 54.3303 45.7242L53.9739 46.0748ZM50.6056 42.6517L53.9739 46.0749L54.3303 45.7242L50.962 42.301L50.6056 42.6517ZM50.009 42.3797C50.2251 42.3875 50.4378 42.4812 50.6056 42.6517L50.962 42.301C50.7095 42.0444 50.3777 41.8927 50.0271 41.88L50.009 42.3797ZM49.5292 42.558C49.6459 42.4398 49.8169 42.372 50.008 42.3796L50.028 41.88C49.7069 41.8672 49.396 41.9811 49.1733 42.2068L49.5292 42.558ZM49.3526 43.051C49.3456 42.8474 49.4132 42.6759 49.5294 42.5578L49.173 42.2071C48.9509 42.4329 48.8417 42.7419 48.8529 43.0681L49.3526 43.051ZM49.6226 43.6627C49.4542 43.4912 49.3604 43.2736 49.3526 43.0508L48.8529 43.0683C48.8652 43.4215 49.0139 43.7563 49.2658 44.0129L49.6226 43.6627ZM49.6228 43.6629L49.6223 43.6624L49.2661 44.0133L49.2666 44.0138L49.6228 43.6629ZM52.3896 46.4747L49.6229 43.663L49.2665 44.0137L52.0332 46.8254L52.3896 46.4747ZM52.3896 48.096C52.8307 47.6476 52.8309 46.9226 52.3894 46.4746L52.0333 46.8255C52.2828 47.0788 52.283 47.4914 52.0332 47.7453L52.3896 48.096ZM51.5865 48.434C51.8777 48.434 52.169 48.3208 52.3898 48.0957L52.0329 47.7456C51.9092 47.8716 51.7479 47.934 51.5865 47.934V48.434ZM50.7834 48.096C51.0045 48.3207 51.2951 48.434 51.5865 48.434V47.934C51.4253 47.934 51.2643 47.8718 51.1398 47.7453L50.7834 48.096ZM47.2995 44.5553L50.7834 48.096L51.1398 47.7453L47.6559 44.2046L47.2995 44.5553ZM46.7028 44.2832C46.9194 44.2911 47.1316 44.3847 47.2995 44.5553L47.6559 44.2046C47.4034 43.9481 47.0721 43.7963 46.7209 43.7836L46.7028 44.2832ZM46.2232 44.4619C46.3382 44.3457 46.5167 44.2786 46.7056 44.2833L46.7181 43.7835C46.412 43.7759 46.0934 43.8823 45.8679 44.1101L46.2232 44.4619ZM46.3168 45.5667C45.9777 45.2216 45.9769 44.7125 46.2239 44.4612L45.8672 44.1108C45.3888 44.5977 45.4729 45.4213 45.9602 45.9171L46.3168 45.5667ZM49.7542 49.06L46.3167 45.5666L45.9603 45.9172L49.3978 49.4107L49.7542 49.06ZM49.7541 50.6814C50.1955 50.2335 50.1955 49.5079 49.7541 49.0599L49.398 49.4109C49.6476 49.6642 49.6476 50.0772 49.398 50.3305L49.7541 50.6814ZM48.1476 50.6813C48.5911 51.132 49.3108 51.132 49.7542 50.6813L49.3978 50.3306C49.1503 50.5822 48.7516 50.5822 48.504 50.3306L48.1476 50.6813ZM44.7106 47.1883L48.1476 50.6813L48.504 50.3306L45.067 46.8377L44.7106 47.1883ZM44.7469 47.2188L44.7484 47.2198L45.0292 46.8062L45.0277 46.8051L44.7469 47.2188ZM44.7065 47.1842C44.6994 47.177 44.694 47.1705 44.6902 47.1659C44.687 47.1618 44.6844 47.1582 44.685 47.1591C44.685 47.1591 44.6852 47.1594 44.6855 47.1598C44.6858 47.1602 44.6862 47.1607 44.6868 47.1614C44.6878 47.1628 44.6894 47.165 44.6915 47.1675C44.6956 47.1727 44.7016 47.1797 44.7092 47.1874L45.0654 46.8365C45.0725 46.8438 45.078 46.8502 45.0817 46.8549C45.085 46.859 45.0876 46.8626 45.087 46.8618C45.087 46.8618 45.0868 46.8615 45.0865 46.8611C45.0862 46.8607 45.0858 46.8602 45.0853 46.8595C45.0842 46.8581 45.0826 46.856 45.0806 46.8535C45.0765 46.8483 45.0706 46.8413 45.063 46.8336L44.7065 47.1842ZM39.5758 41.97L44.7065 47.1842L45.0629 46.8336L39.9322 41.6193L39.5758 41.97ZM38.9792 41.6979C39.1957 41.7058 39.4079 41.7994 39.5758 41.97L39.9322 41.6193C39.6798 41.3627 39.3485 41.211 38.9972 41.1982L38.9792 41.6979ZM38.5001 41.876C38.6173 41.7569 38.7748 41.6902 38.9787 41.6979L38.9977 41.1983C38.6611 41.1855 38.3649 41.3005 38.1437 41.5253L38.5001 41.876ZM38.5927 42.9808C38.2541 42.6363 38.2532 42.1273 38.5002 41.8759L38.1436 41.5254C37.6652 42.0123 37.7492 42.8359 38.236 43.3313L38.5927 42.9808ZM47.1765 51.7034L38.5925 42.9807L38.2362 43.3314L46.8201 52.0541L47.1765 51.7034ZM47.4282 52.9358C47.5935 52.5121 47.4957 52.0271 47.1763 51.7032L46.8203 52.0542C47 52.2365 47.0567 52.5124 46.9624 52.754L47.4282 52.9358ZM46.4083 53.6615C46.8632 53.6476 47.2627 53.3598 47.4282 52.9358L46.9624 52.754C46.8682 52.9953 46.6434 53.1541 46.393 53.1618L46.4083 53.6615ZM42.4239 53.7863L46.4085 53.6615L46.3929 53.1618L42.4083 53.2865L42.4239 53.7863ZM40.9667 55.1447C40.9519 54.4354 41.5783 53.8048 42.4216 53.7863L42.4106 53.2864C41.3364 53.31 40.4453 54.1271 40.4669 55.1551L40.9667 55.1447ZM42.4702 56.4385C41.6448 56.4516 40.9816 55.8526 40.9667 55.1447L40.4669 55.1551C40.4884 56.1855 41.4275 56.9551 42.4782 56.9384L42.4702 56.4385ZM48.8149 56.3004L42.4688 56.4385L42.4796 56.9384L48.8258 56.8003L48.8149 56.3004ZM49.4042 56.4529C49.2225 56.3471 49.0097 56.2984 48.8178 56.3004L48.8229 56.8004C48.933 56.7992 49.0557 56.8286 49.1528 56.8851L49.4042 56.4529ZM32.0162 33.6657C31.5727 33.215 30.853 33.215 30.4095 33.6657L30.7659 34.0163C31.0135 33.7647 31.4122 33.7647 31.6598 34.0163L32.0162 33.6657ZM34.5758 36.268L32.0162 33.6657L31.6597 34.0163L34.2193 36.6186L34.5758 36.268ZM34.5756 37.8893C35.0171 37.4413 35.0169 36.7163 34.5757 36.2679L34.2193 36.6186C34.4692 36.8725 34.469 37.2851 34.2195 37.5384L34.5756 37.8893ZM33.7727 38.2272C34.0638 38.2272 34.3552 38.114 34.576 37.8889L34.2191 37.5388C34.0954 37.6648 33.9341 37.7272 33.7727 37.7272V38.2272ZM32.9696 37.8892C33.1907 38.1139 33.4813 38.2272 33.7727 38.2272V37.7272C33.6115 37.7272 33.4504 37.665 33.326 37.5385L32.9696 37.8892ZM30.4095 35.2869L32.9696 37.8892L33.326 37.5385L30.7659 34.9363L30.4095 35.2869ZM30.4097 33.6655C29.9682 34.1135 29.9683 34.8386 30.4095 35.2869L30.7659 34.9362C30.5161 34.6823 30.5163 34.2697 30.7658 34.0165L30.4097 33.6655ZM36.6064 35.8634L39.1286 33.2996L38.7722 32.949L36.25 35.5128L36.6064 35.8634ZM36.6063 36.7832C36.3567 36.53 36.3565 36.1173 36.6064 35.8634L36.25 35.5127C35.8088 35.9611 35.8086 36.6861 36.2501 37.1341L36.6063 36.7832ZM37.053 36.972C36.8918 36.972 36.7308 36.9098 36.6064 36.7833L36.25 37.134C36.4711 37.3587 36.7616 37.472 37.053 37.472V36.972ZM37.4995 36.7836C37.3758 36.9097 37.2145 36.972 37.053 36.972V37.472C37.3442 37.472 37.6355 37.3588 37.8564 37.1338L37.4995 36.7836ZM40.0219 34.2196L37.4997 36.7833L37.8561 37.134L40.3783 34.5702L40.0219 34.2196ZM40.022 33.2998C40.2716 33.553 40.2717 33.9656 40.0219 34.2196L40.3783 34.5703C40.8195 34.1219 40.8197 33.3969 40.3782 32.9488L40.022 33.2998ZM39.1286 33.2997C39.3762 33.048 39.7748 33.0482 40.0218 33.2995L40.3784 32.9491C39.9354 32.4982 39.2156 32.4984 38.7722 32.949L39.1286 33.2997ZM32.1532 39.6762L29.6305 42.24L29.9869 42.5907L32.5096 40.0269L32.1532 39.6762ZM33.7593 39.6762C33.3157 39.2254 32.596 39.2261 32.1532 39.6762L32.5096 40.0269C32.7567 39.7757 33.1554 39.7754 33.4029 40.0269L33.7593 39.6762ZM33.7591 41.2976C34.2006 40.8496 34.2005 40.1246 33.7593 39.6762L33.4029 40.0269C33.6527 40.2808 33.6526 40.6934 33.403 40.9467L33.7591 41.2976ZM31.2366 43.8612L33.7593 41.2975L33.4029 40.9468L30.8802 43.5106L31.2366 43.8612ZM30.4335 44.1993C30.7247 44.1993 31.016 44.0861 31.2368 43.861L30.8799 43.5108C30.7563 43.6369 30.595 43.6993 30.4335 43.6993V44.1993ZM29.6305 43.8612C29.8515 44.0859 30.1421 44.1993 30.4335 44.1993V43.6993C30.2723 43.6993 30.1113 43.637 29.9869 43.5106L29.6305 43.8612ZM29.6306 42.2398C29.1891 42.6879 29.1893 43.4129 29.6305 43.8612L29.9869 43.5106C29.737 43.2566 29.7372 42.844 29.9867 42.5908L29.6306 42.2398ZM33.4645 62.7222H37.3647V62.2222H33.4645V62.7222ZM32.8305 63.3706C32.8305 63.0088 33.118 62.7222 33.4645 62.7222V62.2222C32.8341 62.2222 32.3305 62.7405 32.3305 63.3706H32.8305ZM33.4645 64.019C33.118 64.019 32.8305 63.7323 32.8305 63.3706H32.3305C32.3305 64.0006 32.8341 64.519 33.4645 64.519V64.019ZM37.3647 64.019H33.4645V64.519H37.3647V64.019ZM37.9987 63.3706C37.9987 63.7323 37.7112 64.019 37.3647 64.019V64.519C37.9951 64.519 38.4987 64.0006 38.4987 63.3706H37.9987ZM37.3647 62.7222C37.7112 62.7222 37.9987 63.0088 37.9987 63.3706H38.4987C38.4987 62.7405 37.9951 62.2222 37.3647 62.2222V62.7222ZM26.5954 25.892H29.5975V25.392H26.5954V25.892ZM25.4614 24.7436C25.4614 25.3738 25.9655 25.892 26.5954 25.892V25.392C26.2493 25.392 25.9614 25.1053 25.9614 24.7436H25.4614ZM26.5954 23.5952C25.965 23.5952 25.4614 24.1135 25.4614 24.7436H25.9614C25.9614 24.3819 26.2489 24.0952 26.5954 24.0952V23.5952ZM29.5975 23.5952H26.5954V24.0952H29.5975V23.5952ZM30.7315 24.7436C30.7315 24.1135 30.2279 23.5952 29.5975 23.5952V24.0952C29.944 24.0952 30.2315 24.3819 30.2315 24.7436H30.7315ZM29.5975 25.892C30.2279 25.892 30.7315 25.3737 30.7315 24.7436H30.2315C30.2315 25.1054 29.944 25.392 29.5975 25.392V25.892ZM39.0938 25.392H32.4123V25.892H39.0938V25.392ZM39.7278 24.7436C39.7278 25.1054 39.4404 25.392 39.0938 25.392V25.892C39.7243 25.892 40.2278 25.3737 40.2278 24.7436H39.7278ZM39.0938 24.0952C39.4404 24.0952 39.7278 24.3819 39.7278 24.7436H40.2278C40.2278 24.1135 39.7243 23.5952 39.0938 23.5952V24.0952ZM32.4123 24.0952H39.0938V23.5952H32.4123V24.0952ZM31.7783 24.7436C31.7783 24.3819 32.0658 24.0952 32.4123 24.0952V23.5952C31.7819 23.5952 31.2783 24.1135 31.2783 24.7436H31.7783ZM32.4123 25.392C32.0658 25.392 31.7783 25.1054 31.7783 24.7436H31.2783C31.2783 25.3737 31.7819 25.892 32.4123 25.892V25.392ZM45.8662 28.6216L48.2566 30.4708L48.5625 30.0753L46.1722 28.2262L45.8662 28.6216ZM45.6509 27.0152C45.2741 27.518 45.3684 28.2367 45.8662 28.6217L46.1721 28.2262C45.892 28.0095 45.8368 27.6008 46.051 27.3151L45.6509 27.0152ZM47.2427 26.7966C46.744 26.41 46.0299 26.5091 45.6509 27.0153L46.0511 27.315C46.2641 27.0306 46.6603 26.9778 46.9364 27.1918L47.2427 26.7966ZM48.9504 28.1173L47.2425 26.7964L46.9366 27.1919L48.6445 28.5128L48.9504 28.1173ZM51.2438 24.8409L48.6019 28.1594L48.9931 28.4708L51.635 25.1524L51.2438 24.8409ZM52.8412 24.67C52.3536 24.2695 51.6375 24.3461 51.2437 24.841L51.635 25.1523C51.8555 24.8751 52.2527 24.8337 52.5239 25.0564L52.8412 24.67ZM53.0094 26.2824C53.4012 25.7906 53.3273 25.0694 52.8413 24.67L52.5238 25.0563C52.7976 25.2813 52.8408 25.6915 52.6183 25.9708L53.0094 26.2824ZM49.8276 30.2789L53.0095 26.2823L52.6183 25.9709L49.4364 29.9674L49.8276 30.2789ZM48.9445 30.7063C49.2764 30.7063 49.605 30.5589 49.8277 30.2787L49.4362 29.9676C49.3114 30.1248 49.1288 30.2063 48.9445 30.2063V30.7063ZM48.2564 30.4707C48.4614 30.6296 48.7036 30.7063 48.9445 30.7063V30.2063C48.8105 30.2063 48.6769 30.164 48.5627 30.0755L48.2564 30.4707Z" fill="#703391"/>
</svg>
