<svg width="86" height="86" viewBox="0 0 86 86" fill="none" xmlns="http://www.w3.org/2000/svg">
<circle cx="43" cy="43" r="43" fill="#703391" fill-opacity="0.1"/>
<path d="M49.9994 41.0954C49.5016 40.9876 49.1373 40.7052 49.05 40.4948C48.9628 40.2843 49.0192 39.8274 49.2963 39.3961C49.6299 38.8776 49.5581 38.2103 49.1219 37.7739L48.2239 36.8755C47.7877 36.4391 47.1206 36.3673 46.6023 36.701C46.1713 36.9782 45.7146 37.0347 45.5042 36.9474C45.2938 36.8601 45.0115 36.4956 44.9038 35.9976C44.7704 35.397 44.2521 34.976 43.6363 34.976H42.3637C41.7479 34.976 41.2245 35.397 41.0962 35.9976C40.9885 36.4956 40.7062 36.8601 40.4958 36.9474C40.2854 37.0347 39.8287 36.9782 39.3977 36.701C38.8794 36.3673 38.2123 36.4391 37.7761 36.8755L36.8781 37.7739C36.442 38.2103 36.3701 38.8776 36.7037 39.3961C36.9808 39.8274 37.0372 40.2843 36.95 40.4948C36.8627 40.7052 36.4984 40.9876 36.0006 41.0954C35.4003 41.2289 34.9795 41.7474 34.9795 42.3634V43.6366C34.9795 44.2526 35.4003 44.7763 36.0006 44.9097C36.4984 45.0175 36.8627 45.2999 36.95 45.5104C37.0372 45.7209 36.9808 46.1778 36.7037 46.609C36.3701 47.1275 36.442 47.7949 36.8781 48.2312L37.7761 49.1296C38.2123 49.566 38.8794 49.6379 39.3977 49.3042C39.8287 49.0269 40.2854 48.9705 40.4958 49.0578C40.7062 49.145 40.9885 49.5095 41.0962 50.0075C41.2296 50.6081 41.7479 51.0291 42.3637 51.0291H43.6363C44.2521 51.0291 44.7755 50.6081 44.9038 50.0075C45.0115 49.5095 45.2938 49.145 45.5042 49.0578C45.7146 48.9705 46.1713 49.0269 46.6023 49.3042C47.1206 49.6379 47.7877 49.566 48.2239 49.1296L49.1219 48.2312C49.5581 47.7949 49.6299 47.1275 49.2963 46.609C49.0192 46.1778 48.9628 45.7209 49.05 45.5104C49.1373 45.2999 49.5016 45.0175 49.9994 44.9097C50.5997 44.7763 51.0205 44.2578 51.0205 43.6417V42.3686C51.0205 41.7474 50.6049 41.2237 49.9994 41.0954ZM49.6607 43.5904C48.7781 43.7957 48.0648 44.3296 47.7928 44.9919C47.5208 45.6541 47.6491 46.532 48.1264 47.302L47.2951 48.1337C46.5253 47.6563 45.6479 47.5279 44.9859 47.8C44.3239 48.0721 43.7954 48.7857 43.585 49.6687H42.4099C42.2046 48.7857 41.6709 48.0721 41.009 47.8C40.347 47.5279 39.4695 47.6563 38.6998 48.1337L37.8685 47.302C38.3457 46.532 38.474 45.6541 38.2021 44.9919C37.9301 44.3296 37.2168 43.7957 36.3342 43.5904V42.4148C37.2168 42.2094 37.9301 41.6755 38.2021 41.0133C38.474 40.351 38.3457 39.4732 37.8685 38.7031L38.6998 37.8714C39.4695 38.3489 40.347 38.4772 41.009 38.2051C41.6709 37.933 42.2046 37.2195 42.4099 36.3365H43.585C43.7903 37.2195 44.3239 37.933 44.9859 38.2051C45.6479 38.4772 46.5253 38.354 47.2951 37.8714L48.1264 38.7031C47.6491 39.4732 47.5208 40.351 47.7928 41.0133C48.0648 41.6755 48.7781 42.2094 49.6607 42.4148V43.5904ZM43 39.1754C40.891 39.1754 39.177 40.8901 39.177 43C39.177 45.1099 40.891 46.8246 43 46.8246C45.109 46.8246 46.823 45.1099 46.823 43C46.823 40.8901 45.109 39.1754 43 39.1754ZM43 45.4642C41.6453 45.4642 40.5369 44.3604 40.5369 43C40.5369 41.6447 41.6402 40.5358 43 40.5358C44.3598 40.5358 45.4631 41.6396 45.4631 43C45.4631 44.3553 44.3547 45.4642 43 45.4642ZM64.3675 40.3767C63.1565 40.3767 62.1456 41.2032 61.848 42.3224H54.6947V38.3745H60.1751C60.5497 38.3745 60.8576 38.0717 60.8576 37.6969V35.089C61.9711 34.7861 62.8024 33.7748 62.8024 32.5683C62.8024 31.1206 61.6273 29.945 60.1802 29.945C58.7332 29.945 57.5581 31.1206 57.5581 32.5683C57.5581 33.7799 58.3842 34.7912 59.5029 35.089V37.0141H54.7049V35.1455C54.7049 33.0252 52.9808 31.3003 50.8615 31.3003H48.4137V25.8689H61.8582C62.161 26.9829 63.1719 27.8145 64.3778 27.8145C65.8249 27.8145 67 26.6389 67 25.1912C67 23.7435 65.8249 22.5679 64.3778 22.5679C63.1668 22.5679 62.1559 23.3944 61.8582 24.5136H47.721C47.3464 24.5136 47.0385 24.8165 47.0385 25.1912V31.3055H43.6774V24.144C44.7909 23.8411 45.6222 22.8297 45.6222 21.6233C45.6222 20.1756 44.4471 19 43 19C41.5529 19 40.3778 20.1756 40.3778 21.6233C40.3778 22.8349 41.204 23.8462 42.3226 24.144V31.3003H38.9615V25.2374C38.9615 24.8627 38.6588 24.5598 38.2842 24.5598H35.6774C35.3746 23.4458 34.3637 22.6141 33.1578 22.6141C31.7107 22.6141 30.5356 23.7897 30.5356 25.2374C30.5356 26.6851 31.7107 27.8607 33.1578 27.8607C34.3688 27.8607 35.3797 27.0342 35.6774 25.9151H37.6017V31.3003H35.1488C33.0295 31.3003 31.3053 33.0252 31.3053 35.1455V36.1363H26.4561V24.144C27.5696 23.8411 28.4009 22.8297 28.4009 21.6233C28.4009 20.1756 27.2258 19 25.7787 19C24.3316 19 23.1565 20.1756 23.1565 21.6233C23.1565 22.8349 23.9827 23.8462 25.1013 24.144V36.819C25.1013 37.1938 25.4041 37.4967 25.7838 37.4967H31.3105V42.3172H24.152C23.8493 41.2032 22.8384 40.3715 21.6325 40.3715C20.1854 40.3715 19.0103 41.5472 19.0103 42.9949C19.0103 44.4426 20.1854 45.6182 21.6325 45.6182C22.8435 45.6182 23.8544 44.7917 24.152 43.6725H31.3053V47.6203H25.8249C25.4503 47.6203 25.1424 47.9232 25.1424 48.3031V50.911C24.0289 51.2139 23.1976 52.2252 23.1976 53.4317C23.1976 54.8794 24.3727 56.055 25.8198 56.055C27.2668 56.055 28.442 54.8794 28.442 53.4317C28.442 52.2201 27.6158 51.2088 26.4971 50.911V48.9859H31.2951V50.8545C31.2951 52.9748 33.0192 54.6997 35.1386 54.6997H37.5863V60.1311H24.1418C23.839 59.0171 22.8281 58.1855 21.6222 58.1855C20.1751 58.1855 19 59.3611 19 60.8088C19 62.2565 20.1751 63.4321 21.6222 63.4321C22.8332 63.4321 23.8441 62.6056 24.1418 61.4864H38.279C38.6536 61.4864 38.9615 61.1835 38.9615 60.8088V54.6997H42.3226V61.856C41.2091 62.1589 40.3778 63.1703 40.3778 64.3767C40.3778 65.8244 41.5529 67 43 67C44.4471 67 45.6222 65.8244 45.6222 64.3767C45.6222 63.1651 44.796 62.1538 43.6774 61.856V54.6997H47.0385V60.7626C47.0385 61.1373 47.3412 61.4453 47.7158 61.4453H50.3226C50.6254 62.5594 51.6363 63.391 52.8422 63.391C54.2893 63.391 55.4644 62.2154 55.4644 60.7677C55.4644 59.32 54.2893 58.1444 52.8422 58.1444C51.6312 58.1444 50.6203 58.9709 50.3226 60.0901H48.3983V54.6997H50.8461C52.9654 54.6997 54.6895 52.9748 54.6895 50.8545V49.8637H59.5388V61.856C58.4253 62.1589 57.594 63.1703 57.594 64.3767C57.594 65.8244 58.7691 67 60.2162 67C61.6632 67 62.8384 65.8244 62.8384 64.3767C62.8384 63.1651 62.0122 62.1538 60.8935 61.856V49.181C60.8935 48.8062 60.5908 48.5033 60.211 48.5033H54.6947V43.6828H61.848C62.1507 44.7968 63.1616 45.6284 64.3675 45.6284C65.8146 45.6284 66.9897 44.4528 66.9897 43.0051C66.9897 41.5523 65.8146 40.3767 64.3675 40.3767ZM58.9076 32.5632C58.9076 31.865 59.4721 31.3003 60.17 31.3003C60.8679 31.3003 61.4323 31.865 61.4323 32.5632C61.4323 33.2614 60.8679 33.8261 60.17 33.8261C59.4772 33.8261 58.9076 33.2614 58.9076 32.5632ZM64.3675 23.9232C65.0654 23.9232 65.6299 24.4879 65.6299 25.1861C65.6299 25.8843 65.0654 26.449 64.3675 26.449C63.6697 26.449 63.1052 25.8843 63.1052 25.1861C63.1052 24.493 63.6748 23.9232 64.3675 23.9232ZM41.7377 21.6233C41.7377 20.9251 42.3021 20.3604 43 20.3604C43.6979 20.3604 44.2624 20.9251 44.2624 21.6233C44.2624 22.3215 43.6979 22.8862 43 22.8862C42.3021 22.8862 41.7377 22.3164 41.7377 21.6233ZM33.1527 26.5003C32.4548 26.5003 31.8903 25.9356 31.8903 25.2374C31.8903 24.5393 32.4548 23.9745 33.1527 23.9745C33.8505 23.9745 34.415 24.5393 34.415 25.2374C34.415 25.9356 33.8454 26.5003 33.1527 26.5003ZM24.5164 21.6233C24.5164 20.9251 25.0808 20.3604 25.7787 20.3604C26.4766 20.3604 27.0411 20.9251 27.0411 21.6233C27.0411 22.3215 26.4766 22.8862 25.7787 22.8862C25.0808 22.8862 24.5164 22.3164 24.5164 21.6233ZM21.6325 44.2629C20.9346 44.2629 20.3701 43.6982 20.3701 43C20.3701 42.3018 20.9346 41.7371 21.6325 41.7371C22.3303 41.7371 22.8948 42.3018 22.8948 43C22.8948 43.6982 22.3252 44.2629 21.6325 44.2629ZM27.0924 53.4368C27.0924 54.135 26.5279 54.6997 25.83 54.6997C25.1321 54.6997 24.5677 54.135 24.5677 53.4368C24.5677 52.7386 25.1321 52.1739 25.83 52.1739C26.5228 52.1739 27.0924 52.7386 27.0924 53.4368ZM21.6325 62.0768C20.9346 62.0768 20.3701 61.5121 20.3701 60.8139C20.3701 60.1157 20.9346 59.551 21.6325 59.551C22.3303 59.551 22.8948 60.1157 22.8948 60.8139C22.8948 61.5121 22.3252 62.0768 21.6325 62.0768ZM44.2624 64.3767C44.2624 65.0749 43.6979 65.6396 43 65.6396C42.3021 65.6396 41.7377 65.0749 41.7377 64.3767C41.7377 63.6785 42.3021 63.1138 43 63.1138C43.6979 63.1138 44.2624 63.6836 44.2624 64.3767ZM52.8473 59.4997C53.5452 59.4997 54.1097 60.0644 54.1097 60.7626C54.1097 61.4607 53.5452 62.0255 52.8473 62.0255C52.1495 62.0255 51.585 61.4607 51.585 60.7626C51.585 60.0644 52.1546 59.4997 52.8473 59.4997ZM53.3348 50.8545C53.3348 52.2252 52.2213 53.3392 50.8512 53.3392H35.1488C33.7787 53.3392 32.6652 52.2252 32.6652 50.8545V35.1455C32.6652 33.7748 33.7787 32.6607 35.1488 32.6607H50.8512C52.2213 32.6607 53.3348 33.7748 53.3348 35.1455V50.8545ZM61.4836 64.3767C61.4836 65.0749 60.9192 65.6396 60.2213 65.6396C59.5234 65.6396 58.959 65.0749 58.959 64.3767C58.959 63.6785 59.5234 63.1138 60.2213 63.1138C60.9192 63.1138 61.4836 63.6836 61.4836 64.3767ZM64.3675 44.2629C63.6697 44.2629 63.1052 43.6982 63.1052 43C63.1052 42.3018 63.6697 41.7371 64.3675 41.7371C65.0654 41.7371 65.6299 42.3018 65.6299 43C65.6299 43.6982 65.0654 44.2629 64.3675 44.2629Z" fill="#703391" stroke="#703391" stroke-width="0.5"/>
</svg>
