<svg width="56" height="56" viewBox="0 0 56 56" fill="none" xmlns="http://www.w3.org/2000/svg">
<path fill-rule="evenodd" clip-rule="evenodd" d="M2.80311 1H53.1969C54.7388 1 56 1.22096 56 2.72272V41.4297C56 42.9315 54.7388 44.1597 53.1969 44.1597H2.80311C1.26124 44.1597 0 42.9315 0 41.4297V2.72272C0 1.22096 1.26124 1 2.80311 1ZM26.1707 30.34C25.9666 30.2742 25.7494 30.2381 25.5236 30.2381C25.2753 30.2381 25.037 30.2818 24.8148 30.3609L20.7741 25.4504L20.7729 25.4517C20.7181 25.3852 20.6509 25.327 20.5732 25.2814C20.2172 25.0731 19.763 25.1984 19.5583 25.5606L16.9201 30.2216C16.9002 30.2564 16.8691 30.278 16.8299 30.2837C16.7907 30.2894 16.7546 30.2773 16.726 30.2501L15.008 28.5793C15.1188 28.3172 15.1804 28.0285 15.1804 27.7252C15.1804 26.5293 14.2277 25.56 13.0524 25.56C11.877 25.56 10.9244 26.5293 10.9244 27.7252C10.9244 28.0601 10.999 28.378 11.1328 28.661L8.01609 32.1026C7.73733 32.4109 7.75724 32.8902 8.05964 33.1738C8.36267 33.4575 8.83369 33.4372 9.11244 33.1295L12.2068 29.7126C12.4662 29.8272 12.7518 29.8905 13.0524 29.8905C13.3846 29.8905 13.6988 29.8133 13.9788 29.6746L16.4976 32.1248C16.7956 32.4135 17.2673 32.4014 17.5504 32.0982C17.6033 32.0412 17.6462 31.9785 17.6786 31.912L20.2253 27.4125C20.2465 27.3757 20.2807 27.3529 20.3224 27.3498C20.3641 27.346 20.4014 27.3618 20.4288 27.3947L23.6718 31.3359C23.4957 31.6512 23.3949 32.0159 23.3949 32.404C23.3949 33.5999 24.3476 34.5692 25.5229 34.5692C26.6983 34.5692 27.6509 33.5999 27.6509 32.404C27.6509 31.9918 27.5377 31.6069 27.3417 31.2789L37.0322 18.7482C37.2643 18.8362 37.515 18.885 37.7776 18.885C38.953 18.885 39.9056 17.9157 39.9056 16.7197C39.9056 15.5238 38.953 14.5544 37.7776 14.5544C36.6022 14.5544 35.6496 15.5238 35.6496 16.7197C35.6496 17.0933 35.7423 17.4446 35.906 17.7511L26.1707 30.34ZM19.3486 16.4532C18.3705 16.4532 17.5772 17.2604 17.5772 18.2557C17.5772 19.2509 18.3705 20.0582 19.3486 20.0582C20.3268 20.0582 21.1201 19.2509 21.1201 18.2557C21.1201 17.9961 21.066 17.7498 20.9695 17.5269L22.5095 15.96C22.8013 15.663 22.8013 15.1825 22.5095 14.8856C22.2177 14.5886 21.7454 14.5886 21.4536 14.8856L19.8433 16.5241C19.6859 16.4779 19.5204 16.4532 19.3486 16.4532ZM11.3929 21.5143C11.5117 21.7733 11.77 21.9531 12.0699 21.9531H14.7311C15.1436 21.9531 15.4778 21.6131 15.4778 21.1933C15.4778 20.7736 15.1436 20.4336 14.7311 20.4336H12.5925C12.544 20.4336 12.5017 20.407 12.4805 20.362C12.2684 19.9176 12.0966 19.4485 11.9703 18.9616C11.8695 18.5741 11.798 18.1734 11.7575 17.7606H12.2951C12.7076 17.7606 13.0418 17.4206 13.0418 17.0008C13.0418 16.5811 12.7076 16.2411 12.2951 16.2411H11.7513C11.8963 14.6393 12.5179 13.178 13.4705 12.0055L13.8588 12.4006C14.1506 12.6975 14.6228 12.6975 14.9147 12.4006C15.2065 12.1043 15.2065 11.6231 14.9147 11.3262L14.5289 10.9336C15.6825 9.9732 17.1173 9.34831 18.6884 9.20712V9.73578C18.6884 10.1555 19.0226 10.4955 19.4351 10.4955C19.8476 10.4955 20.1818 10.1555 20.1818 9.73578V9.21979C21.7348 9.38566 23.1492 10.0245 24.2841 10.9919L23.9556 11.3262C23.6644 11.6231 23.6644 12.1036 23.9556 12.4006C24.2474 12.6975 24.7196 12.6975 25.0115 12.4006L25.3307 12.0764C26.2509 13.2369 26.8508 14.6716 26.9926 16.2411H26.5751C26.1626 16.2411 25.8284 16.5811 25.8284 17.0008C25.8284 17.4206 26.1626 17.7606 26.5751 17.7606H26.9864C26.946 18.1727 26.8738 18.5741 26.7736 18.9616C26.6473 19.4491 26.4749 19.9176 26.2634 20.362C26.2422 20.407 26.2005 20.4336 26.1514 20.4336H24.0116C23.599 20.4336 23.2649 20.7736 23.2649 21.1933C23.2649 21.6131 23.599 21.9531 24.0116 21.9531H26.6728C26.9721 21.9531 27.2309 21.7739 27.3498 21.5143C27.7225 20.8394 28.0149 20.1126 28.2134 19.3472C28.3833 18.6944 28.4853 18.0163 28.5115 17.3224C28.5563 17.2249 28.5818 17.116 28.5818 17.0008C28.5818 16.8881 28.5575 16.7811 28.5146 16.6849C28.4461 14.3183 27.5091 12.1739 26.017 10.569C25.9859 10.5158 25.9479 10.4658 25.9031 10.4195C25.8614 10.3771 25.816 10.3404 25.7675 10.31C24.118 8.66897 21.8612 7.65661 19.3723 7.65661C16.8467 7.65661 14.56 8.69809 12.9049 10.3828C11.2498 12.0669 10.2256 14.3936 10.2256 16.9635C10.2256 17.7827 10.3314 18.5811 10.5299 19.3465C10.7277 20.1126 11.0202 20.8394 11.3929 21.5143ZM45.4054 22.7413C45.2001 22.7413 45.0321 22.9123 45.0321 23.1212V33.7025C45.0321 33.9114 45.2001 34.0824 45.4054 34.0824H47.8078C48.0132 34.0824 48.1812 33.9114 48.1812 33.7025V23.1212C48.1812 22.9123 48.0132 22.7413 47.8078 22.7413H45.4054ZM38.9891 26.5843C38.7837 26.5843 38.6157 26.7553 38.6157 26.9642V33.7025C38.6157 33.9114 38.7837 34.0824 38.9891 34.0824H41.3915C41.5968 34.0824 41.7648 33.9114 41.7648 33.7025V26.9642C41.7648 26.7553 41.5968 26.5843 41.3915 26.5843H38.9891ZM32.4819 29.1782C32.2765 29.1782 32.1085 29.3492 32.1085 29.5581V33.7019C32.1085 33.9108 32.2765 34.0817 32.4819 34.0817H34.8843C35.0896 34.0817 35.2576 33.9108 35.2576 33.7019V29.5581C35.2576 29.3492 35.0896 29.1782 34.8843 29.1782H32.4819ZM15.838 51.226H22.9955C23.7384 49.602 24.1565 47.8217 24.3046 45.9128C24.3146 45.7805 24.4222 45.6798 24.5529 45.6798H31.4471C31.5772 45.6798 31.6848 45.7811 31.6954 45.9128C31.8435 47.8223 32.2616 49.602 33.0045 51.226H40.162C41.1818 51.226 42.0162 52.075 42.0162 53.1127V54.6201C42.0162 54.8291 41.8482 55 41.6428 55H14.3565C14.1512 55 13.9832 54.8291 13.9832 54.6201V53.1127C13.9832 52.075 14.8176 51.226 15.838 51.226ZM26.7929 42.1635H28.6415C29.054 42.1635 29.3882 41.8235 29.3882 41.4038C29.3882 40.984 29.054 40.644 28.6415 40.644H26.7929C26.3804 40.644 26.0462 40.984 26.0462 41.4038C26.0462 41.8235 26.3804 42.1635 26.7929 42.1635ZM3.84036 4.55306C3.70347 4.55306 3.59209 4.66576 3.59147 4.80505L3.42284 38.3926C3.42222 38.4623 3.44649 38.5231 3.49502 38.5725C3.54356 38.6218 3.60267 38.6472 3.67173 38.6472H52.3301C52.467 38.6472 52.5784 38.5345 52.579 38.3952L52.7476 4.80694C52.7483 4.73667 52.724 4.67652 52.6755 4.62714C52.6269 4.57776 52.5678 4.55243 52.4988 4.55243L3.84036 4.55306Z" fill="#703391"/>
</svg>
