<svg width="59" height="56" viewBox="0 0 59 56" fill="none" xmlns="http://www.w3.org/2000/svg">
<path d="M8.10503 0.0170196C8.29567 0.0166246 8.48631 0.0161166 8.67695 0.0155061C9.19792 0.0141687 9.71887 0.0144477 10.2398 0.0150075C10.8028 0.0153304 11.3658 0.0141517 11.9288 0.0131748C13.0306 0.0115128 14.1324 0.0112762 15.2342 0.0115821C16.1301 0.0118152 17.0259 0.011586 17.9217 0.0110306C18.0494 0.0109529 18.177 0.0108752 18.3085 0.0107951C18.5678 0.0106369 18.8271 0.0104784 19.0865 0.0103196C21.5168 0.00890058 23.9471 0.0091817 26.3774 0.00997818C28.5991 0.010653 30.8208 0.00918352 33.0425 0.00670152C35.3257 0.00417047 37.6089 0.00309395 39.8921 0.00358432C41.1731 0.00383377 42.4542 0.00351088 43.7353 0.00166329C44.8258 0.000106333 45.9163 -7.37569e-05 47.0069 0.00150534C47.5629 0.00227302 48.1189 0.00242078 48.6748 0.000852258C49.1846 -0.000569131 49.6944 -0.000155845 50.2041 0.00166974C50.3877 0.00201428 50.5713 0.00170961 50.755 0.000659797C52.9486 -0.0110043 54.9651 0.491678 56.5896 2.03384C57.9803 3.52905 58.6188 5.11017 58.6066 7.13465C58.6077 7.34818 58.6077 7.34818 58.6088 7.56603C58.6106 8.04005 58.6097 8.51402 58.6088 8.98805C58.6095 9.32912 58.6104 9.67019 58.6115 10.0113C58.6137 10.8398 58.6138 11.6683 58.6132 12.4968C58.6126 13.1706 58.6128 13.8444 58.6135 14.5182C58.6136 14.6143 58.6137 14.7105 58.6138 14.8095C58.614 15.0048 58.6142 15.2001 58.6144 15.3954C58.6162 17.2244 58.6155 19.0535 58.614 20.8826C58.6127 22.5534 58.6144 24.2243 58.6175 25.8951C58.6207 27.6136 58.622 29.332 58.6211 31.0505C58.6206 32.0141 58.6209 32.9778 58.6232 33.9414C58.6253 34.8478 58.6247 35.7541 58.6223 36.6604C58.6218 36.9924 58.6222 37.3244 58.6236 37.6563C58.6253 38.1108 58.6238 38.5652 58.6215 39.0197C58.6227 39.1499 58.624 39.2801 58.6253 39.4142C58.6058 41.2971 57.7668 42.9332 56.5008 44.2955C55.2861 45.4261 53.6513 46.1538 51.9831 46.1522C51.8449 46.1524 51.7067 46.1525 51.5643 46.1527C51.414 46.1522 51.2638 46.1518 51.109 46.1513C50.9497 46.1513 50.7904 46.1513 50.6263 46.1514C50.1908 46.1513 49.7552 46.1506 49.3196 46.1497C48.864 46.1489 48.4083 46.1488 47.9527 46.1487C47.0904 46.1483 46.2281 46.1472 45.3658 46.1459C44.3839 46.1444 43.402 46.1437 42.4201 46.143C40.4007 46.1417 38.3813 46.1394 36.3619 46.1365C36.3619 47.0412 36.3619 47.9459 36.3619 48.8781C36.738 48.8754 37.1141 48.8726 37.5016 48.8698C38.748 48.8611 39.9945 48.8554 41.2409 48.851C41.9962 48.8483 42.7515 48.8446 43.5068 48.8387C44.2364 48.833 44.9661 48.8299 45.6958 48.8286C45.9734 48.8276 46.2509 48.8257 46.5285 48.8229C48.5246 48.8033 50.1184 48.8641 51.6367 50.3142C52.5843 51.3316 53.137 52.686 53.108 54.0844C53.0442 54.5864 52.8882 55.0267 52.5506 55.4058C51.6157 56.0072 50.7944 56.0018 49.7024 55.9943C49.5192 55.9949 49.3359 55.9957 49.1527 55.9968C48.6509 55.9989 48.1492 55.9979 47.6475 55.9963C47.1057 55.9951 46.5639 55.9969 46.0221 55.9983C44.9614 56.0007 43.9008 56.0002 42.8401 55.9986C41.978 55.9975 41.1159 55.9973 40.2538 55.9979C40.131 55.998 40.0083 55.998 39.8818 55.9981C39.6325 55.9983 39.3831 55.9984 39.1337 55.9986C36.7959 56.0001 34.4581 55.9984 32.1204 55.9956C30.1149 55.9933 28.1095 55.9937 26.104 55.9961C23.7745 55.9989 21.4451 56 19.1156 55.9984C18.8671 55.9982 18.6187 55.998 18.3702 55.9979C18.1869 55.9977 18.1869 55.9978 17.9998 55.9976C17.1389 55.9972 16.2779 55.9979 15.4169 55.9992C14.3675 56.0006 13.3182 56.0002 12.2688 55.9975C11.7335 55.9961 11.1982 55.9955 10.6629 55.9973C10.1726 55.9988 9.68242 55.998 9.19214 55.9952C8.9313 55.9943 8.67047 55.996 8.40964 55.9978C7.4825 55.9897 6.85937 55.9114 6.07348 55.4058C5.6787 54.9626 5.56452 54.4591 5.48599 53.8799C5.57259 52.4134 6.20847 51.0174 7.2811 50.0204C8.09961 49.366 9.08107 48.861 10.142 48.8624C10.3029 48.8621 10.3029 48.8621 10.4671 48.8619C10.5836 48.8623 10.7001 48.8628 10.8202 48.8633C11.0056 48.8632 11.0056 48.8632 11.1947 48.8632C11.603 48.8633 12.0113 48.8643 12.4196 48.8653C12.7028 48.8656 12.986 48.8658 13.2691 48.8659C14.0143 48.8664 14.7595 48.8677 15.5047 48.8691C16.2652 48.8705 17.0256 48.8711 17.7861 48.8717C19.2781 48.8731 20.7701 48.8754 22.2621 48.8781C22.2621 47.9734 22.2621 47.0686 22.2621 46.1365C22.0609 46.1373 21.8596 46.1382 21.6523 46.1391C19.7526 46.1471 17.8529 46.1529 15.9533 46.1568C14.9767 46.1588 14.0001 46.1615 13.0236 46.166C12.1719 46.1699 11.3202 46.1725 10.4685 46.1733C10.018 46.1738 9.5675 46.175 9.11702 46.1779C8.61268 46.1811 8.10836 46.1811 7.60401 46.1809C7.45658 46.1823 7.30915 46.1838 7.15724 46.1852C5.16659 46.1775 3.37614 45.4954 1.92892 44.1109C0.916628 42.9951 0.0539267 41.4597 0.050494 39.9184C0.049621 39.7362 0.0496211 39.7362 0.0487305 39.5502C0.0487546 39.4172 0.0487784 39.2841 0.0488032 39.1471C0.0483232 39.0054 0.047843 38.8637 0.0473485 38.7177C0.0459067 38.2413 0.0454058 37.7648 0.0449087 37.2884C0.0440909 36.9474 0.0432231 36.6065 0.042309 36.2655C0.0397304 35.2411 0.0384147 34.2166 0.0372531 33.1921C0.0366805 32.7093 0.03598 32.2264 0.0352963 31.7436C0.0330753 30.1378 0.0311831 28.532 0.0302374 26.9263C0.0299881 26.5097 0.0297373 26.0931 0.0294819 25.6765C0.0294188 25.5729 0.0293558 25.4694 0.0292907 25.3627C0.0282079 23.6867 0.0249012 22.0108 0.020659 20.3348C0.016336 18.6128 0.0139898 16.8909 0.0135731 15.1689C0.0132909 14.2026 0.0121554 13.2364 0.00881251 12.2701C0.00567308 11.3605 0.00522198 10.451 0.00656244 9.54143C0.00662707 9.20819 0.00580294 8.87495 0.00400908 8.54172C0.00169107 8.08547 0.00262602 7.62933 0.00433977 7.17308C0.00290769 7.04237 0.00147547 6.91166 0 6.77699C0.0169445 4.8981 0.839913 3.3538 2.08344 1.98488C2.62546 1.46603 3.19044 1.1068 3.85407 0.769099C3.93762 0.72649 4.02116 0.68388 4.10724 0.63998C5.39073 0.0318256 6.70727 0.012893 8.10503 0.0170196ZM4.9801 5.28952C4.89561 5.3814 4.81113 5.47329 4.72409 5.56796C4.22647 6.38797 4.20733 7.35306 4.21258 8.29003C4.21217 8.40376 4.21176 8.51749 4.21134 8.63467C4.21031 9.01258 4.21112 9.39046 4.21195 9.76837C4.21159 10.0406 4.21113 10.3128 4.21056 10.5851C4.20937 11.3223 4.20983 12.0594 4.21066 12.7966C4.21132 13.5692 4.21071 14.3417 4.2103 15.1143C4.20982 16.4115 4.21045 17.7087 4.21169 19.0059C4.21311 20.5043 4.21265 22.0026 4.21121 23.501C4.21003 24.789 4.20986 26.0769 4.21055 27.3649C4.21095 28.1334 4.21101 28.902 4.21014 29.6706C4.20939 30.3933 4.20992 31.116 4.21142 31.8387C4.21177 32.1034 4.21167 32.3682 4.21109 32.633C4.21038 32.9952 4.21128 33.3575 4.21258 33.7198C4.21199 33.8237 4.21141 33.9277 4.21081 34.0349C4.217 34.9307 4.2875 35.9137 4.84954 36.6469C4.90777 36.7271 4.966 36.8074 5.02599 36.8901C5.98215 37.7521 6.97385 37.7253 8.19778 37.7168C8.3875 37.7174 8.57721 37.7182 8.76692 37.7193C9.28652 37.7214 9.80606 37.7204 10.3257 37.7188C10.8867 37.7176 11.4477 37.7194 12.0087 37.7208C13.1071 37.7232 14.2054 37.7227 15.3038 37.7211C16.1965 37.72 17.0893 37.7198 17.982 37.7204C18.1727 37.7205 18.1727 37.7205 18.3672 37.7206C18.6254 37.7208 18.8836 37.7209 19.1418 37.7211C21.5625 37.7226 23.9832 37.7209 26.4039 37.7181C28.4806 37.7158 30.5573 37.7162 32.634 37.7186C35.0461 37.7214 37.4582 37.7225 39.8703 37.7209C40.1275 37.7207 40.3848 37.7205 40.642 37.7204C40.7686 37.7203 40.8952 37.7202 41.0256 37.7201C41.9172 37.7197 42.8087 37.7204 43.7003 37.7217C44.7869 37.7231 45.8736 37.7227 46.9602 37.72C47.5146 37.7186 48.0689 37.718 48.6232 37.7198C49.1309 37.7213 49.6385 37.7205 50.1462 37.7177C50.3296 37.7171 50.5131 37.7174 50.6965 37.7187C51.842 37.726 52.7132 37.6879 53.598 36.8901C53.6563 36.8098 53.7145 36.7296 53.7745 36.6469C53.8347 36.5683 53.895 36.4897 53.9571 36.4087C54.3722 35.5665 54.4166 34.6434 54.4115 33.7198C54.4119 33.606 54.4123 33.4923 54.4127 33.3751C54.4137 32.9972 54.4129 32.6194 54.4121 32.2414C54.4124 31.9692 54.4129 31.697 54.4135 31.4247C54.4147 30.6876 54.4142 29.9504 54.4134 29.2132C54.4127 28.4406 54.4133 27.6681 54.4137 26.8955C54.4142 25.5983 54.4136 24.3011 54.4123 23.0039C54.4109 21.5056 54.4114 20.0072 54.4128 18.5088C54.414 17.2208 54.4142 15.9329 54.4135 14.645C54.4131 13.8764 54.413 13.1078 54.4139 12.3392C54.4147 11.6165 54.4141 10.8938 54.4126 10.1712C54.4123 9.90639 54.4124 9.64162 54.4129 9.37685C54.4137 9.01456 54.4128 8.65232 54.4115 8.29003C54.412 8.18606 54.4126 8.08208 54.4132 7.97496C54.4065 6.99846 54.3287 6.03426 53.6439 5.28952C53.5203 5.14866 53.5203 5.14866 53.3941 5.00495C52.429 4.2421 51.3582 4.30343 50.185 4.30959C49.9974 4.30914 49.8099 4.30851 49.6223 4.30774C49.1087 4.30611 48.5951 4.30691 48.0814 4.30812C47.5268 4.30901 46.9722 4.30764 46.4176 4.30656C45.3318 4.30482 44.246 4.3052 43.1602 4.30633C42.2777 4.30722 41.3951 4.30734 40.5126 4.30691C40.387 4.30685 40.2613 4.30679 40.1319 4.30673C39.8766 4.30661 39.6213 4.30648 39.3661 4.30635C36.973 4.30523 34.58 4.30652 32.1869 4.30862C30.1339 4.31037 28.081 4.31007 26.028 4.30826C23.6435 4.30617 21.2589 4.30534 18.8744 4.30654C18.6201 4.30667 18.3657 4.30679 18.1114 4.30691C17.9863 4.30697 17.8612 4.30703 17.7322 4.3071C16.8509 4.30743 15.9695 4.30686 15.0881 4.30594C14.0139 4.30484 12.9397 4.30514 11.8655 4.30723C11.3175 4.30825 10.7695 4.30866 10.2215 4.30736C9.71964 4.30619 9.21781 4.30684 8.71595 4.30892C8.53463 4.30936 8.35331 4.30914 8.17199 4.30819C6.94418 4.30224 5.84668 4.30267 4.9801 5.28952ZM27.7699 40.5879C27.3098 41.1138 27.301 41.6032 27.3088 42.2754C27.3811 42.8167 27.6156 43.1542 28.0065 43.5254C28.5829 43.9225 29.1455 44.0356 29.8342 43.9171C30.3566 43.7295 30.69 43.4574 31.0663 43.0521C31.3428 42.455 31.3583 41.9535 31.2703 41.306C31.0429 40.7375 30.63 40.3013 30.0953 40.0005C29.1322 39.7174 28.5168 39.924 27.7699 40.5879Z" fill="#703391"/>
<path d="M41.1914 8.53711C41.193 8.68503 41.193 8.68503 41.1946 8.83593C41.2048 9.76567 41.2162 10.6954 41.229 11.6251C41.2355 12.1031 41.2415 12.581 41.2465 13.059C41.2513 13.5204 41.2574 13.9817 41.2643 14.443C41.2679 14.7045 41.2702 14.966 41.2725 15.2275C41.2751 15.3869 41.2777 15.5463 41.2804 15.7105C41.2821 15.8509 41.2838 15.9912 41.2856 16.1357C41.3222 16.5028 41.3821 16.7166 41.5831 17.0231C41.9025 17.2478 41.9025 17.2478 42.2935 17.4428C42.441 17.5209 42.5886 17.5989 42.7406 17.6793C42.9014 17.7625 43.0623 17.8457 43.2232 17.9288C43.3871 18.015 43.5509 18.1013 43.7147 18.1877C44.4635 18.5819 45.2156 18.9699 45.9679 19.3573C46.1974 19.4755 46.4267 19.5939 46.656 19.7122C46.9421 19.8595 47.2287 20.006 47.5157 20.1515C47.6439 20.2172 47.7721 20.283 47.9042 20.3507C48.017 20.408 48.1298 20.4652 48.246 20.5242C48.5024 20.6786 48.5024 20.6786 48.633 20.9397C47.2821 22.6732 45.5002 23.6412 43.3216 23.9139C41.084 24.0615 38.987 23.4197 37.2585 21.9841C35.8289 20.6296 34.874 18.77 34.7678 16.79C34.7238 14.4076 35.3438 12.3945 37.0137 10.626C38.0518 9.62884 39.6882 8.53711 41.1914 8.53711Z" fill="#703391"/>
<path d="M19.5604 8.36535C19.7202 8.36156 19.88 8.35777 20.0446 8.35387C21.5184 8.34345 21.5184 8.34345 22.1307 8.92836C22.4003 9.33276 22.4247 9.41947 22.4267 9.8773C22.4278 9.99095 22.4289 10.1046 22.4301 10.2217C22.43 10.346 22.4298 10.4703 22.4297 10.5984C22.4306 10.7297 22.4315 10.8609 22.4324 10.9961C22.4349 11.431 22.4354 11.8659 22.4356 12.3008C22.4365 12.6028 22.4374 12.9048 22.4383 13.2068C22.4398 13.8403 22.4403 14.4739 22.4402 15.1075C22.4401 15.9192 22.4437 16.7309 22.4482 17.5427C22.4511 18.1666 22.4516 18.7905 22.4515 19.4145C22.4518 19.7137 22.453 20.013 22.455 20.3122C22.4575 20.731 22.4568 21.1497 22.4552 21.5685C22.4567 21.692 22.4581 21.8156 22.4597 21.9428C22.4525 22.691 22.3636 23.1087 21.8696 23.6809C21.2976 23.9669 20.531 23.8465 19.8955 23.85C19.6118 23.8522 19.3282 23.858 19.0446 23.8637C18.8634 23.8651 18.6823 23.8662 18.5012 23.8671C18.3367 23.869 18.1722 23.8709 18.0028 23.8728C17.4857 23.801 17.275 23.6532 16.9085 23.2893C16.7575 22.9873 16.7603 22.812 16.7579 22.4758C16.7568 22.3599 16.7556 22.2441 16.7545 22.1247C16.7539 21.9973 16.7534 21.8698 16.7528 21.7385C16.7517 21.6045 16.7507 21.4706 16.7496 21.3326C16.7463 20.8878 16.7442 20.4431 16.7423 19.9984C16.7412 19.771 16.7412 19.771 16.7402 19.5389C16.7367 18.7365 16.7342 17.9342 16.7323 17.1318C16.7301 16.302 16.7243 15.4723 16.7176 14.6426C16.7132 14.0054 16.7117 13.3683 16.711 12.7311C16.7101 12.4252 16.7081 12.1193 16.705 11.8134C16.7009 11.3854 16.7008 10.9577 16.7018 10.5298C16.6997 10.4031 16.6975 10.2765 16.6953 10.146C16.7009 9.54596 16.7111 9.27712 17.0846 8.78747C17.8291 8.24809 18.6761 8.37227 19.5604 8.36535Z" fill="#703391"/>
<path d="M10.1414 26.5341C10.3131 26.533 10.4848 26.5318 10.6617 26.5307C10.8531 26.5301 11.0445 26.5296 11.2359 26.529C11.4366 26.528 11.6373 26.5269 11.838 26.5258C12.4983 26.5223 13.1585 26.5203 13.8188 26.5185C14.046 26.5178 14.2732 26.5171 14.5004 26.5164C15.4454 26.5136 16.3904 26.5111 17.3354 26.5096C18.6902 26.5075 20.0449 26.5032 21.3997 26.4958C22.352 26.4907 23.3043 26.4881 24.2566 26.4875C24.8255 26.487 25.3944 26.4854 25.9633 26.4812C26.4986 26.4773 27.0339 26.4764 27.5693 26.478C27.7656 26.478 27.9619 26.4769 28.1582 26.4746C29.8265 26.4562 29.8265 26.4562 30.3405 26.869C30.7235 27.3364 30.7993 27.6263 30.7948 28.2376C30.7119 28.7235 30.4425 28.9568 30.0952 29.2958C29.7323 29.4772 29.436 29.4441 29.0298 29.4456C28.8581 29.4465 28.6864 29.4474 28.5095 29.4484C28.3181 29.4488 28.1267 29.4491 27.9353 29.4495C27.7346 29.4503 27.5339 29.4512 27.3332 29.4521C26.7869 29.4543 26.2407 29.4557 25.6945 29.4568C25.3532 29.4575 25.012 29.4583 24.6708 29.4591C23.6035 29.4616 22.5361 29.4634 21.4688 29.4645C20.2363 29.4658 19.0039 29.4692 17.7715 29.4745C16.8192 29.4784 15.8669 29.4804 14.9146 29.4808C14.3457 29.4811 13.7768 29.4823 13.2079 29.4856C12.6726 29.4886 12.1372 29.4892 11.6019 29.4878C11.4056 29.4878 11.2093 29.4886 11.013 29.4904C10.7445 29.4927 10.4762 29.4918 10.2077 29.49C9.98259 29.4905 9.98259 29.4905 9.7529 29.491C9.24205 29.4116 8.95616 29.2227 8.55382 28.9041C8.31134 28.4192 8.34689 27.8655 8.42326 27.3375C8.95518 26.6516 9.30362 26.5382 10.1414 26.5341Z" fill="#703391"/>
<path d="M27.9165 12.5431C28.0763 12.5393 28.2361 12.5355 28.4007 12.5316C29.8745 12.5212 29.8745 12.5212 30.4868 13.1061C30.8061 13.5851 30.7823 13.8213 30.7858 14.3927C30.7867 14.4831 30.7876 14.5736 30.7885 14.6668C30.7909 14.9661 30.7914 15.2654 30.7917 15.5647C30.7926 15.773 30.7934 15.9813 30.7944 16.1896C30.7959 16.6265 30.7964 17.0634 30.7963 17.5003C30.7962 18.0592 30.7998 18.618 30.8043 19.1768C30.8072 19.6072 30.8077 20.0376 30.8076 20.4681C30.8079 20.674 30.809 20.88 30.8111 21.0859C30.8136 21.3747 30.8129 21.6633 30.8113 21.952C30.8117 22.1161 30.812 22.2802 30.8124 22.4492C30.7359 22.981 30.5595 23.265 30.2257 23.6809C29.6537 23.9669 28.887 23.8465 28.2516 23.85C27.9678 23.8523 27.6843 23.858 27.4006 23.8638C27.2195 23.8651 27.0384 23.8662 26.8573 23.8671C26.6928 23.869 26.5283 23.8709 26.3589 23.8728C25.8418 23.801 25.6311 23.6533 25.2646 23.2893C25.0714 22.9029 25.1132 22.5533 25.1089 22.122C25.1078 22.0288 25.1067 21.9356 25.1056 21.8396C25.1024 21.5305 25.1002 21.2214 25.0984 20.9123C25.0977 20.8067 25.097 20.7012 25.0963 20.5925C25.0928 20.0339 25.0902 19.4753 25.0884 18.9167C25.0862 18.3398 25.0803 17.763 25.0737 17.1862C25.0693 16.7426 25.0678 16.2989 25.067 15.8553C25.0662 15.6427 25.0642 15.43 25.0611 15.2174C25.0569 14.9195 25.0569 14.6219 25.0579 14.324C25.0568 14.1546 25.0558 13.9852 25.0547 13.8107C25.1547 13.2519 25.3479 13.0629 25.7868 12.7144C26.4723 12.4859 27.199 12.5487 27.9165 12.5431Z" fill="#703391"/>
<path d="M9.92829 30.7113C10.115 30.7099 10.115 30.7099 10.3054 30.7084C10.4424 30.7081 10.5794 30.7077 10.7206 30.7074C10.8645 30.7065 11.0085 30.7057 11.1568 30.7048C11.6348 30.7022 12.1128 30.7007 12.5908 30.6994C12.7538 30.6988 12.9167 30.6983 13.0847 30.6978C13.8583 30.6953 14.6319 30.6934 15.4055 30.6923C16.298 30.6911 17.1904 30.6876 18.0829 30.6823C18.8562 30.6779 19.6295 30.6764 20.4028 30.6759C20.7316 30.6752 21.0604 30.6737 21.3891 30.6713C21.8492 30.6681 22.3092 30.6682 22.7692 30.6691C22.9052 30.6675 23.0411 30.6658 23.1812 30.6641C23.9584 30.6697 24.4134 30.7304 25.0036 31.2527C25.246 31.7376 25.2105 32.2914 25.1341 32.8193C24.8482 33.1881 24.6341 33.3957 24.2202 33.6027C24.0235 33.6158 23.8263 33.6209 23.6291 33.6219C23.4424 33.6233 23.4424 33.6233 23.252 33.6247C23.0465 33.6252 23.0465 33.6252 22.8368 33.6258C22.6929 33.6266 22.5489 33.6275 22.4006 33.6284C21.9226 33.631 21.4446 33.6325 20.9666 33.6338C20.8036 33.6343 20.6406 33.6348 20.4727 33.6354C19.6991 33.6378 18.9255 33.6397 18.1519 33.6408C17.2594 33.6421 16.367 33.6455 15.4745 33.6508C14.7012 33.6552 13.9279 33.6568 13.1545 33.6573C12.8258 33.6579 12.497 33.6595 12.1683 33.6619C11.7082 33.665 11.2482 33.6649 10.7881 33.664C10.6522 33.6657 10.5163 33.6674 10.3762 33.6691C9.59896 33.6635 9.14402 33.6028 8.55382 33.0805C8.31134 32.5955 8.34689 32.0418 8.42326 31.5138C8.87931 30.9257 9.20148 30.715 9.92829 30.7113Z" fill="#703391"/>
<path d="M10.9192 15.4113C11.1092 15.4092 11.2993 15.4056 11.4893 15.4006C11.7641 15.3934 12.0386 15.3906 12.3135 15.3887C12.4779 15.3861 12.6424 15.3835 12.8119 15.3809C13.3686 15.4769 13.5546 15.6784 13.9061 16.1098C14.0644 16.4264 14.0558 16.6335 14.0598 16.9873C14.0623 17.1796 14.0623 17.1796 14.0649 17.3757C14.0658 17.5146 14.0668 17.6536 14.0678 17.7968C14.0688 17.9395 14.0699 18.0821 14.071 18.2291C14.0728 18.5316 14.0742 18.834 14.0752 19.1365C14.0774 19.5984 14.0832 20.0602 14.0889 20.5221C14.0903 20.8159 14.0914 21.1096 14.0923 21.4033C14.0945 21.5413 14.0968 21.6792 14.0992 21.8213C14.0969 22.6117 14.0495 23.0835 13.5145 23.6819C12.9425 23.9679 12.1758 23.8475 11.5404 23.851C11.2566 23.8532 10.9731 23.859 10.6894 23.8647C10.5083 23.8661 10.3272 23.8672 10.1461 23.8681C9.9816 23.87 9.81712 23.8719 9.64767 23.8738C9.13061 23.802 8.91986 23.6542 8.55342 23.2903C8.39195 22.9673 8.40369 22.7479 8.39976 22.3867C8.39808 22.2529 8.39641 22.1191 8.39468 21.9812C8.39371 21.8361 8.39275 21.691 8.39176 21.5415C8.3907 21.3928 8.38965 21.244 8.38856 21.0907C8.38676 20.7754 8.38536 20.4601 8.38433 20.1448C8.38208 19.6626 8.37635 19.1804 8.37059 18.6982C8.36927 18.3921 8.36816 18.086 8.36728 17.78C8.36385 17.5635 8.36385 17.5635 8.36035 17.3427C8.36319 16.34 8.36319 16.34 8.67113 15.8259C9.30672 15.273 10.1181 15.418 10.9192 15.4113Z" fill="#703391"/>
<path d="M36.2662 26.5193C36.3799 26.5182 36.4935 26.5171 36.6106 26.5159C36.7971 26.5161 36.7971 26.5161 36.9873 26.5163C37.1186 26.5154 37.2498 26.5145 37.385 26.5136C37.8199 26.5111 38.2548 26.5106 38.6897 26.5103C38.9917 26.5095 39.2937 26.5086 39.5957 26.5077C40.2292 26.5061 40.8628 26.5057 41.4964 26.5058C42.3082 26.5058 43.1198 26.5023 43.9316 26.4978C44.5555 26.4949 45.1795 26.4944 45.8034 26.4945C46.1027 26.4942 46.4019 26.493 46.7011 26.491C47.1199 26.4884 47.5386 26.4892 47.9574 26.4908C48.1427 26.4886 48.1427 26.4886 48.3317 26.4863C49.0799 26.4935 49.4976 26.5824 50.0698 27.0764C50.3123 27.5614 50.2767 28.1151 50.2004 28.6431C49.9144 29.0118 49.7003 29.2195 49.2865 29.4264C49.106 29.4394 48.925 29.4446 48.744 29.4456C48.5735 29.447 48.5735 29.447 48.3996 29.4484C48.2746 29.4488 48.1496 29.4491 48.0208 29.4495C47.8894 29.4503 47.758 29.4512 47.6226 29.4521C47.1863 29.4547 46.7501 29.4562 46.3139 29.4575C46.1651 29.458 46.0164 29.4586 45.8631 29.4591C45.076 29.4618 44.2888 29.4637 43.5017 29.4649C42.6877 29.4664 41.8738 29.4709 41.0599 29.476C40.4348 29.4794 39.8098 29.4805 39.1847 29.481C38.8846 29.4816 38.5845 29.4832 38.2845 29.4856C37.8647 29.4888 37.445 29.4886 37.0253 29.4877C36.839 29.4902 36.839 29.4902 36.6489 29.4928C36.092 29.4884 35.7919 29.4784 35.311 29.1767C34.9437 28.7839 34.8158 28.5413 34.7461 28.0066C34.8083 27.4883 34.9949 27.2206 35.3173 26.8153C35.7217 26.5457 35.8084 26.5213 36.2662 26.5193Z" fill="#703391"/>
<path d="M43.9336 8.53711C45.7997 9.00364 46.8964 9.54399 48.2419 10.8871C48.3171 10.9608 48.3923 11.0345 48.4698 11.1104C49.7454 12.4688 50.2724 14.3145 50.241 16.1337C50.2414 16.2571 50.2418 16.3806 50.2422 16.5078C50.2369 17.2077 50.1688 17.7974 49.9391 18.4592C49.4622 18.3833 49.102 18.2546 48.6815 18.0191C48.5652 17.9547 48.4489 17.8903 48.3291 17.824C48.1486 17.7224 48.1486 17.7224 47.9644 17.6187C46.6318 16.8752 45.2851 16.1678 43.9336 15.4564C43.9336 13.1731 43.9336 10.8897 43.9336 8.53711Z" fill="#703391"/>
<path d="M36.6029 30.693C36.6933 30.6921 36.7838 30.6912 36.877 30.6903C37.1763 30.6878 37.4756 30.6873 37.7749 30.687C37.9832 30.6862 38.1915 30.6853 38.3998 30.6844C38.8367 30.6828 39.2736 30.6823 39.7105 30.6825C40.2694 30.6825 40.8282 30.679 41.387 30.6745C41.8174 30.6716 42.2478 30.671 42.6783 30.6712C42.8842 30.6709 43.0902 30.6697 43.2961 30.6677C43.5849 30.6651 43.8735 30.6659 44.1622 30.6675C44.4083 30.6669 44.4083 30.6669 44.6594 30.6663C45.1912 30.7429 45.4752 30.9192 45.8911 31.2531C46.1336 31.738 46.0981 32.2918 46.0217 32.8197C45.7357 33.1885 45.5216 33.3961 45.1078 33.6031C44.814 33.6178 44.5198 33.6239 44.2256 33.6262C44.135 33.627 44.0443 33.6279 43.9509 33.6288C43.6503 33.6313 43.3497 33.6329 43.049 33.6342C42.9464 33.6347 42.8437 33.6352 42.738 33.6358C42.1946 33.6385 41.6513 33.6404 41.1079 33.6416C40.5468 33.643 39.9858 33.6475 39.4248 33.6527C38.9933 33.6561 38.5617 33.6572 38.1302 33.6577C37.9234 33.6583 37.7166 33.6598 37.5098 33.6623C37.2201 33.6654 36.9305 33.6653 36.6408 33.6644C36.476 33.6652 36.3113 33.666 36.1415 33.6667C35.6311 33.5918 35.42 33.4376 35.0552 33.0809C34.7564 32.654 34.7325 32.2884 34.7941 31.7753C35.2754 30.9123 35.6286 30.6989 36.6029 30.693Z" fill="#703391"/>
</svg>
