<svg width="58" height="56" viewBox="0 0 58 56" fill="none" xmlns="http://www.w3.org/2000/svg">
<path d="M25.8951 36.3687C25.8951 36.469 25.8753 36.5683 25.8368 36.6609C25.7983 36.7535 25.7419 36.8377 25.6709 36.9086C25.5998 36.9795 25.5154 37.0357 25.4225 37.0741C25.3296 37.1125 25.2301 37.1322 25.1296 37.1322H22.0138C21.9114 37.135 21.8096 37.1173 21.7143 37.0801C21.619 37.043 21.5321 36.9872 21.4587 36.916C21.3854 36.8448 21.3271 36.7596 21.2873 36.6656C21.2475 36.5716 21.227 36.4705 21.227 36.3684C21.227 36.2664 21.2475 36.1653 21.2873 36.0713C21.3271 35.9773 21.3854 35.8921 21.4587 35.8209C21.5321 35.7497 21.619 35.6939 21.7143 35.6568C21.8096 35.6196 21.9114 35.6019 22.0138 35.6047H25.1296C25.3326 35.6048 25.5273 35.6854 25.6709 35.8287C25.8144 35.9719 25.8951 36.1662 25.8951 36.3687ZM16.4082 18.9354V30.6513C16.4083 30.7516 16.3885 30.8509 16.3501 30.9436C16.3117 31.0363 16.2553 31.1205 16.1842 31.1915C16.1131 31.2624 16.0287 31.3187 15.9358 31.3571C15.8429 31.3955 15.7433 31.4153 15.6427 31.4153H12.5577C12.4571 31.4153 12.3575 31.3955 12.2646 31.3571C12.1717 31.3187 12.0873 31.2624 12.0162 31.1915C11.9451 31.1205 11.8887 31.0363 11.8503 30.9436C11.8119 30.8509 11.7921 30.7516 11.7922 30.6513V18.9354C11.792 18.835 11.8116 18.7355 11.85 18.6427C11.8884 18.5499 11.9447 18.4655 12.0158 18.3944C12.0869 18.3234 12.1714 18.267 12.2644 18.2285C12.3574 18.19 12.457 18.1702 12.5577 18.1702H15.6427C15.7434 18.1702 15.8431 18.19 15.936 18.2285C16.029 18.267 16.1135 18.3234 16.1846 18.3944C16.2557 18.4655 16.3121 18.5499 16.3504 18.6427C16.3888 18.7355 16.4084 18.835 16.4082 18.9354ZM14.8766 19.6994H13.3238V29.8878H14.8766V19.6994ZM21.9734 20.9019V30.6513C21.9735 30.7516 21.9538 30.8509 21.9153 30.9436C21.8769 31.0363 21.8205 31.1205 21.7494 31.1915C21.6783 31.2624 21.5939 31.3187 21.501 31.3571C21.4081 31.3955 21.3085 31.4153 21.2079 31.4153H18.1229C18.0223 31.4153 17.9228 31.3955 17.8298 31.3571C17.7369 31.3187 17.6525 31.2624 17.5814 31.1915C17.5103 31.1205 17.454 31.0363 17.4155 30.9436C17.3771 30.8509 17.3573 30.7516 17.3574 30.6513V20.9019C17.3574 20.6994 17.4381 20.5052 17.5816 20.362C17.7252 20.2188 17.9199 20.1384 18.1229 20.1384H21.2079C21.3084 20.1384 21.408 20.1582 21.5009 20.1965C21.5937 20.2349 21.6781 20.2911 21.7492 20.362C21.8203 20.4329 21.8767 20.5171 21.9152 20.6097C21.9536 20.7023 21.9734 20.8016 21.9734 20.9019ZM20.4418 21.6659H18.889V29.8878H20.4418V21.6659ZM10.8436 22.6802V30.6513C10.8436 30.7516 10.8239 30.851 10.7854 30.9437C10.7469 31.0365 10.6905 31.1207 10.6194 31.1917C10.5482 31.2626 10.4637 31.3189 10.3707 31.3573C10.2778 31.3957 10.1781 31.4154 10.0775 31.4153H6.99193C6.89131 31.4154 6.79166 31.3957 6.69868 31.3573C6.6057 31.3189 6.52122 31.2626 6.45007 31.1917C6.37892 31.1207 6.32249 31.0365 6.28402 30.9437C6.24555 30.851 6.22578 30.7516 6.22586 30.6513V22.6802C6.22586 22.4775 6.30657 22.2832 6.45023 22.1399C6.5939 21.9966 6.78875 21.9161 6.99193 21.9161H10.0775C10.2807 21.9161 10.4755 21.9966 10.6192 22.1399C10.7629 22.2832 10.8436 22.4775 10.8436 22.6802ZM9.31198 23.4437H7.75856V29.8878H9.31198V23.4437ZM27.5386 17.3615V30.654C27.5386 30.8567 27.4579 31.051 27.3143 31.1943C27.1706 31.3376 26.9757 31.4181 26.7726 31.4181H23.6881C23.5875 31.4182 23.4879 31.3984 23.3949 31.3601C23.3019 31.3217 23.2174 31.2654 23.1463 31.1945C23.0751 31.1235 23.0187 31.0392 22.9802 30.9465C22.9417 30.8538 22.922 30.7544 22.9221 30.654V17.3615C22.9221 17.2612 22.9419 17.1619 22.9804 17.0692C23.0189 16.9765 23.0753 16.8923 23.1465 16.8214C23.2176 16.7505 23.3021 16.6943 23.395 16.656C23.488 16.6176 23.5876 16.5979 23.6881 16.598H26.7726C26.9757 16.598 27.1704 16.6784 27.3141 16.8216C27.4577 16.9648 27.5385 17.1589 27.5386 17.3615ZM26.0071 18.1255H24.4536V29.8878H26.0071V18.1255ZM17.3322 17.1146C17.3322 17.0501 17.3355 16.9856 17.3423 16.9214L14.7518 15.429C14.4319 15.6622 14.0459 15.7879 13.6497 15.7879C13.2535 15.7879 12.8675 15.6622 12.5476 15.429L9.5119 17.1789C9.55861 17.6077 9.45619 18.0396 9.22178 18.4022C8.98737 18.7647 8.63519 19.036 8.22421 19.1705C7.81323 19.305 7.36839 19.2946 6.96416 19.1411C6.55993 18.9876 6.22085 18.7002 6.00368 18.3271C5.78651 17.954 5.70444 17.5179 5.77119 17.0916C5.83795 16.6654 6.04949 16.275 6.3704 15.9857C6.69131 15.6965 7.10211 15.5259 7.53402 15.5027C7.96594 15.4794 8.39276 15.6049 8.74303 15.858L11.7832 14.1065C11.7765 14.0425 11.7731 13.9782 11.7732 13.9138C11.7732 13.4164 11.9713 12.9394 12.3239 12.5876C12.6766 12.2359 13.1549 12.0383 13.6536 12.0383C14.1523 12.0383 14.6306 12.2359 14.9833 12.5876C15.3359 12.9394 15.5341 13.4164 15.5341 13.9138C15.5341 13.9797 15.5301 14.0445 15.524 14.1087L18.1123 15.5999C18.4318 15.3662 18.8178 15.2402 19.2141 15.2402C19.6103 15.2402 19.9963 15.3662 20.3158 15.5999L23.4989 13.7664C23.4927 13.7032 23.4893 13.639 23.4893 13.5737C23.4878 13.1508 23.6292 12.7398 23.8907 12.407C24.1522 12.0741 24.5185 11.8388 24.9305 11.7391C25.3425 11.6393 25.7762 11.681 26.1615 11.8572C26.5469 12.0335 26.8615 12.3341 27.0546 12.7106C27.2476 13.087 27.3079 13.5174 27.2256 13.9322C27.1433 14.347 26.9233 14.722 26.601 14.9968C26.2788 15.2716 25.8731 15.4301 25.4495 15.4467C25.0258 15.4633 24.6089 15.3371 24.266 15.0884L21.083 16.9219C21.0892 16.9851 21.0926 17.0493 21.0926 17.1146C21.0926 17.6116 20.8946 18.0882 20.5423 18.4396C20.1899 18.791 19.7121 18.9884 19.2138 18.9884C18.7155 18.9884 18.2376 18.791 17.8853 18.4396C17.5329 18.0882 17.335 17.6116 17.335 17.1146H17.3322ZM25.0181 13.5737C25.0187 13.642 25.0395 13.7087 25.078 13.7653C25.1165 13.8219 25.1709 13.8658 25.2344 13.8916C25.2979 13.9174 25.3676 13.9238 25.4347 13.9102C25.5019 13.8965 25.5635 13.8633 25.6118 13.8147C25.6601 13.7662 25.6929 13.7045 25.706 13.6374C25.7192 13.5703 25.7122 13.5008 25.6858 13.4377C25.6594 13.3746 25.6149 13.3207 25.5579 13.2828C25.5009 13.2448 25.4339 13.2246 25.3653 13.2246C25.2732 13.2259 25.1852 13.2632 25.1203 13.3285C25.0554 13.3937 25.0187 13.4818 25.0181 13.5737ZM19.211 16.7684C19.1423 16.7684 19.0752 16.7887 19.0181 16.8267C18.961 16.8648 18.9165 16.9188 18.8902 16.9821C18.8639 17.0454 18.8571 17.115 18.8705 17.1822C18.8839 17.2494 18.9169 17.3111 18.9655 17.3595C19.014 17.4079 19.0759 17.4409 19.1432 17.4543C19.2106 17.4676 19.2804 17.4608 19.3438 17.4345C19.4073 17.4083 19.4615 17.364 19.4997 17.307C19.5378 17.2501 19.5582 17.1831 19.5582 17.1146C19.558 17.0228 19.5214 16.9348 19.4563 16.8699C19.3912 16.805 19.303 16.7685 19.211 16.7684ZM7.98816 17.3743C7.9886 17.3054 7.96847 17.2378 7.93034 17.1802C7.8922 17.1227 7.83777 17.0778 7.77396 17.0511C7.71015 17.0245 7.63985 17.0174 7.57198 17.0307C7.50411 17.044 7.44174 17.0771 7.39279 17.1259C7.34385 17.1746 7.31053 17.2368 7.29708 17.3044C7.28362 17.3721 7.29064 17.4422 7.31724 17.5059C7.34383 17.5696 7.38881 17.6239 7.44645 17.6621C7.50409 17.7002 7.57179 17.7204 7.64096 17.7201C7.73259 17.7189 7.82014 17.6821 7.88499 17.6176C7.94983 17.553 7.98685 17.4657 7.98816 17.3743ZM13.6491 14.2606C13.7183 14.261 13.786 14.2408 13.8436 14.2027C13.9012 14.1646 13.9462 14.1103 13.9728 14.0466C13.9994 13.983 14.0065 13.9129 13.9931 13.8452C13.9797 13.7776 13.9464 13.7154 13.8975 13.6667C13.8486 13.6179 13.7863 13.5847 13.7185 13.5713C13.6506 13.558 13.5803 13.565 13.5165 13.5915C13.4527 13.6181 13.3982 13.6629 13.36 13.7204C13.3218 13.7779 13.3016 13.8454 13.3019 13.9144C13.3035 14.0057 13.3406 14.0929 13.4054 14.1575C13.4701 14.2221 13.5575 14.2591 13.6491 14.2606ZM56.6432 35.3316L54.4536 37.5098C54.342 37.6226 54.209 37.7121 54.0624 37.7732C53.9158 37.8343 53.7585 37.8657 53.5996 37.8655H53.594C53.4339 37.866 53.2752 37.8348 53.1272 37.7736C52.9793 37.7124 52.845 37.6226 52.7322 37.5092L48.2153 33.0043C48.0233 32.8121 47.9016 32.5612 47.8697 32.2918C47.8378 32.0224 47.8976 31.7501 48.0394 31.5186L46.4155 29.8989C46.3259 29.9615 46.2346 30.0218 46.1427 30.081V36.925C46.1422 37.7796 45.8018 38.599 45.1963 39.2037C44.5908 39.8083 43.7695 40.1488 42.9127 40.1504H29.628L31.3007 44.141H32.2196C32.8652 44.142 33.484 44.3981 33.9406 44.8533C34.3972 45.3085 34.6543 45.9255 34.6556 46.5694V48.236C34.6556 48.4383 34.5751 48.6324 34.4318 48.7756C34.2885 48.9189 34.0941 48.9996 33.8912 49H13.2493C13.0462 48.9999 12.8514 48.9193 12.7078 48.7761C12.5641 48.6328 12.4834 48.4385 12.4832 48.236V46.5694C12.4846 45.9253 12.7418 45.3081 13.1986 44.8529C13.6555 44.3977 14.2746 44.1417 14.9203 44.141H15.8398L17.512 40.1526H4.23396C3.37615 40.1517 2.55375 39.8113 1.9474 39.2062C1.34104 38.601 1.0003 37.7805 1 36.925L1 11.8981C1.00163 11.0435 1.34296 10.2243 1.94918 9.62022C2.55539 9.01614 3.37702 8.67642 4.23396 8.67553H34.846V7.76404C34.846 7.5615 34.9266 7.36725 35.0702 7.22398C35.2137 7.08071 35.4084 7.00015 35.6115 7H45.6595C45.8626 7.00015 46.0574 7.08069 46.201 7.22395C46.3446 7.3672 46.4254 7.56145 46.4255 7.76404V13.2051C47.7781 14.1386 48.8834 15.3855 49.6468 16.8387C50.4101 18.2919 50.8085 19.9081 50.808 21.5486C50.813 23.6066 50.1859 25.6167 49.011 27.3086L50.635 28.9282C50.867 28.7896 51.1385 28.7313 51.4072 28.7624C51.6758 28.7935 51.9267 28.9123 52.1207 29.1003L56.6426 33.6097C56.8714 33.8381 56.9999 34.1477 57 34.4705C57.0001 34.7933 56.8718 35.103 56.6432 35.3316ZM46.4255 15.1503V16.283C47.449 17.4024 48.1242 18.7944 48.3689 20.2896C48.6136 21.7848 48.4172 23.3186 47.8038 24.7045C47.1903 26.0904 46.1862 27.2686 44.9136 28.0957C43.641 28.9228 42.1547 29.3631 40.6358 29.3631C39.1168 29.3631 37.6306 28.9228 36.358 28.0957C35.0854 27.2686 34.0812 26.0904 33.4678 24.7045C32.8543 23.3186 32.658 21.7848 32.9027 20.2896C33.1474 18.7944 33.8225 17.4024 34.846 16.283V15.1503C34.734 15.2492 34.6293 15.3492 34.5251 15.4531C33.0408 16.9339 32.1476 18.903 32.0124 20.9927C31.8772 23.0823 32.5092 25.1495 33.7904 26.8084C35.0716 28.4673 36.9144 29.6044 38.9747 30.0073C41.035 30.4102 43.1719 30.0515 44.9864 28.9981L45.02 28.9791C45.6492 28.6081 46.2291 28.1594 46.7459 27.6437C48.3666 26.027 49.2771 23.8345 49.2771 21.5484C49.2771 19.2622 48.3666 17.0697 46.7459 15.4531C46.6395 15.3492 46.5342 15.2486 46.4255 15.1503ZM35.6115 21.7771C35.4085 21.7771 35.2138 21.6966 35.0702 21.5535C34.9266 21.4103 34.846 21.2161 34.846 21.0136V19.0689C34.4345 20.0251 34.2676 21.0682 34.3601 22.1046C34.4525 23.1411 34.8016 24.1384 35.3759 25.0071C35.9502 25.8758 36.7318 26.5887 37.6505 27.0818C38.5692 27.5749 39.5963 27.8329 40.6396 27.8324C41.6829 27.8319 42.7098 27.5732 43.628 27.0792C44.5463 26.5853 45.3273 25.8717 45.9008 25.0025C46.4744 24.1333 46.8225 23.1357 46.9141 22.0992C47.0057 21.0627 46.8378 20.0197 46.4255 19.0638V21.0114C46.4254 21.2139 46.3446 21.4081 46.201 21.5513C46.0573 21.6944 45.8625 21.7748 45.6595 21.7748L35.6115 21.7771ZM36.3776 20.2495H44.894V8.52753H36.3776V20.2495ZM32.2196 45.6668H14.9203C14.6803 45.6671 14.4503 45.7623 14.2805 45.9315C14.1108 46.1006 14.0152 46.33 14.0148 46.5694V47.4725H33.1251V46.5694C33.1248 46.33 33.0293 46.1005 32.8596 45.9313C32.6898 45.7621 32.4596 45.667 32.2196 45.6668ZM27.9682 40.1504H19.1723L17.4996 44.141H29.6403L27.9682 40.1504ZM44.6084 36.925V34.1179H2.53158V36.925C2.53217 37.3751 2.71172 37.8066 3.03085 38.1249C3.34998 38.4432 3.78264 38.6223 4.23396 38.6229H42.9099C43.3607 38.6218 43.7927 38.4425 44.1111 38.1242C44.4295 37.8059 44.6084 37.3746 44.6084 36.925ZM44.6084 30.8931C42.2894 31.8735 39.6881 31.9613 37.308 31.1394C34.9278 30.3175 32.938 28.6443 31.7233 26.4436C30.5087 24.2429 30.1556 21.6711 30.7324 19.2258C31.3092 16.7804 32.775 14.6354 34.846 13.2056V10.2003H4.23396C3.78264 10.2009 3.34998 10.3799 3.03085 10.6982C2.71172 11.0165 2.53217 11.448 2.53158 11.8981V32.5898H44.6084V30.8931ZM47.6088 28.9316L49.0945 30.4116L49.5251 29.9822L48.0394 28.5027C47.9689 28.5769 47.9 28.6523 47.8272 28.7261C47.7544 28.7998 47.6822 28.8635 47.6088 28.9327V28.9316ZM55.3367 34.4703L51.265 30.4083L51.1496 30.5228L49.6377 32.0308L49.5217 32.1464L53.5935 36.2101L55.3367 34.4703ZM37.7664 10.6337H43.5035C43.6058 10.6364 43.7076 10.6187 43.803 10.5816C43.8983 10.5444 43.9852 10.4886 44.0585 10.4174C44.1319 10.3462 44.1902 10.2611 44.23 10.1671C44.2698 10.073 44.2903 9.97198 44.2903 9.86991C44.2903 9.76783 44.2698 9.66679 44.23 9.57276C44.1902 9.47872 44.1319 9.39359 44.0585 9.32239C43.9852 9.2512 43.8983 9.19538 43.803 9.15824C43.7076 9.1211 43.6058 9.10338 43.5035 9.10614H37.7664C37.6641 9.10338 37.5622 9.1211 37.4669 9.15824C37.3716 9.19538 37.2847 9.2512 37.2113 9.32239C37.138 9.39359 37.0797 9.47872 37.0399 9.57276C37.0001 9.66679 36.9796 9.76783 36.9796 9.86991C36.9796 9.97198 37.0001 10.073 37.0399 10.1671C37.0797 10.2611 37.138 10.3462 37.2113 10.4174C37.2847 10.4886 37.3716 10.5444 37.4669 10.5816C37.5622 10.6187 37.6641 10.6364 37.7664 10.6337ZM37.7664 12.8934H43.5035C43.6058 12.8962 43.7076 12.8784 43.803 12.8413C43.8983 12.8042 43.9852 12.7483 44.0585 12.6772C44.1319 12.606 44.1902 12.5208 44.23 12.4268C44.2698 12.3328 44.2903 12.2317 44.2903 12.1296C44.2903 12.0276 44.2698 11.9265 44.23 11.8325C44.1902 11.7385 44.1319 11.6533 44.0585 11.5821C43.9852 11.5109 43.8983 11.4551 43.803 11.418C43.7076 11.3808 43.6058 11.3631 43.5035 11.3659H37.7664C37.6641 11.3631 37.5622 11.3808 37.4669 11.418C37.3716 11.4551 37.2847 11.5109 37.2113 11.5821C37.138 11.6533 37.0797 11.7385 37.0399 11.8325C37.0001 11.9265 36.9796 12.0276 36.9796 12.1296C36.9796 12.2317 37.0001 12.3328 37.0399 12.4268C37.0797 12.5208 37.138 12.606 37.2113 12.6772C37.2847 12.7483 37.3716 12.8042 37.4669 12.8413C37.5622 12.8784 37.6641 12.8962 37.7664 12.8934ZM37.7664 19.6715H43.5035C43.6058 19.6743 43.7076 19.6565 43.803 19.6194C43.8983 19.5823 43.9852 19.5264 44.0585 19.4552C44.1319 19.384 44.1902 19.2989 44.23 19.2049C44.2698 19.1108 44.2903 19.0098 44.2903 18.9077C44.2903 18.8057 44.2698 18.7046 44.23 18.6106C44.1902 18.5165 44.1319 18.4314 44.0585 18.3602C43.9852 18.289 43.8983 18.2332 43.803 18.1961C43.7076 18.1589 43.6058 18.1412 43.5035 18.144H37.7664C37.6641 18.1412 37.5622 18.1589 37.4669 18.1961C37.3716 18.2332 37.2847 18.289 37.2113 18.3602C37.138 18.4314 37.0797 18.5165 37.0399 18.6106C37.0001 18.7046 36.9796 18.8057 36.9796 18.9077C36.9796 19.0098 37.0001 19.1108 37.0399 19.2049C37.0797 19.2989 37.138 19.384 37.2113 19.4552C37.2847 19.5264 37.3716 19.5823 37.4669 19.6194C37.5622 19.6565 37.6641 19.6743 37.7664 19.6715ZM37.7664 15.1543H43.5035C43.6058 15.157 43.7076 15.1393 43.803 15.1022C43.8983 15.065 43.9852 15.0092 44.0585 14.938C44.1319 14.8668 44.1902 14.7817 44.23 14.6876C44.2698 14.5936 44.2903 14.4926 44.2903 14.3905C44.2903 14.2884 44.2698 14.1874 44.23 14.0933C44.1902 13.9993 44.1319 13.9142 44.0585 13.843C43.9852 13.7718 43.8983 13.716 43.803 13.6788C43.7076 13.6417 43.6058 13.624 43.5035 13.6267H37.7664C37.6641 13.624 37.5622 13.6417 37.4669 13.6788C37.3716 13.716 37.2847 13.7718 37.2113 13.843C37.138 13.9142 37.0797 13.9993 37.0399 14.0933C37.0001 14.1874 36.9796 14.2884 36.9796 14.3905C36.9796 14.4926 37.0001 14.5936 37.0399 14.6876C37.0797 14.7817 37.138 14.8668 37.2113 14.938C37.2847 15.0092 37.3716 15.065 37.4669 15.1022C37.5622 15.1393 37.6641 15.157 37.7664 15.1543ZM37.7664 17.4112H43.5035C43.6058 17.414 43.7076 17.3962 43.803 17.3591C43.8983 17.322 43.9852 17.2661 44.0585 17.1949C44.1319 17.1238 44.1902 17.0386 44.23 16.9446C44.2698 16.8505 44.2903 16.7495 44.2903 16.6474C44.2903 16.5454 44.2698 16.4443 44.23 16.3503C44.1902 16.2562 44.1319 16.1711 44.0585 16.0999C43.9852 16.0287 43.8983 15.9729 43.803 15.9358C43.7076 15.8986 43.6058 15.8809 43.5035 15.8837H37.7664C37.6641 15.8809 37.5622 15.8986 37.4669 15.9358C37.3716 15.9729 37.2847 16.0287 37.2113 16.0999C37.138 16.1711 37.0797 16.2562 37.0399 16.3503C37.0001 16.4443 36.9796 16.5454 36.9796 16.6474C36.9796 16.7495 37.0001 16.8505 37.0399 16.9446C37.0797 17.0386 37.138 17.1238 37.2113 17.1949C37.2847 17.2661 37.3716 17.322 37.4669 17.3591C37.5622 17.3962 37.6641 17.414 37.7664 17.4112Z" fill="#703391" stroke="#703391" stroke-width="0.5"/>
</svg>
