<svg width="86" height="86" viewBox="0 0 86 86" fill="none" xmlns="http://www.w3.org/2000/svg">
<circle cx="43" cy="43" r="43" fill="#703391" fill-opacity="0.1"/>
<path d="M61.755 31.4677C61.4755 29.8521 60.0674 28.6699 58.4123 28.6634H58.0484C58.0202 28.6634 57.9942 28.6613 57.966 28.657C57.8036 28.6355 57.6562 28.5519 57.5566 28.4231C57.4591 28.2944 57.4158 28.1313 57.4374 27.9704C57.4569 27.8245 57.4721 27.67 57.4829 27.5113C57.4938 27.3697 57.5003 27.213 57.5003 27.0478H57.4981C57.4981 23.6922 55.035 20.8362 51.6877 20.3106C48.3428 19.7871 45.1064 21.7481 44.0599 24.9385C44.049 24.9664 44.0382 24.9943 44.023 25.0222C43.8714 25.3226 43.5031 25.447 43.1976 25.2968C42.9312 25.1638 42.6495 25.063 42.3593 24.9965C41.1548 24.7154 39.8896 25.0201 38.9494 25.8161C38.2475 26.4104 37.7839 27.2364 37.6496 28.144C37.6041 28.4358 37.3528 28.6547 37.0538 28.6632C35.4399 28.7104 34.0816 29.8755 33.8043 31.4503C33.8043 31.4589 33.8043 31.4675 33.8 31.4739V31.476C33.7696 31.6541 33.7566 31.8365 33.7566 32.0189C33.7631 33.8683 35.2753 35.366 37.1427 35.3702H38.501C38.5703 35.1686 38.644 34.9733 38.7241 34.7802C38.8324 34.5228 38.9581 34.2589 39.0967 33.9971C39.1292 33.937 39.1487 33.8727 39.1509 33.804C39.1487 33.7353 39.1292 33.6688 39.0967 33.6088L38.8216 33.0702V33.0724C38.4945 32.4373 38.618 31.667 39.1271 31.1649L40.3706 29.9248C40.8775 29.4163 41.6617 29.294 42.3008 29.6223L42.8424 29.8948H42.8446C42.9052 29.927 42.9724 29.9441 43.0395 29.9463C43.1088 29.9441 43.176 29.927 43.2367 29.8948C43.501 29.7553 43.7653 29.633 44.0274 29.5257C44.2895 29.4185 44.569 29.3176 44.8506 29.2297H44.8528C44.9178 29.2103 44.9763 29.176 45.0261 29.131C45.0738 29.0816 45.1106 29.0215 45.1301 28.9572L45.3186 28.3843C45.5352 27.7041 46.1743 27.245 46.8935 27.2493H48.6612C49.3826 27.2429 50.0239 27.7041 50.2427 28.3843L50.429 28.9572C50.4507 29.0215 50.4853 29.0816 50.533 29.131V29.1331C50.5828 29.1803 50.6435 29.2125 50.7085 29.2297C50.9901 29.3176 51.2609 29.4163 51.5317 29.5257C51.7895 29.633 52.0581 29.7575 52.3224 29.8948C52.3831 29.927 52.4502 29.9441 52.5174 29.9463C52.5867 29.9441 52.6539 29.927 52.7145 29.8948L53.2561 29.6223C53.8974 29.294 54.6794 29.4163 55.1864 29.9248L56.4342 31.1607C56.9455 31.6627 57.0711 32.4351 56.7418 33.0702L56.4645 33.6088C56.432 33.6688 56.4125 33.7353 56.4125 33.804C56.4147 33.8705 56.432 33.937 56.4667 33.995C56.6053 34.2589 56.7288 34.5206 56.8371 34.7781C56.9173 34.9733 56.9931 35.1686 57.0603 35.3681H58.4186V35.3703C59.413 35.3703 60.3575 34.9369 61.0009 34.1859C61.6465 33.4328 61.9216 32.4394 61.7591 31.4675L61.755 31.4677ZM51.0403 40.7925C50.7977 41.0307 50.4056 41.0307 50.1651 40.7925C49.9225 40.5522 49.9225 40.1639 50.1651 39.9236L51.6079 38.4946L50.1651 37.0635C49.9225 36.8253 49.9225 36.437 50.1651 36.1967C50.4056 35.9564 50.7977 35.9564 51.0403 36.1967L52.9229 38.0633C53.0399 38.177 53.1048 38.3337 53.1048 38.4967C53.1048 38.6598 53.0399 38.8143 52.9229 38.9301L51.0403 40.7925ZM48.1569 34.7226V34.7205C48.2457 34.3943 48.5858 34.1991 48.9151 34.2871C49.2466 34.375 49.4416 34.7119 49.3527 35.038L47.3965 42.2707C47.3077 42.5968 46.9676 42.7899 46.6383 42.7019C46.309 42.614 46.114 42.2771 46.2029 41.951L48.1569 34.7226ZM45.3904 39.9256V39.9235C45.5118 40.0372 45.5811 40.1959 45.5833 40.3611C45.5854 40.5264 45.5204 40.6851 45.4013 40.8031C45.2843 40.919 45.124 40.9834 44.955 40.9812C44.7882 40.9791 44.6301 40.9104 44.5152 40.7924L42.6327 38.9301V38.9279C42.3922 38.6876 42.3922 38.3014 42.6327 38.0611L44.5152 36.1967V36.1988C44.7579 35.9692 45.1413 35.9735 45.3796 36.2095C45.6179 36.4434 45.6223 36.8232 45.3905 37.0656L43.9455 38.4967L45.3904 39.9256ZM47.7756 31.1566C51.8419 31.191 55.1195 34.4651 55.1195 38.492C55.1195 42.5192 51.8418 45.7934 47.7756 45.8296V45.8253C45.8021 45.8425 43.9 45.0787 42.4984 43.7012C41.0946 42.3238 40.306 40.4485 40.306 38.4918C40.306 36.5351 41.0946 34.6598 42.4984 33.2824C43.9 31.9071 45.8021 31.1411 47.7756 31.1583V31.1566ZM52.1408 34.1754V34.1733C50.984 33.0254 49.4134 32.3796 47.7756 32.3818C44.368 32.3818 41.6036 35.1195 41.6036 38.4945C41.6036 41.8716 44.3679 44.6094 47.7756 44.6094V44.6073C50.2713 44.6051 52.52 43.1183 53.4751 40.8354C54.4303 38.5525 53.9042 35.9241 52.1408 34.1754ZM39.4807 36.2459C39.472 36.2673 39.4612 36.2888 39.4504 36.3081C39.3789 36.424 39.2966 36.5334 39.2012 36.6299C39.0149 36.8166 38.7831 36.9561 38.5297 37.0333L37.9512 37.2199C37.7714 37.2714 37.6501 37.4367 37.6588 37.6212V39.3698C37.6501 39.5543 37.7714 39.7217 37.9512 39.771L38.5297 39.9577C38.7831 40.0371 39.0149 40.1744 39.2012 40.3632C39.3875 40.5498 39.524 40.7773 39.6042 41.0283C39.68 41.2707 39.7667 41.5067 39.862 41.7385C39.9638 41.9809 40.0721 42.2105 40.1869 42.4251V42.4272C40.3104 42.6568 40.3776 42.9164 40.3776 43.1782C40.3797 43.4399 40.3169 43.6995 40.1978 43.9334L39.9183 44.4676V44.4698C39.8771 44.5492 39.862 44.6393 39.8728 44.7273C39.888 44.8152 39.9335 44.8967 39.9984 44.959L41.2484 46.1991C41.3091 46.2635 41.3914 46.3064 41.4802 46.3214C41.5712 46.3343 41.6622 46.3192 41.7424 46.2763L42.2861 46.0017C42.7649 45.7593 43.3325 45.7636 43.8069 46.0124C44.0236 46.124 44.2554 46.2313 44.5002 46.3343C44.7341 46.4308 44.9724 46.5166 45.2172 46.5917L45.2194 46.5896C45.4729 46.669 45.7047 46.8041 45.8931 46.9887C46.0816 47.1732 46.2224 47.4028 46.3026 47.6538L46.4889 48.2266V48.2245C46.543 48.4004 46.7077 48.5184 46.894 48.5141H48.6617C48.848 48.5206 49.0127 48.4026 49.0668 48.2245L49.2553 47.6516V47.6538C49.3355 47.4027 49.4741 47.1732 49.6648 46.9887C49.8554 46.8041 50.0872 46.6668 50.3407 46.5896C50.5833 46.5145 50.8238 46.4287 51.0556 46.3321C51.3004 46.2313 51.5322 46.124 51.7488 46.0103L51.751 46.0124C52.2276 45.7614 52.7952 45.7593 53.2761 46.0039L53.8199 46.2763H53.8177C53.9824 46.3664 54.1838 46.3343 54.3117 46.1991L55.5595 44.9611C55.696 44.8367 55.7285 44.6328 55.6375 44.4719L55.3623 43.9377C55.1132 43.4635 55.1175 42.8993 55.3732 42.4272C55.4858 42.2127 55.5941 41.9831 55.6938 41.7406C55.7913 41.5089 55.8779 41.2729 55.9559 41.0304C56.1097 40.5177 56.5105 40.1143 57.0261 39.9577L57.6045 39.771C57.6912 39.7431 57.767 39.6916 57.8212 39.6208C57.8732 39.5479 57.8992 39.4599 57.8992 39.3698V37.6212C57.8992 37.5311 57.8732 37.4431 57.8212 37.3701C57.767 37.2993 57.6912 37.2457 57.6045 37.2199L57.0261 37.0333C56.7726 36.9539 56.543 36.8144 56.3546 36.6278C56.2614 36.5312 56.1791 36.4261 56.1098 36.3102C56.0968 36.2888 56.0838 36.2673 56.0751 36.2437C56.0253 36.1536 55.9863 36.0571 55.9581 35.9584C55.8801 35.7181 55.7935 35.4799 55.696 35.2503C55.5963 35.0079 55.488 34.7762 55.3754 34.5637V34.5616C55.2519 34.3299 55.1847 34.0724 55.1804 33.8106C55.1782 33.5467 55.2432 33.2871 55.3624 33.0533L55.6375 32.5169H55.6397C55.683 32.4396 55.6982 32.3495 55.6852 32.2594C55.67 32.1714 55.6245 32.0921 55.5617 32.0298L54.3138 30.794C54.251 30.7296 54.1687 30.6867 54.0799 30.6717C53.991 30.6567 53.9001 30.6738 53.8221 30.7168L53.2783 30.9892C53.0422 31.1115 52.7801 31.1738 52.5136 31.1695C52.2493 31.1673 51.9893 31.103 51.7554 30.9785C51.5387 30.8691 51.3091 30.7618 51.0621 30.661C50.8282 30.5644 50.5899 30.4786 50.3472 30.4014C50.0937 30.3241 49.8619 30.1868 49.6713 30.0023C49.485 29.8156 49.3442 29.5882 49.264 29.3372L49.0755 28.7643H49.0734C49.0474 28.6806 48.9954 28.6055 48.9239 28.5519C48.8481 28.5004 48.7592 28.4725 48.6704 28.4725H46.894C46.7077 28.4704 46.5431 28.5862 46.4889 28.7622L46.3026 29.335C46.1423 29.8457 45.735 30.2447 45.2173 30.3971C44.9725 30.4743 44.7342 30.5602 44.5002 30.6567C44.2554 30.7554 44.0214 30.8627 43.8069 30.9742L43.8048 30.9764C43.3303 31.2274 42.7584 31.2317 42.2797 30.9871L41.7402 30.7146V30.7125C41.5778 30.6245 41.3741 30.6567 41.2463 30.7897L39.9963 32.0256C39.9335 32.0899 39.8902 32.1693 39.8728 32.2573C39.8598 32.3453 39.8772 32.4354 39.9183 32.5147L40.1978 33.0511C40.3169 33.285 40.3798 33.5446 40.3776 33.8085C40.3754 34.0703 40.3104 34.3277 40.1848 34.5595C40.0721 34.774 39.9638 35.0036 39.8598 35.246C39.7623 35.4778 39.6757 35.7138 39.602 35.9541C39.5717 36.0549 39.5305 36.1515 39.4807 36.2437L39.4807 36.2459ZM36.7901 36.5849C34.3832 36.3961 32.5223 34.4093 32.5158 32.017V31.9719H29.7927V43.7234H34.7558H34.7537C35.0678 43.7255 35.3689 43.85 35.5899 44.071C35.6072 44.086 35.6202 44.1032 35.6332 44.1225C35.8282 44.3327 35.9365 44.6095 35.9365 44.897V46.4461H38.0465V46.444C38.3585 46.444 38.6575 46.5684 38.8784 46.7873C39.1015 47.004 39.2272 47.3022 39.2294 47.6133V55.3139H65.7653V31.9703H63.04V32.0175C63.0335 34.4098 61.1748 36.3945 58.768 36.5854C58.7875 36.6069 58.8026 36.6305 58.8221 36.6541C59.0279 36.9351 59.1384 37.2741 59.1384 37.6217V39.3703C59.1384 40.0848 58.6726 40.7156 57.9881 40.9323L57.4096 41.119C57.3447 41.1383 57.284 41.1726 57.2342 41.2198C57.1887 41.2713 57.154 41.3292 57.1345 41.3936C57.0479 41.6682 56.9482 41.9407 56.8356 42.2068C56.7229 42.4707 56.6016 42.7282 56.4651 42.9899C56.4326 43.05 56.4131 43.1165 56.411 43.1852C56.4131 43.2538 56.4305 43.3203 56.4629 43.3804L56.7402 43.9168V43.9189C57.0695 44.554 56.946 45.3264 56.4326 45.8285L55.1848 47.0644H55.187C54.6779 47.5707 53.898 47.6908 53.2567 47.3669L52.7151 47.0944C52.6545 47.0601 52.5851 47.0429 52.5158 47.0429C52.4487 47.0429 52.3815 47.0622 52.323 47.0944C52.0565 47.2339 51.7922 47.3561 51.5323 47.4634C51.2615 47.5729 50.9885 47.6715 50.709 47.7595C50.6419 47.7767 50.5834 47.811 50.5336 47.8582C50.4859 47.9076 50.4491 47.9676 50.4274 48.032L50.2411 48.6049V48.6027C50.0223 49.285 49.3832 49.7463 48.6596 49.742H46.894C46.1748 49.7442 45.5357 49.2829 45.3169 48.6027L45.1284 48.0299V48.032C45.1089 47.9676 45.0743 47.9076 45.0266 47.8582C44.9768 47.811 44.9161 47.7788 44.8511 47.7595C44.5695 47.6715 44.2944 47.5729 44.0279 47.4634C43.7614 47.354 43.5015 47.2317 43.2372 47.0944C43.1765 47.0622 43.1094 47.0429 43.04 47.0429C42.9707 47.0429 42.9036 47.0601 42.8429 47.0944L42.3013 47.3669C41.6601 47.693 40.8802 47.5707 40.3711 47.0665L39.1232 45.8307H39.1254C38.6141 45.3265 38.4907 44.5541 38.8199 43.919L39.0951 43.3826C39.1276 43.3225 39.1471 43.256 39.1492 43.1873C39.1449 43.1187 39.1276 43.0522 39.0951 42.9921C38.9543 42.7303 38.8308 42.4686 38.7225 42.2111C38.612 41.945 38.5123 41.6704 38.4257 41.3958C38.4062 41.3314 38.3715 41.2713 38.3238 41.222C38.274 41.1748 38.2134 41.1404 38.1484 41.1211L37.5699 40.9345C37.2341 40.8293 36.9417 40.6212 36.7359 40.338C36.5301 40.0569 36.4196 39.718 36.4196 39.3704V37.6218C36.4174 37.2742 36.5301 36.9352 36.7359 36.6541C36.7532 36.6305 36.7706 36.6063 36.7901 36.5849ZM62.8557 30.7424H66.3804V30.7446C66.7227 30.7446 67 31.0192 67 31.3561V55.9289C67 56.2658 66.7227 56.5404 66.3804 56.5404H53.3149V59.7352H61.6143C61.7789 59.7352 61.9371 59.7995 62.0519 59.9132C62.1689 60.0291 62.2339 60.1857 62.2339 60.3466V63.4663C62.2339 63.6293 62.1689 63.786 62.0519 63.9018C61.9371 64.0155 61.7789 64.0821 61.6143 64.0821H39.2272V65.8328C39.2272 66.1418 39.0994 66.44 38.8784 66.6589C38.6574 66.8756 38.3585 67 38.0465 67H23.4714C23.1594 67 22.8604 66.8756 22.6395 66.6589L22.6352 66.6524H22.633C22.4142 66.4336 22.2907 66.1375 22.2907 65.8285V64.2859H20.1807C19.8687 64.2859 19.5676 64.1636 19.3466 63.9447V63.9404C19.1256 63.7216 19.0022 63.4255 19 63.1144V47.3808C19 47.1813 19.0975 46.9946 19.2621 46.8809L23.1464 43.8578C23.2547 43.772 23.389 43.7269 23.5277 43.7269V43.7248H28.5558V31.3576C28.5558 31.0208 28.8309 30.7461 29.1711 30.744H32.6979C33.2114 29.0039 34.7105 27.7252 36.5237 27.4784C37.204 24.8029 39.9271 23.1659 42.6369 23.8031C42.7994 23.8396 42.9597 23.8846 43.1179 23.9383C43.6963 22.578 44.6387 21.4001 45.8432 20.5333C47.468 19.3661 49.4718 18.8362 51.4673 19.0443C53.4625 19.2524 55.3104 20.1857 56.6514 21.664C57.9945 23.1423 58.7354 25.0604 58.7354 27.0472C58.7354 27.1738 58.7354 27.3068 58.7246 27.4463C60.6613 27.5814 62.3099 28.8967 62.8558 30.744L62.8557 30.7424ZM35.8084 62.855C36.1486 62.855 36.4259 63.1296 36.4259 63.4687C36.4259 63.8055 36.1486 64.0801 35.8084 64.0801H25.7088C25.3665 64.0801 25.0914 63.8055 25.0914 63.4687C25.0914 63.1297 25.3665 62.855 25.7088 62.855H35.8084ZM35.8084 59.2569V59.2591C36.1486 59.2591 36.4259 59.5315 36.4259 59.8705C36.4259 60.2095 36.1486 60.482 35.8084 60.482H25.7088C25.3665 60.482 25.0914 60.2096 25.0914 59.8705C25.0914 59.5315 25.3665 59.2591 25.7088 59.2591L35.8084 59.2569ZM35.8084 52.0605C36.1507 52.0605 36.428 52.3351 36.428 52.6741C36.428 53.0131 36.1507 53.2878 35.8084 53.2878H25.7088C25.3665 53.2878 25.0892 53.0131 25.0892 52.6741C25.0892 52.3351 25.3665 52.0605 25.7088 52.0605H35.8084ZM35.8084 55.6586V55.6607C36.1507 55.6607 36.428 55.9354 36.428 56.2722C36.428 56.6112 36.1507 56.8859 35.8084 56.8859H25.7088C25.3665 56.8859 25.0892 56.6112 25.0892 56.2722C25.0892 55.9354 25.3665 55.6607 25.7088 55.6607L35.8084 55.6586ZM21.3913 46.7759H22.9056V45.598L21.3913 46.7759ZM24.1426 44.9501V47.3917C24.1426 47.7286 23.8653 48.0032 23.5252 48.0032H20.2366V63.0585H22.2903V50.097C22.2903 49.8974 22.3878 49.7108 22.5525 49.5971L26.4108 46.5933L26.4086 46.5912C26.5234 46.4946 26.6686 46.441 26.8181 46.4431H34.6993V44.952L24.1426 44.9501ZM24.682 49.4943H26.1963V48.3164L24.682 49.4943ZM27.4354 47.6663V50.108C27.4354 50.2689 27.3705 50.4255 27.2535 50.5392C27.1387 50.6551 26.9805 50.7194 26.818 50.7194H23.5273V65.7769H37.9899V47.6661L27.4354 47.6663ZM39.2271 62.8523H60.9969V60.9578H39.2271V62.8523ZM39.2271 59.7305H42.2405V56.538H39.2271V59.7305ZM52.078 56.5358H43.4753V59.7305H52.078V56.5358Z" fill="#703391"/>
<path d="M36.7901 36.5827V36.5849M36.7901 36.5849C34.3832 36.3961 32.5223 34.4093 32.5158 32.017V31.9719H29.7927V43.7234H34.7558H34.7537C35.0678 43.7255 35.3689 43.85 35.5899 44.071C35.6072 44.086 35.6202 44.1032 35.6332 44.1225C35.8282 44.3327 35.9365 44.6095 35.9365 44.897V46.4461H38.0465V46.444C38.3585 46.444 38.6575 46.5684 38.8784 46.7873C39.1015 47.004 39.2272 47.3022 39.2294 47.6133V55.3139H65.7653V31.9703H63.04V32.0175C63.0335 34.4098 61.1748 36.3945 58.768 36.5854C58.7875 36.6069 58.8026 36.6305 58.8221 36.6541C59.0279 36.9351 59.1384 37.2741 59.1384 37.6217V39.3703C59.1384 40.0848 58.6726 40.7156 57.9881 40.9323L57.4096 41.119C57.3447 41.1383 57.284 41.1726 57.2342 41.2198C57.1887 41.2713 57.154 41.3292 57.1345 41.3936C57.0479 41.6682 56.9482 41.9407 56.8356 42.2068C56.7229 42.4707 56.6016 42.7282 56.4651 42.9899C56.4326 43.05 56.4131 43.1165 56.411 43.1852C56.4131 43.2538 56.4305 43.3203 56.4629 43.3804L56.7402 43.9168V43.9189C57.0695 44.554 56.946 45.3264 56.4326 45.8285L55.1848 47.0644H55.187C54.6779 47.5707 53.898 47.6908 53.2567 47.3669L52.7151 47.0944C52.6545 47.0601 52.5851 47.0429 52.5158 47.0429C52.4487 47.0429 52.3815 47.0622 52.323 47.0944C52.0565 47.2339 51.7922 47.3561 51.5323 47.4634C51.2615 47.5729 50.9885 47.6715 50.709 47.7595C50.6419 47.7767 50.5834 47.811 50.5336 47.8582C50.4859 47.9076 50.4491 47.9676 50.4274 48.032L50.2411 48.6049V48.6027C50.0223 49.285 49.3832 49.7463 48.6596 49.742H46.894C46.1748 49.7442 45.5357 49.2829 45.3169 48.6027L45.1284 48.0299V48.032C45.1089 47.9676 45.0743 47.9076 45.0266 47.8582C44.9768 47.811 44.9161 47.7788 44.8511 47.7595C44.5695 47.6715 44.2944 47.5729 44.0279 47.4634C43.7614 47.354 43.5015 47.2317 43.2372 47.0944C43.1765 47.0622 43.1094 47.0429 43.04 47.0429C42.9707 47.0429 42.9036 47.0601 42.8429 47.0944L42.3013 47.3669C41.6601 47.693 40.8802 47.5707 40.3711 47.0665L39.1232 45.8307H39.1254C38.6141 45.3265 38.4907 44.5541 38.8199 43.919L39.0951 43.3826C39.1276 43.3225 39.1471 43.256 39.1492 43.1873C39.1449 43.1187 39.1276 43.0522 39.0951 42.9921C38.9543 42.7303 38.8308 42.4686 38.7225 42.2111C38.612 41.945 38.5123 41.6704 38.4257 41.3958C38.4062 41.3314 38.3715 41.2713 38.3238 41.222C38.274 41.1748 38.2134 41.1404 38.1484 41.1211L37.5699 40.9345C37.2341 40.8293 36.9417 40.6212 36.7359 40.338C36.5301 40.057 36.4196 39.718 36.4196 39.3704V37.6218C36.4174 37.2742 36.5301 36.9352 36.7359 36.6541C36.7532 36.6305 36.7706 36.6063 36.7901 36.5849ZM61.755 31.4677C61.4755 29.8521 60.0674 28.6699 58.4123 28.6634H58.0484C58.0202 28.6634 57.9942 28.6613 57.966 28.657C57.8036 28.6355 57.6562 28.5519 57.5566 28.4231C57.4591 28.2944 57.4158 28.1313 57.4374 27.9704C57.4569 27.8245 57.4721 27.67 57.4829 27.5113C57.4938 27.3697 57.5003 27.213 57.5003 27.0478H57.4981C57.4981 23.6922 55.035 20.8362 51.6877 20.3106C48.3428 19.7871 45.1064 21.7481 44.0599 24.9385C44.049 24.9664 44.0382 24.9943 44.023 25.0222C43.8714 25.3226 43.5031 25.447 43.1976 25.2968C42.9312 25.1638 42.6495 25.063 42.3593 24.9965C41.1548 24.7154 39.8896 25.0201 38.9494 25.8161C38.2475 26.4104 37.7839 27.2364 37.6496 28.144C37.6041 28.4358 37.3528 28.6547 37.0538 28.6632C35.4399 28.7104 34.0816 29.8755 33.8043 31.4503C33.8043 31.4589 33.8043 31.4675 33.8 31.4739V31.476C33.7696 31.6541 33.7566 31.8365 33.7566 32.0189C33.7631 33.8683 35.2753 35.366 37.1427 35.3702H38.501C38.5703 35.1686 38.644 34.9733 38.7241 34.7802C38.8324 34.5228 38.9581 34.2589 39.0967 33.9971C39.1292 33.937 39.1487 33.8727 39.1509 33.804C39.1487 33.7353 39.1292 33.6688 39.0967 33.6088L38.8216 33.0702V33.0724C38.4945 32.4373 38.618 31.667 39.1271 31.1649L40.3706 29.9248C40.8775 29.4163 41.6617 29.294 42.3008 29.6223L42.8424 29.8948H42.8446C42.9052 29.927 42.9724 29.9441 43.0395 29.9463C43.1088 29.9441 43.176 29.927 43.2367 29.8948C43.501 29.7553 43.7653 29.633 44.0274 29.5257C44.2895 29.4185 44.569 29.3176 44.8506 29.2297H44.8528C44.9178 29.2103 44.9763 29.176 45.0261 29.131C45.0738 29.0816 45.1106 29.0215 45.1301 28.9572L45.3186 28.3843C45.5352 27.7041 46.1743 27.245 46.8935 27.2493H48.6612C49.3826 27.2429 50.0239 27.7041 50.2427 28.3843L50.429 28.9572C50.4507 29.0215 50.4853 29.0816 50.533 29.131V29.1331C50.5828 29.1803 50.6435 29.2125 50.7085 29.2297C50.9901 29.3176 51.2609 29.4163 51.5317 29.5257C51.7895 29.633 52.0581 29.7575 52.3224 29.8948C52.3831 29.927 52.4502 29.9441 52.5174 29.9463C52.5867 29.9441 52.6539 29.927 52.7145 29.8948L53.2561 29.6223C53.8974 29.294 54.6794 29.4163 55.1864 29.9248L56.4342 31.1607C56.9455 31.6627 57.0711 32.4351 56.7418 33.0702L56.4645 33.6088C56.432 33.6688 56.4125 33.7353 56.4125 33.804C56.4147 33.8705 56.432 33.937 56.4667 33.995C56.6053 34.2589 56.7288 34.5206 56.8371 34.7781C56.9173 34.9733 56.9931 35.1686 57.0603 35.3681H58.4186V35.3703C59.413 35.3703 60.3575 34.9369 61.0009 34.1859C61.6465 33.4328 61.9216 32.4394 61.7591 31.4675L61.755 31.4677ZM51.0403 40.7925C50.7977 41.0307 50.4056 41.0307 50.1651 40.7925C49.9225 40.5522 49.9225 40.1639 50.1651 39.9236L51.6079 38.4946L50.1651 37.0635C49.9225 36.8254 49.9225 36.437 50.1651 36.1967C50.4056 35.9564 50.7977 35.9564 51.0403 36.1967L52.9229 38.0633C53.0399 38.177 53.1048 38.3337 53.1048 38.4967C53.1048 38.6598 53.0399 38.8143 52.9229 38.9301L51.0403 40.7925ZM48.1569 34.7226V34.7205C48.2457 34.3943 48.5858 34.1991 48.9151 34.2871C49.2466 34.375 49.4416 34.7119 49.3527 35.038L47.3965 42.2707C47.3077 42.5968 46.9676 42.7899 46.6383 42.7019C46.309 42.614 46.114 42.2771 46.2029 41.951L48.1569 34.7226ZM45.3904 39.9256V39.9235C45.5118 40.0372 45.5811 40.1959 45.5833 40.3611C45.5854 40.5264 45.5204 40.6851 45.4013 40.8031C45.2843 40.919 45.124 40.9834 44.955 40.9812C44.7882 40.9791 44.6301 40.9104 44.5152 40.7924L42.6327 38.9301V38.9279C42.3922 38.6876 42.3922 38.3014 42.6327 38.0611L44.5152 36.1967V36.1988C44.7579 35.9692 45.1413 35.9735 45.3796 36.2095C45.6179 36.4434 45.6223 36.8232 45.3905 37.0656L43.9455 38.4967L45.3904 39.9256ZM47.7756 31.1566C51.8419 31.191 55.1195 34.4651 55.1195 38.492C55.1195 42.5192 51.8418 45.7934 47.7756 45.8296V45.8253C45.8021 45.8425 43.9 45.0787 42.4984 43.7012C41.0946 42.3238 40.306 40.4485 40.306 38.4918C40.306 36.5351 41.0946 34.6598 42.4984 33.2824C43.9 31.9071 45.8021 31.1411 47.7756 31.1583V31.1566ZM52.1408 34.1754V34.1733C50.984 33.0254 49.4134 32.3796 47.7756 32.3818C44.368 32.3818 41.6036 35.1195 41.6036 38.4945C41.6036 41.8716 44.3679 44.6094 47.7756 44.6094V44.6073C50.2713 44.6051 52.52 43.1183 53.4751 40.8354C54.4303 38.5525 53.9042 35.9241 52.1408 34.1754ZM39.4807 36.2459C39.472 36.2673 39.4612 36.2888 39.4504 36.3081C39.3789 36.424 39.2966 36.5334 39.2012 36.6299C39.0149 36.8166 38.7831 36.9561 38.5297 37.0333L37.9512 37.2199C37.7714 37.2714 37.6501 37.4367 37.6588 37.6212V39.3698C37.6501 39.5543 37.7714 39.7217 37.9512 39.771L38.5297 39.9577C38.7831 40.0371 39.0149 40.1744 39.2012 40.3632C39.3875 40.5498 39.524 40.7773 39.6042 41.0283C39.68 41.2707 39.7667 41.5067 39.862 41.7385C39.9638 41.9809 40.0721 42.2105 40.1869 42.4251V42.4272C40.3104 42.6568 40.3776 42.9164 40.3776 43.1782C40.3797 43.4399 40.3169 43.6995 40.1978 43.9334L39.9183 44.4676V44.4698C39.8771 44.5492 39.862 44.6393 39.8728 44.7273C39.888 44.8152 39.9335 44.8967 39.9984 44.959L41.2484 46.1991C41.3091 46.2635 41.3914 46.3064 41.4802 46.3214C41.5712 46.3343 41.6622 46.3192 41.7424 46.2763L42.2861 46.0017C42.7649 45.7593 43.3325 45.7636 43.8069 46.0124C44.0236 46.124 44.2554 46.2313 44.5002 46.3343C44.7341 46.4308 44.9724 46.5166 45.2172 46.5917L45.2194 46.5896C45.4729 46.669 45.7047 46.8041 45.8931 46.9887C46.0816 47.1732 46.2224 47.4028 46.3026 47.6538L46.4889 48.2266V48.2245C46.543 48.4004 46.7077 48.5184 46.894 48.5141H48.6617C48.848 48.5206 49.0127 48.4026 49.0668 48.2245L49.2553 47.6516V47.6538C49.3355 47.4027 49.4741 47.1732 49.6648 46.9887C49.8554 46.8041 50.0872 46.6668 50.3407 46.5896C50.5833 46.5145 50.8238 46.4287 51.0556 46.3321C51.3004 46.2313 51.5322 46.124 51.7488 46.0103L51.751 46.0124C52.2276 45.7614 52.7952 45.7593 53.2761 46.0039L53.8199 46.2763H53.8177C53.9824 46.3664 54.1838 46.3343 54.3117 46.1991L55.5595 44.9611C55.696 44.8367 55.7285 44.6328 55.6375 44.4719L55.3623 43.9377C55.1132 43.4635 55.1175 42.8992 55.3732 42.4272C55.4858 42.2127 55.5941 41.9831 55.6938 41.7406C55.7913 41.5089 55.8779 41.2729 55.9559 41.0304C56.1097 40.5177 56.5105 40.1143 57.0261 39.9577L57.6045 39.771C57.6912 39.7431 57.767 39.6916 57.8212 39.6208C57.8732 39.5479 57.8992 39.4599 57.8992 39.3698V37.6212C57.8992 37.5311 57.8732 37.4431 57.8212 37.3701C57.767 37.2993 57.6912 37.2457 57.6045 37.2199L57.0261 37.0333C56.7726 36.9539 56.543 36.8144 56.3546 36.6278C56.2614 36.5312 56.1791 36.4261 56.1098 36.3102C56.0968 36.2888 56.0838 36.2673 56.0751 36.2437C56.0253 36.1536 55.9863 36.0571 55.9581 35.9584C55.8801 35.7181 55.7935 35.4799 55.696 35.2503C55.5963 35.0079 55.488 34.7762 55.3754 34.5637V34.5616C55.2519 34.3299 55.1847 34.0724 55.1804 33.8106C55.1782 33.5467 55.2432 33.2871 55.3624 33.0533L55.6375 32.5169H55.6397C55.683 32.4396 55.6982 32.3495 55.6852 32.2594C55.67 32.1714 55.6245 32.0921 55.5617 32.0298L54.3138 30.794C54.251 30.7296 54.1687 30.6867 54.0799 30.6717C53.991 30.6567 53.9001 30.6738 53.8221 30.7168L53.2783 30.9892C53.0422 31.1115 52.7801 31.1738 52.5136 31.1695C52.2493 31.1673 51.9893 31.103 51.7554 30.9785C51.5387 30.8691 51.3091 30.7618 51.0621 30.661C50.8282 30.5644 50.5899 30.4786 50.3472 30.4014C50.0937 30.3241 49.8619 30.1868 49.6713 30.0023C49.485 29.8156 49.3442 29.5882 49.264 29.3372L49.0755 28.7643H49.0734C49.0474 28.6806 48.9954 28.6055 48.9239 28.5519C48.8481 28.5004 48.7592 28.4725 48.6704 28.4725H46.894C46.7077 28.4704 46.5431 28.5862 46.4889 28.7622L46.3026 29.335C46.1423 29.8457 45.735 30.2447 45.2173 30.3971C44.9725 30.4743 44.7342 30.5602 44.5002 30.6567C44.2554 30.7554 44.0214 30.8627 43.8069 30.9742L43.8048 30.9764C43.3303 31.2274 42.7584 31.2317 42.2797 30.9871L41.7402 30.7146V30.7125C41.5778 30.6245 41.3741 30.6567 41.2463 30.7897L39.9963 32.0256C39.9335 32.0899 39.8902 32.1693 39.8728 32.2573C39.8598 32.3453 39.8772 32.4354 39.9183 32.5147L40.1978 33.0511C40.3169 33.285 40.3798 33.5446 40.3776 33.8085C40.3754 34.0703 40.3104 34.3277 40.1848 34.5595C40.0721 34.774 39.9638 35.0036 39.8598 35.246C39.7623 35.4778 39.6757 35.7138 39.602 35.9541C39.5717 36.0549 39.5305 36.1515 39.4807 36.2437L39.4807 36.2459ZM62.8557 30.7424H66.3804V30.7446C66.7227 30.7446 67 31.0192 67 31.3561V55.9289C67 56.2658 66.7227 56.5404 66.3804 56.5404H53.3149V59.7352H61.6143C61.7789 59.7352 61.9371 59.7995 62.0519 59.9132C62.1689 60.0291 62.2339 60.1857 62.2339 60.3466V63.4663C62.2339 63.6293 62.1689 63.786 62.0519 63.9018C61.9371 64.0155 61.7789 64.0821 61.6143 64.0821H39.2272V65.8328C39.2272 66.1418 39.0994 66.44 38.8784 66.6589C38.6574 66.8756 38.3585 67 38.0465 67H23.4714C23.1594 67 22.8604 66.8756 22.6395 66.6589L22.6352 66.6524H22.633C22.4142 66.4336 22.2907 66.1375 22.2907 65.8285V64.2859H20.1807C19.8687 64.2859 19.5676 64.1636 19.3466 63.9447V63.9404C19.1256 63.7216 19.0022 63.4255 19 63.1144V47.3808C19 47.1813 19.0975 46.9946 19.2621 46.8809L23.1464 43.8578C23.2547 43.772 23.389 43.7269 23.5277 43.7269V43.7248H28.5558V31.3576C28.5558 31.0208 28.8309 30.7461 29.1711 30.744H32.6979C33.2114 29.0039 34.7105 27.7252 36.5237 27.4784C37.204 24.8029 39.9271 23.1659 42.6369 23.8031C42.7994 23.8396 42.9597 23.8846 43.1179 23.9383C43.6963 22.578 44.6387 21.4001 45.8432 20.5333C47.468 19.3661 49.4718 18.8362 51.4673 19.0443C53.4625 19.2524 55.3104 20.1857 56.6514 21.664C57.9946 23.1423 58.7354 25.0604 58.7354 27.0472C58.7354 27.1738 58.7354 27.3068 58.7246 27.4463C60.6613 27.5814 62.3099 28.8967 62.8558 30.744L62.8557 30.7424ZM35.8084 62.855C36.1485 62.855 36.4259 63.1296 36.4259 63.4687C36.4259 63.8055 36.1486 64.0801 35.8084 64.0801H25.7088C25.3665 64.0801 25.0914 63.8055 25.0914 63.4687C25.0914 63.1297 25.3665 62.855 25.7088 62.855H35.8084ZM35.8084 59.2569V59.2591C36.1485 59.2591 36.4259 59.5315 36.4259 59.8705C36.4259 60.2095 36.1486 60.482 35.8084 60.482H25.7088C25.3665 60.482 25.0914 60.2096 25.0914 59.8705C25.0914 59.5315 25.3665 59.2591 25.7088 59.2591L35.8084 59.2569ZM35.8084 52.0605C36.1507 52.0605 36.428 52.3351 36.428 52.6741C36.428 53.0131 36.1507 53.2878 35.8084 53.2878H25.7088C25.3665 53.2878 25.0892 53.0131 25.0892 52.6741C25.0892 52.3351 25.3665 52.0605 25.7088 52.0605H35.8084ZM35.8084 55.6586V55.6607C36.1507 55.6607 36.428 55.9354 36.428 56.2722C36.428 56.6112 36.1507 56.8859 35.8084 56.8859H25.7088C25.3665 56.8859 25.0892 56.6112 25.0892 56.2722C25.0892 55.9354 25.3665 55.6607 25.7088 55.6607L35.8084 55.6586ZM21.3913 46.7759H22.9056V45.598L21.3913 46.7759ZM24.1426 44.9501V47.3917C24.1426 47.7286 23.8653 48.0032 23.5252 48.0032H20.2366V63.0585H22.2903V50.097C22.2903 49.8974 22.3878 49.7108 22.5525 49.5971L26.4108 46.5933L26.4086 46.5912C26.5234 46.4946 26.6686 46.441 26.8181 46.4431H34.6993V44.952L24.1426 44.9501ZM24.682 49.4943H26.1963V48.3164L24.682 49.4943ZM27.4354 47.6663V50.108C27.4354 50.2689 27.3705 50.4255 27.2535 50.5392C27.1387 50.6551 26.9805 50.7194 26.818 50.7194H23.5273V65.7769H37.9899V47.6661L27.4354 47.6663ZM39.2271 62.8523H60.9969V60.9578H39.2271V62.8523ZM39.2271 59.7305H42.2405V56.538H39.2271V59.7305ZM52.078 56.5358H43.4753V59.7305H52.078V56.5358Z" stroke="#703391" stroke-width="0.5"/>
</svg>
