<svg width="58" height="58" viewBox="0 0 58 58" fill="none" xmlns="http://www.w3.org/2000/svg">
<path fill-rule="evenodd" clip-rule="evenodd" d="M40.46 10.6293H54.7863C55.3959 10.6293 55.9489 10.9085 56.3499 11.3572C56.7509 11.8066 57 12.4269 57 13.1094V44.8955C57 45.5787 56.7509 46.199 56.3499 46.6477C55.9489 47.0971 55.3953 47.3763 54.7863 47.3763H33.6833V51.8047H42.5865C43.2242 51.8047 43.8039 52.0971 44.2236 52.5674C44.6433 53.0377 44.9042 53.6874 44.9042 54.4027V55.9749C44.9042 56.2575 44.8014 56.5136 44.6358 56.6992C44.4702 56.8849 44.2416 57 43.9895 57H14.0105C13.7583 57 13.5298 56.8849 13.3642 56.6992C13.1985 56.5136 13.0958 56.2575 13.0958 55.9749V54.4027C13.0958 53.6881 13.3561 53.0384 13.7764 52.5674C14.1961 52.0971 14.7758 51.8047 15.4135 51.8047H24.3167V47.3763H3.21367C2.60406 47.3763 2.05048 47.0971 1.65009 46.6477C1.24908 46.1983 1 45.578 1 44.8955V13.1101C1 12.4276 1.24908 11.8073 1.65009 11.3579C2.05111 10.9085 2.60468 10.63 3.21367 10.63H17.5393V2.43264C17.5393 2.03907 17.6832 1.68178 17.9142 1.42219L17.9167 1.42009C18.1477 1.1605 18.4672 1 18.8177 1H33.644C33.8153 1 33.9784 1.03699 34.1322 1.10816C34.2873 1.18004 34.4255 1.28541 34.5476 1.42079L34.5488 1.41939L40.0852 7.62378C40.2066 7.75916 40.2994 7.91408 40.3635 8.08784C40.3685 8.1018 40.3735 8.11645 40.3778 8.13041C40.4326 8.2923 40.46 8.46118 40.46 8.63703V10.6293ZM2.14326 20.1351H6.09363L7.20015 15.5064C7.2537 15.2817 7.37201 15.0912 7.53142 14.9559L7.53267 14.9552L7.53142 14.9538C7.6871 14.8212 7.882 14.7465 8.09122 14.7493C8.30294 14.7521 8.49784 14.8323 8.65227 14.9698C8.8067 15.1073 8.92003 15.3013 8.96984 15.5309L10.6623 23.3061L11.8018 18.1819C11.8492 17.9698 11.9501 17.7883 12.087 17.6537C12.1057 17.6355 12.1256 17.6188 12.1456 17.6034C12.2738 17.4974 12.4258 17.429 12.5914 17.4094C12.7832 17.3864 12.9688 17.4304 13.1288 17.5288C13.2895 17.6278 13.4215 17.78 13.5074 17.9747L15.1445 21.6955L17.54 21.7004V11.9098H3.21367C2.91976 11.9098 2.652 12.0452 2.45772 12.2629C2.26407 12.4807 2.14326 12.7807 2.14326 13.1101V20.1351ZM17.54 22.9753L14.9975 22.9704C14.82 22.9704 14.6556 22.9153 14.5162 22.8162C14.3748 22.7157 14.2602 22.5741 14.1843 22.401L12.7596 19.1617L11.5472 24.6117C11.4961 24.8413 11.3797 25.036 11.2227 25.1735C11.0658 25.3109 10.8697 25.3891 10.6598 25.3891C10.4462 25.3884 10.2501 25.3088 10.095 25.1728C9.93937 25.0353 9.82418 24.8399 9.77374 24.6082L8.07379 16.7981L7.15158 20.6571C7.09803 20.8818 6.98096 21.0716 6.82404 21.2063C6.66775 21.3403 6.47534 21.4171 6.2686 21.4171H2.14326V39.5557H55.8567V21.4157H51.732C51.5253 21.4157 51.3329 21.3389 51.1766 21.2049C51.0197 21.0702 50.9032 20.8804 50.849 20.6557L49.9262 16.7967L48.2263 24.6068C48.1758 24.8385 48.0606 25.0339 47.9049 25.1714C47.7499 25.3081 47.5537 25.3877 47.3402 25.3877C47.1303 25.3884 46.9342 25.3095 46.7773 25.1721C46.6197 25.0346 46.5039 24.8406 46.4528 24.6103L45.2404 19.1603L43.8151 22.3996C43.7391 22.5727 43.6246 22.7143 43.4826 22.8148C43.3425 22.9139 43.1787 22.969 43.0012 22.969L40.4588 22.9739V32.9145C40.4588 33.3073 40.3149 33.6653 40.0839 33.9249L40.0814 33.927C39.8498 34.1866 39.531 34.3471 39.1798 34.3471H18.8183C18.4671 34.3471 18.1483 34.1859 17.9167 33.927L17.9148 33.9242C17.6832 33.6646 17.54 33.3073 17.54 32.9145V22.9753ZM40.46 21.6997L42.8555 21.6948L44.4926 17.974C44.5779 17.78 44.7105 17.6272 44.8712 17.5281C45.0312 17.4297 45.2168 17.3857 45.4086 17.4087C45.5742 17.4283 45.7261 17.4967 45.8544 17.6027C45.8743 17.6174 45.8943 17.6348 45.913 17.653C46.0506 17.7877 46.1508 17.9684 46.1982 18.1812L47.3383 23.3054L49.0308 15.5302C49.0806 15.3006 49.1945 15.1066 49.349 14.9691C49.5028 14.8316 49.6977 14.7514 49.9094 14.7486C50.1186 14.7458 50.3135 14.8212 50.4692 14.9531L50.4679 14.9545L50.4692 14.9552C50.628 15.0905 50.7463 15.2804 50.8005 15.5058L51.907 20.1344H55.8574V13.1101C55.8574 12.7807 55.7366 12.4807 55.5423 12.2629C55.348 12.0452 55.0802 11.9098 54.7863 11.9098H40.46V21.6997ZM21.306 16.1066H34.8739C35.1896 16.1066 35.4455 15.8198 35.4455 15.466C35.4455 15.1122 35.1896 14.8254 34.8739 14.8254H21.306C20.9903 14.8254 20.7344 15.1122 20.7344 15.466C20.735 15.8198 20.9903 16.1066 21.306 16.1066ZM21.306 12.3278H34.8739C35.1896 12.3278 35.4455 12.041 35.4455 11.6872C35.4455 11.3334 35.1896 11.0466 34.8739 11.0466H21.306C20.9903 11.0466 20.7344 11.3334 20.7344 11.6872C20.735 12.041 20.9903 12.3278 21.306 12.3278ZM21.306 8.5491H30.5953C30.911 8.5491 31.167 8.2623 31.167 7.9092C31.167 7.5554 30.911 7.26859 30.5953 7.26859H21.306C20.9903 7.26859 20.7344 7.5554 20.7344 7.9092C20.735 8.263 20.9903 8.5491 21.306 8.5491ZM27.561 19.1714C27.2863 19.1714 27.0373 19.2971 26.8573 19.4987L26.8586 19.5001L26.8573 19.5015C26.6767 19.7039 26.5653 19.9816 26.5653 20.288V22.3389H24.7358C24.4849 22.3389 24.2545 22.445 24.0789 22.6187C24.0627 22.6334 24.0471 22.6487 24.0322 22.6662C23.8522 22.8678 23.7401 23.147 23.7401 23.4547V26.6808C23.7401 26.9885 23.8522 27.2676 24.0322 27.4693L24.0334 27.4679L24.0346 27.4693C24.2146 27.671 24.4631 27.7966 24.7364 27.7966H26.5659V29.8475C26.5659 30.1553 26.678 30.4344 26.8579 30.6361L26.8592 30.6347L26.8604 30.6361C27.0404 30.8377 27.2888 30.9633 27.5622 30.9633H30.4409C30.6919 30.9633 30.9222 30.8573 31.0978 30.6835C31.114 30.6689 31.1296 30.6535 31.1445 30.6361C31.3245 30.4344 31.4366 30.1553 31.4366 29.8475V27.7966H33.2667C33.5401 27.7966 33.7879 27.671 33.9685 27.4693L33.971 27.4672C34.1509 27.2656 34.263 26.9871 34.263 26.6808V23.4547C34.263 23.1484 34.1509 22.8706 33.971 22.6683L33.9685 22.6655C33.7885 22.4638 33.5401 22.3382 33.2667 22.3382H31.4366V20.2873C31.4366 19.9795 31.3245 19.7004 31.1445 19.4987L31.1433 19.5001C30.9621 19.2971 30.713 19.1714 30.4403 19.1714H27.561ZM30.2927 20.452H27.7079V22.5029C27.7079 22.8106 27.5958 23.0897 27.4159 23.2914L27.4146 23.29C27.2334 23.4931 26.9843 23.6187 26.7122 23.6187H24.8821V26.5154H26.7122C26.985 26.5154 27.2334 26.641 27.414 26.8427L27.4165 26.8455C27.5964 27.0471 27.7085 27.3256 27.7085 27.6319V29.6828H30.2933V27.6319C30.2933 27.3242 30.4048 27.045 30.5854 26.8434C30.7653 26.6417 31.0144 26.5161 31.289 26.5161H33.1185V23.6194H31.289C31.0144 23.6194 30.7653 23.4945 30.5854 23.2921L30.5866 23.2907L30.5854 23.2893C30.4054 23.0877 30.2933 22.8092 30.2933 22.5029L30.2927 20.452ZM39.3174 9.07806H34.7406C34.39 9.07806 34.0706 8.91756 33.8389 8.65797L33.8371 8.65517C33.6054 8.39558 33.4622 8.03829 33.4622 7.64472V2.28051H18.8183C18.7804 2.28051 18.7461 2.29726 18.7218 2.32448C18.6982 2.35169 18.6826 2.39007 18.6826 2.43264V32.9145C18.6826 32.957 18.6975 32.9954 18.7218 33.0226C18.7467 33.0498 18.781 33.0666 18.8183 33.0666H39.1816C39.2196 33.0666 39.2539 33.0498 39.2782 33.0226C39.3024 32.9947 39.3174 32.9563 39.3174 32.9145V9.07806ZM34.6049 3.29306V7.64472C34.6049 7.68729 34.6198 7.72567 34.6441 7.75288C34.669 7.7801 34.7032 7.79685 34.7406 7.79685H38.6237L34.6049 3.29306ZM26.7508 44.1062H31.2492C31.5649 44.1062 31.8208 43.8194 31.8208 43.4656C31.8208 43.1118 31.5649 42.825 31.2492 42.825H26.7508C26.4351 42.825 26.1792 43.1118 26.1792 43.4656C26.1792 43.8194 26.4351 44.1062 26.7508 44.1062ZM2.14326 40.8355V44.8962C2.14326 45.2255 2.26407 45.5256 2.45835 45.7433C2.65263 45.9611 2.92038 46.0964 3.2143 46.0964H54.7863C55.0802 46.0964 55.348 45.9611 55.5423 45.7433C55.7366 45.5256 55.8574 45.2255 55.8574 44.8962V40.8355H2.14326ZM15.4135 53.0859C15.0909 53.0859 14.7976 53.2345 14.584 53.4732C14.3711 53.7118 14.2384 54.0412 14.2384 54.4027V55.7188H43.7609V54.4027C43.7609 54.0412 43.6283 53.7118 43.4153 53.4732C43.2024 53.2345 42.9085 53.0859 42.5859 53.0859H15.4135ZM32.5406 51.8054V47.377H25.4594V51.8054H32.5406Z" fill="#703391" stroke="#703391"/>
</svg>
