<svg width="58" height="58" viewBox="0 0 58 58" fill="none" xmlns="http://www.w3.org/2000/svg">
<path d="M56.2827 21.1263C56.6784 21.1263 57 20.8135 57 20.4286V10.3774C57 9.99248 56.6784 9.6797 56.2827 9.6797H51.6882V5.3609C51.6882 4.97594 51.3666 4.66316 50.9708 4.66316H36.371C36.0247 2.58797 34.1758 1 31.9435 1C29.7173 1 27.8622 2.58797 27.5159 4.66316H12.9161C12.5203 4.66316 12.1988 4.97594 12.1988 5.3609V13.0722C6.76325 13.0782 1 14.594 1 17.385V39.0812C1 39.9895 1.61837 41.2827 4.56184 42.2932C6.61484 42.997 9.32332 43.388 12.1988 43.394V52.6391C12.1988 53.0241 12.5203 53.3368 12.9161 53.3368H27.5159C27.8622 55.412 29.7111 57 31.9435 57C34.1696 57 36.0247 55.412 36.371 53.3368H50.9708C51.3666 53.3368 51.6882 53.0241 51.6882 52.6391V48.3203H56.2827C56.6784 48.3203 57 48.0075 57 47.6226V37.5654C57 37.1804 56.6784 36.8677 56.2827 36.8677H51.6882V34.7203H56.2827C56.6784 34.7203 57 34.4075 57 34.0226V23.9714C57 23.5865 56.6784 23.2737 56.2827 23.2737H51.6882V21.1263H56.2827ZM55.5654 19.7368H46.6608V11.0752H55.5654V19.7368ZM31.9435 2.39549C33.6254 2.39549 34.9921 3.72481 34.9921 5.3609C34.9921 6.99699 33.6254 8.32632 31.9435 8.32632C30.2615 8.32632 28.8949 6.99699 28.8949 5.3609C28.8949 3.72481 30.2615 2.39549 31.9435 2.39549ZM12.2482 14.4677C18.2403 14.4677 22.0618 16.194 22.0618 17.385C22.0618 18.5759 18.2403 20.3023 12.2482 20.3023C6.25618 20.3023 2.43463 18.5759 2.43463 17.385C2.43463 16.194 6.25618 14.4677 12.2482 14.4677ZM24.9744 28.3444C25.3083 28.4526 25.636 28.585 25.9514 28.7414C26.5079 29.012 27.1758 28.9098 27.6148 28.4827L28.8516 27.2797L30.5645 28.9459L29.3277 30.1489C28.8887 30.5759 28.7836 31.2256 29.0618 31.7669C29.2226 32.0737 29.3587 32.3925 29.47 32.7173C29.6617 33.2947 30.212 33.6797 30.8366 33.6797H32.5804V36.0316H30.8366C30.212 36.0316 29.6678 36.4165 29.47 36.994C29.3587 37.3188 29.2226 37.6376 29.0618 37.9444C28.7836 38.4857 28.8887 39.1353 29.3277 39.5624L30.5645 40.7654L28.8516 42.4316L27.6148 41.2286C27.1758 40.8015 26.5079 40.6992 25.9514 40.9699C25.636 41.1263 25.3083 41.2586 24.9744 41.3669C24.3869 41.5534 23.985 42.0887 23.985 42.6962V44.3925H21.5671V42.6962C21.5671 42.0887 21.1714 41.5594 20.5777 41.3669C20.2438 41.2586 19.9161 41.1263 19.6007 40.9699C19.3966 40.8677 19.174 40.8195 18.9514 40.8195C18.5804 40.8195 18.2155 40.9579 17.9373 41.2286L16.7005 42.4316L14.9876 40.7654L16.2244 39.5624C16.6634 39.1353 16.7686 38.4857 16.4903 37.9444C16.3295 37.6376 16.1935 37.3188 16.0822 36.994C15.8905 36.4165 15.3401 36.0316 14.7155 36.0316H12.9717V33.6797H14.7155C15.3401 33.6797 15.8843 33.2947 16.0822 32.7173C16.1935 32.3925 16.3295 32.0737 16.4903 31.7669C16.7686 31.2256 16.6634 30.5759 16.2244 30.1489L14.9876 28.9459L16.7005 27.2797L17.9373 28.4827C18.3763 28.9098 19.0442 29.012 19.6007 28.7414C19.9161 28.585 20.2438 28.4526 20.5777 28.3444C21.1652 28.1579 21.5671 27.6226 21.5671 27.015V25.3188H23.985V27.015C23.985 27.6226 24.3807 28.1519 24.9744 28.3444ZM11.5371 33.6737V34.7624C5.87898 34.6361 2.43463 33.0241 2.43463 31.8511V26.8226C2.95406 27.1714 3.64664 27.5143 4.56184 27.8331C6.62721 28.5429 9.35424 28.9338 12.2421 28.9338C12.6811 28.9338 13.1201 28.9218 13.553 28.9038C13.553 28.9158 13.553 28.9278 13.553 28.9398C13.553 29.3128 13.7014 29.6617 13.9735 29.9263L15.2102 31.1293C15.0186 31.4962 14.8516 31.8812 14.7217 32.2782H12.9779C12.1802 32.2782 11.5371 32.9038 11.5371 33.6737ZM21.5671 23.9233C20.7756 23.9233 20.1325 24.5489 20.1325 25.3188V27.015C19.7306 27.1414 19.3348 27.3038 18.9514 27.4902L17.7147 26.2872C17.4426 26.0226 17.0839 25.8782 16.7005 25.8782C16.3171 25.8782 15.9585 26.0226 15.6864 26.2872L14.4929 27.4481C13.7571 27.5023 13.0088 27.5323 12.2482 27.5323C6.16961 27.5323 2.43463 25.8301 2.43463 24.615V19.5744C4.49382 20.9639 8.45141 21.6977 12.2482 21.6977C16.0451 21.6977 20.0026 20.9639 22.0618 19.5744V23.9173H21.5671V23.9233ZM2.43463 39.0812V34.0526C2.95406 34.4015 3.64664 34.7444 4.56184 35.0632C6.45406 35.7128 8.9152 36.0977 11.5433 36.1519C11.6113 36.8617 12.2235 37.4211 12.9717 37.4211H14.7155C14.8454 37.812 15.0124 38.197 15.2041 38.5699L13.9673 39.7729C13.6952 40.0376 13.5468 40.3865 13.5468 40.7594C13.5468 41.1323 13.6952 41.4812 13.9673 41.7459L14.1652 41.9383C13.5345 41.9805 12.8913 42.0045 12.2421 42.0045C6.16961 42.0045 2.43463 40.3023 2.43463 39.0812ZM31.9435 55.6045C30.2615 55.6045 28.8949 54.2752 28.8949 52.6391C28.8949 51.003 30.2615 49.6737 31.9435 49.6737C33.6254 49.6737 34.9921 51.003 34.9921 52.6391C34.9921 54.2752 33.6254 55.6045 31.9435 55.6045ZM55.5654 46.9308H46.6608V38.2632H55.5654V46.9308ZM55.5654 33.3308H46.6608V24.6692H55.5654V33.3308ZM50.2535 23.2737H45.9435C45.5477 23.2737 45.2261 23.5865 45.2261 23.9714V34.0286C45.2261 34.4135 45.5477 34.7263 45.9435 34.7263H50.2535V36.8737H45.9435C45.5477 36.8737 45.2261 37.1865 45.2261 37.5714V47.6286C45.2261 48.0135 45.5477 48.3263 45.9435 48.3263H50.2535V51.9474H36.371C36.0247 49.8722 34.1758 48.2842 31.9435 48.2842C29.7173 48.2842 27.8622 49.8722 27.5159 51.9474H13.6334V43.3639C14.2641 43.3338 14.8825 43.2917 15.4947 43.2256L15.6864 43.412C15.9585 43.6767 16.3171 43.8211 16.7005 43.8211C17.0839 43.8211 17.4426 43.6767 17.7147 43.412L18.9514 42.209C19.3286 42.3955 19.7244 42.5579 20.1325 42.6842V44.3805C20.1325 45.1504 20.7756 45.7759 21.5671 45.7759H23.985C24.7765 45.7759 25.4196 45.1504 25.4196 44.3805V42.6842C25.8216 42.5579 26.2173 42.3955 26.6007 42.209L27.8375 43.412C28.1095 43.6767 28.4682 43.8211 28.8516 43.8211C29.235 43.8211 29.5936 43.6767 29.8657 43.412L31.5786 41.7459C31.8507 41.4812 31.9991 41.1323 31.9991 40.7594C31.9991 40.3865 31.8507 40.0376 31.5786 39.7729L30.3419 38.5699C30.5336 38.203 30.7005 37.818 30.8304 37.4211H32.5742C33.3657 37.4211 34.0088 36.7955 34.0088 36.0256V33.6737C34.0088 32.9038 33.3657 32.2782 32.5742 32.2782H30.8304C30.7005 31.8872 30.5336 31.5023 30.3419 31.1293L31.5786 29.9263C32.1352 29.3789 32.1352 28.4947 31.5786 27.9534L29.8657 26.2932C29.303 25.7459 28.394 25.7459 27.8375 26.2932L26.6007 27.4962C26.2235 27.3098 25.8277 27.1474 25.4196 27.021V25.3248C25.4196 24.5549 24.7765 23.9293 23.985 23.9293H23.4903V17.385C23.4903 14.8226 18.636 13.3368 13.6334 13.1023V6.05865H27.5159C27.8622 8.13383 29.7111 9.7218 31.9435 9.7218C34.1696 9.7218 36.0247 8.13383 36.371 6.05865H50.2535V9.6797H45.9435C45.5477 9.6797 45.2261 9.99248 45.2261 10.3774V20.4346C45.2261 20.8195 45.5477 21.1323 45.9435 21.1323H50.2535V23.2737ZM47.9223 13.8962C47.9223 13.5113 48.2438 13.1985 48.6396 13.1985H53.5866C53.9823 13.1985 54.3039 13.5113 54.3039 13.8962C54.3039 14.2812 53.9823 14.594 53.5866 14.594H48.6396C48.2438 14.594 47.9223 14.2812 47.9223 13.8962ZM47.9223 16.9098C47.9223 16.5248 48.2438 16.212 48.6396 16.212H53.5866C53.9823 16.212 54.3039 16.5248 54.3039 16.9098C54.3039 17.2947 53.9823 17.6075 53.5866 17.6075H48.6396C48.2438 17.6075 47.9223 17.2947 47.9223 16.9098ZM47.9223 27.4962C47.9223 27.1113 48.2438 26.7985 48.6396 26.7985H53.5866C53.9823 26.7985 54.3039 27.1113 54.3039 27.4962C54.3039 27.8812 53.9823 28.194 53.5866 28.194H48.6396C48.2438 28.194 47.9223 27.8812 47.9223 27.4962ZM47.9223 30.5038C47.9223 30.1188 48.2438 29.806 48.6396 29.806H53.5866C53.9823 29.806 54.3039 30.1188 54.3039 30.5038C54.3039 30.8887 53.9823 31.2015 53.5866 31.2015H48.6396C48.2438 31.2015 47.9223 30.8887 47.9223 30.5038ZM47.9223 41.0902C47.9223 40.7053 48.2438 40.3925 48.6396 40.3925H53.5866C53.9823 40.3925 54.3039 40.7053 54.3039 41.0902C54.3039 41.4752 53.9823 41.788 53.5866 41.788H48.6396C48.2438 41.788 47.9223 41.4752 47.9223 41.0902ZM47.9223 44.1038C47.9223 43.7188 48.2438 43.406 48.6396 43.406H53.5866C53.9823 43.406 54.3039 43.7188 54.3039 44.1038C54.3039 44.4887 53.9823 44.8015 53.5866 44.8015H48.6396C48.2438 44.8015 47.9223 44.4887 47.9223 44.1038ZM17.7518 34.8526C17.7518 37.5474 20.0088 39.7429 22.7792 39.7429C25.5495 39.7429 27.8065 37.5474 27.8065 34.8526C27.8065 32.1579 25.5495 29.9624 22.7792 29.9624C20.0026 29.9624 17.7518 32.1579 17.7518 34.8526ZM26.3657 34.8526C26.3657 36.7774 24.7518 38.3474 22.773 38.3474C20.7942 38.3474 19.1802 36.7774 19.1802 34.8526C19.1802 32.9278 20.7942 31.3579 22.773 31.3579C24.7518 31.3579 26.3657 32.9278 26.3657 34.8526Z" fill="#703391" stroke="#703391"/>
</svg>
