<svg width="86" height="86" viewBox="0 0 86 86" fill="none" xmlns="http://www.w3.org/2000/svg">
<circle cx="43" cy="43" r="43" fill="#703391" fill-opacity="0.1"/>
<path d="M59.7695 52.8711C58.4558 52.8711 57.4453 53.8919 57.4453 55.1071C57.4453 56.371 58.5064 57.3431 59.7695 57.3431C61.0832 57.3431 62.0937 56.3224 62.0937 55.1071C62.0937 53.8919 61.0327 52.8711 59.7695 52.8711Z" fill="#703391"/>
<path d="M59.7696 49.3242C55.5254 49.3242 52.0391 52.6783 52.0391 56.7614C52.0391 60.8446 55.5254 64.1987 59.7696 64.1987C64.0138 64.1987 67.5001 60.8446 67.5001 56.7614C67.5001 52.6297 64.0138 49.3242 59.7696 49.3242ZM63.6096 61.2335V60.4557C63.6096 59.3377 62.8517 58.3655 61.7906 58.0253C61.1843 58.4142 60.477 58.6572 59.7191 58.6572C58.9612 58.6572 58.2538 58.4142 57.6475 58.0253C56.5864 58.3655 55.8285 59.3377 55.8285 60.4557V61.2335C54.4643 60.1641 53.6054 58.56 53.6054 56.7128C53.6054 53.5046 56.3338 50.8797 59.6685 50.8797C63.0033 50.8797 65.7317 53.5046 65.7317 56.7128C65.8327 58.56 64.9738 60.1641 63.6096 61.2335Z" fill="#703391"/>
<path d="M27.2305 52.8711C25.9168 52.8711 24.9062 53.8919 24.9062 55.1071C24.9062 56.371 25.9673 57.3431 27.2305 57.3431C28.5441 57.3431 29.5547 56.3224 29.5547 55.1071C29.5547 53.8919 28.5441 52.8711 27.2305 52.8711Z" fill="#703391"/>
<path d="M27.2305 49.3242C22.9863 49.3242 19.5 52.6783 19.5 56.7614C19.5 60.8446 22.9863 64.1987 27.2305 64.1987C31.4747 64.1987 34.9611 60.8446 34.9611 56.7614C34.9611 52.6297 31.4747 49.3242 27.2305 49.3242ZM31.1211 61.2335V60.4557C31.1211 59.3377 30.3632 58.3655 29.3021 58.0253C28.6958 58.4142 27.9884 58.6572 27.2305 58.6572C26.4726 58.6572 25.7653 58.4142 25.1589 58.0253C24.0979 58.3655 23.34 59.3377 23.34 60.4557V61.2335C21.9758 60.1641 21.1168 58.56 21.1168 56.7128C21.1168 53.5046 23.8453 50.8797 27.18 50.8797C30.5147 50.8797 33.2432 53.5046 33.2432 56.7128C33.2937 58.56 32.4347 60.1641 31.1211 61.2335Z" fill="#703391"/>
<path d="M43.5 30.3197C44.8137 30.3197 45.8242 29.2989 45.8242 28.0837C45.8242 26.8198 44.7631 25.8477 43.5 25.8477C42.1863 25.8477 41.1758 26.8685 41.1758 28.0837C41.1758 29.2989 42.1863 30.3197 43.5 30.3197Z" fill="#703391"/>
<path d="M43.5001 37.0737C47.7443 37.0737 51.2306 33.7196 51.2306 29.6364C51.2306 25.5533 47.7443 22.1992 43.5001 22.1992C39.2558 22.1992 35.7695 25.5533 35.7695 29.6364C35.7695 33.7682 39.2558 37.0737 43.5001 37.0737ZM43.5001 23.8033C46.8348 23.8033 49.5632 26.4282 49.5632 29.6364C49.5632 31.435 48.7043 33.0877 47.3401 34.1571V33.3794C47.3401 32.2613 46.5822 31.2892 45.5211 30.9489C44.9148 31.3378 44.2074 31.5808 43.4495 31.5808C42.6916 31.5808 41.9843 31.3378 41.378 30.9489C40.3169 31.2892 39.559 32.2613 39.559 33.3794V34.1571C38.1948 33.0877 37.3358 31.4836 37.3358 29.6364C37.4369 26.4282 40.1653 23.8033 43.5001 23.8033Z" fill="#703391"/>
<path d="M33.7982 37.8504C34.5055 38.2393 35.3645 37.9962 35.7687 37.3643C36.1729 36.6838 35.9203 35.8574 35.2634 35.4685C34.5561 35.0797 33.6971 35.3227 33.2929 35.9546C32.8382 36.5865 33.0908 37.4615 33.7982 37.8504Z" fill="#703391"/>
<path d="M28.2904 46.991C28.9977 47.3799 29.8567 47.1368 30.2609 46.5049C30.6651 45.8244 30.4125 44.998 29.7556 44.6092C29.0483 44.2203 28.1893 44.4633 27.7851 45.0952C27.3304 45.7758 27.583 46.6021 28.2904 46.991Z" fill="#703391"/>
<path d="M31.0199 42.4168C31.7272 42.8057 32.5862 42.5626 32.9904 41.9307C33.3946 41.2502 33.142 40.4238 32.4851 40.0349C31.8283 39.6461 30.9188 39.8891 30.5146 40.521C30.1104 41.1529 30.3125 42.0279 31.0199 42.4168Z" fill="#703391"/>
<path d="M56.7376 46.4533C57.1418 47.1339 58.0008 47.3283 58.7082 46.9394C59.4155 46.5506 59.6176 45.7242 59.2134 45.0437C58.8092 44.3631 57.9503 44.1687 57.2429 44.5576C56.5861 44.9464 56.3334 45.7728 56.7376 46.4533Z" fill="#703391"/>
<path d="M51.2298 37.2658C51.634 37.9464 52.493 38.1408 53.2003 37.7519C53.9077 37.3631 54.1098 36.5367 53.7056 35.8562C53.3014 35.1756 52.4424 34.9812 51.7351 35.3701C51.0782 35.7589 50.8256 36.6339 51.2298 37.2658Z" fill="#703391"/>
<path d="M54.0087 41.883C54.413 42.5636 55.2719 42.758 55.9793 42.3691C56.6866 41.9802 56.8887 41.1539 56.4845 40.4734C56.0803 39.7928 55.2214 39.5984 54.514 39.9873C53.8066 40.3761 53.6045 41.2025 54.0087 41.883Z" fill="#703391"/>
<path d="M49.0082 59.2852C48.1998 59.2852 47.543 59.9171 47.543 60.6948C47.543 61.4726 48.1998 62.1045 49.0082 62.1045C49.8167 62.1045 50.4735 61.4726 50.4735 60.6948C50.4735 59.8685 49.8167 59.2852 49.0082 59.2852Z" fill="#703391"/>
<path d="M37.9926 59.2852C37.1842 59.2852 36.5273 59.9171 36.5273 60.6948C36.5273 61.4726 37.1842 62.1045 37.9926 62.1045C38.801 62.1045 39.4579 61.4726 39.4579 60.6948C39.4579 59.8685 38.801 59.2852 37.9926 59.2852Z" fill="#703391"/>
<path d="M43.5004 59.2852C42.692 59.2852 42.0352 59.9171 42.0352 60.6948C42.0352 61.4726 42.692 62.1045 43.5004 62.1045C44.3088 62.1045 44.9657 61.4726 44.9657 60.6948C44.9657 59.8685 44.3088 59.2852 43.5004 59.2852Z" fill="#703391"/>
<path d="M50.7751 46.2111L49.3098 46.0167C49.1077 45.5792 49.0572 45.482 48.9056 45.0445L49.7646 43.9265C50.0172 43.6349 49.9667 43.1974 49.714 42.9543L48.5519 41.8363C48.2993 41.5933 47.8446 41.5447 47.5414 41.7877L46.3793 42.6141C45.9246 42.4196 45.8235 42.371 45.3688 42.2252L45.1667 40.8155C45.1161 40.4266 44.7624 40.1836 44.4088 40.1836H42.7414C42.3372 40.1836 42.034 40.4752 41.9835 40.8155L41.7814 42.2252C41.3267 42.4196 41.2256 42.4682 40.7709 42.6141L39.5077 41.7391C39.2046 41.496 38.7498 41.5447 38.4972 41.7877L37.3351 42.9057C37.0824 43.1488 37.0319 43.5862 37.2846 43.8779L38.1435 44.9959C37.9414 45.4334 37.8909 45.5306 37.7393 45.9681L36.274 46.1625C35.8698 46.2111 35.6172 46.5514 35.6172 46.8917V48.4958C35.6172 48.8847 35.9203 49.1763 36.274 49.2249L37.7393 49.4194C37.9414 49.8568 37.9919 49.9541 38.1435 50.3915L37.2846 51.5096C37.0319 51.8012 37.0824 52.2387 37.3351 52.4817L38.4972 53.5998C38.7498 53.8428 39.2046 53.8914 39.5077 53.6484L40.6698 52.822C41.1246 53.0165 41.2256 53.0651 41.6803 53.2109L41.8824 54.6206C41.933 55.0094 42.2867 55.2525 42.6403 55.2525H44.3077C44.7119 55.2525 45.0151 54.9608 45.0656 54.6206L45.2677 53.2109C45.7224 53.0164 45.8235 52.9678 46.2782 52.822L47.4403 53.6484C47.7435 53.8914 48.1982 53.8428 48.4509 53.5998L49.613 52.4817C49.8656 52.2387 49.9161 51.8012 49.6635 51.5096L48.9056 50.4888C49.1077 50.0513 49.1582 49.9541 49.3098 49.5166L50.7751 49.3221C51.1793 49.2735 51.4319 48.9333 51.4319 48.593V46.9889C51.4319 46.6 51.1288 46.2598 50.7751 46.2111ZM46.4298 47.0375L43.2467 50.0999C43.0446 50.2943 42.7919 50.3915 42.5393 50.3915C42.2867 50.3915 42.034 50.2943 41.8319 50.0999L40.3161 48.5444C39.9119 48.1555 39.9119 47.5722 40.3161 47.1833C40.7203 46.7945 41.3267 46.7945 41.7309 47.1833L42.5898 48.0097L45.0656 45.6278C45.4698 45.239 46.0761 45.239 46.4803 45.6278C46.834 46.0653 46.834 46.6486 46.4298 47.0375Z" fill="#703391"/>
</svg>
