<svg width="58" height="58" viewBox="0 0 58 58" fill="none" xmlns="http://www.w3.org/2000/svg">
<path fill-rule="evenodd" clip-rule="evenodd" d="M9.93226 49.769L7.96599 49.7665C7.37296 49.7665 6.89413 49.2853 6.89413 48.6947L6.88927 8.02352H3.15367V52.7539H9.9325L9.93226 49.769ZM18.1714 36.8683C16.1201 36.8683 14.4576 38.5308 14.4576 40.5821C14.4576 42.6334 16.1201 44.2959 18.1714 44.2959C20.2227 44.2959 21.8852 42.6334 21.8852 40.5821C21.8852 38.5308 20.2227 36.8683 18.1714 36.8683ZM14.0226 36.4333C11.8206 38.6353 11.721 42.174 13.799 44.4951C12.2192 44.9423 10.9286 46.1114 10.3161 47.6255L9.04253 47.623V3.14841H36.0863V8.13084C36.0863 8.7263 36.5676 9.20755 37.163 9.20755H42.7483V15.8769L37.4839 24.9983C37.3478 25.217 37.3016 25.3896 37.3065 25.6375L37.2822 27.5138H19.501C18.9056 27.5138 18.4243 27.995 18.4243 28.5905C18.4243 29.186 18.9055 29.6672 19.501 29.6672H37.2529L37.2165 32.4355C37.1752 33.3785 38.1401 33.8548 38.8352 33.4417L42.7458 31.1157V36.3582C40.4758 38.5505 40.3445 42.1427 42.4493 44.4903C41.3264 44.8087 40.3494 45.4893 39.6567 46.4031C38.964 45.4868 37.987 44.8087 36.8641 44.4903C38.9421 42.1717 38.8425 38.6329 36.6405 36.4285C34.3486 34.1366 30.6348 34.1366 28.3454 36.4285C26.1433 38.6306 26.0437 42.1693 28.1217 44.4903C26.9989 44.8087 26.0218 45.4893 25.3291 46.4031C24.6364 45.4868 23.6594 44.8063 22.5365 44.4903C24.6145 42.1717 24.5149 38.6329 22.3129 36.4285C20.021 34.1366 16.3073 34.1366 14.0153 36.4285L14.0226 36.4333ZM39.659 57L11.0087 56.9976C10.4156 56.9976 9.93195 56.5163 9.93195 55.9209V54.9049H2.07671C1.48125 54.9049 1 54.4237 1 53.8282V6.94443C1 6.34897 1.48123 5.86772 2.07671 5.86772H6.88903V2.07618C6.88903 1.44185 7.43102 0.948445 8.06051 1.00432H37.0922C37.3742 0.984874 37.6609 1.07723 37.8869 1.28139L44.5028 7.29194C44.7482 7.4888 44.9038 7.79261 44.9038 8.13047V12.1431L48.5398 5.8434C49.6651 3.89418 51.3931 3.21605 52.9997 3.39593C54.2514 3.53689 55.4034 4.20285 56.152 5.21392C57.1145 6.51668 57.3867 8.35409 56.2662 10.2985L45.2079 29.4553C45.1253 29.6108 45.0427 29.7202 44.9017 29.8271V35.0332C48.6932 33.7207 52.6891 36.5352 52.6891 40.5795C52.6891 42.0816 52.1252 43.4547 51.1968 44.4926C53.445 45.1317 55.0637 47.2025 55.0637 49.6014V55.9204C55.0637 56.5159 54.5824 56.9971 53.9894 56.9971H39.662L39.659 57ZM12.0832 54.8466H24.2546V49.6041C24.2546 47.8712 22.8328 46.4494 21.0999 46.4494H15.24C13.5071 46.4494 12.0853 47.8712 12.0853 49.6041V54.8466H12.0832ZM44.4984 37.6877C42.7752 39.0706 42.6318 41.6445 44.197 43.2097C45.6456 44.6606 47.9983 44.6606 49.4468 43.2097C50.8954 41.7587 50.8954 39.4084 49.4468 37.9575C48.1077 36.6183 45.9737 36.5017 44.4984 37.6877ZM40.7361 54.8466H52.9056V49.6041C52.9056 47.8712 51.4838 46.4494 49.7533 46.4494H43.8935C42.1605 46.4494 40.7387 47.8712 40.7387 49.6041V54.8466H40.7361ZM32.4944 36.8683C30.4431 36.8683 28.7807 38.5307 28.7807 40.582C28.7807 42.6333 30.4431 44.2958 32.4944 44.2958C34.5458 44.2958 36.2082 42.6333 36.2082 40.582C36.2082 38.5307 34.5458 36.8683 32.4944 36.8683ZM26.4086 54.8466H38.5781V49.6041C38.5781 47.8712 37.1563 46.4494 35.4234 46.4494H29.5636C27.8306 46.4494 26.4088 47.8712 26.4088 49.6041L26.4086 54.8466ZM47.7263 11.543L51.7366 13.8592L52.4851 12.5638L48.4749 10.2476L47.7263 11.543ZM50.6623 15.7209L46.6545 13.4046L39.8489 25.1947L43.8592 27.5109L50.6648 15.7209H50.6623ZM42.1239 28.9911L39.431 27.4381L39.3897 30.6171L42.1215 28.9935L42.1239 28.9911ZM49.5492 8.38831L53.5619 10.7046L54.4101 9.23169C55.2219 7.82932 54.8233 6.49017 53.698 5.83879C53.4137 5.67595 53.0977 5.57144 52.772 5.53499C51.9408 5.44263 51.0294 5.82664 50.4047 6.91303L49.5517 8.38832L49.5492 8.38831ZM11.2356 31.2758L12.6039 32.6442C13.0244 33.0646 13.7049 33.0646 14.1254 32.6442L17.02 29.7495C17.4405 29.329 17.4405 28.6461 17.02 28.2256C16.5995 27.8052 15.9166 27.8052 15.4986 28.2256L13.3646 30.3596L12.757 29.752C12.3365 29.3315 11.656 29.3315 11.2355 29.752C10.8151 30.1724 10.8151 30.8529 11.2355 31.2734L11.2356 31.2758ZM19.5015 33.3052H29.6489C30.2443 33.3052 30.7256 32.824 30.7256 32.2285C30.7256 31.6331 30.2444 31.1518 29.6489 31.1518H19.5015C18.906 31.1518 18.4248 31.6331 18.4248 32.2285C18.4248 32.824 18.906 33.3052 19.5015 33.3052ZM11.2356 23.2505L12.6039 24.6189C13.0244 25.0393 13.7049 25.0393 14.1254 24.6189L17.02 21.7242C17.4405 21.3038 17.4405 20.6208 17.02 20.2028C16.5995 19.7823 15.9166 19.7823 15.4986 20.2028L13.3646 22.3343L12.757 21.7267C12.3365 21.3062 11.656 21.3062 11.2355 21.7267C10.8151 22.1472 10.8151 22.8301 11.2356 23.2505ZM19.5015 25.28H29.6489C30.2443 25.28 30.7256 24.7987 30.7256 24.2032C30.7256 23.6078 30.2444 23.1265 29.6489 23.1265H19.5015C18.906 23.1265 18.4248 23.6078 18.4248 24.2032C18.4248 24.7987 18.906 25.28 19.5015 25.28ZM19.5015 21.6391H38.1699C38.7653 21.6391 39.2466 21.1579 39.2466 20.5624C39.2466 19.9669 38.7653 19.4857 38.1699 19.4857H19.5015C18.906 19.4857 18.4248 19.9669 18.4248 20.5624C18.4248 21.1579 18.906 21.6391 19.5015 21.6391ZM11.2356 14.9505L12.6039 16.3188C13.0244 16.7393 13.7049 16.7393 14.1254 16.3188L17.02 13.4242C17.4405 13.0037 17.4405 12.3208 17.02 11.9003C16.5995 11.4798 15.9166 11.4798 15.4986 11.9003L13.3646 14.0342L12.757 13.4266C12.3365 13.0062 11.656 13.0062 11.2355 13.4266C10.8151 13.8471 10.8151 14.53 11.2355 14.9481L11.2356 14.9505ZM19.5015 17.2521H29.6489C30.2443 17.2521 30.7256 16.7709 30.7256 16.1754C30.7256 15.5799 30.2444 15.0987 29.6489 15.0987H19.5015C18.906 15.0987 18.4248 15.5824 18.4248 16.1754C18.4248 16.7685 18.906 17.2521 19.5015 17.2521ZM19.5015 13.6113H38.1699C38.7653 13.6113 39.2466 13.13 39.2466 12.5346C39.2466 11.9391 38.7653 11.4579 38.1699 11.4579H19.5015C18.906 11.4579 18.4248 11.9391 18.4248 12.5346C18.4248 13.1276 18.906 13.6113 19.5015 13.6113ZM41.0401 7.05643L38.2377 4.50928V7.05643H41.0401Z" fill="#703391" stroke="#703391" stroke-width="0.5"/>
</svg>
