<svg width="56" height="56" viewBox="0 0 56 56" fill="none" xmlns="http://www.w3.org/2000/svg">
<path d="M13.8499 1.15498C14.3048 1.45851 14.6345 1.81698 14.882 2.3124C14.882 3.12465 14.882 3.93689 14.882 4.77375C16.9305 4.77375 18.979 4.77375 21.0895 4.77375C21.0895 4.00018 21.0895 3.22662 21.0895 2.42961C21.4389 1.73026 21.6373 1.4625 22.3046 1.11103C23.0026 0.911468 23.5341 1.00196 24.1585 1.34224C24.5904 1.64953 24.7909 2.05564 24.9545 2.54682C24.9545 3.2817 24.9545 4.01659 24.9545 4.77375C26.9644 4.77375 28.9742 4.77375 31.0449 4.77375C31.0449 4.03886 31.0449 3.30397 31.0449 2.54682C31.4911 1.65377 31.6623 1.32507 32.5675 1.02312C33.269 0.954303 33.7498 1.1045 34.3243 1.49195C35.2738 2.49084 34.91 3.16772 34.91 4.77375C36.9584 4.77375 39.0069 4.77375 41.1174 4.77375C41.1174 3.96151 41.1174 3.14926 41.1174 2.3124C41.8202 1.25754 41.8202 1.25754 42.5229 1.02312C43.1807 0.979961 43.5977 0.997859 44.1626 1.37475C44.6317 1.8505 44.8808 2.20268 44.8768 2.87371C44.8764 2.98401 44.876 3.0943 44.8757 3.20794C44.8747 3.32337 44.8737 3.4388 44.8727 3.55773C44.8722 3.67406 44.8716 3.7904 44.8711 3.91026C44.8697 4.1981 44.8678 4.48592 44.8654 4.77375C44.9726 4.7713 45.0799 4.76884 45.1904 4.76631C45.5982 4.7582 46.0059 4.75239 46.4137 4.748C46.5884 4.74568 46.7631 4.74251 46.9377 4.73838C49.1757 4.68697 51.2733 5.15216 52.9477 6.74796C54.8718 8.83204 54.9908 11.2007 54.9852 13.8874C54.9859 14.1806 54.9867 14.4738 54.9876 14.7669C54.9895 15.4774 54.9898 16.1878 54.9892 16.8983C54.9887 17.4758 54.9888 18.0534 54.9895 18.6309C54.9896 18.7134 54.9896 18.7959 54.9897 18.8809C54.9899 19.0484 54.9901 19.216 54.9903 19.3836C54.9919 20.9511 54.9912 22.5186 54.9899 24.0861C54.9887 25.519 54.9903 26.9519 54.9931 28.3848C54.9959 29.8587 54.997 31.3326 54.9963 32.8065C54.9958 33.6329 54.9961 34.4594 54.9982 35.2859C55.0001 36.0623 54.9995 36.8388 54.9973 37.6152C54.9969 37.9001 54.9972 38.1849 54.9985 38.4697C55 38.8586 54.9987 39.2474 54.9966 39.6364C54.9977 39.7489 54.9988 39.8614 55 39.9774C54.9887 41.0085 54.6622 41.6764 53.9339 42.4066C53.827 42.5149 53.7202 42.6232 53.61 42.7347C53.4925 42.8514 53.3749 42.9681 53.2573 43.0848C53.1327 43.2102 53.0082 43.3356 52.8838 43.4611C52.5473 43.8 52.2093 44.1374 51.871 44.4744C51.5163 44.8282 51.1628 45.1831 50.8091 45.5378C50.2151 46.133 49.6202 46.7273 49.0247 47.3209C48.3371 48.0065 47.6512 48.6937 46.9662 49.3818C46.3769 49.9737 45.7867 50.5646 45.1957 51.1548C44.8432 51.5068 44.491 51.8591 44.1397 52.2123C43.8094 52.5442 43.4779 52.8749 43.1456 53.2048C43.0241 53.3258 42.903 53.4472 42.7823 53.569C42.617 53.7357 42.4501 53.9008 42.2832 54.0658C42.1904 54.1585 42.0976 54.2511 42.002 54.3466C41.2114 54.9818 40.5009 54.9893 39.5211 54.9838C39.3161 54.9848 39.3161 54.9848 39.107 54.9857C38.7292 54.9871 38.3515 54.9869 37.9737 54.9861C37.5656 54.9855 37.1575 54.987 36.7494 54.9882C35.9503 54.9902 35.1512 54.9903 34.352 54.9897C33.7019 54.9892 33.0517 54.9894 32.4015 54.99C32.3089 54.9901 32.2162 54.9902 32.1208 54.9903C31.9325 54.9905 31.7443 54.9906 31.5561 54.9908C29.7911 54.9924 28.0261 54.9918 26.261 54.9904C24.6495 54.9893 23.038 54.9908 21.4265 54.9936C19.7694 54.9965 18.1124 54.9976 16.4553 54.9968C15.526 54.9964 14.5967 54.9966 13.6673 54.9987C12.8756 55.0004 12.0838 55.0005 11.2921 54.9985C10.8888 54.9975 10.4856 54.9972 10.0823 54.999C7.46087 55.0083 5.05737 54.8757 3.05173 52.9642C1.52635 51.312 1.00515 49.3293 1.01616 47.123C1.01553 46.9689 1.0149 46.8148 1.01425 46.6561C1.01257 46.2328 1.01305 45.8096 1.01392 45.3863C1.01447 44.9281 1.013 44.4699 1.0118 44.0117C1.0098 43.1157 1.00969 42.2197 1.01031 41.3238C1.01078 40.595 1.01061 39.8662 1.00999 39.1374C1.0099 39.0334 1.00981 38.9294 1.00972 38.8222C1.00954 38.6109 1.00936 38.3996 1.00918 38.1883C1.00757 36.2095 1.00821 34.2308 1.00955 32.252C1.01071 30.445 1.0092 28.6379 1.0064 26.8309C1.00354 24.9718 1.00242 23.1128 1.00319 21.2537C1.0036 20.2114 1.00335 19.1691 1.00129 18.1269C0.999561 17.2395 0.9995 16.3522 1.00153 15.4649C1.00253 15.0129 1.00279 14.5609 1.00099 14.109C0.990932 11.3902 1.04344 8.85732 3.03435 6.76536C4.83278 5.10256 6.93513 4.71069 9.29674 4.75178C9.476 4.75354 9.65527 4.75515 9.83454 4.75658C10.2678 4.7604 10.7009 4.76644 11.1341 4.77375C11.1304 4.66743 11.1304 4.66743 11.1267 4.55897C11.1169 4.23501 11.1108 3.91108 11.1048 3.58703C11.1009 3.47553 11.097 3.36402 11.0929 3.24914C11.0834 2.55971 11.1313 2.15126 11.6026 1.60916C12.2839 0.993841 12.9836 0.849034 13.8499 1.15498ZM5.74646 9.57924C4.29723 11.5664 4.9266 13.2573 4.9266 16.0256C20.1549 16.0256 35.3831 16.0256 51.0728 16.0256C51.3813 12.7466 51.3813 12.7466 50.3294 9.65387C49.5222 8.85377 48.6562 8.62544 47.5532 8.63014C47.4375 8.63039 47.4375 8.63039 47.3194 8.63064C47.0748 8.63129 46.8302 8.63276 46.5856 8.63426C46.419 8.63485 46.2524 8.63538 46.0858 8.63586C45.679 8.63715 45.2722 8.63917 44.8654 8.64159C44.8637 8.75323 44.8637 8.75323 44.862 8.86713C44.8557 9.20715 44.8459 9.54698 44.8361 9.88691C44.8344 10.004 44.8328 10.1211 44.831 10.2417C44.8076 10.951 44.754 11.384 44.2797 11.9234C43.6981 12.3392 43.0969 12.3735 42.4058 12.275C41.8003 12.0647 41.5715 11.782 41.2346 11.2201C41.1959 10.3692 41.1573 9.51829 41.1174 8.64159C39.069 8.64159 37.0205 8.64159 34.91 8.64159C34.8713 9.45383 34.8326 10.2661 34.7928 11.1029C34.1966 11.998 34.1966 11.998 33.6216 12.275C32.9318 12.3751 32.3278 12.3381 31.7476 11.9234C30.9053 10.8298 31.1303 10.2644 31.0449 8.64159C29.0351 8.64159 27.0253 8.64159 24.9545 8.64159C24.9159 9.37647 24.8772 10.1114 24.8374 10.8685C24.3039 11.9364 24.3039 11.9364 23.9004 12.1578C23.2466 12.3759 22.6061 12.385 21.9826 12.0845C21.6751 11.8062 21.6751 11.8062 21.2066 11.1029C21.168 10.2907 21.1293 9.47844 21.0895 8.64159C19.041 8.64159 16.9926 8.64159 14.882 8.64159C14.8434 9.49251 14.8047 10.3434 14.7649 11.2201C14.196 12.0741 14.196 12.0741 13.5937 12.275C12.7942 12.3821 12.2482 12.2941 11.6026 11.8062C11.1279 11.2479 11.1863 10.5911 11.1707 9.89424C11.1667 9.7739 11.1627 9.65355 11.1586 9.52957C11.1489 9.23359 11.1408 8.93764 11.1341 8.64159C10.653 8.63281 10.1719 8.62647 9.69079 8.62227C9.52757 8.62052 9.36435 8.61813 9.20115 8.61506C7.93919 8.59195 6.68838 8.62764 5.74646 9.57924ZM4.9266 19.8935C4.91936 24.5711 4.91211 29.2488 4.90464 34.0682C4.90145 35.5455 4.89825 37.0228 4.89495 38.5449C4.89378 39.8685 4.89378 39.8685 4.89307 41.192C4.89274 41.7818 4.89142 42.3716 4.88951 42.9614C4.8871 43.7139 4.88638 44.4663 4.88687 45.2188C4.88677 45.4949 4.88607 45.7709 4.88472 46.047C4.88297 46.4202 4.88339 46.7934 4.88435 47.1667C4.88333 47.2744 4.8823 47.3821 4.88125 47.4931C4.88823 48.504 5.12427 49.5173 5.86358 50.2501C6.60818 50.7939 7.24797 51.0854 8.17537 51.085C8.28425 51.0852 8.39312 51.0854 8.50529 51.0857C8.6239 51.0853 8.7425 51.085 8.8647 51.0847C9.05485 51.0848 9.05485 51.0848 9.24884 51.085C9.67432 51.0851 10.0998 51.0845 10.5253 51.0839C10.83 51.0838 11.1347 51.0839 11.4394 51.0839C12.0958 51.084 12.7523 51.0836 13.4087 51.083C14.3577 51.082 15.3068 51.0817 16.2558 51.0815C17.7956 51.0813 19.3354 51.0805 20.8752 51.0794C22.3709 51.0783 23.8666 51.0775 25.3623 51.077C25.5006 51.077 25.5006 51.077 25.6417 51.0769C26.1043 51.0767 26.5669 51.0766 27.0294 51.0765C30.8665 51.0752 34.7036 51.0732 38.5407 51.0706C38.5412 50.9346 38.5416 50.7987 38.542 50.6586C38.5464 49.3756 38.5531 48.0926 38.5623 46.8096C38.5669 46.1501 38.5707 45.4906 38.5725 44.831C38.5743 44.1941 38.5783 43.5573 38.5839 42.9205C38.5856 42.6779 38.5865 42.4352 38.5866 42.1926C38.5869 41.852 38.5901 41.5115 38.5939 41.1709C38.5933 41.0713 38.5928 40.9716 38.5921 40.8689C38.6036 40.2063 38.7289 39.6584 39.1264 39.1154C39.7603 38.6306 40.4047 38.578 41.1803 38.5826C41.2896 38.5814 41.3988 38.5802 41.5114 38.5789C41.862 38.5755 42.2125 38.5753 42.5632 38.5752C42.7808 38.5735 42.9985 38.5717 43.2162 38.5696C44.0196 38.5635 44.8232 38.5613 45.6267 38.5587C48.3225 38.5442 48.3225 38.5442 51.0728 38.5294C51.0728 32.3795 51.0728 26.2297 51.0728 19.8935C35.8446 19.8935 20.6163 19.8935 4.9266 19.8935ZM42.4058 42.3972C42.4058 44.3312 42.4058 46.2651 42.4058 48.2576C42.8855 47.8461 43.3381 47.4565 43.781 47.0137C43.8818 46.9132 43.9826 46.8128 44.0864 46.7093C44.1923 46.603 44.2983 46.4968 44.4074 46.3873C44.5191 46.2756 44.6309 46.1639 44.7426 46.0522C44.975 45.8198 45.2072 45.5872 45.4392 45.3545C45.7372 45.0556 46.0358 44.7572 46.3344 44.459C46.5644 44.2293 46.7942 43.9992 47.0238 43.7691C47.1874 43.6053 47.3512 43.4417 47.5151 43.2781C47.6133 43.1795 47.7114 43.0808 47.8126 42.9792C47.8996 42.8921 47.9866 42.8049 48.0762 42.7151C48.2752 42.5457 48.2752 42.5457 48.2619 42.3972C46.3294 42.3972 44.3969 42.3972 42.4058 42.3972Z" fill="#703391"/>
<path d="M36.3448 26.2368C36.8343 26.5708 37.1785 26.9378 37.3696 27.5114C37.3934 27.7518 37.3934 27.7518 37.3989 28.0169C37.4034 28.1467 37.4034 28.1467 37.408 28.2792C37.291 29.1535 36.6386 29.7001 36.0452 30.2906C35.946 30.3907 35.8467 30.4909 35.7444 30.594C35.4731 30.8674 35.2009 31.1399 34.9284 31.412C34.7004 31.6397 34.473 31.868 34.2457 32.0962C33.709 32.6349 33.1714 33.1727 32.6332 33.71C32.0791 34.2632 31.5264 34.8179 30.9745 35.3734C30.4995 35.8512 30.0237 36.3282 29.5472 36.8044C29.263 37.0884 28.9791 37.3727 28.6962 37.6579C28.3803 37.9758 28.0629 38.2921 27.7451 38.6082C27.6522 38.7022 27.5593 38.7963 27.4636 38.8932C26.8493 39.5 26.3663 39.8749 25.489 39.9866C24.364 39.8484 23.6893 39.0883 22.9283 38.3173C22.815 38.204 22.7017 38.0907 22.5882 37.9775C22.3519 37.7412 22.1165 37.5042 21.8816 37.2664C21.5816 36.9629 21.2798 36.6612 20.9774 36.3601C20.7436 36.1269 20.5106 35.8928 20.2778 35.6584C20.1133 35.493 19.9481 35.3281 19.7829 35.1633C19.6327 35.0108 19.6327 35.0108 19.4795 34.8552C19.3475 34.7223 19.3475 34.7223 19.213 34.5866C18.7498 34.0323 18.561 33.5323 18.5897 32.8219C18.6882 32.1605 18.9424 31.7412 19.4572 31.3206C20.0025 31.0572 20.6184 31.0309 21.2067 31.1448C21.8037 31.4954 22.2631 31.9367 22.7467 32.4286C22.8237 32.506 22.9007 32.5834 22.98 32.6631C23.224 32.9085 23.4671 33.1548 23.7102 33.4011C23.8762 33.5684 24.0423 33.7356 24.2084 33.9029C24.6139 34.3112 25.0187 34.7204 25.4231 35.1299C25.9996 34.6464 26.5405 34.1437 27.0686 33.6081C27.1466 33.5295 27.2246 33.4509 27.305 33.3699C27.4729 33.2006 27.6407 33.0312 27.8084 32.8617C28.0739 32.5934 28.3399 32.3255 28.6061 32.0578C29.3623 31.2972 30.118 30.536 30.8725 29.7736C31.3352 29.3062 31.7987 28.8397 32.2628 28.3737C32.4391 28.1962 32.6152 28.0184 32.7909 27.8404C33.0362 27.5918 33.2825 27.3444 33.5291 27.0972C33.6374 26.9867 33.6374 26.9867 33.7478 26.8739C34.5092 26.1155 35.3059 25.8769 36.3448 26.2368Z" fill="#703391"/>
</svg>
