<svg width="86" height="86" viewBox="0 0 86 86" fill="none" xmlns="http://www.w3.org/2000/svg">
    <circle cx="43" cy="43" r="43" fill="#703391" fill-opacity="0.1"/>
    <path fill-rule="evenodd" clip-rule="evenodd" d="M51.3955 19.0315C51.6319 18.9975 51.6319 18.9975 51.9238 19.0022L52.2396 19.0052L52.5705 19.0128L52.9037 19.0169C53.1759 19.0204 53.448 19.0254 53.7202 19.0315L53.7774 19.2728C53.8704 19.5828 53.9163 19.736 53.9945 19.8709C54.0709 20.0027 54.1781 20.1171 54.3901 20.3432C54.8127 20.5529 55.2595 20.6864 55.7108 20.8211L55.7416 20.8303L55.9986 20.9599C56.3289 21.0534 56.5393 20.9629 56.8285 20.8385L56.8761 20.818C56.8955 20.8098 56.9153 20.8013 56.9355 20.7929L57.2912 20.6469L57.5608 20.5305C57.8185 20.765 58.0721 21.0033 58.3252 21.2426L58.5469 21.444L58.547 21.4441C58.8758 21.7584 58.9999 21.8771 59.0488 22.0208C59.0785 22.108 59.0805 22.2044 59.0836 22.3591V22.3594L59.0832 22.3605C59.0647 22.4067 59.0495 22.4449 59.036 22.4781C59.0288 22.4958 59.0221 22.5122 59.0157 22.5275C59.0114 22.5377 59.0073 22.5474 59.0033 22.5569C58.9946 22.5771 58.9863 22.596 58.9777 22.6147C58.9418 22.6926 58.9011 22.7684 58.812 22.9344L58.8117 22.935L58.8116 22.9352C58.6531 23.2699 58.6752 23.3538 58.7606 23.6787L58.7737 23.7284L58.87 24.1059C58.991 24.5388 59.0505 24.7516 59.1592 24.936C59.2642 25.1143 59.4152 25.2661 59.7119 25.5645L59.7125 25.5651C59.8797 25.6431 59.9768 25.6884 60.0762 25.7277C60.2135 25.782 60.3555 25.8248 60.6935 25.9268L60.694 25.927V28.2255L60.6938 28.2255L60.6931 28.2258C59.9103 28.5354 59.7343 28.605 59.5535 28.6207C59.5011 28.6252 59.4482 28.6252 59.3801 28.6252L59.328 28.8376C59.2072 29.3051 59.0885 29.7328 58.8495 30.1555C58.7037 30.4267 58.6725 30.5163 58.6789 30.8363C58.7024 30.9149 58.7197 30.9728 58.7356 31.0208C58.7484 31.0596 58.7603 31.092 58.7737 31.1237C58.8067 31.2014 58.8491 31.2752 58.9379 31.4296C59.1044 31.7812 59.1053 31.8614 58.9758 32.2228C58.7883 32.4735 58.5734 32.6901 58.3505 32.9099L58.1773 33.0934C58.0122 33.2579 57.8603 33.3983 57.6619 33.522C57.2728 33.5201 57.0585 33.4234 56.7059 33.2644L56.6954 33.2597C56.2307 33.0759 56.0026 33.16 55.5458 33.3377L55.2362 33.472C54.8647 33.6332 54.5256 33.7576 54.1245 33.8218L54.0929 34.0779C54.0709 34.1867 54.0558 34.2611 54.0359 34.3342C53.9929 34.4917 53.9273 34.6431 53.7202 35.1209H51.3955L51.1808 34.5026C50.9826 34.0682 50.8691 33.866 50.4445 33.6313C50.0902 33.5125 49.7355 33.4167 49.3741 33.3221L49.0709 33.1223C48.7005 33.1472 48.4384 33.2337 48.0981 33.3846C47.872 33.4756 47.7699 33.5168 47.6689 33.5142C47.5856 33.5121 47.5032 33.4802 47.3527 33.4221C47.2691 33.3555 47.2252 33.3207 47.1836 33.2834C47.1377 33.2424 47.0945 33.1985 47.0037 33.1063L46.8142 32.9159L46.62 32.7163L46.421 32.5154C46.3048 32.398 46.189 32.2803 46.0736 32.1622C46.0283 32.1159 45.983 32.0694 45.9377 32.023L46.0696 31.7626C46.2389 31.3939 46.3223 31.2122 46.3563 31.0219C46.3894 30.8369 46.3757 30.6437 46.3487 30.2628C46.1918 29.9403 46.0166 29.6351 45.8367 29.3248L45.7557 29.0054C45.708 28.8568 45.6832 28.7797 45.6337 28.7242C45.5803 28.6643 45.4981 28.6295 45.3274 28.5573L44.3206 28.2255V25.927C45.3217 25.5058 45.4789 25.4396 45.6398 25.4293C45.6535 25.4284 45.6671 25.4279 45.6813 25.4276C45.6984 25.4273 45.7162 25.4273 45.7356 25.4273L45.8051 25.0401C45.8879 24.6547 46.0221 24.3531 46.2157 24.0095C46.3186 23.8213 46.3698 23.7277 46.3917 23.6279C46.4133 23.5293 46.4064 23.4245 46.3926 23.2163L46.241 22.929L45.9377 22.1295L47.5549 20.5305L48.4531 20.9404C48.8312 21.0483 48.9307 21.0067 49.2731 20.8303C49.3165 20.8132 49.3599 20.7961 49.4034 20.779L49.5081 20.7378C49.5926 20.7046 49.6772 20.6715 49.7618 20.6385L49.9427 20.568L50.2877 20.4329C50.4405 20.3807 50.5153 20.3552 50.5922 20.3427C50.666 20.3307 50.7418 20.3307 50.8902 20.3307L50.9494 20.1226L51.0292 19.8497L51.1073 19.5792C51.1177 19.5495 51.1267 19.5233 51.1351 19.4998C51.143 19.4774 51.1503 19.4573 51.1573 19.4388C51.1629 19.4243 51.1682 19.4108 51.1737 19.3978C51.176 19.3923 51.1783 19.3868 51.1806 19.3815C51.1824 19.3775 51.1842 19.3735 51.186 19.3695C51.188 19.3652 51.19 19.3608 51.1921 19.3565C51.2294 19.2781 51.2785 19.2051 51.3946 19.0329L51.3953 19.0319L51.3955 19.0315ZM49.4689 24.8527C48.8321 25.7464 48.6803 26.6493 48.7677 27.7258C49.0078 28.7729 49.6048 29.6053 50.4859 30.2242C51.4221 30.7904 52.3841 30.963 53.4549 30.7113C54.3954 30.4344 55.1984 29.9462 55.7416 29.1249C56.2849 28.052 56.5206 27.0528 56.1711 25.8704C55.71 24.7781 54.9331 23.9628 53.8327 23.5047C52.1312 22.8984 50.6212 23.6097 49.4689 24.8527Z" fill="#703391"/>
    <path d="M23.9419 23.917L24.3514 23.9169C24.5897 23.9169 24.8279 23.9171 25.0662 23.9175L25.4582 23.9182C25.5799 23.9184 25.7016 23.9185 25.8233 23.9186L26.6168 23.919C27.3474 23.9193 28.0779 23.9201 28.8085 23.9211L29.848 23.9222C30.3335 23.9227 30.8191 23.923 31.3046 23.9233C33.0154 23.9243 34.7263 23.9261 36.4371 23.9283V27.1262L35.16 27.1306C33.7706 27.1356 32.3813 27.1423 30.9919 27.1498C30.1492 27.1542 29.3065 27.1582 28.4638 27.1608C27.7294 27.1631 26.9951 27.1664 26.2608 27.171C25.8718 27.1734 25.4828 27.1753 25.0938 27.1759C25.0407 27.176 24.9875 27.1761 24.9344 27.1763L24.7314 27.177C24.4864 27.178 24.2414 27.1795 23.9963 27.1816C23.7974 27.1829 23.5986 27.1827 23.3997 27.1825L23.0432 27.1863L22.7321 27.1877L22.4894 27.2261C22.2509 27.5799 22.254 27.8892 22.2581 28.2794C22.2585 28.3249 22.259 28.3715 22.2591 28.4194L22.2573 28.699C22.2556 29.0052 22.2553 29.3114 22.255 29.6177V29.6332L22.2538 29.9136C22.2532 30.0463 22.2526 30.179 22.2519 30.3117C22.2512 30.4734 22.2505 30.6351 22.25 30.7968L22.2463 32.1329C22.2449 32.702 22.2424 33.2711 22.24 33.8402C22.2336 35.5059 22.229 37.1716 22.2241 38.8373L22.1862 50.1111H63.8272L63.7706 33.1705C63.7686 32.701 63.7673 32.2315 63.7663 31.762C63.765 31.1639 63.7627 30.5659 63.7598 29.9679C63.7588 29.7479 63.7582 29.5279 63.758 29.3078C63.7579 29.2042 63.7577 29.1006 63.7573 28.997C63.7566 28.8044 63.7555 28.6119 63.7543 28.4194L63.7549 28.1558C63.7527 27.9076 63.7516 27.7841 63.7223 27.6674C63.6933 27.5518 63.6367 27.4429 63.524 27.2261C63.1687 27.167 62.8161 27.1522 62.4582 27.1371H62.4579C62.3756 27.1337 62.293 27.1302 62.2101 27.1262L62.109 24.9276C61.6153 24.7466 61.6153 24.7466 61.1202 24.569C61.0566 24.5447 61.0147 24.5288 60.9735 24.5115C60.8944 24.4783 60.8174 24.4399 60.593 24.328C60.5544 24.215 60.5365 24.1627 60.5237 24.1091C60.5204 24.0953 60.5174 24.0814 60.5145 24.0664C60.5118 24.0521 60.5091 24.0368 60.5062 24.0195C60.5038 24.0048 60.5012 23.9887 60.4984 23.9705L60.4919 23.9283C60.8908 23.9233 61.2897 23.9197 61.6886 23.9173C61.8898 23.9158 62.091 23.9133 62.2922 23.9107C63.6221 23.9041 64.5958 24.0939 65.7223 24.8027C66.4805 25.5524 66.972 26.5249 66.9737 27.5922L66.9749 27.8687L66.9746 28.1698L66.9755 28.4917C66.9759 28.6687 66.9762 28.8456 66.9763 29.0226C66.9765 29.2022 66.9766 29.3818 66.9767 29.5614C66.9771 29.8168 66.9776 30.0722 66.9782 30.3277C66.9787 30.5728 66.979 30.818 66.9794 31.0631C66.98 31.5124 66.9803 31.9616 66.9806 32.4108C66.9809 32.8447 66.9813 33.2785 66.9818 33.7123C66.983 34.9141 66.9841 36.116 66.9844 37.3178L66.9847 38.4875C66.9851 39.7421 66.9869 40.9967 66.9892 42.2513C66.9917 43.5403 66.9929 44.8292 66.993 46.1182C66.9931 46.8416 66.9937 47.5649 66.9955 48.2882C66.9973 48.9688 66.9974 49.6493 66.9965 50.3299C66.9964 50.5794 66.9969 50.829 66.9979 51.0785C66.9992 51.4197 66.9986 51.7608 66.9975 52.102L67 52.3997C66.9918 53.54 66.6558 54.4692 65.8636 55.3053C65.1573 55.9592 64.3419 56.32 63.3732 56.319L63.0313 56.3195L62.6577 56.3184L62.2632 56.3184C61.9066 56.3184 61.5499 56.3178 61.1933 56.3172C60.857 56.3166 60.5207 56.3165 60.1844 56.3164L60.0748 56.3163C59.3689 56.316 58.663 56.3152 57.9572 56.3142C57.1535 56.3131 56.3498 56.3125 55.5462 56.312C53.8931 56.311 52.24 56.3092 50.587 56.307V62.0033L51.9001 61.9927C52.2481 61.9908 52.5961 61.9892 52.944 61.9878C53.31 61.9862 53.6759 61.9841 54.0419 61.9807C54.3952 61.9774 54.7484 61.9756 55.1016 61.9748C55.3003 61.974 55.499 61.9717 55.6978 61.9693C56.6838 61.9691 57.5843 62.0646 58.3694 62.7028C59.4097 63.7379 59.3789 64.3886 59.3163 65.7145C59.2989 66.0832 59.279 66.5041 59.279 67H26.7344C26.7344 64.5343 26.7344 63.9354 26.9802 63.4611C27.0591 63.3089 27.1633 63.1695 27.3009 62.9855C27.9308 62.3642 28.6612 62.0277 29.5559 61.9913L29.8844 61.9919L30.2584 61.992L30.6591 61.9935L31.0716 61.9939C31.2593 61.9941 31.4469 61.9945 31.6345 61.995C31.8076 61.9954 31.9807 61.9959 32.1538 61.9964C32.3391 61.9969 32.5244 61.9973 32.7097 61.9976L33.2595 61.9984C33.9547 61.9994 34.6499 62.0012 35.3451 62.0031L35.4264 62.0033V56.307L32.5471 56.3211L31.9011 56.3232C31.5135 56.3244 31.1259 56.3256 30.7383 56.3265C29.7818 56.3289 28.8254 56.3317 27.869 56.3372C27.1723 56.3412 26.4757 56.3437 25.779 56.3446C25.4104 56.3451 25.0419 56.3464 24.6734 56.3493C24.2609 56.3525 23.8485 56.3526 23.436 56.3524L23.0701 56.3568C21.8344 56.3508 20.8835 55.9935 19.9946 55.1453C19.3649 54.4745 19.0415 53.6578 19.0394 52.7439L19.0381 52.4679L19.0381 52.1675L19.0364 51.6264C19.0361 51.4847 19.0358 51.3431 19.0356 51.2014L19.0351 50.7786C19.0345 50.5237 19.0338 50.2687 19.0331 50.0138C19.0311 49.2483 19.0301 48.4828 19.0292 47.7174C19.0289 47.502 19.0286 47.2866 19.0283 47.0712L19.0277 46.6346C19.0259 45.4341 19.0245 44.2335 19.0237 43.033L19.023 41.8644C19.0222 40.612 19.0196 39.3595 19.0163 38.1071C19.013 36.8198 19.0112 35.5325 19.0109 34.2452C19.0108 34.0411 19.0107 33.8369 19.0105 33.6327C19.01 33.1147 19.009 32.5967 19.0072 32.0787C19.0047 31.3989 19.0044 30.7191 19.0054 30.0392C19.0055 29.7903 19.0048 29.5414 19.0034 29.2925C18.9929 27.2952 18.9893 26.6072 19.2632 26.0533C19.4072 25.7623 19.6277 25.5083 19.9642 25.1209C21.1212 24.0062 22.4042 23.9126 23.9419 23.917Z" fill="#703391"/>
    <path d="M42.2992 20.9303C42.0953 20.527 41.8013 20.1665 41.418 19.9184C40.5478 19.5393 39.396 19.592 38.5975 20.0996C38.2022 20.4802 37.9789 20.8475 37.9034 21.3832L37.9046 21.7631C37.9035 21.9874 37.903 22.2116 37.905 22.4358C37.9057 22.5129 37.9063 22.59 37.9067 22.667C37.9071 22.7539 37.9074 22.8407 37.9075 22.9276C37.9068 23.3747 37.9077 23.8218 37.9104 24.2689C37.9134 24.7438 37.9146 25.2186 37.9151 25.6935C37.916 26.5904 37.9187 27.4872 37.9227 28.3841C37.9273 29.413 37.9302 30.442 37.9322 31.4709C37.9366 33.687 37.944 35.903 37.9532 38.119H42.2992C42.3014 35.9838 42.3032 33.8486 42.3043 31.7135L42.3051 30.2001C42.3055 29.6668 42.3059 29.1335 42.3065 28.6002L42.3078 27.3162C42.3082 26.8325 42.3085 26.3488 42.3086 25.8651C42.3088 25.3839 42.3088 24.9027 42.3094 24.4214C42.3102 23.9606 42.3108 23.4998 42.3107 23.039C42.3107 22.8696 42.3107 22.7002 42.3107 22.5308C42.3112 22.2939 42.3118 22.057 42.3116 21.8201L42.3114 21.6069C42.3115 21.3813 42.3088 21.1556 42.2992 20.9303Z" fill="#703391"/>
    <path d="M26.2107 45.7L26.4243 45.6991C26.661 45.6982 26.8977 45.698 27.1344 45.6979C27.3039 45.6974 27.4734 45.6969 27.6429 45.6964C28.1038 45.6951 28.5647 45.6944 29.0255 45.694C29.3134 45.6937 29.6012 45.6933 29.8891 45.6928C30.7894 45.6915 31.6897 45.6905 32.59 45.6901C33.6298 45.6897 34.6696 45.6879 35.7094 45.685C36.5128 45.6829 37.3162 45.6819 38.1196 45.6817C38.2891 45.6817 38.4586 45.6816 38.6281 45.6814C38.9386 45.681 39.2491 45.6804 39.5596 45.6792C40.0111 45.6776 40.4625 45.6774 40.914 45.6782C41.0175 45.6783 41.1209 45.6781 41.2244 45.6778L41.3476 45.6773L41.4111 45.6769C41.6373 45.6756 41.8635 45.6762 42.0897 45.6773L42.4733 45.6768C42.8326 45.7171 43.0233 45.7997 43.3099 46.0138C43.4685 46.3274 43.4465 46.5673 43.411 46.9132C43.149 47.2488 42.9977 47.3956 42.5718 47.4755L42.1844 47.4756L41.9678 47.4778C41.7289 47.4795 41.4901 47.4777 41.2512 47.4759C41.0797 47.4764 40.9081 47.4772 40.7366 47.4781C40.2711 47.48 39.8057 47.4787 39.3403 47.4767C38.9151 47.4753 38.4898 47.4758 38.0646 47.4762L37.8789 47.4764C37.0608 47.4769 36.2428 47.4753 35.4248 47.4725C34.479 47.4693 33.5333 47.4693 32.5875 47.471C31.6777 47.4726 30.768 47.472 29.8581 47.4703C29.471 47.4696 29.0838 47.4697 28.6966 47.4704C28.2406 47.4712 27.7847 47.47 27.3288 47.4672C27.1615 47.4665 26.9941 47.4665 26.8268 47.4672C26.5984 47.4681 26.3701 47.4665 26.1416 47.4643L25.7543 47.4634C25.3619 47.404 25.1931 47.2882 24.9151 47.0131C24.8041 46.6434 24.8653 46.3051 25.0477 45.9701C25.3515 45.692 25.6792 45.6953 26.0584 45.6991H26.0592C26.1088 45.6996 26.1593 45.7001 26.2107 45.7Z" fill="#703391"/>
    <path d="M56.8085 39.4881C56.7456 39.4415 56.6791 39.3996 56.5501 39.3182L56.5098 39.309C56.1179 39.2197 55.925 39.1758 55.5521 39.3682C55.2758 39.6896 55.2438 39.8993 55.2362 40.3175C55.3306 40.5739 55.4281 40.708 55.633 40.8926C56.0894 41.2345 56.5391 41.5842 56.9798 41.9457L57.1566 42.0914C57.1752 42.1064 57.1937 42.1213 57.2121 42.1361C57.5295 42.391 57.8159 42.621 57.9651 43.0158C57.7091 43.2195 57.4545 43.4247 57.2012 43.6318C57.0199 43.7803 56.8378 43.9274 56.6535 44.0724C56.5142 44.182 56.3757 44.2926 56.2379 44.404L56.0322 44.571C55.8367 44.7217 55.6505 44.8736 55.4706 45.0422C55.2268 45.357 55.2305 45.6226 55.2362 46.0138C55.4558 46.3394 55.587 46.4531 55.9437 46.6134C56.13 46.6218 56.2485 46.6271 56.3596 46.6014C56.5536 46.5566 56.7252 46.4173 57.1964 46.0349L57.4598 45.8139L57.5049 45.7765L57.5057 45.7759C57.7572 45.5676 58.0086 45.3593 58.258 45.1485C58.4892 44.9529 58.7204 44.7577 58.956 44.5674L59.1393 44.4207C59.2575 44.325 59.3756 44.2294 59.4938 44.1338C59.6023 44.0488 59.71 43.9628 59.8168 43.8757C60.1898 43.5171 60.3875 43.2331 60.3956 42.7109C60.2817 42.3937 60.1427 42.2395 59.8805 42.0285C59.7629 41.939 59.6463 41.8482 59.5308 41.7561L59.3477 41.6101C59.107 41.4213 58.8695 41.23 58.6355 41.0331C58.5704 40.978 58.5053 40.923 58.4402 40.868C58.341 40.7844 58.2417 40.7011 58.142 40.6181C57.9292 40.4415 57.7165 40.265 57.5077 40.0837L57.3571 39.9522L57.0681 39.7054C56.9383 39.5924 56.8754 39.5376 56.8085 39.4881Z" fill="#703391"/>
    <path d="M50.3852 39.3184C50.5099 39.4006 50.5714 39.4412 50.6223 39.4921C50.6718 39.5416 50.7113 39.601 50.7892 39.7179C50.8602 40.1394 50.8373 40.3419 50.606 40.7048C50.2196 41.1104 49.7701 41.4566 49.3243 41.8L49.324 41.8002L49.321 41.8025L49.2453 41.8608C49.2192 41.881 49.193 41.9011 49.167 41.9213C49.1153 41.9613 49.0637 42.0013 49.0125 42.0415C48.8568 42.1638 48.7017 42.2869 48.5466 42.4099L48.2644 42.6312L48.0602 42.8159V43.0158C48.2106 43.1511 48.3679 43.2787 48.5277 43.403C49.0031 43.7796 49.4726 44.1616 49.9364 44.5522L50.1224 44.7072C50.519 45.0419 50.6733 45.1721 50.746 45.3374C50.7923 45.4426 50.8055 45.5621 50.8271 45.7575V45.7577C50.8062 45.954 50.7968 46.0421 50.765 46.1214C50.7392 46.1858 50.6987 46.2444 50.6252 46.3506L50.6249 46.3511C50.3212 46.5565 50.1482 46.6134 49.7784 46.6134C49.2303 46.3902 48.8248 46.0125 48.4016 45.6182L48.3977 45.6145C48.3494 45.5695 48.3008 45.5242 48.2517 45.479C47.9742 45.2279 47.6898 44.9918 47.397 44.7584C46.8246 44.3015 46.2563 43.8304 45.7356 43.3156C45.6918 42.8824 45.6748 42.7144 45.7282 42.5723C45.7619 42.4823 45.8239 42.4026 45.9251 42.2725C45.9789 42.2278 46.0331 42.1835 46.0875 42.1395C46.1384 42.0982 46.1896 42.0572 46.241 42.0164C46.319 41.9458 46.397 41.875 46.4749 41.8043C46.5249 41.7588 46.5749 41.7134 46.6248 41.6679L46.7084 41.5917C47.2461 41.116 47.8026 40.6661 48.3635 40.2176C48.6595 39.9762 48.9556 39.7348 49.2514 39.4931C49.6594 39.1743 49.8771 39.2057 50.3849 39.3182L50.3852 39.3184Z" fill="#703391"/>
    <path d="M26.5215 42.4415L26.2425 42.4433C25.5194 42.4292 25.204 42.4824 24.814 43.1157C24.7995 43.5312 24.8316 43.7257 25.1183 44.0331C25.4664 44.2426 25.6703 44.2627 26.0689 44.2669L26.325 44.2635C26.6112 44.2647 26.8973 44.2653 27.1836 44.2633C27.3882 44.2618 27.5929 44.2609 27.7976 44.2607C28.2244 44.2608 28.6513 44.2604 29.0781 44.2582C29.6333 44.2547 30.1883 44.252 30.7434 44.252C31.1767 44.2521 31.6099 44.2517 32.0431 44.2506C32.2498 44.2498 32.4565 44.2492 32.6632 44.2485C32.8006 44.2484 32.9381 44.2483 33.0755 44.248C33.2353 44.2476 33.3951 44.2471 33.5549 44.246L33.8275 44.244C33.8646 44.244 33.9016 44.2442 33.9384 44.2444C34.2918 44.2461 34.6296 44.2478 34.9685 44.1234C35.1888 43.9692 35.2495 43.8743 35.3253 43.6154C35.3321 43.2477 35.3368 42.9356 35.0747 42.6568C34.7585 42.4821 34.53 42.4779 34.1724 42.4721L33.91 42.4725C33.6177 42.4693 33.3255 42.4667 33.0332 42.4661C32.824 42.4658 32.6147 42.4652 32.4054 42.4643C31.9692 42.4621 31.533 42.4605 31.0968 42.4604C30.5293 42.4606 29.9619 42.4595 29.3944 42.4544C28.9518 42.4504 28.5093 42.4479 28.0667 42.4474C27.8554 42.4475 27.6441 42.4473 27.4328 42.447C27.129 42.4436 26.8254 42.4404 26.5215 42.4415Z" fill="#703391"/>
    <path d="M26.325 32.7739L26.5981 32.7728C26.8953 32.772 27.1924 32.7742 27.4896 32.7764C27.6964 32.7766 27.9032 32.7767 28.11 32.7767C28.543 32.777 28.976 32.7786 29.4091 32.7813C29.9643 32.7847 30.5195 32.7855 31.0748 32.7853C31.5016 32.7854 31.9285 32.7865 32.3553 32.7879C32.5601 32.7886 32.7648 32.789 32.9696 32.7891C33.2556 32.7895 33.5415 32.7913 33.8275 32.7934L34.0842 32.7932C34.5465 32.7982 34.7131 32.8 34.8559 32.8586C34.9364 32.8916 35.0093 32.9426 35.1232 33.0223C35.3649 33.3182 35.3358 33.6066 35.3006 33.9554C35.298 33.9804 35.2955 34.0057 35.293 34.0314C35.1919 34.3111 35.084 34.3755 34.82 34.5213C34.5277 34.566 34.2374 34.5655 33.9424 34.5649L33.91 34.5649L33.6315 34.5679C33.3277 34.5708 33.0239 34.5714 32.72 34.5717C32.5088 34.5727 32.2976 34.5737 32.0864 34.5747C31.6436 34.5765 31.2009 34.5771 30.7582 34.5769C30.1908 34.5769 29.6235 34.581 29.0561 34.5861C28.6199 34.5895 28.1837 34.5901 27.7475 34.5899C27.6628 34.5901 27.5781 34.5904 27.4934 34.5908C27.3689 34.5915 27.2444 34.5925 27.1199 34.5939C26.8274 34.5968 26.535 34.596 26.2425 34.5942L25.9807 34.5993H25.9804C25.626 34.5937 25.4926 34.5916 25.379 34.5436C25.3104 34.5147 25.249 34.469 25.1506 34.3957C24.8917 34.1088 24.8149 33.9467 24.8014 33.5595C25.0605 32.791 25.6061 32.7643 26.325 32.7739Z" fill="#703391"/>
    <path d="M26.6495 36.0027L26.3829 36.0042C26.3474 36.0043 26.3122 36.0042 26.2772 36.0042C25.9121 36.0036 25.574 36.0031 25.2183 36.1203C24.9523 36.3833 24.827 36.5518 24.7572 36.9198L24.7574 36.921L24.7592 36.9306L24.7691 36.9825C24.7715 36.9946 24.7737 37.0061 24.7759 37.0171L24.7809 37.0418C24.7955 37.1126 24.8084 37.1614 24.8283 37.2074C24.86 37.281 24.9095 37.3471 25.0124 37.4845C25.3712 37.7589 25.5437 37.778 25.9829 37.7825L26.2457 37.7775C26.5392 37.7783 26.8326 37.7783 27.1261 37.7751C27.1971 37.7743 27.2681 37.7736 27.3392 37.773C27.4246 37.7723 27.51 37.7717 27.5954 37.7712C27.6487 37.7709 27.702 37.7707 27.7553 37.7705C28.1924 37.77 28.6295 37.7688 29.0666 37.7654C29.6355 37.7604 30.2044 37.7559 30.7734 37.7542C31.0768 37.7534 31.3801 37.7525 31.6835 37.7513C31.9306 37.7504 32.1776 37.7494 32.4246 37.7482L32.7398 37.7466C32.8543 37.746 32.9688 37.7455 33.0834 37.7448C33.1812 37.7443 33.279 37.7437 33.3768 37.743L33.6545 37.741L33.9329 37.7385C34.2295 37.7371 34.5236 37.7312 34.82 37.7192C34.9049 37.6773 34.9541 37.6529 34.9958 37.6194C35.0533 37.573 35.0964 37.5091 35.199 37.357C35.3609 36.9249 35.3137 36.7361 35.1232 36.3202C34.7524 36.0181 34.4425 35.9853 33.9811 35.9819L33.7303 35.9847C33.4499 35.9841 33.1695 35.9839 32.8891 35.9856C32.8184 35.9861 32.7477 35.9865 32.677 35.9868C32.5473 35.9874 32.4175 35.9878 32.2878 35.988C31.8699 35.9882 31.4519 35.9887 31.034 35.9906C30.4904 35.9934 29.9467 35.9958 29.403 35.9963C29.1076 35.9966 28.8123 35.9969 28.5169 35.9975C28.3879 35.9977 28.259 35.998 28.1301 35.9983L27.0936 36.001C26.9456 36.0015 26.7975 36.002 26.6495 36.0027Z" fill="#703391"/>
    <path d="M26.2425 39.2551L26.5215 39.253C26.8253 39.2513 27.129 39.2532 27.4328 39.2553C27.6441 39.2553 27.8554 39.255 28.0667 39.2546C28.5093 39.2543 28.9518 39.2558 29.3944 39.2585C29.9619 39.2619 30.5293 39.2613 31.0968 39.2595C31.533 39.2584 31.9692 39.2593 32.4054 39.2608C32.6147 39.2613 32.824 39.2613 33.0332 39.2607C33.3255 39.2601 33.6177 39.2621 33.91 39.2649L34.1724 39.2629C34.5176 39.2684 34.6593 39.2707 34.7821 39.3195C34.8676 39.3535 34.944 39.4101 35.0735 39.5062C35.2518 39.7565 35.3103 39.9116 35.3253 40.2176C35.2307 40.527 35.1531 40.6877 34.9211 40.9171C34.5527 41.0362 34.1789 41.0348 33.7973 41.0335L33.716 41.0332L33.6802 41.0332L33.6532 41.0332L33.3896 41.0347C33.1022 41.0361 32.8148 41.0368 32.5274 41.0374L31.9277 41.0391C31.7242 41.0396 31.5206 41.04 31.3171 41.0403C31.1721 41.0406 31.0271 41.0407 30.882 41.0409L30.6709 41.0411C30.1341 41.0416 29.5974 41.044 29.0606 41.0469C28.6478 41.0487 28.235 41.0492 27.8222 41.0494C27.7381 41.0495 27.654 41.0498 27.5699 41.0501C27.4561 41.0505 27.3423 41.0511 27.2285 41.0518C26.9517 41.0535 26.675 41.0533 26.3982 41.0527L26.1508 41.0555C25.6869 41.0521 25.3822 41.0066 25.0162 40.7173C24.7791 40.3657 24.7554 40.2318 24.814 39.8179C25.2314 39.2577 25.5887 39.2463 26.2425 39.2551Z" fill="#703391"/>
    <path d="M26.6082 29.5686L26.3326 29.5712H26.3309C25.7307 29.5666 25.3526 29.5637 24.9151 30.0243C24.829 30.3609 24.8578 30.7104 25.0162 31.0236C25.3948 31.3226 25.6999 31.3585 26.1658 31.3619L26.42 31.3591C26.704 31.3597 26.988 31.3599 27.2721 31.3582C27.4751 31.3569 27.678 31.3561 27.881 31.3558C28.3041 31.3556 28.7271 31.3551 29.1501 31.3532C29.4417 31.3517 29.7334 31.3504 30.025 31.3493C30.2839 31.3484 30.5429 31.3477 30.8019 31.3474C31.2316 31.3471 31.6612 31.3465 32.0909 31.3455L32.705 31.3437C33.0001 31.3432 33.2952 31.3425 33.5902 31.3411L33.8597 31.3395C33.9274 31.3395 33.9952 31.341 34.0628 31.3426L34.0639 31.3427C34.3594 31.3496 34.652 31.3566 34.9211 31.2235C35.2349 30.9862 35.3174 30.8718 35.3822 30.4802C35.3527 30.2955 35.3385 30.2066 35.3038 30.1264C35.2717 30.052 35.222 29.9851 35.1261 29.8561C34.7712 29.5876 34.5991 29.5649 34.1662 29.5579L33.9078 29.5615C33.6189 29.5592 33.3302 29.5578 33.0413 29.5595C32.8346 29.561 32.628 29.5617 32.4214 29.5616C32.3321 29.5614 32.2429 29.5613 32.1537 29.5612C32.0749 29.5611 31.9961 29.561 31.9174 29.561C31.8336 29.561 31.7499 29.5611 31.6661 29.5612C31.6098 29.5612 31.5535 29.5613 31.4971 29.5615C31.4352 29.5616 31.3733 29.5618 31.3113 29.562C31.2502 29.5622 31.1891 29.5625 31.128 29.5628C30.5676 29.5663 30.0072 29.5687 29.4467 29.567C29.0094 29.5655 28.572 29.565 28.1346 29.5661C27.9258 29.5668 27.717 29.5674 27.5082 29.568C27.2082 29.567 26.9082 29.5664 26.6082 29.5686Z" fill="#703391"/>
    <path d="M54.4277 38.2189C54.5761 38.322 54.6503 38.3735 54.7135 38.436C54.7767 38.4984 54.8288 38.5718 54.933 38.7186C54.9717 39.2292 54.8894 39.6781 54.7523 40.1669L54.694 40.3828C54.6307 40.6165 54.5661 40.8498 54.5015 41.083C54.4569 41.2464 54.4123 41.4098 54.3677 41.5731C54.2744 41.9147 54.1804 42.2562 54.086 42.5975C53.9654 43.0339 53.8461 43.4707 53.7272 43.9076C53.6353 44.2448 53.5429 44.5818 53.4501 44.9187L53.4014 45.0962C53.3736 45.198 53.3458 45.2998 53.318 45.4017C53.2924 45.4956 53.2666 45.5896 53.2407 45.6835C53.2045 45.8148 53.1681 45.9461 53.1316 46.0774L53.0776 46.2771C52.8943 46.9297 52.8334 47.1467 52.7026 47.3086C52.6375 47.3892 52.555 47.4562 52.4315 47.5565C52.0935 47.6401 51.8331 47.5914 51.4966 47.5128C51.2299 47.3458 51.2002 47.2421 51.1285 46.9364C51.0909 46.6008 51.1212 46.3847 51.2088 46.0605L51.2939 45.7385L51.3892 45.3931L51.4865 45.0298C51.5725 44.7101 51.6595 44.3907 51.7469 44.0714C51.7878 43.9218 51.8283 43.7721 51.8685 43.6223C51.9133 43.4561 51.9578 43.2898 52.0024 43.1235C52.1683 42.5068 52.3374 41.8911 52.5087 41.2759L52.5702 41.0541C52.6158 40.8889 52.6613 40.7237 52.7065 40.5584C52.7986 40.2224 52.8927 39.8869 52.9874 39.5516L53.0699 39.2472L53.1501 38.9686L53.2179 38.7259C53.4662 38.2009 53.8837 38.1434 54.4277 38.2189Z" fill="#703391"/>
    <path d="M42.2992 39.618H37.9532C37.9532 39.7126 37.9532 39.7624 37.9647 39.8095C37.9776 39.8618 38.0047 39.9107 38.0621 40.014C38.29 40.3759 38.5146 40.739 38.7279 41.1095L38.8956 41.407C39.009 41.608 39.1223 41.8091 39.2355 42.0102L39.4094 42.3211L39.5778 42.6188C39.7512 42.9276 39.9109 43.1782 40.1767 43.4155C40.5342 42.8567 40.8803 42.2922 41.2196 41.7225L41.4085 41.4043L41.601 41.0838L41.7856 40.7727C42.0208 40.3781 42.1483 40.0655 42.2992 39.618Z" fill="#703391"/>
</svg>

