<svg width="51" height="56" viewBox="0 0 51 56" fill="none" xmlns="http://www.w3.org/2000/svg">
<path d="M46.1922 0.488227C47.0044 1.15457 47.3925 1.81416 47.6214 2.82883C47.6505 2.94722 47.6795 3.06562 47.7095 3.1876C47.7753 3.45593 47.8399 3.72453 47.9037 3.99334C48.0061 4.41998 48.1171 4.8441 48.2296 5.26819C48.3318 5.65368 48.4323 6.03959 48.5327 6.42557C48.5823 6.61536 48.6323 6.80502 48.683 6.99454C49.4071 9.71819 49.4071 9.71819 48.8801 10.9317C48.3042 11.9169 47.4891 12.2596 46.4199 12.5417C46.2298 12.5897 46.0396 12.6371 45.8492 12.6841C45.691 12.7239 45.691 12.7239 45.5295 12.7644C45.1777 12.8526 44.8256 12.9401 44.4736 13.0276C44.2205 13.0908 43.9674 13.1542 43.7143 13.2176C43.0987 13.3716 42.4831 13.5251 41.8674 13.6785C41.1478 13.8577 40.4284 14.0374 39.709 14.2173C38.4225 14.5388 37.136 14.8598 35.8493 15.1805C34.6067 15.4903 33.3641 15.8004 32.1216 16.1108C32.0453 16.1299 31.969 16.1489 31.8905 16.1685C31.5837 16.2452 31.2769 16.3218 30.9702 16.3985C29.7075 16.7139 28.4447 17.0291 27.1819 17.3443C26.8962 17.4156 26.6106 17.487 26.3249 17.5583C25.5079 17.7623 24.6909 17.9661 23.8738 18.1698C23.628 18.2311 23.3822 18.2924 23.1363 18.3538C21.4534 18.774 19.7682 19.1836 18.0808 19.5857C18.1767 19.5859 18.1767 19.5859 18.2745 19.5861C22.0642 19.5924 25.8538 19.6004 29.6435 19.6107C30.0985 19.6119 30.5536 19.6131 31.0087 19.6143C31.0993 19.6146 31.1899 19.6148 31.2832 19.615C32.75 19.6189 34.2167 19.6216 35.6834 19.6239C37.1886 19.6262 38.6937 19.6298 40.1988 19.6346C41.1275 19.6375 42.0561 19.6394 42.9848 19.6401C43.6217 19.6407 44.2586 19.6424 44.8955 19.6451C45.2629 19.6467 45.6303 19.6475 45.9977 19.6472C46.3964 19.6471 46.795 19.6489 47.1937 19.6512C47.3094 19.6507 47.425 19.6501 47.5441 19.6496C48.501 19.6588 49.3828 19.8708 50.0843 20.5654C50.5212 21.1966 50.7505 21.7591 50.752 22.5275C50.7525 22.6384 50.753 22.7493 50.7535 22.8636C50.7535 23.0461 50.7535 23.0461 50.7534 23.2323C50.7538 23.3617 50.7542 23.4911 50.7546 23.6244C50.7556 23.9838 50.7561 24.3431 50.7564 24.7024C50.7568 25.0899 50.7579 25.4774 50.7588 25.8649C50.761 26.8008 50.7621 27.7367 50.7631 28.6726C50.7635 29.1135 50.7641 29.5544 50.7647 29.9953C50.7665 31.4612 50.7681 32.9271 50.7689 34.393C50.7691 34.7733 50.7693 35.1536 50.7695 35.5339C50.7696 35.6285 50.7696 35.723 50.7697 35.8204C50.7706 37.3514 50.7734 38.8823 50.7769 40.4133C50.7805 41.9856 50.7825 43.5579 50.7828 45.1302C50.783 46.0128 50.784 46.8953 50.7868 47.7779C50.7891 48.5297 50.79 49.2813 50.7889 50.0331C50.7885 50.4164 50.7887 50.7997 50.7908 51.183C50.7931 51.5992 50.7919 52.0154 50.7905 52.4316C50.7923 52.6119 50.7923 52.6119 50.7941 52.7959C50.7868 53.6759 50.6344 54.4505 50.0643 55.144C49.9833 55.2102 49.9024 55.2765 49.8189 55.3447C49.7383 55.4132 49.6576 55.4817 49.5744 55.5522C49.0591 55.9068 48.6345 55.9707 48.0131 55.9714C47.937 55.9718 47.8609 55.9722 47.7825 55.9726C47.5269 55.9736 47.2714 55.973 47.0158 55.9725C46.831 55.9729 46.6461 55.9734 46.4613 55.974C45.9528 55.9753 45.4444 55.9753 44.936 55.9751C44.3878 55.975 43.8397 55.9762 43.2915 55.9772C42.2174 55.9791 41.1433 55.9797 40.0692 55.9798C39.1962 55.9799 38.3233 55.9803 37.4503 55.981C34.9762 55.9829 32.502 55.9839 30.0278 55.9838C29.8944 55.9838 29.761 55.9838 29.6235 55.9838C29.4899 55.9837 29.3563 55.9837 29.2187 55.9837C27.0533 55.9836 24.888 55.9857 22.7227 55.9888C20.5002 55.9919 18.2776 55.9934 16.0551 55.9932C14.807 55.9932 13.5589 55.9938 12.3108 55.9961C11.2482 55.9981 10.1856 55.9986 9.12295 55.9971C8.58071 55.9964 8.0385 55.9964 7.49627 55.9982C6.99984 56 6.50346 55.9996 6.00704 55.9977C5.8275 55.9974 5.64795 55.9978 5.46841 55.999C4.43466 56.0055 3.64197 55.9993 2.81853 55.3056C2.73203 55.2037 2.73203 55.2037 2.64377 55.0998C2.55516 54.9996 2.55516 54.9996 2.46476 54.8974C1.9561 54.1093 1.92551 53.3922 1.93928 52.4799C1.93986 52.3519 1.94044 52.2239 1.94104 52.092C1.94294 51.7384 1.9463 51.3849 1.95025 51.0313C1.95414 50.6488 1.95608 50.2664 1.95818 49.884C1.96151 49.3063 1.96543 48.7287 1.97005 48.151C1.97915 47.0075 1.98384 45.8641 1.98696 44.7206C1.98748 44.5395 1.98799 44.3585 1.98851 44.1775C1.98929 43.903 1.99007 43.6285 1.99083 43.354C1.99372 42.3186 1.99695 41.2832 2.00074 40.2478C2.00108 40.1533 2.00143 40.0587 2.00178 39.9612C2.00748 38.4465 2.01877 36.9318 2.03199 35.4171C2.0455 33.85 2.05153 32.2828 2.05149 30.7156C2.05169 29.8406 2.05499 28.9659 2.06721 28.091C2.12306 23.9651 1.78324 20.2413 0.659301 16.2563C0.638117 16.1811 0.616936 16.1059 0.59511 16.0284C0.495714 15.6774 0.393866 15.3275 0.288021 14.9784C-0.0181468 13.942 -0.167452 13.0181 0.289775 12.0084C0.716063 11.2995 1.27964 10.8898 2.06896 10.6601C2.19405 10.6237 2.31913 10.5873 2.44801 10.5498C3.10458 10.3696 3.76382 10.2018 4.42492 10.0392C4.58009 10.0007 4.73524 9.96213 4.89039 9.92357C5.2256 9.84032 5.56086 9.75733 5.89618 9.67453C6.4444 9.53916 6.99247 9.40318 7.54052 9.26714C8.55 9.01666 9.55959 8.76667 10.5692 8.51679C12.4092 8.0614 14.249 7.60547 16.0887 7.14919C16.3161 7.09278 16.5436 7.03638 16.771 6.97999C20.1931 6.13149 23.6132 5.2751 27.0316 4.412C27.9134 4.18937 28.7953 3.96706 29.6772 3.74497C29.8006 3.71389 29.924 3.68281 30.0512 3.65078C30.5463 3.52608 31.0415 3.40138 31.5367 3.27671C32.9945 2.90968 34.452 2.54149 35.9091 2.17141C36.8277 1.93821 37.7466 1.7064 38.6658 1.47564C39.198 1.34199 39.73 1.20769 40.2616 1.07165C40.7507 0.94648 41.2403 0.823122 41.7303 0.701129C41.907 0.656809 42.0835 0.611843 42.2598 0.566138C45.1242 -0.175187 45.1242 -0.175187 46.1922 0.488227ZM43.1523 3.8599C43.0673 3.87781 42.9823 3.89572 42.8947 3.91418C42.1102 4.08089 41.328 4.25745 40.5465 4.43729C40.0218 4.5578 39.4968 4.6748 38.9696 4.78379C38.459 4.88944 37.9511 5.00393 37.4439 5.12472C37.251 5.16904 37.0574 5.21024 36.8631 5.24811C35.9591 5.42091 35.9591 5.42091 35.1711 5.86997C34.8136 6.41338 34.6893 7.042 34.5716 7.67301C34.4832 8.11024 34.3472 8.53239 34.2161 8.95832C34.1682 9.12313 34.1207 9.28803 34.0736 9.45306C33.978 9.78779 33.8815 10.1222 33.7845 10.4566C33.7378 10.6193 33.6911 10.7821 33.6446 10.9449C33.6228 11.0195 33.601 11.0941 33.5786 11.171C33.4775 11.5284 33.4294 11.8077 33.4294 12.1836C34.4999 12.0125 35.5451 11.7493 36.596 11.4875C36.7867 11.4403 36.9775 11.3931 37.1683 11.3459C37.6688 11.2221 38.1691 11.0978 38.6695 10.9734C39.1719 10.8486 39.6744 10.7243 40.1769 10.5999C41.9923 10.1503 43.807 9.69853 45.6212 9.24449C45.435 8.07744 45.1357 6.93963 44.8456 5.79514C44.7941 5.59083 44.7427 5.38651 44.6913 5.18219C44.5662 4.68564 44.4407 4.18922 44.3149 3.69287C43.9135 3.69287 43.5429 3.77663 43.1523 3.8599ZM31.2523 6.84967C29.7818 7.21665 28.3114 7.58378 26.841 7.95108C26.1583 8.12162 25.4756 8.29211 24.7928 8.46249C24.1343 8.62683 23.4758 8.79129 22.8173 8.95585C22.5657 9.01869 22.3141 9.0815 22.0625 9.14425C21.7108 9.23196 21.3592 9.31983 21.0077 9.40774C20.8506 9.44685 20.8506 9.44685 20.6904 9.48675C20.5947 9.51072 20.499 9.53468 20.4004 9.55937C20.3172 9.58014 20.234 9.60091 20.1483 9.62231C19.9652 9.67093 19.7846 9.72884 19.6048 9.78876C19.504 9.9812 19.504 9.9812 19.4407 10.2246C19.4123 10.3194 19.384 10.4143 19.3548 10.512C19.325 10.6168 19.2953 10.7217 19.2646 10.8297C19.2328 10.9381 19.201 11.0464 19.1683 11.1581C19.0582 11.5357 18.9504 11.9141 18.8428 12.2924C18.7992 12.444 18.7556 12.5956 18.712 12.7472C18.5755 13.2212 18.4402 13.6957 18.3053 14.1702C18.2722 14.2864 18.2722 14.2864 18.2383 14.405C18.1753 14.6265 18.1129 14.8482 18.0506 15.0699C17.9963 15.2624 17.9963 15.2624 17.9409 15.4587C17.8501 15.7742 17.8501 15.7742 17.8631 16.1024C19.2826 15.795 20.6929 15.4575 22.1017 15.1044C22.3131 15.0516 22.5245 14.9988 22.736 14.946C23.1744 14.8364 23.6127 14.7267 24.0511 14.6169C24.6134 14.476 25.1759 14.3356 25.7385 14.1953C26.1729 14.0868 26.6073 13.9782 27.0417 13.8694C27.2493 13.8175 27.4569 13.7656 27.6646 13.7138C27.9527 13.6419 28.2408 13.5697 28.5288 13.4974C28.6145 13.4761 28.7002 13.4548 28.7885 13.4328C29.2147 13.3285 29.2147 13.3285 29.6195 13.1633C29.7207 12.9092 29.7207 12.9092 29.8058 12.5948C29.8586 12.4128 29.8586 12.4128 29.9125 12.2271C29.9685 12.029 29.9685 12.029 30.0256 11.8268C30.0642 11.6922 30.1028 11.5576 30.1426 11.4188C30.2243 11.1336 30.3053 10.8481 30.386 10.5626C30.4896 10.1961 30.5946 9.83 30.7001 9.46404C30.8003 9.11568 30.8993 8.76698 30.9984 8.41829C31.0364 8.28642 31.0744 8.15454 31.1135 8.01867C31.1477 7.89699 31.1819 7.77532 31.2171 7.64995C31.2476 7.54247 31.2781 7.43499 31.3096 7.32425C31.3887 7.06666 31.3887 7.06666 31.2523 6.84967ZM15.1068 10.8786C14.9587 10.9152 14.9587 10.9152 14.8076 10.9526C14.699 10.9797 14.5903 11.0068 14.4784 11.0348C14.3642 11.0631 14.2501 11.0914 14.1324 11.1206C13.7534 11.2147 13.3745 11.3092 12.9957 11.4037C12.7332 11.4691 12.4707 11.5345 12.2082 11.5999C11.6573 11.7371 11.1066 11.8746 10.5558 12.0122C9.98941 12.1537 9.42291 12.2948 8.85631 12.4354C8.1734 12.6049 7.49065 12.7751 6.80802 12.9457C6.54736 13.0108 6.28664 13.0756 6.02588 13.1402C5.66163 13.2306 5.29758 13.3217 4.93359 13.413C4.82517 13.4397 4.71676 13.4664 4.60506 13.4939C4.506 13.519 4.40695 13.544 4.30489 13.5698C4.21878 13.5913 4.13267 13.6127 4.04395 13.6349C3.79112 13.7061 3.79112 13.7061 3.4942 13.9253C3.67517 14.6657 3.85734 15.4058 4.04034 16.1457C4.10249 16.3976 4.16436 16.6495 4.22595 16.9015C4.3144 17.2632 4.40383 17.6247 4.49346 17.9861C4.52091 18.0992 4.54836 18.2124 4.57664 18.329C4.60278 18.4336 4.62891 18.5382 4.65584 18.646C4.67856 18.7383 4.70128 18.8306 4.7247 18.9258C4.78894 19.171 4.78894 19.171 5.01818 19.368C5.30027 19.3237 5.56179 19.2667 5.83712 19.1946C5.92156 19.1736 6.00601 19.1526 6.09301 19.1309C6.3733 19.0608 6.6531 18.9888 6.93292 18.9169C7.12705 18.8679 7.3212 18.819 7.51538 18.7703C8.02754 18.6414 8.53929 18.5109 9.05099 18.3801C9.57139 18.2474 10.0922 18.1163 10.613 17.985C11.3734 17.793 12.1337 17.6005 12.8936 17.4066C12.9735 17.3863 13.0534 17.366 13.1357 17.345C13.4454 17.2658 13.7498 17.1832 14.0532 17.0821C14.169 16.8298 14.169 16.8298 14.2501 16.5136C14.285 16.3923 14.3198 16.2709 14.3557 16.1459C14.3921 16.0138 14.4285 15.8817 14.4661 15.7456C14.5042 15.611 14.5424 15.4763 14.5818 15.3376C14.6627 15.0524 14.7426 14.767 14.8219 14.4814C14.9237 14.1149 15.0268 13.7488 15.1305 13.3828C15.3017 12.7785 15.472 12.1739 15.6402 11.5687C15.6851 11.4075 15.6851 11.4075 15.7309 11.243C15.8036 10.9951 15.8036 10.9951 15.7949 10.7685C15.5474 10.7685 15.3473 10.8188 15.1068 10.8786ZM5.34474 23.0691C5.34474 24.9371 5.34474 26.805 5.34474 28.7296C8.46998 28.7296 11.5952 28.7296 14.8152 28.7296C15.354 27.7956 15.8928 26.8616 16.448 25.8993C16.8009 25.2977 17.1539 24.6962 17.51 24.0964C17.602 23.9398 17.602 23.9398 17.696 23.7801C17.7494 23.6898 17.8029 23.5995 17.858 23.5064C17.9887 23.2959 17.9887 23.2959 17.972 23.0691C13.805 23.0691 9.638 23.0691 5.34474 23.0691ZM21.8907 23.0691C21.4238 23.8953 20.9568 24.7215 20.4756 25.5728C20.1336 26.1602 19.7901 26.7464 19.4434 27.3311C19.3509 27.4883 19.3509 27.4883 19.2565 27.6487C19.2028 27.7394 19.1491 27.83 19.0938 27.9234C18.9511 28.1864 18.8427 28.4512 18.7339 28.7296C20.2828 28.7909 21.8314 28.8366 23.3812 28.8649C24.1011 28.8785 24.8201 28.897 25.5395 28.9267C26.2348 28.9552 26.9293 28.9707 27.6252 28.9775C27.8896 28.9823 28.154 28.9916 28.418 29.0058C29.6519 29.0769 29.6518 29.0769 30.8169 28.7296C31.4698 28.0868 31.8419 27.2585 32.202 26.428C32.3863 26.0152 32.6101 25.6347 32.8469 25.2505C32.9821 25.0178 33.1173 24.785 33.2525 24.5523C33.3235 24.4309 33.3945 24.3095 33.4677 24.1845C33.5345 24.0693 33.6013 23.954 33.6701 23.8354C33.7581 23.6841 33.7581 23.6841 33.848 23.5299C33.9904 23.3002 33.9904 23.3002 33.9737 23.0691C29.9863 23.0691 25.9989 23.0691 21.8907 23.0691ZM37.8925 23.0691C37.5333 23.7157 37.174 24.3623 36.8039 25.0285C36.4772 25.5914 36.1482 26.1525 35.8164 26.7124C35.7232 26.8706 35.7232 26.8706 35.6282 27.0321C35.5741 27.1234 35.5201 27.2147 35.4644 27.3087C35.2061 27.7741 34.9737 28.2535 34.7357 28.7296C38.9027 28.7296 43.0696 28.7296 47.3629 28.7296C47.3629 26.8616 47.3629 24.9937 47.3629 23.0691C44.2377 23.0691 41.1124 23.0691 37.8925 23.0691ZM5.34474 32.1041C5.34474 38.8934 5.34474 45.6827 5.34474 52.6778C19.2107 52.6778 33.0767 52.6778 47.3629 52.6778C47.3629 45.8884 47.3629 39.0991 47.3629 32.1041C33.4969 32.1041 19.6309 32.1041 5.34474 32.1041Z" fill="#703391"/>
<path d="M14.1729 36.5537C14.2613 36.5533 14.3496 36.5529 14.4407 36.5525C14.5854 36.5526 14.5854 36.5526 14.733 36.5528C14.8875 36.5523 14.8875 36.5523 15.045 36.5518C15.3909 36.5508 15.7368 36.5507 16.0827 36.5505C16.3303 36.55 16.5779 36.5495 16.8256 36.5489C17.499 36.5474 18.1723 36.5467 18.8457 36.5463C19.2663 36.5459 19.6868 36.5455 20.1074 36.545C21.2721 36.5437 22.4369 36.5426 23.6016 36.5422C23.6762 36.5422 23.7507 36.5421 23.8275 36.5421C23.9022 36.5421 23.9769 36.5421 24.0538 36.542C24.2052 36.542 24.3565 36.5419 24.5079 36.5419C24.6205 36.5419 24.6205 36.5419 24.7354 36.5418C25.9519 36.5414 27.1685 36.5395 28.385 36.537C29.6344 36.5344 30.8838 36.5331 32.1332 36.5329C32.8346 36.5328 33.5359 36.5321 34.2372 36.5302C34.8969 36.5284 35.5565 36.5282 36.2162 36.5291C36.4582 36.5292 36.7003 36.5287 36.9424 36.5277C37.273 36.5263 37.6035 36.5269 37.934 36.528C38.0298 36.5272 38.1255 36.5263 38.2242 36.5254C38.874 36.5306 39.4267 36.6155 39.9331 37.0617C40.3764 37.6593 40.4649 38.0087 40.3966 38.7452C40.1875 39.3284 39.8614 39.6659 39.308 39.9426C38.9721 39.954 38.6387 39.9587 38.3027 39.9586C38.1444 39.9592 38.1444 39.9592 37.983 39.9598C37.6271 39.961 37.2713 39.9614 36.9155 39.9618C36.6612 39.9625 36.407 39.9632 36.1528 39.964C35.4605 39.9659 34.7683 39.967 34.076 39.9679C33.6438 39.9685 33.2116 39.9692 32.7794 39.9698C31.583 39.9717 30.3866 39.9733 29.1902 39.9741C28.8797 39.9743 28.5691 39.9745 28.2586 39.9747C28.1428 39.9748 28.1428 39.9748 28.0247 39.9749C26.7743 39.9758 25.5239 39.9785 24.2735 39.9821C22.99 39.9857 21.7065 39.9876 20.4231 39.988C19.7023 39.9882 18.9816 39.9892 18.2609 39.9919C17.5829 39.9945 16.9049 39.9949 16.227 39.9938C15.978 39.9938 15.729 39.9944 15.48 39.9959C15.1403 39.9979 14.8008 39.9971 14.4611 39.9957C14.3624 39.9969 14.2636 39.998 14.1619 39.9993C13.5636 39.9932 13.2226 39.9053 12.7474 39.5071C12.3614 39.068 12.2783 38.6831 12.289 38.098C12.3415 37.5866 12.5844 37.2463 12.9583 36.915C13.3743 36.6178 13.6704 36.5546 14.1729 36.5537Z" fill="#703391"/>
<path d="M14.9713 44.7023C15.0726 44.7019 15.1739 44.7015 15.2783 44.701C15.6167 44.6999 15.955 44.7003 16.2933 44.7008C16.5364 44.7003 16.7794 44.6997 17.0224 44.6991C17.6819 44.6976 18.3413 44.6976 19.0007 44.6978C19.5515 44.698 20.1023 44.6974 20.653 44.6969C22.0268 44.6956 23.4006 44.6957 24.7744 44.6964C25.9661 44.697 27.1578 44.6958 28.3496 44.6937C29.5746 44.6916 30.7997 44.6907 32.0247 44.6911C32.712 44.6913 33.3992 44.691 34.0864 44.6895C34.7327 44.6881 35.3791 44.6883 36.0254 44.6897C36.2623 44.69 36.4992 44.6897 36.7362 44.6888C37.0602 44.6877 37.3841 44.6886 37.7082 44.6899C37.8014 44.6891 37.8945 44.6883 37.9906 44.6875C38.6543 44.6934 39.3994 44.7588 39.9202 45.2114C40.3254 45.6797 40.4294 46.07 40.4193 46.6837C40.3674 47.181 40.1536 47.4848 39.7904 47.8126C39.2978 48.1536 38.8856 48.1213 38.302 48.1212C38.1437 48.1218 38.1437 48.1218 37.9822 48.1224C37.6264 48.1236 37.2706 48.124 36.9148 48.1245C36.6605 48.1251 36.4063 48.1259 36.1521 48.1266C35.4598 48.1285 34.7676 48.1297 34.0753 48.1306C33.6431 48.1311 33.2109 48.1318 32.7787 48.1325C31.5823 48.1343 30.3859 48.1359 29.1895 48.1367C28.879 48.1369 28.5684 48.1371 28.2579 48.1373C28.1421 48.1374 28.1421 48.1374 28.024 48.1375C26.7736 48.1384 25.5232 48.1411 24.2728 48.1447C22.9893 48.1483 21.7058 48.1502 20.4224 48.1506C19.7016 48.1508 18.9809 48.1518 18.2602 48.1545C17.5822 48.1571 16.9042 48.1575 16.2263 48.1564C15.9773 48.1564 15.7283 48.1571 15.4793 48.1586C15.1396 48.1605 14.8001 48.1597 14.4604 48.1583C14.3617 48.1595 14.2629 48.1607 14.1612 48.1619C13.5629 48.1558 13.2219 48.068 12.7466 47.6698C12.3607 47.2305 12.2782 46.8461 12.2878 46.261C12.3379 45.7812 12.5487 45.4729 12.8827 45.1389C13.5465 44.7165 14.2074 44.6989 14.9713 44.7023Z" fill="#703391"/>
</svg>
