<svg width="86" height="86" viewBox="0 0 86 86" fill="none" xmlns="http://www.w3.org/2000/svg">
<circle cx="43" cy="43" r="43" fill="#703391" fill-opacity="0.1"/>
<path d="M23.0936 21L23.4938 21.0987V23.4664L24.2327 23.465C26.5386 23.461 28.8446 23.4581 31.1506 23.4562C32.3359 23.4551 33.5212 23.4537 34.7066 23.4515C35.7408 23.4495 36.7751 23.4482 37.8094 23.4478L38.5986 23.4471C38.8821 23.4468 39.1656 23.4463 39.4491 23.4455C43.7336 23.4346 47.7781 23.5493 51.7028 25.4395L51.9188 25.5423C54.7129 26.8875 57.1813 28.9774 59.0051 31.4574L59.1299 31.6254C62.2043 35.8139 63.3561 41.0761 62.559 46.1627C62.0477 49.0614 60.9904 51.9527 59.1744 54.3158C59.0531 54.4783 58.9386 54.6458 58.8289 54.8161C58.4981 55.2856 58.3733 55.4628 58.2025 55.5666C58.0989 55.6296 57.9784 55.6655 57.7848 55.7232C57.4054 55.7532 57.0405 55.75 56.6602 55.7338C56.6003 55.7329 56.5404 55.7321 56.4805 55.7314C56.4027 55.7305 56.3248 55.7297 56.2469 55.7291C55.8871 55.725 55.5277 55.7144 55.168 55.7023C54.8297 55.6921 54.4914 55.6871 54.153 55.6821L54.0635 55.6808C53.343 55.6692 52.623 55.6507 51.9028 55.6278C52.0179 55.2873 52.1789 55.1768 52.4406 54.9974C52.4817 54.9692 52.5254 54.9392 52.5718 54.9064C55.7109 52.5971 57.6524 49.014 58.2795 45.2363C58.8498 41.368 57.8762 37.2891 55.5535 34.1125C53.0826 30.879 49.5473 28.5817 45.4459 27.9806C44.25 27.8174 43.0833 27.7664 41.8772 27.7736C41.6759 27.7737 41.4745 27.7736 41.2731 27.7734C40.7342 27.7734 40.1954 27.7751 39.6565 27.7772C39.1478 27.7788 38.639 27.7791 38.1303 27.7794L37.9584 27.7795C36.8899 27.7805 35.8215 27.7829 34.7531 27.7859C33.5353 27.7892 32.3175 27.7908 31.0996 27.7923C28.5977 27.7954 26.0958 27.8006 23.5938 27.8072L23.4938 30.0762L22.9936 30.1749C22.7691 29.9845 22.5946 29.81 22.4059 29.5891L22.2454 29.4092C22.0932 29.2381 21.9431 29.0655 21.7932 28.8924C21.6704 28.7546 21.5475 28.6168 21.4244 28.4793L21.263 28.2954C20.8832 27.8658 20.4943 27.4438 20.1056 27.0219L20.1049 27.0212L19.9458 26.8484L19.7051 26.5863L19.487 26.3497L19.2924 26.13L19.1103 25.9289C19.047 25.825 19.0176 25.7769 19.008 25.7252C18.9998 25.6807 19.0062 25.6335 19.0181 25.5456C19.1006 25.318 19.1929 25.2014 19.362 25.0279L19.5279 24.8552L19.7051 24.6749C19.8249 24.5505 19.9445 24.426 20.0642 24.3015L20.238 24.1214C20.4175 23.9338 20.5908 23.7418 20.7617 23.5465C21.0888 23.1726 21.4262 22.8081 21.7637 22.4434L21.7652 22.4418L21.8499 22.3503C22.1195 22.0568 22.384 21.7593 22.6462 21.4594L22.7936 21.296L22.9377 21.1202L23.0936 21Z" fill="#703391"/>
<path d="M29.3105 30.3048C29.4487 30.306 29.5869 30.307 29.725 30.3077C30.0873 30.3103 30.4493 30.3171 30.8114 30.3248C31.1533 30.3313 31.4952 30.3345 31.8372 30.3377L31.9219 30.3385C32.6471 30.3459 33.3721 30.3576 34.0972 30.3722C33.9821 30.7127 33.8211 30.8231 33.5595 31.0026C33.5183 31.0308 33.4746 31.0608 33.4282 31.0936C30.3409 33.3648 28.3562 36.9131 27.7543 40.6399C27.182 44.5484 28.0472 48.6879 30.4625 51.8876C30.9416 52.5048 31.4559 53.0892 31.9965 53.6547L32.1966 53.8713C34.0804 55.8348 36.688 57.1174 39.3176 57.7859L39.5401 57.843C41.0309 58.1935 42.5422 58.2212 44.066 58.2152C44.2673 58.2152 44.4686 58.2152 44.6699 58.2153C45.2108 58.2154 45.7518 58.2142 46.2928 58.2128C46.5651 58.2122 46.8374 58.2119 47.1097 58.2117L47.9949 58.2113C49.0669 58.2106 50.1389 58.209 51.2109 58.207C52.4323 58.2048 53.6538 58.2037 54.8752 58.2027C57.3855 58.2007 59.8959 58.1972 62.4062 58.1928L62.5062 55.9238L63.0064 55.8251C63.2309 56.0155 63.4054 56.19 63.5941 56.4109L63.7548 56.591C63.907 56.762 64.057 56.9346 64.2068 57.1076C64.271 57.1799 64.3353 57.2521 64.3997 57.3243C64.4562 57.3877 64.5128 57.4512 64.5694 57.5146L64.7296 57.6972C64.9511 57.9465 65.1774 58.1912 65.404 58.436L65.4071 58.4395C65.7622 58.8237 66.1159 59.2086 66.4598 59.6025C66.59 59.7513 66.7236 59.8972 66.8576 60.0426C66.9434 60.1695 66.9801 60.2238 66.9914 60.2829C66.9999 60.3272 66.9941 60.3741 66.9839 60.4562C66.8994 60.6811 66.8059 60.7999 66.638 60.9721L66.4721 61.1448L66.2949 61.3251C66.1752 61.4495 66.0555 61.574 65.9358 61.6985L65.762 61.8786C65.5825 62.0662 65.4092 62.2582 65.2383 62.4535C64.9113 62.8272 64.5741 63.1915 64.2367 63.5561L64.2363 63.5566L64.2348 63.5582L64.1501 63.6497C63.8806 63.9433 63.616 64.2407 63.3538 64.5406L63.2064 64.704L63.0623 64.8798L62.9063 65L62.5062 64.9013V62.5336L61.7673 62.535C59.4614 62.539 57.1554 62.5419 54.8494 62.5439C53.6641 62.5449 52.4788 62.5463 51.2934 62.5485C50.2592 62.5505 49.2249 62.5518 48.1906 62.5522C47.644 62.5525 47.0975 62.553 46.5509 62.5545C42.2664 62.5654 38.2219 62.4507 34.2972 60.5605L34.0812 60.4577C31.2871 59.1125 28.8187 57.0226 26.9949 54.5426L26.8701 54.3746C24.5268 51.1822 23.3327 47.4106 23.1937 43.4933L23.1812 43.2089C23.1112 40.1792 23.8513 37.1295 25.1943 34.417L25.2986 34.204C25.8525 33.085 26.5139 32.0424 27.295 31.0628L27.397 30.888C27.8263 30.2504 28.4065 30.2719 29.0951 30.2975C29.1657 30.3001 29.2376 30.3028 29.3105 30.3048Z" fill="#703391"/>
<path fill-rule="evenodd" clip-rule="evenodd" d="M43.3804 31.8929L42.9937 31.9013C42.9368 31.9012 42.8775 31.8997 42.8166 31.8974C42.7653 31.8955 42.7128 31.8932 42.6595 31.8907C42.0506 31.8631 41.3402 31.8309 41.1236 32.4705L41.0869 32.7214L41.0408 32.9873C40.9778 33.3608 40.8962 33.6751 40.6883 33.997C40.2487 34.5646 39.6572 34.9452 38.9331 35.046C38.3735 35.0593 37.8643 35.015 37.4088 34.6668L37.3679 34.6341C37.0394 34.3709 36.8592 34.2265 36.4104 34.1766C36.2782 34.1948 36.1842 34.2078 36.0963 34.2382C35.88 34.3129 35.7011 34.4928 35.0818 35.1157C34.9871 35.2118 34.8923 35.3077 34.7974 35.4036C34.7733 35.4272 34.7495 35.4503 34.7262 35.473L34.7232 35.4759C34.3787 35.8107 34.1223 36.06 34.0284 36.5566C34.065 36.7307 34.0821 36.812 34.1166 36.8855C34.1468 36.9499 34.1904 37.0082 34.2721 37.1176L34.2722 37.1177C34.5765 37.4678 34.7559 37.8258 34.8974 38.2646C35.0163 39.0236 34.8083 39.6412 34.3722 40.2623C33.8862 40.7417 33.5017 40.9243 32.8343 41.0207C32.498 41.0545 32.3075 41.1191 32.016 41.292C31.9141 41.4437 31.8493 41.5402 31.8081 41.6457C31.7361 41.8302 31.7366 42.0421 31.7378 42.6248L31.7464 43.0062C31.7463 43.0717 31.7458 43.1372 31.7454 43.2027L31.7454 43.2101V43.2103C31.7428 43.602 31.7403 43.9927 31.7964 44.3812C31.9559 44.6474 32.0249 44.7522 32.3235 44.8505L32.5779 44.8868L32.8475 44.9322C33.2263 44.9943 33.5449 45.0749 33.8713 45.2798C34.4468 45.7134 34.8327 46.2968 34.9349 47.0109C34.9484 47.5628 34.9036 48.065 34.5504 48.5143L34.5173 48.5545C34.2505 48.8785 34.1041 49.0563 34.0534 49.4989C34.0719 49.6293 34.0851 49.722 34.1158 49.8086C34.1916 50.0219 34.374 50.1984 35.0057 50.8091C35.0558 50.8572 35.1059 50.9054 35.156 50.9535L35.2975 51.0897C35.3225 51.1145 35.3469 51.1389 35.3709 51.1629C35.7103 51.5026 35.9631 51.7555 36.4667 51.8481C36.6432 51.812 36.7257 51.7951 36.8001 51.7611C36.8654 51.7313 36.9245 51.6883 37.0354 51.6077L37.0356 51.6076C37.3915 51.3068 37.7509 51.1274 38.1985 50.991C38.99 50.8826 39.5636 51.0535 40.2179 51.509C40.7112 51.9847 40.8951 52.3659 40.9931 53.0258C41.0273 53.3574 41.0928 53.5453 41.2682 53.8327C41.422 53.9333 41.5198 53.9972 41.6268 54.0378C41.8138 54.1088 42.0288 54.1084 42.6196 54.1071L43.0063 54.0987C43.0484 54.0987 43.0906 54.0989 43.1327 54.0992L43.2055 54.0996L43.213 54.0997H43.2133C43.6104 54.1022 44.0066 54.1047 44.4004 54.0493C44.6704 53.8921 44.7767 53.824 44.8764 53.5295L44.9131 53.2786L44.9592 53.0127C45.0221 52.6392 45.1038 52.325 45.3117 52.003C45.7513 51.4354 46.3428 51.0549 47.0669 50.954C47.6265 50.9407 48.1357 50.985 48.5912 51.3332L48.632 51.3659C48.9606 51.6291 49.1408 51.7735 49.5896 51.8234C49.7218 51.8052 49.8158 51.7922 49.9037 51.7618C50.12 51.6871 50.2989 51.5072 50.9181 50.8843C51.0129 50.7882 51.1077 50.6923 51.2026 50.5964C51.2267 50.5728 51.2505 50.5497 51.2738 50.5271L51.2768 50.5241L51.2769 50.5241C51.6213 50.1893 51.8777 49.94 51.9716 49.4434C51.935 49.2693 51.9179 49.188 51.8834 49.1145C51.8532 49.0501 51.8096 48.9918 51.7279 48.8824L51.7278 48.8823C51.4228 48.5313 51.2409 48.1768 51.1026 47.7354C50.9926 46.9548 51.1659 46.3891 51.6278 45.7438C52.1102 45.2573 52.4966 45.0759 53.1657 44.9793C53.5019 44.9455 53.6925 44.8809 53.984 44.708C54.0859 44.5563 54.1507 44.4598 54.1919 44.3543C54.2639 44.1699 54.2634 43.9579 54.2622 43.3752L54.2536 42.9938C54.2537 42.9258 54.2542 42.8578 54.2546 42.7899V42.7897C54.2572 42.398 54.2597 42.0073 54.2036 41.6188C54.0441 41.3526 53.9751 41.2478 53.6765 41.1495L53.4221 41.1132L53.1525 41.0678C52.7737 41.0057 52.4551 40.9252 52.1287 40.7202C51.5532 40.2866 51.1673 39.7032 51.0651 38.9891C51.0516 38.4372 51.0964 37.935 51.4496 37.4857L51.4827 37.4455C51.7496 37.1215 51.8959 36.9437 51.9466 36.5011C51.9281 36.3707 51.9149 36.278 51.8842 36.1914C51.8084 35.9781 51.6259 35.8016 50.9943 35.1909C50.8969 35.0975 50.7996 35.0039 50.7025 34.9103L50.678 34.886C50.6615 34.8695 50.6452 34.8532 50.6291 34.8371C50.2896 34.4974 50.0368 34.2445 49.5333 34.1519C49.3568 34.188 49.2743 34.2049 49.1999 34.2389C49.1346 34.2687 49.0755 34.3117 48.9645 34.3923L48.9644 34.3924C48.6085 34.6932 48.2491 34.8726 47.8015 35.009C47.01 35.1174 46.4364 34.9465 45.7821 34.491C45.2888 34.0153 45.1049 33.6341 45.0069 32.9742C44.9727 32.6426 44.9072 32.4547 44.7318 32.1673L44.7317 32.1672L44.7313 32.1669C44.5778 32.0666 44.48 32.0027 44.3732 31.9622C44.1862 31.8912 43.9712 31.8917 43.3804 31.8929ZM37.5983 43.6906C37.4689 41.9582 37.9766 40.5847 39.0988 39.2511C40.5949 37.6255 43.1477 37.2512 45.1444 38.0796C46.7265 38.831 47.6376 39.9237 48.2126 41.5352C48.6463 43.0705 48.3776 44.4853 47.6015 45.861C46.7117 47.1476 45.4917 47.983 43.9269 48.285C42.339 48.491 41.0275 48.1589 39.7177 47.2545C38.5566 46.379 37.8046 45.1296 37.5983 43.6906Z" fill="#703391"/>
<path d="M22.9936 55.8251L23.4938 55.9238L23.5938 58.1928L24.2553 58.1763C24.4706 58.1747 24.6857 58.1749 24.901 58.1754C25.0488 58.1747 25.1965 58.1721 25.3442 58.1675C26.1884 58.1423 26.4808 58.1336 26.719 58.2413C26.8453 58.2984 26.9563 58.3881 27.1262 58.5254C27.3767 58.7597 27.5946 59.0191 27.8143 59.2806L27.819 59.2862C27.8444 59.3163 27.8697 59.3465 27.8952 59.3767C29.0041 60.3581 30.239 61.227 31.5256 61.966C31.6243 62.0291 31.6871 62.0691 31.7463 62.1137C31.8496 62.1914 31.9423 62.2829 32.1966 62.5336H23.4938V64.9013L23.0936 65C22.9982 64.9292 22.9458 64.8903 22.8969 64.8477C22.8374 64.7959 22.7829 64.7386 22.6623 64.6115L22.4227 64.3618C22.17 64.0867 21.919 63.8106 21.6737 63.529C21.3869 63.2016 21.0925 62.8808 20.7981 62.5601L20.7979 62.5599C20.7295 62.4854 20.6611 62.4109 20.5929 62.3363C20.3641 62.0865 20.1356 61.8367 19.9083 61.5856C19.7665 61.4306 19.6228 61.2774 19.4769 61.1263L19.2799 60.9182L19.1041 60.737C19.047 60.6469 19.0191 60.6028 19.0073 60.5548C18.996 60.5089 18.9995 60.4594 19.0064 60.3625C19.1038 60.1398 19.2137 59.9995 19.38 59.8206L19.5699 59.6141L19.7926 59.3767C19.9283 59.2307 20.064 59.0847 20.1997 58.9387C20.2487 58.8859 20.2977 58.8333 20.3468 58.7806C20.3936 58.7303 20.4405 58.68 20.4874 58.6297C20.8031 58.2912 21.1127 57.9484 21.4181 57.6009C21.6281 57.3642 21.8419 57.1312 22.0558 56.898C22.3773 56.5468 22.6904 56.1917 22.9936 55.8251Z" fill="#703391"/>
<path d="M63.3878 21.4501C63.1388 21.1946 62.9702 21.0423 62.6063 21L62.5062 21.0987V23.4664H53.8034C54.0577 23.7171 54.1504 23.8086 54.2537 23.8863C54.3129 23.9309 54.3756 23.9709 54.4744 24.034C55.761 24.773 56.996 25.6419 58.1048 26.6233C58.1319 26.6554 58.1589 26.6875 58.1858 26.7196C58.4055 26.981 58.6234 27.2403 58.8738 27.4746C59.0437 27.6119 59.1547 27.7016 59.281 27.7587C59.5192 27.8664 59.8116 27.8577 60.6558 27.8325C60.8035 27.8279 60.9512 27.8253 61.099 27.8246C61.3143 27.8251 61.5294 27.8253 61.7447 27.8237L62.4062 27.8072L62.5062 30.0762L63.0064 30.1749C63.3096 29.8083 63.6227 29.4532 63.9442 29.102C64.1581 28.8688 64.3719 28.6358 64.5819 28.3991C64.8873 28.0516 65.1969 27.7088 65.5126 27.3703C65.6086 27.2674 65.7045 27.1644 65.8003 27.0613L66.2074 26.6233L66.4301 26.3859L66.62 26.1794C66.7863 26.0005 66.8962 25.8602 66.9936 25.6375C67.0005 25.5406 67.004 25.4911 66.9927 25.4452C66.9809 25.3972 66.953 25.3531 66.8959 25.263L66.7201 25.0818L66.5231 24.8737C66.3772 24.7226 66.2335 24.5693 66.0917 24.4144C65.8644 24.1634 65.6359 23.9135 65.4071 23.6637C65.3412 23.5916 65.2752 23.5197 65.2091 23.4477C64.9113 23.1231 64.6134 22.7985 64.3228 22.4675C64.0861 22.1965 63.8458 21.9297 63.5995 21.6671L63.3878 21.4501Z" fill="#703391"/>
</svg>
