<svg width="58" height="58" viewBox="0 0 58 58" fill="none" xmlns="http://www.w3.org/2000/svg">
<path d="M50.4436 21.2211H37.0117C36.4961 21.2211 36.0794 21.6874 36.0794 22.2643V24.5823H34.7685C33.8343 22.5408 30.9917 23.3085 31.0038 25.6254C30.9898 27.9413 33.8381 28.7101 34.7695 26.6676H36.0803V29.0637H29.9335V13.2221H33.0064C33.522 13.2221 33.9388 12.7558 33.9388 12.1789V8.74061H37.2532C38.1827 10.7821 41.0328 10.0143 41.0179 7.69744C41.0281 5.3816 38.1864 4.61173 37.2522 6.65427H33.0064C32.4909 6.65427 32.0741 7.12057 32.0741 7.69744V11.1357C30.7512 11.1535 28.2246 11.1232 26.9286 11.1357V9.67008C28.7523 8.63213 28.0689 5.44001 25.9963 5.4567C24.8906 5.4567 23.9937 6.46024 23.9937 7.69744C23.9937 8.55597 24.43 9.29245 25.064 9.66904V12.1789C25.064 12.7558 25.4808 13.2221 25.9963 13.2221H28.0689V16.7376H21.9221V5.18757C22.5561 4.81098 22.9924 4.0745 22.9924 3.21492C22.9327 0.271088 19.0524 0.252311 18.9872 3.21492C18.9872 4.07346 19.4235 4.81098 20.0575 5.18652V17.7797C20.0575 18.3566 20.4742 18.8229 20.9898 18.8229H28.0689V29.0616H26.758C25.8285 27.0191 22.9784 27.789 22.9924 30.1048C22.9812 32.4196 25.8229 33.1916 26.7571 31.148H36.0794V35.7067C36.0794 36.2835 36.4961 36.7498 37.0117 36.7498H50.4436C54.0414 36.7498 56.9698 33.4732 56.9698 29.4476C57.3316 25.1174 54.3966 21.193 50.4436 21.218V21.2211ZM55.1052 29.4507C55.1052 32.3268 53.014 34.6666 50.4436 34.6666H37.944V23.3075H50.4436C53.4019 23.2991 55.4213 26.2565 55.1052 29.4507ZM36.9427 43.8215V41.3116C36.9427 40.7347 36.5259 40.2685 36.0104 40.2685H24.926V35.6326H31.2434C32.1711 37.672 35.024 36.9084 35.0091 34.5894C35.0184 32.2704 32.1785 31.5058 31.2444 33.5462H21.9221V25.5493H23.2329C23.5695 26.2586 24.2277 26.7468 24.995 26.7468C26.1007 26.7468 26.9976 25.7433 26.9976 24.5061C27.0116 22.1934 24.1643 21.4183 23.232 23.464H21.9212V22.2664C21.9212 21.6895 21.5044 21.2232 20.9888 21.2232H7.55692C3.60761 21.1982 0.665214 25.1226 1.03068 29.4528C1.03068 33.4784 3.9591 36.755 7.55692 36.755H20.9888C21.5044 36.755 21.9212 36.2887 21.9212 35.7119V35.6347H23.0614V43.6327H13.9797C13.4641 43.6327 13.0473 44.099 13.0473 44.6759V52.7876C11.2312 53.8203 11.9025 57.0187 13.9797 56.9999C16.0587 57.0072 16.7319 53.8318 14.912 52.7865V45.718H20.0575V50.2767C20.0575 50.8535 20.4742 51.3198 20.9898 51.3198H29.2408C29.5774 52.0292 30.2356 52.5174 31.0038 52.5174C33.6432 52.4402 33.6479 48.1131 31.0038 48.0359C30.2365 48.0359 29.5783 48.5241 29.2417 49.2335H21.9221V45.718H23.9946C24.5102 45.718 24.927 45.2517 24.927 44.6748V42.3558H35.079V43.8225C33.2526 44.8636 33.9416 48.0516 36.0113 48.0349C38.0792 48.0484 38.77 44.8668 36.9436 43.8225L36.9427 43.8215ZM20.0575 34.6666H7.55785C4.98745 34.6666 2.89625 32.3268 2.89625 29.4507C2.58113 26.2565 4.59867 23.2991 7.55785 23.3075H20.0575V34.6666Z" fill="#703391" stroke="#703391" stroke-width="0.5"/>
</svg>
