<svg width="56" height="56" viewBox="0 0 56 56" fill="none" xmlns="http://www.w3.org/2000/svg">
<path d="M20.4257 0.0450955C20.6328 0.0437571 20.6328 0.0437571 20.844 0.0423916C20.9962 0.0420563 21.1483 0.0417209 21.3051 0.0413755C21.5446 0.0401463 21.5446 0.0401463 21.789 0.0388922C22.2278 0.0367208 22.6666 0.0354052 23.1053 0.0343772C23.3794 0.0337352 23.6534 0.0329775 23.9274 0.0321935C24.7845 0.0298177 25.6416 0.0280429 26.4987 0.0270043C27.4886 0.025785 28.4785 0.0225011 29.4684 0.0174643C30.2332 0.0137061 30.998 0.0118568 31.7628 0.0114435C32.2198 0.0111501 32.6767 0.0100286 33.1337 0.00689662C33.6434 0.0034598 34.153 0.00397139 34.6627 0.00484084C34.8143 0.00324336 34.9659 0.00164588 35.1222 0C35.2609 0.000865928 35.3997 0.00173185 35.5426 0.00262402C35.6632 0.00232618 35.7837 0.00202834 35.9079 0.00172148C36.3173 0.0813005 36.463 0.244307 36.7239 0.562268C36.8957 0.905946 36.8689 1.18801 36.8742 1.57263C36.8766 1.7324 36.8791 1.89217 36.8817 2.05678C36.8838 2.23182 36.8859 2.40686 36.888 2.5819C36.8906 2.76048 36.8932 2.93907 36.8959 3.11765C36.9027 3.58794 36.9089 4.05824 36.9149 4.52854C36.9212 5.00834 36.9281 5.48814 36.935 5.96793C36.9484 6.90954 36.961 7.85116 36.9732 8.79279C37.078 8.82265 37.1828 8.85251 37.2907 8.88328C38.2797 9.16549 39.268 9.44967 40.2558 9.73605C40.7636 9.8832 41.2716 10.0296 41.7801 10.1743C42.2711 10.314 42.7615 10.4557 43.2516 10.5988C43.4384 10.6529 43.6253 10.7064 43.8125 10.7591C44.0753 10.8332 44.3373 10.9099 44.5992 10.9871C44.7484 11.0301 44.8975 11.073 45.0512 11.1172C45.5136 11.315 45.7603 11.5158 46.071 11.9104C46.146 12.2268 46.146 12.2268 46.1418 12.565C46.1417 12.6923 46.1417 12.8196 46.1416 12.9507C46.1368 13.1546 46.1368 13.1546 46.1319 13.3625C46.131 13.5028 46.1301 13.6431 46.1292 13.7876C46.1257 14.235 46.1179 14.6821 46.11 15.1294C46.1068 15.4329 46.104 15.7365 46.1014 16.04C46.0946 16.7835 46.0842 17.5269 46.071 18.2704C46.1495 18.2692 46.2281 18.2681 46.309 18.267C47.1257 18.256 47.9424 18.2484 48.7592 18.243C49.0641 18.2404 49.369 18.237 49.6738 18.2327C50.1119 18.2267 50.5499 18.2238 50.988 18.2216C51.1244 18.2191 51.2609 18.2165 51.4015 18.2138C51.5287 18.2138 51.6559 18.2138 51.787 18.2137C51.8988 18.2126 52.0106 18.2115 52.1258 18.2104C52.5464 18.2941 52.668 18.4255 52.9255 18.7692C52.9734 19.1409 52.9908 19.4661 52.9855 19.8376C52.9859 19.9465 52.9864 20.0553 52.9868 20.1675C52.9876 20.5331 52.9849 20.8986 52.9821 21.2641C52.982 21.5259 52.9821 21.7877 52.9824 22.0494C52.9825 22.7608 52.9796 23.4721 52.9761 24.1834C52.973 24.9265 52.9727 25.6697 52.9721 26.4128C52.9705 27.8203 52.9665 29.2279 52.9615 30.6354C52.9559 32.2377 52.9531 33.84 52.9506 35.4423C52.9454 38.7386 52.9367 42.035 52.9255 45.3313C53.0893 45.3255 53.253 45.3197 53.4216 45.3138C53.6379 45.3091 53.8543 45.3046 54.0706 45.3001C54.1783 45.2959 54.286 45.2918 54.397 45.2875C54.9266 45.2793 55.2148 45.2834 55.6766 45.5647C55.9624 45.8807 55.9948 46.0162 55.9953 46.4374C55.9968 46.5577 55.9984 46.6781 56 46.8021C55.9975 46.9964 55.9975 46.9964 55.995 47.1946C55.9953 47.329 55.9956 47.4634 55.9959 47.602C55.9958 47.8868 55.9941 48.1716 55.991 48.4564C55.9868 48.8886 55.9884 49.3205 55.9909 49.7527C55.99 50.0301 55.9888 50.3076 55.9872 50.585C55.9878 50.7127 55.9884 50.8405 55.9891 50.9721C55.9664 52.3843 55.5236 53.5344 54.5457 54.5595C53.2304 55.8158 51.8245 56.0057 50.0712 55.9946C49.8726 55.9951 49.674 55.9959 49.4753 55.9969C48.9326 55.999 48.3898 55.998 47.8471 55.9964C47.2606 55.9953 46.674 55.997 46.0875 55.9984C44.9397 56.0006 43.7919 56.0001 42.6441 55.9987C41.711 55.9976 40.778 55.9974 39.8449 55.998C39.6455 55.9981 39.6455 55.9981 39.4421 55.9982C39.172 55.9984 38.902 55.9985 38.6319 55.9987C36.101 56.0001 33.5702 55.9985 31.0393 55.9958C28.8689 55.9936 26.6986 55.9939 24.5282 55.9962C22.0062 55.9989 19.4842 56 16.9623 55.9984C16.6932 55.9983 16.4241 55.9981 16.1551 55.998C15.9565 55.9979 15.9565 55.9978 15.7539 55.9977C14.8223 55.9973 13.8906 55.998 12.959 55.9992C11.8232 56.0006 10.6874 56.0002 9.55165 55.9976C8.97244 55.9963 8.39327 55.9957 7.81406 55.9974C7.2833 55.9989 6.7526 55.9981 6.22185 55.9954C6.0304 55.9949 5.83894 55.9951 5.64749 55.9963C3.98964 56.0061 2.68268 55.7328 1.45429 54.5595C0.356069 53.4083 0.00522604 52.1494 0.0127963 50.585C0.0120238 50.4497 0.0112513 50.3144 0.0104554 50.1751C0.00957662 49.8918 0.00995592 49.6086 0.0115488 49.3253C0.013291 48.8912 0.00900481 48.4575 0.00427685 48.0234C0.00415842 47.7471 0.00438934 47.4709 0.00500709 47.1946C0.00252858 47.0003 0.00252858 47.0003 0 46.8021C0.00156197 46.6817 0.00312395 46.5614 0.00473325 46.4374C0.00485311 46.3318 0.00497298 46.2263 0.00509647 46.1176C0.124877 45.6778 0.319247 45.5672 0.706525 45.3313C1.11619 45.2712 1.51653 45.2841 1.92943 45.3001C2.03956 45.3024 2.14969 45.3046 2.26315 45.3069C2.53365 45.3128 2.80407 45.3217 3.07445 45.3313C3.07399 45.1949 3.07353 45.0584 3.07306 44.9179C3.062 41.601 3.05381 38.2842 3.04862 34.9673C3.04605 33.3633 3.04254 31.7594 3.03684 30.1554C3.03188 28.7576 3.02866 27.3599 3.02755 25.9622C3.0269 25.2218 3.02536 24.4815 3.02174 23.7411C3.01837 23.0447 3.01732 22.3483 3.01807 21.6518C3.01793 21.3959 3.01693 21.1399 3.01503 20.8839C3.01256 20.5351 3.01314 20.1864 3.0145 19.8376C3.01305 19.7357 3.0116 19.6338 3.0101 19.5288C3.01487 19.0793 3.03521 18.8215 3.30863 18.4567C3.63536 18.2264 3.8155 18.2098 4.21302 18.2137C4.40384 18.2138 4.40384 18.2138 4.59852 18.2138C4.73497 18.2164 4.87143 18.219 5.01202 18.2216C5.1524 18.2223 5.29277 18.2231 5.4374 18.2238C5.88569 18.2266 6.33387 18.2328 6.78213 18.2392C7.08607 18.2417 7.39001 18.244 7.69395 18.246C8.439 18.2515 9.18398 18.2598 9.92898 18.2704C9.92637 18.1559 9.92376 18.0414 9.92107 17.9234C9.91256 17.4976 9.90632 17.0719 9.90159 16.6461C9.89909 16.462 9.89569 16.2779 9.89137 16.0938C9.88531 15.8288 9.88249 15.5639 9.8803 15.2989C9.87638 15.0599 9.87638 15.0599 9.87239 14.816C9.92898 14.4045 9.92898 14.4045 10.1096 14.1256C10.5673 13.809 11.0482 13.654 11.5749 13.4829C11.6883 13.4447 11.8017 13.4065 11.9186 13.3672C12.2857 13.2439 12.6535 13.1227 13.0213 13.0016C13.2721 12.9178 13.5228 12.834 13.7734 12.7499C14.1448 12.6255 14.5162 12.5012 14.8879 12.3774C15.9311 12.0301 16.9689 11.669 18.0036 11.2972C18.7376 11.0375 18.7376 11.0375 19.1514 11.0375C19.1502 10.8474 19.1502 10.8474 19.1489 10.6535C19.1413 9.45896 19.1357 8.26446 19.1321 7.06995C19.1301 6.45584 19.1275 5.84175 19.1232 5.22765C19.1192 4.63496 19.1169 4.0423 19.116 3.4496C19.1153 3.22352 19.1139 2.99745 19.1119 2.77138C19.1092 2.45462 19.1088 2.13793 19.109 1.82116C19.1076 1.72778 19.1063 1.63441 19.1049 1.5382C19.1082 0.983475 19.182 0.628705 19.5253 0.188153C19.8437 0.0288575 20.0691 0.0466735 20.4257 0.0450955ZM21.2701 2.18343C21.2701 9.09707 21.2701 16.0107 21.2701 23.1338C25.7118 23.1338 30.1536 23.1338 34.7299 23.1338C34.7299 16.2202 34.7299 9.30657 34.7299 2.18343C30.2882 2.18343 25.8464 2.18343 21.2701 2.18343ZM36.8486 11.0375C36.8486 15.0293 36.8486 19.0211 36.8486 23.1338C37.0953 23.2573 37.3421 23.3808 37.5963 23.508C37.8158 23.9289 37.8776 24.1388 37.7521 24.5991C37.5963 24.8797 37.5963 24.8797 37.3471 25.1291C37.0478 25.1618 37.0478 25.1618 36.6642 25.1638C36.5191 25.1652 36.3741 25.1666 36.2246 25.1681C36.0647 25.1683 35.9048 25.1686 35.74 25.1689C35.5705 25.17 35.401 25.1713 35.2316 25.1727C34.7707 25.1761 34.3098 25.178 33.8489 25.1796C33.3675 25.1815 32.8862 25.1849 32.4048 25.1881C31.4929 25.1939 30.5811 25.1985 29.6692 25.2026C28.6312 25.2074 27.5932 25.2135 26.5552 25.2198C24.4196 25.2327 22.284 25.2438 20.1485 25.2538C20.1485 25.83 20.1485 26.4061 20.1485 26.9997C20.2694 27.0004 20.3904 27.0012 20.515 27.0019C21.6538 27.009 22.7926 27.0181 23.9314 27.0291C24.517 27.0347 25.1024 27.0396 25.688 27.0429C26.2528 27.0461 26.8177 27.0512 27.3825 27.0575C27.5982 27.0595 27.8139 27.061 28.0296 27.0617C28.3313 27.0629 28.6329 27.0664 28.9346 27.0705C29.0242 27.0703 29.1137 27.0701 29.206 27.0699C29.57 27.0769 29.8116 27.0825 30.1117 27.2997C30.3575 27.6711 30.3065 28.0695 30.2433 28.4962C30.1109 28.7378 30.1109 28.7378 29.8694 28.8703C29.5815 28.9114 29.2936 28.9526 28.997 28.995C28.997 32.9045 28.997 36.814 28.997 40.8419C30.7244 40.8831 32.4517 40.9242 34.2314 40.9666C34.646 41.3815 34.6951 41.5209 34.7299 42.089C34.652 42.3696 34.652 42.3696 34.4806 42.5878C33.9073 42.8995 33.3508 42.8716 32.7162 42.8675C32.6012 42.8677 32.4862 42.868 32.3677 42.8682C31.9831 42.8687 31.5986 42.8673 31.214 42.8659C30.9397 42.8659 30.6653 42.8659 30.3909 42.8659C29.6494 42.8658 28.9078 42.864 28.1663 42.8619C27.7051 42.8606 27.2438 42.8598 26.7826 42.8591C22.4498 42.8525 18.1171 42.8323 13.7845 42.7938C13.3948 42.7904 13.0051 42.7875 12.6154 42.7847C12.0069 42.7802 11.3985 42.7744 10.79 42.7676C10.5679 42.7653 10.3458 42.7634 10.1237 42.762C9.82261 42.7599 9.5216 42.7563 9.22055 42.7523C9.1327 42.752 9.04484 42.7517 8.95432 42.7514C8.50393 42.7436 8.32102 42.7206 7.93493 42.4631C7.83078 42.0302 7.76582 41.7203 7.91157 41.294C8.05956 41.0913 8.05956 41.0913 8.30882 40.9666C8.84347 40.9255 9.37812 40.8843 9.92898 40.8419C9.92898 34.0929 9.92898 27.3439 9.92898 20.3903C8.32502 20.3903 6.72106 20.3903 5.0685 20.3903C5.0685 28.6209 5.0685 36.8514 5.0685 45.3313C20.2033 45.3313 35.3381 45.3313 50.9315 45.3313C50.9315 37.1008 50.9315 28.8703 50.9315 20.3903C49.3275 20.3903 47.7236 20.3903 46.071 20.3903C46.0448 21.974 46.0448 21.974 46.0227 23.5578C46.0187 23.7563 46.0145 23.9549 46.0102 24.1534C46.0094 24.2565 46.0086 24.3596 46.0078 24.4658C45.9893 25.1999 45.9893 25.1999 45.7785 25.4646C45.4668 25.7118 45.2181 25.7369 44.8247 25.7526C44.2558 25.487 44.2558 25.487 44.077 25.1291C44.0616 24.7525 44.0538 24.3786 44.0514 24.0018C44.0502 23.885 44.0489 23.7682 44.0477 23.6479C44.0437 23.2606 44.0406 22.8733 44.0375 22.486C44.035 22.2179 44.0324 21.9499 44.0297 21.6818C44.0228 20.9753 44.0167 20.2689 44.0107 19.5624C44.0044 18.8419 43.9975 18.1213 43.9906 17.4008C43.9772 15.9864 43.9645 14.5719 43.9524 13.1575C43.4034 12.9481 42.8593 12.7449 42.295 12.5806C42.1757 12.5457 42.0564 12.5108 41.9335 12.4748C41.8082 12.4385 41.6829 12.4023 41.5538 12.3649C41.3571 12.3076 41.3571 12.3076 41.1566 12.2491C40.8815 12.1689 40.6063 12.089 40.3311 12.0092C39.9079 11.8865 39.4849 11.7632 39.0619 11.6398C38.7943 11.5619 38.5266 11.4841 38.2589 11.4062C38.1318 11.3692 38.0047 11.3322 37.8738 11.2941C37.7573 11.2603 37.6407 11.2266 37.5207 11.1918C37.4177 11.1619 37.3147 11.132 37.2086 11.1012C36.9938 11.032 36.9938 11.032 36.8486 11.0375ZM18.2715 13.4862C18.1401 13.5308 18.0087 13.5753 17.8733 13.6212C17.6596 13.6943 17.6596 13.6943 17.4417 13.7688C17.2232 13.8431 17.2232 13.8431 17.0003 13.9189C16.6126 14.0508 16.2251 14.183 15.8376 14.3154C15.4434 14.45 15.049 14.5839 14.6546 14.718C14.3555 14.8198 14.0564 14.9217 13.7574 15.0236C13.615 15.0721 13.4726 15.1206 13.3258 15.1705C13.1287 15.2379 13.1287 15.2379 12.9276 15.3066C12.8116 15.3462 12.6955 15.3858 12.576 15.4266C12.2974 15.5204 12.2974 15.5204 12.0477 15.6516C12.0477 23.9644 12.0477 32.2772 12.0477 40.8419C14.3919 40.8419 16.7361 40.8419 19.1514 40.8419C19.1514 36.9324 19.1514 33.0229 19.1514 28.995C18.7813 28.8715 18.7813 28.8715 18.4037 28.7456C18.1003 28.2611 18.1223 27.7704 18.1213 27.2101C18.1209 27.0808 18.1209 27.0808 18.1206 26.9489C18.1204 26.7674 18.1209 26.5858 18.1219 26.4043C18.1232 26.1276 18.1219 25.851 18.1203 25.5744C18.1205 25.3974 18.1208 25.2204 18.1213 25.0434C18.1216 24.8834 18.1219 24.7235 18.1222 24.5587C18.1541 24.135 18.1832 23.8702 18.4037 23.508C18.6504 23.3845 18.8972 23.261 19.1514 23.1338C19.1514 19.8828 19.1514 16.6317 19.1514 13.2822C18.826 13.2822 18.5803 13.3811 18.2715 13.4862ZM21.2701 28.995C21.2701 32.9045 21.2701 36.814 21.2701 40.8419C23.162 40.8419 25.0538 40.8419 27.003 40.8419C27.003 36.9324 27.003 33.0229 27.003 28.995C25.1111 28.995 23.2193 28.995 21.2701 28.995ZM2.07743 47.4513C2.07013 48.0099 2.06574 48.5684 2.06185 49.127C2.05976 49.2841 2.05767 49.4413 2.05552 49.6032C2.04938 50.7802 2.04432 51.8633 2.8252 52.8136C3.73726 53.7197 4.59406 53.9512 5.87363 53.952C6.03419 53.9524 6.19475 53.9528 6.36017 53.9532C6.53745 53.953 6.71473 53.9528 6.89201 53.9526C7.08103 53.9528 7.27005 53.9531 7.45907 53.9535C7.97813 53.9542 8.49718 53.9542 9.01624 53.9541C9.57619 53.954 10.1361 53.9547 10.6961 53.9553C11.793 53.9564 12.8899 53.9567 13.9868 53.9568C14.8784 53.9568 15.77 53.9571 16.6616 53.9575C19.1894 53.9586 21.7173 53.9592 24.2451 53.9591C24.4495 53.9591 24.4495 53.9591 24.6581 53.959C24.7945 53.959 24.931 53.959 25.0715 53.959C27.283 53.959 29.4944 53.9602 31.7058 53.9619C33.9764 53.9637 36.2471 53.9646 38.5177 53.9645C39.7925 53.9644 41.0673 53.9648 42.3421 53.9661C43.4275 53.9673 44.5128 53.9675 45.5982 53.9667C46.1519 53.9663 46.7055 53.9663 47.2592 53.9674C47.7663 53.9683 48.2735 53.9681 48.7806 53.9671C48.9638 53.9669 49.147 53.9671 49.3301 53.9678C51.1838 53.9964 51.1838 53.9964 52.8009 53.1877C53.5892 52.3933 53.8973 51.6669 53.9367 50.5375C53.9357 50.324 53.9357 50.324 53.9347 50.1061C53.9341 49.8734 53.9341 49.8734 53.9335 49.6361C53.9325 49.4758 53.9314 49.3155 53.9304 49.1504C53.9295 48.9056 53.9295 48.9056 53.9287 48.656C53.9272 48.2544 53.9251 47.8528 53.9226 47.4513C52.0224 47.4192 50.1223 47.395 48.2219 47.3802C47.3395 47.3731 46.4572 47.3635 45.5748 47.3478C44.7231 47.3326 43.8716 47.3247 43.0197 47.3211C42.6949 47.3186 42.3701 47.3137 42.0454 47.3063C40.3311 47.1613 40.3311 47.1613 38.8047 47.7433C38.5421 48.0978 38.3809 48.4143 38.2195 48.823C38.0875 49.0384 37.9524 49.2519 37.8125 49.4622C37.6239 49.7687 37.4369 50.0762 37.2507 50.3843C37.1893 50.4838 37.1279 50.5833 37.0647 50.6858C37.011 50.7744 36.9573 50.863 36.902 50.9542C36.6227 51.3279 36.3786 51.5434 35.9089 51.6143C35.7889 51.6148 35.6688 51.6153 35.5451 51.6157C35.4069 51.6171 35.2687 51.6186 35.1263 51.62C34.9753 51.6197 34.8242 51.6193 34.6686 51.6189C34.5091 51.62 34.3495 51.621 34.1852 51.6221C33.7479 51.6249 33.3107 51.6252 32.8735 51.625C32.5083 51.625 32.1432 51.6261 31.778 51.6271C30.9165 51.6295 30.055 51.6299 29.1935 51.629C28.305 51.6282 27.4166 51.631 26.5281 51.6357C25.765 51.6395 25.0019 51.6409 24.2388 51.6404C23.7831 51.6402 23.3275 51.6409 22.8719 51.6439C22.3637 51.6472 21.8557 51.6455 21.3475 51.6433C21.1967 51.6449 21.0459 51.6466 20.8906 51.6483C19.8703 51.638 19.8703 51.638 19.3819 51.2736C19.2678 51.11 19.2678 51.11 19.1514 50.943C19.0608 50.8183 18.9701 50.6936 18.8767 50.5651C18.7868 50.4281 18.6969 50.2911 18.6042 50.15C18.5556 50.0764 18.507 50.0029 18.4569 49.9271C18.3035 49.6946 18.151 49.4615 17.9986 49.2283C17.8443 48.9935 17.6897 48.7588 17.535 48.5242C17.3957 48.3128 17.257 48.1011 17.1183 47.8893C16.9362 47.5961 16.9362 47.5961 16.7835 47.4513C16.5927 47.4393 16.4014 47.4361 16.2102 47.4363C16.0863 47.4361 15.9624 47.4359 15.8347 47.4358C15.6291 47.4364 15.6291 47.4364 15.4194 47.4371C15.2042 47.4371 15.2042 47.4371 14.9847 47.4371C14.5079 47.4372 14.0311 47.4381 13.5544 47.4391C13.2248 47.4393 12.8953 47.4395 12.5658 47.4396C11.7854 47.44 11.0051 47.4411 10.2247 47.4423C9.3365 47.4437 8.44829 47.4444 7.56009 47.445C5.73253 47.4463 3.90498 47.4485 2.07743 47.4513Z" fill="#703391"/>
<path d="M41.4162 26.1136C41.5059 26.1514 41.5956 26.1893 41.6879 26.2282C41.9789 26.3514 42.2688 26.4767 42.5588 26.6022C42.7596 26.6879 42.9604 26.7734 43.1612 26.8588C43.5653 27.0308 43.969 27.2036 44.3725 27.3769C44.896 27.601 45.4217 27.8193 45.9486 28.0353C46.097 28.0966 46.2454 28.1579 46.3982 28.221C46.6725 28.3342 46.9471 28.4466 47.222 28.5582C47.3437 28.6089 47.4653 28.6597 47.5906 28.712C47.6952 28.7549 47.7998 28.7979 47.9076 28.8421C48.2356 29.0194 48.4496 29.2084 48.6889 29.4938C49.1389 32.4507 47.9718 36.1403 46.2311 38.5139C44.953 40.1819 43.4199 41.3615 41.5774 42.3462C41.4884 42.3938 41.3994 42.4415 41.3077 42.4906C40.265 43.0301 40.265 43.0301 39.6928 42.9C36.5234 41.5754 34.0335 39.4347 32.5886 36.2746C31.7876 34.3134 31.0219 31.7377 31.3657 29.6185C31.7328 29.0412 32.1618 28.815 32.7804 28.5731C32.8706 28.5361 32.9608 28.4992 33.0537 28.4611C33.3472 28.3412 33.6416 28.2238 33.9361 28.1065C34.139 28.0243 34.3418 27.942 34.5445 27.8594C34.8513 27.7346 35.1581 27.6099 35.4651 27.4858C36.0933 27.2316 36.717 26.9693 37.3376 26.6972C37.4841 26.6333 37.6306 26.5694 37.7815 26.5036C38.0514 26.3853 38.3209 26.266 38.5898 26.1455C38.7102 26.0931 38.8307 26.0408 38.9548 25.987C39.0574 25.9414 39.1601 25.8958 39.2658 25.8489C40.0575 25.6147 40.6837 25.7923 41.4162 26.1136ZM41.9902 31.6065C41.9047 31.6862 41.8192 31.766 41.7312 31.8481C41.6419 31.9354 41.5525 32.0227 41.4605 32.1126C41.3227 32.2466 41.3227 32.2466 41.182 32.3834C40.8988 32.6625 40.6184 32.9443 40.3389 33.2271C40.2423 33.3243 40.1458 33.4215 40.0463 33.5216C39.8112 33.7583 39.5764 33.9953 39.3418 34.2326C38.9203 34.0352 38.6788 33.8253 38.3682 33.4766C38.0206 33.121 37.8629 32.9911 37.379 32.8296C36.9723 32.8299 36.9723 32.8299 36.6701 33.0479C36.3895 33.4972 36.3905 33.7051 36.4754 34.2326C36.7844 34.6706 37.1572 35.0308 37.5425 35.4017C37.6422 35.5038 37.7419 35.6058 37.8446 35.711C38.2594 36.1196 38.6202 36.4317 39.1505 36.677C39.8992 36.5495 40.3192 36.0069 40.8374 35.4796C41.0659 35.258 41.2943 35.0363 41.5228 34.8147C41.7516 34.5872 41.9801 34.3594 42.2083 34.1313C42.3266 34.0144 42.4449 33.8976 42.5632 33.7808C42.6748 33.6693 42.7865 33.5578 42.9015 33.4429C43.0019 33.343 43.1023 33.243 43.2058 33.14C43.5588 32.7438 43.7101 32.5149 43.6882 31.9801C43.6074 31.6093 43.6074 31.6093 43.3611 31.38C42.8051 31.1018 42.4311 31.1903 41.9902 31.6065Z" fill="#703391"/>
<path d="M16.035 18.7691C16.3704 18.9863 16.3704 18.9863 16.6582 19.3927C16.7519 19.9122 16.742 20.4265 16.7368 20.9532C16.7377 21.1116 16.7386 21.27 16.7395 21.4333C16.7418 21.8669 16.7402 22.3005 16.7378 22.7341C16.7357 23.1884 16.7368 23.6426 16.7375 24.0969C16.738 24.8596 16.7361 25.6223 16.7326 26.3851C16.7286 27.2664 16.7286 28.1476 16.7307 29.0289C16.7327 29.8774 16.7319 30.7259 16.7297 31.5744C16.7289 31.9352 16.729 32.2959 16.7299 32.6567C16.7311 33.1607 16.7281 33.6645 16.7247 34.1685C16.7255 34.318 16.7263 34.4676 16.7271 34.6216C16.7155 35.6248 16.7155 35.6248 16.4354 36.1334C16.1054 36.3957 15.8418 36.427 15.4241 36.4353C15.0089 36.3038 14.7559 36.0999 14.5395 35.729C14.4452 35.2135 14.457 34.7027 14.4628 34.1799C14.4621 34.0227 14.4614 33.8655 14.4607 33.7035C14.459 33.2732 14.4611 32.843 14.464 32.4127C14.4665 31.962 14.4658 31.5112 14.4655 31.0605C14.4655 30.3036 14.468 29.5467 14.472 28.7899C14.4766 27.9154 14.4776 27.0409 14.4768 26.1664C14.476 25.3244 14.4773 24.4825 14.4798 23.6405C14.4808 23.2825 14.4811 22.9246 14.4809 22.5666C14.4808 22.0665 14.4838 21.5665 14.4872 21.0664C14.4868 20.9181 14.4864 20.7697 14.4861 20.6168C14.4875 20.4805 14.4889 20.3441 14.4903 20.2036C14.4908 20.0855 14.4913 19.9673 14.4918 19.8455C14.5491 19.4517 14.6819 19.2149 14.9134 18.8939C15.3046 18.6981 15.6036 18.7253 16.035 18.7691Z" fill="#703391"/>
<path d="M40.9614 16.6492C41.218 16.8461 41.316 16.9849 41.4599 17.2727C41.4742 17.454 41.481 17.6359 41.4839 17.8178C41.4869 17.987 41.4869 17.987 41.49 18.1596C41.4955 18.6758 41.5006 19.192 41.5035 19.7082C41.5056 19.9805 41.509 20.2527 41.5137 20.525C41.5206 20.9174 41.5233 21.3097 41.5251 21.7022C41.5279 21.8237 41.5308 21.9452 41.5337 22.0703C41.5319 22.6494 41.5251 22.9213 41.1715 23.3977C40.8367 23.6327 40.8367 23.6327 40.4005 23.7106C39.832 23.609 39.6851 23.4726 39.3412 23.0092C39.2504 22.5672 39.2568 22.1336 39.2628 21.6837C39.2625 21.5557 39.2622 21.4276 39.2619 21.2957C39.262 21.0256 39.2637 20.7555 39.2668 20.4854C39.2711 20.0718 39.2694 19.6585 39.267 19.2449C39.2678 18.9822 39.269 18.7196 39.2706 18.457C39.27 18.3333 39.2694 18.2096 39.2687 18.0822C39.2834 17.2266 39.2834 17.2266 39.5793 16.8246C40.0874 16.4824 40.3581 16.5221 40.9614 16.6492Z" fill="#703391"/>
<path d="M31.9878 4.55283C32.3848 4.77233 32.4655 4.86445 32.611 5.30106C32.646 5.75251 32.6455 6.20456 32.6499 6.65722C32.6535 6.78116 32.6571 6.9051 32.6609 7.0328C32.6657 7.59153 32.6687 7.94396 32.3865 8.43573C32.0089 8.75591 31.7295 8.78405 31.24 8.79279C30.8166 8.65536 30.7481 8.55324 30.4923 8.16927C30.4312 7.67766 30.4404 7.1834 30.4378 6.6884C30.4337 6.55256 30.4296 6.41673 30.4253 6.27678C30.4186 5.27952 30.4186 5.27952 30.7795 4.77398C31.218 4.48527 31.4722 4.47779 31.9878 4.55283Z" fill="#703391"/>
<path d="M24.8853 4.55284C25.2213 4.77351 25.2213 4.77351 25.5085 5.17637C25.5981 5.67938 25.5898 6.17105 25.5786 6.68062C25.58 6.81637 25.5813 6.95213 25.5827 7.092C25.5735 8.08779 25.5735 8.08779 25.2816 8.45349C24.8979 8.75662 24.6228 8.79281 24.1376 8.79281C23.7884 8.57253 23.5749 8.41489 23.3898 8.04458C23.3565 7.59586 23.361 7.14602 23.3587 6.69621C23.3561 6.5717 23.3535 6.4472 23.3509 6.31892C23.3447 5.16293 23.3447 5.16293 23.7637 4.67755C24.1549 4.48184 24.454 4.50894 24.8853 4.55284Z" fill="#703391"/>
<path d="M32.1112 16.6492C32.3678 16.8461 32.4658 16.9848 32.6097 17.2727C32.6397 17.7241 32.6328 18.1766 32.633 18.6289C32.6346 18.7544 32.6361 18.88 32.6377 19.0093C32.638 19.1909 32.638 19.1909 32.6384 19.3761C32.6389 19.4869 32.6394 19.5976 32.6399 19.7117C32.6075 20.0385 32.5331 20.2376 32.3604 20.515C31.9592 20.8018 31.597 20.8335 31.1141 20.7644C30.7831 20.5433 30.7831 20.5433 30.491 20.1409C30.401 19.638 30.4097 19.1462 30.4209 18.6367C30.4195 18.5009 30.4182 18.3652 30.4168 18.2253C30.426 17.2256 30.426 17.2256 30.7291 16.8638C31.2181 16.4608 31.4963 16.5197 32.1112 16.6492Z" fill="#703391"/>
<path d="M25.0097 16.6492C25.3387 16.9075 25.4891 17.0555 25.5747 17.4695C25.5791 17.8587 25.5822 18.2474 25.5783 18.6367C25.5813 18.772 25.5843 18.9072 25.5873 19.0466C25.5855 20.0345 25.5855 20.0345 25.2161 20.5433C24.8133 20.8124 24.6129 20.8353 24.1373 20.7645C23.8149 20.6569 23.6821 20.5848 23.5026 20.2954C23.372 19.9728 23.3573 19.7323 23.3564 19.3849C23.3561 19.265 23.3558 19.1451 23.3555 19.0215C23.3564 18.8971 23.3574 18.7727 23.3584 18.6445C23.3574 18.5201 23.3565 18.3956 23.3555 18.2674C23.3558 18.1475 23.3561 18.0276 23.3564 17.904C23.3567 17.7949 23.357 17.6857 23.3573 17.5733C23.392 17.2499 23.469 17.0494 23.6388 16.7739C24.0833 16.4279 24.4856 16.5181 25.0097 16.6492Z" fill="#703391"/>
<path d="M31.8621 10.5386C32.1846 10.6462 32.3174 10.7182 32.4968 11.0077C32.6275 11.3303 32.6421 11.5707 32.643 11.9182C32.6435 12.098 32.6435 12.098 32.644 12.2816C32.643 12.406 32.642 12.5304 32.641 12.6586C32.642 12.783 32.643 12.9074 32.644 13.0356C32.6436 13.1556 32.6433 13.2755 32.643 13.399C32.6427 13.5082 32.6424 13.6173 32.6421 13.7298C32.6074 14.0531 32.5304 14.2537 32.3606 14.5292C32.0298 14.7866 31.8511 14.7782 31.4259 14.763C30.9387 14.6411 30.7985 14.5421 30.4912 14.1551C30.3896 13.6637 30.4161 13.1671 30.4211 12.6664C30.4181 12.5311 30.4152 12.3958 30.4121 12.2565C30.4139 11.2686 30.4139 11.2686 30.7833 10.7598C31.1861 10.4907 31.3866 10.4677 31.8621 10.5386Z" fill="#703391"/>
<path d="M24.8851 10.5387C25.2161 10.7598 25.2161 10.7598 25.5082 11.1622C25.5982 11.6651 25.5895 12.1569 25.5783 12.6664C25.5797 12.8022 25.5811 12.938 25.5825 13.0778C25.5733 14.0732 25.5733 14.0732 25.2818 14.4403C24.905 14.7361 24.6107 14.7617 24.1373 14.7786C23.8036 14.6794 23.6853 14.6046 23.5031 14.309C23.3717 13.9866 23.3573 13.7467 23.3564 13.3991C23.3561 13.2792 23.3558 13.1592 23.3555 13.0357C23.3564 12.9113 23.3574 12.7868 23.3584 12.6586C23.3574 12.5342 23.3565 12.4098 23.3555 12.2816C23.3558 12.1617 23.3561 12.0418 23.3564 11.9182C23.3567 11.8091 23.357 11.6999 23.3573 11.5875C23.392 11.264 23.4682 11.0633 23.6388 10.7881C24.04 10.5013 24.4022 10.4696 24.8851 10.5387Z" fill="#703391"/>
<path d="M28.3721 16.5245C28.7701 16.7743 28.9674 16.9036 29.0759 17.3697C29.0766 17.4997 29.0773 17.6298 29.078 17.7637C29.0788 17.9062 29.0796 18.0486 29.0804 18.1953C29.078 18.3436 29.0756 18.4918 29.0731 18.6445C29.0768 18.8668 29.0768 18.8668 29.0804 19.0936C29.0796 19.236 29.0788 19.3785 29.078 19.5252C29.0773 19.6552 29.0766 19.7853 29.0759 19.9193C28.9674 20.3853 28.7701 20.5146 28.3721 20.7645C27.9005 20.8431 27.7008 20.8125 27.2946 20.5574C26.9289 20.1937 26.9212 20.0335 26.9184 19.5252C26.9176 19.3828 26.9168 19.2403 26.916 19.0936C26.9184 18.9454 26.9208 18.7972 26.9233 18.6445C26.9209 18.4963 26.9185 18.348 26.916 18.1953C26.9168 18.0529 26.9176 17.9105 26.9184 17.7637C26.9192 17.6337 26.9199 17.5036 26.9206 17.3697C27.0909 16.6379 27.6764 16.4085 28.3721 16.5245Z" fill="#703391"/>
<path d="M28.3721 10.5387C28.7701 10.7885 28.9674 10.9178 29.0759 11.3838C29.0766 11.5139 29.0773 11.6439 29.078 11.7779C29.0788 11.9203 29.0796 12.0628 29.0804 12.2095C29.078 12.3577 29.0756 12.5059 29.0731 12.6586C29.0768 12.881 29.0768 12.881 29.0804 13.1078C29.0796 13.2502 29.0788 13.3926 29.078 13.5394C29.0773 13.6694 29.0766 13.7995 29.0759 13.9334C28.9674 14.3995 28.7701 14.5288 28.3721 14.7786C27.9005 14.8573 27.7008 14.8266 27.2946 14.5716C26.9289 14.2078 26.9212 14.0477 26.9184 13.5394C26.9176 13.3969 26.9168 13.2545 26.916 13.1078C26.9184 12.9596 26.9208 12.8113 26.9233 12.6586C26.9209 12.5104 26.9185 12.3622 26.916 12.2095C26.9168 12.0671 26.9176 11.9246 26.9184 11.7779C26.9192 11.6479 26.9199 11.5178 26.9206 11.3838C27.0909 10.6521 27.6764 10.4226 28.3721 10.5387Z" fill="#703391"/>
<path d="M28.3723 4.55278C28.7033 4.70866 28.7033 4.70866 28.9954 5.0516C29.085 5.57204 29.0708 6.08379 29.0578 6.61041C29.0582 6.82381 29.0582 6.82381 29.0587 7.04152C29.0447 8.23976 29.0447 8.23976 28.6216 8.66804C28.1264 8.80568 27.8626 8.84455 27.3909 8.62907C27.126 8.41863 27.126 8.41863 27.0014 8.16922C26.9611 7.65564 26.961 7.14097 26.9547 6.626C26.95 6.48261 26.9453 6.33922 26.9405 6.19148C26.9295 5.13655 26.9295 5.13655 27.2925 4.70769C27.6992 4.51794 27.9286 4.47878 28.3723 4.55278Z" fill="#703391"/>
<path d="M46.3451 40.7688C46.4397 40.7724 46.5343 40.7759 46.6318 40.7796C46.7265 40.7792 46.8211 40.7789 46.9186 40.7786C47.3259 40.7857 47.6373 40.8131 47.9993 41.0066C48.3063 41.3444 48.3066 41.6428 48.3143 42.089C48.1466 42.4565 48.0544 42.6555 47.6912 42.8372C47.3411 42.8626 46.9978 42.8775 46.6474 42.8839C46.5517 42.8886 46.4559 42.8933 46.3573 42.8981C45.8441 42.9061 45.6486 42.9081 45.26 42.5459C45.0316 42.138 44.9972 41.9263 45.074 41.4654C45.4146 40.8619 45.6909 40.7665 46.3451 40.7688Z" fill="#703391"/>
</svg>
