<svg width="86" height="86" viewBox="0 0 86 86" fill="none" xmlns="http://www.w3.org/2000/svg">
<circle cx="43" cy="43" r="43" fill="#703391" fill-opacity="0.1"/>
<path d="M39.1919 50.5671C40.9804 48.9295 42.1919 46.7836 42.4227 44.3554H43.0573C43.5765 44.3554 43.9804 43.9601 43.9804 43.4518C43.9804 42.9436 43.5765 42.5483 43.0573 42.5483H42.4227C42.0188 37.9742 38.2688 34.3601 33.6535 33.9083V33.3436C33.6535 32.8354 33.2496 32.4401 32.7304 32.4401C32.2112 32.4401 31.8073 32.8354 31.8073 33.3436V33.9083C27.1342 34.3601 23.4419 37.9742 23.0381 42.5483H22.4035C21.8842 42.5483 21.4804 42.9436 21.4804 43.4518C21.4804 43.9601 21.8842 44.3554 22.4035 44.3554H23.0381C23.2688 46.7836 24.4804 48.9859 26.2112 50.5107L26.2688 50.5671C27.8265 51.9224 29.7881 52.713 31.8073 52.9389V53.5601C31.8073 54.0683 32.2112 54.4636 32.7304 54.4636C33.2496 54.4636 33.6535 54.0683 33.6535 53.5601V52.9389C35.6727 52.7695 37.6342 51.9224 39.1919 50.5671ZM24.8265 43.4518C24.8265 39.1601 28.3458 35.7154 32.7304 35.7154C37.115 35.7154 40.6342 39.1601 40.6342 43.4518C40.6342 45.0895 40.115 46.5577 39.2496 47.8001C38.8458 46.4448 38.0381 45.3154 36.9996 44.4118C37.3458 43.7342 37.5765 43.0001 37.5765 42.2095C37.5765 39.6118 35.3842 37.4659 32.7304 37.4659C30.0765 37.4659 27.8842 39.6118 27.8842 42.2095C27.8842 43.0001 28.115 43.7342 28.4612 44.4118C27.365 45.2589 26.5573 46.4448 26.2112 47.8001C25.2881 46.5577 24.8265 45.033 24.8265 43.4518ZM29.7304 42.2095C29.7304 40.5718 31.0573 39.273 32.7304 39.273C34.4035 39.273 35.7304 40.5718 35.7304 42.2095C35.7304 43.8471 34.4035 45.1459 32.7304 45.1459C31.0573 45.1459 29.7304 43.8471 29.7304 42.2095ZM29.615 45.8236C30.4804 46.5012 31.5188 46.953 32.7304 46.953C33.9419 46.953 34.9804 46.5577 35.8458 45.8236C36.9419 46.6707 37.6342 48.0259 37.6919 49.4942C36.3073 50.5671 34.5765 51.1883 32.7304 51.1883C30.8842 51.1883 29.2112 50.5671 27.7688 49.4942C27.8265 48.0259 28.5188 46.7271 29.615 45.8236Z" fill="#703391"/>
<path d="M59.2111 23.5176L58.5765 24.1388C58.2303 24.4776 58.2303 25.0423 58.5765 25.4376C58.7495 25.607 58.9803 25.72 59.2111 25.72C59.4418 25.72 59.6726 25.607 59.8457 25.4376L60.4803 24.8164L61.1149 25.4376C61.288 25.607 61.5188 25.72 61.7495 25.72C61.9803 25.72 62.2111 25.607 62.3842 25.4376C62.7303 25.0988 62.7303 24.5341 62.3842 24.1388L61.7495 23.5176L62.3842 22.8964C62.7303 22.5576 62.7303 21.9929 62.3842 21.5976C62.038 21.2588 61.4611 21.2588 61.0572 21.5976L60.4226 22.2188L59.788 21.5976C59.4418 21.2588 58.8649 21.2588 58.4611 21.5976C58.1149 21.9364 58.1149 22.5012 58.4611 22.8964L59.2111 23.5176Z" fill="#703391"/>
<path d="M45.7693 51.5271H42.077C41.5578 51.5271 41.1539 51.9224 41.1539 52.4306C41.1539 52.9389 41.5578 53.3342 42.077 53.3342H45.7693C46.2885 53.3342 46.6924 52.9389 46.6924 52.4306C46.6924 51.9224 46.2885 51.5271 45.7693 51.5271Z" fill="#703391"/>
<path d="M45.7685 55.1412H38.3838C37.8646 55.1412 37.4608 55.5365 37.4608 56.0448C37.4608 56.553 37.8646 56.9483 38.3838 56.9483H45.7685C46.2877 56.9483 46.6915 56.553 46.6915 56.0448C46.6915 55.5365 46.2877 55.1412 45.7685 55.1412Z" fill="#703391"/>
<path d="M43.3461 48.8165C43.3461 49.3247 43.7499 49.72 44.2692 49.72H45.7692C46.2884 49.72 46.6922 49.3247 46.6922 48.8165C46.6922 48.3083 46.2884 47.913 45.7692 47.913H44.2692C43.7499 47.913 43.3461 48.3083 43.3461 48.8165Z" fill="#703391"/>
<path d="M48.077 34.6988H62.327C62.8462 34.6988 63.2501 34.3035 63.2501 33.7953C63.2501 33.287 62.8462 32.8917 62.327 32.8917H48.077C47.5578 32.8917 47.1539 33.287 47.1539 33.7953C47.1539 34.3035 47.5578 34.6988 48.077 34.6988Z" fill="#703391"/>
<path d="M48.077 37.6353H62.327C62.8462 37.6353 63.2501 37.24 63.2501 36.7318C63.2501 36.2235 62.8462 35.8282 62.327 35.8282H48.077C47.5578 35.8282 47.1539 36.2235 47.1539 36.7318C47.1539 37.24 47.5578 37.6353 48.077 37.6353Z" fill="#703391"/>
<path d="M66.0769 29.8424H65.1538V19.9035C65.1538 19.3953 64.75 19 64.2308 19H19.9231C19.4038 19 19 19.3953 19 19.9035V59.6588C19 60.1671 19.4038 60.5624 19.9231 60.5624H49.6923V62.8776C49.6923 65.1365 51.5962 67 53.9038 67C56.2115 67 58.1154 65.1365 58.1154 62.8776V60.5624H64.1731C64.6923 60.5624 65.0962 60.1671 65.0962 59.6588V40.6847H66.0769C66.5962 40.6847 67 40.2894 67 39.7812V30.7459C67 30.2376 66.5962 29.8424 66.0769 29.8424ZM57.7692 20.8071H63.3077V26.2282H57.7692V20.8071ZM20.8462 20.8071H55.9231V26.2282H20.8462V20.8071ZM53.9615 65.1929C52.75 65.1929 51.7115 64.2894 51.5962 63.1035H56.3269C56.1538 64.2894 55.1731 65.1929 53.9615 65.1929ZM51.5962 61.3529V52.5435L51.6538 52.6C51.8269 52.7694 52.0577 52.8824 52.3461 52.8824C52.5769 52.8824 52.8654 52.7694 53.0385 52.6L54.0192 51.5835L55 52.6C55.1731 52.7694 55.4038 52.8824 55.6923 52.8824C55.9808 52.8824 56.2115 52.7694 56.3846 52.6L56.4423 52.5435V61.3529H51.5962ZM53.9615 45.8235L54.4231 46.7835H53.4423L53.9615 45.8235ZM55.3462 48.5906L56.0961 50.1153L55.5769 50.68L54.5962 49.6635C54.4231 49.4941 54.1923 49.3812 53.9038 49.3812C53.6731 49.3812 53.3846 49.4941 53.2115 49.6635L52.2308 50.68L51.7115 50.1153L52.4615 48.5906H55.3462ZM63.3077 58.7553H58.1731V50.7929C58.1731 50.3976 58.1731 50.0024 57.9423 49.6071C57.0192 47.8 56.0962 45.9929 55.1731 44.1294C55.0577 43.8471 54.8846 43.6212 54.7692 43.3388C54.5962 43.0565 54.3077 42.8306 53.9615 42.8306C53.6154 42.8306 53.2692 43 53.1538 43.3388C52.5192 44.5812 51.8846 45.7671 51.25 47.0094C50.9615 47.5176 50.7308 48.0824 50.4423 48.5906C50.1538 49.1553 49.75 49.6635 49.75 50.2847C49.75 50.5106 49.75 50.7365 49.75 50.9059V57.9082C49.75 57.9647 49.75 58.5859 49.75 58.5859H20.9038V28.0353H63.3654V29.8424H44.3269C43.8077 29.8424 43.4038 30.2376 43.4038 30.7459V39.7812C43.4038 40.2894 43.8077 40.6847 44.3269 40.6847H63.3654C63.3077 40.6847 63.3077 58.5859 63.3077 58.7553ZM65.1538 38.8776H45.1923V31.6494H65.1538V38.8776Z" fill="#703391"/>
<path d="M39.1919 50.5671C40.9804 48.9295 42.1919 46.7836 42.4227 44.3554H43.0573C43.5765 44.3554 43.9804 43.9601 43.9804 43.4518C43.9804 42.9436 43.5765 42.5483 43.0573 42.5483H42.4227C42.0188 37.9742 38.2688 34.3601 33.6535 33.9083V33.3436C33.6535 32.8354 33.2496 32.4401 32.7304 32.4401C32.2112 32.4401 31.8073 32.8354 31.8073 33.3436V33.9083C27.1342 34.3601 23.4419 37.9742 23.0381 42.5483H22.4035C21.8842 42.5483 21.4804 42.9436 21.4804 43.4518C21.4804 43.9601 21.8842 44.3554 22.4035 44.3554H23.0381C23.2688 46.7836 24.4804 48.9859 26.2112 50.5107L26.2688 50.5671C27.8265 51.9224 29.7881 52.713 31.8073 52.9389V53.5601C31.8073 54.0683 32.2112 54.4636 32.7304 54.4636C33.2496 54.4636 33.6535 54.0683 33.6535 53.5601V52.9389C35.6727 52.7695 37.6342 51.9224 39.1919 50.5671ZM24.8265 43.4518C24.8265 39.1601 28.3458 35.7154 32.7304 35.7154C37.115 35.7154 40.6342 39.1601 40.6342 43.4518C40.6342 45.0895 40.115 46.5577 39.2496 47.8001C38.8458 46.4448 38.0381 45.3154 36.9996 44.4118C37.3458 43.7342 37.5765 43.0001 37.5765 42.2095C37.5765 39.6118 35.3842 37.4659 32.7304 37.4659C30.0765 37.4659 27.8842 39.6118 27.8842 42.2095C27.8842 43.0001 28.115 43.7342 28.4612 44.4118C27.365 45.2589 26.5573 46.4448 26.2112 47.8001C25.2881 46.5577 24.8265 45.033 24.8265 43.4518ZM29.7304 42.2095C29.7304 40.5718 31.0573 39.273 32.7304 39.273C34.4035 39.273 35.7304 40.5718 35.7304 42.2095C35.7304 43.8471 34.4035 45.1459 32.7304 45.1459C31.0573 45.1459 29.7304 43.8471 29.7304 42.2095ZM29.615 45.8236C30.4804 46.5012 31.5188 46.953 32.7304 46.953C33.9419 46.953 34.9804 46.5577 35.8458 45.8236C36.9419 46.6707 37.6342 48.0259 37.6919 49.4942C36.3073 50.5671 34.5765 51.1883 32.7304 51.1883C30.8842 51.1883 29.2112 50.5671 27.7688 49.4942C27.8265 48.0259 28.5188 46.7271 29.615 45.8236Z" stroke="#703391" stroke-width="0.4"/>
<path d="M59.2111 23.5176L58.5765 24.1388C58.2303 24.4776 58.2303 25.0423 58.5765 25.4376C58.7495 25.607 58.9803 25.72 59.2111 25.72C59.4418 25.72 59.6726 25.607 59.8457 25.4376L60.4803 24.8164L61.1149 25.4376C61.288 25.607 61.5188 25.72 61.7495 25.72C61.9803 25.72 62.2111 25.607 62.3842 25.4376C62.7303 25.0988 62.7303 24.5341 62.3842 24.1388L61.7495 23.5176L62.3842 22.8964C62.7303 22.5576 62.7303 21.9929 62.3842 21.5976C62.038 21.2588 61.4611 21.2588 61.0572 21.5976L60.4226 22.2188L59.788 21.5976C59.4418 21.2588 58.8649 21.2588 58.4611 21.5976C58.1149 21.9364 58.1149 22.5012 58.4611 22.8964L59.2111 23.5176Z" stroke="#703391" stroke-width="0.4"/>
<path d="M45.7693 51.5271H42.077C41.5578 51.5271 41.1539 51.9224 41.1539 52.4306C41.1539 52.9389 41.5578 53.3342 42.077 53.3342H45.7693C46.2885 53.3342 46.6924 52.9389 46.6924 52.4306C46.6924 51.9224 46.2885 51.5271 45.7693 51.5271Z" stroke="#703391" stroke-width="0.4"/>
<path d="M45.7685 55.1412H38.3838C37.8646 55.1412 37.4608 55.5365 37.4608 56.0448C37.4608 56.553 37.8646 56.9483 38.3838 56.9483H45.7685C46.2877 56.9483 46.6915 56.553 46.6915 56.0448C46.6915 55.5365 46.2877 55.1412 45.7685 55.1412Z" stroke="#703391" stroke-width="0.4"/>
<path d="M43.3461 48.8165C43.3461 49.3247 43.7499 49.72 44.2692 49.72H45.7692C46.2884 49.72 46.6922 49.3247 46.6922 48.8165C46.6922 48.3083 46.2884 47.913 45.7692 47.913H44.2692C43.7499 47.913 43.3461 48.3083 43.3461 48.8165Z" stroke="#703391" stroke-width="0.4"/>
<path d="M48.077 34.6988H62.327C62.8462 34.6988 63.2501 34.3035 63.2501 33.7953C63.2501 33.287 62.8462 32.8917 62.327 32.8917H48.077C47.5578 32.8917 47.1539 33.287 47.1539 33.7953C47.1539 34.3035 47.5578 34.6988 48.077 34.6988Z" stroke="#703391" stroke-width="0.4"/>
<path d="M48.077 37.6353H62.327C62.8462 37.6353 63.2501 37.24 63.2501 36.7318C63.2501 36.2235 62.8462 35.8282 62.327 35.8282H48.077C47.5578 35.8282 47.1539 36.2235 47.1539 36.7318C47.1539 37.24 47.5578 37.6353 48.077 37.6353Z" stroke="#703391" stroke-width="0.4"/>
<path d="M66.0769 29.8424H65.1538V19.9035C65.1538 19.3953 64.75 19 64.2308 19H19.9231C19.4038 19 19 19.3953 19 19.9035V59.6588C19 60.1671 19.4038 60.5624 19.9231 60.5624H49.6923V62.8776C49.6923 65.1365 51.5962 67 53.9038 67C56.2115 67 58.1154 65.1365 58.1154 62.8776V60.5624H64.1731C64.6923 60.5624 65.0962 60.1671 65.0962 59.6588V40.6847H66.0769C66.5962 40.6847 67 40.2894 67 39.7812V30.7459C67 30.2376 66.5962 29.8424 66.0769 29.8424ZM57.7692 20.8071H63.3077V26.2282H57.7692V20.8071ZM20.8462 20.8071H55.9231V26.2282H20.8462V20.8071ZM53.9615 65.1929C52.75 65.1929 51.7115 64.2894 51.5962 63.1035H56.3269C56.1538 64.2894 55.1731 65.1929 53.9615 65.1929ZM51.5962 61.3529V52.5435L51.6538 52.6C51.8269 52.7694 52.0577 52.8824 52.3461 52.8824C52.5769 52.8824 52.8654 52.7694 53.0385 52.6L54.0192 51.5835L55 52.6C55.1731 52.7694 55.4038 52.8824 55.6923 52.8824C55.9808 52.8824 56.2115 52.7694 56.3846 52.6L56.4423 52.5435V61.3529H51.5962ZM53.9615 45.8235L54.4231 46.7835H53.4423L53.9615 45.8235ZM55.3462 48.5906L56.0961 50.1153L55.5769 50.68L54.5962 49.6635C54.4231 49.4941 54.1923 49.3812 53.9038 49.3812C53.6731 49.3812 53.3846 49.4941 53.2115 49.6635L52.2308 50.68L51.7115 50.1153L52.4615 48.5906H55.3462ZM63.3077 58.7553H58.1731V50.7929C58.1731 50.3976 58.1731 50.0024 57.9423 49.6071C57.0192 47.8 56.0962 45.9929 55.1731 44.1294C55.0577 43.8471 54.8846 43.6212 54.7692 43.3388C54.5962 43.0565 54.3077 42.8306 53.9615 42.8306C53.6154 42.8306 53.2692 43 53.1538 43.3388C52.5192 44.5812 51.8846 45.7671 51.25 47.0094C50.9615 47.5176 50.7308 48.0824 50.4423 48.5906C50.1538 49.1553 49.75 49.6635 49.75 50.2847C49.75 50.5106 49.75 50.7365 49.75 50.9059V57.9082C49.75 57.9647 49.75 58.5859 49.75 58.5859H20.9038V28.0353H63.3654V29.8424H44.3269C43.8077 29.8424 43.4038 30.2376 43.4038 30.7459V39.7812C43.4038 40.2894 43.8077 40.6847 44.3269 40.6847H63.3654C63.3077 40.6847 63.3077 58.5859 63.3077 58.7553ZM65.1538 38.8776H45.1923V31.6494H65.1538V38.8776Z" stroke="#703391" stroke-width="0.4"/>
</svg>
