<svg width="86" height="86" viewBox="0 0 86 86" fill="none" xmlns="http://www.w3.org/2000/svg">
<circle cx="43" cy="43" r="43" fill="#703391" fill-opacity="0.1"/>
<path d="M66.999 36.7146C66.999 36.4103 66.879 36.1211 66.6647 35.9067C66.4505 35.6903 66.159 35.5703 65.8569 35.5703H63.654C63.0219 35.5703 62.5098 36.0825 62.5098 36.7146C62.5098 37.3446 63.0219 37.8567 63.654 37.8567H65.8569C66.159 37.8567 66.4504 37.7367 66.6647 37.5224C66.8791 37.3081 66.999 37.0168 66.999 36.7146Z" fill="#703391"/>
<path d="M62.4281 32.0212C62.7302 32.0212 63.0216 31.9012 63.2359 31.6869L64.4595 30.4633C64.9052 30.0155 64.9052 29.2933 64.4595 28.8476C64.0117 28.3998 63.2895 28.3998 62.8417 28.8476L61.6202 30.0712C61.2924 30.3969 61.196 30.8898 61.3717 31.3162C61.5495 31.7426 61.9652 32.0212 62.4281 32.0212Z" fill="#703391"/>
<path d="M61.6208 43.3564L62.8443 44.58H62.8422C63.2901 45.0257 64.0122 45.0257 64.46 44.58C64.9058 44.1343 64.9058 43.41 64.46 42.9643L63.2365 41.7407C62.7886 41.2971 62.0686 41.3014 61.625 41.745C61.1815 42.1886 61.1793 42.9085 61.6208 43.3564Z" fill="#703391"/>
<path d="M19 36.7145C19 37.0167 19.12 37.3081 19.3343 37.5224C19.5486 37.7367 19.84 37.8567 20.1422 37.8567H22.345C22.9771 37.8567 23.4893 37.3446 23.4893 36.7146C23.4893 36.0825 22.9771 35.5703 22.345 35.5703H20.1422C19.84 35.5703 19.5486 35.6903 19.3343 35.9067C19.12 36.121 19 36.4102 19 36.7145Z" fill="#703391"/>
<path d="M24.3787 30.0712L23.1572 28.8476C22.7093 28.3998 21.9872 28.3998 21.5394 28.8476C21.0936 29.2933 21.0936 30.0155 21.5394 30.4633L22.7629 31.6869C23.2108 32.1283 23.9308 32.1262 24.3744 31.6805C24.8179 31.2369 24.8201 30.5169 24.3787 30.0712Z" fill="#703391"/>
<path d="M22.7632 41.7407L21.5396 42.9642C21.3253 43.1764 21.2032 43.4678 21.2032 43.7721C21.201 44.0764 21.3232 44.3678 21.5374 44.5821C21.7517 44.7986 22.0432 44.9186 22.3475 44.9186C22.6517 44.9164 22.9432 44.7943 23.1575 44.58L24.3789 43.3564C24.8204 42.9086 24.8182 42.1886 24.3746 41.745C23.9311 41.3014 23.211 41.2971 22.7632 41.7407Z" fill="#703391"/>
<path d="M60.7127 36.6766C60.3977 26.9307 52.4518 19 42.9999 19C33.5481 19 25.602 26.9307 25.2872 36.6766C25.165 42.6511 27.8779 48.3293 32.6007 51.9872C33.4107 52.6386 33.8735 53.6265 33.8564 54.6657V55.6536C32.8514 55.9107 32.1464 56.8172 32.1421 57.8564V60.1429C32.1443 61.405 33.1664 62.4272 34.4286 62.4293H35.3243C35.3243 62.6157 35.3457 62.8022 35.3886 62.9843L35.7443 64.405V64.4028C36.1236 65.9307 37.4971 67.0021 39.07 67H46.9299C48.5028 67.0021 49.8763 65.9307 50.2556 64.4028L50.6113 62.9822C50.6563 62.8 50.6778 62.6157 50.6756 62.4293H51.5713C52.8335 62.4272 53.8556 61.405 53.8578 60.1429V57.8564C53.8535 56.8172 53.1485 55.9107 52.1435 55.6536V54.6657C52.1263 53.6265 52.5892 52.6386 53.3992 51.9872C58.1221 48.3293 60.8351 42.6505 60.7127 36.6766ZM48.0397 63.8478C47.9111 64.3578 47.4547 64.7156 46.9297 64.7135H39.0698C38.5448 64.7156 38.0883 64.3578 37.9598 63.8478L37.6062 62.4293H48.3933L48.0397 63.8478ZM48.3932 60.1428H34.4283V57.8564H51.5711L51.5732 60.1428H48.3932ZM36.6549 42.8777C36.4385 42.5841 36.0978 42.4127 35.7335 42.4127C35.7142 42.4127 35.6949 42.4127 35.6756 42.4148C35.6156 42.417 35.5578 42.4234 35.5706 42.4298V42.4277C34.6256 42.4277 33.8585 41.6605 33.8563 40.7134C33.8606 40.6234 33.8713 40.5312 33.8885 40.4434C33.9635 39.9698 33.7363 39.5005 33.3206 39.267C32.4935 38.8127 32.0327 37.8955 32.1656 36.9613C32.2963 36.0292 32.9927 35.2727 33.912 35.0649C34.2742 34.9813 34.5741 34.7263 34.7134 34.3813C34.8527 34.0363 34.8163 33.6441 34.6127 33.3313C34.3899 32.9906 34.3663 32.5534 34.5527 32.1913C34.7391 31.827 35.1056 31.5891 35.5127 31.5699C35.5363 31.5742 35.6284 31.5827 35.6541 31.5849C36.0398 31.6127 36.4148 31.4413 36.6484 31.1306C36.8799 30.822 36.9398 30.4149 36.807 30.0506C36.747 29.8984 36.717 29.7356 36.7148 29.5706C36.7148 28.782 37.3534 28.1434 38.142 28.1434C38.8513 28.1477 39.4534 28.6598 39.5713 29.3584V44.4293C39.5713 45.2178 38.9327 45.8564 38.142 45.8564C37.3534 45.8564 36.7148 45.2178 36.7148 44.4293C36.717 44.2643 36.747 44.1014 36.807 43.9493C36.9398 43.5893 36.8821 43.1862 36.6549 42.8777ZM49.3516 31.1306C49.5873 31.4392 49.9602 31.6084 50.3459 31.5849L50.4294 31.572C51.0594 31.572 51.5716 32.0842 51.5716 32.7141C51.5716 32.9327 51.5073 33.1491 51.3873 33.3313C51.1837 33.6441 51.1473 34.0363 51.2866 34.3813C51.4258 34.7263 51.7258 34.9813 52.088 35.0649C53.0073 35.2727 53.7037 36.0291 53.8344 36.9613C53.9672 37.8955 53.5065 38.8127 52.6794 39.267C52.2637 39.5005 52.0365 39.9698 52.1115 40.4434C52.1286 40.5312 52.1394 40.6234 52.1436 40.7134C52.1479 41.637 51.4194 42.3977 50.4958 42.4319C50.4636 42.4277 50.3565 42.4169 50.3222 42.4148C49.9386 42.3934 49.5722 42.5691 49.3451 42.8777C49.118 43.1862 49.0601 43.5891 49.193 43.9491C49.253 44.1012 49.283 44.2641 49.2851 44.4291C49.2851 45.2176 48.6465 45.8562 47.8579 45.8562C47.0672 45.8562 46.4286 45.2176 46.4286 44.4291V29.3582C46.5465 28.6596 47.1486 28.1475 47.8579 28.1432C48.6465 28.1432 49.2851 28.7818 49.2851 29.5704C49.283 29.7354 49.253 29.8982 49.193 30.0504C49.0601 30.4147 49.1202 30.822 49.3516 31.1306ZM52.0065 50.1742C50.6351 51.2606 49.8423 52.9171 49.8573 54.6656V55.572H46.4287V47.8558C47.5558 48.3273 48.8415 48.2137 49.8679 47.5537C50.8944 46.8916 51.5308 45.7687 51.5694 44.5494C53.2215 44.0544 54.3723 42.5587 54.4258 40.8358C55.6151 39.8908 56.2515 38.4165 56.1272 36.9037C56.003 35.3908 55.133 34.0387 53.8065 33.3016C53.8408 33.1066 53.8579 32.9116 53.8579 32.7144C53.8558 31.2616 52.9387 29.9673 51.5694 29.4809C51.5179 27.5266 49.9644 25.9452 48.0101 25.8616C46.0579 25.7759 44.3715 27.2159 44.1486 29.1594C44.1444 29.2001 44.1422 29.243 44.1422 29.2858V55.5722H41.8579V29.2858C41.8579 29.243 41.8558 29.2001 41.8515 29.1594C41.6286 27.2158 39.9422 25.7758 37.99 25.8616C36.0358 25.9452 34.4822 27.5266 34.4307 29.4809C33.0615 29.9673 32.1443 31.2616 32.1422 32.7144C32.1422 32.9116 32.1593 33.1066 32.1936 33.3016C30.8672 34.0387 29.9972 35.3908 29.8729 36.9037C29.7486 38.4165 30.385 39.8908 31.5743 40.8358C31.6279 42.5587 32.7786 44.0544 34.4307 44.5494C34.4693 45.7687 35.1057 46.8915 36.1322 47.5537C37.1586 48.2137 38.4443 48.3273 39.5714 47.8558V55.572H36.1429V54.6656C36.1579 52.9171 35.365 51.2606 33.9936 50.1742C29.8493 46.9685 27.4667 41.9906 27.5693 36.7512C27.8478 28.2226 34.7692 21.2865 43 21.2865C51.2307 21.2865 58.152 28.2248 58.4307 36.7512C58.5336 41.9905 56.1509 46.9684 52.0065 50.1742Z" fill="#703391"/>
</svg>
