<svg width="58" height="58" viewBox="0 0 58 58" fill="none" xmlns="http://www.w3.org/2000/svg">
<path d="M56.9444 30.6708C54.6974 16.5462 44.1766 5.47495 30.3955 4.77914V2.47673C30.3955 1.65942 29.7708 1 28.9964 1C28.2247 1 27.5973 1.65942 27.5973 2.47673V4.77914C21.3105 5.1033 15.3335 7.65231 10.5927 12.0465C9.22771 13.3348 11.0468 15.5292 12.438 14.2685C15.0682 11.8359 18.1053 10.0516 21.3815 8.95718C17.9507 12.9607 15.3704 20.5689 14.6327 28.4568C11.5773 26.5257 7.6138 26.6586 4.61605 27.8029C5.42714 24.3757 6.84988 21.206 8.84488 18.3858C9.92638 16.8176 7.72138 15.0804 6.60319 16.6209C3.60814 20.6522 2.08037 25.7139 1.0488 30.6732C0.694432 32.0197 2.3534 33.092 3.33249 32.1361C6.65305 29.1216 11.4696 29.1216 14.7247 32.0752C15.2261 32.524 15.969 32.6625 16.5202 32.2303C19.5415 29.3654 24.3744 29.1272 27.5973 31.7732V51.4061C27.6655 53.7363 24.757 55.008 23.2451 53.3096C22.0822 52.2567 22.6072 49.6551 22.4996 47.8265C22.4654 45.8732 19.7302 45.8925 19.7013 47.8265V51.4061C19.9087 58.8479 30.1723 58.8813 30.3981 51.4061V31.0142C30.3823 30.9006 30.3639 30.787 30.3324 30.6734C30.2957 30.3825 30.1172 30.1442 29.9361 29.9336C26.605 26.8 21.5046 26.0741 17.4962 28.1023L17.554 27.6174C20.927 1.1909 37.0705 1.1909 40.4412 27.6202L40.4963 28.0884C38.567 27.1741 36.5406 26.7558 34.3749 27.0466C32.5611 27.3874 32.9994 30.2384 34.8186 29.9641C37.1338 29.6843 39.533 30.5016 41.2497 32.0338C41.6566 32.527 42.3706 32.6434 42.9166 32.3275C46.1531 29.313 51.4031 29.0277 54.6737 32.1474C55.6423 33.1005 57.3196 32.02 56.9469 30.6707L56.9444 30.6708ZM43.3629 28.4765C42.6278 20.5942 40.0528 12.9857 36.6275 8.97399C44.7888 11.7418 51.2587 18.8238 53.3775 27.8034C50.4402 26.6951 46.3633 26.6314 43.3635 28.4766L43.3629 28.4765Z" fill="#703391" stroke="#703391"/>
</svg>
