<svg width="32" height="32" viewBox="0 0 32 32" fill="white" xmlns="http://www.w3.org/2000/svg">
<path d="M16.4999 1C13.4498 1 10.5253 2.24161 8.36751 4.45145C6.21128 6.66277 5 9.66017 5 12.7866C5 22.8694 15.4545 30.4879 15.9041 30.8091C16.2622 31.0636 16.7378 31.0636 17.0959 30.8091C17.5455 30.4877 28 22.8694 28 12.7866C28 9.66045 26.7886 6.66304 24.6325 4.45145C22.475 2.24147 19.5503 1 16.4999 1ZM16.4999 28.5914C14.3358 26.8555 7.09089 20.4479 7.09089 12.7866C7.09089 9.34163 8.88384 6.15798 11.7952 4.43568C14.7068 2.71191 18.2927 2.71191 21.2043 4.43568C24.1158 6.15811 25.9086 9.34198 25.9086 12.7866C25.9086 20.4479 18.6641 26.8554 16.4999 28.5914ZM16.4999 6.35753C15.1134 6.35753 13.7844 6.9214 12.8042 7.92728C11.8228 8.93182 11.2726 10.294 11.2726 11.7151C11.2726 13.1362 11.8228 14.4983 12.8042 15.5029C13.7843 16.5088 15.1133 17.0727 16.4999 17.0727C17.8865 17.0727 19.2155 16.5088 20.1956 15.5029C21.177 14.4984 21.7272 13.1362 21.7272 11.7151C21.7272 10.294 21.177 8.93186 20.1956 7.92728C19.2155 6.9214 17.8865 6.35753 16.4999 6.35753ZM16.4999 14.9296C15.231 14.9296 14.0876 14.146 13.6027 12.9446C13.1166 11.7445 13.3858 10.3609 14.2822 9.44207C15.1787 8.52324 16.5286 8.24733 17.6996 8.7456C18.8718 9.24251 19.6363 10.4145 19.6363 11.715C19.6363 13.4897 18.2314 14.9296 16.4999 14.9296Z" />
</svg>
