<svg width="58" height="58" viewBox="0 0 58 58" fill="none" xmlns="http://www.w3.org/2000/svg">
<path d="M56.64 45.1207L53.7671 43.3041L52.4797 36.488C52.2481 35.2055 51.1171 34.2742 49.7911 34.2742H42.5001V7.79105C42.5001 6.53123 41.4569 5.50636 40.1745 5.50636H29.9937V5.23775C29.9937 4.27346 29.1952 3.48844 28.2131 3.48844H25.3345V2.94511C25.3345 1.87251 24.4464 1 23.3547 1H20.1448C19.053 1 18.1649 1.87251 18.1649 2.94511V3.48783H15.2863C14.3048 3.48783 13.5058 4.27223 13.5058 5.23714V5.50575H3.32552C2.04318 5.50575 1 6.53062 1 7.79044V49.739C1 50.9989 2.04318 52.0237 3.32552 52.0237H18.7049C19.091 52.9666 20.0308 53.6348 21.1275 53.6348H24.1861C24.5548 55.5481 26.2681 57 28.3208 57C30.3736 57 32.0869 55.5481 32.4556 53.6348H44.8312C45.1999 55.5481 46.9132 57 48.9659 57C51.0187 57 52.732 55.5481 53.1007 53.6348H56.2159C56.6487 53.6348 57 53.2903 57 52.8644V45.7681C56.9994 45.5062 56.8642 45.2621 56.64 45.1207ZM50.9371 36.7633L52.1154 43.0018H45.9939V35.8143H49.7911C50.3647 35.8143 50.8356 36.2022 50.9371 36.7633ZM15.074 5.23714C15.074 5.12395 15.1711 5.02849 15.287 5.02849H18.949C19.3818 5.02849 19.7331 4.68402 19.7331 4.25816V2.94511C19.7331 2.72545 19.9218 2.54006 20.1448 2.54006H23.3547C23.5782 2.54006 23.767 2.72545 23.767 2.94511V4.25816C23.767 4.68341 24.1176 5.02849 24.5511 5.02849H28.2131C28.3283 5.02849 28.4255 5.12395 28.4255 5.23714V7.31502C28.4255 7.42822 28.3283 7.52367 28.2131 7.52367H15.287C15.1717 7.52367 15.074 7.42822 15.074 7.31502V5.23714ZM2.56758 49.7397V7.79105C2.56758 7.38049 2.90763 7.04641 3.32552 7.04641H13.5064V7.31502C13.5064 8.27931 14.3054 9.06433 15.287 9.06433H28.2131C29.1946 9.06433 29.9937 8.27993 29.9937 7.31502V7.04641H40.1745C40.5924 7.04641 40.9325 7.38049 40.9325 7.79105V30.6643C40.613 30.5266 40.2605 30.4501 39.8899 30.4501H21.1275C19.6883 30.4501 18.5168 31.6004 18.5168 33.015V50.4843H3.32552C2.90763 50.4843 2.56758 50.1502 2.56758 49.7397ZM28.3202 55.4599C26.8641 55.4599 25.6789 54.2962 25.6789 52.865C25.6789 51.4339 26.8635 50.2701 28.3202 50.2701C29.7763 50.2701 30.9615 51.4339 30.9615 52.865C30.9615 54.2962 29.7769 55.4599 28.3202 55.4599ZM40.9325 52.0947H32.455C32.0863 50.1814 30.373 48.7295 28.3202 48.7295C26.2675 48.7295 24.5542 50.1814 24.1855 52.0947H21.1275C20.5527 52.0947 20.085 51.6352 20.085 51.0704V33.015C20.085 32.4503 20.5527 31.9908 21.1275 31.9908H39.8899C40.4648 31.9908 40.9325 32.4503 40.9325 33.015V52.0947ZM48.9659 55.4599C47.5098 55.4599 46.3246 54.2962 46.3246 52.865C46.3246 51.4339 47.5092 50.2701 48.9659 50.2701C50.4226 50.2701 51.6072 51.4339 51.6072 52.865C51.6072 54.2962 50.422 55.4599 48.9659 55.4599ZM55.4318 52.0947H53.1007C52.732 50.1814 51.0187 48.7295 48.9659 48.7295C46.9132 48.7295 45.1999 50.1814 44.8312 52.0947H42.5001V35.8143H44.4257V43.7716C44.4257 44.1968 44.7764 44.5419 45.2098 44.5419H52.8279L55.4318 46.1884V52.0947ZM48.9659 50.8025C47.8081 50.8025 46.8665 51.7276 46.8665 52.865C46.8665 54.0025 47.8081 54.9276 48.9659 54.9276C50.1237 54.9276 51.0654 54.0025 51.0654 52.865C51.0654 51.7276 50.1237 50.8025 48.9659 50.8025ZM48.9659 53.3876C48.6726 53.3876 48.4341 53.1532 48.4341 52.865C48.4341 52.5769 48.6726 52.3425 48.9659 52.3425C49.2593 52.3425 49.4978 52.5769 49.4978 52.865C49.4978 53.1532 49.2593 53.3876 48.9659 53.3876ZM28.3202 50.8025C27.1624 50.8025 26.2208 51.7276 26.2208 52.865C26.2208 54.0025 27.1624 54.9276 28.3202 54.9276C29.478 54.9276 30.4197 54.0025 30.4197 52.865C30.4197 51.7276 29.478 50.8025 28.3202 50.8025ZM28.3202 53.3876C28.0269 53.3876 27.7884 53.1532 27.7884 52.865C27.7884 52.5769 28.0269 52.3425 28.3202 52.3425C28.6136 52.3425 28.8521 52.5769 28.8521 52.865C28.8521 53.1532 28.6136 53.3876 28.3202 53.3876ZM18.7042 22.6997C18.7042 22.2744 19.0549 21.9293 19.4883 21.9293H35.8386C36.2715 21.9293 36.6227 22.2738 36.6227 22.6997C36.6227 23.1249 36.2721 23.47 35.8386 23.47H19.4883C19.0549 23.47 18.7042 23.1255 18.7042 22.6997ZM18.7042 17.735C18.7042 17.3098 19.0549 16.9647 19.4883 16.9647H30.6993C31.1321 16.9647 31.4834 17.3092 31.4834 17.735C31.4834 18.1609 31.1328 18.5054 30.6993 18.5054H19.4883C19.0549 18.5054 18.7042 18.1609 18.7042 17.735ZM18.7042 13.1436C18.7042 12.7184 19.0549 12.3733 19.4883 12.3733H35.8386C36.2715 12.3733 36.6227 12.7178 36.6227 13.1436C36.6227 13.5695 36.2721 13.9139 35.8386 13.9139H19.4883C19.0549 13.9133 18.7042 13.5689 18.7042 13.1436ZM18.7042 27.2917C18.7042 26.8664 19.0549 26.5214 19.4883 26.5214H30.6993C31.1321 26.5214 31.4834 26.8658 31.4834 27.2917C31.4834 27.7169 31.1328 28.062 30.6993 28.062H19.4883C19.0549 28.062 18.7042 27.7169 18.7042 27.2917ZM13.6129 11.4029H8.35772C7.54123 11.4029 6.87671 12.0557 6.87671 12.8579V18.0208C6.87671 18.8229 7.54123 19.4758 8.35772 19.4758H13.6129C14.4294 19.4758 15.0939 18.8229 15.0939 18.0208V12.8579C15.0939 12.0557 14.43 11.4029 13.6129 11.4029ZM13.5263 17.9351H8.44553V12.9429H13.5263V17.9351ZM9.267 16.0451C8.95498 15.7501 8.94502 15.2625 9.2452 14.9559C9.54539 14.6494 10.0418 14.6396 10.3538 14.9345L10.5767 15.145L11.5988 14.111C11.9002 13.8063 12.3966 13.7989 12.7073 14.0951C13.0181 14.3912 13.025 14.8788 12.7235 15.1842L11.1578 16.7677C11.004 16.9231 10.7997 17.0014 10.5954 17.0014C10.3999 17.0014 10.2043 16.9298 10.0523 16.7866L9.267 16.0451ZM13.6129 20.9595H8.35772C7.54123 20.9595 6.87671 21.6124 6.87671 22.4145V27.5774C6.87671 28.3796 7.54123 29.0324 8.35772 29.0324H13.6129C14.4294 29.0324 15.0939 28.3796 15.0939 27.5774V22.4145C15.0939 21.6124 14.43 20.9595 13.6129 20.9595ZM13.5263 27.4918H8.44553V22.4996H13.5263V27.4918ZM9.267 25.6017C8.95498 25.3068 8.94502 24.8192 9.2452 24.5126C9.54539 24.2061 10.0418 24.1963 10.3538 24.4912L10.5767 24.7017L11.5988 23.6676C11.9002 23.3629 12.3966 23.3556 12.7073 23.6517C13.0181 23.9479 13.025 24.4355 12.7235 24.7408L11.1578 26.3243C11.004 26.4797 10.7997 26.5581 10.5954 26.5581C10.3999 26.5581 10.2043 26.4865 10.0523 26.3433L9.267 25.6017ZM13.6129 30.5162H8.35772C7.54123 30.5162 6.87671 31.169 6.87671 31.9712V37.1341C6.87671 37.9362 7.54123 38.5891 8.35772 38.5891H13.6129C14.4294 38.5891 15.0939 37.9362 15.0939 37.1341V31.9712C15.0939 31.169 14.43 30.5162 13.6129 30.5162ZM13.5263 37.0484H8.44553V32.0562H13.5263V37.0484ZM9.267 35.1584C8.95498 34.8635 8.94502 34.3758 9.2452 34.0693C9.54539 33.7627 10.0418 33.7529 10.3538 34.0479L10.5767 34.2583L11.5994 33.2243C11.9008 32.9196 12.3972 32.9122 12.708 33.2084C13.0187 33.5045 13.0256 33.9922 12.7241 34.2975L11.1584 35.881C11.0046 36.0364 10.8003 36.1147 10.5961 36.1147C10.4005 36.1147 10.2049 36.0431 10.053 35.9L9.267 35.1584ZM13.6129 40.0729H8.35772C7.54123 40.0729 6.87671 40.7257 6.87671 41.5279V46.6907C6.87671 47.4929 7.54123 48.1458 8.35772 48.1458H13.6129C14.4294 48.1458 15.0939 47.4929 15.0939 46.6907V41.5279C15.0939 40.7251 14.43 40.0729 13.6129 40.0729ZM13.5263 46.6051H8.44553V41.6129H13.5263V46.6051ZM9.267 44.7144C8.95498 44.4195 8.94502 43.9319 9.2452 43.6253C9.54539 43.3188 10.0418 43.309 10.3538 43.6039L10.5767 43.8144L11.5994 42.7803C11.9008 42.4756 12.3972 42.4683 12.708 42.7644C13.0187 43.0606 13.0256 43.5482 12.7241 43.8535L11.1584 45.437C11.0046 45.5925 10.8003 45.6708 10.5961 45.6708C10.4005 45.6708 10.2049 45.5992 10.053 45.456L9.267 44.7144ZM35.5646 33.8178H25.4522C24.4502 33.8178 23.6349 34.6187 23.6349 35.6032V45.1177C23.6349 46.1021 24.4502 46.9031 25.4522 46.9031H35.5646C36.5667 46.9031 37.3819 46.1021 37.3819 45.1177V35.6032C37.3819 34.6181 36.5667 33.8178 35.5646 33.8178ZM29.4961 35.3578H31.5201V36.8753L30.9011 36.5228C30.6582 36.3846 30.3586 36.3846 30.1157 36.5228L29.4967 36.8753L29.4961 35.3578ZM35.8143 45.1177C35.8143 45.2504 35.7004 45.3624 35.5646 45.3624H25.4522C25.3171 45.3624 25.2031 45.2504 25.2031 45.1177V35.6032C25.2031 35.4704 25.3171 35.3585 25.4522 35.3585H27.9285V37.8347C27.9285 38.1871 28.1209 38.5151 28.4317 38.6907C28.5862 38.7782 28.7599 38.8222 28.9331 38.8222C29.1074 38.8222 29.2818 38.7782 29.4375 38.6894L30.5081 38.08L31.5787 38.6894C31.8888 38.8663 32.2744 38.8663 32.5845 38.6907C32.8947 38.5151 33.0877 38.1871 33.0877 37.8347V35.3585H35.564C35.6991 35.3585 35.8137 35.4704 35.8137 35.6032L35.8143 45.1177Z" fill="#703391" stroke="#703391" stroke-width="0.3"/>
</svg>
