<svg width="56" height="56" viewBox="0 0 56 56" fill="none" xmlns="http://www.w3.org/2000/svg">
<path d="M2.54545 49V14H48.3636V30.8H50.9091V4.2C50.9091 3.08609 50.5068 2.0178 49.7908 1.23015C49.0747 0.442499 48.1036 0 47.0909 0H3.81818C2.80554 0 1.83437 0.442499 1.11832 1.23015C0.402272 2.0178 0 3.08609 0 4.2V49C0 50.1139 0.402272 51.1822 1.11832 51.9698C1.83437 52.7575 2.80554 53.2 3.81818 53.2H28V50.4H3.81818C3.48063 50.4 3.15691 50.2525 2.91823 49.9899C2.67955 49.7274 2.54545 49.3713 2.54545 49ZM3.81818 2.8H47.0909C47.4285 2.8 47.7522 2.9475 47.9909 3.21005C48.2295 3.4726 48.3636 3.8287 48.3636 4.2V11.2H2.54545V4.2C2.54545 3.8287 2.67955 3.4726 2.91823 3.21005C3.15691 2.9475 3.48063 2.8 3.81818 2.8ZM10.1818 8.4H5.09091V5.6H10.1818V8.4ZM17.8182 8.4H12.7273V5.6H17.8182V8.4ZM45.8182 8.4H34.3636V5.6H45.8182V8.4ZM45.8182 19.6H16.5455V16.8H45.8182V19.6ZM45.8182 25.2H16.5455V22.4H45.8182V25.2ZM13.7455 19.04L9.92727 24.64C9.81806 24.8013 9.67854 24.9348 9.51822 25.0314C9.35789 25.128 9.18052 25.1855 8.99818 25.2H8.90909C8.74159 25.2011 8.57555 25.1658 8.42048 25.0961C8.26542 25.0264 8.12438 24.9238 8.00545 24.794L5.46 21.994L7.26727 20.006L8.76909 21.672L11.7091 17.36L13.7455 19.04ZM16.5455 28H45.8182V30.8H16.5455V28ZM16.5455 33.6H28V36.4H16.5455V33.6ZM16.5455 39.2H28V42H16.5455V39.2ZM16.5455 44.8H28V47.6H16.5455V44.8ZM13.7455 30.24L9.92727 35.84C9.81806 36.0013 9.67854 36.1348 9.51822 36.2314C9.35789 36.328 9.18052 36.3855 8.99818 36.4H8.90909C8.74159 36.4011 8.57555 36.3657 8.42048 36.2961C8.26542 36.2264 8.12438 36.1238 8.00545 35.994L5.46 33.194L7.26727 31.206L8.76909 32.872L11.7091 28.56L13.7455 30.24ZM8.76909 44.072L11.7091 39.76L13.7455 41.44L9.92727 47.04C9.81806 47.2013 9.67854 47.3348 9.51822 47.4314C9.35789 47.528 9.18052 47.5855 8.99818 47.6H8.90909C8.74159 47.6011 8.57555 47.5657 8.42048 47.4961C8.26542 47.4264 8.12438 47.3238 8.00545 47.194L5.46 44.394L7.26727 42.406L8.76909 44.072ZM52.1818 33.6H34.3636C33.351 33.6 32.3798 34.0425 31.6638 34.8302C30.9477 35.6178 30.5455 36.6861 30.5455 37.8V51.8C30.5455 52.9139 30.9477 53.9822 31.6638 54.7698C32.3798 55.5575 33.351 56 34.3636 56H52.1818C53.1945 56 54.1656 55.5575 54.8817 54.7698C55.5977 53.9822 56 52.9139 56 51.8V37.8C56 36.6861 55.5977 35.6178 54.8817 34.8302C54.1656 34.0425 53.1945 33.6 52.1818 33.6ZM53.4545 51.8C53.4545 52.1713 53.3205 52.5274 53.0818 52.79C52.8431 53.0525 52.5194 53.2 52.1818 53.2H34.3636C34.0261 53.2 33.7024 53.0525 33.4637 52.79C33.225 52.5274 33.0909 52.1713 33.0909 51.8V37.8C33.0909 37.4287 33.225 37.0726 33.4637 36.81C33.7024 36.5475 34.0261 36.4 34.3636 36.4H52.1818C52.5194 36.4 52.8431 36.5475 53.0818 36.81C53.3205 37.0726 53.4545 37.4287 53.4545 37.8V51.8ZM47.6636 43.554L40.0273 39.354C39.8335 39.2466 39.618 39.1955 39.4013 39.2055C39.1845 39.2155 38.9737 39.2862 38.7888 39.4111C38.6039 39.5359 38.451 39.7107 38.3448 39.9188C38.2386 40.1268 38.1825 40.3614 38.1818 40.6V49C38.1814 49.2379 38.2361 49.472 38.3407 49.6802C38.4454 49.8885 38.5966 50.0639 38.78 50.19C38.9825 50.3281 39.2163 50.4008 39.4545 50.4C39.6538 50.3987 39.85 50.3459 40.0273 50.246L47.6636 46.046C47.8721 45.9285 48.0471 45.75 48.1692 45.5302C48.2914 45.3103 48.356 45.0577 48.356 44.8C48.356 44.5423 48.2914 44.2897 48.1692 44.0698C48.0471 43.85 47.8721 43.6715 47.6636 43.554ZM40.7273 46.732V42.868L44.24 44.8L40.7273 46.732Z" fill="#703391"/>
</svg>
