<svg width="56" height="56" viewBox="0 0 56 56" fill="none" xmlns="http://www.w3.org/2000/svg">
<path d="M21.4813 24.816C21.0625 24.816 20.6437 24.6552 20.3243 24.3335L17.0516 21.0394C16.4125 20.3962 16.4125 19.3534 17.0516 18.7101L20.3243 15.416C20.9632 14.7728 21.9994 14.7728 22.6384 15.416C23.2775 16.0592 23.2775 17.1021 22.6384 17.7453L20.5227 19.8748L22.6383 22.0044C23.2774 22.6476 23.2774 23.6904 22.6383 24.3336C22.3189 24.6552 21.9001 24.816 21.4813 24.816Z" fill="#703391"/>
<path d="M34.5739 24.7066C34.1551 24.7066 33.7363 24.5459 33.4169 24.2241C32.7778 23.5809 32.7778 22.5381 33.4169 21.8949L35.5325 19.7654L33.4168 17.6359C32.7777 16.9927 32.7777 15.9499 33.4168 15.3066C34.0557 14.6634 35.0919 14.6634 35.7309 15.3066L39.0037 18.6008C39.6427 19.244 39.6427 20.2868 39.0037 20.93L35.7309 24.2241C35.4115 24.5459 34.9927 24.7066 34.5739 24.7066Z" fill="#703391"/>
<path d="M26.826 24.8169C26.6389 24.8169 26.4488 24.7844 26.2629 24.7158C25.4144 24.4026 24.9788 23.4564 25.2899 22.6024L27.6899 16.0141C28.0011 15.16 28.9412 14.7215 29.7896 15.0348C30.638 15.3479 31.0737 16.2941 30.7626 17.1482L28.3626 23.7364C28.1194 24.4034 27.4929 24.8169 26.826 24.8169Z" fill="#703391"/>
<path d="M40.671 56H15.329C12.3906 56 10 53.5939 10 50.6362V5.36381C10 2.40624 12.3906 0 15.329 0H40.6711C43.6095 0 46 2.40624 46 5.36381V50.6363C46 53.5939 43.6095 56 40.671 56ZM15.329 3.29412C14.1952 3.29412 13.2727 4.22262 13.2727 5.36381V50.6363C13.2727 51.7776 14.1952 52.706 15.329 52.706H40.6711C41.805 52.706 42.7274 51.7776 42.7274 50.6363V5.36381C42.7273 4.22262 41.8049 3.29412 40.671 3.29412H15.329Z" fill="#703391"/>
<path d="M44.3636 47.7668H11.6364C10.7327 47.7668 10 47.0293 10 46.1197C10 45.2101 10.7327 44.4727 11.6364 44.4727H44.3636C45.2673 44.4727 46 45.2101 46 46.1197C46 47.0293 45.2673 47.7668 44.3636 47.7668Z" fill="#703391"/>
<path d="M31.2717 9.88396H24.7262C23.8225 9.88396 23.0898 9.14652 23.0898 8.2369C23.0898 7.32729 23.8225 6.58984 24.7262 6.58984H31.2717C32.1754 6.58984 32.908 7.32729 32.908 8.2369C32.908 9.14652 32.1754 9.88396 31.2717 9.88396Z" fill="#703391"/>
<path d="M37.8171 34.5871H24.7262C23.8225 34.5871 23.0898 33.8496 23.0898 32.94C23.0898 32.0304 23.8225 31.293 24.7262 31.293H37.8171C38.7208 31.293 39.4535 32.0304 39.4535 32.94C39.4535 33.8496 38.7208 34.5871 37.8171 34.5871Z" fill="#703391"/>
<path d="M18.1832 34.5877C18.1298 34.5877 18.0752 34.5854 18.0218 34.5801C17.9694 34.5746 17.916 34.5658 17.8636 34.5559C17.8112 34.5448 17.7589 34.5317 17.7087 34.5164C17.6574 34.5 17.6061 34.4823 17.5571 34.4615C17.508 34.4407 17.46 34.4177 17.4131 34.3923C17.3651 34.3671 17.3192 34.3397 17.2745 34.3099C17.2309 34.2803 17.1872 34.2485 17.1458 34.2144C17.1043 34.1804 17.064 34.1431 17.0258 34.1057C16.7214 33.7983 16.5469 33.3744 16.5469 32.9407C16.5469 32.8869 16.5491 32.832 16.5545 32.7782C16.56 32.7256 16.5687 32.6717 16.5785 32.619C16.5894 32.5664 16.6025 32.5136 16.6178 32.4619C16.6341 32.4114 16.6516 32.3598 16.6723 32.3104C16.6931 32.261 16.716 32.2116 16.7411 32.1655C16.7661 32.1173 16.7934 32.0712 16.8229 32.026C16.8523 31.9821 16.884 31.9382 16.9178 31.8964C16.9516 31.8546 16.9887 31.8141 17.0258 31.7756C17.064 31.7382 17.1043 31.7009 17.1458 31.6668C17.1872 31.6328 17.2309 31.601 17.2745 31.5714C17.3192 31.5417 17.3651 31.5132 17.412 31.4879C17.4589 31.4637 17.508 31.4397 17.5571 31.4198C17.6061 31.399 17.6574 31.3804 17.7076 31.3649C17.7589 31.3495 17.8112 31.3363 17.8636 31.3255C17.916 31.3144 17.9694 31.3068 18.0218 31.3012C18.1287 31.2902 18.2378 31.2902 18.3447 31.3012C18.3971 31.3068 18.4505 31.3144 18.5029 31.3255C18.5552 31.3365 18.6076 31.3496 18.6589 31.3649C18.7091 31.3804 18.7603 31.399 18.8094 31.4198C18.8585 31.4397 18.9065 31.4637 18.9534 31.4879C19.0014 31.5131 19.0472 31.5417 19.092 31.5714C19.1356 31.6011 19.1792 31.6329 19.2207 31.6668C19.2621 31.701 19.3025 31.7382 19.3407 31.7756C19.3778 31.8141 19.4149 31.8546 19.4487 31.8964C19.4825 31.9382 19.5141 31.982 19.5436 32.026C19.5731 32.071 19.6003 32.1172 19.6254 32.1655C19.6505 32.2116 19.6734 32.261 19.6941 32.3104C19.7149 32.3598 19.7323 32.4114 19.7487 32.4619C19.764 32.5136 19.7771 32.5663 19.788 32.619C19.7978 32.6717 19.8065 32.7256 19.812 32.7782C19.8163 32.832 19.8196 32.8869 19.8196 32.9407C19.8196 33.3744 19.6451 33.7983 19.3407 34.1056C19.3025 34.143 19.2621 34.1804 19.2207 34.2143C19.1792 34.2485 19.1356 34.2803 19.092 34.3098C19.0472 34.3396 19.0014 34.367 18.9534 34.3922C18.9065 34.4174 18.8585 34.4405 18.8094 34.4614C18.7603 34.4822 18.7091 34.4999 18.6589 34.5163C18.6076 34.5317 18.5552 34.5448 18.5029 34.5558C18.4505 34.5657 18.3971 34.5745 18.3447 34.5799C18.2912 34.5854 18.2367 34.5877 18.1832 34.5877Z" fill="#703391"/>
<path d="M37.8171 41.1769H24.7262C23.8225 41.1769 23.0898 40.4395 23.0898 39.5299C23.0898 38.6203 23.8225 37.8828 24.7262 37.8828H37.8171C38.7208 37.8828 39.4535 38.6203 39.4535 39.5299C39.4535 40.4395 38.7208 41.1769 37.8171 41.1769Z" fill="#703391"/>
<path d="M18.1832 41.177C18.1298 41.177 18.0763 41.1747 18.0229 41.1694C17.9694 41.1639 17.916 41.1551 17.8636 41.1452C17.8112 41.1341 17.7589 41.121 17.7087 41.1057C17.6574 41.0893 17.6061 41.0716 17.5571 41.0508C17.508 41.03 17.46 41.007 17.4131 40.9816C17.3651 40.9564 17.3192 40.929 17.2745 40.8992C17.2309 40.8696 17.1872 40.8366 17.1458 40.8037C17.1043 40.7687 17.064 40.7324 17.0258 40.6939C16.9887 40.6566 16.9516 40.6159 16.9178 40.5742C16.884 40.5325 16.8523 40.4886 16.8229 40.4446C16.7934 40.3996 16.7661 40.3535 16.7411 40.3051C16.716 40.2579 16.6931 40.2096 16.6723 40.1603C16.6516 40.1108 16.6341 40.0591 16.6178 40.0086C16.6025 39.957 16.5894 39.9044 16.5785 39.8516C16.5687 39.799 16.56 39.7451 16.5545 39.6924C16.5491 39.6387 16.5469 39.5838 16.5469 39.53C16.5469 39.4762 16.5491 39.4213 16.5545 39.3675C16.56 39.3149 16.5687 39.261 16.5785 39.2083C16.5894 39.1557 16.6025 39.1028 16.6178 39.0512C16.6341 39.0007 16.6516 38.9491 16.6723 38.8997C16.6931 38.8503 16.716 38.8009 16.7411 38.7537C16.7661 38.7065 16.7934 38.6603 16.8229 38.6153C16.8523 38.5703 16.884 38.5275 16.9178 38.4857C16.9516 38.4439 16.9887 38.4034 17.0258 38.3649C17.3301 38.0585 17.7523 37.8828 18.1832 37.8828C18.6141 37.8828 19.0363 38.0585 19.3407 38.3649C19.3778 38.4034 19.4149 38.4439 19.4487 38.4857C19.4825 38.5275 19.5141 38.5703 19.5436 38.6153C19.5731 38.6603 19.6003 38.7065 19.6254 38.7537C19.6505 38.8009 19.6734 38.8503 19.6941 38.8997C19.7149 38.9491 19.7323 39.0007 19.7487 39.0512C19.764 39.1028 19.7771 39.1556 19.788 39.2083C19.7978 39.261 19.8065 39.3149 19.812 39.3675C19.8174 39.4213 19.8196 39.4762 19.8196 39.53C19.8196 39.5838 19.8174 39.6387 19.812 39.6924C19.8065 39.7451 19.7978 39.799 19.788 39.8516C19.7771 39.9043 19.764 39.957 19.7487 40.0086C19.7323 40.0591 19.7149 40.1108 19.6941 40.1603C19.6734 40.2096 19.6505 40.258 19.6254 40.3051C19.6003 40.3534 19.5731 40.3995 19.5436 40.4446C19.5141 40.4885 19.4825 40.5325 19.4487 40.5742C19.4149 40.6159 19.3778 40.6566 19.3407 40.6939C19.3025 40.7324 19.2621 40.7687 19.2207 40.8037C19.1792 40.8366 19.1356 40.8697 19.092 40.8992C19.0472 40.929 19.0014 40.9564 18.9534 40.9816C18.9065 41.0068 18.8585 41.0299 18.8094 41.0508C18.7603 41.0716 18.7091 41.0893 18.6578 41.1057C18.6076 41.1212 18.5552 41.1342 18.5029 41.1452C18.4505 41.1551 18.3971 41.1639 18.3447 41.1694C18.2912 41.1747 18.2367 41.177 18.1832 41.177Z" fill="#703391"/>
</svg>
