<svg width="56" height="56" viewBox="0 0 56 56" fill="none" xmlns="http://www.w3.org/2000/svg">
<g clip-path="url(#clip0_2490_332)">
<path d="M13.3399 0.999999C13.9647 1.284 14.0276 1.51793 14.3945 2.16015C14.3945 2.89105 14.3945 3.62195 14.3945 4.375C16.6568 4.375 18.9192 4.375 21.25 4.375C21.25 3.67891 21.25 2.98281 21.25 2.26562C21.7651 1.23546 21.7651 1.23546 22.3047 0.999999C22.8225 0.933749 23.2873 0.928224 23.7747 1.12524C24.0845 1.39753 24.3345 1.68464 24.5195 2.05469C24.5195 2.82039 24.5195 3.58609 24.5195 4.375C26.8167 4.375 29.1138 4.375 31.4805 4.375C31.4805 3.6093 31.4805 2.84359 31.4805 2.05469C32.0832 1.15067 32.0832 1.15067 32.5352 0.999999C33.0823 0.947606 33.5496 0.936397 34.0579 1.1582C34.3281 1.42187 34.3281 1.42187 34.75 2.26562C34.75 2.96172 34.75 3.65781 34.75 4.375C37.0123 4.375 39.2746 4.375 41.6055 4.375C41.6055 3.6441 41.6055 2.9132 41.6055 2.16015C41.9014 1.56833 42.0829 1.28861 42.6602 0.999999C43.2204 0.944163 43.6803 0.930006 44.1895 1.18457C44.5333 1.494 44.7285 1.72065 44.875 2.16015C44.8836 2.33177 44.8864 2.50372 44.8853 2.67555C44.885 2.77446 44.8846 2.87337 44.8843 2.97527C44.8834 3.07826 44.8825 3.18124 44.8816 3.28735C44.8811 3.39156 44.8807 3.49577 44.8802 3.60314C44.8789 3.86043 44.8772 4.11771 44.875 4.375C44.9394 4.37406 45.0037 4.37313 45.07 4.37216C45.7459 4.36275 46.4218 4.35643 47.0978 4.35182C47.3493 4.34972 47.6009 4.34685 47.8524 4.34317C50.1155 4.31096 51.7728 4.51091 53.4893 6.11688C54.4463 7.13989 55.012 8.42603 55.0142 9.82454C55.0144 9.89418 55.0147 9.96383 55.0149 10.0356C55.0156 10.2693 55.0156 10.5031 55.0155 10.7368C55.0159 10.906 55.0163 11.0751 55.0167 11.2443C55.0178 11.7094 55.0182 12.1745 55.0184 12.6397C55.0189 13.1412 55.0199 13.6428 55.0208 14.1444C55.0229 15.3558 55.0239 16.5673 55.0249 17.7787C55.0253 18.3494 55.0259 18.92 55.0265 19.4907C55.0282 21.388 55.0298 23.2852 55.0305 25.1825C55.0307 25.6748 55.0309 26.1671 55.0311 26.6594C55.0312 26.7817 55.0312 26.9041 55.0313 27.0302C55.0322 29.0118 55.0348 30.9935 55.0383 32.9752C55.0418 35.0102 55.0437 37.0452 55.044 39.0803C55.0442 40.2227 55.0451 41.365 55.0478 42.5074C55.0501 43.4804 55.051 44.4534 55.05 45.4264C55.0495 45.9226 55.0497 46.4187 55.0517 46.9149C55.0536 47.3698 55.0535 47.8247 55.0518 48.2796C55.0516 48.4435 55.052 48.6074 55.0533 48.7713C55.0668 50.6539 54.5493 52.1092 53.2581 53.4892C52.2131 54.4669 50.9215 55.0122 49.4978 55.0142C49.3848 55.0145 49.3848 55.0145 49.2695 55.0149C49.0163 55.0156 48.7632 55.0156 48.51 55.0155C48.327 55.0159 48.1439 55.0163 47.9608 55.0167C47.4572 55.0178 46.9536 55.0181 46.45 55.0184C45.907 55.0188 45.3641 55.0198 44.8211 55.0208C43.5095 55.0229 42.198 55.0239 40.8864 55.0249C40.2687 55.0253 39.6509 55.0259 39.0332 55.0264C36.9796 55.0282 34.926 55.0298 32.8724 55.0305C32.3395 55.0307 31.8066 55.0309 31.2737 55.0311C31.1412 55.0312 31.0088 55.0312 30.8723 55.0313C28.727 55.0322 26.5816 55.0348 24.4363 55.0383C22.2334 55.0417 20.0306 55.0436 17.8277 55.044C16.591 55.0442 15.3543 55.0451 14.1176 55.0478C13.0643 55.0501 12.0111 55.051 10.9578 55.0499C10.4206 55.0495 9.88344 55.0497 9.34626 55.0517C8.85387 55.0536 8.36152 55.0535 7.86913 55.0518C7.69161 55.0516 7.51409 55.052 7.33658 55.0533C5.41837 55.066 3.92808 54.5842 2.51077 53.2581C1.59749 52.2819 0.987892 51.0087 0.985857 49.6673C0.985609 49.5976 0.985361 49.5279 0.985106 49.456C0.984401 49.2215 0.984449 48.9869 0.984492 48.7523C0.984144 48.5828 0.983751 48.4133 0.983317 48.2438C0.98226 47.7773 0.981868 47.3107 0.981588 46.8441C0.981176 46.3412 0.980166 45.8383 0.979246 45.3353C0.977161 44.1202 0.976099 42.9051 0.975161 41.69C0.974699 41.1177 0.974132 40.5455 0.97358 39.9732C0.971785 38.0706 0.970257 36.168 0.969493 34.2654C0.969292 33.7716 0.969089 33.2778 0.968883 32.784C0.968832 32.6612 0.968781 32.5385 0.968729 32.4121C0.967853 30.4246 0.965182 28.4371 0.961755 26.4497C0.958266 24.4089 0.956368 22.3682 0.956031 20.3274C0.955803 19.1817 0.954882 18.036 0.952186 16.8903C0.949894 15.9144 0.949048 14.9385 0.950072 13.9626C0.950551 13.465 0.950355 12.9673 0.948305 12.4697C0.946441 12.0134 0.946553 11.5571 0.948188 11.1009C0.948438 10.9365 0.947986 10.7721 0.94673 10.6077C0.933234 8.72394 1.4487 7.26604 2.74231 5.88576C3.67866 5.00839 4.98666 4.3598 6.28777 4.36303C6.39543 4.36303 6.50308 4.36304 6.614 4.36305C6.72948 4.36359 6.84496 4.36414 6.96394 4.3647C7.14213 4.36492 7.14213 4.36492 7.32392 4.36515C7.70326 4.36574 8.08259 4.36707 8.46193 4.36841C8.71914 4.36894 8.97636 4.36942 9.23358 4.36985C9.86406 4.37101 10.4945 4.37278 11.125 4.375C11.1234 4.31122 11.1217 4.24744 11.12 4.18173C11.1134 3.8902 11.1093 3.5987 11.1052 3.30713C11.1026 3.20679 11.0999 3.10646 11.0972 3.00308C11.0912 2.42995 11.1122 2.01965 11.4414 1.52734C12.0568 0.972021 12.5263 0.919445 13.3399 0.999999ZM4.74415 8.59375C3.62726 10.2769 4.16408 12.6908 4.16408 14.5C19.8958 14.5 35.6275 14.5 51.836 14.5C52.1448 11.2641 52.1448 11.2641 50.9922 8.27734C50.4793 7.87113 50.0025 7.63078 49.3411 7.63256C49.2419 7.63256 49.1426 7.63257 49.0404 7.63258C48.8802 7.6334 48.8802 7.6334 48.7168 7.63423C48.5524 7.63445 48.5524 7.63445 48.3847 7.63468C48.0344 7.63527 47.6841 7.6366 47.3338 7.63794C47.0964 7.63847 46.859 7.63895 46.6216 7.63938C46.0394 7.64054 45.4572 7.64231 44.875 7.64453C44.8735 7.7402 44.8735 7.7402 44.872 7.8378C44.8663 8.12942 44.8575 8.42086 44.8486 8.7124C44.8472 8.81274 44.8457 8.91307 44.8441 9.01645C44.818 9.76754 44.6836 10.1313 44.1697 10.6833C43.6407 10.955 43.1377 10.9616 42.5745 10.7954C42.1149 10.5251 41.8794 10.2592 41.711 9.75391C41.6761 9.05781 41.6413 8.36172 41.6055 7.64453C39.3432 7.64453 37.0809 7.64453 34.75 7.64453C34.7152 8.30582 34.6804 8.96711 34.6445 9.64844C34.255 10.5573 34.255 10.5573 33.8008 10.8086C33.1625 10.9781 32.6692 10.946 32.0807 10.65C31.9024 10.4922 31.9024 10.4922 31.586 9.85937C31.5511 9.12848 31.5163 8.39758 31.4805 7.64453C29.1834 7.64453 26.8863 7.64453 24.5195 7.64453C24.4847 8.37543 24.4499 9.10633 24.4141 9.85937C24.039 10.6094 24.039 10.6094 23.4986 10.8477C22.9292 11.0021 22.4005 10.9199 21.8894 10.6372C21.1138 9.74408 21.3129 8.83916 21.25 7.64453C18.9877 7.64453 16.7254 7.64453 14.3945 7.64453C14.3597 8.34062 14.3249 9.03672 14.2891 9.75391C13.8892 10.5536 13.8892 10.5536 13.4453 10.8086C12.9415 10.9316 12.5294 10.9603 12.0347 10.7954C11.6734 10.5373 11.429 10.2565 11.2305 9.85937C11.2145 9.6914 11.2042 9.52286 11.1971 9.35428C11.1927 9.25503 11.1883 9.15578 11.1837 9.05353C11.1796 8.94966 11.1754 8.84579 11.1712 8.73877C11.1666 8.63408 11.162 8.5294 11.1574 8.42154C11.1461 8.16255 11.1354 7.90355 11.125 7.64453C10.4384 7.63108 9.7518 7.62189 9.06508 7.61556C8.83184 7.61292 8.59862 7.60933 8.36542 7.60475C8.0287 7.5983 7.6921 7.59535 7.35533 7.59303C7.20085 7.58895 7.20085 7.58895 7.04325 7.58478C6.1138 7.58441 5.33439 7.84929 4.74415 8.59375ZM4.16408 17.7695C4.15973 22.9359 4.15538 28.1022 4.15089 33.425C4.14897 35.0573 4.14705 36.6895 4.14507 38.3711C4.14437 39.8323 4.14437 39.8323 4.14394 41.2934C4.14375 41.945 4.14297 42.5966 4.14181 43.2481C4.14046 43.9997 4.13985 44.7513 4.14015 45.5028C4.14027 45.8873 4.14007 46.2717 4.13893 46.6561C4.13771 47.068 4.13813 47.4799 4.13871 47.8919C4.1381 48.0114 4.13748 48.1309 4.13685 48.254C4.14099 49.3539 4.2639 50.2482 5.00783 51.0977C6.00029 51.9564 7.2818 51.8665 8.51816 51.8627C8.69319 51.863 8.86822 51.8633 9.04325 51.8637C9.52268 51.8646 10.0021 51.8642 10.4815 51.8635C10.9992 51.863 11.5168 51.8638 12.0345 51.8643C13.0479 51.8653 14.0614 51.8651 15.0749 51.8645C15.8986 51.864 16.7223 51.8639 17.546 51.8642C17.6633 51.8642 17.7806 51.8642 17.9014 51.8643C18.1396 51.8643 18.3778 51.8644 18.6161 51.8645C20.8496 51.8651 23.0831 51.8644 25.3167 51.8632C27.2329 51.8623 29.149 51.8625 31.0652 51.8634C33.2908 51.8646 35.5164 51.865 37.742 51.8644C37.9793 51.8643 38.2167 51.8642 38.454 51.8642C38.6292 51.8641 38.6292 51.8641 38.8079 51.8641C39.6306 51.8639 40.4532 51.8642 41.2759 51.8647C42.2785 51.8653 43.2812 51.8651 44.2838 51.864C44.7953 51.8634 45.3068 51.8632 45.8183 51.8639C46.2867 51.8645 46.7551 51.8642 47.2235 51.8631C47.3927 51.8628 47.562 51.863 47.7312 51.8635C48.9925 51.867 50.1041 51.8623 51.0977 50.9922C51.865 50.1053 51.8671 49.0116 51.8613 47.8919C51.8615 47.763 51.8617 47.6342 51.8619 47.5014C51.8622 47.1454 51.8615 46.7893 51.8604 46.4333C51.8595 46.0428 51.8598 45.6524 51.86 45.2619C51.8601 44.5048 51.8591 43.7476 51.8578 42.9905C51.8562 42.1143 51.8561 41.2381 51.8559 40.3619C51.8548 38.0496 51.8519 35.7373 51.8491 33.425C51.8448 28.2587 51.8404 23.0924 51.836 17.7695C36.1042 17.7695 20.3725 17.7695 4.16408 17.7695Z" fill="#703391"/>
<path d="M24.9261 36.526C24.9992 36.5255 25.0723 36.5249 25.1476 36.5244C25.3894 36.5228 25.6311 36.5221 25.8729 36.5215C26.0412 36.5209 26.2095 36.5203 26.3778 36.5197C26.7307 36.5186 27.0837 36.518 27.4366 36.5176C27.8881 36.5171 28.3395 36.5145 28.791 36.5115C29.1387 36.5096 29.4864 36.509 29.8342 36.5088C30.0005 36.5085 30.1669 36.5077 30.3333 36.5063C30.5666 36.5045 30.7997 36.5047 31.033 36.5054C31.1655 36.505 31.2981 36.5046 31.4346 36.5042C31.8996 36.554 32.2528 36.7018 32.6031 37.0139C33.0405 37.5653 33.0755 37.9248 33.0795 38.6183C33.0803 38.7231 33.0803 38.7231 33.0811 38.83C33.0826 39.0604 33.0833 39.2908 33.0839 39.5212C33.0845 39.682 33.0851 39.8428 33.0857 40.0036C33.0869 40.3406 33.0875 40.6776 33.0878 41.0146C33.0884 41.4451 33.091 41.8756 33.094 42.3061C33.0959 42.6382 33.0965 42.9704 33.0966 43.3026C33.0969 43.4612 33.0978 43.6199 33.0992 43.7785C33.101 44.0011 33.1008 44.2236 33.1001 44.4463C33.1007 44.6358 33.1007 44.6358 33.1013 44.8292C33.0493 45.3146 32.9136 45.7395 32.5842 46.1134C32.0596 46.5025 31.8264 46.5762 31.172 46.5812C31.0593 46.5822 31.0593 46.5822 30.9443 46.5833C30.6951 46.5854 30.4459 46.5866 30.1967 46.5876C30.1116 46.5881 30.0265 46.5885 29.9388 46.5889C29.4881 46.5911 29.0374 46.5926 28.5867 46.5936C28.1216 46.5948 27.6566 46.5984 27.1915 46.6026C26.8336 46.6054 26.4756 46.6063 26.1177 46.6066C25.9463 46.6071 25.7749 46.6084 25.6035 46.6103C25.3632 46.6129 25.123 46.6128 24.8826 46.6121C24.746 46.6127 24.6094 46.6133 24.4686 46.6139C23.9144 46.5371 23.5943 46.2806 23.2209 45.877C22.9154 45.4243 22.9236 45.0269 22.9205 44.4872C22.92 44.4173 22.9195 44.3475 22.9189 44.2755C22.9174 44.0451 22.9167 43.8147 22.9161 43.5842C22.9155 43.4235 22.9149 43.2627 22.9143 43.1019C22.9131 42.7649 22.9125 42.4279 22.9122 42.0909C22.9116 41.6604 22.9091 41.2299 22.9061 40.7994C22.9041 40.4672 22.9035 40.1351 22.9034 39.8029C22.9031 39.6443 22.9022 39.4856 22.9008 39.327C22.899 39.1044 22.8992 38.8818 22.8999 38.6592C22.8995 38.5329 22.8991 38.4065 22.8987 38.2763C22.9506 37.7913 23.0876 37.369 23.4121 36.992C23.9396 36.5937 24.2734 36.5295 24.9261 36.526ZM26.207 39.8125C26.207 40.9611 26.207 42.1096 26.207 43.293C27.3904 43.293 28.5738 43.293 29.793 43.293C29.793 42.1444 29.793 40.9959 29.793 39.8125C28.6096 39.8125 27.4263 39.8125 26.207 39.8125Z" fill="#703391"/>
<path d="M39.462 22.9205C39.5668 22.9197 39.5668 22.9197 39.6737 22.9189C39.9041 22.9174 40.1345 22.9167 40.365 22.9161C40.5258 22.9155 40.6866 22.9149 40.8473 22.9143C41.1843 22.9131 41.5213 22.9125 41.8583 22.9122C42.2888 22.9116 42.7193 22.9091 43.1498 22.9061C43.482 22.9041 43.8142 22.9035 44.1463 22.9034C44.305 22.9031 44.4636 22.9022 44.6223 22.9008C44.8449 22.899 45.0674 22.8992 45.29 22.8999C45.4164 22.8995 45.5427 22.8991 45.6729 22.8987C46.1584 22.9507 46.5833 23.0864 46.9572 23.4158C47.3463 23.9404 47.4199 24.1736 47.4249 24.828C47.4256 24.9031 47.4263 24.9783 47.427 25.0557C47.4291 25.3049 47.4303 25.5541 47.4314 25.8033C47.4318 25.8884 47.4322 25.9735 47.4327 26.0612C47.4349 26.5119 47.4364 26.9626 47.4374 27.4133C47.4385 27.8784 47.4422 28.3434 47.4464 28.8085C47.4491 29.1664 47.45 29.5244 47.4504 29.8823C47.4509 30.0537 47.4521 30.2251 47.4541 30.3965C47.4567 30.6368 47.4565 30.877 47.4558 31.1174C47.4564 31.254 47.4571 31.3906 47.4577 31.5314C47.3808 32.0856 47.1244 32.4057 46.7207 32.7791C46.268 33.0846 45.8706 33.0764 45.3309 33.0795C45.2611 33.08 45.1912 33.0805 45.1193 33.0811C44.8888 33.0826 44.6584 33.0833 44.428 33.0839C44.2672 33.0845 44.1064 33.0851 43.9456 33.0857C43.6086 33.0869 43.2717 33.0875 42.9347 33.0878C42.5041 33.0884 42.0737 33.091 41.6431 33.094C41.311 33.0959 40.9788 33.0965 40.6466 33.0966C40.488 33.0969 40.3294 33.0978 40.1707 33.0992C39.9481 33.101 39.7256 33.1008 39.503 33.1001C39.3134 33.1007 39.3134 33.1007 39.12 33.1013C38.635 33.0494 38.2127 32.9124 37.8358 32.5879C37.4374 32.0604 37.3733 31.7266 37.3697 31.0739C37.3692 31.0008 37.3687 30.9277 37.3681 30.8524C37.3666 30.6106 37.3659 30.3689 37.3653 30.1271C37.3647 29.9588 37.3641 29.7905 37.3635 29.6222C37.3624 29.2693 37.3618 28.9163 37.3614 28.5634C37.3608 28.1119 37.3583 27.6605 37.3553 27.209C37.3533 26.8613 37.3528 26.5136 37.3526 26.1659C37.3523 25.9995 37.3514 25.8331 37.35 25.6667C37.3482 25.4334 37.3484 25.2003 37.3491 24.967C37.3487 24.8345 37.3484 24.7019 37.348 24.5654C37.3977 24.1004 37.5455 23.7472 37.8576 23.3969C38.4091 22.9595 38.7685 22.9245 39.462 22.9205ZM40.6563 26.207C40.6563 27.3904 40.6563 28.5738 40.6563 29.793C41.8048 29.793 42.9534 29.793 44.1367 29.793C44.1367 28.6096 44.1367 27.4263 44.1367 26.207C42.9882 26.207 41.8396 26.207 40.6563 26.207Z" fill="#703391"/>
<path d="M10.669 22.9205C10.7738 22.9197 10.7738 22.9197 10.8807 22.9189C11.1112 22.9174 11.3416 22.9167 11.572 22.9161C11.7328 22.9155 11.8936 22.9149 12.0544 22.9143C12.3913 22.9131 12.7283 22.9125 13.0653 22.9122C13.4958 22.9116 13.9263 22.9091 14.3569 22.9061C14.689 22.9041 15.0212 22.9035 15.3533 22.9034C15.512 22.9031 15.6706 22.9022 15.8293 22.9008C16.0519 22.899 16.2744 22.8992 16.497 22.8999C16.6234 22.8995 16.7498 22.8991 16.88 22.8987C17.365 22.9506 17.7873 23.0876 18.1642 23.4121C18.5626 23.9396 18.6267 24.2734 18.6303 24.9261C18.6311 25.0357 18.6311 25.0357 18.6319 25.1476C18.6334 25.3894 18.6341 25.6311 18.6347 25.8729C18.6353 26.0412 18.6359 26.2095 18.6365 26.3778C18.6376 26.7307 18.6382 27.0837 18.6386 27.4366C18.6392 27.8881 18.6417 28.3395 18.6447 28.791C18.6467 29.1387 18.6472 29.4864 18.6474 29.8342C18.6477 30.0005 18.6486 30.1669 18.6499 30.3333C18.6518 30.5666 18.6515 30.7997 18.6509 31.033C18.6514 31.2318 18.6514 31.2318 18.652 31.4346C18.6023 31.8996 18.4545 32.2528 18.1424 32.6031C17.5909 33.0405 17.2314 33.0755 16.538 33.0795C16.4681 33.08 16.3982 33.0805 16.3263 33.0811C16.0959 33.0826 15.8654 33.0833 15.635 33.0839C15.4742 33.0845 15.3134 33.0851 15.1526 33.0857C14.8157 33.0869 14.4787 33.0875 14.1417 33.0878C13.7112 33.0884 13.2807 33.091 12.8502 33.094C12.518 33.0959 12.1858 33.0965 11.8537 33.0966C11.695 33.0969 11.5364 33.0978 11.3777 33.0992C11.1551 33.101 10.9326 33.1008 10.71 33.1001C10.5204 33.1007 10.5204 33.1007 10.3271 33.1013C9.8416 33.0493 9.4167 32.9136 9.04281 32.5842C8.6537 32.0596 8.58006 31.8264 8.57507 31.172C8.57438 31.0969 8.57369 31.0217 8.57297 30.9443C8.57089 30.6951 8.56966 30.4459 8.56861 30.1967C8.56818 30.1116 8.56775 30.0265 8.56731 29.9388C8.5651 29.4881 8.5636 29.0374 8.56261 28.5867C8.56144 28.1216 8.55782 27.6566 8.55363 27.1915C8.55086 26.8336 8.54998 26.4756 8.54961 26.1177C8.54909 25.9463 8.54787 25.7749 8.54591 25.6035C8.54334 25.3632 8.54344 25.123 8.54417 24.8826C8.54355 24.746 8.54293 24.6094 8.5423 24.4686C8.61916 23.9144 8.87564 23.5943 9.27929 23.2209C9.73199 22.9154 10.1294 22.9236 10.669 22.9205ZM11.8633 26.207C11.8633 27.3904 11.8633 28.5738 11.8633 29.793C13.0118 29.793 14.1604 29.793 15.3437 29.793C15.3437 28.6096 15.3437 27.4263 15.3437 26.207C14.1952 26.207 13.0466 26.207 11.8633 26.207Z" fill="#703391"/>
<path d="M39.3274 36.4901C39.4016 36.4895 39.4758 36.4889 39.5522 36.4883C39.7952 36.487 40.038 36.4887 40.2809 36.4906C40.451 36.4906 40.621 36.4905 40.7911 36.4902C41.1465 36.49 41.5019 36.4914 41.8573 36.4938C42.3118 36.4968 42.7663 36.4965 43.2208 36.4951C43.5716 36.4944 43.9224 36.4952 44.2732 36.4965C44.4407 36.497 44.6083 36.497 44.7759 36.4966C45.0104 36.4963 45.2447 36.4981 45.4792 36.5004C45.6789 36.5012 45.6789 36.5012 45.8827 36.5021C46.4161 36.5621 46.7593 36.7301 47.1228 37.123C47.4217 37.5658 47.4204 37.9123 47.4232 38.4358C47.424 38.547 47.424 38.547 47.4248 38.6604C47.4264 38.9056 47.4271 39.1508 47.4277 39.396C47.4283 39.5666 47.4289 39.7373 47.4295 39.9079C47.4306 40.2659 47.4312 40.6238 47.4316 40.9817C47.4322 41.4395 47.4347 41.8974 47.4377 42.3552C47.4397 42.7078 47.4402 43.0604 47.4404 43.413C47.4407 43.5818 47.4415 43.7505 47.4429 43.9192C47.4447 44.1558 47.4445 44.3922 47.4438 44.6288C47.4444 44.8304 47.4444 44.8304 47.445 45.0361C47.3883 45.5721 47.2206 45.9142 46.8262 46.2791C46.3834 46.5779 46.0369 46.5767 45.5134 46.5795C45.4023 46.5803 45.4023 46.5803 45.2888 46.5811C45.0436 46.5826 44.7984 46.5833 44.5532 46.5839C44.3826 46.5845 44.2119 46.5851 44.0413 46.5857C43.6834 46.5869 43.3254 46.5875 42.9675 46.5878C42.5097 46.5884 42.0518 46.5909 41.594 46.594C41.2414 46.5959 40.8888 46.5965 40.5362 46.5966C40.3674 46.5969 40.1987 46.5978 40.03 46.5992C39.7934 46.601 39.557 46.6008 39.3204 46.6001C39.1188 46.6007 39.1188 46.6007 38.9131 46.6013C38.3771 46.5445 38.035 46.3769 37.6702 45.9824C37.3719 45.5406 37.3721 45.1937 37.368 44.6714C37.3673 44.5974 37.3667 44.5235 37.3659 44.4473C37.3639 44.2026 37.3626 43.9579 37.3616 43.7132C37.3611 43.6295 37.3607 43.5457 37.3603 43.4595C37.3581 43.0162 37.3566 42.5729 37.3556 42.1296C37.3544 41.6727 37.3508 41.2158 37.3466 40.7589C37.3438 40.4068 37.343 40.0546 37.3426 39.7025C37.3421 39.5341 37.3408 39.3657 37.3389 39.1974C37.3363 38.9611 37.3364 38.725 37.3371 38.4887C37.3365 38.3545 37.3359 38.2203 37.3353 38.0821C37.4063 37.559 37.5622 37.1712 37.9733 36.8268C38.4176 36.5442 38.7979 36.4901 39.3274 36.4901ZM40.6562 39.8125C40.6562 40.9611 40.6562 42.1096 40.6562 43.293C41.8048 43.293 42.9533 43.293 44.1367 43.293C44.1367 42.1444 44.1367 40.9959 44.1367 39.8125C42.9882 39.8125 41.8396 39.8125 40.6562 39.8125Z" fill="#703391"/>
<path d="M10.4849 36.5243C10.5958 36.5233 10.5958 36.5233 10.709 36.5222C10.9537 36.5201 11.1984 36.5189 11.4431 36.5178C11.5268 36.5174 11.6105 36.517 11.6968 36.5165C12.1401 36.5143 12.5834 36.5128 13.0267 36.5118C13.4836 36.5107 13.9404 36.507 14.3973 36.5029C14.7495 36.5001 15.1016 36.4992 15.4538 36.4988C15.6222 36.4983 15.7905 36.4971 15.9589 36.4951C16.1951 36.4926 16.4313 36.4927 16.6676 36.4934C16.8018 36.4928 16.9359 36.4922 17.0742 36.4915C17.5972 36.5625 17.9851 36.7184 18.3294 37.1297C18.6113 37.5731 18.6665 37.9535 18.6679 38.482C18.6686 38.556 18.6693 38.63 18.6701 38.7063C18.672 38.9487 18.6707 39.191 18.6693 39.4335C18.6696 39.6033 18.67 39.7731 18.6705 39.9429C18.6712 40.2978 18.6703 40.6528 18.6683 41.0077C18.6659 41.4613 18.6673 41.9148 18.6698 42.3684C18.6713 42.7188 18.6708 43.0691 18.6697 43.4194C18.6695 43.5866 18.6698 43.7538 18.6708 43.921C18.6719 44.1552 18.6702 44.3893 18.6679 44.6235C18.6675 44.7564 18.6672 44.8893 18.6669 45.0262C18.5927 45.5466 18.4361 45.9356 18.0267 46.2787C17.5824 46.5612 17.2021 46.6153 16.6726 46.6154C16.5984 46.616 16.5242 46.6166 16.4478 46.6171C16.2048 46.6185 15.962 46.6167 15.7191 46.6148C15.549 46.6148 15.379 46.615 15.2089 46.6153C14.8535 46.6154 14.4981 46.6141 14.1427 46.6117C13.6882 46.6087 13.2337 46.609 12.7792 46.6103C12.4284 46.6111 12.0776 46.6103 11.7268 46.609C11.5592 46.6085 11.3917 46.6084 11.2241 46.6089C10.9896 46.6092 10.7553 46.6074 10.5208 46.6051C10.3211 46.6043 10.3211 46.6043 10.1173 46.6034C9.58391 46.5434 9.24071 46.3754 8.8772 45.9824C8.57833 45.5397 8.57957 45.1931 8.57676 44.6697C8.57623 44.5956 8.57571 44.5215 8.57517 44.4451C8.57363 44.1999 8.57291 43.9547 8.57233 43.7095C8.57172 43.5388 8.57111 43.3682 8.57051 43.1975C8.5694 42.8396 8.56878 42.4817 8.56841 42.1238C8.56784 41.6659 8.5653 41.2081 8.5623 40.7503C8.56033 40.3977 8.55979 40.0451 8.55963 39.6925C8.55931 39.5237 8.55846 39.355 8.55707 39.1862C8.55527 38.9497 8.55547 38.7132 8.55616 38.4767C8.55577 38.3423 8.55539 38.2079 8.55499 38.0694C8.61171 37.5334 8.77936 37.1913 9.17383 36.8264C9.61566 36.5282 9.96252 36.5284 10.4849 36.5243ZM11.8633 39.8125C11.8633 40.9611 11.8633 42.1096 11.8633 43.293C13.0118 43.293 14.1604 43.293 15.3438 43.293C15.3438 42.1444 15.3438 40.9959 15.3438 39.8125C14.1952 39.8125 13.0466 39.8125 11.8633 39.8125Z" fill="#703391"/>
<path d="M32.1133 23.9922C32.5752 24.2231 32.8931 24.5037 33.168 24.9414C33.3495 25.5707 33.2519 26.0587 32.957 26.6289C32.608 27.0666 32.2136 27.4539 31.8142 27.8447C31.6999 27.9586 31.5858 28.0726 31.4717 28.1867C31.2335 28.4244 30.9942 28.6611 30.7541 28.8969C30.4469 29.1987 30.1418 29.5026 29.8374 29.8073C29.6023 30.0423 29.3663 30.2766 29.13 30.5106C29.0173 30.6223 28.9046 30.7343 28.7922 30.8465C28.635 31.003 28.4768 31.1584 28.3183 31.3136C28.1838 31.4463 28.1838 31.4463 28.0465 31.5817C27.6622 31.9029 27.2986 32.0384 26.8003 32.0474C26.7255 32.0504 26.6507 32.0533 26.5737 32.0564C25.9215 31.935 25.4171 31.4787 24.9595 31.0244C24.9051 30.9711 24.8508 30.9177 24.7947 30.8628C24.6809 30.7505 24.5675 30.6379 24.4544 30.5248C24.2828 30.3538 24.1088 30.1856 23.9345 30.0173C23.2735 29.3671 22.7346 28.7968 22.7233 27.8237C22.8975 27.1422 23.1909 26.8115 23.7812 26.418C24.3959 26.3233 24.9785 26.3037 25.4951 26.6816C25.6306 26.8006 25.7623 26.9241 25.8906 27.0508C25.9695 27.1266 26.0483 27.2025 26.1296 27.2807C26.3347 27.4822 26.5359 27.6865 26.7344 27.8945C27.0538 27.7517 27.2723 27.5927 27.5169 27.3435C27.5852 27.2745 27.6535 27.2055 27.7239 27.1345C27.7965 27.0601 27.8691 26.9857 27.944 26.9091C28.0196 26.8326 28.0953 26.7561 28.1732 26.6774C28.4148 26.4332 28.6557 26.1884 28.8965 25.9434C29.2134 25.6209 29.531 25.299 29.849 24.9777C29.9579 24.8661 29.9579 24.8661 30.0691 24.7523C30.1374 24.6833 30.2057 24.6143 30.276 24.5432C30.3655 24.4521 30.3655 24.4521 30.4567 24.3592C30.9557 23.9266 31.4784 23.9108 32.1133 23.9922Z" fill="#703391"/>
</g>
<defs>
<clipPath id="clip0_2490_332">
<rect width="54" height="54" fill="white" transform="translate(1 1)"/>
</clipPath>
</defs>
</svg>
