<svg width="56" height="56" viewBox="0 0 56 56" fill="none" xmlns="http://www.w3.org/2000/svg">
<path d="M2.01706 9.3165C2.15584 9.31635 2.29462 9.31619 2.43761 9.31603C2.66714 9.31664 2.66714 9.31664 2.9013 9.31727C3.06345 9.3173 3.22561 9.31729 3.38776 9.31722C3.82873 9.31719 4.2697 9.31786 4.71068 9.31866C5.17124 9.31937 5.6318 9.31944 6.09236 9.31957C6.96484 9.31993 7.83732 9.32086 8.7098 9.32201C9.70294 9.32328 10.6961 9.32391 11.6892 9.32448C13.7325 9.32568 15.7758 9.32768 17.8191 9.33023C17.8411 9.4525 17.8631 9.57478 17.8858 9.70076C17.9163 9.86445 17.9467 10.0281 17.9772 10.1918C17.9987 10.3121 17.9987 10.3121 18.0207 10.4349C18.1467 11.1038 18.3621 11.6965 18.6376 12.3233C18.7661 12.6393 18.7661 12.6393 18.8845 13.2098C13.9622 13.2098 9.03982 13.2098 3.96831 13.2098C3.96831 22.5482 3.96831 31.8867 3.96831 41.5081C19.8292 41.5081 35.6901 41.5081 52.0317 41.5081C52.0317 32.1696 52.0317 22.8312 52.0317 13.2098C47.1093 13.2098 42.187 13.2098 37.1155 13.2098C37.2121 12.7441 37.3261 12.4059 37.515 11.9761C37.7579 11.3848 37.9109 10.8177 38.0228 10.1918C38.0383 10.1084 38.0538 10.0251 38.0698 9.93916C38.1075 9.7363 38.1443 9.53328 38.1809 9.33023C40.3141 9.31956 42.4473 9.31151 44.5806 9.30658C45.5711 9.30422 46.5616 9.30102 47.5521 9.29579C48.4155 9.29124 49.2789 9.2883 50.1423 9.28728C50.5994 9.28669 51.0565 9.28529 51.5136 9.28197C51.944 9.27886 52.3744 9.27792 52.8049 9.2786C53.0378 9.27842 53.2706 9.27596 53.5035 9.27344C54.7783 9.27917 54.7783 9.27917 55.3464 9.78665C55.7851 10.2667 55.9529 10.5277 55.9542 11.1622C55.9547 11.2851 55.9553 11.4079 55.9558 11.5345C55.9558 11.7386 55.9558 11.7386 55.9557 11.9468C55.9562 12.0905 55.9566 12.2342 55.9571 12.3822C55.9583 12.7824 55.9587 13.1825 55.959 13.5827C55.9595 14.0138 55.9606 14.4449 55.9616 14.876C55.964 15.9177 55.9652 16.9594 55.9662 18.0011C55.9667 18.4914 55.9674 18.9817 55.968 19.472C55.97 21.1014 55.9717 22.7308 55.9726 24.3602C55.9728 24.7831 55.973 25.2061 55.9733 25.6291C55.9733 25.7343 55.9734 25.8394 55.9734 25.9477C55.9744 27.6514 55.9774 29.355 55.9813 31.0586C55.9852 32.8068 55.9873 34.555 55.9877 36.3032C55.9879 37.2851 55.989 38.267 55.992 39.2489C55.9946 40.0851 55.9955 40.9212 55.9944 41.7573C55.9938 42.184 55.9941 42.6107 55.9964 43.0374C55.9988 43.4999 55.9976 43.9623 55.9961 44.4247C55.998 44.6273 55.998 44.6273 56 44.834C55.9941 45.5485 55.9688 45.9888 55.4648 46.5287C54.87 47.0461 54.4257 47.1161 53.6481 47.1146C53.5135 47.115 53.5135 47.115 53.3762 47.1154C53.0732 47.1161 52.7702 47.1161 52.4672 47.116C52.2487 47.1164 52.0302 47.1169 51.8117 47.1173C51.2094 47.1185 50.6072 47.1189 50.0049 47.1192C49.3561 47.1196 48.7072 47.1207 48.0584 47.1217C46.4906 47.124 44.9229 47.1251 43.3551 47.1261C42.6173 47.1266 41.8795 47.1273 41.1417 47.1278C38.69 47.1298 36.2383 47.1315 33.7866 47.1323C33.628 47.1323 33.4695 47.1324 33.3109 47.1324C33.2322 47.1325 33.1536 47.1325 33.0726 47.1325C32.6741 47.1327 32.2757 47.1328 31.8773 47.1329C31.7587 47.133 31.7587 47.133 31.6377 47.133C29.0735 47.1339 26.5094 47.1366 23.9452 47.1403C21.2348 47.1442 18.5245 47.1465 15.8141 47.1468C14.3364 47.1471 12.8587 47.1481 11.381 47.151C10.1228 47.1535 8.86462 47.1544 7.60643 47.1533C6.96425 47.1528 6.32209 47.153 5.67991 47.1552C5.09221 47.1572 4.50455 47.1571 3.91685 47.1553C3.70406 47.1551 3.49126 47.1556 3.27848 47.1569C2.98944 47.1586 2.70055 47.1575 2.41152 47.1557C2.32871 47.1569 2.2459 47.1581 2.16058 47.1593C1.5233 47.1506 1.16899 46.9784 0.653589 46.6428C0.209113 46.1693 0.0470401 45.8988 0.0457862 45.2673C0.0452585 45.1444 0.0447309 45.0216 0.0441871 44.895C0.044209 44.7589 0.0442308 44.6229 0.0442533 44.4827C0.043818 44.339 0.0433829 44.1953 0.0429344 44.0473C0.0417463 43.6471 0.0413079 43.2469 0.0409941 42.8468C0.0405327 42.4157 0.0393987 41.9846 0.0383645 41.5535C0.0360231 40.5118 0.0348328 39.4701 0.0337797 38.4284C0.0332611 37.9381 0.0326258 37.4478 0.0320054 36.9575C0.0299913 35.3281 0.0282752 33.6987 0.0274181 32.0693C0.027192 31.6463 0.0269648 31.2233 0.0267333 30.8003C0.026676 30.6952 0.0266186 30.5901 0.0265596 30.4817C0.0255767 28.7781 0.0225769 27.0745 0.0187328 25.3709C0.0148202 23.6227 0.0126858 21.8745 0.0123073 20.1263C0.0120508 19.1444 0.0110119 18.1625 0.00799096 17.1806C0.00542448 16.3444 0.00446662 15.5083 0.00561941 14.6721C0.00615838 14.2454 0.00592744 13.8188 0.00363511 13.3921C0.001172 12.9296 0.00237168 12.4672 0.00393497 12.0047C0.0026364 11.8697 0.00133792 11.7347 0 11.5955C0.00585016 10.8812 0.0307306 10.4402 0.535207 9.90075C1.05673 9.45792 1.32781 9.31591 2.01706 9.3165Z" fill="#703391"/>
<path d="M33.3306 17.7559C33.4428 17.7554 33.5551 17.7548 33.6707 17.7542C34.0439 17.7526 34.417 17.7518 34.7902 17.7511C35.0487 17.7505 35.3072 17.7498 35.5657 17.7492C36.1087 17.748 36.6517 17.7473 37.1947 17.7469C37.8907 17.7463 38.5867 17.7435 39.2827 17.7403C39.8171 17.7382 40.3515 17.7376 40.8859 17.7374C41.1424 17.7371 41.399 17.7361 41.6556 17.7346C42.0147 17.7327 42.3737 17.7329 42.7328 17.7337C42.839 17.7326 42.9451 17.7316 43.0545 17.7305C43.6193 17.7341 43.9973 17.7613 44.455 18.1166C44.786 18.5311 44.8545 18.8375 44.8583 19.3549C44.8609 19.4802 44.8634 19.6055 44.8661 19.7346C44.8683 19.9976 44.8704 20.2606 44.8726 20.5236C44.8752 20.6486 44.8778 20.7736 44.8805 20.9024C44.8813 21.0165 44.8821 21.1306 44.883 21.2481C44.9073 21.5393 44.9073 21.5393 45.0678 21.7479C45.3677 21.9344 45.5895 21.9261 45.945 21.9285C46.0747 21.931 46.2044 21.9335 46.338 21.9361C46.5413 21.9376 46.5413 21.9376 46.7487 21.9392C47.016 21.9412 47.2833 21.9447 47.5505 21.9499C47.6692 21.9507 47.7878 21.9515 47.91 21.9523C48.2984 22.0035 48.5195 22.1179 48.8352 22.3386C49.2403 22.8824 49.3232 23.3354 49.3253 23.9942C49.326 24.1221 49.3267 24.2499 49.3274 24.3816C49.3276 24.5912 49.3276 24.5912 49.3278 24.805C49.3284 24.9526 49.329 25.1001 49.3296 25.2521C49.3311 25.6564 49.3319 26.0607 49.3324 26.465C49.3328 26.7175 49.3332 26.9701 49.3338 27.2226C49.3354 28.0126 49.3365 28.8027 49.337 29.5927C49.3375 30.505 49.3396 31.4172 49.343 32.3295C49.3456 33.0347 49.3468 33.7399 49.3469 34.4451C49.3471 34.8663 49.3478 35.2876 49.3499 35.7088C49.3522 36.1782 49.3517 36.6475 49.3509 37.1169C49.352 37.2568 49.3531 37.3968 49.3542 37.541C49.3532 37.7322 49.3532 37.7322 49.3522 37.9274C49.3524 38.0384 49.3526 38.1494 49.3527 38.2637C49.3087 38.5416 49.3087 38.5416 49.1703 38.7485C48.866 38.9386 48.6448 38.9263 48.2832 38.9258C48.1436 38.9265 48.004 38.9271 47.8602 38.9278C47.7069 38.9267 47.5536 38.9257 47.3956 38.9246C47.2326 38.9247 47.0697 38.9249 46.9067 38.9253C46.464 38.9259 46.0214 38.9243 45.5787 38.9224C45.1158 38.9207 44.653 38.9208 44.1902 38.9207C43.4131 38.9203 42.6359 38.9186 41.8588 38.916C40.8604 38.9127 39.8621 38.9115 38.8638 38.911C38.0064 38.9106 37.1491 38.9091 36.2917 38.9076C36.0157 38.9071 35.7396 38.9068 35.4635 38.9064C35.0302 38.9059 34.597 38.9047 34.1637 38.9031C33.9282 38.9023 33.6928 38.9021 33.4573 38.9019C33.318 38.9013 33.1787 38.9006 33.0353 38.8999C32.8529 38.8994 32.8529 38.8994 32.667 38.8989C32.38 38.8839 32.38 38.8839 32.1432 38.7698C32.1404 36.0492 32.1384 33.3286 32.1371 30.6079C32.1365 29.3448 32.1356 28.0817 32.1343 26.8185C32.1331 25.718 32.1323 24.6175 32.1321 23.5169C32.1319 22.9338 32.1316 22.3507 32.1307 21.7676C32.1299 21.2195 32.1296 20.6713 32.1298 20.1231C32.1298 19.9213 32.1296 19.7195 32.1291 19.5177C32.1285 19.2435 32.1286 18.9692 32.129 18.6949C32.1286 18.614 32.1283 18.5331 32.1279 18.4497C32.1308 17.5765 32.5399 17.7569 33.3306 17.7559ZM35.1028 21.6539C34.8332 21.9751 34.8332 21.9751 34.866 22.3386C34.9513 22.7002 34.9513 22.7002 35.273 22.8706C35.8218 23.0692 36.2972 23.0724 36.8785 23.0687C36.9914 23.069 37.1044 23.0693 37.2207 23.0697C37.4587 23.0699 37.6967 23.0693 37.9347 23.0678C38.2979 23.066 38.661 23.0678 39.0242 23.07C39.256 23.0698 39.4879 23.0693 39.7197 23.0687C39.8818 23.0697 39.8818 23.0697 40.0471 23.0708C40.6545 23.0643 41.0925 23.0164 41.6138 22.6809C41.7507 22.3592 41.7568 22.1933 41.6582 21.8607C41.4307 21.5716 41.2678 21.5302 40.9035 21.4257C40.5113 21.3926 40.1206 21.3937 39.7271 21.3954C39.6137 21.3952 39.5004 21.395 39.3835 21.3947C39.1443 21.3946 38.9051 21.395 38.6659 21.396C38.3004 21.3972 37.9349 21.396 37.5694 21.3945C37.3366 21.3947 37.1039 21.395 36.8711 21.3954C36.7076 21.3947 36.7076 21.3947 36.5407 21.394C35.7924 21.3952 35.7924 21.3952 35.1028 21.6539ZM35.0386 25.8045C34.8409 26.0906 34.8409 26.0906 34.866 26.4036C35.016 26.747 35.1194 26.8346 35.4579 27.0169C35.8 27.0512 36.1165 27.066 36.4586 27.0648C36.6097 27.0663 36.6097 27.0663 36.7638 27.0677C37.0967 27.0704 37.4294 27.0705 37.7622 27.0704C37.9937 27.0712 38.2252 27.0721 38.4566 27.073C38.9418 27.0746 39.4269 27.0747 39.912 27.0741C40.5336 27.0734 41.1551 27.0769 41.7766 27.0815C42.2547 27.0844 42.7327 27.0848 43.2107 27.0844C43.4399 27.0846 43.669 27.0857 43.8982 27.0877C44.2187 27.0902 44.5391 27.0891 44.8596 27.0871C44.9542 27.0886 45.0487 27.0901 45.1461 27.0917C45.6283 27.0847 45.8504 27.0359 46.2351 26.746C46.4985 26.4687 46.4985 26.4687 46.4675 26.1468C46.3422 25.86 46.2412 25.7296 45.994 25.5335C45.6488 25.4985 45.3286 25.4844 44.9831 25.4856C44.8799 25.4846 44.7767 25.4837 44.6704 25.4827C44.3287 25.48 43.987 25.4799 43.6453 25.48C43.4081 25.4792 43.1708 25.4783 42.9336 25.4774C42.4361 25.4759 41.9386 25.4757 41.4411 25.4764C40.8032 25.477 40.1654 25.4735 39.5275 25.4689C39.0375 25.466 38.5475 25.4656 38.0575 25.4661C37.8223 25.4659 37.5871 25.4648 37.3519 25.4627C37.0231 25.4602 36.6945 25.4613 36.3657 25.4633C36.2683 25.4618 36.171 25.4603 36.0707 25.4587C35.6014 25.4654 35.3874 25.4904 35.0386 25.8045ZM34.9844 29.8695C34.8368 30.2001 34.8368 30.2001 34.866 30.5542C35.0323 30.8208 35.0323 30.8208 35.3395 31.0106C35.6955 31.0556 36.008 31.073 36.3638 31.0697C36.4671 31.0705 36.5703 31.0713 36.6766 31.0721C37.0177 31.0741 37.3587 31.0728 37.6998 31.0712C37.9369 31.0715 38.1739 31.072 38.411 31.0725C38.9078 31.0732 39.4045 31.0722 39.9013 31.0701C40.5383 31.0675 41.1752 31.069 41.8121 31.0717C42.3016 31.0734 42.7911 31.0729 43.2806 31.0717C43.5155 31.0714 43.7504 31.0718 43.9852 31.0728C44.3134 31.074 44.6415 31.0722 44.9697 31.0697C45.0669 31.0706 45.1641 31.0715 45.2642 31.0725C45.6906 31.0663 45.9445 31.0452 46.2943 30.8005C46.5004 30.5555 46.5004 30.5555 46.4749 30.2047C46.3793 29.8599 46.3793 29.8599 46.1073 29.6802C45.6562 29.4831 45.2506 29.4793 44.7648 29.4829C44.6664 29.4823 44.568 29.4817 44.4666 29.4811C44.1421 29.4796 43.8176 29.4806 43.4932 29.4818C43.2672 29.4815 43.0412 29.4812 42.8152 29.4808C42.3419 29.4803 41.8686 29.481 41.3953 29.4826C40.789 29.4846 40.1828 29.4834 39.5765 29.4814C39.11 29.4801 38.6434 29.4805 38.1769 29.4814C37.9533 29.4817 37.7298 29.4814 37.5063 29.4806C37.1937 29.4797 36.8812 29.481 36.5687 29.4829C36.4765 29.4822 36.3844 29.4815 36.2895 29.4808C35.7574 29.4868 35.4022 29.5424 34.9844 29.8695ZM35.0386 33.906C34.8409 34.1921 34.8409 34.1921 34.866 34.5051C35.016 34.8485 35.1194 34.9361 35.4579 35.1184C35.8 35.1527 36.1165 35.1675 36.4586 35.1663C36.6097 35.1678 36.6097 35.1678 36.7638 35.1693C37.0967 35.1719 37.4294 35.172 37.7622 35.1719C37.9937 35.1727 38.2252 35.1736 38.4566 35.1745C38.9418 35.1761 39.4269 35.1762 39.912 35.1756C40.5336 35.1749 41.1551 35.1784 41.7766 35.183C42.2547 35.186 42.7327 35.1863 43.2107 35.1859C43.4399 35.1861 43.669 35.1872 43.8982 35.1892C44.2187 35.1917 44.5391 35.1906 44.8596 35.1886C44.9542 35.1901 45.0487 35.1916 45.1461 35.1932C45.6283 35.1862 45.8504 35.1374 46.2351 34.8475C46.4985 34.5703 46.4985 34.5703 46.4675 34.2484C46.3422 33.9615 46.2412 33.8312 45.994 33.635C45.6488 33.6 45.3286 33.5859 44.9831 33.5871C44.8799 33.5862 44.7767 33.5852 44.6704 33.5842C44.3287 33.5815 43.987 33.5814 43.6453 33.5816C43.4081 33.5807 43.1708 33.5799 42.9336 33.5789C42.4361 33.5774 41.9386 33.5772 41.4411 33.5779C40.8032 33.5785 40.1654 33.5751 39.5275 33.5704C39.0375 33.5675 38.5475 33.5672 38.0575 33.5676C37.8223 33.5674 37.5871 33.5663 37.3519 33.5643C37.0231 33.5617 36.6945 33.5628 36.3657 33.5648C36.2683 33.5633 36.171 33.5618 36.0707 33.5603C35.6014 33.5669 35.3874 33.5919 35.0386 33.906Z" fill="#703391"/>
<path d="M33.0602 1.48389C34.8883 2.81487 36.1943 4.63329 36.6419 6.82034C36.6688 6.94508 36.6956 7.06981 36.7233 7.19832C36.9402 9.66554 36.3877 11.9578 34.7478 13.8949C33.5431 15.2414 32.1201 16.0944 30.3676 16.6334C30.2308 16.6756 30.2308 16.6756 30.0911 16.7186C27.7578 17.2907 25.295 16.7665 23.2647 15.6065C22.8839 15.3635 22.5394 15.1011 22.1992 14.8078C22.1121 14.7344 22.025 14.661 21.9352 14.5853C20.242 13.0657 19.3643 11.0466 19.2138 8.83636C19.1547 6.72162 19.78 4.64756 21.2522 3.05485C21.3403 2.94387 21.3403 2.94387 21.4302 2.83065C24.1147 -0.444211 29.6244 -0.856116 33.0602 1.48389ZM25.5362 4.79496C25.2675 4.97356 25.2675 4.97356 25.1588 5.22286C25.1456 5.42782 25.14 5.63324 25.1379 5.83858C25.1363 5.9673 25.1348 6.09603 25.1332 6.22865C25.1324 6.36831 25.1315 6.50797 25.1306 6.65186C25.1296 6.79482 25.1287 6.93778 25.1277 7.08507C25.1261 7.38799 25.1248 7.6909 25.1239 7.99383C25.1226 8.38164 25.1185 8.76938 25.1138 9.15717C25.1099 9.5273 25.1094 9.89744 25.1084 10.2676C25.1063 10.4068 25.1043 10.546 25.1021 10.6894C25.1025 10.8188 25.1028 10.9483 25.1032 11.0816C25.1025 11.1955 25.1018 11.3093 25.1011 11.4266C25.175 11.8112 25.3155 11.9462 25.6323 12.1833C26.1685 12.256 26.4854 12.1519 26.9419 11.886C27.0546 11.8215 27.1673 11.757 27.2834 11.6905C27.4027 11.6201 27.5219 11.5498 27.6448 11.4773C27.8981 11.3309 28.1514 11.1846 28.4046 11.0382C28.5333 10.9632 28.662 10.8882 28.7946 10.8109C29.1733 10.5919 29.5545 10.3779 29.9371 10.1655C30.0556 10.0994 30.1741 10.0333 30.2962 9.96525C30.5221 9.8393 30.7484 9.7139 30.9751 9.58911C31.0769 9.53177 31.1788 9.47443 31.2837 9.41536C31.3729 9.36577 31.4621 9.31618 31.5539 9.26509C31.8155 9.08356 31.9739 8.90966 32.1434 8.64604C32.1343 8.29637 32.0715 8.12907 31.8386 7.86067C31.4671 7.54807 31.0681 7.34224 30.634 7.11987C29.589 6.57427 28.5643 5.99846 27.5442 5.41079C27.429 5.34524 27.3139 5.2797 27.1954 5.21216C27.0936 5.1537 26.9919 5.09523 26.887 5.03499C26.2288 4.68414 26.2288 4.68414 25.5362 4.79496Z" fill="#703391"/>
<path d="M9.31197 19.5679C9.43194 19.5669 9.55191 19.5659 9.67552 19.5649C9.80585 19.565 9.93617 19.5651 10.0705 19.5652C10.2087 19.5645 10.347 19.5637 10.4895 19.5629C10.9468 19.5607 11.404 19.5603 11.8613 19.5601C12.0192 19.5597 12.1771 19.5594 12.335 19.559C13.162 19.5569 13.989 19.5559 14.816 19.5561C15.5852 19.5562 16.3544 19.5538 17.1236 19.5502C17.7854 19.5472 18.4472 19.546 19.1089 19.5462C19.5036 19.5462 19.8982 19.5454 20.2928 19.5432C20.7335 19.5409 21.174 19.5416 21.6146 19.5429C21.7442 19.5417 21.8738 19.5404 22.0074 19.5391C22.9528 19.5465 23.5756 19.7313 24.3003 20.3187C24.9667 21.086 25.1773 21.7391 25.172 22.7284C25.172 22.813 25.172 22.8977 25.172 22.9849C25.172 23.264 25.171 23.543 25.1701 23.8221C25.1699 24.0159 25.1697 24.2096 25.1696 24.4034C25.1692 24.9129 25.168 25.4224 25.1667 25.9319C25.1655 26.452 25.1649 26.9721 25.1643 27.4922C25.1631 28.5123 25.161 29.5324 25.1586 30.5525C24.8234 30.406 24.5847 30.2547 24.3293 30.0001C24.2632 29.935 24.1972 29.8698 24.1292 29.8027C24.0591 29.7326 23.9891 29.6625 23.9169 29.5902C23.7658 29.4417 23.6147 29.2932 23.4635 29.1447C23.2269 28.911 22.9907 28.677 22.7552 28.4423C22.5269 28.2154 22.2972 27.9899 22.0672 27.7645C21.9979 27.6946 21.9285 27.6247 21.8571 27.5527C21.2834 26.9931 20.7871 26.7119 19.9571 26.623C19.0181 26.6716 18.4741 27.1558 17.8484 27.7926C17.794 27.8516 17.7395 27.9105 17.6834 27.9713C17.5247 28.1372 17.5247 28.1372 17.2269 28.3845C16.7265 28.3707 16.4726 28.0318 16.1448 27.7012C16.0266 27.5841 15.9084 27.4669 15.7901 27.3498C15.6061 27.1654 15.4225 26.9806 15.2393 26.7954C14.188 25.7072 14.188 25.7072 12.7913 25.129C12.6722 25.1307 12.6722 25.1307 12.5508 25.1325C12.4714 25.1313 12.3921 25.1302 12.3103 25.129C11.3357 25.3311 10.7202 25.9229 10.0504 26.5892C9.95745 26.6797 9.86447 26.7702 9.76868 26.8635C9.47408 27.1507 9.18116 27.4395 8.88833 27.7284C8.59223 28.0187 8.2958 28.3086 7.9991 28.5983C7.81502 28.7782 7.63135 28.9585 7.44813 29.1392C7.32474 29.2604 7.32474 29.2604 7.19886 29.384C7.08997 29.4914 7.08997 29.4914 6.97889 29.6009C6.80923 29.7538 6.80923 29.7538 6.69085 29.7538C6.67708 28.7172 6.66659 27.6807 6.66018 26.644C6.6571 26.1625 6.65293 25.6811 6.6462 25.1997C6.63972 24.7343 6.63622 24.269 6.63469 23.8036C6.6336 23.6268 6.63148 23.4501 6.62827 23.2733C6.60861 22.1476 6.65199 21.1571 7.49757 20.2913C8.03719 19.8061 8.56661 19.5706 9.31197 19.5679ZM19.6686 22.6864C19.35 23.0525 19.3169 23.3305 19.325 23.8092C19.3799 24.2093 19.5582 24.4352 19.8313 24.7331C20.2438 25.007 20.4611 25.0782 20.9634 25.0612C21.5432 24.9189 21.8482 24.7896 22.1768 24.2981C22.33 23.9019 22.3806 23.6679 22.3174 23.2498C22.0071 22.7051 21.703 22.3441 21.0965 22.123C20.5245 22.0973 20.0927 22.3314 19.6686 22.6864Z" fill="#703391"/>
<path d="M24.0932 48.6953C26.6716 48.6953 29.25 48.6953 31.9065 48.6953C31.9065 49.825 31.9065 50.9546 31.9065 52.1185C32.3115 52.1119 32.7165 52.1052 33.1338 52.0984C33.5291 52.094 33.9244 52.0905 34.3198 52.0871C34.5931 52.0843 34.8663 52.0804 35.1396 52.0754C35.534 52.0685 35.9282 52.0653 36.3227 52.0628C36.4435 52.0598 36.5643 52.0569 36.6887 52.0538C37.6468 52.0535 38.429 52.2794 39.1453 52.9144C40.1189 53.9104 40.0749 54.5475 40.0749 55.9981C32.1054 55.9981 24.1358 55.9981 15.9248 55.9981C15.9248 53.8898 15.9248 53.8898 16.7378 53.0242C17.6459 52.2067 18.4339 52.0676 19.6423 52.0851C19.7699 52.0855 19.8975 52.086 20.0289 52.0865C20.4342 52.0884 20.8394 52.0927 21.2446 52.0971C21.5203 52.0988 21.796 52.1004 22.0717 52.1018C22.7456 52.1052 23.4193 52.1119 24.0932 52.1185C24.0932 50.9888 24.0932 49.8592 24.0932 48.6953Z" fill="#703391"/>
<path d="M20.1791 28.0721C20.7251 28.2689 21.1143 28.722 21.5181 29.1125C21.6197 29.209 21.7213 29.3054 21.8259 29.4048C22.0398 29.6089 22.2526 29.8139 22.4647 30.0198C22.7898 30.3343 23.1195 30.644 23.4497 30.9536C23.657 31.1526 23.864 31.352 24.0707 31.5516C24.1697 31.6438 24.2687 31.7361 24.3707 31.8312C25.0198 32.4722 25.0198 32.4722 25.078 32.8694C24.9865 33.6817 24.5003 34.2057 23.871 34.7068C23.1037 35.0914 22.3593 35.154 21.5119 35.1464C21.4124 35.1464 21.313 35.1465 21.2105 35.1465C20.8851 35.1463 20.5598 35.1446 20.2344 35.1428C20.0075 35.1423 19.7806 35.142 19.5537 35.1418C18.9589 35.1409 18.3642 35.1387 17.7694 35.1362C17.1616 35.1338 16.5537 35.1328 15.9458 35.1316C14.7549 35.1292 13.564 35.1253 12.373 35.1205C12.5633 34.6637 12.8959 34.3569 13.2524 34.017C13.3178 33.9537 13.3833 33.8904 13.4508 33.8251C13.6668 33.6164 13.8837 33.4086 14.1007 33.2007C14.2511 33.0559 14.4015 32.911 14.5518 32.7661C14.8667 32.4627 15.182 32.1597 15.4976 31.8571C15.9027 31.4686 16.307 31.0793 16.711 30.6898C17.0213 30.3907 17.332 30.092 17.6427 29.7933C17.7919 29.6498 17.9411 29.5063 18.0902 29.3627C18.2982 29.1624 18.5066 28.9625 18.7151 28.7628C18.777 28.7031 18.8388 28.6434 18.9026 28.5819C19.3302 28.1734 19.5553 27.9724 20.1791 28.0721Z" fill="#703391"/>
<path d="M13.0834 26.6767C13.3498 26.8751 13.5586 27.0539 13.7859 27.2869C13.8478 27.3475 13.9096 27.4081 13.9734 27.4706C14.1693 27.6632 14.3625 27.8581 14.5558 28.0531C14.6888 28.1847 14.8219 28.3161 14.9551 28.4473C15.2802 28.7682 15.603 29.0911 15.9246 29.4152C15.7444 29.8212 15.4961 30.0899 15.178 30.4053C15.0724 30.5104 14.9669 30.6154 14.8581 30.7236C14.7425 30.8373 14.6268 30.9509 14.511 31.0644C14.4524 31.1219 14.3939 31.1794 14.3336 31.2386C14.0238 31.5427 13.7131 31.8459 13.4019 32.1487C13.0815 32.4607 12.7642 32.7755 12.4475 33.0911C12.2026 33.334 11.9553 33.5746 11.7074 33.8146C11.5894 33.9297 11.4723 34.0456 11.3562 34.1624C10.449 35.0725 10.449 35.0725 9.93605 35.1916C9.66918 35.194 9.43727 35.1737 9.1768 35.1205C9.07654 35.1051 8.97628 35.0896 8.87298 35.0737C8.07885 34.8236 7.46436 34.4186 7.00013 33.7392C6.67789 33.1235 6.52243 32.4903 6.69076 31.8115C7.01435 31.3423 7.42589 30.9668 7.84777 30.5808C7.96689 30.4678 8.08575 30.3546 8.20438 30.2412C8.51584 29.9446 8.83073 29.6518 9.14646 29.3595C9.46778 29.0607 9.7854 28.7582 10.1035 28.4563C10.568 28.0167 11.0335 27.5784 11.5021 27.1429C11.5962 27.0554 11.6903 26.9679 11.7873 26.8777C12.2318 26.4905 12.5079 26.5439 13.0834 26.6767Z" fill="#703391"/>
<path d="M45.7578 18.5742C46.1923 18.7836 46.4091 18.9457 46.7437 19.27C46.8383 19.3614 46.9329 19.4528 47.0304 19.547C47.1281 19.6426 47.2258 19.7381 47.3264 19.8365C47.4259 19.9325 47.5254 20.0285 47.6279 20.1274C48.3622 20.8403 48.3622 20.8403 48.3622 20.9704C47.5418 20.9704 46.7214 20.9704 45.8762 20.9704C45.8371 20.1797 45.7981 19.3889 45.7578 18.5742Z" fill="#703391"/>
</svg>
