<svg width="86" height="86" viewBox="0 0 86 86" fill="none" xmlns="http://www.w3.org/2000/svg">
<circle cx="43" cy="43" r="43" fill="#703391" fill-opacity="0.1"/>
<path d="M46.3312 40.4191C46.0209 40.6682 45.5657 40.6163 45.3174 40.305C45.0691 39.9936 45.1208 39.5369 45.4312 39.2878L55.8691 30.8183L55.6932 30.6418C55.4139 30.3616 55.4139 29.8946 55.6932 29.6143C55.7967 29.5105 55.9208 29.4482 56.0553 29.4171L57.8242 28.9397C58.207 28.8359 58.6001 29.0642 58.7139 29.4482C58.7449 29.5832 58.7449 29.7077 58.7139 29.8323L58.2277 31.6382C58.1243 32.0222 57.7312 32.2609 57.3484 32.1571C57.2242 32.126 57.1104 32.0534 57.0277 31.9703L56.9035 31.8458L46.3312 40.4191ZM48.3795 55.4478C47.976 55.4478 47.6553 55.126 47.6553 54.7212C47.6553 54.3164 47.976 53.9947 48.3795 53.9947H60.5038C60.9073 53.9947 61.228 54.3164 61.228 54.7212C61.228 55.126 60.9073 55.4478 60.5038 55.4478H48.3795ZM48.3795 52.3963C47.976 52.3963 47.6553 52.0746 47.6553 51.6698C47.6553 51.265 47.976 50.9433 48.3795 50.9433H60.5038C60.9073 50.9433 61.228 51.265 61.228 51.6698C61.228 52.0746 60.9073 52.3963 60.5038 52.3963H48.3795ZM33.0899 54.4825C34.352 54.4825 35.5003 53.9636 36.3279 53.1332C37.1555 52.3029 37.6727 51.1508 37.6727 49.8846C37.6727 48.6184 37.1555 47.4663 36.3279 46.636C35.5003 45.8057 34.3624 45.2867 33.0899 45.2867C31.8175 45.2867 30.6796 45.8056 29.852 46.636C29.0244 47.4663 28.5071 48.608 28.5071 49.8846C28.5071 51.1508 29.0244 52.3029 29.852 53.1332C30.6796 53.9636 31.8279 54.4825 33.0899 54.4825ZM37.352 54.1712C36.2658 55.261 34.7555 55.9459 33.0899 55.9459C31.4244 55.9459 29.9244 55.2713 28.8278 54.1712C27.7416 53.0813 27.0589 51.5661 27.0589 49.895C27.0589 48.2239 27.7313 46.719 28.8278 45.6188C29.9141 44.529 31.4244 43.8544 33.0899 43.8544C34.7554 43.8544 36.2555 44.529 37.352 45.6188C38.4382 46.7086 39.1106 48.2239 39.1106 49.895C39.1106 51.5661 38.4382 53.071 37.352 54.1712ZM36.0899 41.7995C36.5451 41.9656 36.9796 42.1732 37.3934 42.4119C37.8175 42.661 38.2106 42.9308 38.583 43.2422L40.2175 42.2977C40.5589 42.1005 41.0037 42.2147 41.2106 42.5676L43.4865 46.522C43.683 46.8645 43.5692 47.3108 43.2175 47.508L41.583 48.4525C41.6141 48.5978 41.6348 48.7534 41.6451 48.8987C41.6865 49.2309 41.7072 49.563 41.7072 49.8951C41.7072 50.2273 41.6865 50.5594 41.6451 50.8915C41.6244 51.0368 41.6037 51.1925 41.583 51.3378L43.2175 52.2823C43.5589 52.4795 43.683 52.9257 43.4865 53.2683L41.2106 57.2227C41.0141 57.5652 40.5692 57.6897 40.2175 57.4822L38.583 56.5377C38.2106 56.8491 37.8175 57.1293 37.3934 57.368C36.9796 57.6067 36.5451 57.8143 36.0899 57.9908V59.8797C36.0899 60.2845 35.7693 60.6063 35.3658 60.6063H30.8141C30.4106 60.6063 30.0899 60.2845 30.0899 59.8797V57.9908C29.6347 57.8247 29.2002 57.6171 28.7865 57.368C28.3623 57.1189 27.9692 56.8491 27.5968 56.5377L25.9624 57.4822C25.621 57.6794 25.1761 57.5652 24.9796 57.2123L22.7037 53.2579C22.5072 52.9154 22.6209 52.4691 22.9727 52.2719L24.6071 51.3274C24.5761 51.1821 24.5554 51.0264 24.5451 50.8811C24.5037 50.549 24.4933 50.2169 24.4933 49.8848C24.4933 49.5526 24.514 49.2205 24.5451 48.8884C24.5658 48.7431 24.5864 48.5874 24.6071 48.4421L22.9623 47.4976C22.6209 47.3004 22.4968 46.8541 22.7037 46.5116L24.9795 42.5572C25.1864 42.2147 25.6209 42.0901 25.9726 42.2873C25.983 42.2977 26.0037 42.2977 26.014 42.3081L27.6071 43.2318C27.9795 42.9205 28.383 42.6402 28.7968 42.4015C29.2106 42.1628 29.6451 41.9552 30.1002 41.7892V39.8898C30.1002 39.4851 30.4209 39.1633 30.8244 39.1633H35.3761C35.7796 39.1633 36.1003 39.4851 36.1003 39.8898V41.7996L36.0899 41.7995ZM36.6693 43.6677C36.2038 43.3979 35.7175 43.1799 35.19 43.0243C34.8693 42.9516 34.6417 42.661 34.6417 42.3185V40.6267H31.5382V42.3185C31.5382 42.6299 31.3313 42.9205 31.021 43.0139C30.483 43.18 29.9865 43.3979 29.5106 43.6678C29.0347 43.948 28.5796 44.2801 28.1865 44.6642C27.9589 44.8821 27.6175 44.934 27.3382 44.768L25.8795 43.9273L24.3278 46.6258L25.7554 47.4561C26.045 47.6014 26.2106 47.9336 26.1278 48.2657C26.0657 48.5355 26.014 48.8054 25.983 49.0856C25.9519 49.3555 25.9312 49.6253 25.9312 49.9159C25.9312 50.2066 25.9519 50.4764 25.983 50.7463C26.014 51.0265 26.0657 51.2964 26.1278 51.5662C26.2002 51.8672 26.0657 52.1993 25.7864 52.355L24.3278 53.2061L25.8795 55.9047L27.2968 55.0847C27.5657 54.8979 27.9485 54.9186 28.1968 55.1573C28.6002 55.5414 29.0451 55.8735 29.5209 56.1537C29.9761 56.4236 30.4727 56.6312 30.9899 56.7972C31.3105 56.8699 31.5485 57.1605 31.5485 57.503V59.1844H34.6519V57.503C34.6519 57.1916 34.8588 56.901 35.1692 56.8076C35.7071 56.6519 36.2037 56.4235 36.6796 56.1537C37.1554 55.8734 37.6003 55.5517 37.9934 55.1677C38.221 54.9497 38.5727 54.8978 38.8623 55.0639L40.3209 55.915L41.8727 53.2164L40.4658 52.3965C40.1658 52.2512 39.9899 51.9191 40.0727 51.5765C40.1348 51.3067 40.1761 51.0368 40.2175 50.7566C40.2486 50.4867 40.2692 50.2169 40.2692 49.9263C40.2692 49.646 40.2486 49.3658 40.2175 49.0959C40.1865 48.8157 40.1348 48.5458 40.0727 48.276C40.0003 47.975 40.1348 47.6532 40.4141 47.4872L41.8727 46.6465L40.321 43.948L38.8727 44.7886C38.6037 44.9547 38.2416 44.9236 38.0037 44.6952C37.5899 44.2801 37.1451 43.948 36.6693 43.6677ZM33.09 37.2122C29.5934 37.2122 26.438 38.6342 24.152 40.9279C21.8658 43.2217 20.4486 46.3977 20.4486 49.8954C20.4486 53.4035 21.8658 56.5693 24.152 58.8628C26.4383 61.1566 29.5932 62.5785 33.09 62.5785C36.5762 62.5785 39.7419 61.1566 42.0279 58.8628C44.3141 56.5691 45.7314 53.4037 45.7314 49.8954C45.7314 47.8196 45.2348 45.8579 44.3555 44.1249C43.7452 42.9416 42.9693 41.8622 42.0382 40.9281C39.7417 38.6344 36.5767 37.2122 33.09 37.2122ZM23.1277 39.9004C25.0725 37.9491 27.576 36.5688 30.3792 36.0187V21.7265C30.3792 21.3218 30.6999 21 31.1033 21H60.5035C60.9069 21 61.2276 21.3217 61.2276 21.7265V26.1168H66.2759C66.6793 26.1168 67 26.4386 67 26.8434V56.6828C67 56.9111 66.8965 57.1187 66.731 57.2433L61.3519 62.1422L61.3312 62.1629C61.3208 62.1629 61.3208 62.1733 61.3208 62.1733C61.3105 62.1837 61.3001 62.1837 61.2898 62.1941L61.2381 62.246C61.2277 62.246 61.2174 62.2563 61.207 62.2563C61.1967 62.2667 61.176 62.2667 61.1656 62.2771L61.1346 62.3082H39.7726C37.7863 63.3876 35.5105 64 33.0899 64C29.2002 64 25.6726 62.412 23.1276 59.8588C20.5724 57.3367 19 53.7976 19 49.8949C19 45.9923 20.5725 42.4644 23.1277 39.9004ZM31.8278 35.8214C32.2416 35.7799 32.6657 35.7696 33.0899 35.7696C34.1347 35.7696 35.1692 35.8837 36.1519 36.1017V26.8436C36.1519 26.4388 36.4726 26.117 36.8761 26.117H59.7794V22.4533H31.8279L31.8278 35.8214ZM37.6 36.4961C39.6793 37.2018 41.531 38.3747 43.0517 39.9003C43.5586 40.4089 44.0241 40.959 44.4483 41.5402C44.5828 41.3949 44.769 41.3015 44.9862 41.3015H47.8621C48.2655 41.3015 48.5862 41.6232 48.5862 42.028V45.8371H48.8448V39.9731C48.8448 39.5683 49.1655 39.2465 49.569 39.2465H52.4345C52.838 39.2465 53.1587 39.5683 53.1587 39.9731V45.8371H53.4173V36.2782C53.4173 35.8735 53.738 35.5517 54.1414 35.5517H57.007C57.4104 35.5517 57.7311 35.8734 57.7311 36.2782V45.8371H57.9897V33.1435C57.9897 32.7387 58.3104 32.4169 58.7139 32.4169H61.5794C61.9829 32.4169 62.3036 32.7387 62.3036 33.1435V45.8371H63.3898C63.7932 45.8371 64.1139 46.1589 64.1139 46.5637V48.4215C64.1139 48.8263 63.7932 49.148 63.3898 49.148H47.1585C47.1688 49.3971 47.1792 49.6462 47.1792 49.8953C47.1792 53.7978 45.5964 57.3371 43.0516 59.8905C42.6999 60.2434 42.3378 60.5755 41.9447 60.8869H60.141V56.6834C60.141 56.2786 60.4617 55.9568 60.8652 55.9568H65.5514V27.5703H37.5999L37.6 36.4961ZM45.7207 43.6264C46.0724 44.3322 46.362 45.0691 46.5896 45.8372H47.1379V42.7546H45.7207V43.6264ZM46.9414 47.2799C46.9724 47.4148 46.9931 47.5497 47.0138 47.6846H62.655V47.2799H60.793C60.6999 47.3214 60.6068 47.3421 60.5033 47.3421C60.3999 47.3421 60.2964 47.3214 60.2137 47.2799H46.9414ZM50.2828 45.8268H51.7V40.6892H50.2828V45.8268ZM54.8552 45.8268H56.2724V36.9943H54.8552V45.8268ZM60.8241 45.8268V33.8702H59.4069V45.8268H60.8241ZM64.4035 57.4199H61.5897V59.9835L64.4035 57.4199Z" fill="#703391" stroke="#703391" stroke-width="0.5"/>
</svg>
