<svg width="20" height="20" viewBox="0 0 20 20" fill="none" xmlns="http://www.w3.org/2000/svg">
<path d="M11.2405 8.93353C11.3256 8.86 11.3936 8.77175 11.4406 8.67398C11.4875 8.57621 11.5124 8.47089 11.5138 8.36425C11.5152 8.2576 11.4931 8.15178 11.4487 8.05302C11.4043 7.95427 11.3387 7.86457 11.2555 7.78922C11.1723 7.71387 11.0734 7.6544 10.9645 7.6143C10.8557 7.57421 10.7391 7.5543 10.6216 7.55576C10.5041 7.55722 10.3881 7.58001 10.2805 7.6228C10.1729 7.66558 10.0758 7.72749 9.99492 7.80487L4.76399 12.5552C4.08399 13.1705 3.74069 13.7977 3.73849 14.423C3.74264 14.6774 3.80324 14.9285 3.91668 15.1612C4.03011 15.3939 4.19404 15.6035 4.39868 15.7774C4.61491 15.9941 4.87738 16.1687 5.17017 16.2906C5.46295 16.4125 5.77997 16.4791 6.10198 16.4865C7.09667 16.4865 7.79648 15.8493 8.08256 15.5796L17.9855 6.6063C19.2948 5.40773 19.8054 3.47804 17.9855 1.83799C16.8741 0.813217 15.6726 0.753288 14.8627 0.885131C14.0558 1.01995 13.3104 1.36731 12.7193 1.88394L2.85383 10.8253C0.325286 13.1205 0.160238 15.7134 2.4137 17.769C3.4436 18.7039 4.61434 19.1673 5.80929 19.1673C7.1979 19.1673 8.64152 18.5481 9.99052 17.3175L15.2193 12.5452C15.3841 12.3948 15.4764 12.191 15.4758 11.9788C15.4752 11.7665 15.3817 11.5632 15.216 11.4136C15.0502 11.2639 14.8257 11.1801 14.5919 11.1807C14.3581 11.1813 14.1342 11.2661 13.9693 11.4166L8.74935 16.1809C6.89641 17.8629 5.18431 18.0147 3.65926 16.6303C1.71169 14.8625 2.82522 13.1125 4.09939 11.9559L13.9693 3.02258C14.3055 2.73481 14.7242 2.53887 15.1774 2.45726C15.4678 2.41115 15.7664 2.43381 16.0444 2.52304C16.3223 2.61227 16.5702 2.76506 16.7641 2.96665C18.0075 4.0953 17.1712 5.0981 16.7641 5.47765L6.8612 14.4489C6.71816 14.5808 6.37926 14.8884 6.11518 14.8884C5.93553 14.859 5.77285 14.7735 5.65525 14.6467C5.52101 14.5249 5.52101 14.4469 5.52101 14.425C5.52101 14.2911 5.65525 14.0255 6.02936 13.6859L11.2405 8.93353Z" fill="#703391"/>
</svg>
