<svg width="58" height="56" viewBox="0 0 58 56" fill="none" xmlns="http://www.w3.org/2000/svg">
<path d="M3.4565 13.0274C3.53325 13.0272 3.61001 13.0269 3.6891 13.0267C3.94825 13.0261 4.20739 13.0263 4.46654 13.0264C4.65344 13.0261 4.84035 13.0258 5.02725 13.0254C5.54241 13.0245 6.05756 13.0243 6.57271 13.0243C7.12773 13.0241 7.68275 13.0232 8.23776 13.0225C9.45221 13.021 10.6666 13.0204 11.8811 13.0199C12.6392 13.0196 13.3974 13.0191 14.1555 13.0186C16.254 13.0173 18.3525 13.0162 20.451 13.0158C20.5854 13.0158 20.7198 13.0158 20.8582 13.0157C20.9929 13.0157 21.1276 13.0157 21.2664 13.0157C21.5393 13.0156 21.8123 13.0156 22.0853 13.0155C22.2207 13.0155 22.3561 13.0155 22.4956 13.0154C24.6891 13.015 26.8825 13.0131 29.076 13.0106C31.3273 13.008 33.5786 13.0066 35.8299 13.0065C37.0942 13.0064 38.3585 13.0058 39.6228 13.0038C40.6996 13.0021 41.7763 13.0015 42.853 13.0024C43.4024 13.0029 43.9517 13.0028 44.501 13.0012C45.0042 12.9998 45.5074 13 46.0106 13.0013C46.1923 13.0015 46.3741 13.0012 46.5559 13.0002C48.0874 12.9927 49.3877 13.1813 50.57 14.2435C51.5879 15.311 51.9111 16.6819 52.2923 18.0655C52.4278 18.0671 52.4278 18.0671 52.566 18.0686C52.9754 18.0745 53.3846 18.0836 53.7939 18.0928C53.9361 18.0944 54.0783 18.0959 54.2248 18.0975C54.3614 18.101 54.4979 18.1046 54.6386 18.1082C54.7645 18.1105 54.8903 18.1128 55.0199 18.1151C55.4308 18.1893 55.5436 18.2745 55.7871 18.6116C55.9047 18.8962 56.003 19.1667 56.0925 19.4597C56.1186 19.5419 56.1446 19.624 56.1715 19.7086C56.2261 19.8821 56.28 20.0558 56.3333 20.2297C56.4145 20.4937 56.4984 20.7568 56.5827 21.0198C56.6356 21.1891 56.6884 21.3585 56.741 21.5279C56.7783 21.6445 56.7783 21.6445 56.8165 21.7635C56.9769 22.2955 57.025 22.7515 56.9884 23.3077C56.8178 23.5808 56.8178 23.5808 56.5516 23.7446C56.1683 23.7925 55.9081 23.8084 55.5624 23.6261C55.2729 23.3407 55.1822 23.0241 55.0687 22.6444C55.0332 22.5323 55.0332 22.5323 54.9971 22.418C54.9222 22.1803 54.8495 21.942 54.7769 21.7037C54.7264 21.542 54.6757 21.3804 54.625 21.2188C54.5011 20.8235 54.3791 20.4276 54.2581 20.0314C53.7896 19.9953 53.321 19.9593 52.8383 19.9221C52.8779 20.0557 52.9175 20.1893 52.9583 20.3269C53.1086 20.8343 53.2588 21.3418 53.4089 21.8492C53.4733 22.0666 53.5376 22.284 53.6021 22.5014C53.7595 23.0327 53.9164 23.5641 54.0722 24.0959C54.1925 24.5064 54.3152 24.9162 54.4397 25.3255C55.1729 27.7584 55.2943 30.0492 55.2837 32.5761C55.2818 33.0299 55.2829 33.4835 55.2849 33.9373C55.2861 34.2898 55.2857 34.6424 55.2849 34.995C55.2846 35.1624 55.2849 35.3298 55.2857 35.4972C55.2865 35.7302 55.2852 35.9631 55.2834 36.196C55.2831 36.328 55.2829 36.46 55.2826 36.596C55.2112 37.2197 54.9511 37.6328 54.4765 38.031C54.4022 38.0948 54.3279 38.1585 54.2513 38.2242C53.9199 38.4667 53.6417 38.5019 53.2437 38.5007C53.1497 38.5007 53.0558 38.5007 52.9589 38.5007C52.8579 38.5001 52.7568 38.4996 52.6527 38.499C52.549 38.4988 52.4452 38.4987 52.3383 38.4985C52.0067 38.4979 51.6751 38.4965 51.3435 38.4951C51.1187 38.4946 50.894 38.4941 50.6692 38.4936C50.1181 38.4924 49.567 38.4905 49.0159 38.4883C49.0059 38.5891 49.0059 38.5891 48.9958 38.6919C48.9866 38.7802 48.9774 38.8685 48.968 38.9595C48.9591 39.047 48.9502 39.1344 48.941 39.2245C48.7656 40.4841 47.7732 41.7296 46.8316 42.5292C45.3504 43.6475 43.6339 44.0465 41.7985 43.7932C40.1022 43.4226 38.6317 42.5055 37.6646 41.0548C37.158 40.1935 36.909 39.4874 36.7841 38.4883C30.6572 38.4883 24.5304 38.4883 18.2179 38.4883C18.1819 38.8127 18.1458 39.137 18.1087 39.4712C17.9919 39.7785 17.877 40.0497 17.7264 40.3381C17.6878 40.4134 17.6492 40.4887 17.6093 40.5663C16.8252 42.0333 15.5385 43.1092 13.9548 43.6187C12.1363 44.0916 10.5184 43.8424 8.86912 42.9741C7.5252 42.1539 6.52428 40.8865 6.09529 39.362C6.05037 39.0711 6.01762 38.7811 5.98608 38.4883C5.88809 38.4906 5.79011 38.4929 5.68915 38.4952C5.32195 38.5027 4.95484 38.5082 4.58759 38.5123C4.42934 38.5145 4.2711 38.5175 4.11288 38.5213C2.47425 38.5597 2.47425 38.5597 1.72678 38.0515C1.4674 37.7784 1.4674 37.7784 1.28993 37.5054C1.25085 37.4463 1.21176 37.3873 1.1715 37.3265C1.0235 36.9447 1.04033 36.5673 1.04156 36.1636C1.04099 36.0716 1.04042 35.9795 1.03983 35.8846C1.03819 35.5756 1.03812 35.2666 1.03804 34.9576C1.03721 34.7362 1.03629 34.5148 1.03529 34.2934C1.03289 33.6916 1.03193 33.0898 1.03138 32.488C1.03098 32.112 1.0303 31.736 1.02952 31.36C1.02684 30.0483 1.02542 28.7366 1.02503 27.4248C1.02463 26.2022 1.02137 24.9796 1.0168 23.757C1.01301 22.7073 1.01132 21.6577 1.01124 20.608C1.01116 19.9811 1.0102 19.3542 1.00709 18.7273C1.00424 18.1374 1.00399 17.5476 1.00575 16.9578C1.00594 16.7415 1.00521 16.5253 1.00347 16.309C1.00124 16.0132 1.00239 15.7177 1.00437 15.4219C1.00293 15.3368 1.00149 15.2517 1 15.164C1.00968 14.5285 1.20481 14.0737 1.61757 13.5878C2.199 13.1455 2.73925 13.0281 3.4565 13.0274ZM2.8273 14.9495C2.64557 15.3267 2.64557 15.3267 2.7097 16.2089C18.243 16.2089 33.7763 16.2089 49.7804 16.2089C49.4271 15.6415 49.4271 15.6415 48.9749 15.2533C48.9155 15.2111 48.8561 15.1688 48.7949 15.1253C48.2523 14.8294 47.755 14.7617 47.143 14.7611C47.0666 14.7607 46.9901 14.7603 46.9114 14.7599C46.6553 14.7589 46.3992 14.7594 46.1431 14.7599C45.9576 14.7595 45.7721 14.759 45.5867 14.7584C45.077 14.7571 44.5673 14.7571 44.0577 14.7574C43.508 14.7574 42.9584 14.7562 42.4088 14.7552C41.3321 14.7534 40.2555 14.7528 39.1788 14.7527C38.3042 14.7526 37.4295 14.7521 36.5548 14.7514C34.0764 14.7495 31.5981 14.7485 29.1197 14.7486C28.9861 14.7487 28.8524 14.7487 28.7148 14.7487C28.581 14.7487 28.4472 14.7487 28.3094 14.7487C26.139 14.7488 23.9687 14.7467 21.7984 14.7436C19.5714 14.7405 17.3444 14.739 15.1174 14.7392C13.8665 14.7392 12.6156 14.7386 11.3647 14.7363C10.3002 14.7343 9.23569 14.7338 8.17116 14.7353C7.62766 14.736 7.08418 14.736 6.54068 14.7341C6.04373 14.7324 5.54683 14.7327 5.04989 14.7346C4.86955 14.735 4.6892 14.7346 4.50887 14.7334C4.2648 14.7318 4.02089 14.733 3.77683 14.7348C3.64095 14.7347 3.50508 14.7347 3.36508 14.7346C3.0379 14.7628 3.0379 14.7628 2.8273 14.9495ZM2.7097 17.9563C2.7097 20.4791 2.7097 23.0019 2.7097 25.6012C4.36754 25.6012 6.02539 25.6012 7.73348 25.6012C7.73348 23.0784 7.73348 20.5556 7.73348 17.9563C6.07563 17.9563 4.41778 17.9563 2.7097 17.9563ZM9.48088 17.9563C9.48088 20.4791 9.48088 23.0019 9.48088 25.6012C9.91337 25.6012 10.3458 25.6012 10.7914 25.6012C10.7914 23.0784 10.7914 20.5556 10.7914 17.9563C10.359 17.9563 9.92647 17.9563 9.48088 17.9563ZM12.5388 17.9563C12.5388 20.4791 12.5388 23.0019 12.5388 25.6012C14.3408 25.6012 16.1429 25.6012 17.9995 25.6012C17.9995 23.0784 17.9995 20.5556 17.9995 17.9563C16.1975 17.9563 14.3955 17.9563 12.5388 17.9563ZM19.7469 17.9563C19.7469 20.4791 19.7469 23.0019 19.7469 25.6012C20.2154 25.6012 20.6839 25.6012 21.1666 25.6012C21.1666 23.0784 21.1666 20.5556 21.1666 17.9563C20.6981 17.9563 20.2296 17.9563 19.7469 17.9563ZM22.914 17.9563C22.914 20.4791 22.914 23.0019 22.914 25.6012C24.7161 25.6012 26.5181 25.6012 28.3747 25.6012C28.3747 23.0784 28.3747 20.5556 28.3747 17.9563C26.5727 17.9563 24.7707 17.9563 22.914 17.9563ZM30.1221 17.9563C30.1221 20.4791 30.1221 23.0019 30.1221 25.6012C30.5906 25.6012 31.0591 25.6012 31.5418 25.6012C31.5447 25.4394 31.5475 25.2777 31.5504 25.111C31.5565 24.899 31.5628 24.687 31.5692 24.475C31.5707 24.3683 31.5722 24.2617 31.5738 24.1518C31.5774 24.0494 31.5809 23.947 31.5845 23.8414C31.5868 23.7471 31.5891 23.6527 31.5914 23.5555C31.6511 23.3077 31.6511 23.3077 31.8493 23.1106C32.2182 22.9088 32.4576 22.9745 32.8524 23.0893C33.18 23.6354 33.18 23.6354 33.2893 25.6012C35.0913 25.6012 36.8933 25.6012 38.7499 25.6012C38.7499 23.0784 38.7499 20.5556 38.7499 17.9563C36.9479 17.9563 35.1459 17.9563 33.2893 17.9563C33.2532 18.6411 33.2172 19.3258 33.18 20.0314C32.9616 20.5774 32.9616 20.5774 32.7432 20.6866C32.0499 20.7371 32.0499 20.7371 31.7941 20.556C31.6051 20.2957 31.6044 20.1214 31.5952 19.8014C31.5913 19.6941 31.5874 19.5867 31.5834 19.4761C31.581 19.3643 31.5785 19.2524 31.576 19.1372C31.5704 18.9675 31.5704 18.9675 31.5647 18.7944C31.5557 18.5151 31.5486 18.2357 31.5418 17.9563C31.0733 17.9563 30.6048 17.9563 30.1221 17.9563ZM40.4973 17.9563C40.4973 20.4791 40.4973 23.0019 40.4973 25.6012C40.9298 25.6012 41.3623 25.6012 41.8078 25.6012C41.8078 23.0784 41.8078 20.5556 41.8078 17.9563C41.3754 17.9563 40.9429 17.9563 40.4973 17.9563ZM43.5552 17.9563C43.5324 18.9987 43.515 20.041 43.5043 21.0836C43.4992 21.5677 43.4922 22.0517 43.4811 22.5357C43.4704 23.0031 43.4645 23.4703 43.462 23.9378C43.4602 24.1159 43.4566 24.294 43.4513 24.4721C43.3875 25.4424 43.3875 25.4424 43.7682 26.2868C44.019 26.4546 44.262 26.5736 44.5382 26.6933C44.7261 26.8324 44.7261 26.8324 44.891 26.9779C46.7866 28.8684 46.7866 28.8684 49.055 29.8729C49.1533 29.8729 49.2517 29.8729 49.3531 29.8729C49.4595 29.8723 49.5658 29.8717 49.6754 29.8712C49.7842 29.871 49.893 29.8709 50.005 29.8707C50.3534 29.8701 50.7017 29.8687 51.05 29.8673C51.2857 29.8668 51.5215 29.8663 51.7573 29.8658C52.3361 29.8646 52.9148 29.8628 53.4936 29.8605C53.4248 27.9131 52.8514 26.0847 52.2786 24.236C52.1523 23.8246 52.0265 23.413 51.9006 23.0014C51.8536 22.8479 51.8536 22.8479 51.8056 22.6913C51.5979 22.0127 51.3949 21.3329 51.1959 20.6517C51.1704 20.5644 51.1449 20.4772 51.1187 20.3874C51.022 20.0558 50.9255 19.7242 50.8296 19.3924C50.7651 19.1693 50.7002 18.9463 50.6353 18.7234C50.5992 18.5983 50.563 18.4732 50.5258 18.3443C50.4622 18.0756 50.4622 18.0756 50.3264 17.9563C50.1153 17.9461 49.9038 17.9435 49.6925 17.9439C49.5569 17.9439 49.4214 17.9439 49.2817 17.9439C49.1326 17.9445 48.9836 17.9451 48.8346 17.9457C48.6829 17.9459 48.5313 17.946 48.3796 17.9461C47.9798 17.9465 47.5799 17.9476 47.1801 17.9488C46.7723 17.9499 46.3646 17.9504 45.9569 17.951C45.1563 17.9522 44.3558 17.954 43.5552 17.9563ZM2.7097 27.3486C2.7097 27.8171 2.7097 28.2857 2.7097 28.7684C2.82693 28.7686 2.94416 28.7689 3.06495 28.7692C5.91506 28.7756 8.76517 28.7839 11.6153 28.7941C12.9935 28.799 14.3718 28.8033 15.7501 28.8062C16.9512 28.8087 18.1522 28.8124 19.3532 28.8174C19.9894 28.82 20.6256 28.822 21.2618 28.8227C21.8602 28.8234 22.4586 28.8256 23.0571 28.8289C23.277 28.8299 23.497 28.8303 23.7169 28.8301C24.0167 28.8299 24.3163 28.8317 24.6161 28.834C24.7036 28.8335 24.7912 28.833 24.8813 28.8324C25.2373 28.837 25.4931 28.8546 25.8084 29.0272C25.972 29.2052 25.972 29.2052 26.0147 29.4761C26.0096 29.5737 26.0045 29.6712 25.9993 29.7718C25.9954 29.8702 25.9914 29.9686 25.9874 30.07C25.9823 30.145 25.9772 30.22 25.972 30.2974C25.5568 30.4358 25.1669 30.4233 24.7343 30.4238C24.6403 30.4244 24.5464 30.4249 24.4496 30.4255C24.1337 30.4272 23.8178 30.4281 23.5018 30.429C23.2758 30.43 23.0498 30.4311 22.8238 30.4323C22.2092 30.4352 21.5946 30.4375 20.98 30.4397C20.338 30.4421 19.6961 30.4451 19.0542 30.448C17.8382 30.4535 16.6221 30.4584 15.4061 30.4631C14.0218 30.4685 12.6376 30.4745 11.2534 30.4805C8.4055 30.4929 5.5576 30.5046 2.7097 30.5158C2.70416 31.3321 2.70033 32.1484 2.6977 32.9648C2.6966 33.2426 2.69511 33.5203 2.69322 33.7981C2.69057 34.1971 2.68933 34.5962 2.68836 34.9952C2.68724 35.1196 2.68611 35.2439 2.68495 35.372C2.68493 35.4879 2.68492 35.6038 2.6849 35.7231C2.68441 35.825 2.68393 35.9268 2.68343 36.0318C2.69712 36.3443 2.69712 36.3443 2.92812 36.7409C3.93725 36.7409 4.94637 36.7409 5.98608 36.7409C6.07843 36.4391 6.17078 36.1372 6.26593 35.8262C6.49834 35.1008 6.76105 34.4977 7.24032 33.8954C7.41366 33.6904 7.41366 33.6904 7.50994 33.45C7.65567 33.1901 7.792 33.1463 8.06112 33.0277C8.19971 32.9258 8.33618 32.8209 8.47067 32.7137C9.55232 31.8935 10.729 31.545 12.0815 31.5601C12.1866 31.561 12.2918 31.5619 12.4001 31.5629C13.7781 31.5954 14.8148 31.9975 15.9244 32.8092C15.9962 32.8609 16.068 32.9126 16.142 32.9658C17.34 33.9056 17.8604 35.311 18.2179 36.7409C24.3447 36.7409 30.4716 36.7409 36.7841 36.7409C36.9643 36.2003 37.1445 35.6597 37.3301 35.1027C37.9751 33.6899 38.9587 32.6709 40.3881 32.0448C40.4813 31.9998 40.5745 31.9549 40.6705 31.9087C42.016 31.3516 43.8576 31.3972 45.2131 31.8997C45.7538 32.1544 46.2416 32.4548 46.7224 32.8092C46.8022 32.8677 46.8821 32.9261 46.9643 32.9863C48.106 33.9001 48.7468 35.3276 49.0159 36.7409C49.6185 36.7463 50.221 36.7503 50.8237 36.7529C51.0287 36.754 51.2338 36.7555 51.4389 36.7574C51.7333 36.76 52.0277 36.7613 52.3221 36.7622C52.4602 36.7639 52.4602 36.7639 52.601 36.7656C52.8259 36.7657 53.0507 36.7543 53.2752 36.7409C53.5126 36.5483 53.5126 36.5483 53.5199 36.3096C53.5194 36.2228 53.5189 36.136 53.5184 36.0465C53.5184 35.9482 53.5184 35.8498 53.5183 35.7484C53.5167 35.5889 53.5167 35.5889 53.5149 35.4261C53.5146 35.3173 53.5143 35.2085 53.514 35.0965C53.5128 34.7481 53.51 34.3999 53.5073 34.0515C53.5062 33.8158 53.5052 33.58 53.5043 33.3442C53.5019 32.7654 53.4982 32.1867 53.4936 31.6079C53.3995 31.608 53.3995 31.608 53.3034 31.6082C52.6442 31.6084 51.9851 31.6041 51.3259 31.5972C51.0806 31.5953 50.8353 31.5944 50.59 31.5948C47.9211 31.5972 47.9211 31.5972 46.9408 30.8434C46.897 30.7867 46.8531 30.7299 46.8079 30.6714C46.5132 30.4358 46.2691 30.4747 45.896 30.4744C45.8229 30.4739 45.7497 30.4734 45.6743 30.4729C45.4285 30.4717 45.1828 30.4727 44.937 30.4738C44.7611 30.4733 44.5851 30.4727 44.4091 30.472C44.0299 30.4707 43.6507 30.4704 43.2716 30.4709C42.6723 30.4717 42.073 30.4699 41.4738 30.4678C40.2018 30.4637 38.9298 30.4623 37.6578 30.4612C36.2846 30.46 34.9115 30.4583 33.5384 30.4535C32.9424 30.4514 32.3464 30.451 31.7503 30.4518C31.3799 30.452 31.0095 30.4508 30.6391 30.4493C30.467 30.4488 30.2949 30.4489 30.1228 30.4497C29.8883 30.4506 29.654 30.4495 29.4195 30.4479C29.2225 30.4478 29.2224 30.4478 29.0214 30.4477C28.7023 30.4066 28.7023 30.4066 28.4996 30.2564C28.325 30.0084 28.2799 29.8363 28.2655 29.5329C28.5051 29.0308 28.5051 29.0308 28.8115 28.8776C29.0149 28.8661 29.2187 28.8616 29.4224 28.8603C29.5523 28.8592 29.6821 28.8582 29.8159 28.8571C29.9592 28.8564 30.1024 28.8558 30.2499 28.8552C30.4017 28.8541 30.5534 28.853 30.7051 28.8519C31.1178 28.8489 31.5305 28.8466 31.9432 28.8445C32.3742 28.8421 32.8052 28.8391 33.2362 28.8362C34.0527 28.8307 34.8692 28.8258 35.6857 28.8211C36.6151 28.8157 37.5445 28.8097 38.474 28.8036C40.3861 28.7912 42.2983 28.7795 44.2105 28.7684C43.873 28.4276 43.5384 28.1071 43.1594 27.8128C43.0769 27.748 42.9944 27.6832 42.9094 27.6165C42.5064 27.3358 42.172 27.335 41.6945 27.3352C41.4863 27.3348 41.4863 27.3348 41.274 27.3345C41.1192 27.3348 40.9643 27.3351 40.8095 27.3355C40.6457 27.3354 40.4818 27.3353 40.318 27.3352C39.8668 27.335 39.4155 27.3354 38.9642 27.3359C38.478 27.3364 37.9918 27.3362 37.5056 27.3362C36.6628 27.3361 35.8201 27.3365 34.9773 27.3371C33.7588 27.338 32.5403 27.3382 31.3218 27.3384C29.345 27.3386 27.3682 27.3393 25.3914 27.3404C23.4707 27.3414 21.5501 27.3421 19.6295 27.3426C19.452 27.3427 19.452 27.3427 19.271 27.3427C18.6773 27.3428 18.0837 27.343 17.4901 27.3431C12.5633 27.3442 7.6365 27.3462 2.7097 27.3486ZM8.94847 34.4611C8.12422 35.3512 7.63369 36.4732 7.62128 37.6888C7.69477 39.0192 8.19551 40.0878 9.16434 40.9972C10.2192 41.875 11.4017 42.191 12.7573 42.0923C13.9028 41.8881 14.987 41.2643 15.706 40.3449C16.4462 39.2184 16.7836 38.06 16.5085 36.7221C16.162 35.4551 15.5274 34.4819 14.3955 33.7922C12.5158 32.826 10.5461 32.9865 8.94847 34.4611ZM39.7465 34.4611C38.9719 35.299 38.4699 36.3581 38.4222 37.5054C38.4906 38.9768 38.9697 40.1106 40.0604 41.1094C41.0869 41.8903 42.2721 42.2266 43.5552 42.0923C44.7019 41.8826 45.7828 41.2671 46.504 40.3449C47.2442 39.2184 47.5816 38.06 47.3064 36.7221C46.96 35.4551 46.3254 34.4819 45.1934 33.7922C43.3138 32.826 41.3441 32.9865 39.7465 34.4611Z" fill="#703391" stroke="#703391" stroke-width="0.4"/>
<path d="M44.5107 34.4115C45.3098 34.884 45.9414 35.5465 46.3123 36.3995C46.5763 37.4996 46.5579 38.4965 45.9915 39.5053C45.414 40.3855 44.6514 40.941 43.6152 41.1678C42.6234 41.303 41.6675 41.1096 40.8243 40.5633C40.5308 40.3039 40.5308 40.3039 40.2783 40.0172C40.1837 39.9181 40.0891 39.819 39.9916 39.7169C39.3288 38.8889 39.3035 37.8699 39.4046 36.85C39.5923 36.0023 40.0625 35.3387 40.7151 34.775C41.8814 34.0511 43.2277 33.8132 44.5107 34.4115ZM41.4387 36.5838C41.1056 37.0834 41.079 37.5771 41.152 38.1606C41.3291 38.5265 41.3291 38.5265 41.5888 38.8159C41.6474 38.8969 41.706 38.978 41.7663 39.0616C42.1776 39.3646 42.6119 39.4461 43.1178 39.4711C43.8308 39.2724 44.2425 38.8762 44.6468 38.2698C44.7238 37.6993 44.7176 37.2127 44.4625 36.693C43.9903 36.1698 43.6409 35.8925 42.9267 35.833C42.2854 35.8424 41.8742 36.1138 41.4387 36.5838Z" fill="#703391" stroke="#703391" stroke-width="0.4"/>
<path d="M13.7138 34.4115C14.6249 34.9502 15.3174 35.7131 15.5973 36.7408C15.7088 37.9799 15.6115 39.0316 14.8328 40.0445C14.1639 40.7506 13.2318 41.188 12.2595 41.23C11.3085 41.1889 10.454 40.9402 9.73396 40.3039C9.65061 40.2093 9.56727 40.1147 9.4814 40.0172C9.3868 39.9181 9.29219 39.819 9.19472 39.7169C8.53191 38.8889 8.50664 37.8699 8.6077 36.85C8.79542 36.0023 9.2656 35.3387 9.91825 34.775C11.0845 34.0511 12.4309 33.8132 13.7138 34.4115ZM10.7032 36.5224C10.3204 37.0473 10.2761 37.5285 10.3551 38.1606C10.5323 38.5265 10.5323 38.5265 10.792 38.8159C10.8505 38.8969 10.9091 38.978 10.9694 39.0616C11.3807 39.3646 11.8151 39.4461 12.3209 39.4711C12.9563 39.2941 13.4107 38.9655 13.7531 38.3948C13.9312 37.964 13.9085 37.5253 13.8499 37.0684C13.6083 36.5852 13.3095 36.2827 12.867 35.9763C12.0228 35.6949 11.2919 35.8462 10.7032 36.5224Z" fill="#703391" stroke="#703391" stroke-width="0.4"/>
</svg>
