<svg width="56" height="56" viewBox="0 0 56 56" fill="none" xmlns="http://www.w3.org/2000/svg">
<path d="M24.4565 0C26.838 0 29.2195 0 31.6731 0C31.9684 0.757969 32.2637 1.51594 32.5679 2.29688C32.7058 2.65075 32.7058 2.65075 32.8465 3.01177C33.0404 3.50956 33.2339 4.00751 33.4274 4.5055C33.5264 4.76015 33.626 5.01459 33.7258 5.26897C33.779 5.40543 33.8321 5.54189 33.8869 5.68249C33.9322 5.79811 33.9775 5.91373 34.0242 6.03286C34.1174 6.3 34.1174 6.3 34.1174 6.53333C34.1851 6.54358 34.2528 6.55382 34.3224 6.56438C35.1658 6.71062 35.9091 6.99655 36.6927 7.33542C36.8129 7.3861 36.9331 7.43678 37.0569 7.489C38.0165 7.89701 38.0165 7.89701 38.2902 8.06722C38.7337 8.3369 38.7337 8.3369 39.2366 8.37372C39.4854 8.28822 39.713 8.18404 39.9482 8.06595C40.0355 8.02579 40.1227 7.98564 40.2127 7.94427C40.4912 7.81519 40.767 7.68123 41.043 7.54688C41.2248 7.46139 41.4066 7.37624 41.5886 7.29144C41.9486 7.12323 42.3081 6.95399 42.6671 6.7837C42.8435 6.70022 43.02 6.61676 43.1964 6.53333C43.2843 6.49166 43.3722 6.44998 43.4628 6.40705C43.7164 6.28777 43.9709 6.17077 44.2258 6.05436C44.3014 6.01835 44.377 5.98234 44.455 5.94523C44.9086 5.7409 45.1671 5.68463 45.6407 5.83333C45.8882 6.01982 45.8882 6.01982 46.136 6.26385C46.2296 6.35502 46.3231 6.44618 46.4195 6.5401C46.5187 6.63938 46.6179 6.73866 46.7201 6.84095C46.8229 6.94271 46.9257 7.04446 47.0316 7.1493C47.3039 7.41991 47.5749 7.69172 47.8457 7.96383C48.0122 8.13016 48.1799 8.29518 48.3481 8.45979C48.6708 8.77612 48.9907 9.09508 49.3099 9.41491C49.4105 9.51301 49.5112 9.61111 49.6148 9.71218C49.7062 9.80518 49.7975 9.89818 49.8916 9.994C49.9728 10.075 50.0541 10.156 50.1377 10.2394C50.2966 10.5 50.2966 10.5 50.2768 10.8488C50.1922 11.1564 50.0997 11.4346 49.9695 11.7252C49.9048 11.8712 49.9048 11.8712 49.8388 12.0202C49.7687 12.175 49.7687 12.175 49.6973 12.3329C49.6252 12.4952 49.6252 12.4952 49.5516 12.6607C49.3981 13.0054 49.2436 13.3496 49.089 13.6938C48.9353 14.0372 48.7819 14.3807 48.6288 14.7243C48.5337 14.9377 48.4382 15.1509 48.3424 15.364C48.2157 15.6474 48.0912 15.9315 47.9686 16.2167C47.9309 16.3041 47.8931 16.3916 47.8542 16.4816C47.6351 17.0135 47.6351 17.0135 47.7604 17.5716C47.8416 17.717 47.9257 17.8608 48.0123 18.0031C48.4072 18.717 48.7308 19.4304 49.0089 20.1979C49.0431 20.2905 49.0773 20.383 49.1125 20.4783C49.2861 20.9617 49.4173 21.4208 49.4818 21.9333C49.5509 21.9529 49.62 21.9724 49.6912 21.9925C50.4551 22.2146 51.1915 22.4833 51.9307 22.7769C52.0347 22.8178 52.1388 22.8587 52.2461 22.9009C52.6295 23.0518 53.0125 23.2036 53.3956 23.3552C54.6848 23.8641 54.6848 23.8641 56 24.3833C56 26.7703 56 29.1573 56 31.6167C55.2438 31.9126 54.4876 32.2086 53.7084 32.5135C53.4731 32.6057 53.2377 32.6978 52.9952 32.7928C52.4986 32.9872 52.0018 33.1811 51.5049 33.375C51.2509 33.4743 50.997 33.5741 50.7432 33.6741C50.6071 33.7274 50.4709 33.7807 50.3307 33.8356C50.2153 33.881 50.1 33.9264 49.9811 33.9732C49.7146 34.0667 49.7146 34.0667 49.4818 34.0667C49.4578 34.2014 49.4338 34.3362 49.409 34.475C49.2923 34.995 49.1275 35.4923 48.9435 35.9917C48.916 36.0674 48.8885 36.1431 48.8602 36.221C48.6974 36.6519 48.5218 37.0477 48.2797 37.4399C47.7006 38.4029 47.7006 38.4029 47.7056 39.4901C47.8975 40.0446 48.1666 40.5572 48.4415 41.074C48.5293 41.2511 48.6164 41.4286 48.7027 41.6065C48.8739 41.9568 49.0479 42.3055 49.2245 42.6531C49.4813 43.1619 49.7266 43.675 49.9615 44.1943C49.9973 44.2704 50.0331 44.3465 50.07 44.4249C50.2723 44.8803 50.3285 45.142 50.1802 45.6167C49.9941 45.8648 49.9941 45.8648 49.7506 46.1131C49.6597 46.2069 49.5687 46.3007 49.475 46.3973C49.376 46.4967 49.2769 46.5961 49.1749 46.6986C49.0734 46.8016 48.9718 46.9046 48.8673 47.0108C48.5973 47.2837 48.3261 47.5554 48.0546 47.8268C47.8887 47.9937 47.724 48.1618 47.5598 48.3304C47.2442 48.6538 46.926 48.9744 46.6069 49.2944C46.509 49.3953 46.4111 49.4961 46.3103 49.6C46.2175 49.6916 46.1247 49.7831 46.0291 49.8774C45.9483 49.9589 45.8675 50.0403 45.7843 50.1241C45.5243 50.2833 45.5243 50.2833 45.1763 50.2636C44.8695 50.1787 44.5918 50.086 44.302 49.9555C44.1563 49.8906 44.1563 49.8906 44.0076 49.8245C43.9046 49.7777 43.8017 49.7309 43.6956 49.6827C43.5338 49.6104 43.5338 49.6104 43.3687 49.5366C43.0247 49.3828 42.6813 49.2279 42.338 49.0729C41.9953 48.9189 41.6526 48.7652 41.3097 48.6117C41.0969 48.5164 40.8841 48.4207 40.6716 48.3246C40.3889 48.1976 40.1054 48.0729 39.8209 47.95C39.7338 47.9121 39.6468 47.8742 39.5571 47.8351C39.019 47.6142 39.019 47.6142 38.4528 47.7454C38.3033 47.8276 38.1556 47.913 38.0095 48.001C37.8468 48.0905 37.6839 48.1793 37.5207 48.2676C37.4389 48.3126 37.357 48.3576 37.2727 48.404C36.2807 48.927 35.2264 49.3007 34.1174 49.4667C34.098 49.5359 34.0785 49.6052 34.0584 49.6766C33.8368 50.4423 33.5687 51.1804 33.2758 51.9212C33.235 52.0255 33.1942 52.1299 33.1521 52.2374C33.0015 52.6216 32.8502 53.0056 32.6989 53.3896C32.3604 54.251 32.0219 55.1125 31.6731 56C29.2916 56 26.9102 56 24.4565 56C24.1613 55.242 23.866 54.4841 23.5617 53.7031C23.4698 53.4672 23.3779 53.2313 23.2832 52.9882C23.0892 52.4904 22.8957 51.9925 22.7023 51.4945C22.6032 51.2398 22.5036 50.9854 22.4039 50.731C22.3507 50.5946 22.2975 50.4581 22.2427 50.3175C22.1974 50.2019 22.1522 50.0863 22.1055 49.9671C22.0122 49.7 22.0122 49.7 22.0122 49.4667C21.8106 49.4306 21.8106 49.4306 21.6048 49.3937C21.086 49.2767 20.5899 49.1113 20.0917 48.9271C20.0157 48.8997 19.9398 48.8724 19.8615 48.8442C19.4317 48.6825 19.0487 48.5104 18.6675 48.2525C18.0866 47.8773 17.5217 47.5439 16.811 47.6441C15.9728 47.8855 15.2054 48.2896 14.4319 48.6865C14.1958 48.8009 13.9594 48.9146 13.7226 49.0276C13.2887 49.2357 12.8572 49.4477 12.4276 49.6646C12.2471 49.7544 12.0664 49.844 11.8857 49.9333C11.8091 49.9722 11.7324 50.0111 11.6534 50.0511C11.2074 50.2638 10.9591 50.3138 10.4889 50.1667C10.2414 49.9802 10.2414 49.9802 9.99364 49.7361C9.90009 49.645 9.80655 49.5538 9.71017 49.4599C9.61097 49.3606 9.51176 49.2613 9.40955 49.159C9.30676 49.0573 9.20397 48.9555 9.09806 48.8507C8.82576 48.5801 8.55472 48.3083 8.28392 48.0362C8.11742 47.8698 7.94973 47.7048 7.78154 47.5402C7.45884 47.2239 7.13897 46.9049 6.81973 46.5851C6.66881 46.4379 6.66881 46.4379 6.51483 46.2878C6.42349 46.1948 6.33214 46.1018 6.23803 46.006C6.15682 45.925 6.0756 45.844 5.99193 45.7606C5.83309 45.5 5.83309 45.5 5.85281 45.1512C5.93747 44.8436 6.02999 44.5654 6.16017 44.2748C6.20331 44.1775 6.24645 44.0801 6.2909 43.9798C6.33758 43.8766 6.38426 43.7734 6.43235 43.6671C6.48044 43.5589 6.52854 43.4508 6.57809 43.3393C6.73153 42.9946 6.88606 42.6504 7.0407 42.3063C7.19433 41.9628 7.34772 41.6193 7.50082 41.2757C7.59596 41.0623 7.69142 40.8491 7.78726 40.636C7.91398 40.3526 8.03839 40.0685 8.16102 39.7833C8.19884 39.6961 8.23665 39.6088 8.27562 39.5189C8.49607 38.9795 8.49607 38.9795 8.36517 38.412C8.28309 38.2623 8.19789 38.1142 8.1101 37.9677C8.02087 37.8047 7.93223 37.6414 7.84411 37.4778C7.79923 37.3958 7.75435 37.3138 7.70811 37.2293C7.18627 36.235 6.81342 35.1782 6.64786 34.0667C6.5787 34.0471 6.50954 34.0275 6.43828 34.0073C5.67636 33.7856 4.94087 33.5188 4.20308 33.2272C4.08616 33.1814 3.96924 33.1355 3.84878 33.0883C3.60407 32.9922 3.35944 32.896 3.11491 32.7995C2.73894 32.6511 2.36265 32.5037 1.98632 32.3563C1.74797 32.2626 1.50965 32.1689 1.27134 32.0751C1.15848 32.0309 1.04561 31.9867 0.929328 31.9411C0.825898 31.9002 0.722467 31.8593 0.615903 31.8171C0.524555 31.7811 0.433206 31.7451 0.33909 31.7081C0.129657 31.6167 0.129657 31.6167 0.0132609 31.5C0.0023355 31.2816 -0.00040846 31.0628 4.69588e-05 30.8442C5.57502e-05 30.704 6.45418e-05 30.5639 7.35998e-05 30.4195C0.000674356 30.267 0.00127511 30.1145 0.00189407 29.9574C0.00211107 29.8006 0.0022768 29.6438 0.00239315 29.487C0.00283831 29.0737 0.00398245 28.6604 0.00526861 28.2471C0.00645766 27.8256 0.00699057 27.4041 0.0075775 26.9826C0.00882715 26.1551 0.0108147 25.3275 0.0132609 24.5C0.687283 24.1493 1.366 23.8564 2.07612 23.5876C2.18138 23.5474 2.28663 23.5072 2.39508 23.4658C2.61616 23.3814 2.83733 23.2973 3.05858 23.2134C3.39569 23.0855 3.73245 22.9568 4.06918 22.8279C4.28506 22.7457 4.50095 22.6635 4.71686 22.5814C4.81667 22.5432 4.91648 22.5051 5.01931 22.4657C5.55729 22.2623 6.09243 22.0826 6.64786 21.9333C6.65809 21.8655 6.66831 21.7977 6.67884 21.7279C6.82474 20.8825 7.11001 20.1375 7.44809 19.3521C7.49865 19.2316 7.54922 19.1112 7.60132 18.987C8.01328 18.0136 8.01328 18.0136 8.18235 17.7602C8.40183 17.4098 8.5339 17.1725 8.46272 16.7543C8.34557 16.4328 8.20828 16.1302 8.05872 15.8225C7.98147 15.6526 7.98147 15.6526 7.90265 15.4792C7.73755 15.1181 7.5675 14.7597 7.39717 14.401C7.28551 14.1594 7.17419 13.9177 7.06321 13.6757C6.85854 13.2305 6.65188 12.7864 6.44301 12.3432C6.39829 12.2469 6.35358 12.1506 6.30751 12.0514C6.22875 11.8828 6.14841 11.7149 6.06583 11.5482C5.85349 11.101 5.80252 10.8551 5.94948 10.3833C6.13554 10.1352 6.13554 10.1352 6.37901 9.88687C6.46996 9.79311 6.56091 9.69935 6.65462 9.60274C6.75367 9.50331 6.85272 9.40388 6.95477 9.30143C7.10705 9.14688 7.10705 9.14688 7.26241 8.98921C7.53239 8.71628 7.80357 8.44461 8.07505 8.17319C8.24099 8.0063 8.40563 7.83822 8.56986 7.66964C8.88546 7.34619 9.20368 7.02558 9.52277 6.7056C9.62064 6.60475 9.71851 6.5039 9.81935 6.39999C9.91213 6.30844 10.0049 6.21688 10.1005 6.12255C10.1813 6.04115 10.2621 5.95975 10.3454 5.87588C10.6053 5.71667 10.6053 5.71667 10.9533 5.73643C11.2602 5.82129 11.5378 5.91402 11.8277 6.04451C11.9734 6.10937 11.9734 6.10937 12.1221 6.17554C12.2765 6.24572 12.2765 6.24572 12.434 6.31732C12.5419 6.36552 12.6498 6.41373 12.761 6.4634C13.1049 6.6172 13.4483 6.77208 13.7917 6.92708C14.1343 7.08106 14.4771 7.23481 14.8199 7.38827C15.0328 7.48363 15.2455 7.57931 15.4581 7.67537C15.7408 7.80238 16.0243 7.92712 16.3088 8.05C16.396 8.08786 16.4833 8.12571 16.5731 8.16472C17.1038 8.3843 17.1038 8.3843 17.6605 8.25872C17.8056 8.17735 17.9491 8.093 18.0911 8.00625C18.8033 7.61039 19.5151 7.28611 20.2808 7.00729C20.3731 6.97302 20.4655 6.93875 20.5606 6.90344C21.0429 6.72948 21.5009 6.59801 22.0122 6.53333C22.0317 6.46406 22.0512 6.39478 22.0713 6.3234C22.2928 5.55772 22.5609 4.81963 22.8538 4.07878C22.8946 3.97445 22.9355 3.87013 22.9776 3.76264C23.1281 3.37837 23.2795 2.99441 23.4308 2.61042C23.7693 1.74898 24.1078 0.887542 24.4565 0ZM36.0257 11.9725C35.7941 12.2455 35.5961 12.5353 35.3978 12.8333C34.9341 12.764 34.5294 12.6114 34.0965 12.4396C30.0519 10.8435 25.5044 10.9176 21.5048 12.6264C19.5691 13.493 17.9372 14.6191 16.4252 16.1C16.3249 16.1932 16.2247 16.2865 16.1215 16.3826C13.0758 19.2836 11.507 23.6069 11.3789 27.7527C11.3352 32.2581 13.1081 36.4731 16.1927 39.7145C19.3037 42.8871 23.622 44.6838 28.0576 44.7271C32.703 44.6767 36.9111 42.7827 40.1642 39.4882C43.1389 36.3765 44.7969 32.0553 44.7504 27.752C44.6364 24.127 43.4978 20.0188 40.8684 17.3833C40.9083 16.9956 41.0738 16.7786 41.3195 16.4865C41.9532 15.6605 42.1448 14.7981 42.0324 13.7667C41.8822 12.8211 41.3376 12.1741 40.6357 11.55C39.1245 10.4994 37.3196 10.6629 36.0257 11.9725Z" fill="#703391"/>
<path d="M39.7409 12.6672C40.2752 13.153 40.5385 13.6845 40.5847 14.4099C40.553 15.0034 40.3385 15.4349 39.9373 15.8683C39.4581 16.2463 39.0616 16.3556 38.4603 16.2881C37.7998 16.2803 37.5018 16.5324 37.0359 16.978C36.9452 17.0709 36.8544 17.1638 36.7609 17.2596C36.6161 17.4027 36.6161 17.4027 36.4684 17.5486C36.2657 17.7505 36.0645 17.9538 35.8646 18.1586C35.5589 18.4703 35.2473 18.775 34.9345 19.0796C34.7378 19.277 34.5416 19.4749 34.3457 19.6732C34.2526 19.7635 34.1595 19.8539 34.0636 19.9469C33.5916 20.4405 33.3643 20.7524 33.3689 21.4506C33.3787 21.5547 33.3885 21.6587 33.3986 21.7659C33.4367 22.2967 33.2341 22.6667 32.9062 23.0692C32.444 23.5315 32.0221 23.6779 31.3735 23.7045C30.7797 23.6633 30.3955 23.4357 29.949 23.0579C29.5499 22.5778 29.4261 22.2072 29.4616 21.5849C29.3784 21.5535 29.2952 21.5221 29.2095 21.4897C28.8759 21.3501 28.5717 21.1884 28.2576 21.0094C28.1413 20.9433 28.0251 20.8772 27.9052 20.8091C27.7851 20.7403 27.6649 20.6715 27.5411 20.6006C27.4209 20.5322 27.3007 20.4639 27.1769 20.3934C26.2492 19.8649 26.2492 19.8649 25.8917 19.6353C25.5192 19.4288 25.3375 19.5168 24.9221 19.6016C23.7945 19.6499 23.7945 19.6499 23.3781 19.5183C22.9236 19.4707 22.7011 19.6391 22.3105 19.8696C22.2403 19.9103 22.1702 19.9511 22.0979 19.9931C21.8744 20.1235 21.6523 20.2563 21.4302 20.3891C21.2809 20.4768 21.1315 20.5643 20.9819 20.6516C20.587 20.8829 20.1935 21.1167 19.8007 21.3516C19.6909 21.4137 19.5811 21.4758 19.4681 21.5398C19.2004 21.6774 19.2004 21.6774 19.1355 21.9368C19.1269 22.0228 19.1184 22.1088 19.1096 22.1974C19.0045 22.8064 18.7459 23.1629 18.2875 23.5683C17.774 23.8971 17.1323 23.8795 16.5416 23.8016C15.974 23.5066 15.4675 23.1385 15.2612 22.5183C15.1943 21.8629 15.1302 21.212 15.5086 20.6443C15.8908 20.2079 16.2555 19.9743 16.8462 19.9275C17.2966 19.9207 17.7115 19.9246 18.1507 20.032C18.6094 20.077 18.7809 19.977 19.171 19.7388C19.2911 19.6668 19.4112 19.5949 19.5349 19.5207C19.6586 19.4439 19.7823 19.3672 19.9098 19.2881C20.0331 19.2135 20.1563 19.139 20.2833 19.0622C20.5215 18.9182 20.7594 18.7736 20.9969 18.6285C22.0782 17.9683 22.0782 17.9683 22.3614 17.9683C22.3542 17.848 22.347 17.7276 22.3396 17.6037C22.3664 17.0489 22.4803 16.6799 22.8811 16.2825C23.4738 15.7756 23.8307 15.7097 24.5929 15.7197C25.1538 15.7741 25.5198 15.9566 25.8897 16.4024C26.2012 16.8837 26.2496 17.273 26.2025 17.8516C26.2829 17.8812 26.3633 17.9108 26.4461 17.9413C26.8318 18.105 27.1804 18.304 27.542 18.5161C27.687 18.6004 27.832 18.6847 27.9771 18.769C28.2038 18.9013 28.4304 19.0339 28.6568 19.1669C28.8765 19.2957 29.0967 19.4237 29.317 19.5515C29.5135 19.6666 29.5135 19.6666 29.714 19.784C30.0339 19.978 30.0339 19.978 30.3928 19.9516C30.5476 19.8939 30.5476 19.8939 30.7056 19.8349C31.0911 19.7183 31.0911 19.7183 31.5133 19.7699C32.1087 19.7747 32.4018 19.4591 32.8169 19.0635C32.9111 18.9687 33.0052 18.8739 33.1022 18.7763C33.2013 18.6789 33.3005 18.5815 33.4027 18.4811C33.6115 18.2745 33.8191 18.0666 34.0256 17.8576C34.3408 17.5402 34.6616 17.2296 34.9834 16.919C35.186 16.7169 35.3883 16.5145 35.5901 16.3117C35.6859 16.22 35.7817 16.1283 35.8804 16.0338C36.5143 15.3775 36.6695 14.8975 36.6677 13.9838C36.6824 13.5185 36.8275 13.2857 37.1438 12.9516C37.9839 12.3025 38.7753 12.2107 39.7409 12.6672Z" fill="#703391"/>
<path d="M36.5618 20.3008C37.9061 20.3008 39.2505 20.3008 40.6356 20.3008C40.6356 24.5743 40.6356 28.8478 40.6356 33.2508C39.2913 33.2508 37.9469 33.2508 36.5618 33.2508C36.5618 28.9773 36.5618 24.7038 36.5618 20.3008Z" fill="#703391"/>
<path d="M22.245 22.8672C23.5894 22.8672 24.9338 22.8672 26.3189 22.8672C26.3189 26.2937 26.3189 29.7202 26.3189 33.2505C24.9745 33.2505 23.6301 33.2505 22.245 33.2505C22.245 29.824 22.245 26.3975 22.245 22.8672Z" fill="#703391"/>
<path d="M29.3452 25.3164C30.6895 25.3164 32.0339 25.3164 33.419 25.3164C33.419 27.9344 33.419 30.5524 33.419 33.2497C32.0747 33.2497 30.7303 33.2497 29.3452 33.2497C29.3452 30.6317 29.3452 28.0137 29.3452 25.3164Z" fill="#703391"/>
<path d="M15.1448 26.3672C16.4892 26.3672 17.8335 26.3672 19.2187 26.3672C19.2187 28.6387 19.2187 30.9102 19.2187 33.2505C17.8743 33.2505 16.5299 33.2505 15.1448 33.2505C15.1448 30.979 15.1448 28.7075 15.1448 26.3672Z" fill="#703391"/>
</svg>
