<svg width="34" height="54" viewBox="0 0 34 54" fill="none" xmlns="http://www.w3.org/2000/svg">
<path d="M10.844 23.9294C10.4484 23.9294 10.0529 23.7744 9.75121 23.4642L6.66031 20.2877C6.05675 19.6675 6.05675 18.6619 6.66031 18.0416L9.75121 14.8652C10.3547 14.2449 11.3332 14.2449 11.9368 14.8652C12.5403 15.4854 12.5403 16.491 11.9368 17.1112L9.93863 19.1647L11.9367 21.2182C12.5402 21.8385 12.5402 22.844 11.9367 23.4643C11.635 23.7744 11.2395 23.9294 10.844 23.9294Z" fill="#703391"/>
<path d="M23.2076 23.8235C22.8121 23.8235 22.4165 23.6685 22.1148 23.3583C21.5113 22.738 21.5113 21.7325 22.1148 21.1122L24.1129 19.0588L22.1147 17.0053C21.5112 16.3851 21.5112 15.3795 22.1147 14.7593C22.7182 14.139 23.6968 14.139 24.3003 14.7593L27.3912 17.9357C27.9948 18.556 27.9948 19.5616 27.3912 20.1818L24.3003 23.3583C23.9986 23.6685 23.6031 23.8235 23.2076 23.8235Z" fill="#703391"/>
<path d="M15.8923 23.9299C15.7156 23.9299 15.536 23.8985 15.3605 23.8323C14.5591 23.5304 14.1477 22.618 14.4416 21.7944L16.7082 15.4415C17.0021 14.6178 17.89 14.195 18.6912 14.4971C19.4925 14.7991 19.904 15.7115 19.6102 16.535L17.3435 22.888C17.1139 23.5311 16.5222 23.9299 15.8923 23.9299Z" fill="#703391"/>
<path d="M28.9671 54H5.03293C2.25781 54 0 51.6798 0 48.8278V5.17225C0 2.32031 2.25781 0 5.03293 0H28.9672C31.7423 0 34 2.32031 34 5.17225V48.8279C34 51.6798 31.7423 54 28.9671 54ZM5.03293 3.17647C3.96213 3.17647 3.09091 4.07181 3.09091 5.17225V48.8279C3.09091 49.9284 3.96213 50.8236 5.03293 50.8236H28.9672C30.0381 50.8236 30.9092 49.9284 30.9092 48.8279V5.17225C30.9091 4.07181 30.038 3.17647 28.9671 3.17647H5.03293Z" fill="#703391"/>
<path d="M32.4545 46.0589H1.54545C0.691951 46.0589 0 45.3477 0 44.4706C0 43.5935 0.691951 42.8824 1.54545 42.8824H32.4545C33.308 42.8824 34 43.5935 34 44.4706C34 45.3477 33.308 46.0589 32.4545 46.0589Z" fill="#703391"/>
<path d="M20.0909 9.52944H13.9091C13.0556 9.52944 12.3636 8.81833 12.3636 7.9412C12.3636 7.06407 13.0556 6.35297 13.9091 6.35297H20.0909C20.9444 6.35297 21.6364 7.06407 21.6364 7.9412C21.6364 8.81833 20.9444 9.52944 20.0909 9.52944Z" fill="#703391"/>
<path d="M26.2727 33.3529H13.9091C13.0556 33.3529 12.3636 32.6418 12.3636 31.7647C12.3636 30.8876 13.0556 30.1765 13.9091 30.1765H26.2727C27.1262 30.1765 27.8182 30.8876 27.8182 31.7647C27.8182 32.6418 27.1262 33.3529 26.2727 33.3529Z" fill="#703391"/>
<path d="M7.72726 33.3529C7.67678 33.3529 7.62526 33.3507 7.57478 33.3455C7.52532 33.3402 7.47484 33.3318 7.42538 33.3222C7.37593 33.3115 7.32647 33.2989 7.27908 33.2841C7.23066 33.2683 7.18223 33.2513 7.13587 33.2312C7.0895 33.2112 7.04417 33.1889 6.99987 33.1645C6.95454 33.1402 6.91126 33.1138 6.86902 33.0851C6.82781 33.0565 6.7866 33.0258 6.74745 32.9929C6.70829 32.9601 6.67017 32.9242 6.63411 32.8881C6.34666 32.5917 6.18181 32.1829 6.18181 31.7647C6.18181 31.7128 6.18387 31.6599 6.18902 31.608C6.19417 31.5573 6.20241 31.5053 6.21169 31.4545C6.22199 31.4038 6.23435 31.3528 6.24878 31.3031C6.26423 31.2544 6.28072 31.2046 6.30029 31.1569C6.31987 31.1093 6.34151 31.0617 6.3652 31.0172C6.3889 30.9707 6.41466 30.9262 6.44248 30.8827C6.47029 30.8404 6.50017 30.798 6.53211 30.7578C6.56405 30.7174 6.59908 30.6784 6.63411 30.6412C6.67017 30.6052 6.70829 30.5692 6.74745 30.5364C6.7866 30.5035 6.82781 30.4728 6.86902 30.4444C6.91126 30.4157 6.95454 30.3882 6.99884 30.3638C7.04314 30.3405 7.0895 30.3173 7.13587 30.2981C7.18223 30.2781 7.23066 30.2601 7.27805 30.2452C7.32648 30.2304 7.37593 30.2177 7.42538 30.2072C7.47484 30.1965 7.52532 30.1892 7.57478 30.1838C7.67575 30.1732 7.77878 30.1732 7.87975 30.1838C7.9292 30.1892 7.97969 30.1965 8.02914 30.2072C8.0786 30.2178 8.12805 30.2305 8.17648 30.2452C8.22387 30.2601 8.27229 30.2781 8.31866 30.2981C8.36502 30.3173 8.41035 30.3405 8.45466 30.3638C8.49999 30.3881 8.54326 30.4157 8.58551 30.4444C8.62672 30.4729 8.66793 30.5037 8.70708 30.5364C8.74623 30.5693 8.78435 30.6052 8.82041 30.6412C8.85544 30.6784 8.89048 30.7174 8.92242 30.7578C8.95435 30.798 8.98423 30.8403 9.01205 30.8827C9.03987 30.9261 9.06563 30.9706 9.08932 31.0172C9.11302 31.0617 9.13466 31.1093 9.15423 31.1569C9.17381 31.2046 9.19029 31.2544 9.20575 31.3031C9.22017 31.3528 9.23254 31.4037 9.24284 31.4545C9.25211 31.5053 9.26035 31.5573 9.2655 31.608C9.26963 31.6599 9.27272 31.7128 9.27272 31.7647C9.27272 32.1829 9.10787 32.5917 8.82041 32.888C8.78435 32.9241 8.74623 32.9601 8.70708 32.9928C8.66793 33.0258 8.62672 33.0565 8.58551 33.085C8.54326 33.1137 8.49999 33.1401 8.45466 33.1644C8.41035 33.1887 8.36502 33.211 8.31866 33.2311C8.27229 33.2512 8.22387 33.2682 8.17648 33.284C8.12805 33.2989 8.0786 33.3115 8.02914 33.3221C7.97969 33.3317 7.9292 33.3401 7.87975 33.3454C7.82926 33.3507 7.77775 33.3529 7.72726 33.3529Z" fill="#703391"/>
<path d="M26.2727 39.7059H13.9091C13.0556 39.7059 12.3636 38.9948 12.3636 38.1177C12.3636 37.2405 13.0556 36.5294 13.9091 36.5294H26.2727C27.1262 36.5294 27.8182 37.2405 27.8182 38.1177C27.8182 38.9948 27.1262 39.7059 26.2727 39.7059Z" fill="#703391"/>
<path d="M7.72726 39.7059C7.67678 39.7059 7.62629 39.7036 7.57581 39.6985C7.52532 39.6932 7.47484 39.6847 7.42538 39.6752C7.37593 39.6645 7.32647 39.6519 7.27908 39.6371C7.23066 39.6213 7.18223 39.6042 7.13587 39.5841C7.0895 39.5641 7.04417 39.5419 6.99987 39.5174C6.95454 39.4932 6.91126 39.4667 6.86902 39.438C6.82781 39.4094 6.7866 39.3776 6.74745 39.3459C6.70829 39.3121 6.67017 39.2772 6.63411 39.24C6.59908 39.204 6.56405 39.1648 6.53211 39.1246C6.50017 39.0843 6.47029 39.042 6.44248 38.9996C6.41466 38.9562 6.3889 38.9118 6.3652 38.8651C6.34151 38.8195 6.31987 38.7729 6.30029 38.7254C6.28072 38.6778 6.26423 38.6279 6.24878 38.5792C6.23435 38.5294 6.22199 38.4787 6.21169 38.4278C6.20241 38.377 6.19417 38.3251 6.18902 38.2742C6.18387 38.2225 6.18181 38.1695 6.18181 38.1176C6.18181 38.0658 6.18387 38.0128 6.18902 37.9609C6.19417 37.9102 6.20241 37.8582 6.21169 37.8074C6.22199 37.7567 6.23435 37.7058 6.24878 37.656C6.26423 37.6073 6.28072 37.5575 6.30029 37.5099C6.31987 37.4622 6.34151 37.4146 6.3652 37.369C6.3889 37.3235 6.41466 37.2791 6.44248 37.2356C6.47029 37.1922 6.50017 37.1509 6.53211 37.1107C6.56405 37.0704 6.59908 37.0313 6.63411 36.9941C6.92157 36.6987 7.32029 36.5293 7.72726 36.5293C8.13423 36.5293 8.53296 36.6987 8.82041 36.9941C8.85544 37.0313 8.89048 37.0704 8.92242 37.1107C8.95435 37.1509 8.98423 37.1922 9.01205 37.2356C9.03987 37.2791 9.06563 37.3235 9.08932 37.369C9.11302 37.4146 9.13466 37.4622 9.15423 37.5099C9.17381 37.5575 9.19029 37.6073 9.20575 37.656C9.22017 37.7058 9.23254 37.7566 9.24284 37.8074C9.25211 37.8582 9.26035 37.9102 9.2655 37.9609C9.27066 38.0128 9.27272 38.0658 9.27272 38.1176C9.27272 38.1695 9.27066 38.2225 9.2655 38.2742C9.26035 38.3251 9.25211 38.377 9.24284 38.4278C9.23254 38.4786 9.22017 38.5294 9.20575 38.5792C9.19029 38.6279 9.17381 38.6778 9.15423 38.7254C9.13466 38.7729 9.11302 38.8196 9.08932 38.8651C9.06563 38.9116 9.03987 38.9561 9.01205 38.9996C8.98423 39.0419 8.95435 39.0843 8.92242 39.1246C8.89048 39.1648 8.85544 39.204 8.82041 39.24C8.78435 39.2772 8.74623 39.3121 8.70708 39.3459C8.66793 39.3776 8.62672 39.4095 8.58551 39.438C8.54326 39.4667 8.49999 39.4932 8.45466 39.5174C8.41035 39.5418 8.36502 39.564 8.31866 39.5841C8.27229 39.6042 8.22387 39.6213 8.17545 39.6371C8.12805 39.652 8.0786 39.6646 8.02914 39.6752C7.97969 39.6847 7.9292 39.6932 7.87975 39.6985C7.82926 39.7036 7.77775 39.7059 7.72726 39.7059Z" fill="#703391"/>
</svg>
