<svg width="86" height="86" viewBox="0 0 86 86" fill="none" xmlns="http://www.w3.org/2000/svg">
<circle cx="43" cy="43" r="43" fill="#703391" fill-opacity="0.1"/>
<path d="M30.7014 22.4733L27.4843 25.6822H29.6749C29.958 25.6822 30.2171 25.5689 30.3985 25.386C30.5859 25.1991 30.6995 24.9426 30.6995 24.6583V22.4733L30.7014 22.4733ZM47.8753 48.7865C47.3112 48.7865 46.8548 48.3312 46.8548 47.7686C46.8548 47.2059 47.3113 46.7506 47.8753 46.7506H50.9151C51.4792 46.7506 51.9356 47.2059 51.9356 47.7686C51.9356 48.3312 51.4792 48.7865 50.9151 48.7865H47.8753ZM47.8753 58.0095C47.3112 58.0095 46.8548 57.5543 46.8548 56.9916C46.8548 56.4289 47.3113 55.9737 47.8753 55.9737H50.9151C51.4792 55.9737 51.9356 56.429 51.9356 56.9916C51.9356 57.5543 51.4792 58.0095 50.9151 58.0095H47.8753ZM36.2686 61.1528C35.7045 61.1528 35.248 60.6976 35.248 60.1349C35.248 59.5723 35.7045 59.117 36.2686 59.117H56.871C57.4352 59.117 57.8916 59.5723 57.8916 60.1349C57.8916 60.6976 57.4351 61.1528 56.871 61.1528H36.2686ZM45.1903 55.9756C45.7544 55.9756 46.2108 56.4309 46.2108 56.9935C46.2108 57.5562 45.7544 58.0115 45.1903 58.0115H36.2686C35.7045 58.0115 35.248 57.5562 35.248 56.9935C35.248 56.4309 35.7045 55.9756 36.2686 55.9756H45.1903ZM28.2633 58.6139C27.9683 58.1387 28.1178 57.5124 28.5942 57.2182C29.0706 56.924 29.6985 57.0731 29.9935 57.5482L30.2327 57.9359L31.2313 55.6038C31.4506 55.0889 32.0486 54.8483 32.5668 55.067C33.0831 55.2857 33.3243 55.8822 33.105 56.3991L31.3349 60.5345C31.2532 60.7194 31.1177 60.8864 30.9323 60.9997C30.4559 61.2939 29.828 61.1448 29.533 60.6697L28.2653 58.6159L28.2633 58.6139ZM36.2686 51.9296C35.7045 51.9296 35.248 51.4743 35.248 50.9117C35.248 50.349 35.7045 49.8937 36.2686 49.8937H56.871C57.4352 49.8937 57.8916 50.349 57.8916 50.9117C57.8916 51.4743 57.4351 51.9296 56.871 51.9296H36.2686ZM45.1903 46.7524C45.7544 46.7524 46.2108 47.2077 46.2108 47.7703C46.2108 48.333 45.7544 48.7882 45.1903 48.7882H36.2686C35.7045 48.7882 35.248 48.333 35.248 47.7703C35.248 47.2077 35.7045 46.7524 36.2686 46.7524H45.1903ZM28.2633 49.3907C27.9683 48.9155 28.1178 48.2892 28.5942 47.995C29.0706 47.7007 29.6985 47.8498 29.9935 48.325L30.2327 48.7127L31.2313 46.3806C31.4506 45.8657 32.0486 45.6251 32.5668 45.8438C33.0831 46.0625 33.3243 46.6589 33.105 47.1759L31.3349 51.3112C31.2532 51.4961 31.1177 51.6631 30.9323 51.7765C30.4559 52.0707 29.828 51.9216 29.533 51.4464L28.2653 49.3926L28.2633 49.3907ZM35.3317 38.6667H39.388V37.1C39.388 36.5373 39.8445 36.0821 40.4086 36.0821H41.9792V32.0481H40.4086C39.8444 32.0481 39.388 31.5928 39.388 31.0301V25.8611C39.388 25.2984 39.8445 24.8431 40.4086 24.8431H45.5909C46.1551 24.8431 46.6115 25.2984 46.6115 25.8611V31.0301C46.6115 31.5928 46.155 32.0481 45.5909 32.0481H44.0203V36.0821H45.5909C46.1551 36.0821 46.6115 36.5374 46.6115 37.1V38.6667H50.6678V37.1C50.6678 36.5373 51.1243 36.0821 51.6884 36.0821H56.8707C57.4348 36.0821 57.8913 36.5374 57.8913 37.1V42.2691C57.8913 42.8318 57.4348 43.287 56.8707 43.287H51.6884C51.1242 43.287 50.6678 42.8318 50.6678 42.2691V40.7024H46.6115V42.2691C46.6115 42.8318 46.155 43.287 45.5909 43.287H40.4086C39.8444 43.287 39.388 42.8318 39.388 42.2691V40.7024H35.3317V42.2691C35.3317 42.8318 34.8752 43.287 34.3111 43.287H29.1288C28.5646 43.287 28.1082 42.8318 28.1082 42.2691V37.1C28.1082 36.5373 28.5647 36.0821 29.1288 36.0821H34.3111C34.8753 36.0821 35.3317 36.5374 35.3317 37.1V38.6667ZM55.8505 38.118H52.7091V41.2513H55.8505V38.118ZM44.5708 38.118H41.4294V41.2513H44.5708V38.118ZM33.2911 38.118H30.1497V41.2513H33.2911V38.118ZM44.5708 26.8809H41.4294V30.0142H44.5708V26.8809ZM30.9806 19.3161C31.1799 19.1173 31.3952 19.008 31.7201 19H57.9198C59.038 19 60.0585 19.4573 60.798 20.1949L60.804 20.2009C61.5415 20.9385 62 21.9544 62 23.0698V62.9302C62 64.0456 61.5415 65.0635 60.802 65.8011L60.796 65.8071C60.0565 66.5427 59.038 67 57.9198 67H28.0802C26.962 67 25.9415 66.5427 25.202 65.8051L25.196 65.7991C24.4585 65.0615 24 64.0456 24 62.9302V26.6997C24.008 26.4035 24.1056 26.1729 24.3169 25.9622L30.9822 19.314L30.9806 19.3161ZM26.0392 27.7202V62.9328C26.0392 63.4934 26.2685 64.0044 26.6352 64.3702C27.006 64.74 27.5163 64.9686 28.0803 64.9686H57.9199C58.482 64.9686 58.9943 64.74 59.361 64.3742C59.7317 64.0044 59.961 63.4954 59.961 62.9328V23.0723C59.961 22.5116 59.7317 22.0007 59.365 21.6349C58.9942 21.2651 58.4839 21.0364 57.9199 21.0364H32.7407V24.6609C32.7407 25.4979 32.3979 26.2613 31.8418 26.816L31.8358 26.822C31.2797 27.3767 30.5122 27.7186 29.6731 27.7186H26.0393L26.0392 27.7202Z" fill="#703391"/>
</svg>
