<svg width="52" height="56" viewBox="0 0 52 56" fill="none" xmlns="http://www.w3.org/2000/svg">
<path d="M39.6013 1.39551C39.353 1.14337 39.0162 1 38.6622 1H19.4817C16.7479 1.00247 14.5354 3.22969 14.5305 5.97607V23.616H13.3382C12.2246 23.6135 11.3002 24.4787 11.2215 25.5936L11.1502 26.5032H11.1478C9.83993 26.968 8.61322 27.6354 7.50941 28.4808L6.71046 28.0532C5.73693 27.5291 4.52739 27.8455 3.93002 28.7774L1.34625 32.7993H1.34871C0.739032 33.7263 0.947993 34.9722 1.82563 35.647L2.53364 36.2007C2.07147 38.2377 2.07147 40.3536 2.53364 42.3905L1.82563 42.9442C0.960284 43.6166 0.748888 44.8452 1.34133 45.7722L3.93001 49.7941C4.52494 50.7285 5.73692 51.0449 6.71045 50.5183L7.5094 50.0907C8.61566 50.9336 9.84238 51.5986 11.1478 52.0683L11.2215 53.0224C11.3002 54.1397 12.2246 55.0025 13.3382 55H18.1369C19.2506 55.0025 20.1749 54.1397 20.2536 53.0224L20.3249 52.1202H20.3274C21.6303 51.653 22.857 50.9855 23.9584 50.1426L24.7647 50.5702C25.7382 51.0968 26.9502 50.7828 27.5451 49.846L30.1682 45.8241H30.1658C30.7705 44.8946 30.5591 43.6512 29.6815 42.9764L28.9661 42.4226C29.4381 40.3883 29.4381 38.2697 28.9661 36.2329L29.6815 35.6792C30.5591 35.0043 30.7705 33.7634 30.1658 32.8315L27.5426 28.8096L27.5451 28.812C26.9502 27.8751 25.7382 27.5587 24.7647 28.0853L23.9584 28.513V28.5154C22.8595 27.6676 21.6327 27.0001 20.3274 26.5379L20.2561 25.6282H20.2536C20.1749 24.5109 19.2506 23.6481 18.1369 23.6506H17.1536V5.97589C17.1536 4.6855 18.1959 3.63742 19.4817 3.63742H37.1473V9.96564C37.1522 12.7145 39.3697 14.9417 42.1034 14.9417H48.3895L48.3919 46.3259C48.3919 47.6187 47.3496 48.6693 46.0639 48.6718H32.769C32.0438 48.6718 31.4587 49.2626 31.4587 49.9918C31.4587 50.7185 32.0438 51.3093 32.769 51.3093H46.0513C48.785 51.3068 51 49.0747 51 46.3258V13.6241C51 13.278 50.8672 12.9468 50.6263 12.6996L39.6013 1.39551ZM17.7121 27.0248C17.7907 27.8801 18.3636 28.6069 19.1723 28.8763C20.399 29.2842 21.5397 29.9121 22.5428 30.7303C23.2016 31.2618 24.1137 31.3508 24.8635 30.9528L25.5592 30.6116L27.6513 33.8623L27.0416 34.3369L27.0392 34.3344C26.3705 34.8535 26.073 35.7212 26.2869 36.5443C26.7491 38.3588 26.7491 40.2597 26.2869 42.0741C26.0755 42.8973 26.3705 43.7674 27.0392 44.289L27.6488 44.7562L25.5568 48.0068L24.861 47.6385H24.8635C24.1137 47.2405 23.2016 47.332 22.5428 47.8684C21.5373 48.6842 20.3966 49.3145 19.1723 49.7273C18.3635 49.9918 17.7883 50.7186 17.7121 51.5739L17.6457 52.3452H13.7983L13.7319 51.5739C13.6557 50.7186 13.0805 49.9918 12.2692 49.7273C11.0474 49.3145 9.90674 48.6891 8.90123 47.8758C8.24237 47.3369 7.33033 47.2479 6.58053 47.6434L5.88479 48.0118L3.79273 44.7611L4.4024 44.2865V44.289C5.07108 43.7724 5.36857 42.9022 5.15711 42.0815C4.69493 40.2671 4.69493 38.3637 5.15711 36.5493C5.36853 35.7286 5.07107 34.8584 4.4024 34.3418L3.79273 33.8672L5.88479 30.6116L6.58053 30.9874C7.33033 31.3779 8.24237 31.284 8.90123 30.7501C9.90428 29.9367 11.0449 29.3114 12.2692 28.9035C13.0805 28.6316 13.6533 27.9048 13.7319 27.052L13.7983 26.2807H17.6457L17.7121 27.0248ZM39.7712 9.96582V5.35065L46.5687 12.3041H42.092C40.8112 12.2967 39.7736 11.2537 39.7712 9.96582ZM43.3186 24.4688V24.4664C43.3186 24.8174 43.1785 25.1511 42.9327 25.3983C42.6868 25.6455 42.3549 25.7864 42.0058 25.7864H26.1615C25.4363 25.7864 24.8512 25.1956 24.8512 24.4664C24.8512 23.7397 25.4363 23.1489 26.1615 23.1489H41.9932C42.7037 23.1489 43.2863 23.7199 43.3035 24.4343L43.3186 24.4688ZM43.3186 31.8918V31.8894C43.3186 32.2379 43.1785 32.5741 42.9327 32.8213C42.6868 33.0685 42.3549 33.207 42.0058 33.207H34.4612C33.736 33.207 33.151 32.6186 33.151 31.8894C33.151 31.1602 33.736 30.5719 34.4612 30.5719H41.9939C42.7043 30.5719 43.287 31.1404 43.3042 31.8573L43.3186 31.8918ZM43.3186 39.3199V39.3174C43.3186 39.6685 43.1785 40.0021 42.9327 40.2494C42.6868 40.4966 42.3549 40.6375 42.0058 40.6375H34.4612C33.736 40.6375 33.151 40.0467 33.151 39.3175C33.151 38.5907 33.736 37.9999 34.4612 37.9999H41.9939C42.7043 37.9999 43.287 38.571 43.3042 39.2853L43.3186 39.3199ZM8.2132 39.3199V39.3174C8.22549 42.3777 10.0693 45.129 12.8866 46.2886C15.7014 47.4479 18.9342 46.7879 21.0781 44.6176C23.2218 42.4472 23.8561 39.1916 22.6834 36.3687C21.5108 33.5458 18.7623 31.7091 15.7191 31.7189C11.5669 31.7264 8.20414 35.1105 8.1991 39.2856L8.2132 39.3199ZM15.7332 34.3883H15.7308C17.7146 34.3859 19.5044 35.5847 20.2664 37.4264C21.0285 39.268 20.6106 41.3914 19.2069 42.8029C17.8056 44.2144 15.6963 44.6371 13.8624 43.8732C12.0309 43.1119 10.8337 41.3123 10.8337 39.3174C10.8263 38.0073 11.3352 36.7491 12.2521 35.8172C13.1691 34.8852 14.4155 34.3587 15.7184 34.3538L15.7332 34.3883Z" fill="#703391" stroke="#703391"/>
</svg>
