<svg width="86" height="86" viewBox="0 0 86 86" fill="none" xmlns="http://www.w3.org/2000/svg">
<circle cx="43" cy="43" r="43" fill="#703391" fill-opacity="0.1"/>
<path d="M67.3356 48.2133H65.4781C65.3166 47.6392 65.0914 47.0873 64.8044 46.5638L66.1178 45.2336C66.3769 44.9708 66.3769 44.5423 66.1178 44.2794L64.0451 42.173C63.9195 42.0457 63.7521 41.9749 63.5747 41.9749C63.3973 41.9749 63.2279 42.0457 63.1044 42.173L61.793 43.5072C61.2768 43.2161 60.7327 42.9857 60.1666 42.8219V40.9379L60.1646 28.2047C60.1646 26.5531 58.8392 25.2088 57.2109 25.2088L41.0595 25.2068V24.1596C41.0595 23.7877 40.7605 23.4844 40.3938 23.4844H37.5737C37.207 23.4844 36.908 23.7877 36.908 24.1596V26.26L34.5423 24.4467C34.5343 22.5444 33.0076 21 31.1302 21C29.2507 21 27.7201 22.5525 27.7201 24.4608C27.7201 24.7175 27.748 24.9662 27.7998 25.2068H20.9537C19.3254 25.2068 18 26.5511 18 28.2047V54.0292C18 55.6808 19.3254 57.0251 20.9537 57.0251H36.0113V60.5547H29.8131C29.4464 60.5547 29.1474 60.8579 29.1474 61.2299V64.3248C29.1474 64.6968 29.4464 65 29.8131 65H48.3524C48.7191 65 49.0181 64.6968 49.0181 64.3248V61.2299C49.0181 60.8579 48.7191 60.5547 48.3524 60.5547H42.1522V57.0251H50.4872L52.0198 58.5797C52.1454 58.705 52.3128 58.7778 52.4902 58.7778C52.6675 58.7778 52.837 58.707 52.9605 58.5797L54.2739 57.2455C54.7901 57.5366 55.3342 57.767 55.9022 57.9308V59.8148C55.9022 60.1868 56.2012 60.49 56.5679 60.49H59.4997C59.8664 60.49 60.1654 60.1868 60.1654 59.8148V57.9308C60.7314 57.767 61.2755 57.5366 61.7917 57.2455L63.1031 58.5797C63.2267 58.707 63.3961 58.7778 63.5734 58.7778C63.7508 58.7778 63.9182 58.707 64.0438 58.5797L66.1166 56.4773C66.3757 56.2145 66.3757 55.786 66.1166 55.5231L64.8032 54.1889C65.0902 53.6634 65.3174 53.1135 65.4768 52.5394H67.3343C67.701 52.5394 68 52.2362 68 51.8642V48.8906C68.002 48.5146 67.703 48.2134 67.3363 48.2134L67.3356 48.2133ZM57.2088 26.5567C58.1036 26.5567 58.8331 27.2966 58.8331 28.2043V40.2627H57.3383V28.6654C57.3383 28.2934 57.0394 27.9902 56.6726 27.9902H41.059V26.5569L57.2088 26.5567ZM49.9443 45.2314L51.2577 46.5636C50.9707 47.0851 50.7455 47.637 50.5841 48.2132H48.7266C48.3598 48.2132 48.0609 48.5164 48.0609 48.8883V51.862C48.0609 52.2339 48.3598 52.5372 48.7266 52.5372H50.5841C50.6179 52.6564 50.6558 52.7777 50.6957 52.895H29.6313V46.3956C29.6313 45.5527 29.3204 44.7825 28.8082 44.1942V36.9408C29.42 36.2839 29.733 35.3843 29.733 34.4908C29.733 33.949 29.6174 33.4032 29.3902 32.912L32.3358 27.743C32.3378 27.7389 32.3398 27.7349 32.3418 27.7308L36.9079 31.2321V33.9894L33.3822 35.5925C33.143 35.7016 32.9895 35.9422 32.9895 36.209V41.0546C32.9895 41.3214 33.143 41.562 33.3822 41.6711L35.148 42.4737V43.5916C35.148 43.9636 35.4469 44.2668 35.8137 44.2668H42.1516C42.5183 44.2668 42.8173 43.9636 42.8173 43.5916V42.4758L44.5871 41.6732C44.8263 41.564 44.9817 41.3235 44.9817 41.0567V36.2111C44.9817 35.9443 44.8283 35.7037 44.5891 35.5945L41.0614 33.9915V29.342H56.0113V40.5693C55.9435 40.6744 55.9037 40.8017 55.9037 40.9372V42.8212C55.3356 42.985 54.7915 43.2154 54.2754 43.5065L52.96 42.1703C52.8344 42.0429 52.667 41.9722 52.4896 41.9722C52.3122 41.9722 52.1428 42.0429 52.0192 42.1703L49.9465 44.2767C49.6854 44.5415 49.6854 44.968 49.9445 45.2309L49.9443 45.2314ZM24.4155 52.8952V46.3958C24.4155 45.3082 25.2885 44.4228 26.3607 44.4228C26.865 44.4228 27.3254 44.6209 27.6702 44.9444C27.6861 44.9605 27.7041 44.9787 27.724 44.9929C28.0807 45.3507 28.3039 45.848 28.3039 46.3958V52.8952L24.4155 52.8952ZM22.1534 52.8952V29.3404H25.7688L24.4793 31.6065C23.5565 32.2271 22.9487 33.2864 22.9487 34.4892C22.9487 35.4231 23.3154 36.2701 23.9093 36.8927V44.1963C23.3971 44.7825 23.0862 45.5527 23.0862 46.3957V52.895L22.1534 52.8952ZM26.3588 43.0745C25.9661 43.0745 25.5875 43.1452 25.2387 43.2746V37.758C25.5894 37.8813 25.9661 37.95 26.3588 37.95C26.7673 37.95 27.14 37.8914 27.4768 37.7822V43.2725C27.1281 43.1451 26.7514 43.0745 26.3588 43.0745ZM26.3588 32.3807C27.136 32.3807 27.6741 32.7022 28.005 33.1651C28.0349 33.2399 28.0788 33.3106 28.1346 33.3733C28.3159 33.7109 28.4036 34.101 28.4036 34.4912C28.4036 35.041 28.2302 35.5949 27.8615 35.9952C27.7479 36.0498 27.6523 36.1347 27.5845 36.2398C27.2716 36.4642 26.867 36.5996 26.3608 36.5996C25.2128 36.5996 24.2801 35.6535 24.2801 34.4892C24.2781 33.3268 25.2108 32.3807 26.3588 32.3807ZM28.5113 31.7601C27.9692 31.3134 27.2496 31.0324 26.3608 31.0324H26.3429L27.4749 29.0453C27.4909 29.021 27.5048 28.9948 27.5188 28.9685L28.7046 26.8864C29.2308 27.4301 29.9323 27.796 30.7156 27.8951L28.5113 31.7601ZM40.3937 35.9123C40.6867 35.9123 40.9358 35.7203 41.0235 35.4514L43.6484 36.6441V40.6164L42.8153 40.9944V37.5639C42.8153 37.1919 42.5163 36.8887 42.1496 36.8887H35.8117C35.4449 36.8887 35.146 37.1919 35.146 37.5639V40.9944L34.3169 40.6184L34.3209 36.6441L36.9437 35.4514C37.0314 35.7182 37.2805 35.9123 37.5735 35.9123L40.3937 35.9123ZM36.4814 38.237H38.321V39.5369C38.321 39.9088 38.6199 40.212 38.9866 40.212C39.3534 40.212 39.6523 39.9088 39.6523 39.5369V38.237H41.4899V42.9128H36.4834L36.4814 38.237ZM38.2392 24.8362H39.728V34.5638H38.2392V24.8362ZM36.9079 29.5402L33.5118 26.9345C33.8107 26.6394 34.0559 26.2876 34.2333 25.8975L36.9079 27.9493L36.9079 29.5402ZM31.1322 22.3495C32.2802 22.3495 33.2129 23.2956 33.2129 24.4599C33.2129 25.6223 32.2802 26.5684 31.1322 26.5684C29.9862 26.5684 29.0535 25.6223 29.0535 24.4599C29.0535 23.2976 29.9862 22.3495 31.1322 22.3495ZM19.3314 54.0286V28.204C19.3314 27.2964 20.0608 26.5565 20.9557 26.5565H27.3533L26.5362 27.9897H21.4878C21.1211 27.9897 20.8221 28.293 20.8221 28.6649V53.5699C20.8221 53.9419 21.1211 54.2451 21.4878 54.2451H51.2019L49.9443 55.5227C49.8985 55.5692 49.8606 55.6218 49.8307 55.6763H20.9534C20.0585 55.6763 19.3314 54.9363 19.3314 54.0286ZM47.6862 63.6491H30.4766V61.9045H47.6862V63.6491ZM40.8223 60.5541H37.3424V57.0246H40.8223V60.5541ZM66.6699 51.1862H64.9579C64.643 51.1862 64.3699 51.4106 64.3062 51.724C64.1467 52.5043 63.8438 53.2441 63.4093 53.9213C63.2379 54.1882 63.2738 54.5399 63.497 54.7663L64.7068 55.9974L63.5727 57.1477L62.3629 55.9186C62.1397 55.6922 61.7929 55.6558 61.5299 55.8297C60.8642 56.2703 60.1347 56.5776 59.3614 56.7434C59.0545 56.8101 58.8333 57.085 58.8333 57.4044V59.1409H57.2309V57.4044C57.2309 57.085 57.0096 56.8101 56.7027 56.7434C55.9274 56.5776 55.1979 56.2703 54.5323 55.8297C54.2692 55.6558 53.9204 55.6922 53.6992 55.9186L52.4894 57.1477L51.3553 55.9974L52.5651 54.7663C52.7863 54.5419 52.8242 54.1902 52.6528 53.9234C52.2203 53.2441 51.9174 52.5043 51.754 51.7219C51.6882 51.4106 51.4171 51.1862 51.1023 51.1862H49.3902V49.5609H51.1023C51.4172 49.5609 51.6882 49.3366 51.754 49.0252C51.9174 48.2369 52.2203 47.497 52.6508 46.8258C52.8222 46.559 52.7864 46.2052 52.5631 45.9808L51.3534 44.7538L52.4874 43.6035L53.6972 44.8326C53.9204 45.059 54.2672 45.0954 54.5323 44.9215C55.198 44.4809 55.9274 44.1736 56.7027 44.0078C57.0096 43.9411 57.2309 43.6662 57.2309 43.3468V41.6103H58.8333V43.3468C58.8333 43.6662 59.0545 43.9411 59.3614 44.0078C60.1347 44.1736 60.8642 44.4809 61.5299 44.9215C61.7929 45.0954 62.1417 45.059 62.3649 44.8326L63.5747 43.6035L64.7088 44.7538L63.499 45.9808C63.2758 46.2072 63.2399 46.559 63.4113 46.8258C63.8458 47.503 64.1487 48.2429 64.3082 49.0232C64.3719 49.3365 64.645 49.5609 64.9599 49.5609H66.6719L66.6699 51.1862ZM58.0319 44.7215C54.9587 44.7215 52.4593 47.2585 52.4593 50.3758C52.4593 53.493 54.9586 56.028 58.0319 56.028C61.1052 56.028 63.6045 53.4931 63.6045 50.3758C63.6025 47.2587 61.1033 44.7215 58.0319 44.7215ZM58.0319 54.6773C55.6921 54.6773 53.7907 52.7468 53.7907 50.3755C53.7907 48.0023 55.6941 46.0697 58.0319 46.0697C60.3717 46.0697 62.2731 48.0003 62.2731 50.3755C62.2731 52.7488 60.3697 54.6773 58.0319 54.6773Z" fill="#703391" stroke="#703391" stroke-width="0.5"/>
</svg>
