<svg width="86" height="86" viewBox="0 0 86 86" fill="none" xmlns="http://www.w3.org/2000/svg">
<circle cx="43" cy="43" r="43" fill="#703391" fill-opacity="0.1"/>
<path d="M27.2806 56.3722C27.2806 55.6891 27.8526 55.1334 28.5559 55.1334H38.1623C38.8656 55.1334 39.4377 55.689 39.4377 56.3722C39.4377 57.0553 38.8656 57.611 38.1623 57.611H28.5559C27.8527 57.611 27.2806 57.0554 27.2806 56.3722ZM44.8283 59.055H28.5561C27.8528 59.055 27.2807 59.6107 27.2807 60.2939C27.2807 60.977 27.8528 61.5327 28.5561 61.5327H44.8283C45.5315 61.5327 46.1036 60.977 46.1036 60.2939C46.1036 59.6107 45.5316 59.055 44.8283 59.055ZM47.3687 44.3961C48.0146 45.4616 48.0187 46.7423 47.3851 47.8118C46.7495 48.8834 45.6156 49.5147 44.3505 49.5147H44.3239L37.5678 49.4789L30.8075 49.5147H30.7808C29.5219 49.5147 28.388 48.8833 27.7524 47.8178C27.1167 46.7423 27.1229 45.4616 27.7626 44.3961L31.1745 38.7319L34.5188 33.0314C35.1482 31.9559 36.2883 31.3126 37.5636 31.3126C38.839 31.3126 39.9791 31.9559 40.6085 33.0314L43.9528 38.7319L47.3647 44.3961H47.3687ZM45.1686 45.6449L41.7506 39.9745C41.7506 39.9745 41.7506 39.9646 41.7444 39.9646L38.3961 34.2545C38.2177 33.9477 37.9286 33.7844 37.5677 33.7844C37.2048 33.7844 36.9177 33.9477 36.7394 34.2545L33.391 39.9646C33.391 39.9646 33.391 39.9745 33.3849 39.9745L29.9668 45.6449C29.7823 45.9516 29.7823 46.2723 29.9668 46.577C30.1452 46.8837 30.4343 47.041 30.7952 47.041L37.5618 47.0052H37.5782L44.3385 47.041H44.3487C44.7157 47.041 44.9946 46.8837 45.1771 46.577C45.3555 46.2702 45.3555 45.9496 45.1709 45.6449H45.1686ZM37.5679 35.8598C36.8647 35.8598 36.2926 36.4155 36.2926 37.0987V41.7333C36.2926 42.4165 36.8646 42.9722 37.5679 42.9722C38.2712 42.9722 38.8433 42.4165 38.8433 41.7333V37.0987C38.8433 36.4155 38.2713 35.8598 37.5679 35.8598ZM37.5679 43.7369C36.8647 43.7369 36.2926 44.2926 36.2926 44.9757V45.149C36.2926 45.8322 36.8646 46.3879 37.5679 46.3879C38.2712 46.3879 38.8433 45.8322 38.8433 45.149V44.9757C38.8433 44.2926 38.2713 43.7369 37.5679 43.7369ZM64.7382 42.514C63.5736 44.4779 61.7364 45.9198 59.5301 46.6189V46.6249V52.642C60.3114 52.9945 60.8526 53.7633 60.8526 54.6516V64.7573C60.8526 65.9802 59.8295 66.9801 58.5644 66.9801H54.6809C51.2956 66.996 47.8775 67 44.4719 67C41.0663 67 37.6544 66.994 34.304 66.99C30.9659 66.9841 27.5169 66.9801 24.1255 66.9801C21.8536 66.9801 20 65.1796 20 62.9728V24.8513C20 22.6445 21.8474 20.844 24.1255 20.844H29.1019V20.615C29.1019 19.9318 29.6739 19.3761 30.3772 19.3761H32.5302V18.2388C32.5302 17.5557 33.1022 17 33.8056 17H44.9803C45.6836 17 46.2557 17.5557 46.2557 18.2388V19.3761H48.4086C49.1119 19.3761 49.684 19.9318 49.684 20.615V20.844H54.6604C56.9323 20.844 58.7859 22.6385 58.7859 24.8513V29.1036C62.0256 29.8585 64.7546 32.2644 65.6774 35.6045C66.3233 37.9548 65.9932 40.4085 64.7424 42.5139L64.7382 42.514ZM31.6527 24.9789H47.1312V21.8539H44.9783C44.275 21.8539 43.7029 21.2982 43.7029 20.615V19.4777H35.0729V20.615C35.0729 21.2982 34.5008 21.8539 33.7975 21.8539H31.6446V24.9789H31.6527ZM52.3929 64.5142V54.6532C52.3929 53.7609 52.9342 52.9961 53.7154 52.6395V46.6225V46.6066C50.8079 45.6784 48.4191 43.39 47.5682 40.3086C46.2293 35.4588 49.2004 30.4578 54.1931 29.1571C54.8759 28.9778 55.5587 28.8822 56.2353 28.8563V24.849C56.2353 24.0025 55.5258 23.3194 54.6606 23.3194H49.6842V26.2153C49.6842 26.8984 49.1121 27.4542 48.4088 27.4542L30.3835 27.4561C29.6802 27.4561 29.1081 26.9005 29.1081 26.2173V23.3214H24.1317C23.2603 23.3214 22.557 24.0105 22.557 24.851V62.9704C22.557 63.8169 23.2665 64.506 24.1317 64.506C27.5272 64.506 30.976 64.5119 34.3139 64.5159C40.2396 64.5259 46.35 64.5358 52.3922 64.5159L52.3929 64.5142ZM56.9859 47.8616H56.2621V52.4346H56.9859V47.8616ZM58.3084 54.9081H54.9436V64.508H58.3084V54.9081ZM63.2171 36.2456C62.4031 33.2879 59.633 31.3301 56.619 31.3301C56.0367 31.3301 55.4441 31.4018 54.8556 31.5551C51.2223 32.5032 49.0549 36.144 50.031 39.6775C50.845 42.6352 53.6151 44.593 56.6291 44.593C57.2114 44.593 57.804 44.5213 58.3925 44.3679C60.1517 43.9098 61.626 42.8124 62.5343 41.2788C63.4426 39.7432 63.6887 37.9585 63.2171 36.2456Z" fill="#703391"/>
</svg>
