<svg width="86" height="86" viewBox="0 0 86 86" fill="none" xmlns="http://www.w3.org/2000/svg">
<circle cx="43" cy="43" r="43" fill="#703391" fill-opacity="0.1"/>
<path d="M55.312 25.0921L55.0133 24.932C49.0681 21.6539 41.4107 22.8132 36.7482 27.767L36.5995 27.9268C36.0532 28.513 35.5431 29.1134 35.1052 29.7861C32.9366 33.2388 32.0107 37.3695 32.9093 41.3973L32.9542 41.5907C33.5769 44.2926 34.8811 46.9045 36.8993 48.834L37.1603 49.0778C40.07 51.9253 43.8867 53.4233 47.9581 53.3894C51.7998 53.2822 55.647 51.8307 58.3465 49.0314L58.5652 48.7971C59.6079 47.6808 60.5606 46.4843 61.2211 45.0978L61.3693 44.7728C61.4725 44.5511 61.5748 44.3292 61.6746 44.106L61.7783 43.872C62.0563 43.2695 62.2176 42.7289 62.1171 42.0587C62.0184 41.9104 61.9718 41.8404 61.9128 41.7833C61.8601 41.7323 61.7975 41.6914 61.679 41.6141C61.3044 41.4726 61.1 41.4908 60.715 41.5907C60.5692 41.6663 60.4808 41.7121 60.4131 41.779C60.3088 41.882 60.2537 42.035 60.1138 42.4238C59.5815 43.9556 58.7998 45.3836 57.7766 46.6445C55.3254 49.4134 52.0728 51.073 48.3769 51.3239C44.9782 51.4606 41.6234 50.3282 39.0648 48.0659C36.3875 45.5408 34.7822 42.3033 34.6366 38.5959C34.5803 35.2044 35.7711 31.7519 38.1374 29.2846L38.3755 29.0499C39.7101 27.7322 41.2145 26.7077 42.9577 26.0032C46.2103 24.7548 49.8951 24.8308 53.0828 26.246C56.2646 27.7611 58.6783 30.3114 59.9425 33.6079C59.9494 33.6261 59.9563 33.6442 59.9632 33.6623L59.9868 33.7247C60.1468 34.1471 60.2984 34.5472 60.6508 34.8524C60.9783 34.9744 61.2091 34.9894 61.5563 34.946C61.8754 34.7685 61.9987 34.6186 62.1697 34.2967C62.2112 34.1086 62.2418 33.9695 62.2459 33.8296C62.2575 33.4323 62.0547 33.0287 61.2757 31.4789L61.2755 31.4785L61.1824 31.296C60.481 29.9208 59.6326 28.643 58.5108 27.5733L58.2848 27.3653C57.3727 26.5029 56.4113 25.7043 55.312 25.0921Z" fill="#703391"/>
<path fill-rule="evenodd" clip-rule="evenodd" d="M54.0786 32.887C54.8535 33.4378 55.3221 34.0702 55.5369 35.003C55.6713 35.8105 55.5445 36.6956 55.0706 37.379C54.4849 38.126 53.82 38.7906 53.1501 39.4602L53.0563 39.5541C52.9208 39.6901 52.7853 39.8261 52.6499 39.9622C52.5769 40.0355 52.5039 40.1087 52.4308 40.182L52.3039 40.3092C52.1365 40.4769 51.969 40.6444 51.8014 40.8119C51.4399 41.1734 51.0793 41.5359 50.7191 41.8988C50.4402 42.1794 50.1607 42.4594 49.881 42.7392C49.8201 42.8001 49.7594 42.8611 49.6986 42.9221C49.6264 42.9947 49.5542 43.0673 49.4821 43.14C49.2963 43.3272 49.1096 43.5135 48.9227 43.6995L48.7596 43.865C48.1385 44.4791 47.4558 44.9514 46.5593 44.9629C45.4471 44.8947 44.8068 44.2517 44.0589 43.5005L44.0502 43.4918C43.95 43.3921 43.8497 43.2925 43.7494 43.193C43.5399 42.9847 43.3312 42.7757 43.123 42.5662C42.8583 42.3001 42.5915 42.0361 42.3241 41.7727C42.1166 41.5677 41.9103 41.3613 41.7044 41.1546C41.6067 41.0569 41.5086 40.9596 41.4099 40.8627C40.5748 40.0407 39.8751 39.1427 39.8476 37.9233C39.8632 36.9842 40.2341 36.159 40.9061 35.5064C41.6781 34.8629 42.3848 34.7015 43.3824 34.7263C44.623 34.852 45.4603 35.7258 46.2792 36.5804C46.3553 36.6599 46.4313 36.7392 46.5075 36.8177C46.8095 36.6851 47.0069 36.5261 47.2365 36.2903L47.4437 36.0791L47.6653 35.8508C47.822 35.6914 47.9789 35.5321 48.1357 35.3728C48.3818 35.1218 48.6275 34.8705 48.8728 34.6187C48.99 34.4985 49.1075 34.3786 49.2252 34.2589C49.3457 34.1362 49.4665 34.0137 49.5872 33.8913L49.806 33.6646C50.9164 32.5428 52.6343 31.9817 54.0786 32.887ZM51.487 34.8454L51.2413 35.0779L50.9941 35.3203L50.765 35.5437C50.532 35.7737 50.3013 36.0058 50.071 36.2387L49.8186 36.4925C49.5559 36.7566 49.2935 37.0211 49.0312 37.2857C48.6829 37.6369 48.3343 37.9878 47.9855 38.3386L47.7432 38.5834L47.5199 38.808L47.3234 39.0062C47.0501 39.2619 46.8058 39.3003 46.4321 39.2948C46.1778 39.2405 46.0689 39.1475 45.8783 38.9717L45.6823 38.7915C45.2661 38.3905 44.8622 37.9779 44.4597 37.5632L44.2572 37.3573L44.0773 37.1724C43.6944 36.8295 43.3871 36.6688 42.8614 36.6916C42.4259 36.7677 42.1798 37.0054 41.9332 37.3559C41.8065 37.7439 41.7736 38.0314 41.9274 38.4087C42.007 38.5143 42.0485 38.5693 42.093 38.6219C42.1414 38.6792 42.1934 38.7336 42.3021 38.8473L42.3022 38.8474L42.5328 39.0965C42.8901 39.4724 43.2517 39.8435 43.6179 40.2107L43.8512 40.4452C44.0121 40.6068 44.1731 40.7682 44.3342 40.9295C44.5814 41.1773 44.8279 41.4258 45.0744 41.6743C45.1718 41.772 45.2692 41.8697 45.3667 41.9674L45.5457 42.1468L45.7688 42.3722L45.976 42.5788L46.1576 42.761L46.1577 42.7612C46.2325 42.8334 46.2736 42.8732 46.3215 42.9016C46.38 42.9365 46.4486 42.9545 46.6009 42.9946C46.6703 42.9556 46.7082 42.9343 46.7431 42.9087C46.7851 42.8779 46.8225 42.8408 46.9051 42.759L47.1059 42.5736C47.6575 42.0416 48.2019 41.5027 48.7442 40.9612L48.9445 40.7614C49.2935 40.4134 49.6422 40.0652 49.9906 39.7167C50.3502 39.3572 50.7106 38.9986 51.0712 38.6402C51.3491 38.3636 51.6264 38.0865 51.9035 37.8092C52.0362 37.6766 52.1691 37.5443 52.3022 37.4123C52.4879 37.2279 52.6727 37.0428 52.8572 36.8574L53.0238 36.6932C53.3024 36.4113 53.5065 36.1816 53.6113 35.7883C53.6009 35.2169 53.4344 34.9655 53.0504 34.5716C52.4666 34.2793 51.9427 34.4102 51.487 34.8454Z" fill="#703391"/>
<path d="M62.5816 37.4758C62.5231 37.4173 62.4501 37.3734 62.3041 37.2857C61.8342 37.1931 61.4904 37.213 61.0773 37.4612C60.8294 37.8748 60.8096 38.2191 60.902 38.6895C60.9896 38.8357 61.0334 38.9089 61.0919 38.9673C61.1503 39.0258 61.2233 39.0697 61.3693 39.1574C61.8391 39.25 62.183 39.2302 62.5962 38.982C62.844 38.5683 62.8638 38.224 62.7714 37.7536C62.6838 37.6074 62.64 37.5343 62.5816 37.4758Z" fill="#703391"/>
<path fill-rule="evenodd" clip-rule="evenodd" d="M47.9234 19.0022L47.67 19.0008C43.6945 18.9637 39.818 20.1515 36.5728 22.476L36.4126 22.5923C35.7685 23.0592 35.1537 23.5379 34.6019 24.1146L34.4497 24.2769L33.9823 24.7448C31.6831 26.9909 30.0947 29.7981 29.2 32.8811C27.8337 37.8942 28.4235 43.2252 30.9737 47.7596L31.0847 47.9548C31.5137 48.7124 31.9964 49.4091 32.5343 50.0916L32.5355 50.0932C32.6673 50.2631 32.7558 50.3773 32.8292 50.4726C32.8673 50.5221 32.9013 50.5666 32.9351 50.6111C33.0343 50.7418 33.1322 50.8734 33.328 51.1368C33.1855 51.2816 33.043 51.4264 32.9003 51.571C32.7943 51.6783 32.6883 51.7856 32.5821 51.8928C32.4802 51.9956 32.3783 52.0984 32.2765 52.2013C32.1272 52.3532 31.9779 52.505 31.828 52.6562L31.685 52.8002L31.6814 52.8039C31.4119 53.0795 31.168 53.3289 30.8043 53.4765C30.6535 53.31 30.5013 53.1453 30.347 52.982L30.1559 52.7804C29.7269 52.306 29.4185 52.0024 28.7642 51.9472C28.6266 51.9688 28.5314 51.9837 28.4428 52.0165C28.2437 52.0903 28.078 52.2545 27.5402 52.7876L27.5397 52.788L27.5396 52.7882L27.3231 53.0056C27.0803 53.2472 26.8377 53.4889 26.5957 53.7313L26.5184 53.8088C26.4424 53.8849 26.3664 53.961 26.2903 54.0371L26.2472 54.0802C26.1898 54.1376 26.1323 54.1951 26.0748 54.2525C25.6648 54.6619 25.2551 55.0717 24.8459 55.4819C24.4225 55.9065 23.9986 56.3306 23.5738 56.7539C23.2058 57.1206 22.8381 57.4877 22.471 57.8554L21.9432 58.384C21.6912 58.635 21.4393 58.886 21.1883 59.138L20.9554 59.3722C20.0173 60.302 19.0593 61.3165 19.0018 62.7001C18.9796 63.9572 19.1556 64.8843 20.0431 65.8236C20.8679 66.6267 21.7067 66.9868 22.8593 67C24.2867 66.9822 25.2819 66.332 26.2798 65.3447L26.4929 65.1295C26.7365 64.8872 26.9798 64.6447 27.2222 64.4013C27.439 64.1834 27.6562 63.9659 27.8736 63.7486C28.2389 63.3836 28.6037 63.0182 28.9679 62.6522C29.3903 62.2277 29.8132 61.8038 30.2371 61.3809C30.6054 61.0135 30.9734 60.6457 31.3407 60.2774C31.5161 60.1015 31.6914 59.9256 31.8668 59.7498C32.1186 59.4987 32.3703 59.2474 32.6211 58.9952L32.8515 58.7629C32.9911 58.6243 33.13 58.4851 33.2682 58.3451C33.6547 57.936 34.0094 57.5277 33.9966 56.9378C33.9236 56.5556 33.7351 56.3472 33.4578 56.0849C33.3435 55.9833 33.2301 55.8807 33.1175 55.7771L32.9545 55.6246C32.733 55.426 32.6085 55.2463 32.4868 54.9739C32.6864 54.7721 32.8861 54.5706 33.0861 54.3692L33.3339 54.1199C33.8455 53.6026 34.3567 53.0986 34.917 52.6342C38.2699 55.5579 42.4062 57.2892 46.8697 57.4928C51.743 57.633 56.8325 56.0818 60.4452 52.7062C60.6334 52.5295 60.8282 52.3628 61.0247 52.1955C61.2248 52.0262 61.3878 51.8627 61.5537 51.6584C61.6745 51.5049 61.7999 51.3548 61.9309 51.2099C62.4613 50.6376 62.9472 50.0413 63.4101 49.4139L63.5192 49.265C64.9465 47.3172 65.9331 45.0184 66.4587 42.6654L66.5103 42.433C67.0928 39.9766 67.1761 37.0744 66.6497 34.5943L66.6037 34.3844C66.0682 31.7565 65.0172 29.2418 63.4508 27.0602L63.3322 26.8974C62.7029 26.0302 62.0144 25.2527 61.2394 24.5134L61.0889 24.3705C60.4397 23.7471 59.7723 23.1609 59.0501 22.623L58.7522 22.4051C56.6919 20.8931 54.29 19.9343 51.8104 19.3731L51.5549 19.3167C50.3525 19.0438 49.1516 19.0097 47.9234 19.0022ZM43.2206 21.52L43.4229 21.4692C45.682 20.8839 47.9376 20.8517 50.2463 21.0949C54.6398 21.6735 58.6122 24.1483 61.3443 27.5886L61.4628 27.7397C62.9972 29.6882 64.0166 32.0173 64.5846 34.4232L64.6408 34.6652L64.6409 34.6658L64.641 34.6661C64.8058 35.7363 64.8884 36.2726 64.9262 36.812C64.9641 37.3535 64.9568 37.8982 64.9422 38.9895V38.9897L64.9402 39.2112C64.9397 39.3057 64.9389 39.4003 64.9378 39.4948C64.9374 39.5354 64.9369 39.5759 64.9363 39.6165C64.8328 43.491 62.8144 47.6796 60.0352 50.338L59.7803 50.5752C58.6882 51.6304 57.5209 52.5745 56.1839 53.3025C56.1152 53.3387 56.0465 53.375 55.978 53.4116C55.9358 53.4341 55.8937 53.4566 55.8516 53.4793C55.7971 53.5087 55.7427 53.5384 55.6885 53.5684C52.5362 55.3161 48.8249 55.8074 45.2806 55.3716C40.9006 54.6486 36.9078 52.4691 34.1572 48.9367L33.9823 48.7035C33.4912 48.0687 33.0595 47.4142 32.6737 46.71L32.4868 46.3638C31.8711 45.2552 31.4329 44.1107 31.0695 42.8953C29.8607 38.6445 30.3859 33.953 32.4829 30.07L32.5803 29.8922C34.2376 26.8516 36.8378 24.3198 39.9438 22.7869L40.1514 22.6859C41.1483 22.2008 42.1453 21.7943 43.2206 21.52ZM28.3524 54.8872L28.5446 54.6964C28.5826 54.6585 28.6155 54.6237 28.6449 54.5925C28.8201 54.4069 28.8713 54.3527 29.1254 54.591L29.3741 54.8397C29.465 54.9305 29.5559 55.0214 29.6467 55.1123C29.7894 55.2558 29.9322 55.3992 30.0755 55.5422C30.1687 55.6351 30.2617 55.7281 30.3547 55.8213L30.4899 55.9569C30.7123 56.1798 30.9317 56.4029 31.1384 56.6403L31.2874 56.8153C31.3757 56.919 31.4639 57.0226 31.5521 57.1264C30.6335 58.0524 29.7143 58.9778 28.794 59.9021C28.3463 60.3517 27.8988 60.8014 27.452 61.2519C27.0598 61.6474 26.6673 62.0426 26.2742 62.4372C26.1802 62.5314 26.0863 62.6256 25.9924 62.7199L25.774 62.9391C25.5352 63.1805 25.2963 63.4219 25.0564 63.6623L24.8351 63.8837C24.8026 63.9168 24.7701 63.9499 24.7377 63.9831C24.2731 64.4581 23.8107 64.9309 23.124 65.031L22.8418 65.0229C22.2421 65.0152 21.8954 64.833 21.4572 64.4263C21.0919 64.0126 20.9575 63.6582 20.9431 63.1044C20.9509 62.3714 21.2885 61.9428 21.7846 61.4421L21.9956 61.2334L22.1065 61.1222C22.3037 60.9243 22.5011 60.7267 22.6992 60.5297C22.8672 60.3628 23.035 60.1955 23.2025 60.028C23.5963 59.6339 23.9904 59.2401 24.3852 58.847C24.8411 58.3933 25.2964 57.939 25.7512 57.4841C26.0604 57.1748 26.3697 56.8657 26.6791 56.5567L27.186 56.0509C27.3307 55.9063 27.4754 55.7618 27.6202 55.6173C27.7193 55.5184 27.8185 55.4195 27.9178 55.3207L28.1403 55.0993L28.3524 54.8872Z" fill="#703391"/>
</svg>
