<svg width="86" height="86" viewBox="0 0 86 86" fill="none" xmlns="http://www.w3.org/2000/svg">
<circle cx="43" cy="43" r="43" fill="#703391" fill-opacity="0.1"/>
<path d="M57.4401 31.8995C55.4169 25.4201 49.4486 21 42.4687 21C35.5394 21 29.4193 25.621 27.4467 32.1507C22.5405 33.3059 19 37.6758 19 42.7991C19 48.8265 23.9567 53.7489 30.0262 53.7489H30.4815C31.139 60.0274 36.5004 65 43.0251 65C49.5498 65 54.9111 60.0776 55.5181 53.7489H55.9733C62.0428 53.7489 66.9995 48.8265 66.9995 42.7991C67.0501 37.2237 62.8521 32.6027 57.4401 31.8995ZM43.0251 61.5342C38.0177 61.5342 33.9208 57.4658 33.9208 52.4932C33.9208 47.5205 38.0177 43.4521 43.0251 43.4521C48.0324 43.4521 52.1293 47.5205 52.1293 52.4932C52.1293 57.516 48.0324 61.5342 43.0251 61.5342ZM56.0239 50.3333H55.4169C54.3548 44.4566 49.1957 39.9863 43.0251 39.9863C36.8544 39.9863 31.6953 44.4566 30.6332 50.2831H30.0262C25.8282 50.2831 22.4394 46.9178 22.4394 42.7489C22.4394 38.9817 25.2718 35.7671 29.0652 35.3151C29.7733 35.2146 30.3803 34.7123 30.532 33.9589C31.7459 28.4338 36.7533 24.4155 42.4687 24.4155C48.1336 24.4155 53.1409 28.3836 54.4054 33.9087C54.5571 34.7123 55.2652 35.2648 56.0745 35.2648C60.222 35.3151 63.6107 38.6804 63.6107 42.7991C63.6107 46.9178 60.1714 50.3333 56.0239 50.3333Z" fill="#703391"/>
<path d="M45.4022 48.8274L41.3559 52.8456L39.9903 51.4895C39.3327 50.8365 38.22 50.8365 37.5625 51.4895C36.905 52.1424 36.905 53.2475 37.5625 53.9004L40.1926 56.5123C40.5466 56.8639 40.9513 57.0146 41.4065 57.0146C41.8617 57.0146 42.2663 56.8639 42.6204 56.5123L47.8806 51.2886C48.5381 50.6356 48.5381 49.5306 47.8806 48.8776C47.1725 48.1744 46.1103 48.1744 45.4022 48.8274Z" fill="#703391"/>
</svg>
