<svg width="56" height="58" viewBox="0 0 56 58" fill="none" xmlns="http://www.w3.org/2000/svg">
<path d="M51.3242 9.21082H39.8805V4.01078C39.8783 2.34984 38.5181 1.00223 36.8417 1H23.2921C21.6135 1.00224 20.2533 2.34984 20.251 4.01078V9.20858H8.62002V9.21082C6.59111 9.21306 4.94852 10.8405 4.94626 12.8507V35.4371C2.04524 38.1547 0.615039 42.0697 1.0895 45.9963C1.56397 49.9226 3.88658 53.3921 7.3524 55.3554C10.816 57.3164 15.0139 57.5357 18.667 55.9487C22.3227 54.3593 25.0022 51.1515 25.8901 47.2966H51.324C53.3529 47.2944 54.9977 45.6648 55 43.6568V12.8504C54.9977 10.8403 53.3531 9.21305 51.3242 9.21082ZM33.5517 24.1372H26.0192C25.5154 24.1372 25.1087 24.5424 25.1087 25.0416V29.7357H11.7581C8.91581 29.7357 6.77394 27.4882 6.77394 24.5088V24.4596V19.2148H53.1748V24.426C53.1725 27.3563 50.7754 29.7313 47.8156 29.7358H34.465V25.0416C34.465 24.8021 34.3679 24.5715 34.1984 24.4036C34.0267 24.2335 33.7935 24.1372 33.5517 24.1372ZM32.6412 25.9459V32.5023C32.6412 34.0648 31.3624 35.3317 29.7854 35.3317C28.2083 35.3317 26.9318 34.0648 26.9318 32.5023V25.9459H32.6412ZM22.0739 4.01101C22.0761 3.34615 22.6184 2.80891 23.2917 2.80668H36.8412C37.5123 2.80892 38.0568 3.34616 38.0568 4.01101V9.20881L22.0739 9.21105L22.0739 4.01101ZM8.61915 11.0155H51.3235C52.3469 11.0177 53.1739 11.837 53.1761 12.8488V17.4042H6.77527V12.851C6.77527 11.8415 7.59995 11.02 8.62117 11.0177L8.61915 11.0155ZM13.5988 55.197C10.7407 55.197 7.99783 54.0711 5.97552 52.0676C3.95338 50.0642 2.81694 47.3466 2.81694 44.5125C2.81694 41.6785 3.95338 38.961 5.97552 36.9573C7.99766 34.9538 10.7405 33.8279 13.6011 33.8279C16.4615 33.8279 19.2044 34.9538 21.2267 36.9573C23.2489 38.9607 24.3831 41.6783 24.3831 44.5125C24.3808 47.3442 23.242 50.0617 21.2222 52.063C19.2001 54.0665 16.4593 55.1925 13.5988 55.197ZM51.3237 45.4929H26.168C26.1928 45.1705 26.2064 44.8437 26.2064 44.5147C26.2087 41.5084 25.1151 38.6007 23.1269 36.3286C21.1386 34.0564 18.389 32.5723 15.3839 32.147C12.3789 31.724 9.31994 32.3888 6.77094 34.0184V29.3914C8.04746 30.7815 9.86178 31.5628 11.7574 31.5426H25.108V32.503C25.108 35.0638 27.2024 37.1389 29.7848 37.1389C32.3696 37.1389 34.464 35.0638 34.464 32.503V31.5426H47.8146C49.8638 31.5426 51.8137 30.6741 53.1738 29.1564V43.6576C53.1738 44.6694 52.3472 45.4907 51.3237 45.4929ZM16.5926 43.6506H10.6096C8.35482 43.6506 6.5202 45.7146 6.5202 48.253L6.52246 49.8871C6.46597 51.1071 7.41718 52.1435 8.64854 52.204H18.5536C19.785 52.1435 20.7339 51.1071 20.6797 49.8871V48.253C20.6797 45.7145 18.8452 43.6506 16.5926 43.6506ZM18.8565 49.8872C18.8565 50.1939 18.6735 50.3976 18.5538 50.3976L8.64868 50.3954C8.52894 50.3954 8.34593 50.1917 8.34593 49.885V48.2531C8.34593 46.7376 9.38299 45.4572 10.6121 45.4572H16.5927C17.8218 45.4572 18.8589 46.7376 18.8589 48.2531L18.8565 49.8872ZM13.8814 43.5189C15.664 43.5189 17.2727 42.4556 17.955 40.8215C18.6374 39.1896 18.26 37.3093 16.9993 36.0602C15.7386 34.8111 13.8408 34.4351 12.1937 35.1133C10.5443 35.7894 9.47113 37.3832 9.47113 39.1494C9.47339 41.5625 11.4458 43.5166 13.8814 43.5189ZM13.8814 36.5883V36.586C14.9275 36.586 15.8696 37.2106 16.2695 38.1686C16.6717 39.1267 16.4503 40.2281 15.7092 40.9623C14.9704 41.6943 13.8565 41.9137 12.8917 41.5174C11.9247 41.1212 11.2944 40.1856 11.2944 39.1491C11.2944 37.7344 12.4512 36.586 13.8814 36.5838L13.8814 36.5883Z" fill="#703391"/>
<path d="M13.8814 43.5211V43.5189M13.8814 43.5189C15.664 43.5189 17.2727 42.4556 17.955 40.8215C18.6374 39.1896 18.26 37.3093 16.9993 36.0602C15.7386 34.8111 13.8408 34.4351 12.1937 35.1133C10.5443 35.7894 9.47113 37.3832 9.47113 39.1494C9.47339 41.5625 11.4458 43.5166 13.8814 43.5189ZM51.3242 9.21082H39.8805V4.01078C39.8783 2.34984 38.5181 1.00223 36.8417 1H23.2921C21.6135 1.00224 20.2533 2.34984 20.251 4.01078V9.20858H8.62002V9.21082C6.59111 9.21306 4.94852 10.8405 4.94626 12.8507V35.4371C2.04524 38.1547 0.615039 42.0697 1.0895 45.9963C1.56397 49.9226 3.88658 53.3921 7.3524 55.3554C10.816 57.3164 15.0139 57.5357 18.667 55.9487C22.3227 54.3593 25.0022 51.1515 25.8901 47.2967H51.324C53.3529 47.2944 54.9977 45.6648 55 43.6568V12.8504C54.9977 10.8403 53.3531 9.21305 51.3242 9.21082ZM33.5517 24.1372H26.0192C25.5154 24.1372 25.1087 24.5424 25.1087 25.0416V29.7357H11.7581C8.91581 29.7357 6.77394 27.4882 6.77394 24.5088V24.4596V19.2148H53.1748V24.426C53.1725 27.3563 50.7754 29.7313 47.8156 29.7358H34.465V25.0416C34.465 24.8021 34.3679 24.5715 34.1984 24.4036C34.0267 24.2335 33.7935 24.1372 33.5517 24.1372ZM32.6412 25.9459V32.5023C32.6412 34.0648 31.3624 35.3317 29.7854 35.3317C28.2083 35.3317 26.9318 34.0648 26.9318 32.5023V25.9459H32.6412ZM22.0739 4.01101C22.0761 3.34615 22.6184 2.80891 23.2917 2.80668H36.8412C37.5123 2.80892 38.0568 3.34616 38.0568 4.01101V9.20881L22.0739 9.21105L22.0739 4.01101ZM8.61915 11.0155H51.3235C52.3469 11.0177 53.1739 11.837 53.1761 12.8488V17.4042H6.77527V12.851C6.77527 11.8415 7.59995 11.02 8.62117 11.0177L8.61915 11.0155ZM13.5988 55.197C10.7407 55.197 7.99783 54.0711 5.97552 52.0676C3.95338 50.0642 2.81694 47.3466 2.81694 44.5124C2.81694 41.6785 3.95338 38.961 5.97552 36.9573C7.99766 34.9538 10.7405 33.8279 13.6011 33.8279C16.4615 33.8279 19.2044 34.9538 21.2267 36.9573C23.2489 38.9607 24.3831 41.6783 24.3831 44.5124C24.3808 47.3442 23.242 50.0617 21.2222 52.0631C19.2001 54.0665 16.4593 55.1925 13.5988 55.197ZM51.3237 45.4929H26.168C26.1928 45.1705 26.2064 44.8437 26.2064 44.5147C26.2087 41.5084 25.1151 38.6007 23.1269 36.3286C21.1386 34.0564 18.389 32.5724 15.3839 32.147C12.3789 31.724 9.31994 32.3888 6.77094 34.0184V29.3914C8.04746 30.7815 9.86178 31.5628 11.7574 31.5426H25.108V32.503C25.108 35.0638 27.2024 37.1389 29.7848 37.1389C32.3696 37.1389 34.464 35.0638 34.464 32.503V31.5426H47.8146C49.8638 31.5426 51.8137 30.6741 53.1738 29.1564V43.6576C53.1738 44.6694 52.3472 45.4907 51.3237 45.4929ZM16.5926 43.6506H10.6097C8.35482 43.6506 6.5202 45.7146 6.5202 48.253L6.52246 49.8871C6.46597 51.1071 7.41718 52.1435 8.64854 52.204H18.5536C19.785 52.1435 20.7339 51.1071 20.6797 49.8871V48.253C20.6797 45.7145 18.8452 43.6506 16.5926 43.6506ZM18.8565 49.8872C18.8565 50.1939 18.6735 50.3976 18.5538 50.3976L8.64868 50.3954C8.52894 50.3954 8.34593 50.1916 8.34593 49.885V48.2531C8.34593 46.7376 9.38299 45.4572 10.6121 45.4572H16.5927C17.8218 45.4572 18.8589 46.7376 18.8589 48.2531L18.8565 49.8872ZM13.8814 36.5883V36.586C14.9275 36.586 15.8696 37.2106 16.2695 38.1686C16.6717 39.1267 16.4503 40.2281 15.7092 40.9623C14.9704 41.6943 13.8565 41.9137 12.8917 41.5174C11.9247 41.1212 11.2944 40.1856 11.2944 39.1491C11.2944 37.7344 12.4512 36.586 13.8814 36.5838L13.8814 36.5883Z" stroke="#703391" stroke-width="0.7"/>
</svg>
