<svg width="86" height="86" viewBox="0 0 86 86" fill="none" xmlns="http://www.w3.org/2000/svg">
<circle cx="43" cy="43" r="43" fill="#703391" fill-opacity="0.1"/>
<path d="M22.7778 48.715C23.4143 48.7236 23.9757 49.1286 24.1857 49.7286C24.4043 50.3372 24.655 50.9479 24.9357 51.5414V51.5436C25.2207 52.1157 25.1093 52.8057 24.6593 53.2579C23.1871 54.7364 23.1871 57.1257 24.6593 58.6022L27.3978 61.3407H27.4C28.8936 62.7679 31.2464 62.7679 32.7421 61.3407C33.1964 60.8907 33.8864 60.7815 34.4586 61.0643C35.05 61.345 35.6607 61.5979 36.2693 61.8143C36.8715 62.0222 37.2764 62.5857 37.285 63.2222C37.2872 65.3072 38.9779 66.9979 41.0629 67H44.9371C47.0222 66.9979 48.7128 65.3072 48.715 63.2222C48.7236 62.5857 49.1286 62.0243 49.7286 61.8143C50.3372 61.5957 50.9479 61.345 51.5414 61.0643H51.5436C52.1157 60.7793 52.8036 60.8907 53.2579 61.3407C54.7536 62.7679 57.1064 62.7679 58.6 61.3407L61.3386 58.6022H61.3407C62.8129 57.1236 62.8129 54.7343 61.3386 53.2579C60.8907 52.8036 60.7793 52.1136 61.0643 51.5414C61.345 50.9479 61.5957 50.3393 61.8143 49.7307C62.0222 49.1286 62.5857 48.7236 63.2222 48.715C65.3072 48.7128 66.9979 47.0222 67 44.9371V41.0629C66.9979 38.9779 65.3072 37.2872 63.2222 37.285C62.5857 37.2764 62.0243 36.8714 61.8143 36.2714C61.5957 35.6628 61.345 35.0521 61.0643 34.4586V34.4564C60.7793 33.8843 60.8907 33.1943 61.3407 32.7421C62.8129 31.2636 62.8129 28.8743 61.3407 27.3978L58.6022 24.6593H58.6C57.1257 23.185 54.7343 23.185 53.2579 24.6593C52.8036 25.1093 52.1136 25.2207 51.5414 24.9357C50.9479 24.655 50.3393 24.4043 49.7307 24.1857C49.1286 23.9778 48.7236 23.4143 48.715 22.7778C48.7128 20.6928 47.0222 19.0021 44.9371 19H41.0629C38.9779 19.0021 37.2872 20.6928 37.285 22.7778C37.2765 23.4143 36.8715 23.9757 36.2714 24.1857C35.6628 24.4043 35.0521 24.655 34.4586 24.9357H34.4564C33.8843 25.2207 33.1964 25.1093 32.7421 24.6593C32.0328 23.9521 31.0728 23.5536 30.07 23.5536C29.0693 23.5536 28.1072 23.9521 27.4 24.6593L24.6614 27.3978H24.6593C23.1871 28.8764 23.1871 31.2657 24.6614 32.7421C25.1093 33.1964 25.2207 33.8864 24.9357 34.4586C24.655 35.0521 24.4043 35.6607 24.1857 36.2693C23.9778 36.8714 23.4143 37.2764 22.7778 37.285C20.6928 37.2872 19.0021 38.9778 19 41.0629V44.9371C19.0021 47.0221 20.6928 48.7128 22.7778 48.715ZM21.2864 41.063C21.2864 40.2401 21.955 39.5715 22.7778 39.5715C24.3807 39.5608 25.8035 38.5494 26.3371 37.0386C26.53 36.5008 26.7528 35.9608 27.0014 35.4358C27.6914 33.9894 27.4021 32.2665 26.2771 31.1243C25.6943 30.5415 25.6943 29.5987 26.2771 29.0136L29.0157 26.275V26.2772C29.5986 25.6943 30.5414 25.6943 31.1243 26.2772C32.2643 27.4022 33.9893 27.6914 35.4357 27.0015C35.9607 26.7529 36.5007 26.53 37.0407 26.3372H37.0386C38.5493 25.8036 39.5608 24.3786 39.5715 22.7779C39.5736 21.955 40.2401 21.2864 41.0629 21.2864H44.9372C45.76 21.2864 46.4286 21.955 46.4286 22.7779C46.4394 24.3808 47.4508 25.8036 48.9615 26.3372C49.4994 26.53 50.0393 26.7529 50.5644 27.0015C52.0108 27.6936 53.7336 27.4022 54.8737 26.2772C55.4587 25.6943 56.4016 25.6943 56.9844 26.2772L59.723 29.0157V29.0136C60.3058 29.5986 60.3058 30.5415 59.723 31.1265C58.598 32.2665 58.3087 33.9894 58.9987 35.4358C59.2473 35.9608 59.4701 36.5008 59.663 37.0408V37.0386C60.1966 38.5494 61.6215 39.5608 63.2223 39.5715C64.0451 39.5737 64.7137 40.2401 64.7137 41.063V44.9372C64.7137 45.7601 64.0451 46.4287 63.2223 46.4287C61.6194 46.4394 60.1966 47.4508 59.663 48.9616C59.4701 49.4994 59.2473 50.0394 58.9987 50.5644C58.3087 52.0108 58.598 53.7337 59.723 54.8759C60.3058 55.4587 60.3058 56.4016 59.723 56.9866L56.9844 59.7252V59.723C56.4016 60.3059 55.4587 60.3059 54.8758 59.723C53.7358 58.598 52.0108 58.3088 50.5644 58.9988C50.0394 59.2473 49.4994 59.4702 48.9594 59.663H48.9615C47.4508 60.1966 46.4394 61.6216 46.4287 63.2223C46.4265 64.0452 45.7601 64.7138 44.9372 64.7138H41.0629C40.2401 64.7138 39.5715 64.0452 39.5715 63.2223C39.5607 61.6194 38.5493 60.1966 37.0386 59.663C36.4986 59.4702 35.9608 59.2473 35.4357 58.9988C34.9214 58.7545 34.36 58.6302 33.7922 58.628C32.7936 58.6259 31.8336 59.0202 31.1264 59.723C30.5414 60.3059 29.5986 60.3059 29.0157 59.723L26.2771 56.9845V56.9866C25.6943 56.4016 25.6943 55.4587 26.2771 54.8737C27.4021 53.7338 27.6914 52.0109 27.0014 50.5644C26.7528 50.0394 26.53 49.4994 26.3371 48.9594V48.9616C25.8036 47.4509 24.3786 46.4394 22.7778 46.4287C21.955 46.4266 21.2864 45.7601 21.2864 44.9373V41.063Z" fill="#703391" stroke="#703391"/>
<path d="M42.9994 56.7147C45.423 56.7233 47.8015 56.0547 49.8691 54.7862C51.9348 53.5197 53.6084 51.7005 54.6991 49.5362C55.6548 47.6933 56.1498 45.6469 56.1413 43.5727C56.1498 40.7163 55.2241 37.935 53.5034 35.6546C51.7827 33.3746 49.3613 31.7224 46.6123 30.9468L46.113 29.8646H46.1151C45.5472 28.656 44.3323 27.8846 42.9951 27.8867C41.6601 27.8867 40.4473 28.6603 39.8815 29.871L39.3844 30.9467H39.3865C36.6373 31.7224 34.2158 33.3746 32.4954 35.6545C30.7747 37.9345 29.849 40.716 29.8575 43.5726C29.849 45.6447 30.3418 47.689 31.2954 49.5295C32.3861 51.696 34.0597 53.5152 36.1275 54.7838C38.1932 56.0524 40.5739 56.7211 42.9994 56.7147ZM53.8572 43.5726C53.8572 44.4019 53.7608 45.229 53.5722 46.0369L47.9856 33.9256C49.7599 34.8363 51.2449 36.2184 52.282 37.9198C53.317 39.6234 53.8636 41.5796 53.8572 43.5726ZM42.9994 30.171C43.4451 30.1667 43.8522 30.4217 44.0408 30.8267L52.3955 48.9466C51.1355 51.1751 49.1255 52.883 46.7211 53.7659C44.319 54.6488 41.679 54.6488 39.277 53.7659C36.8727 52.883 34.8627 51.1751 33.6026 48.9444L41.9557 30.8328C42.1421 30.4257 42.5515 30.1667 42.9994 30.171ZM38.013 33.9231L32.4263 46.0367C31.8778 43.6838 32.1285 41.2152 33.1399 39.021C34.1513 36.8268 35.8656 35.0332 38.0127 33.9253L38.013 33.9231Z" fill="#703391" stroke="#703391"/>
<path d="M41.5909 45.4713C41.6809 46.1806 42.283 46.712 42.9966 46.712H43.0009C43.7145 46.712 44.3166 46.1806 44.4066 45.4735L45.0345 40.4485V40.4463C45.1073 39.8635 44.9252 39.2763 44.5373 38.8349C44.1473 38.3935 43.588 38.1406 42.9987 38.1406C42.4095 38.1406 41.8502 38.3935 41.4602 38.8349C41.0723 39.2763 40.8902 39.8635 40.963 40.4463L41.5909 45.4713Z" fill="#703391" stroke="#703391"/>
<path d="M44.4289 48.7139C44.4289 50.6189 41.5703 50.6189 41.5703 48.7139C41.5703 46.8089 44.4289 46.8089 44.4289 48.7139Z" fill="#703391" stroke="#703391"/>
</svg>
