<svg width="57" height="54" viewBox="0 0 57 54" fill="none" xmlns="http://www.w3.org/2000/svg">
<path d="M52.2 26.6368H49.62V24.5785C49.62 19.6749 45.66 15.7399 40.86 15.7399H30.42V13.3789C30.42 12.3498 29.58 11.4417 28.5 11.4417C27.48 11.4417 26.58 12.2892 26.58 13.3789V15.7399H16.14C11.28 15.7399 7.38 19.7354 7.38 24.5785V26.6368H4.8C2.16 26.6368 0 28.8161 0 31.4798V38.2601C0 40.9238 2.16 43.1031 4.8 43.1031H7.38V45.1614C7.38 50.065 11.34 54 16.14 54H40.86C45.72 54 49.62 50.0045 49.62 45.1614V43.1031H52.2C54.84 43.1031 57 40.9238 57 38.2601V31.4798C57 28.8161 54.84 26.6368 52.2 26.6368ZM4.8 39.2287C4.26 39.2287 3.78 38.8049 3.78 38.1996V31.4798C3.78 30.935 4.2 30.4507 4.8 30.4507H7.38V39.2287H4.8ZM45.84 45.1009C45.84 47.8856 43.62 50.1256 40.86 50.1256H16.14C13.38 50.1256 11.16 47.8856 11.16 45.1009V24.5785C11.16 21.7937 13.38 19.5538 16.14 19.5538H40.86C43.62 19.5538 45.84 21.7937 45.84 24.5785V45.1009ZM53.22 38.2601C53.22 38.8049 52.8 39.2892 52.2 39.2892H49.62V30.4507H52.2C52.74 30.4507 53.22 30.8744 53.22 31.4798V38.2601Z" fill="#703391"/>
<path d="M20.94 33.4775C23.1271 33.4775 24.9 31.6887 24.9 29.482C24.9 27.2754 23.1271 25.4865 20.94 25.4865C18.753 25.4865 16.98 27.2754 16.98 29.482C16.98 31.6887 18.753 33.4775 20.94 33.4775Z" fill="#703391"/>
<path d="M36.06 33.4775C38.247 33.4775 40.02 31.6887 40.02 29.482C40.02 27.2754 38.247 25.4865 36.06 25.4865C33.8729 25.4865 32.1 27.2754 32.1 29.482C32.1 31.6887 33.8729 33.4775 36.06 33.4775Z" fill="#703391"/>
<path d="M35.22 37.4731H21.78C20.88 37.4731 20.22 38.3206 20.46 39.1681C21.06 41.5897 22.86 45.7063 28.5 45.7063C34.14 45.7063 36 41.5291 36.54 39.1681C36.78 38.2601 36.12 37.4731 35.22 37.4731Z" fill="#703391"/>
<path d="M28.5 7.50672C29.52 7.50672 30.42 6.65919 30.42 5.56951V1.93722C30.42 0.908072 29.58 0 28.5 0C27.48 0 26.58 0.847534 26.58 1.93722V5.63004C26.58 6.65919 27.48 7.50672 28.5 7.50672Z" fill="#703391"/>
<path d="M17.76 9.3229L20.94 11.139C21.24 11.3207 21.54 11.3812 21.9 11.3812C22.56 11.3812 23.16 11.018 23.52 10.4126C24.06 9.50451 23.76 8.35429 22.8 7.80944L19.62 5.9933C18.72 5.44846 17.58 5.75115 17.04 6.71976C16.5 7.62783 16.86 8.77805 17.76 9.3229Z" fill="#703391"/>
<path d="M35.1599 11.3811C35.4599 11.3811 35.8199 11.3206 36.1199 11.139L39.2999 9.32281C40.1999 8.77797 40.4999 7.62775 40.0199 6.71968C39.4799 5.8116 38.3399 5.50891 37.4399 5.99322L34.2599 7.80936C33.3599 8.3542 33.0599 9.50443 33.5399 10.4125C33.8999 11.0784 34.4999 11.3811 35.1599 11.3811Z" fill="#703391"/>
</svg>
