<svg width="86" height="86" viewBox="0 0 86 86" fill="none" xmlns="http://www.w3.org/2000/svg">
<circle cx="43" cy="43" r="43" fill="#703391" fill-opacity="0.1"/>
<path fill-rule="evenodd" clip-rule="evenodd" d="M43.001 54.3297C36.753 54.3297 31.6701 49.2463 31.6701 42.9989C31.6701 36.7514 36.7535 31.668 43.001 31.668C49.2484 31.668 54.3318 36.7514 54.3318 42.9989C54.3318 49.2463 49.2484 54.3297 43.001 54.3297ZM43.001 33.1676C37.5801 33.1676 33.1702 37.5778 33.1702 42.9984C33.1702 48.419 37.5803 52.8292 43.001 52.8292C48.4216 52.8292 52.8318 48.419 52.8318 42.9984C52.8318 37.5778 48.4216 33.1676 43.001 33.1676Z" fill="#703391"/>
<path fill-rule="evenodd" clip-rule="evenodd" d="M46.7754 49.0217H39.2281C38.388 49.0217 37.7036 48.3372 37.7036 47.4972V42.2247C37.7036 41.3828 38.388 40.7002 39.2281 40.7002H46.7754C47.6173 40.7002 48.2999 41.3847 48.2999 42.2247V47.4972C48.2999 48.3391 47.6155 49.0217 46.7754 49.0217ZM39.2281 42.1982C39.2168 42.1982 39.2037 42.2113 39.2037 42.2226V47.4951C39.2037 47.5082 39.2168 47.5195 39.2281 47.5195H46.7754C46.7885 47.5195 46.7998 47.5063 46.7998 47.4951V42.2226C46.7998 42.2094 46.7867 42.1982 46.7754 42.1982H39.2281Z" fill="#703391"/>
<path fill-rule="evenodd" clip-rule="evenodd" d="M46.1024 42.1984H39.8996C39.4852 42.1984 39.1496 41.8628 39.1496 41.4484V39.0502C39.1496 37.9064 40.0796 36.9763 41.2234 36.9763H44.7785C45.9223 36.9763 46.8523 37.9064 46.8523 39.0502V41.4484C46.8523 41.8628 46.5168 42.1984 46.1024 42.1984ZM40.6499 40.6984H45.3526V39.0502C45.3526 38.7333 45.0957 38.4764 44.7788 38.4764H41.2237C40.9068 38.4764 40.6499 38.7333 40.6499 39.0502L40.6499 40.6984Z" fill="#703391"/>
<path fill-rule="evenodd" clip-rule="evenodd" d="M43.001 62.7156C42.5866 62.7156 42.2509 62.38 42.2509 61.9656V53.5801C42.2509 53.1657 42.5866 52.8292 43.001 52.8292C43.4154 52.8292 43.751 53.1657 43.751 53.5801V61.9656C43.751 62.38 43.4153 62.7156 43.001 62.7156Z" fill="#703391"/>
<path fill-rule="evenodd" clip-rule="evenodd" d="M43.0009 67C41.4071 67 40.1096 65.7025 40.1096 64.1087C40.1096 62.513 41.4071 61.2173 43.0009 61.2173C44.5947 61.2173 45.8923 62.5148 45.8923 64.1087C45.8923 65.7025 44.5947 67 43.0009 67ZM43.001 62.7156C42.234 62.7156 41.6096 63.3399 41.6096 64.1067C41.6096 64.8736 42.2341 65.498 43.0009 65.498C43.7678 65.498 44.3922 64.8736 44.3922 64.1067C44.3922 63.3399 43.7678 62.7156 43.001 62.7156Z" fill="#703391"/>
<path fill-rule="evenodd" clip-rule="evenodd" d="M33.6535 62.7152C33.2391 62.7152 32.9034 62.3796 32.9034 61.9652V56.4973C32.9034 56.0829 33.2391 55.7472 33.6535 55.7472H37.5387V52.4752C37.5387 52.0608 37.8743 51.7252 38.2887 51.7252C38.7031 51.7252 39.0387 52.0608 39.0387 52.4752V56.4973C39.0387 56.9117 38.7031 57.2473 38.2887 57.2473H34.4035V61.965C34.4035 62.3794 34.0679 62.7152 33.6535 62.7152Z" fill="#703391"/>
<path fill-rule="evenodd" clip-rule="evenodd" d="M33.6535 67C32.0596 67 30.7621 65.7025 30.7621 64.1087C30.7621 62.513 32.0596 61.2173 33.6535 61.2173C35.2473 61.2173 36.5448 62.5148 36.5448 64.1087C36.5448 65.7025 35.2473 67 33.6535 67ZM33.6535 62.7152C32.8865 62.7152 32.2622 63.3399 32.2622 64.1067C32.2622 64.8736 32.8866 65.498 33.6535 65.498C34.4203 65.498 35.0447 64.8736 35.0447 64.1067C35.0447 63.3399 34.4204 62.7152 33.6535 62.7152Z" fill="#703391"/>
<path fill-rule="evenodd" clip-rule="evenodd" d="M52.3485 62.7155C51.9341 62.7155 51.5984 62.3798 51.5984 61.9654V57.2478H47.7133C47.2989 57.2478 46.9632 56.9121 46.9632 56.4977V52.4738C46.9632 52.0594 47.2989 51.7238 47.7133 51.7238C48.1276 51.7238 48.4633 52.0594 48.4633 52.4738V55.7458H52.3485C52.7629 55.7458 53.0985 56.0815 53.0985 56.4959V61.9638C53.0985 62.3782 52.7629 62.7138 52.3485 62.7138V62.7155Z" fill="#703391"/>
<path fill-rule="evenodd" clip-rule="evenodd" d="M52.3484 67C50.7527 67 49.4571 65.7025 49.4571 64.1087C49.4571 62.513 50.7546 61.2173 52.3484 61.2173C53.9422 61.2173 55.2398 62.5148 55.2398 64.1087C55.2398 65.7025 53.9422 67 52.3484 67ZM52.3485 62.7155C51.5815 62.7155 50.9571 63.3399 50.9571 64.1067C50.9571 64.8736 51.5815 65.498 52.3484 65.498C53.1153 65.498 53.7397 64.8736 53.7397 64.1067C53.7397 63.3399 53.1153 62.7155 52.3485 62.7155Z" fill="#703391"/>
<path fill-rule="evenodd" clip-rule="evenodd" d="M61.9675 53.0964H56.4996C56.0852 53.0964 55.7496 52.7607 55.7496 52.3464V48.4612H52.4776C52.0632 48.4612 51.7276 48.1255 51.7276 47.7111C51.7276 47.2968 52.0632 46.9611 52.4776 46.9611H56.4996C56.914 46.9611 57.2496 47.2968 57.2496 47.7111V51.5963H61.9673C62.3817 51.5963 62.7174 51.932 62.7174 52.3464C62.7174 52.7607 62.3819 53.0964 61.9675 53.0964Z" fill="#703391"/>
<path fill-rule="evenodd" clip-rule="evenodd" d="M64.1108 55.2395C62.5151 55.2395 61.2194 53.942 61.2194 52.3482C61.2194 50.7544 62.517 49.4568 64.1108 49.4568C65.7064 49.4568 67.0021 50.7544 67.0021 52.3482C67.0021 53.942 65.7046 55.2395 64.1108 55.2395ZM64.1108 50.955C63.3438 50.955 62.7195 51.5794 62.7195 52.3463C62.7195 53.1131 63.3439 53.7376 64.1108 53.7376C64.8777 53.7376 65.5021 53.1131 65.5021 52.3463C65.5021 51.5794 64.8776 50.955 64.1108 50.955Z" fill="#703391"/>
<path fill-rule="evenodd" clip-rule="evenodd" d="M56.4996 39.0371H52.4757C52.0613 39.0371 51.7257 38.7014 51.7257 38.287C51.7257 37.8727 52.0613 37.537 52.4757 37.537H55.7477V33.6518C55.7477 33.2374 56.0834 32.9018 56.4977 32.9018H61.9656C62.38 32.9018 62.7157 33.2374 62.7157 33.6518C62.7157 34.0662 62.38 34.4019 61.9656 34.4019H57.248V38.287C57.248 38.7014 56.9123 39.0371 56.4979 39.0371H56.4996Z" fill="#703391"/>
<path fill-rule="evenodd" clip-rule="evenodd" d="M64.1108 36.5432C62.5151 36.5432 61.2194 35.2456 61.2194 33.6518C61.2194 32.058 62.517 30.7605 64.1108 30.7605C65.7064 30.7605 67.0021 32.058 67.0021 33.6518C67.0021 35.2456 65.7046 36.5432 64.1108 36.5432ZM64.1108 32.2586C63.3438 32.2586 62.7195 32.883 62.7195 33.6499C62.7195 34.4168 63.3439 35.0412 64.1108 35.0412C64.8777 35.0412 65.5021 34.4168 65.5021 33.6499C65.5021 32.883 64.8776 32.2586 64.1108 32.2586Z" fill="#703391"/>
<path fill-rule="evenodd" clip-rule="evenodd" d="M43.001 33.1676C42.5866 33.1676 42.2509 32.8325 42.2509 32.4182V24.0327C42.2509 23.6183 42.5866 23.2827 43.001 23.2827C43.4153 23.2827 43.751 23.6183 43.751 24.0327V32.4182C43.751 32.8325 43.4154 33.1676 43.001 33.1676Z" fill="#703391"/>
<path fill-rule="evenodd" clip-rule="evenodd" d="M43.0009 24.7827C41.4071 24.7827 40.1096 23.4852 40.1096 21.8913C40.1096 20.2975 41.4071 19 43.0009 19C44.5947 19 45.8923 20.2975 45.8923 21.8913C45.8923 23.4852 44.5947 24.7827 43.0009 24.7827ZM43.0009 20.4981C42.234 20.4981 41.6096 21.1225 41.6096 21.8894C41.6096 22.6564 42.2341 23.2807 43.0009 23.2807C43.7678 23.2807 44.3922 22.6563 44.3922 21.8894C44.3922 21.1225 43.7678 20.4981 43.0009 20.4981Z" fill="#703391"/>
<path fill-rule="evenodd" clip-rule="evenodd" d="M38.2892 34.2722C37.8748 34.2722 37.5391 33.9366 37.5391 33.5222V30.2502H33.6539C33.2396 30.2502 32.9039 29.9145 32.9039 29.5001V24.0322C32.9039 23.6178 33.2396 23.2822 33.6539 23.2822C34.0683 23.2822 34.404 23.6178 34.404 24.0322V28.7499H38.2892C38.7035 28.7499 39.0392 29.0855 39.0392 29.4999V33.522C39.0392 33.9364 38.7035 34.2722 38.2892 34.2722Z" fill="#703391"/>
<path fill-rule="evenodd" clip-rule="evenodd" d="M33.6535 24.7827C32.0596 24.7827 30.7621 23.4852 30.7621 21.8913C30.7621 20.2975 32.0596 19 33.6535 19C35.2473 19 36.5448 20.2975 36.5448 21.8913C36.5448 23.4852 35.2473 24.7827 33.6535 24.7827ZM33.6535 20.4981C32.8865 20.4981 32.2622 21.1225 32.2622 21.8894C32.2622 22.6564 32.8866 23.2807 33.6535 23.2807C34.4203 23.2807 35.0447 22.6563 35.0447 21.8894C35.0447 21.1225 34.4203 20.4981 33.6535 20.4981Z" fill="#703391"/>
<path fill-rule="evenodd" clip-rule="evenodd" d="M33.5243 39.0371H29.5023C29.0879 39.0371 28.7523 38.7014 28.7523 38.287V34.4019H24.0346C23.6202 34.4019 23.2845 34.0662 23.2845 33.6518C23.2845 33.2374 23.6202 32.9018 24.0346 32.9018H29.5025C29.9169 32.9018 30.2525 33.2374 30.2525 33.6518V37.537H33.5245C33.9389 37.537 34.2745 37.8727 34.2745 38.287C34.2745 38.7014 33.9387 39.0371 33.5243 39.0371Z" fill="#703391"/>
<path fill-rule="evenodd" clip-rule="evenodd" d="M21.8913 36.5432C20.2975 36.5432 19 35.2456 19 33.6518C19 32.058 20.2975 30.7605 21.8913 30.7605C23.4852 30.7605 24.7827 32.058 24.7827 33.6518C24.7827 35.2456 23.4852 36.5432 21.8913 36.5432ZM21.8913 32.2586C21.1244 32.2586 20.5001 32.883 20.5001 33.6499C20.5001 34.4168 21.1245 35.0412 21.8913 35.0412C22.6583 35.0412 23.2826 34.4168 23.2826 33.6499C23.2826 32.883 22.6582 32.2586 21.8913 32.2586Z" fill="#703391"/>
<path fill-rule="evenodd" clip-rule="evenodd" d="M24.0343 53.0964C23.62 53.0964 23.2843 52.7607 23.2843 52.3464C23.2843 51.932 23.62 51.5963 24.0343 51.5963H28.752V47.7111C28.752 47.2968 29.0877 46.9611 29.502 46.9611H33.526C33.9403 46.9611 34.276 47.2968 34.276 47.7111C34.276 48.1255 33.9403 48.4612 33.526 48.4612H30.2539V52.3464C30.2539 52.7607 29.9183 53.0964 29.5039 53.0964H24.0343Z" fill="#703391"/>
<path fill-rule="evenodd" clip-rule="evenodd" d="M21.8913 55.2395C20.2975 55.2395 19 53.942 19 52.3482C19 50.7544 20.2975 49.4568 21.8913 49.4568C23.4852 49.4568 24.7827 50.7544 24.7827 52.3482C24.7827 53.942 23.4852 55.2395 21.8913 55.2395ZM21.8913 50.955C21.1244 50.955 20.5001 51.5794 20.5001 52.3463C20.5001 53.1131 21.1245 53.7376 21.8913 53.7376C22.6583 53.7376 23.2826 53.1131 23.2826 52.3463C23.2826 51.5794 22.6582 50.955 21.8913 50.955Z" fill="#703391"/>
<path d="M43.001 33.1676C37.5801 33.1676 33.1702 37.5778 33.1702 42.9984C33.1702 48.419 37.5803 52.8292 43.001 52.8292M43.001 33.1676C48.4216 33.1676 52.8318 37.5778 52.8318 42.9984C52.8318 48.419 48.4216 52.8292 43.001 52.8292M43.001 33.1676C42.5866 33.1676 42.2509 32.8325 42.2509 32.4182V24.0327C42.2509 23.6183 42.5866 23.2827 43.001 23.2827C43.4153 23.2827 43.751 23.6183 43.751 24.0327V32.4182C43.751 32.8325 43.4154 33.1676 43.001 33.1676ZM43.001 52.8292C42.5866 52.8292 42.2509 53.1657 42.2509 53.5801V61.9656C42.2509 62.38 42.5866 62.7156 43.001 62.7156M43.001 52.8292C43.4154 52.8292 43.751 53.1657 43.751 53.5801V61.9656C43.751 62.38 43.4153 62.7156 43.001 62.7156M43.001 62.7156C42.234 62.7156 41.6096 63.3399 41.6096 64.1067C41.6096 64.8736 42.2341 65.498 43.0009 65.498C43.7678 65.498 44.3922 64.8736 44.3922 64.1067C44.3922 63.3399 43.7678 62.7156 43.001 62.7156ZM33.6535 62.7152C33.2391 62.7152 32.9034 62.3796 32.9034 61.9652V56.4973C32.9034 56.0829 33.2391 55.7472 33.6535 55.7472H37.5387V52.4752C37.5387 52.0608 37.8743 51.7252 38.2887 51.7252C38.7031 51.7252 39.0387 52.0608 39.0387 52.4752V56.4973C39.0387 56.9117 38.7031 57.2473 38.2887 57.2473H34.4035V61.965C34.4035 62.3794 34.0679 62.7152 33.6535 62.7152ZM33.6535 62.7152C32.8865 62.7152 32.2622 63.3399 32.2622 64.1067C32.2622 64.8736 32.8866 65.498 33.6535 65.498C34.4203 65.498 35.0447 64.8736 35.0447 64.1067C35.0447 63.3399 34.4204 62.7152 33.6535 62.7152ZM52.3485 62.7155C51.9341 62.7155 51.5984 62.3798 51.5984 61.9654V57.2478H47.7133C47.2989 57.2478 46.9632 56.9121 46.9632 56.4977V52.4738C46.9632 52.0594 47.2989 51.7238 47.7133 51.7238C48.1276 51.7238 48.4633 52.0594 48.4633 52.4738V55.7458H52.3485C52.7629 55.7458 53.0985 56.0815 53.0985 56.4959V61.9638C53.0985 62.3782 52.7629 62.7138 52.3485 62.7138V62.7155ZM52.3485 62.7155C51.5815 62.7155 50.9571 63.3399 50.9571 64.1067C50.9571 64.8736 51.5815 65.498 52.3484 65.498C53.1153 65.498 53.7397 64.8736 53.7397 64.1067C53.7397 63.3399 53.1153 62.7155 52.3485 62.7155ZM43.001 54.3297C36.753 54.3297 31.6701 49.2463 31.6701 42.9989C31.6701 36.7514 36.7535 31.668 43.001 31.668C49.2484 31.668 54.3318 36.7514 54.3318 42.9989C54.3318 49.2463 49.2484 54.3297 43.001 54.3297ZM46.7754 49.0217H39.2281C38.388 49.0217 37.7036 48.3372 37.7036 47.4972V42.2247C37.7036 41.3828 38.388 40.7002 39.2281 40.7002H46.7754C47.6173 40.7002 48.2999 41.3847 48.2999 42.2247V47.4972C48.2999 48.3391 47.6155 49.0217 46.7754 49.0217ZM39.2281 42.1982C39.2168 42.1982 39.2037 42.2113 39.2037 42.2226V47.4951C39.2037 47.5082 39.2168 47.5195 39.2281 47.5195H46.7754C46.7885 47.5195 46.7998 47.5063 46.7998 47.4951V42.2226C46.7998 42.2094 46.7867 42.1982 46.7754 42.1982H39.2281ZM46.1024 42.1984H39.8996C39.4852 42.1984 39.1496 41.8628 39.1496 41.4484V39.0502C39.1496 37.9064 40.0796 36.9763 41.2234 36.9763H44.7785C45.9223 36.9763 46.8523 37.9064 46.8523 39.0502V41.4484C46.8523 41.8628 46.5168 42.1984 46.1024 42.1984ZM40.6499 40.6984H45.3526V39.0502C45.3526 38.7333 45.0957 38.4764 44.7788 38.4764H41.2237C40.9068 38.4764 40.6499 38.7333 40.6499 39.0502L40.6499 40.6984ZM43.0009 67C41.4071 67 40.1096 65.7025 40.1096 64.1087C40.1096 62.513 41.4071 61.2173 43.0009 61.2173C44.5947 61.2173 45.8923 62.5148 45.8923 64.1087C45.8923 65.7025 44.5947 67 43.0009 67ZM33.6535 67C32.0596 67 30.7621 65.7025 30.7621 64.1087C30.7621 62.513 32.0596 61.2173 33.6535 61.2173C35.2473 61.2173 36.5448 62.5148 36.5448 64.1087C36.5448 65.7025 35.2473 67 33.6535 67ZM52.3484 67C50.7527 67 49.4571 65.7025 49.4571 64.1087C49.4571 62.513 50.7546 61.2173 52.3484 61.2173C53.9422 61.2173 55.2398 62.5148 55.2398 64.1087C55.2398 65.7025 53.9422 67 52.3484 67ZM61.9675 53.0964H56.4996C56.0852 53.0964 55.7496 52.7607 55.7496 52.3464V48.4612H52.4776C52.0632 48.4612 51.7276 48.1255 51.7276 47.7111C51.7276 47.2968 52.0632 46.9611 52.4776 46.9611H56.4996C56.914 46.9611 57.2496 47.2968 57.2496 47.7111V51.5963H61.9673C62.3817 51.5963 62.7174 51.932 62.7174 52.3464C62.7174 52.7607 62.3819 53.0964 61.9675 53.0964ZM64.1108 55.2395C62.5151 55.2395 61.2194 53.942 61.2194 52.3482C61.2194 50.7544 62.517 49.4568 64.1108 49.4568C65.7064 49.4568 67.0021 50.7544 67.0021 52.3482C67.0021 53.942 65.7046 55.2395 64.1108 55.2395ZM64.1108 50.955C63.3438 50.955 62.7195 51.5794 62.7195 52.3463C62.7195 53.1131 63.3439 53.7376 64.1108 53.7376C64.8777 53.7376 65.5021 53.1131 65.5021 52.3463C65.5021 51.5794 64.8776 50.955 64.1108 50.955ZM56.4996 39.0371H52.4757C52.0613 39.0371 51.7257 38.7014 51.7257 38.287C51.7257 37.8726 52.0613 37.537 52.4757 37.537H55.7477V33.6518C55.7477 33.2374 56.0834 32.9018 56.4977 32.9018H61.9656C62.38 32.9018 62.7157 33.2374 62.7157 33.6518C62.7157 34.0662 62.38 34.4019 61.9656 34.4019H57.248V38.287C57.248 38.7014 56.9123 39.0371 56.4979 39.0371H56.4996ZM64.1108 36.5432C62.5151 36.5432 61.2194 35.2456 61.2194 33.6518C61.2194 32.058 62.517 30.7605 64.1108 30.7605C65.7064 30.7605 67.0021 32.058 67.0021 33.6518C67.0021 35.2456 65.7046 36.5432 64.1108 36.5432ZM64.1108 32.2586C63.3438 32.2586 62.7195 32.883 62.7195 33.6499C62.7195 34.4168 63.3439 35.0412 64.1108 35.0412C64.8777 35.0412 65.5021 34.4168 65.5021 33.6499C65.5021 32.883 64.8776 32.2586 64.1108 32.2586ZM43.0009 24.7827C41.4071 24.7827 40.1096 23.4852 40.1096 21.8913C40.1096 20.2975 41.4071 19 43.0009 19C44.5947 19 45.8923 20.2975 45.8923 21.8913C45.8923 23.4852 44.5947 24.7827 43.0009 24.7827ZM43.0009 20.4981C42.234 20.4981 41.6096 21.1225 41.6096 21.8894C41.6096 22.6564 42.2341 23.2807 43.0009 23.2807C43.7678 23.2807 44.3922 22.6563 44.3922 21.8894C44.3922 21.1225 43.7678 20.4981 43.0009 20.4981ZM38.2892 34.2722C37.8748 34.2722 37.5391 33.9366 37.5391 33.5222V30.2502H33.6539C33.2396 30.2502 32.9039 29.9145 32.9039 29.5001V24.0322C32.9039 23.6178 33.2396 23.2822 33.6539 23.2822C34.0683 23.2822 34.404 23.6178 34.404 24.0322V28.7499H38.2892C38.7035 28.7499 39.0392 29.0855 39.0392 29.4999V33.522C39.0392 33.9364 38.7035 34.2722 38.2892 34.2722ZM33.6535 24.7827C32.0596 24.7827 30.7621 23.4852 30.7621 21.8913C30.7621 20.2975 32.0596 19 33.6535 19C35.2473 19 36.5448 20.2975 36.5448 21.8913C36.5448 23.4852 35.2473 24.7827 33.6535 24.7827ZM33.6535 20.4981C32.8865 20.4981 32.2622 21.1225 32.2622 21.8894C32.2622 22.6564 32.8866 23.2807 33.6535 23.2807C34.4203 23.2807 35.0447 22.6563 35.0447 21.8894C35.0447 21.1225 34.4203 20.4981 33.6535 20.4981ZM33.5243 39.0371H29.5023C29.0879 39.0371 28.7523 38.7014 28.7523 38.287V34.4019H24.0346C23.6202 34.4019 23.2845 34.0662 23.2845 33.6518C23.2845 33.2374 23.6202 32.9018 24.0346 32.9018H29.5025C29.9169 32.9018 30.2525 33.2374 30.2525 33.6518V37.537H33.5245C33.9389 37.537 34.2745 37.8726 34.2745 38.287C34.2745 38.7014 33.9387 39.0371 33.5243 39.0371ZM21.8913 36.5432C20.2975 36.5432 19 35.2456 19 33.6518C19 32.058 20.2975 30.7605 21.8913 30.7605C23.4852 30.7605 24.7827 32.058 24.7827 33.6518C24.7827 35.2456 23.4852 36.5432 21.8913 36.5432ZM21.8913 32.2586C21.1244 32.2586 20.5001 32.883 20.5001 33.6499C20.5001 34.4168 21.1245 35.0412 21.8913 35.0412C22.6583 35.0412 23.2826 34.4168 23.2826 33.6499C23.2826 32.883 22.6582 32.2586 21.8913 32.2586ZM24.0343 53.0964C23.62 53.0964 23.2843 52.7607 23.2843 52.3464C23.2843 51.932 23.62 51.5963 24.0343 51.5963H28.752V47.7111C28.752 47.2968 29.0877 46.9611 29.502 46.9611H33.526C33.9403 46.9611 34.276 47.2968 34.276 47.7111C34.276 48.1255 33.9403 48.4612 33.526 48.4612H30.2539V52.3464C30.2539 52.7607 29.9183 53.0964 29.5039 53.0964H24.0343ZM21.8913 55.2395C20.2975 55.2395 19 53.942 19 52.3482C19 50.7544 20.2975 49.4568 21.8913 49.4568C23.4852 49.4568 24.7827 50.7544 24.7827 52.3482C24.7827 53.942 23.4852 55.2395 21.8913 55.2395ZM21.8913 50.955C21.1244 50.955 20.5001 51.5794 20.5001 52.3463C20.5001 53.1131 21.1245 53.7376 21.8913 53.7376C22.6583 53.7376 23.2826 53.1131 23.2826 52.3463C23.2826 51.5794 22.6582 50.955 21.8913 50.955Z" stroke="#703391" stroke-width="0.7"/>
</svg>
