<svg width="56" height="56" viewBox="0 0 56 56" fill="none" xmlns="http://www.w3.org/2000/svg">
<path fill-rule="evenodd" clip-rule="evenodd" d="M12.7719 19.1493C12.7719 18.9728 12.8886 18.8197 13.0563 18.785C13.4592 18.7018 14.2345 18.5664 15.0156 18.5664C16.0494 18.5664 16.7842 18.6962 17.15 18.7798C17.3085 18.816 17.4141 18.9628 17.4141 19.1303V22.9505C17.4141 23.041 17.4755 23.1189 17.5609 23.139C18.8394 23.4386 20.0325 23.9704 21.0961 24.6892C21.1705 24.7394 21.2691 24.7298 21.3319 24.6649L24.0999 21.8084C24.2209 21.6835 24.4083 21.6604 24.5506 21.7583C24.8926 21.9935 25.5336 22.4635 26.0859 23.0335C26.8169 23.7878 27.2474 24.4159 27.4489 24.7419C27.5362 24.8832 27.5102 25.064 27.3954 25.1824L24.5368 28.1325C24.4762 28.1952 24.4651 28.2924 24.5089 28.3686C25.138 29.462 25.5925 30.675 25.8327 31.9667C25.8497 32.0579 25.9266 32.1247 26.0167 32.1247H29.9989C30.1613 32.1247 30.3035 32.2336 30.3386 32.3972C30.4195 32.7748 30.5454 33.533 30.5454 34.5999C30.5454 35.406 30.4142 36.2061 30.3335 36.6219C30.2999 36.795 30.1515 36.9154 29.9805 36.9154H25.8268C25.7421 36.9154 25.6683 36.9746 25.6461 37.0589C25.355 38.1614 24.9053 39.1964 24.3238 40.1362C24.2765 40.2128 24.2863 40.3133 24.3485 40.3776L27.3168 43.4409C27.4378 43.5657 27.4602 43.7591 27.3654 43.906C27.1375 44.2589 26.682 44.9203 26.1297 45.4903C25.3987 46.2447 24.7902 46.6891 24.4743 46.897C24.3373 46.987 24.1622 46.9603 24.0473 46.8418L21.0293 43.7272C20.9681 43.664 20.8726 43.653 20.7987 43.6995C19.8357 44.3053 18.7744 44.7611 17.6453 45.0356C17.5605 45.0562 17.4999 45.1338 17.4999 45.2237V49.412C17.4999 49.5885 17.3832 49.7416 17.2156 49.7763C16.8126 49.8596 16.0373 49.9949 15.2562 49.9949C14.2224 49.9949 13.4877 49.8651 13.1219 49.7815C12.9633 49.7453 12.8578 49.5985 12.8578 49.431V45.2426C12.8578 45.1522 12.7964 45.0742 12.711 45.0541C11.6082 44.795 10.569 44.3629 9.62181 43.7873C9.54806 43.7424 9.45415 43.754 9.39361 43.8164L6.5407 46.7606C6.41974 46.8854 6.23237 46.9086 6.09002 46.8107C5.74802 46.5756 5.10707 46.1055 4.55475 45.5355C3.82374 44.7811 3.39316 44.1531 3.19175 43.8271C3.10446 43.6858 3.13038 43.505 3.24519 43.3865L6.02091 40.5221C6.08397 40.4569 6.09315 40.355 6.04404 40.2782C5.38554 39.2482 4.88686 38.0998 4.58453 36.8705C4.56339 36.7846 4.48887 36.7238 4.40298 36.7238H0.564869C0.393823 36.7238 0.245441 36.6033 0.211861 36.4303C0.131187 36.0145 0 35.2144 0 34.4083C0 33.3414 0.125825 32.5831 0.2068 32.2056C0.241894 32.042 0.384079 31.9331 0.546462 31.9331H4.29924C4.38808 31.9331 4.46431 31.8681 4.48255 31.7784C4.74638 30.4806 5.22717 29.2652 5.88399 28.1745C5.93002 28.098 5.91972 27.9987 5.85806 27.9351L3.13816 25.1282C3.01721 25.0034 2.99479 24.8099 3.08963 24.663C3.3175 24.3102 3.77295 23.6486 4.32528 23.0787C5.05628 22.3243 5.66481 21.8799 5.98076 21.6721C6.11768 21.582 6.29285 21.6087 6.40765 21.7272L9.13417 24.541C9.19605 24.6048 9.29259 24.6153 9.36673 24.5674C10.3577 23.9268 11.4556 23.4462 12.6266 23.1608C12.7114 23.1401 12.7719 23.0625 12.7719 22.9726V19.1493ZM15.1393 40.8061C19.6148 40.8061 21.9568 37.7543 21.9568 34.0974C21.9568 29.4787 18.8095 27.3886 15.1393 27.3886C10.6638 27.3886 8.64338 30.6058 8.64338 34.0974C8.64338 37.5889 10.6638 40.8061 15.1393 40.8061Z" fill="#703391"/>
<path d="M30.4106 43.0195C30.4127 43.0332 30.4148 43.0472 30.4169 43.0609L30.4171 43.0195H30.4106Z" fill="#703391"/>
<path d="M22.7393 12.9841C24.6416 12.9841 26.043 13.626 26.8807 14.3887C27.6487 15.088 28.1696 16.0705 28.1696 17.5238C28.1696 22.7241 33.1259 26.6032 38.0901 24.9358C38.9115 24.6599 39.7954 24.5079 40.7272 24.5079C44.8627 24.5079 49.212 28.8722 49.212 34.2857C49.212 39.1072 45.4132 43.0158 40.7272 43.0158H30.4171L30.4169 43.0483C30.4992 43.4849 30.5018 43.9389 30.4169 44.3855C30.3338 44.8219 30.1672 45.2512 29.9096 45.6501C29.6369 46.0724 29.0525 46.9304 28.2928 47.7143C28.0594 47.9553 27.8338 48.1729 27.6194 48.3687C27.0016 48.9328 26.4761 49.3153 26.1198 49.5498C25.7941 49.764 25.4531 49.9118 25.1083 49.9999H40.7272C49.162 49.9999 56 42.9644 56 34.2857C56 25.6069 49.162 17.5238 40.7272 17.5238C39.0712 17.5238 37.4768 17.7949 35.9836 18.2965C35.4866 18.4634 34.9575 18.0618 34.9575 17.5238C34.9575 10.5808 29.4873 6 22.7393 6C16.5972 6 11.5137 10.6632 10.6504 16.7364C11.1123 16.2311 11.7275 15.859 12.4549 15.7087C12.9375 15.609 13.9399 15.4285 15.0156 15.4285C16.298 15.4285 17.2557 15.5896 17.812 15.7167C17.8883 15.7341 17.9632 15.7539 18.0365 15.776C18.9757 14.1069 20.7301 12.9841 22.7393 12.9841Z" fill="#703391"/>
</svg>
