<svg width="56" height="56" viewBox="0 0 56 56" fill="none" xmlns="http://www.w3.org/2000/svg">
<path fill-rule="evenodd" clip-rule="evenodd" d="M27.9992 0C25.0502 0 22.6595 2.39002 22.6595 5.33249C22.6595 5.53499 22.672 5.73499 22.692 5.92999L12.1626 12.9374C11.8296 12.5974 11.4441 12.2949 11.011 12.0474C8.45752 10.5749 5.18813 11.4499 3.71599 13.9974C2.24148 16.5474 3.11769 19.8124 5.67116 21.2851C5.98408 21.4651 6.30702 21.6126 6.63746 21.7226V34.2775C6.30701 34.3875 5.98409 34.535 5.67116 34.715C3.11768 36.1875 2.24148 39.4524 3.71599 42.0027C5.18801 44.5527 8.4574 45.4252 11.011 43.9527C11.0986 43.9027 11.1837 43.8502 11.2663 43.7977L22.7091 51.415C23.0745 54.005 25.3026 56 27.9987 56C30.6924 56 32.9229 54.005 33.2884 51.415L44.7311 43.7977C44.8137 43.8502 44.9013 43.9027 44.9864 43.9527C47.5399 45.4252 50.8093 44.5502 52.284 42.0027C53.756 39.4526 52.8798 36.1877 50.3288 34.715C50.0159 34.535 49.693 34.3875 49.3625 34.2775V21.7226C49.693 21.6126 50.0159 21.4651 50.3288 21.2851C52.8823 19.8126 53.7585 16.5476 52.284 13.9974C50.8095 11.4472 47.5401 10.5749 44.9864 12.0474C44.5533 12.2974 44.1704 12.5974 43.8349 12.9374L33.3054 5.92999C33.3279 5.73498 33.3379 5.53498 33.3379 5.33249C33.3379 2.38746 30.9447 0 27.9982 0H27.9992ZM27.9992 2.66752C29.4737 2.66752 30.6704 3.86253 30.6704 5.33505C30.6704 6.80756 29.4737 8.00257 27.9992 8.00257C26.5247 8.00257 25.3281 6.80756 25.3281 5.33505C25.3281 3.86253 26.5247 2.66752 27.9992 2.66752ZM23.6859 8.47502C24.6572 9.80501 26.2268 10.6675 27.9992 10.6675C29.7717 10.6675 31.3412 9.80251 32.3126 8.47502L42.5062 15.2622C42.1432 16.5897 42.2884 18.0547 43.0319 19.3372C43.8455 20.7447 45.2074 21.6398 46.6919 21.9122V34.0895C45.2049 34.3645 43.843 35.257 43.0319 36.6645C42.0856 38.2995 42.1082 40.232 42.9218 41.7945L32.873 48.4844C32.0393 46.6269 30.1718 45.3319 27.9989 45.3319C25.8284 45.3319 23.9609 46.6269 23.1247 48.4844L13.0759 41.7945C13.8895 40.232 13.9121 38.2995 12.9658 36.6645C12.1522 35.257 10.7903 34.362 9.30582 34.0895V21.9122C10.7928 21.6397 12.1547 20.7447 12.9658 19.3372C13.7093 18.0522 13.8544 16.5872 13.4915 15.2622L23.6859 8.47502ZM8.41524 14.005C8.84583 14.015 9.27894 14.1325 9.67698 14.3625C10.9537 15.0975 11.3918 16.7275 10.6558 18.0025C9.91981 19.2775 8.28258 19.715 7.00584 18.9775C5.7291 18.2425 5.2935 16.6125 6.03204 15.3375C6.53773 14.4625 7.46893 13.98 8.41524 14.005ZM47.5832 14.005C48.5295 13.98 49.4607 14.4625 49.9665 15.3375C50.7024 16.6125 50.2694 18.2425 48.9927 18.9775C47.7159 19.7125 46.0812 19.275 45.3427 18.0025C44.6067 16.7275 45.0448 15.0975 46.3215 14.3625C46.7196 14.1325 47.1526 14.015 47.5832 14.005ZM27.9989 14.67C27.7536 14.67 27.5057 14.7375 27.2904 14.8725L16.6084 21.5401C16.2179 21.7851 15.9826 22.2101 15.9826 22.6701V33.3376C15.9826 33.7976 16.2204 34.2251 16.6109 34.4676L27.2929 41.1351C27.726 41.4051 28.2717 41.4051 28.7048 41.1351L39.3868 34.4676C39.7773 34.2226 40.0152 33.7976 40.0152 33.3376V22.6701C40.0152 22.2101 39.7773 21.7826 39.3868 21.5401L28.7048 14.8725C28.4895 14.7375 28.2443 14.67 27.9989 14.67ZM27.9989 17.5776L36.1597 22.67L27.9989 27.765L19.8381 22.67L27.9989 17.5776ZM37.344 25.0752V32.5977L29.3332 37.5977V30.0752L37.344 25.0752ZM18.6512 25.0777L26.662 30.0777V37.5977L18.6512 32.5977V25.0777ZM8.26976 36.6726C9.21607 36.6476 10.1448 37.1301 10.653 38.005C11.389 39.2801 10.9509 40.9101 9.67423 41.6451C8.39749 42.38 6.76526 41.9426 6.02929 40.6701C5.29331 39.3951 5.72637 37.765 7.00309 37.0301C7.40112 36.8001 7.83666 36.6826 8.26976 36.6726ZM47.7255 36.6726C48.1561 36.6826 48.5892 36.8001 48.9897 37.0301C50.2664 37.765 50.7045 39.3951 49.966 40.6701C49.23 41.9451 47.5953 42.3826 46.3186 41.645C45.0418 40.9101 44.6037 39.2801 45.3398 38.005C45.848 37.13 46.7792 36.6475 47.7255 36.6726ZM27.9963 48.0025C29.4708 48.0025 30.6675 49.1975 30.6675 50.67C30.6675 52.1425 29.4708 53.3375 27.9963 53.3375C26.5218 53.3375 25.3252 52.1425 25.3252 50.67V50.6625C25.3302 49.195 26.5243 48.0051 27.9963 48.0051V48.0025Z" fill="#703391"/>
</svg>
