<svg width="86" height="86" viewBox="0 0 86 86" fill="none" xmlns="http://www.w3.org/2000/svg">
<circle cx="43" cy="43" r="43" fill="#703391" fill-opacity="0.1"/>
<g clip-path="url(#clip0_3260_16322)">
<path d="M42.9415 18.9768C43.0132 18.9768 43.0849 18.9767 43.1588 18.9766C44.1958 18.9775 45.1797 19.0165 46.1876 19.2815C46.2986 19.3087 46.4095 19.3359 46.5238 19.3639C48.3041 19.8336 49.9604 20.624 51.4376 21.719C51.5141 21.7744 51.5906 21.8297 51.6694 21.8868C52.9132 22.8295 53.9615 23.9794 54.8126 25.2815C54.8697 25.3613 54.9267 25.4411 54.9855 25.5232C56.293 27.4132 57.0683 30.0005 57.0807 32.286C57.0815 32.365 57.0822 32.4441 57.083 32.5256C57.0853 32.7853 57.0869 33.0451 57.0883 33.3049C57.0888 33.3941 57.0893 33.4833 57.0898 33.5753C57.0923 34.0475 57.0941 34.5196 57.0954 34.9918C57.0967 35.3811 57.0993 35.7703 57.1031 36.1596C57.1078 36.6314 57.1101 37.1033 57.1107 37.5751C57.1114 37.7541 57.1128 37.9331 57.1151 38.1121C57.1362 39.8897 57.1362 39.8897 56.5939 40.6565C56.5417 40.7416 56.4895 40.8267 56.4357 40.9143C55.8717 41.463 55.2249 41.7945 54.4395 41.7907C54.3304 41.7904 54.2213 41.7901 54.109 41.7898C53.9951 41.789 53.8811 41.7882 53.7638 41.7874C53.6488 41.787 53.5338 41.7865 53.4153 41.7861C53.1311 41.785 52.8469 41.7835 52.5626 41.7815C52.5576 41.8471 52.5526 41.9127 52.5475 41.9803C52.3524 44.3452 51.4408 46.6439 49.7501 48.344C49.778 48.425 49.8059 48.5059 49.8347 48.5893C49.8988 48.7868 49.9576 48.9861 50.008 49.1876C50.2513 50.1226 50.6059 51.1456 51.4755 51.6665C52.5722 52.2009 53.7752 52.4979 54.9505 52.8064C58.242 53.6833 60.9545 55.962 62.6699 58.8703C63.8475 60.9256 64.5608 63.1869 64.5978 65.5647C64.6013 65.6513 64.6048 65.7379 64.6084 65.8271C64.6095 65.9111 64.6106 65.995 64.6117 66.0815C64.6136 66.1567 64.6154 66.232 64.6173 66.3095C64.5338 66.6486 64.3621 66.7822 64.0939 67.0003C63.8359 67.0465 63.636 67.0635 63.3786 67.0593C63.307 67.06 63.2354 67.0606 63.1616 67.0613C62.9207 67.0631 62.68 67.0614 62.4391 67.0598C62.265 67.0603 62.0909 67.0611 61.9168 67.062C61.4377 67.064 60.9587 67.063 60.4797 67.0616C59.9633 67.0605 59.447 67.0621 58.9306 67.0634C57.9188 67.0655 56.9069 67.0651 55.8951 67.0637C55.073 67.0626 54.2509 67.0625 53.4287 67.063C53.3118 67.0631 53.195 67.0632 53.0745 67.0632C52.8371 67.0634 52.5997 67.0635 52.3622 67.0637C50.1979 67.065 48.0336 67.0636 45.8693 67.0612C43.893 67.059 41.9167 67.0592 39.9404 67.0614C37.7207 67.0639 35.501 67.0649 33.2812 67.0635C33.0447 67.0633 32.8081 67.0632 32.5715 67.063C32.4551 67.0629 32.3387 67.0629 32.2188 67.0628C31.3974 67.0624 30.576 67.0631 29.7546 67.0642C28.7539 67.0655 27.7533 67.0651 26.7526 67.0626C26.2418 67.0614 25.731 67.0609 25.2202 67.0625C24.753 67.0639 24.2858 67.0631 23.8185 67.0606C23.6491 67.0601 23.4797 67.0604 23.3103 67.0615C23.0807 67.0629 22.8512 67.0615 22.6216 67.0593C22.5553 67.0604 22.489 67.0615 22.4206 67.0626C22.0592 67.0557 21.9148 67.0072 21.6309 66.7752C21.43 66.5219 21.3789 66.4299 21.382 66.1144C21.382 66.0358 21.382 65.9571 21.382 65.8761C21.3849 65.7927 21.3878 65.7093 21.3907 65.6233C21.3925 65.5362 21.3942 65.449 21.396 65.3592C21.5066 61.7828 23.1282 58.59 25.5626 56.0315C25.6531 55.932 25.6531 55.932 25.7454 55.8305C27.4057 54.0621 29.6684 53.204 31.92 52.469C32.133 52.3983 32.346 52.3273 32.5589 52.2563C32.9462 52.1272 33.3338 51.9989 33.7217 51.8717C33.8442 51.8306 33.8442 51.8306 33.9691 51.7886C34.1876 51.719 34.1876 51.719 34.5081 51.6457C34.8607 51.4793 34.9779 51.207 35.1398 50.8702C35.1727 50.8047 35.2057 50.7393 35.2396 50.6719C35.3086 50.5338 35.3766 50.3952 35.4437 50.2563C35.5469 50.0434 35.6536 49.8326 35.7609 49.6217C35.8275 49.4872 35.8939 49.3526 35.9601 49.2178C35.9921 49.1547 36.0241 49.0916 36.0571 49.0266C36.2256 48.6847 36.2256 48.6847 36.1883 48.3187C35.9423 48.0013 35.6896 47.6902 35.4339 47.3806C35.1188 46.9874 34.9254 46.6231 34.7325 46.1585C34.5957 45.851 34.5957 45.851 34.3751 45.6253C33.9867 45.5338 33.6426 45.5308 33.2465 45.5392C32.7183 45.5283 32.3705 45.3491 31.9376 45.0628C31.8525 45.0106 31.7675 44.9584 31.6798 44.9046C31.2854 44.4993 30.822 43.868 30.8083 43.2825C30.812 43.1782 30.812 43.1782 30.8159 43.0717C30.8664 42.2109 30.8664 42.2109 30.5241 41.4717C30.2811 41.3382 30.2811 41.3382 30.0231 41.2351C29.4886 40.9922 29.2183 40.4288 28.9985 39.9075C28.8922 39.5784 28.8985 39.2557 28.9012 38.9125C28.9007 38.8345 28.9002 38.7565 28.8997 38.6761C28.8985 38.4195 28.8993 38.1629 28.9003 37.9063C28.9001 37.7261 28.8998 37.5459 28.8995 37.3657C28.899 36.9879 28.8996 36.6101 28.901 36.2323C28.9025 35.7525 28.9016 35.2727 28.9 34.7929C28.8989 34.4203 28.8993 34.0478 28.9 33.6752C28.9002 33.4986 28.9 33.322 28.8993 33.1454C28.8879 29.2577 30.3838 25.7487 33.0626 22.9378C33.3026 22.7056 33.5536 22.4921 33.8126 22.2815C33.8992 22.2102 33.9857 22.1389 34.0748 22.0655C36.6096 20.0202 39.6928 18.9798 42.9415 18.9768ZM39.7189 21.344C39.6505 21.3636 39.5821 21.3832 39.5117 21.4034C37.6129 21.969 35.9969 22.9871 34.5626 24.344C34.4854 24.4152 34.4082 24.4864 34.3286 24.5597C32.9204 25.9021 31.9412 27.6475 31.3751 29.5003C31.3395 29.6162 31.3038 29.7321 31.2671 29.8515C31.0473 30.6156 30.9421 31.3311 30.9064 32.1253C31.4942 32.1253 32.082 32.1253 32.6876 32.1253C32.7089 31.8643 32.7302 31.6032 32.7521 31.3343C32.9844 28.9832 34.053 26.645 35.8751 25.094C37.5929 23.7211 39.5636 22.8395 41.7861 22.8217C41.8773 22.8209 41.9684 22.8202 42.0623 22.8194C42.2553 22.8181 42.4483 22.8171 42.6413 22.8164C42.8357 22.8153 43.0301 22.8134 43.2245 22.8106C46.0104 22.7707 48.4529 23.5276 50.5001 25.469C52.3561 27.2785 53.0927 29.596 53.3126 32.1253C53.9004 32.1253 54.4883 32.1253 55.0939 32.1253C54.9736 29.0377 53.4011 26.173 51.1974 24.0719C49.6701 22.6677 47.8894 21.8125 45.9064 21.2503C45.7877 21.2163 45.669 21.1824 45.5468 21.1474C43.6838 20.713 41.5517 20.8156 39.7189 21.344ZM36.5021 27.18C35.4999 28.3351 34.8597 29.7673 34.6564 31.2815C34.7242 31.2125 34.792 31.1435 34.8618 31.0724C36.4998 29.4572 38.6626 28.4096 40.9891 28.3976C41.7292 28.4305 42.0452 28.7813 42.5314 29.3128C42.7378 29.4951 42.9527 29.6653 43.17 29.8343C43.254 29.8998 43.254 29.8998 43.3397 29.9667C43.8879 30.388 44.4597 30.7552 45.0626 31.094C45.1164 31.1246 45.1702 31.1551 45.2255 31.1866C46.9718 32.1638 49.3113 33.07 51.3439 32.969C51.432 30.557 50.7877 28.5697 49.129 26.7698C47.3267 25.0486 45.003 24.5776 42.5929 24.6114C40.223 24.6716 38.1641 25.449 36.5021 27.18ZM35.5472 33.325C35.4509 33.4559 35.3557 33.5875 35.2614 33.7199C35.1251 33.9065 35.1251 33.9065 34.9853 34.0718C34.62 34.5179 34.6008 34.8486 34.6505 35.4124C34.6594 35.5427 34.6594 35.5427 34.6684 35.6755C34.6918 35.9925 34.7206 36.3088 34.7501 36.6253C34.7621 36.7578 34.774 36.8904 34.7859 37.0229C34.9324 38.6315 35.114 40.2335 35.3712 41.8284C35.3905 41.9485 35.4098 42.0685 35.4297 42.1922C35.5147 42.6984 35.6098 43.1716 35.7814 43.6565C36.205 43.6866 36.6284 43.7048 37.0529 43.721C37.2324 43.7339 37.2324 43.7339 37.4156 43.7472C37.7727 43.7574 38.062 43.7532 38.4064 43.6565C38.6423 43.4134 38.7785 43.1861 38.9243 42.8812C39.2133 42.3465 39.8139 42.0621 40.3751 41.8753C40.6287 41.8544 40.8726 41.8424 41.1262 41.8405C41.1982 41.8396 41.2703 41.8388 41.3445 41.8379C41.4966 41.8366 41.6488 41.8357 41.8009 41.8354C42.031 41.8343 42.2609 41.8297 42.4909 41.8249C43.4746 41.8148 44.1678 41.9166 44.9513 42.5608C45.6274 43.3915 45.7985 44.1017 45.7405 45.159C45.6652 45.803 45.2734 46.3498 44.7814 46.7503C43.971 47.3091 43.309 47.3414 42.3487 47.3508C42.1946 47.3528 42.0406 47.3559 41.8865 47.3604C40.8977 47.3884 40.0846 47.3595 39.2501 46.7503C38.9571 46.4436 38.7419 46.1417 38.5895 45.7447C38.4314 45.5162 38.4314 45.5162 38.2171 45.4943C37.9758 45.4853 37.7393 45.4908 37.4982 45.5022C37.4145 45.5044 37.3308 45.5065 37.2446 45.5086C37.0379 45.5142 36.8316 45.5219 36.6251 45.5315C37.7231 47.2871 39.2964 48.5854 41.3243 49.1116C43.3447 49.5064 45.2828 49.1537 47.0314 48.0628C49.0725 46.6083 50.1841 44.4986 50.5939 42.0628C50.9717 39.7266 51.3439 37.3086 51.3439 34.9378C51.2714 34.9275 51.199 34.9172 51.1244 34.9067C47.4904 34.3787 43.6366 33.2585 41.0153 30.5052C40.8445 30.314 40.8445 30.314 40.5333 30.2972C38.4395 30.4215 36.7605 31.7018 35.5472 33.325ZM30.8126 34.0003C30.8057 34.6959 30.8006 35.3915 30.7972 36.0871C30.7958 36.3236 30.7938 36.5601 30.7914 36.7966C30.788 37.1371 30.7864 37.4776 30.7852 37.818C30.7837 37.9233 30.7823 38.0286 30.7808 38.1371C30.7806 38.7052 30.8063 39.1289 31.0939 39.6253C31.5375 39.9379 31.9486 39.9197 32.4782 39.9128C32.5761 39.9121 32.5761 39.9121 32.676 39.9114C32.8361 39.9102 32.9962 39.9084 33.1564 39.9065C33.1451 39.793 33.1451 39.793 33.1335 39.6773C32.9467 37.7865 32.799 35.897 32.6876 34.0003C32.0689 34.0003 31.4501 34.0003 30.8126 34.0003ZM53.3126 34.0003C53.2945 34.2617 53.2764 34.5231 53.2577 34.7924C53.0086 38.3597 53.0086 38.3597 52.8439 39.9065C53.9268 39.9886 53.9268 39.9886 54.9064 39.6253C55.2467 39.0379 55.2243 38.4841 55.2151 37.818C55.2145 37.654 55.2145 37.654 55.2139 37.4866C55.2123 37.139 55.2088 36.7913 55.2052 36.4436C55.2038 36.2073 55.2025 35.9709 55.2014 35.7345C55.1983 35.1564 55.1934 34.5783 55.1876 34.0003C54.5689 34.0003 53.9501 34.0003 53.3126 34.0003ZM32.6876 41.7815C32.6551 42.3797 32.6424 42.8592 32.9689 43.3753C33.1861 43.5105 33.3784 43.5774 33.6251 43.6565C33.748 43.253 33.668 42.9124 33.5841 42.5081C33.5703 42.4382 33.5564 42.3684 33.5422 42.2964C33.508 42.1247 33.4729 41.9531 33.4376 41.7815C33.1901 41.7815 32.9426 41.7815 32.6876 41.7815ZM40.4689 43.9378C40.2391 44.2825 40.2041 44.5686 40.2814 44.969C40.5344 45.2994 40.7204 45.4579 41.1251 45.5315C41.4315 45.5542 41.7379 45.5532 42.045 45.555C42.1273 45.5569 42.2095 45.5588 42.2943 45.5608C42.8212 45.564 43.1935 45.5092 43.6564 45.2503C43.8862 44.9056 43.9211 44.6194 43.8439 44.219C43.5908 43.8887 43.4049 43.7301 43.0001 43.6565C42.6938 43.6339 42.3873 43.6349 42.0802 43.6331C41.998 43.6312 41.9157 43.6292 41.831 43.6272C41.304 43.6241 40.9317 43.6788 40.4689 43.9378ZM47.8217 50.3538C47.753 50.4223 47.6844 50.4908 47.6137 50.5614C47.5052 50.6704 47.5052 50.6704 47.3947 50.7815C47.3246 50.8513 47.2545 50.921 47.1823 50.9928C46.7899 51.3859 46.4149 51.7878 46.0525 52.2087C45.8575 52.431 45.6495 52.6378 45.4376 52.844C45.0423 53.2346 44.6724 53.6395 44.3126 54.0628C44.6782 54.5005 45.0581 54.9151 45.4633 55.3163C45.5166 55.3695 45.5699 55.4227 45.6248 55.4775C45.7927 55.6448 45.9608 55.8118 46.129 55.9788C46.2439 56.0932 46.3588 56.2077 46.4736 56.3221C46.753 56.6005 47.0328 56.8786 47.3126 57.1565C47.5748 56.9273 47.6992 56.6885 47.8444 56.3739C47.8909 56.2734 47.9375 56.1729 47.9855 56.0694C48.0341 55.9621 48.0828 55.8549 48.1329 55.7444C48.2077 55.5804 48.2077 55.5804 48.2839 55.4131C48.5728 54.7736 48.8588 54.1328 49.1232 53.4827C49.1509 53.4173 49.1786 53.3518 49.2071 53.2844C49.4177 52.7474 49.4036 52.3776 49.176 51.8494C49.0427 51.5704 48.9028 51.2959 48.7599 51.0218C48.7111 50.9264 48.6624 50.8309 48.6121 50.7326C48.4923 50.4985 48.3716 50.2648 48.2501 50.0315C48.0695 50.0315 47.941 50.2347 47.8217 50.3538ZM37.5626 50.4065C37.4016 50.7039 37.2445 51.0032 37.088 51.303C37.0425 51.387 36.997 51.4709 36.9501 51.5574C36.6901 52.0608 36.5471 52.3731 36.7189 52.9378C36.8482 53.31 36.9916 53.6747 37.1407 54.0393C37.1822 54.1419 37.2236 54.2444 37.2663 54.3501C37.6431 55.2713 38.0598 56.1705 38.5001 57.0628C38.7739 57.0913 38.7739 57.0913 38.9234 56.9542C38.9727 56.904 39.022 56.8538 39.0729 56.802C39.1278 56.7467 39.1828 56.6913 39.2395 56.6342C39.2971 56.5745 39.3548 56.5149 39.4142 56.4534C39.4734 56.3932 39.5326 56.3329 39.5937 56.2708C39.9418 55.9144 40.2785 55.5513 40.6003 55.1709C40.8837 54.8481 41.193 54.5502 41.5001 54.2503C41.0853 53.7543 40.6488 53.2901 40.192 52.8327C40.1225 52.7629 40.053 52.693 39.9814 52.6211C39.8356 52.4748 39.6897 52.3287 39.5436 52.1827C39.3193 51.9581 39.0957 51.7329 38.8722 51.5075C38.7302 51.3652 38.5881 51.223 38.4459 51.0807C38.3789 51.0131 38.3119 50.9454 38.2429 50.8757C38.1809 50.814 38.119 50.7523 38.0551 50.6887C38.0006 50.6341 37.9461 50.5794 37.8899 50.5231C37.7565 50.3865 37.7565 50.3865 37.5626 50.4065ZM41.3126 51.0628C41.7799 51.6284 42.2894 52.1426 42.8126 52.6565C43.1671 52.5128 43.3652 52.2973 43.6154 52.012C43.687 51.931 43.7587 51.8501 43.8325 51.7666C44.0006 51.5679 44.1595 51.3669 44.3126 51.1565C44.206 51.1576 44.0994 51.1587 43.9896 51.1598C43.0917 51.1661 42.2076 51.1434 41.3126 51.0628ZM34.1824 53.7964C34.0715 53.8322 34.0715 53.8322 33.9583 53.8687C33.8788 53.895 33.7993 53.9214 33.7174 53.9485C33.6341 53.9759 33.5508 54.0032 33.465 54.0314C33.288 54.0898 33.1112 54.1484 32.9345 54.2073C32.6695 54.2954 32.4039 54.3817 32.1383 54.4678C30.1812 55.1121 28.4926 55.9635 27.0047 57.4068C26.9011 57.5066 26.7951 57.6039 26.6884 57.7004C24.8108 59.4387 23.7105 62.1601 23.4064 64.6565C23.4064 64.8112 23.4064 64.9659 23.4064 65.1253C29.2845 65.1253 35.1626 65.1253 41.2189 65.1253C40.7449 64.2524 40.7449 64.2524 40.2169 63.4202C40.1574 63.3319 40.1574 63.3319 40.0968 63.2417C39.8902 62.936 39.6807 62.6324 39.4688 62.3304C37.5957 59.6552 36.1054 56.7355 34.9376 53.6878C34.6253 53.6878 34.466 53.7039 34.1824 53.7964ZM51.0626 53.6878C51.0354 53.7564 51.0082 53.825 50.9802 53.8957C49.7694 56.9303 48.3743 59.9498 46.3737 62.5552C45.9906 63.0586 45.6583 63.5911 45.3263 64.1292C45.2721 64.2169 45.218 64.3046 45.1621 64.395C44.91 64.7387 44.91 64.7387 44.7814 65.1253C50.6595 65.1253 56.5376 65.1253 62.5939 65.1253C62.5099 64.1129 62.5099 64.1129 62.3009 63.139C62.2805 63.0635 62.26 62.9881 62.2389 62.9104C61.3917 59.9049 59.4855 57.2064 56.7381 55.6616C55.804 55.1744 54.8417 54.8142 53.8433 54.4818C53.585 54.3958 53.3273 54.3079 53.0696 54.2197C52.9035 54.1635 52.7373 54.1074 52.571 54.0514C52.4571 54.0126 52.4571 54.0126 52.3408 53.973C51.9135 53.8316 51.5103 53.7367 51.0626 53.6878ZM42.5713 55.8763C42.4735 55.9744 42.3762 56.073 42.2794 56.1722C42.2028 56.2496 42.2028 56.2496 42.1247 56.3287C41.8051 56.6544 41.5007 56.9892 41.2053 57.3371C40.8963 57.6825 40.5614 58.003 40.2301 58.3269C39.8476 58.6767 39.8476 58.6767 39.7167 59.1469C39.8592 59.5327 40.0836 59.8487 40.3165 60.1858C40.367 60.2602 40.4174 60.3346 40.4694 60.4112C40.7138 60.7707 40.9611 61.1282 41.2086 61.4855C41.2941 61.6089 41.3795 61.7323 41.465 61.8558C41.5066 61.9157 41.5482 61.9757 41.591 62.0375C42.053 62.7082 42.4808 63.3999 42.9064 64.094C43.2356 63.9843 43.2546 63.9311 43.4183 63.6403C43.4619 63.5647 43.5055 63.489 43.5504 63.4111C43.597 63.329 43.6436 63.2469 43.6915 63.1624C44.079 62.4963 44.4871 61.8601 44.9454 61.2405C45.3063 60.7505 45.6624 60.2606 45.9884 59.7464C46.078 59.6061 46.078 59.6061 46.1693 59.4629C46.2993 59.2358 46.2993 59.2358 46.2603 59.0372C46.1727 58.8044 46.0631 58.6845 45.8874 58.5089C45.8242 58.4451 45.7609 58.3813 45.6958 58.3156C45.6272 58.2478 45.5585 58.18 45.4878 58.1101C45.4176 58.0399 45.3475 57.9697 45.2752 57.8974C45.1268 57.7492 44.978 57.6014 44.829 57.4539C44.6001 57.2272 44.3725 56.9994 44.1451 56.7713C44.0009 56.6277 43.8567 56.4841 43.7124 56.3406C43.6439 56.2721 43.5755 56.2035 43.5049 56.1329C43.4414 56.0703 43.3779 56.0077 43.3125 55.9432C43.2566 55.8877 43.2007 55.8322 43.1431 55.775C42.8807 55.5575 42.8182 55.6514 42.5713 55.8763Z" fill="#703391"/>
<path d="M56.9683 57.9068C57.2555 58.0592 57.2555 58.0592 57.5308 58.2818C57.5806 58.3194 57.6304 58.357 57.6817 58.3957C58.6414 59.1551 59.8445 60.5562 60.0152 61.815C59.9599 62.1812 59.8528 62.3349 59.5933 62.5943C59.2658 62.7581 58.9196 62.7399 58.5621 62.6881C58.1242 62.3857 57.891 61.9033 57.6165 61.4565C57.3846 61.1096 57.1155 60.8125 56.8281 60.511C56.6871 60.3443 56.6871 60.3443 56.6871 60.1568C56.6325 60.1329 56.5778 60.109 56.5216 60.0843C56.147 59.8787 55.886 59.5761 55.6558 59.2193C55.5741 58.9243 55.5992 58.7836 55.6558 58.4693C56.0027 57.926 56.3367 57.8227 56.9683 57.9068Z" fill="#703391"/>
<path d="M53.7815 56.1252C54.0744 56.301 54.0744 56.301 54.2502 56.594C54.3429 57.0652 54.323 57.4101 54.0744 57.8244C53.6601 58.073 53.3152 58.0929 52.844 58.0002C52.551 57.8244 52.551 57.8244 52.3752 57.5315C52.2825 57.0602 52.3024 56.7153 52.551 56.301C52.9653 56.0524 53.3102 56.0325 53.7815 56.1252Z" fill="#703391"/>
</g>
<defs>
<clipPath id="clip0_3260_16322">
<rect width="48" height="48" fill="white" transform="translate(19 19)"/>
</clipPath>
</defs>
</svg>
