<svg width="86" height="86" viewBox="0 0 86 86" fill="none" xmlns="http://www.w3.org/2000/svg">
<circle cx="43" cy="43" r="43" fill="#703391" fill-opacity="0.1"/>
<path fill-rule="evenodd" clip-rule="evenodd" d="M58.0207 67H19.7693C19.3448 67 19 66.6615 19 66.2449V19.7551C19 19.3385 19.3448 19 19.7693 19H58.0207C58.4451 19 58.79 19.3385 58.79 19.7551V43.0325C58.79 43.4491 58.4451 43.7876 58.0207 43.7876C57.5963 43.7876 57.2514 43.4491 57.2514 43.0325V20.4972H20.5385V65.4898H57.2647V59.1107C57.2647 58.6941 57.6096 58.3556 58.034 58.3556C58.4584 58.3556 58.8033 58.6941 58.8033 59.1107V66.2449C58.79 66.6615 58.4451 67 58.0207 67Z" fill="#703391" stroke="#703391" stroke-width="0.7"/>
<path fill-rule="evenodd" clip-rule="evenodd" d="M58.0475 59.8643C55.6601 59.8643 53.4053 58.953 51.7209 57.2866C50.0364 55.6202 49.0947 53.4201 49.0947 51.0767C49.0947 48.7333 50.0232 46.5201 51.7209 44.8668C53.4186 43.2134 55.6601 42.2891 58.0475 42.2891C60.4349 42.2891 62.6896 43.2004 64.3741 44.8668C66.0718 46.5332 67.0002 48.7333 67.0002 51.0767C67.0002 53.4201 66.0718 55.6332 64.3741 57.2866C62.6764 58.94 60.4349 59.8643 58.0475 59.8643ZM58.0475 43.7862C53.9491 43.7862 50.62 47.0539 50.62 51.0767C50.62 55.0995 53.9491 58.3672 58.0475 58.3672C62.1458 58.3672 65.4749 55.0995 65.4749 51.0767C65.4749 47.0539 62.1326 43.7862 58.0475 43.7862Z" fill="#703391" stroke="#703391" stroke-width="0.7"/>
<path fill-rule="evenodd" clip-rule="evenodd" d="M56.8009 54.5656C56.6019 54.5656 56.403 54.4875 56.2571 54.3443L54.0421 52.1702C53.7503 51.8707 53.7503 51.4021 54.0421 51.1157C54.3471 50.8292 54.8246 50.8292 55.1164 51.1157L56.7478 52.717L60.8992 47.874C61.1645 47.5615 61.6552 47.5095 61.9736 47.7829C62.2919 48.0563 62.3449 48.5249 62.0664 48.8374L57.3844 54.3183C57.2518 54.4745 57.0529 54.5786 56.8274 54.5786C56.8274 54.5656 56.8141 54.5656 56.8009 54.5656Z" fill="#703391" stroke="#703391" stroke-width="0.7"/>
<path fill-rule="evenodd" clip-rule="evenodd" d="M37.9661 41.8356H24.2253C23.8009 41.8356 23.4561 41.4971 23.4561 41.0805V24.6379C23.4561 24.2213 23.8009 23.8828 24.2253 23.8828H37.9794C38.4038 23.8828 38.7487 24.2213 38.7487 24.6379V41.0805C38.7354 41.4971 38.3906 41.8356 37.9661 41.8356ZM24.9813 40.3385H37.2101V25.393H24.9813V40.3385Z" fill="#703391" stroke="#703391" stroke-width="0.7"/>
<path fill-rule="evenodd" clip-rule="evenodd" d="M31.0947 36.3268C28.7603 36.3268 26.877 34.4651 26.877 32.1868C26.877 29.9086 28.7736 28.0469 31.0947 28.0469C33.4158 28.0469 35.3124 29.9086 35.3124 32.1868C35.3124 34.4651 33.429 36.3268 31.0947 36.3268ZM31.0947 29.531C29.6092 29.531 28.4022 30.7157 28.4022 32.1738C28.4022 33.6319 29.6092 34.8166 31.0947 34.8166C32.5802 34.8166 33.7871 33.6319 33.7871 32.1738C33.7871 30.7157 32.5802 29.531 31.0947 29.531Z" fill="#703391" stroke="#703391" stroke-width="0.7"/>
<path fill-rule="evenodd" clip-rule="evenodd" d="M35.4851 41.8335C35.0607 41.8335 34.7159 41.495 34.7159 41.0784V39.8807C34.7159 37.9149 33.0845 36.3266 31.095 36.3266C30.1268 36.3266 29.2116 36.6911 28.5352 37.3681C27.8455 38.045 27.4741 38.9303 27.4741 39.8807V41.0784C27.4741 41.495 27.1292 41.8335 26.7048 41.8335C26.2804 41.8335 25.9355 41.495 25.9355 41.0784V39.8807C25.9355 38.5267 26.4661 37.2639 27.4476 36.3005C28.4158 35.3502 29.7156 34.8164 31.095 34.8164C33.9333 34.8164 36.2412 37.0817 36.2412 39.8677V41.0654C36.2412 41.495 35.9096 41.8335 35.4851 41.8335Z" fill="#703391" stroke="#703391" stroke-width="0.7"/>
<path fill-rule="evenodd" clip-rule="evenodd" d="M47.2778 32.9164H42.198C41.7736 32.9164 41.4287 32.5779 41.4287 32.1613C41.4287 31.7447 41.7736 31.4062 42.198 31.4062H47.2778C47.7023 31.4062 48.0471 31.7447 48.0471 32.1613C48.0338 32.5779 47.7023 32.9164 47.2778 32.9164Z" fill="#703391" stroke="#703391" stroke-width="0.7"/>
<path fill-rule="evenodd" clip-rule="evenodd" d="M53.1004 36.6156H42.198C41.7736 36.6156 41.4287 36.2772 41.4287 35.8606C41.4287 35.444 41.7736 35.1055 42.198 35.1055H53.1004C53.5249 35.1055 53.8697 35.444 53.8697 35.8606C53.8697 36.2772 53.5249 36.6156 53.1004 36.6156Z" fill="#703391" stroke="#703391" stroke-width="0.7"/>
<path fill-rule="evenodd" clip-rule="evenodd" d="M52.6089 45.807H24.2253C23.8009 45.807 23.4561 45.4686 23.4561 45.052C23.4561 44.6354 23.8009 44.2969 24.2253 44.2969H52.6221C53.0465 44.2969 53.3914 44.6354 53.3914 45.052C53.3781 45.4816 53.0333 45.807 52.6089 45.807Z" fill="#703391" stroke="#703391" stroke-width="0.7"/>
<path fill-rule="evenodd" clip-rule="evenodd" d="M50.1551 49.6586H24.2253C23.8009 49.6586 23.4561 49.3201 23.4561 48.9035C23.4561 48.4869 23.8009 48.1484 24.2253 48.1484H50.1551C50.5796 48.1484 50.9244 48.4869 50.9244 48.9035C50.9244 49.3201 50.5796 49.6586 50.1551 49.6586Z" fill="#703391" stroke="#703391" stroke-width="0.7"/>
<path fill-rule="evenodd" clip-rule="evenodd" d="M49.8501 53.3969H24.2253C23.8009 53.3969 23.4561 53.0584 23.4561 52.6418C23.4561 52.2252 23.8009 51.8867 24.2253 51.8867H49.8633C50.2878 51.8867 50.6326 52.2252 50.6326 52.6418C50.6326 53.0584 50.2745 53.3969 49.8501 53.3969Z" fill="#703391" stroke="#703391" stroke-width="0.7"/>
<path fill-rule="evenodd" clip-rule="evenodd" d="M51.9987 57.2602H24.2253C23.8009 57.2602 23.4561 56.9217 23.4561 56.5051C23.4561 56.0885 23.8009 55.75 24.2253 55.75H52.012C52.4364 55.75 52.7813 56.0885 52.7813 56.5051C52.7813 56.9217 52.4232 57.2602 51.9987 57.2602Z" fill="#703391" stroke="#703391" stroke-width="0.7"/>
<path fill-rule="evenodd" clip-rule="evenodd" d="M53.0996 61.2172H24.2253C23.8009 61.2172 23.4561 60.8787 23.4561 60.4621C23.4561 60.0455 23.8009 59.707 24.2253 59.707H53.0996C53.524 59.707 53.8689 60.0455 53.8689 60.4621C53.8689 60.8787 53.524 61.2172 53.0996 61.2172Z" fill="#703391" stroke="#703391" stroke-width="0.7"/>
</svg>
