 <svg width="78" height="78" viewBox="0 0 78 78" fill="none" xmlns="http://www.w3.org/2000/svg">
    <mask id="mask0" mask-type="luminance" maskUnits="userSpaceOnUse" x="2" y="18" width="74" height="45">
      <path d="M2 18H76V62.4H2V18Z" fill="white"/>
    </mask>
    <g mask="url(#mask0)">
      <path
        fill-rule="evenodd"
        clip-rule="evenodd"
        d="M39 18C29.1333 18 22.9667 22.9333 20.5 32.8C24.2 27.8667 28.5167 26.0167 33.45 27.25C36.2647 27.953 38.2764 29.9962 40.5033 32.256C44.1307 35.9381 48.3295 40.2 57.5 40.2C67.3667 40.2 73.5333 35.2667 76 25.4C72.3 30.3333 67.9833 32.1833 63.05 30.95C60.2353 30.247 58.2236 28.2038 55.9967 25.944C52.3693 22.2619 48.1705 18 39 18ZM20.5 40.2C10.6333 40.2 4.46667 45.1333 2 55C5.7 50.0667 10.0167 48.2167 14.95 49.45C17.7647 50.1544 19.7764 52.1962 22.0033 54.456C25.6307 58.1381 29.8295 62.4 39 62.4C48.8667 62.4 55.0333 57.4667 57.5 47.6C53.8 52.5333 49.4833 54.3833 44.55 53.15C41.7353 52.447 39.7236 50.4038 37.4967 48.144C33.8693 44.4618 29.6705 40.2 20.5 40.2Z"
        fill="#38BDF8"
      />
    </g>
  </svg>
  