<svg width="58" height="58" viewBox="0 0 58 58" fill="none" xmlns="http://www.w3.org/2000/svg">
<path d="M4.95341 14.1845V7.18772C4.95341 6.79039 5.26507 6.46813 5.64939 6.46813H9.93754C10.3218 6.46813 10.6335 6.79036 10.6335 7.18772C10.6335 7.58508 10.3219 7.90731 9.93754 7.90731H6.34531V13.4651H11.7207V10.5675C11.7207 10.1702 12.0324 9.84789 12.4167 9.84789C12.801 9.84789 13.1127 10.1701 13.1127 10.5675V14.1895C13.1127 14.5868 12.801 14.9091 12.4167 14.9091L5.64951 14.9115C5.26522 14.9043 4.95341 14.5819 4.95341 14.1845ZM15.3085 9.4577H28.4404C28.8247 9.4577 29.1363 9.13548 29.1363 8.73811C29.1363 8.34075 28.8247 8.01852 28.4404 8.01852L15.3085 8.02094C14.9242 8.02094 14.6125 8.34317 14.6125 8.74054C14.6125 9.13545 14.9242 9.4577 15.3085 9.4577ZM8.36071 9.75086C8.09123 9.47224 7.64602 9.47224 7.37655 9.75086C7.10708 10.0295 7.10708 10.4898 7.37655 10.7684L8.46149 11.8902C8.59271 12.0258 8.76846 12.1009 8.95357 12.1009H8.9606C9.14572 12.1009 9.32616 12.021 9.45737 11.878L12.9793 8.06462C13.2441 7.77873 13.2371 7.32083 12.9559 7.04706C12.6794 6.77329 12.2365 6.78056 11.9717 7.07129L8.94186 10.3518L8.36071 9.75086ZM15.3085 13.2929H31.7439C32.1282 13.2929 32.4399 12.9707 32.4399 12.5733C32.4399 12.176 32.1282 11.8538 31.7439 11.8538H15.3085C14.9242 11.8538 14.6125 12.176 14.6125 12.5733C14.6125 12.9683 14.9242 13.2929 15.3085 13.2929ZM5.64927 27.8367H12.4213C12.8056 27.8367 13.1172 27.5145 13.1172 27.1171V23.4951C13.1172 23.0978 12.8056 22.7755 12.4213 22.7755C12.0369 22.7755 11.7253 23.0978 11.7253 23.4951V26.3928H6.34987V20.8349H9.9421C10.3264 20.8349 10.6381 20.5127 10.6381 20.1154C10.6381 19.718 10.3264 19.3958 9.9421 19.3958H5.65395C5.26966 19.3958 4.95797 19.718 4.95797 20.1154V27.1171C4.95329 27.5145 5.265 27.8367 5.64927 27.8367ZM15.3085 22.3904H28.4404C28.8247 22.3904 29.1363 22.0681 29.1363 21.6708C29.1363 21.2734 28.8247 20.9512 28.4404 20.9512H15.3085C14.9242 20.9512 14.6125 21.2734 14.6125 21.6708C14.6125 22.0681 14.9242 22.3904 15.3085 22.3904ZM11.9787 20.0088L8.94883 23.2893L8.3677 22.6884C8.09822 22.4098 7.65301 22.4098 7.38354 22.6884C7.11407 22.967 7.11407 23.4274 7.38354 23.706L8.46848 24.8277C8.5997 24.9634 8.77545 25.0385 8.96056 25.0385H8.96759C9.15271 25.0385 9.33315 24.9585 9.46437 24.8156L12.991 21.0022C13.2558 20.7163 13.2487 20.2584 12.9675 19.9846C12.6864 19.706 12.2411 19.7181 11.9787 20.0088ZM15.3085 26.2235H31.7439C32.1282 26.2235 32.4399 25.9013 32.4399 25.5039C32.4399 25.1066 32.1282 24.7843 31.7439 24.7843H15.3085C14.9242 24.7843 14.6125 25.1066 14.6125 25.5039C14.6125 25.9013 14.9242 26.2235 15.3085 26.2235ZM12.4216 35.7062C12.0373 35.7062 11.7256 36.0285 11.7256 36.4258V39.3235H6.35017V33.7656H9.9424C10.3267 33.7656 10.6384 33.4434 10.6384 33.0461C10.6384 32.6487 10.3267 32.3265 9.9424 32.3265H5.65425C5.26996 32.3265 4.95827 32.6487 4.95827 33.0461V40.0478C4.95827 40.4452 5.26993 40.7674 5.65425 40.7674H12.4263C12.8105 40.7674 13.1222 40.4452 13.1222 40.0478V36.4258C13.1175 36.0285 12.8059 35.7062 12.4216 35.7062ZM11.9787 32.9419L8.94884 36.2223L8.36771 35.6215C8.09823 35.3429 7.65302 35.3429 7.38355 35.6215C7.11408 35.9001 7.11408 36.3604 7.38355 36.639L8.46849 37.7608C8.59971 37.8965 8.77546 37.9716 8.96057 37.9716H8.9676C9.15272 37.9716 9.33316 37.8916 9.46438 37.7487L12.991 33.9352C13.2558 33.6493 13.2488 33.1914 12.9676 32.9177C12.6864 32.6366 12.2411 32.6487 11.9787 32.9419ZM57 46.2136C57 52.1615 52.3205 57 46.5676 57C43.1112 57 40.0415 55.2508 38.1387 52.5663C37.9887 52.6851 37.8036 52.7529 37.5997 52.7529H33.7779C33.2975 52.7529 32.9085 52.3628 32.8968 51.8661L32.8429 50.0927C32.1774 49.8891 31.54 49.6154 30.9284 49.2738L29.6818 50.49C29.335 50.8316 28.789 50.8243 28.4516 50.4706L25.7522 47.6796C25.41 47.3258 25.4054 46.7686 25.7334 46.4076L25.8951 46.2283L3.93843 46.2259C2.31925 46.2259 1 44.8619 1 43.1877V4.03814C1 2.36401 2.31925 1 3.93843 1H33.4469C35.0661 1 36.3854 2.36401 36.3854 4.03814V27.6435H37.5968C38.0772 27.6435 38.4662 28.0336 38.4779 28.5303L38.5318 30.3037C39.1973 30.5073 39.8347 30.781 40.4463 31.1226L41.6999 29.9064C42.0467 29.5648 42.5927 29.5769 42.9301 29.9258L45.6296 32.7168C45.9717 33.0706 45.9763 33.6278 45.6483 33.9888L44.472 35.285C44.5259 35.3916 44.5798 35.503 44.6337 35.6145C45.257 35.4909 45.9061 35.4279 46.5646 35.4279C52.3197 35.4279 57 40.2654 57 46.2136ZM3.93916 44.7938H26.7464C26.4934 44.2656 26.2778 43.7156 26.1161 43.1439L24.4008 43.0881C23.9204 43.076 23.5432 42.6714 23.5432 42.1771V39.1559H15.3087C14.9244 39.1559 14.6127 38.8337 14.6127 38.4363C14.6127 38.039 14.9243 37.7167 15.3087 37.7167H23.6949C23.8519 37.4817 24.1027 37.3267 24.4026 37.3146L26.1179 37.2588C26.31 36.5902 26.5678 35.9384 26.8912 35.3182L15.3082 35.3158C14.9239 35.3158 14.6122 34.9935 14.6122 34.5962C14.6122 34.1988 14.9239 33.8766 15.3082 33.8766H25.6489C25.4098 33.518 25.445 33.0334 25.752 32.7161L28.4514 29.925C28.7935 29.5713 29.3325 29.5665 29.6816 29.9057L30.9282 31.1219C31.5351 30.7803 32.1748 30.5089 32.8427 30.303L32.8966 28.5295C32.9083 28.0328 33.2996 27.6427 33.7777 27.6427H34.9891V4.03737C34.9891 3.15546 34.3002 2.44319 33.4473 2.44319H3.93875C3.08579 2.44319 2.39689 3.15546 2.39689 4.03737V43.1994C2.39689 44.074 3.09327 44.7938 3.93916 44.7938ZM37.1195 50.7974C36.4845 49.4092 36.1307 47.8513 36.1307 46.2136C36.1307 46.1021 36.1307 45.9834 36.1377 45.8719C35.9948 45.8841 35.8495 45.8913 35.7065 45.8913C34.2607 45.8913 32.8454 45.3026 31.8003 44.222C30.7622 43.1487 30.1858 41.7169 30.1858 40.1978C30.1858 38.6787 30.7552 37.2444 31.8003 36.1736C33.9467 33.9543 37.4382 33.9543 39.5867 36.1736C39.9523 36.5515 40.2592 36.9731 40.51 37.4334C41.3442 36.8204 42.2674 36.3237 43.2563 35.9822C43.2024 35.8755 43.1485 35.7714 43.0876 35.672C42.8837 35.3183 42.9306 34.8774 43.2024 34.5794L44.2943 33.3753L42.2909 31.3038L41.1263 32.4377C40.8381 32.7163 40.4116 32.7672 40.0695 32.5564C39.3665 32.1275 38.612 31.8004 37.8199 31.5945C37.4356 31.4952 37.1662 31.1487 37.1544 30.7393L37.1076 29.0893H34.2769L34.23 30.7393C34.2183 31.1487 33.9488 31.4952 33.5645 31.5945C32.7725 31.8053 32.0109 32.1275 31.308 32.5612C30.9658 32.772 30.5394 32.7235 30.2512 32.4425L29.0866 31.3086L27.0901 33.3728L28.1867 34.577C28.4632 34.875 28.5054 35.3159 28.3016 35.6696C27.8868 36.3965 27.5704 37.1766 27.3666 38.0027C27.2705 38.4001 26.9354 38.6787 26.5394 38.6908L24.9436 38.7393V41.666L26.5394 41.7145C26.9354 41.7266 27.2706 42.0052 27.3666 42.4026C27.5705 43.2215 27.8821 44.0016 28.3016 44.7357C28.5054 45.0894 28.4586 45.5303 28.1867 45.8284L27.0901 47.0325L29.0866 49.0967L30.2512 47.9628C30.5394 47.6842 30.9658 47.6333 31.308 47.8441C32.0109 48.2778 32.7655 48.6 33.5575 48.8059C33.9418 48.9053 34.2112 49.2517 34.223 49.6612L34.2699 51.3111H37.1006L37.1195 50.7974ZM39.4042 38.3736C39.2074 37.9399 38.9355 37.5426 38.6005 37.1961C36.9977 35.539 34.3896 35.539 32.7868 37.1961C32.0135 37.9957 31.5801 39.0689 31.5801 40.2053C31.5801 41.3391 32.0065 42.4076 32.7868 43.2144C33.7054 44.1641 35.0129 44.6026 36.283 44.4112C36.6626 42.0514 37.7897 39.9484 39.4042 38.3736ZM55.608 46.2139C55.608 41.0607 51.5519 36.8671 46.5679 36.8671C41.584 36.8671 37.5278 41.0609 37.5278 46.2139C37.5278 51.367 41.584 55.5608 46.5679 55.5608C51.5519 55.5608 55.608 51.367 55.608 46.2139ZM54.263 46.2139C54.263 50.604 50.8067 54.1703 46.5678 54.1703C42.3265 54.1703 38.8726 50.5967 38.8726 46.2139C38.8726 41.8287 42.3289 38.2576 46.5678 38.2576C50.8091 38.2576 54.263 41.8288 54.263 46.2139ZM52.8289 46.9335H52.3556C51.9713 46.9335 51.6596 46.6113 51.6596 46.2139C51.6596 45.8166 51.9713 45.4943 52.3556 45.4943H52.8289C52.5056 42.4731 50.1834 40.0746 47.2614 39.7379V40.2273C47.2614 40.6246 46.9497 40.9468 46.5654 40.9468C46.1811 40.9468 45.8694 40.6246 45.8694 40.2273V39.7379C42.9474 40.0722 40.6275 42.4732 40.3018 45.4943H40.7752C41.1595 45.4943 41.4712 45.8166 41.4712 46.2139C41.4712 46.6113 41.1595 46.9335 40.7752 46.9335H40.3018C40.6252 49.9547 42.9474 52.3533 45.8694 52.69V52.2006C45.8694 51.8033 46.1811 51.481 46.5654 51.481C46.9497 51.481 47.2614 51.8033 47.2614 52.2006V52.69C50.1834 52.3532 52.5056 49.9547 52.8289 46.9335ZM47.9643 44.0746L47.2613 44.6755V42.4804C47.2613 42.0831 46.9497 41.7608 46.5653 41.7608C46.181 41.7608 45.8694 42.0831 45.8694 42.4804V46.2139C45.8694 46.4925 46.0264 46.7469 46.2724 46.8656C46.3685 46.9093 46.4692 46.9335 46.5653 46.9335C46.727 46.9335 46.884 46.8778 47.0082 46.7663L48.85 45.1794C49.1429 44.925 49.1851 44.472 48.939 44.1618C48.6953 43.8566 48.2596 43.8202 47.9643 44.0746ZM37.4359 17.5647C37.3211 17.3176 37.3468 17.0244 37.5132 16.8088L41.7428 11.1952C41.874 11.0208 42.0779 10.9166 42.2958 10.9166C42.5114 10.9166 42.7153 11.0232 42.8488 11.1952L47.0784 16.8088C47.2401 17.0268 47.2706 17.3224 47.1558 17.5647C47.041 17.8118 46.7949 17.9669 46.5325 17.9669H44.6719V27.6481C44.6719 28.0454 44.3602 28.3677 43.9759 28.3677H40.6227C40.2384 28.3677 39.9267 28.0455 39.9267 27.6481V17.9694H38.0662C37.7967 17.9694 37.5507 17.8143 37.4359 17.5647ZM39.4886 16.5302H40.6157C41 16.5302 41.3117 16.8524 41.3117 17.2498V26.931H43.2683V17.2498C43.2683 16.8524 43.5799 16.5302 43.9643 16.5302H45.0914L42.2888 12.8088L39.4886 16.5302ZM46.2792 22.7131L50.5088 17.0995C50.64 16.9251 50.8439 16.8209 51.0618 16.8209C51.2774 16.8209 51.4813 16.9275 51.6148 17.0995L55.8444 22.7131C56.0061 22.9312 56.0366 23.2268 55.9218 23.4691C55.8069 23.7162 55.5609 23.8713 55.2984 23.8713H53.4379V33.5524C53.4379 33.7511 53.3605 33.9377 53.2223 34.0733C53.091 34.2042 52.9153 34.2768 52.7372 34.2768H52.7138L49.3606 34.146C48.988 34.1339 48.6881 33.8117 48.6881 33.4264V23.8761H46.8275C46.5627 23.8761 46.3167 23.721 46.2042 23.4739C46.08 23.2292 46.1105 22.9312 46.2792 22.7131ZM48.2522 22.4345H49.3794C49.7636 22.4345 50.0753 22.7567 50.0753 23.1541V32.7361L52.0319 32.8112V23.1591C52.0319 22.7618 52.3436 22.4395 52.7279 22.4395H53.855L51.0525 18.7181L48.2522 22.4345Z" fill="#703391" stroke="#703391" stroke-width="0.3"/>
</svg>
