<svg width="86" height="86" viewBox="0 0 86 86" fill="none" xmlns="http://www.w3.org/2000/svg">
<circle cx="43" cy="43" r="43" fill="#703391" fill-opacity="0.1"/>
<path d="M57.8585 58.4396H56.6665C56.8482 57.9399 56.9693 57.4207 57.0272 56.8929H59.4269V55.3463H57.0272C56.9693 54.8185 56.8482 54.2993 56.6665 53.7996H57.8585C57.9617 53.8002 58.064 53.7807 58.1596 53.7422C58.2551 53.7037 58.342 53.647 58.4153 53.5754L59.9837 52.0287L58.8702 50.9306L57.537 52.253H55.8666C55.6574 51.9801 55.4294 51.7217 55.1843 51.4796C55.3998 50.9919 55.5093 50.465 55.5058 49.933C55.5031 49.4023 55.3896 48.8777 55.1724 48.3921C54.9552 47.9065 54.6389 47.4702 54.2432 47.1104C54.7596 46.2493 55.5765 45.6032 56.541 45.293L56.0391 43.8237C54.7199 44.2645 53.6061 45.1596 52.9022 46.3448C52.0538 46.0253 51.1157 46.0253 50.2672 46.3448C49.5633 45.1596 48.4496 44.2645 47.1304 43.8237L46.6285 45.293C47.5993 45.6128 48.4171 46.2734 48.9262 47.149C48.5354 47.5044 48.2219 47.9345 48.0048 48.4131C47.7878 48.8917 47.6717 49.4088 47.6636 49.933C47.6602 50.465 47.7697 50.9919 47.9852 51.4796C47.74 51.7217 47.5121 51.9801 47.3029 52.253H45.6325L44.2993 50.9306L43.1857 52.0287L44.7542 53.5754C44.8274 53.647 44.9143 53.7037 45.0099 53.7422C45.1054 53.7807 45.2077 53.8002 45.311 53.7996H46.503C46.3213 54.2993 46.2002 54.8185 46.1422 55.3463H43.7425V56.8929H46.1422C46.2002 57.4207 46.3213 57.9399 46.503 58.4396H45.311C45.2077 58.439 45.1054 58.4585 45.0099 58.497C44.9143 58.5355 44.8274 58.5922 44.7542 58.6638L43.1857 60.2105L44.2993 61.3086L45.6325 59.9862H47.3029C47.761 60.6969 48.3937 61.282 49.1421 61.6873C49.8906 62.0927 50.7308 62.3053 51.5847 62.3053C52.4387 62.3053 53.2788 62.0927 54.0273 61.6873C54.7758 61.282 55.4084 60.6969 55.8666 59.9862H57.537L58.8702 61.3086L59.9837 60.2105L58.4153 58.6638C58.342 58.5922 58.2551 58.5355 58.1596 58.497C58.064 58.4585 57.9617 58.439 57.8585 58.4396ZM48.6674 53.0263C48.9863 52.5509 49.4196 52.1609 49.9287 51.891C50.4378 51.6211 51.0068 51.4799 51.5847 51.4799C52.1627 51.4799 52.7317 51.6211 53.2408 51.891C53.7499 52.1609 54.1832 52.5509 54.502 53.0263H48.6674ZM53.9374 49.933C53.9349 50.1236 53.9085 50.3132 53.859 50.4975C53.1597 50.1273 52.3784 49.9335 51.5847 49.9335C50.7911 49.9335 50.0097 50.1273 49.3105 50.4975C49.2246 50.1774 49.2092 49.8428 49.2654 49.5164C49.3215 49.1899 49.4479 48.879 49.6359 48.6047C49.824 48.3304 50.0695 48.099 50.3558 47.926C50.6422 47.753 50.9628 47.6424 51.296 47.6018C51.6293 47.5611 51.9675 47.5913 52.288 47.6902C52.6084 47.7892 52.9037 47.9547 53.1539 48.1755C53.4041 48.3963 53.6035 48.6674 53.7387 48.9706C53.8738 49.2737 53.9416 49.6019 53.9374 49.933ZM47.6636 56.1196C47.666 55.5961 47.7426 55.0755 47.891 54.5729H50.8005V60.6667C49.0125 60.2337 47.6636 58.3622 47.6636 56.1196ZM52.369 60.6667V54.5729H55.2784C55.4269 55.0755 55.5034 55.5961 55.5058 56.1196C55.5058 58.3622 54.157 60.2337 52.369 60.6667Z" fill="#703391"/>
<path d="M57.0742 41.8363V19.7733C57.0742 19.5682 56.9916 19.3715 56.8445 19.2265C56.6974 19.0815 56.498 19 56.29 19H21.7842C21.5762 19 21.3768 19.0815 21.2297 19.2265C21.0826 19.3715 21 19.5682 21 19.7733V63.0795C21 63.2846 21.0826 63.4813 21.2297 63.6263C21.3768 63.7714 21.5762 63.8528 21.7842 63.8528H43.0131C44.4682 65.0775 46.1734 65.9791 48.0132 66.4963C49.8529 67.0135 51.7839 67.1342 53.6751 66.8502C55.5663 66.5662 57.3734 65.8842 58.9736 64.8505C60.5739 63.8168 61.9298 62.4556 62.9492 60.8594C63.9687 59.2631 64.6278 57.4692 64.8819 55.5995C65.136 53.7298 64.979 51.828 64.4217 50.0234C63.8644 48.2189 62.9197 46.5537 61.6519 45.141C60.3841 43.7283 58.8229 42.6012 57.0742 41.8363ZM22.5684 20.5466H55.5058V41.2331C54.2349 40.8502 52.9135 40.6548 51.5846 40.6531C48.4465 40.6529 45.4098 41.7488 43.0131 43.7464H33.5475V45.293H41.4368C41.0196 45.7821 40.6371 46.2988 40.2919 46.8397H33.5475V48.3863H39.4527C38.7816 49.8501 38.3882 51.4227 38.2921 53.0263H33.5475V54.5729H38.2921C38.3199 55.0917 38.3801 55.6082 38.4725 56.1196H33.5475V57.6662H38.841C39.3779 59.3706 40.2611 60.9493 41.4368 62.3062H22.5684V20.5466ZM51.5846 65.3995C49.2581 65.3995 46.9838 64.7192 45.0493 63.4446C43.1148 62.17 41.6071 60.3583 40.7168 58.2387C39.8264 56.1191 39.5935 53.7868 40.0474 51.5366C40.5012 49.2864 41.6216 47.2195 43.2667 45.5973C44.9119 43.975 47.0079 42.8702 49.2897 42.4226C51.5716 41.975 53.9368 42.2048 56.0863 43.0827C58.2357 43.9607 60.0729 45.4475 61.3655 47.3551C62.6581 49.2627 63.348 51.5054 63.348 53.7996C63.348 56.8761 62.1086 59.8266 59.9026 62.002C57.6965 64.1774 54.7045 65.3995 51.5846 65.3995Z" fill="#703391"/>
<path d="M24.9211 31.3731H31.1948C31.4028 31.3731 31.6023 31.2917 31.7494 31.1466C31.8964 31.0016 31.9791 30.8049 31.9791 30.5998V24.4132C31.9791 24.2081 31.8964 24.0114 31.7494 23.8664C31.6023 23.7214 31.4028 23.6399 31.1948 23.6399H24.9211C24.7131 23.6399 24.5136 23.7214 24.3665 23.8664C24.2195 24.0114 24.1368 24.2081 24.1368 24.4132V30.5998C24.1368 30.8049 24.2195 31.0016 24.3665 31.1466C24.5136 31.2917 24.7131 31.3731 24.9211 31.3731ZM25.7053 25.1865H30.4106V29.8265H25.7053V25.1865Z" fill="#703391"/>
<path d="M24.9211 40.6532H31.1948C31.4028 40.6532 31.6023 40.5717 31.7494 40.4267C31.8964 40.2816 31.9791 40.0849 31.9791 39.8799V34.0103L34.1043 31.9223L32.9907 30.8242L30.8733 32.9199H24.9211C24.7131 32.9199 24.5136 33.0014 24.3665 33.1464C24.2195 33.2915 24.1368 33.4882 24.1368 33.6933V39.8799C24.1368 40.0849 24.2195 40.2816 24.3665 40.4267C24.5136 40.5717 24.7131 40.6532 24.9211 40.6532ZM30.4106 39.1065H26.811L30.4106 35.557V39.1065ZM29.3049 34.4666L25.7053 38.0161V34.4666H29.3049Z" fill="#703391"/>
<path d="M31.1948 51.4797H24.9211C24.7131 51.4797 24.5136 51.5612 24.3665 51.7062C24.2195 51.8513 24.1368 52.048 24.1368 52.2531V58.4397C24.1368 58.6448 24.2195 58.8415 24.3665 58.9865C24.5136 59.1315 24.7131 59.213 24.9211 59.213H31.1948C31.4028 59.213 31.6023 59.1315 31.7494 58.9865C31.8964 58.8415 31.9791 58.6448 31.9791 58.4397V52.2531C31.9791 52.048 31.8964 51.8513 31.7494 51.7062C31.6023 51.5612 31.4028 51.4797 31.1948 51.4797ZM30.4106 57.6663H25.7053V53.0264H30.4106V57.6663Z" fill="#703391"/>
<path d="M53.9377 25.1868H33.5479V26.7334H53.9377V25.1868Z" fill="#703391"/>
<path d="M50.8008 28.2798H33.5479V29.8264H50.8008V28.2798Z" fill="#703391"/>
<path d="M53.9377 34.4666H33.5479V36.0132H53.9377V34.4666Z" fill="#703391"/>
<path d="M50.8008 37.5598H33.5479V39.1065H50.8008V37.5598Z" fill="#703391"/>
<path d="M53.9374 28.2798H52.369V29.8264H53.9374V28.2798Z" fill="#703391"/>
<path d="M53.9374 37.5598H52.369V39.1065H53.9374V37.5598Z" fill="#703391"/>
<path d="M34.1043 41.2021L32.9907 40.104L30.8733 42.1997H24.9211C24.7131 42.1997 24.5136 42.2812 24.3665 42.4262C24.2195 42.5712 24.1368 42.7679 24.1368 42.973V49.1596C24.1368 49.3647 24.2195 49.5614 24.3665 49.7065C24.5136 49.8515 24.7131 49.933 24.9211 49.933H31.1948C31.4028 49.933 31.6023 49.8515 31.7494 49.7065C31.8964 49.5614 31.9791 49.3647 31.9791 49.1596V43.2901L34.1043 41.2021ZM29.3049 43.7464L25.7053 47.2959V43.7464H29.3049ZM30.4106 48.3863H26.811L30.4106 44.8368V48.3863Z" fill="#703391"/>
<path d="M57.8585 58.4396H56.6665C56.8482 57.9399 56.9693 57.4207 57.0272 56.8929H59.4269V55.3463H57.0272C56.9693 54.8185 56.8482 54.2993 56.6665 53.7996H57.8585C57.9617 53.8002 58.064 53.7807 58.1596 53.7422C58.2551 53.7037 58.342 53.647 58.4153 53.5754L59.9837 52.0287L58.8702 50.9306L57.537 52.253H55.8666C55.6574 51.9801 55.4294 51.7217 55.1843 51.4796C55.3998 50.9919 55.5093 50.465 55.5058 49.933C55.5031 49.4023 55.3896 48.8777 55.1724 48.3921C54.9552 47.9065 54.6389 47.4702 54.2432 47.1104C54.7596 46.2493 55.5765 45.6032 56.541 45.293L56.0391 43.8237C54.7199 44.2645 53.6061 45.1596 52.9022 46.3448C52.0538 46.0253 51.1157 46.0253 50.2672 46.3448C49.5633 45.1596 48.4496 44.2645 47.1304 43.8237L46.6285 45.293C47.5993 45.6128 48.4171 46.2734 48.9262 47.149C48.5354 47.5044 48.2219 47.9345 48.0048 48.4131C47.7878 48.8917 47.6717 49.4088 47.6636 49.933C47.6602 50.465 47.7697 50.9919 47.9852 51.4796C47.74 51.7217 47.5121 51.9801 47.3029 52.253H45.6325L44.2993 50.9306L43.1857 52.0287L44.7542 53.5754C44.8274 53.647 44.9143 53.7037 45.0099 53.7422C45.1054 53.7807 45.2077 53.8002 45.311 53.7996H46.503C46.3213 54.2993 46.2002 54.8185 46.1422 55.3463H43.7425V56.8929H46.1422C46.2002 57.4207 46.3213 57.9399 46.503 58.4396H45.311C45.2077 58.439 45.1054 58.4585 45.0099 58.497C44.9143 58.5355 44.8274 58.5922 44.7542 58.6638L43.1857 60.2105L44.2993 61.3086L45.6325 59.9862H47.3029C47.761 60.6969 48.3937 61.282 49.1421 61.6873C49.8906 62.0927 50.7308 62.3053 51.5847 62.3053C52.4387 62.3053 53.2788 62.0927 54.0273 61.6873C54.7758 61.282 55.4084 60.6969 55.8666 59.9862H57.537L58.8702 61.3086L59.9837 60.2105L58.4153 58.6638C58.342 58.5922 58.2551 58.5355 58.1596 58.497C58.064 58.4585 57.9617 58.439 57.8585 58.4396ZM48.6674 53.0263C48.9863 52.5509 49.4196 52.1609 49.9287 51.891C50.4378 51.6211 51.0068 51.4799 51.5847 51.4799C52.1627 51.4799 52.7317 51.6211 53.2408 51.891C53.7499 52.1609 54.1832 52.5509 54.502 53.0263H48.6674ZM53.9374 49.933C53.9349 50.1236 53.9085 50.3132 53.859 50.4975C53.1597 50.1273 52.3784 49.9335 51.5847 49.9335C50.7911 49.9335 50.0097 50.1273 49.3105 50.4975C49.2246 50.1774 49.2092 49.8428 49.2654 49.5164C49.3215 49.1899 49.4479 48.879 49.6359 48.6047C49.824 48.3304 50.0695 48.099 50.3558 47.926C50.6422 47.753 50.9628 47.6424 51.296 47.6018C51.6293 47.5611 51.9675 47.5913 52.288 47.6902C52.6084 47.7892 52.9037 47.9547 53.1539 48.1755C53.4041 48.3963 53.6035 48.6674 53.7387 48.9706C53.8738 49.2737 53.9416 49.6019 53.9374 49.933ZM47.6636 56.1196C47.666 55.5961 47.7426 55.0755 47.891 54.5729H50.8005V60.6667C49.0125 60.2337 47.6636 58.3622 47.6636 56.1196ZM52.369 60.6667V54.5729H55.2784C55.4269 55.0755 55.5034 55.5961 55.5058 56.1196C55.5058 58.3622 54.157 60.2337 52.369 60.6667Z" stroke="#703391" stroke-width="0.2"/>
<path d="M57.0742 41.8363V19.7733C57.0742 19.5682 56.9916 19.3715 56.8445 19.2265C56.6974 19.0815 56.498 19 56.29 19H21.7842C21.5762 19 21.3768 19.0815 21.2297 19.2265C21.0826 19.3715 21 19.5682 21 19.7733V63.0795C21 63.2846 21.0826 63.4813 21.2297 63.6263C21.3768 63.7714 21.5762 63.8528 21.7842 63.8528H43.0131C44.4682 65.0775 46.1734 65.9791 48.0132 66.4963C49.8529 67.0135 51.7839 67.1342 53.6751 66.8502C55.5663 66.5662 57.3734 65.8842 58.9736 64.8505C60.5739 63.8168 61.9298 62.4556 62.9492 60.8594C63.9687 59.2631 64.6278 57.4692 64.8819 55.5995C65.136 53.7298 64.979 51.828 64.4217 50.0234C63.8644 48.2189 62.9197 46.5537 61.6519 45.141C60.3841 43.7283 58.8229 42.6012 57.0742 41.8363ZM22.5684 20.5466H55.5058V41.2331C54.2349 40.8502 52.9135 40.6548 51.5846 40.6531C48.4465 40.6529 45.4098 41.7488 43.0131 43.7464H33.5475V45.293H41.4368C41.0196 45.7821 40.6371 46.2988 40.2919 46.8397H33.5475V48.3863H39.4527C38.7816 49.8501 38.3882 51.4227 38.2921 53.0263H33.5475V54.5729H38.2921C38.3199 55.0917 38.3801 55.6082 38.4725 56.1196H33.5475V57.6662H38.841C39.3779 59.3706 40.2611 60.9493 41.4368 62.3062H22.5684V20.5466ZM51.5846 65.3995C49.2581 65.3995 46.9838 64.7192 45.0493 63.4446C43.1148 62.17 41.6071 60.3583 40.7168 58.2387C39.8264 56.1191 39.5935 53.7868 40.0474 51.5366C40.5012 49.2864 41.6216 47.2195 43.2667 45.5973C44.9119 43.975 47.0079 42.8702 49.2897 42.4226C51.5716 41.975 53.9368 42.2048 56.0863 43.0827C58.2357 43.9607 60.0729 45.4475 61.3655 47.3551C62.6581 49.2627 63.348 51.5054 63.348 53.7996C63.348 56.8761 62.1086 59.8266 59.9026 62.002C57.6965 64.1774 54.7045 65.3995 51.5846 65.3995Z" stroke="#703391" stroke-width="0.2"/>
<path d="M24.9211 31.3731H31.1948C31.4028 31.3731 31.6023 31.2917 31.7494 31.1466C31.8964 31.0016 31.9791 30.8049 31.9791 30.5998V24.4132C31.9791 24.2081 31.8964 24.0114 31.7494 23.8664C31.6023 23.7214 31.4028 23.6399 31.1948 23.6399H24.9211C24.7131 23.6399 24.5136 23.7214 24.3665 23.8664C24.2195 24.0114 24.1368 24.2081 24.1368 24.4132V30.5998C24.1368 30.8049 24.2195 31.0016 24.3665 31.1466C24.5136 31.2917 24.7131 31.3731 24.9211 31.3731ZM25.7053 25.1865H30.4106V29.8265H25.7053V25.1865Z" stroke="#703391" stroke-width="0.2"/>
<path d="M24.9211 40.6532H31.1948C31.4028 40.6532 31.6023 40.5717 31.7494 40.4267C31.8964 40.2816 31.9791 40.0849 31.9791 39.8799V34.0103L34.1043 31.9223L32.9907 30.8242L30.8733 32.9199H24.9211C24.7131 32.9199 24.5136 33.0014 24.3665 33.1464C24.2195 33.2915 24.1368 33.4882 24.1368 33.6933V39.8799C24.1368 40.0849 24.2195 40.2816 24.3665 40.4267C24.5136 40.5717 24.7131 40.6532 24.9211 40.6532ZM30.4106 39.1065H26.811L30.4106 35.557V39.1065ZM29.3049 34.4666L25.7053 38.0161V34.4666H29.3049Z" stroke="#703391" stroke-width="0.2"/>
<path d="M31.1948 51.4797H24.9211C24.7131 51.4797 24.5136 51.5612 24.3665 51.7062C24.2195 51.8513 24.1368 52.048 24.1368 52.2531V58.4397C24.1368 58.6448 24.2195 58.8415 24.3665 58.9865C24.5136 59.1315 24.7131 59.213 24.9211 59.213H31.1948C31.4028 59.213 31.6023 59.1315 31.7494 58.9865C31.8964 58.8415 31.9791 58.6448 31.9791 58.4397V52.2531C31.9791 52.048 31.8964 51.8513 31.7494 51.7062C31.6023 51.5612 31.4028 51.4797 31.1948 51.4797ZM30.4106 57.6663H25.7053V53.0264H30.4106V57.6663Z" stroke="#703391" stroke-width="0.2"/>
<path d="M53.9377 25.1868H33.5479V26.7334H53.9377V25.1868Z" stroke="#703391" stroke-width="0.2"/>
<path d="M50.8008 28.2798H33.5479V29.8264H50.8008V28.2798Z" stroke="#703391" stroke-width="0.2"/>
<path d="M53.9377 34.4666H33.5479V36.0132H53.9377V34.4666Z" stroke="#703391" stroke-width="0.2"/>
<path d="M50.8008 37.5598H33.5479V39.1065H50.8008V37.5598Z" stroke="#703391" stroke-width="0.2"/>
<path d="M53.9374 28.2798H52.369V29.8264H53.9374V28.2798Z" stroke="#703391" stroke-width="0.2"/>
<path d="M53.9374 37.5598H52.369V39.1065H53.9374V37.5598Z" stroke="#703391" stroke-width="0.2"/>
<path d="M34.1043 41.2021L32.9907 40.104L30.8733 42.1997H24.9211C24.7131 42.1997 24.5136 42.2812 24.3665 42.4262C24.2195 42.5712 24.1368 42.7679 24.1368 42.973V49.1596C24.1368 49.3647 24.2195 49.5614 24.3665 49.7065C24.5136 49.8515 24.7131 49.933 24.9211 49.933H31.1948C31.4028 49.933 31.6023 49.8515 31.7494 49.7065C31.8964 49.5614 31.9791 49.3647 31.9791 49.1596V43.2901L34.1043 41.2021ZM29.3049 43.7464L25.7053 47.2959V43.7464H29.3049ZM30.4106 48.3863H26.811L30.4106 44.8368V48.3863Z" stroke="#703391" stroke-width="0.2"/>
</svg>
