<svg width="86" height="86" viewBox="0 0 86 86" fill="none" xmlns="http://www.w3.org/2000/svg">
<circle cx="43" cy="43" r="43" fill="#703391" fill-opacity="0.1"/>
<path d="M41.4383 27.0737C42.7538 27.0737 43.8235 25.9917 43.8235 24.661C43.8235 23.3304 42.7538 22.2484 41.4383 22.2484C40.1228 22.2484 39.0531 23.3304 39.0531 24.661C39.0531 25.9917 40.1228 27.0737 41.4383 27.0737ZM41.4383 24.1346C41.7272 24.1346 41.9608 24.3708 41.9608 24.6631C41.9608 24.9554 41.7272 25.1916 41.4383 25.1916C41.1494 25.1916 40.9158 24.9554 40.9158 24.6631C40.9158 24.3708 41.1494 24.1346 41.4383 24.1346ZM38.4138 35.4495C38.4138 34.9292 38.8298 34.5085 39.3441 34.5085H51.7985C52.3129 34.5085 52.7288 34.9292 52.7288 35.4495C52.7288 35.9697 52.3129 36.3905 51.7985 36.3905H39.3441C38.8298 36.3905 38.4138 35.9697 38.4138 35.4495ZM38.4917 32.8026C38.4917 32.2823 38.9077 31.8616 39.422 31.8616H51.8764C52.3907 31.8616 52.8067 32.2823 52.8067 32.8026C52.8067 33.3228 52.3907 33.7436 51.8764 33.7436H39.422C38.9077 33.7436 38.4917 33.3228 38.4917 32.8026ZM36.3893 32.9539L33.2603 36.5438C33.0841 36.747 32.83 36.863 32.5637 36.863C32.2973 36.863 32.0432 36.747 31.867 36.5438L30.3035 34.7489C29.9633 34.3592 30.0002 33.7643 30.3854 33.4203C30.7707 33.0762 31.3588 33.1135 31.6989 33.5032L32.5657 34.496L34.9959 31.7082C35.3361 31.3185 35.9242 31.2812 36.3094 31.6253C36.6946 31.9694 36.7315 32.5642 36.3914 32.9539H36.3893ZM36.3893 40.6892L33.2603 44.2792C33.0841 44.4823 32.83 44.5984 32.5637 44.5984C32.2973 44.5984 32.0432 44.4823 31.867 44.2792L30.3035 42.4842C29.9633 42.0945 30.0002 41.4997 30.3854 41.1556C30.7707 40.8115 31.3588 40.8488 31.6989 41.2385L32.5657 42.2314L34.9959 39.4435C35.3361 39.0539 35.9242 39.0166 36.3094 39.3606C36.6946 39.7047 36.7315 40.2996 36.3914 40.6892H36.3893ZM52.7287 43.1848C52.7287 43.7051 52.3128 44.1258 51.7985 44.1258H39.344C38.8297 44.1258 38.4138 43.705 38.4138 43.1848C38.4138 42.6645 38.8297 42.2438 39.344 42.2438H51.7985C52.3128 42.2438 52.7287 42.6646 52.7287 43.1848ZM52.8066 40.5379C52.8066 41.0582 52.3906 41.4789 51.8763 41.4789H39.4219C38.9076 41.4789 38.4916 41.0581 38.4916 40.5379C38.4916 40.0177 38.9076 39.5969 39.4219 39.5969H51.8763C52.3907 39.5969 52.8066 40.0177 52.8066 40.5379ZM49.1694 48.2733C49.1694 48.7935 48.7535 49.2143 48.2391 49.2143H39.4216C38.9073 49.2143 38.4913 48.7935 38.4913 48.2733C38.4913 47.753 38.9073 47.3323 39.4216 47.3323H48.2391C48.7535 47.3323 49.1694 47.753 49.1694 48.2733ZM47.2719 50.9181C47.2719 51.4383 46.856 51.8591 46.3417 51.8591H39.3438C38.8295 51.8591 38.4136 51.4383 38.4136 50.9181C38.4136 50.3978 38.8295 49.9771 39.3438 49.9771H46.3417C46.856 49.9771 47.2719 50.3978 47.2719 50.9181ZM36.3891 48.4225L33.2602 52.0125C33.0839 52.2156 32.8298 52.3317 32.5635 52.3317C32.2971 52.3317 32.043 52.2156 31.8668 52.0125L30.3033 50.2175C29.9631 49.8278 30 49.2329 30.3853 48.8889C30.7705 48.5448 31.3586 48.5821 31.6987 48.9718L32.5655 49.9646L34.9957 47.1768C35.3359 46.7871 35.924 46.7498 36.3092 47.0939C36.6944 47.438 36.7313 48.0328 36.3912 48.4225H36.3891ZM46.9582 56.0067C46.9582 56.5269 46.5423 56.9477 46.028 56.9477H39.4236C38.9093 56.9477 38.4933 56.5269 38.4933 56.0067C38.4933 55.4864 38.9093 55.0657 39.4236 55.0657H46.028C46.5423 55.0657 46.9582 55.4864 46.9582 56.0067ZM46.8783 58.6535C46.8783 59.1738 46.4624 59.5945 45.9481 59.5945H39.3437C38.8293 59.5945 38.4134 59.1738 38.4134 58.6535C38.4134 58.1333 38.8294 57.7125 39.3437 57.7125H45.9481C46.4624 57.7125 46.8783 58.1333 46.8783 58.6535ZM36.389 56.158L33.26 59.7479C33.0837 59.9511 32.8297 60.0671 32.5633 60.0671C32.2969 60.0671 32.0428 59.9511 31.8666 59.7479L30.3031 57.953C29.963 57.5633 29.9998 56.9684 30.3851 56.6243C30.7703 56.2803 31.3584 56.3176 31.6986 56.7073L32.5653 57.7001L34.9956 54.9123C35.3357 54.5226 35.9238 54.4853 36.309 54.8294C36.6943 55.1735 36.7312 55.7683 36.391 56.158H36.389ZM62.6465 35.8804L61.6588 35.3021C61.4109 35.1571 61.1465 35.0555 60.8761 34.9975V25.3964C60.8761 24.3704 60.0503 23.5351 59.036 23.5351H46.6817C46.2842 20.9691 44.0855 19 41.438 19C38.7906 19 36.5919 20.9691 36.1943 23.5351H23.8401C22.8258 23.5351 22 24.3704 22 25.3964V65.1387C22 66.1647 22.8258 67 23.8401 67H59.0359C60.0502 67 60.876 66.1647 60.876 65.1387V44.4552L63.6381 39.6174C64.384 38.3096 63.9394 36.6348 62.6484 35.8782L62.6465 35.8804ZM59.0134 35.269C58.579 35.5073 58.2143 35.8618 57.9622 36.3033L57.8434 36.5105V27.542C57.8434 27.0218 57.4274 26.601 56.9131 26.601H50.0711V25.4175H59.0156V35.2689L59.0134 35.269ZM49.7473 55.8411L51.0178 56.5831L49.7473 57.3251V55.8411ZM48.0097 53.7414C47.9277 53.8844 47.8847 54.0461 47.8847 54.2119V58.9564C47.8847 59.2922 48.063 59.6031 48.3498 59.771C48.4933 59.8539 48.6551 59.8974 48.815 59.8974C48.9748 59.8974 49.1367 59.856 49.2801 59.771L53.3415 57.3977C53.4829 57.3148 53.5997 57.1966 53.6816 57.0536L55.9807 53.0263V62.0511L26.8916 62.0532V28.4852H32.8035V28.9018C32.8035 29.6749 33.4244 30.3029 34.1887 30.3029H48.6842C49.4485 30.3029 50.0694 29.6749 50.0694 28.9018V28.4852H55.9814V39.773L48.0084 53.741L48.0097 53.7414ZM35.9466 25.4175H37.0633C37.3133 25.4175 37.5531 25.316 37.7293 25.1336C37.9055 24.9532 37.9998 24.7066 37.9936 24.4537C37.9936 24.4247 37.9916 24.3957 37.9916 24.3667C37.9916 22.4453 39.5366 20.8824 41.4382 20.8824C43.3377 20.8824 44.8848 22.4453 44.8848 24.3667C44.8848 24.3957 44.8848 24.4247 44.8827 24.4537C44.8766 24.7066 44.9729 24.9512 45.1471 25.1336C45.3233 25.3139 45.561 25.4175 45.813 25.4175H48.2105V28.4188H34.666V25.4175H35.9466ZM59.0137 65.1184H23.8609V25.4175H32.8054V26.6011H25.9634C25.4491 26.6011 25.0331 27.0218 25.0331 27.5421V62.9921C25.0331 63.5124 25.4491 63.9331 25.9634 63.9331H56.9154C57.4297 63.9331 57.8456 63.5124 57.8456 62.9921V49.7659L59.0157 47.716V65.1166L59.0137 65.1184ZM62.0259 38.6766L52.5384 55.2977L50.0877 53.8675L59.5751 37.2464C59.6878 37.0516 59.8702 36.9107 60.0874 36.8505C60.3066 36.7904 60.5341 36.8215 60.7288 36.9335L61.7165 37.5117C62.1201 37.748 62.2574 38.2703 62.0259 38.6787V38.6766Z" fill="#703391"/>
</svg>
