<svg width="86" height="86" viewBox="0 0 86 86" fill="none" xmlns="http://www.w3.org/2000/svg">
<circle cx="43" cy="43" r="43" fill="#703391" fill-opacity="0.1"/>
<path d="M33.0466 43.7048H42.529C43.1789 43.7048 43.7064 43.1773 43.7064 42.5274V29.8844C43.7064 29.2345 43.1789 28.707 42.529 28.707C41.8791 28.707 41.3516 29.2345 41.3516 29.8844V41.3477L33.0465 41.3501C32.3966 41.3501 31.8691 41.8775 31.8691 42.5274C31.8691 43.1773 32.3967 43.7048 33.0466 43.7048Z" fill="#703391" stroke="#703391"/>
<path d="M60.4489 53.2953C59.8744 52.9939 59.1609 53.2129 58.8595 53.7898L56.3752 58.5183L54.3124 56.6651C53.8273 56.2294 53.0831 56.2695 52.6499 56.7545C52.2143 57.2373 52.2543 57.9814 52.7394 58.417L55.9278 61.2828C56.1468 61.4782 56.427 61.5842 56.7143 61.5842C56.7826 61.5842 56.8532 61.5771 56.9215 61.5653C57.2794 61.5018 57.5879 61.2757 57.7551 60.9531L60.9435 54.8851C61.2449 54.3105 61.0258 53.5991 60.4489 53.2953Z" fill="#703391" stroke="#703391"/>
<path d="M64.7276 50.3161C65.6036 47.8177 66.0534 45.2015 66.0534 42.5264C66.0534 38.2501 64.9018 34.24 62.8979 30.781C62.8815 30.7434 62.8673 30.7057 62.8461 30.668C62.8273 30.635 62.8037 30.6091 62.7826 30.5809C60.887 27.376 58.252 24.6633 55.1152 22.6664C55.0799 22.6381 55.0469 22.6075 55.0069 22.5816C54.9763 22.5628 54.941 22.551 54.9104 22.5345C51.3122 20.2975 47.0712 19 42.529 19C38.2551 19 34.2474 20.1515 30.7902 22.1507C30.7501 22.1696 30.7101 22.1813 30.6701 22.2049C30.6371 22.2237 30.6065 22.2496 30.5759 22.2732C27.3781 24.1687 24.6654 26.799 22.6735 29.9308C22.6429 29.9685 22.6099 30.0038 22.584 30.0462C22.5628 30.0792 22.551 30.1145 22.5322 30.1498C20.2999 33.7432 19.0047 37.9793 19.0024 42.5125C19.0024 42.5173 19 42.5196 19 42.5243C19 42.529 19 42.5314 19.0024 42.5361C19.0047 46.8076 20.1562 50.8129 22.1554 54.2677C22.1719 54.3053 22.186 54.343 22.2049 54.3783C22.219 54.4019 22.2402 54.4207 22.2543 54.4443C24.1523 57.6585 26.792 60.383 29.9379 62.3847C29.9732 62.4129 30.0062 62.4435 30.0439 62.4671C30.0674 62.4812 30.0933 62.4859 30.1145 62.5C33.7197 64.7465 37.9699 66.051 42.5218 66.051C45.1992 66.051 47.8154 65.6013 50.3115 64.7229C52.0706 66.1453 54.3076 67 56.7425 67C62.3963 67 66.9953 62.4011 66.9953 56.7472C67.0047 54.3147 66.1499 52.0775 64.7276 50.3161ZM24.8756 54.1921L27.6824 52.5556C28.2429 52.2283 28.4336 51.5077 28.1063 50.9449C27.779 50.3821 27.0584 50.1937 26.4956 50.521L23.6887 52.16C22.3747 49.598 21.5624 46.7369 21.3952 43.7066H24.6518C25.3017 43.7066 25.8292 43.1791 25.8292 42.5292C25.8292 41.8793 25.3017 41.3518 24.6518 41.3518H21.3952C21.5741 38.0904 22.4972 35.0246 23.9925 32.3191L26.7499 34.0428C26.943 34.1653 27.1597 34.2218 27.374 34.2218C27.7672 34.2218 28.1487 34.0264 28.3724 33.6684C28.7162 33.1174 28.549 32.3898 27.998 32.046L25.2476 30.3246C26.7664 28.1794 28.6714 26.3286 30.8661 24.8733L32.5026 27.6778C32.7216 28.0522 33.1148 28.2618 33.5199 28.2618C33.7224 28.2618 33.9249 28.21 34.1133 28.1017C34.6737 27.7744 34.8645 27.0538 34.5371 26.491L32.8982 23.6865C35.4602 22.3725 38.3213 21.5601 41.3516 21.3929V24.6495C41.3516 25.2994 41.8791 25.8269 42.529 25.8269C43.1789 25.8269 43.7063 25.2994 43.7063 24.6495V21.3929C46.9677 21.5719 50.0336 22.4949 52.739 23.9902L51.013 26.7477C50.6692 27.2987 50.8364 28.0263 51.3874 28.3701C51.5828 28.4926 51.7971 28.5491 52.0114 28.5491C52.4047 28.5491 52.7862 28.3536 53.0098 27.9957L54.7312 25.243C56.8764 26.7618 58.7273 28.6668 60.1825 30.8615L57.3757 32.498C56.8152 32.8253 56.6245 33.5459 56.9518 34.1087C57.1708 34.4831 57.564 34.6927 57.9691 34.6927C58.1716 34.6927 58.3741 34.6409 58.5625 34.5326L61.3693 32.8936C62.6857 35.4556 63.4957 38.3167 63.6629 41.3494H60.4063C59.7564 41.3494 59.2289 41.8769 59.2289 42.5268C59.2289 43.1767 59.7564 43.7042 60.4063 43.7042H63.6606C63.5711 45.3407 63.2956 46.9467 62.8364 48.5055C61.1315 47.2433 59.0263 46.4969 56.7467 46.4969C51.0952 46.4969 46.4962 51.0958 46.4962 56.7497C46.4962 59.0268 47.2451 61.1343 48.5048 62.8395C46.946 63.2987 45.34 63.5742 43.7035 63.6637V60.407C43.7035 59.7571 43.176 59.2296 42.5261 59.2296C41.8762 59.2296 41.3487 59.7571 41.3487 60.407V63.6637C38.0873 63.4847 35.0215 62.5616 32.316 61.0663L34.0421 58.3089C34.3859 57.7579 34.221 57.0302 33.6677 56.6865C33.1167 56.3403 32.389 56.5075 32.0452 57.0609L30.3239 59.8136C28.181 58.2924 26.3302 56.385 24.8749 54.1927L24.8756 54.1921ZM56.7523 64.6475C52.3983 64.6475 48.8565 61.1059 48.8565 56.7493C48.8565 52.3953 52.3981 48.8511 56.7523 48.8511C61.1086 48.8511 64.6505 52.3927 64.6505 56.7493C64.6505 61.1033 61.1065 64.6475 56.7523 64.6475Z" fill="#703391" stroke="#703391"/>
</svg>
