<svg width="86" height="86" viewBox="0 0 86 86" fill="none" xmlns="http://www.w3.org/2000/svg">
<circle cx="43" cy="43" r="43" fill="#703391" fill-opacity="0.1"/>
<g clip-path="url(#clip0_3288_17866)">
<path d="M24.8586 18.9533C25.022 18.9529 25.1854 18.9523 25.3487 18.9515C25.7947 18.95 26.2407 18.9507 26.6866 18.9519C27.1687 18.9528 27.6509 18.9514 28.133 18.9504C29.0763 18.9488 30.0196 18.9491 30.9628 18.9502C31.7297 18.951 32.4966 18.9512 33.2634 18.9507C33.3727 18.9507 33.482 18.9506 33.5946 18.9506C33.8166 18.9505 34.0387 18.9503 34.2607 18.9502C36.341 18.9491 38.4214 18.9504 40.5017 18.9524C42.2854 18.9541 44.0692 18.9538 45.8529 18.952C47.926 18.95 49.999 18.9492 52.0721 18.9504C52.2933 18.9505 52.5145 18.9506 52.7357 18.9507C52.8445 18.9508 52.9533 18.9509 53.0655 18.9509C53.8311 18.9512 54.5967 18.9507 55.3624 18.9498C56.2959 18.9488 57.2294 18.9491 58.1629 18.951C58.6388 18.952 59.1148 18.9524 59.5908 18.9512C60.027 18.9501 60.4633 18.9507 60.8995 18.9527C61.0568 18.9531 61.2141 18.9529 61.3713 18.952C62.9684 18.9434 64.3661 19.3041 65.5699 20.413C66.7538 21.6744 67.0424 23.0658 67.0359 24.7402C67.0363 24.9041 67.0368 25.0681 67.0374 25.2321C67.0388 25.681 67.0384 26.1299 67.0377 26.5788C67.0373 27.0636 67.0384 27.5484 67.0394 28.0332C67.041 28.9824 67.0411 29.9315 67.0406 30.8806C67.0402 31.6522 67.0404 32.4237 67.0409 33.1953C67.0409 33.3052 67.041 33.415 67.0411 33.5282C67.0412 33.7514 67.0414 33.9747 67.0415 34.1979C67.0428 36.2905 67.0423 38.383 67.0412 40.4756C67.0403 42.3893 67.0415 44.303 67.0437 46.2167C67.046 48.1825 67.0469 50.1483 67.0463 52.1141C67.046 53.2175 67.0462 54.3208 67.0478 55.4241C67.0492 56.3633 67.0493 57.3026 67.0476 58.2418C67.0468 58.7208 67.0466 59.1998 67.048 59.6788C67.0494 60.1177 67.0489 60.5566 67.0471 60.9955C67.0467 61.1539 67.047 61.3122 67.048 61.4706C67.057 63.04 66.6778 64.3897 65.5875 65.5712C64.326 66.7552 62.9347 67.0438 61.2603 67.0373C61.0964 67.0377 60.9324 67.0382 60.7684 67.0388C60.3195 67.0402 59.8706 67.0398 59.4217 67.0391C58.9369 67.0386 58.4521 67.0398 57.9673 67.0408C57.0181 67.0424 56.069 67.0424 55.1199 67.042C54.3483 67.0416 53.5768 67.0417 52.8052 67.0422C52.6404 67.0423 52.6404 67.0423 52.4723 67.0424C52.249 67.0426 52.0258 67.0427 51.8026 67.0429C49.71 67.0441 47.6175 67.0436 45.5249 67.0426C43.6112 67.0416 41.6975 67.0428 39.7838 67.0451C37.818 67.0474 35.8522 67.0483 33.8863 67.0476C32.783 67.0473 31.6797 67.0475 30.5764 67.0492C29.6372 67.0506 28.6979 67.0506 27.7587 67.049C27.2797 67.0482 26.8007 67.048 26.3217 67.0494C25.8828 67.0507 25.4439 67.0503 25.005 67.0485C24.8466 67.0481 24.6883 67.0484 24.5299 67.0494C22.9605 67.0584 21.6108 66.6792 20.4293 65.5888C19.2583 64.3412 18.9564 62.9607 18.9645 61.3027C18.9642 61.1432 18.9638 60.9837 18.9634 60.8242C18.9624 60.3876 18.9631 59.951 18.9642 59.5143C18.965 59.0428 18.9642 58.5712 18.9636 58.0996C18.9627 57.1763 18.9634 56.253 18.9645 55.3298C18.9658 54.2538 18.9656 53.1778 18.9654 52.1018C18.9651 50.1812 18.9662 48.2606 18.968 46.34C18.9698 44.4781 18.9705 42.6161 18.97 40.7542C18.9694 38.7255 18.9694 36.6967 18.9705 34.668C18.9706 34.4514 18.9707 34.2348 18.9708 34.0183C18.9709 33.9117 18.9709 33.8052 18.971 33.6954C18.9714 32.9462 18.9713 32.197 18.9711 31.4478C18.9709 30.5338 18.9714 29.6198 18.9728 28.7059C18.9735 28.2399 18.9739 27.774 18.9734 27.3081C18.973 26.8808 18.9735 26.4535 18.9747 26.0261C18.975 25.8723 18.9749 25.7185 18.9746 25.5647C18.97 23.5851 19.1951 21.8444 20.6168 20.3427C21.835 19.1773 23.233 18.9439 24.8586 18.9533ZM22.5621 22.5634C21.8341 23.4411 21.8792 24.4869 21.8875 25.5726C21.8879 25.708 21.8881 25.8434 21.8883 25.9788C21.889 26.3325 21.8909 26.6862 21.8929 27.0399C21.8949 27.402 21.8957 27.764 21.8967 28.126C21.8987 28.8343 21.9019 29.5426 21.9058 30.2509C24.1568 30.315 26.4077 30.3627 28.6595 30.3918C29.7056 30.4057 30.7511 30.4246 31.7968 30.456C37.8834 30.8472 37.8834 30.8472 43.1258 28.2125C43.2341 28.1036 43.3423 27.9946 43.4504 27.8855C44.6335 26.7811 45.5353 26.4555 47.1476 26.4796C47.3344 26.479 47.5212 26.4779 47.708 26.4765C48.2108 26.4737 48.7134 26.4767 49.2162 26.4807C49.7432 26.4839 50.2702 26.4818 50.7972 26.4803C51.7932 26.4783 52.7892 26.481 53.7853 26.4854C54.92 26.4902 56.0548 26.4897 57.1896 26.4887C59.5221 26.4869 61.8546 26.4917 64.1871 26.5009C64.1926 26.1279 64.1959 25.7549 64.1988 25.3818C64.2004 25.2771 64.2019 25.1724 64.2035 25.0645C64.2094 24.0689 64.1127 23.243 63.4371 22.4697C62.5469 21.6846 61.3292 21.7862 60.2153 21.7896C60.06 21.7894 59.9047 21.7891 59.7495 21.7887C59.3246 21.788 58.8997 21.7883 58.4748 21.7889C58.0159 21.7893 57.557 21.7887 57.0981 21.7882C56.1998 21.7873 55.3015 21.7875 54.4033 21.7881C53.6732 21.7885 52.9431 21.7885 52.213 21.7883C52.109 21.7883 52.0051 21.7883 51.898 21.7883C51.6867 21.7882 51.4755 21.7881 51.2643 21.7881C49.2845 21.7875 47.3048 21.7881 45.325 21.7892C43.6266 21.79 41.9282 21.7898 40.2298 21.789C38.2568 21.788 36.2839 21.7876 34.311 21.7882C34.1006 21.7882 33.8902 21.7883 33.6798 21.7883C33.5763 21.7884 33.4728 21.7884 33.3661 21.7884C32.637 21.7886 31.9078 21.7883 31.1786 21.7879C30.2899 21.7873 29.4013 21.7875 28.5126 21.7885C28.0593 21.789 27.6059 21.7892 27.1526 21.7886C26.7375 21.788 26.3223 21.7883 25.9072 21.7893C25.7572 21.7895 25.6072 21.7894 25.4572 21.7889C23.8751 21.7712 23.8751 21.7712 22.5621 22.5634ZM42.548 31.6789C41.3696 32.7816 40.4673 33.1089 38.8601 33.0847C38.6743 33.0854 38.4884 33.0865 38.3025 33.0879C37.8023 33.0907 37.3022 33.0877 36.8019 33.0837C36.2775 33.0804 35.7531 33.0825 35.2288 33.084C34.2377 33.0861 33.2467 33.0834 32.2556 33.079C31.1265 33.0741 29.9974 33.0747 28.8683 33.0756C26.5475 33.0775 24.2267 33.0727 21.9058 33.0634C21.8896 36.7156 21.8743 40.3678 21.8604 44.02C21.8588 44.4513 21.8571 44.8825 21.8555 45.3138C21.8551 45.3996 21.8548 45.4855 21.8545 45.5739C21.8491 46.9638 21.8431 48.3536 21.8368 49.7434C21.8304 51.1697 21.8247 52.5959 21.8196 54.0222C21.8165 54.9022 21.8128 55.7821 21.8084 56.6621C21.8054 57.2656 21.8032 57.8692 21.8015 58.4727C21.8004 58.8209 21.7991 59.169 21.797 59.5171C21.7946 59.895 21.7938 60.2727 21.7931 60.6506C21.7922 60.7601 21.7913 60.8696 21.7903 60.9825C21.7907 61.9141 21.8803 62.6907 22.4683 63.4384C23.1612 64.0958 23.8975 64.2 24.8228 64.2005C24.919 64.2007 24.919 64.2007 25.0171 64.201C25.2314 64.2014 25.4456 64.2012 25.6598 64.201C25.8152 64.2011 25.9707 64.2014 26.1261 64.2016C26.5527 64.2022 26.9792 64.2022 27.4058 64.2021C27.8661 64.202 28.3263 64.2026 28.7866 64.203C29.6881 64.2038 30.5896 64.204 31.4911 64.2041C32.2239 64.2041 32.9566 64.2043 33.6893 64.2046C35.7667 64.2055 37.8441 64.2059 39.9215 64.2058C40.0335 64.2058 40.1454 64.2058 40.2608 64.2058C40.3729 64.2058 40.485 64.2058 40.6006 64.2058C42.4181 64.2058 44.2355 64.2066 46.053 64.208C47.9192 64.2093 49.7853 64.21 51.6514 64.2099C52.6992 64.2099 53.7469 64.2101 54.7946 64.2111C55.6865 64.212 56.5784 64.2122 57.4704 64.2115C57.9254 64.2112 58.3804 64.2112 58.8355 64.212C59.2522 64.2128 59.6689 64.2126 60.0856 64.2118C60.2362 64.2117 60.3868 64.2119 60.5374 64.2124C62.1571 64.2208 62.1571 64.2208 63.5308 63.4384C64.2471 62.527 64.2008 61.6435 64.1983 60.5307C64.1984 60.396 64.1985 60.2612 64.1986 60.1265C64.1988 59.7571 64.1984 59.3876 64.1979 59.0182C64.1975 58.6195 64.1977 58.2208 64.1977 57.8221C64.1978 57.1316 64.1975 56.4411 64.197 55.7506C64.1962 54.7523 64.196 53.754 64.1959 52.7556C64.1956 51.1359 64.195 49.5161 64.1941 47.8963C64.1933 46.323 64.1926 44.7496 64.1922 43.1762C64.1922 43.0792 64.1922 42.9822 64.1921 42.8823C64.192 42.3957 64.1919 41.9091 64.1918 41.4224C64.1908 37.3861 64.1892 33.3498 64.1871 29.3134C61.9238 29.2493 59.6607 29.2017 57.3967 29.1726C56.345 29.1587 55.2938 29.1397 54.2424 29.1083C47.8869 28.7057 47.8869 28.7057 42.548 31.6789Z" fill="#703391"/>
<path d="M49.5806 49.9959C49.7247 49.9945 49.7247 49.9945 49.8717 49.993C49.9761 49.9935 50.0805 49.9939 50.188 49.9943C50.2988 49.9937 50.4095 49.993 50.5236 49.9924C50.8265 49.991 51.1294 49.9908 51.4324 49.9913C51.6856 49.9916 51.9389 49.9911 52.1921 49.9905C52.7897 49.9892 53.3873 49.9893 53.9849 49.9904C54.6007 49.9915 55.2165 49.9901 55.8322 49.9876C56.3616 49.9856 56.891 49.9849 57.4204 49.9855C57.7363 49.9858 58.0521 49.9856 58.368 49.984C58.7204 49.9826 59.0726 49.9836 59.425 49.9852C59.5292 49.9843 59.6334 49.9834 59.7407 49.9824C60.2978 49.9878 60.6669 50.0097 61.0938 50.4072C61.3907 50.7775 61.4109 51.0723 61.413 51.5399C61.4136 51.6049 61.4142 51.6699 61.4149 51.7368C61.4166 51.9508 61.4163 52.1646 61.4157 52.3785C61.4162 52.5278 61.4167 52.6772 61.4172 52.8265C61.4181 53.1391 61.4178 53.4517 61.4169 53.7643C61.4158 54.1642 61.4177 54.5639 61.4205 54.9638C61.4222 55.2721 61.4221 55.5803 61.4216 55.8886C61.4216 56.036 61.4222 56.1834 61.4233 56.3307C61.4247 56.5372 61.4237 56.7435 61.4221 56.9499C61.4221 57.0672 61.4221 57.1844 61.4221 57.3052C61.3652 57.6931 61.2501 57.8886 61.0001 58.1885C60.6714 58.4219 60.4462 58.5049 60.0445 58.506C59.9485 58.507 59.8524 58.5079 59.7534 58.5089C59.649 58.5084 59.5447 58.508 59.4371 58.5076C59.271 58.5085 59.271 58.5085 59.1016 58.5095C58.7986 58.511 58.4957 58.5111 58.1928 58.5106C57.9395 58.5103 57.6863 58.5109 57.433 58.5114C56.8354 58.5127 56.2378 58.5126 55.6402 58.5115C55.0245 58.5104 54.4087 58.5118 53.7929 58.5143C53.2635 58.5164 52.7342 58.517 52.2048 58.5164C51.8889 58.5161 51.573 58.5163 51.2572 58.5179C50.9048 58.5193 50.5525 58.5183 50.2002 58.5167C50.096 58.5176 49.9918 58.5186 49.8845 58.5195C49.3274 58.5142 48.9582 58.4922 48.5313 58.0947C48.2345 57.7244 48.2142 57.4296 48.2122 56.962C48.2116 56.897 48.2109 56.832 48.2103 56.7651C48.2085 56.5512 48.2089 56.3373 48.2094 56.1234C48.209 55.9741 48.2085 55.8248 48.2079 55.6754C48.2071 55.3628 48.2073 55.0502 48.2083 54.7376C48.2093 54.3377 48.2074 53.938 48.2047 53.5381C48.203 53.2299 48.203 52.9216 48.2036 52.6133C48.2036 52.4659 48.203 52.3185 48.2018 52.1712C48.2004 51.9647 48.2014 51.7584 48.203 51.552C48.2031 51.4348 48.2031 51.3175 48.2031 51.1967C48.2599 50.8088 48.3751 50.6134 48.6251 50.3135C48.9537 50.08 49.179 49.997 49.5806 49.9959ZM51.0626 52.8447C51.0626 53.7728 51.0626 54.701 51.0626 55.6572C53.5376 55.6572 56.0126 55.6572 58.5626 55.6572C58.5626 54.7291 58.5626 53.801 58.5626 52.8447C56.0876 52.8447 53.6126 52.8447 51.0626 52.8447Z" fill="#703391"/>
<path d="M49.5806 36.8709C49.7247 36.8695 49.7247 36.8695 49.8717 36.868C49.9761 36.8685 50.0805 36.8689 50.188 36.8693C50.2988 36.8687 50.4095 36.868 50.5236 36.8674C50.8265 36.866 51.1294 36.8658 51.4324 36.8663C51.6856 36.8666 51.9389 36.8661 52.1921 36.8655C52.7897 36.8642 53.3873 36.8643 53.9849 36.8654C54.6007 36.8665 55.2165 36.8651 55.8322 36.8626C56.3616 36.8606 56.891 36.8599 57.4204 36.8605C57.7363 36.8608 58.0521 36.8606 58.368 36.859C58.7204 36.8576 59.0726 36.8586 59.425 36.8602C59.5292 36.8593 59.6334 36.8584 59.7407 36.8574C60.2978 36.8628 60.6669 36.8847 61.0938 37.2822C61.3907 37.6525 61.4109 37.9473 61.413 38.4149C61.4136 38.4799 61.4142 38.5449 61.4149 38.6118C61.4166 38.8258 61.4163 39.0396 61.4157 39.2535C61.4162 39.4028 61.4167 39.5522 61.4172 39.7015C61.4181 40.0141 61.4178 40.3267 61.4169 40.6393C61.4158 41.0392 61.4177 41.4389 61.4205 41.8388C61.4222 42.1471 61.4221 42.4553 61.4216 42.7636C61.4216 42.911 61.4222 43.0584 61.4233 43.2057C61.4247 43.4122 61.4237 43.6185 61.4221 43.8249C61.4221 43.9422 61.4221 44.0594 61.4221 44.1802C61.3652 44.5681 61.2501 44.7636 61.0001 45.0635C60.6714 45.2969 60.4462 45.3799 60.0445 45.381C59.9485 45.382 59.8524 45.3829 59.7534 45.3839C59.649 45.3834 59.5447 45.383 59.4371 45.3826C59.271 45.3835 59.271 45.3835 59.1016 45.3845C58.7986 45.386 58.4957 45.3861 58.1928 45.3856C57.9395 45.3853 57.6863 45.3859 57.433 45.3864C56.8354 45.3877 56.2378 45.3876 55.6402 45.3865C55.0245 45.3854 54.4087 45.3868 53.7929 45.3893C53.2635 45.3914 52.7342 45.392 52.2048 45.3914C51.8889 45.3911 51.573 45.3913 51.2572 45.3929C50.9048 45.3943 50.5525 45.3933 50.2002 45.3917C50.096 45.3926 49.9918 45.3936 49.8845 45.3945C49.3274 45.3892 48.9582 45.3672 48.5313 44.9697C48.2345 44.5994 48.2142 44.3046 48.2122 43.837C48.2116 43.772 48.2109 43.707 48.2103 43.6401C48.2085 43.4262 48.2089 43.2123 48.2094 42.9984C48.209 42.8491 48.2085 42.6998 48.2079 42.5504C48.2071 42.2378 48.2073 41.9252 48.2083 41.6126C48.2093 41.2127 48.2074 40.813 48.2047 40.4131C48.203 40.1049 48.203 39.7966 48.2036 39.4883C48.2036 39.3409 48.203 39.1935 48.2018 39.0462C48.2004 38.8397 48.2014 38.6334 48.203 38.427C48.2031 38.3098 48.2031 38.1925 48.2031 38.0717C48.2599 37.6838 48.3751 37.4884 48.6251 37.1885C48.9537 36.955 49.179 36.872 49.5806 36.8709ZM51.0626 39.7197C51.0626 40.6478 51.0626 41.576 51.0626 42.5322C53.5376 42.5322 56.0126 42.5322 58.5626 42.5322C58.5626 41.6041 58.5626 40.676 58.5626 39.7197C56.0876 39.7197 53.6126 39.7197 51.0626 39.7197Z" fill="#703391"/>
<path d="M32.219 51.9062C32.6524 52.1114 32.8483 52.3281 33.0628 52.7499C33.11 53.0154 33.11 53.0154 33.1155 53.2948C33.1215 53.4321 33.1215 53.4321 33.1276 53.5721C32.9635 54.3389 32.2191 54.9337 31.6825 55.4676C31.5668 55.5836 31.5668 55.5836 31.4487 55.7019C31.2865 55.8642 31.1241 56.0263 30.9615 56.1881C30.7129 56.4357 30.4654 56.6843 30.2179 56.933C30.0597 57.091 29.9014 57.2491 29.7431 57.407C29.6693 57.4811 29.5956 57.5553 29.5196 57.6316C29.4501 57.7005 29.3807 57.7694 29.3091 57.8404C29.2485 57.9008 29.188 57.9612 29.1256 58.0234C28.7424 58.358 28.4345 58.5114 27.9241 58.5214C27.7869 58.5274 27.7869 58.5274 27.6469 58.5335C26.8595 58.365 26.2667 57.6077 25.721 57.0566C25.6462 56.9825 25.5715 56.9085 25.4945 56.8322C25.4226 56.7602 25.3508 56.6881 25.2768 56.6138C25.1801 56.5168 25.1801 56.5168 25.0815 56.4179C24.6423 55.9178 24.5747 55.5469 24.5923 54.8952C24.637 54.5292 24.7474 54.3289 25.0003 54.0624C25.5103 53.7009 25.9867 53.6834 26.594 53.7812C26.89 53.9267 27.1102 54.113 27.344 54.3437C27.3935 54.3904 27.4429 54.4372 27.4938 54.4854C27.603 54.5915 27.7084 54.7015 27.8128 54.8124C28.2013 54.6602 28.4566 54.3767 28.7411 54.0833C28.7936 54.0301 28.846 53.9769 28.9001 53.9222C29.1238 53.6954 29.3464 53.4675 29.5691 53.2397C29.7322 53.0733 29.8958 52.9074 30.0595 52.7415C30.1092 52.6902 30.1589 52.6389 30.2102 52.5861C30.8473 51.9406 31.3253 51.7972 32.219 51.9062Z" fill="#703391"/>
<path d="M32.219 38.7812C32.6524 38.9864 32.8483 39.2031 33.0628 39.6249C33.11 39.8904 33.11 39.8904 33.1155 40.1698C33.1215 40.3071 33.1215 40.3071 33.1276 40.4471C32.9635 41.2139 32.2191 41.8087 31.6825 42.3426C31.5668 42.4586 31.5668 42.4586 31.4487 42.5769C31.2865 42.7392 31.1241 42.9013 30.9615 43.0631C30.7129 43.3107 30.4654 43.5593 30.2179 43.808C30.0597 43.966 29.9014 44.1241 29.7431 44.282C29.6693 44.3561 29.5956 44.4303 29.5196 44.5066C29.4501 44.5755 29.3807 44.6444 29.3091 44.7154C29.2485 44.7758 29.188 44.8362 29.1256 44.8984C28.7424 45.233 28.4345 45.3864 27.9241 45.3964C27.7869 45.4024 27.7869 45.4024 27.6469 45.4085C26.8595 45.24 26.2667 44.4827 25.721 43.9316C25.6462 43.8575 25.5715 43.7835 25.4945 43.7072C25.4226 43.6352 25.3508 43.5631 25.2768 43.4888C25.1801 43.3918 25.1801 43.3918 25.0815 43.2929C24.6423 42.7928 24.5747 42.4219 24.5923 41.7702C24.637 41.4042 24.7474 41.2039 25.0003 40.9374C25.5103 40.5759 25.9867 40.5584 26.594 40.6562C26.89 40.8017 27.1102 40.988 27.344 41.2187C27.3935 41.2654 27.4429 41.3122 27.4938 41.3604C27.603 41.4665 27.7084 41.5765 27.8128 41.6874C28.2013 41.5352 28.4566 41.2517 28.7411 40.9583C28.7936 40.9051 28.846 40.8519 28.9001 40.7972C29.1238 40.5704 29.3464 40.3425 29.5691 40.1147C29.7322 39.9483 29.8958 39.7824 30.0595 39.6165C30.1092 39.5652 30.1589 39.5139 30.2102 39.4611C30.8473 38.8156 31.3253 38.6722 32.219 38.7812Z" fill="#703391"/>
<path d="M37.4868 53.7443C37.5628 53.7437 37.6388 53.743 37.717 53.7424C37.9675 53.7407 38.2179 53.741 38.4683 53.7416C38.6428 53.7411 38.8174 53.7406 38.9919 53.7401C39.3575 53.7392 39.7231 53.7395 40.0887 53.7404C40.5566 53.7415 41.0245 53.7396 41.4924 53.7368C41.8528 53.7351 42.2132 53.7351 42.5736 53.7357C42.7461 53.7357 42.9186 53.7351 43.0911 53.734C43.3325 53.7326 43.5739 53.7336 43.8153 53.7352C43.8862 53.7343 43.9571 53.7334 44.0301 53.7324C44.5125 53.7391 44.7852 53.8538 45.1571 54.1572C45.5374 54.6468 45.5109 55.156 45.4384 55.751C45.2344 56.1816 45.0205 56.3908 44.5946 56.5947C44.3318 56.6219 44.09 56.6341 43.8274 56.6326C43.7515 56.6332 43.6755 56.6339 43.5972 56.6345C43.3468 56.6362 43.0964 56.6359 42.846 56.6354C42.6714 56.6358 42.4969 56.6363 42.3224 56.6368C41.9568 56.6377 41.5912 56.6375 41.2256 56.6365C40.7577 56.6354 40.2898 56.6373 39.8219 56.6401C39.4615 56.6418 39.1011 56.6418 38.7407 56.6412C38.5682 56.6412 38.3957 56.6418 38.2232 56.6429C37.9817 56.6443 37.7404 56.6433 37.499 56.6417C37.4281 56.6426 37.3572 56.6436 37.2842 56.6445C36.8018 56.6378 36.5291 56.5231 36.1571 56.2197C35.7769 55.7301 35.8033 55.2209 35.8759 54.626C36.2238 53.8914 36.715 53.7397 37.4868 53.7443Z" fill="#703391"/>
<path d="M37.4868 40.6193C37.5628 40.6187 37.6388 40.618 37.717 40.6174C37.9675 40.6157 38.2179 40.616 38.4683 40.6166C38.6428 40.6161 38.8174 40.6156 38.9919 40.6151C39.3575 40.6142 39.7231 40.6145 40.0887 40.6154C40.5566 40.6165 41.0245 40.6146 41.4924 40.6118C41.8528 40.6101 42.2132 40.6101 42.5736 40.6107C42.7461 40.6107 42.9186 40.6101 43.0911 40.609C43.3325 40.6076 43.5739 40.6086 43.8153 40.6102C43.8862 40.6093 43.9571 40.6084 44.0301 40.6074C44.5125 40.6141 44.7852 40.7288 45.1571 41.0322C45.5374 41.5218 45.5109 42.031 45.4384 42.626C45.2344 43.0566 45.0205 43.2658 44.5946 43.4697C44.3318 43.4969 44.09 43.5091 43.8274 43.5076C43.7515 43.5082 43.6755 43.5089 43.5972 43.5095C43.3468 43.5112 43.0964 43.5109 42.846 43.5104C42.6714 43.5108 42.4969 43.5113 42.3224 43.5118C41.9568 43.5127 41.5912 43.5125 41.2256 43.5115C40.7577 43.5104 40.2898 43.5123 39.8219 43.5151C39.4615 43.5168 39.1011 43.5168 38.7407 43.5162C38.5682 43.5162 38.3957 43.5168 38.2232 43.5179C37.9817 43.5193 37.7404 43.5183 37.499 43.5167C37.4281 43.5176 37.3572 43.5186 37.2842 43.5195C36.8018 43.5128 36.5291 43.3981 36.1571 43.0947C35.7769 42.6051 35.8033 42.0959 35.8759 41.501C36.2238 40.7664 36.715 40.6147 37.4868 40.6193Z" fill="#703391"/>
<path d="M37.8438 24.6241C38.2766 24.8291 38.4746 25.0456 38.6876 25.4679C38.7653 25.988 38.7555 26.4496 38.5294 26.9269C38.2386 27.2334 37.9954 27.414 37.5717 27.4773C36.9953 27.478 36.5957 27.4785 36.1563 27.0616C35.7917 26.5515 35.801 26.0755 35.8751 25.4679C36.2839 24.6048 36.9674 24.5172 37.8438 24.6241Z" fill="#703391"/>
<path d="M32.2188 24.6241C32.6516 24.8291 32.8496 25.0456 33.0626 25.4679C33.1403 25.988 33.1305 26.4496 32.9044 26.9269C32.6136 27.2334 32.3704 27.414 31.9467 27.4773C31.3703 27.478 30.9707 27.4785 30.5313 27.0616C30.1667 26.5515 30.176 26.0755 30.2501 25.4679C30.6589 24.6048 31.3424 24.5172 32.2188 24.6241Z" fill="#703391"/>
<path d="M26.5938 24.6241C27.0266 24.8291 27.2246 25.0456 27.4376 25.4679C27.5153 25.988 27.5055 26.4496 27.2794 26.9269C26.9886 27.2334 26.7454 27.414 26.3217 27.4773C25.7453 27.478 25.3457 27.4785 24.9063 27.0616C24.5417 26.5515 24.551 26.0755 24.6251 25.4679C25.0339 24.6048 25.7174 24.5172 26.5938 24.6241Z" fill="#703391"/>
</g>
<defs>
<clipPath id="clip0_3288_17866">
<rect width="48" height="48" fill="white" transform="translate(19 19)"/>
</clipPath>
</defs>
</svg>
