<svg width="86" height="86" viewBox="0 0 86 86" fill="none" xmlns="http://www.w3.org/2000/svg">
<circle cx="43" cy="43" r="43" fill="#703391" fill-opacity="0.1"/>
<path fill-rule="evenodd" clip-rule="evenodd" d="M34.959 23.497C34.7961 23.1407 34.959 22.7258 35.3267 22.5679C40.2002 20.4774 45.7997 20.4774 50.6734 22.5679C51.3879 22.8746 51.1551 23.9164 50.3755 23.9164C50.2754 23.9164 50.1777 23.8961 50.0846 23.8555C45.5835 21.9251 40.4189 21.9251 35.9182 23.8555C35.5481 24.0134 35.122 23.8533 34.959 23.497ZM61.863 41.3579C61.3021 46.4793 58.507 51.1699 54.1992 54.2256C53.878 54.4556 53.4172 54.388 53.1775 54.0723C52.9448 53.7588 53.0146 53.3168 53.3358 53.0868C57.3179 50.2634 59.8968 45.9333 60.4157 41.2069C60.4622 40.819 60.8183 40.5394 61.221 40.5822C61.619 40.6251 61.9095 40.9722 61.863 41.3579ZM32.8225 54.0744C32.5781 54.3901 32.1289 54.4555 31.8008 54.2277C27.4928 51.1697 24.6976 46.4813 24.137 41.36C24.0951 40.9721 24.3814 40.6248 24.7793 40.5842C25.182 40.5413 25.538 40.8232 25.5846 41.2088C26.1036 45.9356 28.6846 50.2657 32.6645 53.0888C32.9857 53.3188 33.0552 53.7609 32.8225 54.0744ZM63.567 35.1628V34.4749C63.567 32.6866 62.5104 31.1328 60.9743 30.3638C61.5049 29.8339 61.8331 29.11 61.8331 28.3162C61.8331 26.6925 60.474 25.3732 58.7982 25.3732C57.1225 25.3732 55.7563 26.6925 55.7563 28.3162C55.7563 29.11 56.0822 29.8339 56.6151 30.3638C55.0791 31.1328 54.0224 32.6866 54.0224 34.4749V35.1628C52.8029 33.9766 52.0442 32.3416 52.0442 30.5375C52.0442 26.9293 55.0744 23.9954 58.7982 23.9954C62.5173 23.9954 65.5451 26.9293 65.5451 30.5375C65.5474 32.3416 64.7935 33.9766 63.567 35.1628ZM57.211 28.3164C57.211 29.1621 57.9231 29.8499 58.7983 29.8499C59.6687 29.8499 60.3808 29.1621 60.3808 28.3164C60.3808 27.4708 59.6687 26.783 58.7983 26.783C57.9231 26.7807 57.211 27.4685 57.211 28.3164ZM55.4771 36.2343C57.5368 37.3618 60.0527 37.3641 62.1149 36.2343V34.4752C62.1149 32.7027 60.6254 31.2617 58.7984 31.2617C56.9645 31.2617 55.4773 32.705 55.4773 34.4752L55.4771 36.2343ZM58.7982 22.586C54.2692 22.586 50.5922 26.1536 50.5922 30.5373C50.5922 34.921 54.2695 38.4887 58.7982 38.4887C63.3226 38.4887 67 34.921 67 30.5373C67 26.1536 63.3228 22.586 58.7982 22.586ZM31.9752 35.1628V34.4749C31.9752 32.6866 30.9186 31.1328 29.3826 30.3638C29.9132 29.8339 30.2413 29.11 30.2413 28.3162C30.2413 26.6925 28.8822 25.3732 27.1995 25.3732C25.5308 25.3732 24.1646 26.6925 24.1646 28.3162C24.1646 29.11 24.4904 29.8339 25.0234 30.3638C23.4873 31.1328 22.4307 32.6866 22.4307 34.4749V35.1628C21.2111 33.9766 20.4524 32.3416 20.4524 30.5375C20.4524 26.9293 23.4826 23.9954 27.1993 23.9954C30.9231 23.9954 33.9533 26.9293 33.9533 30.5375C33.9556 32.3416 33.1971 33.9766 31.9752 35.1628ZM25.6192 28.3164C25.6192 29.1621 26.3314 29.8499 27.2018 29.8499C28.0769 29.8499 28.7891 29.1621 28.7891 28.3164C28.7891 27.4708 28.0769 26.783 27.2018 26.783C26.3314 26.7807 25.6192 27.4685 25.6192 28.3164ZM23.8853 36.2343C25.9473 37.3641 28.4632 37.3618 30.5232 36.2343V34.4752C30.5232 32.7027 29.0336 31.2617 27.202 31.2617C25.3751 31.2617 23.8856 32.705 23.8856 34.4752L23.8853 36.2343ZM27.2018 22.586C22.6774 22.586 19 26.1536 19 30.5373C19 34.921 22.6772 38.4887 27.2018 38.4887C31.7308 38.4887 35.4078 34.921 35.4078 30.5373C35.4078 26.1536 31.7305 22.586 27.2018 22.586ZM47.7706 61.6718V60.984C47.7706 59.1956 46.714 57.6419 45.178 56.8729C45.7086 56.3429 46.0367 55.6213 46.0367 54.8275C46.0367 53.2038 44.6776 51.8822 43.0018 51.8822C41.3215 51.8822 39.96 53.2038 39.96 54.8275C39.96 55.6213 40.2858 56.3429 40.8188 56.8729C39.2827 57.6419 38.2261 59.1956 38.2261 60.984V61.6718C37.0065 60.4878 36.2478 58.8506 36.2478 57.0488C36.2478 53.4406 39.278 50.5067 43.0018 50.5067C46.721 50.5067 49.7487 53.4406 49.7487 57.0488C49.751 58.8506 48.9925 60.4878 47.7706 61.6718ZM41.4146 54.8254C41.4146 55.6711 42.1268 56.3589 43.0019 56.3589C43.8723 56.3589 44.5845 55.6711 44.5845 54.8254C44.5845 53.9798 43.8723 53.2897 43.0019 53.2897C42.1268 53.2897 41.4146 53.9797 41.4146 54.8254ZM39.6807 62.7433C41.7381 63.8731 44.2586 63.8731 46.3186 62.7433V60.9843C46.3186 59.2118 44.8291 57.7707 43.0021 57.7707C41.1682 57.7707 39.681 59.2118 39.681 60.9843L39.6807 62.7433ZM43.0018 49.0973C38.4728 49.0973 34.7959 52.665 34.7959 57.0487C34.7959 61.4324 38.4731 65 43.0018 65C47.5262 65 51.2036 61.4324 51.2036 57.0487C51.2036 52.665 47.5264 49.0973 43.0018 49.0973ZM46.2299 38.3969V38.257C46.2299 37.8669 46.5557 37.5512 46.9607 37.5512C47.3587 37.5512 47.6845 37.8669 47.6845 38.257V38.3969C47.6845 38.7847 47.3587 39.1005 46.9607 39.1005C46.5581 39.1005 46.2299 38.7848 46.2299 38.3969ZM43.4394 38.3969V38.257C43.4394 37.8669 43.7652 37.5512 44.1702 37.5512C44.5728 37.5512 44.901 37.8669 44.901 38.257V38.3969C44.901 38.7847 44.5752 39.1005 44.1702 39.1005C43.7676 39.1005 43.4394 38.7848 43.4394 38.3969ZM40.6559 38.3969V38.257C40.6559 37.8669 40.9817 37.5512 41.3797 37.5512C41.7823 37.5512 42.1105 37.8669 42.1105 38.257V38.3969C42.1105 38.7847 41.7846 39.1005 41.3797 39.1005C40.9817 39.1005 40.6559 38.7848 40.6559 38.3969ZM35.3565 43.7077V38.5434C35.3565 38.2232 35.6242 37.9639 35.9523 37.9639H37.6676V40.9068C37.6676 42.0028 38.5892 42.8959 39.7226 42.8959H45.4549V43.7077C45.4549 44.0279 45.1872 44.2872 44.8544 44.2872H40.8025C40.0601 44.2872 39.4131 44.5736 38.9337 45.1194L37.7723 46.4318V46.1094C37.7723 45.1284 36.9484 44.312 35.9384 44.2895C35.6126 44.2805 35.3565 44.0211 35.3565 43.7077ZM39.1198 35.7425V40.909C39.1198 41.2292 39.3875 41.4885 39.7203 41.4885H48.6222C48.948 41.4885 49.218 41.2292 49.218 40.909V35.7425C49.218 35.4223 48.9503 35.1629 48.6222 35.1629H44.5656C43.8232 35.1629 43.1831 34.8743 42.6967 34.3308L41.5401 33.0183V33.3431C41.5401 34.324 40.7162 35.1427 39.7015 35.1652C39.3826 35.1719 39.1198 35.4313 39.1198 35.7425ZM36.3177 46.1093C36.3177 45.8883 36.1315 45.7034 35.9035 45.6966C34.7933 45.6718 33.895 44.781 33.895 43.7076V38.5434C33.895 37.4474 34.8166 36.5543 35.95 36.5543H37.6653V35.7425C37.6653 34.6713 38.5636 33.7806 39.6668 33.7535C39.8995 33.749 40.0811 33.5641 40.0811 33.3408L40.0834 31.1105C40.0834 30.4633 40.9282 30.1544 41.368 30.6527L43.8071 33.4153C44.005 33.643 44.2563 33.7535 44.5658 33.7535H48.6224C49.7558 33.7535 50.6705 34.6466 50.6705 35.7425V40.909C50.6705 42.005 49.7535 42.898 48.6224 42.898H46.9071V43.7099C46.9071 44.8058 45.9855 45.6989 44.8521 45.6989H40.8002C40.486 45.6989 40.2393 45.8094 40.0345 46.0371L37.5954 48.7997C37.1602 49.2958 36.3177 48.9936 36.3177 48.3419L36.3177 46.1093Z" fill="#703391" stroke="#703391" stroke-width="0.5"/>
</svg>
