<svg width="86" height="86" viewBox="0 0 86 86" fill="none" xmlns="http://www.w3.org/2000/svg">
<circle cx="43" cy="43" r="43" fill="#703391" fill-opacity="0.1"/>
<path d="M47.1609 27.1141C47.101 26.7517 47.0104 26.6034 46.7394 26.358C46.5344 26.308 46.3886 26.2725 46.2452 26.2804C45.8928 26.2997 45.5544 26.5809 44.3844 27.5531C44.2093 27.6989 44.034 27.8444 43.8584 27.9895C43.6019 28.2011 43.6019 28.2011 42.2457 29.3209L42.0565 29.4771C41.9787 29.3706 41.9006 29.2643 41.8224 29.1581C41.7126 29.0127 41.6034 28.867 41.4946 28.7209C41.2626 28.3852 41.0376 28.0609 40.7453 27.7758C40.4596 27.6535 40.3152 27.6594 39.9961 27.6812C39.6909 27.8866 39.5844 28.0093 39.4341 28.3429C39.4586 28.6431 39.5011 28.8618 39.6474 29.1256L39.8029 29.3353L39.9803 29.5783C40.0878 29.7248 40.1949 29.8718 40.2984 30.0212L40.4186 30.1971L40.6634 30.5522C40.7055 30.6143 40.7478 30.6763 40.7903 30.738C40.8242 30.7872 40.8582 30.8363 40.8924 30.8853C41.1737 31.2476 41.4039 31.5248 41.8634 31.6038C42.1451 31.5574 42.3142 31.4861 42.5424 31.3158L42.7121 31.1784C42.9659 30.9732 43.2178 30.7661 43.4684 30.557C43.6457 30.4086 43.8235 30.2607 44.0018 30.1133C44.2588 29.9013 44.5158 29.6893 44.7726 29.4771L45.2936 29.0459C45.6297 28.7674 45.9695 28.4949 46.3121 28.2247C46.7047 27.9193 47.0764 27.6259 47.1609 27.1141Z" fill="#703391"/>
<path fill-rule="evenodd" clip-rule="evenodd" d="M48.7542 22.1095C50.4867 23.617 51.6385 25.7251 51.8177 28.0442C51.9229 30.6894 51.2976 32.987 49.514 34.9828C47.9643 36.6565 45.8677 37.7186 43.5873 37.825C40.9928 37.8977 38.7509 37.165 36.8329 35.3563C35.161 33.729 34.2157 31.562 34.1514 29.2221C34.1245 26.6407 34.9502 24.4233 36.7396 22.5532C40.0305 19.2602 45.2184 19.196 48.7542 22.1095ZM38.2166 23.4279L37.981 23.6428C36.6066 24.9592 35.8032 26.757 35.7369 28.6683C35.7188 30.568 36.3224 32.287 37.561 33.7304L37.734 33.9608C38.7599 35.1934 40.4897 36.0198 42.0565 36.1879C44.0949 36.3416 46.0128 35.8912 47.6065 34.5409C47.8264 34.3403 48.0361 34.1388 48.238 33.9195L48.4062 33.7511C49.7806 32.3104 50.2607 30.4139 50.23 28.4603C50.1717 26.8654 49.4907 25.2665 48.4253 24.0895L48.2123 23.8518C46.908 22.4648 45.1265 21.654 43.2326 21.5871C41.386 21.5692 39.5974 22.1549 38.2166 23.4279Z" fill="#703391"/>
<path fill-rule="evenodd" clip-rule="evenodd" d="M27.0713 35.3372C27.4632 35.5051 27.8236 35.7206 28.1893 35.9398L28.503 36.1226C28.8071 36.3004 29.11 36.4802 29.4127 36.6605C29.4765 36.698 29.5404 36.7355 29.6042 36.7729L29.8704 36.9289C30.1887 37.1158 30.5054 37.3054 30.8215 37.496C31.0138 37.611 31.2073 37.7237 31.4011 37.8361L31.7834 38.0606L31.9585 38.1605C32.3121 38.3701 32.5627 38.5791 32.7844 38.9289C32.7704 39.3307 32.6875 39.6178 32.5034 39.9686C32.9601 39.9731 33.4165 39.9743 33.8732 39.9705C34.2777 39.9673 34.6805 39.9746 35.0849 39.9875C36.635 40.0119 37.7212 39.6577 39.0487 38.8533C39.6407 38.5145 40.4478 38.5463 41.094 38.71C41.4325 38.8439 41.7309 38.9933 42.0335 39.1981C42.2805 39.364 42.4018 39.4455 42.5354 39.4893C42.6643 39.5315 42.8046 39.5386 43.0803 39.5524C43.4045 39.4334 43.701 39.2754 43.9999 39.1028C44.5999 38.7601 45.2422 38.7214 45.9128 38.8837C46.4543 39.0378 46.9863 39.2212 47.5185 39.4046L47.6467 39.4488C47.8279 39.5098 48.0091 39.5706 48.1904 39.6312C48.9513 39.8866 49.7102 40.1475 50.4675 40.4139L50.7756 40.5212C50.9533 40.5834 51.1305 40.6469 51.3071 40.7121C52.0249 40.9646 52.718 41.0245 53.4477 40.7721L53.6855 40.6923L53.8574 40.6303L53.7107 40.3848L53.5238 40.0573L53.3361 39.7349C53.1755 39.3362 53.1648 39.1488 53.2955 38.7399C53.681 38.3138 54.2008 38.0331 54.7086 37.7587C54.8281 37.6942 54.947 37.63 55.0633 37.5643C55.298 37.4307 55.5326 37.2966 55.7672 37.1626L55.9466 37.0604C56.6432 36.6629 57.3335 36.2547 58.0239 35.8463L58.5416 35.54C58.9031 35.3297 59.2508 35.2365 59.6642 35.3372C60.1128 35.6828 60.3696 36.1757 60.6277 36.6711C60.647 36.7082 60.6664 36.7454 60.6859 36.7826C60.71 36.8286 60.7343 36.8746 60.7588 36.9204C60.8763 37.1358 60.9938 37.351 61.1115 37.5662L61.2844 37.8832C61.4858 38.2492 61.694 38.6106 61.9062 38.9703C62.2936 39.6291 62.6745 40.2914 63.0535 40.9552L63.602 41.9162C63.8969 42.4329 64.1923 42.9494 64.4876 43.4658L66.1339 46.3451C66.2412 46.5327 66.3483 46.7204 66.4551 46.9082C66.5408 47.0577 66.6275 47.2066 66.7158 47.3546C66.9875 47.8129 67.045 48.0454 66.9695 48.5698C66.6211 49.02 66.1428 49.2755 65.6533 49.5371C65.6124 49.5589 65.5713 49.5809 65.5303 49.6029C65.5008 49.6188 65.4712 49.6348 65.4417 49.6509C65.2315 49.7675 65.0214 49.8843 64.8114 50.0013L64.4856 50.1824C63.963 50.4764 63.4466 50.7809 62.9305 51.0864L62.3854 51.4091L62.1378 51.5552C61.9965 51.6389 61.8555 51.7232 61.7151 51.8085C61.318 52.0464 61.0669 52.1454 60.6008 52.067C60.1715 51.7472 59.9421 51.2935 59.7051 50.8245L59.6642 50.7438C59.3174 50.8757 59.0005 51.0341 58.6775 51.2175L58.3773 51.3875L58.0662 51.5649L57.7627 51.7368C57.0813 52.1236 56.4048 52.5182 55.7306 52.9177L55.7932 53.1044C56.126 54.0973 56.2719 54.9618 55.8671 55.9696C55.4696 56.7158 54.9167 57.2429 54.1384 57.5491C53.8735 57.6288 53.6418 57.6542 53.3657 57.6495L53.0145 57.6436L53.0105 57.8378C52.9629 58.7754 52.6671 59.5128 51.9715 60.1517C51.3212 60.6676 50.64 60.7626 49.8301 60.8572L49.8536 61.2294C49.8499 62.0068 49.4953 62.5885 48.9795 63.1456C48.2872 63.7974 47.5646 64.0004 46.6348 63.9922C46.5538 63.9849 46.51 63.981 46.4681 63.9697C46.4189 63.9564 46.3724 63.9329 46.2711 63.8818L46.2536 64.1181C46.095 64.8077 45.7188 65.2434 45.1622 65.6563C44.5352 66.0156 43.8841 66.0444 43.1804 65.9612C42.7804 65.8228 42.3874 65.6576 42.1078 65.3284C42.0402 65.2581 42.0049 65.2213 41.9618 65.2047C41.9146 65.1863 41.8582 65.1923 41.7397 65.2047L41.4829 65.2464C40.6455 65.3455 40.0052 65.1665 39.3405 64.638C38.911 64.2142 38.7459 63.7915 38.5912 63.2202L38.3578 63.2335C37.4322 63.2637 36.7595 63.1326 36.0332 62.5349C35.5157 62.0422 35.0601 61.3922 35.0216 60.6542C35.0206 60.4698 35.0259 60.2854 35.0322 60.1011L34.7688 60.1247C33.9926 60.12 33.3088 59.7702 32.7581 59.2371C32.1691 58.5941 31.9146 58.0338 31.9349 57.1481L31.9415 56.982L31.749 56.9779C30.8307 56.9304 30.0905 56.6371 29.4628 55.9423C28.7894 55.0568 28.7561 54.186 28.7571 53.1067L28.5698 52.9999C28.2868 52.8386 28.0039 52.6773 27.721 52.516L27.4263 52.348C26.9327 52.0665 26.4393 51.7844 25.9474 51.4999L25.7718 51.7303C25.5355 52.0179 25.4694 52.0552 25.107 52.1062C24.6594 52.098 24.2944 51.8712 23.9245 51.6414C23.8673 51.6058 23.81 51.5702 23.7523 51.5353L23.4695 51.3691C23.2719 51.2528 23.0746 51.1358 22.8777 51.0182C22.5786 50.84 22.2783 50.664 21.9775 50.4886C21.1762 50.0209 20.3761 49.5504 19.5845 49.0661L19.3068 48.8962C19.2025 48.8233 19.1536 48.7891 19.1166 48.7447C19.0839 48.7056 19.0606 48.6585 19.0167 48.5698C18.9317 47.8512 19.181 47.427 19.5435 46.8212L19.7099 46.5341C19.7699 46.4306 19.8302 46.3272 19.8906 46.2239C19.9466 46.1281 20.0029 46.0324 20.0592 45.9367C20.2794 45.5631 20.4961 45.1874 20.7127 44.8116C20.8201 44.6255 20.9277 44.4396 21.0355 44.2537C21.4603 43.5214 21.8785 42.7854 22.2947 42.0481C22.8128 41.1306 23.3357 40.2161 23.8644 39.3049C24.1568 38.8006 24.4476 38.2954 24.736 37.7888L24.8325 37.6195C24.9867 37.3488 25.1407 37.078 25.2944 36.807C25.8839 35.7714 26.0967 35.3976 26.3965 35.3021C26.5658 35.2481 26.7629 35.2829 27.0713 35.3372ZM26.9776 37.2276C26.4579 37.9942 26.0031 38.8115 25.5505 39.6246C25.4022 39.8911 25.2538 40.1578 25.1037 40.4216C24.777 40.9957 24.449 41.5692 24.121 42.1426L23.7709 42.7551C23.5332 43.1709 23.2954 43.5866 23.0575 44.0023C22.3316 45.2709 21.6086 46.541 20.8899 47.8137C21.1616 48.1114 21.4293 48.3041 21.7803 48.4982L22.084 48.6677L22.4001 48.8416C22.6053 48.9554 22.8104 49.0694 23.0154 49.1835L23.3166 49.3499C23.6677 49.5503 24.0067 49.7672 24.3434 49.991C24.4424 50.0461 24.4908 50.073 24.5422 50.0821C24.5911 50.0907 24.6428 50.0832 24.7436 50.0684C25.0053 49.9465 25.129 49.686 25.2507 49.4296C25.2758 49.3767 25.3008 49.3241 25.3269 49.2728C25.4099 49.116 25.4932 48.9594 25.5768 48.8028L25.7119 48.5484C25.944 48.1194 26.1893 47.6983 26.4348 47.277L26.4801 47.1993C26.5928 47.0051 26.7055 46.8109 26.8181 46.6167L26.991 46.3186C27.3757 45.6533 27.7565 44.9857 28.1373 44.318C28.2216 44.1703 28.3059 44.0225 28.3902 43.8747C28.5736 43.5537 28.7573 43.2328 28.9411 42.912C29.2864 42.3094 29.6309 41.7063 29.9747 41.1029L30.1178 40.8519C30.2403 40.6365 30.3623 40.4208 30.4839 40.2049L30.5894 40.0197C30.6772 39.8728 30.7207 39.8 30.7492 39.7218C30.7771 39.6453 30.7907 39.5634 30.8176 39.4015C30.4798 39.2047 30.142 39.0079 29.8042 38.8112C29.4846 38.625 29.1649 38.439 28.8452 38.253L28.6556 38.1426C28.5439 38.0777 28.4322 38.0127 28.3206 37.9477L28.14 37.8424C28.0752 37.8046 28.0103 37.7669 27.9455 37.7292C27.8239 37.6584 27.7022 37.5877 27.5805 37.5171L27.2816 37.3432C27.1647 37.265 27.122 37.2365 27.0757 37.228C27.0491 37.2231 27.0213 37.2249 26.9776 37.2276ZM58.915 37.2276C58.8118 37.2727 58.7555 37.2973 58.7009 37.3249C58.6356 37.358 58.5724 37.3955 58.4339 37.4779L58.137 37.6468L57.8203 37.8302L57.5006 38.0132C56.716 38.4639 55.9378 38.9245 55.1686 39.4015C55.2864 39.7899 55.429 40.125 55.6322 40.4752L55.8005 40.7673L55.9823 41.0792C56.0243 41.1519 56.0662 41.2245 56.1082 41.2972L56.1718 41.4075C56.3028 41.6346 56.4341 41.8616 56.5656 42.0885C56.8378 42.5588 57.1071 43.0307 57.3764 43.5027L59.0411 46.4148C59.316 46.8956 59.5908 47.3765 59.8652 47.8576L60.3155 48.6469C60.3812 48.7621 60.4469 48.8773 60.5125 48.9926L60.8475 49.5798C60.9473 49.7505 61.0538 49.9172 61.1627 50.0821C61.5541 50.0259 61.8328 49.8917 62.1732 49.6915L62.4875 49.5076L62.6502 49.4111C62.8107 49.3158 62.9718 49.2216 63.1329 49.1273C63.7976 48.7365 64.4508 48.3304 65.0964 47.9082C64.7364 47.161 64.3513 46.437 63.9315 45.7225C63.8153 45.5231 63.6993 45.3237 63.5832 45.1243L63.4032 44.8155C63.1085 44.308 62.8175 43.7983 62.5266 43.2886L62.3503 42.9799C62.1337 42.6006 61.9172 42.2213 61.7007 41.8419L61.6408 41.737C61.291 41.1241 60.9407 40.5115 60.59 39.8992C60.4376 39.6327 60.2855 39.3659 60.1337 39.099C60.0449 38.9432 59.9558 38.7875 59.8668 38.6318L59.6818 38.3087L59.5135 38.012L59.358 37.7412L59.2216 37.5021C59.1678 37.4048 59.1411 37.3566 59.1024 37.3222C59.0641 37.2883 59.0142 37.268 58.915 37.2276ZM38.8136 40.7602C38.6429 40.8559 38.4719 40.9511 38.3007 41.046L38.0744 41.175C37.6119 41.4076 37.2113 41.5042 36.695 41.5003L36.3502 41.4997L35.9812 41.4976C35.9196 41.4979 35.858 41.4984 35.7964 41.4989C35.5986 41.5005 35.4008 41.5027 35.203 41.5048C34.7952 41.5088 34.3876 41.5111 33.9798 41.5069C33.6486 41.5037 33.3179 41.5064 32.9868 41.5131C32.8008 41.5152 32.6149 41.5111 32.429 41.5068C32.0724 41.5164 31.8058 41.5386 31.4732 41.67C31.1351 42.0454 30.9394 42.4398 30.7239 42.8987C30.6136 43.0994 30.4984 43.2966 30.3829 43.4943L30.3691 43.5179C30.2491 43.7308 30.1294 43.9439 30.0098 44.157C29.8784 44.3903 29.7467 44.6235 29.615 44.8567L29.5156 45.0327C28.6131 46.6298 27.6841 48.2117 26.7553 49.7933L26.6966 49.8931C26.9638 50.1845 27.2255 50.3783 27.5692 50.5702L27.8562 50.7319L28.1542 50.8974L28.7399 51.2259L29.0017 51.3716C29.174 51.4705 29.3415 51.578 29.5064 51.6889C29.8874 51.6483 30.1117 51.4035 30.354 51.1391C30.3892 51.1007 30.4251 51.0615 30.4616 51.0229L30.805 50.6684C30.9836 50.4823 31.162 50.2958 31.34 50.1091C32.3575 49.0449 32.7492 48.6352 33.2243 48.4711C33.5217 48.3683 33.8517 48.3618 34.3883 48.3513C35.2434 48.3494 35.9457 48.5596 36.5746 49.1613C37.1563 49.8292 37.2846 50.5375 37.3736 51.4054L37.5932 51.4334C38.4249 51.554 39.2453 51.7643 39.8087 52.4451C40.2128 53.1036 40.4604 53.7568 40.558 54.5245L40.8562 54.5839C41.6184 54.7487 42.13 54.9096 42.7242 55.4424C42.8055 55.5118 42.8513 55.5509 42.9037 55.5657C42.9708 55.5847 43.049 55.5641 43.2273 55.5169L43.5551 55.3752C43.7085 55.3508 43.8628 55.3312 44.0175 55.3161L44.2366 55.2947L44.398 55.2806L44.4225 55.0658C44.5466 54.1531 44.7743 53.3313 45.5274 52.7519C46.1589 52.3428 46.7417 52.193 47.4887 52.1615L47.5132 51.9467C47.6409 51.0082 47.8726 50.2298 48.6364 49.6335L48.7999 49.515C48.9249 49.4206 49.0498 49.3261 49.1745 49.2315L49.0424 49.134C48.0536 48.4038 47.072 47.6655 46.1033 46.9082C45.6166 46.5128 45.3759 46.3173 45.1058 46.1815C44.8416 46.0486 44.5491 45.9728 43.9707 45.8229L43.6191 45.7959C43.2053 45.8353 42.9229 45.9249 42.6185 46.2069C42.3812 46.5351 42.1898 46.8839 41.998 47.2407C41.4546 48.2332 41.2663 48.5774 40.9791 48.7754C40.8267 48.8805 40.6466 48.9445 40.3709 49.0424C39.7839 49.1219 39.1844 49.0399 38.5978 48.9596L38.5007 48.9463C38.4605 48.9409 38.4205 48.9355 38.3805 48.9302L38.1388 48.9013C37.5761 48.8189 37.2467 48.6581 36.8117 48.2863C36.4488 47.79 36.4745 47.2714 36.5307 46.6795C36.6257 46.182 36.7652 45.6953 36.9045 45.209L36.9103 45.1888C36.9756 44.9603 37.0387 44.7313 37.1014 44.502C37.1428 44.3541 37.1842 44.2063 37.2258 44.0584L37.2821 43.8546C37.5699 42.8596 37.9741 42.2157 38.8798 41.6922C39.2024 41.5228 39.5276 41.3617 39.8556 41.2033C39.9695 41.1472 40.0834 41.091 40.1973 41.0348C40.3051 40.9817 40.4129 40.9287 40.5209 40.876C40.6242 40.8254 40.7276 40.7751 40.8311 40.7248C40.8962 40.6933 40.9612 40.6617 41.0263 40.6303C40.7594 40.3487 40.6296 40.2605 40.2339 40.2145C39.7428 40.221 39.3544 40.4465 38.9433 40.6853L38.9391 40.6877C38.8976 40.7118 38.8558 40.7361 38.8136 40.7602ZM44.3043 40.6942L43.9854 40.859L43.6487 41.0379C43.4734 41.1292 43.2979 41.2199 43.1223 41.3107C43.0595 41.3432 42.9967 41.3757 42.934 41.4082C42.878 41.4373 42.822 41.4664 42.7661 41.4955C42.117 41.8326 41.4576 42.1472 40.7967 42.46C40.4024 42.648 40.0109 42.8403 39.6255 43.046L39.4247 43.1529C38.9947 43.4524 38.8785 43.8697 38.7439 44.353L38.7302 44.4022L38.6677 44.6203C38.6245 44.7721 38.5817 44.924 38.5393 45.076C38.4742 45.3085 38.4073 45.5404 38.3402 45.7723L38.2864 45.9626C38.2626 46.047 38.2388 46.1314 38.2151 46.2157L38.1542 46.4255C38.0892 46.6583 38.0571 46.7734 38.0538 46.8893C38.0506 47.0023 38.0749 47.1162 38.1229 47.3411C38.3297 47.3731 38.5365 47.4045 38.7434 47.4356L39.0924 47.4888L39.4341 47.5301L39.7231 47.5892C40.0383 47.521 40.0848 47.4514 40.2457 47.2106L40.277 47.1639C40.3728 47.0036 40.4663 46.8421 40.558 46.6795C40.6513 46.5198 40.745 46.3603 40.839 46.201L40.9781 45.9642C41.4422 45.212 41.8933 44.6307 42.7582 44.3671C43.8199 44.1385 45.0621 44.3206 45.9902 44.8836C46.3053 45.105 46.6072 45.3416 46.9092 45.5807C47.0013 45.6526 47.0935 45.7246 47.1857 45.7964C47.2688 45.8611 47.3518 45.9258 47.4349 45.9905L47.7004 46.1975C48.0785 46.4898 48.4622 46.774 48.8467 47.0575C49.5788 47.5984 50.3021 48.1504 51.0215 48.7083C51.4197 49.0166 51.8197 49.3146 52.236 49.5977C52.5698 49.85 52.8738 50.1143 53.1696 50.4107L53.4046 50.646C53.7452 50.9914 54.0834 51.339 54.4194 51.6889C54.8006 51.5711 55.1291 51.43 55.4719 51.2252L55.7494 51.0606L56.0408 50.8855L56.3406 50.7072C56.4598 50.6362 56.5789 50.5653 56.6979 50.4942C56.7793 50.4456 56.8608 50.3969 56.9422 50.3482C57.2794 50.1466 57.6173 49.9462 57.9554 49.746C58.2442 49.5748 58.5328 49.4032 58.8213 49.2315C58.4892 48.5243 58.1218 47.8484 57.7258 47.1764C57.356 46.549 56.9932 45.9178 56.632 45.2853L56.452 44.9702C55.8969 43.9975 55.3447 43.0232 54.794 42.0481C54.409 42.1023 54.0781 42.1947 53.7169 42.3375C52.3633 42.7883 51.2324 42.3927 49.9539 41.9454L49.8418 41.9063C49.6622 41.8453 49.4825 41.7845 49.3027 41.7238C48.7909 41.5507 48.2801 41.3746 47.7697 41.1974C47.419 41.0759 47.0684 40.9544 46.7174 40.8339C46.536 40.7714 46.3549 40.7078 46.1742 40.643L45.936 40.5601L45.7387 40.4897C45.192 40.3676 44.7954 40.4356 44.3043 40.6942ZM32.8389 50.8361L32.6407 51.0322C32.5029 51.169 32.3654 51.3062 32.2281 51.4436C32.0188 51.6523 31.8072 51.8587 31.5956 52.0652C31.5239 52.1367 31.4522 52.2082 31.3806 52.2798C31.3184 52.342 31.2562 52.4042 31.194 52.4665L31.0028 52.651C30.5909 53.0706 30.3738 53.4513 30.3493 54.0519C30.429 54.468 30.5542 54.7313 30.8527 55.0325C31.2855 55.3029 31.5931 55.4357 32.1157 55.3479C32.7631 55.1308 33.3133 54.5405 33.8096 54.0079C33.93 53.8788 34.0477 53.7525 34.1624 53.6363C34.3128 53.4842 34.4643 53.3335 34.616 53.1828C34.7135 53.0846 34.8109 52.9864 34.9082 52.8881L35.1713 52.6234C35.5905 52.1377 35.8505 51.6962 35.8173 51.0406C35.7375 50.59 35.4839 50.34 35.1551 50.0467C34.1611 49.5546 33.533 50.1478 32.8389 50.8361ZM49.4998 50.9734C49.2161 51.307 49.0933 51.5586 49.0516 51.9961C49.1109 52.7137 49.5742 53.1741 50.06 53.6567L50.0698 53.6664L50.2475 53.8459C50.3708 53.9702 50.4945 54.0941 50.6185 54.2176C50.8076 54.4063 50.9955 54.5962 51.1832 54.7863C51.3037 54.9073 51.4243 55.0283 51.5449 55.1492L51.714 55.3202C52.1296 55.7325 52.4908 56.0772 53.1023 56.0781C53.5488 56.0621 53.8034 55.9726 54.1384 55.6587C54.3923 55.3352 54.5039 55.0721 54.554 54.6604C54.4661 53.9634 54.0652 53.5568 53.5926 53.082L53.4032 52.8894C53.3142 52.7992 53.2251 52.7092 53.1359 52.6194C53.0928 52.576 53.0496 52.5326 53.0064 52.4893C52.9103 52.3926 52.8145 52.2956 52.719 52.1983C52.6836 52.1622 52.6482 52.1261 52.6128 52.09C52.5434 52.0191 52.474 51.9481 52.4046 51.8771C52.2758 51.7469 52.1469 51.6169 52.0179 51.487L51.8384 51.3026C51.1699 50.6384 50.2985 50.2189 49.4998 50.9734ZM35.941 53.9511L35.7494 54.1443C35.6166 54.2786 35.484 54.4132 35.3518 54.5482C35.1494 54.7547 34.9459 54.9599 34.7421 55.1649C34.6128 55.2958 34.4837 55.4268 34.3546 55.5579L34.1705 55.7435L33.9999 55.9184L33.8499 56.071C33.5224 56.4641 33.4924 56.8167 33.5048 57.3157C33.5561 57.7303 33.7358 57.9783 34.0561 58.2343C34.4434 58.4879 34.7531 58.5542 35.2195 58.4943C35.7369 58.2857 36.0746 57.9591 36.4616 57.5687L36.6524 57.3782C36.7228 57.3077 36.7931 57.2371 36.8633 57.1664C36.9253 57.104 36.9871 57.0415 37.0489 56.979C37.2498 56.7762 37.4525 56.5755 37.6555 56.3748C37.7046 56.3254 37.7537 56.276 37.8028 56.2266C37.8826 56.1463 37.9624 56.0659 38.042 55.9855L38.2248 55.8058C38.6161 55.4047 38.8176 55.0701 38.9658 54.5245C38.9283 53.9568 38.7084 53.5938 38.3102 53.2012C37.3502 52.6404 36.6001 53.2764 35.941 53.9511ZM46.195 54.3414C45.9673 54.7164 45.909 55.1351 45.9902 55.5642C46.2728 56.0438 46.623 56.425 47.0102 56.821L47.1985 57.0143C47.3295 57.1483 47.4608 57.2821 47.5924 57.4156C47.6551 57.4794 47.7176 57.5435 47.78 57.6077C47.9166 57.7483 48.0526 57.8896 48.1886 58.0309C48.3166 58.1614 48.4448 58.2917 48.5731 58.4219L48.7502 58.6078C49.1543 59.0115 49.4529 59.1643 50.0175 59.2504C50.451 59.2026 50.7773 59.0485 51.0887 58.7424C51.3516 58.2966 51.4783 57.994 51.3887 57.4612C51.1917 56.8188 50.6058 56.2659 50.085 55.7745C49.9552 55.6519 49.8295 55.5333 49.7148 55.418C49.5487 55.2507 49.3839 55.0821 49.2192 54.9135C49.154 54.8476 49.0888 54.7817 49.0236 54.7159L48.8994 54.5906L48.7521 54.4393C48.3489 54.0374 47.9311 53.7281 47.3482 53.727C46.8383 53.7452 46.5292 53.9576 46.195 54.3414ZM39.1048 57.0909L38.907 57.2904C38.7697 57.4292 38.6328 57.5683 38.4962 57.7077C38.3876 57.8184 38.2788 57.9288 38.1697 58.0389C38.0686 58.1411 37.9674 58.243 37.8661 58.3449C37.7326 58.4802 37.5992 58.6155 37.4658 58.7509L37.2755 58.9428L37.0992 59.1234L36.9442 59.2811C36.6525 59.6297 36.5874 59.9233 36.601 60.3824C36.6532 60.8092 36.8326 61.0729 37.1395 61.3594C37.5383 61.6311 37.933 61.6866 38.4039 61.6134C38.8387 61.4349 39.1549 61.1567 39.4535 60.7963C39.8211 60.3641 40.2153 59.9638 40.6165 59.5635L40.8258 59.3536C41.1921 58.9863 41.2975 58.8806 41.4035 58.7755C41.4251 58.754 41.4468 58.7326 41.4707 58.709L41.5496 58.6311C41.8666 58.3167 42.0436 58.0983 42.066 57.637C42.0437 57.1242 41.9057 56.8178 41.5517 56.4503C41.2643 56.2026 41.0277 56.1415 40.6575 56.1018C40.0031 56.1692 39.6016 56.5812 39.1663 57.0279C39.1459 57.0488 39.1254 57.0698 39.1048 57.0909ZM43.6486 56.9826C43.6281 57.1067 43.6172 57.1728 43.6099 57.2394C43.6016 57.3153 43.598 57.3917 43.5902 57.555L43.569 57.8714L43.5551 58.1162L43.7779 58.2137C44.525 58.5615 45.1059 58.9164 45.4469 59.6964C45.5249 60.0191 45.5244 60.2711 45.5049 60.5991C45.4797 60.9243 45.4673 61.085 45.4865 61.2416C45.5053 61.3943 45.5541 61.5432 45.6506 61.8373C45.8199 61.985 45.9755 62.0846 46.1775 62.1805L46.4058 62.3164C46.8979 62.4254 47.2715 62.3409 47.7053 62.1096C48.0343 61.8316 48.2086 61.6425 48.2676 61.2039C48.2966 60.5748 48.1351 60.2202 47.7235 59.7536C47.5598 59.5809 47.3933 59.4115 47.2253 59.243L47.0406 59.0561C46.983 58.998 46.9254 58.9399 46.8678 58.8818C46.797 58.8105 46.7261 58.7393 46.6552 58.6682C46.4584 58.4706 46.2627 58.2721 46.067 58.0734C45.9419 57.9473 45.8168 57.8213 45.6916 57.6953L45.5148 57.5157L45.3481 57.3493L45.2028 57.2031C44.8972 56.9439 44.6414 56.8624 44.2458 56.8697L44.0255 56.8716C43.9306 56.8738 43.8816 56.8749 43.8358 56.8875C43.7871 56.901 43.7418 56.928 43.6486 56.9826ZM42.4667 59.9988L42.2691 60.1808C41.882 60.552 41.5025 60.9302 41.1258 61.3121L40.8812 61.5578L40.4391 62.0047C40.17 62.2966 40.1458 62.5348 40.1508 62.9329C40.2071 63.2662 40.3906 63.4051 40.6517 63.5983C40.9209 63.7001 41.0582 63.7104 41.3341 63.6317C41.661 63.4672 41.8907 63.2356 42.1429 62.975L42.2977 62.8183C42.4051 62.7093 42.5121 62.6 42.6188 62.4903C42.6582 62.4499 42.6976 62.4095 42.7371 62.3692C42.8617 62.2418 42.9868 62.1149 43.112 61.9881C43.2163 61.882 43.3206 61.7758 43.4248 61.6695L43.5741 61.5176C43.7597 61.3273 43.8514 61.2333 43.9112 61.1218C43.9696 61.0128 43.9975 60.8871 44.0526 60.6387C44.0188 60.2357 43.9278 60.0992 43.6487 59.8175C43.1909 59.5865 42.8308 59.6631 42.4667 59.9988ZM44.4916 62.8421L43.2741 64.0709C43.412 64.2402 43.473 64.3152 43.5516 64.353C43.6138 64.383 43.6871 64.3897 43.8185 64.4017C44.2295 64.3366 44.3999 64.1897 44.679 63.8818C44.7383 63.7127 44.7673 63.6302 44.7784 63.5453C44.789 63.4647 44.7835 63.3818 44.7726 63.2202L44.4916 62.8421Z" fill="#703391"/>
<path d="M47.1609 27.1141C47.101 26.7517 47.0104 26.6034 46.7394 26.358C46.5344 26.308 46.3886 26.2725 46.2452 26.2804C45.8928 26.2997 45.5544 26.5809 44.3844 27.5531C44.2093 27.6989 44.034 27.8444 43.8584 27.9895C43.6019 28.2011 43.6019 28.2011 42.2457 29.3209L42.0565 29.4771C41.9787 29.3706 41.9006 29.2643 41.8224 29.1581C41.7126 29.0127 41.6034 28.867 41.4946 28.7209C41.2626 28.3852 41.0376 28.0609 40.7453 27.7758C40.4596 27.6535 40.3152 27.6594 39.9961 27.6812C39.6909 27.8866 39.5844 28.0093 39.4341 28.3429C39.4586 28.6431 39.5011 28.8618 39.6474 29.1256L39.8029 29.3353L39.9803 29.5783C40.0878 29.7248 40.1949 29.8718 40.2984 30.0212L40.4186 30.1971L40.6634 30.5522C40.7055 30.6143 40.7478 30.6763 40.7903 30.738C40.8242 30.7872 40.8582 30.8363 40.8924 30.8853C41.1737 31.2476 41.4039 31.5248 41.8634 31.6038C42.1451 31.5574 42.3142 31.4861 42.5424 31.3158L42.7121 31.1784C42.9659 30.9732 43.2178 30.7661 43.4684 30.557C43.6457 30.4086 43.8235 30.2607 44.0018 30.1133C44.2588 29.9013 44.5158 29.6893 44.7726 29.4771L45.2936 29.0459C45.6297 28.7674 45.9695 28.4949 46.3121 28.2247C46.7047 27.9193 47.0764 27.6259 47.1609 27.1141Z" stroke="#703391" stroke-width="0.5"/>
<path fill-rule="evenodd" clip-rule="evenodd" d="M48.7542 22.1095C50.4867 23.617 51.6385 25.7251 51.8177 28.0442C51.9229 30.6894 51.2976 32.987 49.514 34.9828C47.9643 36.6565 45.8677 37.7186 43.5873 37.825C40.9928 37.8977 38.7509 37.165 36.8329 35.3563C35.161 33.729 34.2157 31.562 34.1514 29.2221C34.1245 26.6407 34.9502 24.4233 36.7396 22.5532C40.0305 19.2602 45.2184 19.196 48.7542 22.1095ZM38.2166 23.4279L37.981 23.6428C36.6066 24.9592 35.8032 26.757 35.7369 28.6683C35.7188 30.568 36.3224 32.287 37.561 33.7304L37.734 33.9608C38.7599 35.1934 40.4897 36.0198 42.0565 36.1879C44.0949 36.3416 46.0128 35.8912 47.6065 34.5409C47.8264 34.3403 48.0361 34.1388 48.238 33.9195L48.4062 33.7511C49.7806 32.3104 50.2607 30.4139 50.23 28.4603C50.1717 26.8654 49.4907 25.2665 48.4253 24.0895L48.2123 23.8518C46.908 22.4648 45.1265 21.654 43.2326 21.5871C41.386 21.5692 39.5974 22.1549 38.2166 23.4279Z" stroke="#703391" stroke-width="0.5"/>
<path fill-rule="evenodd" clip-rule="evenodd" d="M27.0713 35.3372C27.4632 35.5051 27.8236 35.7206 28.1893 35.9398L28.503 36.1226C28.8071 36.3004 29.11 36.4802 29.4127 36.6605C29.4765 36.698 29.5404 36.7355 29.6042 36.7729L29.8704 36.9289C30.1887 37.1158 30.5054 37.3054 30.8215 37.496C31.0138 37.611 31.2073 37.7237 31.4011 37.8361L31.7834 38.0606L31.9585 38.1605C32.3121 38.3701 32.5627 38.5791 32.7844 38.9289C32.7704 39.3307 32.6875 39.6178 32.5034 39.9686C32.9601 39.9731 33.4165 39.9743 33.8732 39.9705C34.2777 39.9673 34.6805 39.9746 35.0849 39.9875C36.635 40.0119 37.7212 39.6577 39.0487 38.8533C39.6407 38.5145 40.4478 38.5463 41.094 38.71C41.4325 38.8439 41.7309 38.9933 42.0335 39.1981C42.2805 39.364 42.4018 39.4455 42.5354 39.4893C42.6643 39.5315 42.8046 39.5386 43.0803 39.5524C43.4045 39.4334 43.701 39.2754 43.9999 39.1028C44.5999 38.7601 45.2422 38.7214 45.9128 38.8837C46.4543 39.0378 46.9863 39.2212 47.5185 39.4046L47.6467 39.4488C47.8279 39.5098 48.0091 39.5706 48.1904 39.6312C48.9513 39.8866 49.7102 40.1475 50.4675 40.4139L50.7756 40.5212C50.9533 40.5834 51.1305 40.6469 51.3071 40.7121C52.0249 40.9646 52.718 41.0245 53.4477 40.7721L53.6855 40.6923L53.8574 40.6303L53.7107 40.3848L53.5238 40.0573L53.3361 39.7349C53.1755 39.3362 53.1648 39.1488 53.2955 38.7399C53.681 38.3138 54.2008 38.0331 54.7086 37.7587C54.8281 37.6942 54.947 37.63 55.0633 37.5643C55.298 37.4307 55.5326 37.2966 55.7672 37.1626L55.9466 37.0604C56.6432 36.6629 57.3335 36.2547 58.0239 35.8463L58.5416 35.54C58.9031 35.3297 59.2508 35.2365 59.6642 35.3372C60.1128 35.6828 60.3696 36.1757 60.6277 36.6711C60.647 36.7082 60.6664 36.7454 60.6859 36.7826C60.71 36.8286 60.7343 36.8746 60.7588 36.9204C60.8763 37.1358 60.9938 37.351 61.1115 37.5662L61.2844 37.8832C61.4858 38.2492 61.694 38.6106 61.9062 38.9703C62.2936 39.6291 62.6745 40.2914 63.0535 40.9552L63.602 41.9162C63.8969 42.4329 64.1923 42.9494 64.4876 43.4658L66.1339 46.3451C66.2412 46.5327 66.3483 46.7204 66.4551 46.9082C66.5408 47.0577 66.6275 47.2066 66.7158 47.3546C66.9875 47.8129 67.045 48.0454 66.9695 48.5698C66.6211 49.02 66.1428 49.2755 65.6533 49.5371C65.6124 49.5589 65.5713 49.5809 65.5303 49.6029C65.5008 49.6188 65.4712 49.6348 65.4417 49.6509C65.2315 49.7675 65.0214 49.8843 64.8114 50.0013L64.4856 50.1824C63.963 50.4764 63.4466 50.7809 62.9305 51.0864L62.3854 51.4091L62.1378 51.5552C61.9965 51.6389 61.8555 51.7232 61.7151 51.8085C61.318 52.0464 61.0669 52.1454 60.6008 52.067C60.1715 51.7472 59.9421 51.2935 59.7051 50.8245L59.6642 50.7438C59.3174 50.8757 59.0005 51.0341 58.6775 51.2175L58.3773 51.3875L58.0662 51.5649L57.7627 51.7368C57.0813 52.1236 56.4048 52.5182 55.7306 52.9177L55.7932 53.1044C56.126 54.0973 56.2719 54.9618 55.8671 55.9696C55.4696 56.7158 54.9167 57.2429 54.1384 57.5491C53.8735 57.6288 53.6418 57.6542 53.3657 57.6495L53.0145 57.6436L53.0105 57.8378C52.9629 58.7754 52.6671 59.5128 51.9715 60.1517C51.3212 60.6676 50.64 60.7626 49.8301 60.8572L49.8536 61.2294C49.8499 62.0068 49.4953 62.5885 48.9795 63.1456C48.2872 63.7974 47.5646 64.0004 46.6348 63.9922C46.5538 63.9849 46.51 63.981 46.4681 63.9697C46.4189 63.9564 46.3724 63.9329 46.2711 63.8818L46.2536 64.1181C46.095 64.8077 45.7188 65.2434 45.1622 65.6563C44.5352 66.0156 43.8841 66.0444 43.1804 65.9612C42.7804 65.8228 42.3874 65.6576 42.1078 65.3284C42.0402 65.2581 42.0049 65.2213 41.9618 65.2047C41.9146 65.1863 41.8582 65.1923 41.7397 65.2047L41.4829 65.2464C40.6455 65.3455 40.0052 65.1665 39.3405 64.638C38.911 64.2142 38.7459 63.7915 38.5912 63.2202L38.3578 63.2335C37.4322 63.2637 36.7595 63.1326 36.0332 62.5349C35.5157 62.0422 35.0601 61.3922 35.0216 60.6542C35.0206 60.4698 35.0259 60.2854 35.0322 60.1011L34.7688 60.1247C33.9926 60.12 33.3088 59.7702 32.7581 59.2371C32.1691 58.5941 31.9146 58.0338 31.9349 57.1481L31.9415 56.982L31.749 56.9779C30.8307 56.9304 30.0905 56.6371 29.4628 55.9423C28.7894 55.0568 28.7561 54.186 28.7571 53.1067L28.5698 52.9999C28.2868 52.8386 28.0039 52.6773 27.721 52.516L27.4263 52.348C26.9327 52.0665 26.4393 51.7844 25.9474 51.4999L25.7718 51.7303C25.5355 52.0179 25.4694 52.0552 25.107 52.1062C24.6594 52.098 24.2944 51.8712 23.9245 51.6414C23.8673 51.6058 23.81 51.5702 23.7523 51.5353L23.4695 51.3691C23.2719 51.2528 23.0746 51.1358 22.8777 51.0182C22.5786 50.84 22.2783 50.664 21.9775 50.4886C21.1762 50.0209 20.3761 49.5504 19.5845 49.0661L19.3068 48.8962C19.2025 48.8233 19.1536 48.7891 19.1166 48.7447C19.0839 48.7056 19.0606 48.6585 19.0167 48.5698C18.9317 47.8512 19.181 47.427 19.5435 46.8212L19.7099 46.5341C19.7699 46.4306 19.8302 46.3272 19.8906 46.2239C19.9466 46.1281 20.0029 46.0324 20.0592 45.9367C20.2794 45.5631 20.4961 45.1874 20.7127 44.8116C20.8201 44.6255 20.9277 44.4396 21.0355 44.2537C21.4603 43.5214 21.8785 42.7854 22.2947 42.0481C22.8128 41.1306 23.3357 40.2161 23.8644 39.3049C24.1568 38.8006 24.4476 38.2954 24.736 37.7888L24.8325 37.6195C24.9867 37.3488 25.1407 37.078 25.2944 36.807C25.8839 35.7714 26.0967 35.3976 26.3965 35.3021C26.5658 35.2481 26.7629 35.2829 27.0713 35.3372ZM26.9776 37.2276C26.4579 37.9942 26.0031 38.8115 25.5505 39.6246C25.4022 39.8911 25.2538 40.1578 25.1037 40.4216C24.777 40.9957 24.449 41.5692 24.121 42.1426L23.7709 42.7551C23.5332 43.1709 23.2954 43.5866 23.0575 44.0023C22.3316 45.2709 21.6086 46.541 20.8899 47.8137C21.1616 48.1114 21.4293 48.3041 21.7803 48.4982L22.084 48.6677L22.4001 48.8416C22.6053 48.9554 22.8104 49.0694 23.0154 49.1835L23.3166 49.3499C23.6677 49.5503 24.0067 49.7672 24.3434 49.991C24.4424 50.0461 24.4908 50.073 24.5422 50.0821C24.5911 50.0907 24.6428 50.0832 24.7436 50.0684C25.0053 49.9465 25.129 49.686 25.2507 49.4296C25.2758 49.3767 25.3008 49.3241 25.3269 49.2728C25.4099 49.116 25.4932 48.9594 25.5768 48.8028L25.7119 48.5484C25.944 48.1194 26.1893 47.6983 26.4348 47.277L26.4801 47.1993C26.5928 47.0051 26.7055 46.8109 26.8181 46.6167L26.991 46.3186C27.3757 45.6533 27.7565 44.9857 28.1373 44.318C28.2216 44.1703 28.3059 44.0225 28.3902 43.8747C28.5736 43.5537 28.7573 43.2328 28.9411 42.912C29.2864 42.3094 29.6309 41.7063 29.9747 41.1029L30.1178 40.8519C30.2403 40.6365 30.3623 40.4208 30.4839 40.2049L30.5894 40.0197C30.6772 39.8728 30.7207 39.8 30.7492 39.7218C30.7771 39.6453 30.7907 39.5634 30.8176 39.4015C30.4798 39.2047 30.142 39.0079 29.8042 38.8112C29.4846 38.625 29.1649 38.439 28.8452 38.253L28.6556 38.1426C28.5439 38.0777 28.4322 38.0127 28.3206 37.9477L28.14 37.8424C28.0752 37.8046 28.0103 37.7669 27.9455 37.7292C27.8239 37.6584 27.7022 37.5877 27.5805 37.5171L27.2816 37.3432C27.1647 37.265 27.122 37.2365 27.0757 37.228C27.0491 37.2231 27.0213 37.2249 26.9776 37.2276ZM58.915 37.2276C58.8118 37.2727 58.7555 37.2973 58.7009 37.3249C58.6356 37.358 58.5724 37.3955 58.4339 37.4779L58.137 37.6468L57.8203 37.8302L57.5006 38.0132C56.716 38.4639 55.9378 38.9245 55.1686 39.4015C55.2864 39.7899 55.429 40.125 55.6322 40.4752L55.8005 40.7673L55.9823 41.0792C56.0243 41.1519 56.0662 41.2245 56.1082 41.2972L56.1718 41.4075C56.3028 41.6346 56.4341 41.8616 56.5656 42.0885C56.8378 42.5588 57.1071 43.0307 57.3764 43.5027L59.0411 46.4148C59.316 46.8956 59.5908 47.3765 59.8652 47.8576L60.3155 48.6469C60.3812 48.7621 60.4469 48.8773 60.5125 48.9926L60.8475 49.5798C60.9473 49.7505 61.0538 49.9172 61.1627 50.0821C61.5541 50.0259 61.8328 49.8917 62.1732 49.6915L62.4875 49.5076L62.6502 49.4111C62.8107 49.3158 62.9718 49.2216 63.1329 49.1273C63.7976 48.7365 64.4508 48.3304 65.0964 47.9082C64.7364 47.161 64.3513 46.437 63.9315 45.7225C63.8153 45.5231 63.6993 45.3237 63.5832 45.1243L63.4032 44.8155C63.1085 44.308 62.8175 43.7983 62.5266 43.2886L62.3503 42.9799C62.1337 42.6006 61.9172 42.2213 61.7007 41.8419L61.6408 41.737C61.291 41.1241 60.9407 40.5115 60.59 39.8992C60.4376 39.6327 60.2855 39.3659 60.1337 39.099C60.0449 38.9432 59.9558 38.7875 59.8668 38.6318L59.6818 38.3087L59.5135 38.012L59.358 37.7412L59.2216 37.5021C59.1678 37.4048 59.1411 37.3566 59.1024 37.3222C59.0641 37.2883 59.0142 37.268 58.915 37.2276ZM38.8136 40.7602C38.6429 40.8559 38.4719 40.9511 38.3007 41.046L38.0744 41.175C37.6119 41.4076 37.2113 41.5042 36.695 41.5003L36.3502 41.4997L35.9812 41.4976C35.9196 41.4979 35.858 41.4984 35.7964 41.4989C35.5986 41.5005 35.4008 41.5027 35.203 41.5048C34.7952 41.5088 34.3876 41.5111 33.9798 41.5069C33.6486 41.5037 33.3179 41.5064 32.9868 41.5131C32.8008 41.5152 32.6149 41.5111 32.429 41.5068C32.0724 41.5164 31.8058 41.5386 31.4732 41.67C31.1351 42.0454 30.9394 42.4398 30.7239 42.8987C30.6136 43.0994 30.4984 43.2966 30.3829 43.4943L30.3691 43.5179C30.2491 43.7308 30.1294 43.9439 30.0098 44.157C29.8784 44.3903 29.7467 44.6235 29.615 44.8567L29.5156 45.0327C28.6131 46.6298 27.6841 48.2117 26.7553 49.7933L26.6966 49.8931C26.9638 50.1845 27.2255 50.3783 27.5692 50.5702L27.8562 50.7319L28.1542 50.8974L28.7399 51.2259L29.0017 51.3716C29.174 51.4705 29.3415 51.578 29.5064 51.6889C29.8874 51.6483 30.1117 51.4035 30.354 51.1391C30.3892 51.1007 30.4251 51.0615 30.4616 51.0229L30.805 50.6684C30.9836 50.4823 31.162 50.2958 31.34 50.1091C32.3575 49.0449 32.7492 48.6352 33.2243 48.4711C33.5217 48.3683 33.8517 48.3618 34.3883 48.3513C35.2434 48.3494 35.9457 48.5596 36.5746 49.1613C37.1563 49.8292 37.2846 50.5375 37.3736 51.4054L37.5932 51.4334C38.4249 51.554 39.2453 51.7643 39.8087 52.4451C40.2128 53.1036 40.4604 53.7568 40.558 54.5245L40.8562 54.5839C41.6184 54.7487 42.13 54.9096 42.7242 55.4424C42.8055 55.5118 42.8513 55.5509 42.9037 55.5657C42.9708 55.5847 43.049 55.5641 43.2273 55.5169L43.5551 55.3752C43.7085 55.3508 43.8628 55.3312 44.0175 55.3161L44.2366 55.2947L44.398 55.2806L44.4225 55.0658C44.5466 54.1531 44.7743 53.3313 45.5274 52.7519C46.1589 52.3428 46.7417 52.193 47.4887 52.1615L47.5132 51.9467C47.6409 51.0082 47.8726 50.2298 48.6364 49.6335L48.7999 49.515C48.9249 49.4206 49.0498 49.3261 49.1745 49.2315L49.0424 49.134C48.0536 48.4038 47.072 47.6655 46.1033 46.9082C45.6166 46.5128 45.3759 46.3173 45.1058 46.1815C44.8416 46.0486 44.5491 45.9728 43.9707 45.8229L43.6191 45.7959C43.2053 45.8353 42.9229 45.9249 42.6185 46.2069C42.3812 46.5351 42.1898 46.8839 41.998 47.2407C41.4546 48.2332 41.2663 48.5774 40.9791 48.7754C40.8267 48.8805 40.6466 48.9445 40.3709 49.0424C39.7839 49.1219 39.1844 49.0399 38.5978 48.9596L38.5007 48.9463C38.4605 48.9409 38.4205 48.9355 38.3805 48.9302L38.1388 48.9013C37.5761 48.8189 37.2467 48.6581 36.8117 48.2863C36.4488 47.79 36.4745 47.2714 36.5307 46.6795C36.6257 46.182 36.7652 45.6953 36.9045 45.209L36.9103 45.1888C36.9756 44.9603 37.0387 44.7313 37.1014 44.502C37.1428 44.3541 37.1842 44.2063 37.2258 44.0584L37.2821 43.8546C37.5699 42.8596 37.9741 42.2157 38.8798 41.6922C39.2024 41.5228 39.5276 41.3617 39.8556 41.2033C39.9695 41.1472 40.0834 41.091 40.1973 41.0348C40.3051 40.9817 40.4129 40.9287 40.5209 40.876C40.6242 40.8254 40.7276 40.7751 40.8311 40.7248C40.8962 40.6933 40.9612 40.6617 41.0263 40.6303C40.7594 40.3487 40.6296 40.2605 40.2339 40.2145C39.7428 40.221 39.3544 40.4465 38.9433 40.6853L38.9391 40.6877C38.8976 40.7118 38.8558 40.7361 38.8136 40.7602ZM44.3043 40.6942L43.9854 40.859L43.6487 41.0379C43.4734 41.1292 43.2979 41.2199 43.1223 41.3107C43.0595 41.3432 42.9967 41.3757 42.934 41.4082C42.878 41.4373 42.822 41.4664 42.7661 41.4955C42.117 41.8326 41.4576 42.1472 40.7967 42.46C40.4024 42.648 40.0109 42.8403 39.6255 43.046L39.4247 43.1529C38.9947 43.4524 38.8785 43.8697 38.7439 44.353L38.7302 44.4022L38.6677 44.6203C38.6245 44.7721 38.5817 44.924 38.5393 45.076C38.4742 45.3085 38.4073 45.5404 38.3402 45.7723L38.2864 45.9626C38.2626 46.047 38.2388 46.1314 38.2151 46.2157L38.1542 46.4255C38.0892 46.6583 38.0571 46.7734 38.0538 46.8893C38.0506 47.0023 38.0749 47.1162 38.1229 47.3411C38.3297 47.3731 38.5365 47.4045 38.7434 47.4356L39.0924 47.4888L39.4341 47.5301L39.7231 47.5892C40.0383 47.521 40.0848 47.4514 40.2457 47.2106L40.277 47.1639C40.3728 47.0036 40.4663 46.8421 40.558 46.6795C40.6513 46.5198 40.745 46.3603 40.839 46.201L40.9781 45.9642C41.4422 45.212 41.8933 44.6307 42.7582 44.3671C43.8199 44.1385 45.0621 44.3206 45.9902 44.8836C46.3053 45.105 46.6072 45.3416 46.9092 45.5807C47.0013 45.6526 47.0935 45.7246 47.1857 45.7964C47.2688 45.8611 47.3518 45.9258 47.4349 45.9905L47.7004 46.1975C48.0785 46.4898 48.4622 46.774 48.8467 47.0575C49.5788 47.5984 50.3021 48.1504 51.0215 48.7083C51.4197 49.0166 51.8197 49.3146 52.236 49.5977C52.5698 49.85 52.8738 50.1143 53.1696 50.4107L53.4046 50.646C53.7452 50.9914 54.0834 51.339 54.4194 51.6889C54.8006 51.5711 55.1291 51.43 55.4719 51.2252L55.7494 51.0606L56.0408 50.8855L56.3406 50.7072C56.4598 50.6362 56.5789 50.5653 56.6979 50.4942C56.7793 50.4456 56.8608 50.3969 56.9422 50.3482C57.2794 50.1466 57.6173 49.9462 57.9554 49.746C58.2442 49.5748 58.5328 49.4032 58.8213 49.2315C58.4892 48.5243 58.1218 47.8484 57.7258 47.1764C57.356 46.549 56.9932 45.9178 56.632 45.2853L56.452 44.9702C55.8969 43.9975 55.3447 43.0232 54.794 42.0481C54.409 42.1023 54.0781 42.1947 53.7169 42.3375C52.3633 42.7883 51.2324 42.3927 49.9539 41.9454L49.8418 41.9063C49.6622 41.8453 49.4825 41.7845 49.3027 41.7238C48.7909 41.5507 48.2801 41.3746 47.7697 41.1974C47.419 41.0759 47.0684 40.9544 46.7174 40.8339C46.536 40.7714 46.3549 40.7078 46.1742 40.643L45.936 40.5601L45.7387 40.4897C45.192 40.3676 44.7954 40.4356 44.3043 40.6942ZM32.8389 50.8361L32.6407 51.0322C32.5029 51.169 32.3654 51.3062 32.2281 51.4436C32.0188 51.6523 31.8072 51.8587 31.5956 52.0652C31.5239 52.1367 31.4522 52.2082 31.3806 52.2798C31.3184 52.342 31.2562 52.4042 31.194 52.4665L31.0028 52.651C30.5909 53.0706 30.3738 53.4513 30.3493 54.0519C30.429 54.468 30.5542 54.7313 30.8527 55.0325C31.2855 55.3029 31.5931 55.4357 32.1157 55.3479C32.7631 55.1308 33.3133 54.5405 33.8096 54.0079C33.93 53.8788 34.0477 53.7525 34.1624 53.6363C34.3128 53.4842 34.4643 53.3335 34.616 53.1828C34.7135 53.0846 34.8109 52.9864 34.9082 52.8881L35.1713 52.6234C35.5905 52.1377 35.8505 51.6962 35.8173 51.0406C35.7375 50.59 35.4839 50.34 35.1551 50.0467C34.1611 49.5546 33.533 50.1478 32.8389 50.8361ZM49.4998 50.9734C49.2161 51.307 49.0933 51.5586 49.0516 51.9961C49.1109 52.7137 49.5742 53.1741 50.06 53.6567L50.0698 53.6664L50.2475 53.8459C50.3708 53.9702 50.4945 54.0941 50.6185 54.2176C50.8076 54.4063 50.9955 54.5962 51.1832 54.7863C51.3037 54.9073 51.4243 55.0283 51.5449 55.1492L51.714 55.3202C52.1296 55.7325 52.4908 56.0772 53.1023 56.0781C53.5488 56.0621 53.8034 55.9726 54.1384 55.6587C54.3923 55.3352 54.5039 55.0721 54.554 54.6604C54.4661 53.9634 54.0652 53.5568 53.5926 53.082L53.4032 52.8894C53.3142 52.7992 53.2251 52.7092 53.1359 52.6194C53.0928 52.576 53.0496 52.5326 53.0064 52.4893C52.9103 52.3926 52.8145 52.2956 52.719 52.1983C52.6836 52.1622 52.6482 52.1261 52.6128 52.09C52.5434 52.0191 52.474 51.9481 52.4046 51.8771C52.2758 51.7469 52.1469 51.6169 52.0179 51.487L51.8384 51.3026C51.1699 50.6384 50.2985 50.2189 49.4998 50.9734ZM35.941 53.9511L35.7494 54.1443C35.6166 54.2786 35.484 54.4132 35.3518 54.5482C35.1494 54.7547 34.9459 54.9599 34.7421 55.1649C34.6128 55.2958 34.4837 55.4268 34.3546 55.5579L34.1705 55.7435L33.9999 55.9184L33.8499 56.071C33.5224 56.4641 33.4924 56.8167 33.5048 57.3157C33.5561 57.7303 33.7358 57.9783 34.0561 58.2343C34.4434 58.4879 34.7531 58.5542 35.2195 58.4943C35.7369 58.2857 36.0746 57.9591 36.4616 57.5687L36.6524 57.3782C36.7228 57.3077 36.7931 57.2371 36.8633 57.1664C36.9253 57.104 36.9871 57.0415 37.0489 56.979C37.2498 56.7762 37.4525 56.5755 37.6555 56.3748C37.7046 56.3254 37.7537 56.276 37.8028 56.2266C37.8826 56.1463 37.9624 56.0659 38.042 55.9855L38.2248 55.8058C38.6161 55.4047 38.8176 55.0701 38.9658 54.5245C38.9283 53.9568 38.7084 53.5938 38.3102 53.2012C37.3502 52.6404 36.6001 53.2764 35.941 53.9511ZM46.195 54.3414C45.9673 54.7164 45.909 55.1351 45.9902 55.5642C46.2728 56.0438 46.623 56.425 47.0102 56.821L47.1985 57.0143C47.3295 57.1483 47.4608 57.2821 47.5924 57.4156C47.6551 57.4794 47.7176 57.5435 47.78 57.6077C47.9166 57.7483 48.0526 57.8896 48.1886 58.0309C48.3166 58.1614 48.4448 58.2917 48.5731 58.4219L48.7502 58.6078C49.1543 59.0115 49.4529 59.1643 50.0175 59.2504C50.451 59.2026 50.7773 59.0485 51.0887 58.7424C51.3516 58.2966 51.4783 57.994 51.3887 57.4612C51.1917 56.8188 50.6058 56.2659 50.085 55.7745C49.9552 55.6519 49.8295 55.5333 49.7148 55.418C49.5487 55.2507 49.3839 55.0821 49.2192 54.9135C49.154 54.8476 49.0888 54.7817 49.0236 54.7159L48.8994 54.5906L48.7521 54.4393C48.3489 54.0374 47.9311 53.7281 47.3482 53.727C46.8383 53.7452 46.5292 53.9576 46.195 54.3414ZM39.1048 57.0909L38.907 57.2904C38.7697 57.4292 38.6328 57.5683 38.4962 57.7077C38.3876 57.8184 38.2788 57.9288 38.1697 58.0389C38.0686 58.1411 37.9674 58.243 37.8661 58.3449C37.7326 58.4802 37.5992 58.6155 37.4658 58.7509L37.2755 58.9428L37.0992 59.1234L36.9442 59.2811C36.6525 59.6297 36.5874 59.9233 36.601 60.3824C36.6532 60.8092 36.8326 61.0729 37.1395 61.3594C37.5383 61.6311 37.933 61.6866 38.4039 61.6134C38.8387 61.4349 39.1549 61.1567 39.4535 60.7963C39.8211 60.3641 40.2153 59.9638 40.6165 59.5635L40.8258 59.3536C41.1921 58.9863 41.2975 58.8806 41.4035 58.7755C41.4251 58.754 41.4468 58.7326 41.4707 58.709L41.5496 58.6311C41.8666 58.3167 42.0436 58.0983 42.066 57.637C42.0437 57.1242 41.9057 56.8178 41.5517 56.4503C41.2643 56.2026 41.0277 56.1415 40.6575 56.1018C40.0031 56.1692 39.6016 56.5812 39.1663 57.0279C39.1459 57.0488 39.1254 57.0698 39.1048 57.0909ZM43.6486 56.9826C43.6281 57.1067 43.6172 57.1728 43.6099 57.2394C43.6016 57.3153 43.598 57.3917 43.5902 57.555L43.569 57.8714L43.5551 58.1162L43.7779 58.2137C44.525 58.5615 45.1059 58.9164 45.4469 59.6964C45.5249 60.0191 45.5244 60.2711 45.5049 60.5991C45.4797 60.9243 45.4673 61.085 45.4865 61.2416C45.5053 61.3943 45.5541 61.5432 45.6506 61.8373C45.8199 61.985 45.9755 62.0846 46.1775 62.1805L46.4058 62.3164C46.8979 62.4254 47.2715 62.3409 47.7053 62.1096C48.0343 61.8316 48.2086 61.6425 48.2676 61.2039C48.2966 60.5748 48.1351 60.2202 47.7235 59.7536C47.5598 59.5809 47.3933 59.4115 47.2253 59.243L47.0406 59.0561C46.983 58.998 46.9254 58.9399 46.8678 58.8818C46.797 58.8105 46.7261 58.7393 46.6552 58.6682C46.4584 58.4706 46.2627 58.2721 46.067 58.0734C45.9419 57.9473 45.8168 57.8213 45.6916 57.6953L45.5148 57.5157L45.3481 57.3493L45.2028 57.2031C44.8972 56.9439 44.6414 56.8624 44.2458 56.8697L44.0255 56.8716C43.9306 56.8738 43.8816 56.8749 43.8358 56.8875C43.7871 56.901 43.7418 56.928 43.6486 56.9826ZM42.4667 59.9988L42.2691 60.1808C41.882 60.552 41.5025 60.9302 41.1258 61.3121L40.8812 61.5578L40.4391 62.0047C40.17 62.2966 40.1458 62.5348 40.1508 62.9329C40.2071 63.2662 40.3906 63.4051 40.6517 63.5983C40.9209 63.7001 41.0582 63.7104 41.3341 63.6317C41.661 63.4672 41.8907 63.2356 42.1429 62.975L42.2977 62.8183C42.4051 62.7093 42.5121 62.6 42.6188 62.4903C42.6582 62.4499 42.6976 62.4095 42.7371 62.3692C42.8617 62.2418 42.9868 62.1149 43.112 61.9881C43.2163 61.882 43.3206 61.7758 43.4248 61.6695L43.5741 61.5176C43.7597 61.3273 43.8514 61.2333 43.9112 61.1218C43.9696 61.0128 43.9975 60.8871 44.0526 60.6387C44.0188 60.2357 43.9278 60.0992 43.6487 59.8175C43.1909 59.5865 42.8308 59.6631 42.4667 59.9988ZM44.4916 62.8421L43.2741 64.0709C43.412 64.2402 43.473 64.3152 43.5516 64.353C43.6138 64.383 43.6871 64.3897 43.8185 64.4017C44.2295 64.3366 44.3999 64.1897 44.679 63.8818C44.7383 63.7127 44.7673 63.6302 44.7784 63.5453C44.789 63.4647 44.7835 63.3818 44.7726 63.2202L44.4916 62.8421Z" stroke="#703391" stroke-width="0.5"/>
</svg>
