<svg width="54" height="54" viewBox="0 0 54 54" fill="none" xmlns="http://www.w3.org/2000/svg">
<path d="M1.74756 0.0123843C1.82054 0.011662 1.89351 0.0109396 1.9687 0.0101953C2.20886 0.00827616 2.44894 0.00867595 2.6891 0.00927508C2.85674 0.00879476 3.02438 0.00823628 3.19202 0.00760321C3.543 0.00666389 3.89396 0.00691741 4.24494 0.00796456C4.69384 0.00917362 5.14266 0.0070467 5.59155 0.00397369C5.93766 0.00203897 6.28375 0.00207224 6.62986 0.00267251C6.79532 0.00268861 6.96078 0.00205442 7.12623 0.000747288C7.358 -0.000825819 7.58961 0.000304307 7.82137 0.00210578C8.01882 0.00213202 8.01882 0.00213202 8.22027 0.00215878C8.65573 0.0659528 8.87518 0.195281 9.21188 0.475922C9.52764 1.00218 9.52764 1.00218 9.52764 3.21249C15.9359 3.16039 15.9359 3.16039 22.4737 3.10723C22.7342 2.58623 22.7342 2.58623 23 2.05471C23.6404 1.12101 24.6335 0.382745 25.7378 0.10096C27.2236 -0.11658 28.5687 0.00655228 29.8282 0.877197C30.6769 1.5393 31.0238 2.10393 31.5254 3.10723C35.7976 3.14197 40.0698 3.1767 44.4715 3.21249C44.4715 2.48309 44.4715 1.75369 44.4715 1.00218C44.9772 0.243512 44.9772 0.243512 45.4187 0.0549119C45.7655 0.0141076 45.7655 0.0141076 46.1641 0.0123843C46.2371 0.011662 46.3101 0.0109396 46.3853 0.0101953C46.6254 0.00827616 46.8655 0.00867595 47.1057 0.00927508C47.2733 0.00879476 47.4409 0.00823628 47.6086 0.00760321C47.9596 0.00666389 48.3105 0.00691741 48.6615 0.00796456C49.1104 0.00917362 49.5592 0.0070467 50.0081 0.00397369C50.3542 0.00203897 50.7003 0.00207224 51.0464 0.00267251C51.2119 0.00268861 51.3773 0.00205442 51.5428 0.000747288C51.7745 -0.000825819 52.0062 0.000304307 52.2379 0.00210578C52.4354 0.00213202 52.4354 0.00213202 52.6368 0.00215878C53.1718 0.0805321 53.4874 0.299989 53.8231 0.71878C53.9763 1.0774 53.985 1.35763 53.9867 1.74756C53.9878 1.85702 53.9878 1.85702 53.9889 1.9687C53.9908 2.20886 53.9904 2.44894 53.9898 2.6891C53.9903 2.85674 53.9909 3.02438 53.9915 3.19202C53.9924 3.543 53.9922 3.89396 53.9911 4.24494C53.9899 4.69384 53.9921 5.14266 53.9951 5.59155C53.9971 5.93766 53.997 6.28375 53.9964 6.62986C53.9964 6.79532 53.997 6.96078 53.9983 7.12623C53.9999 7.358 53.9988 7.58961 53.997 7.82137C53.997 8.01882 53.997 8.01882 53.9969 8.22026C53.9186 8.75525 53.6991 9.07084 53.2803 9.40657C52.9217 9.55976 52.6415 9.56848 52.2515 9.57016C52.1786 9.57088 52.1056 9.57161 52.0304 9.57235C51.7902 9.57427 51.5502 9.57387 51.31 9.57327C51.1424 9.57375 50.9747 9.57431 50.8071 9.57494C50.4561 9.57588 50.1051 9.57563 49.7542 9.57458C49.3053 9.57337 48.8564 9.5755 48.4076 9.57857C48.0614 9.58051 47.7154 9.58047 47.3692 9.57987C47.2038 9.57986 47.0383 9.58049 46.8729 9.5818C46.6411 9.58337 46.4095 9.58224 46.1777 9.58044C46.0461 9.58042 45.9145 9.58041 45.7788 9.58039C45.3434 9.51659 45.1239 9.38727 44.7872 9.10662C44.4715 8.58036 44.4715 8.58036 44.4715 6.37006C42.4222 6.40479 40.3729 6.43953 38.2616 6.47531C38.7478 6.82265 39.2341 7.16998 39.7351 7.52784C40.3008 8.02121 40.3008 8.02121 40.5537 8.25721C40.7646 8.45367 40.981 8.6389 41.2021 8.82376C42.7595 10.1908 44.0035 11.9296 44.9977 13.7377C45.0514 13.8353 45.0514 13.8353 45.1061 13.9348C46.3238 16.1838 47.1645 18.6572 47.4152 21.2077C47.4612 22.0224 47.4612 22.0224 47.8486 22.6978C48.1135 22.8287 48.1135 22.8287 48.3983 22.9091C49.3287 23.2075 49.9356 24.1771 50.3656 24.9998C50.8743 26.046 50.879 27.5855 50.5235 28.6836C49.942 29.9974 48.9582 30.9829 47.629 31.5254C47.5376 31.563 47.4461 31.6006 47.3519 31.6393C46.2279 31.9457 44.7543 31.8922 43.7347 31.3149C42.4685 30.5475 41.6036 29.4857 41.2086 28.0521C41.0388 26.4759 41.2656 25.1559 42.2529 23.8851C42.742 23.3179 43.2762 22.9134 43.9452 22.5789C44.0494 22.5789 44.1536 22.5789 44.261 22.5789C43.4566 17.4067 41.3384 12.9563 37.0614 9.76774C35.2841 8.47864 33.3157 7.59839 31.2097 7.00158C31.1706 7.11575 31.1706 7.11575 31.1307 7.23223C30.6789 8.24733 29.7387 8.87012 28.7654 9.32001C27.7356 9.70333 26.2727 9.70915 25.2411 9.32741C24.1913 8.82485 23.1905 8.1389 22.7894 7.00158C20.2514 7.79091 17.9607 8.80739 15.948 10.5802C15.856 10.6606 15.7641 10.7411 15.6693 10.824C14.8701 11.5331 14.134 12.2537 13.4878 13.1062C13.3991 13.2231 13.3991 13.2231 13.3086 13.3424C11.2325 16.1221 10.2672 19.177 9.73814 22.5789C9.8197 22.5934 9.90126 22.6078 9.98529 22.6227C10.8276 22.8083 11.5706 23.5778 12.0537 24.263C12.8148 25.5504 12.9999 26.9332 12.7255 28.3991C12.2973 29.7102 11.3469 30.7176 10.1394 31.3478C10.0076 31.4112 9.87357 31.4701 9.73814 31.5254C9.64669 31.563 9.55525 31.6006 9.46103 31.6393C8.33702 31.9457 6.86338 31.8922 5.8438 31.3149C4.57757 30.5475 3.71269 29.4857 3.31774 28.0521C3.14794 26.4767 3.37342 25.1535 4.36327 23.8847C4.81657 23.3569 5.19961 23.0439 5.85243 22.7989C6.18443 22.6346 6.336 22.5513 6.48641 22.2087C6.55119 21.8731 6.5867 21.5449 6.61346 21.2041C6.64245 20.9557 6.6722 20.7073 6.70268 20.4591C6.7168 20.3364 6.73093 20.2137 6.74549 20.0872C7.37701 15.2372 10.4715 10.4455 14.2969 7.50029C14.7701 7.14893 15.2547 6.81329 15.7375 6.47531C12.6636 6.42321 12.6636 6.42321 9.52764 6.37006C9.52764 7.09946 9.52764 7.82886 9.52764 8.58036C9.02185 9.33904 9.02185 9.33904 8.58036 9.52763C8.23363 9.56844 8.23363 9.56844 7.83499 9.57016C7.76201 9.57088 7.68903 9.57161 7.61385 9.57235C7.37369 9.57427 7.13361 9.57387 6.89345 9.57327C6.72581 9.57375 6.55817 9.57431 6.39053 9.57494C6.03954 9.57588 5.68859 9.57563 5.33761 9.57458C4.8887 9.57337 4.43989 9.5755 3.991 9.57857C3.64489 9.58051 3.2988 9.58047 2.95269 9.57987C2.78723 9.57986 2.62177 9.58049 2.45632 9.5818C2.22455 9.58337 1.99294 9.58224 1.76118 9.58044C1.62954 9.58042 1.49791 9.58041 1.36228 9.58039C0.827298 9.50202 0.511708 9.28256 0.175979 8.86377C0.022782 8.50515 0.01407 8.22492 0.0123843 7.83499C0.011662 7.76201 0.0109396 7.68903 0.0101953 7.61385C0.00827616 7.37369 0.00867596 7.13361 0.00927508 6.89345C0.00879476 6.72581 0.00823628 6.55817 0.00760321 6.39053C0.00666389 6.03954 0.00691741 5.68859 0.00796457 5.3376C0.00917362 4.8887 0.0070466 4.43989 0.00397359 3.991C0.00203887 3.64489 0.00207224 3.2988 0.00267251 2.95269C0.00268861 2.78723 0.00205442 2.62177 0.000747289 2.45632C-0.000825819 2.22455 0.000304307 1.99294 0.00210579 1.76118C0.00212327 1.62954 0.00214076 1.49791 0.00215878 1.36228C0.0805321 0.827298 0.299989 0.511708 0.71878 0.175979C1.0774 0.022782 1.35763 0.01407 1.74756 0.0123843ZM3.21249 3.21249C3.21249 4.25449 3.21249 5.29649 3.21249 6.37006C4.25449 6.37006 5.29649 6.37006 6.37006 6.37006C6.37006 5.32806 6.37006 4.28606 6.37006 3.21249C5.32806 3.21249 4.28606 3.21249 3.21249 3.21249ZM47.629 3.21249C47.629 4.25449 47.629 5.29649 47.629 6.37006C48.671 6.37006 49.713 6.37006 50.7866 6.37006C50.7866 5.32806 50.7866 4.28606 50.7866 3.21249C49.7446 3.21249 48.7026 3.21249 47.629 3.21249ZM25.6444 3.96241C25.4666 4.41694 25.4566 4.83619 25.526 5.31754C25.7537 5.78129 25.9888 6.07522 26.4733 6.26481C27.0041 6.33683 27.4027 6.32522 27.8876 6.08719C28.2412 5.76814 28.4408 5.55526 28.5064 5.07208C28.5344 4.4703 28.4698 4.09634 28.0521 3.6335C27.6482 3.27714 27.2486 3.26375 26.7298 3.28074C26.2391 3.35152 25.9626 3.6018 25.6444 3.96241ZM6.69898 26.1707C6.52112 26.6252 6.51114 27.0445 6.58057 27.5258C6.80823 27.9896 7.04334 28.2835 7.52784 28.4731C8.05865 28.5451 8.4573 28.5335 8.94217 28.2955C9.29572 27.9764 9.49538 27.7635 9.56094 27.2804C9.58891 26.6786 9.52432 26.3046 9.10663 25.8418C8.70276 25.4854 8.30313 25.472 7.78439 25.489C7.29362 25.5598 7.01716 25.8101 6.69898 26.1707ZM44.5899 26.1707C44.412 26.6252 44.402 27.0445 44.4715 27.5258C44.6991 27.9896 44.9342 28.2835 45.4187 28.4731C45.9496 28.5451 46.3482 28.5335 46.8331 28.2955C47.1866 27.9764 47.3863 27.7635 47.4518 27.2804C47.4798 26.6786 47.4152 26.3046 46.9975 25.8418C46.5937 25.4854 46.194 25.472 45.6753 25.489C45.1845 25.5598 44.9081 25.8101 44.5899 26.1707Z" fill="#703391"/>
<path d="M27.8153 12.9023C28.4281 13.43 28.8692 14.0947 29.3057 14.7689C29.3642 14.8582 29.4227 14.9476 29.483 15.0397C29.6092 15.2325 29.7352 15.4255 29.861 15.6186C30.202 16.142 30.5449 16.6642 30.8877 17.1864C30.9583 17.2939 31.0289 17.4014 31.1016 17.5122C31.8124 18.5935 32.5363 19.6657 33.2621 20.737C34.3547 22.3506 35.4332 23.9728 36.5024 25.602C37.2284 26.7079 37.9589 27.8105 38.6998 28.9064C38.7704 29.0107 38.8409 29.1151 38.9136 29.2226C39.2534 29.7248 39.5939 30.2265 39.9351 30.7278C40.0573 30.9078 40.1795 31.0879 40.3017 31.268C40.3848 31.3895 40.3848 31.3895 40.4697 31.5135C40.9939 32.2873 41.3399 32.8855 41.2086 33.8409C40.9644 34.4462 40.5654 34.8062 40.1018 35.2561C39.6111 35.7608 39.1962 36.3216 38.7878 36.8933C38.719 36.9892 38.719 36.9892 38.6489 37.0871C36.8793 39.594 35.2092 43.0187 35.2092 46.1555C35.3613 46.3233 35.3613 46.3233 35.5711 46.4712C36.9196 47.5958 37.8363 49.365 38.0511 51.1023C38.0773 51.4335 38.0907 51.7635 38.0971 52.0957C38.0995 52.1754 38.1018 52.2552 38.1043 52.3373C38.1019 52.8833 37.9978 53.2016 37.6301 53.6284C37.1931 53.9616 36.8093 53.9893 36.2776 53.985C36.195 53.9855 36.1125 53.9861 36.0275 53.9867C35.7513 53.9882 35.4752 53.9874 35.199 53.9867C35.0008 53.9873 34.8027 53.988 34.6045 53.9889C34.0665 53.9908 33.5286 53.9906 32.9905 53.99C32.5414 53.9897 32.0923 53.9904 31.6432 53.991C30.5837 53.9925 29.5243 53.9923 28.4648 53.9911C27.3717 53.9899 26.2786 53.9914 25.1855 53.9942C24.247 53.9965 23.3086 53.9972 22.3701 53.9966C21.8096 53.9963 21.249 53.9965 20.6885 53.9983C20.1614 53.9999 19.6344 53.9995 19.1073 53.9976C18.9139 53.9972 18.7205 53.9975 18.5272 53.9986C18.263 54 17.999 53.9988 17.7349 53.9969C17.6585 53.9979 17.582 53.9989 17.5033 54C16.9726 53.9923 16.6741 53.8536 16.2638 53.5231C15.9043 53.0899 15.8946 52.658 15.902 52.1154C15.9029 52.0316 15.9039 51.9479 15.9049 51.8616C15.9602 49.9356 16.817 48.0576 18.1583 46.6817C18.2735 46.5983 18.3888 46.515 18.5041 46.4318C18.8216 46.1826 18.8216 46.1826 18.8314 45.8245C18.1344 41.4322 16.1019 37.5782 13.0651 34.3586C12.7508 33.9839 12.7325 33.5707 12.7453 33.0992C12.9129 31.9463 14.0674 30.7081 14.7125 29.761C15.0544 29.2589 15.3948 28.7559 15.7351 28.2527C15.8053 28.1488 15.8755 28.045 15.9479 27.938C16.6763 26.8593 17.3916 25.7721 18.1057 24.684C19.2383 22.9592 20.3845 21.2443 21.5414 19.5358C22.2031 18.5583 22.861 17.5785 23.5127 16.5943C23.6143 16.4411 23.6143 16.4411 23.7179 16.2847C24.0435 15.7935 24.3685 15.302 24.6925 14.8097C24.8091 14.6335 24.9258 14.4574 25.0425 14.2812C25.0946 14.2016 25.1466 14.122 25.2002 14.04C25.851 13.0614 26.5958 12.4311 27.8153 12.9023ZM25.3155 19.7371C25.2302 19.8519 25.15 19.9706 25.0718 20.0904C25.0204 20.1687 24.9691 20.247 24.9161 20.3276C24.8596 20.4146 24.8031 20.5015 24.7448 20.591C24.6856 20.6815 24.6263 20.7719 24.5652 20.8651C24.4359 21.0624 24.3068 21.2598 24.1778 21.4573C23.8298 21.9897 23.4806 22.5212 23.1311 23.0526C23.059 23.1622 22.9869 23.2719 22.9126 23.3849C22.189 24.4835 21.4545 25.5746 20.7173 26.664C20.4665 27.0349 20.2156 27.4057 19.9649 27.7766C19.9033 27.8677 19.8416 27.9589 19.7781 28.0528C19.0649 29.1087 18.3581 30.1688 17.6518 31.2294C17.5915 31.3199 17.5312 31.4105 17.469 31.5038C17.1373 32.0021 16.8057 32.5004 16.4743 32.9989C16.6102 33.289 16.7599 33.5325 16.9603 33.7821C19.5175 37.0164 21.076 40.5547 21.9474 44.5767C22.0336 44.5596 22.1198 44.5425 22.2086 44.5249C22.6253 44.4647 23.0324 44.4567 23.4522 44.4578C23.5802 44.4575 23.5802 44.4575 23.7107 44.4573C23.9913 44.4568 24.2719 44.4571 24.5524 44.4575C24.7482 44.4574 24.944 44.4573 25.1399 44.4571C25.5497 44.457 25.9595 44.4572 26.3693 44.4577C26.8938 44.4583 27.4183 44.458 27.9428 44.4573C28.3469 44.457 28.7511 44.4571 29.1552 44.4573C29.3486 44.4574 29.542 44.4573 29.7353 44.4571C30.0059 44.4568 30.2764 44.4572 30.5469 44.4578C30.6263 44.4576 30.7057 44.4574 30.7875 44.4572C31.2199 44.4589 31.6275 44.4926 32.0517 44.5767C32.0701 44.4979 32.0886 44.4191 32.1076 44.3379C32.8435 41.2248 33.8326 38.1456 35.7355 35.525C35.7866 35.4546 35.8377 35.3842 35.8903 35.3116C36.415 34.5937 36.9505 33.8885 37.5248 33.2094C37.3501 32.6818 37.045 32.2586 36.7334 31.8045C36.6742 31.7175 36.6151 31.6304 36.5542 31.5407C36.4258 31.3517 36.2973 31.1629 36.1686 30.9742C35.8202 30.4633 35.4736 29.9513 35.127 29.4392C35.0553 29.3333 34.9835 29.2273 34.9096 29.1181C34.1649 28.0166 33.433 26.9069 32.7029 25.7957C32.4518 25.4137 32.2005 25.0318 31.9493 24.6498C31.8881 24.5568 31.8269 24.4638 31.7639 24.368C31.1551 23.4426 30.5443 22.5185 29.931 21.596C29.8193 21.4278 29.7077 21.2596 29.5963 21.0912C29.4442 20.8616 29.2918 20.6323 29.1391 20.4032C29.0941 20.335 29.0491 20.2668 29.0027 20.1966C28.8991 20.0416 28.7918 19.889 28.6836 19.7371C28.6489 19.7371 28.6141 19.7371 28.5783 19.7371C28.5783 22.7242 28.5783 25.7112 28.5783 28.7888C28.9604 28.9972 29.3425 29.2056 29.7361 29.4203C30.699 30.1425 31.4567 31.1511 31.6307 32.3674C31.7625 33.952 31.5837 35.1374 30.5929 36.4254C29.9227 37.191 28.8534 37.8638 27.8229 37.9692C26.1413 38.0487 24.9336 37.8226 23.6315 36.6828C22.6008 35.5794 22.3038 34.3373 22.3364 32.8698C22.3961 31.6145 22.9546 30.5821 23.8671 29.7254C24.3676 29.3191 24.8256 29.0864 25.4208 28.7888C25.4208 25.8018 25.4208 22.8147 25.4208 19.7371C25.386 19.7371 25.3513 19.7371 25.3155 19.7371ZM25.6444 32.4858C25.4666 32.9403 25.4566 33.3596 25.526 33.8409C25.7537 34.3047 25.9888 34.5986 26.4733 34.7882C27.0041 34.8602 27.4028 34.8486 27.8876 34.6106C28.2412 34.2915 28.4408 34.0787 28.5064 33.5955C28.5344 32.9937 28.4698 32.6197 28.0521 32.1569C27.6482 31.8005 27.2486 31.7872 26.7298 31.8041C26.2391 31.8749 25.9626 32.1252 25.6444 32.4858ZM20.5792 48.892C20.0595 49.4901 19.7353 50.0541 19.4214 50.7866C24.423 50.7866 29.4246 50.7866 34.5777 50.7866C33.8547 49.3406 33.1739 48.3375 31.6109 47.7935C30.6662 47.4988 29.7182 47.507 28.7379 47.5061C28.6019 47.5057 28.4659 47.5054 28.3258 47.505C28.0388 47.5044 27.7518 47.5042 27.4649 47.5043C27.1007 47.5043 26.7365 47.5028 26.3723 47.501C26.0206 47.4995 25.6689 47.4996 25.3172 47.4995C25.1882 47.4987 25.0592 47.498 24.9263 47.4972C23.2702 47.5015 21.855 47.7782 20.5792 48.892Z" fill="#703391"/>
</svg>
