<svg width="57" height="56" viewBox="0 0 57 56" fill="none" xmlns="http://www.w3.org/2000/svg">
<path d="M29.1589 0H27.1289C27.1289 0.690569 27.1451 1.2534 27.2417 1.91724H29.0461L29.1589 0Z" fill="#703391"/>
<path d="M25.5516 1.90716C25.5596 1.29804 25.5674 0.714632 25.4372 0.112873C25.3469 0.111028 25.2399 0.104783 25.1229 0.0979542C24.5849 0.0665433 23.8356 0.0228045 23.52 0.33843C23.5125 0.471192 23.507 0.567977 23.508 0.664693C23.5108 0.924873 23.5608 1.18455 23.7455 2.14277L25.55 2.03011L25.5516 1.90716Z" fill="#703391"/>
<path d="M30.8506 0.11204C31.1068 0.127943 31.3629 0.144517 31.6189 0.161381L32.0511 0.189135C32.2463 0.207538 32.3408 0.21645 32.433 0.236236C32.5195 0.254814 32.604 0.282979 32.7678 0.337592L32.5423 2.14206C32.1545 2.27133 31.8892 2.22866 31.5118 2.16795C31.4735 2.1618 31.4342 2.15547 31.3934 2.14911L30.9586 2.08258L30.6251 2.02928C30.641 1.77314 30.6575 1.51705 30.6744 1.26097L30.7022 0.828802C30.7206 0.633639 30.7295 0.539126 30.7493 0.446947C30.7678 0.360404 30.796 0.275832 30.8506 0.11204Z" fill="#703391"/>
<path d="M36.3769 1.12716L34.4596 0.676049L34.0085 2.59329L35.813 3.0444L35.8132 3.04383L35.8135 3.04296C35.9 2.82692 35.9569 2.6845 36.0068 2.53965C36.1029 2.26014 36.1728 1.97133 36.3769 1.12716Z" fill="#703391"/>
<path d="M18.6212 2.46087C18.5259 2.20433 18.4298 1.94825 18.3322 1.69257C18.2601 1.69257 18.2086 1.69257 18.1579 1.69828C18.0319 1.71244 17.9099 1.7617 17.4855 1.93311L17.2467 2.03091C16.9693 2.14329 16.6921 2.25599 16.415 2.36924C16.415 2.45626 16.415 2.5097 16.4228 2.56198C16.4352 2.64522 16.4675 2.72549 16.5511 2.93358L16.7322 3.33491C16.8289 3.55286 16.8733 3.65298 16.9224 3.75029C16.9639 3.8324 17.0088 3.91275 17.0916 4.06086C17.2644 4.11846 17.349 4.1467 17.4337 4.14711C17.5148 4.1475 17.596 4.1224 17.7551 4.07326L18.1208 3.91995C18.3197 3.83885 18.4109 3.80166 18.4996 3.75916C18.5747 3.72316 18.648 3.68335 18.7833 3.60981C18.8351 3.45461 18.8655 3.36336 18.8692 3.27104C18.8744 3.13932 18.8251 3.00543 18.7056 2.68048L18.6212 2.46087Z" fill="#703391"/>
<path d="M41.2263 3.38296C41.6721 3.44965 42.0008 3.58559 42.3893 3.81293L42.6911 3.9843L42.9179 4.17241C42.9179 4.68043 42.8128 4.83802 42.5452 5.23906L42.5232 5.27201L42.3012 5.60858L42.1285 5.86409C41.7162 5.78655 41.3933 5.60984 41.0289 5.40593L40.6923 5.2187L40.4368 5.07464C40.5909 4.67513 40.7649 4.29351 40.9584 3.91161L41.1108 3.60984L41.2263 3.38296Z" fill="#703391"/>
<path d="M45.4907 5.93508C45.1343 5.64778 44.8168 5.45287 44.3841 5.3007C44.0082 5.8124 43.6755 6.32354 43.3691 6.8796L43.5999 7.073L43.9048 7.32367L43.9366 7.35002C44.2626 7.62057 44.5162 7.83105 44.948 7.89461L45.1414 7.66377L45.3921 7.35891L45.4184 7.32717C45.689 7.00114 45.8995 6.74751 45.963 6.31571L45.7608 6.15095L45.4907 5.93508Z" fill="#703391"/>
<path fill-rule="evenodd" clip-rule="evenodd" d="M33.4445 11.5031C33.1606 10.0125 32.2978 8.93815 31.1114 8.04222C29.0155 6.65121 26.0697 6.85974 24.2319 8.59907C23.016 9.90962 22.5521 11.2233 22.5506 12.9882C22.5528 13.2535 22.5544 13.5184 22.5505 13.7837C22.5421 14.2981 22.5438 14.8097 22.5855 15.3227C22.7844 16.8032 23.5898 17.8774 24.7037 18.8095L24.8734 18.9465L24.7606 19.1721C24.3323 19.4594 24.0496 19.6091 23.539 19.7007C23.0779 19.7369 22.6249 19.7857 22.1667 19.8487C21.1045 20.1234 20.2344 20.7201 19.6432 21.6462C19.5678 21.785 19.5329 21.8492 19.4927 21.9099C19.458 21.9622 19.4193 22.0119 19.3472 22.1043L19.0089 22.1043C18.8817 21.9917 18.82 21.9371 18.7622 21.8788C18.7078 21.824 18.6568 21.7659 18.5578 21.6532C18.8697 21.4012 19.1684 21.139 19.46 20.8637C20.5885 19.6984 20.8917 18.3091 20.8794 16.7429C20.8744 16.4761 20.8697 16.2096 20.8698 15.9428C20.8745 14.3292 20.6736 13.0183 19.6186 11.7357C18.5271 10.5825 17.278 9.92322 15.6853 9.87689C14.0938 9.86621 12.7915 10.1788 11.6007 11.3058C10.2742 12.7355 9.91186 14.1201 9.94635 16.0218C9.9497 16.2063 9.95199 16.3909 9.95328 16.5755C9.95417 16.7583 9.95538 16.941 9.95694 17.1238L9.96029 17.4462C9.9638 17.8128 9.96724 18.1731 10.0395 18.5347L10.0994 18.721C10.4793 19.9036 11.1265 20.7245 12.0725 21.5162L12.2421 21.6532L12.1294 21.8788C11.6364 22.2099 11.2512 22.3788 10.6621 22.4387C9.43799 22.5342 8.44745 22.838 7.5028 23.655C6.66067 24.5376 6.3158 25.6161 6.3022 26.8179L6.30673 27.2111C6.30617 27.4924 6.30596 27.7738 6.30607 28.0552C6.31038 28.4938 6.3142 28.9322 6.31265 29.3708C6.31122 29.6598 6.31086 29.9487 6.31166 30.2377L6.31378 30.6508L6.31208 31.0495L6.31749 31.4193C6.31861 31.5905 6.31914 31.6714 6.3279 31.7514C6.33575 31.8231 6.35021 31.8941 6.37766 32.0288C6.62105 32.3438 6.75417 32.4668 7.15074 32.5367L7.53077 32.5372C7.7548 32.5392 7.97884 32.541 8.20287 32.5398C8.36708 32.5388 8.5313 32.5386 8.69551 32.5392C9.14282 32.5418 9.59007 32.5427 10.0374 32.5414C10.5132 32.5399 10.9889 32.54 11.4647 32.5407C12.2612 32.5419 13.0577 32.5416 13.8542 32.5396C14.7821 32.5371 15.71 32.5363 16.6379 32.5388C17.4403 32.5409 18.2428 32.542 19.0452 32.5412L19.2423 32.5409H19.2439C19.6555 32.5402 20.0671 32.5396 20.4787 32.5406C20.9354 32.542 21.3921 32.5428 21.8488 32.5407C22.017 32.5397 22.1852 32.5389 22.3535 32.5383L22.8321 32.5411L23.2691 32.5372C23.9073 32.5364 23.9324 32.5187 24.4222 32.0288V28.871H31.6401V32.0288C32.0912 32.48 32.0912 32.4799 32.4132 32.5367L32.7932 32.5372C33.0172 32.5392 33.2413 32.541 33.4653 32.5398C33.6295 32.5388 33.7937 32.5386 33.9579 32.5392C34.4052 32.5418 34.8525 32.5427 35.2998 32.5414C35.7756 32.5399 36.2514 32.54 36.7271 32.5407C37.5237 32.5419 38.3201 32.5416 39.1166 32.5396C40.0445 32.5371 40.9724 32.5363 41.9003 32.5388C42.7027 32.5409 43.5052 32.542 44.3076 32.5412L44.5047 32.5409H44.5063C44.9179 32.5402 45.3295 32.5396 45.7411 32.5406C46.1978 32.542 46.6545 32.5428 47.1112 32.5407C47.2794 32.5397 47.4477 32.5389 47.6159 32.5383L48.0946 32.5411L48.5315 32.5372C48.7357 32.537 48.8302 32.5368 48.9239 32.528C49.0045 32.5203 49.0846 32.5062 49.2335 32.48C49.5378 32.2385 49.6665 32.1231 49.7404 31.7394L49.7395 31.4086L49.7416 31.0322L49.7366 30.627C49.7364 30.3438 49.736 30.0605 49.7353 29.7772C49.7311 29.3307 49.727 28.8843 49.7265 28.4378C49.7265 28.1464 49.726 27.855 49.7248 27.5636L49.7225 27.145L49.7218 26.7412L49.7174 26.3626C49.7099 25.4113 49.3218 24.6724 48.7824 23.9088C47.9756 22.9993 46.9265 22.6381 45.7511 22.4858L45.7188 22.4819C44.903 22.3819 44.3604 22.3154 43.8202 21.6532C44.1321 21.4012 44.4308 21.139 44.7224 20.8637C45.8509 19.6984 46.1542 18.3091 46.1418 16.7429C46.1368 16.4761 46.1321 16.2096 46.1322 15.9428C46.1369 14.3292 45.936 13.0183 44.881 11.7357C43.7896 10.5825 42.5404 9.92322 40.9477 9.87689C39.3562 9.86621 38.0539 10.1788 36.8631 11.3058C35.629 12.6359 35.1851 13.9455 35.1983 15.7334C35.2026 16.0057 35.2067 16.2777 35.2072 16.55C35.2072 16.7307 35.2077 16.9115 35.2088 17.0922L35.2111 17.3522C35.2156 18.7993 35.7443 19.9338 36.7222 20.9783L36.9407 21.2021C37.053 21.3177 37.1657 21.4329 37.279 21.5475L37.5046 21.766L36.8279 22.2171C36.6161 21.8679 36.3941 21.5305 36.1512 21.2021C35.3272 20.2999 34.3068 19.932 33.1199 19.7796L33.1097 19.7783C32.3508 19.6843 31.759 19.611 31.189 19.0593L31.4145 18.8337C31.5351 18.7218 31.6548 18.6089 31.774 18.4954C33.0584 17.1976 33.5091 15.8493 33.5007 14.0561C33.4971 13.7868 33.4939 13.5178 33.4948 13.2485C33.498 12.6643 33.4886 12.0858 33.4445 11.5031ZM24.4927 15.0979C24.2752 13.5309 24.2302 11.6965 25.2117 10.3753C26.2639 9.1919 28.0166 8.65775 29.5127 9.34975C30.4773 9.91599 31.158 10.5897 31.5057 11.6749C31.8205 13.1207 31.8432 14.9618 31.1114 16.2751C30.5425 17.1402 29.8382 17.6871 28.8206 17.9315C27.7935 18.0343 26.9607 17.9781 26.0835 17.4346C25.2471 16.8464 24.7117 16.1038 24.4927 15.0979ZM11.8615 17.8046C11.644 16.2375 11.599 14.4031 12.5805 13.082C13.6327 11.8986 15.3854 11.3644 16.8815 12.0564C17.8461 12.6227 18.5268 13.2964 18.8745 14.3816C19.1893 15.8274 19.212 17.6685 18.4802 18.9818C17.9113 19.8468 17.207 20.3938 16.1894 20.6382C15.1623 20.741 14.3295 20.6848 13.4523 20.1413C12.6159 19.5531 12.0805 18.8105 11.8615 17.8046ZM37.1239 17.8046C36.9064 16.2375 36.8614 14.4031 37.8429 13.082C38.8951 11.8986 40.6478 11.3644 42.1439 12.0564C43.1085 12.6227 43.7892 13.2964 44.1369 14.3816C44.4517 15.8274 44.4744 17.6685 43.7426 18.9818C43.1737 19.8468 42.4694 20.3938 41.4518 20.6382C40.4247 20.741 39.5919 20.6848 38.7147 20.1413C37.8783 19.5531 37.3429 18.8105 37.1239 17.8046ZM25.8884 20.8637L26.1139 20.6382C26.5647 19.9496 26.8811 19.7534 27.7155 19.7573L28.0523 19.7712C28.374 19.7706 28.6948 19.7763 29.0163 19.785C29.1497 19.8055 29.2178 19.816 29.2722 19.849C29.329 19.8835 29.3709 19.9424 29.4564 20.0629C29.5207 20.1621 29.5581 20.2197 29.6021 20.2718C29.6631 20.3443 29.7369 20.406 29.9132 20.5536L30.174 20.751C29.8429 21.1201 29.4931 21.2752 29.0356 21.4514C28.2621 21.6614 27.4608 21.6412 26.7364 21.2933L26.4311 21.1386C26.2501 21.0472 26.0691 20.9557 25.8884 20.8637ZM21.2644 22.6682C21.7511 22.122 22.2073 21.7874 22.9381 21.6783C23.1561 21.6558 23.3734 21.6268 23.5905 21.5968C23.988 21.6557 24.0706 21.7032 24.3588 21.9563C25.13 22.683 26.0937 23.2825 27.1723 23.3656C28.6612 23.4209 30.1782 23.3845 31.3462 22.3061L31.3941 22.2554C31.7258 21.9035 31.9452 21.6709 32.4555 21.6091C33.2258 21.6544 33.8574 21.7638 34.441 22.2915C35.4683 24.4716 35.4683 24.4716 35.249 27.0666H20.8133C20.8133 26.7527 20.795 26.4198 20.7761 26.0778C20.7121 24.9172 20.6423 23.6516 21.2644 22.6682ZM13.2572 23.5704L13.4827 23.3449C13.9335 22.6563 14.2499 22.4601 15.0843 22.464L15.4211 22.4779C15.7428 22.4773 16.0635 22.4829 16.3851 22.4917C16.5184 22.5122 16.5866 22.5227 16.641 22.5557C16.6978 22.5901 16.7396 22.6491 16.8252 22.7696C16.8895 22.8688 16.9269 22.9264 16.9708 22.9785C17.0319 23.051 17.1057 23.1127 17.2819 23.2603L17.5427 23.4577C17.2117 23.8268 16.8619 23.9818 16.4044 24.1581C15.6309 24.3681 14.8296 24.3479 14.1052 24L13.7999 23.8453C13.6189 23.7539 13.4379 23.6623 13.2572 23.5704ZM38.5196 23.5704L38.7451 23.3449C39.1959 22.6563 39.5123 22.4601 40.3467 22.464L40.6835 22.4779C41.0052 22.4773 41.326 22.4829 41.6475 22.4917C41.7809 22.5122 41.849 22.5227 41.9034 22.5557C41.9602 22.5901 42.0021 22.6491 42.0877 22.7696C42.1519 22.8688 42.1893 22.9264 42.2333 22.9785C42.2943 23.051 42.3681 23.1127 42.5444 23.2603L42.8052 23.4577C42.4741 23.8268 42.1243 23.9818 41.6668 24.1581C40.8933 24.3681 40.092 24.3479 39.3676 24L39.0623 23.8453C38.8813 23.7539 38.7003 23.6623 38.5196 23.5704ZM8.63323 25.3749C9.11993 24.8286 9.57609 24.494 10.3068 24.385C10.5249 24.3625 10.7422 24.3334 10.9593 24.3035C11.3568 24.3624 11.4394 24.4099 11.7276 24.663C12.3558 25.255 13.0624 25.6846 13.8796 25.9705C15.0798 26.2184 16.4553 26.2164 17.5577 25.6593L17.7683 25.5511L18.1842 25.3401C18.4585 25.2 18.7333 25.0612 19.0089 24.9238C19.0153 25.3326 19.0229 25.7413 19.0324 26.15C19.0365 26.3169 19.0404 26.4838 19.0441 26.6507C19.0479 26.8966 19.0517 27.1425 19.0578 27.3884L19.0639 27.6221L19.0649 27.6793L19.0658 27.7436C19.0701 28.0702 19.0736 28.3387 19.2492 28.6353C19.339 28.6877 19.3906 28.7178 19.4456 28.7388C19.5196 28.7671 19.5999 28.779 19.7883 28.807L20.1838 28.816L20.6122 28.8281C20.8372 28.832 21.0622 28.8358 21.2872 28.8414C21.5044 28.8473 21.7217 28.8528 21.9389 28.8583L22.6178 28.871V30.6755H8.18211C8.18211 30.3521 8.15617 29.9717 8.12809 29.5599C8.03549 28.2023 7.91958 26.5029 8.63323 25.3749ZM39.803 26.0718C41.2923 26.1274 42.809 26.0916 43.9774 25.0128L44.0253 24.9621C44.357 24.6102 44.5764 24.3775 45.0867 24.3158C45.857 24.3611 46.4887 24.4705 47.0723 24.9982C47.6166 26.3037 47.8947 26.9704 48.0009 27.6635C48.1119 28.3867 48.0358 29.1387 47.8802 30.6755H33.4445V28.871C33.8132 28.8641 34.1819 28.8568 34.5505 28.8475C34.7011 28.8434 34.8517 28.8395 35.0023 28.8358L35.4501 28.8281L35.8785 28.816L35.919 28.8151L35.9588 28.8143C36.278 28.8082 36.5249 28.8034 36.8131 28.6353C36.8656 28.5466 36.8965 28.4945 36.9181 28.4387C36.9489 28.359 36.9608 28.272 36.9894 28.0606L36.9984 27.6221C37.0047 27.3816 37.0106 27.1412 37.0144 26.9007C37.0169 26.7334 37.0201 26.5662 37.0238 26.3989C37.0332 26.0124 37.0416 25.6259 37.0485 25.2393L37.0534 24.9238C37.1684 24.9136 37.2269 24.9085 37.2794 24.9239C37.3338 24.9399 37.3818 24.9781 37.4795 25.0559C38.1952 25.5788 38.9008 26.0038 39.803 26.0718Z" fill="#703391"/>
<path fill-rule="evenodd" clip-rule="evenodd" d="M1.42316 34.2235L1.07818 34.2274C0.7135 34.228 0.55867 34.2534 0.255901 34.4613C0.0425611 34.7634 0.00765164 34.9688 0.00174176 35.335L0.00479124 35.5748C0.00253839 35.8463 0.00099912 36.1176 0.00222887 36.3891C0.0032223 36.5882 0.00339576 36.7874 0.00279848 36.9865C0.000188728 37.5286 -0.00071106 38.0706 0.000590606 38.6127C0.00207926 39.1894 0.00198754 39.766 0.00128368 40.3426C0.00010262 41.3077 0.000393109 42.2728 0.00243925 43.2378C0.00492308 44.3625 0.00571824 45.4872 0.00326311 46.6119C0.00111571 47.5842 3.28289e-05 48.5566 0.000853898 49.5289L0.0011583 49.767C0.00181105 50.2666 0.00246379 50.7662 0.00147922 51.2659C4.99468e-05 51.8195 -0.000750552 52.3731 0.00130821 52.9268C0.00228924 53.1305 0.00309243 53.3343 0.00370365 53.5381L0.00369248 53.5403C0.00227757 53.8239 0.000863183 54.1074 0.00265876 54.391L0.00479124 54.648C0.00103583 54.9433 0.0177336 55.1915 0.0620754 55.487C0.327892 55.84 0.432555 55.9253 0.872672 55.9954L1.30264 55.9965C1.55211 55.999 1.80142 56.0008 2.0509 55.9996C2.22932 55.9986 2.40774 55.9982 2.58616 55.9985C2.95846 55.9997 3.33074 56.0002 3.70304 55.9986C4.18698 55.9959 4.6708 55.9944 5.15474 55.997C5.53244 55.9991 5.9101 56 6.28781 55.9994C6.46814 55.9988 6.64847 55.9984 6.8288 55.9981C7.08784 55.9996 7.34675 56.0009 7.6058 55.9989L7.8438 55.9965L7.91469 55.9964C8.32859 55.9962 8.55752 55.996 8.9054 55.7302C8.98953 55.6159 9.03411 55.5553 9.06231 55.4879C9.0941 55.4119 9.10508 55.3272 9.12842 55.1469L9.11256 54.7822L9.10023 54.4139L9.08437 54.1337C9.665 54.143 10.2456 54.1508 10.8263 54.1557C11.0633 54.1576 11.3003 54.1596 11.5373 54.1619C11.8866 54.1676 12.2359 54.1733 12.5852 54.1758L12.9171 54.1777L13.2389 54.1848L13.5399 54.1849C13.8897 54.1889 14.0146 54.1568 14.3021 53.949C14.3982 53.8181 14.4471 53.7515 14.4772 53.6773C14.5084 53.6005 14.5194 53.5155 14.5418 53.3425L14.5259 52.9777L14.5136 52.6094L14.4977 52.3292C17.7368 52.2125 20.6969 52.2525 23.756 53.4169L24.0677 53.5377C24.2643 53.6137 24.4606 53.6903 24.6566 53.7676C25.4894 54.1231 26.2108 54.2538 27.1109 54.0674L27.3717 53.9711L27.6851 53.859C27.9232 53.7698 28.162 53.6823 28.4013 53.5962C28.6098 53.5213 28.8182 53.4464 29.0264 53.3708C29.8011 53.089 30.5792 52.8169 31.3575 52.5453C31.6598 52.44 31.962 52.3346 32.2642 52.229C34.0263 51.6131 35.7928 51.0105 37.561 50.412C39.3826 49.7955 41.2018 49.1733 43.0166 48.5371C44.4681 48.0282 45.9213 47.5254 47.3777 47.031C48.0419 46.8057 48.7058 46.5798 49.3697 46.3537L49.5565 46.2901C50.0533 46.1208 50.5501 45.9516 51.0471 45.783C51.6231 45.5878 52.1989 45.392 52.7742 45.1947C52.9919 45.1198 53.2097 45.0451 53.4275 44.9704C53.7354 44.8665 54.0431 44.7626 54.3503 44.6567L54.6306 44.5598C54.9466 44.4546 55.2423 44.3416 55.5492 44.2092C55.8437 43.9831 55.9757 43.8679 56.0569 43.5055L56.0562 43.2316L56.0565 42.9261L56.0496 42.6091C56.0536 42.0983 56.0514 41.6069 55.9339 41.1075C55.5741 39.9682 54.8793 39.0798 53.8575 38.4575C52.4612 37.6873 50.9331 37.8867 49.4587 38.2863C49.2453 38.346 49.0318 38.4055 48.8181 38.4641C48.433 38.569 48.0481 38.6746 47.6634 38.7812C47.3666 38.8635 47.0697 38.9452 46.7726 39.0266C46.0633 39.2202 45.3541 39.4143 44.6453 39.6097C44.1112 39.757 43.5771 39.9041 43.0428 40.0508L42.3155 40.2506C41.2366 40.5469 40.1577 40.8432 39.0791 41.1407C38.3356 41.3458 37.592 41.5505 36.8482 41.7545L36.7292 41.7871C36.3775 41.8835 36.0258 41.9799 35.6744 42.077C35.3048 42.1793 34.9351 42.2813 34.5652 42.3827L34.1546 42.495C33.351 42.7187 32.5855 42.9017 31.7529 42.9686C31.6401 42.743 31.6401 42.743 31.41 42.4986L31.1033 42.1916C30.9256 42.0133 30.7478 41.8351 30.5697 41.6573C30.4416 41.5294 30.3136 41.4015 30.1856 41.2735C29.9184 41.006 29.6512 40.7386 29.3837 40.4715C29.0365 40.125 28.6895 39.7784 28.3431 39.4313C28.073 39.1607 27.8028 38.8903 27.5324 38.62L27.1426 38.2306L26.7691 37.8563C26.5943 37.6812 26.4189 37.5071 26.2407 37.3354C26.0841 37.1847 25.9298 37.0317 25.7756 36.8786C25.6489 36.718 25.5195 36.5595 25.3864 36.4041C25.2461 36.2856 25.144 36.1994 25.0289 36.1374C24.722 35.9722 24.3222 35.9793 22.8565 36.0056C22.6281 36.0099 22.3997 36.0128 22.1712 36.0142C21.5715 36.0162 20.972 36.021 20.3724 36.0296C19.7514 36.0385 19.1305 36.0441 18.5094 36.0482C17.3014 36.0559 16.0935 36.0678 14.8856 36.0838L14.4977 36.0891L14.5136 35.8089L14.5259 35.4406C14.5341 35.2526 14.5381 35.1615 14.534 35.0707C14.5301 34.9855 14.5191 34.9005 14.4977 34.7358C14.2741 34.4539 14.1373 34.304 13.781 34.2279L13.4816 34.2274L13.1367 34.2235L12.7602 34.2263C12.3423 34.2238 11.9244 34.222 11.5064 34.2232C11.1314 34.2245 10.7565 34.2246 10.3816 34.2239C9.75365 34.2227 9.12573 34.223 8.4978 34.225C7.7667 34.2275 7.03565 34.2283 6.30455 34.2258C5.672 34.2237 5.03947 34.2226 4.40692 34.2234C4.10522 34.224 3.80352 34.2244 3.50182 34.2247C3.06705 34.2232 2.63235 34.2219 2.19757 34.2239L1.79957 34.2263L1.42316 34.2235ZM1.86653 54.1337V36.0891H7.27991V54.1337H1.86653ZM9.08437 52.3292V36.0891H12.6933V52.3292H9.08437ZM14.4977 50.5248V37.8936C15.0066 37.8491 15.52 37.7973 16.036 37.7451C17.735 37.5735 19.4639 37.3989 21.1634 37.4746C23.9243 37.6354 25.5528 38.6481 27.3874 40.68L27.5801 40.8963C28.6406 42.084 29.6532 43.317 30.5123 44.6603C30.6317 45.1379 30.5469 45.4933 30.3291 45.929C29.9918 46.3196 29.6864 46.6437 29.1563 46.7255C28.5855 46.7425 28.236 46.6455 27.813 46.2722L27.5834 46.039L27.321 45.7744L27.0408 45.4885C26.7412 45.1862 26.4417 44.8839 26.1427 44.5809L26.0344 44.471C25.6613 44.0923 25.2881 43.7135 24.9138 43.3359L24.6232 43.0426L24.343 42.7567L24.0806 42.4922C23.7966 42.2037 23.5539 42.0031 23.1817 41.8408L22.9923 42.0223L22.7447 42.2637C22.4379 42.5606 22.235 42.8095 22.0539 43.1942C22.4593 43.6018 22.8648 44.0093 23.2707 44.4164L23.7738 44.9211L24.0425 45.1916C24.7686 45.9228 25.4951 46.6543 26.2456 47.3605L26.4188 47.522C26.8905 47.9625 27.3199 48.253 27.9413 48.4371C29.0098 48.6325 29.976 48.5428 30.9141 47.9802C31.7522 47.3848 32.0837 46.7298 32.2886 45.7317C32.3295 45.4862 32.3749 45.2414 32.4296 44.9986C32.5359 44.9417 32.5944 44.9104 32.6555 44.8857C32.7301 44.8554 32.8088 44.8351 32.9834 44.7897L33.4125 44.6725C33.6647 44.6034 33.9168 44.5344 34.169 44.4656C34.3539 44.4153 34.5387 44.3648 34.7235 44.3143C35.6489 44.0609 36.5746 43.8085 37.5002 43.5562L39.4562 43.0228C40.981 42.6071 42.5049 42.1884 44.0272 41.7634C44.6274 41.5958 45.2279 41.4292 45.8285 41.2627L45.9219 41.2368C46.3655 41.114 46.809 40.9912 47.2521 40.8665C47.7018 40.7395 48.1517 40.6129 48.6023 40.4886C48.7691 40.4427 48.936 40.3967 49.1027 40.3505C49.6692 40.1883 50.2328 40.032 50.8125 39.9236C51.7283 39.8481 52.4293 39.8456 53.1879 40.4029C53.9088 41.0441 54.0704 41.7028 54.1958 42.6303C53.9748 42.7464 53.9748 42.7464 53.7489 42.8223L53.1572 43.0221C52.9215 43.1015 52.6859 43.181 52.4503 43.2607L52.0719 43.3887C49.9901 44.0919 47.9094 44.7976 45.8358 45.5247C44.1218 46.126 42.4051 46.7182 40.6848 47.3011C38.9055 47.9039 37.1276 48.5101 35.3545 49.1312C33.7353 49.6986 32.1147 50.2621 30.4913 50.8173L29.7793 51.0605L29.5105 51.1527C29.0605 51.3073 28.6106 51.4619 28.1585 51.6103L28.1295 51.6198L28.1287 51.6201C27.8701 51.7046 27.6116 51.789 27.3545 51.8781L26.9994 52.0307C26.4126 52.113 26.1143 52.1549 25.8274 52.1156C25.5313 52.0751 25.247 51.9482 24.6694 51.6903C22.3164 50.7117 20.1659 50.4851 17.6415 50.4825L14.4977 50.5248Z" fill="#703391"/>
<path d="M49.6847 10.3757C50.1144 10.5439 50.3003 10.782 50.5588 11.1581L50.7684 11.4572C50.8441 11.5883 50.8833 11.6562 50.9035 11.7293C50.9253 11.8078 50.9253 11.8922 50.9253 12.0674C50.7908 12.172 50.7174 12.2291 50.6417 12.283C50.5507 12.3477 50.4564 12.4076 50.2486 12.5396L50.053 12.6654C49.8933 12.7679 49.7327 12.8689 49.5719 12.9696C49.1332 12.8007 48.9551 12.5518 48.6979 12.1661L48.4882 11.855L48.3314 11.6163C48.7604 11.1742 49.2128 10.7714 49.6847 10.3757Z" fill="#703391"/>
<path d="M7.2763 10.8072C6.95028 10.5366 6.69665 10.3261 6.26486 10.2626L6.07146 10.4934L5.82079 10.7983L5.79445 10.83C5.52389 11.156 5.31341 11.4097 5.24985 11.8415L5.48069 12.0062L5.78555 12.2221C6.12426 12.4628 6.45127 12.6818 6.82875 12.8565L6.99351 12.6543L7.20938 12.3842C7.49668 12.0277 7.69159 11.7103 7.84376 11.2776L7.61291 11.0842L7.30806 10.8335L7.2763 10.8072Z" fill="#703391"/>
<path d="M4.12213 13.1952C4.7734 13.3622 5.26488 13.7095 5.80575 14.0918L5.81381 14.0975C5.63952 14.7154 5.34517 15.2381 5.02436 15.7891C4.59688 15.6281 4.20432 15.4325 3.80494 15.2111L3.47145 15.027L3.2199 14.8869L3.72653 13.9618C3.86322 13.7082 3.99531 13.4538 4.12213 13.1952Z" fill="#703391"/>
<path d="M52.0531 13.4208C52.1477 13.5473 52.1996 13.6167 52.2477 13.6886C52.3062 13.776 52.359 13.8672 52.476 14.0693L52.6927 14.4341C52.7822 14.6373 52.8183 14.7191 52.8336 14.8046C52.8439 14.8621 52.8449 14.9213 52.8465 15.0204C52.6838 15.3059 52.4743 15.4168 52.198 15.5631L52.1855 15.5697L52.1306 15.5988L51.8006 15.7808C51.6207 15.8508 51.5447 15.8803 51.466 15.8928C51.4085 15.9019 51.3495 15.9019 51.2473 15.9019C50.9561 15.745 50.8442 15.537 50.6956 15.2608C50.6832 15.2377 50.6705 15.2141 50.6574 15.19L50.4715 14.8601C50.4094 14.6843 50.3823 14.6078 50.3812 14.5308C50.3803 14.4713 50.3949 14.4116 50.4208 14.3059C50.6321 14.0408 50.8511 13.9011 51.1438 13.7309L51.4429 13.553C51.5715 13.4904 51.6393 13.4575 51.7108 13.4401C51.7905 13.4208 51.8748 13.4208 52.0531 13.4208Z" fill="#703391"/>
<path d="M48.1904 8.41648C47.8788 8.09579 47.6186 7.8426 47.2035 7.66932L46.9815 7.90016L46.696 8.20502L46.6955 8.20561C46.5442 8.36534 46.4732 8.44029 46.4066 8.51899C46.3479 8.58847 46.2926 8.66087 46.1885 8.79711C46.1885 9.06998 46.1885 9.1778 46.2232 9.27295C46.2459 9.33509 46.2834 9.39183 46.3453 9.48561L46.5551 9.72048C46.759 9.95537 46.9187 10.1209 47.1974 10.2597C47.2979 10.2612 47.3548 10.2621 47.4082 10.2487C47.4777 10.2311 47.5411 10.1892 47.6873 10.0927L47.9507 9.84736C48.2717 9.55566 48.501 9.31164 48.6697 8.90989L48.4635 8.69578L48.1904 8.41648Z" fill="#703391"/>
<path d="M11.5655 5.18757C12.0042 5.35646 12.1824 5.60533 12.4396 5.99112L12.6493 6.30214L12.8061 6.54092C12.6394 6.95488 12.4141 7.15115 12.0589 7.41495L11.7796 7.62465L11.5655 7.78148C11.1279 7.60999 10.9183 7.34607 10.6351 6.97793L10.3937 6.66691L10.2122 6.42814C10.4935 6.0562 10.7636 5.7623 11.1426 5.49067L11.384 5.31577L11.5655 5.18757Z" fill="#703391"/>
<path d="M39.1751 2.20589C38.7676 2.0144 38.4011 1.87496 37.9557 1.80412L37.9388 1.84385C37.692 2.42453 37.4587 2.97339 37.3918 3.60857C37.9386 3.90298 38.4934 4.10034 39.0835 4.28525L39.2029 4.0337L39.3584 3.70021C39.5499 3.29267 39.6893 2.92621 39.7602 2.48079L39.5086 2.3614L39.1751 2.20589Z" fill="#703391"/>
<path d="M53.7448 16.6912C53.8581 16.9494 53.9707 17.2079 54.0831 17.4665L54.1809 17.689C54.3493 18.0778 54.3998 18.1945 54.4149 18.3156C54.4214 18.3675 54.4214 18.4203 54.4214 18.4956C54.1656 18.5903 53.9095 18.6841 53.6531 18.7776L53.4335 18.8591C53.1077 18.9773 52.8537 19.0595 52.5042 19.0595C52.4066 18.8227 52.3106 18.5853 52.2152 18.3476L52.0527 17.9472C51.9955 17.7671 51.9674 17.6786 51.9685 17.5906C51.9695 17.5057 51.9977 17.4211 52.0531 17.2551C52.1882 17.1835 52.2615 17.1446 52.3365 17.1095C52.4253 17.0679 52.5165 17.0315 52.7155 16.952L53.0813 16.8026C53.2451 16.7465 53.3264 16.7186 53.41 16.7048C53.4923 16.6912 53.5769 16.6912 53.7448 16.6912Z" fill="#703391"/>
<path d="M4.23491 17.1423C3.64375 16.8781 3.04706 16.6627 2.43045 16.4656C2.10858 17.048 1.93459 17.6329 1.75378 18.2701L3.55824 18.9467C3.57934 18.8975 3.60051 18.8483 3.6217 18.7991L3.62211 18.7981C3.75585 18.4874 3.88969 18.1765 4.00363 17.8581L4.08689 17.6004C4.13657 17.4478 4.18604 17.2951 4.23491 17.1423Z" fill="#703391"/>
<path d="M8.96279 7.57136C9.26056 7.69506 9.39887 7.8528 9.60598 8.09869L9.80774 8.3335C9.97523 8.55585 10.0974 8.76925 10.2122 9.02207L10.0227 9.18287L9.77515 9.39565L9.52932 9.60579C9.4206 9.70069 9.36092 9.75278 9.30945 9.812C9.24681 9.88407 9.19631 9.96669 9.08438 10.1499C8.64386 10.1015 8.41549 9.86056 8.13264 9.56215C8.10287 9.53074 8.07246 9.49865 8.04117 9.46614L7.73632 9.15203L7.50547 8.90929C8.42892 7.80814 8.60492 7.59827 8.80626 7.57021C8.85366 7.5636 8.90248 7.56707 8.96279 7.57136Z" fill="#703391"/>
<path d="M54.9853 20.0743L55.4364 21.9916C54.7434 22.1944 54.2476 22.3299 53.5192 22.3299L53.0681 20.6382C54.1901 20.2051 54.4504 20.1047 54.7175 20.0814C54.7982 20.0743 54.8795 20.0743 54.9853 20.0743Z" fill="#703391"/>
<path d="M15.3994 3.9156C15.2531 3.63924 15.1422 3.42982 14.8567 3.26712C14.7577 3.26871 14.6985 3.26966 14.6409 3.27998C14.5554 3.29532 14.4737 3.33134 14.2704 3.42087L13.9056 3.63761C13.7036 3.75457 13.6124 3.80738 13.5249 3.86584C13.453 3.91394 13.3836 3.96587 13.2571 4.06053C13.2571 4.23878 13.2571 4.32312 13.2764 4.40277C13.2938 4.47431 13.3268 4.54207 13.3893 4.67068L13.5673 4.96981C13.7375 5.26248 13.8772 5.48152 14.1422 5.69274C14.248 5.71866 14.3077 5.73328 14.3671 5.73241C14.4441 5.73129 14.5207 5.70421 14.6964 5.64208L15.0263 5.45617C15.0504 5.44309 15.074 5.43039 15.0972 5.41795C15.3733 5.26939 15.5813 5.15746 15.7383 4.86628C15.7383 4.76412 15.7383 4.70511 15.7291 4.64755C15.7166 4.56885 15.6871 4.49285 15.6171 4.31296L15.4352 3.983L15.4224 3.95908L15.3994 3.9156Z" fill="#703391"/>
<path d="M21.8284 0.676049C21.8856 0.889635 21.9418 1.1035 21.9976 1.31748L22.0927 1.67828C22.1599 1.99685 22.1811 2.26943 22.1667 2.59329C21.9507 2.65034 21.7345 2.70657 21.5182 2.76245L21.1535 2.85761C21.0051 2.8899 20.9215 2.9081 20.8369 2.91836C20.7275 2.93162 20.6166 2.93162 20.3623 2.93162C20.2865 2.6945 20.2114 2.45715 20.1367 2.21971L20.0098 1.81925C19.9585 1.63526 19.9339 1.54696 19.9221 1.45698C19.9111 1.37397 19.9111 1.28952 19.9111 1.12716C20.1458 1.05119 20.3809 0.97619 20.616 0.901606L21.0125 0.77473C21.179 0.729674 21.2696 0.70519 21.3617 0.691885C21.4713 0.676049 21.5832 0.676049 21.8284 0.676049Z" fill="#703391"/>
<path d="M55.2109 34.6232C54.5714 34.4488 53.9537 34.3429 53.2936 34.2849C53.132 34.8884 53.0218 35.4681 52.9553 36.0893C53.5519 36.267 54.151 36.4107 54.7597 36.5404C54.9961 35.8983 55.1488 35.3053 55.2109 34.6232Z" fill="#703391"/>
<path d="M2.09212 30.6758L2.31768 32.4803L0.40044 32.8186C0.264097 32.1284 0.143635 31.4917 0.174883 30.7886C0.325167 30.7691 0.475564 30.7505 0.625998 30.7322L0.87975 30.7005C1.21917 30.6735 1.56022 30.6745 1.90091 30.6755C1.96464 30.6757 2.02843 30.6758 2.09212 30.6758Z" fill="#703391"/>
<path d="M2.99436 20.4133C2.38128 20.1615 1.85228 20.0087 1.1899 19.9622C1.14802 20.0041 1.12168 20.0304 1.10058 20.0604C1.06485 20.1112 1.04407 20.1725 0.988134 20.3375L0.893858 20.6671C0.746219 21.1682 0.743448 21.3389 0.851566 21.8794L2.54325 22.2178C2.7688 21.6539 2.7688 21.6539 2.84017 21.3274L2.89568 20.9984C2.92915 20.8034 2.96224 20.6085 2.99436 20.4133Z" fill="#703391"/>
<path d="M1.97926 27.1795H0.0620211V29.0967H1.97926V27.1795Z" fill="#703391"/>
<path d="M55.7747 23.683L56.0003 25.6003C55.7137 25.7435 55.4118 25.7556 55.1003 25.7681C55.0388 25.7705 54.9769 25.773 54.9148 25.7765L54.6734 25.7913C54.4766 25.8032 54.2798 25.8146 54.083 25.8258C53.9436 25.547 53.9306 25.275 53.9164 24.9769C53.9136 24.9179 53.9107 24.858 53.9068 24.7967L53.8782 24.3588L53.8575 24.0214C54.4923 23.827 55.1054 23.683 55.7747 23.683Z" fill="#703391"/>
<path d="M1.18279 23.557C0.922763 23.5184 0.661985 23.4841 0.400387 23.4583L0.287608 23.5711C0.164443 24.2143 0.165869 24.8342 0.174829 25.4883L2.09207 25.6011L2.20485 23.7966C1.97929 23.6839 1.97929 23.6839 1.61584 23.6195L1.18279 23.557Z" fill="#703391"/>
<path d="M53.9703 30.9011C54.6228 30.8893 55.2439 30.9019 55.8875 31.0139C55.8715 31.2277 55.855 31.4415 55.8382 31.6553L55.8104 32.0161C55.7788 32.3279 55.7295 32.6254 55.662 32.9311C55.4481 32.9151 55.2343 32.8985 55.0206 32.8818L54.6597 32.854C54.348 32.8223 54.0504 32.7731 53.7447 32.7056C53.7607 32.4894 53.7773 32.2732 53.7941 32.0571L53.8218 31.6923C53.8509 31.4157 53.8934 31.1673 53.9703 30.9011Z" fill="#703391"/>
<path d="M54.083 27.4058H56.0003V29.323C55.3269 29.3313 54.7507 29.3216 54.083 29.2103V27.4058Z" fill="#703391"/>
</svg>
