<svg width="58" height="56" viewBox="0 0 58 56" fill="none" xmlns="http://www.w3.org/2000/svg">
<path d="M56.9111 34.8201L47.7919 18.8115C47.7479 18.7343 47.6894 18.6667 47.6197 18.6124C47.5499 18.5581 47.4703 18.5183 47.3853 18.4953C47.3004 18.4722 47.2118 18.4663 47.1246 18.4779C47.0375 18.4896 46.9534 18.5185 46.8772 18.5631L41.2443 21.8594C41.0906 21.9493 40.9785 22.0974 40.9325 22.2711C40.8866 22.4448 40.9105 22.6299 40.9991 22.7858L41.5013 23.6686L38.7579 25.2629C37.0288 25.8973 35.7277 25.6261 33.7683 25.2175C32.8294 25.022 31.7654 24.8 30.4656 24.6392C29.5462 24.5199 28.6122 24.6024 27.727 24.8812C26.8419 25.16 26.0262 25.6284 25.3354 26.2549L20.4653 25.5076C19.4284 25.3611 18.4415 24.9638 17.5882 24.3491L17.3138 24.1568L17.9155 23.2739C17.9655 23.2003 18.0008 23.1175 18.0193 23.0301C18.0377 22.9427 18.039 22.8525 18.023 22.7646C18.007 22.6768 17.974 22.593 17.926 22.518C17.878 22.4431 17.8158 22.3785 17.7431 22.3279L12.3833 18.5927C12.3108 18.5419 12.229 18.5062 12.1428 18.4875C12.0566 18.4688 11.9676 18.4675 11.8809 18.4837C11.7942 18.4999 11.7115 18.5334 11.6375 18.582C11.5636 18.6307 11.4999 18.6937 11.45 18.7674L1.11867 33.9984C1.06857 34.0719 1.03329 34.1547 1.01484 34.2421C0.996387 34.3295 0.995131 34.4197 1.01114 34.5076C1.02715 34.5955 1.06012 34.6793 1.10814 34.7542C1.15617 34.8292 1.21832 34.8938 1.29102 34.9443L6.65081 38.6795C6.72334 38.7304 6.80507 38.7662 6.8913 38.785C6.97753 38.8037 7.06657 38.805 7.15329 38.7888C7.24002 38.7725 7.32273 38.7391 7.39667 38.6904C7.4706 38.6417 7.53432 38.5786 7.58414 38.5049L8.07134 37.7872C8.94618 38.4481 9.74759 39.0737 10.498 39.6835L9.87204 40.5758C9.57025 41.0091 9.39142 41.5179 9.35497 42.0469C9.31853 42.5759 9.42586 43.105 9.66531 43.5765C9.90476 44.048 10.2672 44.444 10.7131 44.7214C11.1591 44.9988 11.6715 45.1469 12.1948 45.1498C12.2358 45.1498 12.2769 45.1498 12.3192 45.1448C12.2411 45.5057 12.2322 45.8784 12.2931 46.2427C12.3544 46.6176 12.4891 46.9762 12.6893 47.2976C12.8894 47.6189 13.151 47.8964 13.4585 48.1138C13.9425 48.4575 14.5195 48.6414 15.1105 48.6404C15.2385 48.64 15.3663 48.6312 15.4932 48.6139C15.4699 48.8663 15.4793 49.1207 15.5212 49.3706C15.6332 50.0452 15.9775 50.6576 16.493 51.0992C17.0085 51.5407 17.6618 51.7827 18.3367 51.7822C19.0491 51.7823 19.7363 51.515 20.2656 51.0317C20.4432 51.488 20.732 51.8913 21.1052 52.2037C21.4783 52.5162 21.9236 52.7276 22.3992 52.8182C22.8749 52.9089 23.3655 52.8758 23.8251 52.7221C24.2848 52.5683 24.6984 52.299 25.0274 51.9392L28.3252 54.3141C28.9271 54.7538 29.649 54.9931 30.3909 54.999C30.8402 55.0111 31.2858 54.9131 31.6898 54.7136C32.0938 54.514 32.4444 54.2186 32.7118 53.8525C33.0907 53.3035 33.2564 52.6321 33.1772 51.9669C33.4828 52.057 33.7992 52.1032 34.1174 52.1044C34.212 52.1044 34.3041 52.1006 34.4011 52.0924C34.8023 52.0665 35.1929 51.9513 35.5452 51.7551C35.8975 51.559 36.2028 51.2866 36.4395 50.9573C36.8272 50.3948 36.9916 49.7049 36.9 49.025C37.1758 49.0975 37.4594 49.1345 37.7443 49.1354C38.1939 49.1471 38.6396 49.0487 39.0436 48.8486C39.4477 48.6484 39.7981 48.3524 40.0652 47.9858C40.4135 47.4955 40.6009 46.9067 40.6009 46.3026C40.9992 46.4613 41.423 46.5438 41.851 46.546C42.0269 46.5462 42.2026 46.5314 42.3761 46.5019C42.7358 46.4501 43.0812 46.3244 43.3911 46.1323C43.701 45.9403 43.9689 45.6861 44.1784 45.3853C44.3878 45.0845 44.5344 44.7435 44.609 44.3831C44.6836 44.0228 44.6848 43.6509 44.6124 43.2901C44.4894 42.6167 44.1712 41.9958 43.6983 41.5067C44.1239 41.2393 44.5004 40.9694 44.8675 40.7051C45.4428 40.2633 46.059 39.8789 46.7074 39.5574C46.7254 39.5486 46.7435 39.5397 46.7615 39.529L49.5963 37.8786L50.1178 38.7949C50.2066 38.9507 50.3529 39.0644 50.5244 39.111C50.6959 39.1575 50.8786 39.1333 51.0324 39.0434L56.6654 35.7471C56.819 35.657 56.9312 35.5088 56.9772 35.335C57.0231 35.1612 56.9998 34.976 56.9111 34.8201ZM6.85801 37.1749L2.60141 34.2109L12.1761 20.0942L16.4333 23.0582L6.85801 37.1749ZM11.3224 43.5102C10.9944 43.2722 10.7726 42.9125 10.7052 42.5094C10.6378 42.1063 10.7304 41.6926 10.9628 41.3585L13.3372 37.9713C13.4528 37.8061 13.5996 37.6657 13.7691 37.5583C13.9386 37.451 14.1274 37.3787 14.3246 37.3458C14.4108 37.3312 14.498 37.3239 14.5853 37.3237C14.8638 37.3254 15.1364 37.4045 15.3736 37.5522C15.6108 37.7 15.8035 37.9109 15.9308 38.1619C16.0581 38.4129 16.115 38.6944 16.0954 38.9759C16.0759 39.2574 15.9805 39.5281 15.8198 39.7586L13.4454 43.1463C13.2114 43.4797 12.8563 43.7054 12.4582 43.7736C12.0602 43.8418 11.6516 43.7471 11.3224 43.5102ZM14.2269 47.0045C14.0651 46.8894 13.9274 46.7429 13.8218 46.5735C13.7162 46.4041 13.6449 46.2151 13.612 46.0175C13.579 45.8199 13.5851 45.6177 13.6299 45.4225C13.6747 45.2273 13.7573 45.0431 13.8729 44.8805L17.7929 39.3745C18.0322 39.0401 18.3914 38.8142 18.7933 38.7454C19.1952 38.6767 19.6077 38.7705 19.942 39.0068C20.245 39.2225 20.4581 39.5444 20.5401 39.9103C20.6221 40.2762 20.567 40.6599 20.3857 40.987L19.377 42.4217L16.3761 46.6375C16.1368 46.9719 15.7776 47.1978 15.3757 47.2666C14.9738 47.3353 14.5613 47.2408 14.2269 47.0045ZM17.4575 50.1438C17.1302 49.907 16.9087 49.5485 16.8416 49.1467C16.7744 48.7449 16.867 48.3324 17.0991 47.9996L20.4591 43.2213L21.3818 41.9254C21.4279 41.8623 21.4708 41.7936 21.5113 41.7255L21.7925 41.3257C22.0278 40.992 22.3838 40.7663 22.7828 40.6979C23.1818 40.6295 23.5912 40.7239 23.9217 40.9605C24.2488 41.1975 24.47 41.556 24.5371 41.9578C24.6041 42.3596 24.5115 42.7719 24.2795 43.1047L23.2659 44.5463C23.157 44.6577 23.0573 44.7779 22.9679 44.9058L20.5935 48.2929C20.5135 48.4073 20.4417 48.5274 20.3788 48.6523L19.5867 49.7793C19.3513 50.1128 18.9953 50.3384 18.5964 50.4068C18.1975 50.4752 17.7881 50.3802 17.4575 50.1438ZM23.1819 51.4914C22.9108 51.5376 22.6324 51.5087 22.3763 51.4076C22.1201 51.3065 21.8957 51.1371 21.7268 50.9172C21.5579 50.6974 21.4509 50.4353 21.417 50.1588C21.3831 49.8823 21.4236 49.6017 21.5343 49.3467L24.2814 45.4405C24.4961 45.2445 24.7617 45.1148 25.0467 45.0666C25.1326 45.0518 25.2196 45.0444 25.3068 45.0445C25.6206 45.044 25.9267 45.143 26.1823 45.3277C26.5111 45.565 26.7336 45.9248 26.801 46.3281C26.8684 46.7315 26.7752 47.1455 26.5419 47.4794L24.343 50.6168L24.1681 50.869C24.0522 51.0338 23.9051 51.1737 23.7355 51.2806C23.566 51.3876 23.3772 51.4594 23.18 51.4921L23.1819 51.4914ZM43.0823 44.6049C42.9722 44.7551 42.8336 44.8815 42.6748 44.9768C42.5159 45.072 42.3399 45.1343 42.1571 45.1599C41.5937 45.2414 41.0213 45.0943 40.5642 44.7506L39.2351 43.7858L34.7552 40.5342C34.6838 40.4801 34.6026 40.4409 34.5161 40.419C34.4297 40.3971 34.3398 40.3929 34.2517 40.4067C34.1636 40.4205 34.0791 40.4519 34.0032 40.4992C33.9273 40.5465 33.8614 40.6087 33.8095 40.6821C33.7576 40.7556 33.7207 40.8387 33.701 40.9268C33.6812 41.0149 33.679 41.1061 33.6944 41.195C33.7099 41.284 33.7427 41.3689 33.791 41.4448C33.8393 41.5208 33.902 41.5862 33.9755 41.6372L38.4592 44.8913C38.8547 45.155 39.1335 45.5644 39.2364 46.0327C39.2733 46.2351 39.269 46.4431 39.2238 46.6438C39.1787 46.8445 39.0936 47.0337 38.9738 47.2C38.476 47.9057 37.3249 47.9719 36.4538 47.3444L32.5233 44.5141C32.3784 44.4144 32.2008 44.3762 32.0284 44.4077C31.8561 44.4392 31.7028 44.5379 31.6014 44.6825C31.5 44.8272 31.4585 45.0064 31.4859 45.1817C31.5133 45.357 31.6074 45.5144 31.748 45.6203L34.6556 47.714C35.5267 48.3446 35.8422 49.4665 35.3482 50.1734C35.2232 50.342 35.0631 50.4805 34.8793 50.5793C34.6955 50.678 34.4925 50.7345 34.2848 50.7448C33.7646 50.7821 33.2484 50.6308 32.8282 50.3178L30.1962 48.4259C30.0513 48.3262 29.8737 48.288 29.7013 48.3195C29.529 48.351 29.3757 48.4497 29.2743 48.5943C29.1729 48.739 29.1314 48.9182 29.1588 49.0935C29.1862 49.2688 29.2803 49.4262 29.4209 49.5321L30.9273 50.6168C31.7984 51.2474 32.1145 52.3693 31.6204 53.0762C31.1264 53.7831 29.9716 53.8481 29.1005 53.2206L25.8214 50.8595L27.6333 48.274C28.0725 47.6468 28.248 46.8686 28.1213 46.1104C27.9946 45.3521 27.576 44.6759 26.9575 44.2304C26.5286 43.9205 26.0229 43.7379 25.4972 43.7031C25.8663 43.0768 25.9887 42.3325 25.8401 41.6187C25.6914 40.9049 25.2825 40.2742 24.6951 39.8525C24.2841 39.5582 23.8039 39.3786 23.3027 39.3318C22.8015 39.2849 22.297 39.3725 21.8398 39.5858C21.6824 38.9008 21.28 38.2993 20.7105 37.8976C20.2068 37.5428 19.6054 37.3587 18.9922 37.3717C18.379 37.3846 17.7856 37.5938 17.297 37.9695C17.1323 37.4593 16.8313 37.0054 16.4273 36.6583C16.0233 36.3113 15.5323 36.0846 15.0087 36.0036C14.4852 35.9225 13.9498 35.9903 13.462 36.1993C12.9742 36.4083 12.5532 36.7504 12.2458 37.1875L11.2739 38.5749C10.5154 37.9619 9.70777 37.3319 8.82733 36.6678L16.5565 25.2742L16.8266 25.4634C17.8484 26.1953 19.027 26.6708 20.2656 26.8508L24.1277 27.4436C23.322 28.3838 22.5709 29.3707 21.8784 30.3994C21.1362 31.5261 20.306 32.5907 19.3957 33.5828C18.8326 34.156 18.9359 35.0786 19.6527 35.8789C19.9778 36.3012 20.3867 36.6496 20.8529 36.9019C21.3191 37.1541 21.8323 37.3044 22.3593 37.3432H22.4023C24.0456 37.3432 25.3727 35.9451 26.6558 34.5924C27.6818 33.5109 28.7433 32.3922 29.6132 32.4792C30.1716 32.7427 30.6731 33.1154 31.0891 33.5759C31.7792 34.2788 32.5815 34.8585 33.4622 35.2905L42.3686 42.1335L42.3923 42.1505C42.8599 42.4686 43.1841 42.9616 43.2939 43.5215C43.3311 43.7075 43.3314 43.8992 43.2948 44.0853C43.2581 44.2714 43.1853 44.4483 43.0805 44.6056L43.0823 44.6049ZM46.1231 38.3333C45.4091 38.6877 44.7299 39.11 44.0947 39.5946C43.6099 39.9555 43.1062 40.2896 42.5858 40.5954L37.1874 36.4471C38.0924 36.5976 39.0186 36.5514 39.9047 36.3115C40.0706 36.2535 40.2074 36.1317 40.2856 35.9725C40.3638 35.8132 40.3772 35.6292 40.3229 35.4601C40.2686 35.2909 40.1509 35.1501 39.9951 35.068C39.8394 34.986 39.6581 34.9692 39.4903 35.0213C38.2713 35.4236 36.0121 35.0446 34.133 34.1081C34.1115 34.096 34.0895 34.0851 34.067 34.0753C33.3209 33.7118 32.6404 33.2236 32.0541 32.6312C32.0404 32.6173 30.707 31.2204 29.7482 31.1252C28.2275 30.9739 26.9376 32.3329 25.6907 33.6477C24.5943 34.8031 23.4607 35.9968 22.378 35.9811C22.0352 35.9416 21.7041 35.8307 21.4055 35.6553C21.107 35.4799 20.8475 35.2439 20.6433 34.962C20.518 34.8333 20.426 34.6751 20.3757 34.5016C21.3245 33.4648 22.1914 32.354 22.9685 31.1795C23.8294 29.8427 24.8308 28.6044 25.9551 27.4865L25.9657 27.4777C26.5307 26.9138 27.2139 26.4865 27.9645 26.2275C28.7151 25.9685 29.5137 25.8845 30.3007 25.9818C31.5452 26.1363 32.5818 26.352 33.4958 26.5424C35.5417 26.9694 37.1576 27.3068 39.2712 26.5122C39.306 26.499 39.3397 26.4832 39.372 26.4649L42.1708 24.8435L48.9274 36.7038L46.1231 38.3333ZM50.9453 37.5286L42.4931 22.695L46.9668 20.0772L55.4172 34.9109L50.9453 37.5286ZM29.0009 23.1982C31.5343 23.1962 33.9886 22.304 35.9457 20.6737C37.9029 19.0434 39.2418 16.7758 39.7343 14.2572C40.2269 11.7385 39.8427 9.12475 38.6471 6.86106C37.4515 4.59737 35.5186 2.82381 33.1775 1.84253C30.8365 0.861259 28.2321 0.732966 25.8082 1.47951C23.3843 2.22606 21.2907 3.80126 19.8842 5.93676C18.4776 8.07227 17.8451 10.636 18.0944 13.1911C18.3436 15.7463 19.4592 18.1348 21.2512 19.9498C22.2682 20.9819 23.4764 21.8001 24.8063 22.3575C26.1362 22.915 27.5617 23.2007 29.0009 23.1982ZM22.1976 5.19937C23.7715 3.60458 25.8424 2.61224 28.0573 2.39143C30.2722 2.17062 32.4942 2.735 34.3446 3.9884C36.195 5.24181 37.5593 7.1067 38.2052 9.26533C38.851 11.424 38.7384 13.7428 37.8866 15.8267C37.0347 17.9106 35.4963 19.6307 33.5334 20.6939C31.5705 21.7572 29.3047 22.0977 27.1218 21.6575C24.939 21.2174 22.9743 20.0237 21.5624 18.28C20.1506 16.5363 19.3789 14.3504 19.3789 12.0947C19.3803 9.5086 20.394 7.02872 22.1976 5.19937ZM26.214 16.8452C26.5808 17.2163 27.078 17.4246 27.5962 17.4246C28.1145 17.4246 28.6116 17.2163 28.9785 16.8452L35.5883 10.146C35.9463 9.77268 36.1449 9.27155 36.1412 8.75099C36.1375 8.23042 35.9318 7.73224 35.5686 7.36414C35.2054 6.99603 34.7139 6.78758 34.2002 6.78384C33.6866 6.7801 33.1922 6.98137 32.8238 7.34414L27.5972 12.6414L25.1786 10.1902C24.8102 9.8274 24.3158 9.62613 23.8022 9.62987C23.2886 9.63361 22.797 9.84207 22.4338 10.2102C22.0706 10.5783 21.865 11.0765 21.8613 11.597C21.8576 12.1176 22.0562 12.6187 22.4141 12.9921L26.214 16.8452ZM23.3599 11.1506C23.4762 11.0351 23.6326 10.9704 23.7954 10.9704C23.9583 10.9704 24.1147 11.0351 24.231 11.1506L27.123 14.0818C27.2486 14.2089 27.4188 14.2803 27.5962 14.2803C27.7737 14.2803 27.9439 14.2089 28.0694 14.0818L33.7708 8.30396C33.8867 8.18883 34.0428 8.12472 34.2051 8.12555C34.3674 8.12638 34.5228 8.19209 34.6376 8.3084C34.7523 8.42471 34.8172 8.58222 34.818 8.74671C34.8188 8.9112 34.7555 9.06937 34.6419 9.18685L28.0321 15.8886C27.9165 16.0055 27.7599 16.0711 27.5966 16.0711C27.4332 16.0711 27.2766 16.0055 27.161 15.8886L23.3599 12.0367C23.3024 11.9785 23.2567 11.9095 23.2256 11.8335C23.1945 11.7575 23.1784 11.676 23.1784 11.5936C23.1784 11.5113 23.1945 11.4298 23.2256 11.3538C23.2567 11.2778 23.3024 11.2087 23.3599 11.1506Z" fill="#703391" stroke="#703391" stroke-width="0.3"/>
</svg>
