<svg width="58" height="55" viewBox="0 0 58 55" fill="none" xmlns="http://www.w3.org/2000/svg">
<path fill-rule="evenodd" clip-rule="evenodd" d="M45.5997 8.8993C47.1582 10.2515 48.1286 11.9093 48.3012 13.9915C48.3635 16.0479 47.747 17.7816 46.4034 19.3562C45.213 20.5936 43.5672 21.4067 41.8455 21.4864C39.6206 21.5251 37.8848 21.018 36.2299 19.4477C34.7802 17.9565 34.2346 16.185 34.247 14.1472C34.2925 12.4254 34.9736 10.7759 36.1701 9.51943C38.7572 7.18157 42.763 6.57877 45.5997 8.8993ZM37.2823 10.8653C36.1965 12.2441 35.7913 13.7471 35.9844 15.4769C36.2557 16.8752 37.1198 18.1051 38.273 18.931C39.5958 19.7743 41.0308 19.9917 42.5655 19.6806C43.9934 19.2402 45.0971 18.4528 45.8797 17.1675C46.5814 15.8336 46.808 14.5122 46.3924 13.0404C46.1637 12.3641 45.8515 11.7829 45.4488 11.1954L45.2516 10.8926C44.23 9.8426 42.7976 9.16314 41.3292 9.13916C39.7934 9.15984 38.3345 9.71326 37.2823 10.8653Z" fill="#703391"/>
<path fill-rule="evenodd" clip-rule="evenodd" d="M41.0145 1.01298C41.2643 1.01249 41.5139 1.0084 41.7636 1.00413C41.9237 1.00346 42.0838 1.00302 42.2438 1.00281L42.6821 1C43.2343 1.07546 43.5745 1.31801 43.9603 1.71052C44.1356 2.02613 44.1849 2.32556 44.2425 2.6755L44.2517 2.73073C44.3855 3.3952 44.4772 3.7715 44.9981 4.20955C45.5376 4.50925 45.961 4.6146 46.5755 4.54756C46.8965 4.42052 47.1617 4.286 47.4254 4.06167C47.9285 3.64101 48.32 3.58331 48.9702 3.58237C49.6731 3.72735 50.1917 4.27133 50.6817 4.78537C50.7689 4.87686 50.8552 4.96741 50.9415 5.05458L51.2034 5.31382L51.6804 5.79245C52.1081 6.2856 52.1631 6.73024 52.1563 7.36876C52.0658 7.87291 51.8074 8.19976 51.4912 8.59318C51.1529 9.02804 51.1512 9.42069 51.195 9.9558C51.4027 10.5607 51.6696 10.9497 52.2091 11.3079C52.3949 11.3596 52.4895 11.3859 52.5854 11.406C52.6848 11.4268 52.7856 11.441 52.9908 11.4698C53.6517 11.5972 54.0179 11.7028 54.4625 12.2092C54.7723 12.6827 54.7545 13.2617 54.7374 13.8217C54.7335 13.9482 54.7296 14.0742 54.7296 14.1972C54.7301 14.447 54.7342 14.6966 54.7385 14.9464C54.7391 15.1064 54.7396 15.2665 54.7398 15.4265L54.7426 15.8648C54.6611 16.461 54.3934 16.8042 53.9485 17.195C53.5837 17.3806 53.3391 17.4422 52.9415 17.5048C52.4059 17.5906 52.0542 17.6895 51.6457 18.0682C51.271 18.6074 51.1005 19.0963 51.195 19.7582C51.3695 20.2147 51.5941 20.5951 51.8992 20.9765C52.1924 21.5105 52.2033 21.9797 52.0964 22.575C51.9356 22.9403 51.6963 23.191 51.4204 23.4764L51.2591 23.6501C51.0755 23.8477 50.8893 24.0427 50.7021 24.2369L50.5216 24.4266C49.982 24.9679 49.4151 25.3483 48.6459 25.4411C48.1005 25.3704 47.7383 25.1864 47.329 24.8214C46.9118 24.5207 46.5251 24.4052 46.0121 24.3778C45.3774 24.4868 44.9582 24.7838 44.5474 25.2792C44.34 25.6283 44.2852 25.9275 44.2376 26.3284C44.1445 26.8681 43.9944 27.196 43.6377 27.607C43.013 28.0416 42.2561 28.0313 41.5202 28.0214C41.4234 28.0201 41.3264 28.0188 41.2306 28.0185L40.8572 28.024C40.0097 28.0245 39.2978 27.9978 38.6449 27.3983C38.4207 27.0081 38.3407 26.624 38.2589 26.1876C38.1203 25.5586 37.9991 25.0745 37.4394 24.7066C36.8589 24.4281 36.4418 24.3103 35.8083 24.4975C35.3168 24.6868 34.9374 24.9617 34.5196 25.2792C34.0004 25.4522 33.57 25.467 33.0618 25.2511C32.7167 25.0537 32.4715 24.852 32.1905 24.5723L31.9075 24.2906L31.6183 23.9975L31.3239 23.707L30.7875 23.1682C30.4725 22.788 30.3637 22.4637 30.3085 21.9765C30.3757 21.3159 30.6717 20.845 31.0479 20.3075C31.3208 19.8747 31.4171 19.5682 31.3151 19.0593C31.1488 18.4854 30.9488 18.1026 30.4635 17.7301C30.3083 17.6554 30.2291 17.6173 30.1465 17.5893C30.0605 17.5601 29.9707 17.5419 29.7874 17.5048L29.5678 17.4392C29.3202 17.3812 29.1387 17.3608 28.8861 17.3921C28.735 17.579 28.584 17.7659 28.4334 17.9531C28.0436 18.3505 27.55 18.6124 27.0598 18.8725C26.964 18.9234 26.8682 18.9742 26.7735 19.0259C26.6324 19.1044 26.4915 19.1831 26.3506 19.2619C26.061 19.424 25.771 19.5853 25.4808 19.7462C24.8547 20.0943 24.2348 20.4533 23.6149 20.8123L23.5623 20.8427L23.203 21.0498C22.5861 21.4057 21.9708 21.7643 21.3573 22.1261L20.9815 22.3472C20.7453 22.4864 20.5093 22.6261 20.2736 22.7663L19.9542 22.9544L19.6745 23.1203C18.8215 23.5614 17.745 23.4828 16.7784 23.4123C16.4393 23.3875 16.1138 23.3637 15.8161 23.3637V31.2507H19.4216C20.4614 31.6667 21.123 31.9534 21.5817 32.9584C21.8673 33.7078 21.8522 34.4882 21.8369 35.2756C21.835 35.3754 21.8331 35.4754 21.8318 35.5754C21.8309 35.7633 21.8303 35.9511 21.8298 36.139C21.8281 36.6298 21.8237 37.1206 21.8187 37.6115C21.8144 38.0734 21.8124 38.5354 21.8103 38.9974L21.8097 39.1184C21.8049 40.1014 21.7973 41.0843 21.7877 42.0672L21.7891 42.0664C23.0278 41.3438 23.6474 40.9824 24.2643 40.6164C24.8813 40.2502 25.4956 39.8794 26.7242 39.1378C27.6129 38.5941 28.5048 38.0595 29.4164 37.5549C29.9452 37.2621 30.4646 36.9555 30.9818 36.6428C31.7102 36.2026 32.4423 35.7687 33.1746 35.3351L33.3744 35.2168C34.3436 34.6428 35.3132 34.0696 36.283 33.4968C37.1041 33.0118 37.9245 32.5257 38.7448 32.0395C39.7641 31.4352 40.7838 30.8318 41.8041 30.2292C42.6251 29.7442 43.4455 29.2582 44.2657 28.772C45.1855 28.2267 46.1055 27.682 47.0262 27.1382C47.9351 26.6014 48.8434 26.0638 49.7514 25.5256L50.1346 25.2985C50.7311 24.945 51.3275 24.5914 51.9239 24.2376L53.304 23.4191C53.5372 23.2807 53.7707 23.1427 54.0043 23.005C54.2432 22.8635 54.4813 22.7207 54.7187 22.5768L55.0791 22.3607L55.4009 22.1657C55.6999 22.0127 55.9316 21.9306 56.2653 21.899C56.5225 22.0276 56.7374 22.1458 56.9413 22.3497C56.9526 22.5191 56.9561 22.689 56.9564 22.8588L56.9579 23.1943L56.9579 23.5672L56.9591 23.9599C56.9602 24.3213 56.9607 24.6827 56.961 25.044C56.9614 25.3845 56.9622 25.7249 56.9631 26.0654L56.9635 26.2113C56.9657 27.1518 56.9669 28.0922 56.9679 29.0326L56.9695 30.3599C56.9715 31.8298 56.9731 33.2997 56.9739 34.7696L56.9747 36.2022C56.9757 37.74 56.9785 39.2778 56.9822 40.8157C56.9859 42.393 56.9879 43.9704 56.9883 45.5478C56.9885 46.434 56.9895 47.3203 56.9924 48.2065C56.9948 48.9611 56.9958 49.7156 56.9947 50.4702C56.9941 50.8554 56.9944 51.2406 56.9965 51.6258C56.9985 52.0429 56.9977 52.4599 56.9963 52.877L57 53.2484L56.9971 53.5856L56.9974 53.8775C56.97 53.9974 56.956 54.0588 56.9286 54.1134C56.8999 54.1708 56.8565 54.2207 56.7677 54.323C56.3902 54.5112 56.0396 54.5078 55.6294 54.5039L55.6071 54.5037L55.3343 54.5051C55.0307 54.5064 54.7271 54.5052 54.4235 54.504C54.2044 54.5044 53.9853 54.505 53.7662 54.5056C53.1626 54.5071 52.559 54.5063 51.9554 54.5053C51.3793 54.5046 50.8032 54.5055 50.2271 54.5063L50.0043 54.5066C48.7294 54.5082 47.4546 54.5078 46.1797 54.5068C45.1437 54.5061 44.1077 54.506 43.0717 54.5063L41.7279 54.5068C39.0001 54.5078 36.2724 54.5068 33.5446 54.505C31.0545 54.5034 28.5643 54.5036 26.0742 54.5052C23.2773 54.507 20.4804 54.5077 17.6835 54.5067L16.3442 54.5062C15.3095 54.5059 14.2747 54.5064 13.24 54.5072C11.9789 54.5081 10.7178 54.5079 9.45671 54.5061C8.81309 54.5052 8.16949 54.5048 7.52587 54.506C6.93678 54.507 6.34771 54.5064 5.75862 54.5046C5.54541 54.5042 5.33219 54.5044 5.11898 54.5052C4.82922 54.5063 4.53954 54.5052 4.24979 54.5037L3.99881 54.506C3.15772 54.4969 2.42044 54.2356 1.80084 53.6544C1.16223 52.9243 0.984363 52.1988 1.00105 51.2438C1.07459 50.3431 1.35287 49.4594 1.62625 48.5913C1.6934 48.3781 1.76028 48.1657 1.82373 47.9543C1.90431 47.6802 1.98468 47.406 2.06483 47.1317C2.2144 46.6206 2.36456 46.1097 2.51562 45.599C2.82734 44.5448 3.13235 43.4888 3.43546 42.4321L3.79522 41.1779C4.02169 40.3881 4.24883 39.5985 4.47638 38.809C4.53872 38.5924 4.60084 38.3759 4.66297 38.1593C4.83414 37.5638 5.00662 36.969 5.19051 36.3773L5.27395 36.1061C5.34343 35.8819 5.41448 35.6582 5.48569 35.4345C5.61332 34.852 5.43107 34.4381 5.20144 33.9167L5.16867 33.8422C4.83734 33.0871 4.75713 32.4531 4.75437 31.6312L4.75213 31.3384C4.74992 31.0193 4.74859 30.7002 4.74747 30.3811L4.74608 30.0492C4.74373 29.4689 4.74212 28.8886 4.74106 28.3083C4.73982 27.7122 4.73594 27.1161 4.73146 26.5199C4.7285 26.0588 4.72757 25.5977 4.72717 25.1366C4.72662 24.9171 4.72532 24.6975 4.72322 24.478C4.70796 22.7784 4.81995 21.3768 5.90103 19.9836L6.15455 19.6315C6.96474 18.7845 8.01325 18.1837 9.16851 17.9555C9.42978 17.9502 9.69122 17.9518 9.95248 17.9574L10.4386 17.966L10.6985 17.9709C11.1784 17.9788 11.6584 17.9808 12.1383 17.9829L12.3708 17.9839C12.8571 17.9866 13.3431 17.992 13.8293 18.0038C16.2831 18.0608 18.0252 17.972 20.0632 16.4553C20.4124 16.2001 20.7743 15.9945 21.1526 15.7852L21.823 15.3993C22.5165 15 23.21 14.6007 23.9012 14.1973L24.2017 14.0222C24.3851 13.9152 24.5684 13.808 24.7515 13.7005L24.9949 13.5587L25.2048 13.4357C25.6366 13.2071 26.0108 13.208 26.4859 13.2091L26.52 13.2092L26.9425 13.2083C27.1281 13.2159 27.2196 13.2196 27.3088 13.2362C27.3955 13.2522 27.48 13.2804 27.6467 13.336L27.6929 13.1379C27.8526 12.5584 28.0348 12.1541 28.515 11.7814C28.8996 11.5797 29.309 11.5005 29.7294 11.4192C29.7848 11.4085 29.8404 11.3977 29.8961 11.3866C30.4831 11.2514 30.7907 11.053 31.1184 10.5332C31.3783 9.84927 31.3912 9.4193 31.143 8.73666C30.9737 8.37888 30.7443 8.12539 30.4809 7.83427L30.4635 7.81504C30.2807 7.26664 30.2733 6.79397 30.5224 6.26933C30.8176 5.70332 31.2402 5.29022 31.6958 4.85037L31.9359 4.61072C32.5842 3.97332 32.8231 3.73847 33.1082 3.64547C33.2746 3.59122 33.4567 3.58524 33.745 3.57577C34.4231 3.58955 34.8456 3.86268 35.3858 4.25136C35.8439 4.57407 36.2238 4.59258 36.7731 4.54756C37.2482 4.39243 37.5907 4.18512 37.935 3.82224C38.1191 3.43361 38.2004 3.10738 38.2871 2.68848C38.4348 1.98437 38.6004 1.55981 39.2193 1.15349C39.6656 0.982593 40.1655 0.994941 40.6508 1.00693C40.7733 1.00995 40.8949 1.01296 41.0145 1.01298ZM40.0406 2.74482L39.9138 3.35043C39.6778 4.27697 39.337 5.0452 38.5406 5.6109C37.6091 6.15895 36.7294 6.36596 35.6464 6.23764C34.9958 6.06145 34.4529 5.79978 33.9563 5.33626C33.5188 5.50404 33.2226 5.81292 32.9093 6.13962C32.8736 6.17682 32.8377 6.21424 32.8014 6.25172L32.6121 6.44406C32.4588 6.60009 32.3061 6.75681 32.1535 6.91367C32.2985 7.29524 32.4684 7.64247 32.6676 7.99813C33.1469 8.95948 33.1321 9.85153 32.837 10.873C32.5329 11.6886 32.0773 12.2887 31.3336 12.7479C30.786 12.9931 30.2137 13.0916 29.6278 13.1924C29.5685 13.2026 29.509 13.2129 29.4494 13.2233V15.7021L30.1184 15.8288C31.141 16.0658 31.8904 16.5162 32.4915 17.3921C32.9989 18.2537 33.174 19.1653 32.9761 20.1504C32.7906 20.7994 32.6021 21.2736 32.1535 21.7863C32.3213 22.2238 32.6302 22.52 32.9569 22.8333C32.994 22.8689 33.0316 22.905 33.069 22.9412L33.2613 23.1305C33.4174 23.2839 33.5741 23.4365 33.7309 23.5891C33.9518 23.4799 34.1711 23.3695 34.3872 23.2511C35.4302 22.6913 36.4584 22.5394 37.6089 22.8814C38.5888 23.2726 39.2385 23.8967 39.7017 24.8377C39.8337 25.22 39.9103 25.6189 39.9868 26.0169C40.0045 26.1091 40.0222 26.2013 40.0406 26.2932H42.5193L42.639 25.5749C42.8486 24.6066 43.2372 23.8386 44.0615 23.2581C45.0021 22.7478 46.0949 22.5303 47.1389 22.8004C47.5032 22.9606 47.8484 23.1365 48.1947 23.3325C48.3342 23.4123 48.4107 23.4561 48.493 23.4771C48.593 23.5025 48.7014 23.4944 48.9416 23.4764C49.0348 23.4129 49.0832 23.3799 49.1273 23.3419C49.1749 23.3008 49.2175 23.2538 49.306 23.156L49.5019 22.9557L49.7021 22.744L49.9077 22.5323C50.0749 22.3598 50.2408 22.1859 50.4063 22.0117C50.2011 21.5971 49.9752 21.1976 49.744 20.7969C49.3773 20.0713 49.3989 19.1847 49.586 18.4079C49.9403 17.3734 50.363 16.7279 51.3249 16.1853C51.867 15.9399 52.4163 15.8238 52.9978 15.7021V13.2233L51.8711 12.9979C50.9296 12.6728 50.2668 12.1334 49.8073 11.2471C49.3455 10.1303 49.3824 9.10968 49.8131 7.99197C49.9611 7.69125 50.1485 7.41142 50.3353 7.13258L50.4063 7.02634L48.7163 5.33626L48.2022 5.6602C47.2489 6.22633 46.3562 6.37714 45.2631 6.18526C44.2212 5.91437 43.552 5.36307 42.9907 4.45338C42.6829 3.89055 42.6153 3.41713 42.5242 2.77929L42.5193 2.74482H40.0406ZM25.1749 15.4345L24.8797 15.6023C24.5615 15.7839 24.2449 15.9681 23.9285 16.1527L23.2828 16.5268C22.8348 16.7872 22.3874 17.0486 21.9405 17.3107C21.2309 17.7267 20.5203 18.1407 19.8085 18.5528C19.6151 18.6648 19.422 18.7772 19.2288 18.8895L18.8737 19.095L18.5593 19.2773C18.0742 19.5395 17.6938 19.5474 17.1486 19.5489L16.9003 19.5501C16.7223 19.5509 16.5443 19.5515 16.3663 19.5519C16.0839 19.5527 15.8015 19.5545 15.5192 19.5566C14.7162 19.5625 13.9133 19.5679 13.1103 19.5696C12.619 19.5708 12.1277 19.5741 11.6364 19.5788C11.4498 19.5802 11.2632 19.5807 11.0766 19.5805C9.66893 19.5726 9.66892 19.5726 8.37981 20.0963L8.10737 20.2565C7.22899 20.9157 6.74391 21.6276 6.46439 22.6877C6.42129 23.0172 6.41689 23.3407 6.41887 23.6726L6.41653 23.9535C6.41448 24.2566 6.4149 24.5597 6.41554 24.8628C6.41502 25.0756 6.41442 25.2885 6.41375 25.5013C6.41274 25.9462 6.41301 26.3911 6.41414 26.836C6.41543 27.4034 6.41316 27.9707 6.40987 28.538C6.40779 28.9773 6.40783 29.4165 6.40847 29.8558C6.40849 30.0648 6.40781 30.2739 6.40641 30.4829C6.39722 32.0744 6.49395 33.3033 7.65625 34.4997C8.77537 35.4997 10.0509 35.5644 11.4967 35.5701C11.7297 35.571 11.9627 35.5733 12.1957 35.576C12.7708 35.5823 13.3459 35.5863 13.921 35.5903L13.9279 35.5904C14.4188 35.5939 14.9097 35.5983 15.4006 35.6039C15.6302 35.6062 15.8597 35.6071 16.0893 35.608L16.5089 35.6126L16.8792 35.6151C17.0177 35.6294 17.0898 35.6368 17.1522 35.6655C17.22 35.6967 17.2762 35.7529 17.3935 35.8703C17.4062 36.018 17.4134 36.1014 17.4175 36.1849C17.4229 36.2931 17.4233 36.4015 17.4241 36.6505L17.4259 36.8938C17.427 37.0684 17.4277 37.243 17.4279 37.4176C17.4283 37.6942 17.4302 37.9708 17.4325 38.2474C17.4387 39.0339 17.4422 39.8205 17.445 40.6071C17.4467 41.0881 17.4502 41.569 17.4545 42.05C17.4558 42.2331 17.4565 42.4162 17.4565 42.5993C17.4565 42.856 17.4586 43.1127 17.4611 43.3694L17.4628 43.8117C17.5274 44.4013 17.7093 44.7617 18.147 45.1587C18.558 45.3525 18.7701 45.3804 19.2077 45.2991C19.5631 45.1711 19.756 44.9502 19.985 44.6587C20.1177 44.2605 20.1169 43.8798 20.116 43.4712C20.1159 43.4283 20.1158 43.3851 20.1158 43.3415L20.1175 43.0382C20.1192 42.7068 20.1199 42.3754 20.1206 42.0439L20.1225 41.353C20.1237 40.8699 20.1243 40.3867 20.1247 39.9036C20.1254 39.2848 20.1281 38.6662 20.1313 38.0475C20.1334 37.5716 20.1339 37.0958 20.1341 36.6199C20.1345 36.3918 20.1354 36.1638 20.1368 35.9357C20.1388 35.6164 20.1386 35.2971 20.1378 34.9778L20.141 34.6931C20.137 34.138 20.0642 33.7612 19.7597 33.2788C19.3122 32.8853 18.837 32.8894 18.2846 32.8941C18.2379 32.8945 18.1905 32.8949 18.1426 32.8951L17.8368 32.8914C17.4429 32.8866 17.049 32.8851 16.6551 32.8836L16.545 32.8832C16.2301 32.8815 15.9153 32.8777 15.6005 32.8739L15.3049 32.875L15.0302 32.8715L14.789 32.8708C14.508 32.8143 14.4185 32.7105 14.2387 32.4901C14.2071 32.1455 14.1961 31.8241 14.2004 31.4795L14.2002 31.1663C14.2005 30.8243 14.2031 30.4823 14.2057 30.1403C14.2064 29.9033 14.2068 29.6664 14.2072 29.4294C14.2085 28.8053 14.2118 28.1813 14.2155 27.5573C14.2187 26.9698 14.2203 26.3823 14.2218 25.7948L14.2222 25.6473C14.2259 24.3979 14.2316 23.1484 14.2387 21.899C14.6751 21.7768 15.0767 21.788 15.5257 21.8061C17.7624 21.8618 19.2571 21.6615 21.1228 20.3224C21.6285 19.9726 22.1628 19.6729 22.6984 19.3726L22.6992 19.3721C22.771 19.3318 22.8427 19.2916 22.9145 19.2512C23.1579 19.1109 23.4011 18.9704 23.6442 18.8296C24.1448 18.5406 24.6467 18.254 25.1494 17.9687L25.8862 17.5471L26.2312 17.3532C26.6111 17.1386 26.8 17.0319 26.9634 16.8949C27.1251 16.7594 27.2619 16.5941 27.5339 16.2655C27.6142 15.7659 27.5941 15.5623 27.3016 15.1457C26.5569 14.6229 25.9166 14.9989 25.2279 15.4034L25.1749 15.4345ZM54.3217 24.7933C54.1668 24.8875 54.0119 24.9817 53.8569 25.0758L53.6021 25.2308C53.1689 25.4927 52.7328 25.7497 52.2968 26.0066L51.2038 26.6517C50.603 27.0066 50.0027 27.3625 49.4024 27.7183L47.8149 28.6593C45.876 29.8087 43.9365 30.9568 41.9957 32.1029C40.2538 33.1317 38.5133 34.1627 36.7731 35.1943C35.2464 36.0993 33.7195 37.0041 32.1913 37.9067C31.0099 38.6046 29.8295 39.3044 28.6492 40.0041L28.6474 40.0052L26.2739 41.4122C25.6688 41.7708 25.0635 42.129 24.4575 42.4862L24.1181 42.6864C23.9104 42.8088 23.7027 42.9312 23.4948 43.0534C23.3114 43.1615 23.1285 43.2704 22.946 43.38C22.7754 43.4809 22.6029 43.5785 22.4285 43.6727C22.0272 43.8981 21.8263 44.0118 21.6289 44.4391L21.5554 44.8066C21.3388 45.6352 21.0358 46.1739 20.2865 46.6159C19.6315 46.9131 19.0075 47.0036 18.2949 46.9121L17.9036 46.7449C17.4219 46.6217 17.1447 46.7743 16.7249 47.0054L16.6977 47.0204C16.4266 47.1814 16.1601 47.3492 15.8936 47.5177C15.749 47.6063 15.6042 47.6946 15.4592 47.7826C15.1604 47.9643 14.8626 48.1474 14.5654 48.3316C13.9731 48.6978 13.373 49.0509 12.7728 49.404L12.5557 49.5317C12.3057 49.68 12.0557 49.8283 11.8057 49.9767C11.1172 50.3853 10.4282 50.7932 9.73891 51.2007L9.43212 51.3822C9.00631 51.634 8.58017 51.8849 8.15139 52.1315L7.7742 52.3485L7.46171 52.5263L7.25309 52.6584V52.771H55.2512V24.3778C54.9563 24.3778 54.7239 24.5307 54.4855 24.6877C54.4314 24.7233 54.3771 24.759 54.3217 24.7933ZM7.02775 36.2083C5.90857 40.0424 4.79892 43.8791 3.69684 47.7181L2.95014 50.3191C2.88632 50.5367 2.81796 50.7531 2.74623 50.9683C2.67805 51.4796 2.65816 51.9419 2.96453 52.3767C3.41261 52.7425 3.7513 52.8256 4.32363 52.771C4.72028 52.6214 4.92138 52.4864 5.105 52.0969C5.46285 51.0888 5.75659 50.0626 6.05078 49.0348L6.09953 48.8645L6.28735 48.2129C6.452 47.6416 6.61615 47.0702 6.78017 46.4987C6.94986 45.9079 7.12 45.3171 7.29014 44.7264L7.36829 44.455C7.52715 43.9033 7.6859 43.3516 7.84437 42.7998C8.12724 41.8152 8.4111 40.8309 8.69962 39.8479L8.84482 39.3522C8.9326 39.0526 9.02095 38.7533 9.10966 38.454L9.22477 38.0616L9.32457 37.724C9.40756 37.4405 9.40756 37.4405 9.39386 37.1097L9.12582 37.0269C8.44863 36.8109 7.85923 36.5773 7.25309 36.2083H7.02775ZM11.1966 37.2223C10.9925 37.7666 10.8039 38.2799 10.6452 38.8336L10.5284 39.2387L10.4048 39.6721L10.2732 40.1302C10.1563 40.5369 10.0399 40.9438 9.92354 41.3508C9.81644 41.7254 9.70913 42.0999 9.60181 42.4745L9.56231 42.6124C9.41767 43.1172 9.27307 43.6222 9.12865 44.1271C8.84568 45.1162 8.56008 46.1045 8.27198 47.0921C8.17747 47.4175 8.08306 47.7428 7.9887 48.0682C7.93043 48.2685 7.87184 48.4687 7.81291 48.6687C7.73283 48.9407 7.65391 49.2131 7.57526 49.4855L7.50448 49.7224C7.39961 50.09 7.35445 50.2583 7.47844 50.6303C8.52022 50.0331 9.0411 49.7346 9.55963 49.432C10.0781 49.1294 10.5943 48.8228 11.6266 48.2096C12.0295 47.9661 12.4349 47.7268 12.8405 47.4878L13.2489 47.2468C13.4527 47.1266 13.6564 47.0065 13.8604 46.8867C14.6406 46.4285 15.4088 45.9606 16.1542 45.4474L16.0444 45.1023C15.8864 44.466 15.8849 43.8161 15.8835 43.1646C15.8832 43.0618 15.883 42.9588 15.8822 42.8559C15.88 42.693 15.8778 42.5301 15.8755 42.3672C15.8698 41.9412 15.8653 41.5152 15.8611 41.0891C15.8566 40.6509 15.8508 40.2127 15.8451 39.7745L15.8422 39.5513C15.8339 38.8986 15.827 38.2459 15.8201 37.5932L15.8161 37.2223H11.1966Z" fill="#703391"/>
<path fill-rule="evenodd" clip-rule="evenodd" d="M17.0555 12.0966C16.8609 10.8656 16.1665 9.82485 15.1823 9.07556C13.1472 7.74965 10.5912 8.03815 8.92686 9.8022C8.11976 10.8302 7.77433 11.9742 7.82347 13.2655C7.96734 14.6552 8.5706 15.6798 9.62577 16.5748C10.7083 17.3713 11.9726 17.63 13.288 17.4696L13.5627 17.3921C14.5175 17.1525 15.2904 16.7168 15.9592 15.9859C16.8941 14.7839 17.1703 13.6044 17.0555 12.0966ZM9.56284 13.5261C9.41361 12.6338 9.62668 11.7776 10.1447 11.0425C10.8339 10.1941 11.9277 9.82213 12.9993 9.9558C13.8861 10.2514 14.4879 10.6413 15.0274 11.4205C15.4514 12.1693 15.4609 12.971 15.295 13.8007C14.8615 14.7072 14.2736 15.3108 13.3373 15.7021C12.5369 15.9027 11.8224 15.8489 11.0839 15.4767C10.3911 15.0013 9.79252 14.3491 9.56284 13.5261Z" fill="#703391"/>
<path fill-rule="evenodd" clip-rule="evenodd" d="M45.5997 8.8993C47.1582 10.2515 48.1286 11.9093 48.3012 13.9915C48.3635 16.0479 47.747 17.7816 46.4034 19.3562C45.213 20.5936 43.5672 21.4067 41.8455 21.4864C39.6206 21.5251 37.8848 21.018 36.2299 19.4477C34.7802 17.9565 34.2346 16.185 34.247 14.1472C34.2925 12.4254 34.9736 10.7759 36.1701 9.51943C38.7572 7.18157 42.763 6.57877 45.5997 8.8993ZM37.2823 10.8653C36.1965 12.2441 35.7913 13.7471 35.9844 15.4769C36.2557 16.8752 37.1198 18.1051 38.273 18.931C39.5958 19.7743 41.0308 19.9917 42.5655 19.6806C43.9934 19.2402 45.0971 18.4528 45.8797 17.1675C46.5814 15.8336 46.808 14.5122 46.3924 13.0404C46.1637 12.3641 45.8515 11.7829 45.4488 11.1954L45.2516 10.8926C44.23 9.8426 42.7976 9.16314 41.3292 9.13916C39.7934 9.15984 38.3345 9.71326 37.2823 10.8653Z" stroke="#703391"/>
<path fill-rule="evenodd" clip-rule="evenodd" d="M41.0145 1.01298C41.2643 1.01249 41.5139 1.0084 41.7636 1.00413C41.9237 1.00346 42.0838 1.00302 42.2438 1.00281L42.6821 1C43.2343 1.07546 43.5745 1.31801 43.9603 1.71052C44.1356 2.02613 44.1849 2.32556 44.2425 2.6755L44.2517 2.73073C44.3855 3.3952 44.4772 3.7715 44.9981 4.20955C45.5376 4.50925 45.961 4.6146 46.5755 4.54756C46.8965 4.42052 47.1617 4.286 47.4254 4.06167C47.9285 3.64101 48.32 3.58331 48.9702 3.58237C49.6731 3.72735 50.1917 4.27133 50.6817 4.78537C50.7689 4.87686 50.8552 4.96741 50.9415 5.05458L51.2034 5.31382L51.6804 5.79245C52.1081 6.2856 52.1631 6.73024 52.1563 7.36876C52.0658 7.87291 51.8074 8.19976 51.4912 8.59318C51.1529 9.02804 51.1512 9.42069 51.195 9.9558C51.4027 10.5607 51.6696 10.9497 52.2091 11.3079C52.3949 11.3596 52.4895 11.3859 52.5854 11.406C52.6848 11.4268 52.7856 11.441 52.9908 11.4698C53.6517 11.5972 54.0179 11.7028 54.4625 12.2092C54.7723 12.6827 54.7545 13.2617 54.7374 13.8217C54.7335 13.9482 54.7296 14.0742 54.7296 14.1972C54.7301 14.447 54.7342 14.6966 54.7385 14.9464C54.7391 15.1064 54.7396 15.2665 54.7398 15.4265L54.7426 15.8648C54.6611 16.461 54.3934 16.8042 53.9485 17.195C53.5837 17.3806 53.3391 17.4422 52.9415 17.5048C52.4059 17.5906 52.0542 17.6895 51.6457 18.0682C51.271 18.6074 51.1005 19.0963 51.195 19.7582C51.3695 20.2147 51.5941 20.5951 51.8992 20.9765C52.1924 21.5105 52.2033 21.9797 52.0964 22.575C51.9356 22.9403 51.6963 23.191 51.4204 23.4764L51.2591 23.6501C51.0755 23.8477 50.8893 24.0427 50.7021 24.2369L50.5216 24.4266C49.982 24.9679 49.4151 25.3483 48.6459 25.4411C48.1005 25.3704 47.7383 25.1864 47.329 24.8214C46.9118 24.5207 46.5251 24.4052 46.0121 24.3778C45.3774 24.4868 44.9582 24.7838 44.5474 25.2792C44.34 25.6283 44.2852 25.9275 44.2376 26.3284C44.1445 26.8681 43.9944 27.196 43.6377 27.607C43.013 28.0416 42.2561 28.0313 41.5202 28.0214C41.4234 28.0201 41.3264 28.0188 41.2306 28.0185L40.8572 28.024C40.0097 28.0245 39.2978 27.9978 38.6449 27.3983C38.4207 27.0081 38.3407 26.624 38.2589 26.1876C38.1203 25.5586 37.9991 25.0745 37.4394 24.7066C36.8589 24.4281 36.4418 24.3103 35.8083 24.4975C35.3168 24.6868 34.9374 24.9617 34.5196 25.2792C34.0004 25.4522 33.57 25.467 33.0618 25.2511C32.7167 25.0537 32.4715 24.852 32.1905 24.5723L31.9075 24.2906L31.6183 23.9975L31.3239 23.707L30.7875 23.1682C30.4725 22.788 30.3637 22.4637 30.3085 21.9765C30.3757 21.3159 30.6717 20.845 31.0479 20.3075C31.3208 19.8747 31.4171 19.5682 31.3151 19.0593C31.1488 18.4854 30.9488 18.1026 30.4635 17.7301C30.3083 17.6554 30.2291 17.6173 30.1465 17.5893C30.0605 17.5601 29.9707 17.5419 29.7874 17.5048L29.5678 17.4392C29.3202 17.3812 29.1387 17.3608 28.8861 17.3921C28.735 17.579 28.584 17.7659 28.4334 17.9531C28.0436 18.3505 27.55 18.6124 27.0598 18.8725C26.964 18.9234 26.8682 18.9742 26.7735 19.0259C26.6324 19.1044 26.4915 19.1831 26.3506 19.2619C26.061 19.424 25.771 19.5853 25.4808 19.7462C24.8547 20.0943 24.2348 20.4533 23.6149 20.8123L23.5623 20.8427L23.203 21.0498C22.5861 21.4057 21.9708 21.7643 21.3573 22.1261L20.9815 22.3472C20.7453 22.4864 20.5093 22.6261 20.2736 22.7663L19.9542 22.9544L19.6745 23.1203C18.8215 23.5614 17.745 23.4828 16.7784 23.4123C16.4393 23.3875 16.1138 23.3637 15.8161 23.3637V31.2507H19.4216C20.4614 31.6667 21.123 31.9534 21.5817 32.9584C21.8673 33.7078 21.8522 34.4882 21.8369 35.2756C21.835 35.3754 21.8331 35.4754 21.8318 35.5754C21.8309 35.7633 21.8303 35.9511 21.8298 36.139C21.8281 36.6298 21.8237 37.1206 21.8187 37.6115C21.8144 38.0734 21.8124 38.5354 21.8103 38.9974L21.8097 39.1184C21.8049 40.1014 21.7973 41.0843 21.7877 42.0672L21.7891 42.0664C23.0278 41.3438 23.6474 40.9824 24.2643 40.6164C24.8813 40.2502 25.4956 39.8794 26.7242 39.1378C27.6129 38.5941 28.5048 38.0595 29.4164 37.5549C29.9452 37.2621 30.4646 36.9555 30.9818 36.6428C31.7102 36.2026 32.4423 35.7687 33.1746 35.3351L33.3744 35.2168C34.3436 34.6428 35.3132 34.0696 36.283 33.4968C37.1041 33.0118 37.9245 32.5257 38.7448 32.0395C39.7641 31.4352 40.7838 30.8318 41.8041 30.2292C42.6251 29.7442 43.4455 29.2582 44.2657 28.772C45.1855 28.2267 46.1055 27.682 47.0262 27.1382C47.9351 26.6014 48.8434 26.0638 49.7514 25.5256L50.1346 25.2985C50.7311 24.945 51.3275 24.5914 51.9239 24.2376L53.304 23.4191C53.5372 23.2807 53.7707 23.1427 54.0043 23.005C54.2432 22.8635 54.4813 22.7207 54.7187 22.5768L55.0791 22.3607L55.4009 22.1657C55.6999 22.0127 55.9316 21.9306 56.2653 21.899C56.5225 22.0276 56.7374 22.1458 56.9413 22.3497C56.9526 22.5191 56.9561 22.689 56.9564 22.8588L56.9579 23.1943L56.9579 23.5672L56.9591 23.9599C56.9602 24.3213 56.9607 24.6827 56.961 25.044C56.9614 25.3845 56.9622 25.7249 56.9631 26.0654L56.9635 26.2113C56.9657 27.1518 56.9669 28.0922 56.9679 29.0326L56.9695 30.3599C56.9715 31.8298 56.9731 33.2997 56.9739 34.7696L56.9747 36.2022C56.9757 37.74 56.9785 39.2778 56.9822 40.8157C56.9859 42.393 56.9879 43.9704 56.9883 45.5478C56.9885 46.434 56.9895 47.3203 56.9924 48.2065C56.9948 48.9611 56.9958 49.7156 56.9947 50.4702C56.9941 50.8554 56.9944 51.2406 56.9965 51.6258C56.9985 52.0429 56.9977 52.4599 56.9963 52.877L57 53.2484L56.9971 53.5856L56.9974 53.8775C56.97 53.9974 56.956 54.0588 56.9286 54.1134C56.8999 54.1708 56.8565 54.2207 56.7677 54.323C56.3902 54.5112 56.0396 54.5078 55.6294 54.5039L55.6071 54.5037L55.3343 54.5051C55.0307 54.5064 54.7271 54.5052 54.4235 54.504C54.2044 54.5044 53.9853 54.505 53.7662 54.5056C53.1626 54.5071 52.559 54.5063 51.9554 54.5053C51.3793 54.5046 50.8032 54.5055 50.2271 54.5063L50.0043 54.5066C48.7294 54.5082 47.4546 54.5078 46.1797 54.5068C45.1437 54.5061 44.1077 54.506 43.0717 54.5063L41.7279 54.5068C39.0001 54.5078 36.2724 54.5068 33.5446 54.505C31.0545 54.5034 28.5643 54.5036 26.0742 54.5052C23.2773 54.507 20.4804 54.5077 17.6835 54.5067L16.3442 54.5062C15.3095 54.5059 14.2747 54.5064 13.24 54.5072C11.9789 54.5081 10.7178 54.5079 9.45671 54.5061C8.81309 54.5052 8.16949 54.5048 7.52587 54.506C6.93678 54.507 6.34771 54.5064 5.75862 54.5046C5.54541 54.5042 5.33219 54.5044 5.11898 54.5052C4.82922 54.5063 4.53954 54.5052 4.24979 54.5037L3.99881 54.506C3.15772 54.4969 2.42044 54.2356 1.80084 53.6544C1.16223 52.9243 0.984363 52.1988 1.00105 51.2438C1.07459 50.3431 1.35287 49.4594 1.62625 48.5913C1.6934 48.3781 1.76028 48.1657 1.82373 47.9543C1.90431 47.6802 1.98468 47.406 2.06483 47.1317C2.2144 46.6206 2.36456 46.1097 2.51562 45.599C2.82734 44.5448 3.13235 43.4888 3.43546 42.4321L3.79522 41.1779C4.02169 40.3881 4.24883 39.5985 4.47638 38.809C4.53872 38.5924 4.60084 38.3759 4.66297 38.1593C4.83414 37.5638 5.00662 36.969 5.19051 36.3773L5.27395 36.1061C5.34343 35.8819 5.41448 35.6582 5.48569 35.4345C5.61332 34.852 5.43107 34.4381 5.20144 33.9167L5.16867 33.8422C4.83734 33.0871 4.75713 32.4531 4.75437 31.6312L4.75213 31.3384C4.74992 31.0193 4.74859 30.7002 4.74747 30.3811L4.74608 30.0492C4.74373 29.4689 4.74212 28.8886 4.74106 28.3083C4.73982 27.7122 4.73594 27.1161 4.73146 26.5199C4.7285 26.0588 4.72757 25.5977 4.72717 25.1366C4.72662 24.9171 4.72532 24.6975 4.72322 24.478C4.70796 22.7784 4.81995 21.3768 5.90103 19.9836L6.15455 19.6315C6.96474 18.7845 8.01325 18.1837 9.16851 17.9555C9.42978 17.9502 9.69122 17.9518 9.95248 17.9574L10.4386 17.966L10.6985 17.9709C11.1784 17.9788 11.6584 17.9808 12.1383 17.9829L12.3708 17.9839C12.8571 17.9866 13.3431 17.992 13.8293 18.0038C16.2831 18.0608 18.0252 17.972 20.0632 16.4553C20.4124 16.2001 20.7743 15.9945 21.1526 15.7852L21.823 15.3993C22.5165 15 23.21 14.6007 23.9012 14.1973L24.2017 14.0222C24.3851 13.9152 24.5684 13.808 24.7515 13.7005L24.9949 13.5587L25.2048 13.4357C25.6366 13.2071 26.0108 13.208 26.4859 13.2091L26.52 13.2092L26.9425 13.2083C27.1281 13.2159 27.2196 13.2196 27.3088 13.2362C27.3955 13.2522 27.48 13.2804 27.6467 13.336L27.6929 13.1379C27.8526 12.5584 28.0348 12.1541 28.515 11.7814C28.8996 11.5797 29.309 11.5005 29.7294 11.4192C29.7848 11.4085 29.8404 11.3977 29.8961 11.3866C30.4831 11.2514 30.7907 11.053 31.1184 10.5332C31.3783 9.84927 31.3912 9.4193 31.143 8.73666C30.9737 8.37888 30.7443 8.12539 30.4809 7.83427L30.4635 7.81504C30.2807 7.26664 30.2733 6.79397 30.5224 6.26933C30.8176 5.70332 31.2402 5.29022 31.6958 4.85037L31.9359 4.61072C32.5842 3.97332 32.8231 3.73847 33.1082 3.64547C33.2746 3.59122 33.4567 3.58524 33.745 3.57577C34.4231 3.58955 34.8456 3.86268 35.3858 4.25136C35.8439 4.57407 36.2238 4.59258 36.7731 4.54756C37.2482 4.39243 37.5907 4.18512 37.935 3.82224C38.1191 3.43361 38.2004 3.10738 38.2871 2.68848C38.4348 1.98437 38.6004 1.55981 39.2193 1.15349C39.6656 0.982593 40.1655 0.994941 40.6508 1.00693C40.7733 1.00995 40.8949 1.01296 41.0145 1.01298ZM40.0406 2.74482L39.9138 3.35043C39.6778 4.27697 39.337 5.0452 38.5406 5.6109C37.6091 6.15895 36.7294 6.36596 35.6464 6.23764C34.9958 6.06145 34.4529 5.79978 33.9563 5.33626C33.5188 5.50404 33.2226 5.81292 32.9093 6.13962C32.8736 6.17682 32.8377 6.21424 32.8014 6.25172L32.6121 6.44406C32.4588 6.60009 32.3061 6.75681 32.1535 6.91367C32.2985 7.29524 32.4684 7.64247 32.6676 7.99813C33.1469 8.95948 33.1321 9.85153 32.837 10.873C32.5329 11.6886 32.0773 12.2887 31.3336 12.7479C30.786 12.9931 30.2137 13.0916 29.6278 13.1924C29.5685 13.2026 29.509 13.2129 29.4494 13.2233V15.7021L30.1184 15.8288C31.141 16.0658 31.8904 16.5162 32.4915 17.3921C32.9989 18.2537 33.174 19.1653 32.9761 20.1504C32.7906 20.7994 32.6021 21.2736 32.1535 21.7863C32.3213 22.2238 32.6302 22.52 32.9569 22.8333C32.994 22.8689 33.0316 22.905 33.069 22.9412L33.2613 23.1305C33.4174 23.2839 33.5741 23.4365 33.7309 23.5891C33.9518 23.4799 34.1711 23.3695 34.3872 23.2511C35.4302 22.6913 36.4584 22.5394 37.6089 22.8814C38.5888 23.2726 39.2385 23.8967 39.7017 24.8377C39.8337 25.22 39.9103 25.6189 39.9868 26.0169C40.0045 26.1091 40.0222 26.2013 40.0406 26.2932H42.5193L42.639 25.5749C42.8486 24.6066 43.2372 23.8386 44.0615 23.2581C45.0021 22.7478 46.0949 22.5303 47.1389 22.8004C47.5032 22.9606 47.8484 23.1365 48.1947 23.3325C48.3342 23.4123 48.4107 23.4561 48.493 23.4771C48.593 23.5025 48.7014 23.4944 48.9416 23.4764C49.0348 23.4129 49.0832 23.3799 49.1273 23.3419C49.1749 23.3008 49.2175 23.2538 49.306 23.156L49.5019 22.9557L49.7021 22.744L49.9077 22.5323C50.0749 22.3598 50.2408 22.1859 50.4063 22.0117C50.2011 21.5971 49.9752 21.1976 49.744 20.7969C49.3773 20.0713 49.3989 19.1847 49.586 18.4079C49.9403 17.3734 50.363 16.7279 51.3249 16.1853C51.867 15.9399 52.4163 15.8238 52.9978 15.7021V13.2233L51.8711 12.9979C50.9296 12.6728 50.2668 12.1334 49.8073 11.2471C49.3455 10.1303 49.3824 9.10968 49.8131 7.99197C49.9611 7.69125 50.1485 7.41142 50.3353 7.13258L50.4063 7.02634L48.7163 5.33626L48.2022 5.6602C47.2489 6.22633 46.3562 6.37714 45.2631 6.18526C44.2212 5.91437 43.552 5.36307 42.9907 4.45338C42.6829 3.89055 42.6153 3.41713 42.5242 2.77929L42.5193 2.74482H40.0406ZM25.1749 15.4345L24.8797 15.6023C24.5615 15.7839 24.2449 15.9681 23.9285 16.1527L23.2828 16.5268C22.8348 16.7872 22.3874 17.0486 21.9405 17.3107C21.2309 17.7267 20.5203 18.1407 19.8085 18.5528C19.6151 18.6648 19.422 18.7772 19.2288 18.8895L18.8737 19.095L18.5593 19.2773C18.0742 19.5395 17.6938 19.5474 17.1486 19.5489L16.9003 19.5501C16.7223 19.5509 16.5443 19.5515 16.3663 19.5519C16.0839 19.5527 15.8015 19.5545 15.5192 19.5566C14.7162 19.5625 13.9133 19.5679 13.1103 19.5696C12.619 19.5708 12.1277 19.5741 11.6364 19.5788C11.4498 19.5802 11.2632 19.5807 11.0766 19.5805C9.66893 19.5726 9.66892 19.5726 8.37981 20.0963L8.10737 20.2565C7.22899 20.9157 6.74391 21.6276 6.46439 22.6877C6.42129 23.0172 6.41689 23.3407 6.41887 23.6726L6.41653 23.9535C6.41448 24.2566 6.4149 24.5597 6.41554 24.8628C6.41502 25.0756 6.41442 25.2885 6.41375 25.5013C6.41274 25.9462 6.41301 26.3911 6.41414 26.836C6.41543 27.4034 6.41316 27.9707 6.40987 28.538C6.40779 28.9773 6.40783 29.4165 6.40847 29.8558C6.40849 30.0648 6.40781 30.2739 6.40641 30.4829C6.39722 32.0744 6.49395 33.3033 7.65625 34.4997C8.77537 35.4997 10.0509 35.5644 11.4967 35.5701C11.7297 35.571 11.9627 35.5733 12.1957 35.576C12.7708 35.5823 13.3459 35.5863 13.921 35.5903L13.9279 35.5904C14.4188 35.5939 14.9097 35.5983 15.4006 35.6039C15.6302 35.6062 15.8597 35.6071 16.0893 35.608L16.5089 35.6126L16.8792 35.6151C17.0177 35.6294 17.0898 35.6368 17.1522 35.6655C17.22 35.6967 17.2762 35.7529 17.3935 35.8703C17.4062 36.018 17.4134 36.1014 17.4175 36.1849C17.4229 36.2931 17.4233 36.4015 17.4241 36.6505L17.4259 36.8938C17.427 37.0684 17.4277 37.243 17.4279 37.4176C17.4283 37.6942 17.4302 37.9708 17.4325 38.2474C17.4387 39.0339 17.4422 39.8205 17.445 40.6071C17.4467 41.0881 17.4502 41.569 17.4545 42.05C17.4558 42.2331 17.4565 42.4162 17.4565 42.5993C17.4565 42.856 17.4586 43.1127 17.4611 43.3694L17.4628 43.8117C17.5274 44.4013 17.7093 44.7617 18.147 45.1587C18.558 45.3525 18.7701 45.3804 19.2077 45.2991C19.5631 45.1711 19.756 44.9502 19.985 44.6587C20.1177 44.2605 20.1169 43.8798 20.116 43.4712C20.1159 43.4283 20.1158 43.3851 20.1158 43.3415L20.1175 43.0382C20.1192 42.7068 20.1199 42.3754 20.1206 42.0439L20.1225 41.353C20.1237 40.8699 20.1243 40.3867 20.1247 39.9036C20.1254 39.2848 20.1281 38.6662 20.1313 38.0475C20.1334 37.5716 20.1339 37.0958 20.1341 36.6199C20.1345 36.3918 20.1354 36.1638 20.1368 35.9357C20.1388 35.6164 20.1386 35.2971 20.1378 34.9778L20.141 34.6931C20.137 34.138 20.0642 33.7612 19.7597 33.2788C19.3122 32.8853 18.837 32.8894 18.2846 32.8941C18.2379 32.8945 18.1905 32.8949 18.1426 32.8951L17.8368 32.8914C17.4429 32.8866 17.049 32.8851 16.6551 32.8836L16.545 32.8832C16.2301 32.8815 15.9153 32.8777 15.6005 32.8739L15.3049 32.875L15.0302 32.8715L14.789 32.8708C14.508 32.8143 14.4185 32.7105 14.2387 32.4901C14.2071 32.1455 14.1961 31.8241 14.2004 31.4795L14.2002 31.1663C14.2005 30.8243 14.2031 30.4823 14.2057 30.1403C14.2064 29.9033 14.2068 29.6664 14.2072 29.4294C14.2085 28.8053 14.2118 28.1813 14.2155 27.5573C14.2187 26.9698 14.2203 26.3823 14.2218 25.7948L14.2222 25.6473C14.2259 24.3979 14.2316 23.1484 14.2387 21.899C14.6751 21.7768 15.0767 21.788 15.5257 21.8061C17.7624 21.8618 19.2571 21.6615 21.1228 20.3224C21.6285 19.9726 22.1628 19.6729 22.6984 19.3726L22.6992 19.3721C22.771 19.3318 22.8427 19.2916 22.9145 19.2512C23.1579 19.1109 23.4011 18.9704 23.6442 18.8296C24.1448 18.5406 24.6467 18.254 25.1494 17.9687L25.8862 17.5471L26.2312 17.3532C26.6111 17.1386 26.8 17.0319 26.9634 16.8949C27.1251 16.7594 27.2619 16.5941 27.5339 16.2655C27.6142 15.7659 27.5941 15.5623 27.3016 15.1457C26.5569 14.6229 25.9166 14.9989 25.2279 15.4034L25.1749 15.4345ZM54.3217 24.7933C54.1668 24.8875 54.0119 24.9817 53.8569 25.0758L53.6021 25.2308C53.1689 25.4927 52.7328 25.7497 52.2968 26.0066L51.2038 26.6517C50.603 27.0066 50.0027 27.3625 49.4024 27.7183L47.8149 28.6593C45.876 29.8087 43.9365 30.9568 41.9957 32.1029C40.2538 33.1317 38.5133 34.1627 36.7731 35.1943C35.2464 36.0993 33.7195 37.0041 32.1913 37.9067C31.0099 38.6046 29.8295 39.3044 28.6492 40.0041L28.6474 40.0052L26.2739 41.4122C25.6688 41.7708 25.0635 42.129 24.4575 42.4862L24.1181 42.6864C23.9104 42.8088 23.7027 42.9312 23.4948 43.0534C23.3114 43.1615 23.1285 43.2704 22.946 43.38C22.7754 43.4809 22.6029 43.5785 22.4285 43.6727C22.0272 43.8981 21.8263 44.0118 21.6289 44.4391L21.5554 44.8066C21.3388 45.6352 21.0358 46.1739 20.2865 46.6159C19.6315 46.9131 19.0075 47.0036 18.2949 46.9121L17.9036 46.7449C17.4219 46.6217 17.1447 46.7743 16.7249 47.0054L16.6977 47.0204C16.4266 47.1814 16.1601 47.3492 15.8936 47.5177C15.749 47.6063 15.6042 47.6946 15.4592 47.7826C15.1604 47.9643 14.8626 48.1474 14.5654 48.3316C13.9731 48.6978 13.373 49.0509 12.7728 49.404L12.5557 49.5317C12.3057 49.68 12.0557 49.8283 11.8057 49.9767C11.1172 50.3853 10.4282 50.7932 9.73891 51.2007L9.43212 51.3822C9.00631 51.634 8.58017 51.8849 8.15139 52.1315L7.7742 52.3485L7.46171 52.5263L7.25309 52.6584V52.771H55.2512V24.3778C54.9563 24.3778 54.7239 24.5307 54.4855 24.6877C54.4314 24.7233 54.3771 24.759 54.3217 24.7933ZM7.02775 36.2083C5.90857 40.0424 4.79892 43.8791 3.69684 47.7181L2.95014 50.3191C2.88632 50.5367 2.81796 50.7531 2.74623 50.9683C2.67805 51.4796 2.65816 51.9419 2.96453 52.3767C3.41261 52.7425 3.7513 52.8256 4.32363 52.771C4.72028 52.6214 4.92138 52.4864 5.105 52.0969C5.46285 51.0888 5.75659 50.0626 6.05078 49.0348L6.09953 48.8645L6.28735 48.2129C6.452 47.6416 6.61615 47.0702 6.78017 46.4987C6.94986 45.9079 7.12 45.3171 7.29014 44.7264L7.36829 44.455C7.52715 43.9033 7.6859 43.3516 7.84437 42.7998C8.12724 41.8152 8.4111 40.8309 8.69962 39.8479L8.84482 39.3522C8.9326 39.0526 9.02095 38.7533 9.10966 38.454L9.22477 38.0616L9.32457 37.724C9.40756 37.4405 9.40756 37.4405 9.39386 37.1097L9.12582 37.0269C8.44863 36.8109 7.85923 36.5773 7.25309 36.2083H7.02775ZM11.1966 37.2223C10.9925 37.7666 10.8039 38.2799 10.6452 38.8336L10.5284 39.2387L10.4048 39.6721L10.2732 40.1302C10.1563 40.5369 10.0399 40.9438 9.92354 41.3508C9.81644 41.7254 9.70913 42.0999 9.60181 42.4745L9.56231 42.6124C9.41767 43.1172 9.27307 43.6222 9.12865 44.1271C8.84568 45.1162 8.56008 46.1045 8.27198 47.0921C8.17747 47.4175 8.08306 47.7428 7.9887 48.0682C7.93043 48.2685 7.87184 48.4687 7.81291 48.6687C7.73283 48.9407 7.65391 49.2131 7.57526 49.4855L7.50448 49.7224C7.39961 50.09 7.35445 50.2583 7.47844 50.6303C8.52022 50.0331 9.0411 49.7346 9.55963 49.432C10.0781 49.1294 10.5943 48.8228 11.6266 48.2096C12.0295 47.9661 12.4349 47.7268 12.8405 47.4878L13.2489 47.2468C13.4527 47.1266 13.6564 47.0065 13.8604 46.8867C14.6406 46.4285 15.4088 45.9606 16.1542 45.4474L16.0444 45.1023C15.8864 44.466 15.8849 43.8161 15.8835 43.1646C15.8832 43.0618 15.883 42.9588 15.8822 42.8559C15.88 42.693 15.8778 42.5301 15.8755 42.3672C15.8698 41.9412 15.8653 41.5152 15.8611 41.0891C15.8566 40.6509 15.8508 40.2127 15.8451 39.7745L15.8422 39.5513C15.8339 38.8986 15.827 38.2459 15.8201 37.5932L15.8161 37.2223H11.1966Z" stroke="#703391"/>
<path fill-rule="evenodd" clip-rule="evenodd" d="M17.0555 12.0966C16.8609 10.8656 16.1665 9.82485 15.1823 9.07556C13.1472 7.74965 10.5912 8.03815 8.92686 9.8022C8.11976 10.8302 7.77433 11.9742 7.82347 13.2655C7.96734 14.6552 8.5706 15.6798 9.62577 16.5748C10.7083 17.3713 11.9726 17.63 13.288 17.4696L13.5627 17.3921C14.5175 17.1525 15.2904 16.7168 15.9592 15.9859C16.8941 14.7839 17.1703 13.6044 17.0555 12.0966ZM9.56284 13.5261C9.41361 12.6338 9.62668 11.7776 10.1447 11.0425C10.8339 10.1941 11.9277 9.82213 12.9993 9.9558C13.8861 10.2514 14.4879 10.6413 15.0274 11.4205C15.4514 12.1693 15.4609 12.971 15.295 13.8007C14.8615 14.7072 14.2736 15.3108 13.3373 15.7021C12.5369 15.9027 11.8224 15.8489 11.0839 15.4767C10.3911 15.0013 9.79252 14.3491 9.56284 13.5261Z" stroke="#703391"/>
</svg>
