<svg width="58" height="56" viewBox="0 0 58 56" fill="none" xmlns="http://www.w3.org/2000/svg">
<path d="M35.2343 11.5072C35.3921 11.5063 35.5499 11.5055 35.7125 11.5045C35.8884 11.5042 36.0643 11.5038 36.2402 11.5035C36.4247 11.5027 36.6092 11.5019 36.7937 11.501C37.401 11.4984 38.0083 11.4971 38.6155 11.4959C38.8247 11.4954 39.034 11.4949 39.2432 11.4943C40.2268 11.492 41.2104 11.4902 42.1941 11.4891C43.3279 11.4879 44.4617 11.4847 45.5955 11.4796C46.4726 11.4758 47.3497 11.474 48.2268 11.4736C48.7502 11.4733 49.2736 11.4722 49.797 11.469C50.2903 11.4661 50.7836 11.4656 51.2769 11.4669C51.4571 11.4669 51.6373 11.4662 51.8174 11.4644C53.4382 11.4498 54.6095 11.7077 55.792 12.8514C56.7736 13.9275 56.9717 14.9405 56.9678 16.3673C56.9684 16.5168 56.9689 16.6663 56.9695 16.8204C56.9708 17.2344 56.971 17.6484 56.9707 18.0624C56.9707 18.5094 56.972 18.9563 56.9732 19.4032C56.9753 20.2785 56.976 21.1537 56.9761 22.029C56.9762 22.7407 56.9767 23.4523 56.9775 24.164C56.9797 26.1826 56.9809 28.2012 56.9807 30.2198C56.9807 30.3286 56.9807 30.4374 56.9807 30.5495C56.9807 30.6584 56.9806 30.7674 56.9806 30.8796C56.9805 32.6444 56.9829 34.4091 56.9864 36.1739C56.99 37.9869 56.9917 39.7998 56.9915 41.6128C56.9914 42.6303 56.9921 43.6477 56.9948 44.6652C56.9971 45.5316 56.9976 46.398 56.9959 47.2644C56.9951 47.7062 56.9951 48.1479 56.9973 48.5896C56.9996 49.0693 56.998 49.5489 56.9961 50.0286C56.9974 50.1671 56.9987 50.3057 57 50.4484C56.9879 51.8183 56.543 52.9628 55.5631 53.9358C54.4339 54.772 53.4575 54.9708 52.0773 54.967C51.9259 54.9676 51.7745 54.9681 51.6186 54.9687C51.1993 54.97 50.7801 54.9702 50.3608 54.9699C49.9083 54.9699 49.4557 54.9713 49.0032 54.9724C48.1169 54.9745 47.2305 54.9752 46.3442 54.9753C45.6234 54.9755 44.9027 54.976 44.182 54.9768C42.1375 54.9789 40.093 54.9801 38.0485 54.9799C37.9384 54.9799 37.8282 54.9799 37.7146 54.9799C37.6043 54.9799 37.494 54.9799 37.3803 54.9799C35.5932 54.9797 33.8061 54.9821 32.019 54.9857C30.1829 54.9892 28.3468 54.991 26.5108 54.9907C25.4804 54.9907 24.45 54.9913 23.4196 54.994C22.5422 54.9963 21.6647 54.9968 20.7873 54.9952C20.3399 54.9943 19.8926 54.9943 19.4453 54.9965C18.9593 54.9988 18.4735 54.9973 17.9876 54.9953C17.8475 54.9966 17.7075 54.9979 17.5632 54.9992C16.1418 54.9868 15.0917 54.5981 14.069 53.6074C13.2654 52.7279 12.8974 51.8268 12.8924 50.6205C12.8911 50.4606 12.8899 50.3008 12.8886 50.1361C12.8885 49.9612 12.8884 49.7863 12.8884 49.6114C12.8874 49.4255 12.8864 49.2395 12.8852 49.0536C12.8825 48.5506 12.8814 48.0476 12.8808 47.5445C12.8803 47.2301 12.8795 46.9156 12.8786 46.6012C12.8756 45.5038 12.874 44.4063 12.8735 43.3089C12.8731 42.2864 12.8693 41.2639 12.8641 40.2414C12.8598 39.3627 12.8579 38.4839 12.8578 37.6052C12.8577 37.0807 12.8566 36.5562 12.853 36.0318C12.8498 35.5389 12.8495 35.046 12.8515 34.5531C12.8517 34.3724 12.8509 34.1916 12.8489 34.0108C12.8464 33.7639 12.848 33.517 12.8499 33.2701C12.8497 33.132 12.8494 32.9939 12.8492 32.8516C12.9517 32.3607 13.169 32.172 13.5499 31.8575C13.8236 31.7778 13.8236 31.7778 14.1013 31.7753C14.2061 31.7728 14.3109 31.7704 14.4188 31.7679C14.5858 31.7686 14.5858 31.7686 14.7562 31.7693C14.8715 31.7675 14.9868 31.7656 15.1057 31.7636C15.4728 31.7583 15.8398 31.7572 16.2069 31.7562C16.4563 31.7533 16.7057 31.7501 16.9552 31.7467C17.5654 31.7388 18.1756 31.7348 18.786 31.7328C18.8177 31.6408 18.8495 31.5488 18.8822 31.454C18.9252 31.3322 18.9681 31.2103 19.0124 31.0848C19.0545 30.9645 19.0965 30.8442 19.1398 30.7202C19.7535 29.1969 21.0233 28.104 22.5041 27.4621C23.777 27.0162 25.5349 27.0545 26.7647 27.6165C28.3679 28.3961 29.3847 29.5784 30.0061 31.2339C30.0061 31.4397 30.0061 31.6455 30.0061 31.8575C31.2815 31.8575 32.5568 31.8575 33.8708 31.8575C33.865 31.5406 33.8593 31.2237 33.8533 30.8972C33.8494 30.5892 33.8464 30.2812 33.8434 29.9732C33.8409 29.7597 33.8375 29.5462 33.8332 29.3326C33.8271 29.0252 33.8243 28.7178 33.8221 28.4102C33.8183 28.2677 33.8183 28.2677 33.8143 28.1224C33.8141 27.6614 33.8549 27.3929 34.099 26.9973C34.4544 26.6637 34.7165 26.6326 35.1954 26.5641C36.3052 26.3551 37.1366 26.0042 37.7979 25.0594C38.3174 24.1755 38.4711 23.3989 38.3589 22.3776C38.1018 21.4084 37.6681 20.7123 36.8707 20.1012C36.3879 19.8252 35.9584 19.6648 35.4063 19.5852C35.2853 19.5677 35.1643 19.5501 35.0396 19.5321C34.9249 19.5184 34.8101 19.5047 34.6919 19.4907C34.2298 19.3377 34.1196 19.1833 33.8708 18.7603C33.7972 18.2744 33.804 17.793 33.809 17.3024C33.8088 17.1608 33.8086 17.0192 33.8084 16.8733C33.8086 16.5743 33.8101 16.2753 33.8127 15.9763C33.8163 15.5188 33.8152 15.0615 33.8136 14.604C33.8144 14.3133 33.8154 14.0226 33.8168 13.7319C33.8164 13.5952 33.816 13.4585 33.8157 13.3176C33.8172 13.1898 33.8188 13.062 33.8205 12.9303C33.8211 12.8184 33.8218 12.7064 33.8225 12.5911C33.8815 12.2042 34.0183 11.9668 34.2448 11.6503C34.5847 11.4803 34.8537 11.5087 35.2343 11.5072ZM35.9902 13.6461C35.9902 14.881 35.9902 16.1159 35.9902 17.3882C36.4839 17.594 36.9776 17.7998 37.4862 18.0119C38.9867 18.8067 39.8137 19.7999 40.3677 21.4085C40.7584 23.0701 40.5391 24.7065 39.6679 26.1665C38.9204 27.3135 37.8983 28.0269 36.6135 28.4897C36.305 28.5514 36.305 28.5514 35.9902 28.6144C35.9902 29.6846 35.9902 30.7549 35.9902 31.8575C36.3534 31.8636 36.7166 31.8698 37.0908 31.876C37.4427 31.8828 37.7947 31.8899 38.1466 31.8971C38.3911 31.9019 38.6356 31.9062 38.8801 31.9102C39.2317 31.9159 39.5832 31.9231 39.9348 31.9306C40.044 31.9321 40.1532 31.9335 40.2658 31.935C40.3681 31.9375 40.4704 31.9399 40.5758 31.9425C40.6655 31.9442 40.7552 31.9458 40.8476 31.9475C41.1502 31.9889 41.3462 32.0615 41.6003 32.2317C41.6999 32.5752 41.7724 32.8951 41.834 33.2452C42.0103 34.1004 42.2028 34.7289 42.8469 35.3501C42.9494 35.4548 42.9494 35.4548 43.0539 35.5616C43.7457 36.2144 44.4396 36.4859 45.3871 36.5273C46.4599 36.4917 47.3386 36.0925 48.1142 35.354C48.8138 34.5416 49.0453 33.6028 49.2333 32.567C49.3297 32.2317 49.3297 32.2317 49.7037 31.9823C49.9475 31.9475 49.9475 31.9475 50.2268 31.9425C50.384 31.9388 50.384 31.9388 50.5444 31.935C50.657 31.9335 50.7696 31.9321 50.8856 31.9306C51.0013 31.9282 51.117 31.9258 51.2362 31.9233C51.6058 31.9158 51.9755 31.9101 52.3451 31.9043C52.5957 31.8995 52.8462 31.8947 53.0968 31.8897C53.7111 31.8777 54.3254 31.8672 54.9398 31.8575C54.9456 29.8115 54.95 27.7654 54.9527 25.7193C54.954 24.7692 54.9557 23.8191 54.9586 22.869C54.9611 22.0405 54.9627 21.2121 54.9632 20.3836C54.9636 19.9452 54.9643 19.5069 54.9661 19.0686C54.9681 18.5783 54.9682 18.088 54.9681 17.5977C54.9694 17.3816 54.9694 17.3816 54.9708 17.1611C54.9892 15.6851 54.9892 15.6851 54.3476 14.4101C54.2891 14.3435 54.2306 14.277 54.1703 14.2084C53.3524 13.5334 52.5435 13.595 51.5302 13.6036C51.3606 13.6037 51.191 13.6037 51.0214 13.6035C50.5624 13.6034 50.1035 13.6055 49.6445 13.6082C49.1644 13.6105 48.6842 13.6107 48.204 13.6112C47.2953 13.6123 46.3867 13.6154 45.4781 13.6192C44.4434 13.6233 43.4086 13.6254 42.3739 13.6273C40.246 13.6312 38.1181 13.638 35.9902 13.6461ZM21.5287 30.7349C21.0131 31.4348 20.9072 32.2539 20.769 33.0956C20.656 33.4791 20.656 33.4791 20.4725 33.6862C19.991 33.9415 19.5278 33.9132 18.9905 33.9171C18.8778 33.9194 18.765 33.9216 18.6488 33.9239C18.2894 33.9307 17.93 33.9349 17.5705 33.9391C17.3265 33.9432 17.0825 33.9475 16.8385 33.952C16.241 33.9626 15.6435 33.9709 15.0459 33.978C15.0343 36.1889 15.0255 38.3998 15.0201 40.6106C15.0175 41.6373 15.014 42.6638 15.0083 43.6904C15.0033 44.5855 15.0001 45.4805 14.999 46.3755C14.9984 46.8492 14.9968 47.3229 14.9932 47.7966C14.9898 48.243 14.9888 48.6893 14.9895 49.1357C14.9893 49.3765 14.9866 49.6174 14.9839 49.8582C14.988 50.7373 15.0654 51.3199 15.5446 52.0647C16.1221 52.6136 16.5847 52.8446 17.3797 52.8431C17.5979 52.8437 17.5979 52.8437 17.8205 52.8442C17.9795 52.8433 18.1386 52.8424 18.3025 52.8415C18.4721 52.8414 18.6417 52.8414 18.8112 52.8416C19.2712 52.8416 19.7312 52.8402 20.1912 52.8384C20.6721 52.8369 21.1529 52.8367 21.6338 52.8364C22.5442 52.8357 23.4546 52.8336 24.365 52.8311C25.4015 52.8283 26.4381 52.827 27.4746 52.8257C29.6067 52.8231 31.7387 52.8185 33.8708 52.8131C33.8708 51.5783 33.8708 50.3434 33.8708 49.0711C33.1303 48.7624 33.1303 48.7624 32.3748 48.4474C30.8377 47.581 29.9757 46.3916 29.4344 44.7307C29.1328 43.125 29.3911 41.5414 30.2866 40.1759C31.2432 38.9079 32.3565 38.2777 33.8708 37.8449C33.8708 36.5688 33.8708 35.2928 33.8708 33.978C33.5091 33.9763 33.1473 33.9745 32.7746 33.9727C32.4235 33.9689 32.0724 33.964 31.7212 33.959C31.4776 33.9561 31.2339 33.9543 30.9903 33.9536C30.6396 33.9525 30.2891 33.9474 29.9384 33.9415C29.8298 33.942 29.7212 33.9425 29.6094 33.943C29.0585 33.9298 28.8279 33.9066 28.3799 33.5578C28.1033 33.1854 28.0502 32.9704 28.0114 32.5124C27.8715 31.4671 27.4751 30.6725 26.6313 30.0221C24.8739 28.851 22.9264 29.1934 21.5287 30.7349ZM35.9902 34.6017C35.9841 34.9305 35.978 35.2594 35.9717 35.5981C35.965 35.9164 35.9578 36.2347 35.9506 36.553C35.9459 36.7743 35.9415 36.9956 35.9376 37.2169C35.9319 37.5349 35.9247 37.8528 35.9171 38.1708C35.915 38.3194 35.915 38.3194 35.9128 38.4709C35.9 38.9479 35.8866 39.1853 35.6162 39.5912C35.2266 39.6832 35.2266 39.6832 34.7435 39.7549C33.6514 39.9457 32.7842 40.3112 32.0709 41.1971C31.4386 42.1471 31.2063 43.0614 31.3775 44.2064C31.7773 45.4035 32.4357 46.193 33.528 46.8024C34.0682 46.9736 34.5968 47.0536 35.1584 47.1221C35.5309 47.2093 35.6327 47.2791 35.8655 47.5742C35.9152 47.8181 35.9152 47.8181 35.9194 48.0976C35.9231 48.2549 35.9231 48.2549 35.9269 48.4154C35.9277 48.5281 35.9285 48.6407 35.9293 48.7568C35.9316 48.8725 35.9338 48.9883 35.9361 49.1076C35.9429 49.4774 35.9471 49.8472 35.9512 50.2171C35.9554 50.4678 35.9597 50.7185 35.9641 50.9692C35.9747 51.5838 35.9831 52.1984 35.9902 52.8131C38.2183 52.8248 40.4463 52.8336 42.6744 52.839C43.709 52.8416 44.7436 52.8451 45.7781 52.8508C46.68 52.8558 47.5819 52.859 48.4838 52.8601C48.9612 52.8607 49.4386 52.8623 49.916 52.8659C50.3657 52.8693 50.8154 52.8703 51.2652 52.8696C51.5081 52.8698 51.7511 52.8725 51.994 52.8752C53.0707 52.8702 53.6269 52.7351 54.4177 51.979C55.0367 51.0412 54.9749 49.951 54.9681 48.8615C54.9681 48.7069 54.9681 48.5522 54.9682 48.3928C54.968 47.972 54.9668 47.5513 54.965 47.1305C54.9635 46.6895 54.9633 46.2485 54.963 45.8075C54.9623 44.974 54.9602 44.1404 54.9577 43.3068C54.9549 42.3572 54.9536 41.4076 54.9523 40.4579C54.9497 38.5059 54.9451 36.5538 54.9398 34.6017C53.6644 34.6017 52.3891 34.6017 51.0751 34.6017C50.7665 35.4044 50.7665 35.4044 50.4517 36.2233C49.5017 37.7547 48.3676 38.6745 46.587 39.0922C44.5852 39.2967 43.0674 38.9177 41.4878 37.6553C40.5839 36.842 40.1819 35.7467 39.8549 34.6017C38.5796 34.6017 37.3042 34.6017 35.9902 34.6017Z" fill="#703391" stroke="#703391"/>
<path d="M5.25987 1.016C5.42067 1.01512 5.58147 1.01423 5.74714 1.01332C5.9238 1.01361 6.10045 1.01392 6.2771 1.01426C6.46432 1.01372 6.65154 1.01307 6.83877 1.01233C7.34592 1.01066 7.85305 1.01058 8.3602 1.0109C8.78375 1.01103 9.20729 1.01042 9.63084 1.00983C10.6297 1.00844 11.6287 1.00839 12.6276 1.00914C13.6582 1.0099 14.6889 1.00836 15.7196 1.0057C16.6048 1.00351 17.49 1.00276 18.3753 1.00316C18.9039 1.00339 19.4325 1.00306 19.961 1.00133C20.4578 0.999762 20.9544 0.999998 21.4511 1.00163C21.6335 1.00192 21.8158 1.00158 21.9981 1.00055C22.2469 0.999252 22.4956 1.00048 22.7443 1.00184C22.8835 1.00182 23.0228 1.0018 23.1662 1.00178C23.5677 1.05432 23.7371 1.13895 24.0221 1.42273C24.1336 1.75743 24.1649 1.96427 24.1723 2.30888C24.1748 2.41124 24.1773 2.5136 24.1799 2.61906C24.183 2.78397 24.183 2.78397 24.1862 2.9522C24.1888 3.06519 24.1914 3.17817 24.194 3.29458C24.2022 3.65551 24.2095 4.01645 24.2168 4.3774C24.2222 4.62209 24.2277 4.86677 24.2332 5.11145C24.2465 5.71132 24.2591 6.3112 24.2714 6.9111C24.3711 6.94196 24.4707 6.97282 24.5734 7.00462C26.189 7.52082 27.2655 8.29877 28.1361 9.78002C28.3327 10.1878 28.4986 10.5957 28.6348 11.0274C28.6586 11.1023 28.6823 11.1772 28.7069 11.2544C29.0102 12.8226 28.7374 14.4702 27.8634 15.8063C27.035 16.8926 25.9534 17.8704 24.5632 18.0821C24.4257 18.1003 24.2883 18.1185 24.1467 18.1373C24.148 18.2934 24.1493 18.4495 24.1507 18.6103C24.1552 19.1896 24.1581 19.7689 24.1604 20.3482C24.1617 20.5989 24.1634 20.8496 24.1655 21.1003C24.1686 21.4607 24.17 21.8211 24.1711 22.1815C24.1724 22.2935 24.1736 22.4055 24.175 22.5209C24.175 22.6258 24.175 22.7306 24.175 22.8387C24.1756 22.9306 24.1761 23.0226 24.1767 23.1173C24.1408 23.427 24.0703 23.6154 23.8974 23.8752C23.5206 24.1333 23.2048 24.1561 22.7549 24.1569C22.6268 24.1577 22.4986 24.1585 22.3666 24.1593C22.2289 24.1588 22.0913 24.1583 21.9494 24.1578C21.8074 24.158 21.6654 24.1583 21.5191 24.1585C21.219 24.1587 20.9189 24.1582 20.6188 24.1572C20.1591 24.1558 19.6995 24.1572 19.2399 24.1587C18.9483 24.1586 18.6568 24.1583 18.3652 24.1578C18.2276 24.1583 18.0899 24.1588 17.9481 24.1593C17.8199 24.1585 17.6918 24.1577 17.5598 24.1569C17.4472 24.1567 17.3347 24.1565 17.2187 24.1563C16.894 24.1223 16.6932 24.0471 16.4173 23.8752C16.1365 23.4669 16.0941 23.0158 16.0121 22.5343C15.7687 21.366 15.2607 20.7058 14.2887 20.0317C13.5474 19.5744 12.7793 19.5417 11.9292 19.6342C10.9813 19.8768 10.1793 20.3266 9.63115 21.15C9.23669 21.8726 9.06073 22.5948 8.92113 23.403C8.79059 23.8206 8.68433 23.9043 8.31385 24.1246C8.00724 24.173 8.00724 24.173 7.66059 24.175C7.46524 24.1774 7.46524 24.1774 7.26594 24.1798C7.12594 24.1795 6.98594 24.1791 6.8417 24.1787C6.62499 24.1797 6.62499 24.1797 6.4039 24.1807C6.09843 24.1815 5.79295 24.1813 5.48748 24.1803C5.02012 24.1792 4.55295 24.1828 4.0856 24.1868C3.78879 24.187 3.49197 24.1869 3.19515 24.1865C3.0554 24.1879 2.91566 24.1893 2.77167 24.1908C2.64104 24.1896 2.51042 24.1884 2.37583 24.1872C2.20409 24.1872 2.20409 24.1872 2.02888 24.1872C1.59247 24.1025 1.39755 23.938 1.0831 23.6257C1.005 23.2678 1.005 23.2678 1.00478 22.8448C1.0032 22.6843 1.00163 22.5238 1 22.3584C1.00141 22.1808 1.00289 22.0031 1.00442 21.8255C1.00378 21.6382 1.00287 21.4509 1.00171 21.2636C0.999403 20.7548 1.00102 20.2461 1.00347 19.7373C1.00551 19.2041 1.00441 18.671 1.00378 18.1379C1.00322 17.2417 1.0052 16.3456 1.00868 15.4495C1.01267 14.4156 1.01268 13.3817 1.01052 12.3478C1.00854 11.3517 1.00939 10.3556 1.01151 9.35954C1.01236 8.93652 1.01224 8.51352 1.01132 8.0905C1.01036 7.59106 1.01189 7.09168 1.01529 6.59224C1.01614 6.40973 1.01617 6.22721 1.01526 6.04469C1.0088 4.56837 1.2494 3.45422 2.19781 2.30124C3.03308 1.47185 4.08818 1.01815 5.25987 1.016ZM3.59984 4.0032C2.97058 4.95658 3.04286 6.07115 3.04948 7.1779C3.04945 7.33866 3.04941 7.49942 3.04937 7.66504C3.0493 8.10258 3.05076 8.54009 3.05251 8.97762C3.05407 9.43609 3.05421 9.89456 3.05451 10.353C3.05528 11.2197 3.05732 12.0864 3.05983 12.9531C3.06262 13.9405 3.06399 14.9278 3.06524 15.9151C3.06784 17.9448 3.07241 19.9745 3.07779 22.0041C4.35314 22.0041 5.6285 22.0041 6.9425 22.0041C7.04535 21.7211 7.14821 21.4381 7.25417 21.1466C7.81906 19.6982 8.64939 18.7105 10.0592 18.0126C11.6051 17.3561 13.2214 17.2804 14.7966 17.8879C16.0998 18.4676 17.0534 19.3365 17.664 20.632C17.8285 21.0848 17.9931 21.5376 18.1626 22.0041C19.438 22.0041 20.7134 22.0041 22.0274 22.0041C22.0365 21.4434 22.0365 21.4434 22.0459 20.8713C22.0526 20.5096 22.0597 20.148 22.0669 19.7864C22.0717 19.5349 22.0761 19.2833 22.08 19.0318C22.0856 18.6704 22.0929 18.3091 22.1004 17.9478C22.1019 17.8351 22.1033 17.7225 22.1048 17.6064C22.1073 17.5015 22.1097 17.3967 22.1123 17.2886C22.1139 17.1964 22.1156 17.1042 22.1173 17.0091C22.152 16.7652 22.152 16.7652 22.4014 16.391C22.7725 16.2902 22.7725 16.2902 23.2273 16.2117C24.4222 15.9736 25.2449 15.6129 26.0167 14.6447C26.529 13.8278 26.7564 12.9942 26.6401 12.0253C26.3557 10.895 25.8905 10.0618 24.8947 9.437C24.2647 9.10677 23.6024 9.00102 22.9049 8.89079C22.526 8.78214 22.526 8.78214 22.3193 8.59884C22.0639 8.11696 22.0922 7.6536 22.0882 7.11575C22.086 7.00294 22.0838 6.89013 22.0815 6.7739C22.0747 6.41425 22.0705 6.05462 22.0663 5.69493C22.0622 5.45081 22.0579 5.2067 22.0534 4.96259C22.0428 4.36475 22.0345 3.76692 22.0274 3.16903C19.7993 3.15736 17.5712 3.14857 15.3431 3.14318C14.3085 3.1406 13.274 3.1371 12.2394 3.13139C11.3375 3.12641 10.4357 3.12319 9.53375 3.12208C9.05634 3.12143 8.57896 3.11991 8.10156 3.11627C7.65183 3.11288 7.20215 3.11184 6.7524 3.11259C6.50944 3.11239 6.26648 3.10971 6.02352 3.10695C4.94683 3.11201 4.39069 3.24708 3.59984 4.0032Z" fill="#703391" stroke="#703391"/>
</svg>
