<svg width="57" height="70" viewBox="0 0 57 70" fill="none" xmlns="http://www.w3.org/2000/svg">
<path d="M24.3693 70C10.9315 70 0 58.8647 0 45.1789C0 31.493 10.9326 20.3577 24.3693 20.3577C37.8061 20.3577 48.7387 31.493 48.7387 45.1789C48.7387 58.8647 37.8081 70 24.3693 70ZM24.3693 22.7284C12.216 22.7284 2.32754 32.7983 2.32754 45.1778C2.32754 57.5576 12.216 67.6272 24.3693 67.6272C36.5225 67.6272 46.4122 57.5553 46.4122 45.1756C46.4122 32.7958 36.5247 22.7284 24.3693 22.7284Z" fill="#2196F3"/>
<path d="M42.0535 46.2798C41.2954 43.4181 34.3462 43.1093 30.21 44.1583C28.0439 44.7099 25.8301 45.4268 23.5469 45.8394C25.2181 47.3497 27.0127 48.7783 29.5883 49.1334C35.9786 50.0115 39.9491 47.9698 42.0535 46.2798Z" fill="#2297F3"/>
<path d="M29.5888 49.133C27.0079 48.7777 25.2187 47.3493 23.5474 45.8389C20.961 43.5014 18.6606 40.9685 14.1453 41.9216C6.96661 43.4374 6.02216 52.0861 11.5653 57.644C13.9453 60.1825 17.0006 61.959 20.357 62.7551C23.7133 63.5515 27.2249 63.3332 30.4612 62.1272C33.6975 60.9209 36.5181 58.7795 38.5773 55.9649C40.6365 53.1502 41.8447 49.7849 42.0541 46.2813C39.9496 47.9691 35.9789 50.0111 29.5888 49.133Z" fill="#673AB7"/>
<path d="M33.3444 30.4113C32.4485 32.3673 40.434 34.5373 41.3893 41.0326C41.8498 34.6385 34.4523 27.9932 33.3444 30.4113Z" fill="#2196F3"/>
<path d="M16.56 38.5774C17.9996 37.9701 18.6833 36.289 18.087 34.8227C17.4907 33.3564 15.8402 32.6599 14.4006 33.2674C12.961 33.8747 12.2774 35.5557 12.8737 37.0221C13.4701 38.4884 15.1204 39.1847 16.56 38.5774Z" fill="#673AB7"/>
<path d="M22.9659 30.6857C23.6393 29.9998 23.6393 28.8881 22.9659 28.202C22.2925 27.5161 21.2008 27.5161 20.5275 28.202C19.8541 28.8881 19.8541 29.9998 20.5275 30.6857C21.2008 31.3716 22.2925 31.3716 22.9659 30.6857Z" fill="#2196F3"/>
<path d="M29.0581 19.393C31.5492 11.8981 29.8748 5.9101 24.7552 3.06616C21.2556 3.79093 19.1782 5.51629 18.0215 7.89801C24.886 7.33209 29.2422 11.7083 29.0581 19.393Z" fill="#2196F3"/>
<path d="M56.9997 12.8472C44.6689 8.33967 36.887 9.8852 35.6631 20.1556C42.7301 27.5822 49.8482 24.0276 56.9997 12.8472Z" fill="#2196F3"/>
<path d="M47.191 8.77677C47.7628 6.28803 48.0596 3.34698 48.1039 0C35.316 2.90023 29.5487 8.44249 33.8993 17.7896C34.116 17.8426 34.3241 17.8856 34.533 17.9297C35.55 10.6157 40.0264 7.90748 47.191 8.77677Z" fill="#2196F3"/>
</svg>
