<svg width="70" height="70" viewBox="0 0 70 70" fill="none" xmlns="http://www.w3.org/2000/svg">
<g clip-path="url(#clip0_2918_3903)">
<path d="M0 0H70V70H0V0Z" fill="#054ADA"/>
<path d="M38.0628 16.6727H18.7079V24.7728H38.0628V29.205L30.3055 29.9692C19.1687 31.0391 15.6357 33.7136 15.6357 41.8901V44.0297C15.6357 50.2959 20.1673 53.5818 25.7741 53.5818C28.3087 53.5818 31.0736 52.9705 33.8387 51.5186L38.063 49.3789V53.1234H46.2043V24.7728L38.0628 16.6727ZM38.0628 41.4317L32.84 44.1063C30.8432 45.2525 28.7694 45.8638 27.1566 45.8638C25.1597 45.8638 23.777 45.176 23.777 42.6543V40.9731C23.9307 38.2985 25.6972 37.6107 31.688 36.9993L38.0628 36.3115V41.4315V41.4317Z" fill="white"/>
<path d="M46.2038 16.6727H38.0625V24.7728H46.2038V16.6727Z" fill="#FF8800"/>
<path d="M54.3454 24.7722H46.2041V53.1233H54.3454V24.7722Z" fill="#FF8800"/>
</g>
<defs>
<clipPath id="clip0_2918_3903">
<rect width="70" height="70" fill="white"/>
</clipPath>
</defs>
</svg>
