<svg width="78" height="78" viewBox="0 0 78 78" fill="none" xmlns="http://www.w3.org/2000/svg">
    <path d="M36.0138 5.24612L5.24081 36.0129C3.5864 37.667 3.5864 40.3386 5.24081 41.9927L36.0138 72.7594C37.6683 74.4135 40.3404 74.4135 41.9948 72.7594L54.8975 59.8594C56.3792 58.378 56.3792 55.9763 54.8975 54.495C53.4159 53.0136 51.0136 53.0136 49.532 54.495L39.7506 64.2744C39.3388 64.6861 38.7138 64.6861 38.3021 64.2744L13.7276 39.7049C13.3158 39.2932 13.3158 38.6684 13.7276 38.2567L38.3021 13.6872C38.7138 13.2755 39.3388 13.2755 39.7506 13.6872L49.532 23.4667C51.0136 24.948 53.4159 24.948 54.8975 23.4667C56.3792 21.9853 56.3792 19.5836 54.8975 18.1022L41.9962 5.20357C40.335 3.58529 37.6619 3.59839 36.0138 5.24612Z" fill="#4285EB"/>
    <path d="M36.0138 5.24612L5.24081 36.0129C3.5864 37.667 3.5864 40.3386 5.24081 41.9927L36.0138 72.7594C37.6683 74.4135 40.3404 74.4135 41.9948 72.7594L54.8975 59.8594C56.3792 58.378 56.3792 55.9763 54.8975 54.495C53.4159 53.0136 51.0136 53.0136 49.532 54.495L39.7506 64.2744C39.3388 64.6861 38.7138 64.6861 38.3021 64.2744L13.7276 39.7049C13.3158 39.2932 13.3158 38.6684 13.7276 38.2567L38.3021 13.6872C39.3274 12.8027 41.0003 11.0113 43.457 10.5923C45.2827 10.2809 47.2788 10.9663 49.4452 12.6484C47.9968 11.2003 45.5138 8.71871 41.9962 5.20357C40.335 3.58529 37.6619 3.59839 36.0138 5.24612Z" fill="#29CDFF"/>
    <path d="M57.8759 51.6336C59.3576 53.1149 61.7598 53.1149 63.2414 51.6336L72.7591 42.1178C74.4135 40.4638 74.4135 37.7922 72.7593 36.1383L63.1586 26.5736C61.6735 25.094 59.2705 25.0962 57.788 26.5784C56.3063 28.0597 56.3063 30.4615 57.788 31.9428L64.2723 38.4258C64.6841 38.8375 64.6841 39.4623 64.2723 39.874L57.8759 46.2691C56.3943 47.7505 56.3943 50.1522 57.8759 51.6336Z" fill="#FA816E"/>
    <path d="M39.1583 47.4637C43.7471 47.4637 47.467 43.7445 47.467 39.1566C47.467 34.5688 43.7471 30.8496 39.1583 30.8496C34.5696 30.8496 30.8496 34.5688 30.8496 39.1566C30.8496 43.7445 34.5696 47.4637 39.1583 47.4637Z" fill="#FA8E7D"/>
</svg>
