<svg width="78" height="78" viewBox="0 0 78 78" fill="none" xmlns="http://www.w3.org/2000/svg">
<g clip-path="url(#clip0_3229_36627)">
<path d="M23.8941 33.4573C23.8941 34.3186 23.9862 35.017 24.1474 35.5291C24.3316 36.0413 24.5619 36.6 24.8843 37.2053C24.9994 37.3915 25.0454 37.5777 25.0454 37.7407C25.0454 37.9735 24.9073 38.2063 24.6079 38.4391L23.1573 39.4168C22.95 39.5565 22.7428 39.6263 22.5586 39.6263C22.3283 39.6263 22.0981 39.5099 21.8678 39.3004C21.5454 38.9512 21.2691 38.5787 21.0389 38.2063C20.8086 37.8105 20.5783 37.3682 20.325 36.8328C18.529 38.9745 16.2724 40.0453 13.5553 40.0453C11.6211 40.0453 10.0783 39.4866 8.95004 38.3692C7.82175 37.2518 7.24609 35.7619 7.24609 33.8996C7.24609 31.9208 7.93688 30.3146 9.34149 29.104C10.7461 27.8935 12.6112 27.2882 14.9829 27.2882C15.7658 27.2882 16.5718 27.3581 17.4237 27.4745C18.2757 27.5909 19.1507 27.7771 20.0718 27.9866V26.2872C20.0718 24.518 19.7033 23.2842 18.9895 22.5625C18.2527 21.8409 17.0093 21.4917 15.2362 21.4917C14.4303 21.4917 13.6014 21.5848 12.7494 21.7943C11.8974 22.0038 11.0685 22.2599 10.2625 22.5858C9.89412 22.7488 9.6178 22.8419 9.45662 22.8885C9.29544 22.935 9.1803 22.9583 9.0882 22.9583C8.76583 22.9583 8.60465 22.7255 8.60465 22.2366V21.0959C8.60465 20.7235 8.6507 20.4441 8.76583 20.2812C8.88096 20.1182 9.0882 19.9553 9.41057 19.7923C10.2165 19.3733 11.1836 19.0241 12.3119 18.7447C13.4402 18.4421 14.6375 18.3024 15.904 18.3024C18.6441 18.3024 20.6474 18.931 21.9369 20.188C23.2033 21.4451 23.8481 23.354 23.8481 25.9148V33.4573H23.8941ZM14.5454 36.9957C15.3053 36.9957 16.0882 36.8561 16.9171 36.5767C17.7461 36.2974 18.4829 35.7852 19.1046 35.0868C19.4731 34.6445 19.7494 34.1557 19.8875 33.597C20.0257 33.0382 20.1178 32.3631 20.1178 31.5716V30.5939C19.45 30.431 18.7362 30.2913 17.9994 30.1982C17.2625 30.1051 16.5487 30.0585 15.8349 30.0585C14.2921 30.0585 13.1639 30.3611 12.404 30.9897C11.6441 31.6182 11.2757 32.5028 11.2757 33.6668C11.2757 34.7609 11.552 35.5757 12.1277 36.1344C12.6803 36.7164 13.4862 36.9957 14.5454 36.9957ZM33.0356 39.5099C32.6211 39.5099 32.3448 39.4401 32.1606 39.2771C31.9764 39.1374 31.8152 38.8115 31.677 38.3692L26.2658 20.3743C26.1277 19.9087 26.0586 19.6061 26.0586 19.4431C26.0586 19.0706 26.2428 18.8611 26.6112 18.8611H28.8678C29.3053 18.8611 29.6046 18.931 29.7658 19.0939C29.95 19.2336 30.0882 19.5595 30.2264 20.0018L34.0948 35.4127L37.6869 20.0018C37.802 19.5362 37.9402 19.2336 38.1244 19.0939C38.3086 18.9542 38.631 18.8611 39.0454 18.8611H40.8875C41.325 18.8611 41.6244 18.931 41.8086 19.0939C41.9928 19.2336 42.154 19.5595 42.2461 20.0018L45.8843 35.599L49.8678 20.0018C50.006 19.5362 50.1671 19.2336 50.3283 19.0939C50.5125 18.9542 50.8119 18.8611 51.2264 18.8611H53.3678C53.7362 18.8611 53.9435 19.0474 53.9435 19.4431C53.9435 19.5595 53.9204 19.6759 53.8974 19.8156C53.8744 19.9553 53.8283 20.1415 53.7362 20.3976L48.1869 38.3925C48.0487 38.8581 47.8875 39.1607 47.7033 39.3004C47.5191 39.4401 47.2198 39.5332 46.8283 39.5332H44.8481C44.4106 39.5332 44.1112 39.4633 43.927 39.3004C43.7428 39.1374 43.5816 38.8348 43.4895 38.3692L39.9204 23.354L36.3744 38.3459C36.2593 38.8115 36.1211 39.1142 35.9369 39.2771C35.7527 39.4401 35.4303 39.5099 35.0158 39.5099H33.0356ZM62.6244 40.1384C61.427 40.1384 60.2296 39.9988 59.0783 39.7194C57.927 39.4401 57.029 39.1374 56.4303 38.7882C56.0619 38.5787 55.8086 38.3459 55.7165 38.1364C55.6244 37.9269 55.5783 37.6941 55.5783 37.4846V36.2974C55.5783 35.8085 55.7625 35.5757 56.1079 35.5757C56.2461 35.5757 56.3843 35.599 56.5224 35.6455C56.6606 35.6921 56.8678 35.7852 57.0981 35.8783C57.881 36.2275 58.7329 36.5069 59.631 36.6931C60.552 36.8793 61.45 36.9725 62.3711 36.9725C63.8218 36.9725 64.95 36.7164 65.7329 36.2042C66.5158 35.6921 66.9303 34.9472 66.9303 33.9927C66.9303 33.3409 66.7231 32.8055 66.3086 32.3631C65.8941 31.9208 65.1112 31.5251 63.9829 31.1526L60.6441 30.105C58.9632 29.5696 57.7198 28.7781 56.9599 27.7306C56.2 26.7063 55.8086 25.5656 55.8086 24.355C55.8086 23.3773 56.0158 22.516 56.4303 21.771C56.8448 21.0261 57.3974 20.3743 58.0882 19.8621C58.779 19.3267 59.5619 18.931 60.4829 18.6516C61.404 18.3723 62.3711 18.2559 63.3843 18.2559C63.8908 18.2559 64.4204 18.2791 64.927 18.349C65.4566 18.4188 65.9402 18.5119 66.4237 18.605C66.8843 18.7214 67.3217 18.8378 67.7362 18.9775C68.1507 19.1172 68.4731 19.2569 68.7033 19.3965C69.0257 19.5828 69.256 19.769 69.3941 19.9785C69.5323 20.1648 69.6014 20.4208 69.6014 20.7467V21.8409C69.6014 22.3297 69.4171 22.5858 69.0718 22.5858C68.8875 22.5858 68.5882 22.4927 68.1967 22.3065C66.8842 21.7012 65.4106 21.3986 63.7757 21.3986C62.4632 21.3986 61.427 21.6081 60.7132 22.0504C59.9994 22.4927 59.631 23.1678 59.631 24.1223C59.631 24.7741 59.8612 25.3328 60.3218 25.7751C60.7823 26.2174 61.6343 26.6597 62.8546 27.0555L66.1244 28.103C67.7823 28.6385 68.9796 29.3834 69.6935 30.3378C70.4073 31.2923 70.7527 32.3864 70.7527 33.597C70.7527 34.598 70.5454 35.5059 70.154 36.2974C69.7395 37.0889 69.1869 37.7872 68.4731 38.3459C67.7593 38.9279 66.9073 39.347 65.9171 39.6496C64.881 39.9755 63.7987 40.1384 62.6244 40.1384Z" fill="#252F3E"/>
<path fill-rule="evenodd" clip-rule="evenodd" d="M66.9767 51.4511C59.401 57.108 48.3945 60.111 38.9306 60.111C25.6675 60.111 13.7168 55.1525 4.6905 46.9116C3.97669 46.2598 4.62142 45.3752 5.4734 45.8873C15.2366 51.6141 27.2793 55.0827 39.7366 55.0827C48.1412 55.0827 57.3747 53.3134 65.8714 49.6819C67.1379 49.0999 68.2201 50.5199 66.9767 51.4511Z" fill="#FF9900"/>
<path fill-rule="evenodd" clip-rule="evenodd" d="M70.1315 47.82C69.1644 46.563 63.7302 47.2148 61.2664 47.5174C60.5295 47.6105 60.4144 46.9587 61.0822 46.4698C65.4111 43.397 72.5263 44.2816 73.3552 45.3059C74.1842 46.3534 73.1249 53.5468 69.0723 56.9921C68.4506 57.5275 67.8519 57.2482 68.1282 56.5498C69.0493 54.2451 71.0986 49.0538 70.1315 47.82Z" fill="#FF9900"/>
</g>
<defs>
<clipPath id="clip0_3229_36627">
<rect width="70" height="42.3684" fill="white" transform="translate(4 18)"/>
</clipPath>
</defs>
</svg>
