<svg width="22" height="11" viewBox="0 0 22 11" fill="none" xmlns="http://www.w3.org/2000/svg">
    <g clip-path="url(#clip0_4770_14721)">
        <path d="M8.03333 10.292C5.71829 10.292 3.40325 10.292 1.08821 10.292C0.887031 10.292 0.840155 10.2577 0.823414 10.0542C0.71041 8.68927 1.24446 7.64294 2.39765 6.91609C2.81646 6.65214 3.2869 6.51932 3.78076 6.4864C3.9027 6.47831 3.91414 6.43925 3.89237 6.33294C3.63037 5.05642 4.5849 3.78854 5.89156 3.6694C6.41947 3.62113 6.90636 3.73748 7.34889 4.02794C7.44655 4.09184 7.47222 4.08123 7.5163 3.96795C7.98339 2.7637 8.78446 1.85381 9.9343 1.2567C10.7814 0.816683 11.6846 0.641457 12.6308 0.717351C13.6378 0.797988 14.5437 1.15625 15.3387 1.78377C16.1414 2.41743 16.6908 3.22882 17.0156 4.1948C17.0627 4.33514 17.0973 4.47996 17.1294 4.62477C17.1596 4.76177 17.0792 4.87645 17.0326 4.99531C16.885 5.37087 16.7756 5.76318 16.5892 6.12144C16.1668 6.93228 15.5016 7.44372 14.6009 7.60528C14.2759 7.66359 13.9335 7.62397 13.599 7.63039C12.0518 7.65913 10.5043 7.67922 8.95661 7.68731C8.2412 7.69094 7.52607 7.7127 6.81066 7.72637C6.77801 7.72693 6.74565 7.72832 6.71328 7.73056C6.59749 7.73865 6.5294 7.8031 6.53164 7.91694C6.53359 8.03134 6.61869 8.05366 6.71746 8.05478C7.52133 8.06343 8.32547 8.07431 9.12933 8.08408C10.6397 8.10277 12.1497 8.12091 13.6601 8.14044C13.8922 8.14351 14.1246 8.14797 14.3565 8.15941C15.0903 8.19569 15.5705 8.80618 15.4405 9.52913C15.4034 9.73533 15.3398 9.93371 15.2815 10.1338C15.2513 10.2373 15.1752 10.2945 15.0627 10.2945C15.0117 10.2945 14.9603 10.2948 14.9093 10.2948C12.6174 10.2948 10.3255 10.2948 8.03361 10.2948V10.2923L8.03333 10.292Z" fill="#F58220"/>
        <path d="M18.7889 10.2987C17.8592 10.2987 16.9295 10.299 15.9998 10.2987C15.7629 10.2987 15.7478 10.2633 15.8245 10.0362C16.048 9.37321 16.4693 8.87348 17.06 8.51047C17.4392 8.27749 17.8536 8.15891 18.2983 8.13798C18.8084 8.11398 19.3179 8.08301 19.8276 8.05455C19.9387 8.04841 20.0425 7.95885 20.0327 7.869C20.0196 7.74819 19.9287 7.73591 19.8282 7.73005C19.2677 7.69629 18.7054 7.67843 18.1477 7.6176C17.4892 7.54589 17.079 7.05844 17.1298 6.39214C17.1669 5.90553 17.3672 5.45937 17.4841 4.99257C17.5076 4.89882 17.586 4.87092 17.6792 4.86813C18.651 4.8405 19.5297 5.11171 20.3109 5.69124C20.9736 6.1826 21.449 6.81849 21.7398 7.58859C21.9887 8.24791 22.052 8.93124 21.9569 9.62823C21.9343 9.79313 21.8955 9.95636 21.8598 10.1193C21.8321 10.2454 21.7546 10.301 21.6201 10.3004C20.6764 10.297 19.7328 10.2987 18.7891 10.2987H18.7889Z" fill="#FAAD43"/>
    </g>
    <defs>
        <clipPath id="clip0_4770_14721">
            <rect width="21.1914" height="9.59862" fill="white" transform="translate(0.808594 0.700195)"/>
        </clipPath>
    </defs>
</svg>
