<svg width="78" height="78" viewBox="0 0 78 78" fill="none" xmlns="http://www.w3.org/2000/svg">
<path d="M73.3183 32.907C73.1235 32.7453 71.3703 31.4202 67.6044 31.4202C66.6304 31.4202 65.6239 31.5172 64.65 31.6788C63.9358 26.7337 59.8126 24.342 59.6503 24.2127L58.6438 23.6309L57.9945 24.5682C57.1829 25.8288 56.5661 27.2509 56.2089 28.7053C55.5272 31.5172 55.9492 34.1675 57.3777 36.4299C55.657 37.3996 52.865 37.6258 52.2807 37.658H6.1794C4.97822 37.658 4.00423 38.6278 4.00423 39.8236C3.93938 43.8313 4.62109 47.8391 6.01717 51.6205C7.60791 55.7576 9.97797 58.8281 13.0298 60.7027C16.4711 62.8035 22.0876 63.9994 28.4183 63.9994C31.2753 63.9994 34.1322 63.7409 36.9568 63.2237C40.8851 62.5126 44.6511 61.1551 48.125 59.1836C50.9718 57.5406 53.5371 55.4452 55.7219 52.9781C59.3905 48.8733 61.5657 44.2839 63.1564 40.2114H63.8057C67.7991 40.2114 70.2664 38.6278 71.6299 37.2702C72.539 36.4299 73.2207 35.3957 73.7077 34.2322L74 33.3918L73.3183 32.907Z" fill="#0091E2"/>
<path d="M10.465 36.3335H16.6334C16.9257 36.3335 17.1854 36.1073 17.1854 35.7842V30.2896C17.1854 29.9987 16.9581 29.7402 16.6334 29.7402H10.465C10.1728 29.7402 9.91309 29.9664 9.91309 30.2896V35.7842C9.94551 36.1073 10.1728 36.3336 10.465 36.3336V36.3335ZM18.9709 36.3335H25.1394C25.4316 36.3335 25.6913 36.1073 25.6913 35.7842V30.2896C25.6913 29.9987 25.464 29.7402 25.1394 29.7402H18.9708C18.6786 29.7402 18.4189 29.9664 18.4189 30.2896V35.7842C18.4514 36.1073 18.6788 36.3336 18.9708 36.3336M27.6391 36.3336H33.8076C34.0998 36.3336 34.3595 36.1073 34.3595 35.7842V30.2896C34.3595 29.9987 34.1322 29.7402 33.8076 29.7402H27.6391C27.3469 29.7402 27.0872 29.9664 27.0872 30.2896V35.7842C27.0872 36.1073 27.3145 36.3336 27.6391 36.3336ZM36.1775 36.3336H42.3461C42.6382 36.3336 42.898 36.1073 42.898 35.7842V30.2896C42.898 29.9987 42.6707 29.7402 42.3461 29.7402H36.1775C35.8854 29.7402 35.6256 29.9664 35.6256 30.2896V35.7842C35.6256 36.1073 35.8854 36.3336 36.1775 36.3336ZM18.9709 28.4797H25.1393C25.4315 28.4797 25.6912 28.2212 25.6912 27.9303V22.4358C25.6912 22.1448 25.4639 21.8862 25.1393 21.8862H18.9708C18.6786 21.8862 18.4189 22.1125 18.4189 22.4358V27.9303C18.4514 28.2211 18.6789 28.4797 18.9709 28.4797ZM27.6391 28.4797H33.8076C34.0998 28.4797 34.3595 28.2212 34.3595 27.9303V22.4358C34.3595 22.1448 34.1322 21.8862 33.8076 21.8862H27.6391C27.3469 21.8862 27.0872 22.1125 27.0872 22.4358V27.9303C27.0872 28.2211 27.3145 28.4797 27.6391 28.4797ZM36.1775 28.4797H42.3461C42.6382 28.4797 42.898 28.2212 42.898 27.9303V22.4358C42.898 22.1448 42.6381 21.8862 42.3461 21.8862H36.1775C35.8854 21.8862 35.6256 22.1125 35.6256 22.4358V27.9303C35.6256 28.2211 35.8854 28.4797 36.1775 28.4797ZM36.1775 20.5935H42.3461C42.6382 20.5935 42.898 20.3672 42.898 20.0441V14.5495C42.898 14.2586 42.6381 14 42.3461 14H36.1775C35.8854 14 35.6256 14.2263 35.6256 14.5495V20.0441C35.6256 20.3349 35.8854 20.5935 36.1775 20.5935ZM44.7809 36.3336H50.9494C51.2415 36.3336 51.5013 36.1073 51.5013 35.7842V30.2896C51.5013 29.9987 51.2741 29.7402 50.9494 29.7402H44.781C44.4887 29.7402 44.229 29.9664 44.229 30.2896V35.7842C44.2615 36.1073 44.4888 36.3336 44.781 36.3336" fill="#0091E2"/>
</svg>
