<svg width="78" height="78" viewBox="0 0 78 78" fill="none" xmlns="http://www.w3.org/2000/svg">
<path d="M48.0241 73.8791H48.8738L62.7432 66.9436L62.9741 66.6173V11.2577L62.7432 10.9298L48.8738 4H48.0137L48.0241 73.8791Z" fill="#5294CF"/>
<path d="M29.975 73.8791H29.1135L15.2559 66.9436L14.9747 66.4599L14.832 11.5397L15.2559 10.9298L29.1135 4H29.9857L29.975 73.8791Z" fill="#1F5B98"/>
<path d="M29.1377 4H48.8603V73.8791H29.1377V4Z" fill="#2D72B8"/>
<path d="M70.003 37.3697L69.5343 37.2657L62.8424 36.6418L62.7431 36.6912L48.8613 36.1361H29.1378L15.2557 36.6912V26.1055L15.2412 26.1132L15.2557 26.0822L29.1378 22.8656H48.8613L62.7431 26.0822L67.8463 28.7948V27.0508L70.003 26.8149L69.7797 26.3794L62.9512 21.4966L62.7431 21.5642L48.8613 17.2627H29.1378L15.2557 21.5642V10.9298L7.99609 19.4346V26.8624L8.05229 26.8217L10.1528 27.0508V28.8306L7.99609 29.9848V37.3755L8.05229 37.3697L10.1528 37.4007V40.5027L8.34052 40.5298L7.99609 40.4969V47.8905L10.1528 49.0502V50.8506L8.08644 51.0788L7.99609 51.0109V58.4375L15.2557 66.9436V56.3101L29.1378 60.6116H48.8613L62.784 56.2975L62.9691 56.3786L69.7078 51.5678L70.003 51.0884L67.8463 50.8506V49.0863L67.5637 48.9734L62.9512 51.4598L62.784 51.8085L48.8613 55.0065V55.0104H29.1378V55.0065L15.2557 51.795V41.1705L29.1378 41.7237V41.7373H48.8613L62.7431 41.1705L63.0592 41.3158L69.5455 40.7573L70.003 40.5337L67.8463 40.5027V37.4007L70.003 37.3697Z" fill="#1A476F"/>
<path d="M62.7432 56.3101V66.9436L70.0031 58.4375V51.0594L62.7851 56.2975L62.7432 56.3101Z" fill="#2D72B8"/>
<path d="M62.7432 51.8182L62.7851 51.8085L70.0031 47.9263V40.5027L62.7432 41.1705V51.8182Z" fill="#2D72B8"/>
<path d="M62.7851 26.0919L62.7432 26.0822V36.6912L70.0031 37.3697V29.9497L62.7851 26.0919Z" fill="#2D72B8"/>
<path d="M62.7851 21.6058L70.0031 26.8149V19.4366L62.7432 10.9298V21.5642L62.7851 21.5787V21.6058Z" fill="#2D72B8"/>
</svg>
