<svg width="12" height="15" viewBox="0 0 12 15" fill="none" xmlns="http://www.w3.org/2000/svg">
<g clip-path="url(#clip0_4770_14646)">
<path d="M11.9237 11.4138C11.404 10.3377 10.8818 9.26294 10.3586 8.18855C9.53228 6.4922 8.70418 4.79627 7.87651 3.10076C7.56368 2.46019 7.25697 1.81623 6.93537 1.17989C6.65496 0.625992 5.88688 0.565951 5.54206 1.06953C5.25858 1.48389 4.97466 1.89953 4.7201 2.3308C4.23857 3.14727 3.70754 3.93329 3.2006 4.73454C2.19023 6.33153 1.15927 7.91668 0.141448 9.50944C0.0546951 9.64517 -0.0197901 9.79485 0.00518432 9.96778C-0.0215427 10.1471 0.0590765 10.2972 0.155031 10.4405C1.00504 11.7119 1.85636 12.9825 2.70724 14.2535C3.00825 14.7029 3.30882 14.8129 3.83898 14.6615C5.97276 14.0526 8.10567 13.4429 10.2394 12.8337C10.6092 12.728 10.9804 12.6282 11.3488 12.5195C11.879 12.3631 12.1401 11.8624 11.9237 11.4138ZM10.7385 11.8531C9.45472 12.2172 8.17183 12.585 6.88937 12.9525C6.095 13.1799 5.30064 13.4083 4.50628 13.6357C4.45063 13.6518 4.39411 13.667 4.33759 13.6793C4.04841 13.741 3.90207 13.6049 3.9621 13.3224C4.0712 12.8066 4.18468 12.292 4.29553 11.7766C4.85461 9.18556 5.41412 6.59494 5.97276 4.0039C6.06302 3.58489 6.15021 3.16503 6.24354 2.74643C6.2707 2.62551 6.28604 2.48809 6.45911 2.46695C6.62998 2.44623 6.68081 2.56378 6.73821 2.68217C7.53432 4.32482 8.33044 5.9679 9.13006 7.60929C9.73207 8.84562 10.3393 10.0794 10.9457 11.3136C10.9834 11.3906 11.0172 11.4667 11.0268 11.5462C11.0049 11.7183 10.9041 11.8058 10.7385 11.8527V11.8531Z" fill="#003D87"/>
</g>
<defs>
<clipPath id="clip0_4770_14646">
<rect width="12" height="14" fill="white" transform="translate(0 0.726562)"/>
</clipPath>
</defs>
</svg>
