<svg width="78" height="78" viewBox="0 0 78 78" fill="none" xmlns="http://www.w3.org/2000/svg">
<path d="M74 57.9367C71.4538 58.5904 69.8787 57.9654 68.4656 55.8233L58.4162 41.7864L56.9637 39.843L45.2278 55.8696C43.8869 57.7976 42.4803 58.6368 39.9778 57.9544L55.0059 37.5882L41.0147 19.1919C43.4209 18.7193 45.0834 18.96 46.56 21.1353L56.9834 35.3466L67.4834 21.2126C68.8288 19.2847 70.2747 18.5515 72.6897 19.2626L67.2647 26.5239L59.9147 36.1858C59.0397 37.2901 59.16 38.0453 59.965 39.112L74 57.9367ZM4.0175 37.2481L5.24687 31.144C8.59375 19.0638 22.3094 14.044 31.7681 21.5086C37.2959 25.8989 38.6697 32.1091 38.3963 39.0656H7.2375C6.76938 51.5875 15.6966 59.1448 27.0781 55.2888C31.0703 53.9351 33.4219 50.7792 34.5987 46.8305C35.1959 44.8517 36.1847 44.5426 38.0266 45.1079C37.0859 50.046 34.9641 54.1714 30.4797 56.753C23.7794 60.6178 14.2156 59.3678 9.18437 53.9969C6.1875 50.8808 4.94938 46.9321 4.39375 42.7096C4.30625 42.0117 4.13125 41.347 4 40.6778C4.01167 39.5353 4.0175 38.3928 4.0175 37.2503V37.2481ZM7.29438 36.4089H35.4519C35.2681 27.3543 29.6834 20.9233 22.0513 20.8681C13.6731 20.8019 7.6575 27.0804 7.29438 36.4089Z" fill="black"/>
</svg>
