<svg width="78" height="78" viewBox="0 0 78 78" fill="none" xmlns="http://www.w3.org/2000/svg">
<path d="M27.8212 15.0586C28.4978 13.2814 29.4281 11.6453 30.8094 10.3194C36.3349 4.93143 45.4688 6.28548 49.2182 13.0557C52.0373 18.1898 55.0256 23.2111 57.9293 28.2888L72.4759 53.6207C76.5072 60.7013 72.1376 69.6436 64.1313 70.8566C59.226 71.5901 54.6309 69.3333 52.0937 64.9327L39.2949 42.7037C39.2104 42.5345 39.0976 42.3934 38.9848 42.2524C38.5338 41.8857 38.3365 41.3497 38.0545 40.8701L28.6387 24.5369C27.5393 22.6187 27.0318 20.5312 27.0882 18.3309C27.1728 17.2025 27.3137 16.0741 27.8212 15.0586Z" fill="#3C8BD9"/>
<path d="M27.8207 15.0586C27.567 16.0741 27.3415 17.0897 27.2851 18.1616C27.2005 20.5312 27.7925 22.7315 28.9766 24.7908L38.2514 40.8419C38.5333 41.3215 38.7589 41.801 39.0408 42.2524L33.9382 51.0255L26.8058 63.3248C26.6931 63.3248 26.6649 63.2683 26.6367 63.1837C26.6085 62.958 26.6931 62.7606 26.7495 62.5349C27.9053 58.3035 26.9468 54.5517 24.0431 51.3358C22.2671 49.3894 20.0118 48.2892 17.4182 47.9225C14.0353 47.4429 11.047 48.3174 8.36887 50.4331C7.88962 50.7998 7.57952 51.3358 7.0157 51.6179C6.90293 51.6179 6.84655 51.5615 6.81836 51.4768L10.8497 44.4527L27.6234 15.3689C27.6798 15.2561 27.7643 15.1714 27.8207 15.0586Z" fill="#FABC04"/>
<path d="M6.93125 51.5614L8.53814 50.1228C15.3886 44.7066 25.6783 48.6277 27.1724 57.2033C27.5389 59.2626 27.3416 61.2372 26.7214 63.2119C26.6932 63.3811 26.665 63.5222 26.6086 63.6915C26.3549 64.1428 26.1294 64.6224 25.8475 65.0737C23.3385 69.2205 19.6454 71.2798 14.7966 70.9695C9.24292 70.5745 4.8733 66.3995 4.11214 60.8705C3.74566 58.1906 4.28129 55.68 5.66265 53.3668C5.94456 52.8591 6.28285 52.4077 6.59296 51.8999C6.73391 51.7871 6.67753 51.5614 6.93125 51.5614Z" fill="#34A852"/>
<path d="M6.93167 51.5615C6.81891 51.6743 6.81891 51.8716 6.62157 51.8998C6.59338 51.7024 6.70614 51.5897 6.81891 51.4487L6.93167 51.5615Z" fill="#FABC04"/>
<path d="M26.6082 63.6912C26.4955 63.4938 26.6082 63.3529 26.721 63.2119L26.8338 63.3247L26.6082 63.6912Z" fill="#E1C025"/>
</svg>
