<svg width="78" height="78" viewBox="0 0 78 78" fill="none" xmlns="http://www.w3.org/2000/svg">
    <path d="M29.81 58.1188C29.81 58.1188 27.0993 59.755 31.6942 60.2231C37.2257 60.9231 40.1722 60.8072 46.2943 59.6391C47.5247 60.387 48.826 61.0134 50.1796 61.5094C36.4059 67.3544 18.9762 61.1594 29.81 58.1188ZM28.0469 50.5216C28.0469 50.5216 25.1027 52.7419 29.6954 53.2122C35.7007 53.7963 40.4102 53.9122 48.5377 52.2781C49.3282 53.0738 50.2959 53.674 51.363 54.0303C34.7597 58.9391 16.1553 54.4963 28.0469 50.5216ZM60.5462 63.8434C60.5462 63.8434 62.5472 65.4797 58.3093 66.7659C50.4198 69.1066 25.2217 69.8066 18.1564 66.7659C15.6837 65.7159 20.3932 64.1956 21.9028 63.9616C23.4344 63.6116 24.2608 63.6116 24.2608 63.6116C21.5502 61.7413 6.24491 67.4681 16.4903 69.1022C44.6326 73.6609 67.8297 67.1159 60.5285 63.8434H60.5462ZM31.0838 42.5722C31.0838 42.5722 18.2489 45.6128 26.4911 46.6628C30.0237 47.1309 36.9701 47.0128 43.447 46.5469C48.7449 46.0788 54.0472 45.1469 54.0472 45.1469C54.0472 45.1469 52.163 45.965 50.8671 46.7831C37.7987 50.1738 12.7152 48.6534 19.8996 45.1469C26.0217 42.2244 31.086 42.5766 31.086 42.5766L31.0838 42.5722ZM54.0472 55.3122C67.2346 48.5309 61.1125 41.9903 56.8724 42.8063C55.8146 43.0403 55.3408 43.2744 55.3408 43.2744C55.3408 43.2744 55.6934 42.5744 56.5176 42.3403C64.8788 39.4178 71.4725 51.1056 53.807 55.6622C53.807 55.6622 53.9238 55.5463 54.0428 55.3122H54.0472ZM32.384 73.7791C45.0998 74.5972 64.5306 73.3109 65 67.3478C65 67.3478 64.059 69.6884 54.521 71.4384C43.6872 73.4247 30.264 73.1884 22.3744 71.9066C22.3744 71.9066 24.0228 73.3088 32.384 73.7791Z" fill="#4E7896"/>
    <path d="M46.061 4.0022C46.061 4.0022 53.3621 11.3653 39.1146 22.4691C27.6924 31.4684 36.5252 36.6113 39.1146 42.4563C32.4019 36.4953 27.5756 31.2344 30.8725 26.3278C35.6988 19.0784 49.0052 15.5938 46.061 4.0022ZM42.3145 37.5475C45.7304 41.4041 41.3735 44.9106 41.3735 44.9106C41.3735 44.9106 50.0873 40.47 46.083 34.975C42.4335 29.7163 39.6039 27.1438 54.9136 18.3784C54.9136 18.3784 30.7755 24.3394 42.3145 37.5475Z" fill="#F58219"/>
</svg>
