<svg width="78" height="78" viewBox="0 0 78 78" fill="none" xmlns="http://www.w3.org/2000/svg">
<path d="M66.9925 38.4653C66.9925 34.8668 64.047 31.9498 60.4134 31.9498C60.1797 31.9498 59.9492 31.9622 59.722 31.9858L68.7582 5.59137H30.3571L39.3808 31.9628C39.2484 31.9549 39.1153 31.9498 38.981 31.9498C35.3475 31.9498 32.4019 34.8668 32.4019 38.4653C32.4019 41.3741 34.3267 43.8365 36.9833 44.6743C35.5802 47.0813 33.8146 49.2492 31.8101 51.1222C29.0845 53.6687 25.965 55.5996 22.591 56.7896C18.5741 54.7459 16.6771 50.2009 18.3889 46.2158C18.582 45.7658 18.7795 45.3097 18.9679 44.8555C21.8782 44.1829 24.0466 41.5992 24.0466 38.5121C24.0466 34.9136 21.1012 31.9966 17.4675 31.9966C13.834 31.9966 10.8884 34.9136 10.8884 38.5121C10.8884 40.7188 11.9971 42.6678 13.6916 43.8465C12.0633 47.5183 9.66962 51.361 8.9239 55.8148C8.03019 61.1524 8.92101 66.8181 13.5824 70.0178C24.4384 77.4693 36.2224 65.3983 48.6471 62.364C53.1501 61.2643 58.0928 61.4415 62.06 59.1659C65.0392 57.457 67.0033 54.6251 67.5607 51.4457C68.1113 48.3047 67.3085 45.1775 65.4623 42.6417C66.4172 41.5108 66.9925 40.0549 66.9925 38.4653Z" fill="#99425B"/>
<path d="M65.9781 51.1733C65.4941 53.9336 63.7727 56.3448 61.2551 57.7889C58.9084 59.135 56.0961 59.5368 53.1187 59.962C51.5236 60.1897 49.8742 60.4254 48.2629 60.8189C44.0024 61.8593 39.8758 63.8894 35.8851 65.8524C27.8987 69.7811 21.0016 73.1734 14.4982 68.7098C9.73448 65.4399 9.95445 59.3902 10.5094 56.075C11.0238 53.0036 12.4143 50.1751 13.7591 47.4394C13.9914 46.9665 14.2191 46.5023 14.4407 46.0421C15.1072 46.3058 15.8161 46.4858 16.5551 46.5676C15.1862 51.0415 17.3389 55.9062 21.8573 58.205L22.4756 58.5196L23.1305 58.2887C26.7025 57.0289 29.9939 55.0073 32.9133 52.2794C34.8003 50.5163 36.4229 48.5656 37.7564 46.4813C38.1562 46.541 38.5651 46.5723 38.9814 46.5723C43.1283 46.5723 46.5624 43.502 47.0938 39.5366C48.7912 39.4751 50.5942 39.4746 52.3015 39.536C52.8325 43.5017 56.2668 46.5723 60.4138 46.5723C62.1477 46.5723 63.7561 46.0341 65.0811 45.1199C66.001 46.9848 66.3444 49.0831 65.9781 51.1733ZM17.4679 33.5878C20.2098 33.5878 22.4402 35.7969 22.4402 38.5121C22.4402 39.4875 22.1513 40.3969 21.6551 41.1628C20.8284 42.4394 19.4239 43.3144 17.8095 43.4236C17.6966 43.4312 17.5828 43.4365 17.4679 43.4365C16.857 43.4365 16.2717 43.326 15.7305 43.1257C14.6358 42.7199 13.7236 41.9421 13.1498 40.9488C12.7344 40.2297 12.4956 39.3982 12.4956 38.5121C12.4956 35.7969 14.7262 33.5878 17.4679 33.5878ZM34.0091 38.4654C34.0091 35.9983 35.8506 33.9498 38.2434 33.5956C38.4843 33.5598 38.7308 33.541 38.9814 33.541C40.5754 33.541 41.9945 34.2889 42.9048 35.4477C43.131 35.7356 43.3272 36.048 43.4852 36.3815C43.7852 37.0149 43.9537 37.7208 43.9537 38.4654C43.9537 38.8591 43.9055 39.2418 43.817 39.6089C43.3324 41.6179 41.6026 43.1534 39.4831 43.3647C39.3182 43.3811 39.1508 43.3897 38.9814 43.3897C37.9887 43.3897 37.0639 43.099 36.2866 42.6006C34.9176 41.7223 34.0091 40.1974 34.0091 38.4654ZM54.7617 32.6098C53.6965 33.6192 52.9044 34.9088 52.5099 36.3589C50.6686 36.2905 48.7162 36.2905 46.8855 36.3589C46.465 34.8133 45.5928 33.4497 44.4197 32.4139L49.5647 22.1106L54.7617 32.6098ZM32.5987 7.18276H66.5171L58.506 30.5825C58.1588 30.665 57.8201 30.769 57.4913 30.8939L49.5774 14.9056L41.6412 30.7984C41.2981 30.6814 40.9446 30.5872 40.5828 30.5158L32.5987 7.18276ZM65.3861 38.4654C65.3861 38.9591 65.3116 39.4357 65.1745 39.8858C64.848 40.9564 64.1628 41.8738 63.258 42.5011C62.4514 43.0603 61.4709 43.3897 60.4138 43.3897C58.118 43.3897 56.1813 41.8402 55.612 39.7419C55.5014 39.3345 55.4415 38.9068 55.4415 38.4654C55.4415 37.7922 55.5789 37.1505 55.8268 36.5656C55.9546 36.2643 56.114 35.9794 56.297 35.7117C57.1918 34.4038 58.7019 33.541 60.4138 33.541C60.5708 33.541 60.7257 33.5491 60.879 33.5633C63.4035 33.7963 65.3861 35.9054 65.3861 38.4654ZM68.5997 38.4654C68.5997 34.5074 65.7203 31.2051 61.9277 30.4995L71 4.00012H28.1165L37.2025 30.5535C33.5416 31.3603 30.7955 34.6002 30.7955 38.4654C30.7955 41.3676 32.3443 43.9171 34.6654 45.3496C33.549 46.9969 32.2249 48.547 30.7079 49.9645C28.3017 52.2126 25.6212 53.9174 22.7314 55.0391C19.8206 53.2283 18.5901 49.8135 19.868 46.8386L19.9681 46.6054C20.0308 46.4598 20.0935 46.3139 20.156 46.168C23.3531 45.0636 25.6539 42.05 25.6539 38.5121C25.6539 34.0418 21.9816 30.4052 17.4679 30.4052C12.9542 30.4052 9.282 34.0418 9.282 38.5121C9.282 40.7685 10.2185 42.8117 11.7256 44.2829C11.4525 44.8594 11.1649 45.4458 10.8697 46.0462C9.49169 48.8493 7.92986 52.0264 7.3392 55.5544C6.16606 62.5609 8.05841 68.1619 12.6676 71.3256C15.4645 73.2454 18.3048 74.0001 21.1631 74.0001C26.5453 74.0001 31.9897 71.3223 37.3147 68.7028C41.1497 66.8164 45.1153 64.8656 49.0324 63.9089C50.4898 63.553 51.9896 63.3388 53.5774 63.112C56.726 62.6621 59.9819 62.1972 62.8658 60.543C66.2088 58.6253 68.4972 55.4086 69.1443 51.7179C69.6998 48.5494 69.0313 45.3758 67.4009 42.6846C68.1609 41.4547 68.5997 40.0099 68.5997 38.4654Z" fill="white"/>
</svg>
