<svg width="78" height="78" viewBox="0 0 78 78" fill="none" xmlns="http://www.w3.org/2000/svg">
<g clip-path="url(#clip0_722_712)">
<path d="M39 74C58.33 74 74 58.33 74 39C74 19.67 58.33 4 39 4C19.67 4 4 19.67 4 39C4 58.33 19.67 74 39 74Z" fill="#13AA52"/>
<path d="M48.356 34.7234C46.1453 24.9665 40.9206 21.7584 40.358 20.5327C39.7427 19.668 39.1193 18.1299 39.1193 18.1299C39.1091 18.1039 39.0927 18.0581 39.0735 18.0137C39.0099 18.8784 38.9771 19.212 38.1595 20.0843C36.8935 21.0741 30.398 26.5244 29.8696 37.6096C29.3767 47.9482 37.3379 54.1088 38.4145 54.8942L38.5369 54.9811V54.9735C38.5437 55.0255 38.8787 57.4345 39.1138 59.987H39.9574C40.1553 58.1827 40.452 56.3906 40.8461 54.6187L40.9144 54.5743C41.396 54.229 41.8552 53.8534 42.2891 53.4498L42.3384 53.4054C44.627 51.291 48.7416 46.4006 48.7012 38.6035C48.6927 37.3029 48.5773 36.0051 48.356 34.7234ZM39.0243 49.057C39.0243 49.057 39.0243 34.5566 39.5028 34.5594C39.876 34.5594 40.3593 53.2632 40.3593 53.2632C39.6949 53.1832 39.0243 50.185 39.0243 49.057Z" fill="white"/>
</g>
<defs>
<clipPath id="clip0_722_712">
<rect width="70" height="70" fill="white" transform="translate(4 4)"/>
</clipPath>
</defs>
</svg>
