<svg width="78" height="78" viewBox="0 0 78 78" fill="none" xmlns="http://www.w3.org/2000/svg">
<path d="M39 77C37.913 77 36.8985 76.7207 35.9565 76.232L26.3188 70.7161C24.8696 69.9481 25.5942 69.6688 26.029 69.5292C27.9855 68.9008 28.3478 68.7611 30.3768 67.644C30.5942 67.5044 30.8841 67.5742 31.1014 67.7138L38.4928 71.9729C38.7826 72.1125 39.1449 72.1125 39.3623 71.9729L68.2754 55.8443C68.5652 55.7046 68.7101 55.4254 68.7101 55.0763V22.8888C68.7101 22.5397 68.5652 22.2605 68.2754 22.1208L39.3623 6.06201C39.0725 5.92237 38.7101 5.92237 38.4928 6.06201L9.57971 22.1208C9.28986 22.2605 9.14493 22.6096 9.14493 22.8888V55.0763C9.14493 55.3555 9.28986 55.7046 9.57971 55.8443L17.4783 60.243C21.7536 62.3376 24.4348 59.8939 24.4348 57.4502V25.6817C24.4348 25.2627 24.7971 24.8438 25.3043 24.8438H29C29.4348 24.8438 29.8696 25.1929 29.8696 25.6817V57.4502C29.8696 62.966 26.7536 66.1778 21.3188 66.1778C19.6522 66.1778 18.3478 66.1778 14.6522 64.4322L7.04348 60.243C5.15942 59.1957 4 57.2407 4 55.1461V22.9587C4 20.864 5.15942 18.909 7.04348 17.8617L35.9565 1.73312C37.7681 0.755627 40.2319 0.755627 42.0435 1.73312L70.9565 17.8617C72.8406 18.909 74 20.864 74 22.9587V55.1461C74 57.2407 72.8406 59.1957 70.9565 60.243L42.0435 76.3716C41.1014 76.7905 40.0145 77 39 77ZM47.913 54.8668C35.2319 54.8668 32.6232 49.2811 32.6232 44.5333C32.6232 44.1144 32.9855 43.6954 33.4928 43.6954H37.2609C37.6957 43.6954 38.058 43.9747 38.058 44.3937C38.6377 48.0942 40.3043 49.9095 47.9855 49.9095C54.0725 49.9095 56.6812 48.5829 56.6812 45.441C56.6812 43.6256 55.9565 42.299 46.4638 41.3914C38.5652 40.6233 33.6377 38.9476 33.6377 32.8732C33.6377 27.2177 38.5652 23.8663 46.8261 23.8663C56.1014 23.8663 60.6667 26.9384 61.2464 33.6412C61.2464 33.8507 61.1739 34.0602 61.029 34.2696C60.8841 34.4093 60.6667 34.5489 60.4493 34.5489H56.6812C56.3188 34.5489 55.9565 34.2696 55.8841 33.9205C55.0145 30.0804 52.7681 28.8236 46.8261 28.8236C40.1594 28.8236 39.3623 31.0579 39.3623 32.7336C39.3623 34.7584 40.3043 35.3868 49.2899 36.5039C58.2029 37.621 62.4058 39.2269 62.4058 45.2315C62.3333 51.3757 57.1159 54.8668 47.913 54.8668Z" fill="#539E43"/>
</svg>
