<svg width="12" height="15" viewBox="0 0 12 15" fill="none" xmlns="http://www.w3.org/2000/svg">
    <g clip-path="url(#clip0_4771_14725)">
        <path d="M11.993 5.76289C11.9393 8.26002 11.4311 10.6204 9.89305 12.6448C8.17364 14.9072 5.47277 15.4639 3.03335 14.6391C1.45204 14.1039 0.550696 12.8397 0.239706 11.2213C-0.359081 8.0985 0.138503 5.1405 2.02026 2.56907C3.65849 0.328222 5.93557 -0.408318 8.59638 0.209772C10.5698 0.668494 11.8159 2.43124 11.9899 4.9036C12.0099 5.18895 11.993 5.47646 11.993 5.76289ZM10.9662 5.82535C10.9704 5.32032 10.9588 4.81853 10.8587 4.32427C10.554 2.82104 9.8941 1.59994 8.34231 1.12722C6.41312 0.540354 4.22776 1.21336 3.01542 2.86088C1.22117 5.29986 0.697231 8.07158 1.27915 11.0328C1.57644 12.5457 2.48938 13.6236 4.02219 13.9467C6.03361 14.3699 7.72771 13.7528 9.00857 12.0902C10.4233 10.2543 10.8872 8.0985 10.9662 5.82427V5.82535Z" fill="#080808"/>
        <path d="M7.58499 8.9243C7.58499 7.56967 7.61134 6.38517 7.57339 5.20391C7.55547 4.65904 7.88649 4.8238 8.14898 4.81303C8.41675 4.80226 8.68136 4.72042 8.67187 5.20391C8.64024 6.88912 8.64657 8.57433 8.66976 10.2595C8.67503 10.6235 8.53588 10.6321 8.24913 10.659C7.75682 10.7043 7.45532 10.5298 7.16436 10.1153C6.23666 8.79293 5.25941 7.50721 4.28638 6.18704C4.15988 6.34318 4.21681 6.50578 4.21681 6.65115C4.21259 7.85287 4.18834 9.05459 4.22629 10.2542C4.24211 10.7473 3.95853 10.6612 3.69814 10.6397C3.46832 10.6214 3.1236 10.827 3.13098 10.294C3.15417 8.57326 3.14363 6.85143 3.13308 5.13069C3.13203 4.87333 3.2132 4.82379 3.45672 4.79687C4.19045 4.71611 4.71755 4.9024 5.15926 5.59049C5.87401 6.70499 6.71211 7.73765 7.58604 8.92322L7.58499 8.9243Z" fill="#080808"/>
    </g>
    <defs>
        <clipPath id="clip0_4771_14725">
            <rect width="12" height="15" fill="white"/>
        </clipPath>
    </defs>
</svg>
