<svg width="78" height="78" viewBox="0 0 78 78" fill="none" xmlns="http://www.w3.org/2000/svg">
<g clip-path="url(#clip0_722_735)">
<path d="M57.4729 57.4191C57.9755 53.2353 57.8244 52.6249 60.9384 53.3001L61.7307 53.371C64.1263 53.4789 67.2587 52.9856 69.1302 52.1316C73.092 50.2941 75.4413 47.2233 71.535 48.0311C62.6248 49.8686 61.9774 46.8502 61.9774 46.8502C71.3901 32.8838 75.3272 15.1559 71.9265 10.818C62.6649 -1.02117 46.6296 4.57775 46.3614 4.72574L46.2751 4.74115C44.5177 4.37118 42.5754 4.15536 40.3247 4.12453C36.292 4.06287 33.2335 5.18204 30.9089 6.94249C30.9089 6.94249 2.30691 -4.84114 3.63573 21.763C3.91937 27.4236 11.7443 64.6182 21.0861 53.3648C24.5053 49.252 27.8042 45.7773 27.8042 45.7773C29.4382 46.8656 31.4022 47.4206 33.4586 47.2202L33.6189 47.0845C33.5715 47.6175 33.5933 48.1543 33.6837 48.6816C31.2789 51.3701 31.988 51.8418 27.1783 52.8314C22.3132 53.8335 25.1743 55.6186 27.0365 56.0872C29.2995 56.6545 34.5346 57.4561 38.074 52.5046L37.9322 53.0688C38.8756 53.8242 38.8109 58.4951 38.9496 61.831C39.0884 65.167 39.3073 68.284 39.9886 70.1184C40.67 71.9529 41.4685 76.6854 47.7889 75.3597C53.0703 74.2282 57.1091 72.5972 57.4791 57.4469" fill="black"/>
<path d="M57.4729 57.4191C57.9755 53.2353 57.8244 52.6249 60.9383 53.3001L61.7307 53.371C64.1263 53.4789 67.2587 52.9856 69.1302 52.1316C73.092 50.2941 75.4413 47.2233 71.535 48.0311C62.6248 49.8686 61.9774 46.8502 61.9774 46.8502C71.3901 32.8838 75.3272 15.1559 71.9265 10.818C62.6649 -1.02117 46.6296 4.57775 46.3614 4.72574L46.2751 4.74115C44.5177 4.37118 42.5754 4.15536 40.3247 4.12453C36.292 4.06287 33.2335 5.18204 30.9089 6.94249C30.9089 6.94249 2.30691 -4.84114 3.63573 21.763C3.91937 27.4236 11.7443 64.6182 21.0861 53.3648C24.5053 49.252 27.8042 45.7773 27.8042 45.7773C29.4382 46.8656 31.4022 47.4206 33.4586 47.2202L33.6189 47.0845C33.5715 47.6175 33.5933 48.1543 33.6837 48.6816C31.2789 51.3701 31.988 51.8418 27.1783 52.8314C22.3132 53.8335 25.1743 55.6186 27.0365 56.0872C29.2995 56.6545 34.5346 57.4561 38.074 52.5046L37.9322 53.0688C38.8756 53.8242 38.8109 58.4951 38.9496 61.831C39.0884 65.167 39.3073 68.284 39.9886 70.1184C40.67 71.9529 41.4685 76.6854 47.7889 75.3597C53.0703 74.2282 57.1091 72.5972 57.4791 57.4469" stroke="black" stroke-width="5.3725"/>
<path d="M71.5066 48.0588C62.5964 49.8964 61.9489 46.878 61.9489 46.878C71.3617 32.9115 75.2988 15.1837 71.9012 10.8457C62.6395 -0.993391 46.6043 4.60861 46.3361 4.75352L46.2498 4.76894C44.2912 4.37595 42.2999 4.16847 40.3024 4.14923C36.2697 4.08757 33.2113 5.20674 30.8866 6.96719C30.8866 6.96719 2.28157 -4.81644 3.61347 21.7877C3.89711 27.4483 11.722 64.6429 21.0639 53.3895C24.5046 49.252 27.8035 45.7773 27.8035 45.7773C29.4376 46.8657 31.4015 47.4206 33.4579 47.2202L33.6183 47.0846C33.5712 47.6175 33.5929 48.1543 33.683 48.6816C31.2782 51.3701 31.9873 51.8418 27.1777 52.8315C22.3125 53.8335 25.1736 55.6186 27.0358 56.0872C29.2988 56.6545 34.5339 57.4561 38.0734 52.5047L37.9315 53.0689C38.875 53.8242 39.5347 57.9803 39.4238 61.7478C39.3128 65.5154 39.2388 68.099 39.9787 70.1216C40.7187 72.1441 41.4586 76.6886 47.779 75.3628C53.0603 74.2313 55.795 71.2931 56.1804 66.4033C56.4518 62.9256 57.0622 63.4374 57.1054 60.3296L57.5987 58.8559C58.1629 54.1387 57.6912 52.6188 60.9438 53.3279L61.7362 53.3988C64.1318 53.5067 67.2673 53.0134 69.1048 52.1594C73.0666 50.3218 75.4129 47.2511 71.5066 48.0588Z" fill="#336791"/>
<path d="M38.4531 50.7319C38.2065 59.5064 38.5148 68.3426 39.3719 70.4638C40.229 72.5849 42.0696 76.7841 48.393 75.4337C53.6744 74.3022 55.5983 72.1101 56.4307 67.2727L58.3823 51.8048M30.8748 6.74518C30.8748 6.74518 2.25126 -4.95829 3.58317 21.6458C3.86681 27.3064 11.6917 64.501 21.0336 53.2477C24.4435 49.1379 27.5266 45.9222 27.5266 45.9222M46.3335 4.60859C45.3469 4.9169 62.2547 -1.57304 71.8678 10.707C75.2592 15.0449 71.3283 32.7728 61.9155 46.7392" stroke="white" stroke-width="1.79" stroke-linecap="round" stroke-linejoin="round"/>
<path d="M61.9185 46.7331C61.9185 46.7331 62.5351 49.7545 71.4761 47.9108C75.3824 47.103 73.03 50.1738 69.0713 52.0113C65.8217 53.5221 58.5332 53.9075 58.413 51.8264C58.1047 46.4463 62.2484 48.0804 61.9493 46.7331C61.678 45.5183 59.822 44.3282 58.6011 41.3561C57.5312 38.7663 43.9255 18.8803 62.3748 21.8308C63.0531 21.6921 57.5651 4.2571 40.2997 4.00429C23.0343 3.75147 23.5801 25.2315 23.5801 25.2315" stroke="white" stroke-width="1.79" stroke-linecap="round" stroke-linejoin="bevel"/>
<path d="M33.6212 48.5768C31.2164 51.2653 31.9255 51.737 27.1159 52.7267C22.2507 53.7287 25.1119 55.5138 26.9741 55.9824C29.2371 56.5497 34.4722 57.3513 38.0116 52.3968C39.0907 50.8861 38.0054 48.4812 36.5255 47.8708C35.8102 47.5748 34.8545 47.2048 33.6274 48.5799L33.6212 48.5768Z" stroke="white" stroke-width="1.79" stroke-linejoin="round"/>
<path d="M33.4638 48.5306C33.2171 46.9489 33.9817 45.0713 34.7987 42.87C36.0258 39.571 38.8561 36.2721 36.5931 25.7988C34.9067 17.9985 23.5824 24.174 23.5824 25.2315C23.5824 26.289 24.0942 30.5961 23.3974 35.6062C22.4817 42.1485 27.5596 47.6796 33.4052 47.1154" stroke="white" stroke-width="1.79" stroke-linecap="round" stroke-linejoin="round"/>
<path d="M30.7693 25.0743C30.7169 25.435 31.4322 26.4 32.3602 26.5295C33.2882 26.659 34.0806 25.9067 34.133 25.5429C34.1854 25.1791 33.4701 24.7845 32.5421 24.655C31.6141 24.5255 30.8156 24.7166 30.7693 25.0743Z" fill="white" stroke="white" stroke-width="0.5975"/>
<path d="M59.023 24.3374C59.0724 24.6981 58.3602 25.6631 57.4321 25.7926C56.5041 25.9221 55.7056 25.1698 55.6594 24.806C55.6131 24.4422 56.3222 24.0476 57.2502 23.9181C58.1783 23.7886 58.9768 23.9798 59.023 24.3374Z" fill="white" stroke="white" stroke-width="0.2975"/>
<path d="M62.3408 21.837C62.495 24.6734 61.7304 26.6004 61.6317 29.6187C61.4899 34.0029 63.7221 39.0222 60.3584 44.0477" stroke="white" stroke-width="1.79" stroke-linecap="round" stroke-linejoin="round"/>
</g>
<defs>
<clipPath id="clip0_722_735">
<rect width="78" height="78" fill="white"/>
</clipPath>
</defs>
</svg>
