<svg width="70" height="63" viewBox="0 0 70 63" fill="none" xmlns="http://www.w3.org/2000/svg">
<path d="M35 37.7581C38.4518 37.7581 41.25 34.9279 41.25 31.4367C41.25 27.9454 38.4518 25.1152 35 25.1152C31.5482 25.1152 28.75 27.9454 28.75 31.4367C28.75 34.9279 31.5482 37.7581 35 37.7581Z" fill="#00D8FF"/>
<path d="M35 45.9313C27.4878 46.1151 19.9945 45.0909 12.8 42.897C9.47655 41.8314 6.37684 40.1528 3.6575 37.9461C2.61982 37.1922 1.75568 36.2202 1.12436 35.0967C0.493031 33.9733 0.109474 32.725 0 31.4375C0 27.2577 4.54 23.1614 12.145 20.4811C19.5318 18.1062 27.2498 16.9551 35 17.0726C42.6468 16.9646 50.2614 18.0948 57.555 20.4205C60.7557 21.4525 63.7503 23.05 66.4 25.1388C67.4199 25.8575 68.2711 26.7943 68.8932 27.8828C69.5154 28.9713 69.8932 30.1849 70 31.4375C70 35.7816 64.925 40.1839 56.75 42.9198C49.6948 45.0422 42.3596 46.0578 35 45.9313ZM35 20.0968C27.5853 19.9966 20.2021 21.0908 13.1275 23.3384C6.1275 25.8089 2.99 29.1871 2.99 31.4299C2.99 33.7764 6.3625 37.4656 13.7675 40.0271C20.6502 42.1153 27.8165 43.0874 35 42.9071C42.041 43.0345 49.0598 42.0709 55.8125 40.0498C63.5 37.4732 67 33.779 67 31.4375C66.8739 30.634 66.5844 29.8656 66.1497 29.181C65.7151 28.4964 65.1449 27.9104 64.475 27.46C62.1044 25.6069 59.4292 24.1912 56.5725 23.2778C49.5951 21.0621 42.3124 19.9882 35 20.0968Z" fill="#00D8FF"/>
<path d="M20.8 62.9654C19.6338 62.9925 18.4813 62.7063 17.46 62.136C13.88 60.0474 12.64 54.0243 14.1425 46.0214C15.7991 38.3625 18.6695 31.0251 22.6425 24.2933C26.3693 17.5397 31.1405 11.4327 36.775 6.2038C39.2579 3.91468 42.1222 2.08864 45.235 0.810332C46.3609 0.276648 47.5891 0 48.8325 0C50.0759 0 51.3041 0.276648 52.43 0.810332C56.1525 2.97986 57.385 9.62497 55.6475 18.1539C53.9397 25.3972 51.1439 32.3327 47.3575 38.7188C43.7618 45.3927 39.1409 51.4465 33.6675 56.6541C31.0945 59.0329 28.1083 60.9095 24.86 62.1891C23.5596 62.6773 22.1869 62.9398 20.8 62.9654ZM25.2325 25.7952C21.4427 32.2414 18.6917 39.2567 17.0825 46.5777C15.7 53.9485 17.0275 58.3811 18.9575 59.5088C20.9575 60.6796 25.8125 59.5695 31.7075 54.3606C36.9326 49.3716 41.3431 43.5768 44.775 37.1916C48.4023 31.0863 51.0842 24.4555 52.7275 17.5293C54.3625 9.50107 52.95 4.58551 50.945 3.4173C50.1935 3.12608 49.3905 2.99571 48.5867 3.03445C47.7828 3.07318 46.9957 3.28018 46.275 3.64234C43.5042 4.79878 40.9568 6.44055 38.75 8.49216C33.3667 13.5007 28.8092 19.3472 25.25 25.8104L25.2325 25.7952Z" fill="#00D8FF"/>
<path d="M49.1926 62.9985C45.8051 62.9985 41.5026 60.9251 37.0226 57.0285C31.2894 51.7521 26.4376 45.5725 22.6551 38.7292C18.7319 32.09 15.8843 24.8588 14.2201 17.3096C13.4984 13.9882 13.3646 10.5638 13.8251 7.19525C13.9316 5.94564 14.3078 4.73487 14.9272 3.64831C15.5466 2.56175 16.3942 1.62587 17.4101 0.906663C21.1276 -1.27045 27.4351 0.967349 33.8726 6.74769C39.2241 11.8609 43.7686 17.7741 47.3476 24.2809C51.2684 30.765 54.1459 37.8379 55.8726 45.2352C56.6254 48.6784 56.7415 52.2328 56.2151 55.7187C56.0899 57.0043 55.6912 58.2472 55.0465 59.3624C54.4019 60.4775 53.5264 61.4384 52.4801 62.1793C51.4755 62.7424 50.3409 63.0252 49.1926 62.9985ZM25.2426 37.207C28.8712 43.747 33.5058 49.6612 38.9726 54.7275C44.5951 59.6203 49.0551 60.6722 50.9726 59.5318C52.9726 58.356 54.4476 53.5568 52.9276 45.7915C51.2623 38.729 48.5023 31.9776 44.7501 25.7879C41.3347 19.5603 36.997 13.8982 31.8876 8.99812C25.8276 3.55662 20.9126 2.34037 18.9101 3.51363C18.286 4.02663 17.7738 4.66495 17.4059 5.38829C17.038 6.11162 16.8223 6.90425 16.7726 7.71613C16.3751 10.7203 16.5046 13.7718 17.1551 16.7305C18.7559 23.95 21.487 30.8643 25.2451 37.212L25.2426 37.207Z" fill="#00D8FF"/>
</svg>
