<svg width="78" height="78" viewBox="0 0 78 78" fill="none" xmlns="http://www.w3.org/2000/svg">
<path d="M4 62.9999H19.194L20.2793 49.9084L6.16967 46.6366L4 62.9999Z" fill="#4C4C4C"/>
<path d="M6.71289 44.454L20.279 47.7266L23.5348 36.2723L12.1393 30.2733L6.71289 44.454Z" fill="#4C4C4C"/>
<path d="M13.2246 28.0907L24.0775 34.0906L32.7607 28.0907L24.621 18.8181L13.2246 28.0907Z" fill="#4C4C4C"/>
<path d="M74 62.9999H58.8069L57.7207 49.9084L71.8303 46.6366L74 62.9999Z" fill="#4C4C4C"/>
<path d="M71.2868 44.454L57.7208 47.7266L54.4658 36.2723L65.8604 30.2733L71.2868 44.454Z" fill="#4C4C4C"/>
<path d="M64.7754 28.0907L53.9226 34.0906L45.2412 28.0907L53.3809 18.8181L64.7754 28.0907Z" fill="#4C4C4C"/>
<path d="M27.334 17.1818L35.4736 26.9998H43.0697L50.125 17.1818L43.0697 15H35.2828L27.334 17.1818Z" fill="#4C4C4C"/>
<path d="M4 62.9999H19.194L20.2793 49.9084L6.16967 46.6366L4 62.9999Z" fill="#9C0000"/>
<path d="M6.71289 44.454L20.279 47.7266L23.5348 36.2723L12.1393 30.2733L6.71289 44.454Z" fill="#B50808"/>
<path d="M13.2246 28.0907L24.0775 34.0906L32.7607 28.0907L24.621 18.8181L13.2246 28.0907Z" fill="#C61818"/>
<path d="M74 62.9999H58.8069L57.7207 49.9084L71.8303 46.6366L74 62.9999Z" fill="#9C0000"/>
<path d="M71.2868 44.454L57.7208 47.7266L54.4658 36.2723L65.8604 30.2733L71.2868 44.454Z" fill="#B50808"/>
<path d="M64.7754 28.0907L53.9226 34.0906L45.2412 28.0907L53.3809 18.8181L64.7754 28.0907Z" fill="#C61818"/>
<path d="M27.334 17.1818L35.4736 26.9998H43.0697L50.125 17.1818L43.0697 15H35.2828L27.334 17.1818Z" fill="#CE3129"/>
</svg>
