<svg width="78" height="78" viewBox="0 0 78 78" fill="none" xmlns="http://www.w3.org/2000/svg">
<g clip-path="url(#clip0_1084_68)">
<path d="M4 39V4H74V74H4" fill="#007ACC"/>
<path d="M19.3477 39.1225V41.975H28.4477V67.875H34.9052V41.975H44.0052V39.175C44.0052 37.6 44.0052 36.3225 43.9352 36.2875C43.9352 36.235 38.3877 36.2175 31.6502 36.2175L19.4002 36.27V39.14L19.3477 39.1225ZM60.2452 36.2C62.0302 36.62 63.3952 37.425 64.6202 38.7025C65.2677 39.4025 66.2302 40.6275 66.3002 40.9425C66.3002 41.0475 63.2727 43.095 61.4352 44.2325C61.3652 44.285 61.0852 43.9875 60.8052 43.5325C59.8952 42.2375 58.9677 41.6775 57.5152 41.5725C55.4152 41.4325 54.0152 42.535 54.0152 44.3725C54.0152 44.9325 54.1202 45.2475 54.3302 45.7025C54.8027 46.665 55.6777 47.2425 58.3902 48.4325C63.3952 50.585 65.5652 52.0025 66.8777 54.0325C68.3652 56.3075 68.6977 59.8775 67.7002 62.555C66.5802 65.4775 63.8502 67.455 59.9477 68.1025C58.7227 68.3125 55.9227 68.2775 54.6102 68.05C51.8102 67.525 49.1327 66.125 47.4877 64.3225C46.8402 63.6225 45.5977 61.75 45.6677 61.6275L46.3327 61.2075L48.9577 59.685L50.9352 58.53L51.3902 59.1425C51.9677 60.0525 53.2627 61.2775 54.0152 61.6975C56.2902 62.87 59.3352 62.7125 60.8402 61.3475C61.4877 60.7525 61.7677 60.1225 61.7677 59.2475C61.7677 58.4425 61.6452 58.075 61.2427 57.4625C60.6827 56.6925 59.5627 56.0625 56.4127 54.6625C52.7902 53.1225 51.2502 52.1425 49.8152 50.6375C48.9927 49.7275 48.2402 48.31 47.8902 47.1375C47.6277 46.1225 47.5402 43.6375 47.7852 42.64C48.5377 39.14 51.1802 36.69 54.9602 35.99C56.1852 35.745 59.0727 35.85 60.2802 36.165L60.2452 36.2Z" fill="white"/>
</g>
<defs>
<clipPath id="clip0_1084_68">
<rect width="70" height="70" fill="white" transform="translate(4 4)"/>
</clipPath>
</defs>
</svg>
