<svg width="32" height="52" viewBox="0 0 32 52" fill="none" xmlns="http://www.w3.org/2000/svg">
<path fill-rule="evenodd" clip-rule="evenodd" d="M4.33333 0.654297C3.44928 0.654297 2.60143 1.00602 1.97631 1.63208C1.35119 2.25814 1 3.10727 1 3.99266V47.3914C1 48.2767 1.35119 49.1259 1.97631 49.7519C2.60143 50.378 3.44928 50.7297 4.33333 50.7297H27.6667C28.5507 50.7297 29.3986 50.378 30.0237 49.7519C30.6488 49.1259 31 48.2767 31 47.3914V3.99266C31 3.10727 30.6488 2.25814 30.0237 1.63208C29.3986 1.00602 28.5507 0.654297 27.6667 0.654297H4.33333ZM29.3333 42.3838H2.66667V9.0002H29.3333V42.3838ZM4.33333 49.0605C3.89131 49.0605 3.46738 48.8847 3.15482 48.5716C2.84226 48.2586 2.66667 47.8341 2.66667 47.3914V44.053H29.3333V47.3914C29.3333 47.8341 29.1577 48.2586 28.8452 48.5716C28.5326 48.8847 28.1087 49.0605 27.6667 49.0605H4.33333ZM29.3333 3.99266V7.33102H2.66667V3.99266C2.66667 3.54996 2.84226 3.1254 3.15482 2.81237C3.46738 2.49934 3.89131 2.32348 4.33333 2.32348H27.6667C28.1087 2.32348 28.5326 2.49934 28.8452 2.81237C29.1577 3.1254 29.3333 3.54996 29.3333 3.99266ZM5.2075 30.7964C5.23121 31.0566 5.32679 31.305 5.48354 31.5139C5.64029 31.7228 5.85202 31.8838 6.095 31.979L7.32167 32.4706C7.49799 33.058 7.73365 33.626 8.025 34.1656L7.50417 35.3849C7.39933 35.6246 7.3633 35.8888 7.4001 36.1478C7.4369 36.4068 7.54508 36.6505 7.7125 36.8513C7.91 37.0875 8.12 37.317 8.34 37.5365C8.56 37.756 8.78833 37.9672 9.02583 38.1666C9.22625 38.334 9.46931 38.442 9.72767 38.4786C9.98604 38.5151 10.2495 38.4788 10.4883 38.3736L11.7058 37.852C12.2446 38.1438 12.8117 38.3798 13.3983 38.5564L13.8892 39.7849C13.9841 40.028 14.1446 40.2399 14.3528 40.3969C14.5611 40.5538 14.8088 40.6497 15.0683 40.6737C15.3758 40.7021 15.6883 40.7146 16 40.7146C16.3117 40.7146 16.6242 40.7021 16.93 40.6737C17.1898 40.65 17.4379 40.5543 17.6465 40.3973C17.855 40.2403 18.0158 40.0283 18.1108 39.7849L18.6017 38.5564C19.1883 38.3798 19.7554 38.1438 20.2942 37.852L21.5117 38.3736C21.751 38.4785 22.0147 38.5146 22.2734 38.4777C22.532 38.4408 22.7752 38.3326 22.9758 38.165C23.2117 37.9672 23.4408 37.7569 23.66 37.5365C23.8792 37.3162 24.09 37.0875 24.2892 36.8497C24.456 36.6488 24.5637 36.4054 24.6002 36.1467C24.6367 35.888 24.6006 35.6242 24.4958 35.3849L23.975 34.1656C24.2663 33.626 24.502 33.058 24.6783 32.4706L25.905 31.979C26.1477 31.8839 26.3592 31.7231 26.5159 31.5145C26.6726 31.306 26.7684 31.0579 26.7925 30.798C26.8208 30.4901 26.8333 30.1771 26.8333 29.865C26.8333 29.5528 26.8208 29.2399 26.7925 28.9336C26.7688 28.6734 26.6732 28.4249 26.5165 28.216C26.3597 28.0071 26.148 27.8461 25.905 27.7509L24.6783 27.2594C24.502 26.6719 24.2663 26.1039 23.975 25.5643L24.4958 24.345C24.6007 24.1057 24.6369 23.8418 24.6002 23.5831C24.5636 23.3243 24.4556 23.0809 24.2883 22.8803C24.0911 22.6433 23.8817 22.4143 23.66 22.1934C23.4383 21.9725 23.2097 21.7625 22.9742 21.5633C22.774 21.3955 22.5309 21.2872 22.2724 21.2506C22.014 21.2141 21.7504 21.2507 21.5117 21.3563L20.2942 21.8779C19.7554 21.5862 19.1883 21.3501 18.6017 21.1735L18.1108 19.945C18.0159 19.7019 17.8554 19.49 17.6472 19.3331C17.4389 19.1761 17.1912 19.0802 16.9317 19.0562C16.3124 18.9986 15.6892 18.9986 15.07 19.0562C14.8102 19.0799 14.5621 19.1757 14.3535 19.3326C14.145 19.4896 13.9842 19.7017 13.8892 19.945L13.3983 21.1735C12.8117 21.3501 12.2446 21.5862 11.7058 21.8779L10.4917 21.3571C10.252 21.2515 9.98763 21.2149 9.72835 21.2516C9.46907 21.2884 9.22518 21.3969 9.02417 21.565C8.78833 21.7628 8.55917 21.9731 8.34 22.1934C8.12083 22.4137 7.91 22.6424 7.71083 22.8803C7.54401 23.0811 7.43631 23.3245 7.39981 23.5832C7.36331 23.8419 7.39945 24.1057 7.50417 24.345L8.025 25.5643C7.73365 26.1039 7.49799 26.6719 7.32167 27.2594L6.095 27.7509C5.85226 27.846 5.64069 28.0068 5.48396 28.2153C5.32723 28.4239 5.2315 28.672 5.2075 28.9319C5.17917 29.2399 5.16667 29.5528 5.16667 29.865C5.16667 30.1771 5.17917 30.4901 5.2075 30.7964ZM6.85417 29.2449L8.325 28.6556C8.44796 28.6065 8.55745 28.5287 8.6444 28.4287C8.73136 28.3287 8.79326 28.2093 8.825 28.0806C9.00217 27.3648 9.28591 26.6797 9.66667 26.0484C9.73493 25.935 9.77529 25.807 9.78442 25.675C9.79355 25.5429 9.77118 25.4106 9.71917 25.2889L9.09417 23.8267C9.22917 23.6715 9.37083 23.5196 9.5175 23.3735C9.66417 23.2275 9.815 23.0848 9.97 22.9495L11.43 23.5755C11.5515 23.6276 11.6836 23.65 11.8155 23.6408C11.9474 23.6317 12.0752 23.5913 12.1883 23.5229C12.8186 23.1413 13.5027 22.8568 14.2175 22.6791C14.346 22.6474 14.4652 22.5854 14.565 22.4983C14.6649 22.4112 14.7426 22.3015 14.7917 22.1784L15.38 20.7053C15.7923 20.6761 16.2061 20.6761 16.6183 20.7053L17.2067 22.1784C17.2558 22.3015 17.3335 22.4112 17.4333 22.4983C17.5332 22.5854 17.6523 22.6474 17.7808 22.6791C18.4959 22.8565 19.1802 23.1407 19.8108 23.5221C19.924 23.5904 20.0518 23.6309 20.1837 23.64C20.3155 23.6492 20.4477 23.6267 20.5692 23.5747L22.0292 22.9487C22.1842 23.0839 22.3358 23.2258 22.4817 23.3727C22.6275 23.5196 22.7692 23.6698 22.905 23.8267L22.28 25.2881C22.228 25.4098 22.2056 25.5421 22.2147 25.6742C22.2239 25.8062 22.2642 25.9342 22.3325 26.0475C22.7135 26.6788 22.9976 27.3639 23.175 28.0798C23.2067 28.2085 23.2686 28.3278 23.3556 28.4278C23.4425 28.5278 23.552 28.6056 23.675 28.6548L25.1458 29.244C25.16 29.4493 25.1667 29.6613 25.1667 29.8641C25.1667 30.0669 25.16 30.2814 25.1458 30.4842L23.675 31.0735C23.552 31.1226 23.4425 31.2004 23.3556 31.3004C23.2686 31.4004 23.2067 31.5197 23.175 31.6485C22.9979 32.3646 22.7142 33.05 22.3333 33.6815C22.2651 33.7949 22.2247 33.9229 22.2156 34.0549C22.2065 34.187 22.2288 34.3193 22.2808 34.441L22.9058 35.9032C22.7708 36.0585 22.6292 36.2104 22.4825 36.3564C22.3358 36.5025 22.185 36.6452 22.03 36.7804L20.57 36.1544C20.4485 36.1023 20.3164 36.0799 20.1845 36.0891C20.0526 36.0982 19.9248 36.1387 19.8117 36.207C19.1814 36.5886 18.4973 36.8731 17.7825 37.0508C17.654 37.0826 17.5348 37.1446 17.435 37.2317C17.3351 37.3187 17.2574 37.4284 17.2083 37.5515L16.62 39.0246C16.2077 39.0538 15.7939 39.0538 15.3817 39.0246L14.7933 37.5515C14.7442 37.4284 14.6665 37.3187 14.5667 37.2317C14.4668 37.1446 14.3477 37.0826 14.2192 37.0508C13.5041 36.8734 12.8198 36.5893 12.1892 36.2079C12.076 36.1395 11.9482 36.0991 11.8163 36.0899C11.6845 36.0808 11.5523 36.1032 11.4308 36.1553L9.97083 36.7812C9.81583 36.646 9.66417 36.5041 9.51833 36.3572C9.3725 36.2104 9.23 36.0593 9.095 35.9041L9.72 34.4419C9.77201 34.3202 9.79438 34.1878 9.78525 34.0558C9.77612 33.9237 9.73576 33.7957 9.6675 33.6824C9.28645 33.0511 9.00244 32.3661 8.825 31.6502C8.79326 31.5214 8.73136 31.4021 8.6444 31.3021C8.55745 31.2021 8.44796 31.1243 8.325 31.0751L6.85417 30.4859C6.84 30.2823 6.83333 30.0719 6.83333 29.865C6.83333 29.658 6.84 29.4477 6.85417 29.2449ZM11.8304 17.3358C11.6119 17.3377 11.4014 17.2536 11.2442 17.1016L8.74419 14.5978C8.58797 14.4413 8.5002 14.229 8.5002 14.0077C8.5002 13.7864 8.58797 13.5742 8.74419 13.4177L11.2442 10.9139C11.4014 10.7619 11.6119 10.6778 11.8304 10.6797C12.0489 10.6816 12.2579 10.7693 12.4124 10.9241C12.5669 11.0788 12.6545 11.2881 12.6564 11.507C12.6583 11.7258 12.5743 11.9366 12.4225 12.094L10.5117 14.0077L12.4225 15.9214C12.5743 16.0788 12.6583 16.2897 12.6564 16.5085C12.6545 16.7273 12.5669 16.9366 12.4124 17.0914C12.2579 17.2461 12.0489 17.3339 11.8304 17.3358ZM19.5775 17.1016C19.7338 17.258 19.9457 17.3459 20.1667 17.3459C20.3877 17.3459 20.5996 17.258 20.7559 17.1016L23.2559 14.5978C23.4121 14.4413 23.4998 14.229 23.4998 14.0077C23.4998 13.7864 23.4121 13.5742 23.2559 13.4177L20.7559 10.9139C20.5987 10.7619 20.3882 10.6778 20.1697 10.6797C19.9512 10.6816 19.7422 10.7693 19.5877 10.9241C19.4332 11.0788 19.3455 11.2881 19.3436 11.507C19.3417 11.7258 19.4257 11.9366 19.5775 12.094L21.4884 14.0077L19.5775 15.9214C19.4213 16.078 19.3335 16.2902 19.3335 16.5115C19.3335 16.7328 19.4213 16.945 19.5775 17.1016ZM15.539 17.2573C15.3415 17.3561 15.1129 17.3725 14.9033 17.3027C14.7993 17.2684 14.7031 17.2138 14.6202 17.1422C14.5373 17.0705 14.4692 16.9833 14.42 16.8853C14.3708 16.7873 14.3413 16.6806 14.3333 16.5712C14.3253 16.4618 14.3389 16.3519 14.3733 16.2478L16.04 11.2403C16.1098 11.03 16.2602 10.8561 16.4581 10.7569C16.6559 10.6576 16.885 10.6412 17.095 10.7111C17.305 10.7811 17.4786 10.9317 17.5777 11.1298C17.6768 11.328 17.6932 11.5574 17.6233 11.7677L15.9567 16.7753C15.8867 16.985 15.7365 17.1584 15.539 17.2573ZM16 35.7071C17.5471 35.7071 19.0309 35.0916 20.1248 33.996C21.2188 32.9004 21.8334 31.4144 21.8334 29.865C21.8334 28.3155 21.2188 26.8296 20.1248 25.7339C19.0309 24.6383 17.5471 24.0228 16 24.0228C15.779 24.0228 15.567 24.1108 15.4108 24.2673C15.2545 24.4238 15.1667 24.6361 15.1667 24.8574C15.1667 25.0788 15.2545 25.291 15.4108 25.4476C15.567 25.6041 15.779 25.692 16 25.692C16.974 25.692 17.9172 26.0337 18.6657 26.6577C19.4143 27.2817 19.9209 28.1487 20.0976 29.1079C20.2743 30.0671 20.1099 31.0581 19.6329 31.9085C19.156 32.759 18.3966 33.4152 17.4868 33.7633C16.5769 34.1113 15.5741 34.1291 14.6525 33.8136C13.7309 33.4981 12.9487 32.8693 12.4419 32.0363C11.9351 31.2034 11.7357 30.2189 11.8783 29.254C12.0209 28.2891 12.4965 27.4047 13.2225 26.7544C13.3052 26.6817 13.3727 26.5932 13.4211 26.4942C13.4694 26.3951 13.4977 26.2875 13.5043 26.1774C13.5109 26.0674 13.4956 25.9571 13.4594 25.853C13.4232 25.7489 13.3667 25.653 13.2933 25.5708C13.2199 25.4887 13.1309 25.4219 13.0316 25.3744C12.9323 25.3269 12.8245 25.2996 12.7146 25.294C12.6046 25.2884 12.4947 25.3047 12.391 25.3419C12.2874 25.3792 12.1922 25.4366 12.1109 25.5109C11.2304 26.2997 10.6099 27.3377 10.3313 28.4874C10.0528 29.6372 10.1294 30.8446 10.5509 31.9498C10.9725 33.055 11.7192 34.006 12.6922 34.6769C13.6652 35.3478 14.8187 35.7071 16 35.7071ZM12.6667 3.99266H13.5C13.721 3.99266 13.933 4.08059 14.0893 4.2371C14.2455 4.39362 14.3333 4.6059 14.3333 4.82725C14.3333 5.0486 14.2455 5.26088 14.0893 5.41739C13.933 5.57391 13.721 5.66184 13.5 5.66184H12.6667C12.4457 5.66184 12.2337 5.57391 12.0774 5.41739C11.9211 5.26088 11.8333 5.0486 11.8333 4.82725C11.8333 4.6059 11.9211 4.39362 12.0774 4.2371C12.2337 4.08059 12.4457 3.99266 12.6667 3.99266ZM19.3333 3.99266H16.8333C16.6123 3.99266 16.4004 4.08059 16.2441 4.2371C16.0878 4.39362 16 4.6059 16 4.82725C16 5.0486 16.0878 5.26088 16.2441 5.41739C16.4004 5.57391 16.6123 5.66184 16.8333 5.66184H19.3333C19.5543 5.66184 19.7663 5.57391 19.9226 5.41739C20.0789 5.26088 20.1667 5.0486 20.1667 4.82725C20.1667 4.6059 20.0789 4.39362 19.9226 4.2371C19.7663 4.08059 19.5543 3.99266 19.3333 3.99266ZM13.7441 45.9666C13.9004 45.8101 14.1123 45.7222 14.3333 45.7222H17.6667C17.8877 45.7222 18.0996 45.8101 18.2559 45.9666C18.4122 46.1231 18.5 46.3354 18.5 46.5568C18.5 46.7781 18.4122 46.9904 18.2559 47.1469C18.0996 47.3034 17.8877 47.3914 17.6667 47.3914H14.3333C14.1123 47.3914 13.9004 47.3034 13.7441 47.1469C13.5878 46.9904 13.5 46.7781 13.5 46.5568C13.5 46.3354 13.5878 46.1231 13.7441 45.9666Z" fill="#703391"/>
<path d="M1.97631 1.63208L2.1886 1.84405L1.97631 1.63208ZM1.97631 49.7519L2.1886 49.54L1.97631 49.7519ZM30.0237 49.7519L29.8114 49.54L30.0237 49.7519ZM30.0237 1.63208L29.8114 1.84405V1.84405L30.0237 1.63208ZM2.66667 42.3838H2.36667V42.6838H2.66667V42.3838ZM29.3333 42.3838V42.6838H29.6333V42.3838H29.3333ZM2.66667 9.0002V8.7002H2.36667V9.0002H2.66667ZM29.3333 9.0002H29.6333V8.7002H29.3333V9.0002ZM3.15482 48.5716L3.36711 48.3597H3.36711L3.15482 48.5716ZM2.66667 44.053V43.753H2.36667V44.053H2.66667ZM29.3333 44.053H29.6333V43.753H29.3333V44.053ZM28.8452 48.5716L28.6329 48.3597L28.8452 48.5716ZM29.3333 7.33102V7.63102H29.6333V7.33102H29.3333ZM2.66667 7.33102H2.36667V7.63102H2.66667V7.33102ZM3.15482 2.81237L3.36711 3.02434L3.36711 3.02434L3.15482 2.81237ZM28.8452 2.81237L28.6329 3.02434L28.8452 2.81237ZM5.2075 30.7964L5.50626 30.7691L5.50622 30.7687L5.2075 30.7964ZM6.095 31.979L6.2066 31.7005L6.2044 31.6996L6.095 31.979ZM7.32167 32.4706L7.609 32.3843L7.56745 32.2459L7.43326 32.1921L7.32167 32.4706ZM8.025 34.1656L8.30089 34.2835L8.35772 34.1504L8.28898 34.0231L8.025 34.1656ZM7.50417 35.3849L7.77903 35.5052L7.78005 35.5028L7.50417 35.3849ZM7.4001 36.1478L7.10308 36.19H7.10308L7.4001 36.1478ZM7.7125 36.8513L7.48205 37.0434L7.48236 37.0438L7.7125 36.8513ZM8.34 37.5365L8.12811 37.7489H8.12811L8.34 37.5365ZM9.02583 38.1666L8.83289 38.3964L8.83356 38.3969L9.02583 38.1666ZM9.72767 38.4786L9.76971 38.1815H9.76971L9.72767 38.4786ZM10.4883 38.3736L10.3702 38.0978L10.3674 38.099L10.4883 38.3736ZM11.7058 37.852L11.8487 37.5882L11.7211 37.5191L11.5877 37.5762L11.7058 37.852ZM13.3983 38.5564L13.6769 38.4451L13.6233 38.3108L13.4848 38.2691L13.3983 38.5564ZM13.8892 39.7849L14.1686 39.6758L14.1678 39.6736L13.8892 39.7849ZM14.3528 40.3969L14.1723 40.6364H14.1723L14.3528 40.3969ZM15.0683 40.6737L15.0407 40.9725L15.0408 40.9725L15.0683 40.6737ZM16.93 40.6737L16.9027 40.375L16.9023 40.375L16.93 40.6737ZM17.6465 40.3973L17.8269 40.637V40.637L17.6465 40.3973ZM18.1108 39.7849L17.8322 39.6736L17.8314 39.6758L18.1108 39.7849ZM18.6017 38.5564L18.5152 38.2691L18.3767 38.3108L18.3231 38.4451L18.6017 38.5564ZM20.2942 37.852L20.4123 37.5762L20.2789 37.5191L20.1513 37.5882L20.2942 37.852ZM21.5117 38.3736L21.6321 38.0988L21.6298 38.0979L21.5117 38.3736ZM22.2734 38.4777L22.231 38.1807H22.231L22.2734 38.4777ZM22.9758 38.165L23.1682 38.3952L23.1686 38.3948L22.9758 38.165ZM23.66 37.5365L23.4473 37.325L23.66 37.5365ZM24.2892 36.8497L24.5192 37.0422L24.5199 37.0413L24.2892 36.8497ZM24.4958 35.3849L24.2199 35.5028L24.221 35.5052L24.4958 35.3849ZM23.975 34.1656L23.711 34.0231L23.6423 34.1504L23.6991 34.2835L23.975 34.1656ZM24.6783 32.4706L24.5667 32.1921L24.4326 32.2459L24.391 32.3843L24.6783 32.4706ZM25.905 31.979L25.7955 31.6997L25.7934 31.7005L25.905 31.979ZM26.7925 30.798L27.0912 30.8257L27.0912 30.8255L26.7925 30.798ZM26.7925 28.9336L26.4937 28.9608L26.4938 28.9612L26.7925 28.9336ZM26.5165 28.216L26.2765 28.3961L26.2765 28.3961L26.5165 28.216ZM25.905 27.7509L25.7934 28.0294L25.7956 28.0303L25.905 27.7509ZM24.6783 27.2594L24.391 27.3456L24.4326 27.4841L24.5667 27.5378L24.6783 27.2594ZM23.975 25.5643L23.6991 25.4465L23.6423 25.5795L23.711 25.7068L23.975 25.5643ZM24.4958 24.345L24.2211 24.2245L24.2199 24.2271L24.4958 24.345ZM24.2883 22.8803L24.0577 23.0722L24.0579 23.0723L24.2883 22.8803ZM23.66 22.1934L23.4482 22.4059H23.4482L23.66 22.1934ZM22.9742 21.5633L23.1679 21.3342L23.1669 21.3334L22.9742 21.5633ZM22.2724 21.2506L22.3145 20.9536L22.2724 21.2506ZM21.5117 21.3563L21.6298 21.6321L21.6331 21.6307L21.5117 21.3563ZM20.2942 21.8779L20.1513 22.1417L20.2789 22.2108L20.4123 22.1537L20.2942 21.8779ZM18.6017 21.1735L18.3231 21.2848L18.3767 21.4191L18.5152 21.4608L18.6017 21.1735ZM18.1108 19.945L17.8314 20.0541L17.8322 20.0563L18.1108 19.945ZM17.6472 19.3331L17.4666 19.5726L17.4666 19.5726L17.6472 19.3331ZM16.9317 19.0562L16.9039 19.3549L16.904 19.3549L16.9317 19.0562ZM15.07 19.0562L15.0973 19.3549L15.0978 19.3549L15.07 19.0562ZM14.3535 19.3326L14.534 19.5723L14.534 19.5723L14.3535 19.3326ZM13.8892 19.945L14.1678 20.0563L14.1686 20.0541L13.8892 19.945ZM13.3983 21.1735L13.4848 21.4608L13.6233 21.4191L13.6769 21.2848L13.3983 21.1735ZM11.7058 21.8779L11.5876 22.1536L11.721 22.2109L11.8487 22.1417L11.7058 21.8779ZM10.4917 21.3571L10.3706 21.6317L10.3734 21.6329L10.4917 21.3571ZM9.72835 21.2516L9.68629 20.9546H9.68629L9.72835 21.2516ZM9.02417 21.565L8.83172 21.3348L8.83138 21.3351L9.02417 21.565ZM8.34 22.1934L8.55269 22.405H8.55269L8.34 22.1934ZM7.71083 22.8803L7.48082 22.6877L7.48005 22.6886L7.71083 22.8803ZM7.39981 23.5832L7.69687 23.6252L7.39981 23.5832ZM7.50417 24.345L7.78006 24.2271L7.779 24.2247L7.50417 24.345ZM8.025 25.5643L8.28898 25.7068L8.35772 25.5795L8.30089 25.4465L8.025 25.5643ZM7.32167 27.2594L7.43326 27.5378L7.56745 27.4841L7.609 27.3456L7.32167 27.2594ZM6.095 27.7509L6.20437 28.0303L6.20659 28.0294L6.095 27.7509ZM5.48396 28.2153L5.72378 28.3955H5.72378L5.48396 28.2153ZM5.2075 28.9319L4.90877 28.9043L4.90876 28.9044L5.2075 28.9319ZM8.325 28.6556L8.2136 28.3771L8.21344 28.3772L8.325 28.6556ZM6.85417 29.2449L6.7426 28.9664L6.568 29.0363L6.5549 29.224L6.85417 29.2449ZM8.6444 28.4287L8.87079 28.6255H8.87079L8.6444 28.4287ZM8.825 28.0806L8.53379 28.0085L8.53372 28.0088L8.825 28.0806ZM9.66667 26.0484L9.92356 26.2033L9.92366 26.2031L9.66667 26.0484ZM9.71917 25.2889L9.99502 25.171V25.171L9.71917 25.2889ZM9.09417 23.8267L8.86779 23.6298L8.74441 23.7717L8.81831 23.9446L9.09417 23.8267ZM9.5175 23.3735L9.30581 23.1609H9.30581L9.5175 23.3735ZM9.97 22.9495L10.0882 22.6738L9.9149 22.5995L9.7728 22.7235L9.97 22.9495ZM11.43 23.5755L11.3118 23.8512L11.3118 23.8512L11.43 23.5755ZM12.1883 23.5229L12.3434 23.7797L12.3437 23.7795L12.1883 23.5229ZM14.2175 22.6791L14.1455 22.3879L14.1451 22.388L14.2175 22.6791ZM14.565 22.4983L14.3678 22.2722L14.3678 22.2722L14.565 22.4983ZM14.7917 22.1784L14.5131 22.0671L14.513 22.0673L14.7917 22.1784ZM15.38 20.7053L15.3588 20.4061L15.1712 20.4194L15.1014 20.5941L15.38 20.7053ZM16.6183 20.7053L16.8969 20.5941L16.8272 20.4194L16.6395 20.4061L16.6183 20.7053ZM17.2067 22.1784L17.4853 22.0673L17.4853 22.0671L17.2067 22.1784ZM17.4333 22.4983L17.6305 22.2722V22.2722L17.4333 22.4983ZM17.7808 22.6791L17.8531 22.388L17.8528 22.3879L17.7808 22.6791ZM19.8108 23.5221L19.6556 23.7788L19.6557 23.7789L19.8108 23.5221ZM20.5692 23.5747L20.6874 23.8504L20.5692 23.5747ZM22.0292 22.9487L22.2264 22.7226L22.0843 22.5987L21.911 22.673L22.0292 22.9487ZM22.4817 23.3727L22.6946 23.1613L22.6946 23.1613L22.4817 23.3727ZM22.905 23.8267L23.1808 23.9447L23.2546 23.7722L23.1318 23.6303L22.905 23.8267ZM22.28 25.2881L22.0042 25.1701L22.0041 25.1702L22.28 25.2881ZM22.3325 26.0475L22.0755 26.2023L22.0757 26.2026L22.3325 26.0475ZM23.175 28.0798L23.4663 28.008L23.4662 28.0076L23.175 28.0798ZM23.3556 28.4278L23.582 28.231L23.582 28.231L23.3556 28.4278ZM23.675 28.6548L23.7866 28.3763L23.7864 28.3763L23.675 28.6548ZM25.1458 29.244L25.4451 29.2234L25.4322 29.0356L25.2574 28.9655L25.1458 29.244ZM25.1458 30.4842L25.2574 30.7627L25.432 30.6928L25.4451 30.5051L25.1458 30.4842ZM23.675 31.0735L23.7864 31.352L23.7866 31.3519L23.675 31.0735ZM23.3556 31.3004L23.582 31.4973L23.582 31.4973L23.3556 31.3004ZM23.175 31.6485L23.4662 31.7205L23.4663 31.7203L23.175 31.6485ZM22.3333 33.6815L22.0764 33.5266L22.0763 33.5268L22.3333 33.6815ZM22.2156 34.0549L22.5149 34.0756L22.2156 34.0549ZM22.2808 34.441L22.5567 34.3231L22.2808 34.441ZM22.9058 35.9032L23.1322 36.1001L23.2556 35.9582L23.1817 35.7853L22.9058 35.9032ZM22.4825 36.3564L22.2708 36.1438V36.1438L22.4825 36.3564ZM22.03 36.7804L21.9118 37.0561L22.0851 37.1304L22.2272 37.0065L22.03 36.7804ZM20.57 36.1544L20.4518 36.4302H20.4518L20.57 36.1544ZM20.1845 36.0891L20.1637 35.7898H20.1637L20.1845 36.0891ZM19.8117 36.207L19.6566 35.9502L19.6563 35.9504L19.8117 36.207ZM17.7825 37.0508L17.8545 37.342L17.8549 37.3419L17.7825 37.0508ZM17.435 37.2317L17.2378 37.0056L17.2378 37.0056L17.435 37.2317ZM17.2083 37.5515L17.4869 37.6628L17.487 37.6627L17.2083 37.5515ZM16.62 39.0246L16.6412 39.3238L16.8288 39.3105L16.8986 39.1359L16.62 39.0246ZM15.3817 39.0246L15.1031 39.1359L15.1728 39.3105L15.3605 39.3238L15.3817 39.0246ZM14.7933 37.5515L14.5147 37.6627L14.5147 37.6628L14.7933 37.5515ZM14.5667 37.2317L14.7639 37.0056L14.7639 37.0056L14.5667 37.2317ZM14.2192 37.0508L14.1469 37.342L14.1472 37.342L14.2192 37.0508ZM12.1892 36.2079L12.3444 35.9512L12.3443 35.9511L12.1892 36.2079ZM11.4308 36.1553L11.3126 35.8795L11.4308 36.1553ZM9.97083 36.7812L9.77363 37.0073L9.91573 37.1312L10.089 37.0569L9.97083 36.7812ZM9.51833 36.3572L9.73123 36.1459L9.73123 36.1459L9.51833 36.3572ZM9.095 35.9041L8.81914 35.7862L8.74524 35.959L8.86863 36.1009L9.095 35.9041ZM9.72 34.4419L9.44414 34.3239L9.72 34.4419ZM9.78525 34.0558L10.0845 34.0351L9.78525 34.0558ZM9.6675 33.6824L9.92449 33.5276L9.92433 33.5273L9.6675 33.6824ZM8.825 31.6502L8.53372 31.722L8.53381 31.7223L8.825 31.6502ZM8.6444 31.3021L8.87079 31.1053H8.87079L8.6444 31.3021ZM8.325 31.0751L8.21344 31.3536L8.2136 31.3537L8.325 31.0751ZM6.85417 30.4859L6.55489 30.5067L6.56795 30.6944L6.7426 30.7644L6.85417 30.4859ZM11.2442 17.1016L11.0319 17.3136L11.0356 17.3172L11.2442 17.1016ZM8.74419 14.5978L8.53187 14.8097L8.5319 14.8098L8.74419 14.5978ZM8.74419 13.4177L8.5319 13.2057L8.53187 13.2057L8.74419 13.4177ZM11.2442 10.9139L11.0356 10.6982L11.0319 10.7019L11.2442 10.9139ZM12.4124 10.9241L12.2001 11.136L12.2001 11.136L12.4124 10.9241ZM12.6564 11.507L12.9564 11.5044L12.6564 11.507ZM12.4225 12.094L12.6349 12.306L12.6385 12.3023L12.4225 12.094ZM10.5117 14.0077L10.2994 13.7958L10.0877 14.0077L10.2994 14.2197L10.5117 14.0077ZM12.4225 15.9214L12.6385 15.7132L12.6348 15.7095L12.4225 15.9214ZM19.5775 17.1016L19.3652 17.3135L19.3653 17.3136L19.5775 17.1016ZM20.7559 17.1016L20.9681 17.3136L20.9682 17.3135L20.7559 17.1016ZM23.2559 14.5978L23.4682 14.8098L23.4682 14.8097L23.2559 14.5978ZM23.2559 13.4177L23.4682 13.2057L23.4682 13.2057L23.2559 13.4177ZM20.7559 10.9139L20.9682 10.7019L20.9644 10.6983L20.7559 10.9139ZM19.5877 10.9241L19.8 11.136V11.136L19.5877 10.9241ZM19.3436 11.507L19.6436 11.5096V11.5096L19.3436 11.507ZM19.5775 12.094L19.3615 12.3023L19.3652 12.306L19.5775 12.094ZM21.4884 14.0077L21.7006 14.2197L21.9123 14.0077L21.7006 13.7958L21.4884 14.0077ZM19.5775 15.9214L19.3652 15.7095L19.3652 15.7095L19.5775 15.9214ZM14.9033 17.3027L14.9981 17.0181L14.9975 17.0179L14.9033 17.3027ZM15.539 17.2573L15.6733 17.5255H15.6733L15.539 17.2573ZM14.6202 17.1422L14.4241 17.3692H14.4241L14.6202 17.1422ZM14.42 16.8853L14.6881 16.7506L14.42 16.8853ZM14.3333 16.5712L14.0341 16.5931V16.5931L14.3333 16.5712ZM14.3733 16.2478L14.0887 16.1531L14.0885 16.1536L14.3733 16.2478ZM16.04 11.2403L16.3247 11.335L16.3247 11.3348L16.04 11.2403ZM16.4581 10.7569L16.3236 10.4887L16.3236 10.4887L16.4581 10.7569ZM17.095 10.7111L17.0002 10.9958H17.0002L17.095 10.7111ZM17.5777 11.1298L17.846 10.9957V10.9957L17.5777 11.1298ZM17.6233 11.7677L17.908 11.8625L17.908 11.8623L17.6233 11.7677ZM15.9567 16.7753L16.2413 16.8702L16.2413 16.87L15.9567 16.7753ZM20.1248 33.996L20.3371 34.2079L20.1248 33.996ZM16 35.7071L16 36.0071H16V35.7071ZM20.1248 25.7339L20.3371 25.522V25.522L20.1248 25.7339ZM15.4108 24.2673L15.6231 24.4792H15.6231L15.4108 24.2673ZM15.4108 25.4476L15.1985 25.6595L15.1985 25.6595L15.4108 25.4476ZM16 25.692V25.992H16L16 25.692ZM20.0976 29.1079L20.3927 29.0536L20.0976 29.1079ZM17.4868 33.7633L17.5939 34.0435H17.5939L17.4868 33.7633ZM12.4419 32.0363L12.6982 31.8804L12.4419 32.0363ZM11.8783 29.254L12.1751 29.2978L11.8783 29.254ZM13.2225 26.7544L13.0243 26.5292L13.0224 26.531L13.2225 26.7544ZM13.4211 26.4942L13.6906 26.6258L13.6906 26.6258L13.4211 26.4942ZM13.5043 26.1774L13.2048 26.1595V26.1595L13.5043 26.1774ZM13.4594 25.853L13.7428 25.7544V25.7544L13.4594 25.853ZM13.2933 25.5708L13.0696 25.7708L13.0697 25.7708L13.2933 25.5708ZM13.0316 25.3744L12.9021 25.645L12.9021 25.645L13.0316 25.3744ZM12.7146 25.294L12.6994 25.5936L12.7146 25.294ZM12.391 25.3419L12.2896 25.0596H12.2896L12.391 25.3419ZM12.1109 25.5109L12.3111 25.7344L12.3132 25.7324L12.1109 25.5109ZM10.5509 31.9498L10.8312 31.8428L10.5509 31.9498ZM14.0893 4.2371L14.3015 4.02513L14.3015 4.02513L14.0893 4.2371ZM14.0893 5.41739L14.3015 5.62936L14.3015 5.62936L14.0893 5.41739ZM12.0774 5.41739L11.8651 5.62936L11.8651 5.62936L12.0774 5.41739ZM12.0774 4.2371L11.8651 4.02513L11.8651 4.02513L12.0774 4.2371ZM16.2441 4.2371L16.0318 4.02513L16.0318 4.02513L16.2441 4.2371ZM16.2441 5.41739L16.0318 5.62936L16.0318 5.62936L16.2441 5.41739ZM13.7441 45.9666L13.5318 45.7547L13.7441 45.9666ZM13.7441 47.1469L13.5318 47.3589L13.7441 47.1469ZM2.1886 1.84405C2.7575 1.2743 3.52899 0.954297 4.33333 0.954297V0.354297C3.36957 0.354297 2.44537 0.737733 1.76402 1.42011L2.1886 1.84405ZM1.3 3.99266C1.3 3.18669 1.61969 2.41382 2.1886 1.84405L1.76402 1.42011C1.08269 2.10247 0.7 3.02785 0.7 3.99266H1.3ZM1.3 47.3914V3.99266H0.7V47.3914H1.3ZM2.1886 49.54C1.61969 48.9702 1.3 48.1973 1.3 47.3914H0.7C0.7 48.3562 1.08269 49.2815 1.76402 49.9639L2.1886 49.54ZM4.33333 50.4297C3.52899 50.4297 2.7575 50.1097 2.1886 49.54L1.76402 49.9639C2.44537 50.6463 3.36957 51.0297 4.33333 51.0297V50.4297ZM27.6667 50.4297H4.33333V51.0297H27.6667V50.4297ZM29.8114 49.54C29.2425 50.1097 28.471 50.4297 27.6667 50.4297V51.0297C28.6304 51.0297 29.5546 50.6463 30.236 49.9639L29.8114 49.54ZM30.7 47.3914C30.7 48.1973 30.3803 48.9702 29.8114 49.54L30.236 49.9639C30.9173 49.2815 31.3 48.3562 31.3 47.3914H30.7ZM30.7 3.99266V47.3914H31.3V3.99266H30.7ZM29.8114 1.84405C30.3803 2.41382 30.7 3.18669 30.7 3.99266H31.3C31.3 3.02785 30.9173 2.10247 30.236 1.42011L29.8114 1.84405ZM27.6667 0.954297C28.471 0.954297 29.2425 1.2743 29.8114 1.84405L30.236 1.42011C29.5546 0.737733 28.6304 0.354297 27.6667 0.354297V0.954297ZM4.33333 0.954297H27.6667V0.354297H4.33333V0.954297ZM2.66667 42.6838H29.3333V42.0838H2.66667V42.6838ZM2.36667 9.0002V42.3838H2.96667V9.0002H2.36667ZM29.3333 8.7002H2.66667V9.3002H29.3333V8.7002ZM29.6333 42.3838V9.0002H29.0333V42.3838H29.6333ZM2.94253 48.7836C3.31132 49.153 3.8116 49.3605 4.33333 49.3605V48.7605C3.97102 48.7605 3.62345 48.6164 3.36711 48.3597L2.94253 48.7836ZM2.36667 47.3914C2.36667 47.9135 2.57376 48.4143 2.94253 48.7836L3.36711 48.3597C3.11076 48.1029 2.96667 47.7546 2.96667 47.3914H2.36667ZM2.36667 44.053V47.3914H2.96667V44.053H2.36667ZM29.3333 43.753H2.66667V44.353H29.3333V43.753ZM29.6333 47.3914V44.053H29.0333V47.3914H29.6333ZM29.0575 48.7836C29.4262 48.4143 29.6333 47.9135 29.6333 47.3914H29.0333C29.0333 47.7546 28.8892 48.1029 28.6329 48.3597L29.0575 48.7836ZM27.6667 49.3605C28.1884 49.3605 28.6887 49.153 29.0575 48.7836L28.6329 48.3597C28.3766 48.6164 28.029 48.7605 27.6667 48.7605V49.3605ZM4.33333 49.3605H27.6667V48.7605H4.33333V49.3605ZM29.6333 7.33102V3.99266H29.0333V7.33102H29.6333ZM2.66667 7.63102H29.3333V7.03102H2.66667V7.63102ZM2.36667 3.99266V7.33102H2.96667V3.99266H2.36667ZM2.94253 2.6004C2.57376 2.96972 2.36667 3.47055 2.36667 3.99266H2.96667C2.96667 3.62938 3.11076 3.28108 3.36711 3.02434L2.94253 2.6004ZM4.33333 2.02348C3.81159 2.02348 3.31132 2.23105 2.94253 2.6004L3.36711 3.02434C3.62345 2.76762 3.97102 2.62348 4.33333 2.62348V2.02348ZM27.6667 2.02348H4.33333V2.62348H27.6667V2.02348ZM29.0575 2.6004C28.6887 2.23105 28.1884 2.02348 27.6667 2.02348V2.62348C28.029 2.62348 28.3766 2.76762 28.6329 3.02434L29.0575 2.6004ZM29.6333 3.99266C29.6333 3.47055 29.4262 2.96973 29.0575 2.6004L28.6329 3.02434C28.8892 3.28108 29.0333 3.62938 29.0333 3.99266H29.6333ZM5.72349 31.3338C5.60016 31.1695 5.52492 30.974 5.50626 30.7691L4.90874 30.8236C4.93749 31.1392 5.05343 31.4406 5.2436 31.694L5.72349 31.3338ZM6.2044 31.6996C6.01335 31.6248 5.84682 31.4982 5.72349 31.3338L5.2436 31.694C5.43377 31.9474 5.69068 32.1428 5.9856 32.2583L6.2044 31.6996ZM7.43326 32.1921L6.2066 31.7005L5.98341 32.2575L7.21007 32.749L7.43326 32.1921ZM8.28898 34.0231C8.00731 33.5014 7.77948 32.9523 7.609 32.3843L7.03433 32.5568C7.21651 33.1638 7.46 33.7506 7.76102 34.3081L8.28898 34.0231ZM7.78005 35.5028L8.30089 34.2835L7.74911 34.0478L7.22828 35.2671L7.78005 35.5028ZM7.69711 36.1056C7.66815 35.9017 7.69652 35.6938 7.77902 35.5052L7.22931 35.2647C7.10215 35.5554 7.05844 35.8758 7.10308 36.19L7.69711 36.1056ZM7.94295 36.6592C7.81123 36.5012 7.72608 36.3095 7.69711 36.1056L7.10308 36.19C7.14772 36.5042 7.27893 36.7997 7.48205 37.0434L7.94295 36.6592ZM8.55189 37.3241C8.33831 37.111 8.13439 36.8882 7.94264 36.6589L7.48236 37.0438C7.68561 37.2868 7.9017 37.523 8.12811 37.7489L8.55189 37.3241ZM9.21877 37.9369C8.98857 37.7436 8.76654 37.5383 8.55189 37.3241L8.12811 37.7489C8.35346 37.9737 8.5881 38.1908 8.83289 38.3964L9.21877 37.9369ZM9.76971 38.1815C9.5667 38.1528 9.37567 38.0679 9.21811 37.9364L8.83356 38.3969C9.07684 38.6 9.37192 38.7312 9.68564 38.7756L9.76971 38.1815ZM10.3674 38.099C10.1797 38.1817 9.97272 38.2103 9.76971 38.1815L9.68563 38.7756C9.99935 38.82 10.3192 38.7759 10.6092 38.6482L10.3674 38.099ZM11.5877 37.5762L10.3702 38.0979L10.6065 38.6494L11.824 38.1278L11.5877 37.5762ZM13.4848 38.2691C12.9178 38.0984 12.3696 37.8703 11.8487 37.5882L11.563 38.1158C12.1197 38.4173 12.7057 38.6612 13.3119 38.8437L13.4848 38.2691ZM14.1678 39.6736L13.6769 38.4451L13.1197 38.6677L13.6106 39.8962L14.1678 39.6736ZM14.5334 40.1573C14.3696 40.0339 14.2433 39.8672 14.1686 39.6758L13.6097 39.894C13.7248 40.1889 13.9196 40.446 14.1723 40.6364L14.5334 40.1573ZM15.096 40.375C14.892 40.3561 14.6972 40.2808 14.5334 40.1573L14.1723 40.6364C14.425 40.8269 14.7256 40.9433 15.0407 40.9725L15.096 40.375ZM16 40.4146C15.6963 40.4146 15.393 40.4024 15.0959 40.375L15.0408 40.9725C15.3586 41.0018 15.6804 41.0146 16 41.0146V40.4146ZM16.9023 40.375C16.6069 40.4024 16.3038 40.4146 16 40.4146V41.0146C16.3196 41.0146 16.6414 41.0018 16.9577 40.9725L16.9023 40.375ZM17.466 40.1576C17.302 40.2811 17.1069 40.3563 16.9027 40.375L16.9573 40.9725C17.2727 40.9437 17.5738 40.8275 17.8269 40.637L17.466 40.1576ZM17.8314 39.6758C17.7566 39.8673 17.6301 40.0341 17.466 40.1576L17.8269 40.637C18.08 40.4465 18.275 40.1892 18.3903 39.894L17.8314 39.6758ZM18.3231 38.4451L17.8322 39.6736L18.3894 39.8962L18.8803 38.6677L18.3231 38.4451ZM20.1513 37.5882C19.6304 37.8703 19.0822 38.0984 18.5152 38.2691L18.6881 38.8437C19.2943 38.6612 19.8803 38.4173 20.437 38.1158L20.1513 37.5882ZM21.6298 38.0979L20.4123 37.5762L20.176 38.1278L21.3935 38.6494L21.6298 38.0979ZM22.231 38.1807C22.0277 38.2097 21.8203 38.1813 21.6321 38.0989L21.3912 38.6484C21.6817 38.7757 22.0018 38.8194 22.3157 38.7747L22.231 38.1807ZM22.7835 37.9347C22.6257 38.0666 22.4344 38.1517 22.231 38.1807L22.3157 38.7747C22.6296 38.73 22.9248 38.5985 23.1682 38.3952L22.7835 37.9347ZM23.4473 37.325C23.2345 37.5389 23.012 37.7431 22.783 37.9351L23.1686 38.3948C23.4113 38.1913 23.6471 37.9748 23.8727 37.7481L23.4473 37.325ZM24.0592 36.6571C23.8661 36.8876 23.6611 37.11 23.4473 37.325L23.8727 37.7481C24.0972 37.5224 24.3139 37.2874 24.5192 37.0422L24.0592 36.6571ZM24.3031 36.1048C24.2744 36.3084 24.1896 36.5 24.0584 36.658L24.5199 37.0413C24.7223 36.7976 24.853 36.5024 24.8972 36.1886L24.3031 36.1048ZM24.221 35.5052C24.3034 35.6935 24.3319 35.9012 24.3031 36.1048L24.8972 36.1886C24.9415 35.8748 24.8977 35.5549 24.7707 35.2647L24.221 35.5052ZM23.6991 34.2835L24.2199 35.5028L24.7717 35.2671L24.2509 34.0478L23.6991 34.2835ZM24.391 32.3843C24.2205 32.9523 23.9927 33.5014 23.711 34.0231L24.239 34.3081C24.54 33.7506 24.7835 33.1638 24.9657 32.5568L24.391 32.3843ZM25.7934 31.7005L24.5667 32.1921L24.7899 32.749L26.0166 32.2575L25.7934 31.7005ZM26.2761 31.3343C26.1528 31.4984 25.9864 31.6249 25.7955 31.6997L26.0145 32.2583C26.309 32.1429 26.5656 31.9477 26.7558 31.6948L26.2761 31.3343ZM26.4938 30.7703C26.4748 30.9749 26.3994 31.1702 26.2761 31.3343L26.7558 31.6948C26.9459 31.4418 27.062 31.1409 27.0912 30.8257L26.4938 30.7703ZM26.5333 29.865C26.5333 30.1692 26.5211 30.4729 26.4938 30.7706L27.0912 30.8255C27.1205 30.5072 27.1333 30.185 27.1333 29.865H26.5333ZM26.4938 28.9612C26.5211 29.257 26.5333 29.5607 26.5333 29.865H27.1333C27.1333 29.545 27.1205 29.2227 27.0912 28.9059L26.4938 28.9612ZM26.2765 28.3961C26.3998 28.5604 26.4751 28.756 26.4937 28.9608L27.0913 28.9063C27.0625 28.5907 26.9466 28.2894 26.7564 28.0359L26.2765 28.3961ZM25.7956 28.0303C25.9866 28.1051 26.1532 28.2318 26.2765 28.3961L26.7564 28.036C26.5662 27.7825 26.3093 27.5871 26.0144 27.4716L25.7956 28.0303ZM24.5667 27.5378L25.7934 28.0294L26.0166 27.4725L24.7899 26.9809L24.5667 27.5378ZM23.711 25.7068C23.9927 26.2285 24.2205 26.7776 24.391 27.3456L24.9657 27.1731C24.7835 26.5661 24.54 25.9793 24.239 25.4218L23.711 25.7068ZM24.2199 24.2271L23.6991 25.4465L24.2509 25.6822L24.7717 24.4628L24.2199 24.2271ZM24.3032 23.6251C24.332 23.8287 24.3036 24.0363 24.2211 24.2245L24.7706 24.4654C24.8979 24.1751 24.9417 23.8549 24.8973 23.541L24.3032 23.6251ZM24.0579 23.0723C24.1894 23.2301 24.2744 23.4216 24.3032 23.6251L24.8973 23.541C24.8528 23.227 24.7217 22.9317 24.5188 22.6882L24.0579 23.0723ZM23.4482 22.4059C23.6634 22.6203 23.8665 22.8424 24.0577 23.0722L24.5189 22.6884C24.3157 22.4441 24.0999 22.2083 23.8718 21.9809L23.4482 22.4059ZM22.7805 21.7924C23.0097 21.9862 23.2323 22.1907 23.4482 22.4059L23.8718 21.9809C23.6444 21.7543 23.4098 21.5388 23.1679 21.3342L22.7805 21.7924ZM22.2304 21.5477C22.4333 21.5764 22.6242 21.6614 22.7815 21.7932L23.1669 21.3334C22.9237 21.1296 22.6285 20.998 22.3145 20.9536L22.2304 21.5477ZM21.6331 21.6307C21.8206 21.5477 22.0275 21.519 22.2304 21.5477L22.3145 20.9536C22.0005 20.9092 21.6803 20.9536 21.3903 21.082L21.6331 21.6307ZM20.4123 22.1537L21.6298 21.6321L21.3935 21.0806L20.176 21.6022L20.4123 22.1537ZM18.5152 21.4608C19.0822 21.6315 19.6304 21.8597 20.1513 22.1417L20.437 21.6141C19.8803 21.3126 19.2943 21.0688 18.6881 20.8863L18.5152 21.4608ZM17.8322 20.0563L18.3231 21.2848L18.8803 21.0622L18.3894 19.8337L17.8322 20.0563ZM17.4666 19.5726C17.6304 19.6961 17.7567 19.8628 17.8314 20.0541L18.3903 19.8359C18.2752 19.5411 18.0804 19.284 17.8277 19.0935L17.4666 19.5726ZM16.904 19.3549C17.108 19.3738 17.3028 19.4492 17.4666 19.5726L17.8277 19.0935C17.575 18.903 17.2744 18.7866 16.9593 18.7575L16.904 19.3549ZM15.0978 19.3549C15.6985 19.299 16.3031 19.299 16.9039 19.3549L16.9594 18.7575C16.3217 18.6982 15.6799 18.6982 15.0422 18.7575L15.0978 19.3549ZM14.534 19.5723C14.698 19.4489 14.8931 19.3736 15.0973 19.3549L15.0427 18.7574C14.7273 18.7863 14.4262 18.9025 14.1731 19.093L14.534 19.5723ZM14.1686 20.0541C14.2434 19.8626 14.3699 19.6958 14.534 19.5723L14.1731 19.093C13.92 19.2835 13.725 19.5407 13.6097 19.8359L14.1686 20.0541ZM13.6769 21.2848L14.1678 20.0563L13.6106 19.8337L13.1197 21.0622L13.6769 21.2848ZM11.8487 22.1417C12.3696 21.8597 12.9178 21.6315 13.4848 21.4608L13.3119 20.8863C12.7057 21.0688 12.1197 21.3126 11.563 21.6141L11.8487 22.1417ZM10.3734 21.6329L11.5876 22.1536L11.8241 21.6022L10.6099 21.0814L10.3734 21.6329ZM9.77041 21.5487C9.97428 21.5198 10.1822 21.5485 10.3706 21.6316L10.6127 21.0827C10.3219 20.9544 10.001 20.91 9.68629 20.9546L9.77041 21.5487ZM9.21661 21.7951C9.37474 21.6629 9.56655 21.5776 9.77042 21.5487L9.68629 20.9546C9.37159 20.9992 9.07562 21.1309 8.83172 21.3348L9.21661 21.7951ZM8.55269 22.405C8.76547 22.1911 8.98799 21.9869 9.21695 21.7948L8.83138 21.3351C8.58868 21.5387 8.35286 21.7551 8.12731 21.9818L8.55269 22.405ZM7.94085 23.0729C8.1339 22.8423 8.33885 22.62 8.55269 22.405L8.12731 21.9818C7.90282 22.2075 7.6861 22.4425 7.48082 22.6877L7.94085 23.0729ZM7.69687 23.6252C7.7256 23.4215 7.81037 23.23 7.94161 23.072L7.48005 22.6886C7.27765 22.9323 7.14703 23.2276 7.10276 23.5413L7.69687 23.6252ZM7.779 24.2247C7.69658 24.0364 7.66814 23.8288 7.69687 23.6252L7.10276 23.5413C7.05848 23.8551 7.10231 24.175 7.22933 24.4653L7.779 24.2247ZM8.30089 25.4465L7.78005 24.2271L7.22828 24.4628L7.74911 25.6822L8.30089 25.4465ZM7.609 27.3456C7.77948 26.7776 8.00731 26.2285 8.28898 25.7068L7.76102 25.4218C7.46 25.9793 7.21651 26.5661 7.03433 27.1731L7.609 27.3456ZM6.20659 28.0294L7.43326 27.5378L7.21007 26.9809L5.98341 27.4725L6.20659 28.0294ZM5.72378 28.3955C5.8471 28.2315 6.0135 28.105 6.20437 28.0303L5.98563 27.4716C5.69101 27.5869 5.43428 27.7821 5.24413 28.0351L5.72378 28.3955ZM5.50623 28.9595C5.52512 28.7549 5.60047 28.5596 5.72378 28.3955L5.24413 28.0351C5.05398 28.2881 4.93789 28.5891 4.90877 28.9043L5.50623 28.9595ZM5.46667 29.865C5.46667 29.5607 5.47886 29.257 5.50624 28.9594L4.90876 28.9044C4.87948 29.2227 4.86667 29.5449 4.86667 29.865H5.46667ZM5.50622 30.7687C5.47886 30.4729 5.46667 30.1692 5.46667 29.865H4.86667C4.86667 30.185 4.87947 30.5073 4.90877 30.824L5.50622 30.7687ZM8.21344 28.3772L6.7426 28.9664L6.96573 29.5233L8.43656 28.9341L8.21344 28.3772ZM8.41802 28.2318C8.36233 28.2958 8.29225 28.3456 8.2136 28.3771L8.4364 28.9342C8.60367 28.8673 8.75257 28.7615 8.87079 28.6255L8.41802 28.2318ZM8.53372 28.0088C8.51338 28.0913 8.4737 28.1678 8.41802 28.2318L8.87079 28.6255C8.98901 28.4895 9.07315 28.3274 9.11628 28.1524L8.53372 28.0088ZM9.40977 25.8934C9.01348 26.5505 8.71818 27.2635 8.53379 28.0085L9.11621 28.1527C9.28617 27.466 9.55833 26.8089 9.92356 26.2033L9.40977 25.8934ZM9.48513 25.6543C9.47928 25.739 9.4534 25.821 9.40967 25.8936L9.92366 26.2031C10.0165 26.0491 10.0713 25.8751 10.0837 25.6957L9.48513 25.6543ZM9.44331 25.4068C9.47664 25.4848 9.49099 25.5696 9.48513 25.6543L10.0837 25.6957C10.0961 25.5162 10.0657 25.3364 9.99502 25.171L9.44331 25.4068ZM8.81831 23.9446L9.44331 25.4068L9.99502 25.171L9.37002 23.7088L8.81831 23.9446ZM9.30581 23.1609C9.15393 23.3122 9.00737 23.4693 8.86779 23.6298L9.32054 24.0236C9.45096 23.8736 9.58774 23.727 9.72919 23.5861L9.30581 23.1609ZM9.7728 22.7235C9.61174 22.864 9.45602 23.0114 9.30581 23.1609L9.72919 23.5861C9.87231 23.4436 10.0183 23.3055 10.1672 23.1756L9.7728 22.7235ZM11.5482 23.2998L10.0882 22.6738L9.85179 23.2253L11.3118 23.8512L11.5482 23.2998ZM11.7948 23.3416C11.7104 23.3474 11.6259 23.3331 11.5482 23.2998L11.3118 23.8512C11.4771 23.9221 11.6568 23.9526 11.8363 23.9401L11.7948 23.3416ZM12.0332 23.2661C11.9608 23.3099 11.8791 23.3357 11.7948 23.3416L11.8363 23.9401C12.0157 23.9277 12.1895 23.8727 12.3434 23.7797L12.0332 23.2661ZM14.1451 22.388C13.401 22.573 12.689 22.8691 12.033 23.2663L12.3437 23.7795C12.9482 23.4135 13.6043 23.1407 14.2899 22.9703L14.1451 22.388ZM14.3678 22.2722C14.3039 22.3279 14.2277 22.3676 14.1455 22.3879L14.2895 22.9704C14.4644 22.9271 14.6264 22.8428 14.7622 22.7244L14.3678 22.2722ZM14.513 22.0673C14.4815 22.1462 14.4318 22.2164 14.3678 22.2722L14.7622 22.7244C14.898 22.6059 15.0036 22.4569 15.0703 22.2895L14.513 22.0673ZM15.1014 20.5941L14.5131 22.0671L15.0703 22.2897L15.6586 20.8166L15.1014 20.5941ZM16.6395 20.4061C16.2132 20.3759 15.7852 20.3759 15.3588 20.4061L15.4012 21.0046C15.7993 20.9764 16.199 20.9764 16.5971 21.0046L16.6395 20.4061ZM17.4853 22.0671L16.8969 20.5941L16.3397 20.8166L16.9281 22.2897L17.4853 22.0671ZM17.6305 22.2722C17.5666 22.2164 17.5168 22.1462 17.4853 22.0673L16.928 22.2895C16.9947 22.4569 17.1003 22.6059 17.2361 22.7244L17.6305 22.2722ZM17.8528 22.3879C17.7706 22.3676 17.6944 22.3279 17.6305 22.2722L17.2361 22.7244C17.3719 22.8428 17.5339 22.9271 17.7088 22.9704L17.8528 22.3879ZM19.9661 23.2654C19.3097 22.8684 18.5974 22.5726 17.8531 22.388L17.7086 22.9703C18.3944 23.1404 19.0508 23.413 19.6556 23.7788L19.9661 23.2654ZM20.2044 23.3407C20.1201 23.3349 20.0384 23.309 19.9659 23.2653L19.6557 23.7789C19.8097 23.8719 19.9835 23.9269 20.1629 23.9393L20.2044 23.3407ZM20.451 23.2989C20.3732 23.3323 20.2887 23.3466 20.2044 23.3407L20.1629 23.9393C20.3423 23.9517 20.5221 23.9212 20.6874 23.8504L20.451 23.2989ZM21.911 22.673L20.451 23.2989L20.6874 23.8504L22.1474 23.2244L21.911 22.673ZM22.6946 23.1613C22.5435 23.0092 22.3866 22.8624 22.2264 22.7226L21.832 23.1748C21.9817 23.3054 22.1281 23.4424 22.2688 23.5841L22.6946 23.1613ZM23.1318 23.6303C22.9905 23.4671 22.844 23.3118 22.6946 23.1613L22.2688 23.5841C22.411 23.7274 22.5478 23.8725 22.6782 24.0231L23.1318 23.6303ZM22.5558 25.406L23.1808 23.9447L22.6292 23.7087L22.0042 25.1701L22.5558 25.406ZM22.514 25.6535C22.5082 25.5688 22.5225 25.484 22.5559 25.406L22.0041 25.1702C21.9334 25.3356 21.9031 25.5154 21.9155 25.6948L22.514 25.6535ZM22.5895 25.8928C22.5458 25.8202 22.5199 25.7381 22.514 25.6535L21.9155 25.6948C21.9279 25.8743 21.9827 26.0482 22.0755 26.2023L22.5895 25.8928ZM23.4662 28.0076C23.2815 27.2625 22.9859 26.5495 22.5893 25.8925L22.0757 26.2026C22.4412 26.8081 22.7136 27.4652 22.8838 28.1519L23.4662 28.0076ZM23.582 28.231C23.5263 28.1669 23.4866 28.0905 23.4663 28.008L22.8837 28.1516C22.9268 28.3265 23.011 28.4887 23.1292 28.6247L23.582 28.231ZM23.7864 28.3763C23.7077 28.3448 23.6377 28.295 23.582 28.231L23.1292 28.6247C23.2474 28.7606 23.3963 28.8665 23.5636 28.9334L23.7864 28.3763ZM25.2574 28.9655L23.7866 28.3763L23.5634 28.9333L25.0343 29.5225L25.2574 28.9655ZM25.4667 29.8641C25.4667 29.655 25.4598 29.4361 25.4451 29.2234L24.8465 29.2647C24.8602 29.4626 24.8667 29.6676 24.8667 29.8641H25.4667ZM25.4451 30.5051C25.4598 30.2946 25.4667 30.0731 25.4667 29.8641H24.8667C24.8667 30.0608 24.8602 30.2682 24.8466 30.4633L25.4451 30.5051ZM23.7866 31.3519L25.2574 30.7627L25.0343 30.2057L23.5634 30.795L23.7866 31.3519ZM23.582 31.4973C23.6377 31.4333 23.7077 31.3835 23.7864 31.352L23.5636 30.7949C23.3963 30.8618 23.2474 30.9676 23.1292 31.1036L23.582 31.4973ZM23.4663 31.7203C23.4866 31.6378 23.5263 31.5613 23.582 31.4973L23.1292 31.1036C23.011 31.2396 22.9268 31.4017 22.8837 31.5767L23.4663 31.7203ZM22.5902 33.8365C22.9866 33.1792 23.2819 32.4658 23.4662 31.7205L22.8838 31.5765C22.7139 32.2634 22.4417 32.9208 22.0764 33.5266L22.5902 33.8365ZM22.5149 34.0756C22.5207 33.991 22.5466 33.9089 22.5903 33.8363L22.0763 33.5268C21.9835 33.6809 21.9287 33.8548 21.9163 34.0343L22.5149 34.0756ZM22.5567 34.3231C22.5234 34.2451 22.509 34.1603 22.5149 34.0756L21.9163 34.0343C21.9039 34.2137 21.9343 34.3935 22.005 34.5589L22.5567 34.3231ZM23.1817 35.7853L22.5567 34.3231L22.005 34.5589L22.63 36.0211L23.1817 35.7853ZM22.6942 36.569C22.8461 36.4177 22.9926 36.2606 23.1322 36.1001L22.6795 35.7064C22.549 35.8563 22.4123 36.003 22.2708 36.1438L22.6942 36.569ZM22.2272 37.0065C22.3883 36.866 22.544 36.7186 22.6942 36.569L22.2708 36.1438C22.1277 36.2864 21.9817 36.4244 21.8328 36.5543L22.2272 37.0065ZM20.4518 36.4302L21.9118 37.0561L22.1482 36.5047L20.6882 35.8787L20.4518 36.4302ZM20.2052 36.3884C20.2896 36.3825 20.3741 36.3968 20.4518 36.4302L20.6882 35.8787C20.5229 35.8078 20.3431 35.7774 20.1637 35.7898L20.2052 36.3884ZM19.9668 36.4638C20.0392 36.4201 20.1209 36.3942 20.2052 36.3884L20.1637 35.7898C19.9843 35.8022 19.8105 35.8572 19.6566 35.9502L19.9668 36.4638ZM17.8549 37.3419C18.599 37.157 19.311 36.8609 19.967 36.4636L19.6563 35.9504C19.0518 36.3164 18.3957 36.5892 17.7101 36.7597L17.8549 37.3419ZM17.6322 37.4577C17.6961 37.402 17.7723 37.3623 17.8545 37.342L17.7105 36.7596C17.5356 36.8028 17.3736 36.8871 17.2378 37.0056L17.6322 37.4577ZM17.487 37.6627C17.5185 37.5837 17.5682 37.5135 17.6322 37.4577L17.2378 37.0056C17.102 37.124 16.9964 37.2731 16.9297 37.4404L17.487 37.6627ZM16.8986 39.1359L17.4869 37.6628L16.9297 37.4403L16.3414 38.9133L16.8986 39.1359ZM15.3605 39.3238C15.7868 39.3541 16.2148 39.3541 16.6412 39.3238L16.5988 38.7253C16.2007 38.7536 15.801 38.7536 15.4029 38.7253L15.3605 39.3238ZM14.5147 37.6628L15.1031 39.1359L15.6603 38.9133L15.0719 37.4403L14.5147 37.6628ZM14.3695 37.4577C14.4334 37.5135 14.4832 37.5837 14.5147 37.6627L15.072 37.4404C15.0053 37.2731 14.8997 37.124 14.7639 37.0056L14.3695 37.4577ZM14.1472 37.342C14.2294 37.3623 14.3056 37.402 14.3695 37.4577L14.7639 37.0056C14.6281 36.8871 14.4661 36.8028 14.2912 36.7596L14.1472 37.342ZM12.0339 36.4646C12.6903 36.8616 13.4026 37.1573 14.1469 37.342L14.2914 36.7596C13.6056 36.5895 12.9492 36.317 12.3444 35.9512L12.0339 36.4646ZM11.7956 36.3892C11.8799 36.3951 11.9616 36.4209 12.0341 36.4646L12.3443 35.9511C12.1903 35.8581 12.0165 35.8031 11.8371 35.7906L11.7956 36.3892ZM11.549 36.431C11.6268 36.3977 11.7113 36.3834 11.7956 36.3892L11.8371 35.7906C11.6577 35.7782 11.4779 35.8087 11.3126 35.8795L11.549 36.431ZM10.089 37.0569L11.549 36.431L11.3126 35.8795L9.85262 36.5055L10.089 37.0569ZM9.30544 36.5686C9.45646 36.7207 9.61337 36.8675 9.77363 37.0073L10.168 36.5551C10.0183 36.4245 9.87187 36.2875 9.73123 36.1459L9.30544 36.5686ZM8.86863 36.1009C9.0089 36.2622 9.15608 36.4182 9.30544 36.5686L9.73123 36.1459C9.58892 36.0025 9.4511 35.8564 9.32137 35.7072L8.86863 36.1009ZM9.44414 34.3239L8.81914 35.7862L9.37086 36.022L9.99586 34.5598L9.44414 34.3239ZM9.48597 34.0765C9.49182 34.1611 9.47748 34.246 9.44414 34.3239L9.99586 34.5598C10.0666 34.3944 10.0969 34.2145 10.0845 34.0351L9.48597 34.0765ZM9.4105 33.8372C9.45424 33.9098 9.48011 33.9918 9.48597 34.0765L10.0845 34.0351C10.0721 33.8556 10.0173 33.6817 9.92449 33.5276L9.4105 33.8372ZM8.53381 31.7223C8.71848 32.4674 9.01407 33.1804 9.41067 33.8374L9.92433 33.5273C9.55883 32.9219 9.28639 32.2647 9.11619 31.578L8.53381 31.7223ZM8.41802 31.499C8.4737 31.563 8.51338 31.6394 8.53372 31.722L9.11628 31.5783C9.07315 31.4034 8.98901 31.2412 8.87079 31.1053L8.41802 31.499ZM8.2136 31.3537C8.29225 31.3851 8.36233 31.4349 8.41802 31.499L8.87079 31.1053C8.75257 30.9693 8.60367 30.8635 8.4364 30.7966L8.2136 31.3537ZM6.7426 30.7644L8.21344 31.3536L8.43656 30.7966L6.96573 30.2074L6.7426 30.7644ZM6.53333 29.865C6.53333 30.0782 6.5402 30.2955 6.55489 30.5067L7.15344 30.4651C7.1398 30.269 7.13333 30.0657 7.13333 29.865H6.53333ZM6.5549 29.224C6.54019 29.4344 6.53333 29.6517 6.53333 29.865H7.13333C7.13333 29.6642 7.1398 29.4609 7.15344 29.2658L6.5549 29.224ZM11.0356 17.3172C11.2493 17.5239 11.5357 17.6384 11.833 17.6358L11.8277 17.0358C11.6881 17.037 11.5534 16.9833 11.4528 16.8859L11.0356 17.3172ZM8.5319 14.8098L11.0319 17.3135L11.4565 16.8896L8.95648 14.3858L8.5319 14.8098ZM8.2002 14.0077C8.2002 14.3084 8.31945 14.5969 8.53187 14.8097L8.95652 14.3858C8.85648 14.2856 8.8002 14.1496 8.8002 14.0077H8.2002ZM8.53187 13.2057C8.31945 13.4185 8.2002 13.707 8.2002 14.0077H8.8002C8.8002 13.8658 8.85648 13.7298 8.95652 13.6296L8.53187 13.2057ZM11.0319 10.7019L8.5319 13.2057L8.95648 13.6296L11.4565 11.1259L11.0319 10.7019ZM11.833 10.3797C11.5357 10.3771 11.2493 10.4915 11.0356 10.6983L11.4528 11.1295C11.5534 11.0322 11.6881 10.9784 11.8277 10.9796L11.833 10.3797ZM12.6247 10.7121C12.4146 10.5017 12.1303 10.3823 11.833 10.3797L11.8277 10.9796C11.9674 10.9809 12.1012 11.037 12.2001 11.136L12.6247 10.7121ZM12.9564 11.5044C12.9538 11.207 12.8347 10.9225 12.6247 10.7121L12.2001 11.136C12.299 11.2351 12.3552 11.3693 12.3564 11.5096L12.9564 11.5044ZM12.6385 12.3023C12.8449 12.0882 12.959 11.8017 12.9564 11.5044L12.3564 11.5096C12.3577 11.6499 12.3038 11.785 12.2066 11.8858L12.6385 12.3023ZM10.724 14.2197L12.6348 12.306L12.2102 11.882L10.2994 13.7958L10.724 14.2197ZM12.6348 15.7095L10.724 13.7958L10.2994 14.2197L12.2102 16.1334L12.6348 15.7095ZM12.9564 16.5111C12.959 16.2138 12.8449 15.9272 12.6385 15.7132L12.2066 16.1297C12.3038 16.2305 12.3577 16.3656 12.3564 16.5059L12.9564 16.5111ZM12.6247 17.3034C12.8347 17.093 12.9538 16.8084 12.9564 16.5111L12.3564 16.5059C12.3552 16.6462 12.299 16.7803 12.2001 16.8794L12.6247 17.3034ZM11.833 17.6358C12.1303 17.6332 12.4146 17.5138 12.6247 17.3034L12.2001 16.8794C12.1012 16.9785 11.9674 17.0346 11.8277 17.0358L11.833 17.6358ZM20.1667 17.0459C20.0254 17.0459 19.8898 16.9897 19.7898 16.8895L19.3653 17.3136C19.5778 17.5263 19.866 17.6459 20.1667 17.6459V17.0459ZM20.5436 16.8895C20.4436 16.9897 20.308 17.0459 20.1667 17.0459V17.6459C20.4674 17.6459 20.7556 17.5263 20.9681 17.3136L20.5436 16.8895ZM23.0436 14.3858L20.5436 16.8896L20.9682 17.3135L23.4682 14.8098L23.0436 14.3858ZM23.1998 14.0077C23.1998 14.1496 23.1436 14.2856 23.0435 14.3858L23.4682 14.8097C23.6806 14.5969 23.7998 14.3084 23.7998 14.0077H23.1998ZM23.0435 13.6296C23.1436 13.7298 23.1998 13.8658 23.1998 14.0077H23.7998C23.7998 13.707 23.6806 13.4185 23.4682 13.2057L23.0435 13.6296ZM20.5436 11.1259L23.0436 13.6296L23.4682 13.2057L20.9682 10.7019L20.5436 11.1259ZM20.1723 10.9796C20.312 10.9784 20.4467 11.0322 20.5473 11.1295L20.9644 10.6983C20.7507 10.4915 20.4644 10.3771 20.1671 10.3797L20.1723 10.9796ZM19.8 11.136C19.8989 11.037 20.0326 10.9809 20.1723 10.9796L20.1671 10.3797C19.8698 10.3823 19.5855 10.5017 19.3754 10.7121L19.8 11.136ZM19.6436 11.5096C19.6448 11.3693 19.701 11.2351 19.8 11.136L19.3754 10.7121C19.1653 10.9225 19.0462 11.207 19.0436 11.5044L19.6436 11.5096ZM19.7935 11.8858C19.6963 11.785 19.6424 11.6499 19.6436 11.5096L19.0436 11.5044C19.0411 11.8017 19.1552 12.0882 19.3616 12.3023L19.7935 11.8858ZM21.7006 13.7958L19.7898 11.882L19.3652 12.306L21.2761 14.2197L21.7006 13.7958ZM19.7898 16.1334L21.7006 14.2197L21.2761 13.7958L19.3652 15.7095L19.7898 16.1334ZM19.6335 16.5115C19.6335 16.3696 19.6898 16.2336 19.7898 16.1334L19.3652 15.7095C19.1528 15.9223 19.0335 16.2108 19.0335 16.5115H19.6335ZM19.7898 16.8896C19.6898 16.7894 19.6335 16.6534 19.6335 16.5115H19.0335C19.0335 16.8122 19.1528 17.1007 19.3652 17.3135L19.7898 16.8896ZM14.8085 17.5874C15.0936 17.6823 15.4046 17.66 15.6733 17.5255L15.4046 16.989C15.2783 17.0523 15.1321 17.0627 14.9981 17.0181L14.8085 17.5874ZM14.4241 17.3692C14.5369 17.4666 14.6677 17.5408 14.8092 17.5876L14.9975 17.0179C14.9309 16.9959 14.8694 16.961 14.8163 16.9151L14.4241 17.3692ZM14.1519 17.02C14.2189 17.1531 14.3113 17.2718 14.4241 17.3692L14.8163 16.9151C14.7632 16.8693 14.7196 16.8134 14.6881 16.7506L14.1519 17.02ZM14.0341 16.5931C14.045 16.7417 14.085 16.8868 14.1519 17.02L14.6881 16.7506C14.6565 16.6878 14.6377 16.6194 14.6325 16.5493L14.0341 16.5931ZM14.0885 16.1536C14.0417 16.2951 14.0232 16.4445 14.0341 16.5931L14.6325 16.5493C14.6274 16.4792 14.6361 16.4087 14.6582 16.342L14.0885 16.1536ZM15.7554 11.1455L14.0887 16.1531L14.658 16.3425L16.3247 11.335L15.7554 11.1455ZM16.3236 10.4887C16.0545 10.6236 15.8502 10.86 15.7553 11.1457L16.3247 11.3348C16.3695 11.1999 16.4659 11.0886 16.5926 11.025L16.3236 10.4887ZM17.1898 10.4265C16.9043 10.3314 16.5926 10.3538 16.3236 10.4887L16.5926 11.025C16.7192 10.9615 16.8658 10.951 17.0002 10.9958L17.1898 10.4265ZM17.846 10.9957C17.7114 10.7264 17.4754 10.5216 17.1898 10.4265L17.0002 10.9958C17.1346 11.0405 17.2458 11.137 17.3093 11.264L17.846 10.9957ZM17.908 11.8623C18.0029 11.5766 17.9806 11.2649 17.846 10.9957L17.3093 11.264C17.3729 11.3911 17.3834 11.5383 17.3386 11.6732L17.908 11.8623ZM16.2413 16.87L17.908 11.8625L17.3387 11.673L15.672 16.6805L16.2413 16.87ZM15.6733 17.5255C15.9419 17.391 16.1462 17.1552 16.2413 16.8702L15.6721 16.6803C15.6272 16.8148 15.531 16.9257 15.4046 16.989L15.6733 17.5255ZM19.9125 33.784C18.8748 34.8233 17.4674 35.4071 16 35.4071V36.0071C17.6268 36.0071 19.1869 35.3599 20.3371 34.2079L19.9125 33.784ZM21.5334 29.865C21.5334 31.335 20.9503 32.7447 19.9125 33.784L20.3371 34.2079C21.4873 33.056 22.1334 31.4938 22.1334 29.865H21.5334ZM19.9125 25.9459C20.9503 26.9852 21.5334 28.395 21.5334 29.865H22.1334C22.1334 28.2361 21.4873 26.6739 20.3371 25.522L19.9125 25.9459ZM16 24.3228C17.4674 24.3228 18.8748 24.9066 19.9125 25.9459L20.3371 25.522C19.1869 24.3701 17.6268 23.7228 16 23.7228V24.3228ZM15.6231 24.4792C15.7231 24.379 15.8587 24.3228 16 24.3228V23.7228C15.6993 23.7228 15.411 23.8425 15.1985 24.0553L15.6231 24.4792ZM15.4667 24.8574C15.4667 24.7155 15.523 24.5795 15.6231 24.4792L15.1985 24.0553C14.986 24.2681 14.8667 24.5567 14.8667 24.8574H15.4667ZM15.6231 25.2356C15.523 25.1354 15.4667 24.9993 15.4667 24.8574H14.8667C14.8667 25.1582 14.986 25.4467 15.1985 25.6595L15.6231 25.2356ZM16 25.392C15.8587 25.392 15.7231 25.3358 15.6231 25.2356L15.1985 25.6595C15.411 25.8724 15.6993 25.992 16 25.992V25.392ZM18.8578 26.4273C18.0554 25.7583 17.0442 25.392 16 25.392L16 25.992C16.9037 25.992 17.779 26.309 18.4736 26.8881L18.8578 26.4273ZM20.3927 29.0536C20.2033 28.0255 19.6603 27.0962 18.8578 26.4273L18.4736 26.8881C19.1683 27.4673 19.6386 28.2719 19.8026 29.1623L20.3927 29.0536ZM19.8946 32.0553C20.4058 31.1437 20.582 30.0816 20.3927 29.0536L19.8026 29.1623C19.9666 30.0526 19.814 30.9724 19.3713 31.7618L19.8946 32.0553ZM17.5939 34.0435C18.5694 33.6703 19.3834 32.9668 19.8946 32.0553L19.3713 31.7618C18.9286 32.5511 18.2239 33.1601 17.3796 33.4831L17.5939 34.0435ZM14.5553 34.0975C15.5434 34.4357 16.6185 34.4166 17.5939 34.0435L17.3796 33.4831C16.5353 33.806 15.6048 33.8225 14.7496 33.5298L14.5553 34.0975ZM12.1856 32.1923C12.7289 33.0851 13.5673 33.7592 14.5553 34.0975L14.7496 33.5298C13.8945 33.2371 13.1686 32.6535 12.6982 31.8804L12.1856 32.1923ZM11.5816 29.2101C11.4287 30.2443 11.6424 31.2994 12.1856 32.1923L12.6982 31.8804C12.2279 31.1073 12.0427 30.1935 12.1751 29.2978L11.5816 29.2101ZM13.0224 26.531C12.2441 27.228 11.7344 28.176 11.5816 29.2101L12.1751 29.2978C12.3075 28.4022 12.7489 27.5814 13.4227 26.9779L13.0224 26.531ZM13.1515 26.3625C13.1205 26.426 13.0773 26.4826 13.0243 26.5292L13.4207 26.9797C13.5332 26.8807 13.6249 26.7604 13.6906 26.6258L13.1515 26.3625ZM13.2048 26.1595C13.2006 26.2301 13.1825 26.2991 13.1515 26.3625L13.6906 26.6258C13.7564 26.4912 13.7948 26.3449 13.8038 26.1953L13.2048 26.1595ZM13.1761 25.9515C13.1993 26.0183 13.209 26.0889 13.2048 26.1595L13.8038 26.1953C13.8127 26.0458 13.792 25.8959 13.7428 25.7544L13.1761 25.9515ZM13.0697 25.7708C13.1167 25.8234 13.1528 25.8848 13.1761 25.9515L13.7428 25.7544C13.6935 25.6129 13.6168 25.4826 13.517 25.3709L13.0697 25.7708ZM12.9021 25.645C12.9657 25.6754 13.0226 25.7182 13.0696 25.7708L13.517 25.3709C13.4171 25.2592 13.2962 25.1684 13.161 25.1038L12.9021 25.645ZM12.6994 25.5936C12.7697 25.5972 12.8386 25.6146 12.9021 25.645L13.161 25.1038C13.0259 25.0391 12.8793 25.002 12.7297 24.9944L12.6994 25.5936ZM12.4925 25.6243C12.5588 25.6005 12.6291 25.59 12.6994 25.5936L12.7297 24.9944C12.5801 24.9868 12.4306 25.009 12.2896 25.0596L12.4925 25.6243ZM12.3132 25.7324C12.3653 25.6848 12.4262 25.6481 12.4925 25.6243L12.2896 25.0596C12.1486 25.1103 12.0191 25.1884 11.9085 25.2894L12.3132 25.7324ZM10.6229 28.5581C10.8872 27.4673 11.4759 26.4826 12.311 25.7343L11.9107 25.2875C10.985 26.1168 10.3326 27.2081 10.0398 28.4168L10.6229 28.5581ZM10.8312 31.8428C10.4313 30.7943 10.3587 29.6489 10.6229 28.5581L10.0398 28.4168C9.74695 29.6255 9.82745 30.8948 10.2706 32.0567L10.8312 31.8428ZM12.8625 34.4299C11.9395 33.7935 11.2312 32.8914 10.8312 31.8428L10.2706 32.0567C10.7138 33.2186 11.4989 34.2184 12.5219 34.9239L12.8625 34.4299ZM16 35.4071C14.8796 35.4071 13.7855 35.0663 12.8625 34.4299L12.5219 34.9239C13.545 35.6293 14.7578 36.0071 16 36.0071L16 35.4071ZM13.5 3.69266H12.6667V4.29266H13.5V3.69266ZM14.3015 4.02513C14.089 3.8123 13.8007 3.69266 13.5 3.69266V4.29266C13.6413 4.29266 13.7769 4.34887 13.877 4.44908L14.3015 4.02513ZM14.6333 4.82725C14.6333 4.52648 14.514 4.23794 14.3015 4.02513L13.877 4.44908C13.977 4.5493 14.0333 4.68532 14.0333 4.82725H14.6333ZM14.3015 5.62936C14.514 5.41655 14.6333 5.12801 14.6333 4.82725H14.0333C14.0333 4.96918 13.977 5.1052 13.877 5.20542L14.3015 5.62936ZM13.5 5.96184C13.8007 5.96184 14.089 5.84219 14.3015 5.62936L13.877 5.20542C13.7769 5.30563 13.6413 5.36184 13.5 5.36184V5.96184ZM12.6667 5.96184H13.5V5.36184H12.6667V5.96184ZM11.8651 5.62936C12.0776 5.84219 12.3659 5.96184 12.6667 5.96184V5.36184C12.5254 5.36184 12.3898 5.30563 12.2897 5.20542L11.8651 5.62936ZM11.5333 4.82725C11.5333 5.12801 11.6526 5.41655 11.8651 5.62936L12.2897 5.20542C12.1896 5.1052 12.1333 4.96918 12.1333 4.82725H11.5333ZM11.8651 4.02513C11.6526 4.23794 11.5333 4.52648 11.5333 4.82725H12.1333C12.1333 4.68532 12.1896 4.5493 12.2897 4.44908L11.8651 4.02513ZM12.6667 3.69266C12.3659 3.69266 12.0776 3.8123 11.8651 4.02513L12.2897 4.44908C12.3898 4.34887 12.5254 4.29266 12.6667 4.29266V3.69266ZM16.8333 4.29266H19.3333V3.69266H16.8333V4.29266ZM16.4564 4.44908C16.5564 4.34887 16.692 4.29266 16.8333 4.29266V3.69266C16.5326 3.69266 16.2443 3.8123 16.0318 4.02513L16.4564 4.44908ZM16.3 4.82725C16.3 4.68532 16.3563 4.5493 16.4564 4.44908L16.0318 4.02513C15.8193 4.23794 15.7 4.52648 15.7 4.82725H16.3ZM16.4564 5.20542C16.3563 5.1052 16.3 4.96918 16.3 4.82725H15.7C15.7 5.12801 15.8193 5.41655 16.0318 5.62936L16.4564 5.20542ZM16.8333 5.36184C16.692 5.36184 16.5564 5.30563 16.4564 5.20542L16.0318 5.62936C16.2443 5.84219 16.5326 5.96184 16.8333 5.96184V5.36184ZM19.3333 5.36184H16.8333V5.96184H19.3333V5.36184ZM19.7103 5.20542C19.6102 5.30563 19.4746 5.36184 19.3333 5.36184V5.96184C19.6341 5.96184 19.9224 5.84219 20.1349 5.62936L19.7103 5.20542ZM19.8667 4.82725C19.8667 4.96918 19.8104 5.1052 19.7103 5.20542L20.1349 5.62936C20.3474 5.41655 20.4667 5.12801 20.4667 4.82725H19.8667ZM19.7103 4.44908C19.8104 4.5493 19.8667 4.68532 19.8667 4.82725H20.4667C20.4667 4.52648 20.3474 4.23795 20.1349 4.02513L19.7103 4.44908ZM19.3333 4.29266C19.4746 4.29266 19.6102 4.34887 19.7103 4.44908L20.1349 4.02513C19.9224 3.8123 19.6341 3.69266 19.3333 3.69266V4.29266ZM14.3333 45.4222C14.0326 45.4222 13.7443 45.5418 13.5318 45.7547L13.9564 46.1786C14.0564 46.0784 14.192 46.0222 14.3333 46.0222V45.4222ZM17.6667 45.4222H14.3333V46.0222H17.6667V45.4222ZM18.4682 45.7547C18.2557 45.5418 17.9674 45.4222 17.6667 45.4222V46.0222C17.808 46.0222 17.9436 46.0784 18.0436 46.1786L18.4682 45.7547ZM18.8 46.5568C18.8 46.256 18.6807 45.9675 18.4682 45.7547L18.0436 46.1786C18.1437 46.2788 18.2 46.4148 18.2 46.5568H18.8ZM18.4682 47.3589C18.6807 47.1461 18.8 46.8575 18.8 46.5568H18.2C18.2 46.6987 18.1437 46.8347 18.0436 46.9349L18.4682 47.3589ZM17.6667 47.6914C17.9674 47.6914 18.2557 47.5717 18.4682 47.3589L18.0436 46.9349C17.9436 47.0351 17.808 47.0914 17.6667 47.0914V47.6914ZM14.3333 47.6914H17.6667V47.0914H14.3333V47.6914ZM13.5318 47.3589C13.7443 47.5717 14.0326 47.6914 14.3333 47.6914V47.0914C14.192 47.0914 14.0564 47.0351 13.9564 46.9349L13.5318 47.3589ZM13.2 46.5568C13.2 46.8575 13.3193 47.1461 13.5318 47.3589L13.9564 46.9349C13.8563 46.8347 13.8 46.6987 13.8 46.5568H13.2ZM13.5318 45.7547C13.3193 45.9675 13.2 46.256 13.2 46.5568H13.8C13.8 46.4148 13.8563 46.2788 13.9564 46.1786L13.5318 45.7547Z" fill="#703391"/>
</svg>
