<svg width="52" height="52" viewBox="0 0 52 52" fill="none" xmlns="http://www.w3.org/2000/svg">
<path fill-rule="evenodd" clip-rule="evenodd" d="M43.3923 30.9757C43.7965 29.7572 42.8077 28.1423 42.1706 28.3291C42.0175 28.3701 41.8965 28.5682 41.8257 28.7846C41.4169 30.0145 42.4103 31.6135 43.0475 31.4313C43.2233 31.3356 43.3466 31.1693 43.3855 30.9757H43.3923ZM41.3393 32.2239C40.3938 31.224 40.017 29.8164 40.3344 28.4794L35.7853 28.8347V28.837C35.9542 30.6842 36.4407 32.488 37.224 34.1712L41.3164 32.2124L41.3393 32.2239ZM26.3101 30.1489L25.6022 30.3767V30.3744C24.1132 30.8208 23.0285 32.1031 22.8411 33.6428C22.6516 35.1825 23.3938 36.6858 24.7298 37.4784C24.9056 37.5832 25.0906 37.6743 25.2802 37.7517C25.4286 37.7563 25.5702 37.8064 25.689 37.8906C26.3215 38.0729 26.9907 38.0842 27.6301 37.9271L28.3381 37.7699C27.1619 35.3875 26.4654 32.7979 26.2918 30.1491L26.3101 30.1489ZM34.6458 40.4624L35.1482 40.328C35.3149 40.2551 35.4268 40.0957 35.436 39.9158L35.4017 39.0821L33.9584 38.9478L34.6481 40.4647L34.6458 40.4624ZM36.201 37.67C34.1297 37.3579 32.0241 37.3124 29.939 37.5356C28.6442 35.0734 27.9111 32.3562 27.7946 29.5778C30.2153 28.5096 32.4465 27.0564 34.4015 25.273C34.2485 26.2501 34.1914 27.2386 34.2303 28.2248C34.2851 29.4912 34.4815 30.7462 34.8149 31.967C35.3835 34.1581 36.409 36.2034 37.8203 37.9733C37.4754 37.8913 36.5391 37.7045 36.2057 37.6704L36.201 37.67ZM36.2604 44.0203L35.283 41.8679L35.541 41.7973C35.9612 41.6811 36.3289 41.4215 36.5824 41.0639C36.9249 40.5492 37.0483 39.9205 36.9272 39.3147C38.2495 39.5629 39.5352 39.9684 40.7616 40.5218C42.2277 41.4351 44.0022 41.7221 45.6853 41.3145C46.2813 41.1664 46.8477 40.9204 47.3616 40.5856V42.451C47.3616 43.312 46.665 44.0112 45.8018 44.0135L36.2604 44.0203ZM35.0912 45.1272L35.6004 46.2524C35.6621 46.3913 35.7397 46.5234 35.8334 46.6441C36.1234 46.9562 36.4409 47.2431 36.7811 47.5005C36.9981 47.685 37.0278 48.0107 36.8451 48.2294C36.7697 48.3296 35.4885 49.2566 35.283 49.3955C35.1665 49.4844 35.0181 49.5185 34.8719 49.4912C34.728 49.4661 34.6024 49.3796 34.5225 49.2566L29.9231 41.8224C29.7084 41.4762 29.3933 41.2051 29.0233 41.0412C28.7949 40.9364 27.4384 40.3465 27.3402 40.26H27.3379C27.1575 40.0322 26.9931 39.7953 26.8423 39.547C27.2351 39.5402 27.628 39.4878 28.0116 39.3967C29.4161 39.0756 30.8548 38.9116 32.2958 38.907L33.5405 41.6538V41.6516C33.5427 41.6675 33.5427 41.6834 33.5405 41.6994L35.0614 45.0407C35.0706 45.068 35.082 45.0954 35.0957 45.1227L35.0912 45.1272ZM47.5193 38.4288C45.4799 40.7611 42.5385 40.3466 40.1517 38.2238H40.154C39.2839 37.4403 38.5394 36.5269 37.9434 35.518L43.4974 32.8759V32.8782C44.1506 32.6482 44.6484 32.1152 44.8311 31.4479C45.2399 30.0061 44.8219 28.4528 43.744 27.4073C43.2553 26.9199 42.5588 26.7013 41.8782 26.8242L35.7326 27.3071V27.3094C35.7531 26.1387 35.9495 24.9748 36.3172 23.8633C36.9018 22.073 38.0711 20.3648 39.9483 19.8865C41.6382 19.431 43.4561 20.0915 45.0867 21.5196C46.9867 23.3235 48.3319 25.633 48.9644 28.1725C49.7021 30.6847 49.7021 33.3564 48.9644 35.8685C48.6767 36.7728 48.22 37.6132 47.6193 38.3466L47.5599 38.4172L47.5193 38.4288ZM47.3617 9.38629V21.7469C46.9689 21.2664 46.5372 20.82 46.076 20.4054C44.0892 18.6562 41.7506 17.8408 39.5334 18.4352C37.8891 18.9135 36.5051 20.0296 35.6921 21.5351C34.443 23.257 32.9037 24.7489 31.1453 25.9446C29.3274 27.2475 27.3109 28.2542 25.1756 28.9238C23.1088 29.5411 21.6038 31.3176 21.3389 33.454C21.074 35.5882 22.0994 37.6768 23.9538 38.7769C24.221 38.9363 24.4996 39.073 24.7897 39.1869L25.9589 40.9771C26.169 41.3028 26.4682 41.5602 26.8245 41.7173C27.0574 41.8221 28.414 42.4052 28.519 42.4985C28.624 42.5919 29.3434 43.7922 29.4781 44.0154L4.08756 44.0132C3.22429 44.0109 2.5232 43.3139 2.52092 42.4507V12.5272H20.7381C21.0007 12.5294 21.2473 12.3951 21.3867 12.1718L23.5082 9.38403L47.3617 9.38629ZM2.52098 11.0125H20.3868L22.5563 8.16777V8.16549C22.6956 7.98328 22.9102 7.87396 23.1409 7.8694H47.3435L47.3458 4.07258C47.3412 3.21388 46.6447 2.5192 45.7837 2.51693H4.08774C3.22447 2.51693 2.52338 3.2116 2.5211 4.07258L2.52098 11.0125ZM1 11.7756V4.07253C1.00685 2.37565 2.38622 1.00455 4.08756 1H45.8022C47.5013 1.00456 48.8784 2.37799 48.883 4.07253V23.9905C49.5407 25.1931 50.0522 26.4685 50.4085 27.7918C51.2147 30.5911 51.1964 33.5634 50.356 36.3514C50.0363 37.3672 49.5362 38.317 48.883 39.1575V42.4509C48.8784 44.1478 47.5036 45.5234 45.8023 45.5303H36.9439C36.9713 45.6441 37.0284 45.7489 37.1084 45.8332C37.4578 46.0951 37.782 46.3889 38.0721 46.7146C38.7321 47.5984 38.5631 48.8465 37.693 49.523L36.1903 50.614C35.7313 50.9465 35.1558 51.0718 34.6008 50.9602C34.0458 50.8508 33.5617 50.5138 33.2671 50.0309L30.4604 45.5052L4.08824 45.5075C2.39374 45.5029 1.01664 44.1409 1.00068 42.4509L1 11.7756ZM7.787 6.08374H7.78928C8.01537 6.30922 8.11357 6.63265 8.05191 6.94698C7.98796 7.25902 7.77558 7.52095 7.48098 7.64393C7.1841 7.76693 6.84841 7.73504 6.58117 7.55738C6.31398 7.38201 6.15412 7.08591 6.15183 6.76702C6.1564 6.3821 6.39162 6.03817 6.74558 5.8924C7.10185 5.74436 7.51291 5.8218 7.78927 6.09056L7.787 6.08374ZM7.11099 4.28897C6.28198 4.28897 5.51009 4.70122 5.0511 5.38906C4.59207 6.07464 4.50529 6.94471 4.82273 7.70772C5.14016 8.47074 5.81613 9.0242 6.62912 9.18594C7.43983 9.34765 8.27796 9.09484 8.86488 8.50945C9.57281 7.80341 9.78748 6.7397 9.40155 5.815C9.01789 4.89029 8.11358 4.28897 7.11099 4.28897ZM13.6104 6.08374C13.8342 6.3115 13.9301 6.63265 13.8662 6.94471C13.8045 7.25675 13.5898 7.5164 13.2953 7.63711C13.0006 7.76011 12.6672 7.72822 12.4001 7.55284C12.1352 7.37974 11.973 7.08364 11.9684 6.76703C11.973 6.3821 12.2082 6.03818 12.5645 5.89241C12.9207 5.74436 13.3295 5.82181 13.6058 6.09056L13.6104 6.08374ZM12.9321 4.28897C12.1054 4.28897 11.3335 4.70122 10.8745 5.38906C10.4132 6.07464 10.3287 6.94471 10.6461 7.70772C10.9613 8.47074 11.6395 9.0242 12.4502 9.18594C13.2632 9.34765 14.1014 9.09484 14.686 8.50945C15.3962 7.80341 15.6086 6.7397 15.225 5.815C14.8413 4.89029 13.937 4.28897 12.9321 4.28897ZM19.4338 6.08374C19.669 6.30694 19.7741 6.63265 19.717 6.94926C19.6576 7.26585 19.4452 7.53233 19.1461 7.65758C18.8492 7.78513 18.5066 7.75096 18.2394 7.57103C17.9699 7.39109 17.8101 7.09044 17.8146 6.76702C17.8192 6.3821 18.0544 6.03817 18.4107 5.8924C18.7669 5.74436 19.1757 5.8218 19.452 6.09056L19.4338 6.08374ZM18.7555 4.28897C17.9288 4.28897 17.1546 4.70122 16.6956 5.38906C16.2366 6.07464 16.1521 6.94471 16.4672 7.70772C16.7847 8.47074 17.4629 9.0242 18.2736 9.18594C19.0844 9.34765 19.9248 9.09484 20.5094 8.50945C21.2196 7.80341 21.432 6.7397 21.0484 5.815C20.6647 4.89029 19.7581 4.28897 18.7555 4.28897ZM19.7786 16.5744H6.5788V23.4891H19.7786V16.5744ZM5.81819 15.0575C5.39798 15.0575 5.0577 15.3968 5.0577 15.8159V24.2589C5.0577 24.678 5.39797 25.0174 5.81819 25.0174H20.5392C20.7448 25.0242 20.9435 24.9468 21.0919 24.8033C21.2403 24.6598 21.3225 24.4639 21.3225 24.2589V15.816C21.3225 15.3969 20.9823 15.0575 20.5621 15.0575L5.81819 15.0575ZM5.81819 30.1353H19.6734C20.0936 30.1353 20.4339 29.7959 20.4339 29.3791C20.4339 28.96 20.0936 28.6206 19.6734 28.6206H5.81819C5.39798 28.6206 5.0577 28.96 5.0577 29.3791C5.0577 29.7959 5.39797 30.1353 5.81819 30.1353ZM5.81819 35.2668H18.1779C18.5981 35.2668 18.9384 34.9275 18.9384 34.5084C18.9384 34.0915 18.5981 33.7522 18.1779 33.7522H5.81819C5.39798 33.7522 5.0577 34.0915 5.0577 34.5084C5.0577 34.9274 5.39797 35.2668 5.81819 35.2668ZM5.81819 40.3984H21.0186C21.4388 40.3984 21.7791 40.059 21.7791 39.6399C21.7791 39.2208 21.4388 38.8814 21.0186 38.8814H5.81819C5.39798 38.8814 5.0577 39.2208 5.0577 39.6399C5.0577 40.059 5.39797 40.3984 5.81819 40.3984Z" fill="#703391"/>
<path d="M7.10871 4.28897H7.11099M7.11099 4.28897C6.28198 4.28897 5.51009 4.70122 5.0511 5.38906C4.59207 6.07464 4.50529 6.94471 4.82273 7.70772C5.14016 8.47074 5.81613 9.0242 6.62912 9.18594C7.43983 9.34765 8.27796 9.09484 8.86488 8.50945C9.57281 7.80341 9.78748 6.7397 9.40155 5.815C9.01789 4.89029 8.11358 4.28897 7.11099 4.28897ZM43.3923 30.9757C43.7965 29.7572 42.8077 28.1423 42.1706 28.3291C42.0175 28.3701 41.8965 28.5682 41.8257 28.7846C41.4169 30.0145 42.4103 31.6135 43.0475 31.4313C43.2233 31.3356 43.3466 31.1693 43.3855 30.9757H43.3923ZM41.3393 32.2239C40.3938 31.224 40.017 29.8164 40.3344 28.4794L35.7853 28.8347V28.837C35.9542 30.6842 36.4407 32.488 37.224 34.1712L41.3164 32.2124L41.3393 32.2239ZM26.3101 30.1489L25.6022 30.3767V30.3744C24.1132 30.8208 23.0285 32.1031 22.8411 33.6428C22.6516 35.1825 23.3938 36.6858 24.7298 37.4784C24.9056 37.5832 25.0906 37.6743 25.2802 37.7517C25.4286 37.7563 25.5702 37.8064 25.689 37.8906C26.3215 38.0729 26.9907 38.0842 27.6301 37.9271L28.3381 37.7699C27.1619 35.3875 26.4654 32.7979 26.2918 30.1491L26.3101 30.1489ZM34.6458 40.4624L35.1482 40.328C35.3149 40.2551 35.4268 40.0957 35.436 39.9158L35.4017 39.0821L33.9584 38.9478L34.6481 40.4647L34.6458 40.4624ZM36.201 37.67C34.1297 37.3579 32.0241 37.3124 29.939 37.5356C28.6442 35.0734 27.9111 32.3562 27.7946 29.5778C30.2153 28.5096 32.4465 27.0564 34.4015 25.273C34.2485 26.2501 34.1914 27.2386 34.2303 28.2248C34.2851 29.4912 34.4815 30.7462 34.8149 31.967C35.3835 34.1581 36.409 36.2034 37.8203 37.9733C37.4754 37.8913 36.5391 37.7045 36.2057 37.6704L36.201 37.67ZM36.2604 44.0203L35.283 41.8679L35.541 41.7973C35.9612 41.6811 36.3289 41.4215 36.5824 41.0639C36.9249 40.5492 37.0483 39.9205 36.9272 39.3147C38.2495 39.5629 39.5352 39.9684 40.7616 40.5218C42.2277 41.4351 44.0022 41.7221 45.6853 41.3145C46.2813 41.1664 46.8477 40.9204 47.3616 40.5856V42.451C47.3616 43.312 46.665 44.0112 45.8018 44.0135L36.2604 44.0203ZM35.0912 45.1272L35.6004 46.2524C35.6621 46.3913 35.7397 46.5234 35.8334 46.6441C36.1234 46.9562 36.4409 47.2431 36.7811 47.5005C36.9981 47.685 37.0278 48.0107 36.8451 48.2294C36.7697 48.3296 35.4885 49.2566 35.283 49.3955C35.1665 49.4844 35.0181 49.5185 34.8719 49.4912C34.728 49.4661 34.6024 49.3796 34.5225 49.2566L29.9231 41.8224C29.7084 41.4762 29.3933 41.2051 29.0233 41.0412C28.7949 40.9364 27.4384 40.3465 27.3402 40.26H27.3379C27.1575 40.0322 26.9931 39.7953 26.8423 39.547C27.2351 39.5402 27.628 39.4878 28.0116 39.3967C29.4161 39.0755 30.8548 38.9116 32.2958 38.907L33.5405 41.6538V41.6515C33.5427 41.6675 33.5427 41.6834 33.5405 41.6994L35.0614 45.0407C35.0706 45.068 35.082 45.0954 35.0957 45.1227L35.0912 45.1272ZM47.5193 38.4288C45.4799 40.7611 42.5385 40.3466 40.1517 38.2238H40.154C39.2839 37.4403 38.5394 36.5269 37.9434 35.518L43.4974 32.8759V32.8782C44.1506 32.6482 44.6484 32.1152 44.8311 31.4479C45.2399 30.0061 44.8219 28.4528 43.744 27.4073C43.2553 26.9199 42.5588 26.7013 41.8782 26.8242L35.7326 27.3071V27.3094C35.7531 26.1387 35.9495 24.9748 36.3172 23.8633C36.9018 22.073 38.0711 20.3648 39.9483 19.8865C41.6382 19.431 43.4561 20.0915 45.0867 21.5196C46.9867 23.3235 48.3319 25.633 48.9644 28.1725C49.7021 30.6847 49.7021 33.3564 48.9644 35.8685C48.6767 36.7728 48.22 37.6132 47.6193 38.3466L47.5599 38.4172L47.5193 38.4288ZM47.3617 9.38629V21.7469C46.9689 21.2664 46.5372 20.82 46.076 20.4054C44.0892 18.6562 41.7506 17.8408 39.5334 18.4352C37.8891 18.9135 36.5051 20.0296 35.6921 21.5351C34.443 23.257 32.9037 24.7489 31.1453 25.9446C29.3274 27.2475 27.3109 28.2541 25.1756 28.9238C23.1088 29.5411 21.6038 31.3176 21.3389 33.454C21.074 35.5882 22.0994 37.6768 23.9538 38.7769C24.221 38.9363 24.4996 39.073 24.7897 39.1869L25.9589 40.9771C26.169 41.3028 26.4682 41.5602 26.8245 41.7173C27.0574 41.8221 28.414 42.4052 28.519 42.4985C28.624 42.5919 29.3434 43.7922 29.4781 44.0154L4.08756 44.0132C3.22429 44.0109 2.5232 43.3139 2.52092 42.4507V12.5272H20.7381C21.0007 12.5294 21.2473 12.3951 21.3867 12.1718L23.5082 9.38403L47.3617 9.38629ZM2.52098 11.0125H20.3868L22.5563 8.16777V8.16549C22.6956 7.98328 22.9102 7.87396 23.1409 7.8694H47.3435L47.3458 4.07258C47.3412 3.21388 46.6447 2.5192 45.7837 2.51693H4.08774C3.22447 2.51693 2.52338 3.2116 2.5211 4.07258L2.52098 11.0125ZM1 11.7756V4.07253C1.00685 2.37565 2.38622 1.00455 4.08756 1H45.8022C47.5013 1.00456 48.8784 2.37799 48.883 4.07253V23.9905C49.5407 25.1931 50.0522 26.4685 50.4085 27.7918C51.2147 30.5911 51.1964 33.5634 50.356 36.3514C50.0363 37.3672 49.5362 38.317 48.883 39.1575V42.4509C48.8784 44.1478 47.5036 45.5234 45.8023 45.5303H36.9439C36.9713 45.6442 37.0284 45.7489 37.1084 45.8332C37.4578 46.0951 37.782 46.3889 38.0721 46.7146C38.7321 47.5983 38.5631 48.8465 37.693 49.523L36.1903 50.614C35.7313 50.9465 35.1558 51.0718 34.6008 50.9602C34.0458 50.8508 33.5617 50.5138 33.2671 50.0309L30.4604 45.5052L4.08824 45.5075C2.39374 45.5029 1.01664 44.1408 1.00068 42.4509L1 11.7756ZM7.787 6.08374H7.78928C8.01537 6.30922 8.11357 6.63265 8.05191 6.94698C7.98796 7.25902 7.77558 7.52095 7.48098 7.64393C7.1841 7.76693 6.84841 7.73504 6.58117 7.55738C6.31398 7.382 6.15412 7.08591 6.15183 6.76702C6.1564 6.3821 6.39162 6.03817 6.74558 5.8924C7.10185 5.74436 7.51291 5.8218 7.78927 6.09056L7.787 6.08374ZM13.6104 6.08374C13.8342 6.3115 13.9301 6.63265 13.8662 6.94471C13.8045 7.25675 13.5898 7.5164 13.2953 7.63711C13.0006 7.76011 12.6672 7.72822 12.4001 7.55284C12.1352 7.37974 11.973 7.08364 11.9684 6.76703C11.973 6.3821 12.2082 6.03818 12.5645 5.89241C12.9207 5.74436 13.3295 5.82181 13.6058 6.09056L13.6104 6.08374ZM12.9321 4.28897C12.1054 4.28897 11.3335 4.70122 10.8745 5.38906C10.4132 6.07464 10.3287 6.94471 10.6461 7.70772C10.9613 8.47074 11.6395 9.0242 12.4502 9.18594C13.2632 9.34765 14.1014 9.09484 14.686 8.50945C15.3962 7.80341 15.6086 6.7397 15.225 5.815C14.8413 4.89029 13.937 4.28897 12.9321 4.28897ZM19.4338 6.08374C19.669 6.30694 19.7741 6.63265 19.717 6.94926C19.6576 7.26585 19.4452 7.53233 19.1461 7.65758C18.8492 7.78513 18.5066 7.75096 18.2394 7.57103C17.9699 7.39109 17.8101 7.09044 17.8146 6.76702C17.8192 6.3821 18.0544 6.03817 18.4107 5.8924C18.7669 5.74436 19.1757 5.8218 19.452 6.09056L19.4338 6.08374ZM18.7555 4.28897C17.9288 4.28897 17.1546 4.70122 16.6956 5.38906C16.2366 6.07464 16.1521 6.94471 16.4673 7.70772C16.7847 8.47074 17.4629 9.0242 18.2736 9.18594C19.0844 9.34765 19.9248 9.09484 20.5094 8.50945C21.2196 7.80341 21.432 6.7397 21.0484 5.815C20.6647 4.89029 19.7581 4.28897 18.7555 4.28897ZM19.7786 16.5744H6.5788V23.4891H19.7786V16.5744ZM5.81819 15.0575C5.39798 15.0575 5.0577 15.3968 5.0577 15.8159V24.2589C5.0577 24.678 5.39797 25.0174 5.81819 25.0174H20.5392C20.7448 25.0242 20.9435 24.9468 21.0919 24.8033C21.2403 24.6598 21.3225 24.4639 21.3225 24.2589V15.816C21.3225 15.3969 20.9823 15.0575 20.5621 15.0575L5.81819 15.0575ZM5.81819 30.1353H19.6734C20.0936 30.1353 20.4339 29.7959 20.4339 29.3791C20.4339 28.96 20.0936 28.6206 19.6734 28.6206H5.81819C5.39798 28.6206 5.0577 28.96 5.0577 29.3791C5.0577 29.7959 5.39797 30.1353 5.81819 30.1353ZM5.81819 35.2668H18.1779C18.5981 35.2668 18.9384 34.9275 18.9384 34.5084C18.9384 34.0915 18.5981 33.7522 18.1779 33.7522H5.81819C5.39798 33.7522 5.0577 34.0915 5.0577 34.5084C5.0577 34.9274 5.39797 35.2668 5.81819 35.2668ZM5.81819 40.3984H21.0186C21.4388 40.3984 21.7791 40.059 21.7791 39.6399C21.7791 39.2208 21.4388 38.8814 21.0186 38.8814H5.81819C5.39798 38.8814 5.0577 39.2208 5.0577 39.6399C5.0577 40.059 5.39797 40.3984 5.81819 40.3984Z" stroke="#703391"/>
</svg>
