<svg width="52" height="50" viewBox="0 0 52 50" fill="none" xmlns="http://www.w3.org/2000/svg">
<path fill-rule="evenodd" clip-rule="evenodd" d="M23.0442 10.9131C22.7402 10.9131 22.4936 10.6552 22.4936 10.3373C22.4936 10.0194 22.7402 9.7615 23.0442 9.7615H48.4152C48.7192 9.7615 48.9658 10.0194 48.9658 10.3373V36.3876C48.9658 36.7055 48.7192 36.9634 48.4152 36.9634H19.0897C18.7857 36.9634 18.5391 36.7055 18.5391 36.3876C18.5391 36.0697 18.7857 35.8118 19.0897 35.8118H47.8644V10.9128L23.0442 10.9131ZM22.6806 43.7217H38.049V43.0547C38.049 42.8725 37.9767 42.7057 37.8619 42.5834C37.7471 42.4634 37.5856 42.3878 37.4112 42.3878H23.318C23.1437 42.3878 22.9843 42.4634 22.8673 42.5834C22.7525 42.7035 22.6802 42.8725 22.6802 43.0547L22.6806 43.7217ZM38.6591 45C38.9971 45 39.2693 44.7132 39.2693 44.362V43.057C39.2693 42.5212 39.0609 42.0343 38.7229 41.6831C38.387 41.3318 37.9214 41.1117 37.409 41.1117H32.8467V39.0909H48.4148C49.127 39.0909 49.7733 38.7863 50.2411 38.2972C50.7088 37.8082 51 37.1323 51 36.3876V10.3372C51 9.59248 50.7087 8.91665 50.2411 8.42755C49.7734 7.93844 49.127 7.63391 48.4148 7.63391H20.9986C20.6945 7.63391 20.4479 7.89179 20.4479 8.20969C20.4479 8.52759 20.6945 8.78546 20.9986 8.78546L48.4148 8.78324C48.823 8.78324 49.1929 8.95887 49.4629 9.23898C49.7329 9.52132 49.8988 9.90815 49.8988 10.335V36.3853C49.8988 36.8122 49.7308 37.199 49.4629 37.4813C49.1929 37.7637 48.823 37.9371 48.4148 37.9371L32.4848 37.9393C32.4083 37.9037 32.3232 37.8837 32.234 37.8837H28.4902C28.4009 37.8837 28.3158 37.9037 28.2393 37.9393H18.4875C18.1835 37.9393 17.9369 38.1972 17.9369 38.5151C17.9369 38.833 18.1835 39.0909 18.4875 39.0909L27.8801 39.0886V41.1095H23.3178C22.8054 41.1095 22.3398 41.3273 22.0039 41.6808C21.668 42.0321 21.4576 42.5189 21.4576 43.0547V44.3597C21.4576 44.7132 21.7318 44.9977 22.0677 44.9977L38.6591 45ZM31.6242 41.1096H29.1028L29.105 39.1621H31.6263L31.6242 41.1096ZM13.7833 22.3707C14.0427 22.2551 14.2914 22.1084 14.5232 21.9283C14.7485 21.7549 14.959 21.5504 15.1503 21.3192C15.82 20.4988 16.107 19.474 16.0326 18.4758C15.9773 17.7244 15.7137 16.9929 15.2545 16.3772L15.2566 18.5625C15.2566 18.747 15.1716 18.9137 15.0419 19.0182L12.646 20.9257C12.4355 21.0946 12.1421 21.0791 11.9508 20.9012L9.58248 19.0204C9.44004 18.9071 9.36563 18.7381 9.36563 18.5647L9.3635 16.3816C8.77038 17.1775 8.51737 18.1446 8.58752 19.0872C8.66193 20.0853 9.09988 21.0502 9.88434 21.7505C10.0289 21.8794 10.182 21.9972 10.3435 22.1017C10.5072 22.2084 10.6731 22.2996 10.8431 22.3752C11.0621 22.473 11.1897 22.702 11.1769 22.9376L11.1812 27.0593C11.1833 27.0771 11.1833 27.0927 11.1833 27.1104C11.1833 27.1282 11.1812 27.1438 11.1812 27.1616L11.1769 31.3166C11.1769 31.5545 11.0387 31.7568 10.8431 31.8435C10.6731 31.9191 10.5072 32.0102 10.3435 32.1169C10.1841 32.2214 10.0289 32.337 9.88434 32.4682C9.09987 33.1685 8.66192 34.1355 8.58752 35.1315C8.51736 36.0741 8.77035 37.0434 9.3635 37.837L9.36563 35.6517C9.36563 35.4583 9.45704 35.2849 9.59948 35.1826L11.9806 33.2908C12.1804 33.1307 12.4525 33.1396 12.6439 33.2908L15.0398 35.1982C15.1907 35.3183 15.2652 35.505 15.2545 35.6873L15.2524 37.8393C15.7137 37.2235 15.9752 36.4921 16.0305 35.7407C16.1049 34.7425 15.8179 33.7176 15.1482 32.8973C14.9569 32.6638 14.7464 32.4615 14.5211 32.2881C14.2872 32.1081 14.0385 31.9613 13.7812 31.8457C13.5623 31.7479 13.4347 31.5189 13.4475 31.2833L13.4517 27.1594C13.4496 27.1438 13.4496 27.126 13.4496 27.1083C13.4496 27.0927 13.4496 27.0749 13.4517 27.0571L13.4475 22.8977C13.4475 22.662 13.5857 22.4575 13.7812 22.3708L13.7833 22.3707ZM15.1716 22.8553C14.9718 23.0087 14.7613 23.1443 14.5466 23.2644C14.5487 25.8277 14.5487 28.3931 14.5466 30.9566C14.7634 31.0744 14.9739 31.2101 15.1716 31.3657C15.465 31.5902 15.7371 31.8548 15.9837 32.1549C16.8511 33.2175 17.2253 34.5447 17.1275 35.8341C17.0297 37.1235 16.4621 38.3729 15.448 39.28C15.3885 39.3333 15.3162 39.3934 15.2333 39.4601C15.1419 39.5334 15.0675 39.589 15.0101 39.629V39.6268C14.9229 39.689 14.8166 39.7246 14.7039 39.7246C14.4021 39.7246 14.1554 39.4689 14.1554 39.151L14.1576 35.9409L12.308 34.467L10.4585 35.9364L10.4563 39.1066C10.4648 39.2311 10.4351 39.36 10.3649 39.4712C10.1948 39.7335 9.85256 39.8047 9.60172 39.6268C9.42952 39.5045 9.25944 39.3645 9.08937 39.2066C8.92567 39.0532 8.77472 38.8932 8.63441 38.7198C7.76699 37.6571 7.39288 36.3299 7.49063 35.0405C7.58842 33.7511 8.15608 32.5017 9.17011 31.5947C9.36144 31.4235 9.55916 31.2723 9.7611 31.1412C9.86528 31.0745 9.97157 31.01 10.0779 30.9522C10.08 28.3911 10.08 25.8301 10.0779 23.2668C9.96945 23.209 9.86315 23.1445 9.7611 23.0778C9.55914 22.9467 9.3593 22.7955 9.17011 22.6243C8.1539 21.7172 7.58625 20.4679 7.49063 19.1785C7.39283 17.8891 7.767 16.5618 8.63441 15.4992C8.77472 15.328 8.92779 15.1657 9.08937 15.0146C9.25944 14.8567 9.42952 14.7167 9.60172 14.5944V14.5966C9.68889 14.5344 9.79519 14.4988 9.90786 14.4988C10.2097 14.4988 10.4563 14.7545 10.4563 15.0724L10.4585 18.2848L12.308 19.7542L14.1576 18.2803L14.1555 15.1101C14.147 14.9857 14.1767 14.8567 14.2469 14.7456C14.417 14.4832 14.7592 14.4121 15.0101 14.5899C15.059 14.6255 15.1249 14.6744 15.2014 14.7344C15.212 14.7411 15.2227 14.75 15.2333 14.7589C15.3035 14.8145 15.3736 14.8745 15.4459 14.939C16.4621 15.846 17.0298 17.0954 17.1254 18.3848C17.2232 19.6742 16.849 21.0015 15.9816 22.0641C15.7371 22.3664 15.465 22.6286 15.1716 22.8553ZM11.7658 23.8002C11.7658 23.4845 12.0103 23.2266 12.3143 23.2266C12.6162 23.2266 12.8628 23.4823 12.8628 23.8002L12.8692 30.6319C12.8692 30.9476 12.6247 31.2055 12.3207 31.2055C12.0188 31.2055 11.7722 30.9498 11.7722 30.6319L11.7658 23.8002ZM16.8341 27.3439C16.9 27.3039 16.9723 27.2616 17.0488 27.2149L17.5909 27.7796C17.8886 28.0886 18.2797 28.2443 18.6688 28.2443C19.06 28.2443 19.4512 28.0886 19.7488 27.7752L20.8798 26.5903L20.8819 26.5925C20.8947 26.5791 20.9053 26.5658 20.9159 26.5525C21.1902 26.2479 21.3263 25.8544 21.3263 25.4631C21.3263 25.0541 21.1774 24.645 20.8798 24.336L20.8819 24.3337C20.8713 24.3226 20.8607 24.3137 20.8522 24.3048L20.5716 24.0136C20.5035 23.9425 20.461 23.8536 20.4482 23.7624C20.4355 23.669 20.4504 23.5712 20.4971 23.4823C20.6545 23.1777 20.7969 22.8665 20.9223 22.5508C21.0478 22.2329 21.1562 21.9083 21.2497 21.5771C21.2774 21.4793 21.3305 21.397 21.4028 21.3437C21.473 21.2881 21.5622 21.257 21.6622 21.257H22.098V21.2592L22.0937 21.2525C22.5147 21.2525 22.8974 21.0725 23.1737 20.7834C23.4501 20.4944 23.6202 20.0965 23.6181 19.6563L23.6159 17.9801C23.6159 17.5399 23.4437 17.1397 23.1674 16.8507C22.891 16.5639 22.5105 16.3839 22.0895 16.3839H21.6537C21.5559 16.3839 21.4666 16.3527 21.3943 16.2949C21.322 16.2394 21.2689 16.1593 21.2412 16.0615C21.1477 15.728 21.0371 15.4012 20.9096 15.0811C20.7841 14.7632 20.6396 14.4497 20.4801 14.1452C20.4334 14.054 20.4164 13.9562 20.4291 13.865C20.4419 13.7739 20.4823 13.685 20.5524 13.6138L20.8607 13.2915C21.1562 12.9802 21.305 12.5712 21.3029 12.1643C21.3008 11.7531 21.1519 11.344 20.8543 11.035L19.7191 9.8545C19.4214 9.54549 19.0303 9.38987 18.6391 9.39209C18.2479 9.39432 17.8546 9.54993 17.5591 9.86117L17.2508 10.1835C17.1828 10.2569 17.0977 10.2991 17.0084 10.3125C16.9213 10.3258 16.8277 10.308 16.7406 10.2591C16.4578 10.099 16.1623 9.95232 15.8583 9.82116C15.5564 9.69222 15.2482 9.57884 14.9356 9.48324C14.84 9.45434 14.7613 9.39654 14.7103 9.32318C14.6571 9.24981 14.6274 9.15644 14.6274 9.05196V8.59622C14.6274 8.15604 14.4552 7.75585 14.1788 7.46686C13.9024 7.17785 13.5219 7 13.1009 7L11.498 7.00222C11.077 7.00222 10.6943 7.1823 10.418 7.4713C10.1416 7.76031 9.97153 8.15823 9.97153 8.59845V9.05419C9.97153 9.15645 9.94176 9.24982 9.88649 9.32541C9.83334 9.40099 9.75681 9.45657 9.66326 9.48547C9.34649 9.58329 9.03613 9.69889 8.73211 9.83006C8.43661 9.959 8.14112 10.1079 7.8456 10.2747C7.75843 10.3236 7.66489 10.3414 7.57772 10.328C7.49056 10.3147 7.40552 10.2702 7.33537 10.1991L7.0271 9.87674C6.72947 9.56773 6.33831 9.41211 5.94923 9.41211C5.55805 9.41211 5.16688 9.56773 4.86923 9.87896L3.73823 11.0639C3.44273 11.3751 3.29391 11.7819 3.29391 12.191C3.29391 12.6001 3.44273 13.0091 3.74249 13.3204L4.05075 13.6427C4.12091 13.7139 4.1613 13.8028 4.17405 13.8939C4.18681 13.9873 4.17193 14.0851 4.12516 14.1741C3.96571 14.4786 3.8254 14.7898 3.69997 15.1055C3.57454 15.4234 3.46611 15.748 3.37257 16.0792C3.34493 16.1771 3.29178 16.2593 3.22163 16.3127C3.15147 16.3683 3.06218 16.3994 2.96227 16.3994H2.52645C2.10551 16.3994 1.72282 16.5794 1.44645 16.8685C1.17008 17.1575 1 17.5554 1 17.9956L1.00213 19.6718C1.00213 20.112 1.17433 20.5122 1.4507 20.8012C1.72708 21.0902 2.10761 21.268 2.52858 21.2658H2.9644C3.06219 21.2658 3.15148 21.2969 3.22376 21.3548C3.29604 21.4103 3.34919 21.4904 3.37683 21.5882C3.47038 21.9217 3.58092 22.2485 3.70848 22.5686C3.83391 22.8865 3.97848 23.2 4.13792 23.5045C4.18469 23.5957 4.2017 23.6935 4.18895 23.7846C4.17619 23.8758 4.1358 23.9647 4.06564 24.0359L3.75951 24.3649C3.464 24.6761 3.31518 25.0851 3.31731 25.4942C3.31943 25.9055 3.46825 26.3146 3.76588 26.6236L4.90112 27.8041C5.19876 28.1131 5.58992 28.2687 5.98112 28.2665C6.3723 28.2642 6.76559 28.1086 7.06112 27.7974L7.59898 27.2327C7.65638 27.2683 7.72441 27.3083 7.79882 27.3505C8.06457 27.5039 8.39836 27.4039 8.54504 27.1282C8.69173 26.8503 8.59819 26.5013 8.33244 26.3479C8.26441 26.3079 8.17724 26.2545 8.07307 26.1901C7.98804 26.1367 7.90513 26.0811 7.82009 26.0233C7.60749 25.8766 7.31836 25.9033 7.13129 26.0989L6.28516 26.9882C6.20225 27.0749 6.09169 27.1193 5.98327 27.1193C5.87272 27.1193 5.76217 27.0771 5.67713 26.9882L4.54189 25.8077C4.45898 25.721 4.41646 25.6054 4.41646 25.492C4.41646 25.3764 4.45686 25.2608 4.54189 25.1719L4.85016 24.8495C5.09039 24.5961 5.23708 24.2782 5.28173 23.947C5.32637 23.6157 5.26897 23.2689 5.10527 22.9554C4.96496 22.6864 4.8374 22.4108 4.72686 22.1307C4.61418 21.8439 4.51639 21.5571 4.43347 21.2681C4.33568 20.9235 4.14222 20.6367 3.88499 20.4367C3.62987 20.2366 3.31097 20.1232 2.9687 20.1232H2.53288C2.41595 20.1232 2.30753 20.0721 2.22887 19.9898C2.15021 19.9076 2.10344 19.7964 2.10344 19.6742L2.10131 17.9979C2.10131 17.8757 2.15021 17.7623 2.22887 17.68C2.30753 17.5978 2.41383 17.5489 2.53076 17.5489H2.96658C3.30886 17.5489 3.6256 17.4333 3.88287 17.2332C4.14011 17.0309 4.33356 16.7463 4.43135 16.4017C4.51214 16.1127 4.60781 15.8282 4.72048 15.5458C4.83103 15.2657 4.95434 14.9923 5.09252 14.7277C5.25622 14.412 5.3115 14.0674 5.26685 13.7362C5.22008 13.4027 5.07339 13.0871 4.8289 12.8336L4.52064 12.5113C4.43773 12.4246 4.39521 12.309 4.39521 12.1956C4.39521 12.08 4.43772 11.9644 4.52064 11.8777L5.65163 10.6928C5.73454 10.6061 5.84509 10.5616 5.95352 10.5616C6.06406 10.5616 6.17462 10.6061 6.25753 10.6928L6.56579 11.0151C6.80815 11.2686 7.11004 11.422 7.42679 11.4687C7.74355 11.5154 8.07308 11.4576 8.37497 11.2864C8.62583 11.1441 8.88732 11.0129 9.15944 10.8951C9.42944 10.7773 9.70368 10.6772 9.97793 10.5905C10.3075 10.4883 10.5817 10.286 10.773 10.017C10.9643 9.7502 11.0728 9.41672 11.0728 9.0588V8.60306C11.0728 8.48079 11.1217 8.36741 11.2003 8.28516C11.279 8.2029 11.3853 8.15399 11.5022 8.15399L13.1052 8.15177C13.2221 8.15177 13.3305 8.2029 13.4092 8.28516C13.4879 8.36741 13.5346 8.47857 13.5346 8.60084V9.05658C13.5346 9.41451 13.6452 9.74573 13.8365 10.0148C14.03 10.2838 14.3021 10.4883 14.6295 10.5883H14.6316C14.9058 10.6728 15.1758 10.7706 15.4437 10.8862C15.7031 10.9974 15.9646 11.1285 16.2218 11.273C16.5216 11.4442 16.8533 11.4998 17.17 11.4509C17.4868 11.402 17.7886 11.2486 18.031 10.9929L18.3393 10.6706C18.4222 10.5839 18.5327 10.5394 18.6412 10.5394C18.7517 10.5394 18.8623 10.5816 18.9473 10.6706L20.0825 11.851C20.1654 11.9377 20.208 12.0533 20.208 12.1667C20.208 12.2823 20.1676 12.3979 20.0825 12.4869L19.7743 12.8092C19.5319 13.0626 19.3873 13.3805 19.3427 13.7118C19.2981 14.043 19.3555 14.3898 19.5191 14.7033C19.6595 14.9723 19.787 15.248 19.8976 15.5281C20.0102 15.8149 20.108 16.1016 20.191 16.3906C20.2887 16.7352 20.4822 17.022 20.7394 17.2221C20.9946 17.4221 21.3135 17.5355 21.6557 17.5355H22.0915C22.2085 17.5355 22.3169 17.5866 22.3956 17.6689C22.4742 17.7512 22.521 17.8623 22.521 17.9846L22.5231 19.6608C22.5231 19.7831 22.4742 19.8965 22.3956 19.9787C22.3169 20.061 22.2106 20.1099 22.0937 20.1099H21.6578C21.3156 20.1099 20.9988 20.2255 20.7416 20.4256C20.4843 20.6279 20.2909 20.9124 20.1931 21.257C20.1123 21.5438 20.0166 21.8306 19.9039 22.1129C19.7934 22.393 19.6701 22.6665 19.5319 22.931C19.3682 23.2467 19.3129 23.5913 19.3576 23.9225C19.4043 24.256 19.551 24.5717 19.7955 24.8251L20.074 25.1163C20.0825 25.1274 20.0932 25.1363 20.1017 25.1475L20.1038 25.1452L20.1059 25.1475C20.1888 25.2342 20.2313 25.3498 20.2313 25.4631C20.2313 25.5698 20.1952 25.6766 20.125 25.761L20.1059 25.781L20.108 25.7833L18.9749 26.9704C18.892 27.0571 18.7815 27.1016 18.673 27.1016C18.5625 27.1016 18.4519 27.0571 18.369 26.9704L17.5208 26.0856C17.3401 25.8988 17.0552 25.8611 16.8341 26.0122C16.7469 26.0722 16.6598 26.13 16.5747 26.1856C16.4961 26.2345 16.4089 26.2879 16.309 26.3457C16.0432 26.4991 15.9497 26.8481 16.0964 27.126C16.2346 27.3995 16.5705 27.4973 16.8341 27.3439ZM17.0446 23.9181C17.1041 23.8558 17.1764 23.7802 17.2593 23.6869C17.3167 23.6224 17.3762 23.5535 17.4357 23.4801C17.4549 23.4579 17.474 23.4379 17.491 23.4134C18.6879 21.9306 19.2024 20.0831 19.0685 18.2891C18.9345 16.4951 18.1479 14.7544 16.7448 13.4849C16.7235 13.4627 16.7023 13.4427 16.6789 13.4271C15.2609 12.1755 13.4942 11.6375 11.7786 11.7776C10.063 11.9177 8.39835 12.7402 7.18441 14.2075C7.16315 14.2297 7.14614 14.2519 7.12914 14.2764C6.01512 15.6569 5.49216 17.3554 5.53466 19.0317C5.57931 20.7412 6.2086 22.4286 7.39913 23.7336C7.60748 23.9625 7.95611 23.9714 8.17512 23.7536C8.39409 23.5357 8.4026 23.1711 8.19425 22.9421C7.19507 21.8483 6.66781 20.4345 6.62955 19.0049C6.59341 17.5866 7.03986 16.1505 7.99016 14.9878C9.00849 13.7406 10.4159 13.0447 11.8637 12.9247C13.3136 12.8046 14.8059 13.2648 15.9987 14.3275C17.1913 15.3923 17.8568 16.864 17.9715 18.378C18.0863 19.8942 17.6463 21.4548 16.6301 22.702C16.5769 22.7687 16.5174 22.8354 16.4558 22.9043C16.409 22.9554 16.3495 23.0199 16.2751 23.0955C16.0582 23.3178 16.054 23.6824 16.2666 23.9092C16.4791 24.1381 16.8277 24.1404 17.0446 23.9181ZM35.5467 23.5335C34.9472 23.5335 34.4029 23.7824 34.0033 24.187L31.5669 22.7131C31.6116 22.5308 31.6328 22.3419 31.6328 22.1462C31.6328 21.5038 31.3841 20.9235 30.9823 20.5034C30.5805 20.0832 30.0256 19.8231 29.4112 19.8231C28.7968 19.8231 28.242 20.0832 27.8401 20.5034C27.4383 20.9235 27.1896 21.5038 27.1896 22.1462C27.1896 22.582 27.3044 22.9888 27.5042 23.3379L24.2962 26.906C23.9901 26.7414 23.6435 26.6481 23.2757 26.6481C22.6613 26.6481 22.1065 26.9082 21.7047 27.3283C21.3029 27.7485 21.0541 28.3287 21.0541 28.9712C21.0541 29.6137 21.3029 30.1939 21.7047 30.6141C22.1065 31.0343 22.6613 31.2944 23.2757 31.2944C23.8901 31.2944 24.445 31.0343 24.8468 30.6141C25.2486 30.1939 25.4973 29.6137 25.4973 28.9712C25.4973 28.5355 25.3825 28.1286 25.1827 27.7796L28.3907 24.2115C28.6969 24.376 29.0434 24.4694 29.4112 24.4694C30.0107 24.4694 30.555 24.2204 30.9546 23.8158L33.391 25.2897C33.3463 25.472 33.3251 25.661 33.3251 25.8566C33.3251 26.4991 33.5738 27.0793 33.9756 27.4995C34.3774 27.9197 34.9323 28.1798 35.5467 28.1798C36.1611 28.1798 36.7159 27.9197 37.1178 27.4995C37.5196 27.0793 37.7683 26.4991 37.7683 25.8566C37.7683 25.3986 37.6407 24.9696 37.4218 24.6094C37.6769 24.3071 38.0192 23.9025 38.3465 23.5156C38.4932 23.3422 38.6293 23.1822 39.0311 22.7086C39.418 22.9843 39.8453 23.2022 40.3045 23.3489V25.2874H40.0685C39.7667 25.2874 39.5201 25.5431 39.5201 25.861L39.5158 30.7496C39.5158 31.3721 39.7582 31.9367 40.1472 32.3458C40.5384 32.7549 41.0784 33.0106 41.6737 33.0106C42.269 33.0106 42.8089 32.7571 43.2001 32.3503C43.5913 31.9412 43.8358 31.3766 43.8358 30.7541L43.84 25.8654C43.84 25.5497 43.5956 25.2919 43.2915 25.2919H43.0556V23.3533C43.8018 23.1155 44.4715 22.6886 45.0093 22.1284C45.8618 21.2369 46.3891 20.0075 46.3912 18.647C46.3912 17.2865 45.8661 16.057 45.0157 15.1656C44.1632 14.2741 42.9875 13.7227 41.6865 13.7205C40.3854 13.7205 39.2097 14.2696 38.3572 15.1589C37.5047 16.0503 36.9753 17.2797 36.9753 18.6403C36.9753 19.8719 37.4069 20.999 38.1212 21.8638L37.4346 22.6775C37.2347 22.9132 37.0221 23.1666 36.5119 23.7691C36.2185 23.6157 35.8911 23.5335 35.5467 23.5335ZM36.2525 25.1186C36.0718 24.9296 35.821 24.8118 35.5446 24.8118C35.2682 24.8118 35.0195 24.9296 34.8366 25.1186C34.6559 25.3075 34.5432 25.5699 34.5432 25.8589C34.5432 26.1479 34.6559 26.408 34.8366 26.5992C35.0173 26.7882 35.2682 26.906 35.5446 26.906C35.8209 26.906 36.0697 26.7882 36.2525 26.5992C36.4332 26.4102 36.5459 26.1479 36.5459 25.8589C36.5459 25.5677 36.4332 25.3076 36.2525 25.1186ZM30.1173 21.406C29.9366 21.217 29.6857 21.0992 29.4093 21.0992C29.1329 21.0992 28.8842 21.217 28.7014 21.406C28.5206 21.5949 28.408 21.8573 28.408 22.1463C28.408 22.4353 28.5206 22.6954 28.7014 22.8866C28.8821 23.0756 29.1329 23.1934 29.4093 23.1934C29.6857 23.1934 29.9344 23.0756 30.1173 22.8866C30.298 22.6976 30.4106 22.4353 30.4106 22.1463C30.4106 21.8573 30.298 21.595 30.1173 21.406ZM23.982 28.2309C23.8013 28.0419 23.5504 27.9241 23.274 27.9241C22.9977 27.9241 22.7489 28.0419 22.5661 28.2309C22.3854 28.4198 22.2727 28.6822 22.2727 28.9712C22.2727 29.2602 22.3854 29.5203 22.5661 29.7115C22.7468 29.9005 22.9977 30.0183 23.274 30.0183C23.5504 30.0183 23.7992 29.9005 23.982 29.7115C24.1627 29.5225 24.2754 29.2602 24.2754 28.9712C24.2754 28.6799 24.1627 28.4198 23.982 28.2309ZM41.062 22.3598L41.0726 22.362V22.3598C41.1662 22.3754 41.2661 22.3887 41.3745 22.3998C41.4744 22.4087 41.5616 22.4132 41.6403 22.4154H41.7168C41.7955 22.4132 41.8847 22.4087 41.9825 22.3998C42.091 22.3909 42.1909 22.3776 42.2844 22.362C42.2951 22.3598 42.3057 22.3576 42.3163 22.3576C43.0583 22.2198 43.7237 21.8441 44.236 21.3105C44.8887 20.628 45.2947 19.6854 45.2947 18.6428C45.2947 17.6002 44.8908 16.6553 44.2381 15.9706C43.5855 15.2881 42.6841 14.8635 41.687 14.8635C40.6899 14.8635 39.7864 15.2859 39.1316 15.9684C38.4768 16.6509 38.0729 17.5935 38.0729 18.6361C38.0729 19.6788 38.4768 20.6236 39.1295 21.3083C39.644 21.8485 40.3137 22.2243 41.0641 22.3599L41.062 22.3598ZM41.957 25.2877V23.5558C41.872 23.5603 41.7784 23.5625 41.6785 23.5625C41.5786 23.5625 41.4851 23.5603 41.3979 23.5558V25.2877H41.957ZM41.6828 16.6399C41.1555 16.6399 40.675 16.8645 40.3285 17.2268C39.982 17.5892 39.7673 18.0871 39.7673 18.6385C39.7673 19.1898 39.982 19.6923 40.3285 20.0547C40.675 20.417 41.1513 20.6415 41.6785 20.6415C42.2058 20.6415 42.6862 20.417 43.0328 20.0547C43.3793 19.6923 43.594 19.1943 43.594 18.643C43.594 18.0916 43.3793 17.5892 43.0328 17.2268C42.6863 16.8645 42.21 16.6422 41.6828 16.6399ZM41.6828 15.4928C40.8515 15.4928 40.0989 15.8441 39.5547 16.411C39.0083 16.9801 38.6724 17.7671 38.6724 18.6364C38.6724 19.5056 39.0083 20.2926 39.5504 20.8617C40.0947 21.4331 40.8472 21.7843 41.6785 21.7843C42.5098 21.7843 43.2624 21.4331 43.8066 20.8662C44.353 20.297 44.6889 19.5101 44.6889 18.6408C44.6889 17.7715 44.353 16.9845 43.8109 16.4154C43.2687 15.8463 42.5162 15.4928 41.6828 15.4928ZM42.7415 26.4353L40.6134 26.4331L40.6113 30.7481C40.6113 31.0527 40.7324 31.3306 40.9259 31.5351C41.1194 31.7374 41.383 31.8619 41.6742 31.8619C41.9655 31.8619 42.2312 31.7352 42.4268 31.5351C42.6203 31.3328 42.7393 31.0571 42.7393 30.7526L42.7415 26.4353Z" fill="#703391"/>
<path d="M23.6181 19.6563C23.6202 20.0965 23.4501 20.4944 23.1737 20.7834C22.8974 21.0725 22.5147 21.2525 22.0937 21.2525L22.098 21.2592V21.257H21.6622C21.5622 21.257 21.473 21.2881 21.4028 21.3437C21.3305 21.397 21.2774 21.4793 21.2497 21.5771C21.1562 21.9083 21.0478 22.2329 20.9223 22.5508C20.7969 22.8665 20.6545 23.1777 20.4971 23.4823C20.4504 23.5712 20.4355 23.669 20.4482 23.7624C20.461 23.8536 20.5035 23.9425 20.5716 24.0136L20.8522 24.3048C20.8607 24.3137 20.8713 24.3226 20.8819 24.3337L20.8798 24.336C21.1774 24.645 21.3263 25.0541 21.3263 25.4631C21.3263 25.8544 21.1902 26.2479 20.9159 26.5525C20.9053 26.5658 20.8947 26.5791 20.8819 26.5925L20.8798 26.5903L19.7488 27.7752C19.4512 28.0886 19.06 28.2443 18.6688 28.2443C18.2797 28.2443 17.8886 28.0886 17.5909 27.7796L17.0488 27.2149C16.9723 27.2616 16.9 27.3039 16.8341 27.3439C16.5705 27.4973 16.2346 27.3995 16.0964 27.126C15.9497 26.8481 16.0432 26.4991 16.309 26.3457C16.4089 26.2879 16.4961 26.2345 16.5747 26.1856C16.6598 26.13 16.7469 26.0722 16.8341 26.0122C17.0552 25.8611 17.3401 25.8988 17.5208 26.0856L18.369 26.9704C18.4519 27.0571 18.5625 27.1016 18.673 27.1016C18.7815 27.1016 18.892 27.0571 18.9749 26.9704L20.108 25.7833L20.1059 25.781L20.125 25.761C20.1952 25.6766 20.2313 25.5698 20.2313 25.4631C20.2313 25.3498 20.1888 25.2342 20.1059 25.1475L20.1038 25.1452L20.1017 25.1475C20.0932 25.1363 20.0825 25.1274 20.074 25.1163L19.7955 24.8251C19.551 24.5717 19.4043 24.256 19.3576 23.9225C19.3129 23.5913 19.3682 23.2467 19.5319 22.931C19.6701 22.6665 19.7934 22.393 19.9039 22.1129C20.0166 21.8306 20.1123 21.5438 20.1931 21.257C20.2909 20.9124 20.4843 20.6279 20.7416 20.4256C20.9988 20.2255 21.3156 20.1099 21.6578 20.1099H22.0937M23.6181 19.6563H23.6202M23.6181 19.6563L23.6159 17.9801C23.6159 17.5399 23.4437 17.1397 23.1674 16.8507C22.891 16.5639 22.5104 16.3839 22.0895 16.3839H21.6537C21.5559 16.3839 21.4666 16.3527 21.3943 16.2949C21.322 16.2394 21.2689 16.1593 21.2412 16.0615C21.1477 15.728 21.0371 15.4012 20.9096 15.0811C20.7841 14.7632 20.6396 14.4497 20.4801 14.1452C20.4334 14.054 20.4164 13.9562 20.4291 13.865C20.4419 13.7739 20.4823 13.685 20.5524 13.6138L20.8607 13.2915C21.1562 12.9802 21.305 12.5712 21.3029 12.1643C21.3008 11.7531 21.1519 11.344 20.8543 11.035L19.7191 9.8545C19.4214 9.54549 19.0303 9.38987 18.6391 9.39209C18.2479 9.39432 17.8546 9.54993 17.5591 9.86117L17.2508 10.1835C17.1828 10.2569 17.0977 10.2991 17.0084 10.3125C16.9213 10.3258 16.8277 10.308 16.7406 10.2591C16.4578 10.099 16.1623 9.95232 15.8583 9.82116C15.5564 9.69222 15.2482 9.57884 14.9356 9.48324C14.84 9.45434 14.7613 9.39654 14.7103 9.32318C14.6571 9.24981 14.6274 9.15644 14.6274 9.05196V8.59622C14.6274 8.15604 14.4552 7.75585 14.1788 7.46686C13.9024 7.17785 13.5219 7 13.1009 7L11.498 7.00222M11.498 7.00222V7M11.498 7.00222C11.077 7.00222 10.6943 7.1823 10.418 7.4713C10.1416 7.76031 9.97153 8.15823 9.97153 8.59845M9.97153 8.59845H9.9694M9.97153 8.59845V9.05419C9.97153 9.15645 9.94176 9.24982 9.88649 9.32541C9.83334 9.40099 9.75681 9.45657 9.66326 9.48547C9.34649 9.58329 9.03613 9.69889 8.73211 9.83006C8.43661 9.959 8.14112 10.1079 7.8456 10.2747C7.75843 10.3236 7.66489 10.3414 7.57772 10.328C7.49056 10.3147 7.40552 10.2702 7.33537 10.1991L7.0271 9.87674C6.72947 9.56773 6.33831 9.41211 5.94923 9.41211C5.55805 9.41211 5.16688 9.56773 4.86923 9.87896L3.73823 11.0639C3.44273 11.3751 3.29391 11.7819 3.29391 12.191C3.29391 12.6001 3.44273 13.0091 3.74249 13.3204L4.05075 13.6427C4.12091 13.7139 4.1613 13.8028 4.17405 13.8939C4.18681 13.9873 4.17193 14.0851 4.12516 14.1741C3.96571 14.4786 3.8254 14.7898 3.69997 15.1055C3.57454 15.4234 3.46611 15.748 3.37257 16.0792C3.34493 16.1771 3.29178 16.2593 3.22163 16.3127C3.15147 16.3683 3.06218 16.3994 2.96227 16.3994H2.52645C2.10551 16.3994 1.72282 16.5794 1.44645 16.8685C1.17008 17.1575 1 17.5554 1 17.9956L1.00213 19.6718C1.00213 20.112 1.17433 20.5122 1.4507 20.8012C1.72708 21.0902 2.10761 21.268 2.52858 21.2658H2.9644C3.06219 21.2658 3.15148 21.2969 3.22376 21.3548C3.29604 21.4103 3.34919 21.4904 3.37683 21.5882C3.47038 21.9217 3.58092 22.2485 3.70848 22.5686C3.83391 22.8865 3.97848 23.2 4.13792 23.5045C4.18469 23.5957 4.2017 23.6935 4.18895 23.7846C4.17619 23.8758 4.1358 23.9647 4.06564 24.0359L3.75951 24.3649C3.464 24.6761 3.31518 25.0851 3.31731 25.4942C3.31943 25.9055 3.46825 26.3146 3.76588 26.6236L4.90112 27.8041C5.19876 28.1131 5.58992 28.2687 5.98112 28.2665C6.3723 28.2643 6.76559 28.1086 7.06112 27.7974L7.59898 27.2327C7.65638 27.2683 7.72441 27.3083 7.79882 27.3505C8.06457 27.5039 8.39836 27.4039 8.54504 27.1282C8.69173 26.8503 8.59819 26.5013 8.33244 26.3479C8.26441 26.3079 8.17724 26.2545 8.07307 26.1901C7.98804 26.1367 7.90512 26.0811 7.82009 26.0233C7.60749 25.8766 7.31836 25.9033 7.13129 26.0989L6.28516 26.9882C6.20225 27.0749 6.09169 27.1193 5.98327 27.1193C5.87272 27.1193 5.76217 27.0771 5.67713 26.9882L4.54189 25.8077C4.45898 25.721 4.41646 25.6054 4.41646 25.492C4.41646 25.3764 4.45686 25.2608 4.54189 25.1719L4.85016 24.8495C5.09039 24.5961 5.23708 24.2782 5.28173 23.947C5.32637 23.6157 5.26897 23.2689 5.10527 22.9554C4.96496 22.6864 4.8374 22.4108 4.72686 22.1307C4.61418 21.8439 4.51638 21.5571 4.43347 21.2681C4.33568 20.9235 4.14222 20.6367 3.88499 20.4367C3.62987 20.2366 3.31097 20.1232 2.9687 20.1232H2.53288C2.41595 20.1232 2.30753 20.0721 2.22887 19.9898C2.15021 19.9076 2.10344 19.7964 2.10344 19.6742L2.10131 17.9979C2.10131 17.8757 2.15021 17.7623 2.22887 17.68C2.30753 17.5978 2.41383 17.5489 2.53076 17.5489H2.96658C3.30886 17.5489 3.6256 17.4333 3.88287 17.2332C4.14011 17.0309 4.33356 16.7463 4.43135 16.4017C4.51214 16.1127 4.60781 15.8282 4.72048 15.5458C4.83103 15.2657 4.95434 14.9923 5.09252 14.7277C5.25622 14.412 5.3115 14.0674 5.26685 13.7362C5.22008 13.4027 5.07339 13.0871 4.8289 12.8336L4.52064 12.5113C4.43773 12.4246 4.39521 12.309 4.39521 12.1956C4.39521 12.08 4.43772 11.9644 4.52064 11.8777L5.65163 10.6928C5.73454 10.6061 5.84509 10.5616 5.95352 10.5616C6.06406 10.5616 6.17462 10.6061 6.25753 10.6928L6.56579 11.0151C6.80815 11.2686 7.11004 11.422 7.42679 11.4687C7.74355 11.5154 8.07308 11.4576 8.37497 11.2864C8.62583 11.1441 8.88732 11.0129 9.15944 10.8951C9.42944 10.7773 9.70368 10.6772 9.97793 10.5905C10.3075 10.4883 10.5817 10.286 10.773 10.017C10.9644 9.7502 11.0728 9.41672 11.0728 9.0588V8.60306M11.0728 8.60306H11.0749M11.0728 8.60306C11.0728 8.48079 11.1217 8.36741 11.2003 8.28516C11.279 8.2029 11.3853 8.15399 11.5022 8.15399M11.5022 8.15399V8.15622M11.5022 8.15399L13.1052 8.15177C13.2221 8.15177 13.3305 8.2029 13.4092 8.28516C13.4879 8.36741 13.5346 8.47857 13.5346 8.60084V9.05658C13.5346 9.41451 13.6452 9.74573 13.8365 10.0148C14.03 10.2838 14.3021 10.4883 14.6295 10.5883H14.6316C14.9058 10.6728 15.1758 10.7706 15.4437 10.8862C15.7031 10.9974 15.9646 11.1285 16.2218 11.273C16.5216 11.4442 16.8533 11.4998 17.17 11.4509C17.4868 11.402 17.7886 11.2486 18.031 10.9929L18.3393 10.6706C18.4222 10.5839 18.5327 10.5394 18.6412 10.5394C18.7517 10.5394 18.8623 10.5816 18.9473 10.6706L20.0825 11.851C20.1654 11.9377 20.208 12.0533 20.208 12.1667C20.208 12.2823 20.1676 12.3979 20.0825 12.4869L19.7743 12.8092C19.5319 13.0626 19.3873 13.3805 19.3427 13.7118C19.2981 14.043 19.3555 14.3898 19.5192 14.7033C19.6595 14.9723 19.787 15.248 19.8976 15.5281C20.0102 15.8149 20.108 16.1016 20.1909 16.3906C20.2887 16.7352 20.4822 17.022 20.7394 17.2221C20.9946 17.4221 21.3135 17.5355 21.6557 17.5355H22.0915C22.2085 17.5355 22.3169 17.5866 22.3956 17.6689C22.4742 17.7512 22.521 17.8623 22.521 17.9846L22.5231 19.6608M22.5231 19.6608H22.521M22.5231 19.6608C22.5231 19.7831 22.4742 19.8965 22.3956 19.9787C22.3169 20.061 22.2106 20.1099 22.0937 20.1099M22.0937 20.1099V20.1077M39.5158 30.7496L39.52 25.861C39.52 25.5431 39.7666 25.2874 40.0685 25.2874H40.3045V23.3489C39.8453 23.2022 39.418 22.9843 39.0311 22.7086C38.6293 23.1822 38.4932 23.3422 38.3465 23.5156C38.0192 23.9025 37.6769 24.3071 37.4218 24.6094C37.6407 24.9696 37.7683 25.3986 37.7683 25.8566C37.7683 26.4991 37.5196 27.0793 37.1178 27.4995C36.7159 27.9197 36.1611 28.1798 35.5467 28.1798C34.9323 28.1798 34.3774 27.9197 33.9756 27.4995C33.5738 27.0793 33.3251 26.4991 33.3251 25.8566C33.3251 25.661 33.3463 25.472 33.391 25.2897L30.9546 23.8158C30.555 24.2204 30.0107 24.4694 29.4112 24.4694C29.0434 24.4694 28.6969 24.376 28.3907 24.2115L25.1827 27.7796C25.3825 28.1286 25.4973 28.5355 25.4973 28.9712C25.4973 29.6137 25.2486 30.1939 24.8468 30.6141C24.445 31.0343 23.8901 31.2944 23.2757 31.2944C22.6613 31.2944 22.1065 31.0343 21.7047 30.6141C21.3029 30.1939 21.0541 29.6137 21.0541 28.9712C21.0541 28.3287 21.3029 27.7485 21.7047 27.3283C22.1065 26.9082 22.6613 26.6481 23.2757 26.6481C23.6435 26.6481 23.9901 26.7414 24.2962 26.906L27.5042 23.3379C27.3044 22.9888 27.1896 22.582 27.1896 22.1462C27.1896 21.5038 27.4383 20.9235 27.8401 20.5034C28.242 20.0832 28.7968 19.8231 29.4112 19.8231C30.0256 19.8231 30.5805 20.0832 30.9823 20.5034C31.3841 20.9235 31.6328 21.5038 31.6328 22.1462C31.6328 22.3419 31.6116 22.5308 31.5669 22.7131L34.0033 24.187C34.4029 23.7825 34.9472 23.5335 35.5467 23.5335C35.8911 23.5335 36.2185 23.6157 36.5119 23.7691C37.0221 23.1666 37.2347 22.9132 37.4346 22.6775L38.1212 21.8638C37.4069 20.999 36.9753 19.8719 36.9753 18.6403C36.9753 17.2797 37.5047 16.0503 38.3572 15.1589C39.2097 14.2696 40.3854 13.7205 41.6865 13.7205C42.9875 13.7227 44.1632 14.2741 45.0157 15.1656C45.8661 16.057 46.3912 17.2865 46.3912 18.647C46.3891 20.0075 45.8618 21.2369 45.0093 22.1284C44.4715 22.6886 43.8018 23.1155 43.0556 23.3533V25.2919H43.2916C43.5956 25.2919 43.84 25.5497 43.84 25.8654L43.8358 30.7541C43.8358 31.3766 43.5913 31.9412 43.2001 32.3503C42.8089 32.7571 42.269 33.0106 41.6737 33.0106M39.5158 30.7496H39.5137M39.5158 30.7496C39.5158 31.3721 39.7582 31.9367 40.1472 32.3458C40.5384 32.7549 41.0784 33.0106 41.6737 33.0106M41.6737 33.0106V33.0128M41.6828 16.6422V16.6399M41.6828 16.6399C41.1555 16.6399 40.675 16.8645 40.3285 17.2268C39.982 17.5892 39.7673 18.0871 39.7673 18.6385M41.6828 16.6399C42.21 16.6422 42.6863 16.8645 43.0328 17.2268C43.3793 17.5892 43.594 18.0916 43.594 18.6429C43.594 19.1943 43.3793 19.6923 43.0328 20.0547C42.6862 20.417 42.2058 20.6415 41.6785 20.6415C41.1513 20.6415 40.675 20.417 40.3285 20.0547C39.982 19.6923 39.7673 19.1898 39.7673 18.6385M39.7673 18.6385H39.7694M41.6828 15.4928C40.8515 15.4928 40.0989 15.8441 39.5547 16.411C39.0083 16.9801 38.6724 17.7671 38.6724 18.6364M41.6828 15.4928C42.5162 15.4928 43.2687 15.8463 43.8109 16.4154C44.353 16.9845 44.6889 17.7715 44.6889 18.6408C44.6889 19.5101 44.353 20.297 43.8066 20.8662C43.2624 21.4331 42.5098 21.7843 41.6785 21.7843C40.8472 21.7843 40.0947 21.4331 39.5504 20.8617C39.0083 20.2926 38.6724 19.5056 38.6724 18.6364M41.6828 15.4928V15.4906M38.6724 18.6364H38.6703M40.6113 30.7481L40.6134 26.4331L42.7415 26.4353L42.7393 30.7526C42.7393 31.0571 42.6203 31.3328 42.4268 31.5351C42.2312 31.7352 41.9655 31.8619 41.6742 31.8619M40.6113 30.7481H40.6134M40.6113 30.7481C40.6113 31.0527 40.7324 31.3306 40.9259 31.5351C41.1194 31.7374 41.383 31.8619 41.6742 31.8619M41.6742 31.8619V31.8597M23.0442 10.9131C22.7402 10.9131 22.4936 10.6552 22.4936 10.3373C22.4936 10.0194 22.7402 9.7615 23.0442 9.7615H48.4152C48.7192 9.7615 48.9658 10.0194 48.9658 10.3373V36.3876C48.9658 36.7055 48.7192 36.9634 48.4152 36.9634H19.0897C18.7857 36.9634 18.5391 36.7055 18.5391 36.3876C18.5391 36.0697 18.7857 35.8118 19.0897 35.8118H47.8644V10.9128L23.0442 10.9131ZM22.6806 43.7217H38.049V43.0547C38.049 42.8725 37.9767 42.7057 37.8619 42.5834C37.7471 42.4634 37.5856 42.3878 37.4112 42.3878H23.318C23.1437 42.3878 22.9843 42.4634 22.8673 42.5834C22.7525 42.7035 22.6802 42.8725 22.6802 43.0547L22.6806 43.7217ZM38.6591 45C38.9971 45 39.2693 44.7132 39.2693 44.362V43.057C39.2693 42.5212 39.0609 42.0343 38.7229 41.6831C38.387 41.3318 37.9214 41.1117 37.409 41.1117H32.8467V39.0909H48.4148C49.127 39.0909 49.7733 38.7863 50.2411 38.2972C50.7088 37.8082 51 37.1323 51 36.3876V10.3372C51 9.59248 50.7087 8.91665 50.2411 8.42755C49.7734 7.93844 49.127 7.63391 48.4148 7.63391H20.9985C20.6945 7.63391 20.4479 7.89179 20.4479 8.20969C20.4479 8.52759 20.6945 8.78546 20.9985 8.78546L48.4148 8.78324C48.823 8.78324 49.1929 8.95887 49.4629 9.23898C49.7329 9.52132 49.8988 9.90815 49.8988 10.335V36.3853C49.8988 36.8122 49.7308 37.199 49.4629 37.4813C49.1929 37.7637 48.823 37.9371 48.4148 37.9371L32.4848 37.9393C32.4083 37.9037 32.3232 37.8837 32.234 37.8837H28.4902C28.4009 37.8837 28.3158 37.9037 28.2393 37.9393H18.4875C18.1835 37.9393 17.9369 38.1972 17.9369 38.5151C17.9369 38.833 18.1835 39.0909 18.4875 39.0909L27.8801 39.0886V41.1095H23.3178C22.8054 41.1095 22.3399 41.3273 22.0039 41.6808C21.668 42.0321 21.4576 42.5189 21.4576 43.0547V44.3597C21.4576 44.7132 21.7318 44.9978 22.0677 44.9978L38.6591 45ZM31.6242 41.1096H29.1028L29.105 39.1621H31.6263L31.6242 41.1096ZM13.7833 22.3707C14.0427 22.2551 14.2914 22.1084 14.5232 21.9283C14.7485 21.7549 14.959 21.5504 15.1503 21.3192C15.82 20.4988 16.107 19.474 16.0326 18.4758C15.9773 17.7244 15.7137 16.9929 15.2545 16.3772L15.2566 18.5625C15.2566 18.747 15.1716 18.9137 15.0419 19.0182L12.646 20.9257C12.4355 21.0946 12.1421 21.0791 11.9508 20.9012L9.58248 19.0204C9.44004 18.9071 9.36563 18.7381 9.36563 18.5647L9.3635 16.3816C8.77038 17.1775 8.51737 18.1446 8.58752 19.0872C8.66193 20.0853 9.09988 21.0502 9.88434 21.7505C10.0289 21.8794 10.182 21.9972 10.3435 22.1017C10.5072 22.2084 10.6731 22.2996 10.8431 22.3752C11.0621 22.473 11.1897 22.702 11.1769 22.9376L11.1812 27.0593C11.1833 27.0771 11.1833 27.0927 11.1833 27.1104C11.1833 27.1282 11.1812 27.1438 11.1812 27.1616L11.1769 31.3166C11.1769 31.5545 11.0387 31.7568 10.8431 31.8435C10.6731 31.9191 10.5072 32.0102 10.3435 32.1169C10.1841 32.2214 10.0289 32.337 9.88434 32.4682C9.09987 33.1685 8.66192 34.1355 8.58752 35.1315C8.51736 36.0741 8.77035 37.0434 9.3635 37.837L9.36563 35.6517C9.36563 35.4583 9.45704 35.2849 9.59948 35.1826L11.9806 33.2908C12.1804 33.1307 12.4525 33.1396 12.6439 33.2908L15.0398 35.1982C15.1907 35.3183 15.2652 35.505 15.2545 35.6873L15.2524 37.8393C15.7137 37.2235 15.9752 36.4921 16.0305 35.7407C16.1049 34.7425 15.8179 33.7176 15.1482 32.8973C14.9569 32.6638 14.7464 32.4615 14.5211 32.2881C14.2872 32.1081 14.0385 31.9613 13.7812 31.8457C13.5623 31.7479 13.4347 31.5189 13.4475 31.2833L13.4517 27.1594C13.4496 27.1438 13.4496 27.126 13.4496 27.1083C13.4496 27.0927 13.4496 27.0749 13.4517 27.0571L13.4475 22.8977C13.4475 22.662 13.5857 22.4575 13.7812 22.3708L13.7833 22.3707ZM15.1716 22.8553C14.9718 23.0087 14.7613 23.1443 14.5466 23.2644C14.5487 25.8277 14.5487 28.3931 14.5466 30.9566C14.7634 31.0745 14.9739 31.2101 15.1716 31.3657C15.465 31.5902 15.7371 31.8548 15.9837 32.1549C16.8511 33.2175 17.2253 34.5447 17.1275 35.8341C17.0297 37.1235 16.4621 38.3729 15.448 39.28C15.3885 39.3333 15.3162 39.3934 15.2333 39.4601C15.1419 39.5334 15.0675 39.589 15.0101 39.629V39.6268C14.9229 39.689 14.8166 39.7246 14.7039 39.7246C14.4021 39.7246 14.1554 39.4689 14.1554 39.151L14.1576 35.9409L12.308 34.467L10.4585 35.9364L10.4563 39.1066C10.4648 39.2311 10.4351 39.36 10.3649 39.4712C10.1948 39.7335 9.85256 39.8047 9.60172 39.6268C9.42952 39.5045 9.25944 39.3645 9.08937 39.2066C8.92567 39.0532 8.77472 38.8932 8.63441 38.7198C7.76699 37.6571 7.39288 36.3299 7.49063 35.0405C7.58842 33.7511 8.15608 32.5017 9.17011 31.5947C9.36144 31.4235 9.55916 31.2723 9.7611 31.1412C9.86528 31.0745 9.97157 31.01 10.0779 30.9522C10.08 28.3911 10.08 25.8301 10.0779 23.2668C9.96945 23.209 9.86315 23.1445 9.7611 23.0778C9.55914 22.9467 9.3593 22.7955 9.17011 22.6243C8.1539 21.7172 7.58625 20.4679 7.49063 19.1785C7.39283 17.8891 7.767 16.5618 8.63441 15.4992C8.77472 15.328 8.92779 15.1657 9.08937 15.0146C9.25944 14.8567 9.42952 14.7167 9.60172 14.5944V14.5966C9.68889 14.5344 9.79518 14.4988 9.90786 14.4988C10.2097 14.4988 10.4563 14.7545 10.4563 15.0724L10.4585 18.2848L12.308 19.7542L14.1576 18.2803L14.1555 15.1101C14.147 14.9857 14.1767 14.8567 14.2469 14.7456C14.417 14.4832 14.7592 14.4121 15.0101 14.5899C15.059 14.6255 15.1249 14.6744 15.2014 14.7344C15.212 14.7411 15.2227 14.75 15.2333 14.7589C15.3035 14.8145 15.3736 14.8745 15.4459 14.939C16.4621 15.846 17.0298 17.0954 17.1254 18.3848C17.2232 19.6742 16.849 21.0015 15.9816 22.0641C15.7371 22.3664 15.465 22.6286 15.1716 22.8553ZM11.7658 23.8002C11.7658 23.4845 12.0103 23.2266 12.3143 23.2266C12.6162 23.2266 12.8628 23.4823 12.8628 23.8002L12.8692 30.6319C12.8692 30.9476 12.6247 31.2055 12.3207 31.2055C12.0188 31.2055 11.7722 30.9498 11.7722 30.6319L11.7658 23.8002ZM17.0446 23.9181C17.1041 23.8558 17.1764 23.7802 17.2593 23.6869C17.3167 23.6224 17.3762 23.5535 17.4357 23.4801C17.4549 23.4579 17.474 23.4379 17.491 23.4134C18.6879 21.9306 19.2024 20.0831 19.0685 18.2891C18.9345 16.4951 18.1479 14.7544 16.7448 13.4849C16.7236 13.4627 16.7023 13.4427 16.6789 13.4271C15.2609 12.1755 13.4942 11.6375 11.7786 11.7776C10.063 11.9177 8.39835 12.7402 7.18441 14.2075C7.16315 14.2297 7.14614 14.2519 7.12914 14.2764C6.01512 15.6569 5.49216 17.3554 5.53466 19.0317C5.57931 20.7412 6.2086 22.4286 7.39913 23.7336C7.60748 23.9625 7.95611 23.9714 8.17512 23.7536C8.39409 23.5357 8.4026 23.1711 8.19425 22.9421C7.19507 21.8483 6.66781 20.4345 6.62955 19.0049C6.59341 17.5866 7.03986 16.1505 7.99016 14.9878C9.00849 13.7406 10.4159 13.0447 11.8637 12.9247C13.3136 12.8046 14.8059 13.2648 15.9987 14.3275C17.1913 15.3923 17.8568 16.864 17.9715 18.378C18.0863 19.8942 17.6463 21.4548 16.6301 22.702C16.5769 22.7687 16.5174 22.8354 16.4558 22.9043C16.409 22.9554 16.3495 23.0199 16.2751 23.0955C16.0582 23.3178 16.054 23.6824 16.2666 23.9092C16.4791 24.1381 16.8277 24.1404 17.0446 23.9181ZM36.2525 25.1186C36.0718 24.9296 35.821 24.8118 35.5446 24.8118C35.2682 24.8118 35.0195 24.9296 34.8366 25.1186C34.6559 25.3075 34.5432 25.5699 34.5432 25.8589C34.5432 26.1479 34.6559 26.408 34.8366 26.5992C35.0173 26.7882 35.2682 26.906 35.5446 26.906C35.8209 26.906 36.0697 26.7882 36.2525 26.5992C36.4332 26.4102 36.5459 26.1479 36.5459 25.8589C36.5459 25.5677 36.4332 25.3075 36.2525 25.1186ZM30.1173 21.406C29.9366 21.217 29.6857 21.0992 29.4093 21.0992C29.1329 21.0992 28.8842 21.217 28.7014 21.406C28.5206 21.5949 28.408 21.8573 28.408 22.1463C28.408 22.4353 28.5206 22.6954 28.7014 22.8866C28.8821 23.0756 29.1329 23.1934 29.4093 23.1934C29.6857 23.1934 29.9344 23.0756 30.1173 22.8866C30.298 22.6976 30.4106 22.4353 30.4106 22.1463C30.4106 21.8573 30.298 21.595 30.1173 21.406ZM23.982 28.2309C23.8013 28.0419 23.5504 27.9241 23.274 27.9241C22.9977 27.9241 22.7489 28.0419 22.5661 28.2309C22.3854 28.4198 22.2727 28.6822 22.2727 28.9712C22.2727 29.2602 22.3854 29.5203 22.5661 29.7115C22.7468 29.9005 22.9977 30.0183 23.274 30.0183C23.5504 30.0183 23.7992 29.9005 23.982 29.7115C24.1627 29.5225 24.2754 29.2602 24.2754 28.9712C24.2754 28.6799 24.1627 28.4198 23.982 28.2309ZM41.062 22.3598L41.0726 22.362V22.3598C41.1662 22.3754 41.2661 22.3887 41.3745 22.3998C41.4744 22.4087 41.5616 22.4132 41.6403 22.4154H41.7168C41.7955 22.4132 41.8847 22.4087 41.9825 22.3998C42.091 22.3909 42.1909 22.3776 42.2844 22.362C42.2951 22.3598 42.3057 22.3576 42.3163 22.3576C43.0583 22.2198 43.7237 21.8441 44.236 21.3105C44.8887 20.628 45.2947 19.6854 45.2947 18.6428C45.2947 17.6002 44.8908 16.6553 44.2381 15.9706C43.5855 15.2881 42.6841 14.8635 41.687 14.8635C40.6899 14.8635 39.7864 15.2859 39.1316 15.9684C38.4768 16.6509 38.0729 17.5935 38.0729 18.6361C38.0729 19.6787 38.4768 20.6236 39.1295 21.3083C39.644 21.8485 40.3137 22.2243 41.0641 22.3599L41.062 22.3598ZM41.957 25.2877V23.5558C41.872 23.5603 41.7784 23.5625 41.6785 23.5625C41.5786 23.5625 41.4851 23.5603 41.3979 23.5558V25.2877H41.957Z" stroke="#703391" stroke-width="0.3"/>
</svg>
