<svg width="52" height="52" viewBox="0 0 52 52" fill="none" xmlns="http://www.w3.org/2000/svg">
<path d="M7.69541 13.8319C7.69541 13.6496 7.76597 13.4774 7.895 13.3478C8.02202 13.2202 8.19541 13.1473 8.37485 13.1473H12.0503C12.2337 13.1432 12.4132 13.2121 12.5442 13.3417C12.6773 13.4713 12.7499 13.6476 12.7499 13.8319C12.7499 14.0162 12.6773 14.1945 12.5442 14.3221C12.4132 14.4517 12.2337 14.5206 12.0503 14.5166H8.37485C7.99985 14.5166 7.69541 14.2107 7.69541 13.8319ZM8.37685 21.0574H14.014C14.1975 21.0635 14.3749 20.9926 14.508 20.865C14.639 20.7354 14.7136 20.5592 14.7136 20.3748C14.7136 20.1885 14.639 20.0122 14.508 19.8826C14.3749 19.755 14.1975 19.6841 14.014 19.6902H8.37479C8.19132 19.6841 8.0139 19.755 7.88084 19.8826C7.74978 20.0122 7.67519 20.1885 7.67519 20.3748C7.67519 20.5592 7.74978 20.7354 7.88084 20.865C8.0139 20.9926 8.19132 21.0635 8.37479 21.0574H8.37685ZM8.37685 17.7861L17.2822 17.7881C17.4656 17.7922 17.6451 17.7233 17.7761 17.5937C17.9092 17.464 17.9838 17.2878 17.9838 17.1035C17.9838 16.9191 17.9092 16.7409 17.7761 16.6133C17.6451 16.4836 17.4656 16.4148 17.2822 16.4188H8.37479C8.19132 16.4148 8.0139 16.4836 7.88084 16.6133C7.74978 16.7409 7.67519 16.9191 7.67519 17.1035C7.67519 17.2878 7.74978 17.464 7.88084 17.5937C8.0139 17.7233 8.19132 17.7922 8.37479 17.7881L8.37685 17.7861ZM14.1229 14.5147H17.2842L17.2822 14.5168C17.4657 14.5208 17.6451 14.4519 17.7762 14.3223C17.9092 14.1947 17.9838 14.0164 17.9838 13.8321C17.9838 13.6478 17.9092 13.4716 17.7762 13.3419C17.6451 13.2123 17.4657 13.1434 17.2822 13.1475H14.1209C13.9375 13.1434 13.76 13.2123 13.627 13.3419C13.4959 13.4716 13.4213 13.6478 13.4213 13.8321C13.4213 14.0164 13.4959 14.1947 13.627 14.3223C13.76 14.4519 13.9375 14.5208 14.1209 14.5168L14.1229 14.5147ZM50.5706 38.4818L48.2843 40.7789V40.7768C47.7096 41.3542 46.7782 41.3542 46.2036 40.7768L43.3629 37.9228V44.832C43.3609 46.0109 42.4113 46.965 41.2379 46.967H39.3487V48.865C39.3467 50.0439 38.3971 50.998 37.2237 51H3.12501C1.95164 50.998 1.00201 50.0419 1 48.865V7.168C1.00202 5.98912 1.95164 5.03503 3.12501 5.03301H5.01416V3.13499C5.01617 1.95813 5.9658 1.00202 7.13917 1H41.2379C42.4113 1.00203 43.3609 1.95813 43.3629 3.13499V19.9963C44.4657 21.5115 45.0968 23.3204 45.1774 25.1959C45.258 27.0716 44.7822 28.9291 43.8125 30.5334L45.4718 32.2004C46.0161 32.1558 46.5504 32.3523 46.9375 32.7392L50.5706 36.3894C51.1432 36.9667 51.1432 37.9025 50.5706 38.4818ZM6.37685 9.23429L13.2073 2.36966H7.13865C6.71728 2.36966 6.37654 2.71199 6.37654 3.13536L6.37685 9.23429ZM7.34056 10.2025L13.4072 10.2005C13.8285 10.2005 14.1713 9.85818 14.1713 9.43481V3.33557L7.34056 10.2025ZM37.99 46.967H7.13927C5.9659 46.965 5.01627 46.0109 5.01426 44.8321V6.40246H3.12512C2.70374 6.40246 2.363 6.74479 2.36099 7.16816V48.8652C2.363 49.2885 2.70373 49.6309 3.12512 49.6309H37.2238C37.4254 49.6309 37.621 49.5519 37.7642 49.408C37.9073 49.2642 37.99 49.0677 37.99 48.8652V46.967ZM42.0041 35.6237L40.3126 33.9242H40.3105C38.6089 34.8681 36.6613 35.2651 34.7281 35.0646C34.3652 35.0261 34.0063 34.9674 33.6515 34.8863C33.7987 35.6702 33.5043 36.4704 32.8833 36.9687C32.2644 37.467 31.4216 37.5784 30.6938 37.2624C29.9639 36.9444 29.47 36.2496 29.4075 35.4555C29.345 34.6594 29.726 33.8958 30.3954 33.4684C29.9035 33.1342 29.4438 32.7534 29.0224 32.3341C28.8752 32.1862 28.7361 32.0323 28.599 31.8763H28.2845C28.0224 31.8763 27.7845 31.7244 27.6716 31.4874L25.0123 25.9046L22.972 30.29C22.8692 30.5129 22.6535 30.6627 22.4075 30.683C22.1635 30.7012 21.9256 30.5858 21.7905 30.3812L20.8671 28.9936L19.3328 31.8153C19.2139 32.0361 18.984 32.1718 18.7361 32.1718C18.7058 32.1718 18.6736 32.1698 18.6433 32.1657C18.3631 32.1272 18.1373 31.9206 18.0727 31.6431L17.1695 27.7499L16.113 30.0814V30.0834C16.0022 30.3265 15.7602 30.4845 15.4941 30.4845H13.4235C13.105 30.4845 12.8288 30.2617 12.7582 29.9498L12.0263 26.6845L11.4739 28.8195L11.4759 28.8215C11.3973 29.1233 11.1271 29.334 10.8167 29.334H8.37511C8.19164 29.338 8.01422 29.2692 7.88116 29.1395C7.7501 29.0119 7.67551 28.8336 7.67551 28.6493C7.67551 28.465 7.7501 28.2888 7.88116 28.1591C8.01422 28.0295 8.19164 27.9606 8.37511 27.9647H10.2904L11.4154 23.6056L11.4174 23.6076C11.4961 23.3017 11.7723 23.0891 12.0868 23.0951C12.4013 23.0992 12.6715 23.32 12.74 23.6278L13.9699 29.1152H15.0566L16.7602 25.3536C16.8812 25.0883 17.1574 24.9283 17.4477 24.9566C17.738 24.987 17.9779 25.1977 18.0445 25.4833L18.9961 29.5852L20.2098 27.3469L20.2078 27.3448C20.3227 27.1342 20.5385 26.9985 20.7764 26.9883C21.0143 26.9762 21.2401 27.0916 21.3731 27.2901L22.2502 28.6088L24.3872 24.0127C24.4981 23.7737 24.7381 23.6198 25.0022 23.6177H25.0062H25.0042C25.2663 23.6177 25.5062 23.7696 25.6191 24.0066L26.2542 25.3435C26.2945 23.8446 26.6857 22.376 27.3973 21.0574H19.9016C19.7181 21.0634 19.5387 20.9925 19.4076 20.8649C19.2745 20.7353 19.202 20.5591 19.202 20.3747C19.202 20.1884 19.2745 20.0122 19.4076 19.8825C19.5387 19.7549 19.7181 19.684 19.9016 19.6901H21.6072V12.5237C21.6072 12.3434 21.6798 12.1692 21.8088 12.0395C21.9358 11.9119 22.1092 11.841 22.2907 11.841H25.5931C25.9661 11.8431 26.2685 12.1489 26.2685 12.5237V19.6901H27.6173V7.90489C27.6173 7.5261 27.9238 7.22024 28.2988 7.22024H31.5991C31.7806 7.22024 31.954 7.29113 32.083 7.42077C32.21 7.54838 32.2826 7.72259 32.2826 7.90489V16.7426V16.7406C32.7221 16.5704 33.1718 16.4327 33.6314 16.3294V11.9156V11.9176C33.6314 11.7353 33.704 11.5611 33.831 11.4335C33.958 11.3039 34.1314 11.233 34.3129 11.233H37.6133C37.9903 11.233 38.2947 11.5389 38.2947 11.9176V16.455C39.6677 16.8419 40.9359 17.5387 42.0004 18.4907V3.13477C42.0004 2.71141 41.6597 2.36907 41.2383 2.36907H15.5324V9.43438C15.5324 10.6133 14.5807 11.5674 13.4074 11.5694H6.37714V44.8321C6.37714 45.2554 6.71787 45.5978 7.13926 45.5978H41.238C41.6593 45.5978 42.0001 45.2554 42.0001 44.8321L42.0041 35.6237ZM34.994 12.5988V16.1254C35.6391 16.0747 36.2883 16.093 36.9315 16.176V12.5988L34.994 12.5988ZM28.9821 8.58605V18.9146C28.9942 18.9025 29.0063 18.8883 29.0184 18.8761C29.587 18.3049 30.226 17.8066 30.9216 17.3974V8.58614L28.9821 8.58605ZM22.9702 13.2085V19.6904H24.9097V13.2085H22.9702ZM31.5406 36.0695C31.8571 36.0695 32.1414 35.8791 32.2623 35.5854C32.3853 35.2917 32.3167 34.9534 32.093 34.7286C31.8692 34.5037 31.5345 34.4369 31.2422 34.5584C30.9498 34.68 30.7583 34.9656 30.7583 35.2836C30.7583 35.7171 31.1091 36.0695 31.5406 36.0695ZM44.194 32.8508L42.4601 31.1108C42.2283 30.8759 42.196 30.5092 42.3835 30.2358C43.9198 28.0035 44.2484 25.1454 43.2565 22.6177C42.2666 20.0917 40.0871 18.2261 37.4459 17.6469C34.8047 17.0675 32.0487 17.8494 30.0993 19.7292C28.1497 21.611 27.2606 24.3455 27.7303 27.0195C28.2001 29.6954 29.9662 31.9579 32.44 33.056C34.9139 34.1539 37.7665 33.9392 40.0509 32.4868C40.3211 32.3146 40.6719 32.3551 40.8977 32.58L42.6819 34.3726L44.194 32.8508ZM44.3694 36.9993L46.811 34.5463L45.9743 33.7056V33.7076C45.8795 33.6124 45.7525 33.5598 45.6215 33.5598C45.4884 33.5598 45.3614 33.6124 45.2686 33.7076L43.5327 35.4537C43.44 35.5469 43.3876 35.6745 43.3876 35.8082C43.3876 35.9419 43.44 36.0695 43.5327 36.1627L44.3694 36.9993ZM49.6071 37.3558L47.7744 35.5145L45.3329 37.9675L47.1676 39.8108C47.2099 39.8513 47.2785 39.8513 47.3228 39.8108L49.6091 37.5138C49.6494 37.4692 49.6494 37.4004 49.6071 37.3578L49.6071 37.3558ZM17.2824 19.6907H16.0848C15.7158 19.7008 15.4214 20.0047 15.4214 20.3753C15.4214 20.744 15.7158 21.0479 16.0848 21.058H17.2824C17.4658 21.064 17.6453 20.9931 17.7763 20.8655C17.9094 20.7359 17.984 20.5597 17.984 20.3753C17.984 20.189 17.9094 20.0128 17.7763 19.8831C17.6453 19.7555 17.4658 19.6846 17.2824 19.6907ZM41.4538 25.6033C41.4538 27.9368 40.0566 30.0393 37.9114 30.9324C35.7663 31.8237 33.2965 31.3315 31.6554 29.6826C30.0143 28.0318 29.5223 25.5524 30.4114 23.3972C31.2986 21.242 33.3933 19.8362 35.7136 19.8362C38.883 19.8403 41.4497 22.4211 41.4538 25.6033ZM40.0929 25.6033C40.0929 23.8248 39.0264 22.2205 37.3893 21.5399C35.7542 20.8593 33.8711 21.2361 32.6171 22.4939C31.365 23.7519 30.9921 25.6438 31.6695 27.2865C32.3469 28.9313 33.9437 30.0029 35.7139 30.0029C38.1312 30.0009 40.0909 28.032 40.0929 25.6033ZM26.6776 33.4241H17.8611C17.4921 33.4342 17.1978 33.736 17.1978 34.1067C17.1978 34.4774 17.4921 34.7813 17.8611 34.7914H26.6776C26.8611 34.7975 27.0405 34.7266 27.1716 34.5989C27.3026 34.4693 27.3772 34.2931 27.3772 34.1067C27.3772 33.9224 27.3026 33.7462 27.1716 33.6165C27.0405 33.4869 26.8611 33.418 26.6776 33.4241ZM13.3831 34.7914H14.8509C15.0364 34.7975 15.2138 34.7266 15.3449 34.5989C15.4779 34.4693 15.5525 34.2931 15.5525 34.1067C15.5525 33.9224 15.4779 33.7462 15.3449 33.6165C15.2138 33.4869 15.0364 33.418 14.8509 33.4241H13.3831C13.0162 33.4342 12.7219 33.736 12.7219 34.1067C12.7219 34.4774 13.0162 34.7813 13.3831 34.7914ZM33.6836 41.4963C33.6836 42.3673 33.1614 43.1532 32.361 43.4874C31.5606 43.8196 30.6372 43.6353 30.0243 43.0195C29.4114 42.4037 29.2279 41.478 29.5586 40.6719C29.8913 39.8677 30.6736 39.3431 31.5404 39.3431C32.7239 39.3431 33.6836 40.3073 33.6836 41.4963ZM32.3227 41.4963C32.3227 41.1783 32.1312 40.8926 31.8388 40.7711C31.5465 40.6496 31.2118 40.7164 30.9881 40.9413C30.7643 41.1661 30.6957 41.5044 30.8187 41.7981C30.9397 42.0918 31.2239 42.2822 31.5405 42.2822C31.9719 42.2822 32.3227 41.9298 32.3227 41.4963ZM37.3368 23.9686L35.1513 26.1624L34.0908 25.0969C33.8247 24.8295 33.3932 24.8295 33.1271 25.0969C32.863 25.3622 32.863 25.7957 33.1271 26.0631L34.6715 27.6147C34.7985 27.7423 34.9719 27.8132 35.1513 27.8132C35.3328 27.8132 35.5062 27.7423 35.6332 27.6147L38.3005 24.9348C38.5667 24.6675 38.5667 24.234 38.3005 23.9666C38.0344 23.6992 37.6029 23.6992 37.3368 23.9666L37.3368 23.9686ZM26.6777 35.7777H10.9842C10.8007 35.7716 10.6213 35.8425 10.4903 35.9701C10.3592 36.0997 10.2846 36.276 10.2846 36.4603C10.2846 36.6466 10.3592 36.8229 10.4903 36.9525C10.6213 37.0801 10.8007 37.151 10.9842 37.1449H26.6777C26.8612 37.151 27.0406 37.0801 27.1716 36.9525C27.3027 36.8229 27.3773 36.6466 27.3773 36.4603C27.3773 36.276 27.3027 36.0997 27.1716 35.9701C27.0406 35.8425 26.8612 35.7716 26.6777 35.7777ZM26.6777 39.6364H17.8611C17.4841 39.6364 17.1797 39.9423 17.1797 40.3211C17.1797 40.6978 17.4841 41.0037 17.8611 41.0037H26.6777C27.0547 41.0037 27.3591 40.6978 27.3591 40.3211C27.3591 39.9423 27.0547 39.6364 26.6777 39.6364ZM26.6777 41.9902H10.9842C10.8007 41.9841 10.6213 42.053 10.4903 42.1826C10.3592 42.3123 10.2846 42.4885 10.2846 42.6728C10.2846 42.8592 10.3592 43.0354 10.4903 43.1651C10.6213 43.2927 10.8007 43.3636 10.9842 43.3575H26.6777C26.8612 43.3636 27.0406 43.2927 27.1716 43.1651C27.3027 43.0354 27.3773 42.8592 27.3773 42.6728C27.3773 42.4885 27.3027 42.3123 27.1716 42.1826C27.0406 42.053 26.8612 41.9841 26.6777 41.9902ZM14.849 41.0058V41.0038C15.226 41.0038 15.5304 40.6979 15.5304 40.3211C15.5304 39.9423 15.226 39.6365 14.849 39.6365H13.3812C13.0062 39.6365 12.6998 39.9424 12.6998 40.3211C12.6998 40.6979 13.0062 41.0038 13.3812 41.0038L14.849 41.0058Z" fill="#703391" stroke="#703391" stroke-width="0.5"/>
</svg>
