<svg width="50" height="52" viewBox="0 0 50 52" fill="none" xmlns="http://www.w3.org/2000/svg">
<path d="M16.6863 16.6111C16.7037 16.6339 16.7224 16.6558 16.7422 16.6767C18.0048 18.3246 19.8723 19.4087 21.9365 19.6919C24.0007 19.9751 26.0938 19.4344 27.7582 18.1881C29.4226 16.9417 30.5231 15.091 30.819 13.0404C31.115 10.9899 30.5824 8.90622 29.3376 7.24488C28.0929 5.58353 26.2372 4.47961 24.1762 4.17438C22.1151 3.86915 20.0164 4.38743 18.3386 5.61595C16.6608 6.84448 15.5404 8.68334 15.2223 10.7306C14.9042 12.7779 15.4143 14.8671 16.641 16.5417C16.6547 16.5657 16.6698 16.5889 16.6863 16.6111ZM18.2583 16.315L22.3148 13.315V18.3439C20.7607 18.1767 19.3198 17.4557 18.2583 16.315ZM29.4997 11.935C29.4979 13.524 28.9067 15.0566 27.8394 16.2394C26.7721 17.4223 25.3035 18.1723 23.7147 18.3461V5.525C25.3034 5.69875 26.7719 6.44874 27.8392 7.63147C28.9065 8.8142 29.4977 10.3461 29.4997 11.935ZM22.3176 5.525V11.5867L17.4267 15.2017C16.877 14.2734 16.5701 13.2229 16.5341 12.1463C16.4981 11.0698 16.7342 10.0014 17.2207 9.03885C17.7072 8.07633 18.4286 7.2504 19.319 6.63656C20.2094 6.02272 21.2403 5.64055 22.3176 5.525ZM44.7983 9.93222L36.0151 1.20333C35.9502 1.13885 35.8732 1.08771 35.7885 1.05282C35.7037 1.01793 35.6129 0.999983 35.5211 1H10.0887C9.90345 1 9.72577 1.07316 9.59477 1.2034C9.46377 1.33363 9.39018 1.51027 9.39018 1.69444V5.36444H5.69854C5.51327 5.36444 5.3356 5.43761 5.2046 5.56784C5.0736 5.69808 5 5.87471 5 6.05889V50.3056C5 50.4897 5.0736 50.6664 5.2046 50.7966C5.3356 50.9268 5.51327 51 5.69854 51H39.9113C40.0965 51 40.2742 50.9268 40.4052 50.7966C40.5362 50.6664 40.6098 50.4897 40.6098 50.3056V46.6356H44.3015C44.4867 46.6356 44.6644 46.5624 44.7954 46.4322C44.9264 46.3019 45 46.1253 45 45.9411V10.4233C45.0001 10.3321 44.9821 10.2418 44.947 10.1575C44.9119 10.0732 44.8604 9.99668 44.7955 9.93222H44.7983ZM36.2197 3.37111L42.6155 9.72889H36.2197V3.37111ZM39.2127 49.6111H6.39708V6.75333H9.39018V45.9411C9.39018 46.1253 9.46377 46.3019 9.59477 46.4322C9.72577 46.5624 9.90345 46.6356 10.0887 46.6356H39.2127V49.6111ZM10.7873 45.2467V2.38889H34.8226V10.4233C34.8226 10.6075 34.8962 10.7841 35.0272 10.9144C35.1582 11.0446 35.3358 11.1178 35.5211 11.1178H43.6029V45.2467H10.7873ZM18.1711 34.3256H13.6149C13.4297 34.3256 13.252 34.3987 13.121 34.529C12.99 34.6592 12.9164 34.8358 12.9164 35.02V41.3244C12.9164 41.5086 12.99 41.6853 13.121 41.8155C13.252 41.9457 13.4297 42.0189 13.6149 42.0189H18.1711C18.3563 42.0189 18.534 41.9457 18.665 41.8155C18.796 41.6853 18.8696 41.5086 18.8696 41.3244V35.02C18.8696 34.8358 18.796 34.6592 18.665 34.529C18.534 34.3987 18.3563 34.3256 18.1711 34.3256ZM17.4725 40.63H14.3135V35.7144H17.4725V40.63ZM25.7058 27.7061H21.1497C20.9644 27.7061 20.7867 27.7793 20.6557 27.9095C20.5247 28.0397 20.4511 28.2164 20.4511 28.4006V41.3244C20.4511 41.5086 20.5247 41.6853 20.6557 41.8155C20.7867 41.9457 20.9644 42.0189 21.1497 42.0189H25.7058C25.8911 42.0189 26.0687 41.9457 26.1997 41.8155C26.3307 41.6853 26.4043 41.5086 26.4043 41.3244V28.4006C26.4043 28.2164 26.3307 28.0397 26.1997 27.9095C26.0687 27.7793 25.8911 27.7061 25.7058 27.7061ZM25.0073 40.63H21.8482V29.095H25.0073V40.63ZM33.2405 30.6667H28.6844C28.4991 30.6667 28.3214 30.7398 28.1904 30.8701C28.0594 31.0003 27.9858 31.1769 27.9858 31.3611V41.3244C27.9858 41.5086 28.0594 41.6853 28.1904 41.8155C28.3214 41.9457 28.4991 42.0189 28.6844 42.0189H33.2405C33.3324 42.0192 33.4235 42.0014 33.5085 41.9667C33.5935 41.9319 33.6708 41.8808 33.7359 41.8163C33.801 41.7518 33.8527 41.6751 33.8879 41.5907C33.9232 41.5063 33.9413 41.4158 33.9413 41.3244V31.3622C33.9414 31.2707 33.9234 31.1801 33.8882 31.0956C33.8531 31.0111 33.8014 30.9343 33.7363 30.8697C33.6712 30.805 33.5939 30.7538 33.5088 30.719C33.4237 30.6842 33.3325 30.6664 33.2405 30.6667ZM32.5442 40.63H29.3829V32.0556H32.5442V40.63ZM15.8911 32.0556C16.2266 32.0562 16.5572 31.975 16.8539 31.8192C17.1506 31.6634 17.4043 31.4376 17.5929 31.1616C17.7814 30.8857 17.8991 30.568 17.9355 30.2364C17.9719 29.9048 17.9259 29.5693 17.8017 29.2594L22.44 25.185C22.8489 25.4076 23.3219 25.4848 23.781 25.404C24.24 25.3232 24.6576 25.0892 24.9648 24.7406L28.9118 26.2933C28.9118 26.3139 28.9085 26.3333 28.9085 26.3539C28.9072 26.6422 28.9673 26.9275 29.0847 27.1911C29.2022 27.4548 29.3744 27.6907 29.5901 27.8835C29.8058 28.0762 30.06 28.2215 30.3361 28.3097C30.6122 28.3979 30.9039 28.4271 31.1922 28.3953C31.4805 28.3636 31.7587 28.2716 32.0087 28.1254C32.2586 27.9791 32.4747 27.782 32.6426 27.547C32.8105 27.3119 32.9266 27.0442 32.9831 26.7614C33.0396 26.4786 33.0354 26.1872 32.9706 25.9061L37.2473 23.195C37.6322 23.4898 38.1094 23.6402 38.5948 23.6196C39.0802 23.599 39.5428 23.4088 39.901 23.0826C40.2593 22.7563 40.4902 22.3148 40.5532 21.8358C40.6163 21.3569 40.5073 20.8712 40.2455 20.4643C39.9837 20.0574 39.5859 19.7554 39.1221 19.6114C38.6583 19.4674 38.1583 19.4907 37.7101 19.6772C37.2619 19.8637 36.8943 20.2014 36.6719 20.6309C36.4496 21.0603 36.3868 21.554 36.4946 22.025L32.2179 24.7361C31.8059 24.4178 31.2871 24.268 30.7676 24.3175C30.2482 24.3669 29.7674 24.6119 29.4237 25.0022L25.4812 23.4528C25.4812 23.4322 25.4845 23.4128 25.4845 23.3922C25.4853 23.0907 25.4191 22.7928 25.2905 22.5198C25.1619 22.2467 24.9742 22.0053 24.7408 21.8128C24.5074 21.6203 24.2341 21.4815 23.9404 21.4064C23.6468 21.3312 23.34 21.3215 23.0421 21.3779C22.7442 21.4344 22.4626 21.5557 22.2173 21.733C21.9721 21.9104 21.7694 22.1394 21.6236 22.4038C21.4778 22.6682 21.3927 22.9613 21.3742 23.2622C21.3558 23.5632 21.4044 23.8644 21.5168 24.1444L16.8785 28.2189C16.6036 28.0693 16.298 27.9841 15.9849 27.9699C15.6719 27.9557 15.3597 28.0128 15.0722 28.1369C14.7848 28.261 14.5297 28.4488 14.3264 28.6859C14.1231 28.923 13.9771 29.2032 13.8994 29.505C13.8217 29.8069 13.8145 30.1223 13.8782 30.4274C13.942 30.7324 14.075 31.0189 14.2672 31.265C14.4593 31.5111 14.7055 31.7103 14.987 31.8473C15.2684 31.9843 15.5777 32.0555 15.8911 32.0556ZM38.4969 20.9222C38.6273 20.9222 38.7548 20.9607 38.8632 21.0327C38.9717 21.1047 39.0562 21.2071 39.1061 21.3269C39.156 21.4467 39.1691 21.5785 39.1436 21.7057C39.1182 21.8328 39.0554 21.9496 38.9632 22.0413C38.8709 22.133 38.7534 22.1954 38.6255 22.2207C38.4976 22.246 38.365 22.233 38.2445 22.1834C38.124 22.1338 38.0211 22.0498 37.9486 21.942C37.8761 21.8342 37.8375 21.7074 37.8375 21.5778C37.8376 21.404 37.9071 21.2373 38.0308 21.1144C38.1544 20.9915 38.322 20.9224 38.4969 20.9222ZM30.9627 25.7C31.0931 25.7001 31.2206 25.7387 31.3289 25.8108C31.4373 25.8829 31.5217 25.9853 31.5716 26.1051C31.6214 26.2249 31.6344 26.3567 31.6088 26.4838C31.5833 26.6109 31.5205 26.7277 31.4282 26.8193C31.336 26.9109 31.2185 26.9733 31.0906 26.9986C30.9627 27.0238 30.8301 27.0108 30.7097 26.9612C30.5892 26.9115 30.4863 26.8275 30.4138 26.7197C30.3414 26.6119 30.3027 26.4852 30.3027 26.3556C30.3027 26.2693 30.3197 26.1839 30.3528 26.1042C30.3859 26.0245 30.4345 25.9521 30.4958 25.8911C30.5571 25.83 30.6299 25.7816 30.71 25.7485C30.7901 25.7155 30.876 25.6984 30.9627 25.6983V25.7ZM23.428 22.7367C23.5584 22.7368 23.6858 22.7753 23.7942 22.8474C23.9026 22.9195 23.987 23.0219 24.0368 23.1417C24.0867 23.2615 24.0996 23.3933 24.0741 23.5205C24.0486 23.6476 23.9858 23.7643 23.8935 23.856C23.8013 23.9476 23.6838 24.01 23.5559 24.0352C23.428 24.0605 23.2954 24.0475 23.175 23.9978C23.0545 23.9482 22.9516 23.8642 22.8791 23.7564C22.8067 23.6486 22.768 23.5219 22.768 23.3922C22.7683 23.2184 22.838 23.0517 22.9617 22.9288C23.0854 22.8059 23.2531 22.7368 23.428 22.7367ZM15.8911 29.3561C16.0215 29.3561 16.149 29.3946 16.2574 29.4666C16.3659 29.5386 16.4504 29.641 16.5003 29.7608C16.5502 29.8806 16.5632 30.0124 16.5378 30.1396C16.5124 30.2667 16.4496 30.3835 16.3573 30.4752C16.2651 30.5669 16.1476 30.6293 16.0197 30.6546C15.8918 30.6799 15.7592 30.6669 15.6387 30.6173C15.5182 30.5677 15.4152 30.4837 15.3428 30.3759C15.2703 30.2681 15.2316 30.1413 15.2316 30.0117C15.2319 29.8379 15.3015 29.6713 15.4251 29.5484C15.5487 29.4256 15.7163 29.3564 15.8911 29.3561ZM40.773 25.8917H36.2191C36.0338 25.8917 35.8561 25.9648 35.7251 26.0951C35.5941 26.2253 35.5205 26.4019 35.5205 26.5861V41.3244C35.5205 41.5086 35.5941 41.6853 35.7251 41.8155C35.8561 41.9457 36.0338 42.0189 36.2191 42.0189H40.7752C40.9605 42.0189 41.1382 41.9457 41.2692 41.8155C41.4002 41.6853 41.4738 41.5086 41.4738 41.3244V26.5861C41.4738 26.4019 41.4002 26.2253 41.2692 26.0951C41.1382 25.9648 40.9605 25.8917 40.7752 25.8917H40.773ZM40.0745 40.63H36.9176V27.2806H40.0767L40.0745 40.63Z" fill="#703391" stroke="#703391" stroke-width="0.5"/>
</svg>
