<svg width="50" height="52" viewBox="0 0 50 52" fill="none" xmlns="http://www.w3.org/2000/svg">
<path fill-rule="evenodd" clip-rule="evenodd" d="M22.2163 37.8551V34.3069H12.7516V37.8551H22.2163ZM43.7137 19.6674H34.2469V37.8551H43.7137V19.6674ZM32.965 37.8551V29.4262H23.4982V37.8551H32.965ZM36.868 31.3512C36.868 30.9867 37.1525 30.6893 37.5059 30.6893C37.8594 30.6893 38.146 30.9867 38.146 31.3512V32.4016C38.146 32.7683 37.8594 33.0634 37.5059 33.0634C37.1525 33.0634 36.868 32.7683 36.868 32.4016V31.3512ZM41.0951 34.8799H41.0972C41.0972 35.2488 40.8107 35.5461 40.4551 35.5461C40.0995 35.5461 39.813 35.2488 39.813 34.8799V27.5971C39.813 27.2304 40.0996 26.9309 40.4551 26.9309H40.8588L38.9784 23.3047L37.1002 26.9331H37.5039C37.8594 26.9331 38.146 27.2304 38.146 27.5993C38.146 27.6188 38.146 27.6384 38.1439 27.6579V29.7239V29.7217C38.1439 30.0885 37.8573 30.3858 37.5039 30.3858C37.1525 30.3858 36.8659 30.0885 36.8659 29.7217V28.2634H36.0293C35.8034 28.2612 35.5963 28.1375 35.4813 27.9379C35.3663 27.7382 35.36 27.4908 35.4646 27.2847L38.4137 21.5991C38.5246 21.3821 38.7421 21.2476 38.9785 21.2454C39.2127 21.2432 39.4324 21.3778 39.5453 21.5926L42.4778 27.2459C42.6012 27.4521 42.6075 27.7103 42.4945 27.9208C42.3816 28.1335 42.1661 28.2637 41.9339 28.2637H41.0994V34.8803L41.0951 34.8799ZM13.6049 42.2388H9.87976L13.6049 46.1037V42.2388ZM29.0747 6.80943V8.10281H35.678C36.0335 8.10281 36.3201 8.40229 36.3201 8.76903V18.3373H37.7487L37.7508 7.09626C37.7487 6.94001 37.6253 6.81197 37.4747 6.8098L29.0747 6.80943ZM14.9644 5.47699H14.9623C15.0335 4.66538 15.6861 4.04255 16.4704 4.04255H18.3382C18.7314 2.26305 20.2562 1 22.0153 1C23.7744 1 25.3012 2.263 25.6924 4.04255H27.5602C28.3445 4.04472 28.9992 4.66754 29.0682 5.47915H37.4743C38.334 5.47915 39.0326 6.20398 39.0326 7.09592V18.337H44.3558C44.7114 18.337 45 18.6365 45 19.0032V38.5215C45 38.8882 44.7114 39.1877 44.3558 39.1877H39.0326V49.3832C39.0305 50.2752 38.334 50.9978 37.4743 51H6.55828C5.69861 50.9978 5 50.2752 5 49.3832V7.09615C5 6.20421 5.69861 5.47937 6.55828 5.47937L14.9644 5.47699ZM14.9582 8.1007H8.33191C7.97843 8.1007 7.68979 8.39801 7.68979 8.76692V41.5729C7.68979 41.6749 7.7128 41.7747 7.75673 41.8681C7.7881 41.9332 7.82993 41.9939 7.88013 42.046L13.7889 48.1765C13.8056 48.1939 13.8223 48.2091 13.8433 48.2265C13.8809 48.2568 13.9206 48.285 13.9646 48.3067C14.0524 48.3523 14.1486 48.3762 14.249 48.3762H35.6779C36.0335 48.3762 36.32 48.0767 36.32 47.7078V39.1856H37.7486L37.7507 49.3828C37.7486 49.5391 37.6252 49.6671 37.4746 49.6693H6.55855C6.40586 49.6671 6.28455 49.539 6.28246 49.3828V7.09572C6.28456 6.93947 6.40587 6.81143 6.55855 6.80927H14.9588V8.10265L14.9582 8.1007ZM27.514 10.9089C28.3214 10.9089 28.9949 10.2687 29.0681 9.4332H35.0373V18.3371H33.6066C33.2511 18.3371 32.9645 18.6365 32.9645 19.0033V28.096H22.8557C22.5001 28.096 22.2136 28.3955 22.2136 28.7622V32.9766H12.109C11.7534 32.9766 11.4669 33.2761 11.4669 33.645V38.5234C11.4669 38.8924 11.7534 39.1897 12.109 39.1897H35.0372V47.0457H14.8864V41.5726C14.8864 41.2059 14.5999 40.9064 14.2443 40.9064H8.97339V9.4332H14.9641C15.0352 10.2687 15.7087 10.9089 16.516 10.9089H27.514ZM16.5163 9.57858H27.514C27.6667 9.57641 27.7901 9.44837 27.7901 9.29213V5.61592C27.7901 5.48354 27.6876 5.3772 27.56 5.37504H25.1401C24.7866 5.37504 24.5 5.0799 24.4979 4.71315C24.3975 3.35899 23.3036 2.31732 21.9963 2.32599C20.6891 2.33684 19.6098 3.39371 19.5282 4.74787C19.5094 5.09943 19.2291 5.37504 18.8903 5.37287H16.4703C16.3427 5.37504 16.2402 5.48137 16.2402 5.61375V9.28996C16.2402 9.44838 16.3636 9.57642 16.5163 9.57642L16.5163 9.57858ZM17.3885 12.4866C14.5962 12.4844 12.0779 14.2313 11.0091 16.9071C9.94031 19.5851 10.5302 22.6665 12.5047 24.7154C14.4792 26.7643 17.4493 27.376 20.0305 26.2671C22.6094 25.1581 24.2932 22.5475 24.2932 19.6482C24.2932 17.7493 23.5653 15.9265 22.2706 14.5831C20.9759 13.2398 19.2187 12.4866 17.3885 12.4866ZM20.0512 24.7871V23.6109C20.047 22.6625 19.3066 21.8943 18.3904 21.8899H16.3866C15.4705 21.8943 14.7301 22.6625 14.7259 23.6109V24.7893C16.3887 25.7159 18.3904 25.7159 20.0532 24.7893L20.0512 24.7871ZM13.4415 23.804V23.6109C13.4457 21.9247 14.7613 20.5597 16.3865 20.5553H18.3903C20.0155 20.5597 21.3311 21.9247 21.3353 23.6109V23.8062L21.3646 23.7758C22.973 22.1092 23.4541 19.5983 22.584 17.4197C21.7139 15.2387 19.662 13.8173 17.3884 13.8173C15.1148 13.8173 13.0651 15.2387 12.1949 17.4197C11.3248 19.5986 11.8059 22.1094 13.4143 23.7758L13.4436 23.8062L13.4415 23.804ZM18.0619 16.4085C17.4407 15.6902 16.4012 16.2219 16.4012 17.2983C16.4012 18.3747 17.4386 18.9085 18.0619 18.1881V18.1837C18.4761 17.6694 18.4761 16.9207 18.0619 16.4064V16.4085ZM17.3884 14.7483V14.7462C16.0853 14.8069 15.073 15.9441 15.1211 17.2961C15.1211 19.5617 17.5913 20.7205 19.0157 19.0712C20.415 17.4501 19.3754 14.7483 17.3905 14.7483L17.3884 14.7483ZM22.2285 42.3827H30.8461C31.1995 42.3827 31.4882 42.0832 31.4882 41.7165C31.4882 41.3476 31.1995 41.0503 30.8461 41.0503H22.2285C21.875 41.0503 21.5863 41.3476 21.5863 41.7165C21.5863 42.0832 21.875 42.3827 22.2285 42.3827ZM19.6537 42.3827H20.2644C20.62 42.3827 20.9065 42.0832 20.9065 41.7165C20.9065 41.3476 20.62 41.0503 20.2644 41.0503H19.6558C19.3002 41.0503 19.0136 41.3476 19.0136 41.7165C19.0136 42.0832 19.3002 42.3827 19.6558 42.3827H19.6537ZM22.2285 45.2407H30.8461C31.1995 45.2407 31.4882 44.9434 31.4882 44.5745C31.4882 44.2056 31.1995 43.9083 30.8461 43.9083H22.2285C21.875 43.9083 21.5863 44.2056 21.5863 44.5745C21.5863 44.9434 21.875 45.2407 22.2285 45.2407ZM19.6537 45.2407H20.2644C20.62 45.2407 20.9065 44.9434 20.9065 44.5745C20.9065 44.2056 20.62 43.9083 20.2644 43.9083H19.6558C19.3002 43.9083 19.0136 44.2056 19.0136 44.5745C19.0136 44.9434 19.3002 45.2407 19.6558 45.2407H19.6537ZM28.516 18.8847C28.3403 18.8977 28.1646 18.8326 28.037 18.7068C27.9073 18.5809 27.832 18.4051 27.832 18.2207C27.832 18.0362 27.9073 17.8604 28.037 17.7346C28.1646 17.6087 28.3403 17.5436 28.516 17.5544H31.5383C31.714 17.5436 31.8876 17.6087 32.0173 17.7346C32.147 17.8604 32.2223 18.0362 32.2223 18.2207C32.2223 18.4051 32.147 18.5809 32.0173 18.7068C31.8876 18.8326 31.714 18.8977 31.5383 18.8847H28.516ZM25.9412 18.8847H26.5498C26.7276 18.8977 26.9012 18.8326 27.0309 18.7068C27.1606 18.5809 27.2338 18.4051 27.2338 18.2207C27.2338 18.0362 27.1606 17.8604 27.0309 17.7346C26.9012 17.6087 26.7276 17.5436 26.5498 17.5544H25.9433C25.7655 17.5436 25.5919 17.6087 25.4622 17.7346C25.3325 17.8604 25.2593 18.0362 25.2593 18.2207C25.2593 18.4051 25.3325 18.5809 25.4622 18.7068C25.5919 18.8326 25.7655 18.8977 25.9433 18.8847H25.9412ZM28.516 21.7428H31.5363L31.5383 21.7449C31.714 21.7558 31.8876 21.6907 32.0173 21.5648C32.147 21.4389 32.2223 21.2632 32.2223 21.0787C32.2223 20.8942 32.147 20.7185 32.0173 20.5926C31.8876 20.4667 31.714 20.4016 31.5383 20.4146H28.516C28.3403 20.4016 28.1646 20.4667 28.037 20.5926C27.9073 20.7185 27.832 20.8942 27.832 21.0787C27.832 21.2632 27.9073 21.4389 28.037 21.5648C28.1646 21.6907 28.3403 21.7558 28.516 21.7449L28.516 21.7428ZM25.9412 21.7428L26.5498 21.7449C26.7276 21.7558 26.9012 21.6907 27.0309 21.5648C27.1606 21.4389 27.2338 21.2632 27.2338 21.0787C27.2338 20.8942 27.1606 20.7185 27.0309 20.5926C26.9012 20.4667 26.7276 20.4016 26.5498 20.4146H25.9433C25.7655 20.4016 25.5919 20.4667 25.4622 20.5926C25.3325 20.7185 25.2593 20.8942 25.2593 21.0787C25.2593 21.2632 25.3325 21.4389 25.4622 21.5648C25.5919 21.6907 25.7655 21.7558 25.9433 21.7449L25.9412 21.7428Z" fill="#703391"/>
<path d="M36.8659 31.3512H36.868M36.868 31.3512C36.868 30.9867 37.1525 30.6893 37.5059 30.6893C37.8594 30.6893 38.146 30.9867 38.146 31.3512V32.4016C38.146 32.7683 37.8594 33.0635 37.5059 33.0635C37.1525 33.0635 36.868 32.7683 36.868 32.4016V31.3512ZM22.2163 37.8551V34.3069H12.7516V37.8551H22.2163ZM43.7137 19.6674H34.2469V37.8551H43.7137V19.6674ZM32.965 37.8551V29.4262H23.4982V37.8551H32.965ZM41.0951 34.8799H41.0972C41.0972 35.2488 40.8107 35.5461 40.4551 35.5461C40.0995 35.5461 39.813 35.2488 39.813 34.8799V27.5971C39.813 27.2304 40.0996 26.9309 40.4551 26.9309H40.8588L38.9784 23.3047L37.1002 26.9331H37.5039C37.8594 26.9331 38.146 27.2304 38.146 27.5993C38.146 27.6188 38.146 27.6384 38.1439 27.6579V29.7239V29.7217C38.1439 30.0885 37.8573 30.3858 37.5039 30.3858C37.1525 30.3858 36.8659 30.0885 36.8659 29.7217V28.2634H36.0293C35.8034 28.2612 35.5963 28.1375 35.4813 27.9379C35.3663 27.7382 35.36 27.4908 35.4646 27.2847L38.4137 21.5991C38.5246 21.3821 38.7421 21.2476 38.9785 21.2454C39.2127 21.2432 39.4324 21.3778 39.5453 21.5926L42.4778 27.2459C42.6012 27.4521 42.6075 27.7103 42.4945 27.9208C42.3816 28.1335 42.1661 28.2637 41.9339 28.2637H41.0994V34.8803L41.0951 34.8799ZM13.6049 42.2388H9.87976L13.6049 46.1037V42.2388ZM29.0747 6.80943V8.10281H35.678C36.0335 8.10281 36.3201 8.40229 36.3201 8.76903V18.3373H37.7487L37.7508 7.09626C37.7487 6.94001 37.6253 6.81197 37.4747 6.8098L29.0747 6.80943ZM14.9644 5.47699H14.9623C15.0335 4.66538 15.6861 4.04255 16.4704 4.04255H18.3382C18.7314 2.26305 20.2562 1 22.0153 1C23.7744 1 25.3012 2.263 25.6924 4.04255H27.5602C28.3445 4.04472 28.9992 4.66754 29.0682 5.47915H37.4743C38.334 5.47915 39.0326 6.20398 39.0326 7.09592V18.337H44.3558C44.7114 18.337 45 18.6365 45 19.0032V38.5215C45 38.8882 44.7114 39.1877 44.3558 39.1877H39.0326V49.3832C39.0305 50.2752 38.334 50.9978 37.4743 51H6.55828C5.69861 50.9978 5 50.2752 5 49.3832V7.09615C5 6.20421 5.69861 5.47937 6.55828 5.47937L14.9644 5.47699ZM14.9582 8.1007H8.33191C7.97843 8.1007 7.68979 8.39801 7.68979 8.76692V41.5729C7.68979 41.6749 7.7128 41.7747 7.75673 41.8681C7.7881 41.9332 7.82993 41.9939 7.88013 42.046L13.7889 48.1765C13.8056 48.1939 13.8223 48.2091 13.8433 48.2265C13.8809 48.2568 13.9206 48.285 13.9646 48.3067C14.0524 48.3523 14.1486 48.3762 14.249 48.3762H35.6779C36.0335 48.3762 36.32 48.0767 36.32 47.7078V39.1856H37.7486L37.7507 49.3828C37.7486 49.5391 37.6252 49.6671 37.4746 49.6693H6.55855C6.40586 49.6671 6.28455 49.539 6.28246 49.3828V7.09572C6.28456 6.93947 6.40587 6.81143 6.55855 6.80927H14.9588V8.10265L14.9582 8.1007ZM27.514 10.9089C28.3214 10.9089 28.9949 10.2687 29.0681 9.4332H35.0373V18.3371H33.6066C33.2511 18.3371 32.9645 18.6365 32.9645 19.0033V28.096H22.8557C22.5001 28.096 22.2136 28.3955 22.2136 28.7622V32.9766H12.109C11.7534 32.9766 11.4669 33.2761 11.4669 33.645V38.5234C11.4669 38.8924 11.7534 39.1897 12.109 39.1897H35.0372V47.0457H14.8864V41.5726C14.8864 41.2059 14.5999 40.9064 14.2443 40.9064H8.97339V9.4332H14.9641C15.0352 10.2687 15.7087 10.9089 16.516 10.9089H27.514ZM16.5163 9.57858H27.514C27.6667 9.57641 27.7901 9.44837 27.7901 9.29213V5.61592C27.7901 5.48354 27.6876 5.3772 27.56 5.37504H25.1401C24.7866 5.37504 24.5 5.0799 24.4979 4.71315C24.3975 3.35899 23.3036 2.31732 21.9963 2.32599C20.6891 2.33684 19.6098 3.39371 19.5282 4.74787C19.5094 5.09943 19.2291 5.37504 18.8903 5.37287H16.4703C16.3427 5.37504 16.2402 5.48137 16.2402 5.61375V9.28996C16.2402 9.44838 16.3636 9.57642 16.5163 9.57642L16.5163 9.57858ZM17.3885 12.4866C14.5962 12.4844 12.0779 14.2313 11.0091 16.9071C9.94031 19.5851 10.5302 22.6665 12.5047 24.7154C14.4792 26.7643 17.4493 27.376 20.0305 26.2671C22.6094 25.1581 24.2932 22.5475 24.2932 19.6482C24.2932 17.7493 23.5653 15.9265 22.2706 14.5831C20.9759 13.2398 19.2187 12.4866 17.3885 12.4866ZM20.0512 24.7871V23.6109C20.047 22.6625 19.3066 21.8943 18.3904 21.8899H16.3866C15.4705 21.8943 14.7301 22.6625 14.7259 23.6109V24.7893C16.3887 25.7159 18.3904 25.7159 20.0532 24.7893L20.0512 24.7871ZM13.4415 23.804V23.6109C13.4457 21.9247 14.7613 20.5597 16.3865 20.5553H18.3903C20.0155 20.5597 21.3311 21.9247 21.3353 23.6109V23.8062L21.3646 23.7758C22.973 22.1092 23.4541 19.5983 22.584 17.4197C21.7139 15.2387 19.662 13.8173 17.3884 13.8173C15.1148 13.8173 13.0651 15.2387 12.1949 17.4197C11.3248 19.5986 11.8059 22.1094 13.4143 23.7758L13.4436 23.8062L13.4415 23.804ZM18.0619 16.4085C17.4407 15.6902 16.4012 16.2219 16.4012 17.2983C16.4012 18.3747 17.4386 18.9085 18.0619 18.1881V18.1837C18.4761 17.6694 18.4761 16.9207 18.0619 16.4064V16.4085ZM17.3884 14.7483V14.7462C16.0853 14.8069 15.073 15.9441 15.1211 17.2961C15.1211 19.5617 17.5913 20.7205 19.0157 19.0712C20.415 17.4501 19.3754 14.7483 17.3905 14.7483L17.3884 14.7483ZM22.2285 42.3827H30.8461C31.1995 42.3827 31.4882 42.0832 31.4882 41.7165C31.4882 41.3476 31.1995 41.0503 30.8461 41.0503H22.2285C21.875 41.0503 21.5863 41.3476 21.5863 41.7165C21.5863 42.0832 21.875 42.3827 22.2285 42.3827ZM19.6537 42.3827H20.2644C20.62 42.3827 20.9065 42.0832 20.9065 41.7165C20.9065 41.3476 20.62 41.0503 20.2644 41.0503H19.6558C19.3002 41.0503 19.0136 41.3476 19.0136 41.7165C19.0136 42.0832 19.3002 42.3827 19.6558 42.3827H19.6537ZM22.2285 45.2407H30.8461C31.1995 45.2407 31.4882 44.9434 31.4882 44.5745C31.4882 44.2056 31.1995 43.9083 30.8461 43.9083H22.2285C21.875 43.9083 21.5863 44.2056 21.5863 44.5745C21.5863 44.9434 21.875 45.2407 22.2285 45.2407ZM19.6537 45.2407H20.2644C20.62 45.2407 20.9065 44.9434 20.9065 44.5745C20.9065 44.2056 20.62 43.9083 20.2644 43.9083H19.6558C19.3002 43.9083 19.0136 44.2056 19.0136 44.5745C19.0136 44.9434 19.3002 45.2407 19.6558 45.2407H19.6537ZM28.516 18.8847C28.3403 18.8977 28.1646 18.8326 28.037 18.7068C27.9073 18.5809 27.832 18.4051 27.832 18.2207C27.832 18.0362 27.9073 17.8604 28.037 17.7346C28.1646 17.6087 28.3403 17.5436 28.516 17.5544H31.5383C31.714 17.5436 31.8876 17.6087 32.0173 17.7346C32.147 17.8604 32.2223 18.0362 32.2223 18.2207C32.2223 18.4051 32.147 18.5809 32.0173 18.7068C31.8876 18.8326 31.714 18.8977 31.5383 18.8847H28.516ZM25.9412 18.8847H26.5498C26.7276 18.8977 26.9012 18.8326 27.0309 18.7068C27.1606 18.5809 27.2338 18.4051 27.2338 18.2207C27.2338 18.0362 27.1606 17.8604 27.0309 17.7346C26.9012 17.6087 26.7276 17.5436 26.5498 17.5544H25.9433C25.7655 17.5436 25.5919 17.6087 25.4622 17.7346C25.3325 17.8604 25.2593 18.0362 25.2593 18.2207C25.2593 18.4051 25.3325 18.5809 25.4622 18.7068C25.5919 18.8326 25.7655 18.8977 25.9433 18.8847H25.9412ZM28.516 21.7428H31.5363L31.5383 21.7449C31.714 21.7558 31.8876 21.6907 32.0173 21.5648C32.147 21.4389 32.2223 21.2632 32.2223 21.0787C32.2223 20.8942 32.147 20.7185 32.0173 20.5926C31.8877 20.4667 31.714 20.4016 31.5383 20.4146H28.516C28.3403 20.4016 28.1646 20.4667 28.037 20.5926C27.9073 20.7185 27.832 20.8942 27.832 21.0787C27.832 21.2632 27.9073 21.4389 28.037 21.5648C28.1646 21.6907 28.3403 21.7558 28.516 21.7449L28.516 21.7428ZM25.9412 21.7428L26.5498 21.7449C26.7276 21.7558 26.9012 21.6907 27.0309 21.5648C27.1606 21.4389 27.2338 21.2632 27.2338 21.0787C27.2338 20.8942 27.1606 20.7185 27.0309 20.5926C26.9012 20.4667 26.7276 20.4016 26.5498 20.4146H25.9433C25.7655 20.4016 25.5919 20.4667 25.4622 20.5926C25.3325 20.7185 25.2593 20.8942 25.2593 21.0787C25.2593 21.2632 25.3325 21.4389 25.4622 21.5648C25.5919 21.6907 25.7655 21.7558 25.9433 21.7449L25.9412 21.7428Z" stroke="#703391" stroke-width="0.5"/>
</svg>
