<svg width="52" height="50" viewBox="0 0 52 50" fill="none" xmlns="http://www.w3.org/2000/svg">
<path fill-rule="evenodd" clip-rule="evenodd" d="M7.41902 22.9242H6.11621V29.2022H7.41902V22.9242ZM5.35842 21.4438H8.17625C8.59459 21.4438 8.93404 21.7755 8.93404 22.1843V29.9431C8.93404 30.3519 8.59459 30.6836 8.17625 30.6836H5.35842C4.94008 30.6836 4.60063 30.3519 4.60063 29.9431V22.1843C4.60063 21.7755 4.94008 21.4438 5.35842 21.4438ZM12.513 19.9515H11.2102V29.2027H12.513V19.9515ZM10.4524 18.4712H13.2702C13.6886 18.4712 14.028 18.8029 14.028 19.2116V29.9431C14.028 30.3519 13.6886 30.6836 13.2702 30.6836H10.4524C10.0341 30.6836 9.69461 30.3519 9.69461 29.9431V19.2116C9.69461 18.8029 10.0341 18.4712 10.4524 18.4712ZM17.607 24.1564H16.3042V29.2032H17.607V24.1564ZM15.5464 22.6761H18.3642C18.7826 22.6761 19.122 23.0078 19.122 23.4165V29.9437C19.122 30.3524 18.7826 30.6841 18.3642 30.6841H15.5464C15.1281 30.6841 14.7886 30.3524 14.7886 29.9437V23.4165C14.7886 23.0078 15.1281 22.6761 15.5464 22.6761ZM22.701 17.9061H21.3982V29.2032H22.701V17.9061ZM20.6404 16.4258H23.4582C23.8766 16.4258 24.216 16.7574 24.216 17.1662V29.9442C24.216 30.353 23.8766 30.6847 23.4582 30.6847H20.6404C20.222 30.6847 19.8826 30.353 19.8826 29.9442V17.1662C19.8826 16.7574 20.222 16.4258 20.6404 16.4258ZM6.37566 18.7258C6.28233 18.6346 6.15288 18.5781 6.0101 18.5781C5.86732 18.5781 5.73787 18.6346 5.64454 18.7258C5.5512 18.817 5.49342 18.9435 5.49342 19.083C5.49342 19.2225 5.5512 19.349 5.64454 19.4402C5.73787 19.5314 5.86732 19.5878 6.0101 19.5878C6.15288 19.5878 6.28233 19.5314 6.37566 19.4402C6.469 19.349 6.52677 19.2225 6.52677 19.083C6.52677 18.9435 6.469 18.8175 6.37566 18.7258ZM12.2263 14.3255C12.133 14.2343 12.0035 14.1779 11.8608 14.1779C11.718 14.1779 11.5885 14.2343 11.4952 14.3255C11.4019 14.4167 11.3441 14.5432 11.3441 14.6827C11.3441 14.8222 11.4019 14.9487 11.4952 15.0399C11.5885 15.1311 11.718 15.1875 11.8608 15.1875C12.0035 15.1875 12.133 15.1311 12.2263 15.0399C12.3197 14.9487 12.3774 14.8222 12.3774 14.6827C12.3774 14.5432 12.3197 14.4167 12.2263 14.3255ZM17.3209 17.1749C17.2275 17.0837 17.0981 17.0272 16.9553 17.0272C16.8125 17.0272 16.6831 17.0837 16.5898 17.1749C16.4964 17.2661 16.4386 17.3926 16.4386 17.5321C16.4386 17.6716 16.4964 17.7981 16.5898 17.8893C16.6831 17.9805 16.8125 18.0369 16.9553 18.0369C17.0981 18.0369 17.227 17.9805 17.3209 17.8893C17.4142 17.7981 17.472 17.6716 17.472 17.5321C17.472 17.3926 17.4142 17.2661 17.3209 17.1749ZM23.0065 11.6297C22.9132 11.5385 22.7838 11.4821 22.641 11.4821C22.4982 11.4821 22.3693 11.5385 22.2754 11.6297C22.1821 11.7209 22.1243 11.8474 22.1243 11.9869C22.1243 12.1264 22.1821 12.2529 22.2754 12.3441C22.3688 12.4353 22.4982 12.4918 22.641 12.4918C22.7838 12.4918 22.9127 12.4353 23.0065 12.3441C23.0999 12.2529 23.1577 12.1264 23.1577 11.9869C23.1577 11.8474 23.0999 11.7215 23.0065 11.6297ZM7.04512 17.3736L9.90573 15.2223C9.85629 15.0507 9.82962 14.8694 9.82962 14.6827C9.82962 14.1344 10.0568 13.6383 10.4246 13.2789C10.7924 12.9195 11.3002 12.6975 11.8613 12.6975C12.4224 12.6975 12.9302 12.9195 13.298 13.2789C13.6658 13.6383 13.893 14.1344 13.893 14.6827C13.893 14.794 13.8836 14.9031 13.8658 15.0095L15.6742 15.992C16.0236 15.7141 16.4697 15.5474 16.9559 15.5474C17.2403 15.5474 17.5114 15.605 17.7576 15.7081L20.7726 12.7675C20.6676 12.5281 20.6098 12.2643 20.6098 11.9875C20.6098 11.4392 20.8371 10.943 21.2048 10.5837C21.5726 10.2243 22.0804 10.0023 22.6415 10.0023C23.2027 10.0023 23.7104 10.2243 24.0782 10.5837C24.446 10.943 24.6732 11.4392 24.6732 11.9875C24.6732 12.5357 24.446 13.0319 24.0782 13.3913C23.7104 13.7506 23.2027 13.9727 22.6415 13.9727C22.3571 13.9727 22.086 13.9157 21.8399 13.812L18.8248 16.7526C18.9298 16.992 18.9876 17.2558 18.9876 17.5326C18.9876 18.0809 18.7603 18.5771 18.3926 18.9364C18.0248 19.2958 17.517 19.5178 16.9559 19.5178C16.3947 19.5178 15.887 19.2958 15.5192 18.9364C15.1514 18.5771 14.9242 18.0809 14.9242 17.5326C14.9242 17.4474 14.9297 17.3638 14.9403 17.2818L13.0808 16.2716C12.7413 16.5208 12.3191 16.6684 11.8619 16.6684C11.4841 16.6684 11.1308 16.5675 10.8274 16.3921L7.9668 18.5434C8.01625 18.7149 8.04292 18.8963 8.04292 19.083C8.04292 19.6313 7.81569 20.1274 7.4479 20.4868C7.08012 20.8462 6.57233 21.0682 6.01121 21.0682C5.45009 21.0682 4.9423 20.8462 4.57451 20.4868C4.20673 20.1274 3.9795 19.6313 3.9795 19.083C3.9795 18.5347 4.20673 18.0386 4.57451 17.6792C4.9423 17.3198 5.45009 17.0978 6.01121 17.0978C6.38899 17.0978 6.74178 17.1982 7.04512 17.3736ZM47.7842 45.5662L46.022 39.1406L43.9442 39.6845L45.7064 46.1112C45.7831 46.3913 45.9687 46.6144 46.2059 46.748C46.4448 46.8826 46.7365 46.9287 47.0237 46.8533C47.2981 46.7816 47.5187 46.6123 47.6576 46.3946C47.6631 46.3837 47.6693 46.3729 47.6759 46.362C47.8137 46.1291 47.8609 45.8458 47.7842 45.5662ZM44.862 36.6066C44.6586 36.6744 44.452 36.7363 44.2414 36.7906C44.0442 36.8416 43.847 36.8861 43.6492 36.9236L43.9853 38.1423L45.1981 37.8247L44.862 36.6066ZM43.6231 11.4902C43.4642 10.5783 43.0164 9.76236 42.3753 9.13591C41.7341 8.50947 40.8991 8.07194 39.9658 7.91669V11.4902H43.6231ZM39.9658 6.42006C41.318 6.58672 42.5297 7.19362 43.4464 8.08931C44.3631 8.985 44.9842 10.1689 45.1548 11.4902H45.3048C45.7231 11.4902 46.0625 11.8219 46.0625 12.2307C46.0625 14.0801 45.2953 15.7543 44.0547 16.9664C42.8142 18.1786 41.1008 18.9283 39.208 18.9283C37.3152 18.9283 35.6018 18.1786 34.3612 16.9664C33.1206 15.7543 32.3534 14.0801 32.3534 12.2307C32.3534 10.3812 33.1206 8.70707 34.3612 7.49489C35.6018 6.28272 37.3152 5.53306 39.208 5.53306C39.6263 5.53306 39.9658 5.86473 39.9658 6.2735V6.42006ZM41.1969 17.0728C40.5824 17.3139 39.9113 17.4469 39.208 17.4469C37.7335 17.4469 36.399 16.8628 35.4329 15.9188C34.4668 14.9747 33.869 13.6703 33.869 12.2301C33.869 10.79 34.4668 9.48551 35.4329 8.5415C36.2307 7.76197 37.2796 7.22836 38.4507 7.06551V12.2301C38.4507 12.3838 38.4985 12.526 38.5802 12.6443L41.1969 17.0728ZM40.518 12.9706L42.5053 16.3335C42.673 16.2048 42.8325 16.0664 42.983 15.9188C43.7808 15.1392 44.327 14.1143 44.4936 12.97L40.518 12.9706ZM20.0004 37.3106H30.5272C30.2911 36.8622 30.0911 36.3921 29.9272 35.8998C29.6856 35.1729 29.5217 34.3972 29.4367 33.5726H21.0898C21.0048 34.3972 20.8415 35.1729 20.5993 35.8998C20.4354 36.3916 20.2354 36.8622 19.9993 37.3106H20.0004ZM36.4051 38.5478C37.1863 39.311 37.6713 40.3647 37.6713 41.5247C37.6713 41.9335 37.3318 42.2652 36.9135 42.2652H13.6147C13.1964 42.2652 12.8569 41.9335 12.8569 41.5247C12.8569 40.3652 13.3419 39.3116 14.123 38.5478C14.9042 37.7845 15.9825 37.3106 17.1698 37.3106H18.2576C18.6365 36.7406 18.9381 36.118 19.1626 35.4432C19.357 34.8581 19.4937 34.2349 19.5715 33.5731H3.57561C2.8667 33.5731 2.2228 33.2903 1.75613 32.8343C1.29001 32.3789 1 31.7492 1 31.0565V4.88381C1 4.19114 1.28945 3.56199 1.75613 3.106C2.22225 2.65055 2.8667 2.36719 3.57561 2.36719H46.9542C47.6631 2.36719 48.307 2.65001 48.7737 3.106C49.2398 3.56144 49.5298 4.19114 49.5298 4.88381V23.3878C50.0398 24.1499 50.4376 25.0027 50.6938 25.9293C50.6971 25.9418 50.7004 25.9543 50.7032 25.9673C51.3332 28.3244 50.9315 30.7096 49.7704 32.665C48.9493 34.0476 47.7487 35.2147 46.2642 36.0045L46.6776 37.5044C46.9631 37.5495 47.2092 37.753 47.2887 38.0435L49.2465 45.184C49.4304 45.8555 49.3165 46.5401 48.9848 47.1025C48.9754 47.1182 48.9654 47.1339 48.9548 47.1486C48.6198 47.6876 48.082 48.1073 47.4154 48.2815C46.7292 48.4612 46.0298 48.3499 45.4553 48.0258C44.8792 47.7007 44.4292 47.1632 44.2453 46.4923L42.2869 39.3517C42.2075 39.0613 42.3169 38.7649 42.5408 38.5868L42.1275 37.087C40.4252 37.1282 38.7763 36.6961 37.3513 35.8884C36.3179 35.3026 35.4023 34.5182 34.6684 33.5731H30.9573C31.035 34.2349 31.1711 34.8586 31.3662 35.4432C31.5906 36.118 31.8923 36.7406 32.2712 37.3106H33.359C34.5457 37.3106 35.6235 37.7845 36.4051 38.5478ZM36.0512 40.7843C35.919 40.3294 35.6685 39.9212 35.334 39.5944C34.8268 39.0988 34.1273 38.791 33.359 38.791H17.1692C16.4009 38.791 15.7014 39.0988 15.1942 39.5944C14.8597 39.9212 14.6092 40.3288 14.4769 40.7843H36.0512ZM36.9463 28.4308H44.6097C45.0281 28.4308 45.3675 28.7625 45.3675 29.1712C45.3675 29.58 45.0281 29.9117 44.6097 29.9117H37.2446C37.6574 31.0234 38.4524 31.9093 39.4408 32.4647C40.5441 33.0835 41.8914 33.2909 43.2214 32.9396C44.5486 32.589 45.6042 31.747 46.2381 30.6689C46.8715 29.5908 47.0837 28.2744 46.7242 26.9749C46.3653 25.678 45.5037 24.6466 44.4003 24.0272C43.2969 23.4084 41.9497 23.201 40.6197 23.5522C39.7663 23.7775 39.0252 24.2064 38.4363 24.7704H42.1358C42.5541 24.7704 42.8936 25.1021 42.8936 25.5108C42.8936 25.9196 42.5541 26.2513 42.1358 26.2513H37.3802C37.0707 26.9238 36.9157 27.6686 36.9468 28.4324L36.9463 28.4308ZM35.5273 29.3368C35.5612 29.5241 35.6035 29.7113 35.6551 29.8981C36.1229 31.588 37.2479 32.9331 38.6896 33.742C40.1313 34.5508 41.8864 34.8233 43.6125 34.3673C45.342 33.9102 46.7187 32.811 47.5465 31.4023C48.3743 29.9936 48.6532 28.2788 48.1865 26.5916C47.7187 24.9017 46.5937 23.5566 45.152 22.7477C43.7103 21.9389 41.9552 21.6664 40.2291 22.1224C38.5002 22.5789 37.124 23.6782 36.2962 25.0858C36.2674 25.1259 36.2424 25.1694 36.2224 25.2155C35.5523 26.4179 35.2773 27.8309 35.5135 29.2543C35.5168 29.2825 35.5207 29.3096 35.5273 29.3368ZM34.3818 29.054C34.3845 29.0708 34.3868 29.0882 34.3884 29.1055C34.4301 29.4264 34.4945 29.7488 34.5818 30.0707C34.5907 30.0979 34.5984 30.1261 34.604 30.1543C34.8307 30.9686 35.1884 31.7144 35.649 32.3751C35.6685 32.3995 35.6862 32.425 35.7029 32.4511C36.3401 33.3413 37.1657 34.0747 38.1091 34.6094C39.7858 35.5599 41.8336 35.8862 43.8564 35.3613C45.877 34.8369 47.4892 33.5617 48.462 31.9245C49.4304 30.2938 49.7654 28.3037 49.2393 26.337L49.2315 26.3115C49.0037 25.4891 48.6432 24.7367 48.1781 24.0706C48.1576 24.0451 48.1381 24.018 48.1209 23.9903C47.4781 23.0952 46.6448 22.3601 45.6942 21.8265C44.0253 20.8901 41.9902 20.5726 39.9802 21.0931C39.9569 21.1002 39.9335 21.1067 39.9091 21.1116C38.913 21.3792 38.0174 21.8249 37.2496 22.4041C37.2274 22.4231 37.2035 22.441 37.179 22.4579C36.4329 23.0344 35.8118 23.7379 35.3418 24.5261C35.1157 24.9055 34.9246 25.3045 34.7712 25.7182C34.7629 25.7453 34.7534 25.7719 34.7423 25.7974C34.3779 26.818 34.2429 27.9276 34.3818 29.054ZM27.7227 29.9111H32.9906C33.0301 30.1038 33.0762 30.296 33.1295 30.4887C33.2829 31.0511 33.4884 31.5869 33.739 32.0917H3.57561C3.28504 32.0917 3.02004 31.975 2.82726 31.7866C2.63503 31.5988 2.51503 31.3399 2.51503 31.056V4.88381C2.51503 4.59991 2.63448 4.34097 2.82726 4.15315C3.01948 3.96532 3.28449 3.84807 3.57561 3.84807H46.9542C47.2448 3.84807 47.5098 3.96478 47.702 4.15315C47.8943 4.34097 48.0143 4.59991 48.0143 4.88381V21.6593C47.5326 21.2348 47.0065 20.8624 46.4459 20.5476C44.4281 19.4152 41.9708 19.0341 39.5519 19.6736C38.4168 19.9733 37.389 20.4667 36.4974 21.1078H27.7227C27.3044 21.1078 26.965 21.4395 26.965 21.8482C26.965 22.257 27.3044 22.5887 27.7227 22.5887H34.8912C34.5718 22.9649 34.2851 23.3655 34.0345 23.7862C33.8456 24.1032 33.6768 24.4316 33.5295 24.7698H27.7233C27.305 24.7698 26.9655 25.1015 26.9655 25.5103C26.9655 25.919 27.305 26.2507 27.7233 26.2507H33.0378C32.8728 26.9564 32.7967 27.6882 32.8184 28.4319H27.7233C27.305 28.4319 26.9655 28.7635 26.9655 29.1723C26.9655 29.5811 27.305 29.9127 27.7233 29.9127L27.7227 29.9111ZM15.8281 6.73328H6.80845V9.81067H15.8281V6.73328ZM6.05065 5.25295C5.63231 5.25295 5.29286 5.58463 5.29286 5.99339V10.5511C5.29286 10.9599 5.63231 11.2915 6.05065 11.2915H16.5853C17.0036 11.2915 17.3431 10.9599 17.3431 10.5511V5.99339C17.3431 5.58463 17.0036 5.25295 16.5853 5.25295H6.05065Z" fill="#703391" stroke="#703391" stroke-width="0.5"/>
</svg>
