<svg width="50" height="52" viewBox="0 0 50 52" fill="none" xmlns="http://www.w3.org/2000/svg">
<path d="M15.1445 24.1014L11.8863 25.8792L11.1845 24.4859C11.0769 24.2751 10.889 24.1148 10.6618 24.0401C10.4346 23.9654 10.1867 23.9823 9.97211 24.0872C9.75756 24.192 9.59389 24.3763 9.51687 24.5997C9.43986 24.8231 9.45577 25.0675 9.56112 25.2793L10.6844 27.5097C10.7387 27.6179 10.8147 27.7141 10.9078 27.7925C11.0009 27.8709 11.1092 27.9298 11.2262 27.9658C11.3431 28.0017 11.4662 28.0139 11.5881 28.0016C11.7099 27.9893 11.828 27.9528 11.9351 27.8943L16.0227 25.6639C16.2285 25.5469 16.3794 25.3549 16.4429 25.1293C16.5065 24.9038 16.4776 24.6627 16.3625 24.4579C16.2474 24.2531 16.0553 24.101 15.8275 24.0343C15.5997 23.9676 15.3545 23.9917 15.1445 24.1014Z" fill="#703391" stroke="#703391" stroke-width="0.5"/>
<path d="M15.1445 31.5252L11.8863 33.3031L11.1845 31.9097C11.0769 31.6989 10.889 31.5386 10.6618 31.4639C10.4346 31.3892 10.1867 31.4061 9.97211 31.511C9.75756 31.6159 9.59389 31.8001 9.51687 32.0235C9.43986 32.2469 9.45577 32.4913 9.56112 32.7032L10.6844 34.9335C10.7387 35.0417 10.8147 35.1379 10.9078 35.2163C11.0009 35.2947 11.1092 35.3536 11.2261 35.3896C11.3431 35.4255 11.4662 35.4377 11.5881 35.4254C11.7099 35.4131 11.828 35.3766 11.9351 35.318L16.0227 33.0877C16.2282 32.9705 16.3788 32.7786 16.4421 32.5531C16.5055 32.3277 16.4766 32.0868 16.3616 31.8822C16.2466 31.6776 16.0547 31.5255 15.8271 31.4588C15.5995 31.392 15.3545 31.4159 15.1445 31.5252Z" fill="#703391" stroke="#703391" stroke-width="0.5"/>
<path d="M11.1839 17.0603C11.0744 16.8529 10.8866 16.696 10.6609 16.6235C10.4353 16.551 10.1897 16.5686 9.97706 16.6726C9.76442 16.7765 9.60167 16.9585 9.52379 17.1794C9.44591 17.4003 9.45913 17.6425 9.56059 17.8539L10.6838 20.0851C10.7381 20.1933 10.8141 20.2895 10.9072 20.3678C11.0004 20.4462 11.1087 20.5052 11.2256 20.5411C11.3425 20.5771 11.4656 20.5893 11.5875 20.577C11.7094 20.5647 11.8274 20.5282 11.9345 20.4696L16.0221 18.2384C16.2276 18.1212 16.3783 17.9292 16.4416 17.7038C16.505 17.4784 16.4761 17.2375 16.3611 17.0328C16.2461 16.8282 16.0542 16.6761 15.8266 16.6094C15.599 16.5427 15.3539 16.5665 15.144 16.6759L11.8858 18.4546L11.1839 17.0603Z" fill="#703391" stroke="#703391" stroke-width="0.5"/>
<path d="M20.9406 19.4654H32.4148C32.6521 19.4608 32.8781 19.3648 33.0443 19.1978C33.2105 19.0308 33.3036 18.8063 33.3036 18.5725C33.3036 18.3387 33.2105 18.1142 33.0443 17.9472C32.8781 17.7803 32.652 17.6842 32.4147 17.6797H20.9406C20.7033 17.6842 20.4773 17.7803 20.3111 17.9473C20.1449 18.1142 20.0518 18.3387 20.0518 18.5725C20.0518 18.8064 20.1449 19.0309 20.3111 19.1978C20.4773 19.3648 20.7033 19.4608 20.9406 19.4654Z" fill="#703391" stroke="#703391" stroke-width="0.5"/>
<path d="M20.9406 26.8912H28.9308C29.1681 26.8866 29.3942 26.7905 29.5604 26.6236C29.7266 26.4566 29.8197 26.2321 29.8197 25.9983C29.8197 25.7645 29.7266 25.54 29.5603 25.373C29.3941 25.2061 29.1681 25.11 28.9308 25.1055H20.9406C20.7033 25.11 20.4773 25.2061 20.3111 25.373C20.1449 25.54 20.0518 25.7645 20.0518 25.9983C20.0518 26.2322 20.1449 26.4567 20.3111 26.6236C20.4773 26.7905 20.7033 26.8866 20.9406 26.8912Z" fill="#703391" stroke="#703391" stroke-width="0.5"/>
<path d="M20.9406 34.315H27.3827C27.62 34.3104 27.8461 34.2144 28.0123 34.0474C28.1785 33.8805 28.2716 33.6559 28.2716 33.4221C28.2716 33.1883 28.1784 32.9638 28.0122 32.7969C27.846 32.6299 27.62 32.5338 27.3826 32.5293H20.9406C20.7033 32.5339 20.4773 32.6299 20.3111 32.7969C20.1449 32.9638 20.0518 33.1883 20.0518 33.4222C20.0518 33.656 20.1449 33.8805 20.3111 34.0474C20.4773 34.2144 20.7033 34.3104 20.9406 34.315Z" fill="#703391" stroke="#703391" stroke-width="0.5"/>
<path d="M47.1062 6.22044C46.6588 5.96503 46.1635 5.8014 45.6502 5.73937C45.1369 5.67735 44.6162 5.71822 44.1194 5.85952C43.6225 6.00082 43.1598 6.23964 42.7591 6.56162C42.3583 6.8836 42.0278 7.28208 41.7874 7.73311V3.67878C41.7866 2.96861 41.4999 2.28776 40.9901 1.7856C40.4803 1.28344 39.7892 1.00099 39.0682 1.00022C33.1382 0.999546 19.89 1.0007 13.8567 1.00022H3.71916C2.99824 1.00099 2.30706 1.28344 1.79729 1.7856C1.28752 2.28776 1.00079 2.96861 1 3.67878V48.3214C1.00079 49.0316 1.28752 49.7125 1.79729 50.2146C2.30706 50.7168 2.99824 50.9992 3.71916 51H39.0682C39.7892 50.9992 40.4803 50.7168 40.9901 50.2146C41.4999 49.7125 41.7866 49.0316 41.7874 48.3214V22.6444L48.4809 11.3666C48.9904 10.5044 49.1319 9.47823 48.8741 8.51341C48.6164 7.54859 47.9806 6.72392 47.1062 6.22044ZM46.198 7.7655C46.5151 7.94967 46.7743 8.21651 46.9472 8.53661C47.1201 8.85671 47.1998 9.21762 47.1777 9.57954L44.1055 7.81012C44.4163 7.61356 44.7761 7.50537 45.1454 7.49749C45.5146 7.48962 45.8789 7.58236 46.198 7.7655ZM36.4757 28.0561C35.6139 27.556 33.8724 26.5602 33.0104 26.061L42.9939 9.23867L46.4593 11.2345L36.4757 28.0561ZM15.6695 8.91121H27.1179C27.5068 8.90661 27.8903 8.82145 28.2436 8.66128C28.5969 8.5011 28.912 8.26949 29.1684 7.9815C29.4249 7.69351 29.6169 7.35558 29.7321 6.98968C29.8473 6.62379 29.8831 6.2381 29.8371 5.8577H35.0533C35.5362 5.85818 35.9993 6.04739 36.3408 6.3838C36.6823 6.72022 36.8744 7.17637 36.8749 7.65213V16.0108L30.9878 25.9304C30.9337 26.0409 30.8941 26.1578 30.8701 26.2783L30.046 33.2824C30.0399 33.4126 30.0601 33.5427 30.1053 33.6652C30.1505 33.7877 30.2198 33.9001 30.3094 33.9961C30.3989 34.092 30.5068 34.1696 30.6269 34.2243C30.7469 34.279 30.8768 34.3098 31.009 34.3148C31.2005 34.3148 31.3871 34.2549 31.5419 34.1439L36.8749 30.3278V44.3481C36.8744 44.8238 36.6823 45.28 36.3408 45.6164C35.9993 45.9528 35.5362 46.142 35.0532 46.1425H7.73416C7.25119 46.142 6.78813 45.9528 6.44661 45.6164C6.1051 45.28 5.91302 44.8238 5.91254 44.3481V7.65215C5.91302 7.17638 6.1051 6.72024 6.44661 6.38382C6.78813 6.0474 7.25119 5.8582 7.73416 5.85772H12.9503C12.9043 6.23811 12.9401 6.62378 13.0553 6.98967C13.1705 7.35555 13.3626 7.69346 13.619 7.98144C13.8755 8.26943 14.1906 8.50104 14.5438 8.66122C14.8971 8.8214 15.2806 8.90658 15.6695 8.91121ZM32.511 27.842L35.1452 29.3588L32.0738 31.556L32.511 27.842ZM39.9746 3.67878V10.7876L38.6876 12.9562V7.65215C38.6865 6.70297 38.3033 5.79299 37.6219 5.12182C36.9406 4.45065 36.0168 4.0731 35.0532 4.07201H29.8371V2.78592H39.0682C39.3086 2.78608 39.539 2.8802 39.709 3.04761C39.8789 3.21502 39.9745 3.44203 39.9746 3.67878ZM28.0243 2.78592V6.23265C28.0241 6.4694 27.9286 6.69641 27.7587 6.86382C27.5887 7.03122 27.3583 7.12534 27.1179 7.1255H15.6695C15.4291 7.12534 15.1987 7.03122 15.0287 6.86382C14.8588 6.69641 14.7633 6.4694 14.7631 6.23265V2.78592H28.0243ZM39.9746 48.3214C39.9745 48.5582 39.8789 48.7852 39.709 48.9526C39.539 49.12 39.3086 49.2141 39.0682 49.2143H3.71916C3.47882 49.2141 3.24837 49.12 3.07843 48.9526C2.90848 48.7852 2.81293 48.5582 2.81277 48.3214V3.67878C2.81293 3.44202 2.90848 3.21502 3.07843 3.04761C3.24837 2.8802 3.47882 2.78608 3.71916 2.78592H12.9503V4.07201H7.73416C6.7706 4.07311 5.84682 4.45065 5.16548 5.12182C4.48414 5.79299 4.10088 6.70298 4.09977 7.65215V44.3481C4.10088 45.2972 4.48414 46.2072 5.16548 46.8784C5.84682 47.5496 6.7706 47.9271 7.73416 47.9282H35.0532C36.0168 47.9271 36.9406 47.5496 37.6219 46.8784C38.3033 46.2072 38.6865 45.2972 38.6876 44.3481V27.8672L39.9746 25.6988V48.3214Z" fill="#703391" stroke="#703391" stroke-width="0.5"/>
</svg>
