<svg width="52" height="50" viewBox="0 0 52 50" fill="none" xmlns="http://www.w3.org/2000/svg">
<path d="M15.8415 25.7683H1.78045C1.34826 25.7683 1 25.4245 1 25.0024V21.9368C1 17.71 4.50366 14.2695 8.81307 14.2695C13.1203 14.2695 16.6261 17.7078 16.6261 21.9368V25.0024C16.624 25.4265 16.2737 25.7683 15.8415 25.7683ZM2.56084 24.2365H15.0606V21.9368C15.0606 18.5541 12.2576 15.8033 8.81044 15.8033C5.36328 15.8033 2.5603 18.5539 2.5603 21.9368L2.56084 24.2365Z" fill="#703391" stroke="#703391" stroke-width="0.6"/>
<path d="M33.028 19.6355H18.967C18.5348 19.6355 18.1865 19.2916 18.1865 18.8696V15.804C18.1865 11.5771 21.6902 8.13672 25.9996 8.13672C30.3068 8.13672 33.8127 11.575 33.8127 15.804V18.8696C33.8106 19.2937 33.4602 19.6355 33.028 19.6355ZM19.7474 18.1037H32.2471V15.804C32.2471 12.4212 29.4441 9.67048 25.997 9.67048C22.5498 9.67048 19.7468 12.4211 19.7468 15.804L19.7474 18.1037Z" fill="#703391" stroke="#703391" stroke-width="0.6"/>
<path d="M25.9983 9.66713C23.8436 9.66713 22.0918 7.948 22.0918 5.83357C22.0918 3.71913 23.8436 2 25.9983 2C28.1529 2 29.9048 3.71913 29.9048 5.83357C29.9048 7.948 28.1529 9.66713 25.9983 9.66713ZM25.9983 3.53366C24.7059 3.53366 23.6548 4.56513 23.6548 5.83341C23.6548 7.10169 24.7059 8.13316 25.9983 8.13316C27.2907 8.13316 28.3418 7.10169 28.3418 5.83341C28.3418 4.56513 27.2907 3.53366 25.9983 3.53366Z" fill="#703391" stroke="#703391" stroke-width="0.6"/>
<path d="M8.81078 15.8039C6.65613 15.8039 4.9043 14.0847 4.9043 11.9703C4.9043 9.85585 6.65613 8.13672 8.81078 8.13672C10.9654 8.13672 12.7173 9.85585 12.7173 11.9703C12.7173 14.0827 10.9654 15.8039 8.81078 15.8039ZM8.81078 9.67038C7.51843 9.67038 6.46729 10.7018 6.46729 11.9701C6.46729 13.2384 7.51838 14.2699 8.81078 14.2699C10.1032 14.2699 11.1543 13.2384 11.1543 11.9701C11.1543 10.7018 10.1032 9.67038 8.81078 9.67038Z" fill="#703391" stroke="#703391" stroke-width="0.6"/>
<path d="M43.1848 15.8039C41.0302 15.8039 39.2783 14.0847 39.2783 11.9703C39.2783 9.85585 41.0302 8.13672 43.1848 8.13672C45.3395 8.13672 47.0913 9.85585 47.0913 11.9703C47.0913 14.0827 45.3395 15.8039 43.1848 15.8039ZM43.1848 9.67038C41.8925 9.67038 40.8413 10.7018 40.8413 11.9701C40.8413 13.2384 41.8924 14.2699 43.1848 14.2699C44.4772 14.2699 45.5283 13.2384 45.5283 11.9701C45.5283 10.7018 44.4772 9.67038 43.1848 9.67038Z" fill="#703391" stroke="#703391" stroke-width="0.6"/>
<path d="M28.3413 48H23.6544C23.2222 48 22.8739 47.6561 22.8739 47.2341V46.0214C22.1543 45.8114 21.4578 45.5273 20.7969 45.1752L19.9241 46.0317C19.7772 46.1758 19.5779 46.2561 19.3723 46.2561C19.1646 46.2561 18.9674 46.1758 18.8206 46.0317L15.5057 42.7787C15.3589 42.6346 15.277 42.439 15.277 42.2372C15.277 42.0334 15.3589 41.8399 15.5057 41.6958L16.3785 40.8393C16.0197 40.1887 15.7323 39.5072 15.5162 38.801H14.2804C13.8483 38.801 13.5 38.4572 13.5 38.0351V33.4356C13.5 33.0115 13.8504 32.6698 14.2804 32.6698H15.5162C15.7302 31.9636 16.0197 31.28 16.3785 30.6315L15.5057 29.775C15.3589 29.6309 15.277 29.4353 15.277 29.2335C15.277 29.0297 15.3589 28.8362 15.5057 28.6921L18.8206 25.4391C18.9675 25.295 19.1668 25.2147 19.3723 25.2147C19.58 25.2147 19.7773 25.295 19.9241 25.4391L20.7969 26.2956C21.4599 25.9435 22.1543 25.6594 22.8739 25.4494V24.2346C22.8739 23.8105 23.2243 23.4688 23.6544 23.4688H28.3413C28.7735 23.4688 29.1218 23.8126 29.1218 24.2346V25.4473C29.8414 25.6573 30.5379 25.9414 31.1988 26.2935L32.0716 25.437C32.2185 25.2929 32.4178 25.2126 32.6234 25.2126C32.8311 25.2126 33.0283 25.2929 33.1751 25.437L36.49 28.69C36.6368 28.8341 36.7187 29.0297 36.7187 29.2315C36.7187 29.4353 36.6368 29.6288 36.49 29.7729L35.6172 30.6294C35.976 31.28 36.2655 31.9615 36.4795 32.6677H37.7153C38.1474 32.6677 38.4957 33.0115 38.4957 33.4336V38.0331C38.4957 38.4572 38.1453 38.799 37.7153 38.799H36.4795C36.2655 39.5051 35.976 40.1887 35.6172 40.8372L36.49 41.6937C36.6368 41.8378 36.7187 42.0334 36.7187 42.2352C36.7187 42.439 36.6368 42.6325 36.49 42.7766L33.1751 46.0296C33.0282 46.1737 32.8289 46.254 32.6234 46.254C32.4157 46.254 32.2184 46.1737 32.0716 46.0296L31.1988 45.1731C30.5358 45.5252 29.8414 45.8093 29.1218 46.0193L29.1239 47.2341C29.1218 47.6561 28.7735 48 28.3413 48ZM24.4349 46.4661H27.5588V45.4326C27.5588 45.0764 27.8085 44.7676 28.1609 44.6872C29.1344 44.4608 30.0618 44.084 30.9177 43.5652C31.2261 43.3778 31.6247 43.4231 31.8807 43.6743L32.6255 44.4052L34.8347 42.2372L34.0899 41.5063C33.834 41.2551 33.7878 40.8639 33.9787 40.5613C34.5074 39.7233 34.8914 38.8133 35.1222 37.8559C35.2061 37.5101 35.5208 37.265 35.8817 37.265L36.9348 37.2671V34.2015H35.8817C35.5187 34.2015 35.204 33.9565 35.1222 33.6106C34.8914 32.6553 34.5075 31.7452 33.9787 30.9053C33.7878 30.6026 33.834 30.2114 34.0899 29.9602L34.8347 29.2293L32.6255 27.0614L31.8807 27.7922C31.6248 28.0434 31.2261 28.0887 30.9177 27.9014C30.0638 27.3825 29.1365 27.0058 28.1609 26.7793C27.8085 26.6969 27.5588 26.3881 27.5588 26.034L27.5609 25.0004H24.437V26.034C24.437 26.3901 24.1873 26.699 23.8348 26.7793C22.8613 27.0058 21.934 27.3825 21.078 27.9014C20.7696 28.0887 20.371 28.0434 20.115 27.7922L19.3703 27.0614L17.161 29.2293L17.9058 29.9602C18.1618 30.2114 18.2079 30.6026 18.017 30.9053C17.4883 31.7432 17.1044 32.6532 16.8736 33.6106C16.7897 33.9565 16.475 34.2015 16.1141 34.2015L15.0609 34.1994V37.265H16.1141C16.4771 37.265 16.7917 37.51 16.8736 37.8559C17.1044 38.8113 17.4883 39.7213 18.017 40.5613C18.2079 40.8639 18.1618 41.2551 17.9058 41.5063L17.161 42.2372L19.3703 44.4052L20.115 43.6743C20.371 43.4231 20.7696 43.3778 21.078 43.5652C21.9319 44.084 22.8593 44.4608 23.8348 44.6872C24.1873 44.7696 24.437 45.0784 24.437 45.4326L24.4349 46.4661Z" fill="#703391" stroke="#703391" stroke-width="0.6"/>
<path d="M25.9976 43.4009C21.6904 43.4009 18.1846 39.9626 18.1846 35.7336C18.1846 31.5068 21.6882 28.0664 25.9976 28.0664C30.3048 28.0664 33.8107 31.5047 33.8107 35.7336C33.8107 39.9605 30.305 43.4009 25.9976 43.4009ZM25.9976 29.6002C22.5506 29.6002 19.7475 32.3508 19.7475 35.7336C19.7475 39.1165 22.5505 41.8671 25.9976 41.8671C29.4448 41.8671 32.2478 39.1165 32.2478 35.7336C32.2478 32.353 29.4448 29.6002 25.9976 29.6002Z" fill="#703391" stroke="#703391" stroke-width="0.6"/>
<path d="M14.2805 36.4949H8.81072C8.37853 36.4949 8.03027 36.1511 8.03027 35.729V24.9964C8.03027 24.5722 8.38064 24.2305 8.81072 24.2305C9.24291 24.2305 9.59117 24.5743 9.59117 24.9964V34.9632H14.2782C14.7103 34.9632 15.0586 35.307 15.0586 35.7291C15.0607 36.1532 14.7105 36.4949 14.2805 36.4949Z" fill="#703391" stroke="#703391" stroke-width="0.6"/>
<path d="M50.2155 25.7683H36.1545C35.7223 25.7683 35.374 25.4245 35.374 25.0024V21.9368C35.374 17.71 38.8777 14.2695 43.1871 14.2695C47.4943 14.2695 51.0002 17.7078 51.0002 21.9368V25.0024C50.9981 25.4265 50.6477 25.7683 50.2155 25.7683ZM36.9349 24.2365H49.4346V21.9368C49.4346 18.5541 46.6316 15.8033 43.1845 15.8033C39.7373 15.8033 36.9343 18.5539 36.9343 21.9368L36.9349 24.2365Z" fill="#703391" stroke="#703391" stroke-width="0.6"/>
<path d="M43.1848 36.4949H37.715C37.2828 36.4949 36.9346 36.1511 36.9346 35.7291C36.9346 35.3049 37.2849 34.9632 37.715 34.9632H42.402L42.4041 24.9964C42.4041 24.5722 42.7545 24.2305 43.1845 24.2305C43.6167 24.2305 43.965 24.5743 43.965 24.9964V35.729C43.965 36.1531 43.6169 36.4949 43.1848 36.4949Z" fill="#703391" stroke="#703391" stroke-width="0.6"/>
<path d="M25.9982 24.9971C25.566 24.9971 25.2178 24.6532 25.2178 24.2312V18.8635C25.2178 18.4394 25.5681 18.0977 25.9982 18.0977C26.4304 18.0977 26.7787 18.4415 26.7787 18.8635V24.2312C26.7787 24.6532 26.4304 24.9971 25.9982 24.9971Z" fill="#703391" stroke="#703391" stroke-width="0.6"/>
</svg>
