<svg width="50" height="50" viewBox="0 0 50 50" fill="none" xmlns="http://www.w3.org/2000/svg">
<path d="M48.3333 20H46.065C45.5333 17.74 44.6517 15.61 43.4317 13.6383L45.035 12.0367C45.3483 11.7233 45.5233 11.3 45.5233 10.8583C45.5233 10.4167 45.3483 9.99167 45.035 9.68L40.3217 4.96667C39.67 4.315 38.6167 4.315 37.965 4.96667L36.36 6.56667C34.39 5.34833 32.26 4.46667 30 3.935V1.66667C30 0.746667 29.255 0 28.3333 0H21.6667C20.745 0 20 0.746667 20 1.66667V3.935C17.74 4.46667 15.6083 5.34833 13.64 6.56667L12.0367 4.965C11.385 4.31333 10.3317 4.31333 9.68 4.965L4.965 9.68C4.65333 9.99167 4.47833 10.4167 4.47833 10.8583C4.47833 11.3 4.65333 11.725 4.96667 12.0367L6.57 13.6383C5.34833 15.61 4.46833 17.74 3.935 20H1.66667C0.745 20 0 20.7467 0 21.6667V25C0 25.92 0.745 26.6667 1.66667 26.6667C2.58833 26.6667 3.33333 25.92 3.33333 25V23.3333H5.3C6.11333 23.3333 6.80833 22.745 6.94333 21.9433C7.405 19.1967 8.45667 16.655 10.0683 14.39C10.54 13.7267 10.465 12.82 9.89 12.245L8.50167 10.8583L10.8583 8.50167L12.2467 9.89C12.8217 10.465 13.7283 10.5417 14.3917 10.0683C16.6533 8.45833 19.195 7.40667 21.9433 6.94333C22.745 6.80833 23.3333 6.11333 23.3333 5.3V3.33333H26.6667V5.3C26.6667 6.11333 27.255 6.80833 28.0567 6.94333C30.805 7.405 33.3467 8.45667 35.6083 10.0683C36.2717 10.54 37.1767 10.465 37.7533 9.89L39.1417 8.50167L41.4983 10.8583L40.11 12.2467C39.5333 12.8217 39.4583 13.7283 39.9317 14.3917C41.5433 16.655 42.595 19.1967 43.0567 21.945C43.1917 22.745 43.8867 23.3333 44.7 23.3333H46.6667V25C46.6667 25.92 47.4117 26.6667 48.3333 26.6667C49.255 26.6667 50 25.92 50 25V21.6667C50 20.7467 49.255 20 48.3333 20Z" fill="#703391"/>
<path d="M43.3332 26.6667C43.2298 26.6667 43.1415 26.7067 43.0432 26.725C42.5432 25.2633 41.3932 24.1167 39.9298 23.6183C39.2298 15.9933 32.8065 10 24.9998 10C17.1932 10 10.7698 15.9933 10.0698 23.6183C8.6065 24.115 7.4565 25.2617 6.9565 26.725C6.85817 26.7067 6.76984 26.6667 6.6665 26.6667C3.90984 26.6667 1.6665 28.91 1.6665 31.6667V35C1.6665 37.7567 3.90984 40 6.6665 40C6.76984 40 6.85817 39.96 6.9565 39.9417C7.62984 41.9083 9.4765 43.3333 11.6665 43.3333C14.4232 43.3333 16.6665 41.09 16.6665 38.3333V28.3333C16.6665 26.1933 15.3098 24.3783 13.4148 23.6667C14.0798 17.86 19.0198 13.3333 24.9998 13.3333C30.9798 13.3333 35.9198 17.86 36.5848 23.6667C34.6898 24.3783 33.3332 26.1933 33.3332 28.3333V38.3333C33.3332 40.4317 34.6365 42.225 36.4748 42.9667C35.8965 45.0917 33.9715 46.6667 31.6665 46.6667H26.6665C25.7448 46.6667 24.9998 47.4133 24.9998 48.3333C24.9998 49.2533 25.7448 50 26.6665 50H31.6665C35.7815 50 39.1865 46.995 39.8582 43.07C41.3548 42.585 42.5348 41.4267 43.0432 39.9417C43.1415 39.96 43.2298 40 43.3332 40C46.0898 40 48.3332 37.7567 48.3332 35V31.6667C48.3332 28.91 46.0898 26.6667 43.3332 26.6667ZM6.6665 36.6667C5.7465 36.6667 4.99984 35.9183 4.99984 35V31.6667C4.99984 30.7483 5.7465 30 6.6665 30V36.6667ZM13.3332 38.3333C13.3332 39.2517 12.5865 40 11.6665 40C10.7465 40 9.99984 39.2517 9.99984 38.3333V28.3333C9.99984 27.415 10.7465 26.6667 11.6665 26.6667C12.5865 26.6667 13.3332 27.415 13.3332 28.3333V38.3333ZM39.9998 38.3333C39.9998 39.2517 39.2532 40 38.3332 40C37.4132 40 36.6665 39.2517 36.6665 38.3333V28.3333C36.6665 27.415 37.4132 26.6667 38.3332 26.6667C39.2532 26.6667 39.9998 27.415 39.9998 28.3333V38.3333ZM44.9998 35C44.9998 35.9183 44.2532 36.6667 43.3332 36.6667V30C44.2532 30 44.9998 30.7483 44.9998 31.6667V35Z" fill="#703391"/>
</svg>
