<svg width="52" height="48" viewBox="0 0 52 48" fill="none" xmlns="http://www.w3.org/2000/svg">
<path d="M20.3047 39.3359H2.89844V11.8675H44.0391V15.3848C44.0391 15.9132 44.4609 16.347 44.9922 16.347C45.5156 16.347 45.9453 15.9211 45.9453 15.3848V1.96214C45.9453 1.43375 45.5234 1 44.9922 1H1.95312C1.42188 1.00789 1 1.43375 1 1.96214V40.298C1 40.8264 1.42188 41.2602 1.95312 41.2602H20.3047C20.8281 41.2602 21.2578 40.8343 21.2578 40.298C21.2578 39.7618 20.8281 39.3359 20.3047 39.3359ZM2.89844 2.92429H44.0391V9.95109H2.89844V2.92429Z" fill="#703391" stroke="#703391"/>
<path d="M9.54687 5.47852H6.38281C5.85937 5.47852 5.42969 5.90438 5.42969 6.44066C5.42969 6.96905 5.85156 7.4028 6.38281 7.4028H9.54687C10.0703 7.4028 10.5 6.97693 10.5 6.44066C10.4922 5.90438 10.0703 5.47852 9.54687 5.47852Z" fill="#703391" stroke="#703391"/>
<path d="M16.5078 5.47852H13.3438C12.8203 5.47852 12.3906 5.90438 12.3906 6.44066C12.3906 6.96905 12.8125 7.4028 13.3438 7.4028H16.5078C17.0313 7.4028 17.4609 6.97693 17.4609 6.44066C17.4531 5.90438 17.0313 5.47852 16.5078 5.47852Z" fill="#703391" stroke="#703391"/>
<path d="M35.8125 25.2832C32.3203 25.2832 29.4844 28.146 29.4844 31.6712C29.4844 35.1964 32.3203 38.0592 35.8125 38.0592C39.3047 38.0592 42.1406 35.1964 42.1406 31.6712C42.1406 28.146 39.3047 25.2832 35.8125 25.2832ZM35.8125 36.1428C33.3672 36.1428 31.3828 34.1397 31.3828 31.6712C31.3828 29.2028 33.3672 27.1996 35.8125 27.1996C38.2578 27.1996 40.2422 29.2028 40.2422 31.6712C40.2422 34.1397 38.2578 36.1428 35.8125 36.1428Z" fill="#703391" stroke="#703391"/>
<path d="M50.1875 28.2524L46.5703 27.7003C46.3828 27.1246 46.1562 26.5726 45.8906 26.0363L48.0703 23.0552C48.3672 22.6688 48.3281 22.1167 47.9766 21.7776L44.9609 18.7335C44.625 18.3786 44.0781 18.3391 43.6953 18.6388L40.75 20.8313C40.2188 20.571 39.6719 20.3581 39.1094 20.1767L38.5625 16.5332C38.5 16.06 38.1016 15.7051 37.625 15.7051H33.3594C32.8906 15.7051 32.4922 16.0521 32.4219 16.5253L31.875 20.1767C31.3047 20.366 30.75 20.5947 30.2109 20.8707L27.2656 18.6783C26.8828 18.3786 26.3359 18.418 26 18.7729L22.9844 21.8171C22.6328 22.1562 22.5938 22.7082 22.8906 23.0947L25.0703 26.0757C24.8125 26.5962 24.5938 27.1404 24.4141 27.7003L20.7813 28.2524C20.3203 28.3312 19.9844 28.7256 19.9844 29.1987V33.5047C19.9844 33.9779 20.3281 34.3801 20.7969 34.4511L24.4453 35.0031C24.6328 35.5631 24.8594 36.1151 25.125 36.6356L22.9297 39.6404C22.6328 40.0268 22.6719 40.5788 23.0234 40.918L26.0391 43.9621C26.375 44.317 26.9219 44.3564 27.3047 44.0568L30.2891 41.8328C30.8047 42.093 31.3438 42.3217 31.8984 42.5031L32.4531 46.2098C32.5312 46.6593 32.9062 46.9905 33.3594 46.9984H37.625C38.0938 46.9984 38.4922 46.6514 38.5625 46.1782L39.1172 42.4716C39.6719 42.2902 40.2031 42.0615 40.7266 41.8012L43.7109 44.0252C44.0938 44.3249 44.6406 44.2855 44.9766 43.9306L47.9922 40.8864C48.3438 40.5473 48.3828 39.9953 48.0859 39.6088L45.8906 36.6041C46.1562 36.0836 46.3828 35.5473 46.5703 34.9953L50.2188 34.4432C50.6719 34.3565 51 33.9621 51 33.4968V29.1909C51 28.7256 50.6562 28.3233 50.1875 28.2524ZM49.1016 32.6767L45.6641 33.1972C45.2891 33.2524 44.9922 33.5284 44.8906 33.8912C44.6719 34.7114 44.3438 35.5 43.9219 36.2334C43.7344 36.5647 43.7578 36.9748 43.9766 37.2823L46.0469 40.1135L44.1875 41.9905L41.3672 39.8927C41.0625 39.664 40.6562 39.6483 40.3281 39.8375C39.6016 40.2555 38.8281 40.5867 38.0156 40.7997C37.6563 40.9022 37.3828 41.2019 37.3281 41.5804L36.8047 45.0741H34.1719L33.6484 41.5804C33.5938 41.2019 33.3203 40.9022 32.9609 40.7997C32.1563 40.5788 31.375 40.2555 30.6484 39.8375C30.3203 39.6483 29.9141 39.6719 29.6094 39.8927L26.7891 41.9905L24.9297 40.1135L27.0078 37.2823C27.2344 36.9748 27.25 36.5647 27.0625 36.2334C26.6406 35.5 26.3125 34.7114 26.0938 33.8912C25.9922 33.5284 25.6953 33.2524 25.3203 33.1972L21.8828 32.6767V30.0189L25.3047 29.4984C25.6797 29.4432 25.9844 29.1672 26.0859 28.7965C26.3047 27.9685 26.6328 27.1719 27.0547 26.4227C27.2422 26.0915 27.2187 25.6814 27 25.3738L24.9531 22.5663L26.8125 20.6893L29.5859 22.7555C29.8906 22.9842 30.2969 23 30.625 22.8107C31.3672 22.377 32.1562 22.0458 32.9844 21.8171C33.3516 21.7224 33.625 21.407 33.6797 21.0284L34.1797 17.6057H36.8125L37.3281 21.0363C37.3828 21.4148 37.6562 21.7224 38.0234 21.8249C38.8516 22.0458 39.6406 22.3849 40.3828 22.8186C40.7109 23.0079 41.1172 22.9921 41.4219 22.7634L44.1953 20.6972L46.0547 22.5742L44.0078 25.3817C43.7812 25.6893 43.7656 26.0994 43.9531 26.4306C44.375 27.1719 44.7031 27.9685 44.9219 28.8044C45.0156 29.1751 45.3281 29.4511 45.7031 29.5063L49.125 30.0268L49.1016 32.6767Z" fill="#703391" stroke="#703391"/>
</svg>
