<svg width="54" height="54" viewBox="0 0 54 54" fill="none" xmlns="http://www.w3.org/2000/svg">
<path d="M52.2 0H1.8C0.809971 0 0 0.809971 0 1.8V43.2C0 44.19 0.809971 45 1.8 45H19.6997C20.252 45 20.6997 45.4477 20.6997 46V49.4C20.6997 49.9523 20.252 50.4 19.6997 50.4H12.6C11.61 50.4 10.8 51.21 10.8 52.2C10.8 53.19 11.61 54 12.6 54H41.4C42.39 54 43.2 53.19 43.2 52.2C43.2 51.21 42.39 50.4 41.4 50.4H34.3003C33.748 50.4 33.3003 49.9523 33.3003 49.4V46C33.3003 45.4477 33.748 45 34.3003 45H52.2C53.19 45 54 44.19 54 43.2V1.8C54 0.809971 53.19 0 52.2 0ZM49.4 3.6C49.9523 3.6 50.4 4.04772 50.4 4.6V33.2C50.4 33.7523 49.9523 34.2 49.4 34.2H4.6C4.04771 34.2 3.6 33.7523 3.6 33.2V4.6C3.6 4.04772 4.04772 3.6 4.6 3.6H49.4ZM29.6997 49.4C29.6997 49.9523 29.252 50.4 28.6997 50.4H25.2997C24.7474 50.4 24.2997 49.9523 24.2997 49.4V46C24.2997 45.4477 24.7474 45 25.2997 45H28.6997C29.252 45 29.6997 45.4477 29.6997 46V49.4ZM4.6 41.4C4.04771 41.4 3.6 40.9523 3.6 40.4V38.8C3.6 38.2477 4.04772 37.8 4.6 37.8H49.4C49.9523 37.8 50.4 38.2477 50.4 38.8V40.4C50.4 40.9523 49.9523 41.4 49.4 41.4H4.6Z" fill="#703391"/>
<path d="M16.4523 23.904C16.8123 24.264 17.2803 24.444 17.7304 24.444C18.1804 24.444 18.6484 24.264 18.9904 23.922C19.6924 23.22 19.7104 22.086 19.0084 21.3841L15.1024 17.3881L19.0084 13.3921C19.7104 12.69 19.6924 11.538 18.9904 10.8541C18.2883 10.1521 17.1363 10.1701 16.4524 10.8721L11.3044 16.1281C10.6204 16.8301 10.6204 17.9461 11.3044 18.6481L16.4523 23.904Z" fill="#703391"/>
<path d="M34.992 23.9403C35.334 24.2823 35.8019 24.4623 36.252 24.4623C36.702 24.4623 37.188 24.2823 37.53 23.9223L42.678 18.6663C43.362 17.9643 43.362 16.8483 42.678 16.1463L37.53 10.8903C36.828 10.1703 35.694 10.1703 34.992 10.8723C34.29 11.5743 34.272 12.7083 34.974 13.4103L38.88 17.4063L34.974 21.4023C34.272 22.1043 34.29 23.2564 34.992 23.9403Z" fill="#703391"/>
<path d="M24.5163 27.5403C24.6603 27.5763 24.8043 27.5943 24.9483 27.5943C25.7583 27.5943 26.4963 27.0363 26.6943 26.2263L30.8162 9.4324C31.0502 8.4604 30.4562 7.4884 29.5023 7.25443C28.5483 7.02045 27.5583 7.61442 27.3243 8.5684L23.2023 25.3623C22.9683 26.3343 23.5623 27.3063 24.5163 27.5403Z" fill="#703391"/>
<path d="M41.4 28.8C41.4 29.79 42.21 30.6 43.2 30.6H45C45.9901 30.6 46.8 29.79 46.8 28.8C46.8 27.81 45.9901 27 45 27H43.2C42.21 27 41.4 27.81 41.4 28.8Z" fill="#703391"/>
<path d="M9.00001 30.6H10.8C11.79 30.6 12.6 29.79 12.6 28.8C12.6 27.81 11.79 27 10.8 27H9.00001C8.00998 27 7.20001 27.81 7.20001 28.8C7.20001 29.79 8.00998 30.6 9.00001 30.6Z" fill="#703391"/>
</svg>
