<svg width="50" height="52" viewBox="0 0 50 52" fill="none" xmlns="http://www.w3.org/2000/svg">
<path fill-rule="evenodd" clip-rule="evenodd" d="M18.4625 6.915V8.08167H31.5375V2.33333H18.4625V6.91722V6.915ZM22.0723 43.395C21.8878 43.395 21.711 43.3248 21.5806 43.1997C21.4501 43.0747 21.3769 42.9051 21.3769 42.7283C21.3769 42.5515 21.4501 42.382 21.5806 42.2569C21.711 42.1319 21.8878 42.0617 22.0723 42.0617H29.0131C29.1976 42.0617 29.3745 42.1319 29.5049 42.2569C29.6353 42.382 29.7086 42.5515 29.7086 42.7283C29.7086 42.9051 29.6353 43.0747 29.5049 43.1997C29.3745 43.3248 29.1976 43.395 29.0131 43.395H22.0723ZM22.0723 41.035C21.8878 41.035 21.711 40.9648 21.5806 40.8397C21.4501 40.7147 21.3769 40.5451 21.3769 40.3683C21.3769 40.1915 21.4501 40.022 21.5806 39.8969C21.711 39.7719 21.8878 39.7017 22.0723 39.7017H35.9528C36.1373 39.7017 36.3142 39.7719 36.4446 39.8969C36.575 40.022 36.6483 40.1915 36.6483 40.3683C36.6483 40.5451 36.575 40.7147 36.4446 40.8397C36.3142 40.9648 36.1373 41.035 35.9528 41.035H22.0723ZM22.0723 36.9189C21.9774 36.9248 21.8822 36.9119 21.7927 36.8812C21.7032 36.8504 21.6212 36.8023 21.5518 36.74C21.4824 36.6776 21.4271 36.6023 21.3893 36.5186C21.3515 36.435 21.332 36.3448 21.332 36.2536C21.332 36.1624 21.3515 36.0722 21.3893 35.9886C21.4271 35.9049 21.4824 35.8296 21.5518 35.7672C21.6212 35.7049 21.7032 35.6568 21.7927 35.6261C21.8822 35.5953 21.9774 35.5825 22.0723 35.5883H29.0131C29.1894 35.5993 29.3548 35.6741 29.4756 35.7977C29.5965 35.9212 29.6637 36.0842 29.6637 36.2536C29.6637 36.423 29.5965 36.586 29.4756 36.7096C29.3548 36.8331 29.1894 36.908 29.0131 36.9189H22.0723ZM22.0723 34.5589C21.8878 34.5589 21.711 34.4887 21.5806 34.3636C21.4501 34.2386 21.3769 34.069 21.3769 33.8922C21.3769 33.7154 21.4501 33.5458 21.5806 33.4208C21.711 33.2958 21.8878 33.2256 22.0723 33.2256H35.9528C36.1373 33.2256 36.3142 33.2958 36.4446 33.4208C36.575 33.5458 36.6483 33.7154 36.6483 33.8922C36.6483 34.069 36.575 34.2386 36.4446 34.3636C36.3142 34.4887 36.1373 34.5589 35.9528 34.5589H22.0723ZM22.0723 30.4433C21.8878 30.4433 21.711 30.3731 21.5806 30.2481C21.4501 30.123 21.3769 29.9535 21.3769 29.7767C21.3769 29.5999 21.4501 29.4303 21.5806 29.3053C21.711 29.1802 21.8878 29.11 22.0723 29.11H29.0131C29.1976 29.11 29.3745 29.1802 29.5049 29.3053C29.6353 29.4303 29.7086 29.5999 29.7086 29.7767C29.7086 29.9535 29.6353 30.123 29.5049 30.2481C29.3745 30.3731 29.1976 30.4433 29.0131 30.4433H22.0723ZM22.0723 28.0828C21.8878 28.0828 21.711 28.0125 21.5806 27.8875C21.4501 27.7625 21.3769 27.5929 21.3769 27.4161C21.3769 27.2393 21.4501 27.0697 21.5806 26.9447C21.711 26.8197 21.8878 26.7494 22.0723 26.7494H35.9528C36.1373 26.7494 36.3142 26.8197 36.4446 26.9447C36.575 27.0697 36.6483 27.2393 36.6483 27.4161C36.6483 27.5929 36.575 27.7625 36.4446 27.8875C36.3142 28.0125 36.1373 28.0828 35.9528 28.0828H22.0723ZM14.0472 39.1533H17.6575C17.842 39.1533 18.0189 39.2236 18.1493 39.3486C18.2797 39.4736 18.353 39.6432 18.353 39.82V43.2817C18.353 43.4585 18.2797 43.628 18.1493 43.7531C18.0189 43.8781 17.842 43.9483 17.6575 43.9483H14.0472C13.8627 43.9483 13.6858 43.8781 13.5554 43.7531C13.425 43.628 13.3517 43.4585 13.3517 43.2817V39.8189C13.3517 39.6421 13.425 39.4725 13.5554 39.3475C13.6858 39.2225 13.8627 39.1522 14.0472 39.1522V39.1533ZM16.9639 40.4839H14.7426V42.615H16.9656V40.4839H16.9639ZM14.0472 32.6772H17.6575C17.842 32.6772 18.0189 32.7475 18.1493 32.8725C18.2797 32.9975 18.353 33.1671 18.353 33.3439V36.8056C18.353 36.9824 18.2797 37.1519 18.1493 37.277C18.0189 37.402 17.842 37.4722 17.6575 37.4722H14.0472C13.8627 37.4722 13.6858 37.402 13.5554 37.277C13.425 37.1519 13.3517 36.9824 13.3517 36.8056V33.3428C13.3517 33.166 13.425 32.9964 13.5554 32.8714C13.6858 32.7463 13.8627 32.6761 14.0472 32.6761V32.6772ZM16.9639 34.0106H14.7426V36.1389H16.9656V34.0083L16.9639 34.0106ZM14.0472 26.2011H17.6575C17.7489 26.2011 17.8393 26.2184 17.9237 26.2519C18.008 26.2854 18.0847 26.3345 18.1493 26.3964C18.2138 26.4583 18.2651 26.5318 18.3 26.6127C18.335 26.6935 18.353 26.7802 18.353 26.8678V30.3294C18.353 30.5063 18.2797 30.6758 18.1493 30.8008C18.0189 30.9259 17.842 30.9961 17.6575 30.9961H14.0472C13.8627 30.9961 13.6858 30.9259 13.5554 30.8008C13.425 30.6758 13.3517 30.5063 13.3517 30.3294V26.8667C13.3517 26.6899 13.425 26.5203 13.5554 26.3953C13.6858 26.2702 13.8627 26.2 14.0472 26.2V26.2011ZM16.9639 27.5344H14.7426V29.665H16.9656V27.5322L16.9639 27.5344ZM26.6226 20.58L28.469 19.5556C28.5478 19.5099 28.6353 19.4799 28.7263 19.4671C28.8174 19.4543 28.9102 19.4591 28.9994 19.4812C29.0885 19.5032 29.1721 19.5421 29.2453 19.5956C29.3186 19.6491 29.3799 19.716 29.4258 19.7925C29.4717 19.869 29.5012 19.9535 29.5125 20.0411C29.5239 20.1287 29.5169 20.2175 29.4919 20.3025C29.467 20.3874 29.4246 20.4667 29.3673 20.5357C29.3099 20.6048 29.2388 20.6621 29.158 20.7044L27.3128 21.7261C27.4421 22.258 27.3676 22.8167 27.1031 23.3004C26.8386 23.7841 26.4015 24.1606 25.8717 24.3613C25.3418 24.5619 24.7544 24.5734 24.2164 24.3935C23.6785 24.2137 23.2259 23.8546 22.941 23.3816C22.6562 22.9086 22.5581 22.3533 22.6647 21.8168C22.7712 21.2803 23.0753 20.7983 23.5215 20.4587C23.9677 20.1192 24.5264 19.9446 25.0956 19.9669C25.6648 19.9891 26.2068 20.2067 26.6226 20.58ZM33.09 14.4544C31.485 12.9215 29.4421 11.8789 27.2193 11.4583C24.9966 11.0377 22.6937 11.2579 20.6014 12.0912C18.5092 12.9245 16.7214 14.3335 15.4639 16.1402C14.2064 17.9469 13.5355 20.0703 13.536 22.2422C13.536 22.419 13.6093 22.5886 13.7397 22.7136C13.8701 22.8387 14.047 22.9089 14.2314 22.9089H17.9728C18.0641 22.9089 18.1545 22.8916 18.2389 22.8581C18.3233 22.8246 18.4 22.7755 18.4645 22.7136C18.5291 22.6517 18.5803 22.5782 18.6153 22.4973C18.6502 22.4165 18.6682 22.3298 18.6682 22.2422C18.6682 20.6318 19.3356 19.0873 20.5234 17.9485C21.7113 16.8098 23.3224 16.17 25.0023 16.17C26.6822 16.17 28.2933 16.8098 29.4812 17.9485C30.6691 19.0873 31.3364 20.6318 31.3364 22.2422C31.3364 22.3298 31.3544 22.4165 31.3894 22.4973C31.4243 22.5782 31.4755 22.6517 31.5401 22.7136C31.6047 22.7755 31.6813 22.8246 31.7657 22.8581C31.8501 22.8916 31.9405 22.9089 32.0318 22.9089H35.7732C35.9576 22.9089 36.1345 22.8387 36.2649 22.7136C36.3953 22.5886 36.4686 22.419 36.4686 22.2422C36.4707 20.7947 36.1734 19.3611 35.594 18.0244C35.0146 16.6877 34.1645 15.4743 33.0929 14.4544H33.09ZM32.6003 15.8989C34.0438 17.4834 34.9057 19.4778 35.054 21.5767H32.6913C32.5526 20.0768 31.9377 18.6536 30.9296 17.4989L32.5986 15.8989H32.6003ZM29.9479 16.5556C28.7432 15.5893 27.2588 14.9997 25.6943 14.8661V12.6056C27.8837 12.7475 29.9642 13.5738 31.6169 14.9578L29.9479 16.5556ZM24.3046 14.8683C22.7407 15.0015 21.2567 15.5903 20.0521 16.5556L18.3831 14.9556C20.0358 13.5726 22.1158 12.7471 24.3046 12.6056V14.8683ZM19.071 17.5C18.0625 18.6546 17.4474 20.0778 17.3087 21.5778H14.9477C15.096 19.4789 15.9579 17.4845 17.4014 15.9L19.071 17.5ZM25.6954 21.5739C25.5576 21.442 25.382 21.3521 25.191 21.3158C24.9999 21.2795 24.8019 21.2983 24.622 21.3698C24.442 21.4413 24.2883 21.5624 24.1801 21.7177C24.0719 21.8729 24.0141 22.0555 24.0141 22.2422C24.0141 22.429 24.0719 22.6115 24.1801 22.7668C24.2883 22.9221 24.442 23.0431 24.622 23.1146C24.8019 23.1862 24.9999 23.205 25.191 23.1686C25.382 23.1323 25.5576 23.0425 25.6954 22.9106C25.7871 22.8228 25.8598 22.7187 25.9094 22.604C25.959 22.4893 25.9845 22.3664 25.9845 22.2422C25.9845 22.1181 25.959 21.9951 25.9094 21.8805C25.8598 21.7658 25.7871 21.6616 25.6954 21.5739ZM17.0745 7.58278V8.745C17.0745 8.83255 17.0925 8.91924 17.1275 9.00012C17.1624 9.08101 17.2136 9.1545 17.2782 9.2164C17.3428 9.27831 17.4195 9.32742 17.5038 9.36092C17.5882 9.39442 17.6786 9.41167 17.77 9.41167H32.2318C32.3231 9.41167 32.4135 9.39442 32.4979 9.36092C32.5823 9.32742 32.6589 9.27831 32.7235 9.2164C32.7881 9.1545 32.8393 9.08101 32.8743 9.00012C32.9092 8.91924 32.9272 8.83255 32.9272 8.745V7.58278H39.372V46.7067H10.628V7.58278H17.0745ZM32.9255 6.24944V4.62056H41.1297C41.5221 4.62216 41.8981 4.77235 42.1756 5.0384C42.4531 5.30446 42.6098 5.66485 42.6115 6.04111V48.2478C42.6093 48.6237 42.4525 48.9837 42.175 49.2494C41.8975 49.5151 41.5218 49.6651 41.1297 49.6667H8.87034C8.47775 49.6651 8.10173 49.5148 7.82419 49.2486C7.54664 48.9824 7.39004 48.6219 7.38852 48.2456V6.04111C7.3902 5.66485 7.54685 5.30446 7.82439 5.0384C8.10192 4.77235 8.47785 4.62216 8.87034 4.62056H17.0745V6.25167H9.93259C9.74816 6.25167 9.57127 6.3219 9.44086 6.44693C9.31044 6.57195 9.23717 6.74152 9.23717 6.91833V47.3717C9.23717 47.5485 9.31044 47.718 9.44086 47.8431C9.57127 47.9681 9.74816 48.0383 9.93259 48.0383H40.0674C40.1587 48.0383 40.2492 48.0211 40.3335 47.9876C40.4179 47.9541 40.4946 47.905 40.5591 47.8431C40.6237 47.7812 40.6749 47.7077 40.7099 47.6268C40.7448 47.5459 40.7628 47.4592 40.7628 47.3717V6.91722C40.7628 6.82967 40.7448 6.74298 40.7099 6.6621C40.6749 6.58122 40.6237 6.50772 40.5591 6.44582C40.4946 6.38391 40.4179 6.33481 40.3335 6.3013C40.2492 6.2678 40.1587 6.25056 40.0674 6.25056L32.9255 6.24944ZM17.7682 1H32.2318C32.4162 1 32.5931 1.07024 32.7235 1.19526C32.8539 1.32029 32.9272 1.48986 32.9272 1.66667V3.28944H41.1297C41.8904 3.2912 42.6194 3.58168 43.1573 4.09733C43.6952 4.61299 43.9982 5.31186 44 6.04111V48.2478C43.9983 48.9771 43.6954 49.6761 43.1575 50.1919C42.6196 50.7077 41.8905 50.9982 41.1297 51H8.87034C8.10964 50.9982 7.38063 50.7078 6.84273 50.1921C6.30484 49.6765 6.00184 48.9776 6 48.2483V6.04111C6.00184 5.31186 6.30484 4.61299 6.84273 4.09733C7.38063 3.58168 8.10964 3.2912 8.87034 3.28944H17.0745V1.66667C17.0745 1.49014 17.1476 1.32083 17.2776 1.19585C17.4077 1.07087 17.5841 1.00044 17.7682 1Z" fill="#703391" stroke="#703391" stroke-width="0.5"/>
</svg>
