<svg width="52" height="52" viewBox="0 0 52 52" fill="none" xmlns="http://www.w3.org/2000/svg">
<path d="M47.875 1H4.125C3.2962 1 2.50134 1.32924 1.91529 1.91529C1.32924 2.50134 1 3.2962 1 4.125L1 39.5417C1 40.3705 1.32924 41.1653 1.91529 41.7514C2.50134 42.3374 3.2962 42.6667 4.125 42.6667H19.4583L17.8958 48.9167H16.625C16.3487 48.9167 16.0838 49.0264 15.8884 49.2218C15.6931 49.4171 15.5833 49.6821 15.5833 49.9583C15.5833 50.2346 15.6931 50.4995 15.8884 50.6949C16.0838 50.8903 16.3487 51 16.625 51H35.375C35.6513 51 35.9162 50.8903 36.1116 50.6949C36.3069 50.4995 36.4167 50.2346 36.4167 49.9583C36.4167 49.6821 36.3069 49.4171 36.1116 49.2218C35.9162 49.0264 35.6513 48.9167 35.375 48.9167H34.1042L32.5417 42.6667H47.875C48.7038 42.6667 49.4987 42.3374 50.0847 41.7514C50.6708 41.1653 51 40.3705 51 39.5417V4.125C51 3.2962 50.6708 2.50134 50.0847 1.91529C49.4987 1.32924 48.7038 1 47.875 1ZM3.08333 11.4167H48.9167V34.3333H3.08333V11.4167ZM4.125 3.08333H47.875C48.1513 3.08333 48.4162 3.19308 48.6116 3.38843C48.8069 3.58378 48.9167 3.84873 48.9167 4.125V9.33333H3.08333V4.125C3.08333 3.84873 3.19308 3.58378 3.38843 3.38843C3.58378 3.19308 3.84873 3.08333 4.125 3.08333ZM31.9583 48.9167H20.0417L21.6042 42.6667H30.3958L31.9583 48.9167ZM47.875 40.5833H4.125C3.84873 40.5833 3.58378 40.4736 3.38843 40.2782C3.19308 40.0829 3.08333 39.8179 3.08333 39.5417V36.4167H48.9167V39.5417C48.9167 39.8179 48.8069 40.0829 48.6116 40.2782C48.4162 40.4736 48.1513 40.5833 47.875 40.5833Z" fill="#703391" stroke="#703391" stroke-width="0.5"/>
<path d="M6.20835 7.2513C6.48462 7.2513 6.74957 7.14156 6.94492 6.9462C7.14027 6.75085 7.25002 6.4859 7.25002 6.20964C7.25002 5.93337 7.14027 5.66842 6.94492 5.47307C6.74957 5.27772 6.48462 5.16797 6.20835 5.16797C5.93209 5.16797 5.66713 5.27772 5.47178 5.47307C5.27643 5.66842 5.16669 5.93337 5.16669 6.20964C5.16669 6.4859 5.27643 6.75085 5.47178 6.9462C5.66713 7.14156 5.93209 7.2513 6.20835 7.2513Z" fill="#703391" stroke="#703391" stroke-width="0.5"/>
<path d="M10.375 7.2513C10.6512 7.2513 10.9162 7.14156 11.1115 6.9462C11.3069 6.75085 11.4166 6.4859 11.4166 6.20964C11.4166 5.93337 11.3069 5.66842 11.1115 5.47307C10.9162 5.27772 10.6512 5.16797 10.375 5.16797C10.0987 5.16797 9.83376 5.27772 9.63841 5.47307C9.44306 5.66842 9.33331 5.93337 9.33331 6.20964C9.33331 6.4859 9.44306 6.75085 9.63841 6.9462C9.83376 7.14156 10.0987 7.2513 10.375 7.2513Z" fill="#703391" stroke="#703391" stroke-width="0.5"/>
<path d="M14.5417 7.2513C14.8179 7.2513 15.0829 7.14156 15.2782 6.9462C15.4736 6.75085 15.5833 6.4859 15.5833 6.20964C15.5833 5.93337 15.4736 5.66842 15.2782 5.47307C15.0829 5.27772 14.8179 5.16797 14.5417 5.16797C14.2654 5.16797 14.0004 5.27772 13.8051 5.47307C13.6097 5.66842 13.5 5.93337 13.5 6.20964C13.5 6.4859 13.6097 6.75085 13.8051 6.9462C14.0004 7.14156 14.2654 7.2513 14.5417 7.2513Z" fill="#703391" stroke="#703391" stroke-width="0.5"/>
<path d="M17.7291 27.043C17.8625 28.1441 18.2168 29.207 18.7708 30.168L15.1666 32.2513C14.2459 30.6577 13.6942 28.8779 13.5521 27.043H17.7291Z" fill="#703391" stroke="#703391" stroke-width="0.5"/>
<path d="M16.4479 17.918L19.4167 20.8971C18.4978 22.0741 17.9146 23.478 17.7292 24.9596H13.5C13.7243 22.3624 14.7551 19.9004 16.4479 17.918Z" fill="#703391" stroke="#703391" stroke-width="0.5"/>
<path d="M17.9167 16.4479C19.8991 14.7551 22.3612 13.7243 24.9584 13.5V17.6667C23.4767 17.8521 22.0729 18.4353 20.8959 19.3542L17.9167 16.4479Z" fill="#703391" stroke="#703391" stroke-width="0.5"/>
<path d="M34.0834 16.4479L31.1042 19.4167C29.9272 18.4978 28.5234 17.9146 27.0417 17.7292V13.5C29.6389 13.7243 32.1009 14.7551 34.0834 16.4479Z" fill="#703391" stroke="#703391" stroke-width="0.5"/>
<path d="M34.2709 27.043H38.4375C38.2954 28.8779 37.7436 30.6577 36.8229 32.2513L33.1979 30.168C33.7629 29.2094 34.1279 28.1464 34.2709 27.043Z" fill="#703391" stroke="#703391" stroke-width="0.5"/>
<path d="M34.2708 24.9596C34.0854 23.478 33.5022 22.0741 32.5833 20.8971L35.5521 17.918C37.2449 19.9004 38.2756 22.3624 38.5 24.9596H34.2708Z" fill="#703391" stroke="#703391" stroke-width="0.5"/>
<path d="M13.5 15.5833H7.24998C6.97371 15.5833 6.70876 15.4736 6.51341 15.2782C6.31806 15.0829 6.20831 14.8179 6.20831 14.5417C6.20831 14.2654 6.31806 14.0004 6.51341 13.8051C6.70876 13.6097 6.97371 13.5 7.24998 13.5H13.5C13.7762 13.5 14.0412 13.6097 14.2365 13.8051C14.4319 14.0004 14.5416 14.2654 14.5416 14.5417C14.5416 14.8179 14.4319 15.0829 14.2365 15.2782C14.0412 15.4736 13.7762 15.5833 13.5 15.5833Z" fill="#703391" stroke="#703391" stroke-width="0.5"/>
<path d="M11.4166 19.7513H7.24998C6.97371 19.7513 6.70876 19.6416 6.51341 19.4462C6.31806 19.2509 6.20831 18.9859 6.20831 18.7096C6.20831 18.4334 6.31806 18.1684 6.51341 17.9731C6.70876 17.7777 6.97371 17.668 7.24998 17.668H11.4166C11.6929 17.668 11.9579 17.7777 12.1532 17.9731C12.3486 18.1684 12.4583 18.4334 12.4583 18.7096C12.4583 18.9859 12.3486 19.2509 12.1532 19.4462C11.9579 19.6416 11.6929 19.7513 11.4166 19.7513Z" fill="#703391" stroke="#703391" stroke-width="0.5"/>
<path d="M44.75 15.5833H38.5C38.2237 15.5833 37.9588 15.4736 37.7634 15.2782C37.5681 15.0829 37.4583 14.8179 37.4583 14.5417C37.4583 14.2654 37.5681 14.0004 37.7634 13.8051C37.9588 13.6097 38.2237 13.5 38.5 13.5H44.75C45.0262 13.5 45.2912 13.6097 45.4866 13.8051C45.6819 14.0004 45.7916 14.2654 45.7916 14.5417C45.7916 14.8179 45.6819 15.0829 45.4866 15.2782C45.2912 15.4736 45.0262 15.5833 44.75 15.5833Z" fill="#703391" stroke="#703391" stroke-width="0.5"/>
<path d="M44.75 19.7513H40.5834C40.3071 19.7513 40.0421 19.6416 39.8468 19.4462C39.6514 19.2509 39.5417 18.9859 39.5417 18.7096C39.5417 18.4334 39.6514 18.1684 39.8468 17.9731C40.0421 17.7777 40.3071 17.668 40.5834 17.668H44.75C45.0263 17.668 45.2912 17.7777 45.4866 17.9731C45.6819 18.1684 45.7917 18.4334 45.7917 18.7096C45.7917 18.9859 45.6819 19.2509 45.4866 19.4462C45.2912 19.6416 45.0263 19.7513 44.75 19.7513Z" fill="#703391" stroke="#703391" stroke-width="0.5"/>
<path d="M28.0833 26.2487L30.1667 21.832C22.7604 25.3737 32.0208 20.9258 24.5313 24.5299C24.2417 24.8213 24.0446 25.1917 23.965 25.5947C23.8853 25.9976 23.9265 26.4152 24.0835 26.7948C24.2405 27.1744 24.5061 27.4991 24.8471 27.7282C25.1881 27.9572 25.5892 28.0803 26 28.082C26.5516 28.0797 27.0798 27.8587 27.4688 27.4674C27.8047 27.1417 28.0211 26.7124 28.0833 26.2487Z" fill="#703391" stroke="#703391" stroke-width="0.5"/>
</svg>
