<svg width="50" height="50" viewBox="0 0 50 50" fill="none" xmlns="http://www.w3.org/2000/svg">
<path fill-rule="evenodd" clip-rule="evenodd" d="M29.8041 29.8041C30.3329 29.2751 31.1307 29.1216 31.8182 29.4163L48.8914 36.7333C49.5226 37.0038 49.9492 37.6053 49.9958 38.2907C50.0424 38.976 49.7009 39.6297 49.1119 39.9831L45.0233 42.4363L48.2448 45.6577C48.9589 46.3721 48.9589 47.5304 48.2448 48.2448C47.5304 48.9589 46.3721 48.9589 45.6577 48.2448L42.4363 45.0233L39.9831 49.1119C39.6297 49.7009 38.976 50.0424 38.2907 49.9958C37.6053 49.9492 37.0038 49.5226 36.7333 48.8914L29.4163 31.8182C29.1216 31.1307 29.2751 30.3329 29.8041 29.8041ZM34.5804 34.5804L38.6868 44.1619L40.5046 41.1321C40.6589 40.8746 40.8746 40.6589 41.1321 40.5046L44.1619 38.6868L34.5804 34.5804Z" fill="#703391"/>
<path fill-rule="evenodd" clip-rule="evenodd" d="M13.4146 17.6829C13.4146 14.6521 15.8716 12.1951 18.9024 12.1951H27.439C28.4493 12.1951 29.2683 13.0141 29.2683 14.0244C29.2683 15.0346 28.4493 15.8536 27.439 15.8536H18.9024C17.8922 15.8536 17.0732 16.6726 17.0732 17.6829C17.0732 18.6932 17.8922 19.5122 18.9024 19.5122H23.7805C26.8112 19.5122 29.2683 21.9693 29.2683 25C29.2683 28.0307 26.8112 30.4878 23.7805 30.4878H15.2439C14.2336 30.4878 13.4146 29.6688 13.4146 28.6585C13.4146 27.6483 14.2336 26.8293 15.2439 26.8293H23.7805C24.7907 26.8293 25.6097 26.0102 25.6097 25C25.6097 23.9897 24.7907 23.1707 23.7805 23.1707H18.9024C15.8716 23.1707 13.4146 20.7136 13.4146 17.6829Z" fill="#703391"/>
<path fill-rule="evenodd" clip-rule="evenodd" d="M21.3415 26.8293C22.3517 26.8293 23.1707 27.6483 23.1707 28.6585V34.7561C23.1707 35.7663 22.3517 36.5853 21.3415 36.5853C20.3312 36.5853 19.5122 35.7663 19.5122 34.7561V28.6585C19.5122 27.6483 20.3312 26.8293 21.3415 26.8293Z" fill="#703391"/>
<path fill-rule="evenodd" clip-rule="evenodd" d="M21.3415 6.09756C22.3517 6.09756 23.1707 6.91656 23.1707 7.92682V14.0244C23.1707 15.0346 22.3517 15.8536 21.3415 15.8536C20.3312 15.8536 19.5122 15.0346 19.5122 14.0244V7.92682C19.5122 6.91656 20.3312 6.09756 21.3415 6.09756Z" fill="#703391"/>
<path fill-rule="evenodd" clip-rule="evenodd" d="M19.5122 1.82927C19.5122 0.819 20.3312 0 21.3415 0C33.128 0 42.6829 9.5549 42.6829 21.3415C42.6829 26.3866 40.93 31.0273 38.0014 34.6807C37.3695 35.469 36.2183 35.5958 35.43 34.9639C34.6417 34.3319 34.5149 33.1807 35.1468 32.3924C37.5739 29.3649 39.0244 25.5251 39.0244 21.3415C39.0244 11.5755 31.1075 3.65853 21.3415 3.65853C20.3312 3.65853 19.5122 2.83953 19.5122 1.82927ZM13.4873 3.38073C13.9775 4.26412 13.6587 5.37761 12.7754 5.8678C7.33441 8.88697 3.65853 14.6862 3.65853 21.3415C3.65853 31.1075 11.5755 39.0244 21.3415 39.0244C25.5251 39.0244 29.3649 37.5739 32.3924 35.1468C33.1807 34.5149 34.3319 34.6417 34.9639 35.43C35.5958 36.2183 35.469 37.3695 34.6807 38.0014C31.0273 40.93 26.3866 42.6829 21.3415 42.6829C9.5549 42.6829 0 33.128 0 21.3415C0 13.3039 4.444 6.30683 11.0002 2.66878C11.8836 2.17858 12.9971 2.49734 13.4873 3.38073Z" fill="#703391"/>
</svg>
