<svg width="39" height="51" viewBox="0 0 39 51" fill="none" xmlns="http://www.w3.org/2000/svg">
<path d="M31.4688 50.7297H1.78125C1.3498 50.7297 1 50.3794 1 49.9473V1.43673C1 1.00463 1.3498 0.654297 1.78125 0.654297H31.4688C31.9002 0.654297 32.25 1.00463 32.25 1.43673V49.9473C32.25 50.3794 31.9002 50.7297 31.4688 50.7297ZM2.5625 49.1649H30.6875V2.21915H2.5625V49.1649Z" fill="#703391" stroke="#703391" stroke-width="0.5"/>
<path d="M18.1875 22.5615H15.0625C14.6311 22.5615 14.2812 22.2112 14.2812 21.7791V20.6384C13.8435 20.5005 13.4192 20.3243 13.0116 20.1109L12.2058 20.918C11.9007 21.2235 11.4061 21.2235 11.101 20.918L8.89102 18.7047C8.58584 18.3992 8.58584 17.9038 8.89102 17.5983L9.69688 16.7912C9.48379 16.3829 9.30791 15.9581 9.17021 15.5196H8.03125C7.5998 15.5196 7.25 15.1693 7.25 14.7372V11.6075C7.25 11.1754 7.5998 10.8251 8.03125 10.8251H9.17031C9.254 10.5587 9.35215 10.2967 9.46416 10.0402L8.60508 9.29082C8.27979 9.00699 8.2457 8.51289 8.529 8.187L10.5808 5.827C10.7168 5.67042 10.9095 5.57448 11.1161 5.5602C11.3227 5.54553 11.5268 5.61438 11.6831 5.75081L12.5424 6.50048C13.0885 6.16394 13.6699 5.89821 14.2812 5.70612V4.56563C14.2812 4.13354 14.6311 3.7832 15.0625 3.7832H18.1875C18.6189 3.7832 18.9688 4.13354 18.9688 4.56563V5.70631C19.4065 5.84422 19.8308 6.02036 20.2384 6.23377L21.0442 5.42669C21.3494 5.12116 21.8439 5.12116 22.1491 5.42669L24.3591 7.63999C24.6642 7.94553 24.6642 8.4409 24.3591 8.74644L23.5531 9.55361C23.7662 9.96175 23.9421 10.3867 24.0798 10.8251H25.2188C25.6502 10.8251 26 11.1754 26 11.6075V14.7372C26 15.1693 25.6502 15.5196 25.2188 15.5196H24.0797C23.996 15.7859 23.8979 16.048 23.7858 16.3045L24.6449 17.054C24.9703 17.3378 25.0044 17.8319 24.721 18.1578L22.6692 20.5178C22.5331 20.6743 22.3406 20.7703 22.1339 20.7846C21.9271 20.7989 21.7231 20.7303 21.5669 20.594L20.7076 19.8443C20.1614 20.1809 19.5799 20.4466 18.9687 20.6387V21.7791C18.9687 22.2112 18.6189 22.5615 18.1875 22.5615ZM15.8438 20.9966H17.4062V20.0401C17.4062 19.675 17.6585 19.3583 18.014 19.2772C18.8461 19.0873 19.6181 18.7346 20.3084 18.229C20.603 18.0133 21.0075 18.0304 21.2828 18.2706L22.0041 18.8998L23.0298 17.72L22.3093 17.0914C22.0344 16.8516 21.9615 16.4533 22.1339 16.1315C22.3998 15.6352 22.5972 15.1078 22.7207 14.5636C22.8016 14.2074 23.1177 13.9546 23.4825 13.9546H24.4375V12.3897H23.4824C23.1178 12.3897 22.8016 12.1371 22.7206 11.7809C22.5643 11.093 22.2939 10.4401 21.9169 9.83998C21.7228 9.53083 21.7679 9.12836 22.0257 8.87006L22.7019 8.19297L21.5967 7.08632L20.9206 7.76342C20.6627 8.02162 20.2607 8.067 19.9521 7.87237C19.3529 7.49475 18.7009 7.22393 18.0141 7.06735C17.6585 6.98627 17.4062 6.66968 17.4062 6.30448V5.34806H15.8437V6.30458C15.8437 6.66968 15.5914 6.98637 15.2359 7.06745C14.4038 7.25738 13.6318 7.61006 12.9415 8.11571C12.6468 8.33136 12.2424 8.31415 11.9671 8.07414L11.2458 7.44487L10.2203 8.62448L10.9408 9.25306C11.2157 9.49288 11.2885 9.89123 11.1161 10.213C10.8503 10.7092 10.6528 11.2366 10.5293 11.7809C10.4484 12.1371 10.1322 12.3899 9.76748 12.3899H8.8125V13.9548H9.76758C10.1322 13.9548 10.4484 14.2074 10.5293 14.5636C10.6856 15.2515 10.9561 15.9044 11.3331 16.5045C11.5273 16.8137 11.4821 17.2162 11.2243 17.4744L10.5482 18.1515L11.6533 19.2583L12.3294 18.5812C12.5874 18.3228 12.9895 18.2778 13.2979 18.4722C13.897 18.8498 14.549 19.1207 15.2358 19.2772C15.5914 19.3583 15.8438 19.6749 15.8438 20.0401V20.9966Z" fill="#703391" stroke="#703391" stroke-width="0.5"/>
<path d="M28.3438 27.2563H12.7188C12.2873 27.2563 11.9375 26.9059 11.9375 26.4738C11.9375 26.0417 12.2873 25.6914 12.7188 25.6914H28.3438C28.7752 25.6914 29.125 26.0417 29.125 26.4738C29.125 26.9059 28.7752 27.2563 28.3438 27.2563Z" fill="#703391" stroke="#703391" stroke-width="0.5"/>
<path d="M28.3438 35.0805H12.7188C12.2873 35.0805 11.9375 34.7301 11.9375 34.2981C11.9375 33.866 12.2873 33.5156 12.7188 33.5156H28.3438C28.7752 33.5156 29.125 33.866 29.125 34.2981C29.125 34.7301 28.7752 35.0805 28.3438 35.0805Z" fill="#703391" stroke="#703391" stroke-width="0.5"/>
<path d="M28.3438 43.6879H12.7188C12.2873 43.6879 11.9375 43.3376 11.9375 42.9055C11.9375 42.4734 12.2873 42.123 12.7188 42.123H28.3438C28.7752 42.123 29.125 42.4734 29.125 42.9055C29.125 43.3376 28.7752 43.6879 28.3438 43.6879Z" fill="#703391" stroke="#703391" stroke-width="0.5"/>
<path d="M28.3438 47.6H12.7188C12.2873 47.6 11.9375 47.2497 11.9375 46.8176C11.9375 46.3855 12.2873 46.0352 12.7188 46.0352H28.3438C28.7752 46.0352 29.125 46.3855 29.125 46.8176C29.125 47.2497 28.7752 47.6 28.3438 47.6Z" fill="#703391" stroke="#703391" stroke-width="0.5"/>
<path d="M28.3438 38.9926H12.7188C12.2873 38.9926 11.9375 38.6423 11.9375 38.2102C11.9375 37.7781 12.2873 37.4277 12.7188 37.4277H28.3438C28.7752 37.4277 29.125 37.7781 29.125 38.2102C29.125 38.6423 28.7752 38.9926 28.3438 38.9926Z" fill="#703391" stroke="#703391" stroke-width="0.5"/>
<path d="M28.3438 30.3871H12.7188C12.2873 30.3871 11.9375 30.0368 11.9375 29.6047C11.9375 29.1726 12.2873 28.8223 12.7188 28.8223H28.3438C28.7752 28.8223 29.125 29.1726 29.125 29.6047C29.125 30.0368 28.7752 30.3871 28.3438 30.3871Z" fill="#703391" stroke="#703391" stroke-width="0.5"/>
<path d="M16.625 17.8677C14.0403 17.8677 11.9375 15.7617 11.9375 13.1731C11.9375 10.5845 14.0403 8.47852 16.625 8.47852C19.2097 8.47852 21.3125 10.5845 21.3125 13.1731C21.3125 15.7617 19.2097 17.8677 16.625 17.8677ZM16.625 10.0434C14.9019 10.0434 13.5 11.4473 13.5 13.1731C13.5 14.8988 14.9019 16.3028 16.625 16.3028C18.3481 16.3028 19.75 14.8988 19.75 13.1731C19.75 11.4473 18.3481 10.0434 16.625 10.0434Z" fill="#703391" stroke="#703391" stroke-width="0.5"/>
<path d="M6.33461 31.1682C6.11547 31.1682 5.9062 31.0761 5.75805 30.9136L4.32963 29.3488C4.03852 29.0299 4.06069 28.5351 4.37905 28.2434C4.6975 27.9519 5.19165 27.9741 5.48276 28.293L6.31078 29.1999L8.99633 26.0087C9.27446 25.6781 9.76743 25.6363 10.0972 25.9146C10.4271 26.1932 10.4692 26.6868 10.1911 27.0171L6.93198 30.8899C6.78706 31.0621 6.57514 31.1634 6.35034 31.1679C6.34516 31.1681 6.33989 31.1682 6.33461 31.1682Z" fill="#703391" stroke="#703391" stroke-width="0.5"/>
<path d="M6.33461 38.9925C6.11547 38.9925 5.9062 38.9004 5.75805 38.7379L4.32963 37.173C4.03852 36.8541 4.06069 36.3593 4.37905 36.0677C4.6975 35.776 5.19165 35.7983 5.48276 36.1173L6.31078 37.0242L8.99633 33.833C9.27446 33.5024 9.76743 33.4604 10.0972 33.7389C10.4271 34.0174 10.4692 34.511 10.1911 34.8413L6.93198 38.7141C6.78706 38.8864 6.57514 38.9877 6.35034 38.9922C6.34516 38.9924 6.33989 38.9925 6.33461 38.9925Z" fill="#703391" stroke="#703391" stroke-width="0.5"/>
<path d="M6.33461 47.5998C6.11547 47.5998 5.9062 47.5077 5.75805 47.3453L4.32963 45.7804C4.03852 45.4615 4.06069 44.9667 4.37905 44.675C4.6975 44.3834 5.19165 44.4056 5.48276 44.7246L6.31078 45.6315L8.99633 42.4403C9.27446 42.1098 9.76743 42.0679 10.0972 42.3462C10.4271 42.6248 10.4692 43.1184 10.1911 43.4487L6.93198 47.3215C6.78706 47.4937 6.57514 47.595 6.35034 47.5995C6.34516 47.5997 6.33989 47.5998 6.33461 47.5998Z" fill="#703391" stroke="#703391" stroke-width="0.5"/>
<path d="M36.1562 50.7293C35.82 50.7293 35.5214 50.5138 35.415 50.1943L33.8525 45.4997C33.8261 45.4199 33.8125 45.3363 33.8125 45.2523V12.3903C33.8125 11.0959 34.864 10.043 36.1562 10.043C37.4485 10.043 38.5 11.0959 38.5 12.3903V45.2523C38.5 45.3363 38.4864 45.4199 38.46 45.4997L36.8975 50.1943C36.7911 50.5138 36.4925 50.7293 36.1562 50.7293ZM35.375 45.1252L36.1562 47.4725L36.9375 45.1252V12.3903C36.9375 11.9588 36.587 11.6078 36.1562 11.6078C35.7255 11.6078 35.375 11.9588 35.375 12.3903V45.1252Z" fill="#703391" stroke="#703391" stroke-width="0.5"/>
<path d="M37.7188 16.3031H34.5938C34.1623 16.3031 33.8125 15.9528 33.8125 15.5207C33.8125 15.0886 34.1623 14.7383 34.5938 14.7383H37.7188C38.1502 14.7383 38.5 15.0886 38.5 15.5207C38.5 15.9528 38.1502 16.3031 37.7188 16.3031Z" fill="#703391" stroke="#703391" stroke-width="0.5"/>
<path d="M37.7188 45.2524H34.5938C34.1623 45.2524 33.8125 44.902 33.8125 44.4699C33.8125 44.0378 34.1623 43.6875 34.5938 43.6875H37.7188C38.1502 43.6875 38.5 44.0378 38.5 44.4699C38.5 44.902 38.1502 45.2524 37.7188 45.2524Z" fill="#703391" stroke="#703391" stroke-width="0.5"/>
</svg>
