<svg width="44" height="54" viewBox="0 0 44 54" fill="none" xmlns="http://www.w3.org/2000/svg">
<path d="M22.0001 0L27.5734 2.592L30.7707 4.03324C31.4564 4.33862 32.0541 4.59559 32.5674 4.81531L33.9717 5.37393L36.5164 6.31241C38.478 7.01255 40.975 7.85793 44 8.856V28.4636C44 35.8523 37.5687 44.1087 27.4524 50.7637L26.3964 51.449C25.9198 51.7469 24.4531 52.5997 22.0001 54L17.7468 51.5644L17.5928 51.4713C6.83851 44.7455 -0.0437901 36.1577 0.000209732 28.4636V8.856L3.15719 7.80579L6.99984 6.48372C8.6865 5.88786 10.0212 5.39255 11.0002 4.99034L13.0021 4.13379L16.8668 2.39834C18.3665 1.70938 20.0788 0.90869 22.0038 0.00372409L22.0001 0ZM22.0001 4.10028L19.4884 5.27338L16.0528 6.84497C14.5311 7.53021 13.3028 8.06276 12.3715 8.44634C11.0002 9.00497 9.0165 9.73117 6.40951 10.6287L3.66686 11.556V28.4859C3.63753 34.2472 9.11917 41.5241 18.4985 47.6466L19.6535 48.384L21.9854 49.7284L24.3211 48.3691L24.4604 48.2835C34.0854 42.2057 39.908 34.9324 40.3114 29.1041L40.3334 28.4636V11.556L35.684 9.96207L33.3594 9.11669L31.6287 8.44634L30.6131 8.01807L29.3994 7.48924C28.2994 7.0051 26.9941 6.41669 25.4761 5.71655L22.0001 4.10028ZM33.55 16.416L36.146 19.049L20.5884 34.8505L11.5135 25.6332L14.1058 23.0003L20.5884 29.5808L33.55 16.416Z" fill="#703391"/>
</svg>
