<svg width="50" height="46" viewBox="0 0 50 46" fill="none" xmlns="http://www.w3.org/2000/svg">
<path d="M45.3125 0H4.6875C3.4443 0 2.25201 0.501353 1.37294 1.39377C0.49386 2.28618 0 3.49656 0 4.75862V41.2414C0 42.5034 0.49386 43.7138 1.37294 44.6062C2.25201 45.4986 3.4443 46 4.6875 46H45.3125C46.5557 46 47.748 45.4986 48.6271 44.6062C49.5061 43.7138 50 42.5034 50 41.2414V4.75862C50 3.49656 49.5061 2.28618 48.6271 1.39377C47.748 0.501353 46.5557 0 45.3125 0ZM4.6875 3.17241H45.3125C45.7269 3.17241 46.1243 3.33953 46.4174 3.637C46.7104 3.93447 46.875 4.33793 46.875 4.75862V9.51724H3.125V4.75862C3.125 4.33793 3.28962 3.93447 3.58265 3.637C3.87567 3.33953 4.2731 3.17241 4.6875 3.17241ZM14.6016 36.7683L12.5938 34.7221L15.7969 31.4703L17.8125 33.5086C18.0512 33.7503 18.3604 33.9072 18.6941 33.9558C19.0278 34.0044 19.3681 33.9421 19.6641 33.7783C20.2911 33.4344 20.9507 33.1554 21.6328 32.9455C21.9517 32.8456 22.2307 32.6446 22.4289 32.372C22.6272 32.0994 22.7342 31.7695 22.7344 31.4307V28.5517H27.2656V31.4307C27.2658 31.7695 27.3728 32.0994 27.5711 32.372C27.7693 32.6446 28.0483 32.8456 28.3672 32.9455C29.0493 33.1554 29.7089 33.4344 30.3359 33.7783C30.6319 33.9421 30.9722 34.0044 31.3059 33.9558C31.6396 33.9072 31.9488 33.7503 32.1875 33.5086L34.2031 31.4703L37.4062 34.7221L35.3984 36.7683C35.1641 37.0134 35.014 37.3287 34.9703 37.6673C34.9267 38.006 34.9919 38.3499 35.1562 38.6479C35.4778 39.2906 35.7393 39.9623 35.9375 40.6545C36.0373 40.9767 36.2359 41.2582 36.5043 41.458C36.7727 41.6577 37.0969 41.7652 37.4297 41.7648H40.2578V42.8276H9.71875V41.7648H12.5469C12.8836 41.7703 13.2131 41.6652 13.4863 41.4651C13.7594 41.265 13.9615 40.9807 14.0625 40.6545C14.2607 39.9623 14.5222 39.2906 14.8438 38.6479C15.0081 38.3499 15.0733 38.006 15.0297 37.6673C14.986 37.3287 14.8359 37.0134 14.6016 36.7683ZM45.3125 42.8276H43.4062V40.1786C43.4062 39.7579 43.2416 39.3545 42.9486 39.057C42.6556 38.7595 42.2582 38.5924 41.8438 38.5924H38.5547L38.3906 38.2038L40.7344 35.8245C41.0254 35.5273 41.1887 35.1253 41.1887 34.7062C41.1887 34.2872 41.0254 33.8851 40.7344 33.5879L35.3203 28.0917C35.0276 27.7963 34.6315 27.6305 34.2188 27.6305C33.806 27.6305 33.4099 27.7963 33.1172 28.0917L30.7734 30.471L30.3984 30.3045V26.9655C30.3984 26.5448 30.2338 26.1414 29.9408 25.8439C29.6478 25.5464 29.2503 25.3793 28.8359 25.3793H21.1719C20.7575 25.3793 20.36 25.5464 20.067 25.8439C19.774 26.1414 19.6094 26.5448 19.6094 26.9655V30.3045L19.2344 30.471L16.8906 28.0917C16.5979 27.7963 16.2019 27.6305 15.7891 27.6305C15.3763 27.6305 14.9803 27.7963 14.6875 28.0917L9.27344 33.5879C8.98242 33.8851 8.81907 34.2872 8.81907 34.7062C8.81907 35.1253 8.98242 35.5273 9.27344 35.8245L11.6172 38.2038L11.4531 38.5924H8.15625C7.74185 38.5924 7.34442 38.7595 7.0514 39.057C6.75837 39.3545 6.59375 39.7579 6.59375 40.1786V42.8276H4.6875C4.2731 42.8276 3.87567 42.6605 3.58265 42.363C3.28962 42.0655 3.125 41.6621 3.125 41.2414V12.6897H46.875V41.2414C46.875 41.6621 46.7104 42.0655 46.4174 42.363C46.1243 42.6605 45.7269 42.8276 45.3125 42.8276Z" fill="#703391"/>
<path d="M45.3125 4.75862H42.1875V7.93103H45.3125V4.75862Z" fill="#703391"/>
<path d="M40.625 4.75862H37.5V7.93103H40.625V4.75862Z" fill="#703391"/>
<path d="M35.9375 4.75862H32.8125V7.93103H35.9375V4.75862Z" fill="#703391"/>
<path d="M24.2188 4.75862H4.6875V7.93103H24.2188V4.75862Z" fill="#703391"/>
</svg>
