<svg width="52" height="52" viewBox="0 0 52 52" fill="none" xmlns="http://www.w3.org/2000/svg">
<path d="M42.666 36.7148H9.33268C8.41602 36.7148 7.66602 37.5184 7.66602 38.5006V42.072C7.66602 43.0541 8.41602 43.8577 9.33268 43.8577H42.666C43.5827 43.8577 44.3327 43.0541 44.3327 42.072V38.5006C44.3327 37.5184 43.5827 36.7148 42.666 36.7148ZM9.33268 42.072V38.5006H42.666V42.072H9.33268Z" fill="#703391" stroke="#703391"/>
<path d="M10.166 33.1417H24.3327C25.7077 33.1417 26.8327 31.9364 26.8327 30.4632V19.7489C26.8327 18.2757 25.7077 17.0703 24.3327 17.0703H10.166C8.79102 17.0703 7.66602 18.2757 7.66602 19.7489V30.4632C7.66602 31.9364 8.79102 33.1417 10.166 33.1417ZM25.166 30.2489L18.6577 25.106L25.166 19.9632V30.2489ZM23.7577 31.356H10.7327L17.241 26.2132L23.7493 31.356H23.7577ZM17.2493 23.9989L10.741 18.856H23.766L17.2577 23.9989H17.2493ZM15.841 25.106L9.33268 30.2489V19.9632L15.841 25.106Z" fill="#703391" stroke="#703391"/>
<path d="M43.5006 17.0703H30.1673C29.709 17.0703 29.334 17.4721 29.334 17.9632C29.334 18.4542 29.709 18.856 30.1673 18.856H43.5006C43.959 18.856 44.334 18.4542 44.334 17.9632C44.334 17.4721 43.959 17.0703 43.5006 17.0703Z" fill="#703391" stroke="#703391"/>
<path d="M43.5006 24.2148H30.1673C29.709 24.2148 29.334 24.6166 29.334 25.1077C29.334 25.5988 29.709 26.0006 30.1673 26.0006H43.5006C43.959 26.0006 44.334 25.5988 44.334 25.1077C44.334 24.6166 43.959 24.2148 43.5006 24.2148Z" fill="#703391" stroke="#703391"/>
<path d="M43.5006 31.3555H30.1673C29.709 31.3555 29.334 31.7573 29.334 32.2483C29.334 32.7394 29.709 33.1412 30.1673 33.1412H43.5006C43.959 33.1412 44.334 32.7394 44.334 32.2483C44.334 31.7573 43.959 31.3555 43.5006 31.3555Z" fill="#703391" stroke="#703391"/>
<path d="M46.8333 1H5.16667C2.86667 1 1 3 1 5.46429V46.5357C1 49 2.86667 51 5.16667 51H46.8333C49.1333 51 51 49 51 46.5357V5.46429C51 3 49.1333 1 46.8333 1ZM2.66667 5.46429C2.66667 3.99107 3.79167 2.78571 5.16667 2.78571H46.8333C48.2083 2.78571 49.3333 3.99107 49.3333 5.46429V11.7143H32.2333L29.15 7.58929C28.9917 7.375 28.75 7.25 28.5 7.25H2.66667V5.46429ZM46.8333 49.2143H5.16667C3.79167 49.2143 2.66667 48.0089 2.66667 46.5357V9.03571H28.1L31.1833 13.1607C31.3417 13.375 31.5833 13.5 31.8333 13.5H49.3333V46.5357C49.3333 48.0089 48.2083 49.2143 46.8333 49.2143Z" fill="#703391" stroke="#703391"/>
<path d="M44.75 8.58873C45.4404 8.58873 46 7.98911 46 7.24944C46 6.50977 45.4404 5.91016 44.75 5.91016C44.0596 5.91016 43.5 6.50977 43.5 7.24944C43.5 7.98911 44.0596 8.58873 44.75 8.58873Z" fill="#703391" stroke="#703391"/>
<path d="M39.75 8.58873C40.4404 8.58873 41 7.98911 41 7.24944C41 6.50977 40.4404 5.91016 39.75 5.91016C39.0596 5.91016 38.5 6.50977 38.5 7.24944C38.5 7.98911 39.0596 8.58873 39.75 8.58873Z" fill="#703391" stroke="#703391"/>
<path d="M34.75 8.58873C35.4404 8.58873 36 7.98911 36 7.24944C36 6.50977 35.4404 5.91016 34.75 5.91016C34.0596 5.91016 33.5 6.50977 33.5 7.24944C33.5 7.98911 34.0596 8.58873 34.75 8.58873Z" fill="#703391" stroke="#703391"/>
</svg>
