<svg width="48" height="48" viewBox="0 0 48 48" fill="none" xmlns="http://www.w3.org/2000/svg">
<path fill-rule="evenodd" clip-rule="evenodd" d="M24.0002 10.5453C31.4316 10.5453 37.4546 16.5676 37.4546 23.9991C37.4546 31.4306 31.4321 37.4549 24.0002 37.4549C16.5684 37.4549 10.5458 31.4306 10.5458 23.9991C10.5458 16.5676 16.5684 10.5453 24.0002 10.5453ZM32.4473 32.3906C34.5853 30.2389 35.9071 27.2733 35.9071 23.9991C35.9071 17.4234 30.5761 12.0946 24.0001 12.0946C17.4242 12.0946 12.0931 17.4234 12.0931 23.9991C12.0931 27.2731 13.415 30.2389 15.553 32.3906C16.6813 28.7985 20.0364 26.1923 24 26.1923C27.9638 26.1923 31.3193 28.7984 32.4473 32.3906ZM24.0002 25.2242C21.5362 25.2242 19.5227 23.2088 19.5227 20.7469C19.5227 18.2829 21.5362 16.2676 24.0002 16.2676C26.4642 16.2676 28.4777 18.2829 28.4777 20.7469C28.4777 23.2088 26.4642 25.2242 24.0002 25.2242ZM46.4389 24.7737H41.993L42.6134 25.5087C42.8881 25.8347 42.8466 26.3247 42.5186 26.5993C42.1926 26.874 41.7045 26.8325 41.4279 26.5065L39.7365 24.499C39.4934 24.2105 39.4934 23.7897 39.7365 23.5011L41.4279 21.4936C41.7045 21.1656 42.1926 21.1242 42.5186 21.3988C42.8466 21.6754 42.8881 22.1634 42.6134 22.4915L41.993 23.2245H47.2274C47.6542 23.2245 48 23.5723 48 23.999C48 35.6567 39.6713 45.3836 28.6435 47.5495C28.2246 47.6325 27.8175 47.3579 27.7345 46.939C27.6515 46.5201 27.9242 46.1131 28.3451 46.0301C38.4164 44.0522 46.0807 35.3327 46.4389 24.7737ZM23.2253 6.00672V0.774513C23.2253 0.347726 23.573 0 23.9998 0C35.658 0 45.3853 8.33036 47.5513 19.3578C47.6343 19.7766 47.3596 20.1837 46.9408 20.2667C46.5219 20.3477 46.1148 20.075 46.0318 19.6561C44.0539 9.58525 35.3343 1.92106 24.7748 1.56142V6.00713L25.5099 5.38866C25.8359 5.11401 26.3259 5.15551 26.6006 5.48152C26.8752 5.80952 26.8337 6.29756 26.5077 6.57217L24.5001 8.26354C24.2116 8.50657 23.7888 8.50657 23.5022 8.26354L21.4946 6.57217C21.1666 6.29753 21.1251 5.8095 21.3998 5.48152C21.6764 5.15551 22.1645 5.11401 22.4905 5.38866L23.2253 6.00672ZM1.56108 23.2243H6.00697L5.38848 22.4913C5.11185 22.1633 5.15335 21.6753 5.48135 21.3986C5.80738 21.124 6.29742 21.1655 6.57205 21.4935L8.26348 23.501C8.50652 23.7895 8.50652 24.2103 8.26348 24.4988L6.57205 26.5063C6.29739 26.8323 5.80736 26.8738 5.48135 26.5992C5.15334 26.3245 5.11185 25.8345 5.38848 25.5085L6.00697 24.7735H0.774545C0.345763 24.7735 0 24.4258 0 23.999C0 12.3414 8.33071 2.61443 19.3565 0.450529C19.7754 0.367545 20.1845 0.640212 20.2655 1.06105C20.3485 1.47994 20.0758 1.88696 19.6549 1.96799C9.58565 3.94585 1.91921 12.6653 1.56108 23.2243ZM23.2253 46.437V41.9913L22.4902 42.6117C22.1642 42.8863 21.6761 42.8449 21.3995 42.5169C21.1249 42.1908 21.1664 41.7028 21.4944 41.4262L23.502 39.7348C23.7885 39.4918 24.2113 39.4918 24.4998 39.7348L26.5074 41.4262C26.8335 41.7028 26.875 42.1909 26.6003 42.5169C26.3256 42.8449 25.8356 42.8863 25.5096 42.6117L24.7746 41.9913V47.2255C24.7746 47.6523 24.4268 48 24 48C12.3419 48 2.61454 39.6696 0.448525 28.6422C0.367509 28.2234 0.640194 27.8163 1.05908 27.7333C1.47797 27.6504 1.88699 27.925 1.96802 28.3439C3.94597 38.4147 12.6658 46.0788 23.2253 46.437Z" fill="#703391"/>
</svg>
