<svg width="48" height="48" viewBox="0 0 48 48" fill="none" xmlns="http://www.w3.org/2000/svg">
<g clip-path="url(#clip0_952_290)">
<path d="M23.1562 0.0935544C23.5316 0.19289 23.8858 0.33301 24.2454 0.478808C24.3493 0.519469 24.4533 0.560131 24.5604 0.602024C24.8427 0.7127 25.1244 0.824734 25.4058 0.937365C25.7042 1.05634 26.0034 1.17344 26.3024 1.29065C26.734 1.45993 27.1654 1.62968 27.5965 1.80008C28.6179 2.20369 29.6428 2.59799 30.6684 2.99089C31.17 3.18315 31.6713 3.37607 32.1727 3.5689C32.3729 3.64583 32.573 3.72277 32.7732 3.7997C33.6847 4.15007 34.5961 4.50066 35.5075 4.85123C35.812 4.96835 36.1165 5.08546 36.421 5.20256C37.3393 5.55577 38.2577 5.909 39.176 6.26241C39.3821 6.34173 39.5883 6.42103 39.7944 6.50033C40.3031 6.69601 40.8117 6.89184 41.3202 7.08802C42.2381 7.44193 43.1566 7.79397 44.078 8.13901C44.4888 8.29291 44.8993 8.44766 45.3098 8.60244C45.5037 8.67522 45.6977 8.74755 45.892 8.81938C46.1594 8.91831 46.4262 9.01877 46.693 9.11956C46.7715 9.14809 46.8499 9.17662 46.9308 9.20602C47.3818 9.37845 47.6864 9.55394 48 9.9373C48.0623 10.1717 48.0623 10.1717 48.0586 10.4061C48.0598 10.4834 48.061 10.5607 48.0623 10.6404C47.975 10.9689 47.7972 11.1455 47.5312 11.3436C47.2121 11.5042 46.8807 11.6251 46.5454 11.7475C46.4462 11.7849 46.347 11.8223 46.2448 11.8608C45.9162 11.9845 45.587 12.1064 45.2578 12.2283C45.0256 12.3154 44.7934 12.4027 44.5613 12.4901C44.1991 12.6266 43.8369 12.7629 43.4745 12.8987C42.3193 13.3317 41.1683 13.7751 40.0179 14.2207C39.4602 14.4367 38.9023 14.6521 38.3445 14.8676C38.2348 14.91 38.1251 14.9524 38.0121 14.996C36.8634 15.4399 35.714 15.8821 34.5645 16.324C34.465 16.3623 34.3655 16.4005 34.263 16.4399C33.5607 16.7099 32.8585 16.9799 32.1562 17.2498C31.9498 17.3292 31.7433 17.4085 31.5368 17.4879C31.434 17.5274 31.3311 17.567 31.2251 17.6077C31.0171 17.6877 30.8092 17.7676 30.6012 17.8476C30.0893 18.0445 29.5773 18.2412 29.0652 18.4374C28.17 18.7807 27.2757 19.1256 26.3848 19.48C26.0044 19.6313 25.6235 19.7816 25.2426 19.9318C25.0651 20.0022 24.8877 20.0732 24.7107 20.1448C24.4672 20.2433 24.2231 20.3397 23.9788 20.4358C23.9089 20.4647 23.839 20.4936 23.7669 20.5234C23.2566 20.721 22.7652 20.7928 22.2188 20.7186C21.9772 20.5418 21.8816 20.4192 21.75 20.1561C21.6661 19.3541 21.9389 18.7386 22.2455 18.0093C22.2963 17.8852 22.347 17.7609 22.3975 17.6366C22.5299 17.3116 22.6639 16.9873 22.7985 16.6632C23.0144 16.1427 23.2287 15.6215 23.4415 15.0997C23.5161 14.9178 23.5918 14.7365 23.6676 14.5551C23.7352 14.3903 23.7352 14.3903 23.8041 14.2222C23.8443 14.1254 23.8845 14.0287 23.9259 13.929C24.0278 13.68 24.0278 13.68 23.9062 13.4061C23.6662 13.2381 23.6662 13.2381 23.3657 13.0768C23.3105 13.0457 23.2552 13.0146 23.1983 12.9825C23.0207 12.8827 22.8424 12.784 22.6641 12.6854C21.9712 12.299 21.2785 11.9122 20.5972 11.5058C20.4987 11.4476 20.4002 11.3893 20.2988 11.3293C20.0613 11.1551 19.9706 11.0551 19.875 10.7811C19.8501 10.5936 19.8501 10.5936 19.8516 10.4061C19.8511 10.3442 19.8506 10.2823 19.8501 10.2186C19.8804 9.99028 19.9422 9.85308 20.0625 9.65605C20.2434 9.51946 20.2434 9.51946 20.4661 9.39238C20.549 9.34431 20.632 9.29623 20.7174 9.2467C20.8068 9.19616 20.8962 9.14562 20.9883 9.09355C21.1748 8.98584 21.3614 8.87805 21.5479 8.77019C21.6432 8.7154 21.7386 8.66061 21.8368 8.60416C22.2915 8.34091 22.7415 8.0699 23.1914 7.79863C23.3484 7.70427 23.5054 7.6099 23.6624 7.51555C23.7749 7.44781 23.8875 7.38006 24 7.3123C23.8044 6.6001 23.5462 5.92697 23.2606 5.24651C23.1718 5.03126 23.0829 4.81599 22.9942 4.6007C22.8554 4.26511 22.7161 3.92973 22.5757 3.59478C22.4394 3.26894 22.3049 2.94238 22.1708 2.61565C22.1286 2.51631 22.0864 2.41697 22.043 2.31462C21.7941 1.70397 21.5748 1.10058 21.8285 0.4568C22.1359 -0.0389124 22.6444 0.0356093 23.1562 0.0935544ZM24.4688 2.8123C24.9592 4.15469 25.4936 5.47939 26.026 6.80554C26.1468 7.10662 26.2674 7.40777 26.3881 7.70891C26.6231 8.29553 26.8584 8.88207 27.0938 9.46855C27.2534 9.47208 27.2534 9.47208 27.4163 9.47567C27.811 9.4845 28.2057 9.49389 28.6004 9.50346C28.7712 9.50752 28.9421 9.51143 29.113 9.51518C29.3585 9.52059 29.604 9.52656 29.8495 9.53264C29.926 9.53421 30.0024 9.53578 30.0812 9.53739C30.3883 9.54544 30.6443 9.55832 30.9375 9.65605C31.0296 9.93246 31.0438 10.1179 31.043 10.4061C31.0433 10.5279 31.0433 10.5279 31.0437 10.6521C31.0312 10.8748 31.0312 10.8748 30.9375 11.1561C30.5753 11.2768 30.2274 11.2717 29.8495 11.2795C29.7797 11.2812 29.71 11.283 29.6381 11.2848C29.3779 11.2912 29.1177 11.2968 28.8574 11.3025C28.2754 11.3161 27.6934 11.3296 27.0938 11.3436C26.2275 13.5092 25.3612 15.6748 24.4688 17.9061C24.6507 18.0231 24.6507 18.0231 24.8386 17.9502C24.9137 17.9213 24.9887 17.8923 25.0661 17.8625C25.1522 17.8296 25.2384 17.7968 25.3272 17.7629C25.4221 17.7259 25.5169 17.6889 25.6146 17.6508C25.7142 17.6126 25.8138 17.5744 25.9164 17.5351C26.2486 17.4075 26.5803 17.2788 26.9121 17.1502C27.1455 17.0603 27.379 16.9705 27.6124 16.8807C28.1631 16.6688 28.7134 16.4562 29.2636 16.2433C29.8998 15.9972 30.5362 15.7519 31.1726 15.5066C32.0588 15.165 32.9447 14.8229 33.8306 14.4805C35.3601 13.8894 36.8907 13.301 38.4215 12.713C39.5215 12.2903 40.6208 11.8655 41.7188 11.4373C41.7188 11.4064 41.7188 11.3754 41.7188 11.3436C41.663 11.3426 41.6072 11.3416 41.5498 11.3406C40.9704 11.3305 40.391 11.3198 39.8116 11.3087C39.5953 11.3046 39.3789 11.3007 39.1626 11.2969C38.8519 11.2915 38.5412 11.2856 38.2306 11.2795C38.1336 11.2779 38.0366 11.2763 37.9367 11.2747C37.8466 11.2729 37.7566 11.271 37.6638 11.2691C37.5844 11.2676 37.5051 11.2661 37.4234 11.2646C37.2188 11.2498 37.2188 11.2498 36.9375 11.1561C36.8454 10.8797 36.8312 10.6942 36.832 10.4061C36.8318 10.3248 36.8315 10.2436 36.8313 10.16C36.8438 9.9373 36.8438 9.9373 36.9375 9.65605C37.2061 9.56651 37.3842 9.54819 37.6638 9.54306C37.7538 9.54119 37.8439 9.53932 37.9367 9.53739C38.0337 9.53582 38.1307 9.53426 38.2306 9.53264C38.3301 9.53069 38.4296 9.52874 38.5321 9.52674C38.8501 9.5206 39.1682 9.51508 39.4863 9.50957C39.7018 9.50552 39.9174 9.50143 40.1329 9.4973C40.6615 9.48726 41.1901 9.47772 41.7188 9.46855C41.5252 9.27497 41.4158 9.22314 41.1645 9.12899C41.0877 9.09991 41.0109 9.07084 40.9317 9.04088C40.8049 8.99372 40.8049 8.99372 40.6754 8.94561C40.5863 8.91198 40.4971 8.87835 40.4052 8.8437C40.2101 8.77017 40.015 8.69685 39.8197 8.62373C39.285 8.4234 38.7509 8.22132 38.2167 8.01946C38.1044 7.97707 37.9921 7.93468 37.8764 7.89101C36.6431 7.42499 35.4132 6.95006 34.1836 6.47441C33.96 6.388 33.7365 6.30159 33.5129 6.21518C33.1773 6.08546 32.8417 5.95574 32.5061 5.82599C31.3928 5.39568 30.279 4.96679 29.1651 4.53835C28.9604 4.45963 28.7558 4.38091 28.5511 4.30217C27.9986 4.08959 27.446 3.87732 26.8933 3.66536C26.614 3.55806 26.3348 3.45029 26.0557 3.34249C25.8749 3.27292 25.694 3.20337 25.5132 3.13384C25.4294 3.10135 25.3456 3.06887 25.2593 3.0354C25.1443 2.99129 25.1443 2.99129 25.0269 2.94629C24.9596 2.92032 24.8923 2.89434 24.8229 2.86758C24.6559 2.80247 24.6559 2.80247 24.4688 2.8123ZM23.8008 9.73809C23.7122 9.79017 23.6236 9.84226 23.5323 9.89592C23.4486 9.94608 23.3649 9.99623 23.2786 10.0479C23.2012 10.094 23.1238 10.1402 23.0441 10.1877C22.9604 10.2494 22.9604 10.2494 22.875 10.3123C22.875 10.3742 22.875 10.4361 22.875 10.4998C23.0507 10.6334 23.0507 10.6334 23.2786 10.7642C23.3623 10.8144 23.4461 10.8645 23.5323 10.9162C23.6209 10.9683 23.7095 11.0204 23.8008 11.074C23.8886 11.1268 23.9765 11.1796 24.067 11.2341C24.4762 11.5122 24.4762 11.5122 24.9375 11.6248C25.3304 10.7792 25.3304 10.7792 25.2275 9.88237C25.1357 9.64822 25.0393 9.41727 24.9375 9.1873C24.5328 9.1873 24.1394 9.53453 23.8008 9.73809Z" fill="#703391"/>
<path d="M11.866 9.41564C12.0289 9.41514 12.1918 9.41456 12.3547 9.41388C12.693 9.41291 13.0313 9.41332 13.3696 9.4147C13.8027 9.41632 14.2356 9.41409 14.6686 9.41081C15.0037 9.40875 15.3387 9.40888 15.6738 9.40966C15.8336 9.40974 15.9933 9.4091 16.1531 9.40771C16.3756 9.40608 16.5979 9.40744 16.8205 9.40957C16.9185 9.40793 16.9185 9.40793 17.0185 9.40625C17.3781 9.41325 17.5233 9.46227 17.8062 9.69216C18.017 9.95896 18.0638 10.0715 18.0586 10.4062C18.0598 10.4836 18.061 10.5609 18.0623 10.6406C17.9717 10.9814 17.7999 11.1202 17.5312 11.3437C17.2452 11.4024 17.2452 11.4024 16.9223 11.4026C16.8008 11.4038 16.6793 11.4051 16.5541 11.4063C16.4219 11.4054 16.2898 11.4044 16.1576 11.4034C16.0206 11.4042 15.8836 11.4052 15.7465 11.4064C15.3856 11.4091 15.0247 11.4091 14.6638 11.4085C14.0893 11.4078 13.5148 11.4108 12.9403 11.4143C12.7416 11.4151 12.543 11.4146 12.3443 11.414C10.3891 11.4148 8.82694 11.7688 7.37658 13.1433C6.15639 14.4353 5.76991 15.9816 5.79345 17.6997C5.80937 18.2475 5.87853 18.7122 6.09374 19.2187C6.11745 19.2751 6.14115 19.3315 6.16557 19.3895C6.82806 20.9271 7.84964 22.0828 9.41564 22.7259C10.3627 23.0372 11.303 23.0766 12.2929 23.0748C12.4442 23.0751 12.4442 23.0751 12.5986 23.0754C12.9344 23.076 13.2702 23.0759 13.6061 23.0758C13.8478 23.0761 14.0895 23.0764 14.3312 23.0768C14.8507 23.0775 15.3702 23.078 15.8897 23.0783C16.7121 23.0788 17.5344 23.0804 18.3567 23.0822C18.6387 23.0828 18.9206 23.0834 19.2026 23.084C19.3082 23.0842 19.3082 23.0842 19.416 23.0844C20.2166 23.0861 21.0172 23.0876 21.8178 23.089C21.8909 23.0891 21.964 23.0893 22.0394 23.0894C23.2236 23.0915 24.4077 23.0925 25.5919 23.0932C26.8104 23.0939 28.0288 23.0961 29.2472 23.0995C29.9973 23.1016 30.7473 23.1025 31.4974 23.1019C32.0731 23.1016 32.6489 23.1032 33.2246 23.1056C33.4597 23.1062 33.6948 23.1062 33.9299 23.1055C35.445 23.1016 36.8109 23.1555 38.1797 23.8769C38.2726 23.9247 38.2726 23.9247 38.3673 23.9734C38.9519 24.2853 39.4512 24.6755 39.9375 25.125C40.0294 25.2073 40.0294 25.2073 40.1232 25.2912C41.6352 26.7132 42.3536 28.7775 42.4628 30.808C42.5184 32.8953 41.668 34.8212 40.3125 36.375C40.2628 36.4325 40.2132 36.49 40.162 36.5493C38.9462 37.8581 37.1351 38.6938 35.3541 38.7624C34.9478 38.7706 34.5416 38.7703 34.1352 38.7687C33.952 38.7694 33.7687 38.7702 33.5855 38.7712C33.0922 38.7733 32.5989 38.773 32.1056 38.7722C31.6929 38.7717 31.2803 38.7724 30.8676 38.7731C29.8947 38.7747 28.9218 38.7743 27.9488 38.7728C26.9456 38.7712 25.9423 38.7727 24.9391 38.7757C24.076 38.7782 23.2129 38.7789 22.3498 38.7781C21.835 38.7776 21.3202 38.7778 20.8054 38.7798C20.3223 38.7815 19.8392 38.7809 19.3561 38.7786C19.1788 38.7781 19.0015 38.7785 18.8242 38.7797C18.5824 38.7812 18.3407 38.7798 18.0989 38.7776C18.0286 38.7787 17.9584 38.7799 17.886 38.781C17.5163 38.7744 17.358 38.7302 17.0661 38.4953C16.8584 38.2287 16.8112 38.1142 16.8164 37.7812C16.8152 37.7039 16.814 37.6266 16.8127 37.5469C16.9042 37.2025 17.069 37.0669 17.3437 36.8437C17.6011 36.7977 17.8002 36.7807 18.0568 36.7851C18.1279 36.7844 18.199 36.7838 18.2722 36.7831C18.51 36.7815 18.7476 36.7832 18.9854 36.7849C19.1561 36.7844 19.3268 36.7837 19.4974 36.7828C19.8649 36.7814 20.2324 36.7814 20.5999 36.7825C21.182 36.7844 21.764 36.783 22.3461 36.7811C23.2678 36.7786 24.1896 36.7782 25.1114 36.7788C26.759 36.7799 28.4065 36.7775 30.0541 36.7738C30.6316 36.7726 31.2092 36.7724 31.7867 36.7732C32.1477 36.7736 32.5087 36.7732 32.8698 36.7726C33.036 36.7725 33.2022 36.7727 33.3684 36.7733C35.4633 36.7802 37.1247 36.5147 38.7418 35.0607C39.9047 33.8751 40.3598 32.2569 40.3523 30.6418C40.3336 29.9423 40.2148 29.3336 39.9375 28.6875C39.9024 28.6042 39.8674 28.521 39.8313 28.4352C39.218 27.105 38.1065 26.0082 36.7339 25.4791C35.7699 25.1635 34.8402 25.1109 33.8321 25.1127C33.6808 25.1124 33.6808 25.1124 33.5264 25.1121C33.1906 25.1115 32.8547 25.1116 32.5189 25.1117C32.2772 25.1114 32.0355 25.1111 31.7938 25.1107C31.2743 25.1099 30.7548 25.1095 30.2353 25.1092C29.4129 25.1087 28.5906 25.1071 27.7682 25.1053C27.4863 25.1047 27.2044 25.1041 26.9224 25.1035C26.852 25.1034 26.7815 25.1032 26.709 25.1031C25.9084 25.1014 25.1078 25.0999 24.3072 25.0985C24.2341 25.0983 24.1609 25.0982 24.0856 25.0981C22.9014 25.096 21.7172 25.095 20.5331 25.0943C19.3146 25.0935 18.0962 25.0914 16.8777 25.0879C16.1277 25.0859 15.3777 25.085 14.6276 25.0855C14.0519 25.0859 13.4761 25.0842 12.9003 25.0819C12.6652 25.0813 12.4301 25.0813 12.1951 25.0819C10.6802 25.0859 9.31378 25.0322 7.94531 24.3105C7.88317 24.2784 7.82104 24.2463 7.75703 24.2132C5.806 23.1682 4.58372 21.3796 3.94628 19.3121C3.37228 17.2865 3.75382 15.076 4.72997 13.2444C5.80201 11.4386 7.50006 10.1531 9.52301 9.59909C10.2983 9.40515 11.0713 9.41268 11.866 9.41564Z" fill="#703391"/>
<path d="M12.1113 28.9455C12.2313 29.0462 12.3504 29.1477 12.4687 29.2502C12.5431 29.3062 12.6174 29.3621 12.694 29.4198C14.168 30.6633 14.8771 32.5776 15.082 34.4475C15.1817 36.4629 14.5556 38.4124 13.2187 39.9377C13.0931 40.066 12.9662 40.193 12.8379 40.3186C11.8867 41.2532 11.4179 42.2409 11.3203 43.5819C11.2299 43.9589 11.0846 44.1081 10.7812 44.344C10.6575 44.344 10.5337 44.344 10.4062 44.344C10.4084 44.4075 10.4106 44.4711 10.4128 44.5366C10.4329 45.5722 10.3128 46.4151 9.65625 47.2502C8.81945 48.0291 8.08001 48.0653 6.97485 48.0412C6.2612 48.0022 5.84377 47.7718 5.36169 47.2565C4.81671 46.586 4.64326 45.995 4.66992 45.1467C4.67182 45.0304 4.67182 45.0304 4.67377 44.9118C4.67705 44.7225 4.68209 44.5332 4.6875 44.344C4.61982 44.3536 4.55215 44.3633 4.48242 44.3733C4.21875 44.344 4.21875 44.344 3.96423 44.1579C3.69534 43.8031 3.65433 43.5346 3.60352 43.1018C3.41543 41.8461 2.90853 41.0229 1.97461 40.1487C1.18682 39.3795 0.63097 38.3482 0.28125 37.3127C0.236475 37.1831 0.236475 37.1831 0.190796 37.0509C-0.372974 35.0842 -0.0366455 32.896 0.9375 31.1252C1.13852 30.797 1.35603 30.4903 1.59375 30.1877C1.67732 30.081 1.67732 30.081 1.76257 29.972C4.27505 26.9602 9.04602 26.5857 12.1113 28.9455ZM3.46875 31.0315C2.25406 32.502 1.83411 33.8588 1.9449 35.7631C2.0872 37.1781 2.87457 38.2465 3.86462 39.2032C4.81039 40.1289 5.21662 41.2328 5.625 42.469C5.93437 42.469 6.24375 42.469 6.5625 42.469C6.88159 39.948 6.88159 39.948 6.21423 37.6251C5.89463 37.2827 5.54072 37.0041 5.13634 36.7678C4.96875 36.6565 4.96875 36.6565 4.78125 36.3752C4.75964 36.1526 4.75964 36.1526 4.76367 35.9065C4.76428 35.8253 4.76488 35.7441 4.7655 35.6604C4.78125 35.4377 4.78125 35.4377 4.875 35.1565C5.29514 35.0164 5.65717 34.9654 6.09375 35.0627C6.44902 35.305 6.73691 35.5946 7.03125 35.9065C7.15604 36.0317 7.28096 36.1568 7.40625 36.2815C7.74601 36.1391 7.9554 35.9364 8.20898 35.6721C8.78421 35.0746 8.78421 35.0746 9.12891 35.0411C9.21012 35.0424 9.29133 35.0438 9.375 35.0451C9.45621 35.0458 9.53742 35.0464 9.62109 35.047C9.84375 35.0627 9.84375 35.0627 10.125 35.1565C10.2653 35.5773 10.3139 35.9376 10.2187 36.3752C9.94201 36.7945 9.58241 37.1792 9.15891 37.4518C8.81455 37.7094 8.57397 37.9416 8.48735 38.3773C8.42447 39.0393 8.4546 39.7021 8.47852 40.3655C8.48275 40.5694 8.4866 40.7733 8.49005 40.9772C8.49931 41.4747 8.51384 41.9717 8.53125 42.469C8.80969 42.469 9.08812 42.469 9.375 42.469C9.41174 42.353 9.44848 42.2369 9.48633 42.1174C9.98343 40.6469 10.7143 39.6675 11.7839 38.5534C12.8351 37.4197 13.1069 35.9863 13.0635 34.4955C12.9841 33.014 12.3049 31.8048 11.2397 30.7949C9.05742 28.9252 5.50722 28.8309 3.46875 31.0315ZM6.65625 44.344C6.58138 45.1963 6.58138 45.1963 6.84375 45.9729C7.20335 46.1677 7.47524 46.227 7.875 46.1252C8.20434 45.873 8.36709 45.6863 8.4375 45.2815C8.44371 45.1175 8.44552 44.9533 8.44336 44.7893C8.44143 44.6423 8.43949 44.4954 8.4375 44.344C7.84969 44.344 7.26187 44.344 6.65625 44.344Z" fill="#703391"/>
<path d="M34.4062 9.46895C34.6992 9.64474 34.6992 9.64474 34.875 9.9377C34.9677 10.4089 34.9478 10.7538 34.6992 11.1682C34.2848 11.4168 33.9399 11.4367 33.4687 11.344C33.1758 11.1682 33.1758 11.1682 33 10.8752C32.9073 10.404 32.9272 10.0591 33.1758 9.64474C33.5901 9.39612 33.935 9.37626 34.4062 9.46895Z" fill="#703391"/>
</g>
<defs>
<clipPath id="clip0_952_290">
<rect width="48" height="48" fill="white"/>
</clipPath>
</defs>
</svg>
