<svg width="66" height="46" viewBox="0 0 66 46" fill="none" xmlns="http://www.w3.org/2000/svg">
<path d="M65.4725 38.7368L60.8571 35.9795L56.2418 33.2222C55.978 33.0877 55.6484 33.0877 55.3187 33.2222C55.0549 33.3567 54.8571 33.693 54.8571 34.0292V36.6521H44.3736C47.1429 33.962 49.1868 30.5994 50.1758 26.8333H53.011C53.3407 26.8333 53.6044 26.6316 53.8022 26.3626C53.9341 26.0936 53.9341 25.7573 53.8022 25.4211L48.4615 15.9386C48.3297 15.6696 48 15.4678 47.6703 15.4678C47.3407 15.4678 47.0769 15.6696 46.8791 15.9386L44.1758 20.6462L41.4725 25.3538C41.3407 25.6228 41.3407 25.9591 41.4725 26.2953C41.6044 26.5643 41.9341 26.7661 42.2637 26.7661H44.2418C42 32.617 36.3297 36.5848 30.1319 36.5848H0.923077C0.395604 36.7193 0 37.1228 0 37.5936V41.4942C0 42.0322 0.395604 42.4357 0.923077 42.4357C5.8022 42.4357 10.6813 42.4357 15.5604 42.4357C20.4396 42.4357 25.3187 42.4357 30.1978 42.4357C30.3297 42.4357 30.5275 42.4357 30.6593 42.4357C30.6593 42.4357 30.6593 42.4357 30.7253 42.4357H54.8571V45.0585C54.8571 45.3947 55.0549 45.6637 55.3187 45.8655C55.4506 45.9328 55.5824 46 55.7802 46C55.9121 46 56.1099 45.9328 56.2418 45.8655L65.5385 40.4181C65.8022 40.2836 66 39.9474 66 39.6111C65.9341 39.2076 65.7363 38.9386 65.4725 38.7368ZM1.78022 40.5526V38.5351H30.1978C33.8901 38.5351 37.4506 37.3246 40.4176 35.038C43.2527 32.8187 45.4286 29.7251 46.4835 26.2281C46.5495 25.9591 46.4835 25.6228 46.3517 25.4211C46.1539 25.2193 45.8901 25.0175 45.6264 25.0175H43.9121L47.7363 18.2924L51.5604 25.0175H49.5824C49.1868 25.0175 48.7912 25.2866 48.7253 25.6901C46.6813 34.4328 39.0989 40.4854 30.2637 40.4854C25.3846 40.4854 20.5055 40.4854 15.6264 40.4854C10.9451 40.5526 6.3956 40.5526 1.78022 40.5526ZM56.6374 43.4444V41.4942C56.6374 40.9561 56.2418 40.5526 55.7143 40.5526H38.7033C39.8901 40.0146 41.0769 39.3421 42.1978 38.5351H55.7802C56.3077 38.5351 56.7033 38.1316 56.7033 37.5936V35.6433L63.2967 39.5439L56.6374 43.4444ZM11.8022 31.6082C11.9341 31.8772 12.2637 32.0789 12.5934 32.0789C12.9231 32.0789 13.1868 31.8772 13.3846 31.6082L18.7253 22.1257C18.8571 21.8567 18.8571 21.5205 18.7253 21.1842C18.5934 20.9152 18.2637 20.7135 17.9341 20.7135H15.033C15.2967 12.3743 21.956 5.71637 30.1978 5.71637C36.4615 5.71637 41.9341 9.54971 44.3077 15.4006C44.4396 15.7368 44.7033 15.9386 45.0989 16.0058C45.4286 16.0058 45.7582 15.8713 45.956 15.5351L48.2637 11.5C48.3956 11.231 48.3956 10.8947 48.2637 10.5585C46.4835 7.39766 43.9121 4.77485 40.8132 2.89181C37.6484 1.00877 34.022 0 30.2637 0C18.989 0 9.75824 9.2807 9.49451 20.7135H7.25275C6.92308 20.7135 6.65934 20.9152 6.46154 21.1842C6.32967 21.4532 6.32967 21.7895 6.46154 22.1257L11.8022 31.6082ZM10.3516 22.5965C10.6154 22.5965 10.8132 22.5292 11.011 22.3275C11.2088 22.1257 11.2747 21.924 11.2747 21.655C11.2747 21.5205 11.2747 21.386 11.2747 21.2515C11.2747 10.5585 19.7802 1.88304 30.2637 1.88304C36.8571 1.88304 42.989 5.38012 46.4176 11.0965L45.2308 13.114C43.978 10.6257 42.1319 8.54094 39.8242 6.9269C36.989 4.90936 33.6923 3.90059 30.1978 3.90059C20.8352 3.90059 13.2527 11.6345 13.2527 21.1842C13.2527 21.3187 13.2527 21.5205 13.2527 21.655C13.2527 22.1257 13.6484 22.5292 14.1758 22.5292H16.4176L12.5934 29.2544L8.76923 22.5292H10.3516V22.5965ZM40.3517 23.538C40.6813 23.4708 41.011 23.1345 41.011 22.731C41.0769 22.193 41.0769 21.7222 41.0769 21.1842C41.0769 20.7135 41.011 20.1754 41.011 19.6374C40.9451 19.2339 40.6813 18.9649 40.3517 18.8977L38.9011 18.5614C38.7033 17.9561 38.5055 17.4181 38.1758 16.8129L38.967 15.4678C39.1648 15.1316 39.1648 14.7281 38.9011 14.4591C38.3077 13.652 37.5824 12.9123 36.7912 12.307C36.5275 12.1053 36.1319 12.038 35.8022 12.2398L34.5495 13.0468C34.022 12.7778 33.4286 12.5088 32.8352 12.307L32.4396 10.8947C32.3736 10.5585 32.044 10.2895 31.7143 10.2222C30.7253 10.0877 29.7363 10.0877 28.7473 10.2222C28.3516 10.2895 28.0879 10.5585 28.022 10.8947L27.6264 12.3743C27.033 12.576 26.5055 12.7778 25.9121 13.114L24.6593 12.307C24.3297 12.1053 23.9341 12.1053 23.6703 12.3743C22.8791 12.9795 22.1538 13.7193 21.5604 14.5263C21.3626 14.7953 21.2967 15.1988 21.4945 15.5351L22.2857 16.8801C22.022 17.4181 21.7582 18.0234 21.5604 18.6287L20.044 18.9649C19.7143 19.0322 19.4506 19.3684 19.3846 19.7047C19.3187 20.2427 19.2527 20.7135 19.2527 21.2515C19.2527 21.7895 19.3187 22.2602 19.3846 22.7982C19.4506 23.2018 19.7143 23.4708 20.044 23.538L21.4945 23.9415C21.6923 24.5468 21.8901 25.0848 22.2198 25.6901L21.4286 26.9678C21.2308 27.3041 21.2308 27.7076 21.4945 27.9766C22.0879 28.7836 22.8132 29.5234 23.6044 30.1287C23.8681 30.3304 24.3297 30.3977 24.5934 30.1959L25.8462 29.3889C26.3736 29.6579 26.967 29.9269 27.5604 30.1287L27.956 31.6082C28.022 31.9444 28.3516 32.2135 28.6813 32.2807C29.2088 32.348 29.6703 32.4152 30.1978 32.4152C30.7253 32.4152 31.1868 32.348 31.7143 32.2807C32.1099 32.2135 32.3736 31.9444 32.4396 31.6082L32.8352 30.1287C33.4286 29.9269 34.022 29.7251 34.5495 29.3889L35.8022 30.1959C36.1319 30.3977 36.5275 30.3977 36.7912 30.1287C37.5824 29.5234 38.3077 28.7836 38.9011 27.9766C39.0989 27.7076 39.1648 27.3041 38.967 26.9678L38.1758 25.6901C38.4396 25.1521 38.7033 24.5468 38.9011 23.9415L40.3517 23.538ZM37.978 22.2602C37.6484 22.3275 37.3846 22.5965 37.3187 22.9328C37.1209 23.7398 36.8571 24.4795 36.3956 25.1521C36.1978 25.4211 36.1978 25.8246 36.3956 26.0936L37.1209 27.3041C36.8571 27.6404 36.5275 27.9766 36.1978 28.2456L34.9451 27.5731C34.6813 27.3713 34.2857 27.3713 34.022 27.5731C33.3626 27.9766 32.6374 28.3129 31.8462 28.5146C31.5165 28.5819 31.2527 28.8509 31.1868 29.1871L30.8571 30.5994C30.3956 30.5994 30 30.5994 29.5385 30.5994L29.2088 29.1871C29.1429 28.8509 28.8791 28.5819 28.5495 28.5146C27.7582 28.3129 27.033 28.0439 26.3736 27.5731C26.1099 27.3713 25.7143 27.3713 25.4506 27.5731L24.2637 28.3129C23.9341 28.0439 23.6044 27.7076 23.3407 27.3713L24.0659 26.1608C24.2637 25.8918 24.2637 25.4883 24.0659 25.2193C23.6703 24.5468 23.3407 23.807 23.1429 23C23.0769 22.6637 22.8132 22.3947 22.4835 22.3275L21.0989 21.924C21.0989 21.7222 21.0989 21.4532 21.0989 21.2515C21.0989 21.0497 21.0989 20.7807 21.0989 20.579L22.4835 20.2427C22.8132 20.1754 23.0769 19.9064 23.1429 19.5702C23.3407 18.7632 23.6044 18.0234 24.0659 17.3509C24.2637 17.0819 24.2637 16.6784 24.0659 16.4094L23.3407 15.1988C23.6044 14.8626 23.9341 14.5263 24.2637 14.2573L25.4506 14.9971C25.7143 15.1988 26.1099 15.1988 26.3736 14.9971C27.033 14.5936 27.7582 14.2573 28.5495 14.0556C28.8791 13.9883 29.1429 13.7193 29.2088 13.383L29.5385 11.9708C30 11.9708 30.3956 11.9708 30.8571 11.9708L31.1868 13.383C31.2527 13.7193 31.5165 13.9883 31.8462 14.0556C32.6374 14.2573 33.3626 14.5263 34.022 14.9971C34.2857 15.1988 34.6813 15.1988 34.9451 14.9971L36.1319 14.2573C36.4615 14.5263 36.7912 14.8626 37.0549 15.1988L36.3297 16.4094C36.1319 16.6784 36.1319 17.0819 36.3297 17.3509C36.7253 18.0234 37.0549 18.7632 37.2527 19.5702C37.3187 19.9064 37.5824 20.1754 37.9121 20.2427L39.2967 20.579C39.2967 20.7807 39.2967 21.0497 39.2967 21.2515C39.2967 21.4532 39.2967 21.7222 39.2967 21.924L37.978 22.2602ZM30.1978 15.1316C26.9011 15.1316 24.1978 17.8889 24.1978 21.2515C24.1978 24.614 26.9011 27.3713 30.1978 27.3713C33.4945 27.3713 36.1978 24.614 36.1978 21.2515C36.1978 17.8889 33.4945 15.1316 30.1978 15.1316ZM30.1978 25.4883C27.8901 25.4883 26.044 23.538 26.044 21.1842C26.044 18.8304 27.8901 16.8801 30.1978 16.8801C32.5055 16.8801 34.4176 18.7632 34.4176 21.1842C34.3517 23.6053 32.5055 25.4883 30.1978 25.4883ZM33.0989 18.9649C33.4286 19.3012 33.4286 19.9064 33.0989 20.2427L29.8022 23.4708C29.6044 23.6053 29.4066 23.7398 29.2088 23.7398C28.9451 23.7398 28.7473 23.6053 28.5495 23.4708L27.2967 22.1257C26.967 21.7222 26.967 21.1842 27.3626 20.848C27.7582 20.5117 28.2857 20.5117 28.6154 20.9152L29.2088 21.5877L31.8462 19.0322C32.1758 18.6287 32.7692 18.6287 33.0989 18.9649Z" fill="#703391"/>
</svg>
